<svg width="57" height="52" viewBox="0 0 57 52" fill="none" xmlns="http://www.w3.org/2000/svg">
<path d="M1.27759 2.17822H4.83326C5.50297 2.17822 5.83783 2.17822 6.10731 2.2865C6.34478 2.38192 6.54603 2.53537 6.68705 2.72856C6.84708 2.94779 6.89444 3.23924 6.98915 3.82213L8.27759 11.7516M8.27759 11.7516L11.1411 30.2556C11.5044 32.6038 11.6861 33.7779 12.3246 34.6617C12.8873 35.4404 13.6939 36.0596 14.6474 36.4448C15.7295 36.8819 17.0772 36.8819 19.7727 36.8819H43.0691C45.635 36.8819 46.9179 36.8819 47.9663 36.476C48.8908 36.1181 49.6837 35.5412 50.2566 34.8098C50.9062 33.9802 51.1463 32.8722 51.6264 30.6562L55.2296 14.0246C55.3986 13.2446 55.4831 12.8547 55.3606 12.5498C55.2532 12.2824 55.0413 12.0572 54.7626 11.9144C54.4449 11.7516 53.9934 11.7516 53.0903 11.7516H8.27759ZM23.0554 47.652C23.0554 48.9738 21.8366 50.0454 20.3331 50.0454C18.8297 50.0454 17.6109 48.9738 17.6109 47.652C17.6109 46.3302 18.8297 45.2586 20.3331 45.2586C21.8366 45.2586 23.0554 46.3302 23.0554 47.652ZM44.8331 47.652C44.8331 48.9738 43.6144 50.0454 42.1109 50.0454C40.6075 50.0454 39.3887 48.9738 39.3887 47.652C39.3887 46.3302 40.6075 45.2586 42.1109 45.2586C43.6144 45.2586 44.8331 46.3302 44.8331 47.652Z" stroke="#53389E" stroke-width="2.5" stroke-linecap="round" stroke-linejoin="round"/>
</svg>
