<svg width="20" height="21" viewBox="0 0 20 21" fill="none" xmlns="http://www.w3.org/2000/svg">
<path d="M4.16602 3.02344L1.66602 5.52344M18.3327 5.52344L15.8327 3.02344M4.99935 16.3568L3.33268 18.0234M14.9993 16.3568L16.666 18.0234M7.49935 11.7734L9.16602 13.4401L12.916 9.6901M9.99935 18.0234C11.7675 18.0234 13.4632 17.3211 14.7134 16.0708C15.9636 14.8206 16.666 13.1249 16.666 11.3568C16.666 9.58866 15.9636 7.89297 14.7134 6.64273C13.4632 5.39248 11.7675 4.6901 9.99935 4.6901C8.23124 4.6901 6.53555 5.39248 5.2853 6.64273C4.03506 7.89297 3.33268 9.58866 3.33268 11.3568C3.33268 13.1249 4.03506 14.8206 5.2853 16.0708C6.53555 17.3211 8.23124 18.0234 9.99935 18.0234Z" stroke="#344054" stroke-width="1.66667" stroke-linecap="round" stroke-linejoin="round"/>
</svg>
