<svg width="39" height="39" viewBox="0 0 39 39" fill="none" xmlns="http://www.w3.org/2000/svg">
<path d="M1.17315 19.1887C1.07138 8.79437 9.41545 0.285636 19.8102 0.183855C30.2049 0.0820744 38.7139 8.42579 38.8157 18.8201C38.9175 29.2144 30.5734 37.7231 20.1787 37.8249C9.78401 37.9267 1.27493 29.583 1.17315 19.1887Z" fill="url(#paint0_radial_442_16407)"/>
<path d="M27.127 21.5997C25.1671 21.5997 23.5783 19.9566 23.5783 17.9297C23.5783 15.9029 25.1671 14.2598 27.127 14.2598C29.087 14.2598 30.6758 15.9029 30.6758 17.9297C30.6758 19.9566 29.087 21.5997 27.127 21.5997Z" fill="#87594A"/>
<g style="mix-blend-mode:multiply">
<path d="M1.17046 19.0073C1.17046 29.3995 9.59942 37.8282 19.992 37.8282C24.1166 37.8282 27.9279 36.5035 31.0234 34.257C28.2366 35.7147 25.0682 36.5422 21.707 36.5422C10.6026 36.5422 1.59923 27.539 1.59923 16.4351C1.59923 15.8306 1.62497 15.2303 1.68068 14.6387C1.34628 16.0405 1.17046 17.5025 1.17046 19.0073Z" fill="#FBAA9E"/>
</g>
<g style="mix-blend-mode:multiply">
<path d="M24.9145 12.8233C25.865 11.7985 27.2148 11.2295 28.612 11.2651C29.1369 11.2737 29.6735 10.9894 29.807 10.5002C29.8084 10.4942 29.8097 10.4882 29.8111 10.4822C29.9461 9.99669 29.428 9.43516 28.6584 9.41621C26.7312 9.3674 24.8695 10.1519 23.5586 11.5655C23.0347 12.1296 23.0748 12.8925 23.5166 13.135C23.5219 13.1382 23.5271 13.1414 23.5324 13.1445C23.9757 13.3906 24.554 13.205 24.9144 12.8233H24.9145Z" fill="#FBAA9E"/>
</g>
<g style="mix-blend-mode:multiply">
<path d="M15.0706 12.8233C14.1201 11.7985 12.7703 11.2295 11.3731 11.2651C10.8482 11.2737 10.3116 10.9894 10.1781 10.5002C10.1768 10.4942 10.1754 10.4882 10.1738 10.4822C10.0388 9.99669 10.5571 9.43516 11.3266 9.41621C13.2538 9.3674 15.1154 10.1519 16.4265 11.5655C16.9502 12.1296 16.9103 12.8925 16.4685 13.135C16.4632 13.1382 16.458 13.1414 16.4527 13.1445C16.0094 13.3906 15.4312 13.205 15.0708 12.8233H15.0706Z" fill="#FBAA9E"/>
</g>
<path d="M12.858 21.5997C10.8981 21.5997 9.30927 19.9566 9.30927 17.9297C9.30927 15.9029 10.8981 14.2598 12.858 14.2598C14.8179 14.2598 16.4067 15.9029 16.4067 17.9297C16.4067 19.9566 14.8179 21.5997 12.858 21.5997Z" fill="#87594A"/>
<path d="M11.5289 16.5114C11.5262 15.7751 12.121 15.176 12.8573 15.1733C13.5936 15.1707 14.1927 15.7654 14.1954 16.5017C14.198 17.2381 13.6033 17.8371 12.867 17.8398C12.1306 17.8425 11.5316 17.2477 11.5289 16.5114Z" fill="white"/>
<path d="M26.005 16.5114C26.0023 15.7751 26.597 15.176 27.3334 15.1733C28.0697 15.1707 28.6688 15.7654 28.6714 16.5017C28.6741 17.2381 28.0794 17.8371 27.343 17.8398C26.6067 17.8425 26.0076 17.2477 26.005 16.5114Z" fill="white"/>
<path d="M14.1781 29.5751C14.1781 31.4892 15.4124 33.1541 17.2301 34.0059C17.9692 34.3514 18.8048 34.5629 19.6927 34.6021C19.7922 34.6068 19.8917 34.6083 19.9921 34.6083C20.0925 34.6083 20.1919 34.6067 20.2914 34.6021C21.1794 34.5629 22.015 34.3514 22.7541 34.0059C24.5718 33.1541 25.8062 31.4892 25.8062 29.5751C25.8062 28.7635 25.5839 28.056 25.1897 27.4611C24.2345 26.017 22.2657 25.2354 19.9921 25.2354C17.7185 25.2354 15.7496 26.0168 14.7944 27.4611C14.4002 28.056 14.1779 28.7635 14.1779 29.5751H14.1781Z" fill="#87594A"/>
<defs>
<radialGradient id="paint0_radial_442_16407" cx="0" cy="0" r="1" gradientUnits="userSpaceOnUse" gradientTransform="translate(20.117 16.1657) rotate(-180) scale(18.8242 18.8242)">
<stop stop-color="#FDA135"/>
<stop offset="0.457" stop-color="#FC9F34"/>
<stop offset="0.622" stop-color="#FC9832"/>
<stop offset="0.739" stop-color="#FB8C2F"/>
<stop offset="0.834" stop-color="#FA7B2B"/>
<stop offset="0.916" stop-color="#F96526"/>
<stop offset="0.986" stop-color="#F74B1F"/>
<stop offset="1" stop-color="#F7451E"/>
</radialGradient>
</defs>
</svg>
