<svg width="25" height="30" viewBox="0 0 25 30" fill="none" xmlns="http://www.w3.org/2000/svg">
<path d="M9.35395 27C10.0591 27.6224 10.9853 28 11.9998 28C13.0142 28 13.9405 27.6224 14.6456 27M17.9998 14C17.9998 12.4087 17.3676 10.8826 16.2424 9.75736C15.1172 8.63214 13.5911 8 11.9998 8C10.4085 8 8.88235 8.63214 7.75713 9.75736C6.63192 10.8826 5.99977 12.4087 5.99977 14C5.99977 17.0902 5.22024 19.206 4.34944 20.6054C3.6149 21.7859 3.24763 22.3761 3.2611 22.5408C3.27601 22.7231 3.31463 22.7926 3.46155 22.9016C3.59423 23 4.19237 23 5.38863 23H18.6109C19.8072 23 20.4053 23 20.538 22.9016C20.6849 22.7926 20.7235 22.7231 20.7384 22.5408C20.7519 22.3761 20.3846 21.7859 19.6501 20.6054C18.7793 19.206 17.9998 17.0902 17.9998 14Z" stroke="#667085" stroke-width="2" stroke-linecap="round" stroke-linejoin="round"/>
<circle cx="21" cy="4" r="4" fill="#FF0000"/>
</svg>
