<svg width="81" height="31" viewBox="0 0 81 31" fill="none" xmlns="http://www.w3.org/2000/svg">
<path d="M4.91002 0V29.2321H5.66998V0H4.91002ZM6.42993 0V29.2321H7.18989V0H6.42993ZM9.46976 0V27.5126H10.9897V0H9.46976ZM11.7496 0V27.5126H12.5096V0H11.7496ZM13.2695 0V27.5126H16.3094V0H13.2695ZM17.0693 0V27.5126H17.8293V0H17.0693ZM18.5892 0V27.5126H19.3492V0H18.5892ZM20.1091 0V27.5126H23.1489V0H20.1091ZM25.4288 0V27.5126H26.9487V0H25.4288ZM27.7087 0V27.5126H28.4686V0H27.7087ZM30.7485 0V27.5126H32.2684V0H30.7485ZM33.0284 0V27.5126H33.7883V0H33.0284ZM36.0682 0V27.5126H37.5881V0H36.0682ZM38.3481 0V27.5126H39.108V0H38.3481ZM39.868 0V29.2321H40.6279V0H39.868ZM41.3879 0V29.2321H42.1478V0H41.3879ZM42.9078 0V27.5126H44.4277V0H42.9078ZM45.1876 0V27.5126H46.7076V0H45.1876ZM48.2275 0V27.5126H50.5073V0H48.2275ZM51.2673 0V27.5126H52.0272V0H51.2673ZM53.5472 0V27.5126H55.0671V0H53.5472ZM56.587 0V27.5126H58.1069V0H56.587ZM58.8668 0V27.5126H59.6268V0H58.8668ZM60.3868 0V27.5126H62.6666V0H60.3868ZM64.1865 0V27.5126H64.9465V0H64.1865ZM66.4664 0V27.5126H68.7463V0H66.4664ZM69.5062 0V27.5126H71.0261V0H69.5062ZM71.7861 0V27.5126H73.306V0H71.7861ZM74.8259 0V29.2321H75.5859V0H74.8259ZM76.3458 0V29.2321H77.1058V0H76.3458ZM1.91473 28.3992C1.29381 28.3992 0.818833 28.5103 0.489814 28.733C0.163269 28.9547 0 29.2771 0 29.7003C0 30.1223 0.163269 30.4447 0.489814 30.6675C0.818833 30.8892 1.29381 31 1.91473 31C2.53566 31 3.00865 30.8892 3.33519 30.6675C3.66421 30.4447 3.82947 30.1223 3.82947 29.7003C3.82947 29.2771 3.66421 28.9547 3.33519 28.733C3.00865 28.5103 2.53566 28.3992 1.91473 28.3992ZM13.844 28.3992C13.6238 28.3992 13.3888 28.4082 13.1389 28.4261C12.8915 28.444 12.6263 28.4708 12.3419 28.5067V28.8089C12.6239 28.7664 12.8816 28.735 13.1167 28.7149C13.3517 28.6947 13.5718 28.6847 13.7772 28.6847C14.1532 28.6847 14.4421 28.7194 14.6425 28.7888C14.8453 28.8571 14.9468 28.9556 14.9468 29.0843C14.9468 29.2097 14.8483 29.306 14.6529 29.3731C14.4575 29.4392 14.1754 29.4719 13.8068 29.4719H13.1315V29.7506H13.7772C14.1853 29.7506 14.504 29.793 14.7316 29.8769C14.9616 29.9598 15.0759 30.0751 15.0759 30.2228C15.0759 30.3829 14.9522 30.5049 14.7048 30.5889C14.4599 30.6729 14.1032 30.7145 13.6332 30.7145C13.3635 30.7145 13.1043 30.7009 12.8569 30.6729C12.6095 30.6449 12.3819 30.6035 12.1741 30.5486V30.8757C12.4364 30.9171 12.6907 30.9483 12.9356 30.9684C13.1829 30.9897 13.4229 31 13.6554 31C14.3481 31 14.8825 30.9326 15.2585 30.7971C15.6345 30.6617 15.8225 30.4703 15.8225 30.2228C15.8225 30.0616 15.7211 29.9262 15.5182 29.8165C15.3178 29.7068 15.0383 29.6342 14.6796 29.5995C15.0037 29.5626 15.2535 29.4965 15.4292 29.4014C15.6048 29.3051 15.6919 29.1875 15.6919 29.0487C15.6919 28.8495 15.5261 28.6916 15.1947 28.5752C14.8632 28.4576 14.4129 28.3992 13.844 28.3992ZM19.2616 28.3992C18.5615 28.3992 18.0044 28.517 17.5888 28.7532C17.1732 28.9883 16.9654 29.304 16.9654 29.7003C16.9654 30.1223 17.1341 30.4447 17.473 30.6675C17.8119 30.8892 18.3018 31 18.9425 31C19.5016 31 19.9493 30.9225 20.2858 30.7669C20.6222 30.6113 20.7904 30.4044 20.7904 30.1469C20.7904 29.8839 20.6291 29.6765 20.3051 29.5243C19.9835 29.3709 19.5436 29.2939 18.987 29.2939C18.7223 29.2939 18.4799 29.3206 18.2597 29.3732C18.0395 29.4247 17.8565 29.4988 17.7105 29.5962C17.7476 29.2905 17.8961 29.0622 18.1558 28.911C18.418 28.7599 18.7965 28.6847 19.2913 28.6847C19.4793 28.6847 19.6693 28.695 19.8598 28.7163C20.0527 28.7375 20.2432 28.7686 20.4312 28.8089V28.5C20.2234 28.4664 20.023 28.4409 19.8301 28.4241C19.6396 28.4073 19.4496 28.3992 19.2616 28.3992ZM23.6892 28.3992C23.0683 28.3992 22.5933 28.5103 22.2643 28.733C21.9378 28.9547 21.7745 29.2771 21.7745 29.7003C21.7745 30.1223 21.9378 30.4447 22.2643 30.6675C22.5933 30.8892 23.0683 31 23.6892 31C24.3102 31 24.7831 30.8892 25.1097 30.6675C25.4387 30.4447 25.604 30.1223 25.604 29.7003C25.604 29.2771 25.4387 28.9547 25.1097 28.733C24.7831 28.5103 24.3102 28.3992 23.6892 28.3992ZM28.528 28.3992C27.9071 28.3992 27.4321 28.5103 27.1031 28.733C26.7765 28.9547 26.6133 29.2771 26.6133 29.7003C26.6133 30.1223 26.7765 30.4447 27.1031 30.6675C27.4321 30.8892 27.9071 31 28.528 31C29.1489 31 29.6219 30.8892 29.9485 30.6675C30.2775 30.4447 30.4427 30.1223 30.4427 29.7003C30.4427 29.2771 30.2775 28.9547 29.9485 28.733C29.6219 28.5103 29.1489 28.3992 28.528 28.3992ZM33.3668 28.3992C32.7459 28.3992 32.2709 28.5103 31.9419 28.733C31.6153 28.9547 31.4521 29.2771 31.4521 29.7003C31.4521 30.1223 31.6153 30.4447 31.9419 30.6675C32.2709 30.8892 32.7459 31 33.3668 31C33.9877 31 34.4607 30.8892 34.7873 30.6675C35.1163 30.4447 35.2815 30.1223 35.2815 29.7003C35.2815 29.2771 35.1163 28.9547 34.7873 28.733C34.4607 28.5103 33.9877 28.3992 33.3668 28.3992ZM47.6263 28.3992C47.4086 28.3992 47.1687 28.4128 46.9065 28.4409C46.6442 28.4688 46.3622 28.5103 46.0604 28.5651V28.9077C46.3573 28.8327 46.6363 28.7767 46.8961 28.7397C47.1583 28.7028 47.4062 28.6847 47.6412 28.6847C47.9727 28.6847 48.2418 28.7263 48.4471 28.8103C48.6549 28.8942 48.7588 29.0028 48.7588 29.136C48.7588 29.2178 48.7099 29.3015 48.6134 29.3866C48.5194 29.4706 48.3531 29.5735 48.1132 29.6956C47.987 29.7605 47.6778 29.9051 47.1855 30.1302C46.6957 30.3541 46.3078 30.533 46.0233 30.6662V30.9516H49.5411V30.6662H46.9258C47.5294 30.3874 47.9969 30.1705 48.3284 30.016C48.6599 29.8604 48.8558 29.7663 48.9177 29.7339C49.1428 29.6085 49.2981 29.4999 49.3823 29.4081C49.4688 29.3152 49.5114 29.2175 49.5114 29.1146C49.5114 28.8974 49.3407 28.7239 48.9993 28.594C48.6579 28.4641 48.2003 28.3992 47.6263 28.3992ZM52.6328 28.3992C52.0737 28.3992 51.626 28.4767 51.2896 28.6323C50.9531 28.7879 50.7849 28.9948 50.7849 29.2523C50.7849 29.5153 50.9457 29.7227 51.2673 29.8749C51.5914 30.026 52.0297 30.1019 52.5839 30.1019C52.851 30.1019 53.0954 30.0762 53.3156 30.0247C53.5358 29.9732 53.7169 29.8993 53.8603 29.803C53.8233 30.1098 53.6743 30.3384 53.4121 30.4895C53.1523 30.6395 52.7743 30.7145 52.2796 30.7145C52.094 30.7145 51.9055 30.7042 51.7126 30.6829C51.5196 30.6617 51.3291 30.6306 51.1411 30.5903V30.8992C51.3489 30.9328 51.5493 30.9583 51.7423 30.9751C51.9352 30.9919 52.1257 31 52.3137 31C53.0138 31 53.5704 30.8824 53.9835 30.6473C54.3991 30.4111 54.6069 30.0954 54.6069 29.7003C54.6069 29.2771 54.4367 28.9547 54.0978 28.733C53.7614 28.5102 53.2736 28.3992 52.6328 28.3992ZM79.0784 28.3992C78.8607 28.3992 78.6207 28.4128 78.3585 28.4409C78.0963 28.4688 77.8143 28.5103 77.5125 28.5651V28.9077C77.8093 28.8327 78.0884 28.7767 78.3481 28.7397C78.6103 28.7028 78.8582 28.6847 79.0932 28.6847C79.4247 28.6847 79.6939 28.7263 79.8992 28.8103C80.107 28.8942 80.2109 29.0028 80.2109 29.136C80.2109 29.2178 80.1619 29.3015 80.0654 29.3866C79.9714 29.4706 79.8052 29.5735 79.5652 29.6956C79.4391 29.7605 79.1299 29.9051 78.6376 30.1302C78.1477 30.3541 77.7598 30.533 77.4754 30.6662V30.9516H80.9931V30.6662H78.3778C78.9814 30.3874 79.449 30.1705 79.7805 30.016C80.112 29.8604 80.3079 29.7663 80.3697 29.7339C80.5948 29.6085 80.7502 29.4999 80.8343 29.4081C80.9209 29.3152 80.9634 29.2175 80.9634 29.1146C80.9634 28.8974 80.7927 28.7239 80.4513 28.594C80.11 28.4641 79.6523 28.3992 79.0784 28.3992ZM57.3039 28.4442L55.9799 28.5651V28.8741L57.3113 28.7532V30.6662H56.0868V30.9516H59.278V30.6662H58.0535V28.4442H57.3039ZM62.6592 28.4442L60.3541 30.0328V30.3605H62.8551V30.9516H63.6017V30.3605H64.3914V30.0784H63.6017V28.4442H62.6592ZM65.6426 28.4442V29.7036C65.8504 29.6611 66.0533 29.6297 66.2512 29.6096C66.4516 29.5894 66.6519 29.5794 66.8523 29.5794C67.2803 29.5794 67.6192 29.6306 67.869 29.7325C68.1189 29.8344 68.2431 29.9723 68.2431 30.1469C68.2431 30.3216 68.1189 30.4602 67.869 30.5621C67.6192 30.6639 67.2803 30.7145 66.8523 30.7145C66.5876 30.7145 66.3358 30.7011 66.0983 30.6742C65.8608 30.6474 65.6307 30.6068 65.4081 30.552V30.8925C65.6654 30.9283 65.9147 30.9552 66.1547 30.9731C66.3971 30.991 66.6346 31 66.8672 31C67.5425 31 68.065 30.9259 68.436 30.777C68.8071 30.627 68.9927 30.4167 68.9927 30.1469C68.9927 29.885 68.8121 29.6776 68.4509 29.5243C68.0897 29.3709 67.5999 29.2939 66.9814 29.2939C66.8726 29.2939 66.7638 29.2984 66.6549 29.3073C66.5461 29.3152 66.4372 29.3275 66.3283 29.3443V28.7297H68.5845V28.4442L65.6426 28.4442ZM1.91473 28.6679C2.30312 28.6679 2.59305 28.7541 2.78601 28.9265C2.98144 29.0978 3.0799 29.3555 3.0799 29.7003C3.0799 30.044 2.98144 30.3023 2.78601 30.4747C2.59305 30.646 2.30312 30.7313 1.91473 30.7313C1.52881 30.7313 1.2374 30.646 1.04197 30.4747C0.849007 30.3023 0.752529 30.044 0.752529 29.7003C0.752529 29.3555 0.849007 29.0978 1.04197 28.9265C1.2374 28.7541 1.52881 28.6679 1.91473 28.6679ZM23.6892 28.6679C24.0776 28.6679 24.3676 28.7541 24.5605 28.9265C24.7559 29.0978 24.8544 29.3555 24.8544 29.7003C24.8544 30.044 24.7559 30.3023 24.5605 30.4747C24.3676 30.646 24.0776 30.7313 23.6892 30.7313C23.3033 30.7313 23.0119 30.646 22.8165 30.4747C22.6235 30.3023 22.527 30.044 22.527 29.7003C22.527 29.3555 22.6235 29.0978 22.8165 28.9265C23.0119 28.7541 23.3033 28.6679 23.6892 28.6679ZM28.528 28.6679C28.9164 28.6679 29.2063 28.7541 29.3993 28.9265C29.5947 29.0978 29.6932 29.3555 29.6932 29.7003C29.6932 30.044 29.5947 30.3023 29.3993 30.4747C29.2063 30.646 28.9164 30.7313 28.528 30.7313C28.1421 30.7313 27.8507 30.646 27.6553 30.4747C27.4623 30.3023 27.3658 30.044 27.3658 29.7003C27.3658 29.3555 27.4623 29.0978 27.6553 28.9265C27.8507 28.7541 28.1421 28.6679 28.528 28.6679ZM33.3668 28.6679C33.7552 28.6679 34.0451 28.7541 34.2381 28.9265C34.4335 29.0978 34.5319 29.3555 34.5319 29.7003C34.5319 30.044 34.4335 30.3023 34.2381 30.4747C34.0451 30.646 33.7552 30.7313 33.3668 30.7313C32.9809 30.7313 32.6894 30.646 32.494 30.4747C32.3011 30.3023 32.2046 30.044 32.2046 29.7003C32.2046 29.3555 32.3011 29.0978 32.494 28.9265C32.6894 28.7541 32.9809 28.6679 33.3668 28.6679ZM52.6328 28.6679C52.9693 28.6679 53.2345 28.7205 53.4299 28.8257C53.6278 28.9298 53.7268 29.072 53.7268 29.2523C53.7268 29.4336 53.6278 29.576 53.4299 29.6801C53.2345 29.7842 52.9693 29.8366 52.6328 29.8366C52.2964 29.8366 52.0292 29.7842 51.8313 29.6801C51.6359 29.576 51.5374 29.4336 51.5374 29.2523C51.5374 29.072 51.6359 28.9298 51.8313 28.8257C52.0292 28.7205 52.2964 28.6679 52.6328 28.6679ZM62.8551 28.7397V30.0784H60.9627L62.8551 28.7397ZM18.9425 29.5626C19.2789 29.5626 19.5456 29.615 19.741 29.7191C19.9389 29.8232 20.0379 29.9656 20.0379 30.1469C20.0379 30.3272 19.9389 30.4703 19.741 30.5755C19.5456 30.6796 19.2789 30.7313 18.9425 30.7313C18.606 30.7313 18.3389 30.6796 18.141 30.5755C17.9455 30.4703 17.8486 30.3272 17.8486 30.1469C17.8486 29.9656 17.9455 29.8232 18.141 29.7191C18.3389 29.615 18.606 29.5626 18.9425 29.5626Z" fill="black"/>
</svg>
