<svg width="55" height="55" viewBox="0 0 55 55" fill="none" xmlns="http://www.w3.org/2000/svg">
<circle cx="27.5" cy="27.5" r="26" transform="matrix(-1 0 0 1 55 0)" fill="white" stroke="#D444F1" stroke-width="3"/>
<rect x="3.75" y="4" width="47.5" height="47.5" rx="23.75" fill="#FCE7F6"/>
<path d="M26.4584 26.4583H21.4584C20.2916 26.4583 19.7082 26.4583 19.2626 26.6854C18.8706 26.8851 18.5518 27.2038 18.3521 27.5959C18.125 28.0415 18.125 28.6249 18.125 29.7917V36.875M36.875 36.875V21.4583C36.875 20.2916 36.875 19.7082 36.648 19.2625C36.4482 18.8705 36.1295 18.5518 35.7375 18.3521C35.2919 18.125 34.7085 18.125 33.5417 18.125H29.7917C28.6249 18.125 28.0415 18.125 27.5959 18.3521C27.2039 18.5518 26.8852 18.8705 26.6854 19.2625C26.4584 19.7082 26.4584 20.2916 26.4584 21.4583V36.875M37.9167 36.875H17.0834M30.1042 22.2917H33.2292M30.1042 26.4583H33.2292M30.1042 30.625H33.2292" stroke="#BA24D5" stroke-width="2" stroke-linecap="round" stroke-linejoin="round"/>
</svg>
