<svg width="55" height="55" viewBox="0 0 55 55" fill="none" xmlns="http://www.w3.org/2000/svg">
<circle cx="27.5" cy="27.5" r="26" transform="matrix(-1 0 0 1 55 0)" fill="white" stroke="#A9A29D" stroke-width="3"/>
<rect x="3.75" y="4" width="47.5" height="47.5" rx="23.75" fill="#D7D3D0"/>
<path d="M23.75 18.125H19.7917C19.2083 18.125 18.9166 18.125 18.6938 18.2385C18.4978 18.3384 18.3384 18.4978 18.2385 18.6938C18.125 18.9166 18.125 19.2083 18.125 19.7917V23.75C18.125 24.3334 18.125 24.6251 18.2385 24.8479C18.3384 25.0439 18.4978 25.2033 18.6938 25.3031C18.9166 25.4167 19.2083 25.4167 19.7917 25.4167H23.75C24.3334 25.4167 24.6251 25.4167 24.8479 25.3031C25.0439 25.2033 25.2033 25.0439 25.3031 24.8479C25.4167 24.6251 25.4167 24.3334 25.4167 23.75V19.7917C25.4167 19.2083 25.4167 18.9166 25.3031 18.6938C25.2033 18.4978 25.0439 18.3384 24.8479 18.2385C24.6251 18.125 24.3334 18.125 23.75 18.125Z" stroke="#79716B" stroke-width="2" stroke-linecap="round" stroke-linejoin="round"/>
<path d="M35.2083 18.125H31.25C30.6666 18.125 30.3749 18.125 30.1521 18.2385C29.9561 18.3384 29.7967 18.4978 29.6969 18.6938C29.5833 18.9166 29.5833 19.2083 29.5833 19.7917V23.75C29.5833 24.3334 29.5833 24.6251 29.6969 24.8479C29.7967 25.0439 29.9561 25.2033 30.1521 25.3031C30.3749 25.4167 30.6666 25.4167 31.25 25.4167H35.2083C35.7917 25.4167 36.0834 25.4167 36.3062 25.3031C36.5022 25.2033 36.6616 25.0439 36.7615 24.8479C36.875 24.6251 36.875 24.3334 36.875 23.75V19.7917C36.875 19.2083 36.875 18.9166 36.7615 18.6938C36.6616 18.4978 36.5022 18.3384 36.3062 18.2385C36.0834 18.125 35.7917 18.125 35.2083 18.125Z" stroke="#79716B" stroke-width="2" stroke-linecap="round" stroke-linejoin="round"/>
<path d="M35.2083 29.5833H31.25C30.6666 29.5833 30.3749 29.5833 30.1521 29.6969C29.9561 29.7967 29.7967 29.9561 29.6969 30.1521C29.5833 30.3749 29.5833 30.6666 29.5833 31.25V35.2083C29.5833 35.7917 29.5833 36.0834 29.6969 36.3062C29.7967 36.5022 29.9561 36.6616 30.1521 36.7615C30.3749 36.875 30.6666 36.875 31.25 36.875H35.2083C35.7917 36.875 36.0834 36.875 36.3062 36.7615C36.5022 36.6616 36.6616 36.5022 36.7615 36.3062C36.875 36.0834 36.875 35.7917 36.875 35.2083V31.25C36.875 30.6666 36.875 30.3749 36.7615 30.1521C36.6616 29.9561 36.5022 29.7967 36.3062 29.6969C36.0834 29.5833 35.7917 29.5833 35.2083 29.5833Z" stroke="#79716B" stroke-width="2" stroke-linecap="round" stroke-linejoin="round"/>
<path d="M23.75 29.5833H19.7917C19.2083 29.5833 18.9166 29.5833 18.6938 29.6969C18.4978 29.7967 18.3384 29.9561 18.2385 30.1521C18.125 30.3749 18.125 30.6666 18.125 31.25V35.2083C18.125 35.7917 18.125 36.0834 18.2385 36.3062C18.3384 36.5022 18.4978 36.6616 18.6938 36.7615C18.9166 36.875 19.2083 36.875 19.7917 36.875H23.75C24.3334 36.875 24.6251 36.875 24.8479 36.7615C25.0439 36.6616 25.2033 36.5022 25.3031 36.3062C25.4167 36.0834 25.4167 35.7917 25.4167 35.2083V31.25C25.4167 30.6666 25.4167 30.3749 25.3031 30.1521C25.2033 29.9561 25.0439 29.7967 24.8479 29.6969C24.6251 29.5833 24.3334 29.5833 23.75 29.5833Z" stroke="#79716B" stroke-width="2" stroke-linecap="round" stroke-linejoin="round"/>
</svg>
