<svg width="28" height="27" viewBox="0 0 28 27" fill="none" xmlns="http://www.w3.org/2000/svg">
<path d="M9.65788 15.5402C9.65788 15.5402 11.3229 17.7602 14.0979 17.7602C16.873 17.7602 18.538 15.5402 18.538 15.5402M19.648 10.2565C19.2095 10.7949 18.6101 11.1001 17.983 11.1001C17.3558 11.1001 16.7731 10.7949 16.318 10.2565M11.8779 10.2565C11.4394 10.7949 10.84 11.1001 10.2129 11.1001C9.58573 11.1001 9.00297 10.7949 8.54787 10.2565M25.1981 13.3202C25.1981 19.4506 20.2284 24.4203 14.0979 24.4203C7.9675 24.4203 2.9978 19.4506 2.9978 13.3202C2.9978 7.18973 7.9675 2.22003 14.0979 2.22003C20.2284 2.22003 25.1981 7.18973 25.1981 13.3202Z" stroke="#475467" stroke-width="1.7" stroke-linecap="round" stroke-linejoin="round"/>
</svg>
