<svg width="28" height="28" viewBox="0 0 28 28" fill="none" xmlns="http://www.w3.org/2000/svg">
<mask id="path-1-inside-1_18699_200339" fill="white">
<path d="M27.1453 13.5727C27.1453 21.0686 21.0686 27.1453 13.5727 27.1453C6.07669 27.1453 0 21.0686 0 13.5727C0 6.07669 6.07669 0 13.5727 0C21.0686 0 27.1453 6.07669 27.1453 13.5727Z"/>
</mask>
<path d="M27.1453 13.5727C27.1453 21.0686 21.0686 27.1453 13.5727 27.1453C6.07669 27.1453 0 21.0686 0 13.5727C0 6.07669 6.07669 0 13.5727 0C21.0686 0 27.1453 6.07669 27.1453 13.5727Z" fill="black"/>
<path d="M26.1453 13.5727C26.1453 20.5164 20.5164 26.1453 13.5727 26.1453V28.1453C21.6209 28.1453 28.1453 21.6209 28.1453 13.5727H26.1453ZM13.5727 26.1453C6.62898 26.1453 1 20.5164 1 13.5727H-1C-1 21.6209 5.52441 28.1453 13.5727 28.1453V26.1453ZM1 13.5727C1 6.62898 6.62898 1 13.5727 1V-1C5.52441 -1 -1 5.52441 -1 13.5727H1ZM13.5727 1C20.5164 1 26.1453 6.62898 26.1453 13.5727H28.1453C28.1453 5.52441 21.6209 -1 13.5727 -1V1Z" fill="#1D2939" mask="url(#path-1-inside-1_18699_200339)"/>
<path d="M6 10.8571C6 9.50702 6 8.83195 6.29065 8.31627C6.54631 7.86267 6.95426 7.49388 7.45603 7.26275C8.02646 7 8.77319 7 10.2667 7H17.7333C19.2268 7 19.9735 7 20.544 7.26275C21.0457 7.49388 21.4537 7.86267 21.7094 8.31627C22 8.83195 22 9.50702 22 10.8571V15.4375C22 16.5608 22 17.1224 21.797 17.5654C21.5264 18.1561 21.0072 18.6254 20.3538 18.8701C19.8638 19.0536 19.2425 19.0536 18 19.0536C17.5657 19.0536 17.3486 19.0536 17.1471 19.0966C16.8785 19.1539 16.6283 19.267 16.4164 19.4268C16.2575 19.5467 16.1272 19.7038 15.8667 20.0179L14.5689 21.5821C14.3759 21.8148 14.2794 21.9311 14.1611 21.9727C14.0575 22.0091 13.9425 22.0091 13.8389 21.9727C13.7206 21.9311 13.6241 21.8148 13.4311 21.5821L12.1333 20.0179C11.8728 19.7038 11.7425 19.5467 11.5836 19.4268C11.3717 19.267 11.1215 19.1539 10.8529 19.0966C10.6514 19.0536 10.4343 19.0536 10 19.0536C8.75749 19.0536 8.13623 19.0536 7.64618 18.8701C6.99277 18.6254 6.47364 18.1561 6.20299 17.5654C6 17.1224 6 16.5608 6 15.4375V10.8571Z" fill="#F2F4F7"/>
<path d="M10.4444 13.0268C10.4444 13.2487 10.2455 13.4286 10 13.4286C9.75454 13.4286 9.55556 13.2487 9.55556 13.0268C9.55556 12.8049 9.75454 12.625 10 12.625C10.2455 12.625 10.4444 12.8049 10.4444 13.0268Z" fill="#F2F4F7"/>
<path d="M14.4444 13.0268C14.4444 13.2487 14.2455 13.4286 14 13.4286C13.7545 13.4286 13.5556 13.2487 13.5556 13.0268C13.5556 12.8049 13.7545 12.625 14 12.625C14.2455 12.625 14.4444 12.8049 14.4444 13.0268Z" fill="#F2F4F7"/>
<path d="M18.4444 13.0268C18.4444 13.2487 18.2455 13.4286 18 13.4286C17.7545 13.4286 17.5556 13.2487 17.5556 13.0268C17.5556 12.8049 17.7545 12.625 18 12.625C18.2455 12.625 18.4444 12.8049 18.4444 13.0268Z" fill="#F2F4F7"/>
<path d="M10 13.0268H10.0089M14 13.0268H14.0089M18 13.0268H18.0089M12.1333 20.0179L13.4311 21.5821C13.6241 21.8148 13.7206 21.9311 13.8389 21.9727C13.9425 22.0091 14.0575 22.0091 14.1611 21.9727C14.2794 21.9311 14.3759 21.8148 14.5689 21.5821L15.8667 20.0179C16.1272 19.7038 16.2575 19.5467 16.4164 19.4268C16.6283 19.267 16.8785 19.1539 17.1471 19.0966C17.3486 19.0536 17.5657 19.0536 18 19.0536C19.2425 19.0536 19.8638 19.0536 20.3538 18.8701C21.0072 18.6254 21.5264 18.1561 21.797 17.5654C22 17.1224 22 16.5608 22 15.4375V10.8571C22 9.50702 22 8.83195 21.7094 8.31627C21.4537 7.86267 21.0457 7.49388 20.544 7.26275C19.9735 7 19.2268 7 17.7333 7H10.2667C8.77319 7 8.02646 7 7.45603 7.26275C6.95426 7.49388 6.54631 7.86267 6.29065 8.31627C6 8.83195 6 9.50702 6 10.8571V15.4375C6 16.5608 6 17.1224 6.20299 17.5654C6.47364 18.1561 6.99277 18.6254 7.64618 18.8701C8.13623 19.0536 8.75749 19.0536 10 19.0536C10.4343 19.0536 10.6514 19.0536 10.8529 19.0966C11.1215 19.1539 11.3717 19.267 11.5836 19.4268C11.7425 19.5467 11.8728 19.7038 12.1333 20.0179ZM10.4444 13.0268C10.4444 13.2487 10.2455 13.4286 10 13.4286C9.75454 13.4286 9.55556 13.2487 9.55556 13.0268C9.55556 12.8049 9.75454 12.625 10 12.625C10.2455 12.625 10.4444 12.8049 10.4444 13.0268ZM14.4444 13.0268C14.4444 13.2487 14.2455 13.4286 14 13.4286C13.7545 13.4286 13.5556 13.2487 13.5556 13.0268C13.5556 12.8049 13.7545 12.625 14 12.625C14.2455 12.625 14.4444 12.8049 14.4444 13.0268ZM18.4444 13.0268C18.4444 13.2487 18.2455 13.4286 18 13.4286C17.7545 13.4286 17.5556 13.2487 17.5556 13.0268C17.5556 12.8049 17.7545 12.625 18 12.625C18.2455 12.625 18.4444 12.8049 18.4444 13.0268Z" stroke="#1D2939" stroke-linecap="round" stroke-linejoin="round"/>
</svg>
