<svg width="28" height="28" viewBox="0 0 28 28" fill="none" xmlns="http://www.w3.org/2000/svg">
<rect width="27.1453" height="27.1453" fill="#F4EBFF"/>
<mask id="path-1-inside-1_18699_200329" fill="white">
<path d="M27.1453 13.5727C27.1453 21.0686 21.0686 27.1453 13.5727 27.1453C6.07669 27.1453 0 21.0686 0 13.5727C0 6.07669 6.07669 0 13.5727 0C21.0686 0 27.1453 6.07669 27.1453 13.5727Z"/>
</mask>
<path d="M27.1453 13.5727C27.1453 21.0686 21.0686 27.1453 13.5727 27.1453C6.07669 27.1453 0 21.0686 0 13.5727C0 6.07669 6.07669 0 13.5727 0C21.0686 0 27.1453 6.07669 27.1453 13.5727Z" fill="black"/>
<path d="M26.1453 13.5727C26.1453 20.5164 20.5164 26.1453 13.5727 26.1453V28.1453C21.6209 28.1453 28.1453 21.6209 28.1453 13.5727H26.1453ZM13.5727 26.1453C6.62898 26.1453 1 20.5164 1 13.5727H-1C-1 21.6209 5.52441 28.1453 13.5727 28.1453V26.1453ZM1 13.5727C1 6.62898 6.62898 1 13.5727 1V-1C5.52441 -1 -1 5.52441 -1 13.5727H1ZM13.5727 1C20.5164 1 26.1453 6.62898 26.1453 13.5727H28.1453C28.1453 5.52441 21.6209 -1 13.5727 -1V1Z" fill="black" mask="url(#path-1-inside-1_18699_200329)"/>
<path d="M10.625 13H10.6325M14 13H14.0075M17.375 13H17.3825M14 19.75C17.7279 19.75 20.75 16.7279 20.75 13C20.75 9.27208 17.7279 6.25 14 6.25C10.2721 6.25 7.25 9.27208 7.25 13C7.25 13.8979 7.4253 14.7548 7.74355 15.5384C7.80446 15.6884 7.83491 15.7633 7.8485 15.824C7.86179 15.8833 7.86665 15.9271 7.86666 15.9879C7.86666 16.05 7.85539 16.1177 7.83283 16.253L7.3881 18.9214C7.34152 19.2009 7.31824 19.3406 7.36157 19.4416C7.3995 19.53 7.46996 19.6005 7.55839 19.6384C7.65942 19.6818 7.79914 19.6585 8.07857 19.6119L10.747 19.1672C10.8823 19.1446 10.95 19.1333 11.0121 19.1333C11.0729 19.1334 11.1167 19.1382 11.176 19.1515C11.2367 19.1651 11.3116 19.1955 11.4616 19.2565C12.2452 19.5747 13.1021 19.75 14 19.75ZM11 13C11 13.2071 10.8321 13.375 10.625 13.375C10.4179 13.375 10.25 13.2071 10.25 13C10.25 12.7929 10.4179 12.625 10.625 12.625C10.8321 12.625 11 12.7929 11 13ZM14.375 13C14.375 13.2071 14.2071 13.375 14 13.375C13.7929 13.375 13.625 13.2071 13.625 13C13.625 12.7929 13.7929 12.625 14 12.625C14.2071 12.625 14.375 12.7929 14.375 13ZM17.75 13C17.75 13.2071 17.5821 13.375 17.375 13.375C17.1679 13.375 17 13.2071 17 13C17 12.7929 17.1679 12.625 17.375 12.625C17.5821 12.625 17.75 12.7929 17.75 13Z" stroke="white" stroke-linecap="round" stroke-linejoin="round"/>
</svg>
