<svg width="29" height="28" viewBox="0 0 29 28" fill="none" xmlns="http://www.w3.org/2000/svg">
<path d="M15.2366 3.65514L3.43443 15.4613C3.28818 15.6114 3.20685 15.813 3.20802 16.0226C3.20919 16.2321 3.29277 16.4328 3.4407 16.5813C3.58863 16.7298 3.78903 16.8141 3.9986 16.816C4.20817 16.8179 4.41008 16.7373 4.56071 16.5916L16.3669 4.78544C16.823 4.32765 17.3652 3.96459 17.9622 3.71715C18.5592 3.46971 19.1993 3.34277 19.8456 3.34365C24.1932 3.32124 26.4151 8.69208 23.3244 11.7429C23.3163 11.755 11.4813 23.5823 11.4783 23.597C7.95628 26.8505 3.11569 21.9902 6.36599 18.4847L17.9405 6.91022C18.3743 6.47698 18.9624 6.2338 19.5755 6.23418C20.1885 6.23456 20.7763 6.47846 21.2096 6.91223C21.6428 7.346 21.886 7.93411 21.8856 8.54718C21.8852 9.16025 21.6413 9.74806 21.2076 10.1813L9.69299 21.6959C9.58421 21.8087 9.51079 21.9509 9.48177 22.105C9.45274 22.259 9.46939 22.4182 9.52964 22.5629C9.5899 22.7076 9.69114 22.8316 9.82092 22.9195C9.95069 23.0074 10.1033 23.0555 10.2601 23.0578C10.3649 23.0577 10.4686 23.0368 10.5653 22.9964C10.6619 22.956 10.7496 22.8967 10.8232 22.8222L22.3379 11.3076C22.7027 10.946 22.9919 10.5154 23.1887 10.0409C23.3855 9.56641 23.4859 9.0575 23.4841 8.54382C23.5191 5.10329 19.2178 3.32757 16.8102 5.77994L5.23568 17.3544C4.75129 17.8372 4.36741 18.4112 4.10623 19.0433C3.84505 19.6754 3.71176 20.3529 3.71406 21.0368C3.71431 22.0691 4.02101 23.0781 4.5953 23.9359C5.16958 24.7937 5.98559 25.4617 6.93992 25.8552C7.89424 26.2488 8.94392 26.3502 9.95592 26.1465C10.9679 25.9429 11.8967 25.4434 12.6245 24.7113L24.4546 12.8732C28.5436 8.7969 25.6214 1.74024 19.8456 1.75C18.9897 1.74795 18.1418 1.91523 17.3508 2.24219C16.5598 2.56915 15.8413 3.04935 15.2366 3.65514Z" fill="#475467"/>
</svg>
