<svg width="32" height="26" viewBox="0 0 32 26" fill="none" xmlns="http://www.w3.org/2000/svg">
<g clip-path="url(#clip0_19503_69)">
<path d="M29.3759 0H6.90232C5.57785 0 4.50041 1.06183 4.50041 2.36711V4.43521H2.36897C1.06287 4.43521 0 5.48268 0 6.76986V22.8228C0 24.1106 1.06287 25.158 2.36897 25.158H24.9084C26.2145 25.158 27.2774 24.1106 27.2774 22.8228V20.7222H29.3759C30.7003 20.7222 31.7778 19.6604 31.7778 18.3551V2.36711C31.7778 1.06183 30.7003 0 29.3759 0ZM25.3771 22.8228C25.3771 23.0774 25.1668 23.2853 24.9084 23.2853H2.36897C2.11054 23.2853 1.90024 23.0781 1.90024 22.8228V6.76986C1.90024 6.51517 2.11054 6.30792 2.36897 6.30792H4.50041H24.9084C25.1668 6.30792 25.3771 6.51517 25.3771 6.76986V20.7222V22.8228ZM29.8775 18.3557C29.8775 18.6285 29.6527 18.8501 29.3759 18.8501H27.2774V6.76986C27.2774 5.48268 26.2145 4.43521 24.9084 4.43521H6.40065V2.36711C6.40065 2.09432 6.62552 1.87271 6.90232 1.87271H29.3759C29.6527 1.87271 29.8775 2.09432 29.8775 2.36711V18.3557Z" fill="#475467"/>
<path d="M17.1845 14.6403L22.8821 20.2553L21.5082 20.2091H4.39526V18.9918L9.88634 11.6414L15.1114 16.7908L17.1845 14.6403Z" fill="#475467"/>
<path d="M18.0353 13.2842C18.4917 12.8344 18.4917 12.1052 18.0353 11.6554C17.5789 11.2056 16.839 11.2056 16.3826 11.6554C15.9262 12.1052 15.9262 12.8344 16.3826 13.2842C16.839 13.7339 17.5789 13.7339 18.0353 13.2842Z" fill="#475467"/>
</g>
<defs>
<clipPath id="clip0_19503_69">
<rect width="31.7778" height="25.1574" fill="white"/>
</clipPath>
</defs>
</svg>
