<svg width="18" height="17" viewBox="0 0 18 17" fill="none" xmlns="http://www.w3.org/2000/svg">
<path d="M1 4.85714C1 3.50702 1 2.83195 1.29065 2.31627C1.54631 1.86267 1.95426 1.49388 2.45603 1.26275C3.02646 1 3.77319 1 5.26667 1H12.7333C14.2268 1 14.9735 1 15.544 1.26275C16.0457 1.49388 16.4537 1.86267 16.7094 2.31627C17 2.83195 17 3.50702 17 4.85714V9.4375C17 10.5608 17 11.1224 16.797 11.5654C16.5264 12.1561 16.0072 12.6254 15.3538 12.8701C14.8638 13.0536 14.2425 13.0536 13 13.0536C12.5657 13.0536 12.3486 13.0536 12.1471 13.0966C11.8785 13.1539 11.6283 13.267 11.4164 13.4268C11.2575 13.5467 11.1272 13.7038 10.8667 14.0179L9.56889 15.5821C9.3759 15.8148 9.2794 15.9311 9.1611 15.9727C9.05748 16.0091 8.94252 16.0091 8.8389 15.9727C8.7206 15.9311 8.62411 15.8148 8.43111 15.5821L7.13333 14.0179C6.87276 13.7038 6.74247 13.5467 6.58355 13.4268C6.37166 13.267 6.1215 13.1539 5.85289 13.0966C5.65144 13.0536 5.43429 13.0536 5 13.0536C3.75749 13.0536 3.13623 13.0536 2.64618 12.8701C1.99277 12.6254 1.47364 12.1561 1.20299 11.5654C1 11.1224 1 10.5608 1 9.4375V4.85714Z" fill="#F2F4F7"/>
<path d="M5.44444 7.02679C5.44444 7.24869 5.24546 7.42857 5 7.42857C4.75454 7.42857 4.55556 7.24869 4.55556 7.02679C4.55556 6.80489 4.75454 6.625 5 6.625C5.24546 6.625 5.44444 6.80489 5.44444 7.02679Z" fill="#F2F4F7"/>
<path d="M9.44444 7.02679C9.44444 7.24869 9.24546 7.42857 9 7.42857C8.75454 7.42857 8.55556 7.24869 8.55556 7.02679C8.55556 6.80489 8.75454 6.625 9 6.625C9.24546 6.625 9.44444 6.80489 9.44444 7.02679Z" fill="#F2F4F7"/>
<path d="M13.4444 7.02679C13.4444 7.24869 13.2455 7.42857 13 7.42857C12.7545 7.42857 12.5556 7.24869 12.5556 7.02679C12.5556 6.80489 12.7545 6.625 13 6.625C13.2455 6.625 13.4444 6.80489 13.4444 7.02679Z" fill="#F2F4F7"/>
<path d="M5 7.02679H5.00889M9 7.02679H9.00889M13 7.02679H13.0089M7.13333 14.0179L8.43111 15.5821C8.62411 15.8148 8.7206 15.9311 8.8389 15.9727C8.94252 16.0091 9.05748 16.0091 9.1611 15.9727C9.2794 15.9311 9.3759 15.8148 9.56889 15.5821L10.8667 14.0179C11.1272 13.7038 11.2575 13.5467 11.4164 13.4268C11.6283 13.267 11.8785 13.1539 12.1471 13.0966C12.3486 13.0536 12.5657 13.0536 13 13.0536C14.2425 13.0536 14.8638 13.0536 15.3538 12.8701C16.0072 12.6254 16.5264 12.1561 16.797 11.5654C17 11.1224 17 10.5608 17 9.4375V4.85714C17 3.50702 17 2.83195 16.7094 2.31627C16.4537 1.86267 16.0457 1.49388 15.544 1.26275C14.9735 1 14.2268 1 12.7333 1H5.26667C3.77319 1 3.02646 1 2.45603 1.26275C1.95426 1.49388 1.54631 1.86267 1.29065 2.31627C1 2.83195 1 3.50702 1 4.85714V9.4375C1 10.5608 1 11.1224 1.20299 11.5654C1.47364 12.1561 1.99277 12.6254 2.64618 12.8701C3.13623 13.0536 3.75749 13.0536 5 13.0536C5.43429 13.0536 5.65144 13.0536 5.85289 13.0966C6.1215 13.1539 6.37166 13.267 6.58355 13.4268C6.74247 13.5467 6.87276 13.7038 7.13333 14.0179ZM5.44444 7.02679C5.44444 7.24869 5.24546 7.42857 5 7.42857C4.75454 7.42857 4.55556 7.24869 4.55556 7.02679C4.55556 6.80489 4.75454 6.625 5 6.625C5.24546 6.625 5.44444 6.80489 5.44444 7.02679ZM9.44444 7.02679C9.44444 7.24869 9.24546 7.42857 9 7.42857C8.75454 7.42857 8.55556 7.24869 8.55556 7.02679C8.55556 6.80489 8.75454 6.625 9 6.625C9.24546 6.625 9.44444 6.80489 9.44444 7.02679ZM13.4444 7.02679C13.4444 7.24869 13.2455 7.42857 13 7.42857C12.7545 7.42857 12.5556 7.24869 12.5556 7.02679C12.5556 6.80489 12.7545 6.625 13 6.625C13.2455 6.625 13.4444 6.80489 13.4444 7.02679Z" stroke="#1D2939" stroke-linecap="round" stroke-linejoin="round"/>
</svg>
