<svg width="57" height="46" viewBox="0 0 57 46" fill="none" xmlns="http://www.w3.org/2000/svg">
<path d="M55.7223 18.3253H1.27783M25.7778 39.8655L47.0112 39.8655C50.0603 39.8655 51.5849 39.8655 52.7496 39.3438C53.774 38.8848 54.6069 38.1526 55.1289 37.2519C55.7223 36.228 55.7223 34.8876 55.7223 32.2067V14.0172C55.7223 11.3364 55.7223 9.99602 55.1289 8.97209C54.6069 8.07141 53.774 7.33913 52.7496 6.88022C51.5849 6.35849 50.0603 6.35849 47.0112 6.35849H42.1112M25.7778 39.8655L31.2223 44.6522M25.7778 39.8655L31.2223 35.0788M14.8889 39.8655H9.98894C6.93977 39.8655 5.41518 39.8655 4.25055 39.3438C3.22611 38.8848 2.39322 38.1526 1.87124 37.2519C1.27783 36.228 1.27783 34.8876 1.27783 32.2067V14.0172C1.27783 11.3364 1.27783 9.99602 1.87124 8.97208C2.39322 8.0714 3.22611 7.33913 4.25055 6.88021C5.41518 6.35849 6.93977 6.35849 9.98895 6.35849H31.2223M31.2223 6.35849L25.7778 11.1452M31.2223 6.35849L25.7778 1.57178" stroke="#53389E" stroke-width="2.5" stroke-linecap="round" stroke-linejoin="round"/>
</svg>
