<svg width="55" height="55" viewBox="0 0 55 55" fill="none" xmlns="http://www.w3.org/2000/svg">
<circle cx="27.5" cy="27.5" r="26" transform="matrix(-1 0 0 1 55 0)" fill="white" stroke="#FDB022" stroke-width="3"/>
<rect x="3.75" y="4.00006" width="47.5" height="47.5" rx="23.75" fill="#FEF0C7"/>
<path d="M27.5 30.625C24.1978 30.625 21.2612 32.2194 19.3916 34.6937C18.9893 35.2263 18.7881 35.4925 18.7947 35.8524C18.7997 36.1304 18.9743 36.4811 19.1931 36.6528C19.4762 36.875 19.8686 36.875 20.6534 36.875H34.3466C35.1314 36.875 35.5238 36.875 35.8069 36.6528C36.0257 36.4811 36.2002 36.1304 36.2053 35.8524C36.2119 35.4925 36.0107 35.2263 35.6083 34.6937C33.7387 32.2194 30.8021 30.625 27.5 30.625Z" stroke="#FDB022" stroke-width="2" stroke-linecap="round" stroke-linejoin="round"/>
<path d="M27.5 27.5C30.0888 27.5 32.1875 25.4013 32.1875 22.8125C32.1875 20.2237 30.0888 18.125 27.5 18.125C24.9112 18.125 22.8125 20.2237 22.8125 22.8125C22.8125 25.4013 24.9112 27.5 27.5 27.5Z" stroke="#FDB022" stroke-width="2" stroke-linecap="round" stroke-linejoin="round"/>
</svg>
