<svg width="30" height="34" viewBox="0 0 30 34" fill="none" xmlns="http://www.w3.org/2000/svg">
<path d="M10.552 0C10.8949 0.0883203 11.2384 0.171992 11.5791 0.265625C12.6018 0.545859 13.5112 1.02996 14.2398 1.73785C15.1801 2.65094 15.7122 3.75062 15.7947 5.03426C15.8678 6.17445 15.7918 7.29938 15.4196 8.38578C15.0158 9.56449 14.3503 10.5898 13.2888 11.3953C12.1779 12.2387 10.9078 12.6145 9.51212 12.6052C8.12292 12.5959 6.87645 12.1596 5.80354 11.3143C4.47961 10.2711 3.77246 8.92102 3.53292 7.36047C3.41315 6.58219 3.3443 5.78199 3.39665 4.99973C3.47626 3.80309 3.95749 2.73395 4.8633 1.83613C5.81645 0.8925 7.01415 0.391797 8.32732 0.0717188C8.44566 0.0431641 8.56686 0.0239063 8.68664 0C9.30844 0 9.93024 0 10.552 0ZM13.9852 6.70836C10.9042 7.7775 7.37059 6.60809 5.98283 3.16691C5.84657 3.36082 5.71102 3.52418 5.60918 3.70348C5.18317 4.45453 5.14803 5.26668 5.16667 6.0941C5.18819 7.055 5.39976 7.9641 5.90681 8.80613C6.7574 10.2193 8.03112 10.9896 9.80617 10.953C10.9092 10.9305 11.8451 10.4816 12.5724 9.7584C13.4115 8.92434 13.8511 7.88641 13.9852 6.70836ZM13.9788 4.80383C13.7909 3.85621 13.3032 3.08457 12.449 2.51613C10.9945 1.54859 9.43538 1.37129 7.7672 1.95168C7.5671 2.02141 7.52264 2.11172 7.59794 2.32621C7.87621 3.11578 8.2972 3.80973 8.94554 4.39609C10.2766 5.60269 12.4146 5.81254 13.9788 4.80383Z" fill="white"/>
<path d="M20.7375 34.0004C20.1695 33.5873 20.1394 33.0375 20.3108 32.4571C20.4377 32.0261 20.7117 31.8661 21.1994 31.8754C21.5795 31.8827 21.9187 32.1045 21.9883 32.481C22.0664 32.9047 22.1324 33.3503 21.8111 33.7328C21.7286 33.831 21.6218 33.9114 21.5264 34.0004C21.2639 34.0004 21.0007 34.0004 20.7375 34.0004Z" fill="white"/>
<path d="M26.3323 34.0001C25.9701 33.7696 25.7406 33.4821 25.8267 33.0438C25.8496 32.9263 25.8303 32.8021 25.8303 32.6806C25.831 32.1951 26.1423 31.8784 26.6235 31.8751C27.2008 31.8704 27.5458 32.1666 27.5515 32.6733C27.553 32.7835 27.5379 32.8957 27.5544 33.0033C27.6204 33.4396 27.4088 33.7504 27.0502 34.0001C26.8107 34.0001 26.5719 34.0001 26.3323 34.0001Z" fill="white"/>
<path d="M1.97436 28.6215C2.12425 28.6215 2.26697 28.6215 2.40897 28.6215C6.25669 28.6215 10.1051 28.6222 13.9528 28.6208C14.6707 28.6202 15.053 28.9848 15.0882 29.3792C15.1333 29.8786 14.7877 30.2797 14.2455 30.2803C9.77594 30.283 5.30642 30.283 0.836896 30.2803C0.301874 30.2803 -0.0796707 29.8706 0.0135638 29.3546C0.192861 28.3619 0.408018 27.3744 0.604527 26.3836C0.790279 25.4466 0.969576 24.5083 1.15605 23.5713C1.3253 22.7193 1.49312 21.8673 1.67601 21.018C1.851 20.2019 1.99085 19.3744 2.24115 18.5776C2.70876 17.0887 3.74008 15.9904 5.19023 15.2314C6.50269 14.5447 7.91268 14.22 9.42667 14.2021C11.0267 14.1828 12.5271 14.4763 13.9371 15.1796C14.9167 15.6683 15.6734 16.3762 16.316 17.1976C16.5505 17.4978 16.5225 17.964 16.2916 18.2243C16.0348 18.5138 15.6153 18.6247 15.2402 18.4507C15.0473 18.3611 14.8601 18.209 14.7432 18.0417C14.0045 16.9818 12.8885 16.42 11.6385 16.0926C10.9349 15.9087 10.1754 15.7958 9.4489 15.8237C7.72047 15.8908 6.11899 16.3304 4.88758 17.5609C4.24641 18.2017 3.90144 18.9687 3.73577 19.8187C3.56508 20.6919 3.37861 21.5632 3.20505 22.4358C3.02074 23.3621 2.84502 24.2905 2.66071 25.2169C2.4893 26.0795 2.31072 26.9408 2.13644 27.8027C2.08194 28.069 2.0303 28.3353 1.97436 28.6215Z" fill="white"/>
<path d="M28.1196 24.3707C27.9661 24.3707 27.8363 24.3707 27.7072 24.3707C25.58 24.3707 23.4521 24.372 21.3249 24.3693C20.9233 24.3687 20.5748 24.2531 20.4033 23.8846C20.1222 23.2796 20.5554 22.7298 21.3264 22.7132C21.8521 22.7019 22.3778 22.7112 22.9042 22.7112C24.9001 22.7112 26.8961 22.7105 28.892 22.7112C29.7505 22.7112 30.1277 23.1953 29.9613 23.9822C29.8487 24.5148 29.8372 25.0659 29.7748 25.6078C29.6845 26.3874 29.5848 27.1657 29.4966 27.9453C29.4392 28.456 29.3962 28.9673 29.3453 29.4786C29.3202 29.7283 29.3259 29.9866 29.2578 30.2257C29.1201 30.7078 28.8382 30.8645 28.1067 30.8718C26.1351 30.8918 24.1628 30.8785 22.1906 30.8785C21.2704 30.8785 20.3496 30.8845 19.4294 30.8745C19.1977 30.8718 18.9539 30.8479 18.738 30.7762C18.3507 30.6474 18.2338 30.3213 18.1564 29.9793C17.8286 28.5403 17.4959 27.102 17.1667 25.6629C16.9687 24.795 16.7801 23.9251 16.5685 23.0598C16.547 22.9735 16.3964 22.8593 16.2989 22.8533C15.9059 22.8294 15.5085 22.8188 15.1169 22.8493C14.6522 22.8858 14.2972 22.4807 14.2836 22.0584C14.2699 21.6175 14.6343 21.2542 15.1005 21.2509C15.8413 21.2449 16.5829 21.2469 17.3237 21.2502C17.7196 21.2522 18.0696 21.4959 18.1492 21.8439C18.4913 23.3467 18.8212 24.8521 19.1619 26.3556C19.377 27.3058 19.6022 28.2541 19.826 29.2183C20.252 29.2183 20.6572 29.2183 21.0624 29.2183C23.0942 29.2183 25.126 29.2117 27.1578 29.225C27.5014 29.227 27.619 29.1625 27.6391 28.8126C27.6828 28.0642 27.8162 27.3204 27.9023 26.574C27.9625 26.0527 28.0034 25.5295 28.0543 25.0075C28.0737 24.805 28.0959 24.6031 28.1196 24.3707Z" fill="white"/>
<path d="M24.2524 17.2008C24.2524 16.1948 24.2502 15.188 24.2531 14.182C24.2553 13.5657 24.7049 13.233 25.2278 13.2762C25.6882 13.314 26.0382 13.6268 26.0411 14.1282C26.0518 16.1742 26.0633 18.2201 26.0346 20.2655C26.026 20.8691 25.6502 21.0876 25.1245 21.1081C24.6225 21.1274 24.2581 20.7303 24.2545 20.2196C24.2481 19.2136 24.2524 18.2069 24.2524 17.2008Z" fill="white"/>
<path d="M10.4802 20.4921C10.4802 21.2544 10.4773 22.0161 10.4816 22.7785C10.4837 23.1078 10.3511 23.3781 10.0441 23.5368C9.72568 23.7015 9.39003 23.6849 9.07806 23.493C8.76895 23.3024 8.69436 22.9983 8.69221 22.6935C8.68002 21.2245 8.67213 19.7556 8.69221 18.2874C8.7044 17.4102 9.451 17.108 10.0886 17.4626C10.3697 17.6187 10.4816 17.873 10.4809 18.1745C10.4787 18.9455 10.4802 19.7191 10.4802 20.4921Z" fill="white"/>
<path d="M20.7375 18.6807C20.7375 18.1394 20.7288 17.5982 20.7403 17.057C20.7489 16.6446 20.9978 16.3544 21.3879 16.2701C21.8104 16.1785 22.2213 16.3053 22.3863 16.6433C22.4652 16.8053 22.5225 16.9919 22.5247 17.1679C22.5376 18.162 22.5383 19.1561 22.5268 20.1502C22.5225 20.5068 22.4343 20.8448 22.0305 21.0162C21.6827 21.1636 21.3227 21.1888 21.0588 20.9132C20.8967 20.7439 20.7704 20.4929 20.7518 20.2698C20.708 19.7432 20.7375 19.2106 20.7375 18.6807Z" fill="white"/>
<path d="M27.7674 19.6553C27.7674 19.4455 27.7638 19.2357 27.7681 19.0258C27.7767 18.6048 28.0851 18.2841 28.5577 18.1984C28.8425 18.1473 29.3129 18.3843 29.4506 18.6666C29.5023 18.7715 29.5345 18.895 29.5338 19.0092C29.5295 19.5903 29.7174 20.1912 29.3624 20.7391C29.1745 21.0286 28.7829 21.178 28.4609 21.1057C28.0693 21.018 27.7896 20.7205 27.7703 20.3513C27.7574 20.1202 27.7674 19.8878 27.7674 19.6553Z" fill="white"/>
</svg>
