<svg width="55" height="55" viewBox="0 0 55 55" fill="none" xmlns="http://www.w3.org/2000/svg">
<circle cx="27.5" cy="27.5" r="26" transform="matrix(-1 0 0 1 55 0)" fill="white" stroke="#85E13A" stroke-width="3"/>
<rect x="3.75" y="4.00006" width="47.5" height="47.5" rx="23.75" fill="#F3FEE7"/>
<path d="M31.6018 31.6018C35.167 31.1245 37.9166 28.0708 37.9166 24.375C37.9166 20.3479 34.6521 17.0833 30.625 17.0833C26.9291 17.0833 23.8755 19.833 23.3982 23.3982M22.8125 28.5417L24.375 27.5V33.2292M22.8125 33.2292H25.9375M31.6666 30.625C31.6666 34.6521 28.4021 37.9167 24.375 37.9167C20.3479 37.9167 17.0833 34.6521 17.0833 30.625C17.0833 26.5979 20.3479 23.3333 24.375 23.3333C28.4021 23.3333 31.6666 26.5979 31.6666 30.625Z" stroke="#66C61C" stroke-width="2" stroke-linecap="round" stroke-linejoin="round"/>
</svg>
