<svg width="180" height="140" viewBox="0 0 180 140" fill="none" xmlns="http://www.w3.org/2000/svg"><path d="M69.071 70H135v65H69.071V70Z" fill="#D9942D"/><path d="M44 70h65.929v65H44V70Z" fill="#E9AF58"/><path fill="#C6965F" d="M70 70h14v9H70z"/><path d="M99.15 128H81.279c-.77 0-1.279-.519-1.279-1.302v-23.396c0-.783.51-1.302 1.279-1.302h17.87c.77 0 1.28.519 1.28 1.302v23.396c-.012.783-.522 1.302-1.28 1.302Z" fill="#fff"/><path d="M87.429 104.786h-5.572v5.571h5.572v-5.571Zm10.13 1.857h-6.332c-.512 0-1.013-.348-1.013-.929 0-.464.384-.928 1.013-.928h6.332c.512 0 1.012.348 1.012.928 0 .581-.384.929-1.012.929Zm1.012 10.214H81.857v7.429h16.714v-7.429Z" fill="#D2D5D9"/><path d="M89.5 9C99.712 9 108 18.01 108 29.091c0 18.833-16.65 29.341-17.353 29.785-.333.222-.74.352-1.147.352-.407 0-.796-.13-1.147-.352C87.65 58.432 71 47.924 71 29.091 71 18.009 79.306 9 89.5 9Z" fill="#00735C"/><path d="M97.806 24.41c.593-.591.593-1.48 0-2.072-.591-.591-1.48-.591-2.072 0L80.972 37.102c-.593.592-.593 1.48 0 2.072.592.592 1.48.592 2.072 0L97.806 24.41Zm.648 12.247c0 1.74-1.443 3.183-3.163 3.183-1.74 0-3.182-1.444-3.182-3.183 0-1.72 1.443-3.163 3.181-3.163 1.721 0 3.164 1.443 3.164 3.163ZM86.873 25.058c0 1.739-1.443 3.182-3.163 3.182-1.74 0-3.182-1.443-3.182-3.182 0-1.72 1.442-3.163 3.181-3.163 1.721.018 3.164 1.461 3.164 3.163Z" fill="#fff"/></svg>