<svg width="20" height="20" viewBox="0 0 20 20" fill="none" xmlns="http://www.w3.org/2000/svg">
<path d="M1.66663 5.83203L8.47073 10.5949C9.0217 10.9806 9.29719 11.1734 9.59685 11.2481C9.86154 11.3141 10.1384 11.3141 10.4031 11.2481C10.7027 11.1734 10.9782 10.9806 11.5292 10.5949L18.3333 5.83203M5.66663 16.6654H14.3333C15.7334 16.6654 16.4335 16.6654 16.9683 16.3929C17.4387 16.1532 17.8211 15.7707 18.0608 15.3003C18.3333 14.7656 18.3333 14.0655 18.3333 12.6654V7.33203C18.3333 5.9319 18.3333 5.23183 18.0608 4.69705C17.8211 4.22665 17.4387 3.8442 16.9683 3.60451C16.4335 3.33203 15.7334 3.33203 14.3333 3.33203H5.66663C4.26649 3.33203 3.56643 3.33203 3.03165 3.60451C2.56124 3.8442 2.17879 4.22665 1.93911 4.69705C1.66663 5.23183 1.66663 5.9319 1.66663 7.33203V12.6654C1.66663 14.0655 1.66663 14.7656 1.93911 15.3003C2.17879 15.7707 2.56124 16.1532 3.03165 16.3929C3.56643 16.6654 4.26649 16.6654 5.66663 16.6654Z" stroke="#667085" stroke-width="1.66667" stroke-linecap="round" stroke-linejoin="round"/>
</svg>
