<svg width="35" height="36" viewBox="0 0 35 36" fill="none" xmlns="http://www.w3.org/2000/svg">
<circle cx="17.5" cy="18" r="17" fill="#B2CCFF" stroke="#2E90FA"/>
<g clip-path="url(#clip0_3233_149357)">
<path d="M10.694 18.3992C10.5987 18.2483 10.551 18.1728 10.5243 18.0564C10.5043 17.9689 10.5043 17.831 10.5243 17.7436C10.551 17.6272 10.5987 17.5517 10.694 17.4008C11.4818 16.1534 13.8267 13 17.4002 13C20.9737 13 23.3186 16.1534 24.1064 17.4008C24.2017 17.5517 24.2494 17.6272 24.2761 17.7436C24.2961 17.831 24.2961 17.9689 24.2761 18.0564C24.2494 18.1728 24.2017 18.2483 24.1064 18.3992C23.3186 19.6466 20.9737 22.8 17.4002 22.8C13.8267 22.8 11.4818 19.6466 10.694 18.3992Z" stroke="#2E90FA" stroke-width="2" stroke-linecap="round" stroke-linejoin="round"/>
<path d="M17.4002 20C18.56 20 19.5002 19.0598 19.5002 17.9C19.5002 16.7402 18.56 15.8 17.4002 15.8C16.2404 15.8 15.3002 16.7402 15.3002 17.9C15.3002 19.0598 16.2404 20 17.4002 20Z" stroke="#2E90FA" stroke-width="2" stroke-linecap="round" stroke-linejoin="round"/>
</g>
<defs>
<clipPath id="clip0_3233_149357">
<rect width="16.8" height="16.8" fill="white" transform="translate(9 9.5)"/>
</clipPath>
</defs>
</svg>
