<svg width="287" height="215" viewBox="0 0 287 215" fill="none" xmlns="http://www.w3.org/2000/svg">
<g clip-path="url(#clip0_18050_441395)">
<path d="M287 188.941H0V189.086H287V188.941Z" fill="#EBEBEB"/>
<path d="M181.195 192.871H166.581V193.015H181.195V192.871Z" fill="#EBEBEB"/>
<path d="M261.423 195.994H226.793V196.138H261.423V195.994Z" fill="#EBEBEB"/>
<path d="M163.47 192.941H127.692V193.086H163.47V192.941Z" fill="#EBEBEB"/>
<path d="M104.491 197.258H97.0061V197.402H104.491V197.258Z" fill="#EBEBEB"/>
<path d="M145.848 197.258H111.764V197.402H145.848V197.258Z" fill="#EBEBEB"/>
<path d="M52.1824 194.822H30.1121V194.967H52.1824V194.822Z" fill="#EBEBEB"/>
<path d="M136.044 163.208H25.2102C23.4021 163.208 21.9326 161.73 21.9326 159.913V3.29473C21.9326 1.47715 23.4021 0 25.2102 0H136.05C137.858 0 139.327 1.47715 139.327 3.29473V159.913C139.321 161.73 137.852 163.208 136.044 163.208ZM25.2102 0.144253C23.4824 0.144253 22.0761 1.55793 22.0761 3.29473V159.913C22.0761 161.65 23.4824 163.063 25.2102 163.063H136.05C137.777 163.063 139.184 161.65 139.184 159.913V3.29473C139.184 1.55793 137.777 0.144253 136.05 0.144253H25.2102Z" fill="#EBEBEB"/>
<path d="M260.2 163.208H149.361C147.552 163.208 146.083 161.73 146.083 159.913V3.29473C146.083 1.47715 147.552 0 149.361 0H260.2C262.008 0 263.477 1.47715 263.477 3.29473V159.913C263.477 161.73 262.008 163.208 260.2 163.208ZM149.361 0.144253C147.633 0.144253 146.227 1.55793 146.227 3.29473V159.913C146.227 161.65 147.633 163.063 149.361 163.063H260.2C261.928 163.063 263.334 161.65 263.334 159.913V3.29473C263.334 1.55793 261.928 0.144253 260.2 0.144253H149.361Z" fill="#EBEBEB"/>
<path d="M112.481 138.892H74.3674L72.0542 112.061H110.168L112.481 138.892Z" fill="#E6E6E6"/>
<path d="M114.456 138.892H76.342L74.0288 112.061H112.142L114.456 138.892Z" fill="#F0F0F0"/>
<path d="M81.5538 133.132L80.2795 117.824H106.93L108.205 133.132H81.5538Z" fill="white"/>
<path d="M121.051 138.891H116.579V188.935H121.051V138.891Z" fill="#E6E6E6"/>
<path d="M122.463 138.891H119.357V188.935H122.463V138.891Z" fill="#F0F0F0"/>
<path d="M79.1761 144.418H122.461V138.896H79.1761V144.418Z" fill="#F0F0F0"/>
<path d="M80.7044 144.418H76.2329V188.94H80.7044V144.418Z" fill="#E6E6E6"/>
<path d="M82.1163 144.418H79.011V188.94H82.1163V144.418Z" fill="#F0F0F0"/>
<path d="M48.876 144.418H44.4045V188.94H48.876V144.418Z" fill="#E6E6E6"/>
<path d="M50.288 144.418H47.1826V188.94H50.288V144.418Z" fill="#F0F0F0"/>
<path d="M92.7525 144.418H88.281V188.94H92.7525V144.418Z" fill="#E6E6E6"/>
<path d="M94.1588 144.418H91.0535V188.94H94.1588V144.418Z" fill="#F0F0F0"/>
<path d="M79.1775 138.891H44.4045V144.413H79.1775V138.891Z" fill="#E6E6E6"/>
<path d="M208.844 14.1133H74.3386V89.3901H208.844V14.1133Z" fill="#E0E0E0"/>
<path d="M216.231 14.1133H75.0159V89.3901H216.231V14.1133Z" fill="#F5F5F5"/>
<path d="M213.923 87.0713V16.4336L77.3221 16.4336V87.0713L213.923 87.0713Z" fill="white"/>
<path d="M132.634 87.0713L158.424 16.4336H115.862L90.072 87.0713H132.634Z" fill="#F5F5F5"/>
<path d="M173.601 87.0713L199.39 16.4336H167.281L141.491 87.0713H173.601Z" fill="#F5F5F5"/>
<path d="M251.475 117.047H240.041V188.942H251.475V117.047Z" fill="#E6E6E6"/>
<path d="M248.467 188.942H251.475V183.402H245.316L248.467 188.942Z" fill="#FAFAFA"/>
<path d="M146.06 117.047H134.626V188.942H146.06V117.047Z" fill="#E6E6E6"/>
<path d="M251.475 117.047H143.431V187.448H251.475V117.047Z" fill="#FAFAFA"/>
<path d="M249.431 139.765H145.48V119.881H249.431V139.765ZM146.054 139.188H248.857V120.458H146.054V139.188Z" fill="#E6E6E6"/>
<path d="M231.132 129.534H165.794C162.758 129.534 159.836 127.076 157.781 122.783L157.58 122.367H239.335L239.134 122.783C237.085 127.07 234.163 129.534 231.132 129.534ZM158.504 122.944C160.444 126.77 163.085 128.957 165.794 128.957H231.127C233.836 128.957 236.476 126.776 238.422 122.944H158.504Z" fill="#E6E6E6"/>
<path d="M146.439 188.942H143.431V183.402H149.59L146.439 188.942Z" fill="#FAFAFA"/>
<path d="M249.431 162.187H145.48V142.303H249.431V162.187ZM146.054 161.61H248.857V142.88H146.054V161.61Z" fill="#E6E6E6"/>
<path d="M231.132 151.956H165.794C162.758 151.956 159.836 149.497 157.781 145.205L157.58 144.789H239.335L239.134 145.205C237.085 149.497 234.163 151.956 231.132 151.956ZM158.504 145.372C160.444 149.197 163.085 151.379 165.794 151.379H231.127C233.836 151.379 236.476 149.197 238.422 145.372H158.504Z" fill="#E6E6E6"/>
<path d="M249.431 184.614H145.48V164.73H249.431V184.614ZM146.054 184.037H248.857V165.307H146.054V184.037Z" fill="#E6E6E6"/>
<path d="M231.132 174.385H165.794C162.758 174.385 159.836 171.927 157.781 167.634L157.58 167.219H239.335L239.134 167.634C237.085 171.927 234.163 174.385 231.132 174.385ZM158.504 167.802C160.444 171.627 163.085 173.814 165.794 173.814H231.127C233.836 173.814 236.476 171.633 238.422 167.802H158.504Z" fill="#E6E6E6"/>
<path d="M69.4424 126.555V127.951H68.5527L67.8237 138.891H57.0095L56.2806 127.951H55.3909V126.555H69.4424Z" fill="#E6E6E6"/>
<path d="M65.8836 99.3948C64.9939 92.8746 56.2461 91.0166 45.1392 90.7743C34.5719 90.5492 31.1853 86.7871 31.1853 86.7871C31.1853 86.7871 31.2197 102.009 46.448 107.519C60.907 112.753 66.7733 105.927 65.8836 99.3948Z" fill="#E6E6E6"/>
<path d="M60.4879 114.171C60.6716 111.488 64.9307 106.561 75.1766 108.805C82.5812 110.427 85.3364 106.566 85.3364 106.566C85.3364 106.566 84.6533 117.46 73.512 120.738C62.9331 123.842 60.1607 118.886 60.4879 114.171Z" fill="#E6E6E6"/>
<path d="M62.8242 130.662C62.939 130.662 63.0481 130.616 63.1284 130.524C63.8689 129.641 63.2662 127.529 62.4224 124.604C61.3433 120.853 60.0001 116.179 61.1366 112.792C61.7795 110.877 62.5716 109.192 63.3408 107.559C64.948 104.143 66.3371 101.189 65.1776 98.1074C65.103 97.8997 64.8734 97.8016 64.6667 97.8766C64.4601 97.9516 64.3625 98.1824 64.4371 98.3902C65.4761 101.16 64.219 103.831 62.6233 107.224C61.8828 108.799 61.0391 110.588 60.3847 112.544C59.1678 116.174 60.5512 120.974 61.659 124.835C62.3133 127.108 62.9907 129.462 62.52 130.022C62.3765 130.189 62.3994 130.437 62.5659 130.582C62.6463 130.634 62.7324 130.662 62.8242 130.662Z" fill="#E6E6E6"/>
<path d="M143.5 214.999C204.965 214.999 254.793 212.075 254.793 208.467C254.793 204.86 204.965 201.936 143.5 201.936C82.0345 201.936 32.207 204.86 32.207 208.467C32.207 212.075 82.0345 214.999 143.5 214.999Z" fill="#F5F5F5"/>
<path d="M143.477 176.624H61.969L57.509 44.8516H139.017L143.477 176.624Z" fill="#AAAAAA"/>
<path d="M147.547 172.532H66.0387L61.573 40.7598H143.081L147.547 172.532Z" fill="#AAAAAA"/>
<path opacity="0.3" d="M147.547 172.532H66.0387L61.573 40.7598H143.081L147.547 172.532Z" fill="white"/>
<path d="M120.242 94.9922C128.97 86.0682 128.599 71.475 119.414 62.3973C110.23 53.3197 95.7083 53.1951 86.9802 62.1191C78.2522 71.043 78.6226 85.6362 87.8074 94.7139C96.9923 103.792 111.514 103.916 120.242 94.9922Z" fill="#AAAAAA"/>
<path d="M122.532 78.5533C122.641 81.8365 121.918 84.9235 120.551 87.6124C117.561 93.5383 111.448 97.5716 104.256 97.5716C97.0634 97.5716 90.6748 93.5383 87.2824 87.6124C85.7326 84.9235 84.8027 81.8365 84.6879 78.5533C84.3321 68.046 92.5116 59.5293 102.964 59.5293C113.417 59.5293 122.176 68.046 122.532 78.5533Z" fill="white"/>
<path opacity="0.6" d="M120.552 87.613C117.561 93.5389 111.448 97.5722 104.256 97.5722C97.0634 97.5722 90.6748 93.5389 87.2825 87.613C91.9376 84.4164 97.5915 82.5469 103.745 82.5469C109.898 82.5469 115.678 84.4106 120.552 87.613Z" fill="#AAAAAA"/>
<path opacity="0.6" d="M109.508 78.0876C112.717 74.8061 112.581 69.44 109.204 66.1021C105.826 62.7642 100.487 62.7184 97.2774 65.9998C94.068 69.2813 94.2042 74.6473 97.5815 77.9853C100.959 81.3232 106.298 81.369 109.508 78.0876Z" fill="#AAAAAA"/>
<path d="M131.17 124.812H79.1775L78.8274 114.426H130.82L131.17 124.812Z" fill="white"/>
<path d="M131.802 143.374H79.8033L79.4531 132.988H131.452L131.802 143.374Z" fill="white"/>
<path d="M111.735 134.42L99.2044 136.134C98.6878 136.203 98.3491 136.676 98.4467 137.178L100.094 145.62C100.192 146.122 100.691 146.48 101.208 146.405L113.738 144.691C114.255 144.622 114.593 144.154 114.496 143.647L112.848 135.205C112.751 134.703 112.246 134.345 111.735 134.42ZM108.136 142.966L105.869 143.277L105.639 140.554C105.157 140.34 104.807 139.907 104.709 139.4C104.548 138.575 105.105 137.807 105.943 137.698C106.781 137.582 107.596 138.159 107.757 138.984C107.855 139.492 107.688 139.994 107.309 140.323L108.136 142.966Z" fill="#AAAAAA"/>
<path d="M110.495 133.965C110.036 134.028 109.594 133.716 109.508 133.266L109.347 132.441C108.905 130.168 106.741 128.448 104.399 128.656C101.896 128.875 100.22 131.097 100.685 133.497L100.869 134.443C100.955 134.894 100.657 135.309 100.197 135.367C99.7382 135.43 99.2963 135.119 99.2102 134.668L99.0552 133.861C98.4353 130.693 100.421 127.646 103.63 127.081C107.005 126.492 110.334 128.777 110.977 132.078L111.161 133.024C111.253 133.486 110.954 133.901 110.495 133.965Z" fill="#AAAAAA"/>
<path d="M123.22 157.923H89.3717L89.1421 151.16H122.991L123.22 157.923Z" fill="#AAAAAA"/>
<path d="M106.89 119.619C106.925 120.669 106.11 121.517 105.065 121.517C104.02 121.517 103.148 120.669 103.113 119.619C103.079 118.569 103.894 117.721 104.939 117.721C105.983 117.721 106.856 118.569 106.89 119.619Z" fill="#263238"/>
<path d="M98.7509 119.619C98.7853 120.669 97.9702 121.517 96.9255 121.517C95.8809 121.517 95.0084 120.669 94.974 119.619C94.9395 118.569 95.7546 117.721 96.7993 117.721C97.8439 117.721 98.7164 118.569 98.7509 119.619Z" fill="#263238"/>
<path d="M90.6173 119.619C90.6518 120.669 89.8367 121.517 88.792 121.517C87.7473 121.517 86.8748 120.669 86.8404 119.619C86.806 118.569 87.6211 117.721 88.6657 117.721C89.7104 117.721 90.5829 118.569 90.6173 119.619Z" fill="#263238"/>
<path d="M115.024 119.619C115.058 120.669 114.243 121.517 113.199 121.517C112.154 121.517 111.281 120.669 111.247 119.619C111.212 118.569 112.028 117.721 113.072 117.721C114.117 117.721 114.989 118.569 115.024 119.619Z" fill="#263238"/>
<path d="M123.157 119.619C123.192 120.669 122.377 121.517 121.332 121.517C120.287 121.517 119.415 120.669 119.38 119.619C119.346 118.569 120.161 117.721 121.206 117.721C122.25 117.721 123.123 118.569 123.157 119.619Z" fill="#263238"/>
<path d="M191.664 68.8535C192.428 70.0825 193.065 71.2654 193.719 72.4945C194.374 73.7119 194.965 74.9583 195.545 76.2219C196.687 78.7493 197.709 81.3573 198.472 84.1443C198.575 84.4847 198.65 84.8483 198.736 85.206L198.862 85.7426L198.925 86.008L199 86.4466C199.167 87.6179 199.017 88.5757 198.822 89.4182C198.409 91.0973 197.749 92.4417 197.037 93.7227C195.585 96.2558 193.891 98.4138 191.934 100.456L189.518 98.6157C190.711 96.3423 191.888 93.9593 192.755 91.6685C193.174 90.5318 193.53 89.372 193.633 88.42C193.685 87.9526 193.65 87.5487 193.587 87.3986L193.358 86.6947C193.266 86.4062 193.18 86.1177 193.065 85.8234C192.238 83.4923 191.188 81.1554 190.04 78.8531C188.909 76.5566 187.658 74.2197 186.429 72.0328L191.664 68.8535Z" fill="#FF8B7B"/>
<path d="M190.132 97.7852L187.497 99.1931L190.528 102.759C190.528 102.759 192.422 101.472 192.502 99.5104L190.132 97.7852Z" fill="#FF8B7B"/>
<path d="M183.95 101.392L187.193 103.983L190.522 102.759L187.491 99.1934L183.95 101.392Z" fill="#FF8B7B"/>
<path d="M172.86 49.9743C172.797 50.2975 172.573 50.5225 172.366 50.4763C172.16 50.436 172.039 50.1417 172.108 49.8185C172.171 49.4954 172.395 49.2704 172.602 49.3166C172.808 49.3627 172.923 49.657 172.86 49.9743Z" fill="#263238"/>
<path d="M172.602 50.5293C172.602 50.5293 171.5 52.2315 170.524 52.9643C170.983 53.6105 171.988 53.5644 171.988 53.5644L172.602 50.5293Z" fill="#FF5652"/>
<path d="M171.569 61.8497L171.592 58.0703L176.574 58.6762C176.574 58.6762 176.488 61.9305 173.704 62.8826L171.569 61.8497Z" fill="#FF8B7B"/>
<path d="M173.004 55.3398L176.511 56.3554L176.574 58.6692L171.592 58.0633L173.004 55.3398Z" fill="#FF8B7B"/>
<path opacity="0.2" d="M176.511 56.3554L173.004 55.3398L172.321 56.6554C172.407 58.8885 173.761 60.7234 175.558 61.5485C176.534 60.2617 176.574 58.6692 176.574 58.6692L176.511 56.3554Z" fill="black"/>
<path d="M174.387 48.4338C174.433 48.4338 174.479 48.4164 174.519 48.3818C174.599 48.3126 174.599 48.1856 174.53 48.1106C173.813 47.3317 172.94 47.4702 172.906 47.4759C172.803 47.4932 172.734 47.5913 172.751 47.6952C172.768 47.7991 172.871 47.8683 172.969 47.851C172.998 47.8452 173.681 47.7471 174.255 48.3703C174.289 48.4107 174.335 48.4338 174.387 48.4338Z" fill="#263238"/>
<path d="M181.723 55.8145C181.143 58.7861 180.793 62.9001 182.859 64.8793C182.859 64.8793 182.05 67.8913 176.562 67.8913C170.53 67.8913 173.658 65.2486 173.658 65.2486C176.166 64.4638 176.143 61.5961 175.569 59.2881L181.723 55.8145Z" fill="#FF8B7B"/>
<path d="M183.99 66.8646C184.53 66.0971 184.507 63.6795 183.933 63.2583C183.008 62.5716 179.042 62.41 173.704 63.6449C174.278 65.9875 173.05 67.2108 173.05 67.2108L183.99 66.8646Z" fill="#AAAAAA"/>
<path d="M201.933 203.846C201.526 203.933 201.124 203.956 200.929 203.788C200.848 203.719 200.762 203.587 200.837 203.344C200.877 203.217 200.957 203.119 201.084 203.061C201.629 202.802 202.88 203.315 202.938 203.333C202.972 203.344 202.995 203.379 202.995 203.419C202.995 203.46 202.978 203.494 202.943 203.506C202.743 203.604 202.335 203.76 201.933 203.846ZM201.273 203.2C201.233 203.211 201.193 203.223 201.158 203.235C201.084 203.269 201.038 203.327 201.015 203.396C200.963 203.569 201.026 203.621 201.049 203.644C201.267 203.829 202.071 203.662 202.639 203.431C202.255 203.298 201.635 203.125 201.273 203.2Z" fill="#AAAAAA"/>
<path d="M202.915 203.523C202.898 203.528 202.886 203.523 202.869 203.523C202.41 203.39 201.434 202.692 201.422 202.23C201.422 202.149 201.451 201.994 201.669 201.919C201.813 201.867 201.95 201.878 202.094 201.953C202.633 202.23 202.972 203.355 202.989 203.402C203.001 203.436 202.989 203.471 202.966 203.5C202.949 203.505 202.932 203.517 202.915 203.523ZM201.772 202.086C201.761 202.092 201.744 202.092 201.732 202.097C201.612 202.138 201.618 202.196 201.618 202.224C201.623 202.496 202.266 203.044 202.743 203.263C202.622 202.94 202.352 202.299 202.008 202.121C201.922 202.08 201.847 202.069 201.772 202.086Z" fill="#AAAAAA"/>
<path d="M172.12 204.526C171.603 204.526 171.104 204.457 170.932 204.221C170.874 204.14 170.828 204.001 170.937 203.799C171 203.69 171.104 203.615 171.241 203.574C171.913 203.39 173.325 204.197 173.383 204.232C173.417 204.249 173.434 204.29 173.428 204.33C173.423 204.371 173.394 204.399 173.354 204.411C173.101 204.469 172.608 204.526 172.12 204.526ZM171.483 203.742C171.414 203.742 171.351 203.747 171.299 203.765C171.213 203.788 171.15 203.834 171.109 203.897C171.041 204.019 171.069 204.076 171.092 204.111C171.282 204.371 172.303 204.382 173.05 204.272C172.676 204.082 171.953 203.742 171.483 203.742Z" fill="#AAAAAA"/>
<path d="M173.342 204.418C173.331 204.418 173.314 204.418 173.302 204.412C172.814 204.193 171.85 203.316 171.925 202.854C171.942 202.745 172.016 202.612 172.28 202.583C172.476 202.566 172.653 202.618 172.808 202.751C173.319 203.172 173.428 204.268 173.434 204.314C173.44 204.349 173.423 204.384 173.394 204.401C173.382 204.412 173.36 204.418 173.342 204.418ZM172.355 202.774C172.338 202.774 172.315 202.774 172.298 202.779C172.125 202.797 172.114 202.866 172.114 202.889C172.068 203.166 172.728 203.853 173.222 204.153C173.17 203.835 173.027 203.178 172.688 202.901C172.585 202.814 172.476 202.774 172.355 202.774Z" fill="#AAAAAA"/>
<path d="M177.779 204.319H173.744L173.342 194.92H177.378L177.779 204.319Z" fill="#FF8B7B"/>
<path d="M207.415 202.445L203.466 203.304L199.505 194.545L203.454 193.691L207.415 202.445Z" fill="#FF8B7B"/>
<path d="M203.087 202.905L207.518 201.942C207.679 201.907 207.845 201.988 207.914 202.138L209.453 205.496C209.613 205.842 209.401 206.252 209.028 206.327C207.472 206.638 206.703 206.708 204.751 207.135C203.552 207.394 200.843 208.058 199.189 208.421C197.571 208.773 196.962 207.181 197.611 206.887C200.51 205.554 201.715 204.382 202.501 203.292C202.645 203.09 202.852 202.951 203.087 202.905Z" fill="#263238"/>
<path d="M173.773 203.852H178.181C178.348 203.852 178.491 203.967 178.526 204.129L179.323 207.735C179.404 208.11 179.123 208.462 178.744 208.456C177.154 208.427 174.858 208.335 172.854 208.335C170.518 208.335 168.498 208.462 165.76 208.462C164.101 208.462 163.642 206.777 164.336 206.627C167.493 205.935 170.076 205.86 172.803 204.169C173.096 203.984 173.423 203.852 173.773 203.852Z" fill="#263238"/>
<path d="M190.092 65.7954C193.874 66.6667 196.997 76.3778 196.997 76.3778L189.397 82.1999C189.397 82.1999 186.607 79.5572 185.368 74.6987C184.065 69.6095 186.223 64.9011 190.092 65.7954Z" fill="#AAAAAA"/>
<path opacity="0.4" d="M190.092 65.7954C193.874 66.6667 196.997 76.3778 196.997 76.3778L189.397 82.1999C189.397 82.1999 186.607 79.5572 185.368 74.6987C184.065 69.6095 186.223 64.9011 190.092 65.7954Z" fill="black"/>
<path d="M170.191 77.3829C169.244 78.41 168.302 79.3159 167.332 80.2565C166.85 80.7238 166.351 81.1797 165.846 81.6297L165.082 82.2991L164.893 82.4664C164.801 82.5472 164.686 82.6395 164.566 82.7376C164.313 82.928 164.038 83.1415 163.458 83.3954C163.154 83.5166 162.758 83.6724 162.063 83.6839C161.736 83.6897 161.288 83.632 160.858 83.4704C160.421 83.3089 159.997 83.0261 159.71 82.7376C159.107 82.1317 158.929 81.6009 158.809 81.2432C158.699 80.8739 158.665 80.6142 158.642 80.3834C158.608 79.9333 158.631 79.6333 158.654 79.3506C158.682 79.0736 158.717 78.8312 158.763 78.6062C158.929 77.7176 159.17 76.9963 159.428 76.2809C159.692 75.5711 159.979 74.8845 160.318 74.1978C160.68 73.465 161.036 72.9284 161.386 72.3168C162.804 69.9337 164.468 67.7584 166.236 65.7042C168.044 63.6674 169.938 61.8037 172.12 60.0957L174.232 62.2826C172.745 64.279 171.287 66.4197 169.938 68.5258C168.589 70.6492 167.344 72.813 166.265 75.0172C166.018 75.5596 165.714 76.1539 165.542 76.6098C165.341 77.106 165.157 77.6426 165.002 78.1677C164.853 78.687 164.732 79.2294 164.675 79.6275C164.663 79.7256 164.658 79.8064 164.658 79.8583C164.658 79.9045 164.669 79.9276 164.663 79.8064C164.658 79.7372 164.652 79.6391 164.589 79.4313C164.52 79.2294 164.411 78.8486 163.929 78.3581C163.693 78.1273 163.343 77.8849 162.982 77.758C162.631 77.6195 162.264 77.5791 162.017 77.5791C161.483 77.5907 161.248 77.7003 161.093 77.758C160.812 77.8792 160.806 77.9138 160.806 77.9023L161.024 77.7003L161.713 77.0656L163.085 75.7731C163.992 74.9133 164.904 73.9959 165.771 73.1419L170.191 77.3829Z" fill="#FF8B7B"/>
<path opacity="0.2" d="M186.848 72.9395C188.903 74.9821 189.575 78.7096 189.736 81.9466L189.403 82.2062C189.403 82.2062 186.613 79.5578 185.368 74.7051C185.293 74.3993 185.224 74.0992 185.172 73.7992L186.848 72.9395Z" fill="black"/>
<path d="M166.179 69.8639C165.352 74.2492 164.836 83.2505 167.235 101.086H188.829C188.978 97.7508 186.894 81.4964 190.092 65.796C190.092 65.796 186.389 65.0516 182.865 64.8785C180.104 64.7458 176.109 64.6535 173.687 64.8785C172.676 64.9708 171.678 65.1208 170.794 65.2766C168.452 65.6921 166.621 67.5212 166.179 69.8639Z" fill="#AAAAAA"/>
<path opacity="0.4" d="M166.179 69.8639C165.352 74.2492 164.836 83.2505 167.235 101.086H188.829C188.978 97.7508 186.894 81.4964 190.092 65.796C190.092 65.796 186.389 65.0516 182.865 64.8785C180.104 64.7458 176.109 64.6535 173.687 64.8785C172.676 64.9708 171.678 65.1208 170.794 65.2766C168.452 65.6921 166.621 67.5212 166.179 69.8639Z" fill="black"/>
<path opacity="0.2" d="M169.485 76.3448L165.582 75.4043C165.461 77.7816 165.45 80.7243 165.628 84.3653C167.419 82.3111 169.715 79.1087 169.485 76.3448Z" fill="black"/>
<path opacity="0.2" d="M173.342 194.926L173.549 199.773H177.59L177.383 194.926H173.342Z" fill="black"/>
<path opacity="0.2" d="M203.454 193.691L199.505 194.551L201.549 199.063L205.498 198.204L203.454 193.691Z" fill="black"/>
<path d="M183.64 51.4685C182.601 55.3575 182.193 57.6887 179.805 59.3043C176.212 61.7393 171.741 58.9466 171.597 54.8209C171.471 51.1107 173.187 45.3695 177.343 44.5847C181.436 43.8173 184.679 47.5794 183.64 51.4685Z" fill="#FF8B7B"/>
<path d="M174.582 51.6195C174.393 51.1001 173.497 47.0784 174.335 46.034C175.173 44.9896 184.73 45.7397 186.142 47.1361C188.484 49.4557 186.86 51.5271 184.294 54.1929C182.365 56.2009 182.291 58.4628 181.315 58.7975C179.61 59.3802 176.964 58.8321 176.43 57.003C175.902 55.1738 174.582 51.6195 174.582 51.6195Z" fill="#263238"/>
<path d="M184.983 42.5657C181.608 41.1174 175.271 42.7215 171.855 41.8906C171.735 43.6736 172.803 46.524 176.224 47.2914C176.224 47.2914 181.08 48.2435 184.834 48.0877C188.588 47.9377 187.853 43.7948 184.983 42.5657Z" fill="#263238"/>
<path d="M185.511 47.2628C185.511 47.2628 187.6 47.4994 189.081 46.5762C189.718 48.1053 186.246 48.5265 185.511 47.2628Z" fill="#263238"/>
<path d="M176.419 51.7808C176.356 52.8367 175.868 53.8234 175.282 54.4754C174.404 55.4506 173.486 54.8447 173.325 53.6561C173.187 52.5886 173.474 50.7941 174.548 50.2575C175.615 49.7208 176.494 50.5748 176.419 51.7808Z" fill="#FF8B7B"/>
<path d="M174.892 101.086C174.892 101.086 179.473 132.1 181.987 143.721C184.742 156.444 199.511 198.543 199.511 198.543L206.738 196.968C206.738 196.968 196.411 162.659 194.098 144.869C192.324 131.206 188.823 101.08 188.823 101.08H174.892V101.086Z" fill="#AAAAAA"/>
<path d="M197.783 196.12C197.754 196.126 199.132 198.745 199.132 198.745L207.266 196.974L206.583 194.516L197.783 196.12Z" fill="#263238"/>
<path opacity="0.3" d="M177.791 112.137C183.089 113.181 182.526 133.042 181.889 143.255C180.362 136.036 178.124 122.142 176.597 112.281C176.947 112.102 177.343 112.05 177.791 112.137Z" fill="black"/>
<path d="M167.229 101.086C167.229 101.086 166.672 131.431 167.114 143.808C167.574 156.681 172.045 198.832 172.045 198.832H178.887C178.887 198.832 179.14 157.431 179.444 144.789C179.777 131.004 181.43 101.086 181.43 101.086H167.229Z" fill="#AAAAAA"/>
<path d="M170.73 196.092C170.702 196.092 171.115 198.948 171.115 198.948H179.432L179.656 196.403L170.73 196.092Z" fill="#263238"/>
<path d="M174.64 71.1976C176.574 76.4427 165.203 82.6224 165.203 82.6224L160.278 76.258C160.278 76.258 163.561 69.6859 167.597 66.7258C172.573 63.0618 173.164 67.2047 174.64 71.1976Z" fill="#AAAAAA"/>
<path opacity="0.4" d="M174.64 71.1976C176.574 76.4427 165.203 82.6224 165.203 82.6224L160.278 76.258C160.278 76.258 163.561 69.6859 167.597 66.7258C172.573 63.0618 173.164 67.2047 174.64 71.1976Z" fill="black"/>
<path d="M219.193 31.3784C230.634 31.3784 239.909 25.4367 239.909 18.1072C239.909 10.7777 230.634 4.83594 219.193 4.83594C207.752 4.83594 198.478 10.7777 198.478 18.1072C198.478 25.4367 207.752 31.3784 219.193 31.3784Z" fill="#AAAAAA"/>
<path d="M211.72 24.7881C210.572 24.7881 209.447 24.4418 208.471 23.7725C207.162 22.8781 206.296 21.5164 206.02 19.9469C205.503 16.9407 207.489 13.9518 210.446 13.2709C212.879 12.717 215.353 13.7614 216.656 15.879L229.956 13.1209C231.035 12.8959 232.125 13.5421 232.395 14.5634C232.539 15.1058 232.453 15.6655 232.16 16.1387C231.867 16.6118 231.408 16.9349 230.863 17.0503L230.513 17.1254C230.409 17.1484 230.323 17.2119 230.271 17.3042C230.22 17.3965 230.214 17.5062 230.249 17.6043L230.484 18.2159C230.645 18.6313 230.495 19.0987 230.128 19.3238C229.847 19.5026 229.652 19.8085 229.611 20.1373C229.565 20.547 229.296 20.8586 228.923 20.9394L228.647 20.9971C228.274 21.0721 227.901 20.8932 227.7 20.5355C227.459 20.12 226.982 19.9065 226.512 20.0046C226.041 20.1027 225.685 20.4893 225.628 20.9682C225.582 21.3779 225.306 21.6895 224.933 21.7703L224.663 21.828C224.296 21.903 223.917 21.7241 223.716 21.3664C223.55 21.0779 223.251 20.8702 222.919 20.824C222.494 20.7605 222.172 20.3912 222.155 19.9469L222.126 19.2891C222.121 19.1853 222.075 19.0872 221.989 19.0237C221.908 18.9602 221.805 18.9314 221.696 18.9545L217.46 19.8315C217.098 22.2434 215.29 24.1764 212.896 24.6727C212.506 24.7477 212.11 24.7881 211.72 24.7881ZM210.572 13.8306C207.908 14.4365 206.123 17.1369 206.588 19.8431C206.829 21.2567 207.616 22.4858 208.792 23.2936C209.969 24.1014 211.393 24.3899 212.787 24.0956C215.009 23.634 216.668 21.8049 216.926 19.543L216.949 19.3353L221.587 18.3717C221.857 18.314 222.132 18.3832 222.35 18.5506C222.568 18.7179 222.695 18.9718 222.706 19.2488L222.735 19.9065C222.741 20.0739 222.861 20.2124 223.01 20.2354C223.521 20.3105 223.963 20.6105 224.222 21.0606C224.285 21.1702 224.405 21.2741 224.56 21.2452L224.83 21.1875C224.979 21.1587 225.054 21.0086 225.065 20.8817C225.151 20.1547 225.691 19.5719 226.403 19.4219C227.114 19.2718 227.838 19.6007 228.199 20.2297C228.262 20.3393 228.383 20.4489 228.538 20.4143L228.814 20.3566C228.963 20.3278 229.037 20.1777 229.049 20.0566C229.106 19.543 229.393 19.093 229.829 18.816C229.956 18.7352 230.007 18.5563 229.95 18.4063L229.715 17.7947C229.617 17.5408 229.634 17.2523 229.766 17.0099C229.898 16.7676 230.128 16.6003 230.392 16.5426L230.742 16.4676C231.132 16.3868 231.46 16.156 231.666 15.8213C231.873 15.4809 231.936 15.0827 231.833 14.6961C231.643 13.9691 230.851 13.5133 230.065 13.6748L216.363 16.5195L216.26 16.3406C215.118 14.3268 212.833 13.3171 210.572 13.8306ZM211.726 22.6531C211.014 22.6531 210.319 22.4454 209.711 22.0415C208.89 21.4991 208.327 20.6682 208.132 19.6988C207.931 18.7294 208.121 17.7428 208.66 16.9176C209.2 16.0925 210.026 15.5328 210.991 15.3308C211.955 15.1289 212.937 15.3193 213.757 15.8617C214.578 16.4041 215.135 17.235 215.336 18.2044C215.537 19.1737 215.347 20.1547 214.808 20.9798C214.268 21.8049 213.442 22.3704 212.477 22.5666C212.225 22.63 211.972 22.6531 211.726 22.6531ZM211.743 15.8386C211.53 15.8386 211.318 15.8617 211.106 15.9021C210.296 16.0694 209.596 16.5483 209.143 17.2408C208.689 17.9389 208.528 18.7698 208.695 19.5834C208.861 20.397 209.338 21.101 210.026 21.5568C210.721 22.0126 211.548 22.1742 212.357 22.0069C213.172 21.8395 213.867 21.3606 214.32 20.6682C214.773 19.97 214.934 19.1391 214.768 18.3255C214.601 17.5062 214.125 16.808 213.436 16.3464C212.925 16.0117 212.34 15.8386 211.743 15.8386Z" fill="white"/>
<path opacity="0.6" d="M202.335 39.1619C206.095 39.1619 209.143 37.2089 209.143 34.7997C209.143 32.3905 206.095 30.4375 202.335 30.4375C198.575 30.4375 195.527 32.3905 195.527 34.7997C195.527 37.2089 198.575 39.1619 202.335 39.1619Z" fill="#AAAAAA"/>
<path opacity="0.3" d="M191.504 40.9447C193.047 40.9447 194.299 40.1438 194.299 39.1559C194.299 38.168 193.047 37.3672 191.504 37.3672C189.96 37.3672 188.708 38.168 188.708 39.1559C188.708 40.1438 189.96 40.9447 191.504 40.9447Z" fill="#AAAAAA"/>
</g>
<defs>
<clipPath id="clip0_18050_441395">
<rect width="287" height="215" fill="white"/>
</clipPath>
</defs>
</svg>
