<svg width="40" height="40" viewBox="0 0 40 40" fill="none" xmlns="http://www.w3.org/2000/svg">
<circle cx="20" cy="20" r="19.5" fill="white" stroke="#B3B3B3"/>
<path d="M20.9375 18.9562C21.3604 18.4896 21.685 17.9573 21.9114 17.3594C22.1377 16.7615 22.2506 16.1417 22.25 15.5C22.25 14.8583 22.1368 14.2385 21.9105 13.6406C21.6842 13.0427 21.3598 12.5104 20.9375 12.0438C21.8125 12.1604 22.5417 12.5469 23.125 13.2031C23.7083 13.8594 24 14.625 24 15.5C24 16.375 23.7083 17.1406 23.125 17.7969C22.5417 18.4531 21.8125 18.8396 20.9375 18.9562ZM25.75 26V23.375C25.75 22.85 25.6333 22.3504 25.4 21.8761C25.1667 21.4019 24.8604 20.9827 24.4812 20.6188C25.225 20.8813 25.9142 21.2205 26.5489 21.6364C27.1835 22.0523 27.5006 22.6318 27.5 23.375V26H25.75ZM27.5 19.875V18.125H25.75V16.375H27.5V14.625H29.25V16.375H31V18.125H29.25V19.875H27.5ZM17 19C16.0375 19 15.2135 18.6573 14.5281 17.9719C13.8427 17.2865 13.5 16.4625 13.5 15.5C13.5 14.5375 13.8427 13.7135 14.5281 13.0281C15.2135 12.3427 16.0375 12 17 12C17.9625 12 18.7865 12.3427 19.4719 13.0281C20.1573 13.7135 20.5 14.5375 20.5 15.5C20.5 16.4625 20.1573 17.2865 19.4719 17.9719C18.7865 18.6573 17.9625 19 17 19ZM10 26V23.55C10 23.0542 10.1277 22.5983 10.3832 22.1824C10.6388 21.7665 10.9777 21.4494 11.4 21.2312C12.3042 20.7792 13.2229 20.44 14.1562 20.2136C15.0896 19.9873 16.0375 19.8744 17 19.875C17.9625 19.875 18.9104 19.9882 19.8438 20.2145C20.7771 20.4408 21.6958 20.7797 22.6 21.2312C23.0229 21.45 23.3621 21.7673 23.6176 22.1832C23.8731 22.5992 24.0006 23.0548 24 23.55V26H10Z" fill="black"/>
</svg>
