<svg width="57" height="57" viewBox="0 0 57 57" fill="none" xmlns="http://www.w3.org/2000/svg">
<path d="M35.625 5.83728C33.3758 5.13084 30.9824 4.75 28.5 4.75C15.3832 4.75 4.75 15.3832 4.75 28.5C4.75 41.6168 15.3832 52.25 28.5 52.25C41.6168 52.25 52.25 41.6168 52.25 28.5C52.25 24.4261 51.2243 20.5918 49.417 17.2412M40.375 13.6562H40.3869M24.9376 51.9846L24.9379 46.7517C24.9379 46.4683 25.0393 46.1942 25.2238 45.979L31.1275 39.0911C31.6127 38.525 31.4623 37.6571 30.815 37.2872L24.0315 33.4109C23.8472 33.3056 23.6945 33.1528 23.5893 32.9684L19.1673 25.2192C18.9372 24.8159 18.4931 24.5838 18.0306 24.625L4.90244 25.7943M49.875 14.25C49.875 19.4967 45.125 23.75 40.375 28.5C35.625 23.75 30.875 19.4967 30.875 14.25C30.875 9.00329 35.1283 4.75 40.375 4.75C45.6217 4.75 49.875 9.00329 49.875 14.25ZM40.9688 13.6562C40.9688 13.9842 40.7029 14.25 40.375 14.25C40.0471 14.25 39.7812 13.9842 39.7812 13.6562C39.7812 13.3283 40.0471 13.0625 40.375 13.0625C40.7029 13.0625 40.9688 13.3283 40.9688 13.6562Z" stroke="#475467" stroke-width="3.5" stroke-linecap="round" stroke-linejoin="round"/>
</svg>
