<svg width="51" height="51" viewBox="0 0 51 51" fill="none" xmlns="http://www.w3.org/2000/svg">
<g filter="url(#filter0_dd_17563_25643)">
<circle cx="25.5" cy="24.5" r="22" fill="#F4F4F4" stroke="#E4E4E4"/>
<path d="M21.6898 12.3599C21.6898 11.6092 22.2944 11 23.0392 11H26.4974C28.6535 11 30.4032 12.7633 30.4032 14.9362V19.1613H22.1788L21.6898 12.3599Z" fill="url(#paint0_linear_17563_25643)"/>
<path d="M20.4003 19.65H19.2448V13.9797C19.2448 12.7113 20.5344 11.8567 21.6898 12.3599C21.9519 13.7697 20.4003 19.65 20.4003 19.65Z" fill="url(#paint1_linear_17563_25643)"/>
<path d="M27.4424 24.1455C27.0792 25.7528 26.095 26.9047 24.9396 26.9047C23.782 26.9047 22.7978 25.7486 22.4347 24.1413L22.7132 23.0497L22.7978 22.7232H27.0792L27.397 23.9708L27.4259 24.0831L27.4424 24.1455Z" fill="#D2D4DA"/>
<path d="M30.3248 18.0281C32.4562 15.6182 31.0346 21.511 29.8544 20.8206C27.7828 19.6105 30.3248 18.0281 30.3248 18.0281Z" fill="#F4F4F4"/>
<path d="M36.75 32.9327C35.642 34.0888 34.3689 35.0827 32.97 35.877C30.8118 37.1017 28.3523 37.8461 25.7298 37.9709C25.4678 37.9854 25.2037 37.9917 24.9375 37.9917C23.6149 37.9917 22.3295 37.8337 21.0977 37.5363C19.381 37.1225 17.7716 36.4363 16.3128 35.5256C15.1429 34.7958 14.0741 33.9245 13.125 32.9327L13.4077 31.8099C13.8348 30.1235 15.1532 28.8136 16.8348 28.4081L17.0205 28.3644L19.0818 27.8675L19.6451 27.7323C19.8824 27.6741 20.1093 27.593 20.3239 27.489C20.5034 27.4017 20.6747 27.2998 20.8356 27.1834C21.0089 27.0586 21.1719 26.9172 21.3184 26.7613C21.7125 26.3433 22.0035 25.8276 22.152 25.2475L22.3707 24.3908L22.4285 24.16L22.4326 24.1413L22.7132 23.0497L22.7958 22.7232H27.0772L27.397 23.9708L27.4259 24.0831L27.4424 24.1455L27.4444 24.16L27.723 25.2475C27.9272 26.0418 28.3997 26.7218 29.0414 27.1834C29.3922 27.4391 29.7946 27.6283 30.2299 27.7323L33.0402 28.4081C34.7218 28.8136 36.0402 30.1235 36.4673 31.8099L36.75 32.9327Z" fill="#F4F4F4"/>
<path d="M27.4424 24.1455C27.0792 25.7528 26.095 26.9047 24.9396 26.9047C23.782 26.9047 22.7978 25.7486 22.4347 24.1413L22.7132 23.0497L22.7978 22.7232H27.0792L27.397 23.9708L27.4259 24.0831L27.4424 24.1455Z" fill="#D2D4DA"/>
<path d="M19.5522 18.0281C17.4208 15.6182 18.8425 21.511 20.0227 20.8206C22.0963 19.6105 19.5522 18.0281 19.5522 18.0281Z" fill="#F4F4F4"/>
<path d="M29.8977 16.2919C29.8977 16.4749 29.8874 16.6537 29.8668 16.8325C29.8503 16.9947 29.778 17.6871 29.6501 18.5687L29.6481 18.5708C29.5779 19.0595 29.4871 19.6063 29.3798 20.1553C29.3778 20.1615 29.3778 20.1698 29.3757 20.176C29.1137 21.5131 28.7443 22.8438 28.2615 23.3283C27.7168 23.8772 27.2794 24.3763 26.78 24.736C26.2807 25.0978 25.7216 25.3224 24.9375 25.3224C24.1534 25.3224 23.5943 25.0978 23.095 24.736C22.5977 24.3763 22.1582 23.8772 21.6135 23.3283C21.1307 22.8417 20.7613 21.5089 20.4972 20.174V20.1719C20.4952 20.1698 20.4952 20.1657 20.4952 20.1657C20.4622 19.9931 20.4312 19.8205 20.4003 19.65C20.3879 19.5793 20.3755 19.5086 20.3631 19.4379C20.3115 19.1385 20.2661 18.8453 20.2249 18.5708C20.0763 17.5582 20.0041 16.7951 20.0041 16.7951C19.9876 16.6308 19.9793 16.4624 19.9793 16.2919C19.9793 16.2482 19.9793 16.2045 19.9814 16.1609C19.9917 15.7679 20.0454 15.3853 20.1423 15.0193C20.1465 15.0027 20.1506 14.9861 20.1547 14.9694C20.7056 12.94 22.4945 11.4242 24.6528 11.3036C24.7477 11.2973 24.8405 11.2953 24.9375 11.2953C26.3075 11.2953 27.5476 11.8546 28.4451 12.7591C29.2209 13.5389 29.7409 14.5785 29.8668 15.7367C29.8874 15.9197 29.8977 16.1047 29.8977 16.2919Z" fill="#F4F4F4"/>
<path d="M25.7174 20.7853C25.7174 21.1305 25.3687 21.4091 24.9375 21.4091C24.5083 21.4091 24.1596 21.1305 24.1596 20.7853C24.1596 20.7437 24.1638 20.7021 24.1761 20.6647C24.2442 20.9516 24.5599 21.1679 24.9375 21.1679C25.3172 21.1679 25.6328 20.9516 25.7009 20.6647C25.7133 20.7021 25.7174 20.7437 25.7174 20.7853Z" fill="#DEDFE0"/>
<path d="M30.0483 16.3335C30.0483 16.5227 30.038 16.7057 30.0174 16.8907C30.0009 17.0571 29.6522 18.5708 29.6522 18.5708C22.5234 16.8242 21.9539 13.7717 21.9539 13.7717C21.9766 16.6911 20.2269 18.5729 20.2269 18.5729C20.0743 17.5291 19.8576 16.8533 19.8576 16.8533C19.8411 16.6849 19.8328 16.5102 19.8328 16.3355C19.8328 16.2898 19.8328 16.2461 19.8349 16.2004C19.8452 15.7949 19.9009 15.4019 20 15.0235C20.0041 15.0069 20.0082 14.9902 20.0124 14.9715C20.5798 12.8797 22.4223 11.3181 24.6445 11.1955C24.7415 11.1892 24.8385 11.1871 24.9375 11.1871C26.3488 11.1871 27.626 11.7631 28.5504 12.6946C29.3489 13.4973 29.8853 14.5681 30.0153 15.7616C30.038 15.9488 30.0483 16.1401 30.0483 16.3335Z" fill="url(#paint2_linear_17563_25643)"/>
<path d="M36.75 32.9431C33.7644 36.06 29.5758 38 24.9375 38C20.2992 38 16.1086 36.06 13.125 32.941L13.4077 31.8203C13.8348 30.1318 15.1532 28.8219 16.8348 28.4164L19.0859 27.8758L19.6451 27.7406C19.8968 27.6803 20.1403 27.5909 20.3672 27.4765C21.5103 28.7033 23.1342 29.4706 24.9375 29.4706C26.7408 29.4706 28.3647 28.7033 29.5078 27.4765C29.7347 27.5888 29.9761 27.6803 30.2299 27.7406L30.7189 27.8591L33.0402 28.4164C34.7218 28.8219 36.0402 30.1318 36.4653 31.8203L36.75 32.9431Z" fill="#29C1AB"/>
<path d="M30.7189 27.8591C30.2155 28.4746 28.3647 30.4229 24.9375 30.5602C20.9883 30.7203 19.1932 28.038 19.0859 27.8758L19.6451 27.7406C19.8968 27.6803 20.1403 27.5909 20.3672 27.4765C21.5103 28.7033 23.1342 29.4706 24.9375 29.4706C26.7408 29.4706 28.3647 28.7033 29.5078 27.4765C29.7347 27.5888 29.9761 27.6803 30.2299 27.7406L30.7189 27.8591Z" fill="url(#paint3_linear_17563_25643)"/>
</g>
<defs>
<filter id="filter0_dd_17563_25643" x="0" y="0" width="51" height="51" filterUnits="userSpaceOnUse" color-interpolation-filters="sRGB">
<feFlood flood-opacity="0" result="BackgroundImageFix"/>
<feColorMatrix in="SourceAlpha" type="matrix" values="0 0 0 0 0 0 0 0 0 0 0 0 0 0 0 0 0 0 127 0" result="hardAlpha"/>
<feOffset dy="1"/>
<feGaussianBlur stdDeviation="1"/>
<feColorMatrix type="matrix" values="0 0 0 0 0.0627451 0 0 0 0 0.0941176 0 0 0 0 0.156863 0 0 0 0.06 0"/>
<feBlend mode="normal" in2="BackgroundImageFix" result="effect1_dropShadow_17563_25643"/>
<feColorMatrix in="SourceAlpha" type="matrix" values="0 0 0 0 0 0 0 0 0 0 0 0 0 0 0 0 0 0 127 0" result="hardAlpha"/>
<feOffset dy="1"/>
<feGaussianBlur stdDeviation="1.5"/>
<feColorMatrix type="matrix" values="0 0 0 0 0.0627451 0 0 0 0 0.0941176 0 0 0 0 0.156863 0 0 0 0.1 0"/>
<feBlend mode="normal" in2="effect1_dropShadow_17563_25643" result="effect2_dropShadow_17563_25643"/>
<feBlend mode="normal" in="SourceGraphic" in2="effect2_dropShadow_17563_25643" result="shape"/>
</filter>
<linearGradient id="paint0_linear_17563_25643" x1="24.9375" y1="11" x2="24.9375" y2="38" gradientUnits="userSpaceOnUse">
<stop stop-color="#7362CB"/>
<stop offset="1" stop-color="#B1BCC4"/>
</linearGradient>
<linearGradient id="paint1_linear_17563_25643" x1="24.9375" y1="11" x2="24.9375" y2="38" gradientUnits="userSpaceOnUse">
<stop stop-color="#7362CB"/>
<stop offset="1" stop-color="#B1BCC4"/>
</linearGradient>
<linearGradient id="paint2_linear_17563_25643" x1="24.9375" y1="11" x2="24.9375" y2="38" gradientUnits="userSpaceOnUse">
<stop stop-color="#7362CB"/>
<stop offset="1" stop-color="#B1BCC4"/>
</linearGradient>
<linearGradient id="paint3_linear_17563_25643" x1="24.9375" y1="11" x2="24.9375" y2="38" gradientUnits="userSpaceOnUse">
<stop stop-color="#7362CB"/>
<stop offset="1" stop-color="#B1BCC4"/>
</linearGradient>
</defs>
</svg>
