<svg width="260" height="240" viewBox="0 0 260 240" fill="none" xmlns="http://www.w3.org/2000/svg">
<path d="M122.19 1.17548C194.419 -5.26491 194.542 35.5223 227.087 73.5236C259.632 111.525 266.596 128.748 254.327 172.554C242.058 216.355 200.72 250.696 149.576 231.241C98.4319 211.785 69.1361 230.471 36.8763 213.19C4.6165 195.909 -7.36155 162.529 16.251 123.193C39.8635 83.8515 33.1321 9.11379 122.19 1.17548Z" fill="#C4C4C4"/>
<path opacity="0.7" d="M122.19 1.17548C194.419 -5.26491 194.542 35.5223 227.087 73.5236C259.632 111.525 266.596 128.748 254.327 172.554C242.058 216.355 200.72 250.696 149.576 231.241C98.4319 211.785 69.1361 230.471 36.8763 213.19C4.6165 195.909 -7.36155 162.529 16.251 123.193C39.8635 83.8515 33.1321 9.11379 122.19 1.17548Z" fill="white"/>
<path d="M100.057 214.459C99.3577 211.731 97.6399 209.441 95.2175 208.007C92.801 206.573 89.9651 206.171 87.2399 206.87C84.5147 207.57 82.2263 209.289 80.7938 211.714C79.8213 213.358 79.3206 215.199 79.3206 217.064C79.3206 217.944 79.4312 218.825 79.6525 219.699C80.3571 222.427 82.0749 224.717 84.4914 226.151C86.1394 227.13 87.9736 227.625 89.837 227.625C90.7163 227.625 91.6014 227.515 92.4749 227.293C94.216 226.844 95.7765 225.982 97.046 224.787C96.9412 224.624 96.8422 224.455 96.7606 224.28C96.7606 224.274 96.7548 224.268 96.7548 224.262C95.532 225.446 94.018 226.291 92.3293 226.728C89.8487 227.363 87.269 227.031 85.033 225.784C84.9515 225.743 84.8699 225.696 84.7884 225.65C83.6471 224.974 82.6688 224.093 81.8944 223.062C81.1199 222.024 80.5492 220.841 80.2173 219.553C79.5593 216.977 79.9378 214.296 81.2946 212.011C82.6455 209.721 84.8117 208.094 87.3855 207.436C88.2124 207.22 89.0451 207.115 89.872 207.115C91.6363 207.115 93.3716 207.587 94.9264 208.508C97.209 209.86 98.8337 212.029 99.4975 214.605C99.8352 215.916 99.8993 217.257 99.7013 218.556C99.9051 218.521 100.103 218.498 100.301 218.492C100.482 217.163 100.4 215.8 100.057 214.459Z" fill="#263238"/>
<path d="M96.7607 224.279C95.765 225.183 94.4723 226.191 93.1854 226.733C92.9233 226.844 92.6613 226.943 92.4051 227.007C92.143 227.077 91.8635 227.118 91.584 227.147C88.6841 227.45 84.7769 225.976 84.7769 225.976C84.7769 225.976 84.8758 225.9 85.0331 225.783C85.5979 225.375 86.9197 224.437 87.3856 224.32C87.9854 224.163 89.0102 223.434 88.556 221.861C88.556 221.861 86.023 220.054 85.2136 216.394C84.8526 214.797 84.0315 211.702 87.2924 210.414V210.408C87.537 210.315 87.799 210.233 88.0844 210.157C88.3639 210.087 88.6375 210.035 88.8938 209.994L88.8996 210.006C92.376 209.563 93.1446 212.669 93.5988 214.237C94.647 217.839 93.296 220.643 93.296 220.643C93.657 222.24 94.9032 222.391 95.5029 222.234C95.6776 222.193 96.0037 222.187 96.3822 222.205C96.3473 222.648 96.3822 223.102 96.4987 223.551C96.5627 223.802 96.6501 224.035 96.7549 224.262C96.7549 224.268 96.7607 224.274 96.7607 224.279Z" fill="#263238"/>
<path d="M100.412 226.885C99.6429 226.885 98.8859 226.681 98.2105 226.278C97.2147 225.69 96.5043 224.746 96.219 223.621C95.9336 222.496 96.0967 221.33 96.6848 220.334C97.2729 219.337 98.2163 218.626 99.3401 218.34C100.464 218.055 101.629 218.218 102.624 218.806C103.62 219.395 104.331 220.339 104.616 221.464C104.901 222.589 104.738 223.755 104.15 224.751C103.562 225.748 102.619 226.459 101.495 226.745C101.139 226.838 100.773 226.885 100.412 226.885ZM100.429 218.783C100.115 218.783 99.8002 218.824 99.4915 218.906C98.5191 219.156 97.7039 219.768 97.1914 220.631C96.679 221.493 96.5392 222.507 96.7838 223.481C97.0342 224.454 97.6456 225.27 98.5074 225.783C99.3693 226.296 100.382 226.436 101.349 226.191C102.322 225.94 103.137 225.328 103.649 224.466C104.162 223.603 104.301 222.589 104.057 221.616C103.806 220.642 103.195 219.826 102.333 219.314C101.745 218.964 101.093 218.783 100.429 218.783Z" fill="#263238"/>
<path d="M100.161 222.367L99.4392 220.7L100.388 220.455L100.557 222.268L101.926 221.073L102.45 221.895L100.796 222.635L102.345 223.55L101.728 224.302L100.517 222.95L100.103 224.716L99.2005 224.354L100.115 222.804L98.3096 222.95L98.3736 221.976L100.161 222.367Z" fill="#263238"/>
<path d="M93.0922 210.24C90.1049 206.964 87.8921 209.395 87.8921 209.395C87.8921 209.395 84.7885 208.334 83.7403 212.641C82.6922 216.948 85.7434 220.346 83.1638 221.774C83.1638 221.774 86.448 223.173 91.1181 221.973C95.7882 220.772 97.9952 217.963 97.9952 217.963C95.0371 217.957 96.0794 213.51 93.0922 210.24Z" fill="#263238"/>
<path d="M258.863 114.531C259.294 112.648 258.962 110.713 257.937 109.076C256.912 107.444 255.311 106.307 253.43 105.876C251.549 105.444 249.616 105.777 247.98 106.802C246.873 107.496 245.988 108.464 245.406 109.6C245.132 110.136 244.923 110.707 244.783 111.308C244.358 113.19 244.684 115.125 245.709 116.763C246.408 117.876 247.368 118.757 248.504 119.339C249.04 119.613 249.616 119.829 250.216 119.969C251.415 120.243 252.638 120.208 253.791 119.876C253.78 119.742 253.774 119.607 253.774 119.479C253.774 119.473 253.774 119.468 253.774 119.468C252.656 119.806 251.468 119.846 250.303 119.578C248.591 119.188 247.124 118.174 246.151 116.711C246.116 116.658 246.081 116.606 246.047 116.553C245.563 115.784 245.243 114.939 245.092 114.065C244.946 113.19 244.969 112.287 245.167 111.401C245.575 109.623 246.646 108.108 248.189 107.141C249.733 106.167 251.561 105.858 253.337 106.266C253.908 106.394 254.449 106.593 254.956 106.855C256.033 107.409 256.942 108.242 257.6 109.291C258.566 110.836 258.875 112.666 258.473 114.444C258.269 115.347 257.885 116.186 257.355 116.915C257.489 116.956 257.617 117.008 257.739 117.066C258.275 116.309 258.653 115.452 258.863 114.531Z" fill="#263238"/>
<path d="M253.774 119.479C252.883 119.718 251.776 119.928 250.827 119.852C250.635 119.835 250.443 119.817 250.268 119.776C250.088 119.736 249.901 119.672 249.727 119.602C247.863 118.873 245.948 116.746 245.948 116.746C245.948 116.746 246.029 116.728 246.163 116.711C246.635 116.641 247.735 116.483 248.055 116.559C248.469 116.652 249.325 116.53 249.54 115.428C249.54 115.428 248.562 113.528 249.22 111.046C249.5 109.961 249.971 107.817 252.365 108.056V108.05C252.545 108.067 252.726 108.102 252.924 108.149C253.116 108.195 253.296 108.248 253.471 108.306V108.318C255.73 109.14 255.224 111.273 255.008 112.374C254.519 114.898 252.813 116.186 252.813 116.186C252.533 117.27 253.244 117.76 253.657 117.847C253.774 117.876 253.978 117.976 254.205 118.104C254.042 118.36 253.925 118.652 253.855 118.961C253.814 119.135 253.797 119.304 253.791 119.473C253.774 119.468 253.774 119.473 253.774 119.479Z" fill="#263238"/>
<path d="M255.177 122.213C254.711 121.974 254.315 121.607 254.024 121.152C253.599 120.482 253.465 119.683 253.646 118.908C253.82 118.133 254.292 117.474 254.962 117.049C255.631 116.624 256.429 116.489 257.204 116.67C257.978 116.845 258.636 117.317 259.061 117.987C259.486 118.658 259.62 119.456 259.44 120.231C259.265 121.006 258.793 121.665 258.124 122.091C257.454 122.516 256.656 122.65 255.882 122.469C255.637 122.417 255.398 122.33 255.177 122.213ZM257.728 117.282C257.535 117.183 257.332 117.107 257.116 117.061C256.447 116.909 255.754 117.026 255.171 117.393C254.589 117.76 254.181 118.331 254.03 119.002C253.879 119.672 253.995 120.365 254.362 120.948C254.729 121.531 255.299 121.933 255.969 122.091C256.639 122.242 257.332 122.126 257.914 121.758C258.496 121.391 258.904 120.82 259.055 120.15C259.207 119.479 259.09 118.786 258.723 118.203C258.479 117.807 258.135 117.492 257.728 117.282Z" fill="#263238"/>
<path d="M256.441 119.38L256.528 118.139L257.18 118.29L256.714 119.45L257.92 119.153L257.984 119.817L256.744 119.747L257.402 120.791L256.79 121.059L256.476 119.852L255.672 120.802L255.235 120.295L256.278 119.637L255.131 119.159L255.474 118.587L256.441 119.38Z" fill="#263238"/>
<path d="M255.94 109.763C255.142 106.825 253.034 107.612 253.034 107.612C253.034 107.612 251.474 105.986 249.488 108.288C247.496 110.585 248.294 113.615 246.268 113.674C246.268 113.674 247.834 115.556 251.054 116.297C254.275 117.031 256.505 116.017 256.505 116.017C254.705 115.078 256.732 112.7 255.94 109.763Z" fill="#263238"/>
<path d="M179.897 15.2919C180.368 12.5175 179.728 9.72574 178.097 7.42934C176.473 5.13295 174.045 3.61173 171.273 3.13963C168.501 2.66753 165.712 3.30865 163.417 4.94061C161.863 6.04801 160.657 7.5226 159.894 9.23032C159.539 10.0346 159.277 10.8856 159.126 11.7715C158.66 14.5517 159.3 17.3435 160.925 19.634C162.032 21.2019 163.505 22.3967 165.211 23.1602C166.014 23.5158 166.87 23.778 167.756 23.9296C169.526 24.2268 171.302 24.0753 172.95 23.5041C172.921 23.3118 172.897 23.1194 172.897 22.9271C172.897 22.9213 172.897 22.9154 172.897 22.9096C171.302 23.4925 169.572 23.6498 167.855 23.3584C165.333 22.9271 163.109 21.5749 161.571 19.5233C161.513 19.4534 161.461 19.3776 161.403 19.3018C160.634 18.2177 160.098 17.0171 159.813 15.7581C159.528 14.4934 159.487 13.182 159.708 11.8706C160.156 9.24781 161.589 6.95724 163.761 5.41854C165.927 3.87401 168.565 3.27368 171.185 3.72247C172.03 3.86235 172.833 4.10714 173.584 4.44519C175.197 5.16209 176.589 6.30446 177.637 7.77905C179.175 9.94139 179.774 12.5875 179.332 15.2103C179.105 16.545 178.621 17.7981 177.911 18.9055C178.109 18.9579 178.301 19.0162 178.488 19.092C179.18 17.9321 179.664 16.6557 179.897 15.2919Z" fill="#263238"/>
<path d="M172.892 22.9161C171.616 23.3358 170.027 23.7321 168.629 23.703C168.344 23.6971 168.064 23.6797 167.802 23.633C167.534 23.5922 167.261 23.5165 166.993 23.429C164.221 22.5256 161.251 19.5881 161.251 19.5881C161.251 19.5881 161.374 19.559 161.566 19.5182C162.247 19.3783 163.837 19.0577 164.308 19.1393C164.92 19.2384 166.154 18.9936 166.376 17.3675C166.376 17.3675 164.797 14.6864 165.543 11.0145C165.863 9.40587 166.37 6.24687 169.875 6.39841V6.39258C170.137 6.40423 170.411 6.43921 170.702 6.48583C170.987 6.53829 171.255 6.59657 171.506 6.66651V6.67817C174.86 7.69232 174.301 10.8397 174.079 12.46C173.573 16.1785 171.197 18.1893 171.197 18.1893C170.877 19.7979 171.954 20.4391 172.565 20.544C172.74 20.5789 173.043 20.7072 173.381 20.8762C173.171 21.2667 173.014 21.698 172.938 22.1526C172.897 22.4091 172.88 22.6539 172.886 22.9045C172.892 22.9045 172.892 22.9161 172.892 22.9161Z" fill="#263238"/>
<path d="M175.163 26.7852C174.464 26.4705 173.852 25.9751 173.398 25.334C172.728 24.3898 172.466 23.2357 172.659 22.0934C172.851 20.951 173.48 19.9485 174.423 19.2783C175.366 18.608 176.519 18.3457 177.661 18.538C178.802 18.7304 179.798 19.3598 180.473 20.3041C181.143 21.2483 181.405 22.4023 181.213 23.5447C181.021 24.687 180.392 25.6895 179.448 26.3598C178.505 27.03 177.352 27.2923 176.211 27.1C175.844 27.0359 175.494 26.931 175.163 26.7852ZM178.47 19.389C178.185 19.2608 177.882 19.1675 177.562 19.1151C176.572 18.946 175.576 19.1733 174.761 19.7562C173.945 20.339 173.398 21.2016 173.235 22.1925C173.066 23.1833 173.293 24.1799 173.876 24.9959C174.458 25.8119 175.32 26.3539 176.31 26.523C177.3 26.692 178.295 26.4647 179.111 25.8818C179.926 25.299 180.473 24.4364 180.636 23.4456C180.805 22.4547 180.578 21.4581 179.996 20.6421C179.606 20.0884 179.076 19.6629 178.47 19.389Z" fill="#263238"/>
<path d="M176.77 22.5548L176.793 20.7363L177.76 20.8995L177.183 22.6247L178.918 22.0885L179.064 23.0502H177.253L178.295 24.519L177.428 24.9561L176.869 23.2251L175.774 24.6705L175.098 23.9711L176.566 22.9278L174.86 22.3275L175.314 21.4649L176.77 22.5548Z" fill="#263238"/>
<path d="M84.4041 17.9255C83.7344 17.9255 83.1405 17.4418 83.024 16.754L81.3761 6.78159C81.3179 6.4144 81.3994 6.04138 81.6207 5.73831C81.842 5.43523 82.1622 5.23124 82.5291 5.17295L98.9676 2.44525C99.7246 2.31703 100.447 2.83576 100.575 3.59928L102.223 13.5717C102.281 13.9389 102.199 14.3119 101.978 14.615C101.763 14.9181 101.437 15.1221 101.07 15.1803L84.6312 17.908C84.5555 17.9197 84.4798 17.9255 84.4041 17.9255ZM99.1947 3.01644C99.1481 3.01644 99.1073 3.02227 99.0608 3.02809L82.6222 5.75579C82.1797 5.83156 81.8769 6.25121 81.9526 6.69417L83.6005 16.6666C83.6762 17.1095 84.0955 17.4126 84.538 17.3369L100.977 14.6092C101.192 14.5742 101.378 14.4576 101.506 14.2769C101.635 14.1021 101.681 13.8864 101.646 13.6708L99.9983 3.69836C99.9342 3.2962 99.5848 3.01644 99.1947 3.01644Z" fill="#263238"/>
<path d="M91.6015 11.5085C91.2579 11.5085 90.9143 11.4386 90.5941 11.2987L81.6091 7.37037C81.4635 7.30626 81.3936 7.1314 81.4577 6.98569C81.5217 6.83998 81.6906 6.77004 81.842 6.83416L90.827 10.7625C91.5316 11.0714 92.3468 10.9315 92.9117 10.4186L100.15 3.79755C100.266 3.68681 100.453 3.69847 100.563 3.81504C100.674 3.9316 100.662 4.11811 100.546 4.22885L93.3076 10.8499C92.8301 11.2812 92.2187 11.5085 91.6015 11.5085Z" fill="#263238"/>
<path d="M84.8351 15.3663C84.7477 15.3663 84.6662 15.3313 84.608 15.2555C84.509 15.1273 84.5265 14.9466 84.6546 14.8475L88.6143 11.671C88.7424 11.572 88.9229 11.5894 89.0219 11.7177C89.1209 11.8459 89.1034 12.0266 88.9753 12.1257L85.0214 15.3021C84.9632 15.3429 84.8991 15.3663 84.8351 15.3663Z" fill="#263238"/>
<path d="M99.9692 12.854C99.9343 12.854 99.9052 12.8482 99.8702 12.8365L95.0953 11.1055C94.9439 11.053 94.8682 10.884 94.9206 10.7324C94.973 10.5809 95.1419 10.5051 95.2933 10.5576L100.068 12.2886C100.22 12.3411 100.295 12.5101 100.243 12.6616C100.196 12.7782 100.086 12.854 99.9692 12.854Z" fill="#263238"/>
<path d="M163.388 222.63C163.144 222.63 162.905 222.566 162.689 222.438L148.289 214.045C147.969 213.859 147.736 213.555 147.643 213.194C147.549 212.833 147.596 212.454 147.788 212.133L152.866 203.396C153.052 203.076 153.355 202.843 153.716 202.75C154.077 202.656 154.456 202.703 154.776 202.895L169.176 211.288C169.497 211.475 169.729 211.778 169.823 212.139C169.916 212.5 169.869 212.879 169.677 213.2L164.599 221.937C164.413 222.257 164.11 222.49 163.749 222.584C163.627 222.613 163.51 222.63 163.388 222.63ZM154.071 203.286C154.001 203.286 153.931 203.297 153.862 203.315C153.652 203.373 153.471 203.507 153.367 203.694L148.289 212.431C148.178 212.617 148.149 212.839 148.207 213.048C148.266 213.258 148.4 213.433 148.586 213.544L162.986 221.937C163.173 222.047 163.394 222.077 163.604 222.018C163.813 221.96 163.994 221.826 164.099 221.639L169.176 212.903C169.287 212.716 169.316 212.495 169.258 212.285C169.2 212.075 169.066 211.894 168.879 211.789L154.479 203.396C154.351 203.327 154.211 203.286 154.071 203.286Z" fill="#263238"/>
<path d="M159.341 214.145C158.392 214.145 157.518 213.608 157.088 212.757L152.668 203.997C152.598 203.852 152.65 203.677 152.796 203.607C152.942 203.537 153.116 203.589 153.186 203.735L157.606 212.495C157.949 213.177 158.66 213.591 159.434 213.562L169.229 213.084C169.386 213.066 169.526 213.2 169.531 213.358C169.537 213.515 169.415 213.655 169.258 213.661L159.463 214.139C159.423 214.145 159.382 214.145 159.341 214.145Z" fill="#263238"/>
<path d="M155.323 212.36L150.245 212.284C150.082 212.284 149.954 212.15 149.96 211.987C149.96 211.824 150.1 211.696 150.257 211.701L155.335 211.777C155.498 211.777 155.626 211.911 155.62 212.074C155.614 212.238 155.486 212.36 155.323 212.36Z" fill="#263238"/>
<path d="M163.505 220.008C163.406 220.008 163.307 219.956 163.254 219.862L160.68 215.485C160.599 215.345 160.646 215.171 160.785 215.089C160.925 215.007 161.1 215.054 161.181 215.194L163.755 219.571C163.837 219.711 163.79 219.886 163.65 219.967C163.604 219.997 163.551 220.008 163.505 220.008Z" fill="#263238"/>
<path d="M6.19449 157.778C5.69953 157.778 5.21622 157.509 4.96 157.043L0.167615 148.149C-0.199239 147.467 0.0569763 146.622 0.732452 146.255L15.4008 138.34C15.7269 138.165 16.1054 138.124 16.4664 138.229C16.8216 138.334 17.1186 138.579 17.2991 138.905L22.0915 147.799C22.4583 148.481 22.2021 149.326 21.5266 149.694L6.85832 157.609C6.64869 157.725 6.42159 157.778 6.19449 157.778ZM16.0704 138.754C15.9365 138.754 15.8026 138.789 15.6861 138.853L1.01778 146.768C0.825621 146.873 0.685868 147.042 0.621814 147.251C0.55776 147.461 0.581052 147.683 0.685868 147.875L5.47825 156.769C5.58307 156.962 5.75194 157.101 5.96157 157.166C6.1712 157.23 6.39248 157.206 6.58464 157.101L21.2529 149.187C21.4451 149.082 21.5849 148.913 21.6489 148.703C21.713 148.493 21.6897 148.271 21.5849 148.079L16.7925 139.185C16.6877 138.993 16.5188 138.853 16.3092 138.789C16.2276 138.759 16.1461 138.754 16.0704 138.754Z" fill="#263238"/>
<path d="M10.5561 149.431C10.4862 149.431 10.4221 149.431 10.3523 149.425L0.581163 148.627C0.418117 148.615 0.301656 148.475 0.313302 148.312C0.324948 148.155 0.470525 148.038 0.627748 148.044L10.3989 148.842C11.1675 148.901 11.8954 148.51 12.2622 147.84L16.9615 139.225C17.0372 139.086 17.2177 139.033 17.3574 139.109C17.4972 139.185 17.5496 139.365 17.4739 139.505L12.7747 148.12C12.3263 148.93 11.4703 149.431 10.5561 149.431Z" fill="#263238"/>
<path d="M6.13033 155.155C6.07792 155.155 6.02551 155.137 5.9731 155.108C5.83917 155.021 5.79841 154.84 5.88576 154.706L8.59931 150.411C8.68665 150.277 8.86717 150.236 9.0011 150.317C9.13503 150.405 9.17579 150.585 9.08844 150.72L6.37489 155.015C6.32249 155.108 6.22932 155.155 6.13033 155.155Z" fill="#263238"/>
<path d="M19.6283 147.869L14.5448 147.782C14.3818 147.782 14.2536 147.648 14.2595 147.485C14.2653 147.322 14.3992 147.199 14.5564 147.199L19.6342 147.287C19.7972 147.287 19.9253 147.421 19.9195 147.584C19.9195 147.741 19.7914 147.869 19.6283 147.869Z" fill="#263238"/>
<path d="M28.1533 34.845V199.235C28.1533 200.162 28.9045 200.908 29.8187 200.908H129.684C130.604 200.908 131.356 200.162 131.356 199.235V34.845C131.356 32.7468 129.644 31.0332 127.547 31.0332H103.76C102.817 31.0332 101.978 31.6568 101.71 32.5661C101.576 33.0207 101.303 33.4054 100.942 33.6735C100.581 33.9416 100.132 34.099 99.6606 34.099H59.8483C58.8991 34.099 58.0664 33.4753 57.7986 32.5661C57.6646 32.1115 57.3909 31.7268 57.0241 31.4587C56.6631 31.1906 56.2147 31.0332 55.743 31.0332H31.9616C29.8653 31.0332 28.1533 32.7468 28.1533 34.845Z" fill="#263238"/>
<path d="M129.684 201.2H29.8186C28.7413 201.2 27.8621 200.32 27.8621 199.236V34.8454C27.8621 32.584 29.7022 30.7422 31.9615 30.7422H55.7429C56.2612 30.7422 56.7794 30.9112 57.1987 31.2259C57.6238 31.5349 57.9266 31.972 58.078 32.4849C58.3109 33.2775 59.0213 33.8079 59.8482 33.8079H99.6605C100.056 33.8079 100.447 33.6797 100.767 33.4407C101.087 33.2018 101.314 32.8754 101.431 32.4849C101.734 31.4591 102.688 30.7422 103.76 30.7422H127.547C129.807 30.7422 131.647 32.584 131.647 34.8454V199.236C131.647 200.32 130.767 201.2 129.684 201.2ZM31.9615 31.325C30.0224 31.325 28.4444 32.9045 28.4444 34.8454V199.236C28.4444 199.999 29.0616 200.617 29.8186 200.617H129.684C130.447 200.617 131.064 199.999 131.064 199.236V34.8454C131.064 32.9045 129.486 31.325 127.547 31.325H103.76C102.945 31.325 102.217 31.8671 101.99 32.6481C101.838 33.161 101.536 33.5923 101.116 33.907C100.697 34.2159 100.179 34.3908 99.6605 34.3908H59.8482C58.7767 34.3908 57.8217 33.6739 57.5189 32.6481C57.4025 32.2576 57.1754 31.9312 56.8493 31.6922C56.529 31.4533 56.1331 31.325 55.7429 31.325H31.9615Z" fill="#263238"/>
<path d="M28.1569 64.9082L131.359 64.9082V44.3339L28.1569 44.3339V64.9082Z" fill="#F0F0F0"/>
<path d="M131.355 65.2001H28.1532C27.9902 65.2001 27.8621 65.0719 27.8621 64.9087V44.3285C27.8621 44.1653 27.9902 44.0371 28.1532 44.0371H131.355C131.519 44.0371 131.647 44.1653 131.647 44.3285V64.9028C131.647 65.066 131.519 65.2001 131.355 65.2001ZM28.4444 64.6172H131.064V44.62H28.4444V64.6172Z" fill="#263238"/>
<path d="M28.1569 179.695H131.359V64.9047L28.1569 64.9047L28.1569 179.695Z" fill="white"/>
<path d="M131.355 179.991H28.1532C27.9902 179.991 27.8621 179.862 27.8621 179.699V64.9086C27.8621 64.7454 27.9902 64.6172 28.1532 64.6172H131.355C131.519 64.6172 131.647 64.7454 131.647 64.9086V179.699C131.647 179.857 131.519 179.991 131.355 179.991ZM28.4444 179.408H131.064V65.2H28.4444V179.408Z" fill="#263238"/>
<path d="M79.5071 192.416H82.733C83.7928 192.416 84.6547 191.553 84.6547 190.492V187.263C84.6547 186.202 83.7928 185.34 82.733 185.34H79.5071C78.4473 185.34 77.5854 186.202 77.5854 187.263V190.492C77.5854 191.553 78.4473 192.416 79.5071 192.416Z" fill="white"/>
<path d="M82.7329 192.707H79.507C78.2899 192.707 77.2942 191.717 77.2942 190.493V187.264C77.2942 186.045 78.2841 185.049 79.507 185.049H82.7329C83.95 185.049 84.9457 186.04 84.9457 187.264V190.493C84.9399 191.711 83.95 192.707 82.7329 192.707ZM79.507 185.632C78.6102 185.632 77.8765 186.36 77.8765 187.264V190.493C77.8765 191.39 78.6044 192.125 79.507 192.125H82.7329C83.6297 192.125 84.3634 191.396 84.3634 190.493V187.264C84.3634 186.366 83.6355 185.632 82.7329 185.632H79.507Z" fill="#263238"/>
<path d="M39.1238 51.993H34.0578C33.8947 51.993 33.7666 51.8648 33.7666 51.7016C33.7666 51.5384 33.8947 51.4102 34.0578 51.4102H39.1238C39.2869 51.4102 39.415 51.5384 39.415 51.7016C39.415 51.8648 39.281 51.993 39.1238 51.993Z" fill="#263238"/>
<path d="M39.1238 54.7782H34.0578C33.8947 54.7782 33.7666 54.6499 33.7666 54.4867C33.7666 54.3235 33.8947 54.1953 34.0578 54.1953H39.1238C39.2869 54.1953 39.415 54.3235 39.415 54.4867C39.415 54.6499 39.281 54.7782 39.1238 54.7782Z" fill="#263238"/>
<path d="M39.1238 57.5653H34.0578C33.8947 57.5653 33.7666 57.437 33.7666 57.2738C33.7666 57.1106 33.8947 56.9824 34.0578 56.9824H39.1238C39.2869 56.9824 39.415 57.1106 39.415 57.2738C39.415 57.437 39.281 57.5653 39.1238 57.5653Z" fill="#263238"/>
<path d="M70.5279 76.5815H53.4779C52.8432 76.5815 52.325 76.0628 52.325 75.4275C52.325 74.7922 52.8432 74.2734 53.4779 74.2734H70.522C71.1568 74.2734 71.675 74.7922 71.675 75.4275C71.6808 76.0628 71.1626 76.5815 70.5279 76.5815Z" fill="#263238"/>
<path d="M112.145 79.4446H52.942C52.6043 79.4446 52.3306 79.1707 52.3306 78.8327C52.3306 78.4946 52.6043 78.2148 52.942 78.2148H112.145C112.483 78.2148 112.757 78.4888 112.757 78.8327C112.762 79.1707 112.483 79.4446 112.145 79.4446Z" fill="#263238"/>
<path d="M46.6343 81.7075C49.2089 79.3358 49.3751 75.3241 47.0056 72.7472C44.636 70.1703 40.6281 70.0039 38.0535 72.3756C35.4789 74.7473 35.3127 78.7589 37.6822 81.3359C40.0518 83.9128 44.0597 84.0792 46.6343 81.7075Z" fill="white"/>
<path d="M42.3442 83.6815C38.6931 83.6815 35.7175 80.709 35.7175 77.0488C35.7175 73.3943 38.6873 70.416 42.3442 70.416C46.0011 70.416 48.9708 73.3885 48.9708 77.0488C48.965 80.709 45.9952 83.6815 42.3442 83.6815ZM42.3442 70.9989C39.0134 70.9989 36.2998 73.7149 36.2998 77.0488C36.2998 80.3826 39.0134 83.0986 42.3442 83.0986C45.675 83.0986 48.3885 80.3826 48.3885 77.0488C48.3827 73.7149 45.675 70.9989 42.3442 70.9989Z" fill="#263238"/>
<path d="M42.8566 83.3494C44.6384 83.0871 46.758 81.6008 46.758 81.6008C46.758 81.6008 45.3255 81.0122 44.9412 81.0122C44.5569 81.0122 43.8348 80.7324 43.864 79.7183C43.864 79.7183 45.1043 78.2495 45.0286 75.9298C44.9936 74.9157 45.0111 72.9398 42.8624 72.6717V72.6659C42.6993 72.6484 42.5305 72.6426 42.35 72.6426C42.1694 72.6426 42.0006 72.6542 41.8375 72.6659V72.6717C39.6888 72.9398 39.7063 74.9215 39.6713 75.9298C39.5956 78.2495 40.836 79.7183 40.836 79.7183C40.8651 80.7324 40.143 81.0122 39.7587 81.0122C39.3744 81.0122 37.9419 81.6008 37.9419 81.6008C37.9419 81.6008 40.0557 83.0871 41.8433 83.3494C42.018 83.3727 42.1869 83.396 42.3558 83.396C42.5072 83.3902 42.6819 83.3727 42.8566 83.3494Z" fill="#263238"/>
<path d="M47.8296 84.4558C49.2125 84.4558 50.3335 83.3337 50.3335 81.9496C50.3335 80.5654 49.2125 79.4434 47.8296 79.4434C46.4467 79.4434 45.3257 80.5654 45.3257 81.9496C45.3257 83.3337 46.4467 84.4558 47.8296 84.4558Z" fill="#9ADDC1"/>
<path d="M47.8295 84.7418C46.2864 84.7418 45.0344 83.4887 45.0344 81.9441C45.0344 80.3996 46.2864 79.1465 47.8295 79.1465C49.3726 79.1465 50.6246 80.3996 50.6246 81.9441C50.6246 83.4887 49.3726 84.7418 47.8295 84.7418ZM47.8295 79.7352C46.6125 79.7352 45.6167 80.726 45.6167 81.95C45.6167 83.1739 46.6066 84.1648 47.8295 84.1648C49.0523 84.1648 50.0423 83.1739 50.0423 81.95C50.0423 80.726 49.0465 79.7352 47.8295 79.7352Z" fill="#263238"/>
<path d="M47.7013 81.8046L47.5266 80.6914H48.1322L47.9575 81.8046L48.9591 81.2976L49.1455 81.8687L48.0449 82.0553L48.831 82.8421L48.3477 83.1976L47.8294 82.201L47.3112 83.1976L46.8279 82.8421L47.614 82.0553L46.5134 81.8687L46.6998 81.2976L47.7013 81.8046Z" fill="#263238"/>
<path d="M45.3254 73.4461C44.0385 71.0273 42.3382 72.1405 42.3382 72.1405C42.3382 72.1405 40.6436 71.0273 39.3509 73.4461C38.064 75.8649 39.3684 78.3711 37.604 78.8257C37.604 78.8257 39.3567 80.1662 42.3382 80.1662C45.3196 80.1662 47.0723 78.8257 47.0723 78.8257C45.3137 78.3711 46.6181 75.8649 45.3254 73.4461Z" fill="#263238"/>
<path d="M43.4764 42.1016H44.6294V39.7469H43.4764V42.1016Z" fill="white"/>
<path d="M41.36 42.0996H42.5129V38.7891H41.36V42.0996Z" fill="white"/>
<path d="M39.2379 42.0957H40.3909V37.8351H39.2379V42.0957Z" fill="white"/>
<path d="M37.1214 42.0996H38.2744V36.889H37.1214V42.0996Z" fill="white"/>
<path d="M117.508 37.3633H123.716C124.1 37.3633 124.408 37.6722 124.408 38.0569V40.9303C124.408 41.3149 124.1 41.6239 123.716 41.6239H117.508C117.124 41.6239 116.815 41.3149 116.815 40.9303V38.0569C116.815 37.6722 117.124 37.3633 117.508 37.3633Z" fill="white"/>
<path d="M115.33 38.2559H115.924V40.7329H115.33C115.016 40.7329 114.76 40.4765 114.76 40.1618V38.8212C114.76 38.5123 115.016 38.2559 115.33 38.2559Z" fill="white"/>
<path d="M122.504 56.3696C121.777 56.3696 121.043 56.0899 120.49 55.5362C119.377 54.4229 119.377 52.6161 120.49 51.5029C121.602 50.3897 123.407 50.3897 124.519 51.5029C125.631 52.6161 125.631 54.4229 124.519 55.5362C123.966 56.0899 123.232 56.3696 122.504 56.3696ZM122.504 51.2523C121.922 51.2523 121.346 51.4737 120.903 51.9167C120.018 52.8026 120.018 54.2422 120.903 55.1282C121.788 56.0141 123.227 56.0141 124.112 55.1282C124.997 54.2422 124.997 52.8026 124.112 51.9167C123.663 51.4679 123.087 51.2523 122.504 51.2523Z" fill="#263238"/>
<path d="M126.994 58.3049C126.918 58.3049 126.843 58.2757 126.79 58.2174L124.106 55.5305C123.989 55.414 123.989 55.2333 124.106 55.1167C124.222 55.0002 124.403 55.0002 124.519 55.1167L127.204 57.8036C127.32 57.9202 127.32 58.1009 127.204 58.2174C127.146 58.2757 127.07 58.3049 126.994 58.3049Z" fill="#263238"/>
<path d="M86.5934 59.1091H74.6386C74.0272 59.1091 73.5322 58.6137 73.5322 58.0017V50.9668C73.5322 50.3548 74.0272 49.8594 74.6386 49.8594H86.5934C87.2048 49.8594 87.6998 50.3548 87.6998 50.9668V58.0017C87.6998 58.6137 87.2048 59.1091 86.5934 59.1091Z" fill="#263238"/>
<path d="M86.5933 59.4009H74.6385C73.8699 59.4009 73.241 58.7714 73.241 58.0021V50.9672C73.241 50.1978 73.8699 49.5684 74.6385 49.5684H86.5933C87.3619 49.5684 87.9908 50.1978 87.9908 50.9672V58.0021C87.9908 58.7714 87.3619 59.4009 86.5933 59.4009ZM74.6385 50.1512C74.1901 50.1512 73.8233 50.5184 73.8233 50.9672V58.0021C73.8233 58.4509 74.1901 58.8181 74.6385 58.8181H86.5933C87.0416 58.8181 87.4085 58.4509 87.4085 58.0021V50.9672C87.4085 50.5184 87.0416 50.1512 86.5933 50.1512H74.6385Z" fill="#9ADDC1"/>
<path d="M73.5325 50.9668L79.7049 54.9767C80.2581 55.3381 80.9744 55.3381 81.5275 54.9767L87.7 50.9668" fill="#263238"/>
<path d="M80.6132 55.5421C80.2406 55.5421 79.8679 55.4372 79.5418 55.2274L73.3693 51.2174C73.2354 51.13 73.1947 50.9493 73.282 50.8153C73.3693 50.6812 73.5499 50.6404 73.6838 50.7278L79.8562 54.7378C80.3163 55.035 80.9044 55.035 81.3644 54.7378L87.5369 50.7278C87.6708 50.6404 87.8513 50.6812 87.9387 50.8153C88.026 50.9493 87.9852 51.13 87.8513 51.2174L81.6789 55.2274C81.3586 55.4372 80.9859 55.5421 80.6132 55.5421Z" fill="#9ADDC1"/>
<path d="M74.8601 57.2557C75.9665 56.6321 77.0729 56.0084 78.1793 55.3906L74.8601 57.2557Z" fill="#263238"/>
<path d="M74.86 57.5474C74.7611 57.5474 74.6621 57.4949 74.6038 57.4017C74.5223 57.2618 74.5747 57.0811 74.7145 57.0053L78.0394 55.1402C78.1792 55.0586 78.3597 55.1111 78.4354 55.251C78.5169 55.3909 78.4645 55.5715 78.3248 55.6473L75.0056 57.5124C74.959 57.5357 74.9066 57.5474 74.86 57.5474Z" fill="#9ADDC1"/>
<path d="M86.3665 57.2557C85.2601 56.6321 84.1537 56.0084 83.0474 55.3906L86.3665 57.2557Z" fill="#263238"/>
<path d="M86.3665 57.5474C86.3199 57.5474 86.2675 57.5357 86.2267 57.5124L82.9076 55.6473C82.7678 55.5657 82.7154 55.3909 82.7969 55.251C82.8726 55.1111 83.0532 55.0586 83.1929 55.1402L86.5179 57.0053C86.6577 57.0869 86.7101 57.2618 86.6285 57.4017C86.5703 57.4949 86.4713 57.5474 86.3665 57.5474Z" fill="#9ADDC1"/>
<path d="M64.7046 96.9077H53.4777C52.843 96.9077 52.3247 96.3889 52.3247 95.7536C52.3247 95.1183 52.843 94.5996 53.4777 94.5996H64.6987C65.3334 94.5996 65.8517 95.1183 65.8517 95.7536C65.8575 96.3889 65.3393 96.9077 64.7046 96.9077Z" fill="#263238"/>
<path d="M88.8528 99.7689H52.942C52.6043 99.7689 52.3306 99.495 52.3306 99.1569C52.3306 98.8189 52.6043 98.5449 52.942 98.5449H88.8528C89.1906 98.5449 89.4643 98.8189 89.4643 99.1569C89.4701 99.495 89.1906 99.7689 88.8528 99.7689Z" fill="#263238"/>
<path d="M46.7544 101.914C49.2625 99.4721 49.3181 95.4577 46.8786 92.9473C44.4391 90.4369 40.4283 90.3812 37.9202 92.823C35.4121 95.2647 35.3565 99.2792 37.796 101.79C40.2355 104.3 44.2463 104.356 46.7544 101.914Z" fill="white"/>
<path d="M42.3439 104.006C38.6929 104.006 35.7173 101.033 35.7173 97.373C35.7173 93.7127 38.687 90.7402 42.3439 90.7402C46.0008 90.7402 48.9706 93.7127 48.9706 97.373C48.9706 101.033 45.995 104.006 42.3439 104.006ZM42.3439 91.3231C39.0131 91.3231 36.2996 94.0391 36.2996 97.373C36.2996 100.707 39.0131 103.423 42.3439 103.423C45.6747 103.423 48.3883 100.707 48.3883 97.373C48.3883 94.0391 45.6747 91.3231 42.3439 91.3231Z" fill="#263238"/>
<path d="M42.8563 103.668C44.6381 103.405 46.7577 101.919 46.7577 101.919C46.7577 101.919 45.3194 101.331 44.9351 101.331C44.5508 101.331 43.8287 101.051 43.8579 100.037C43.8579 100.037 45.0982 98.5679 45.0225 96.2482C44.9875 95.234 45.005 93.2582 42.8563 92.9901V92.9842C42.6932 92.9668 42.5244 92.9609 42.3439 92.9609C42.1633 92.9609 41.9945 92.9726 41.8314 92.9842V92.9901C39.6827 93.2582 39.7002 95.2398 39.6652 96.2482C39.5895 98.5679 40.8299 100.037 40.8299 100.037C40.859 101.051 40.1369 101.331 39.7526 101.331C39.3683 101.331 37.9358 101.919 37.9358 101.919C37.9358 101.919 40.0496 103.405 41.8372 103.668C42.0119 103.691 42.1808 103.714 42.3497 103.714C42.5069 103.714 42.6816 103.697 42.8563 103.668Z" fill="#263238"/>
<path d="M47.8294 104.78C49.2122 104.78 50.3333 103.658 50.3333 102.274C50.3333 100.89 49.2122 99.7676 47.8294 99.7676C46.4465 99.7676 45.3254 100.89 45.3254 102.274C45.3254 103.658 46.4465 104.78 47.8294 104.78Z" fill="#9ADDC1"/>
<path d="M47.8292 105.066C46.2861 105.066 45.0342 103.813 45.0342 102.268C45.0342 100.724 46.2861 99.4707 47.8292 99.4707C49.3724 99.4707 50.6243 100.724 50.6243 102.268C50.6243 103.813 49.3724 105.066 47.8292 105.066ZM47.8292 100.059C46.6122 100.059 45.6165 101.05 45.6165 102.274C45.6165 103.498 46.6064 104.489 47.8292 104.489C49.0521 104.489 50.042 103.498 50.042 102.274C50.042 101.05 49.0463 100.059 47.8292 100.059Z" fill="#263238"/>
<path d="M47.7011 102.129L47.5264 101.016H48.132L47.9573 102.129L48.9589 101.622L49.1452 102.193L48.0446 102.379L48.8308 103.166L48.3474 103.522L47.8292 102.525L47.3109 103.522L46.8276 103.166L47.6137 102.379L46.5132 102.193L46.6995 101.622L47.7011 102.129Z" fill="#263238"/>
<path d="M76.3507 117.23H53.4777C52.843 117.23 52.3247 116.711 52.3247 116.076C52.3247 115.441 52.843 114.922 53.4777 114.922H76.3449C76.9796 114.922 77.4978 115.441 77.4978 116.076C77.5037 116.711 76.9854 117.23 76.3507 117.23Z" fill="#263238"/>
<path d="M100.499 120.091H52.942C52.6043 120.091 52.3306 119.817 52.3306 119.479C52.3306 119.141 52.6043 118.861 52.942 118.861H100.499C100.837 118.861 101.11 119.135 101.11 119.479C101.116 119.817 100.837 120.091 100.499 120.091Z" fill="#263238"/>
<path d="M43.8485 123.85C47.2467 123.017 49.3261 119.583 48.493 116.182C47.6599 112.781 44.2297 110.699 40.8315 111.533C37.4333 112.367 35.3538 115.8 36.1869 119.202C37.0201 122.603 40.4502 124.684 43.8485 123.85Z" fill="white"/>
<path d="M42.3442 124.328C38.6931 124.328 35.7175 121.355 35.7175 117.695C35.7175 114.035 38.6873 111.062 42.3442 111.062C46.0011 111.062 48.9708 114.035 48.9708 117.695C48.9708 121.355 45.9952 124.328 42.3442 124.328ZM42.3442 111.645C39.0134 111.645 36.2998 114.361 36.2998 117.695C36.2998 121.029 39.0134 123.745 42.3442 123.745C45.675 123.745 48.3885 121.029 48.3885 117.695C48.3827 114.361 45.675 111.645 42.3442 111.645Z" fill="#263238"/>
<path d="M42.8566 123.99C44.6384 123.728 46.758 122.241 46.758 122.241C46.758 122.241 45.3255 121.653 44.9412 121.653C44.5569 121.653 43.8348 121.373 43.864 120.359C43.864 120.359 45.1043 118.89 45.0286 116.57C44.9936 115.556 45.0111 113.58 42.8624 113.312V113.307C42.6993 113.289 42.5305 113.283 42.35 113.283C42.1694 113.283 42.0006 113.295 41.8375 113.307V113.312C39.6888 113.58 39.7063 115.562 39.6713 116.57C39.5956 118.89 40.836 120.359 40.836 120.359C40.8651 121.373 40.143 121.653 39.7587 121.653C39.3744 121.653 37.9419 122.241 37.9419 122.241C37.9419 122.241 40.0557 123.728 41.8433 123.99C42.018 124.013 42.1869 124.037 42.3558 124.037C42.5072 124.037 42.6819 124.019 42.8566 123.99Z" fill="#263238"/>
<path d="M42.3441 112.91C40.0673 112.91 38.4718 114.484 38.1748 120.184C38.1748 120.184 39.8402 120.866 42.3441 120.866C44.848 120.866 46.5134 120.184 46.5134 120.184C46.2165 114.49 44.6209 112.91 42.3441 112.91Z" fill="#263238"/>
<path d="M70.5276 137.548H53.4777C52.843 137.548 52.3247 137.03 52.3247 136.394C52.3247 135.759 52.843 135.24 53.4777 135.24H70.5218C71.1565 135.24 71.6748 135.759 71.6748 136.394C71.6806 137.035 71.1623 137.548 70.5276 137.548Z" fill="#263238"/>
<path d="M112.145 140.415H52.942C52.6043 140.415 52.3306 140.141 52.3306 139.803C52.3306 139.465 52.6043 139.191 52.942 139.191H112.145C112.483 139.191 112.757 139.465 112.757 139.803C112.762 140.136 112.483 140.415 112.145 140.415Z" fill="#263238"/>
<path d="M46.7542 142.558C49.2622 140.117 49.3178 136.102 46.8783 133.592C44.4388 131.081 40.428 131.026 37.9199 133.468C35.4119 135.909 35.3563 139.924 37.7958 142.434C40.2353 144.945 44.2461 145 46.7542 142.558Z" fill="white"/>
<path d="M42.3439 144.652C38.6929 144.652 35.7173 141.674 35.7173 138.019C35.7173 134.365 38.687 131.387 42.3439 131.387C46.0008 131.387 48.9706 134.359 48.9706 138.019C48.9706 141.68 45.995 144.652 42.3439 144.652ZM42.3439 131.97C39.0131 131.97 36.2996 134.686 36.2996 138.019C36.2996 141.353 39.0131 144.069 42.3439 144.069C45.6747 144.069 48.3883 141.353 48.3883 138.019C48.3825 134.686 45.6747 131.97 42.3439 131.97Z" fill="#263238"/>
<path d="M42.8563 144.314C44.6382 144.052 46.7578 142.566 46.7578 142.566C46.7578 142.566 45.3253 141.977 44.941 141.977C44.5567 141.977 43.8346 141.697 43.8637 140.683C43.8637 140.683 45.104 139.214 45.0283 136.895C44.9934 135.881 45.0109 133.905 42.8621 133.637V133.631C42.6991 133.613 42.5302 133.607 42.3497 133.607C42.1692 133.607 42.0003 133.619 41.8373 133.631V133.637C39.6886 133.905 39.706 135.886 39.6711 136.895C39.5954 139.214 40.8357 140.683 40.8357 140.683C40.8648 141.697 40.1428 141.977 39.7584 141.977C39.3741 141.977 37.9417 142.566 37.9417 142.566C37.9417 142.566 40.0554 144.052 41.8431 144.314C42.0178 144.338 42.1867 144.361 42.3555 144.361C42.5069 144.361 42.6816 144.343 42.8563 144.314Z" fill="#263238"/>
<path d="M47.8294 145.421C49.2122 145.421 50.3333 144.299 50.3333 142.914C50.3333 141.53 49.2122 140.408 47.8294 140.408C46.4465 140.408 45.3254 141.53 45.3254 142.914C45.3254 144.299 46.4465 145.421 47.8294 145.421Z" fill="#9ADDC1"/>
<path d="M47.8292 145.712C46.2861 145.712 45.0342 144.459 45.0342 142.915C45.0342 141.376 46.2861 140.117 47.8292 140.117C49.3724 140.117 50.6243 141.37 50.6243 142.915C50.6243 144.459 49.3724 145.712 47.8292 145.712ZM47.8292 140.706C46.6122 140.706 45.6165 141.697 45.6165 142.921C45.6165 144.145 46.6064 145.135 47.8292 145.135C49.0521 145.135 50.042 144.145 50.042 142.921C50.042 141.697 49.0463 140.706 47.8292 140.706Z" fill="#263238"/>
<path d="M47.7011 142.769L47.5264 141.656H48.132L47.9573 142.769L48.9589 142.262L49.1452 142.834L48.0446 143.02L48.8308 143.807L48.3474 144.162L47.8292 143.166L47.3109 144.162L46.8276 143.807L47.6137 143.02L46.5132 142.834L46.6995 142.262L47.7011 142.769Z" fill="#263238"/>
<path d="M58.8815 157.871H53.4835C52.8488 157.871 52.3306 157.352 52.3306 156.717C52.3306 156.081 52.8488 155.562 53.4835 155.562H58.8815C59.5162 155.562 60.0345 156.081 60.0345 156.717C60.0345 157.358 59.5162 157.871 58.8815 157.871Z" fill="#263238"/>
<path d="M106.322 160.732H52.942C52.6043 160.732 52.3306 160.458 52.3306 160.12C52.3306 159.782 52.6043 159.508 52.942 159.508H106.322C106.66 159.508 106.933 159.782 106.933 160.12C106.939 160.458 106.66 160.732 106.322 160.732Z" fill="#263238"/>
<path d="M46.7539 162.881C49.262 160.439 49.3176 156.424 46.8781 153.914C44.4386 151.404 40.4278 151.348 37.9197 153.79C35.4116 156.232 35.356 160.246 37.7955 162.756C40.235 165.267 44.2458 165.322 46.7539 162.881Z" fill="white"/>
<path d="M42.3439 164.976C38.6929 164.976 35.7173 162.004 35.7173 158.344C35.7173 154.683 38.687 151.711 42.3439 151.711C46.0008 151.711 48.9706 154.683 48.9706 158.344C48.9706 162.004 45.995 164.976 42.3439 164.976ZM42.3439 152.294C39.0131 152.294 36.2996 155.01 36.2996 158.344C36.2996 161.678 39.0131 164.394 42.3439 164.394C45.6747 164.394 48.3883 161.678 48.3883 158.344C48.3883 155.01 45.6747 152.294 42.3439 152.294Z" fill="#263238"/>
<path d="M42.8563 164.638C44.6382 164.376 46.7578 162.89 46.7578 162.89C46.7578 162.89 45.3253 162.301 44.941 162.301C44.5567 162.301 43.8346 162.021 43.8637 161.007C43.8637 161.007 45.104 159.539 45.0283 157.219C44.9934 156.205 45.0109 154.229 42.8621 153.961V153.955C42.6991 153.937 42.5302 153.932 42.3497 153.932C42.1692 153.932 42.0003 153.943 41.8373 153.955V153.961C39.6886 154.229 39.706 156.211 39.6711 157.219C39.5954 159.539 40.8357 161.007 40.8357 161.007C40.8648 162.021 40.1428 162.301 39.7584 162.301C39.3741 162.301 37.9417 162.89 37.9417 162.89C37.9417 162.89 40.0554 164.376 41.8431 164.638C42.0178 164.662 42.1867 164.685 42.3555 164.685C42.5069 164.685 42.6816 164.668 42.8563 164.638Z" fill="#263238"/>
<path d="M70.5279 178.197H53.4779C52.8432 178.197 52.325 177.678 52.325 177.043C52.325 176.407 52.8432 175.889 53.4779 175.889H70.522C71.1568 175.889 71.675 176.407 71.675 177.043C71.6808 177.684 71.1626 178.197 70.5279 178.197Z" fill="#263238"/>
<path d="M48.6739 178.662C48.6739 179.017 48.6448 179.361 48.5866 179.699H36.0903C36.032 179.361 36.0029 179.017 36.0029 178.662C36.0029 175.165 38.8388 172.326 42.3384 172.326C45.8381 172.326 48.6739 175.165 48.6739 178.662Z" fill="white"/>
<path d="M48.5865 179.991H36.0902C35.9504 179.991 35.8281 179.892 35.8048 179.746C35.7408 179.385 35.7117 179.035 35.7117 178.656C35.7117 175.002 38.6814 172.029 42.3383 172.029C45.9894 172.029 48.965 175.002 48.965 178.656C48.965 179.029 48.9359 179.385 48.8718 179.746C48.8543 179.892 48.7321 179.991 48.5865 179.991ZM36.3406 179.408H48.3361C48.3652 179.163 48.3827 178.918 48.3827 178.662C48.3827 175.328 45.6691 172.618 42.3383 172.618C39.0075 172.618 36.294 175.328 36.294 178.662C36.294 178.918 36.3114 179.163 36.3406 179.408Z" fill="#263238"/>
<path d="M45.0169 177.537C45.0461 178.382 44.9005 179.111 44.6967 179.7H39.98C39.7762 179.111 39.6306 178.382 39.6597 177.537C39.6947 176.529 39.6772 174.547 41.8259 174.279V174.273C41.9889 174.256 42.1578 174.244 42.3383 174.244C42.5188 174.244 42.6877 174.256 42.8508 174.273V174.279C45.0053 174.547 44.9878 176.529 45.0169 177.537Z" fill="#263238"/>
<path d="M114.335 176.599C118.956 176.599 122.703 172.849 122.703 168.223C122.703 163.597 118.956 159.848 114.335 159.848C109.713 159.848 105.967 163.597 105.967 168.223C105.967 172.849 109.713 176.599 114.335 176.599Z" fill="#F0F0F0"/>
<path d="M114.335 176.89C109.56 176.89 105.676 173.003 105.676 168.223C105.676 163.444 109.56 159.557 114.335 159.557C119.11 159.557 122.994 163.444 122.994 168.223C122.994 173.003 119.11 176.89 114.335 176.89ZM114.335 160.134C109.88 160.134 106.258 163.759 106.258 168.218C106.258 172.676 109.88 176.302 114.335 176.302C118.789 176.302 122.411 172.676 122.411 168.218C122.411 163.759 118.789 160.134 114.335 160.134Z" fill="#263238"/>
<path d="M117.994 165.688L116.87 164.562L111.814 169.623L112.938 170.749L117.994 165.688Z" fill="#263238"/>
<path d="M111.301 170.135L110.684 171.877L112.425 171.26L111.301 170.135Z" fill="#263238"/>
<path d="M175.39 77.6085C175.325 77.6085 175.261 77.5852 175.203 77.5444L167.563 71.2671H146.676C144.428 71.2671 142.6 69.437 142.6 67.1873V49.8943C142.6 47.6446 144.428 45.8145 146.676 45.8145H175.669C177.917 45.8145 179.745 47.6446 179.745 49.8943V67.1814C179.745 69.4312 177.917 71.2613 175.669 71.2613H172.53L175.646 77.1772C175.71 77.2996 175.681 77.4511 175.57 77.5385C175.523 77.591 175.454 77.6085 175.39 77.6085ZM146.676 46.3973C144.749 46.3973 143.182 47.9651 143.182 49.8943V67.1814C143.182 69.1106 144.749 70.6785 146.676 70.6785H167.668C167.738 70.6785 167.802 70.7018 167.854 70.7426L174.464 76.1688L171.797 71.104C171.75 71.0107 171.75 70.9058 171.803 70.8184C171.855 70.7309 171.948 70.6785 172.053 70.6785H175.669C177.596 70.6785 179.163 69.1106 179.163 67.1814V49.8943C179.163 47.9651 177.596 46.3973 175.669 46.3973H146.676Z" fill="#263238"/>
<g opacity="0.5">
<path d="M148.231 53.0934H174.114C174.376 53.0934 174.592 52.8778 174.592 52.6155V52.4057C174.592 52.1434 174.376 51.9277 174.114 51.9277H148.231C147.969 51.9277 147.753 52.1434 147.753 52.4057V52.6155C147.747 52.8778 147.963 53.0934 148.231 53.0934Z" fill="#263238"/>
<path d="M148.231 57.0212H174.114C174.376 57.0212 174.592 56.8055 174.592 56.5432V56.3334C174.592 56.0711 174.376 55.8555 174.114 55.8555H148.231C147.969 55.8555 147.753 56.0711 147.753 56.3334V56.5432C147.747 56.8055 147.963 57.0212 148.231 57.0212Z" fill="#263238"/>
<path d="M148.231 60.9567H174.114C174.376 60.9567 174.592 60.741 174.592 60.4788V60.2689C174.592 60.0067 174.376 59.791 174.114 59.791H148.231C147.969 59.791 147.753 60.0067 147.753 60.2689V60.4788C147.747 60.741 147.963 60.9567 148.231 60.9567Z" fill="#263238"/>
<path d="M160.459 64.8844H174.114C174.376 64.8844 174.592 64.6688 174.592 64.4065V64.1967C174.592 63.9344 174.376 63.7188 174.114 63.7188H160.465C160.203 63.7188 159.988 63.9344 159.988 64.1967V64.4065C159.982 64.6688 160.197 64.8844 160.459 64.8844Z" fill="#263238"/>
</g>
<path d="M182.855 158.652C182.855 158.652 182.849 158.664 182.843 158.687C182.564 159.281 178.534 167.89 173.625 176.16C172.338 178.334 170.993 180.479 169.636 182.455C166.684 186.757 163.691 190.236 161.205 191.32C153.058 194.87 157.687 167.056 157.687 167.056C157.687 167.056 161.897 162.283 165.31 155.516C166.282 153.593 167.412 151.361 168.594 149.122C169.502 147.403 170.434 145.684 171.348 144.093C173.416 140.479 175.343 137.565 176.513 136.994C177.794 136.364 179.565 142.863 180.904 148.907C182.028 153.937 182.855 158.652 182.855 158.652Z" fill="white"/>
<path d="M159.871 191.927C159.312 191.927 158.811 191.752 158.363 191.408C153.967 187.975 157.257 167.867 157.402 167.01C157.414 166.958 157.437 166.906 157.472 166.865C157.513 166.818 161.7 162.039 165.054 155.389C165.98 153.558 167.127 151.285 168.338 148.989C169.386 147.007 170.289 145.364 171.098 143.947C173.608 139.564 175.291 137.268 176.385 136.732C176.583 136.633 176.805 136.633 177.014 136.738C177.428 136.936 178.68 137.542 181.184 148.843C182.296 153.821 183.128 158.553 183.134 158.6C183.146 158.652 183.14 158.711 183.117 158.757C183.111 158.775 183.105 158.792 183.099 158.81C182.354 160.395 178.476 168.549 173.87 176.307C172.484 178.65 171.139 180.771 169.869 182.619C166.469 187.579 163.586 190.592 161.315 191.583C160.809 191.816 160.32 191.927 159.871 191.927ZM157.961 167.185C157.734 168.596 154.729 187.824 158.724 190.942C159.353 191.437 160.127 191.472 161.088 191.053C163.26 190.103 166.055 187.159 169.398 182.287C170.655 180.451 171.995 178.341 173.375 176.009C177.946 168.31 181.795 160.226 182.552 158.618C182.436 157.965 181.649 153.57 180.619 148.971C178.412 139.017 177.189 137.466 176.764 137.262C176.7 137.233 176.665 137.239 176.642 137.256C175.675 137.728 173.98 140.077 171.599 144.239C170.789 145.643 169.893 147.287 168.85 149.263C167.639 151.553 166.492 153.827 165.566 155.651C162.393 161.951 158.474 166.591 157.961 167.185Z" fill="#263238"/>
<path d="M182.855 158.654C182.855 158.654 182.849 158.666 182.843 158.689C182.564 159.283 178.534 167.892 173.625 176.162C175.104 162.926 173.718 154.073 173.718 154.073C170.568 149.305 168.594 149.124 168.594 149.124C169.502 147.405 170.434 145.686 171.348 144.095L175.518 140.195L180.904 148.909C182.028 153.939 182.855 158.654 182.855 158.654Z" fill="#263238"/>
<path d="M220.431 69.6411C227.791 74.9741 234.226 93.8115 231.774 106.051C229.323 118.291 241.959 121.811 241.912 141.109C241.901 146.495 225.247 168.386 205.897 156.706C186.547 145.026 181.172 139.279 183.012 127.552C184.852 115.82 184.934 108.132 181.44 98.2994C177.946 88.4668 207.073 59.9659 220.431 69.6411Z" fill="#263238"/>
<path d="M248.737 152.261L244.626 155.053C243.607 161.388 241.767 168.365 239.065 174.724C233.888 186.888 229.305 194.138 227.704 196.534C227.704 196.534 227.704 196.54 227.698 196.545C227.302 197.128 227.087 197.42 227.087 197.42L231.384 213.547C231.384 213.547 202.711 243.383 171.051 239.075L173.165 222.179L176.013 199.471L176.939 192.087C176.939 192.087 176.548 186.789 175.925 180.267C175.5 175.773 174.965 170.696 174.359 166.372C174.336 166.197 174.324 166.005 174.33 165.783C174.376 163.055 176.513 157.32 176.513 157.32C174.708 154.458 172.996 151.824 171.628 149.743C169.788 146.951 168.571 145.156 168.571 145.156C168.571 145.156 174.994 137.276 175.337 136.379C177.364 131.069 184.444 132.06 184.444 132.06C184.444 132.06 185.056 131.366 186.354 131.034C189.72 130.189 199.287 136.903 204.511 136.956C209.728 137.008 235.379 130.096 235.379 130.096L237.988 131.034C237.988 131.034 241.522 130.614 244.282 135.732C245.61 138.186 248.737 152.261 248.737 152.261Z" fill="#D9D9D9"/>
<path opacity="0.3" d="M202.7 218.728C202.7 218.728 184.881 224.749 173.165 222.178L176.013 199.471C178.552 201.971 193.272 216.169 202.7 218.728Z" fill="black" fill-opacity="0.7"/>
<path opacity="0.3" d="M176.513 157.32C174.708 154.458 172.996 151.824 171.628 149.743C172.839 146.823 174.638 144.13 177.131 144.288C177.131 144.288 175.39 152.028 176.513 157.32Z" fill="black" fill-opacity="0.7"/>
<path opacity="0.3" d="M234.302 152.26C231.105 153.321 223.861 156.533 223.861 156.533L222.522 154.976L227.675 147.586C227.675 147.586 224.047 149.061 222.522 150.902C220.996 152.744 220.594 156.871 220.536 156.859C220.478 156.841 219.197 152.523 219.197 152.523C219.197 152.523 218.632 154.598 218.346 157.995C218.183 159.948 220.32 163.124 222.178 165.485L218.94 182.731C214.823 180.225 210.707 177.719 206.59 175.218C204.651 174.041 202.717 172.864 200.784 171.686C200.307 171.395 199.748 171.139 199.311 170.789C198.635 170.241 198.193 169.53 197.407 169.058C196.527 168.527 195.526 168.219 194.53 167.98C190.85 167.111 186.972 167.07 183.274 167.875C181.713 168.213 180.112 168.696 178.563 168.329C176.968 167.95 175.687 166.721 174.324 165.788C174.318 166.01 174.33 166.202 174.353 166.377C174.959 170.701 175.494 175.778 175.92 180.272C176.141 180.272 176.362 180.266 176.583 180.266C177.014 180.26 177.451 180.26 177.864 180.371C178.755 180.616 180.526 184.964 181.137 185.651C185.603 190.64 193.074 199.074 198.501 202.991C197.418 200.077 191.752 189.877 191.857 186.648C193.074 187.056 194.023 187.994 195.002 188.828C197.948 191.357 201.465 193.118 204.936 194.854C207.492 196.137 210.054 197.413 212.611 198.695C214.928 199.855 218.009 201.685 220.687 200.968C222.883 200.38 225.649 198.177 227.401 196.784C227.5 196.708 227.599 196.626 227.692 196.55C227.698 196.545 227.698 196.539 227.698 196.539C229.3 194.143 233.882 186.893 239.059 174.729C241.761 168.37 243.601 161.393 244.62 155.058L248.731 152.266C248.737 152.26 237.498 151.2 234.302 152.26Z" fill="black" fill-opacity="0.7"/>
<path d="M171.057 239.372C171.046 239.372 171.034 239.372 171.022 239.372C170.865 239.355 170.749 239.209 170.772 239.046L176.659 192.057C176.647 191.964 175.535 176.891 174.079 166.418C173.765 164.156 175.838 158.351 176.199 157.36C172.047 150.792 168.379 145.383 168.344 145.325C168.268 145.22 168.28 145.074 168.361 144.975C170.929 141.822 174.842 136.903 175.081 136.279C177.003 131.249 183.309 131.657 184.357 131.762C184.602 131.535 185.236 131.028 186.296 130.759C188.084 130.305 191.415 131.82 194.932 133.429C198.402 135.008 201.989 136.646 204.522 136.675C204.54 136.675 204.563 136.675 204.581 136.675C209.833 136.675 235.059 129.891 235.315 129.821C235.373 129.804 235.431 129.809 235.489 129.827L238.04 130.748C238.593 130.713 241.912 130.713 244.556 135.603C245.884 138.062 248.912 151.631 249.04 152.208C249.063 152.325 249.016 152.447 248.917 152.511L244.911 155.227C244.119 160.082 242.518 167.391 239.344 174.84C233.376 188.869 228.129 196.475 227.413 197.483L231.675 213.476C231.716 213.634 231.623 213.791 231.472 213.832C231.314 213.873 231.157 213.779 231.116 213.628L226.819 197.501C226.796 197.413 226.813 197.326 226.866 197.256C226.918 197.18 232.45 189.568 238.809 174.612C241.982 167.152 243.578 159.832 244.352 155.012C244.364 154.93 244.41 154.86 244.474 154.819L248.423 152.144C248.038 150.442 245.249 138.121 244.038 135.883C241.412 131.022 238.162 131.319 238.028 131.336C237.982 131.342 237.935 131.336 237.894 131.319L235.373 130.404C233.457 130.917 209.804 137.252 204.575 137.252C204.552 137.252 204.534 137.252 204.511 137.252C201.855 137.223 198.21 135.562 194.681 133.953C191.257 132.391 188.026 130.917 186.43 131.319C185.248 131.616 184.677 132.246 184.672 132.252C184.608 132.321 184.509 132.362 184.415 132.345C184.345 132.339 177.538 131.447 175.617 136.477C175.285 137.346 170.032 143.827 168.943 145.167C169.619 146.164 173.008 151.2 176.77 157.162C176.816 157.238 176.828 157.331 176.799 157.419C176.775 157.483 174.341 164.051 174.662 166.324C176.123 176.821 177.236 191.911 177.247 192.063L171.36 239.11C171.325 239.261 171.203 239.372 171.057 239.372Z" fill="#263238"/>
<path d="M224.792 161.744C224.746 161.744 224.699 161.732 224.658 161.709C224.513 161.633 221.136 159.844 220.949 157.932C220.763 156.096 227.372 147.488 228.129 146.514C228.228 146.386 228.409 146.363 228.537 146.462C228.665 146.561 228.688 146.742 228.589 146.87C225.794 150.483 221.409 156.661 221.531 157.874C221.665 159.203 224.035 160.718 224.932 161.19C225.072 161.266 225.13 161.441 225.054 161.587C224.996 161.686 224.897 161.744 224.792 161.744Z" fill="#263238"/>
<path d="M228.356 166.814C228.304 166.814 228.251 166.802 228.205 166.773C227.838 166.552 219.272 161.271 219.272 157.902C219.272 154.72 218.667 150.576 218.661 150.535C218.638 150.378 218.748 150.226 218.905 150.203C219.068 150.186 219.214 150.29 219.237 150.448C219.243 150.489 219.855 154.679 219.855 157.902C219.855 160.426 226.103 164.803 228.508 166.272C228.647 166.354 228.688 166.534 228.607 166.674C228.548 166.767 228.449 166.814 228.356 166.814Z" fill="#263238"/>
<path d="M176.513 157.611C176.356 157.611 176.228 157.488 176.222 157.331C176.199 156.818 175.628 144.712 177.626 142.498C177.736 142.375 177.917 142.369 178.039 142.474C178.161 142.579 178.167 142.766 178.062 142.888C176.537 144.578 176.642 153.863 176.805 157.302C176.81 157.465 176.688 157.599 176.531 157.605C176.525 157.611 176.519 157.611 176.513 157.611Z" fill="#263238"/>
<path d="M176.426 155.286C176.345 155.286 176.263 155.251 176.205 155.186C175.122 153.927 174.178 148.023 174.074 147.353C174.05 147.196 174.155 147.044 174.318 147.021C174.475 146.997 174.627 147.102 174.65 147.266C174.924 149.037 175.826 153.852 176.647 154.808C176.752 154.93 176.741 155.111 176.618 155.221C176.56 155.262 176.49 155.286 176.426 155.286Z" fill="#263238"/>
<path d="M182.855 161.743C182.709 161.743 182.581 161.632 182.564 161.48C182.546 161.317 182.668 161.177 182.826 161.166C194.291 160.111 206.834 152.102 206.962 152.021C207.096 151.933 207.277 151.974 207.364 152.108C207.451 152.242 207.411 152.423 207.277 152.51C207.149 152.592 194.489 160.676 182.884 161.743C182.872 161.743 182.866 161.743 182.855 161.743Z" fill="#263238"/>
<path d="M206.199 207.396C206.176 207.396 206.153 207.396 206.13 207.391C196.929 205.088 183.21 188.623 182.634 187.924C182.529 187.801 182.546 187.615 182.674 187.516C182.797 187.411 182.983 187.428 183.082 187.556C183.222 187.725 197.255 204.57 206.269 206.831C206.427 206.872 206.52 207.029 206.479 207.187C206.45 207.309 206.333 207.396 206.199 207.396Z" fill="#263238"/>
<path d="M227.087 197.711C227.029 197.711 226.965 197.694 226.918 197.659C226.569 197.402 223.517 195.123 224.554 193.561C224.641 193.427 224.828 193.392 224.956 193.48C225.09 193.567 225.125 193.748 225.037 193.882C224.42 194.814 226.487 196.621 227.262 197.181C227.39 197.274 227.419 197.455 227.326 197.589C227.267 197.67 227.174 197.711 227.087 197.711Z" fill="#263238"/>
<path d="M189.924 221.898C189.476 221.898 189.045 221.881 188.626 221.84C188.468 221.828 188.346 221.683 188.363 221.525C188.381 221.368 188.521 221.246 188.678 221.263C198.711 222.161 218.603 211.145 218.806 211.034C218.946 210.958 219.121 211.005 219.202 211.145C219.278 211.285 219.232 211.46 219.092 211.541C218.3 211.984 200.406 221.898 189.924 221.898Z" fill="#263238"/>
<path d="M165.164 175.432C162.55 165.816 158.276 162.68 155.446 152.381C154.607 149.333 152.127 140.031 152.127 140.031C152.127 140.031 155.3 130.128 148.959 124.48C148.959 124.48 147.218 124.48 144.23 131.346C142.146 136.131 143.31 140.818 143.31 140.818C143.31 140.818 145.284 152.9 145.71 156.146C146.746 163.974 148.994 177.082 152.127 183.662C155.469 190.697 159.004 192.271 161.647 190.819" fill="white"/>
<path d="M159.79 191.613C159.347 191.613 158.893 191.537 158.439 191.391C156.15 190.651 153.873 188.022 151.864 183.797C148.277 176.249 146.024 160.763 145.424 156.193C144.999 152.988 143.042 140.993 143.025 140.87C142.978 140.696 141.866 136.056 143.968 131.236C146.944 124.393 148.767 124.195 148.965 124.195C149.034 124.195 149.104 124.219 149.157 124.271C155.253 129.703 152.726 139.058 152.435 140.043C152.68 140.958 154.951 149.444 155.737 152.312C157.163 157.505 158.974 160.891 160.727 164.172C162.492 167.471 164.157 170.589 165.455 175.363C165.496 175.52 165.409 175.678 165.252 175.719C165.094 175.759 164.937 175.672 164.896 175.515C163.615 170.811 161.967 167.716 160.221 164.446C158.45 161.136 156.622 157.72 155.184 152.463C154.357 149.45 151.888 140.206 151.864 140.113C151.853 140.06 151.853 140.002 151.87 139.95C151.899 139.85 154.869 130.28 148.895 124.807C148.528 124.953 146.956 125.874 144.516 131.469C142.501 136.103 143.601 140.707 143.613 140.754C143.636 140.9 145.593 152.9 146.024 156.118C146.624 160.664 148.86 176.08 152.412 183.546C154.351 187.626 156.505 190.15 158.642 190.837C159.644 191.164 160.617 191.076 161.531 190.575C161.67 190.499 161.851 190.552 161.927 190.692C162.002 190.832 161.95 191.012 161.81 191.088C161.141 191.438 160.471 191.613 159.79 191.613Z" fill="#263238"/>
<path d="M153.227 137.929L159.988 140.173C160.704 140.359 162.113 139.164 162.049 138.424L160.04 114.766C159.958 113.811 159.283 113.012 158.357 112.773L150.863 111.147C150.147 110.96 148.347 111.817 148.411 112.557L151.532 135.935C151.626 136.891 152.301 137.69 153.227 137.929Z" fill="#D9D9D9"/>
<path d="M160.151 140.487C160.069 140.487 159.993 140.475 159.912 140.458L153.14 138.208C152.097 137.934 151.34 137.031 151.247 135.958L148.126 112.592C148.097 112.266 148.272 111.939 148.633 111.63C149.215 111.135 150.31 110.704 150.938 110.861L158.421 112.487C159.475 112.761 160.244 113.665 160.331 114.743L162.34 138.4C162.398 139.053 161.711 139.688 161.496 139.869C161.315 140.026 160.721 140.487 160.151 140.487ZM150.647 111.415C150.228 111.415 149.489 111.683 149.017 112.079C148.813 112.248 148.702 112.417 148.708 112.534L151.829 135.9C151.899 136.745 152.493 137.444 153.297 137.648C153.303 137.648 153.308 137.654 153.314 137.654L160.075 139.898C160.255 139.945 160.675 139.799 161.117 139.426C161.56 139.053 161.775 138.657 161.758 138.453L159.749 114.795C159.679 113.962 159.091 113.268 158.281 113.058L150.799 111.432C150.764 111.421 150.706 111.415 150.647 111.415Z" fill="#263238"/>
<mask id="mask0_18050_442690" style="mask-type:luminance" maskUnits="userSpaceOnUse" x="148" y="111" width="15" height="30">
<mask id="mask1_18050_442690" style="mask-type:luminance" maskUnits="userSpaceOnUse" x="148" y="111" width="15" height="30">
<path d="M153.227 137.929L159.988 140.173C160.704 140.359 162.113 139.164 162.049 138.424L160.04 114.766C159.958 113.811 159.283 113.012 158.357 112.773L150.863 111.147C150.147 110.96 148.347 111.817 148.411 112.557L151.532 135.935C151.626 136.891 152.301 137.69 153.227 137.929Z" fill="white"/>
</mask>
<g mask="url(#mask1_18050_442690)">
<path d="M160.151 140.487C160.069 140.487 159.993 140.475 159.912 140.458L153.14 138.208C152.097 137.934 151.34 137.031 151.247 135.958L148.126 112.592C148.097 112.266 148.272 111.939 148.633 111.63C149.215 111.135 150.31 110.704 150.938 110.861L158.421 112.487C159.475 112.761 160.244 113.665 160.331 114.743L162.34 138.4C162.398 139.053 161.711 139.688 161.496 139.869C161.315 140.026 160.721 140.487 160.151 140.487ZM150.647 111.415C150.228 111.415 149.489 111.683 149.017 112.079C148.813 112.248 148.702 112.417 148.708 112.534L151.829 135.9C151.899 136.745 152.493 137.444 153.297 137.648C153.303 137.648 153.308 137.654 153.314 137.654L160.075 139.898C160.255 139.945 160.675 139.799 161.117 139.426C161.56 139.053 161.775 138.657 161.758 138.453L159.749 114.795C159.679 113.962 159.091 113.268 158.281 113.058L150.799 111.432C150.764 111.421 150.706 111.415 150.647 111.415Z" fill="white"/>
</g>
</mask>
<g mask="url(#mask0_18050_442690)">
<path opacity="0.3" d="M153.227 137.929L159.988 140.173C160.704 140.359 162.113 139.164 162.049 138.424L160.04 114.766C159.958 113.811 159.283 113.012 158.357 112.773L150.863 111.147C150.147 110.96 148.347 111.817 148.411 112.557L151.532 135.935C151.626 136.891 152.301 137.69 153.227 137.929Z" fill="black" fill-opacity="0.7"/>
</g>
<path d="M152.115 138.512L159.609 140.138C160.325 140.325 161.007 139.742 160.942 139.007L158.934 115.35C158.852 114.394 158.177 113.596 157.251 113.357L149.756 111.73C149.04 111.544 148.359 112.127 148.423 112.861L150.432 136.519C150.508 137.475 151.183 138.273 152.115 138.512Z" fill="#D9D9D9"/>
<path d="M159.877 140.47C159.76 140.47 159.644 140.458 159.533 140.423L152.051 138.797C152.045 138.797 152.045 138.797 152.039 138.797C150.991 138.529 150.228 137.626 150.141 136.548L148.132 112.89C148.091 112.441 148.266 112.022 148.609 111.73C148.953 111.439 149.395 111.34 149.826 111.45L157.309 113.077C158.363 113.35 159.132 114.254 159.219 115.332L161.228 138.99C161.269 139.433 161.094 139.858 160.75 140.144C160.5 140.359 160.197 140.47 159.877 140.47ZM152.179 138.232L159.667 139.858C159.924 139.922 160.18 139.864 160.378 139.701C160.576 139.538 160.675 139.293 160.651 139.036L158.642 115.379C158.573 114.551 157.984 113.852 157.175 113.642L149.692 112.016C149.436 111.946 149.18 112.01 148.982 112.173C148.784 112.336 148.685 112.581 148.708 112.838L150.717 136.495C150.787 137.323 151.375 138.022 152.179 138.232Z" fill="#263238"/>
<path opacity="0.3" d="M156.267 119.732L157.472 119.995C157.588 120.024 157.699 119.931 157.687 119.814L157.361 115.996C157.35 115.845 157.239 115.711 157.088 115.676L155.882 115.414C155.766 115.384 155.655 115.478 155.667 115.594L155.993 119.412C156.01 119.563 156.115 119.692 156.267 119.732Z" fill="black" fill-opacity="0.7"/>
<path d="M145.733 131.591C145.442 128.274 148.458 123.297 150.461 123.297C152.464 123.297 158.578 128.006 158.578 128.006C160.943 129.72 159.772 131.352 159.772 131.352C161.164 132.273 161.542 133.514 160.908 134.091C160.197 134.738 158.252 134.091 158.252 134.091C158.252 134.091 160.279 135.572 159.772 136.3C158.578 138.019 154.654 135.752 154.654 135.752C154.654 135.752 156.93 137.256 156.802 137.542C155.941 139.418 152.22 137.233 152.22 137.233L149.605 138.573C149.605 138.573 149.634 140.788 147.223 140.823" fill="white"/>
<path d="M147.218 141.115C147.06 141.115 146.927 140.986 146.927 140.829C146.927 140.666 147.055 140.538 147.212 140.532C149.308 140.503 149.308 138.655 149.308 138.579C149.308 138.469 149.366 138.364 149.465 138.317L152.08 136.977C152.167 136.93 152.272 136.936 152.359 136.982C153.006 137.361 154.898 138.27 155.935 137.944C156.179 137.868 156.354 137.728 156.476 137.519C156.249 137.239 155.306 136.539 154.485 135.997C154.351 135.91 154.316 135.735 154.398 135.601C154.479 135.467 154.654 135.42 154.794 135.502C155.824 136.096 158.678 137.367 159.528 136.137C159.731 135.846 158.922 134.948 158.072 134.33C157.955 134.243 157.921 134.091 157.985 133.963C158.049 133.835 158.2 133.777 158.334 133.818C159.027 134.045 160.279 134.266 160.704 133.876C160.855 133.736 160.919 133.549 160.902 133.31C160.867 132.873 160.512 132.191 159.603 131.591C159.539 131.544 159.493 131.48 159.475 131.399C159.464 131.323 159.481 131.241 159.528 131.177C159.568 131.119 160.488 129.749 158.398 128.234C156.715 126.934 152.016 123.583 150.455 123.583C149.96 123.583 149.326 123.979 148.668 124.696C147.206 126.293 145.814 129.295 146.012 131.562C146.024 131.725 145.908 131.865 145.75 131.877C145.593 131.883 145.447 131.772 145.436 131.614C145.22 129.19 146.694 125.996 148.243 124.306C149.023 123.455 149.792 123 150.461 123C152.54 123 158.503 127.575 158.753 127.768C160.751 129.219 160.401 130.676 160.145 131.253C160.937 131.842 161.438 132.576 161.49 133.264C161.519 133.678 161.385 134.045 161.1 134.307C160.675 134.692 159.953 134.715 159.324 134.634C159.877 135.193 160.389 135.922 160.005 136.469C159.33 137.443 157.961 137.332 156.762 136.977C157.181 137.396 157.117 137.548 157.059 137.664C156.867 138.078 156.546 138.364 156.11 138.498C154.799 138.906 152.761 137.868 152.202 137.559L149.873 138.754C149.821 139.343 149.46 141.086 147.218 141.115Z" fill="#263238"/>
<path d="M159.772 131.353C159.772 131.353 154.054 127.652 153.332 127.553C152.61 127.454 149.96 126.877 149.96 126.877" fill="white"/>
<path d="M159.772 131.644C159.72 131.644 159.662 131.627 159.615 131.598C157.268 130.082 153.751 127.908 153.291 127.844C152.569 127.745 150.007 127.186 149.896 127.162C149.739 127.127 149.64 126.976 149.675 126.818C149.71 126.661 149.861 126.562 150.019 126.597C150.042 126.603 152.668 127.174 153.367 127.267C154.112 127.372 158.963 130.484 159.924 131.108C160.058 131.195 160.098 131.376 160.011 131.51C159.959 131.598 159.865 131.644 159.772 131.644Z" fill="#263238"/>
<path d="M158.247 134.091C158.247 134.091 153.6 131.69 152.75 131.69C151.859 131.69 148.953 131.037 148.953 131.037" fill="white"/>
<path d="M158.247 134.382C158.2 134.382 158.153 134.371 158.113 134.347C156.342 133.432 153.32 131.981 152.75 131.981C151.835 131.981 149.011 131.346 148.889 131.316C148.732 131.282 148.633 131.124 148.668 130.967C148.703 130.809 148.86 130.71 149.017 130.745C149.046 130.751 151.899 131.392 152.75 131.392C153.623 131.392 157.594 133.421 158.381 133.823C158.526 133.898 158.579 134.073 158.503 134.213C158.456 134.324 158.351 134.382 158.247 134.382Z" fill="#263238"/>
<path d="M154.648 135.752C154.648 135.752 153.413 134.895 152.93 134.738C152.447 134.581 149.599 134.738 149.599 134.738" fill="white"/>
<path d="M154.648 136.043C154.59 136.043 154.532 136.026 154.479 135.991C154.147 135.758 153.198 135.134 152.837 135.018C152.54 134.924 150.776 134.971 149.611 135.029C149.436 135.047 149.314 134.913 149.302 134.755C149.291 134.598 149.419 134.458 149.576 134.446C150.059 134.417 152.499 134.295 153.012 134.458C153.524 134.621 154.677 135.42 154.805 135.507C154.939 135.6 154.968 135.781 154.881 135.915C154.834 135.997 154.741 136.043 154.648 136.043Z" fill="#263238"/>
<path d="M212.878 172.98C212.878 172.98 216.489 170.952 219.715 163.357C222.941 155.763 223.861 156.532 223.861 156.532C223.861 156.532 230.924 153.064 234.301 152.26C237.679 151.455 243.822 152.26 243.822 152.26C243.822 152.26 238.599 167.472 233.224 177.374C227.85 187.277 223.564 193.123 220.71 193.723C217.863 194.323 212.878 172.98 212.878 172.98Z" fill="white"/>
<path d="M220.623 194.026C217.648 194.026 213.426 176.599 212.599 173.05C212.57 172.922 212.628 172.794 212.739 172.729C212.774 172.712 216.308 170.637 219.447 163.247C220.74 160.198 222.516 156.509 223.64 156.241C223.715 156.223 223.779 156.223 223.838 156.229C224.74 155.792 231.046 152.744 234.243 151.986C237.638 151.182 243.618 151.945 243.869 151.98C243.956 151.992 244.032 152.044 244.079 152.114C244.125 152.19 244.137 152.278 244.108 152.365C244.055 152.516 238.814 167.717 233.492 177.526C227.791 188.023 223.634 193.42 220.78 194.021C220.722 194.021 220.67 194.026 220.623 194.026ZM213.21 173.114C215.231 181.711 218.783 193.444 220.571 193.444C220.6 193.444 220.623 193.444 220.652 193.438C223.29 192.884 227.436 187.435 232.974 177.235C237.83 168.288 242.623 154.813 243.432 152.505C242.081 152.353 237.196 151.87 234.371 152.54C231.064 153.327 224.059 156.754 223.989 156.789C223.919 156.824 223.832 156.824 223.762 156.8C223.61 156.847 222.574 157.372 219.983 163.462C217.135 170.177 214.008 172.584 213.21 173.114Z" fill="#263238"/>
<path d="M233.842 131.068C233.842 131.068 208.139 144.77 200.709 144.695C193.278 144.619 188.649 131.895 188.649 131.895C188.649 131.895 202.391 131.586 200.796 125.012C200.773 124.901 200.743 124.779 200.709 124.662C200.051 122.366 197.529 118.344 196.592 116.899C196.37 116.555 196.236 116.357 196.236 116.357L216.576 101.156C215.394 116.526 217.659 123.263 219.04 125.793C221.41 130.123 233.842 131.068 233.842 131.068Z" fill="white"/>
<path d="M200.772 144.986C200.749 144.986 200.732 144.986 200.708 144.986C193.162 144.911 188.573 132.519 188.381 131.995C188.346 131.907 188.363 131.808 188.416 131.732C188.468 131.657 188.556 131.61 188.649 131.604C188.736 131.604 197.389 131.371 199.946 128.043C200.604 127.186 200.79 126.219 200.516 125.082C200.493 124.972 200.464 124.855 200.435 124.75C199.771 122.43 197.139 118.28 196.353 117.062C196.131 116.724 196.003 116.526 196.003 116.526C195.916 116.398 195.945 116.223 196.073 116.13L216.413 100.929C216.506 100.859 216.629 100.854 216.728 100.906C216.827 100.958 216.885 101.069 216.879 101.186C215.662 117.039 218.172 123.584 219.307 125.659C221.572 129.803 233.754 130.777 233.877 130.782C234.005 130.794 234.115 130.887 234.139 131.016C234.162 131.144 234.104 131.272 233.993 131.33C232.933 131.884 208.267 144.986 200.772 144.986ZM189.074 132.17C189.912 134.256 194.28 144.339 200.714 144.403C200.732 144.403 200.755 144.403 200.772 144.403C207.347 144.403 228.316 133.633 232.84 131.266C229.818 130.94 220.833 129.675 218.783 125.933C217.362 123.334 215.161 116.753 216.239 101.774L196.632 116.427C196.69 116.509 196.755 116.619 196.836 116.742C197.634 117.977 200.301 122.186 200.988 124.581C201.023 124.703 201.058 124.832 201.081 124.954C201.396 126.242 201.168 127.402 200.406 128.399C197.989 131.546 190.885 132.082 189.074 132.17Z" fill="#263238"/>
<path d="M210.806 109.771C210.806 109.771 206.566 121.79 200.796 125.013C200.773 124.902 200.743 124.78 200.708 124.663C200.05 122.367 197.529 118.345 196.592 116.9L210.806 109.771Z" fill="#263238"/>
<path d="M201.995 141.36C201.949 141.36 201.902 141.348 201.861 141.325C201.716 141.249 201.663 141.074 201.739 140.935C201.803 140.818 203.271 138.02 205.542 137.671C206.182 137.572 207.125 137.502 208.436 137.397C211.568 137.158 216.809 136.75 224.548 135.468C224.711 135.438 224.857 135.549 224.886 135.707C224.909 135.864 224.804 136.015 224.647 136.045C216.885 137.333 211.627 137.741 208.488 137.98C207.189 138.079 206.252 138.149 205.641 138.248C203.667 138.551 202.281 141.179 202.263 141.209C202.205 141.302 202.1 141.36 201.995 141.36Z" fill="#263238"/>
<path d="M198.699 141.362C198.589 141.362 198.478 141.298 198.432 141.187C198.391 141.099 197.494 138.989 197.255 138.034C197.151 137.707 195.421 137.084 194.152 136.629C192.434 136.011 190.483 135.312 189.487 134.496C189.365 134.397 189.348 134.21 189.447 134.088C189.546 133.965 189.732 133.942 189.854 134.047C190.768 134.799 192.667 135.481 194.344 136.081C196.522 136.862 197.663 137.299 197.814 137.894C198.047 138.809 198.956 140.942 198.967 140.965C199.031 141.111 198.962 141.286 198.816 141.35C198.775 141.35 198.734 141.362 198.699 141.362Z" fill="#263238"/>
<path d="M183.14 75.8555C179.378 79.9645 178.249 93.3757 180.13 99.14C180.13 99.14 189.569 100.492 191.758 98.7961C193.948 97.0942 183.14 75.8555 183.14 75.8555Z" fill="#263238"/>
<path d="M218.638 102.945C219.546 98.9294 224.362 79.4625 213.024 70.8423C201.687 62.2279 187.857 73.7157 185.918 76.4259C178.103 87.36 181.562 96.056 183.03 101.29C184.491 106.53 183.763 112.877 191.077 121.602C194.152 125.268 199.684 123.315 205.128 119.521C208.395 117.242 212.995 113.25 213.112 109.397" fill="white"/>
<path d="M195.415 123.852C193.54 123.852 192.009 123.171 190.856 121.795C185.231 115.087 184.299 109.654 183.554 105.289C183.315 103.908 183.094 102.608 182.75 101.372C182.639 100.976 182.517 100.556 182.389 100.119C180.793 94.687 178.383 86.4748 185.685 76.2576C186.803 74.6956 193.232 68.7972 201.11 67.6024C205.611 66.9205 209.682 67.9346 213.205 70.6099C218.312 74.4858 223.459 83.1992 219.004 102.66L218.923 103.01C218.888 103.167 218.731 103.266 218.574 103.232C218.416 103.197 218.317 103.039 218.352 102.882L218.434 102.532C222.819 83.3741 217.817 74.8529 212.844 71.0761C209.449 68.5 205.53 67.5266 201.192 68.1852C193.499 69.3509 187.24 75.0803 186.151 76.6015C179.012 86.5856 181.376 94.6346 182.936 99.9559C183.064 100.399 183.187 100.819 183.303 101.215C183.653 102.474 183.88 103.791 184.118 105.19C184.893 109.707 185.766 114.83 191.292 121.422C194.524 125.275 200.505 122.39 204.959 119.289C207.283 117.674 212.692 113.472 212.815 109.392C212.82 109.229 212.954 109.112 213.112 109.112C213.275 109.118 213.397 109.252 213.397 109.415C213.263 113.758 207.684 118.106 205.291 119.773C201.39 122.483 198.059 123.852 195.415 123.852Z" fill="#263238"/>
<path d="M202.344 95.7829C202.292 95.7829 202.24 95.7712 202.187 95.7363C198.845 93.6439 192.835 94.6813 192.777 94.693C192.614 94.7221 192.469 94.6172 192.439 94.4599C192.41 94.3025 192.515 94.151 192.672 94.1218C192.929 94.0752 198.961 93.0319 202.496 95.2467C202.63 95.3341 202.671 95.5148 202.589 95.6489C202.531 95.7363 202.438 95.7829 202.344 95.7829Z" fill="#263238"/>
<path d="M199.217 100.352C199.375 101.296 199.043 102.135 198.478 102.229C197.913 102.322 197.331 101.634 197.174 100.69C197.016 99.7457 197.348 98.9064 197.913 98.8132C198.478 98.7199 199.06 99.4077 199.217 100.352Z" fill="#263238"/>
<path d="M186.943 100.352C187.1 101.296 186.768 102.135 186.203 102.229C185.638 102.322 185.056 101.634 184.899 100.69C184.741 99.7457 185.073 98.9064 185.638 98.8132C186.203 98.7199 186.785 99.4077 186.943 100.352Z" fill="#263238"/>
<path d="M181.434 95.0993C181.376 95.0993 181.317 95.0819 181.265 95.0469C181.131 94.9536 181.102 94.773 181.195 94.6389C182.4 92.9195 185.865 94.1377 186.017 94.1901C186.168 94.2426 186.244 94.4116 186.191 94.5631C186.139 94.7147 185.97 94.7963 185.819 94.738C184.934 94.4233 182.465 93.8462 181.673 94.9711C181.62 95.0585 181.527 95.0993 181.434 95.0993Z" fill="#263238"/>
<path d="M189.79 109.688C189.778 109.688 189.773 109.688 189.761 109.688C187.432 109.461 185.906 108.558 185.65 107.823C185.557 107.555 185.72 107.013 186.43 105.02C187.042 103.289 187.967 100.672 187.787 99.9608C187.746 99.8034 187.839 99.6461 187.997 99.6053C188.154 99.5645 188.311 99.6577 188.352 99.8151C188.567 100.631 187.892 102.654 186.983 105.212C186.616 106.25 186.197 107.433 186.215 107.66C186.343 108.022 187.583 108.89 189.831 109.106C189.988 109.123 190.11 109.263 190.093 109.426C190.064 109.578 189.936 109.688 189.79 109.688Z" fill="#263238"/>
<path d="M190.955 113.81C190.792 113.81 190.664 113.682 190.664 113.519C190.664 113.356 190.792 113.228 190.955 113.228C191.001 113.228 195.811 113.204 198.531 111.281C198.664 111.188 198.845 111.217 198.938 111.351C199.031 111.485 199.002 111.666 198.868 111.759C195.992 113.787 191.159 113.81 190.955 113.81Z" fill="#263238"/>
<path d="M184.549 72.9698C184.549 72.9698 179.367 77.7841 182.709 87.2669C183.763 90.2627 185.923 92.5416 185.923 92.5416C189.388 90.5891 191.118 93.6315 193.191 92.6407C195.264 91.6499 198.565 93.7539 200.714 93.3343C202.863 92.9146 205.169 93.3693 206.782 94.8147C208.395 96.2602 208.395 99.4192 210.811 100.952C210.811 100.952 212.22 96.0037 215.19 96.7206C218.16 97.4375 215.534 106.058 215.534 106.058C215.534 106.058 221.06 100.06 222.213 90.1461C223.366 80.232 219.464 71.5826 212.884 69.7409C212.884 69.7409 210.695 65.4745 203.206 66.168C195.718 66.8558 188.934 66.4128 184.549 72.9698Z" fill="#263238"/>
<path d="M212.878 97.9852C212.878 97.9852 215.644 91.2009 219.674 94.016C223.703 96.8312 218.87 105.481 216.908 107.666C214.951 109.858 214.375 107.433 214.142 106.745" fill="white"/>
<path d="M215.505 108.862C215.423 108.862 215.347 108.856 215.272 108.838C214.445 108.658 214.101 107.579 213.921 106.996L213.874 106.845C213.822 106.693 213.903 106.524 214.061 106.478C214.212 106.425 214.375 106.507 214.427 106.664L214.48 106.827C214.62 107.265 214.899 108.168 215.4 108.279C215.732 108.355 216.174 108.075 216.698 107.492C218.073 105.953 221.339 100.515 220.908 96.7968C220.78 95.6777 220.309 94.8268 219.511 94.2731C218.667 93.6786 217.816 93.5037 216.984 93.7485C214.678 94.4304 213.164 98.0732 213.152 98.1082C213.094 98.2597 212.919 98.3296 212.774 98.2655C212.628 98.2072 212.552 98.0324 212.616 97.8867C212.68 97.7235 214.247 93.9467 216.821 93.1831C217.828 92.8859 218.847 93.0899 219.849 93.7893C220.786 94.4421 221.339 95.4329 221.491 96.721C221.945 100.626 218.562 106.28 217.135 107.871C216.53 108.529 216 108.862 215.505 108.862Z" fill="#263238"/>
<g opacity="0.2">
<path d="M186.36 78.1914C186.354 78.1914 186.349 78.1914 186.343 78.1914C186.18 78.1797 186.063 78.0398 186.069 77.8825C186.18 76.1689 186.71 74.4612 187.595 72.94C187.676 72.8001 187.857 72.7535 187.991 72.8351C188.13 72.9167 188.177 73.0974 188.095 73.2314C187.257 74.6769 186.756 76.2972 186.646 77.9175C186.64 78.069 186.517 78.1914 186.36 78.1914Z" fill="white"/>
<path d="M190.955 89.8589C190.873 89.8589 190.797 89.8239 190.739 89.7598C187.962 86.6591 186.261 82.8415 186.069 79.2803C186.057 79.1171 186.186 78.9831 186.343 78.9714C186.523 78.9598 186.64 79.088 186.651 79.2454C186.838 82.6725 188.486 86.3619 191.176 89.3693C191.281 89.4917 191.275 89.6724 191.153 89.7832C191.089 89.8356 191.019 89.8589 190.955 89.8589Z" fill="white"/>
<path d="M201.995 90.6648C201.949 90.6648 201.902 90.6532 201.855 90.6299C199.497 89.3651 197.471 87.4301 195.992 85.0346C195.91 84.9005 195.951 84.7199 196.085 84.6324C196.219 84.545 196.399 84.5916 196.487 84.7257C197.913 87.0337 199.864 88.8988 202.129 90.1111C202.269 90.1869 202.321 90.3618 202.246 90.5075C202.199 90.6124 202.1 90.6648 201.995 90.6648Z" fill="white"/>
<path d="M195.502 83.8448C195.398 83.8448 195.293 83.7865 195.24 83.6816C194.472 82.137 192.16 76.8099 194.577 72.9223C194.664 72.7883 194.844 72.7475 194.978 72.8291C195.112 72.9165 195.159 73.0913 195.072 73.2312C193.278 76.1105 194.25 80.3827 195.764 83.4193C195.834 83.565 195.776 83.7399 195.636 83.8098C195.59 83.8389 195.549 83.8448 195.502 83.8448Z" fill="white"/>
<path d="M218.754 92.6276C218.731 92.6276 218.702 92.6218 218.678 92.616C217.124 92.1847 215.586 91.5727 214.101 90.8092C213.956 90.7334 213.903 90.5585 213.979 90.4187C214.055 90.2729 214.229 90.2205 214.369 90.2963C215.819 91.0481 217.322 91.6368 218.836 92.0623C218.993 92.1031 219.08 92.2663 219.039 92.4236C218.999 92.5402 218.882 92.6276 218.754 92.6276Z" fill="white"/>
<path d="M213.018 90.1742C212.966 90.1742 212.919 90.1625 212.873 90.1334C207.894 87.2192 203.369 82.5273 200.452 77.2584C200.376 77.1185 200.423 76.9378 200.569 76.8621C200.708 76.7863 200.883 76.8329 200.965 76.9786C203.829 82.1543 208.278 86.7704 213.17 89.6321C213.309 89.7137 213.356 89.8944 213.275 90.0285C213.216 90.1217 213.123 90.1742 213.018 90.1742Z" fill="white"/>
</g>
<path d="M171.738 127.676C171.738 127.676 169.986 127.676 169.834 128.952C169.683 130.229 172.28 131.89 172.28 131.89" fill="white"/>
<path d="M172.28 132.187C172.228 132.187 172.175 132.17 172.123 132.141C171.843 131.96 169.374 130.34 169.543 128.923C169.689 127.711 171.04 127.391 171.738 127.391C171.902 127.391 172.03 127.519 172.03 127.682C172.03 127.845 171.902 127.973 171.738 127.973C171.721 127.973 170.242 127.991 170.12 128.993C170.027 129.792 171.488 131.045 172.437 131.651C172.571 131.739 172.612 131.919 172.525 132.053C172.472 132.141 172.379 132.187 172.28 132.187Z" fill="#263238"/>
<path d="M220.81 174.041C216.873 168.032 211.318 164.272 206.351 157.605C199.573 148.501 194.99 140.347 194.99 140.347L189.72 130.456C189.72 130.456 183.268 122.669 180.66 121.719C178.051 120.769 163.767 120.309 163.767 120.309C163.767 120.309 163.179 121.859 165.392 122.622C167.604 123.386 174.359 124.039 174.359 124.039C174.359 124.039 172.368 124.901 171.908 125.601C171.448 126.306 171.908 132.099 172.828 133.277C173.748 134.454 177.282 135.527 177.282 135.527C177.282 135.527 177.748 139.589 181.201 141.629C184.654 143.669 186.343 143.669 186.343 143.669C186.343 143.669 189.598 149.194 190.949 153.14C193.837 161.556 201.203 180.673 206.502 187.574C212.78 195.746 220.92 196.049 223.861 190.856" fill="white"/>
<path d="M217.706 194.616C213.834 194.616 209.606 192.092 206.275 187.761C200.72 180.534 193.133 160.397 190.675 153.245C189.458 149.713 186.669 144.823 186.168 143.961C185.644 143.908 183.955 143.605 181.05 141.892C177.905 140.032 177.154 136.611 177.02 135.76C176.275 135.521 173.451 134.554 172.6 133.464C171.64 132.234 171.086 126.33 171.663 125.45C171.948 125.013 172.688 124.558 173.311 124.232C171.325 124.016 167.022 123.497 165.298 122.909C164.436 122.611 163.854 122.162 163.58 121.568C163.254 120.869 163.487 120.245 163.499 120.216C163.545 120.099 163.639 120.029 163.778 120.029C164.361 120.047 178.138 120.501 180.764 121.457C183.42 122.425 189.685 129.961 189.947 130.281C189.959 130.299 189.971 130.311 189.982 130.328L195.252 140.219C195.293 140.295 199.905 148.46 206.59 157.436C208.93 160.583 211.405 163.072 213.793 165.485C216.454 168.172 218.969 170.707 221.054 173.89C221.141 174.024 221.107 174.204 220.973 174.292C220.839 174.379 220.658 174.344 220.571 174.21C218.521 171.075 216.023 168.563 213.379 165.899C210.974 163.474 208.488 160.968 206.124 157.792C199.416 148.781 194.786 140.586 194.74 140.505L189.481 130.637C189.097 130.177 183 122.897 180.566 122.011C178.214 121.154 165.881 120.694 164 120.624C163.976 120.793 163.982 121.055 164.116 121.335C164.326 121.772 164.786 122.116 165.49 122.361C167.645 123.107 174.324 123.754 174.388 123.765C174.522 123.777 174.627 123.882 174.65 124.01C174.673 124.138 174.598 124.272 174.475 124.325C173.945 124.552 172.49 125.263 172.152 125.782C171.779 126.347 172.204 132.024 173.06 133.114C173.771 134.017 176.409 134.973 177.369 135.265C177.48 135.3 177.562 135.393 177.573 135.51C177.579 135.55 178.068 139.455 181.352 141.396C184.672 143.36 186.331 143.401 186.349 143.401C186.448 143.401 186.547 143.46 186.599 143.547C186.634 143.605 189.883 149.142 191.234 153.071C193.68 160.199 201.238 180.254 206.747 187.417C210.136 191.824 214.445 194.283 218.282 194.027C220.612 193.864 222.51 192.692 223.616 190.734C223.698 190.594 223.872 190.541 224.012 190.623C224.152 190.705 224.199 190.88 224.123 191.019C222.912 193.153 220.85 194.429 218.323 194.604C218.113 194.61 217.91 194.616 217.706 194.616Z" fill="#263238"/>
<path d="M175.821 135.312C175.786 135.312 175.745 135.306 175.71 135.289C175.675 135.271 174.813 134.904 174.446 133.523C174.213 132.637 173.666 128.569 174.557 127.922C175.221 127.438 179.489 126.925 180.339 126.832C180.485 126.814 180.642 126.925 180.66 127.088C180.677 127.246 180.561 127.391 180.403 127.409C178.354 127.642 175.291 128.108 174.895 128.394C174.487 128.691 174.621 131.914 175.005 133.377C175.291 134.461 175.908 134.741 175.931 134.753C176.077 134.817 176.147 134.986 176.083 135.137C176.042 135.242 175.937 135.312 175.821 135.312Z" fill="#263238"/>
<path d="M174.161 134.56C174.12 134.56 174.074 134.548 174.033 134.531C173.159 134.105 173.014 133.388 172.618 131.477L172.6 131.401C172.193 129.443 172.525 126.627 172.851 125.911C173.154 125.246 176.374 124.354 178.266 123.882C178.423 123.841 178.581 123.941 178.621 124.092C178.662 124.249 178.563 124.407 178.412 124.448C176.182 125.007 173.625 125.817 173.381 126.161C173.136 126.703 172.775 129.355 173.177 131.284L173.194 131.36C173.596 133.295 173.701 133.715 174.295 134.012C174.44 134.082 174.499 134.257 174.429 134.403C174.371 134.496 174.266 134.56 174.161 134.56Z" fill="#263238"/>
<path d="M174.359 124.336C174.242 124.336 174.138 124.266 174.091 124.156C174.027 124.01 174.103 123.835 174.248 123.777C174.307 123.753 175.628 123.206 176.455 123.031C176.612 123.002 176.77 123.095 176.799 123.252C176.834 123.41 176.735 123.567 176.578 123.596C175.809 123.759 174.487 124.307 174.47 124.313C174.435 124.33 174.394 124.336 174.359 124.336Z" fill="#263238"/>
<path d="M181.579 139.747C181.486 139.747 181.399 139.706 181.341 139.625C179.664 137.276 180.159 133.936 180.38 132.875C178.132 132.613 177.171 131.296 177.131 131.238C177.037 131.109 177.067 130.923 177.201 130.83C177.329 130.736 177.515 130.766 177.608 130.9C177.655 130.958 178.569 132.182 180.764 132.322C180.852 132.328 180.933 132.368 180.98 132.444C181.032 132.514 181.05 132.602 181.026 132.689C181.015 132.73 180.007 136.74 181.824 139.287C181.917 139.415 181.888 139.601 181.754 139.695C181.702 139.73 181.638 139.747 181.579 139.747Z" fill="#263238"/>
<path d="M177.364 133.57C177.241 133.57 177.125 133.488 177.09 133.366C176.903 132.742 177.858 131.908 178.155 131.664C178.278 131.565 178.464 131.582 178.563 131.705C178.662 131.827 178.645 132.013 178.522 132.112C177.992 132.544 177.608 133.051 177.649 133.191C177.69 133.342 177.602 133.505 177.451 133.552C177.422 133.57 177.393 133.57 177.364 133.57Z" fill="#263238"/>
<path d="M223.861 156.532C223.861 156.532 233.783 152.195 235.193 151.904C236.608 151.612 247.357 152.143 247.357 152.143C247.357 152.143 245.831 153.711 242.832 155.045C242.832 155.045 242.594 153.075 239.909 152.842C237.225 152.609 223.861 156.532 223.861 156.532Z" fill="#263238"/>
</svg>
