<svg width="30" height="30" viewBox="0 0 30 30" fill="none" xmlns="http://www.w3.org/2000/svg">
<circle cx="15.1582" cy="14.8418" r="14.8418" fill="#EB5757"/>
<g clip-path="url(#clip0_442_16411)">
<path d="M9.7806 9.79975C11.6874 8.59343 14.1977 9.28007 15.232 11.2909C15.254 11.3337 15.2762 11.3765 15.3063 11.4344C15.3336 11.3754 15.354 11.3316 15.374 11.2879C16.3159 9.23593 18.7927 8.44541 20.7525 9.57113C22.2572 10.4354 23.0669 12.4194 22.6768 14.293C22.4506 15.3793 21.9253 16.3252 21.2877 17.2133C19.7343 19.3769 17.8007 21.1665 15.7573 22.8491C15.6879 22.9064 15.6271 22.9454 15.5686 22.9645C15.5093 22.948 15.4469 22.9114 15.3748 22.8571C13.2569 21.2612 11.2438 19.5537 9.59361 17.4568C8.91617 16.5962 8.34827 15.673 8.0729 14.5972C7.59809 12.7417 8.31677 10.7259 9.7806 9.79975Z" fill="white"/>
</g>
<defs>
<clipPath id="clip0_442_16411">
<rect width="14.4177" height="14.4177" fill="white" transform="translate(6.4541 11.2793) rotate(-24.546)"/>
</clipPath>
</defs>
</svg>
