<svg width="23" height="23" viewBox="0 0 23 23" fill="none" xmlns="http://www.w3.org/2000/svg">
<path d="M8.74419 20.8749C9.47871 21.5232 10.4435 21.9166 11.5003 21.9166C12.557 21.9166 13.5218 21.5232 14.2563 20.8749M1.38973 5.06231C1.37478 3.55049 2.18987 2.13872 3.50662 1.39575M21.6066 5.06231C21.6216 3.55049 20.8065 2.13872 19.4898 1.39576M17.7503 7.33325C17.7503 5.67565 17.0918 4.08594 15.9197 2.91383C14.7476 1.74173 13.1579 1.08325 11.5003 1.08325C9.84266 1.08325 8.25294 1.74173 7.08084 2.91383C5.90874 4.08594 5.25026 5.67565 5.25026 7.33325C5.25026 10.5522 4.43825 12.7561 3.53116 14.2139C2.76602 15.4435 2.38345 16.0584 2.39747 16.2299C2.41301 16.4198 2.45324 16.4922 2.60628 16.6057C2.74449 16.7083 3.36754 16.7083 4.61365 16.7083H18.3869C19.633 16.7083 20.256 16.7083 20.3942 16.6057C20.5473 16.4922 20.5875 16.4198 20.603 16.2299C20.6171 16.0584 20.2345 15.4435 19.4694 14.2139C18.5623 12.7561 17.7503 10.5522 17.7503 7.33325Z" stroke="#004EEB" stroke-width="2" stroke-linecap="round" stroke-linejoin="round"/>
</svg>
