<svg width="54" height="44" viewBox="0 0 54 44" fill="none" xmlns="http://www.w3.org/2000/svg">
<path d="M38.6251 29.9416L51.5417 42.8582M51.5417 29.9416L38.6251 42.8582M52.8334 14.4416H1.16675M52.8334 19.6082V9.79157C52.8334 6.89797 52.8334 5.45117 52.2703 4.34596C51.7749 3.37378 50.9845 2.58339 50.0124 2.08804C48.9072 1.5249 47.4604 1.5249 44.5667 1.5249H9.43342C6.53981 1.5249 5.09301 1.5249 3.9878 2.08804C3.01563 2.58338 2.22523 3.37378 1.72988 4.34595C1.16675 5.45116 1.16675 6.89796 1.16675 9.79157V29.4249C1.16675 32.3185 1.16675 33.7653 1.72988 34.8705C2.22523 35.8427 3.01563 36.6331 3.9878 37.1284C5.09301 37.6916 6.53981 37.6916 9.43341 37.6916H27.0001" stroke="#53389E" stroke-width="2" stroke-linecap="round" stroke-linejoin="round"/>
</svg>
