<svg width="20" height="23" viewBox="0 0 20 23" fill="none" xmlns="http://www.w3.org/2000/svg">
<path d="M17.8333 12.0208V6.08325C17.8333 4.33309 17.8333 3.45801 17.4927 2.78953C17.1931 2.20153 16.715 1.72346 16.127 1.42386C15.4585 1.08325 14.5835 1.08325 12.8333 1.08325H6.16663C4.41646 1.08325 3.54138 1.08325 2.87291 1.42386C2.2849 1.72346 1.80683 2.20153 1.50723 2.78953C1.16663 3.45801 1.16663 4.33309 1.16663 6.08325V16.9166C1.16663 18.6667 1.16663 19.5418 1.50723 20.2103C1.80683 20.7983 2.2849 21.2764 2.87291 21.576C3.54138 21.9166 4.41646 21.9166 6.16663 21.9166H9.49996M11.5833 10.4583H5.33329M7.41663 14.6249H5.33329M13.6666 6.29159H5.33329M12.1041 18.7916L14.1875 20.8749L18.875 16.1874" stroke="#0E7090" stroke-width="2" stroke-linecap="round" stroke-linejoin="round"/>
</svg>
