<svg width="21" height="22" viewBox="0 0 21 22" fill="none" xmlns="http://www.w3.org/2000/svg">
<path d="M6.85417 11.0208C6.85417 11.0208 8.22135 12.5833 10.5 12.5833C12.7786 12.5833 14.1458 11.0208 14.1458 11.0208M13.3646 5.8125H13.375M7.63542 5.8125H7.64583M5.29167 16.75V19.1828C5.29167 19.7379 5.29167 20.0154 5.40545 20.1579C5.5044 20.2819 5.65445 20.354 5.81306 20.3538C5.99544 20.3536 6.21216 20.1803 6.64558 19.8335L9.13043 17.8457C9.63804 17.4396 9.89184 17.2365 10.1745 17.0921C10.4252 16.964 10.6921 16.8704 10.9679 16.8138C11.2788 16.75 11.6038 16.75 12.2539 16.75H14.875C16.6252 16.75 17.5002 16.75 18.1687 16.4094C18.7567 16.1098 19.2348 15.6317 19.5344 15.0437C19.875 14.3752 19.875 13.5002 19.875 11.75V6.125C19.875 4.37484 19.875 3.49975 19.5344 2.83128C19.2348 2.24327 18.7567 1.76521 18.1687 1.4656C17.5002 1.125 16.6252 1.125 14.875 1.125H6.125C4.37484 1.125 3.49975 1.125 2.83128 1.4656C2.24327 1.76521 1.76521 2.24327 1.4656 2.83128C1.125 3.49975 1.125 4.37484 1.125 6.125V12.5833C1.125 13.5521 1.125 14.0364 1.23148 14.4338C1.52044 15.5122 2.36278 16.3546 3.44119 16.6435C3.83859 16.75 4.32295 16.75 5.29167 16.75ZM13.8854 5.8125C13.8854 6.10015 13.6522 6.33333 13.3646 6.33333C13.0769 6.33333 12.8437 6.10015 12.8437 5.8125C12.8437 5.52485 13.0769 5.29167 13.3646 5.29167C13.6522 5.29167 13.8854 5.52485 13.8854 5.8125ZM8.15625 5.8125C8.15625 6.10015 7.92306 6.33333 7.63542 6.33333C7.34777 6.33333 7.11458 6.10015 7.11458 5.8125C7.11458 5.52485 7.34777 5.29167 7.63542 5.29167C7.92306 5.29167 8.15625 5.52485 8.15625 5.8125Z" stroke="#7A271A" stroke-width="2" stroke-linecap="round" stroke-linejoin="round"/>
</svg>
