<svg width="23" height="21" viewBox="0 0 23 21" fill="none" xmlns="http://www.w3.org/2000/svg">
<path d="M10.4584 9.45833H5.45837C4.2916 9.45833 3.70821 9.45833 3.26256 9.6854C2.87056 9.88514 2.55185 10.2038 2.35211 10.5959C2.12504 11.0415 2.12504 11.6249 2.12504 12.7917V19.875M20.875 19.875V4.45833C20.875 3.29156 20.875 2.70817 20.648 2.26252C20.4482 1.87052 20.1295 1.55181 19.7375 1.35207C19.2919 1.125 18.7085 1.125 17.5417 1.125H13.7917C12.6249 1.125 12.0415 1.125 11.5959 1.35207C11.2039 1.55181 10.8852 1.87052 10.6854 2.26252C10.4584 2.70817 10.4584 3.29156 10.4584 4.45833V19.875M21.9167 19.875H1.08337M14.1042 5.29167H17.2292M14.1042 9.45833H17.2292M14.1042 13.625H17.2292" stroke="#BA24D5" stroke-width="2" stroke-linecap="round" stroke-linejoin="round"/>
</svg>
