<svg width="21" height="21" viewBox="0 0 21 21" fill="none" xmlns="http://www.w3.org/2000/svg">
<path d="M10.5 13.625C7.19788 13.625 4.2613 15.2194 2.39171 17.6937C1.98932 18.2263 1.78813 18.4925 1.79471 18.8524C1.7998 19.1304 1.97438 19.4811 2.19314 19.6528C2.47628 19.875 2.86866 19.875 3.65341 19.875H17.3467C18.1314 19.875 18.5238 19.875 18.807 19.6528C19.0257 19.4811 19.2003 19.1304 19.2054 18.8524C19.212 18.4925 19.0108 18.2263 18.6084 17.6937C16.7388 15.2194 13.8022 13.625 10.5 13.625Z" stroke="#FDB022" stroke-width="2" stroke-linecap="round" stroke-linejoin="round"/>
<path d="M10.5 10.5C13.0889 10.5 15.1875 8.40133 15.1875 5.8125C15.1875 3.22367 13.0889 1.125 10.5 1.125C7.91121 1.125 5.81255 3.22367 5.81255 5.8125C5.81255 8.40133 7.91121 10.5 10.5 10.5Z" stroke="#FDB022" stroke-width="2" stroke-linecap="round" stroke-linejoin="round"/>
</svg>
