<svg width="21" height="21" viewBox="0 0 21 21" fill="none" xmlns="http://www.w3.org/2000/svg">
<path d="M6.75 1.125H2.79167C2.20828 1.125 1.91658 1.125 1.69376 1.23853C1.49776 1.3384 1.3384 1.49776 1.23853 1.69376C1.125 1.91658 1.125 2.20828 1.125 2.79167V6.75C1.125 7.33339 1.125 7.62508 1.23853 7.84791C1.3384 8.04391 1.49776 8.20326 1.69376 8.30313C1.91658 8.41667 2.20828 8.41667 2.79167 8.41667H6.75C7.33339 8.41667 7.62508 8.41667 7.84791 8.30313C8.04391 8.20326 8.20326 8.04391 8.30313 7.84791C8.41667 7.62508 8.41667 7.33339 8.41667 6.75V2.79167C8.41667 2.20828 8.41667 1.91658 8.30313 1.69376C8.20326 1.49776 8.04391 1.3384 7.84791 1.23853C7.62508 1.125 7.33339 1.125 6.75 1.125Z" stroke="#79716B" stroke-width="2" stroke-linecap="round" stroke-linejoin="round"/>
<path d="M18.2083 1.125H14.25C13.6666 1.125 13.3749 1.125 13.1521 1.23853C12.9561 1.3384 12.7967 1.49776 12.6969 1.69376C12.5833 1.91658 12.5833 2.20828 12.5833 2.79167V6.75C12.5833 7.33339 12.5833 7.62508 12.6969 7.84791C12.7967 8.04391 12.9561 8.20326 13.1521 8.30313C13.3749 8.41667 13.6666 8.41667 14.25 8.41667H18.2083C18.7917 8.41667 19.0834 8.41667 19.3062 8.30313C19.5022 8.20326 19.6616 8.04391 19.7615 7.84791C19.875 7.62508 19.875 7.33339 19.875 6.75V2.79167C19.875 2.20828 19.875 1.91658 19.7615 1.69376C19.6616 1.49776 19.5022 1.3384 19.3062 1.23853C19.0834 1.125 18.7917 1.125 18.2083 1.125Z" stroke="#79716B" stroke-width="2" stroke-linecap="round" stroke-linejoin="round"/>
<path d="M18.2083 12.5833H14.25C13.6666 12.5833 13.3749 12.5833 13.1521 12.6969C12.9561 12.7967 12.7967 12.9561 12.6969 13.1521C12.5833 13.3749 12.5833 13.6666 12.5833 14.25V18.2083C12.5833 18.7917 12.5833 19.0834 12.6969 19.3062C12.7967 19.5022 12.9561 19.6616 13.1521 19.7615C13.3749 19.875 13.6666 19.875 14.25 19.875H18.2083C18.7917 19.875 19.0834 19.875 19.3062 19.7615C19.5022 19.6616 19.6616 19.5022 19.7615 19.3062C19.875 19.0834 19.875 18.7917 19.875 18.2083V14.25C19.875 13.6666 19.875 13.3749 19.7615 13.1521C19.6616 12.9561 19.5022 12.7967 19.3062 12.6969C19.0834 12.5833 18.7917 12.5833 18.2083 12.5833Z" stroke="#79716B" stroke-width="2" stroke-linecap="round" stroke-linejoin="round"/>
<path d="M6.75 12.5833H2.79167C2.20828 12.5833 1.91658 12.5833 1.69376 12.6969C1.49776 12.7967 1.3384 12.9561 1.23853 13.1521C1.125 13.3749 1.125 13.6666 1.125 14.25V18.2083C1.125 18.7917 1.125 19.0834 1.23853 19.3062C1.3384 19.5022 1.49776 19.6616 1.69376 19.7615C1.91658 19.875 2.20828 19.875 2.79167 19.875H6.75C7.33339 19.875 7.62508 19.875 7.84791 19.7615C8.04391 19.6616 8.20326 19.5022 8.30313 19.3062C8.41667 19.0834 8.41667 18.7917 8.41667 18.2083V14.25C8.41667 13.6666 8.41667 13.3749 8.30313 13.1521C8.20326 12.9561 8.04391 12.7967 7.84791 12.6969C7.62508 12.5833 7.33339 12.5833 6.75 12.5833Z" stroke="#79716B" stroke-width="2" stroke-linecap="round" stroke-linejoin="round"/>
</svg>
