<svg width="23" height="17" viewBox="0 0 23 17" fill="none" xmlns="http://www.w3.org/2000/svg">
<path d="M21.9167 6.41659H1.08337M10.4584 10.5833H5.25004M1.08337 4.54159L1.08337 12.4583C1.08337 13.625 1.08337 14.2084 1.31044 14.6541C1.51018 15.0461 1.82889 15.3648 2.22089 15.5645C2.66654 15.7916 3.24993 15.7916 4.41671 15.7916L18.5834 15.7916C19.7502 15.7916 20.3335 15.7916 20.7792 15.5645C21.1712 15.3648 21.4899 15.0461 21.6896 14.6541C21.9167 14.2084 21.9167 13.625 21.9167 12.4583V4.54159C21.9167 3.37481 21.9167 2.79142 21.6896 2.34577C21.4899 1.95377 21.1712 1.63506 20.7792 1.43532C20.3335 1.20825 19.7502 1.20825 18.5834 1.20825L4.41671 1.20825C3.24993 1.20825 2.66654 1.20825 2.22089 1.43532C1.82889 1.63506 1.51018 1.95377 1.31044 2.34577C1.08337 2.79142 1.08337 3.37481 1.08337 4.54159Z" stroke="#53389E" stroke-width="2" stroke-linecap="round" stroke-linejoin="round"/>
</svg>
