<svg width="50" height="60" viewBox="0 0 50 60" fill="none" xmlns="http://www.w3.org/2000/svg">
<rect x="5.5" y="10.5" width="39" height="39" rx="2.5" fill="#F4EBFF"/>
<rect x="5.5" y="10.5" width="39" height="39" rx="2.5" stroke="#BBC2CD"/>
<path d="M25 24C25.5523 24 26 23.5523 26 23C26 22.4477 25.5523 22 25 22C24.4477 22 24 22.4477 24 23C24 23.5523 24.4477 24 25 24Z" stroke="black" stroke-width="2" stroke-linecap="round" stroke-linejoin="round"/>
<path d="M25 31C25.5523 31 26 30.5523 26 30C26 29.4477 25.5523 29 25 29C24.4477 29 24 29.4477 24 30C24 30.5523 24.4477 31 25 31Z" stroke="black" stroke-width="2" stroke-linecap="round" stroke-linejoin="round"/>
<path d="M25 38C25.5523 38 26 37.5523 26 37C26 36.4477 25.5523 36 25 36C24.4477 36 24 36.4477 24 37C24 37.5523 24.4477 38 25 38Z" stroke="black" stroke-width="2" stroke-linecap="round" stroke-linejoin="round"/>
<path d="M32 24C32.5523 24 33 23.5523 33 23C33 22.4477 32.5523 22 32 22C31.4477 22 31 22.4477 31 23C31 23.5523 31.4477 24 32 24Z" stroke="black" stroke-width="2" stroke-linecap="round" stroke-linejoin="round"/>
<path d="M32 31C32.5523 31 33 30.5523 33 30C33 29.4477 32.5523 29 32 29C31.4477 29 31 29.4477 31 30C31 30.5523 31.4477 31 32 31Z" stroke="black" stroke-width="2" stroke-linecap="round" stroke-linejoin="round"/>
<path d="M32 38C32.5523 38 33 37.5523 33 37C33 36.4477 32.5523 36 32 36C31.4477 36 31 36.4477 31 37C31 37.5523 31.4477 38 32 38Z" stroke="black" stroke-width="2" stroke-linecap="round" stroke-linejoin="round"/>
<path d="M18 24C18.5523 24 19 23.5523 19 23C19 22.4477 18.5523 22 18 22C17.4477 22 17 22.4477 17 23C17 23.5523 17.4477 24 18 24Z" stroke="black" stroke-width="2" stroke-linecap="round" stroke-linejoin="round"/>
<path d="M18 31C18.5523 31 19 30.5523 19 30C19 29.4477 18.5523 29 18 29C17.4477 29 17 29.4477 17 30C17 30.5523 17.4477 31 18 31Z" stroke="black" stroke-width="2" stroke-linecap="round" stroke-linejoin="round"/>
<path d="M18 38C18.5523 38 19 37.5523 19 37C19 36.4477 18.5523 36 18 36C17.4477 36 17 36.4477 17 37C17 37.5523 17.4477 38 18 38Z" stroke="black" stroke-width="2" stroke-linecap="round" stroke-linejoin="round"/>
</svg>
