<svg width="55" height="55" viewBox="0 0 55 55" fill="none" xmlns="http://www.w3.org/2000/svg">
<circle cx="27.5" cy="27.5" r="26" transform="matrix(-1 0 0 1 55 0)" fill="white" stroke="#088AB2" stroke-width="3"/>
<rect x="3.75" y="4.00006" width="47.5" height="47.5" rx="23.75" fill="#E0F2FE"/>
<path d="M35.8334 28.0208V22.0833C35.8334 20.3331 35.8334 19.4581 35.4928 18.7896C35.1931 18.2016 34.7151 17.7235 34.1271 17.4239C33.4586 17.0833 32.5835 17.0833 30.8334 17.0833H24.1667C22.4165 17.0833 21.5414 17.0833 20.873 17.4239C20.285 17.7235 19.8069 18.2016 19.5073 18.7896C19.1667 19.4581 19.1667 20.3331 19.1667 22.0833V32.9166C19.1667 34.6668 19.1667 35.5419 19.5073 36.2104C19.8069 36.7984 20.285 37.2764 20.873 37.576C21.5414 37.9166 22.4165 37.9166 24.1667 37.9166H27.5M29.5834 26.4583H23.3334M25.4167 30.625H23.3334M31.6667 22.2916H23.3334M30.1042 34.7916L32.1875 36.875L36.875 32.1875" stroke="#0E7090" stroke-width="2" stroke-linecap="round" stroke-linejoin="round"/>
</svg>
