<svg width="42" height="37" viewBox="0 0 42 37" fill="none" xmlns="http://www.w3.org/2000/svg">
<path d="M38.8788 18.2508C38.8788 28.3309 30.7081 36.5016 20.628 36.5016C14.3145 36.5016 8.7492 33.2955 5.46926 28.4233C4.05877 26.3229 3.06698 23.9083 2.62967 21.3091C2.46029 20.3143 2.37402 19.2918 2.37402 18.2508C2.37415 8.17066 10.548 0 20.6281 0C30.7083 0 38.8789 8.17066 38.8789 18.2508H38.8788Z" fill="url(#paint0_radial_3_22524)"/>
<g style="mix-blend-mode:multiply">
<path d="M38.8802 18.2521C38.8802 28.3297 30.7064 36.5031 20.6286 36.5031C16.629 36.5031 12.9329 35.2186 9.93115 33.0399C12.6336 34.4535 15.706 35.2559 18.9656 35.2559C29.7337 35.2559 38.4646 26.5253 38.4646 15.7576C38.4646 15.1714 38.4396 14.5893 38.3856 14.0156C38.7099 15.3751 38.8804 16.7927 38.8804 18.252L38.8802 18.2521Z" fill="#FBD69E"/>
</g>
<g style="mix-blend-mode:multiply">
<path d="M11.8977 14.0826C10.571 14.3599 9.42353 15.197 8.7543 16.3757C8.49902 16.8162 7.99455 17.1199 7.52134 16.9862C7.51562 16.9843 7.5099 16.9825 7.50431 16.9807C7.03329 16.8501 6.82595 16.1389 7.19488 15.49C8.11793 13.8643 9.70047 12.7098 11.5304 12.3273C12.2611 12.1741 12.8749 12.5886 12.8554 13.077C12.8554 13.083 12.8554 13.089 12.8554 13.0949C12.8383 13.5863 12.395 13.9739 11.8976 14.0826H11.8977Z" fill="#FBD69E"/>
</g>
<g style="mix-blend-mode:multiply">
<path d="M29.3581 14.0826C30.6849 14.3599 31.8323 15.197 32.5015 16.3757C32.7568 16.8162 33.2613 17.1199 33.7345 16.9862C33.7401 16.9843 33.7459 16.9825 33.7515 16.9807C34.2224 16.8501 34.4298 16.1389 34.0609 15.49C33.138 13.8643 31.5553 12.7098 29.7254 12.3273C28.9949 12.1741 28.3809 12.5886 28.4004 13.077V13.0949C28.4175 13.5863 28.8608 13.9739 29.3581 14.0826Z" fill="#FBD69E"/>
</g>
<path d="M32.3469 21.8866C32.2375 22.9348 31.9898 23.9427 31.6183 24.8871C29.925 29.2382 25.6949 32.3194 20.7449 32.3194H20.5087C15.5616 32.3194 11.3314 29.2383 9.63818 24.8901C9.26962 23.9427 9.01908 22.9348 8.90969 21.8866C8.85494 21.3568 9.38193 20.968 9.87435 21.1638C13.6438 22.6526 19.5988 22.8167 20.6268 22.8167C21.6547 22.8167 27.6127 22.6525 31.3821 21.1638C31.8745 20.968 32.4015 21.3568 32.3468 21.8866H32.3469Z" fill="#87594A"/>
<path d="M32.3469 21.8866C32.2375 22.9348 31.9898 23.9427 31.6183 24.8871C28.5515 26.1944 24.8282 26.9576 20.8168 26.9576H20.4338C16.4254 26.9576 12.7049 26.1946 9.63818 24.8901C9.26962 23.9427 9.01908 22.9348 8.90969 21.8866C8.85494 21.3568 9.38193 20.968 9.87435 21.1638C13.6438 22.6526 19.5988 22.8167 20.6268 22.8167C21.6547 22.8167 27.6127 22.6525 31.3821 21.1638C31.8745 20.968 32.4015 21.3568 32.3468 21.8866H32.3469Z" fill="white"/>
<path d="M9.87435 21.7182C13.6438 23.2069 19.5988 23.371 20.6268 23.371C21.6547 23.371 27.6127 23.2069 31.3821 21.7182C31.7771 21.5611 32.1891 21.7828 32.3104 22.149C32.3216 22.0613 32.3375 21.9749 32.3468 21.8866C32.4015 21.3568 31.8745 20.968 31.3821 21.1638C27.6127 22.6525 21.6548 22.8167 20.6268 22.8167C19.5987 22.8167 13.6437 22.6525 9.87435 21.1638C9.38193 20.968 8.85494 21.3568 8.90969 21.8866C8.91894 21.9749 8.935 22.061 8.94607 22.1488C9.06763 21.7826 9.47939 21.5612 9.87435 21.7182Z" fill="#87594A"/>
<g style="mix-blend-mode:multiply">
<path d="M8.73092 19.7169C8.54926 20.2497 8.21355 21.3522 8.19506 22.2608C8.17048 23.3233 8.2043 27.2223 5.46948 28.4234C4.05899 26.323 3.06719 23.9084 2.62988 21.3091C3.47372 20.8873 4.56395 20.5761 5.95911 20.4376C7.00931 20.3482 8.06255 19.8401 8.55534 19.569C8.6539 19.5135 8.76791 19.609 8.73092 19.7169Z" fill="#FBD69E"/>
</g>
<path d="M6.09677 19.8621C7.1505 19.8159 8.22175 19.3519 8.72623 19.1032C8.82843 19.0529 8.93794 19.1534 8.89657 19.2595C8.69252 19.7833 8.30875 20.8718 8.25253 21.7784C8.17466 23.0209 8.00954 28.1384 3.61248 28.106C1.41169 27.9473 -0.192143 26.1072 0.0186027 24.1436C0.228984 22.1816 1.70274 20.1172 6.09677 19.8621Z" fill="url(#paint1_linear_3_22524)"/>
<g style="mix-blend-mode:multiply">
<path d="M32.5252 19.7169C32.7068 20.2497 33.0425 21.3522 33.061 22.2608C33.0856 23.3233 33.0518 27.2223 35.7866 28.4234C37.1972 26.323 38.1889 23.9084 38.6262 21.3091C37.7824 20.8873 36.6921 20.5761 35.297 20.4376C34.2468 20.3482 33.1934 19.8401 32.7007 19.569C32.6022 19.5135 32.4883 19.609 32.5252 19.7169Z" fill="#FBD69E"/>
</g>
<path d="M35.1592 19.8621C34.1056 19.8159 33.0343 19.3519 32.5299 19.1032C32.4277 19.0529 32.3182 19.1534 32.3596 19.2595C32.5636 19.7833 32.9474 20.8718 33.0036 21.7784C33.0813 23.0209 33.2466 28.1384 37.6435 28.106C39.8442 27.9471 41.448 26.1071 41.2374 24.1435C41.0271 22.1814 39.5533 20.117 35.1592 19.862V19.8621Z" fill="url(#paint2_linear_3_22524)"/>
<path d="M18.2759 18.9818C17.8806 19.0041 17.4864 18.8906 17.1532 18.6767C16.1699 18.0453 14.7991 18.1646 14.5275 18.1646C14.256 18.1646 12.8845 18.0453 11.9012 18.6771C11.568 18.8912 11.1736 19.005 10.7782 18.9821C10.3848 18.9594 10.0104 18.8058 9.98543 18.3464C9.97387 18.1338 10.0581 17.9241 10.198 17.7638C11.2368 16.574 12.7654 15.8242 14.4699 15.8242H14.5855C16.2915 15.8242 17.8222 16.5756 18.8611 17.7669C19.0019 17.9284 19.0868 18.1397 19.0729 18.3537C19.0435 18.8079 18.6688 18.9595 18.2762 18.9818H18.2759Z" fill="#87594A"/>
<path d="M22.9798 18.9818C23.3751 19.0041 23.7693 18.8906 24.1025 18.6767C25.0858 18.0453 26.4566 18.1646 26.7282 18.1646C26.9998 18.1646 28.3712 18.0453 29.3546 18.6771C29.6877 18.8912 30.0822 19.005 30.4777 18.9821C30.8711 18.9594 31.2453 18.8058 31.2704 18.3464C31.282 18.1338 31.1978 17.9241 31.0578 17.7638C30.0191 16.574 28.4904 15.8242 26.7861 15.8242H26.6705C24.9644 15.8242 23.4339 16.5756 22.3949 17.7669C22.2541 17.9284 22.1691 18.1397 22.1831 18.3537C22.2126 18.8079 22.5872 18.9595 22.9799 18.9818H22.9798Z" fill="#87594A"/>
<defs>
<radialGradient id="paint0_radial_3_22524" cx="0" cy="0" r="1" gradientUnits="userSpaceOnUse" gradientTransform="translate(20.6265 15.1711) scale(18.2514)">
<stop stop-color="#FDDB35"/>
<stop offset="0.482" stop-color="#FCD934"/>
<stop offset="0.655" stop-color="#FCD232"/>
<stop offset="0.779" stop-color="#FBC62E"/>
<stop offset="0.879" stop-color="#F9B528"/>
<stop offset="0.964" stop-color="#F89F21"/>
<stop offset="1" stop-color="#F7941E"/>
</radialGradient>
<linearGradient id="paint1_linear_3_22524" x1="8.89153" y1="19.1398" x2="1.18584" y2="27.0723" gradientUnits="userSpaceOnUse">
<stop stop-color="#2E92DB"/>
<stop offset="0.041" stop-color="#2D98DF"/>
<stop offset="0.197" stop-color="#2BADED"/>
<stop offset="0.351" stop-color="#2AB9F5"/>
<stop offset="0.5" stop-color="#2ABEF8"/>
<stop offset="0.647" stop-color="#2AB9F5"/>
<stop offset="0.804" stop-color="#2BACEC"/>
<stop offset="0.965" stop-color="#2D97DE"/>
<stop offset="1" stop-color="#2E92DB"/>
</linearGradient>
<linearGradient id="paint2_linear_3_22524" x1="32.3783" y1="19.1355" x2="40.084" y2="27.068" gradientUnits="userSpaceOnUse">
<stop stop-color="#2E92DB"/>
<stop offset="0.041" stop-color="#2D98DF"/>
<stop offset="0.197" stop-color="#2BADED"/>
<stop offset="0.351" stop-color="#2AB9F5"/>
<stop offset="0.5" stop-color="#2ABEF8"/>
<stop offset="0.647" stop-color="#2AB9F5"/>
<stop offset="0.804" stop-color="#2BACEC"/>
<stop offset="0.965" stop-color="#2D97DE"/>
<stop offset="1" stop-color="#2E92DB"/>
</linearGradient>
</defs>
</svg>
