<svg width="35" height="35" viewBox="0 0 35 35" fill="none" xmlns="http://www.w3.org/2000/svg">
<circle cx="17.5" cy="17.5" r="17.5" fill="url(#paint0_radial_3_22568)"/>
<g clip-path="url(#clip0_3_22568)">
<path d="M25.0157 16.0941H20.3876C20.3876 16.0941 19.9863 15.894 20.2039 14.893C20.3316 14.3056 21.7591 10.4394 19.184 9.75854C19.167 9.75569 19.1496 9.75284 19.133 9.75081C19.1165 9.74878 19.1003 9.74674 19.0845 9.74512C19.0688 9.74308 19.0534 9.74227 19.0385 9.74145C19.0236 9.74105 19.0087 9.74023 18.9941 9.74023C18.9784 9.74023 18.9635 9.74105 18.9485 9.74145C18.9465 9.74145 18.9444 9.74145 18.9415 9.74227C18.9291 9.74308 18.9179 9.74349 18.9063 9.74593C18.8768 9.74878 18.849 9.75447 18.8229 9.76139C18.8101 9.76464 18.798 9.76911 18.7856 9.77318C18.774 9.77725 18.7632 9.78172 18.7533 9.7866C18.7375 9.79352 18.7218 9.80165 18.7072 9.8106C18.6952 9.81752 18.6828 9.82525 18.6724 9.83379L18.6716 9.8346C18.6583 9.84518 18.6451 9.85575 18.6339 9.86714C18.6305 9.86999 18.6276 9.87284 18.6247 9.8765C18.6218 9.87934 18.6189 9.88219 18.616 9.88544C18.6119 9.8887 18.6082 9.89317 18.6053 9.89724C18.5953 9.90904 18.5854 9.92124 18.5767 9.93385C18.5746 9.9367 18.5725 9.93954 18.57 9.94239C18.5621 9.95419 18.5543 9.96598 18.5472 9.979C18.5393 9.99242 18.5323 10.0058 18.5257 10.0189C18.4689 10.1372 18.439 10.2865 18.4233 10.4561C18.3644 11.0821 18.4975 11.9741 18.1467 12.5147C17.8946 12.9027 17.2537 13.7768 16.5816 14.6904C15.9477 15.5527 15.2873 16.4524 14.9029 17.0134C14.6952 17.3156 14.5684 17.5194 14.5684 17.5678V24.9755C14.5684 25.209 14.7611 25.3981 14.9987 25.3981H23.0986C23.2611 25.3981 23.4158 25.3664 23.558 25.3107V25.3123C23.5775 25.3046 23.5974 25.296 23.6169 25.2875C23.6762 25.2623 23.733 25.231 23.7864 25.196C23.8225 25.1728 23.8573 25.1484 23.8905 25.1224C23.9241 25.0963 23.9556 25.0683 23.9859 25.039C23.9971 25.0284 24.0078 25.017 24.0178 25.0064C24.0286 24.995 24.0393 24.9841 24.0493 24.9727C24.08 24.9385 24.109 24.9023 24.1351 24.8645L24.1608 24.8266C24.1774 24.8014 24.1932 24.7762 24.2081 24.7494C24.233 24.7038 24.2553 24.6566 24.2748 24.6082C24.2835 24.5867 24.2918 24.5631 24.2993 24.5407C24.3084 24.5126 24.3171 24.4846 24.3246 24.4565C24.3279 24.441 24.3325 24.4252 24.3354 24.4089C24.3441 24.3666 24.3511 24.3231 24.3553 24.2796C24.3565 24.2633 24.3582 24.2474 24.359 24.2312C24.359 24.2271 24.3594 24.2226 24.3594 24.219C24.3602 24.1994 24.3606 24.1791 24.3606 24.1592C24.3606 24.1352 24.3598 24.112 24.3586 24.0888C24.3577 24.0811 24.3577 24.0733 24.3573 24.0656C24.3561 24.0437 24.354 24.0221 24.3503 24.0001C24.3474 23.9765 24.3432 23.9538 24.3387 23.9306C24.3366 23.9196 24.3345 23.9086 24.3325 23.8976C24.33 23.8899 24.3287 23.8826 24.3267 23.8753C24.3204 23.8452 24.3117 23.8146 24.3018 23.785C24.2964 23.7683 24.2902 23.7512 24.2844 23.7349C24.2599 23.6682 24.2301 23.6044 24.194 23.5438C24.2728 23.5295 24.3495 23.508 24.4224 23.4791C24.4373 23.4734 24.4519 23.4677 24.4664 23.4616C24.5244 23.4376 24.5796 23.4087 24.6326 23.3758C24.6455 23.368 24.6583 23.3595 24.6712 23.3505C24.6977 23.3339 24.7242 23.3152 24.7491 23.2956C24.7728 23.2769 24.7956 23.2578 24.8171 23.2375C24.8287 23.2269 24.8399 23.2163 24.8507 23.2057C24.8623 23.1952 24.8731 23.1842 24.883 23.1736C24.9697 23.0825 25.0435 22.9796 25.0995 22.8669L25.1123 22.8397C25.1268 22.8088 25.1397 22.7778 25.1509 22.7461C25.1575 22.7294 25.1629 22.7124 25.1687 22.6949C25.1737 22.6778 25.1795 22.6603 25.1836 22.6428C25.1882 22.6282 25.1923 22.6127 25.1948 22.5972C25.2006 22.5749 25.2052 22.5521 25.2085 22.5297C25.2106 22.5204 25.2114 22.5106 25.2126 22.5008C25.2147 22.4903 25.2164 22.4793 25.2168 22.4675C25.2184 22.4569 25.2197 22.4459 25.2205 22.4354C25.2218 22.4175 25.2234 22.4 25.2242 22.3825C25.2247 22.3638 25.2255 22.3447 25.2255 22.3255C25.2255 22.2763 25.2226 22.2279 25.2168 22.1807C25.2147 22.1653 25.2135 22.1506 25.2106 22.1364C25.2093 22.1254 25.2068 22.114 25.2048 22.1026C25.2019 22.0872 25.199 22.0717 25.1956 22.0563C25.1919 22.04 25.1878 22.0241 25.1832 22.0079C25.1811 21.9993 25.1791 21.992 25.1766 21.9839C25.1579 21.9212 25.1351 21.861 25.1069 21.8033C25.1015 21.7915 25.0953 21.7793 25.0899 21.7683C25.0456 21.6816 24.9912 21.6011 24.9282 21.5279C24.8631 21.451 24.7881 21.3831 24.7056 21.3241C24.8407 21.3164 24.9705 21.2867 25.0907 21.2399V21.2407C25.1202 21.2297 25.1488 21.2171 25.1774 21.2041C25.2052 21.1907 25.2334 21.1761 25.2599 21.1614C25.2736 21.1533 25.2873 21.1451 25.3001 21.1374C25.3138 21.1289 25.3267 21.1211 25.3395 21.1122C25.3652 21.0955 25.3905 21.0772 25.4145 21.0581C25.427 21.0491 25.439 21.039 25.4506 21.0292C25.4742 21.0097 25.4971 20.9894 25.5194 20.9674C25.5402 20.9471 25.5601 20.9267 25.5796 20.9047C25.5812 20.9035 25.5816 20.9019 25.5829 20.9011C25.6007 20.8808 25.6181 20.8596 25.6347 20.8384C25.6525 20.8153 25.6695 20.7921 25.6857 20.7681C25.7019 20.7441 25.7172 20.7197 25.7313 20.6941C25.7383 20.6823 25.745 20.6701 25.7516 20.6583C25.7587 20.6448 25.7657 20.6318 25.7723 20.6176C25.786 20.5895 25.7989 20.5606 25.8105 20.5305C25.8155 20.5183 25.8196 20.5065 25.8237 20.4947C25.8329 20.4703 25.8412 20.4443 25.8482 20.4183C25.8519 20.4061 25.8557 20.3935 25.8582 20.3813C25.8731 20.3215 25.883 20.2605 25.8888 20.197C25.8905 20.1807 25.8917 20.1645 25.8926 20.1486C25.8934 20.1283 25.8938 20.1079 25.8938 20.0876C25.8938 20.0644 25.893 20.0404 25.8917 20.0172C25.8917 20.0087 25.8909 20.0001 25.8897 19.992C25.8897 19.9883 25.8897 19.9847 25.8888 19.9814C25.888 19.9652 25.8859 19.9489 25.8839 19.9334C25.8818 19.9123 25.8781 19.8919 25.8743 19.8716C25.8694 19.8423 25.8631 19.8126 25.8557 19.7846C25.8432 19.7362 25.8279 19.6882 25.8092 19.6426C25.7918 19.5962 25.7711 19.5523 25.7471 19.5092C25.7247 19.4657 25.699 19.4242 25.6695 19.3843C25.6554 19.3644 25.6409 19.3449 25.626 19.3257C25.5961 19.2871 25.5638 19.2505 25.5277 19.2159C25.4929 19.1818 25.4564 19.1484 25.4166 19.1191C25.3975 19.1045 25.3772 19.0894 25.3573 19.0756C25.1521 18.9324 24.9021 18.8486 24.631 18.8486H25.014C25.216 18.8486 25.4071 18.8071 25.5808 18.7307C25.5957 18.7237 25.6115 18.7172 25.6264 18.7095C25.6335 18.7067 25.6405 18.703 25.648 18.6997C25.6534 18.6969 25.6592 18.6941 25.665 18.6908C25.6973 18.6749 25.728 18.657 25.7582 18.6387C25.8146 18.6042 25.8694 18.5655 25.9195 18.5228C25.9315 18.5122 25.9444 18.5017 25.9568 18.4907C25.9689 18.4801 25.9813 18.4687 25.9933 18.4577C26.0045 18.4463 26.0169 18.4345 26.0281 18.4228C26.0398 18.4114 26.0505 18.3996 26.0617 18.3866C26.0725 18.3752 26.0825 18.3634 26.0924 18.3516C26.1148 18.3264 26.1355 18.2995 26.1546 18.2723C26.1683 18.2548 26.1811 18.2365 26.1932 18.2173C26.1952 18.2145 26.1977 18.2112 26.1998 18.2068C26.2126 18.1876 26.2242 18.1681 26.2354 18.1482C26.2773 18.0774 26.3113 18.0022 26.3395 17.9233C26.3445 17.9102 26.349 17.896 26.3532 17.8826C26.3565 17.8712 26.3602 17.8594 26.364 17.8484C26.3673 17.835 26.371 17.8216 26.3747 17.8082C26.388 17.7561 26.3984 17.7028 26.4054 17.6479C26.4067 17.6373 26.4075 17.6263 26.4087 17.6158C26.4116 17.5918 26.4137 17.5674 26.4145 17.5434C26.4162 17.5194 26.4166 17.4962 26.4166 17.4726C26.4166 16.712 25.7885 16.0957 25.0132 16.0957L25.0157 16.0941Z" fill="white" stroke="white" stroke-linejoin="round"/>
<path d="M12.5082 16.333H10.8251C10.6456 16.333 10.5 16.5276 10.5 16.7677V24.0649C10.5 24.305 10.6456 24.4997 10.8251 24.4997H12.5082C12.6878 24.4997 12.8333 24.305 12.8333 24.0649V16.7677C12.8333 16.5276 12.6878 16.333 12.5082 16.333Z" fill="white" stroke="white" stroke-linejoin="round"/>
<path d="M11.2515 23.7695H12.0807" stroke="white" stroke-width="2" stroke-miterlimit="10"/>
</g>
<defs>
<radialGradient id="paint0_radial_3_22568" cx="0" cy="0" r="1" gradientUnits="userSpaceOnUse" gradientTransform="translate(17.5 -12.0313) rotate(90) scale(47.0313)">
<stop offset="0.0576858" stop-color="#27AE60"/>
<stop offset="1" stop-color="#0050BB"/>
</radialGradient>
<clipPath id="clip0_3_22568">
<rect width="17.5" height="16.4706" fill="white" transform="translate(9.3335 9.33301)"/>
</clipPath>
</defs>
</svg>
