<svg width="312" height="277" viewBox="0 0 312 277" fill="none" xmlns="http://www.w3.org/2000/svg">
<path fill-rule="evenodd" clip-rule="evenodd" d="M141.547 9.78613C174.939 9.78613 232.796 31.3856 257.965 48.2067C276.212 60.4077 282.038 100.424 282.038 142.033C282.038 215.071 210.834 241.534 133.244 241.534C55.6538 241.534 -10.5503 201.024 12.5511 128.18C35.6501 55.3306 63.959 9.78613 141.547 9.78613Z" fill="#53389E"/>
<path fill-rule="evenodd" clip-rule="evenodd" d="M104.22 23.2275H238.853C249.365 23.2275 257.964 31.8462 257.964 42.3748V227.801C257.964 238.33 249.365 246.943 238.853 246.943H104.22C93.712 246.943 85.1099 238.329 85.1099 227.801V42.3748C85.1099 31.8462 93.7132 23.2275 104.22 23.2275Z" fill="#6BB7BF"/>
<path fill-rule="evenodd" clip-rule="evenodd" d="M104.22 28.6406H238.853C246.391 28.6406 252.56 34.8215 252.56 42.3749V227.801C252.56 235.355 246.391 241.534 238.853 241.534H104.22C96.6839 241.534 90.5137 235.355 90.5137 227.801V42.3749C90.5137 34.8215 96.6839 28.6406 104.22 28.6406Z" fill="#E9D7FE"/>
<path fill-rule="evenodd" clip-rule="evenodd" d="M93.6569 38.1159L227.227 27.5801L242.21 218.278L108.638 228.814L93.6569 38.1159Z" fill="white"/>
<path fill-rule="evenodd" clip-rule="evenodd" d="M105.915 49.8777L221.292 40.2236L222.507 55.7106L107.128 65.3635L105.915 49.8777Z" fill="#C7DCF5"/>
<path fill-rule="evenodd" clip-rule="evenodd" d="M110.846 78.0215L217.273 69.4328C218.659 69.32 219.667 70.4165 220.003 71.7782C220.003 73.1759 219.058 74.4104 217.669 74.5159L111.242 83.1034C109.854 83.2102 108.069 82.0933 108.511 80.7652V80.758C108.954 79.4299 109.448 78.1319 110.846 78.0215ZM111.554 87.0769L184.987 81.0903C186.382 80.9776 187.614 82.0309 187.727 83.4286C187.831 84.8322 186.779 86.0595 185.386 86.1735L111.953 92.154C110.565 92.2728 109.332 91.2122 109.219 89.8158C109.112 88.4181 110.162 87.1824 111.554 87.0769Z" fill="#C7DCF5"/>
<path fill-rule="evenodd" clip-rule="evenodd" d="M109.388 102.289L124.61 101.092L125.805 116.336L110.589 117.54L109.388 102.289Z" fill="#C7DCF5"/>
<path fill-rule="evenodd" clip-rule="evenodd" d="M136.603 100.706L219.213 94.187C220.605 94.0814 221.84 95.1359 221.946 96.5324C222.059 97.9289 221.006 99.1634 219.612 99.2713L137.01 105.788C135.609 105.895 134.383 104.842 134.273 103.444C134.157 102.049 135.209 100.812 136.603 100.706ZM137.322 109.756L186.934 105.845C188.332 105.734 189.557 106.786 189.669 108.184C189.783 109.58 188.727 110.816 187.334 110.929L137.72 114.839C136.327 114.951 135.093 113.897 134.98 112.5C134.875 111.104 135.926 109.868 137.322 109.756Z" fill="#C7DCF5"/>
<path fill-rule="evenodd" clip-rule="evenodd" d="M111.336 127.045L126.552 125.848L127.754 141.091L112.531 142.296L111.336 127.045Z" fill="#C7DCF5"/>
<path fill-rule="evenodd" clip-rule="evenodd" d="M138.553 125.461L221.155 118.944C222.548 118.837 223.783 119.891 223.894 121.288C224.001 122.686 222.953 123.92 221.555 124.028L138.953 130.545C137.557 130.651 136.327 129.596 136.22 128.2C136.107 126.803 137.157 125.569 138.553 125.461ZM139.262 134.511L188.878 130.602C190.271 130.49 191.505 131.542 191.61 132.94C191.723 134.336 190.669 135.572 189.276 135.682L139.66 139.594C138.264 139.705 137.034 138.653 136.928 137.255C136.817 135.859 137.87 134.623 139.262 134.511Z" fill="#C7DCF5"/>
<path fill-rule="evenodd" clip-rule="evenodd" d="M113.281 151.801L128.501 150.603L129.697 165.847L114.482 167.051L113.281 151.801Z" fill="#C7DCF5"/>
<path fill-rule="evenodd" clip-rule="evenodd" d="M140.494 150.215L223.104 143.699C224.499 143.593 225.731 144.648 225.839 146.044C225.949 147.442 224.898 148.676 223.503 148.783L140.893 155.302C139.499 155.407 138.273 154.352 138.161 152.956C138.052 151.558 139.101 150.322 140.494 150.215ZM141.206 159.267L190.82 155.356C192.214 155.243 193.447 156.298 193.559 157.696C193.666 159.093 192.618 160.328 191.22 160.438L141.61 164.35C140.215 164.462 138.984 163.407 138.871 162.011C138.764 160.615 139.809 159.379 141.206 159.267Z" fill="#C7DCF5"/>
<path fill-rule="evenodd" clip-rule="evenodd" d="M115.228 176.557L130.44 175.359L131.636 190.603L116.423 191.807L115.228 176.557Z" fill="#C7DCF5"/>
<path fill-rule="evenodd" clip-rule="evenodd" d="M142.445 174.972L225.046 168.453C226.442 168.347 227.673 169.403 227.786 170.798C227.892 172.197 226.84 173.43 225.446 173.536L142.845 180.055C141.449 180.159 140.217 179.106 140.106 177.708C139.997 176.313 141.048 175.076 142.445 174.972ZM143.154 184.022L192.77 180.113C194.164 179.999 195.396 181.054 195.503 182.451C195.614 183.847 194.564 185.082 193.169 185.194L143.553 189.104C142.159 189.217 140.927 188.164 140.82 186.766C140.706 185.37 141.759 184.134 143.154 184.022Z" fill="#C7DCF5"/>
<path fill-rule="evenodd" clip-rule="evenodd" d="M117.169 201.312L132.384 200.113L133.586 215.357L118.371 216.56L117.169 201.312Z" fill="#C7DCF5"/>
<path fill-rule="evenodd" clip-rule="evenodd" d="M144.385 199.727L226.994 193.21C228.388 193.102 229.617 194.159 229.728 195.555C229.84 196.952 228.788 198.186 227.394 198.292L144.783 204.808C143.391 204.915 142.157 203.862 142.051 202.465C141.938 201.07 142.99 199.833 144.385 199.727ZM145.097 208.777L194.71 204.867C196.104 204.753 197.338 205.807 197.451 207.203C197.555 208.6 196.505 209.836 195.109 209.949L145.496 213.859C144.102 213.973 142.875 212.919 142.762 211.522C142.65 210.126 143.702 208.889 145.097 208.777Z" fill="#C7DCF5"/>
<path fill-rule="evenodd" clip-rule="evenodd" d="M138.092 14.7816H161.772V9.786C161.772 4.40412 166.168 0 171.54 0C176.906 0 181.302 4.40412 181.302 9.786V14.7816H204.985C208.226 14.7816 210.884 17.4461 210.884 20.6949V31.9602C210.884 35.2102 208.226 37.8723 204.985 37.8723H138.092C134.849 37.8723 132.19 35.2102 132.19 31.9602V20.6949C132.19 17.4461 134.849 14.7816 138.092 14.7816ZM171.54 5.84377C173.924 5.84377 175.859 7.77889 175.859 10.1723C175.859 12.5609 173.924 14.5008 171.54 14.5008C169.15 14.5008 167.22 12.5609 167.22 10.1723C167.22 7.77769 169.15 5.84377 171.54 5.84377Z" fill="#599DAD"/>
<path fill-rule="evenodd" clip-rule="evenodd" d="M109.172 103.519C108.63 102.796 108.772 101.765 109.496 101.222C110.216 100.682 111.242 100.823 111.784 101.548L117.599 109.32L131.326 95.3852C131.959 94.7361 133 94.7301 133.646 95.3648C134.287 96.003 134.294 97.0372 133.664 97.6862L118.595 112.974C118.539 113.03 118.478 113.087 118.413 113.136C117.685 113.678 116.667 113.528 116.123 112.805L109.172 103.519Z" fill="#53389E"/>
<path fill-rule="evenodd" clip-rule="evenodd" d="M111.111 128.274C110.573 127.55 110.714 126.521 111.442 125.979C112.167 125.435 113.185 125.579 113.728 126.303L119.541 134.069L133.274 120.141C133.909 119.492 134.941 119.486 135.591 120.122C136.233 120.752 136.245 121.794 135.609 122.442L120.542 137.729C120.487 137.786 120.426 137.841 120.358 137.892C119.636 138.435 118.608 138.283 118.067 137.561L111.111 128.274Z" fill="#53389E"/>
<path fill-rule="evenodd" clip-rule="evenodd" d="M113.054 153.029C112.51 152.299 112.662 151.277 113.384 150.735C114.106 150.192 115.133 150.336 115.676 151.058L121.489 158.825L135.215 144.896C135.85 144.248 136.889 144.241 137.532 144.871C138.181 145.507 138.185 146.548 137.55 147.196L122.484 162.485C122.428 162.54 122.366 162.591 122.297 162.641C121.577 163.189 120.548 163.039 120.007 162.316L113.054 153.029Z" fill="#53389E"/>
<path fill-rule="evenodd" clip-rule="evenodd" d="M115.005 177.785C114.462 177.062 114.607 176.032 115.326 175.49C116.054 174.948 117.077 175.091 117.617 175.814L123.43 183.586L137.163 169.652C137.798 169.003 138.831 168.997 139.48 169.634C140.121 170.272 140.132 171.307 139.498 171.955L124.434 187.243C124.373 187.299 124.314 187.354 124.247 187.403C123.524 187.947 122.496 187.797 121.955 187.073L115.005 177.785Z" fill="#53389E"/>
<path fill-rule="evenodd" clip-rule="evenodd" d="M156.003 249.562C69.8442 249.562 0 255.705 0 263.28C0 270.857 69.8442 277.001 156.003 277.001C242.159 277.001 312 270.857 312 263.28C312 255.705 242.159 249.562 156.003 249.562Z" fill="#F4EBFF"/>
<path fill-rule="evenodd" clip-rule="evenodd" d="M281.776 206.37L225.638 208.646V263.747L281.776 259.735V206.37Z" fill="#F99746"/>
<path fill-rule="evenodd" clip-rule="evenodd" d="M185.92 205.284L225.638 208.646V263.747L185.92 256.699V205.284Z" fill="#DE7B2A"/>
<path fill-rule="evenodd" clip-rule="evenodd" d="M231.558 205.091L185.92 205.284L225.638 208.646L281.776 206.37L231.558 205.091Z" fill="#F19C16"/>
<path fill-rule="evenodd" clip-rule="evenodd" d="M202.201 206.662V224.459L209.358 225.544V207.268L202.201 206.662Z" fill="#B5453C"/>
<path fill-rule="evenodd" clip-rule="evenodd" d="M202.201 242.221V259.586L209.358 260.885V243.306L202.201 242.221Z" fill="#B5453C"/>
<path fill-rule="evenodd" clip-rule="evenodd" d="M256.757 205.735L209.357 207.267L205.779 206.968L202.199 206.662L253.007 205.639L256.757 205.735Z" fill="#B5453C"/>
<path fill-rule="evenodd" clip-rule="evenodd" d="M292.451 153.223L237.179 152.418V208.709L292.451 205.766V153.223Z" fill="#F99746"/>
<path fill-rule="evenodd" clip-rule="evenodd" d="M198.075 155.381L237.179 152.418V208.709L198.075 205.236V155.381Z" fill="#DE7B2A"/>
<path fill-rule="evenodd" clip-rule="evenodd" d="M214.102 154.165V170.477L221.147 170.8V153.636L214.102 154.165Z" fill="#B5453C"/>
<path fill-rule="evenodd" clip-rule="evenodd" d="M214.102 188.183L214.083 206.658L221.147 207.288L221.155 188.295L214.102 188.183Z" fill="#B5453C"/>
<path fill-rule="evenodd" clip-rule="evenodd" d="M305.214 229.741L268.647 231.225V267.114L305.214 264.5V229.741Z" fill="#F99746"/>
<path fill-rule="evenodd" clip-rule="evenodd" d="M242.777 229.036L268.647 231.226V267.115L242.777 262.524V229.036Z" fill="#DE7B2A"/>
<path fill-rule="evenodd" clip-rule="evenodd" d="M272.507 228.912L242.777 229.036L268.647 231.225L305.214 229.741L272.507 228.912Z" fill="#F19C16"/>
<path fill-rule="evenodd" clip-rule="evenodd" d="M253.377 229.927V241.524L258.042 242.227V230.326L253.377 229.927Z" fill="#B5453C"/>
<path fill-rule="evenodd" clip-rule="evenodd" d="M253.377 253.094V264.408L258.042 265.249V253.803L253.377 253.094Z" fill="#B5453C"/>
<path fill-rule="evenodd" clip-rule="evenodd" d="M288.918 229.322L258.042 230.326L255.712 230.126L253.377 229.927L286.474 229.26L288.918 229.322Z" fill="#B5453C"/>
<path fill-rule="evenodd" clip-rule="evenodd" d="M281.776 206.37V214.216L233.09 217.766L233.076 208.348L237.179 208.711L281.776 206.37Z" fill="#DE7B2A"/>
<path fill-rule="evenodd" clip-rule="evenodd" d="M158.648 269.772L161.363 223.006L138.292 219.257L134.67 261.333L158.648 269.772Z" fill="#F99746"/>
<path fill-rule="evenodd" clip-rule="evenodd" d="M169.96 264.147L158.648 269.771L161.363 223.005L166.566 221.774L169.96 264.147Z" fill="#DE7B2A"/>
<path fill-rule="evenodd" clip-rule="evenodd" d="M163.963 222.395L163.173 260.692L158.647 269.772L161.361 223.006L163.963 222.395Z" fill="#B5453C"/>
<path fill-rule="evenodd" clip-rule="evenodd" d="M163.174 260.691L169.96 264.147L158.648 269.771L163.174 260.691Z" fill="#B5453C"/>
<path fill-rule="evenodd" clip-rule="evenodd" d="M140.415 218.726L138.292 219.256L161.363 223.005L166.566 221.774L140.415 218.726Z" fill="#DE7B2A"/>
<path fill-rule="evenodd" clip-rule="evenodd" d="M154.396 224.758C154.203 225.2 154.396 225.723 154.826 225.923C155.255 226.117 155.76 225.916 155.952 225.472C160.484 215.02 159.696 206.724 156.887 201.941C155.398 199.389 153.332 197.805 151.151 197.362C148.924 196.907 146.617 197.638 144.698 199.74C141.529 203.225 139.46 210.648 140.982 222.91C141.043 223.391 141.465 223.735 141.934 223.679C142.401 223.615 142.731 223.172 142.675 222.685C141.232 211.03 143.074 204.104 145.943 200.948C147.42 199.328 149.167 198.76 150.829 199.098C152.541 199.453 154.203 200.749 155.43 202.851C157.987 207.218 158.667 214.908 154.396 224.758Z" fill="#B5453C"/>
<path fill-rule="evenodd" clip-rule="evenodd" d="M144.418 219.195C142.488 211.704 143.447 205.735 145.662 201.954C147.151 199.409 149.223 197.82 151.398 197.376C153.625 196.921 155.941 197.65 157.852 199.751C160.872 203.071 162.889 209.969 161.764 221.215L160.067 221.015C161.14 210.375 159.339 203.962 156.608 200.968C155.129 199.347 153.389 198.772 151.726 199.115C150.009 199.464 148.354 200.763 147.12 202.864C145.046 206.406 144.212 212.125 146.237 219.405L144.418 219.195Z" fill="#B5453C"/>
<path fill-rule="evenodd" clip-rule="evenodd" d="M133.892 272.354L136.604 236.123L113.535 233.216L109.918 265.815L133.892 272.354Z" fill="#F99746"/>
<path fill-rule="evenodd" clip-rule="evenodd" d="M145.201 268L133.892 272.352L136.604 236.121L141.809 235.166L145.201 268Z" fill="#DE7B2A"/>
<path fill-rule="evenodd" clip-rule="evenodd" d="M139.207 235.647L138.416 265.319L133.892 272.352L136.604 236.121L139.207 235.647Z" fill="#B5453C"/>
<path fill-rule="evenodd" clip-rule="evenodd" d="M138.416 265.319L145.201 268.001L133.892 272.353L138.416 265.319Z" fill="#B5453C"/>
<path fill-rule="evenodd" clip-rule="evenodd" d="M115.657 232.809L113.534 233.214L136.603 236.121L141.808 235.166L115.657 232.809Z" fill="#DE7B2A"/>
<path fill-rule="evenodd" clip-rule="evenodd" d="M129.636 237.475C129.447 237.825 129.636 238.23 130.067 238.38C130.496 238.537 131.003 238.38 131.195 238.036C135.735 229.935 134.937 223.509 132.134 219.8C130.641 217.829 128.573 216.601 126.395 216.256C124.168 215.901 121.858 216.469 119.945 218.097C116.771 220.798 114.705 226.549 116.223 236.048C116.284 236.42 116.709 236.69 117.175 236.64C117.643 236.598 117.971 236.252 117.915 235.878C116.473 226.841 118.314 221.478 121.185 219.032C122.66 217.778 124.41 217.334 126.072 217.597C127.783 217.873 129.446 218.876 130.678 220.51C133.236 223.892 133.909 229.854 129.636 237.475Z" fill="#B5453C"/>
<path fill-rule="evenodd" clip-rule="evenodd" d="M119.66 233.165C117.732 227.364 118.694 222.736 120.905 219.812C122.399 217.84 124.464 216.611 126.64 216.263C128.872 215.914 131.183 216.481 133.092 218.109C136.112 220.679 138.134 226.018 137.003 234.738L135.311 234.581C136.38 226.336 134.582 221.372 131.855 219.044C130.379 217.79 128.632 217.349 126.968 217.611C125.248 217.886 123.594 218.89 122.361 220.517C120.288 223.262 119.454 227.697 121.483 233.336L119.66 233.165Z" fill="#B5453C"/>
<path fill-rule="evenodd" clip-rule="evenodd" d="M39.4794 82.7055C40.6804 82.7871 41.8394 81.3654 42.1759 80.9335C43.4487 79.3127 44.2666 77.4028 44.5911 76.3351C44.342 75.626 44.0882 74.7287 43.814 73.6429C39.1872 70.4913 38.5526 68.1591 41.9149 66.651C42.5902 67.0289 43.4344 68.2035 44.4354 70.1686C45.2389 70.1374 45.8483 69.7247 46.2602 68.9401C45.3071 65.6229 44.6857 62.9331 44.3983 60.8637C46.6769 57.4637 52.0065 56.9814 59.0652 57.9004C59.3945 59.7839 59.6627 61.7718 59.8747 63.8809C61.1176 65.0278 60.9595 69.3 59.8112 74.2284C60.3859 77.0225 58.6617 78.5509 54.6336 78.8053C54.5953 79.4855 54.66 80.2605 54.6696 80.7332C54.6839 81.1639 54.6947 82.0001 55.1425 82.1296L55.8897 82.318C55.8143 92.3283 50.6966 94.2515 39.4794 82.7055Z" fill="#FFB27D"/>
<path fill-rule="evenodd" clip-rule="evenodd" d="M59.064 57.9C52.0066 56.981 46.6758 57.4681 44.3971 60.8633C44.6845 62.9268 45.3059 65.6225 46.2591 68.9397C45.8484 69.7243 45.2377 70.1382 44.4342 70.1682C43.4332 68.2031 42.5891 67.0298 41.9137 66.6507C38.5514 68.1587 39.1872 70.4909 43.8128 73.6426C44.0798 74.7283 44.342 75.6257 44.5959 76.3347C40.4301 75.4013 36.9517 71.6714 36.4596 70.0554C31.6029 60.4686 37.02 56.4208 39.9141 54.9439C41.1977 45.4507 55.0109 53.6579 58.6414 47.8633C66.2484 52.211 61.205 57.8124 59.064 57.9Z" fill="#B5453C"/>
<path fill-rule="evenodd" clip-rule="evenodd" d="M49.9938 77.835C51.1289 78.3904 52.6712 78.7203 54.6373 78.8067C54.5942 79.475 54.6253 80.2428 54.6684 80.7178C52.6879 80.3351 51.1337 79.3754 49.9938 77.835Z" fill="#F08261"/>
<path fill-rule="evenodd" clip-rule="evenodd" d="M31.0629 270.139C26.6804 268.592 26.326 266.33 23.9659 265.223C21.5843 264.115 21.3089 262.131 23.6378 259.979C25.3549 261.352 27.4911 263.041 28.6166 262.15C29.3698 261.551 31.9274 261.589 32.4315 262.462C34.6623 267.644 37.7612 266.003 38.3706 268.363C38.4389 271.506 33.0745 270.849 31.0629 270.139Z" fill="#53389E"/>
<path fill-rule="evenodd" clip-rule="evenodd" d="M69.0563 264.982C61.3355 264.857 55.5652 264.764 52.895 263.921C50.0189 263.01 50.6164 261.252 52.2676 258.438C59.543 261.794 57.6068 257.752 61.0122 258.264C63.4022 260.191 66.9417 261.49 71.6379 262.145C73.6184 263.608 72.815 264.918 69.0563 264.982Z" fill="#53389E"/>
<path fill-rule="evenodd" clip-rule="evenodd" d="M65.2007 83.8338C61.3475 82.7181 57.8858 82.0378 54.8169 81.7931C54.2613 90.2822 49.8441 90.221 41.5653 81.6191C33.5894 82.2922 32.0268 82.3918 27.6013 83.8326C18.0328 92.9959 17.1492 103.568 12.144 115.655C17.6844 115.9 20.1738 116.565 23.9408 117.914C24.7491 115.019 25.4232 112.687 25.9716 110.921C25.8147 126.856 25.7585 137.773 25.7968 143.673C44.1182 150.951 59.2138 148.457 65.3756 142.795C65.463 128.628 65.5815 117.414 65.73 109.15C67.9212 111.738 69.952 113.746 71.8259 115.176C76.3186 110.01 79.3624 107.935 81.9104 104.89C76.2695 95.6161 68.1895 86.9818 65.2007 83.8338Z" fill="#6BB7BF"/>
<path fill-rule="evenodd" clip-rule="evenodd" d="M102.132 99.3568C92.5014 103.361 85.7636 106.673 81.9104 109.287L80.1981 106.747C78.6032 108.351 76.7843 109.917 74.5715 112.194C76.6191 114.339 78.8235 116.111 81.3811 117.601C88.0746 116.882 95.4625 111.812 103.563 102.375C106.083 101.871 107.932 100.958 109.122 99.6376C109.184 98.4211 108.575 97.1998 107.292 95.9761C110.644 93.7866 111.987 92.215 111.303 91.2744C106.04 94.5304 102.982 97.225 102.132 99.3568Z" fill="#FFB27D"/>
<path fill-rule="evenodd" clip-rule="evenodd" d="M65.3756 142.795C65.014 144.172 66.5155 152.262 66.7622 156.485C69.1977 171.546 67.1118 191.157 65.7971 216.38C63.4502 225.263 59.9825 237.106 60.2136 253.771C56.1221 255.026 54.6445 255.157 50.9493 254.215C48.3725 236.819 50.1363 222.892 52.4616 216.454C50.9673 206.514 48.7401 195.386 45.4964 179.331C41.8407 196.826 36.9541 209.806 34.8383 218.282C34.4205 227.726 32.5106 240.473 31.5144 256.522C28.4826 257.438 26.5907 257.7 23.4391 257.314C19.356 242.564 20.0409 226.509 21.7723 209.157C23.6151 188.301 20.5761 164.742 23.6199 156.576C25.1717 151.736 25.3765 147.439 25.7932 143.678C41.084 148.775 54.2757 148.484 65.3756 142.795Z" fill="#599DAD"/>
<path fill-rule="evenodd" clip-rule="evenodd" d="M28.6094 127.489C27.6347 127.636 26.7044 127.763 25.8291 127.881C25.7824 134.91 25.7728 140.174 25.7967 143.673C26.6624 144.065 27.8754 144.509 28.8297 144.628C28.8297 144.173 28.6777 143.132 28.6777 142.688C28.6154 137.312 28.5903 132.247 28.6154 127.489H28.6094ZM73.4125 113.41C70.7183 111.158 68.1463 107.497 65.712 102.439C65.9862 104.202 66.0916 106.562 66.0353 109.517C68.1152 111.925 70.0382 113.816 71.8259 115.168C72.3731 114.54 72.9024 113.952 73.4125 113.41ZM29.3758 99.7012C28.1867 103.539 27.0516 107.273 25.9715 110.922C25.9404 114.003 25.9129 116.892 25.8889 119.599C26.6804 119.524 27.5952 119.475 28.6908 119.448C28.8022 111.969 29.0309 105.383 29.3758 99.7012Z" fill="#599DAD"/>
<path fill-rule="evenodd" clip-rule="evenodd" d="M53.5608 105.214H73.7358C74.6554 105.214 75.3008 105.968 75.1499 106.898L70.6238 135.533C70.4729 136.457 69.6 137.217 68.6756 137.217H48.5054C47.5774 137.217 46.9452 136.458 47.0865 135.533L51.6115 106.898C51.7612 105.97 52.6388 105.214 53.5608 105.214Z" fill="#1C468A"/>
<path fill-rule="evenodd" clip-rule="evenodd" d="M14.0059 115.763C13.1342 119.304 12.7642 122.55 13.4839 126.846C15.6596 130.015 24.4473 128.242 47.0673 124.458C47.8779 125.2 49.5567 125.936 52.1024 125.605C54.466 125.013 54.5822 124.395 57.2332 121.889C57.8798 119.937 57.7481 118.45 56.8417 117.422C53.853 119.182 52.276 120.115 48.9089 120.229C49.8081 117.92 49.9423 116.431 49.3148 115.757C48.1689 116.681 47.4205 118.065 47.0733 119.916C29.2357 119.144 24.5371 119.243 22.159 120.49C22.4213 119.368 22.6464 118.383 22.8427 117.534C20.0672 116.586 17.8077 116.036 14.0059 115.763Z" fill="#FFB27D"/>
<path fill-rule="evenodd" clip-rule="evenodd" d="M52.7825 254.621C52.9633 256.143 52.9885 257.503 52.8567 258.706C58.9455 261.356 57.9146 258.297 60.3465 258.221C59.7358 257.141 59.3371 255.764 59.1575 254.092C56.5076 254.852 54.9905 255.02 52.7825 254.621ZM24.409 257.415C24.409 258.519 24.3024 259.493 24.0845 260.335C25.7105 261.62 27.5833 262.966 28.6166 262.15C29.1147 261.756 30.3864 261.638 31.3431 261.85C30.9516 260.515 30.639 258.844 30.4103 256.842C28.2742 257.415 26.6361 257.609 24.409 257.415Z" fill="#FFB27D"/>
<path fill-rule="evenodd" clip-rule="evenodd" d="M66.7633 156.484C56.0083 166.527 41.6335 166.557 23.6235 156.577C20.5809 164.743 23.6235 188.301 21.7759 209.157C20.0444 226.51 19.3595 242.564 23.4427 257.315C23.7791 257.359 24.0964 257.389 24.409 257.414C26.6373 257.608 28.2742 257.414 30.4091 256.84C30.7635 256.747 31.1311 256.641 31.5179 256.523C32.5141 240.473 34.424 227.725 34.8419 218.282C36.9577 209.806 41.8443 196.826 45.4999 179.332C48.7437 195.387 50.9708 206.513 52.4652 216.455C50.1398 222.893 48.3761 236.821 50.9529 254.216C51.6258 254.39 52.2293 254.522 52.7837 254.622C54.9917 255.021 56.5088 254.853 59.1586 254.091C59.4963 253.992 59.8424 253.892 60.2159 253.772C59.9848 237.107 63.4525 225.263 65.7994 216.381C67.113 191.158 69.1988 171.545 66.7633 156.484Z" fill="#F0F0F0"/>
<path fill-rule="evenodd" clip-rule="evenodd" d="M49.789 242.265C53.7164 243.33 57.311 243.655 60.5668 243.232C60.6386 242.364 60.72 241.525 60.8074 240.687C57.226 241.154 53.5285 240.917 49.7135 239.97C49.7267 240.724 49.7566 241.485 49.789 242.265ZM21.1269 245.258C25.3896 245.771 29.1698 245.484 32.4626 244.41C32.5452 243.512 32.6255 242.627 32.7117 241.755C29.0213 242.963 25.0795 243.376 20.8838 242.994C20.9592 243.75 21.0406 244.505 21.1269 245.258ZM31.9094 250.903C31.9777 250.01 32.0531 249.139 32.1202 248.272C28.8297 249.169 25.3417 249.463 21.6681 249.139C21.795 249.906 21.9243 250.667 22.074 251.421C25.7093 251.835 28.989 251.657 31.9094 250.903ZM60.3776 245.989C57.0536 246.538 53.5991 246.482 50.0081 245.807C50.0704 246.569 50.1314 247.342 50.2069 248.117C53.8793 248.896 57.2272 249.032 60.2662 248.533C60.2902 247.672 60.3285 246.825 60.3776 245.989Z" fill="#53389E"/>
</svg>
