<svg width="55" height="55" viewBox="0 0 55 55" fill="none" xmlns="http://www.w3.org/2000/svg">
<circle cx="27.5" cy="27.5" r="26" transform="matrix(-1 0 0 1 55 0)" fill="white" stroke="#C11574" stroke-width="3"/>
<rect x="3.75" y="4.00006" width="47.5" height="47.5" rx="23.75" fill="#FAA7E0"/>
<path d="M23.8542 28.0208C23.8542 28.0208 25.2214 29.5833 27.5 29.5833C29.7786 29.5833 31.1458 28.0208 31.1458 28.0208M30.3646 22.8125H30.375M24.6354 22.8125H24.6458M22.2917 33.75V36.1828C22.2917 36.7379 22.2917 37.0154 22.4054 37.1579C22.5044 37.2819 22.6544 37.354 22.8131 37.3538C22.9954 37.3536 23.2122 37.1803 23.6456 36.8335L26.1304 34.8457C26.638 34.4396 26.8918 34.2365 27.1745 34.0921C27.4252 33.964 27.6921 33.8704 27.9679 33.8138C28.2788 33.75 28.6038 33.75 29.2539 33.75H31.875C33.6252 33.75 34.5002 33.75 35.1687 33.4094C35.7567 33.1098 36.2348 32.6317 36.5344 32.0437C36.875 31.3752 36.875 30.5002 36.875 28.75V23.125C36.875 21.3748 36.875 20.4998 36.5344 19.8313C36.2348 19.2433 35.7567 18.7652 35.1687 18.4656C34.5002 18.125 33.6252 18.125 31.875 18.125H23.125C21.3748 18.125 20.4998 18.125 19.8313 18.4656C19.2433 18.7652 18.7652 19.2433 18.4656 19.8313C18.125 20.4998 18.125 21.3748 18.125 23.125V29.5833C18.125 30.5521 18.125 31.0364 18.2315 31.4338C18.5204 32.5122 19.3628 33.3546 20.4412 33.6435C20.8386 33.75 21.3229 33.75 22.2917 33.75ZM30.8854 22.8125C30.8854 23.1001 30.6522 23.3333 30.3646 23.3333C30.0769 23.3333 29.8437 23.1001 29.8437 22.8125C29.8437 22.5249 30.0769 22.2917 30.3646 22.2917C30.6522 22.2917 30.8854 22.5249 30.8854 22.8125ZM25.1562 22.8125C25.1562 23.1001 24.9231 23.3333 24.6354 23.3333C24.3478 23.3333 24.1146 23.1001 24.1146 22.8125C24.1146 22.5249 24.3478 22.2917 24.6354 22.2917C24.9231 22.2917 25.1562 22.5249 25.1562 22.8125Z" stroke="#7A271A" stroke-width="2" stroke-linecap="round" stroke-linejoin="round"/>
</svg>
