<svg width="40" height="40" viewBox="0 0 40 40" fill="none" xmlns="http://www.w3.org/2000/svg">
<circle cx="20" cy="20" r="19.5" fill="white" stroke="#B3B3B3"/>
<path d="M20.2212 23C21.8812 23 23.2212 21.66 23.2212 20V14C23.2212 12.34 21.8812 11 20.2212 11C18.5612 11 17.2212 12.34 17.2212 14V20C17.2212 21.66 18.5612 23 20.2212 23Z" fill="black"/>
<path d="M25.2217 20C25.2217 22.76 22.9817 25 20.2217 25C17.4617 25 15.2217 22.76 15.2217 20H13.2217C13.2217 23.53 15.8317 26.43 19.2217 26.92V30H21.2217V26.92C24.6117 26.43 27.2217 23.53 27.2217 20H25.2217Z" fill="black"/>
</svg>
