<svg width="83" height="83" viewBox="0 0 83 83" fill="none" xmlns="http://www.w3.org/2000/svg">
<circle cx="41.5" cy="41.5" r="41.5" fill="black" fill-opacity="0.5"/>
<path d="M43.9168 26.5833C43.9168 28.7004 39.1972 30.4167 33.3752 30.4167C27.5532 30.4167 22.8335 28.7004 22.8335 26.5833M43.9168 26.5833C43.9168 24.4662 39.1972 22.75 33.3752 22.75C27.5532 22.75 22.8335 24.4662 22.8335 26.5833M43.9168 26.5833V35.1262C41.5756 35.8293 40.0835 36.893 40.0835 38.0833M22.8335 26.5833V49.5833C22.8335 51.7004 27.5532 53.4167 33.3752 53.4167C35.9236 53.4167 38.2609 53.0878 40.0835 52.5405V38.0833M22.8335 34.25C22.8335 36.3671 27.5532 38.0833 33.3752 38.0833C35.9236 38.0833 38.2609 37.7545 40.0835 37.2071M22.8335 41.9167C22.8335 44.0338 27.5532 45.75 33.3752 45.75C35.9236 45.75 38.2609 45.4212 40.0835 44.8738M61.1668 38.0833C61.1668 40.2004 56.4472 41.9167 50.6252 41.9167C44.8032 41.9167 40.0835 40.2004 40.0835 38.0833M61.1668 38.0833C61.1668 35.9662 56.4472 34.25 50.6252 34.25C44.8032 34.25 40.0835 35.9662 40.0835 38.0833M61.1668 38.0833V53.4167C61.1668 55.5338 56.4472 57.25 50.6252 57.25C44.8032 57.25 40.0835 55.5338 40.0835 53.4167V38.0833M61.1668 45.75C61.1668 47.8671 56.4472 49.5833 50.6252 49.5833C44.8032 49.5833 40.0835 47.8671 40.0835 45.75" stroke="white" stroke-width="2.5" stroke-linecap="round" stroke-linejoin="round"/>
</svg>
