<svg width="18" height="18" viewBox="0 0 18 18" fill="none" xmlns="http://www.w3.org/2000/svg">
<path d="M10.577 10.8477L16.577 16.8477M15.5412 8.59895L10.5304 10.3008C10.3935 10.3474 10.325 10.3706 10.268 10.4098C10.2175 10.4445 10.1739 10.4881 10.1392 10.5386C10.1 10.5956 10.0768 10.6641 10.0302 10.8011L8.32833 15.8118C8.1173 16.4331 8.01179 16.7438 7.84679 16.8377C7.70382 16.9191 7.52995 16.925 7.38183 16.8534C7.21089 16.7707 7.08471 16.4679 6.83236 15.8622L1.32414 2.64089C1.08998 2.07885 0.972904 1.79783 1.02987 1.62202C1.07929 1.46949 1.19887 1.34991 1.35141 1.30048C1.52722 1.24352 1.80823 1.3606 2.37027 1.59475L15.5916 7.10297C16.1973 7.35532 16.5001 7.4815 16.5828 7.65245C16.6544 7.80057 16.6485 7.97443 16.5671 8.1174C16.4732 8.2824 16.1625 8.38792 15.5412 8.59895Z" stroke="#7F56D9" stroke-width="2" stroke-linecap="round" stroke-linejoin="round"/>
</svg>
