<svg width="28" height="31" viewBox="0 0 28 31" fill="none" xmlns="http://www.w3.org/2000/svg">
<path d="M19.2977 11.3263V7.23931C19.2977 4.22976 16.858 1.79004 13.8484 1.79004C10.8389 1.79004 8.39915 4.22976 8.39915 7.23932V11.3263M2.39406 13.1681L1.57666 21.8869C1.34426 24.3659 1.22805 25.6054 1.6394 26.5628C2.00075 27.4039 2.63398 28.0992 3.43761 28.5375C4.35242 29.0364 5.59736 29.0364 8.08725 29.0364H19.6096C22.0995 29.0364 23.3444 29.0364 24.2592 28.5375C25.0629 28.0992 25.6961 27.4039 26.0575 26.5628C26.4688 25.6054 26.3526 24.3659 26.1202 21.8869L25.3028 13.1681C25.1065 11.0747 25.0084 10.028 24.5376 9.2367C24.123 8.53976 23.5105 7.98193 22.7779 7.63418C21.946 7.23932 20.8948 7.23932 18.7922 7.23932L8.90464 7.23932C6.80209 7.23931 5.75082 7.23931 4.919 7.63417C4.18641 7.98193 3.57383 8.53976 3.15921 9.23669C2.68844 10.028 2.59031 11.0747 2.39406 13.1681Z" stroke="white" stroke-width="2" stroke-linecap="round" stroke-linejoin="round"/>
</svg>
