<svg width="59" height="74" viewBox="0 0 59 74" fill="none" xmlns="http://www.w3.org/2000/svg">
<circle cx="29.5" cy="44.5" r="29.5" fill="black" fill-opacity="0.25"/>
<path d="M14 29H15.9592C16.3283 29 16.5128 29 16.6613 29.0679C16.7921 29.1277 16.903 29.2238 16.9807 29.3449C17.0689 29.4823 17.095 29.665 17.1472 30.0303L17.8571 35M17.8571 35L19.435 46.5971C19.6352 48.0688 19.7353 48.8046 20.0871 49.3585C20.3972 49.8466 20.8416 50.2347 21.367 50.4761C21.9633 50.75 22.7059 50.75 24.1912 50.75H37.028C38.4418 50.75 39.1487 50.75 39.7264 50.4956C40.2358 50.2713 40.6728 49.9098 40.9884 49.4513C41.3464 48.9314 41.4787 48.237 41.7432 46.8481L43.7287 36.4245C43.8218 35.9357 43.8683 35.6913 43.8009 35.5002C43.7417 35.3327 43.6249 35.1915 43.4713 35.102C43.2963 35 43.0475 35 42.5499 35H17.8571ZM26 57.5C26 58.3284 25.3284 59 24.5 59C23.6716 59 23 58.3284 23 57.5C23 56.6716 23.6716 56 24.5 56C25.3284 56 26 56.6716 26 57.5ZM38 57.5C38 58.3284 37.3284 59 36.5 59C35.6716 59 35 58.3284 35 57.5C35 56.6716 35.6716 56 36.5 56C37.3284 56 38 56.6716 38 57.5Z" stroke="white" stroke-width="2" stroke-linecap="round" stroke-linejoin="round"/>
</svg>
