<svg width="55" height="55" viewBox="0 0 55 55" fill="none" xmlns="http://www.w3.org/2000/svg">
<circle cx="27.5" cy="27.5" r="26" transform="matrix(-1 0 0 1 55 0)" fill="white" stroke="#12B76A" stroke-width="3"/>
<rect x="3.75" y="4.00006" width="47.5" height="47.5" rx="23.75" fill="#D1FADF"/>
<path d="M17 18H18.3062C18.5522 18 18.6752 18 18.7742 18.0452C18.8614 18.0851 18.9353 18.1492 18.9871 18.2299C19.0459 18.3215 19.0633 18.4433 19.0981 18.6869L19.5714 22M19.5714 22L20.6233 29.7314C20.7568 30.7125 20.8235 31.2031 21.0581 31.5723C21.2648 31.8977 21.5611 32.1564 21.9114 32.3174C22.3089 32.5 22.8039 32.5 23.7941 32.5H32.352C33.2945 32.5 33.7658 32.5 34.151 32.3304C34.4905 32.1809 34.7818 31.9398 34.9923 31.6342C35.2309 31.2876 35.3191 30.8247 35.4955 29.8988L36.8191 22.9497C36.8812 22.6238 36.9122 22.4609 36.8672 22.3335C36.8278 22.2218 36.7499 22.1277 36.6475 22.068C36.5308 22 36.365 22 36.0332 22H19.5714ZM25 37C25 37.5523 24.5523 38 24 38C23.4477 38 23 37.5523 23 37C23 36.4477 23.4477 36 24 36C24.5523 36 25 36.4477 25 37ZM33 37C33 37.5523 32.5523 38 32 38C31.4477 38 31 37.5523 31 37C31 36.4477 31.4477 36 32 36C32.5523 36 33 36.4477 33 37Z" stroke="#039855" stroke-width="2" stroke-linecap="round" stroke-linejoin="round"/>
</svg>
