<svg width="28" height="28" viewBox="0 0 28 28" fill="none" xmlns="http://www.w3.org/2000/svg">
<path d="M24.5 3.5V2.55H25.45V3.5H24.5ZM13.5051 15.8384C13.1341 16.2094 12.5326 16.2094 12.1616 15.8384C11.7906 15.4674 11.7906 14.8659 12.1616 14.4949L13.5051 15.8384ZM23.55 12.8333V3.5H25.45V12.8333H23.55ZM24.5 4.45H15.1667V2.55H24.5V4.45ZM25.1718 4.17175L13.5051 15.8384L12.1616 14.4949L23.8282 2.82825L25.1718 4.17175Z" fill="#33363F"/>
<path d="M23.3335 17.5V17.5C23.3335 20.1666 23.3335 21.4999 22.5453 22.3601C22.4864 22.4244 22.4246 22.4862 22.3603 22.5451C21.5001 23.3333 20.1668 23.3333 17.5002 23.3333H10.6668C7.8384 23.3333 6.42419 23.3333 5.54551 22.4546C4.66683 21.5759 4.66683 20.1617 4.66683 17.3333V10.5C4.66683 7.83331 4.66683 6.49999 5.455 5.63986C5.51396 5.57551 5.57571 5.51376 5.64006 5.45479C6.50019 4.66663 7.83352 4.66663 10.5002 4.66663V4.66663" stroke="#33363F" stroke-width="1.9" stroke-linecap="round"/>
</svg>
