<svg width="28" height="30" viewBox="0 0 28 30" fill="none" xmlns="http://www.w3.org/2000/svg">
<path d="M25.4275 8.91476L13.8477 15.3479M13.8477 15.3479L2.26803 8.91476M13.8477 15.3479L13.8478 28.29M26.1087 20.877V9.81892C26.1087 9.35214 26.1087 9.11874 26.0399 8.91058C25.979 8.72643 25.8796 8.55739 25.7481 8.41477C25.5996 8.25355 25.3956 8.14021 24.9875 7.91351L14.9063 2.31287C14.52 2.09823 14.3268 1.9909 14.1222 1.94883C13.9412 1.91159 13.7544 1.91159 13.5733 1.94883C13.3688 1.9909 13.1756 2.09823 12.7892 2.31287L2.70806 7.91352C2.30002 8.14021 2.09599 8.25356 1.94743 8.41477C1.816 8.55739 1.71653 8.72643 1.65569 8.91058C1.58691 9.11874 1.58691 9.35214 1.58691 9.81893V20.877C1.58691 21.3438 1.58691 21.5772 1.65569 21.7854C1.71654 21.9695 1.816 22.1386 1.94743 22.2812C2.09599 22.4424 2.30002 22.5557 2.70806 22.7824L12.7892 28.3831C13.1756 28.5977 13.3688 28.705 13.5733 28.7471C13.7544 28.7843 13.9412 28.7843 14.1222 28.7471C14.3268 28.705 14.52 28.5977 14.9063 28.3831L24.9875 22.7824C25.3956 22.5557 25.5996 22.4424 25.7481 22.2812C25.8796 22.1386 25.979 21.9695 26.0399 21.7854C26.1087 21.5772 26.1087 21.3438 26.1087 20.877Z" stroke="white" stroke-width="2" stroke-linecap="round" stroke-linejoin="round"/>
</svg>
