<svg width="34" height="33" viewBox="0 0 34 33" fill="none" xmlns="http://www.w3.org/2000/svg">
<path d="M28.4275 9.91476L16.8477 16.3479M16.8477 16.3479L5.26803 9.91476M16.8477 16.3479L16.8478 29.29M29.1087 21.877V10.8189C29.1087 10.3521 29.1087 10.1187 29.0399 9.91058C28.979 9.72643 28.8796 9.55739 28.7481 9.41477C28.5996 9.25355 28.3956 9.14021 27.9875 8.91351L17.9063 3.31287C17.52 3.09823 17.3268 2.9909 17.1222 2.94883C16.9412 2.91159 16.7544 2.91159 16.5733 2.94883C16.3688 2.9909 16.1756 3.09823 15.7892 3.31287L5.70806 8.91352C5.30002 9.14021 5.09599 9.25356 4.94743 9.41477C4.816 9.55739 4.71653 9.72643 4.65569 9.91058C4.58691 10.1187 4.58691 10.3521 4.58691 10.8189V21.877C4.58691 22.3438 4.58691 22.5772 4.65569 22.7854C4.71654 22.9695 4.816 23.1386 4.94743 23.2812C5.09599 23.4424 5.30002 23.5557 5.70806 23.7824L15.7892 29.3831C16.1756 29.5977 16.3688 29.705 16.5733 29.7471C16.7544 29.7843 16.9412 29.7843 17.1222 29.7471C17.3268 29.705 17.52 29.5977 17.9063 29.3831L27.9875 23.7824C28.3956 23.5557 28.5996 23.4424 28.7481 23.2812C28.8796 23.1386 28.979 22.9695 29.0399 22.7854C29.1087 22.5772 29.1087 22.3438 29.1087 21.877Z" stroke="white" stroke-width="2" stroke-linecap="round" stroke-linejoin="round"/>
<path d="M22.9782 12.9425L10.7173 6.13086" stroke="white" stroke-width="2" stroke-linecap="round" stroke-linejoin="round"/>
</svg>
