<svg width="55" height="55" viewBox="0 0 55 55" fill="none" xmlns="http://www.w3.org/2000/svg">
<circle cx="27.5" cy="27.5" r="26" transform="matrix(-1 0 0 1 55 0)" fill="white" stroke="#6941C6" stroke-width="3"/>
<rect x="3.75" y="4.00006" width="47.5" height="47.5" rx="23.75" fill="#F4EBFF"/>
<path d="M37.9166 25.4167H17.0833M26.4583 29.5833H21.25M17.0833 23.5417L17.0833 31.4583C17.0833 32.6251 17.0833 33.2085 17.3104 33.6542C17.5101 34.0462 17.8288 34.3649 18.2208 34.5646C18.6665 34.7917 19.2499 34.7917 20.4166 34.7917L34.5833 34.7917C35.7501 34.7917 36.3335 34.7917 36.7791 34.5646C37.1711 34.3649 37.4898 34.0462 37.6896 33.6542C37.9166 33.2085 37.9166 32.6251 37.9166 31.4583V23.5417C37.9166 22.3749 37.9166 21.7915 37.6896 21.3459C37.4898 20.9539 37.1711 20.6352 36.7791 20.4354C36.3335 20.2083 35.7501 20.2083 34.5833 20.2083L20.4166 20.2083C19.2499 20.2083 18.6665 20.2083 18.2208 20.4354C17.8288 20.6351 17.5101 20.9539 17.3104 21.3459C17.0833 21.7915 17.0833 22.3749 17.0833 23.5417Z" stroke="#53389E" stroke-width="2" stroke-linecap="round" stroke-linejoin="round"/>
</svg>
