<svg width="83" height="83" viewBox="0 0 83 83" fill="none" xmlns="http://www.w3.org/2000/svg">
<circle cx="41.5" cy="41.5" r="41.5" fill="black" fill-opacity="0.5"/>
<path d="M59.25 36.1667H24.75M49.6667 20.8333V28.5M34.3333 20.8333V28.5M39.125 43.8333L42 41.9167V51.5M39.6042 51.5H44.3958M33.95 59.1667H50.05C53.2703 59.1667 54.8805 59.1667 56.1104 58.54C57.1924 57.9887 58.072 57.1091 58.6233 56.0271C59.25 54.7971 59.25 53.187 59.25 49.9667V33.8667C59.25 30.6464 59.25 29.0362 58.6233 27.8062C58.072 26.7243 57.1924 25.8447 56.1104 25.2934C54.8805 24.6667 53.2703 24.6667 50.05 24.6667H33.95C30.7297 24.6667 29.1195 24.6667 27.8896 25.2934C26.8076 25.8447 25.928 26.7243 25.3767 27.8062C24.75 29.0362 24.75 30.6464 24.75 33.8667V49.9667C24.75 53.187 24.75 54.7971 25.3767 56.0271C25.928 57.1091 26.8076 57.9887 27.8896 58.54C29.1195 59.1667 30.7297 59.1667 33.95 59.1667Z" stroke="white" stroke-width="2.5" stroke-linecap="round" stroke-linejoin="round"/>
</svg>
