<svg width="30" height="30" viewBox="0 0 30 30" fill="none" xmlns="http://www.w3.org/2000/svg">
<path d="M14.8478 19.4348C17.105 19.4348 18.9348 17.605 18.9348 15.3478C18.9348 13.0906 17.105 11.2608 14.8478 11.2608C12.5906 11.2608 10.7608 13.0906 10.7608 15.3478C10.7608 17.605 12.5906 19.4348 14.8478 19.4348Z" stroke="white" stroke-width="2" stroke-linecap="round" stroke-linejoin="round"/>
<path d="M24.0125 19.0632C23.8476 19.4368 23.7985 19.8511 23.8713 20.2529C23.9441 20.6546 24.1357 21.0253 24.4212 21.3172L24.4955 21.3915C24.7258 21.6216 24.9085 21.8948 25.0331 22.1955C25.1578 22.4962 25.2219 22.8185 25.2219 23.144C25.2219 23.4695 25.1578 23.7918 25.0331 24.0925C24.9085 24.3932 24.7258 24.6664 24.4955 24.8964C24.2655 25.1267 23.9923 25.3094 23.6916 25.4341C23.3909 25.5587 23.0686 25.6229 22.7431 25.6229C22.4175 25.6229 22.0952 25.5587 21.7945 25.4341C21.4938 25.3094 21.2207 25.1267 20.9906 24.8964L20.9163 24.8221C20.6244 24.5366 20.2537 24.3451 19.852 24.2722C19.4502 24.1994 19.0358 24.2485 18.6623 24.4134C18.296 24.5704 17.9836 24.8311 17.7635 25.1633C17.5435 25.4956 17.4254 25.885 17.4238 26.2835V26.494C17.4238 27.151 17.1629 27.781 16.6983 28.2455C16.2338 28.71 15.6038 28.971 14.9469 28.971C14.2899 28.971 13.6599 28.71 13.1954 28.2455C12.7309 27.781 12.4699 27.151 12.4699 26.494V26.3826C12.4603 25.9727 12.3277 25.5751 12.0891 25.2416C11.8506 24.9081 11.5172 24.654 11.1324 24.5125C10.7588 24.3476 10.3445 24.2985 9.94272 24.3713C9.54097 24.4441 9.17025 24.6357 8.87836 24.9212L8.80406 24.9955C8.57401 25.2258 8.30084 25.4085 8.00014 25.5331C7.69944 25.6578 7.37713 25.7219 7.05162 25.7219C6.72611 25.7219 6.40379 25.6578 6.1031 25.5331C5.8024 25.4085 5.52922 25.2258 5.29918 24.9955C5.06888 24.7655 4.88619 24.4923 4.76154 24.1916C4.63689 23.8909 4.57273 23.5686 4.57273 23.2431C4.57273 22.9175 4.63689 22.5952 4.76154 22.2945C4.88619 21.9938 5.06888 21.7207 5.29918 21.4906L5.37349 21.4163C5.659 21.1244 5.85053 20.7537 5.92338 20.352C5.99622 19.9502 5.94704 19.5358 5.78218 19.1623C5.62519 18.796 5.36452 18.4836 5.03225 18.2635C4.69998 18.0435 4.31062 17.9254 3.91209 17.9238H3.70155C3.04463 17.9238 2.41461 17.6629 1.95009 17.1983C1.48557 16.7338 1.22461 16.1038 1.22461 15.4469C1.22461 14.7899 1.48557 14.1599 1.95009 13.6954C2.41461 13.2309 3.04463 12.9699 3.70155 12.9699H3.81301C4.22294 12.9603 4.6205 12.8277 4.95402 12.5891C5.28753 12.3506 5.54157 12.0172 5.68311 11.6324C5.84797 11.2588 5.89714 10.8445 5.8243 10.4427C5.75145 10.041 5.55992 9.67025 5.27441 9.37836L5.2001 9.30406C4.96981 9.07401 4.78711 8.80084 4.66246 8.50014C4.53781 8.19944 4.47365 7.87713 4.47365 7.55162C4.47365 7.22611 4.53781 6.90379 4.66246 6.6031C4.78711 6.3024 4.96981 6.02922 5.2001 5.79918C5.43014 5.56888 5.70332 5.38619 6.00402 5.26154C6.30472 5.13689 6.62703 5.07273 6.95254 5.07273C7.27805 5.07273 7.60037 5.13689 7.90106 5.26154C8.20176 5.38619 8.47494 5.56888 8.70498 5.79918L8.77929 5.87349C9.07117 6.159 9.44189 6.35053 9.84364 6.42338C10.2454 6.49622 10.6598 6.44704 11.0333 6.28218H11.1324C11.4987 6.12519 11.8111 5.86452 12.0311 5.53225C12.2512 5.19998 12.3693 4.81062 12.3709 4.41209V4.20155C12.3709 3.54463 12.6318 2.91461 13.0963 2.45009C13.5609 1.98557 14.1909 1.72461 14.8478 1.72461C15.5047 1.72461 16.1347 1.98557 16.5993 2.45009C17.0638 2.91461 17.3247 3.54463 17.3247 4.20155V4.31301C17.3263 4.71154 17.4444 5.1009 17.6645 5.43317C17.8845 5.76544 18.1969 6.02611 18.5632 6.18311C18.9368 6.34797 19.3511 6.39714 19.7529 6.3243C20.1546 6.25145 20.5253 6.05992 20.8172 5.77441L20.8915 5.7001C21.1216 5.46981 21.3948 5.28711 21.6955 5.16246C21.9962 5.03781 22.3185 4.97365 22.644 4.97365C22.9695 4.97365 23.2918 5.03781 23.5925 5.16246C23.8932 5.28711 24.1664 5.46981 24.3964 5.7001C24.6267 5.93014 24.8094 6.20332 24.9341 6.50402C25.0587 6.80472 25.1229 7.12703 25.1229 7.45254C25.1229 7.77805 25.0587 8.10037 24.9341 8.40106C24.8094 8.70176 24.6267 8.97494 24.3964 9.20498L24.3221 9.27929C24.0366 9.57117 23.8451 9.94189 23.7722 10.3436C23.6994 10.7454 23.7485 11.1598 23.9134 11.5333V11.6324C24.0704 11.9987 24.3311 12.3111 24.6633 12.5311C24.9956 12.7512 25.385 12.8693 25.7835 12.8709H25.994C26.651 12.8709 27.281 13.1318 27.7455 13.5963C28.21 14.0609 28.471 14.6909 28.471 15.3478C28.471 16.0047 28.21 16.6347 27.7455 17.0993C27.281 17.5638 26.651 17.8247 25.994 17.8247H25.8826C25.4841 17.8263 25.0947 17.9444 24.7624 18.1645C24.4302 18.3845 24.1695 18.6969 24.0125 19.0632Z" stroke="white" stroke-width="2" stroke-linecap="round" stroke-linejoin="round"/>
</svg>
