<svg width="55" height="55" viewBox="0 0 55 55" fill="none" xmlns="http://www.w3.org/2000/svg">
<circle cx="27.5" cy="27.5" r="26" transform="matrix(-1 0 0 1 55 0)" fill="white" stroke="#D92D20" stroke-width="3"/>
<rect x="3.75" y="4" width="47.5" height="47.5" rx="23.75" fill="#FECDCA"/>
<path d="M19.1666 29.5833L20.8069 36.1443C20.853 36.3288 20.8761 36.4211 20.9034 36.5017C21.1699 37.2886 21.8786 37.842 22.7068 37.9097C22.7915 37.9166 22.8866 37.9166 23.0768 37.9166C23.315 37.9166 23.4341 37.9166 23.5344 37.9069C24.526 37.8107 25.3107 37.026 25.4069 36.0344C25.4166 35.9341 25.4166 35.815 25.4166 35.5768V20.7291M34.2708 29.0625C36.2844 29.0625 37.9166 27.4302 37.9166 25.4166C37.9166 23.4031 36.2844 21.7708 34.2708 21.7708M25.6771 20.7291H21.7708C19.182 20.7291 17.0833 22.8278 17.0833 25.4166C17.0833 28.0055 19.182 30.1041 21.7708 30.1041H25.6771C27.5171 30.1041 29.7679 31.0905 31.5045 32.0371C32.5175 32.5893 33.024 32.8655 33.3558 32.8248C33.6634 32.7872 33.896 32.649 34.0764 32.397C34.2708 32.1251 34.2708 31.5812 34.2708 30.4934V20.3398C34.2708 19.252 34.2708 18.7081 34.0764 18.4363C33.896 18.1842 33.6634 18.0461 33.3558 18.0084C33.024 17.9678 32.5175 18.2439 31.5045 18.7962C29.7679 19.7428 27.5171 20.7291 25.6771 20.7291Z" stroke="#B42318" stroke-width="2" stroke-linecap="round" stroke-linejoin="round"/>
</svg>
