<svg width="59" height="74" viewBox="0 0 59 74" fill="none" xmlns="http://www.w3.org/2000/svg">
<circle cx="29.5" cy="44.5" r="29.5" fill="black" fill-opacity="0.25"/>
<path d="M21 35L24 32M24 32L21 29M24 32H21C17.6863 32 15 34.6863 15 38M39 53L36 56M36 56L39 59M36 56H39C42.3137 56 45 53.3137 45 50M32.1258 46.1258C33.2991 46.6862 34.6129 47 36 47C40.9706 47 45 42.9706 45 38C45 33.0294 40.9706 29 36 29C31.0294 29 27 33.0294 27 38C27 39.3871 27.3138 40.7009 27.8742 41.8742M33 50C33 54.9706 28.9706 59 24 59C19.0294 59 15 54.9706 15 50C15 45.0294 19.0294 41 24 41C28.9706 41 33 45.0294 33 50Z" stroke="white" stroke-width="2" stroke-linecap="round" stroke-linejoin="round"/>
</svg>
