<svg width="55" height="55" viewBox="0 0 55 55" fill="none" xmlns="http://www.w3.org/2000/svg">
<circle cx="27.5" cy="27.5" r="26" transform="matrix(-1 0 0 1 55 0)" fill="white" stroke="#FDB022" stroke-width="3"/>
<rect x="3.75" y="4" width="47.5" height="47.5" rx="23.75" fill="#FEDF89"/>
<path d="M19.6875 37.9167V32.7084M19.6875 22.2917V17.0834M17.0833 19.6875H22.2916M17.0833 35.3125H22.2916M28.5416 18.125L26.7352 22.8218C26.4414 23.5856 26.2946 23.9674 26.0662 24.2887C25.8637 24.5734 25.615 24.8221 25.3303 25.0246C25.009 25.253 24.6272 25.3998 23.8634 25.6936L19.1666 27.5L23.8634 29.3065C24.6272 29.6002 25.009 29.7471 25.3303 29.9755C25.615 30.178 25.8637 30.4267 26.0662 30.7114C26.2946 31.0326 26.4414 31.4145 26.7352 32.1783L28.5416 36.875L30.3481 32.1783C30.6418 31.4145 30.7887 31.0326 31.0171 30.7114C31.2196 30.4267 31.4683 30.178 31.753 29.9755C32.0742 29.7471 32.4561 29.6002 33.2199 29.3065L37.9166 27.5L33.2199 25.6936C32.4561 25.3998 32.0742 25.253 31.753 25.0246C31.4683 24.8221 31.2196 24.5734 31.0171 24.2887C30.7887 23.9674 30.6418 23.5856 30.3481 22.8218L28.5416 18.125Z" stroke="#F79009" stroke-width="2" stroke-linecap="round" stroke-linejoin="round"/>
</svg>
