<svg width="22" height="22" viewBox="0 0 22 22" fill="none" xmlns="http://www.w3.org/2000/svg">
<path d="M6.54883 2.98828V5.96328C6.54883 6.45333 6.54883 6.69835 6.6442 6.88552C6.72809 7.05016 6.86194 7.18402 7.02659 7.26791C7.21376 7.36328 7.45878 7.36328 7.94883 7.36328H13.8988C14.3889 7.36328 14.6339 7.36328 14.8211 7.26791C14.9857 7.18402 15.1196 7.05016 15.2035 6.88552C15.2988 6.69835 15.2988 6.45333 15.2988 5.96328V3.86328M15.2988 18.7383V13.1383C15.2988 12.6482 15.2988 12.4032 15.2035 12.216C15.1196 12.0514 14.9857 11.9175 14.8211 11.8337C14.6339 11.7383 14.3889 11.7383 13.8988 11.7383H7.94883C7.45878 11.7383 7.21376 11.7383 7.02659 11.8337C6.86194 11.9175 6.72809 12.0514 6.6442 12.216C6.54883 12.4032 6.54883 12.6482 6.54883 13.1383V18.7383M18.7988 8.52308V14.5383C18.7988 16.0084 18.7988 16.7435 18.5127 17.305C18.2611 17.7989 17.8595 18.2005 17.3656 18.4522C16.804 18.7383 16.069 18.7383 14.5988 18.7383H7.24883C5.77869 18.7383 5.04362 18.7383 4.4821 18.4522C3.98818 18.2005 3.5866 17.7989 3.33494 17.305C3.04883 16.7435 3.04883 16.0084 3.04883 14.5383V7.18828C3.04883 5.71814 3.04883 4.98307 3.33494 4.42156C3.5866 3.92763 3.98818 3.52606 4.4821 3.27439C5.04362 2.98828 5.77869 2.98828 7.24883 2.98828H13.264C13.6921 2.98828 13.9061 2.98828 14.1075 3.03663C14.286 3.0795 14.4568 3.15021 14.6133 3.24616C14.7899 3.35438 14.9413 3.50572 15.2439 3.80838L17.9787 6.54318C18.2814 6.84585 18.4327 6.99718 18.5409 7.17378C18.6369 7.33036 18.7076 7.50106 18.7505 7.67963C18.7988 7.88103 18.7988 8.09505 18.7988 8.52308Z" stroke="white" stroke-width="1.3" stroke-linecap="round" stroke-linejoin="round"/>
</svg>
