<svg width="57" height="49" viewBox="0 0 57 49" fill="none" xmlns="http://www.w3.org/2000/svg">
<path d="M28.4998 35.0788C28.4998 41.6878 34.5937 47.0456 42.1109 47.0456C49.6281 47.0456 55.722 41.6878 55.722 35.0788C55.722 28.4697 49.6281 23.112 42.1109 23.112C34.5937 23.112 28.4998 28.4697 28.4998 35.0788ZM28.4998 35.0788C28.4998 32.3843 29.5127 29.8978 31.222 27.8975V6.35849M28.4998 35.0788C28.4998 37.0541 29.0442 38.9177 30.0083 40.5599C27.7149 42.2631 22.4179 43.4555 16.2498 43.4555C7.98088 43.4555 1.27759 41.3124 1.27759 38.6688V6.35849M31.222 6.35849C31.222 9.00212 24.5187 11.1452 16.2498 11.1452C7.98088 11.1452 1.27759 9.00212 1.27759 6.35849M31.222 6.35849C31.222 3.71486 24.5187 1.57178 16.2498 1.57178C7.98088 1.57178 1.27759 3.71486 1.27759 6.35849M1.27759 27.8987C1.27759 30.5423 7.98088 32.6854 16.2498 32.6854C22.2088 32.6854 27.3546 31.5725 29.7647 29.9613M31.222 17.1286C31.222 19.7722 24.5187 21.9153 16.2498 21.9153C7.98088 21.9153 1.27759 19.7722 1.27759 17.1286" stroke="#53389E" stroke-width="2" stroke-linecap="round" stroke-linejoin="round"/>
</svg>
