<svg width="23" height="23" viewBox="0 0 23 23" fill="none" xmlns="http://www.w3.org/2000/svg">
<path d="M11.5771 7.84765C13.234 7.84765 14.5771 6.5045 14.5771 4.84765C14.5771 3.19079 13.234 1.84765 11.5771 1.84765C9.92029 1.84765 8.57715 3.19079 8.57715 4.84765C8.57715 6.5045 9.92029 7.84765 11.5771 7.84765ZM11.5771 7.84765V21.8476M11.5771 21.8476C8.92498 21.8476 6.38144 20.7941 4.50608 18.9187C2.63072 17.0434 1.57715 14.4998 1.57715 11.8476H4.57715M11.5771 21.8476C14.2293 21.8476 16.7729 20.7941 18.6482 18.9187C20.5236 17.0434 21.5771 14.4998 21.5771 11.8476H18.5771" stroke="#7F56D9" stroke-width="2" stroke-linecap="round" stroke-linejoin="round"/>
</svg>
