<?xml version="1.0" encoding="UTF-8"?>
<svg width="752pt" height="752pt" version="1.1" fill="#ffffff" viewBox="0 0 752 752" xmlns="http://www.w3.org/2000/svg">
 <g>
  <path d="m537.02 151.05h-322.04c-28.887 0-52.094 23.207-52.094 52.094v252.42c0 28.887 23.207 52.094 52.094 52.094h80.035l41.676 70.562c8.0508 13.734 22.73 22.258 39.309 22.258 16.102 0 30.781-8.5234 39.309-22.258l41.676-70.562h80.031c28.887 0 52.094-23.207 52.094-52.094v-252.42c0.47266-28.887-23.207-52.094-52.094-52.094zm7.5781 304.98c0 4.2617-3.3164 7.5781-7.5781 7.5781h-92.824c-8.0508 0-15.156 4.2617-19.418 10.891l-47.828 81.457c-0.47266 0.47266-1.4219 0.47266-1.4219 0l-48.777-81.453c-3.7891-6.6289-11.367-10.891-19.418-10.891l-92.348-0.003907c-4.2617 0-7.5781-3.3164-7.5781-7.5781v-252.89c0-4.2617 3.3164-7.5781 7.5781-7.5781h322.04c4.2617 0 7.5781 3.3164 7.5781 7.5781z"/>
  <path d="m441.36 262.34-87.613 87.137-43.098-43.098c-8.5234-8.5234-22.73-8.5234-31.73 0-8.5234 8.5234-8.5234 22.73 0 31.73l59.199 58.727c4.2617 4.2617 9.9453 6.6289 15.629 6.6289 5.6836 0 11.367-2.3672 15.629-6.6289l103.24-103.24c8.5234-8.5234 8.5234-22.73 0-31.73-8.5273-8.5234-22.734-8.5234-31.258 0.47656z"/>
 </g>
</svg>
