<?xml version="1.0" encoding="UTF-8"?>
<svg width="752pt" height="752pt" version="1.1" viewBox="0 0 752 752" xmlns="http://www.w3.org/2000/svg">
 <g>
  <path d="m543.18 241.98c0-6.6289-5.2109-11.84-11.84-11.84h-310.67c-6.6289 0-11.84 5.2109-11.84 11.84v37.887h334.35z"/>
  <path d="m502.45 162.89c0-6.6289-5.2109-11.84-11.84-11.84h-229.21c-6.6289 0-11.84 5.2109-11.84 11.84v37.887h252.89z"/>
  <path d="m572.06 309.23h-392.12c-6.6289 0-11.84 5.2109-11.84 11.84v268.05c0 6.6289 5.2109 11.84 11.84 11.84h392.12c6.6289 0 11.84-5.2109 11.84-11.84v-268.05c0-6.6289-5.207-11.84-11.84-11.84zm-196.06 229.69c-45.938 0-83.824-37.414-83.824-83.824 0-45.938 37.414-83.824 83.824-83.824 46.414 0 83.824 37.887 83.824 83.824 0 46.41-37.887 83.824-83.824 83.824z"/>
  <path d="m361.79 413.89c-6.1562-3.7891-14.207 0.47266-14.207 7.5781v67.723c0 7.1055 8.0508 11.367 14.207 7.5781l50.672-33.625c5.2109-3.7891 5.2109-11.367 0-15.156z"/>
 </g>
</svg>
