<?xml version="1.0" encoding="UTF-8"?>
<svg width="752pt" height="752pt" version="1.1" fill="#ffffff" viewBox="0 0 752 752" xmlns="http://www.w3.org/2000/svg">
 <defs>
  <clipPath id="a">
   <path d="m139.21 202h473.58v348h-473.58z"/>
  </clipPath>
 </defs>
 <g clip-path="url(#a)">
  <path d="m139.21 239.34c0-20.094 16.301-36.383 36.375-36.383h400.83c20.09 0 36.375 16.23 36.375 36.383v273.32c0 20.09-16.305 36.379-36.375 36.379h-400.83c-20.09 0-36.375-16.227-36.375-36.379zm36.43 18.398c0-10.133 8.0039-18.352 18.258-18.352h364.2c10.086 0 18.262 8.1797 18.262 18.352v236.52c0 10.133-8.0039 18.348-18.262 18.348h-364.2c-10.082 0-18.258-8.1758-18.258-18.348zm54.645 54.504c0-10.059 8.2969-18.211 18.129-18.211h145.89c10.012 0 18.129 8.082 18.129 18.211v54.652c0 10.059-8.2969 18.211-18.129 18.211h-145.89c-10.012 0-18.129-8.082-18.129-18.211zm0 100.18c0-5.0273 4.1445-9.1055 9.2812-9.1055h163.58c5.125 0 9.2812 4.2227 9.2812 9.1055 0 5.0312-4.1445 9.1094-9.2812 9.1094h-163.58c-5.125 0-9.2812-4.2266-9.2812-9.1094zm0 36.43c0-5.0273 4.1445-9.1055 9.2812-9.1055h163.58c5.125 0 9.2812 4.2227 9.2812 9.1055 0 5.0312-4.1445 9.1094-9.2812 9.1094h-163.58c-5.125 0-9.2812-4.2266-9.2812-9.1094zm236.79-63.754c0-10.059 8.0625-18.211 18.195-18.211h18.254c10.047 0 18.195 8.082 18.195 18.211v54.652c0 10.055-8.0625 18.211-18.195 18.211h-18.254c-10.047 0-18.195-8.082-18.195-18.211zm0-63.746c0-15.09 12.129-27.324 27.324-27.324 15.086 0 27.32 12.129 27.32 27.324 0 15.086-12.129 27.32-27.32 27.32-15.09 0-27.324-12.129-27.324-27.32z" fill-rule="evenodd"/>
 </g>
</svg>
