<svg id="Layer_1" data-name="Layer 1" xmlns="http://www.w3.org/2000/svg" viewBox="0 0 7.34 7.74"><defs><style>.cls-1{fill-rule:evenodd;}</style></defs><title>Restaurant</title><path class="cls-1" d="M7.58,8.93h0a.5.5,0,0,0-.21,0,4.79,4.79,0,0,1-.75.17l-.27.05a2.22,2.22,0,0,1-.63,0A2,2,0,0,1,5.13,9a3.51,3.51,0,0,1-.4-.27L4.2,8.33l-.06-.06a3.4,3.4,0,0,1-.68-.74.47.47,0,0,1-.06-.2.35.35,0,0,1,.08-.22A.31.31,0,0,1,3.67,7a.53.53,0,0,1,.25,0,.85.85,0,0,1,.34.14c.14.1.29.2.42.31a.91.91,0,0,0,.14.07l.07,0A.71.71,0,0,1,5,7.47a1.77,1.77,0,0,1,.65,0h.06a1.28,1.28,0,0,0,.63-.18A2,2,0,0,1,7.12,7a2.13,2.13,0,0,1,1,.15.36.36,0,0,1,.4-.08l1.16.34A.47.47,0,0,1,10,7.8a2.4,2.4,0,0,1-.54,1.63A.33.33,0,0,1,9,9.57L7.86,9.18c-.11,0-.22-.06-.27-.21v0Zm.55-1.47A2,2,0,0,1,7.75,8.7a1,1,0,0,0-.17,0,.75.75,0,0,0-.3,0,4.77,4.77,0,0,1-.73.16l-.27.05a2,2,0,0,1-.55,0,1.56,1.56,0,0,1-.48-.14,5.84,5.84,0,0,1-.93-.71,3.07,3.07,0,0,1-.63-.67.13.13,0,0,1,0-.08.06.06,0,0,1,0,0l0,0h.15a.74.74,0,0,1,.24.12,4.18,4.18,0,0,1,.4.29.65.65,0,0,0,.17.09l0,0a.41.41,0,0,0-.05.09.31.31,0,0,0,0,.21.49.49,0,0,0,.36.18h.13l.13,0,.13.05a1.37,1.37,0,0,0,.34.07,1,1,0,0,0,.33-.07l.19,0h.17l0,0,0-.14s0,0,0,0h-.2l-.2,0h0a.88.88,0,0,1-.32,0,.8.8,0,0,1-.3-.06l-.13-.05-.16,0H5.08L5,8,4.9,8a.06.06,0,0,1,0-.06.18.18,0,0,1,0-.09.52.52,0,0,1,.18-.12,1.44,1.44,0,0,1,.55,0h.06a1.41,1.41,0,0,0,.77-.21,1.65,1.65,0,0,1,1.63,0Zm.95,1.87L8,8.93c-.15,0-.14,0,0-.15a2,2,0,0,0,.38-1.34c0-.05-.07-.16.12-.1l1.17.33a.21.21,0,0,1,.16.16,2.13,2.13,0,0,1-.5,1.44c-.06.09-.06.09-.15.06Zm-.67-.78a.16.16,0,0,0-.18.15.16.16,0,0,0,.15.19.16.16,0,0,0,.18-.15.16.16,0,0,0-.15-.19ZM6.5,7.49m-.77.21" transform="translate(-2.66 -1.87)"/><path class="cls-1" d="M6.87,2.81A3.44,3.44,0,0,1,9.48,5.69.35.35,0,0,1,9.4,6a.32.32,0,0,1-.24.11H3A.32.32,0,0,1,2.74,6a.35.35,0,0,1-.08-.26A3.45,3.45,0,0,1,5.27,2.81s0-.09,0-.13a.81.81,0,0,1,1.62,0s0,.09,0,.13ZM6.5,3A3.18,3.18,0,0,1,9.22,5.73a.07.07,0,0,1-.06.06H3a0,0,0,0,1,0,0l0,0A3.18,3.18,0,0,1,5.64,3a.55.55,0,0,1-.12-.33.55.55,0,0,1,1.1,0A.55.55,0,0,1,6.5,3Z" transform="translate(-2.66 -1.87)"/><path d="M3.51,4.85A2.88,2.88,0,0,1,4.21,4a2.75,2.75,0,0,1,.93-.52h0A3.52,3.52,0,0,0,3.76,4.87H3.51v0Z" transform="translate(-2.66 -1.87)"/><path class="cls-1" d="M2.7,6.32H9.44s0,0,0,0v.12s0,0,0,0-.22,0-.24.1a.05.05,0,0,1,0,0H3a.05.05,0,0,1,0,0c0-.09-.16-.1-.24-.1s0,0,0,0V6.35s0,0,0,0Z" transform="translate(-2.66 -1.87)"/><path class="cls-1" d="M6.07,2.39a.28.28,0,0,1,.29.29.29.29,0,0,1-.58,0,.28.28,0,0,1,.29-.29Z" transform="translate(-2.66 -1.87)"/></svg>