<?xml version="1.0" encoding="UTF-8"?>
<svg width="752pt" height="752pt" version="1.1" fill="#ffffff" viewBox="0 0 752 752" xmlns="http://www.w3.org/2000/svg">
 <g>
  <path d="m185.18 553.76h81.109c12.289 0 22.293-9.9961 22.293-22.293v-0.125l77.621 25.707c11.582 3.8398 23.527 5.7461 35.438 5.7461 16.59 0 33.113-3.6992 48.504-11.039l121.39-59.371c7.5234-3.6797 13.164-10.074 15.879-17.996 2.7188-7.9219 2.1836-16.434-1.5-23.953-7.5977-15.5-26.395-21.949-41.902-14.387l-69.348 33.832c-3.418-14.164-16.168-24.73-31.367-24.73l-48.504-0.003906-17.145-9.1445c-16.266-8.6758-34.609-13.262-53.043-13.262h-36.02v-0.54297c0-12.289-9.9961-22.293-22.293-22.293h-81.109c-12.293 0.007812-22.289 10.004-22.289 22.293v109.27c0 12.289 9.9961 22.293 22.289 22.293zm139.43-112.07c15.336 0 30.594 3.8164 44.129 11.035l19.25 10.266c0.10547 0.058594 0.21484 0.070313 0.31641 0.125 0.44141 0.21484 0.90625 0.38281 1.3789 0.53125 0.23047 0.070313 0.45312 0.16016 0.6875 0.21484 0.48828 0.10938 1 0.15625 1.5156 0.18359 0.18359 0.007812 0.36328 0.066406 0.55078 0.066406 0.027344 0 0.058594-0.007813 0.085937-0.007813l50.777-0.003906c7.3633 0 13.355 5.9922 13.355 13.387 0 7.3633-5.9922 13.359-13.355 13.359h-71.043c-5.2266 0-9.4727 4.2422-9.4727 9.4727 0 5.2266 4.2422 9.4727 9.4727 9.4727h71.043c12.48 0 23.301-7.1211 28.68-17.52l80.344-39.195c6.1406-2.9961 13.578-0.44141 16.578 5.6953 1.457 2.9727 1.6719 6.3398 0.59375 9.4766-1.0742 3.1406-3.3047 5.668-6.2852 7.1211l-121.3 59.332c-21.926 10.453-46.695 12.004-69.75 4.3711l-83.578-27.68v-69.703zm-142.77-19.488c0-1.8477 1.5-3.3477 3.3477-3.3477h81.109c1.8477 0 3.3477 1.5 3.3477 3.3477v109.27c0 1.8477-1.5 3.3477-3.3477 3.3477h-81.109c-1.8438 0-3.3477-1.5-3.3477-3.3477z"/>
  <path d="m420.71 410.11c0.14844 0.003907 0.28906 0.070313 0.4375 0.070313 0.14062 0 0.28125-0.042969 0.42187-0.046875 1.4453 0.058593 2.8945 0.10938 4.3516 0.10938 1.4492 0 2.8906-0.050782 4.3281-0.10938 0.14062 0.003906 0.27344 0.046875 0.41797 0.046875 0.14844 0 0.28516-0.0625 0.42969-0.070313 58.535-2.7148 105.33-51.176 105.33-110.37 0-59.012-46.504-107.37-104.79-110.36-0.44141-0.046875-0.875-0.050781-1.3203-0.03125-1.457-0.058594-2.918-0.10938-4.3906-0.10938-1.4922 0-2.9688 0.050781-4.4453 0.11328-0.4375-0.015625-0.86719-0.007812-1.3008 0.039063-58.273 2.9922-104.75 51.34-104.75 110.34 0 59.184 46.77 107.64 105.29 110.37zm-77.879-72.16h23.418c4.9648 16.797 13.219 32.449 24.328 46.23-21.121-8.8672-38.164-25.48-47.746-46.23zm174.65-38.211c0 6.6094-0.74219 13.051-2.0781 19.27h-25.742c0.91016-6.332 1.4258-12.758 1.4258-19.27 0-6.5117-0.51562-12.938-1.4258-19.266h25.742c1.332 6.2188 2.0781 12.652 2.0781 19.266zm-45.348 0c0 6.5273-0.56641 12.961-1.625 19.27h-35.117v-38.535h35.117c1.0586 6.3086 1.625 12.738 1.625 19.266zm-55.684 84.621c-13.879-13.082-24.152-28.961-30.266-46.41h30.266zm18.945-0.027343v-46.383h30.238c-6.1094 17.438-16.379 33.309-30.238 46.383zm0-122.8v-46.383c13.867 13.074 24.129 28.945 30.238 46.383zm-18.945-46.41v46.41h-30.266c6.1133-17.449 16.387-33.328 30.266-46.41zm0 65.355v38.535h-35.145c-1.0625-6.3086-1.625-12.738-1.625-19.27 0-6.5273 0.56641-12.961 1.625-19.266zm-54.289 38.535h-25.715c-1.3398-6.2188-2.0781-12.652-2.0781-19.27 0-6.6094 0.74219-13.047 2.0781-19.266h25.715c-0.90625 6.3281-1.4258 12.754-1.4258 19.266 0 6.5156 0.51953 12.941 1.4258 19.27zm99.062 65.191c11.121-13.785 19.375-29.441 24.344-46.25h23.453c-9.5938 20.762-26.652 37.379-47.797 46.25zm47.793-122.67h-23.453c-4.9648-16.809-13.223-32.465-24.344-46.254 21.148 8.875 38.207 25.492 47.797 46.254zm-118.44-46.234c-11.109 13.785-19.363 29.438-24.328 46.234h-23.418c9.5781-20.746 26.621-37.359 47.746-46.234z"/>
 </g>
</svg>
