<?xml version="1.0" encoding="UTF-8"?>
<svg width="752pt" height="752pt" version="1.1" viewBox="0 0 752 752" xmlns="http://www.w3.org/2000/svg">
 <g>
  <path d="m568.39 501.8h-29.602v-30.094c2.457 0.32031 4.9258 0.48438 7.4023 0.49609 21.148 0 40.691-11.285 51.266-29.602 10.574-18.316 10.574-40.879 0-59.195-10.574-18.316-30.117-29.602-51.266-29.602-2.4766 0.011719-4.9453 0.17578-7.4023 0.49609v-59.055l17.898 12.785h0.003906c1.2539 0.89453 2.7578 1.3789 4.2969 1.375 0.60156 0 1.1992-0.074219 1.7852-0.21094 2.1016-0.52344 3.8711-1.9414 4.8398-3.8789l14.801-29.598c1.6406-3.2891 0.62109-7.2852-2.3984-9.3828l-170.19-118.39-0.003906-0.003906c-2.5391-1.7656-5.9102-1.7656-8.4492 0l-170.19 118.39v0.003906c-3.0195 2.0977-4.043 6.0938-2.3984 9.3828l14.801 29.598h-0.003907c0.96875 1.9375 2.7344 3.3516 4.8359 3.875 2.1016 0.52344 4.3242 0.097656 6.0859-1.1602l17.902-12.777v147.35h-7.3984v-7.3984c0-1.9609-0.78125-3.8438-2.168-5.2344-1.3906-1.3867-3.2695-2.1641-5.2344-2.1641h-103.59c-4.0898 0-7.4023 3.3125-7.4023 7.3984v162.79c0 1.9609 0.78125 3.8438 2.168 5.2344 1.3867 1.3867 3.2695 2.1641 5.2344 2.1641h59.199-0.003907c1.9648 0 3.8438-0.77734 5.2344-2.1641 1.3867-1.3906 2.168-3.2734 2.168-5.2344v-7.3984h37-0.003906c1.9648 0 3.8438-0.78125 5.2344-2.168 1.3867-1.3867 2.168-3.2695 2.168-5.2344v-7.3984h49.578l42.535 28.355h-0.003906c1.2109 0.80859 2.6289 1.2383 4.0859 1.2422 0.53125 0 1.0625-0.058594 1.582-0.16797l236.79-51.797c3.3984-0.74609 5.8203-3.7539 5.8164-7.2305v-7.4023c-0.011719-9.8086-3.9102-19.211-10.848-26.148-6.9375-6.9336-16.34-10.836-26.148-10.848zm-362.59 88.797h-44.398v-148h44.398zm44.398-14.801h-29.598v-133.2h29.598zm273.79-73.996h-51.797v-59.199h22.719-0.003907c6.6445 11.383 16.871 20.246 29.082 25.203zm-126.54 0c-0.8125-3.3047-2.375-6.3711-4.5742-8.9688l-39.086-45.559v-78.668h19.758c20.223 9.8672 43.859 9.8672 64.082 0h19.758v14.801h-7.3984c-1.9648 0-3.8477 0.77734-5.2344 2.168l-9.5664 9.5664-9.5664-9.5664c-1.3906-1.3906-3.2695-2.168-5.2344-2.168h-22.199c-1.9609 0-3.8438 0.77734-5.2305 2.168l-22.199 22.199c-1.3867 1.3867-2.168 3.2695-2.168 5.2305v22.199c0 1.9609 0.78125 3.8438 2.168 5.2305 1.3867 1.3906 3.2695 2.168 5.2305 2.168h81.398v59.199zm8.1406-140.59c-15.703 0-30.758-6.2383-41.859-17.34-11.102-11.102-17.34-26.16-17.34-41.859 0-15.699 6.2383-30.758 17.34-41.859 11.102-11.102 26.156-17.336 41.859-17.336 15.699 0 30.758 6.2344 41.859 17.336 11.102 11.102 17.336 26.16 17.336 41.859-0.015625 15.695-6.2578 30.742-17.355 41.84s-26.145 17.34-41.84 17.359zm184.99 51.797c0.003906 13.547-6.1758 26.352-16.785 34.777-10.605 8.4258-24.477 11.547-37.672 8.4805-13.191-3.0703-24.262-11.992-30.062-24.234-1.2227-2.5703-3.8125-4.2148-6.6602-4.2227h-116.01v-11.738l17.863-17.863h16.07l12.633 12.633c2.8867 2.8867 7.5742 2.8867 10.461 0l12.633-12.633h46.32c2.8477-0.007813 5.4375-1.6523 6.6602-4.2227 5.7891-12.266 16.863-21.211 30.07-24.289s27.098 0.046875 37.711 8.4844c10.617 8.4414 16.793 21.266 16.77 34.828zm-337.64-122.05-8.0664-16.125 160.71-111.8 160.71 111.8-8.0664 16.125-148.35-105.96c-2.5703-1.8359-6.0234-1.8359-8.5977 0zm34.25-6.2734 118.4-84.574 118.39 84.574v73.566c-12.207 4.9414-22.434 13.789-29.074 25.16h-22.723v-22.199c0-1.9648-0.78125-3.8477-2.168-5.2344-1.3906-1.3867-3.2695-2.168-5.2344-2.168h-6.4453c13.715-13.938 21.352-32.742 21.246-52.297-0.10938-19.555-7.9531-38.27-21.816-52.059-13.867-13.793-32.625-21.531-52.18-21.531-19.555 0-38.316 7.7383-52.18 21.531-13.867 13.789-21.711 32.504-21.816 52.059-0.10938 19.555 7.5273 38.359 21.242 52.297h-6.4453c-4.0859 0-7.3984 3.3164-7.3984 7.4023v81.395h-51.801zm303.39 255.6-227.91 49.816-41.777-27.852h-0.003906c-1.2148-0.80859-2.6406-1.2422-4.0977-1.2461h-51.797v-103.59h77.992l38.625 45.059v-0.003906c1.1445 1.3477 1.7734 3.0547 1.7773 4.8203v9.3242c0 1.9609-0.78125 3.8438-2.168 5.2305s-3.2695 2.168-5.2344 2.168h-8.6719c-1.9609-0.007813-3.8398-0.78516-5.2305-2.168l-32.664-32.664-10.465 10.465 32.664 32.664v-0.003907c4.1523 4.1797 9.8047 6.5234 15.695 6.5039h8.6719c5.8906 0 11.535-2.3359 15.699-6.5 4.1641-4.1641 6.5-9.8086 6.5-15.695h170.2c5.8867 0 11.531 2.3359 15.695 6.5 4.1641 4.1641 6.5039 9.8086 6.5039 15.695z"/>
  <path d="m575.79 413c0 8.1719-6.625 14.801-14.801 14.801-8.1719 0-14.797-6.6289-14.797-14.801s6.625-14.801 14.797-14.801c8.1758 0 14.801 6.6289 14.801 14.801"/>
  <path d="m413 257.61v-7.3984h-14.801v7.3984c-5.8867 0-11.531 2.3398-15.695 6.5039-4.1641 4.1602-6.5039 9.8086-6.5039 15.695v7.3984c0 5.8906 2.3398 11.535 6.5039 15.699 4.1641 4.1641 9.8086 6.5 15.695 6.5v22.199c-4.0859 0-7.3984-3.3125-7.3984-7.3984v-7.3984h-14.801v7.3984c0 5.8867 2.3398 11.535 6.5039 15.699 4.1641 4.1602 9.8086 6.5 15.695 6.5v7.3984h14.801v-7.3984c5.8867 0 11.535-2.3398 15.695-6.5 4.1641-4.1641 6.5039-9.8125 6.5039-15.699v-7.3984c0-5.8867-2.3398-11.535-6.5039-15.699-4.1602-4.1602-9.8086-6.5-15.695-6.5v-22.199c1.9609 0 3.8438 0.77734 5.2305 2.168 1.3906 1.3867 2.168 3.2695 2.168 5.2305v7.3984h14.801v-7.3984c0-5.8867-2.3398-11.535-6.5039-15.695-4.1602-4.1641-9.8086-6.5039-15.695-6.5039zm7.3984 59.199v7.3984c0 1.9648-0.77734 3.8438-2.168 5.2344-1.3867 1.3867-3.2695 2.1641-5.2305 2.1641v-22.199c1.9609 0 3.8438 0.78125 5.2305 2.168 1.3906 1.3906 2.168 3.2695 2.168 5.2344zm-22.199-22.199c-4.0859 0-7.3984-3.3125-7.3984-7.4023v-7.3984c0-4.0859 3.3125-7.3984 7.3984-7.3984z"/>
  <path d="m274.57 166.65 10.465-10.465 29.598 29.598-10.465 10.465z"/>
  <path d="m235.41 205.81h44.398v14.801h-44.398z"/>
  <path d="m496.57 185.77 29.598-29.598 10.465 10.465-29.598 29.598z"/>
  <path d="m531.39 205.81h44.398v14.801h-44.398z"/>
 </g>
</svg>
