<?xml version="1.0" encoding="UTF-8"?>
<svg width="752pt" height="752pt" version="1.1" fill="#ffffff" viewBox="0 0 752 752" xmlns="http://www.w3.org/2000/svg">
 <path d="m170.94 517.6h232.53v-25.574c0-11.367 5.2109-21.785 13.734-29.363 7.5781-6.1562 15.156-11.84 22.258-16.574h-233.48v-177.12h277.99v39.309c7.5781-4.2617 16.102-6.6289 25.574-6.6289l8.5234-0.003906h0.94531v-33.152c0-18.941-15.629-34.57-34.57-34.57h-278.46c-18.941 0-34.57 15.629-34.57 34.57v175.7c0 4.2617-1.4219 8.9961-4.2617 12.312l-17.996 21.785c-1.4219 1.4219-1.8945 3.7891-1.8945 5.6836v10.418c0 12.785 10.418 23.203 23.68 23.203zm136.86-36.465h74.824v2.3672c0 6.6289-5.2109 11.84-11.84 11.84h-51.145c-6.6289 0-11.84-5.2109-11.84-11.84zm290.3-2.8438c4.2617 3.3164 6.6289 8.5234 6.6289 14.207v25.574h-181.85v-25.574c0-5.2109 2.3672-10.418 6.6289-14.207 23.207-18.941 48.305-31.73 53.043-34.098 0.47266-0.47266 0.94531-0.94531 0.94531-1.4219v-35.992c-4.7344-2.8398-7.5781-8.0508-7.5781-14.207v-37.414c0-18.469 15.156-33.625 33.625-33.625h3.7891l4.7344 0.003906c18.469 0 33.625 15.156 33.625 33.625v37.414c0 5.6836-2.8398 10.891-7.5781 14.207v35.992c0 0.47266 0.47266 1.4219 0.94531 1.4219 5.2109 2.3672 29.84 15.152 53.043 34.094zm-206.95-165.28-2.3672-0.47266c-2.8398-0.47266-5.6836-0.47266-8.5234-1.4219-9.4727-2.3672-18.941-6.6289-29.363-13.734-1.4219-0.94531-3.3164-2.3672-6.1562-2.3672s-4.2617 1.4219-6.1562 2.3672c-13.734 9.4727-26.52 14.68-39.309 15.156-3.3164 0-8.9961 1.4219-8.9961 9.4727v12.785 26.047c0 3.3164 0.47266 7.1055 1.4219 11.367 1.8945 8.5234 6.6289 16.574 14.207 24.152 8.9961 9.4727 20.836 16.574 35.992 22.258 0.94531 0.47266 1.8945 0.47266 3.3164 0.47266s2.8398-0.47266 3.7891-0.94531l3.7891-1.4219c3.3164-1.4219 6.1562-2.8398 9.4727-4.2617 11.84-6.1562 20.836-13.734 27.469-22.73 6.1562-8.0508 8.9961-16.102 9.4727-25.102 0.46484-5.2109 0.46484-11.367 0.46484-17.051v-26.047c0-4.7344-3.3125-8.0508-8.5234-8.5234zm-4.7344 51.621c-0.47266 6.1562-2.3672 11.84-7.1055 17.523-5.6836 7.5781-13.262 13.734-23.207 18.941-2.8398 1.4219-5.6836 2.8398-8.5234 3.7891-0.94531 0.47266-1.4219 0.47266-2.3672 0.94531v-47.355h-41.203v-23.207-9.9453c13.734-1.4219 26.992-6.6289 41.203-16.102v49.254h41.203v6.1562z"/>
</svg>
