<svg width="22" height="22" viewBox="0 0 22 22" fill="none" xmlns="http://www.w3.org/2000/svg">
<path d="M5 9L8.43431 12.4343C8.63232 12.6323 8.73133 12.7313 8.84549 12.7684C8.94591 12.8011 9.05409 12.8011 9.15451 12.7684C9.26867 12.7313 9.36768 12.6323 9.56569 12.4343L12.4343 9.56569C12.6323 9.36768 12.7313 9.26867 12.8455 9.23158C12.9459 9.19895 13.0541 9.19895 13.1545 9.23158C13.2687 9.26867 13.3677 9.36768 13.5657 9.56569L17 13M21 11C21 16.5228 16.5228 21 11 21C5.47715 21 1 16.5228 1 11C1 5.47715 5.47715 1 11 1C16.5228 1 21 5.47715 21 11Z" stroke="#667085" stroke-width="2" stroke-linecap="round" stroke-linejoin="round"/>
</svg>
