<svg width="36" height="35" viewBox="0 0 36 35" fill="none" xmlns="http://www.w3.org/2000/svg">
<g clip-path="url(#clip0_3_22507)">
<path d="M0.000919978 17.6758C-0.0993611 8.01167 7.87781 0.0982767 17.8184 0.000777988C27.759 -0.0967207 35.8988 7.6586 35.9991 17.3228C36.0994 26.9869 28.1222 34.9003 18.1816 34.9978C8.24096 35.0953 0.101201 27.34 0.000919978 17.6758Z" fill="url(#paint0_radial_3_22507)"/>
<g style="mix-blend-mode:multiply">
<path d="M-0.000133514 17.5012C-0.000133514 27.1634 8.06063 35 17.9993 35C21.9435 35 25.5885 33.7684 28.5488 31.6797C25.8837 33.035 22.8537 33.8043 19.6393 33.8043C9.02003 33.8043 0.409784 25.4335 0.409784 15.1097C0.409784 14.5477 0.434387 13.9895 0.487667 13.4395C0.167868 14.7429 -0.000253677 16.1021 -0.000253677 17.5013L-0.000133514 17.5012Z" fill="#FBD69E"/>
</g>
<path d="M17.8836 27.4531H18.1426C22.4554 27.4531 26.2697 24.53 28.592 20.0493C28.8449 19.5612 29.5786 19.9037 29.377 20.4158C27.3084 25.6696 23.0526 29.2741 18.1374 29.2741H17.8833C12.9514 29.2741 8.68312 25.6454 6.62212 20.3626C6.42208 19.85 7.1566 19.5085 7.408 19.9973C9.72748 24.5073 13.5543 27.4531 17.8836 27.4531Z" fill="#87594A"/>
<g style="mix-blend-mode:multiply">
<path d="M23.9109 8.30986C25.2401 8.17103 26.5709 8.5957 27.5568 9.47326C27.9301 9.79958 28.4957 9.92756 28.899 9.666C28.9038 9.66261 28.9086 9.65935 28.9133 9.65596C29.3155 9.39778 29.294 8.68775 28.7508 8.20475C27.3909 6.99445 25.5554 6.40866 23.7223 6.60011C22.9903 6.67618 22.5402 7.23571 22.7069 7.67543C22.7087 7.68091 22.7105 7.6864 22.7123 7.69176C22.8776 8.13486 23.4113 8.35758 23.9109 8.30986Z" fill="#FBD69E"/>
</g>
<g style="mix-blend-mode:multiply">
<path d="M12.0889 8.30986C10.7599 8.17103 9.42898 8.5957 8.44306 9.47326C8.06974 9.79958 7.50418 9.92756 7.10086 9.666C7.09606 9.66261 7.09126 9.65935 7.08658 9.65596C6.68434 9.39778 6.70582 8.68775 7.24906 8.20475C8.6089 6.99445 10.4444 6.40866 12.2775 6.60011C13.0095 6.67618 13.4597 7.23571 13.293 7.67543C13.2912 7.68091 13.2894 7.6864 13.2876 7.69176C13.1222 8.13486 12.5886 8.35758 12.0889 8.30986Z" fill="#FBD69E"/>
</g>
<path style="mix-blend-mode:darken" d="M23.7968 18.2794C23.2904 15.234 25.4192 12.3661 28.5516 11.8738C31.684 11.3815 34.6339 13.4512 35.1402 16.4966C35.6466 19.542 33.5178 22.4098 30.3854 22.9022C27.253 23.3945 24.3032 21.3248 23.7968 18.2794Z" fill="url(#paint1_radial_3_22507)"/>
<path style="mix-blend-mode:darken" d="M2.4685 21.3384C0.224798 19.157 0.224798 15.6203 2.4685 13.4389C4.7122 11.2576 8.34996 11.2576 10.5937 13.4389C12.8374 15.6203 12.8374 19.157 10.5937 21.3384C8.34996 23.5198 4.7122 23.5198 2.4685 21.3384Z" fill="url(#paint2_radial_3_22507)"/>
<path d="M20.7242 14.2383C21.0263 14.3075 21.3484 14.2542 21.6387 14.1028C22.4953 13.6559 23.5366 13.9334 23.7466 13.9671C23.9566 14.0008 25.0348 14.0633 25.6983 14.7546C25.9231 14.9887 26.2107 15.1402 26.5198 15.1686C26.8273 15.1969 27.1402 15.1051 27.2297 14.6943C27.2711 14.5042 27.2382 14.3048 27.1545 14.143C26.5336 12.9424 25.4666 12.0774 24.1492 11.866L24.0598 11.8517C22.741 11.6401 21.4431 12.1271 20.4579 13.0714C20.3243 13.1994 20.2264 13.3793 20.2044 13.5737C20.1578 13.9865 20.4242 14.1695 20.7243 14.2383H20.7242Z" fill="#87594A"/>
<path d="M15.2757 14.2383C14.9736 14.3075 14.6515 14.2542 14.3612 14.1028C13.5045 13.6559 12.4633 13.9334 12.2533 13.9671C12.0433 14.0008 10.9651 14.0633 10.3016 14.7546C10.0767 14.9887 9.7892 15.1402 9.48008 15.1686C9.17252 15.1969 8.85968 15.1051 8.77004 14.6943C8.72864 14.5042 8.76152 14.3048 8.84528 14.143C9.46628 12.9424 10.5332 12.0774 11.8507 11.866L11.9401 11.8517C13.2589 11.6401 14.5568 12.1271 15.542 13.0714C15.6756 13.1994 15.7735 13.3793 15.7954 13.5737C15.8421 13.9865 15.5757 14.1695 15.2756 14.2383H15.2757Z" fill="#87594A"/>
</g>
<defs>
<radialGradient id="paint0_radial_3_22507" cx="0" cy="0" r="1" gradientUnits="userSpaceOnUse" gradientTransform="translate(17.8989 14.9402) rotate(180) scale(17.9996 17.4996)">
<stop stop-color="#FDDB35"/>
<stop offset="0.482" stop-color="#FCD934"/>
<stop offset="0.655" stop-color="#FCD232"/>
<stop offset="0.779" stop-color="#FBC62E"/>
<stop offset="0.879" stop-color="#F9B528"/>
<stop offset="0.964" stop-color="#F89F21"/>
<stop offset="1" stop-color="#F7941E"/>
</radialGradient>
<radialGradient id="paint1_radial_3_22507" cx="0" cy="0" r="1" gradientUnits="userSpaceOnUse" gradientTransform="translate(29.4685 17.3881) rotate(180) scale(5.74536 5.58577)">
<stop stop-color="#FFA482"/>
<stop offset="0.311" stop-color="#FFA57F"/>
<stop offset="0.539" stop-color="#FFAB75"/>
<stop offset="0.74" stop-color="#FFB565"/>
<stop offset="0.925" stop-color="#FFC34F"/>
<stop offset="1" stop-color="#FFCA44"/>
</radialGradient>
<radialGradient id="paint2_radial_3_22507" cx="0" cy="0" r="1" gradientUnits="userSpaceOnUse" gradientTransform="translate(6.53117 0.058459) scale(5.74536 5.58577)">
<stop stop-color="#FFA482"/>
<stop offset="0.311" stop-color="#FFA57F"/>
<stop offset="0.539" stop-color="#FFAB75"/>
<stop offset="0.74" stop-color="#FFB565"/>
<stop offset="0.925" stop-color="#FFC34F"/>
<stop offset="1" stop-color="#FFCA44"/>
</radialGradient>
<clipPath id="clip0_3_22507">
<rect width="36" height="35" fill="white" transform="matrix(-1 0 0 1 36 0)"/>
</clipPath>
</defs>
</svg>
