<svg width="228" height="229" viewBox="0 0 228 229" fill="none" xmlns="http://www.w3.org/2000/svg">
<g clip-path="url(#clip0_18050_441721)">
<path d="M228 119.832C228 177.227 166.686 248.612 94.0762 224.023C39.8229 205.64 0 188.858 0 131.462C0 74.0663 74.7159 4.25781 132.004 4.25781C189.279 4.25781 228 62.4232 228 119.832Z" fill="#F1F1F1"/>
<path d="M39.8478 190.471H36.0327C36.0327 187.691 33.7784 185.432 31.0038 185.432C28.2292 185.432 25.9748 187.691 25.9748 190.471H22.1721L19.1746 218.462H42.8453L39.8478 190.471ZM31.0038 186.214C33.3448 186.214 35.2524 188.125 35.2524 190.471H26.7552C26.7552 188.125 28.6627 186.214 31.0038 186.214Z" fill="#AAAAAA"/>
<path d="M175.109 187.356C176.063 187.356 176.905 186.748 177.203 185.842L189.986 147.102C190.209 146.432 190.097 145.687 189.676 145.116C189.255 144.545 188.598 144.197 187.892 144.197H106.649L103.341 128.756C103.118 127.738 102.227 127.006 101.186 127.006H94.2744C93.0605 127.006 92.0696 127.999 92.0696 129.215C92.0696 130.432 93.0605 131.425 94.2744 131.425H99.4024L102.697 146.854L106.971 166.85V166.863L110.972 185.581V185.593L114.923 204.063C114.923 204.076 114.935 204.076 114.935 204.088C111.764 205.64 109.572 208.904 109.572 212.665C109.572 217.941 113.845 222.223 119.11 222.223C124.374 222.223 128.647 217.941 128.647 212.665C128.647 209.972 127.532 207.551 125.749 205.813H161.608C159.824 207.551 158.709 209.984 158.709 212.665C158.709 217.941 162.983 222.223 168.247 222.223C173.511 222.223 177.785 217.941 177.785 212.665C177.785 209.972 176.67 207.551 174.886 205.813H175.109C176.323 205.813 177.314 204.82 177.314 203.604C177.314 202.388 176.323 201.395 175.109 201.395H118.874L115.877 187.356H175.109ZM168.247 217.816C165.423 217.816 163.119 215.52 163.119 212.678C163.119 209.848 165.423 207.539 168.247 207.539C171.071 207.539 173.375 209.835 173.375 212.678C173.375 215.508 171.071 217.816 168.247 217.816ZM152.169 168.625V182.925H134.828V168.625H152.169ZM134.84 164.206V148.629H152.182V164.206H134.84ZM173.524 182.937H156.591V168.638H178.243L173.524 182.937ZM179.705 164.206H156.591V148.629H184.845L179.705 164.206ZM130.418 148.629V164.206H110.934L107.602 148.629H130.418ZM119.122 217.816C116.298 217.816 113.994 215.52 113.994 212.678C113.994 209.848 116.298 207.539 119.122 207.539C121.946 207.539 124.25 209.835 124.25 212.678C124.25 215.508 121.946 217.816 119.122 217.816ZM111.876 168.625H130.418V182.925H114.935L111.876 168.625Z" fill="#AAAAAA"/>
<path d="M114.39 24.9863H84.2786V52.9395H114.39V24.9863Z" fill="#DBDBDB"/>
<path d="M162.091 27.9531H118.02C117.561 27.9531 117.202 28.3255 117.202 28.7724C117.202 29.2316 117.574 29.5916 118.02 29.5916H162.091C162.549 29.5916 162.909 29.2192 162.909 28.7724C162.921 28.3255 162.549 27.9531 162.091 27.9531Z" fill="#AAAAAA"/>
<path d="M162.091 34.6426H118.02C117.561 34.6426 117.202 35.015 117.202 35.4618C117.202 35.9211 117.574 36.281 118.02 36.281H162.091C162.549 36.281 162.909 35.9087 162.909 35.4618C162.921 35.0025 162.549 34.6426 162.091 34.6426Z" fill="#AAAAAA"/>
<path d="M162.091 41.6309H118.02C117.561 41.6309 117.202 42.0032 117.202 42.4501C117.202 42.9094 117.574 43.2693 118.02 43.2693H162.091C162.549 43.2693 162.909 42.8969 162.909 42.4501C162.921 42.0032 162.549 41.6309 162.091 41.6309Z" fill="#AAAAAA"/>
<path d="M162.091 48.3223H118.02C117.561 48.3223 117.202 48.6946 117.202 49.1415C117.202 49.6008 117.574 49.9607 118.02 49.9607H162.091C162.549 49.9607 162.909 49.5884 162.909 49.1415C162.921 48.6946 162.549 48.3223 162.091 48.3223Z" fill="#AAAAAA"/>
<path d="M162.091 61.6914H118.02C117.561 61.6914 117.202 62.0638 117.202 62.5106C117.202 62.9699 117.574 63.3299 118.02 63.3299H162.091C162.549 63.3299 162.909 62.9575 162.909 62.5106C162.921 62.0638 162.549 61.6914 162.091 61.6914Z" fill="#AAAAAA"/>
<path d="M162.091 68.3809H118.02C117.561 68.3809 117.202 68.7532 117.202 69.2001C117.202 69.6594 117.574 70.0193 118.02 70.0193H162.091C162.549 70.0193 162.909 69.6469 162.909 69.2001C162.921 68.7532 162.549 68.3809 162.091 68.3809Z" fill="#AAAAAA"/>
<path d="M162.091 75.3828H118.02C117.561 75.3828 117.202 75.7552 117.202 76.202C117.202 76.6489 117.574 77.0213 118.02 77.0213H162.091C162.549 77.0213 162.909 76.6489 162.909 76.202C162.909 75.7552 162.549 75.3828 162.091 75.3828Z" fill="#AAAAAA"/>
<path d="M162.091 82.0723H118.02C117.561 82.0723 117.202 82.4446 117.202 82.8915C117.202 83.3383 117.574 83.7107 118.02 83.7107H162.091C162.549 83.7107 162.909 83.3383 162.909 82.8915C162.909 82.4446 162.549 82.0723 162.091 82.0723Z" fill="#AAAAAA"/>
<path d="M114.39 58.7246H84.2786V86.6778H114.39V58.7246Z" fill="#DBDBDB"/>
<path d="M162.091 95.4395H118.02C117.561 95.4395 117.202 95.8118 117.202 96.2587C117.202 96.7055 117.574 97.0779 118.02 97.0779H162.091C162.549 97.0779 162.909 96.7055 162.909 96.2587C162.909 95.8118 162.549 95.4395 162.091 95.4395Z" fill="#AAAAAA"/>
<path d="M162.091 102.117H118.02C117.561 102.117 117.202 102.49 117.202 102.936C117.202 103.383 117.574 103.756 118.02 103.756H162.091C162.549 103.756 162.909 103.383 162.909 102.936C162.909 102.49 162.549 102.117 162.091 102.117Z" fill="#AAAAAA"/>
<path d="M162.091 109.117H118.02C117.561 109.117 117.202 109.49 117.202 109.936C117.202 110.396 117.574 110.756 118.02 110.756H162.091C162.549 110.756 162.909 110.383 162.909 109.936C162.921 109.49 162.549 109.117 162.091 109.117Z" fill="#AAAAAA"/>
<path d="M162.091 115.809H118.02C117.561 115.809 117.202 116.181 117.202 116.628C117.202 117.087 117.574 117.447 118.02 117.447H162.091C162.549 117.447 162.909 117.075 162.909 116.628C162.921 116.181 162.549 115.809 162.091 115.809Z" fill="#AAAAAA"/>
<path d="M114.39 92.4609H84.2786V120.414H114.39V92.4609Z" fill="#DBDBDB"/>
<path d="M112.681 32.9062L95.7239 69.4241L135.708 67.4257L112.681 32.9062Z" fill="#AAAAAA"/>
<path d="M159.957 48.205C163.118 34.7885 154.827 21.3441 141.439 18.1761C128.051 15.0081 114.634 23.3161 111.473 36.7326C108.312 50.1492 116.602 63.5936 129.991 66.7616C143.379 69.9296 156.795 61.6216 159.957 48.205Z" fill="#AAAAAA"/>
<path d="M144.416 23.4848C142.632 21.6477 141.022 21.8215 139.994 22.2932C137.9 23.2365 136.439 26.1659 135.633 29.0581C134.828 26.1659 133.367 23.2365 131.273 22.2932C130.245 21.8215 128.635 21.6477 126.851 23.4848C125.774 24.5895 125.328 25.868 125.526 27.2831C126.17 31.7888 133.59 36.0463 133.912 36.2201L134.791 34.6561C132.859 33.5514 127.731 30.0387 127.31 27.0348C127.186 26.1907 127.458 25.446 128.14 24.7509C129.279 23.5717 130.059 23.7331 130.53 23.9441C132.908 25.024 134.754 31.1185 134.519 34.1969L134.94 34.2341C134.94 34.2713 134.94 34.3086 134.94 34.3334L135.621 34.2838L136.302 34.3334C136.302 34.2962 136.302 34.2589 136.302 34.2341L136.723 34.1969C136.488 31.131 138.334 25.024 140.712 23.9441C141.195 23.7331 141.963 23.5717 143.103 24.7509C143.784 25.446 144.056 26.1907 143.932 27.0348C143.511 30.0511 138.383 33.5638 136.451 34.6561L137.33 36.2201C137.652 36.0463 145.072 31.7888 145.716 27.2831C145.939 25.868 145.493 24.5895 144.416 23.4848Z" fill="#AAAAAA"/>
<path d="M148.54 34.6309H123.792V59.4312H148.54V34.6309Z" fill="#AAAAAA"/>
<path d="M150.324 33.8984H121.983V39.3972H150.324V33.8984Z" fill="#DBDBDB"/>
<path d="M148.528 46.1745H136.946V33.8984H134.531V46.1745H123.792V48.595H134.531V59.4312H136.946V48.595H148.528V46.1745Z" fill="#AAAAAA"/>
<path d="M163.825 0H82.8044V14.8827H163.825V0Z" fill="#AAAAAA"/>
<path d="M158.536 8.72575C159.676 8.09271 160.456 6.87627 160.456 5.48606C160.456 3.4504 158.796 1.78711 156.765 1.78711C154.733 1.78711 153.073 3.4504 153.073 5.48606C153.073 7.52173 154.733 9.18502 156.765 9.18502C157 9.18502 157.223 9.16019 157.446 9.12295L158.883 12.735C158.97 12.9584 159.192 13.095 159.415 13.095C159.49 13.095 159.564 13.0826 159.626 13.0577C159.923 12.9336 160.072 12.5985 159.948 12.3006L158.536 8.72575ZM154.238 5.48606C154.238 4.08344 155.377 2.95389 156.765 2.95389C158.164 2.95389 159.292 4.09585 159.292 5.48606C159.292 6.87627 158.152 8.03064 156.765 8.03064C155.377 8.01823 154.238 6.87627 154.238 5.48606Z" fill="#DBDBDB"/>
<path d="M44.5794 139.343C44.5794 139.343 43.1921 164.888 50.5498 175.067C50.5498 175.067 40.4671 185.245 39.4885 213.099H41.7429C41.7429 213.099 68.2626 178.927 67.7176 139.343L59.4062 132.678L44.5794 139.343Z" fill="#AAAAAA"/>
<path d="M55.2193 142.768C55.2193 142.768 67.9156 164.118 65.5373 216.239L62.7875 216.4C62.7875 216.4 51.9988 195.199 53.3861 185.542C53.3861 185.542 47.1061 181.297 40.3926 164.292C36.4289 154.238 38.1134 142.781 38.1134 142.781L45.8179 136.115L55.2193 142.768Z" fill="#DBDBDB"/>
<path d="M39.4884 211.795L37.5066 216.4L47.9237 219.938L42.102 212.602L39.4884 211.795Z" fill="#AAAAAA"/>
<path d="M62.7999 216.363L62.4902 221.365L73.4895 221.167L65.5373 216.227L62.7999 216.363Z" fill="#AAAAAA"/>
<path d="M61.45 78.8066C61.3013 68.2683 54.5506 68.2683 51.6026 69.4972C48.6546 70.726 42.5852 74.2264 44.7776 80.7554C46.5365 86.0183 43.9353 85.2239 43.4523 90.8592C43.2417 93.2176 46.9453 99.8335 46.9453 99.8335C54.1419 99.126 61.5986 89.3449 61.45 78.8066Z" fill="#4D5477"/>
<path d="M92.7756 78.807C93.2092 77.1189 94.5345 75.046 95.5131 74.7729C96.4916 74.4874 98.3124 71.9304 98.6345 72.1042C98.9442 72.2779 96.7146 75.2197 96.9499 75.53C97.2348 75.9024 98.1266 76.5975 97.6931 77.8264C97.1729 79.3159 94.6088 80.8799 94.6088 80.8799L93.395 80.855L92.7756 78.807Z" fill="#BEBEBE"/>
<path d="M51.0327 93.5789C52.804 96.7069 53.3118 100.48 51.7016 104.167C77.0569 111.254 94.584 80.8932 94.584 80.8932L92.7631 78.8203C76.2766 99.2266 60.6447 97.7495 51.0327 93.5789Z" fill="#787878"/>
<path d="M53.9683 72.0664C50.5372 72.0664 47.7502 76.0012 47.7502 80.8421C47.7502 82.1206 47.9484 83.3246 48.2953 84.4169V94.9801H53.9683V89.6302C57.3994 89.6302 60.1864 85.6954 60.1864 80.8545C60.1864 76.0012 57.4118 72.0664 53.9683 72.0664Z" fill="#CDCDCD"/>
<path d="M53.9684 90.0273C53.9684 90.0273 53.9189 91.7155 48.2954 90.0646C48.2954 90.0646 38.126 92.1747 38.126 112.444C38.126 129.139 38.126 142.768 38.126 142.768C58.0932 149.31 67.7299 142.768 67.7299 142.768C67.7299 142.768 69.2659 130.604 65.426 116.404C63.085 107.753 68.0396 106.623 61.0536 98.1824C59.4061 96.1964 57.4862 94.6697 53.9684 90.0273Z" fill="#AAAAAA"/>
<path d="M90.4345 126.571C90.4345 126.571 92.1811 124.324 95.0919 124.56C98.0027 124.796 98.1018 127.577 96.9375 128.048C95.7732 128.52 93.1348 127.961 92.6394 129.016C92.1439 130.059 90.0629 129.314 90.0629 129.314L88.4155 127.415L90.4345 126.571Z" fill="#CDCDCD"/>
<path d="M50.4134 93.1309C50.4134 93.1309 47.7998 127.948 90.4468 126.583L90.0752 129.314C90.0752 129.314 46.5735 137.655 41.4331 101.671" fill="#AAAAAA"/>
<path d="M65.9338 128.767C65.9214 128.767 65.909 128.767 65.8842 128.767C53.2251 125.614 45.2482 118.067 42.1639 106.325C42.1391 106.225 42.2011 106.126 42.3002 106.101C42.3993 106.076 42.4983 106.138 42.5231 106.238C45.5702 117.831 53.4605 125.291 65.9709 128.419C66.07 128.444 66.132 128.543 66.1072 128.642C66.0948 128.705 66.0205 128.767 65.9338 128.767Z" fill="#787878"/>
<path d="M65.686 121.829C65.6612 121.829 65.624 121.817 65.5993 121.805C55.7024 116.281 52.1103 107.344 50.8468 100.802C50.8221 100.703 50.8964 100.604 50.9955 100.591C51.0946 100.579 51.1937 100.641 51.2061 100.74C52.4571 107.195 55.9997 116.033 65.7727 121.482C65.8594 121.531 65.8966 121.643 65.847 121.73C65.8098 121.792 65.7479 121.829 65.686 121.829Z" fill="#787878"/>
<path d="M48.2954 84.441C48.2954 84.441 52.3458 78.6816 52.3086 75.8267C52.3086 75.8267 55.7397 79.687 60.0998 79.3271C60.0998 79.3271 60.4342 73.8531 60.0998 73.6669C59.7654 73.4807 54.6621 70.5265 53.1881 70.9982C51.7141 71.4575 47.4407 74.4613 47.4407 74.5979C47.4407 74.7344 47.4902 78.5947 47.4407 78.7437C47.3911 78.8926 47.0319 81.6482 47.0691 81.7848C47.1186 81.9213 47.5274 83.5846 47.5274 83.5846L48.2954 84.441Z" fill="#4D5477"/>
<path d="M206.212 185.444H199.189C198.619 180.926 194.779 177.426 190.122 177.426C185.464 177.426 181.612 180.939 181.055 185.444H174.032L168.569 225.177H211.699L206.212 185.444ZM190.109 178.828C193.986 178.828 197.207 181.708 197.764 185.444H182.454C183.012 181.708 186.232 178.828 190.109 178.828Z" fill="#AAAAAA"/>
<path d="M100.133 188.014H95.0795C95.0795 184.327 92.0943 181.336 88.4155 181.336C84.7367 181.336 81.7515 184.327 81.7515 188.014H76.6978L72.7217 225.14H104.122L100.133 188.014ZM88.4155 182.366C91.5245 182.366 94.0514 184.898 94.0514 188.014H82.7672C82.7796 184.898 85.3065 182.366 88.4155 182.366Z" fill="#AAAAAA"/>
</g>
<defs>
<clipPath id="clip0_18050_441721">
<rect width="228" height="229" fill="white"/>
</clipPath>
</defs>
</svg>
