<svg width="51" height="51" viewBox="0 0 51 51" fill="none" xmlns="http://www.w3.org/2000/svg">
<g filter="url(#filter0_dd_17563_25630)">
<circle cx="25.5" cy="24.5" r="22" fill="#F4F4F4" stroke="#E4E4E4"/>
<g clip-path="url(#clip0_17563_25630)">
<path d="M36.1023 32.5363H34.8068V22.4049C34.7485 22.4049 34.6837 22.4113 34.6255 22.4113H34.4765C33.3689 22.4113 32.3778 21.9034 31.7236 21.1191C31.0694 21.9099 30.0784 22.4113 28.9708 22.4113H28.8218C27.7142 22.4113 26.7232 21.9034 26.069 21.1191C25.4148 21.9099 24.4237 22.4113 23.3161 22.4113H23.1672C22.0595 22.4113 21.0685 21.9034 20.4143 21.1191C19.7601 21.9099 18.7691 22.4113 17.6615 22.4113H17.4995C17.4348 22.4113 17.3765 22.4049 17.3182 22.4049V32.5363H16.0227C15.6665 32.5363 15.375 32.8256 15.375 33.1791V35.4291C15.375 35.6091 15.5175 35.7506 15.6989 35.7506H36.4261C36.6075 35.7506 36.75 35.6091 36.75 35.4291V33.1791C36.75 32.8256 36.4585 32.5363 36.1023 32.5363ZM25.7386 31.572C25.7386 31.752 25.5961 31.8934 25.4148 31.8934H19.5852C19.4039 31.8934 19.2614 31.752 19.2614 31.572V25.1434C19.2614 24.9634 19.4039 24.822 19.5852 24.822H25.4148C25.5961 24.822 25.7386 24.9634 25.7386 25.1434V31.572ZM32.8636 33.5006C32.8636 33.6806 32.7211 33.822 32.5398 33.822H28.6534C28.472 33.822 28.3295 33.6806 28.3295 33.5006V25.1434C28.3295 24.9634 28.472 24.822 28.6534 24.822H32.5398C32.7211 24.822 32.8636 24.9634 32.8636 25.1434V33.5006Z" fill="url(#paint0_linear_17563_25630)"/>
<path d="M30.9201 28.8393H30.2724C29.8255 28.8393 29.4627 29.1993 29.4627 29.6429C29.4627 30.0864 29.8255 30.4464 30.2724 30.4464H30.9201C31.367 30.4464 31.7298 30.0864 31.7298 29.6429C31.7298 29.1993 31.367 28.8393 30.9201 28.8393ZM36.5618 17.9107V16.58C36.5618 16.355 36.5035 16.1364 36.3934 15.9436L35.221 13.8993C34.9943 13.5007 34.5603 13.25 34.1005 13.25H18.0239C17.5575 13.25 17.13 13.5007 16.8968 13.8993L15.7309 15.9436C15.6208 16.1364 15.5625 16.355 15.5625 16.58V18.4379V18.875C15.5625 19.9357 16.4369 20.8036 17.5057 20.8036H17.6547C18.7234 20.8036 19.5978 19.9357 19.5978 18.875V17.75C19.5978 17.3064 19.9606 16.9464 20.4075 16.9464C20.8544 16.9464 21.2172 17.3064 21.2172 17.75V18.875C21.2172 19.9357 22.0916 20.8036 23.1603 20.8036H23.3093C24.3781 20.8036 25.2525 19.9357 25.2525 18.875V17.9107H25.2395V17.75C25.2395 17.3064 25.6023 16.9464 26.0492 16.9464C26.4961 16.9464 26.8589 17.3064 26.8589 17.75V18.4379H26.8718V18.875C26.8718 19.9357 27.7462 20.8036 28.815 20.8036H28.964C30.0327 20.8036 30.9072 19.9357 30.9072 18.875V17.75C30.9072 17.3064 31.2699 16.9464 31.7168 16.9464C32.1637 16.9464 32.5265 17.3064 32.5265 17.75V18.875C32.5265 19.9357 33.4009 20.8036 34.4697 20.8036H34.6186C35.6874 20.8036 36.5618 19.9357 36.5618 18.875V17.9107Z" fill="url(#paint1_linear_17563_25630)"/>
</g>
</g>
<defs>
<filter id="filter0_dd_17563_25630" x="0" y="0" width="51" height="51" filterUnits="userSpaceOnUse" color-interpolation-filters="sRGB">
<feFlood flood-opacity="0" result="BackgroundImageFix"/>
<feColorMatrix in="SourceAlpha" type="matrix" values="0 0 0 0 0 0 0 0 0 0 0 0 0 0 0 0 0 0 127 0" result="hardAlpha"/>
<feOffset dy="1"/>
<feGaussianBlur stdDeviation="1"/>
<feColorMatrix type="matrix" values="0 0 0 0 0.0627451 0 0 0 0 0.0941176 0 0 0 0 0.156863 0 0 0 0.06 0"/>
<feBlend mode="normal" in2="BackgroundImageFix" result="effect1_dropShadow_17563_25630"/>
<feColorMatrix in="SourceAlpha" type="matrix" values="0 0 0 0 0 0 0 0 0 0 0 0 0 0 0 0 0 0 127 0" result="hardAlpha"/>
<feOffset dy="1"/>
<feGaussianBlur stdDeviation="1.5"/>
<feColorMatrix type="matrix" values="0 0 0 0 0.0627451 0 0 0 0 0.0941176 0 0 0 0 0.156863 0 0 0 0.1 0"/>
<feBlend mode="normal" in2="effect1_dropShadow_17563_25630" result="effect2_dropShadow_17563_25630"/>
<feBlend mode="normal" in="SourceGraphic" in2="effect2_dropShadow_17563_25630" result="shape"/>
</filter>
<linearGradient id="paint0_linear_17563_25630" x1="35.625" y1="19.2902" x2="27.2659" y2="38.7936" gradientUnits="userSpaceOnUse">
<stop stop-color="#AC2FBD"/>
<stop offset="0.518334" stop-color="#25A9DE"/>
<stop offset="1" stop-color="#2CD289"/>
</linearGradient>
<linearGradient id="paint1_linear_17563_25630" x1="35.4566" y1="11.1004" x2="24.4404" y2="32.5852" gradientUnits="userSpaceOnUse">
<stop stop-color="#AC2FBD"/>
<stop offset="0.518334" stop-color="#25A9DE"/>
<stop offset="1" stop-color="#2CD289"/>
</linearGradient>
<clipPath id="clip0_17563_25630">
<rect width="21.375" height="22.5" fill="white" transform="translate(15.375 13.25)"/>
</clipPath>
</defs>
</svg>
