<svg width="55" height="55" viewBox="0 0 55 55" fill="none" xmlns="http://www.w3.org/2000/svg">
<circle cx="27.5" cy="27.5" r="26" transform="matrix(-1 0 0 1 55 0)" fill="white" stroke="#155EEF" stroke-width="3"/>
<rect x="3.75" y="4.00006" width="47.5" height="47.5" rx="23.75" fill="#84CAFF"/>
<path d="M24.7442 36.875C25.4787 37.5233 26.4435 37.9167 27.5003 37.9167C28.557 37.9167 29.5218 37.5233 30.2563 36.875M17.3897 21.0624C17.3748 19.5506 18.1899 18.1388 19.5066 17.3958M37.6066 21.0624C37.6216 19.5506 36.8065 18.1388 35.4898 17.3958M33.7503 23.3333C33.7503 21.6757 33.0918 20.086 31.9197 18.9139C30.7476 17.7418 29.1579 17.0833 27.5003 17.0833C25.8427 17.0833 24.2529 17.7418 23.0808 18.9139C21.9087 20.086 21.2503 21.6757 21.2503 23.3333C21.2503 26.5523 20.4382 28.7562 19.5312 30.214C18.766 31.4436 18.3834 32.0584 18.3975 32.23C18.413 32.4199 18.4532 32.4923 18.6063 32.6058C18.7445 32.7083 19.3675 32.7083 20.6136 32.7083H34.3869C35.633 32.7083 36.256 32.7083 36.3942 32.6058C36.5473 32.4923 36.5875 32.4199 36.603 32.23C36.6171 32.0584 36.2345 31.4436 35.4694 30.214C34.5623 28.7562 33.7503 26.5523 33.7503 23.3333Z" stroke="#004EEB" stroke-width="2" stroke-linecap="round" stroke-linejoin="round"/>
</svg>
