<svg width="168" height="51" viewBox="0 0 168 51" fill="none" xmlns="http://www.w3.org/2000/svg">
<path d="M63.4759 13.4545H65.9688L69.7685 20.0668H69.9247L73.7244 13.4545H76.2173L70.9403 22.2898V28H68.7528V22.2898L63.4759 13.4545ZM80.9173 28.2202C79.8945 28.2202 79.002 27.9858 78.2397 27.517C77.4774 27.0483 76.8855 26.3925 76.4641 25.5497C76.0427 24.7069 75.832 23.7221 75.832 22.5952C75.832 21.4635 76.0427 20.474 76.4641 19.6264C76.8855 18.7789 77.4774 18.1207 78.2397 17.652C79.002 17.1832 79.8945 16.9489 80.9173 16.9489C81.94 16.9489 82.8325 17.1832 83.5948 17.652C84.3571 18.1207 84.949 18.7789 85.3704 19.6264C85.7918 20.474 86.0025 21.4635 86.0025 22.5952C86.0025 23.7221 85.7918 24.7069 85.3704 25.5497C84.949 26.3925 84.3571 27.0483 83.5948 27.517C82.8325 27.9858 81.94 28.2202 80.9173 28.2202ZM80.9244 26.4375C81.5872 26.4375 82.1365 26.2623 82.5721 25.9119C83.0077 25.5616 83.3297 25.0952 83.538 24.5128C83.7511 23.9304 83.8576 23.2888 83.8576 22.5881C83.8576 21.892 83.7511 21.2528 83.538 20.6705C83.3297 20.0833 83.0077 19.6122 82.5721 19.2571C82.1365 18.902 81.5872 18.7244 80.9244 18.7244C80.2567 18.7244 79.7028 18.902 79.2624 19.2571C78.8268 19.6122 78.5025 20.0833 78.2894 20.6705C78.0811 21.2528 77.9769 21.892 77.9769 22.5881C77.9769 23.2888 78.0811 23.9304 78.2894 24.5128C78.5025 25.0952 78.8268 25.5616 79.2624 25.9119C79.7028 26.2623 80.2567 26.4375 80.9244 26.4375ZM95.2834 23.4759V17.0909H97.4141V28H95.326V26.1108H95.2124C94.9614 26.6932 94.5589 27.1785 94.005 27.5668C93.4557 27.9503 92.7715 28.142 91.9524 28.142C91.2517 28.142 90.6314 27.9882 90.0916 27.6804C89.5566 27.3679 89.1352 26.9062 88.8274 26.2955C88.5244 25.6847 88.3729 24.9295 88.3729 24.0298V17.0909H90.4964V23.7741C90.4964 24.5175 90.7024 25.1094 91.1143 25.5497C91.5263 25.9901 92.0613 26.2102 92.7195 26.2102C93.1172 26.2102 93.5125 26.1108 93.9055 25.9119C94.3033 25.7131 94.6323 25.4124 94.8928 25.0099C95.1579 24.6075 95.2881 24.0961 95.2834 23.4759ZM100.267 28V17.0909H102.32V18.8239H102.434C102.632 18.2367 102.983 17.7751 103.485 17.4389C103.991 17.098 104.564 16.9276 105.203 16.9276C105.336 16.9276 105.492 16.9323 105.672 16.9418C105.857 16.9512 106.001 16.9631 106.105 16.9773V19.0085C106.02 18.9848 105.869 18.9588 105.651 18.9304C105.433 18.8973 105.215 18.8807 104.998 18.8807C104.496 18.8807 104.048 18.9872 103.655 19.2003C103.267 19.4086 102.959 19.6998 102.732 20.0739C102.505 20.4432 102.391 20.8646 102.391 21.3381V28H100.267ZM125.147 13.4545V28H123.13L115.736 17.3324H115.601V28H113.407V13.4545H115.438L122.838 24.1364H122.973V13.4545H125.147ZM131.352 28.2415C130.661 28.2415 130.036 28.1136 129.477 27.858C128.919 27.5975 128.476 27.2211 128.149 26.7287C127.827 26.2363 127.666 25.6326 127.666 24.9176C127.666 24.3021 127.785 23.7955 128.021 23.3977C128.258 23 128.578 22.6851 128.98 22.4531C129.383 22.2211 129.832 22.0459 130.33 21.9276C130.827 21.8092 131.333 21.7192 131.849 21.6577C132.503 21.5819 133.033 21.5204 133.44 21.473C133.848 21.4209 134.143 21.3381 134.328 21.2244C134.513 21.1108 134.605 20.9261 134.605 20.6705V20.6207C134.605 20.0005 134.43 19.5199 134.08 19.179C133.734 18.8381 133.218 18.6676 132.531 18.6676C131.816 18.6676 131.253 18.8262 130.841 19.1435C130.434 19.456 130.152 19.804 129.996 20.1875L128 19.733C128.237 19.0701 128.582 18.535 129.037 18.1278C129.496 17.7159 130.024 17.4176 130.621 17.233C131.217 17.0436 131.845 16.9489 132.503 16.9489C132.938 16.9489 133.4 17.0009 133.888 17.1051C134.38 17.2045 134.839 17.3892 135.266 17.6591C135.696 17.929 136.049 18.3149 136.324 18.8168C136.598 19.3139 136.736 19.9602 136.736 20.7557V28H134.662V26.5085H134.577C134.439 26.7831 134.233 27.053 133.959 27.3182C133.684 27.5833 133.331 27.8035 132.901 27.9787C132.47 28.1539 131.954 28.2415 131.352 28.2415ZM131.814 26.5369C132.401 26.5369 132.903 26.4209 133.32 26.1889C133.741 25.9569 134.061 25.6539 134.278 25.2798C134.501 24.901 134.612 24.4962 134.612 24.0653V22.6591C134.536 22.7348 134.39 22.8059 134.172 22.8722C133.959 22.9337 133.715 22.9882 133.44 23.0355C133.166 23.0781 132.898 23.1184 132.638 23.1562C132.377 23.1894 132.16 23.2178 131.984 23.2415C131.572 23.2936 131.196 23.3812 130.855 23.5043C130.519 23.6274 130.249 23.8049 130.045 24.0369C129.847 24.2642 129.747 24.5672 129.747 24.946C129.747 25.4716 129.941 25.8693 130.33 26.1392C130.718 26.4044 131.213 26.5369 131.814 26.5369ZM139.564 28V17.0909H141.603V18.8665H141.738C141.965 18.2652 142.337 17.7964 142.853 17.4602C143.369 17.1193 143.987 16.9489 144.706 16.9489C145.435 16.9489 146.046 17.1193 146.539 17.4602C147.036 17.8011 147.403 18.2699 147.64 18.8665H147.753C148.014 18.2841 148.428 17.8201 148.996 17.4744C149.564 17.1241 150.241 16.9489 151.027 16.9489C152.017 16.9489 152.824 17.259 153.449 17.8793C154.079 18.4995 154.394 19.4347 154.394 20.6847V28H152.27V20.8835C152.27 20.1449 152.069 19.6098 151.667 19.2784C151.264 18.947 150.783 18.7812 150.225 18.7812C149.533 18.7812 148.996 18.9943 148.613 19.4205C148.229 19.8419 148.037 20.384 148.037 21.0469V28H145.921V20.7486C145.921 20.1567 145.736 19.6809 145.367 19.321C144.998 18.9612 144.517 18.7812 143.925 18.7812C143.523 18.7812 143.151 18.8878 142.81 19.1009C142.474 19.3092 142.202 19.6004 141.993 19.9744C141.79 20.3485 141.688 20.7817 141.688 21.2741V28H139.564ZM161.942 28.2202C160.867 28.2202 159.941 27.9905 159.165 27.5312C158.393 27.0672 157.796 26.4162 157.375 25.5781C156.958 24.7353 156.75 23.7481 156.75 22.6165C156.75 21.4991 156.958 20.5142 157.375 19.6619C157.796 18.8097 158.384 18.1444 159.136 17.6662C159.894 17.188 160.779 16.9489 161.793 16.9489C162.408 16.9489 163.005 17.0507 163.582 17.2543C164.16 17.4579 164.679 17.7775 165.138 18.2131C165.597 18.6487 165.959 19.2145 166.224 19.9105C166.49 20.6018 166.622 21.4422 166.622 22.4318V23.1847H157.95V21.5938H164.541C164.541 21.035 164.428 20.5402 164.2 20.1094C163.973 19.6738 163.653 19.3305 163.241 19.0795C162.834 18.8286 162.356 18.7031 161.807 18.7031C161.21 18.7031 160.689 18.8499 160.244 19.1435C159.804 19.4323 159.463 19.8111 159.222 20.2798C158.985 20.7438 158.866 21.2481 158.866 21.7926V23.0355C158.866 23.7647 158.994 24.3849 159.25 24.8963C159.51 25.4077 159.873 25.7983 160.337 26.0682C160.801 26.3333 161.343 26.4659 161.963 26.4659C162.366 26.4659 162.732 26.4091 163.064 26.2955C163.395 26.1771 163.682 26.0019 163.923 25.7699C164.165 25.5379 164.349 25.2514 164.477 24.9105L166.487 25.2727C166.326 25.8646 166.037 26.383 165.621 26.8281C165.209 27.2685 164.69 27.6117 164.065 27.858C163.445 28.0994 162.737 28.2202 161.942 28.2202Z" fill="#475467"/>
<path d="M63.3093 35.5455H64.9297L67.3995 39.8434H67.5011L69.9709 35.5455H71.5913L68.1612 41.2884V45H66.7393V41.2884L63.3093 35.5455ZM74.6462 45.1431C73.9814 45.1431 73.4013 44.9908 72.9058 44.6861C72.4103 44.3814 72.0256 43.9551 71.7517 43.4073C71.4778 42.8595 71.3408 42.2193 71.3408 41.4869C71.3408 40.7513 71.4778 40.1081 71.7517 39.5572C72.0256 39.0063 72.4103 38.5785 72.9058 38.2738C73.4013 37.9691 73.9814 37.8168 74.6462 37.8168C75.311 37.8168 75.8911 37.9691 76.3866 38.2738C76.8821 38.5785 77.2668 39.0063 77.5407 39.5572C77.8147 40.1081 77.9516 40.7513 77.9516 41.4869C77.9516 42.2193 77.8147 42.8595 77.5407 43.4073C77.2668 43.9551 76.8821 44.3814 76.3866 44.6861C75.8911 44.9908 75.311 45.1431 74.6462 45.1431ZM74.6508 43.9844C75.0817 43.9844 75.4387 43.8705 75.7219 43.6428C76.005 43.415 76.2143 43.1119 76.3497 42.7333C76.4882 42.3548 76.5574 41.9377 76.5574 41.4822C76.5574 41.0298 76.4882 40.6143 76.3497 40.2358C76.2143 39.8542 76.005 39.5479 75.7219 39.3171C75.4387 39.0863 75.0817 38.9709 74.6508 38.9709C74.2169 38.9709 73.8568 39.0863 73.5706 39.3171C73.2874 39.5479 73.0766 39.8542 72.9381 40.2358C72.8027 40.6143 72.735 41.0298 72.735 41.4822C72.735 41.9377 72.8027 42.3548 72.9381 42.7333C73.0766 43.1119 73.2874 43.415 73.5706 43.6428C73.8568 43.8705 74.2169 43.9844 74.6508 43.9844ZM83.9842 42.0593V37.9091H85.3691V45H84.0119V43.772H83.938C83.7749 44.1506 83.5133 44.466 83.1532 44.7184C82.7962 44.9677 82.3515 45.0923 81.8191 45.0923C81.3636 45.0923 80.9604 44.9923 80.6096 44.7923C80.2618 44.5891 79.9879 44.2891 79.7878 43.892C79.5908 43.495 79.4924 43.0041 79.4924 42.4194V37.9091H80.8727V42.2532C80.8727 42.7364 81.0066 43.1211 81.2743 43.4073C81.5421 43.6935 81.8899 43.8366 82.3176 43.8366C82.5762 43.8366 82.8332 43.772 83.0886 43.6428C83.3471 43.5135 83.561 43.3181 83.7303 43.0565C83.9026 42.7949 83.9873 42.4625 83.9842 42.0593ZM87.2238 45V37.9091H88.558V39.0355H88.6318C88.7611 38.6539 88.9888 38.3538 89.3151 38.1353C89.6444 37.9137 90.0168 37.8029 90.4323 37.8029C90.5184 37.8029 90.62 37.806 90.7369 37.8121C90.857 37.8183 90.9508 37.826 91.0186 37.8352V39.1555C90.9632 39.1402 90.8647 39.1232 90.7231 39.1048C90.5815 39.0832 90.44 39.0724 90.2984 39.0724C89.9722 39.0724 89.6813 39.1417 89.4259 39.2802C89.1735 39.4156 88.9735 39.6049 88.8257 39.848C88.678 40.0881 88.6041 40.362 88.6041 40.6697V45H87.2238ZM100.967 39.6403L99.716 39.8619C99.6637 39.7018 99.5806 39.5495 99.4667 39.4048C99.3559 39.2602 99.2051 39.1417 99.0143 39.0494C98.8235 38.957 98.585 38.9109 98.2987 38.9109C97.9079 38.9109 97.5816 38.9986 97.32 39.174C97.0584 39.3464 96.9276 39.5695 96.9276 39.8434C96.9276 40.0804 97.0154 40.2712 97.1908 40.4158C97.3662 40.5605 97.6494 40.679 98.0402 40.7713L99.1666 41.0298C99.8191 41.1806 100.305 41.413 100.625 41.7269C100.946 42.0408 101.106 42.4486 101.106 42.9503C101.106 43.375 100.982 43.7536 100.736 44.0859C100.493 44.4152 100.153 44.6738 99.716 44.8615C99.282 45.0492 98.7789 45.1431 98.2064 45.1431C97.4124 45.1431 96.7645 44.9738 96.2629 44.6353C95.7612 44.2937 95.4535 43.8089 95.3396 43.1811L96.6737 42.978C96.7568 43.3258 96.9276 43.5889 97.1862 43.7674C97.4447 43.9428 97.7817 44.0305 98.1972 44.0305C98.6496 44.0305 99.0112 43.9367 99.282 43.7489C99.5529 43.5581 99.6883 43.3258 99.6883 43.0518C99.6883 42.8303 99.6052 42.6441 99.439 42.4933C99.2759 42.3424 99.0251 42.2286 98.6865 42.1516L97.4862 41.8885C96.8245 41.7377 96.3352 41.4976 96.0182 41.1683C95.7043 40.839 95.5473 40.422 95.5473 39.9173C95.5473 39.4987 95.6643 39.1325 95.8982 38.8185C96.1321 38.5046 96.4552 38.2599 96.8676 38.0845C97.28 37.906 97.7525 37.8168 98.2849 37.8168C99.0512 37.8168 99.6544 37.983 100.095 38.3153C100.535 38.6446 100.825 39.0863 100.967 39.6403ZM104.004 35.5455V45H102.623V35.5455H104.004ZM108.847 45.1431C108.183 45.1431 107.602 44.9908 107.107 44.6861C106.611 44.3814 106.227 43.9551 105.953 43.4073C105.679 42.8595 105.542 42.2193 105.542 41.4869C105.542 40.7513 105.679 40.1081 105.953 39.5572C106.227 39.0063 106.611 38.5785 107.107 38.2738C107.602 37.9691 108.183 37.8168 108.847 37.8168C109.512 37.8168 110.092 37.9691 110.588 38.2738C111.083 38.5785 111.468 39.0063 111.742 39.5572C112.016 40.1081 112.153 40.7513 112.153 41.4869C112.153 42.2193 112.016 42.8595 111.742 43.4073C111.468 43.9551 111.083 44.3814 110.588 44.6861C110.092 44.9908 109.512 45.1431 108.847 45.1431ZM108.852 43.9844C109.283 43.9844 109.64 43.8705 109.923 43.6428C110.206 43.415 110.415 43.1119 110.551 42.7333C110.689 42.3548 110.759 41.9377 110.759 41.4822C110.759 41.0298 110.689 40.6143 110.551 40.2358C110.415 39.8542 110.206 39.5479 109.923 39.3171C109.64 39.0863 109.283 38.9709 108.852 38.9709C108.418 38.9709 108.058 39.0863 107.772 39.3171C107.489 39.5479 107.278 39.8542 107.139 40.2358C107.004 40.6143 106.936 41.0298 106.936 41.4822C106.936 41.9377 107.004 42.3548 107.139 42.7333C107.278 43.1119 107.489 43.415 107.772 43.6428C108.058 43.8705 108.418 43.9844 108.852 43.9844ZM116.667 47.8068C116.103 47.8068 115.619 47.733 115.212 47.5852C114.809 47.4375 114.48 47.2421 114.224 46.9989C113.969 46.7558 113.778 46.4896 113.652 46.2003L114.838 45.7109C114.922 45.8464 115.032 45.9895 115.171 46.1403C115.312 46.2942 115.503 46.425 115.743 46.5327C115.986 46.6404 116.299 46.6942 116.68 46.6942C117.204 46.6942 117.636 46.5665 117.978 46.3111C118.319 46.0587 118.49 45.6555 118.49 45.1016V43.7074H118.402C118.319 43.8582 118.199 44.0259 118.042 44.2106C117.888 44.3952 117.676 44.5553 117.405 44.6907C117.134 44.8261 116.782 44.8938 116.348 44.8938C115.788 44.8938 115.283 44.763 114.834 44.5014C114.388 44.2367 114.034 43.8474 113.772 43.3335C113.513 42.8164 113.384 42.1809 113.384 41.4268C113.384 40.6728 113.512 40.0265 113.767 39.4879C114.026 38.9493 114.38 38.5369 114.829 38.2507C115.279 37.9614 115.788 37.8168 116.357 37.8168C116.797 37.8168 117.153 37.8906 117.424 38.0384C117.694 38.183 117.905 38.3523 118.056 38.5462C118.21 38.7401 118.328 38.9109 118.412 39.0586H118.513V37.9091H119.866V45.157C119.866 45.7663 119.724 46.2665 119.441 46.6573C119.158 47.0482 118.775 47.3375 118.292 47.5252C117.811 47.7129 117.27 47.8068 116.667 47.8068ZM116.653 43.7489C117.05 43.7489 117.385 43.6566 117.659 43.4719C117.936 43.2842 118.145 43.0165 118.287 42.6687C118.432 42.3178 118.504 41.8977 118.504 41.4084C118.504 40.9313 118.433 40.5112 118.292 40.1481C118.15 39.7849 117.942 39.5018 117.668 39.2987C117.394 39.0924 117.056 38.9893 116.653 38.9893C116.237 38.9893 115.891 39.0971 115.614 39.3125C115.337 39.5249 115.128 39.8142 114.986 40.1804C114.848 40.5466 114.778 40.956 114.778 41.4084C114.778 41.8731 114.849 42.2809 114.991 42.6317C115.132 42.9826 115.342 43.2565 115.619 43.4535C115.899 43.6504 116.243 43.7489 116.653 43.7489ZM123.781 45.157C123.331 45.157 122.925 45.0739 122.562 44.9077C122.199 44.7384 121.911 44.4937 121.699 44.1737C121.489 43.8536 121.385 43.4612 121.385 42.9964C121.385 42.5964 121.462 42.267 121.615 42.0085C121.769 41.75 121.977 41.5453 122.239 41.3945C122.5 41.2437 122.793 41.1299 123.116 41.0529C123.439 40.976 123.768 40.9175 124.104 40.8775C124.528 40.8282 124.873 40.7882 125.138 40.7575C125.402 40.7236 125.595 40.6697 125.715 40.5959C125.835 40.522 125.895 40.402 125.895 40.2358V40.2035C125.895 39.8003 125.781 39.4879 125.553 39.2663C125.329 39.0447 124.993 38.9339 124.547 38.9339C124.082 38.9339 123.716 39.037 123.448 39.2433C123.183 39.4464 123 39.6726 122.899 39.9219L121.602 39.6264C121.755 39.1955 121.98 38.8478 122.276 38.5831C122.574 38.3153 122.917 38.1214 123.305 38.0014C123.693 37.8783 124.101 37.8168 124.528 37.8168C124.812 37.8168 125.112 37.8506 125.429 37.9183C125.749 37.983 126.047 38.103 126.324 38.2784C126.604 38.4538 126.834 38.7047 127.012 39.0309C127.191 39.354 127.28 39.7741 127.28 40.2912V45H125.932V44.0305H125.876C125.787 44.209 125.653 44.3845 125.475 44.5568C125.296 44.7292 125.067 44.8723 124.787 44.9862C124.507 45.1 124.171 45.157 123.781 45.157ZM124.081 44.049C124.462 44.049 124.788 43.9736 125.059 43.8228C125.333 43.672 125.541 43.475 125.683 43.2319C125.827 42.9857 125.9 42.7225 125.9 42.4425V41.5284C125.85 41.5777 125.755 41.6238 125.613 41.6669C125.475 41.7069 125.316 41.7423 125.138 41.7731C124.959 41.8008 124.785 41.8269 124.616 41.8516C124.447 41.8731 124.305 41.8916 124.191 41.907C123.924 41.9408 123.679 41.9978 123.457 42.0778C123.239 42.1578 123.063 42.2732 122.931 42.424C122.802 42.5717 122.737 42.7687 122.737 43.0149C122.737 43.3565 122.863 43.6151 123.116 43.7905C123.368 43.9628 123.69 44.049 124.081 44.049ZM130.499 40.7898V45H129.118V37.9091H130.443V39.0632H130.531C130.694 38.6877 130.95 38.3861 131.297 38.1584C131.648 37.9306 132.09 37.8168 132.622 37.8168C133.105 37.8168 133.529 37.9183 133.892 38.1214C134.255 38.3215 134.537 38.62 134.737 39.017C134.937 39.4141 135.037 39.9049 135.037 40.4897V45H133.656V40.6559C133.656 40.1419 133.522 39.7403 133.255 39.451C132.987 39.1586 132.619 39.0124 132.151 39.0124C131.831 39.0124 131.547 39.0817 131.297 39.2202C131.051 39.3587 130.856 39.5618 130.711 39.8295C130.569 40.0942 130.499 40.4143 130.499 40.7898ZM141.709 40.7898V45H140.328V35.5455H141.69V39.0632H141.778C141.944 38.6816 142.198 38.3784 142.54 38.1538C142.881 37.9291 143.327 37.8168 143.878 37.8168C144.365 37.8168 144.789 37.9168 145.153 38.1168C145.519 38.3169 145.802 38.6154 146.002 39.0124C146.205 39.4064 146.307 39.8988 146.307 40.4897V45H144.926V40.6559C144.926 40.1358 144.792 39.7326 144.525 39.4464C144.257 39.1571 143.885 39.0124 143.407 39.0124C143.081 39.0124 142.789 39.0817 142.53 39.2202C142.275 39.3587 142.073 39.5618 141.926 39.8295C141.781 40.0942 141.709 40.4143 141.709 40.7898ZM151.205 45.1431C150.506 45.1431 149.904 44.9938 149.4 44.6953C148.898 44.3937 148.51 43.9705 148.236 43.4258C147.965 42.878 147.83 42.2363 147.83 41.5007C147.83 40.7744 147.965 40.1342 148.236 39.5803C148.51 39.0263 148.892 38.5939 149.381 38.283C149.874 37.9722 150.449 37.8168 151.108 37.8168C151.508 37.8168 151.896 37.8829 152.271 38.0153C152.647 38.1476 152.984 38.3554 153.282 38.6385C153.581 38.9216 153.816 39.2894 153.988 39.7418C154.161 40.1912 154.247 40.7375 154.247 41.3807V41.87H148.61V40.8359H152.894C152.894 40.4728 152.82 40.1512 152.673 39.8711C152.525 39.5879 152.317 39.3648 152.05 39.2017C151.785 39.0386 151.474 38.957 151.117 38.957C150.729 38.957 150.391 39.0524 150.101 39.2433C149.815 39.431 149.594 39.6772 149.437 39.9819C149.283 40.2835 149.206 40.6113 149.206 40.9652V41.7731C149.206 42.247 149.289 42.6502 149.455 42.9826C149.624 43.315 149.86 43.5689 150.161 43.7443C150.463 43.9167 150.815 44.0028 151.219 44.0028C151.48 44.0028 151.719 43.9659 151.934 43.892C152.15 43.8151 152.336 43.7012 152.493 43.5504C152.65 43.3996 152.77 43.2134 152.853 42.9918L154.159 43.2273C154.055 43.612 153.867 43.949 153.596 44.2383C153.328 44.5245 152.991 44.7476 152.585 44.9077C152.182 45.0646 151.722 45.1431 151.205 45.1431ZM155.778 45V37.9091H157.113V39.0355H157.187C157.316 38.6539 157.544 38.3538 157.87 38.1353C158.199 37.9137 158.571 37.8029 158.987 37.8029C159.073 37.8029 159.175 37.806 159.292 37.8121C159.412 37.8183 159.506 37.826 159.573 37.8352V39.1555C159.518 39.1402 159.419 39.1232 159.278 39.1048C159.136 39.0832 158.995 39.0724 158.853 39.0724C158.527 39.0724 158.236 39.1417 157.981 39.2802C157.728 39.4156 157.528 39.6049 157.38 39.848C157.233 40.0881 157.159 40.362 157.159 40.6697V45H155.778ZM163.57 45.1431C162.871 45.1431 162.27 44.9938 161.765 44.6953C161.263 44.3937 160.875 43.9705 160.602 43.4258C160.331 42.878 160.195 42.2363 160.195 41.5007C160.195 40.7744 160.331 40.1342 160.602 39.5803C160.875 39.0263 161.257 38.5939 161.746 38.283C162.239 37.9722 162.814 37.8168 163.473 37.8168C163.873 37.8168 164.261 37.8829 164.636 38.0153C165.012 38.1476 165.349 38.3554 165.647 38.6385C165.946 38.9216 166.181 39.2894 166.354 39.7418C166.526 40.1912 166.612 40.7375 166.612 41.3807V41.87H160.975V40.8359H165.26C165.26 40.4728 165.186 40.1512 165.038 39.8711C164.89 39.5879 164.683 39.3648 164.415 39.2017C164.15 39.0386 163.839 38.957 163.482 38.957C163.094 38.957 162.756 39.0524 162.467 39.2433C162.18 39.431 161.959 39.6772 161.802 39.9819C161.648 40.2835 161.571 40.6113 161.571 40.9652V41.7731C161.571 42.247 161.654 42.6502 161.82 42.9826C161.99 43.315 162.225 43.5689 162.527 43.7443C162.828 43.9167 163.181 44.0028 163.584 44.0028C163.845 44.0028 164.084 43.9659 164.299 43.892C164.515 43.8151 164.701 43.7012 164.858 43.5504C165.015 43.3996 165.135 43.2134 165.218 42.9918L166.525 43.2273C166.42 43.612 166.232 43.949 165.961 44.2383C165.694 44.5245 165.357 44.7476 164.95 44.9077C164.547 45.0646 164.087 45.1431 163.57 45.1431Z" fill="#999EA8"/>
<g clip-path="url(#clip0_17273_461588)">
<path d="M-0.000229863 22.4576L-0.00022923 7.95711C-0.000229038 3.56303 3.5628 -1.32362e-06 7.95688 -1.13155e-06L28.3798 -2.38837e-07C31.3983 -1.06892e-07 33.8437 2.4454 33.8437 5.46394C33.8437 6.97322 33.2324 8.3392 32.2437 9.32787C31.2551 10.3165 29.8891 10.9279 28.3798 10.9279L13.9701 10.9279C12.2936 10.9279 10.9277 12.2891 10.9277 13.9703L10.9277 22.4576C10.9277 20.9483 10.3163 19.5823 9.32764 18.5936C8.33897 17.605 6.97299 16.9936 5.46372 16.9936C2.44517 16.9936 -0.000229732 19.439 -0.000229863 22.4576Z" fill="url(#paint0_linear_17273_461588)"/>
<path d="M45.5361 34.1306C42.5175 34.1306 40.0721 31.6851 40.0721 28.6666L40.0721 13.9703C40.0721 12.2939 38.7109 10.9279 37.0297 10.9279L28.38 10.9279C29.8893 10.9279 31.2553 10.3165 32.244 9.32787C33.2326 8.3392 33.844 6.97322 33.844 5.46394C33.844 2.4454 31.3986 -8.56805e-07 28.38 -9.8875e-07L43.0429 -3.47816e-07C47.437 -1.55745e-07 51 3.56303 51 7.95711L51 28.6666C51 30.1759 50.3886 31.5419 49.4 32.5305C48.4113 33.5192 47.0453 34.1306 45.5361 34.1306Z" fill="url(#paint1_linear_17273_461588)"/>
<path d="M43.0381 50.9999L22.3812 50.9999C20.8719 50.9999 19.5059 50.3885 18.5172 49.3999C17.5286 48.4112 16.9172 47.0452 16.9172 45.536C16.9172 42.5174 19.3674 40.072 22.3812 40.072L37.0297 40.072C38.7109 40.072 40.0721 38.7108 40.0721 37.0296L40.0721 28.6713C40.0721 31.6898 42.5175 34.1352 45.5361 34.1352C47.0453 34.1352 48.4113 33.5239 49.4 32.5352C50.3886 31.5418 51 30.1758 51 28.6665L51 43.038C51 47.4369 47.437 50.9999 43.0381 50.9999Z" fill="url(#paint2_linear_17273_461588)"/>
<path d="M22.3809 51L7.95681 51C3.56272 51 -0.000300784 47.437 -0.000300592 43.0381L-0.000299693 22.4576C-0.000299561 19.4391 2.4451 16.9937 5.46365 16.9937C6.97292 16.9937 8.3389 17.605 9.32757 18.5937C10.3162 19.5823 10.9276 20.9483 10.9276 22.4576L10.9276 37.0297C10.9276 38.7109 12.2888 40.0721 13.97 40.0721L22.3809 40.0721C19.3623 40.0721 16.9169 42.5175 16.9169 45.5361C16.9169 47.0453 17.5283 48.4113 18.5169 49.4C19.5104 50.3887 20.8764 51 22.3809 51Z" fill="url(#paint3_linear_17273_461588)"/>
<path d="M-0.000229863 22.4576L-0.00022923 7.95711C-0.000229038 3.56303 3.5628 -1.32362e-06 7.95688 -1.13155e-06L28.3798 -2.38837e-07C31.3983 -1.06892e-07 33.8437 2.4454 33.8437 5.46394C33.8437 6.97322 33.2324 8.3392 32.2437 9.32787C31.2551 10.3165 29.8891 10.9279 28.3798 10.9279L13.9701 10.9279C12.2936 10.9279 10.9277 12.2891 10.9277 13.9703L10.9277 22.4576C10.9277 20.9483 10.3163 19.5823 9.32764 18.5936C8.33897 17.605 6.97299 16.9936 5.46372 16.9936C2.44517 16.9936 -0.000229732 19.439 -0.000229863 22.4576Z" fill="url(#paint4_linear_17273_461588)"/>
<path d="M43.0381 50.9999L22.3812 50.9999C20.8719 50.9999 19.5059 50.3885 18.5172 49.3999C17.5286 48.4112 16.9172 47.0452 16.9172 45.536C16.9172 42.5174 19.3674 40.072 22.3812 40.072L37.0297 40.072C38.7109 40.072 40.0721 38.7108 40.0721 37.0296L40.0721 28.6713C40.0721 31.6898 42.5175 34.1352 45.5361 34.1352C47.0453 34.1352 48.4113 33.5239 49.4 32.5352C50.3886 31.5418 51 30.1758 51 28.6665L51 43.038C51 47.4369 47.437 50.9999 43.0381 50.9999Z" fill="url(#paint5_linear_17273_461588)"/>
<path d="M22.3809 51L7.95681 51C3.56272 51 -0.000300784 47.437 -0.000300592 43.0381L-0.000299693 22.4576C-0.000299561 19.4391 2.4451 16.9937 5.46365 16.9937C6.97292 16.9937 8.3389 17.605 9.32757 18.5937C10.3162 19.5823 10.9276 20.9483 10.9276 22.4576L10.9276 37.0297C10.9276 38.7109 12.2888 40.0721 13.97 40.0721L22.3809 40.0721C19.3623 40.0721 16.9169 42.5175 16.9169 45.5361C16.9169 47.0453 17.5283 48.4113 18.5169 49.4C19.5104 50.3887 20.8764 51 22.3809 51Z" fill="url(#paint6_linear_17273_461588)"/>
<path d="M45.5361 34.1306C42.5175 34.1306 40.0721 31.6851 40.0721 28.6666L40.0721 13.9703C40.0721 12.2939 38.7109 10.9279 37.0297 10.9279L28.38 10.9279C29.8893 10.9279 31.2553 10.3165 32.244 9.32787C33.2326 8.3392 33.844 6.97322 33.844 5.46394C33.844 2.4454 31.3986 -8.56805e-07 28.38 -9.8875e-07L43.0429 -3.47816e-07C47.437 -1.55745e-07 51 3.56303 51 7.95711L51 28.6666C51 30.1759 50.3886 31.5419 49.4 32.5305C48.4113 33.5192 47.0453 34.1306 45.5361 34.1306Z" fill="url(#paint7_linear_17273_461588)"/>
</g>
<defs>
<linearGradient id="paint0_linear_17273_461588" x1="-1.45673" y1="11.2279" x2="33.3203" y2="11.2279" gradientUnits="userSpaceOnUse">
<stop stop-color="#DD5496"/>
<stop offset="1" stop-color="#DE5F4F"/>
</linearGradient>
<linearGradient id="paint1_linear_17273_461588" x1="39.6891" y1="-4.94417e-07" x2="39.6891" y2="34.1317" gradientUnits="userSpaceOnUse">
<stop stop-color="#5844A1"/>
<stop offset="1" stop-color="#74BFFC"/>
</linearGradient>
<linearGradient id="paint2_linear_17273_461588" x1="49.2514" y1="39.833" x2="16.0283" y2="39.833" gradientUnits="userSpaceOnUse">
<stop stop-color="#7E4AA6"/>
<stop offset="1" stop-color="#DD4CAA"/>
</linearGradient>
<linearGradient id="paint3_linear_17273_461588" x1="11.1918" y1="16.9916" x2="11.1918" y2="50.9986" gradientUnits="userSpaceOnUse">
<stop stop-color="#FCF83A"/>
<stop offset="1" stop-color="#81B83E"/>
</linearGradient>
<linearGradient id="paint4_linear_17273_461588" x1="13.7209" y1="21.9445" x2="15.9066" y2="11.4532" gradientUnits="userSpaceOnUse">
<stop stop-color="#800040"/>
<stop offset="1" stop-color="#800040" stop-opacity="0"/>
</linearGradient>
<linearGradient id="paint5_linear_17273_461588" x1="38.164" y1="28.6839" x2="35.104" y2="40.1588" gradientUnits="userSpaceOnUse">
<stop stop-color="#5844A1" stop-opacity="0"/>
<stop offset="1" stop-color="#5844A1"/>
</linearGradient>
<linearGradient id="paint6_linear_17273_461588" x1="21.9102" y1="38.4544" x2="10.9817" y2="35.2851" gradientUnits="userSpaceOnUse">
<stop stop-color="#537721" stop-opacity="0"/>
<stop offset="1" stop-color="#537721"/>
</linearGradient>
<linearGradient id="paint7_linear_17273_461588" x1="26.127" y1="12.3914" x2="41.9732" y2="16.4349" gradientUnits="userSpaceOnUse">
<stop stop-color="#AA9DD6"/>
<stop offset="1" stop-color="#5844A1" stop-opacity="0"/>
</linearGradient>
<clipPath id="clip0_17273_461588">
<rect width="51" height="51" fill="white" transform="translate(51) rotate(90)"/>
</clipPath>
</defs>
</svg>
