<svg width="59" height="74" viewBox="0 0 59 74" fill="none" xmlns="http://www.w3.org/2000/svg">
<circle cx="29.5" cy="44.5" r="29.5" fill="black" fill-opacity="0.25"/>
<path d="M30.5 33.5C30.5 35.1569 26.8063 36.5 22.25 36.5C17.6937 36.5 14 35.1569 14 33.5M30.5 33.5C30.5 31.8431 26.8063 30.5 22.25 30.5C17.6937 30.5 14 31.8431 14 33.5M30.5 33.5V40.1857C28.6677 40.736 27.5 41.5684 27.5 42.5M14 33.5V51.5C14 53.1569 17.6937 54.5 22.25 54.5C24.2444 54.5 26.0736 54.2426 27.5 53.8143V42.5M14 39.5C14 41.1569 17.6937 42.5 22.25 42.5C24.2444 42.5 26.0736 42.2426 27.5 41.8143M14 45.5C14 47.1569 17.6937 48.5 22.25 48.5C24.2444 48.5 26.0736 48.2426 27.5 47.8143M44 42.5C44 44.1569 40.3063 45.5 35.75 45.5C31.1937 45.5 27.5 44.1569 27.5 42.5M44 42.5C44 40.8431 40.3063 39.5 35.75 39.5C31.1937 39.5 27.5 40.8431 27.5 42.5M44 42.5V54.5C44 56.1569 40.3063 57.5 35.75 57.5C31.1937 57.5 27.5 56.1569 27.5 54.5V42.5M44 48.5C44 50.1569 40.3063 51.5 35.75 51.5C31.1937 51.5 27.5 50.1569 27.5 48.5" stroke="white" stroke-width="2" stroke-linecap="round" stroke-linejoin="round"/>
</svg>
