<svg width="23" height="23" viewBox="0 0 23 23" fill="none" xmlns="http://www.w3.org/2000/svg">
<path d="M15.3333 5.74996V4.98329C15.3333 3.90986 15.3333 3.37314 15.1244 2.96314C14.9407 2.6025 14.6475 2.30929 14.2868 2.12553C13.8768 1.91663 13.3401 1.91663 12.2667 1.91663H10.7333C9.6599 1.91663 9.12318 1.91663 8.71318 2.12553C8.35254 2.30929 8.05933 2.6025 7.87557 2.96314C7.66667 3.37314 7.66667 3.90986 7.66667 4.98329V5.74996M9.58333 11.0208V15.8125M13.4167 11.0208V15.8125M2.875 5.74996H20.125M18.2083 5.74996V16.4833C18.2083 18.0934 18.2083 18.8985 17.895 19.5135C17.6193 20.0545 17.1795 20.4943 16.6386 20.7699C16.0236 21.0833 15.2185 21.0833 13.6083 21.0833H9.39167C7.78152 21.0833 6.97644 21.0833 6.36144 20.7699C5.82048 20.4943 5.38066 20.0545 5.10502 19.5135C4.79167 18.8985 4.79167 18.0934 4.79167 16.4833V5.74996" stroke="#475467" stroke-width="1.5" stroke-linecap="round" stroke-linejoin="round"/>
</svg>
