<svg width="58" height="58" viewBox="0 0 58 58" fill="none" xmlns="http://www.w3.org/2000/svg">
<rect x="3" y="3" width="52" height="52" rx="26" fill="#98A2B3"/>
<path d="M23 35L28 30M28 30L33 35M28 30V41.25M38 35.9285C39.5269 34.6676 40.5 32.7599 40.5 30.625C40.5 26.828 37.422 23.75 33.625 23.75C33.3519 23.75 33.0963 23.6075 32.9576 23.3722C31.3276 20.606 28.318 18.75 24.875 18.75C19.6973 18.75 15.5 22.9473 15.5 28.125C15.5 30.7076 16.5443 33.0463 18.2337 34.7419" stroke="#F9FAFB" stroke-width="1.66667" stroke-linecap="round" stroke-linejoin="round"/>
<rect x="3" y="3" width="52" height="52" rx="26" stroke="#F9FAFB" stroke-width="6"/>
</svg>
