<svg height='300px' width='300px'  fill="#1561b5" xmlns="http://www.w3.org/2000/svg" xmlns:xlink="http://www.w3.org/1999/xlink" version="1.1" x="0px" y="0px" viewBox="0 0 100 100" enable-background="new 0 0 100 100" xml:space="preserve"><circle fill="#1561b5" cx="1411.3" cy="489.6" r="1.9"></circle><g><path fill="#1561b5" stroke="#1561b5" stroke-width="10" stroke-miterlimit="10" d="M1335.7,586.9v-98c0-4.2,3.4-7.6,7.6-7.6H1480   c4.2,0,7.6,3.4,7.6,7.6v98"></path><path fill="#1561b5" stroke="#1561b5" stroke-width="10" stroke-linejoin="round" stroke-miterlimit="10" d="M1436.1,586.9v1.4   c0,1.8-1.4,3.2-3.2,3.2h-42.6c-1.8,0-3.2-1.4-3.2-3.2v-1.4h0H1318v5.3c0,6.8,5.5,12.2,12.2,12.2H1493c6.8,0,12.3-5.5,12.3-12.2   v-5.3H1436.1L1436.1,586.9z"></path></g><path fill="#1561b5" stroke="#1561b5" stroke-width="5" stroke-linecap="round" stroke-miterlimit="10" d="M1468.6,574h-113.2  c-3.5,0-6.3-2.8-6.3-6.3v-66.1c0-3.5,2.8-6.3,6.3-6.3h113.2c3.5,0,6.3,2.8,6.3,6.3v66.1C1474.9,571.2,1472.1,574,1468.6,574z"></path><path fill="#1561b5" stroke="#1561b5" stroke-width="5" stroke-linecap="round" stroke-linejoin="round" stroke-miterlimit="10" d="  M1377.5,546.7"></path><path fill="#1561b5" stroke="#1561b5" stroke-width="5" stroke-linecap="round" stroke-linejoin="round" stroke-miterlimit="10" d="  M1429,562.8h-49.4c-3.6,0-6.5-2.9-6.5-6.5V520c0-3.6,2.9-6.5,6.5-6.5h49.4c3.6,0,6.5,2.9,6.5,6.5v36.3  C1435.5,559.9,1432.6,562.8,1429,562.8z"></path><line fill="#1561b5" stroke="#1561b5" stroke-width="5" stroke-linecap="round" stroke-linejoin="round" stroke-miterlimit="10" x1="1435" y1="522.5" x2="1373" y2="522.5"></line><path fill="#1561b5" stroke="#1561b5" stroke-width="5" stroke-linecap="round" stroke-linejoin="round" stroke-miterlimit="10" d="  M1389.8,510.8c0.5-2.4,2.6-4.1,5.1-4.1h51.9c2.9,0,5.3,2.4,5.3,5.3v36.3c0,2.9-2.4,5.3-5.3,5.3h-10"></path><line fill="#1561b5" stroke="#1561b5" stroke-width="5" stroke-linecap="round" stroke-linejoin="round" stroke-miterlimit="10" x1="1452" y1="515.5" x2="1436" y2="515.5"></line><circle fill="#1561b5" cx="1195.3" cy="312.6" r="1.9"></circle><g><path fill="#1561b5" stroke="#1561b5" stroke-width="10" stroke-miterlimit="10" d="M1118.7,410.2v-98c0-4.2,3.4-7.6,7.6-7.6H1263   c4.2,0,7.6,3.4,7.6,7.6v98"></path><path fill="#1561b5" stroke="#1561b5" stroke-width="10" stroke-linejoin="round" stroke-miterlimit="10" d="M1219.1,410.2v1.4   c0,1.8-1.4,3.2-3.2,3.2h-42.6c-1.8,0-3.2-1.4-3.2-3.2v-1.4h0H1101v5.3c0,6.8,5.5,12.2,12.2,12.2H1276c6.8,0,12.3-5.5,12.3-12.2   v-5.3H1219.1L1219.1,410.2z"></path></g><path fill="#1561b5" stroke="#1561b5" stroke-width="5" stroke-linecap="round" stroke-miterlimit="10" d="M1251.6,397.2h-113.2  c-3.5,0-6.3-2.8-6.3-6.3v-66.1c0-3.5,2.8-6.3,6.3-6.3h113.2c3.5,0,6.3,2.8,6.3,6.3v66.1C1257.9,394.4,1255.1,397.2,1251.6,397.2z"></path><path fill="#1561b5" stroke="#1561b5" stroke-width="5" stroke-linecap="round" stroke-linejoin="round" stroke-miterlimit="10" d="  M1211,386.8h-49.4c-3.6,0-6.5-2.9-6.5-6.5V344c0-3.6,2.9-6.5,6.5-6.5h49.4c3.6,0,6.5,2.9,6.5,6.5v36.3  C1217.5,383.9,1214.6,386.8,1211,386.8z"></path><line fill="#1561b5" stroke="#1561b5" stroke-width="5" stroke-linecap="round" stroke-linejoin="round" stroke-miterlimit="10" x1="1217" y1="346.5" x2="1155" y2="346.5"></line><path fill="#1561b5" stroke="#1561b5" stroke-width="5" stroke-linecap="round" stroke-linejoin="round" stroke-miterlimit="10" d="  M1171.8,334.8c0.5-2.4,2.6-4.1,5.1-4.1h51.9c2.9,0,5.3,2.4,5.3,5.3v36.3c0,2.9-2.4,5.3-5.3,5.3h-10"></path><line fill="#1561b5" stroke="#1561b5" stroke-width="5" stroke-linecap="round" stroke-linejoin="round" stroke-miterlimit="10" x1="1234" y1="339.5" x2="1218" y2="339.5"></line><path fill="#1561b5" stroke="#1561b5" stroke-width="5" stroke-linecap="round" stroke-linejoin="round" stroke-miterlimit="10" d="  M1183.5,362.9v3.6h7v-3.6v0c4-0.6,4.5-1.9,4.5-4.2c0-3.3-3.5-4.6-8.1-4.6s-8,1.3-8,4.6C1178.8,361,1179.5,362.3,1183.5,362.9  L1183.5,362.9z"></path><line fill="#1561b5" stroke="#1561b5" stroke-width="5" stroke-linecap="round" stroke-linejoin="round" stroke-miterlimit="10" x1="1178.6" y1="379" x2="1195.5" y2="371.5"></line><line fill="#1561b5" stroke="#1561b5" stroke-width="5" stroke-linecap="round" stroke-linejoin="round" stroke-miterlimit="10" x1="1195.5" y1="379" x2="1178.6" y2="371.5"></line><line fill="#1561b5" stroke="#1561b5" stroke-width="5" stroke-linecap="round" stroke-linejoin="round" stroke-miterlimit="10" x1="1242" y1="358.5" x2="1250" y2="358.5"></line><line fill="#1561b5" stroke="#1561b5" stroke-width="5" stroke-linecap="round" stroke-linejoin="round" stroke-miterlimit="10" x1="1241.9" y1="350.6" x2="1250" y2="347.7"></line><line fill="#1561b5" stroke="#1561b5" stroke-width="5" stroke-linecap="round" stroke-linejoin="round" stroke-miterlimit="10" x1="1250" y1="370" x2="1241.9" y2="367.1"></line><line fill="#1561b5" stroke="#1561b5" stroke-width="5" stroke-linecap="round" stroke-linejoin="round" stroke-miterlimit="10" x1="1147" y1="358.5" x2="1139" y2="358.5"></line><line fill="#1561b5" stroke="#1561b5" stroke-width="5" stroke-linecap="round" stroke-linejoin="round" stroke-miterlimit="10" x1="1147.4" y1="350.6" x2="1139.4" y2="347.7"></line><line fill="#1561b5" stroke="#1561b5" stroke-width="5" stroke-linecap="round" stroke-linejoin="round" stroke-miterlimit="10" x1="1139.4" y1="370" x2="1147.4" y2="367.1"></line><line fill="#1561b5" stroke="#1561b5" stroke-width="5" stroke-linecap="round" stroke-miterlimit="10" x1="414" y1="818.5" x2="386" y2="818.5"></line><line fill="#1561b5" stroke="#1561b5" stroke-width="5" stroke-linecap="round" stroke-miterlimit="10" x1="422" y1="802.5" x2="386" y2="802.5"></line><line fill="#1561b5" stroke="#1561b5" stroke-width="5" stroke-linecap="round" stroke-miterlimit="10" x1="468" y1="897.5" x2="386" y2="897.5"></line><line fill="#1561b5" stroke="#1561b5" stroke-width="5" stroke-linecap="round" stroke-miterlimit="10" x1="468" y1="882.5" x2="386" y2="882.5"></line><line fill="#1561b5" stroke="#1561b5" stroke-width="5" stroke-linecap="round" stroke-miterlimit="10" x1="468" y1="882.5" x2="386" y2="882.5"></line><line fill="#1561b5" stroke="#1561b5" stroke-width="5" stroke-linecap="round" stroke-miterlimit="10" x1="468" y1="912.5" x2="386" y2="912.5"></line><line fill="#1561b5" stroke="#1561b5" stroke-width="5" stroke-linecap="round" stroke-miterlimit="10" x1="468" y1="897.5" x2="386" y2="897.5"></line><line fill="#1561b5" stroke="#1561b5" stroke-width="5" stroke-linecap="round" stroke-miterlimit="10" x1="468" y1="868.5" x2="456" y2="868.5"></line><path fill="#1561b5" stroke="#1561b5" stroke-width="10" stroke-linejoin="round" stroke-miterlimit="10" d="M446,781v28.9  c0,7.9,6.7,14.1,14.6,14.1H489l0,0v101.6c0,7.9-6.5,13.4-14.4,13.4h-96.3c-7.9,0-14.3-5.5-14.3-13.4V795.3c0-7.9,6.4-14.3,14.3-14.3  H446z"></path><path fill="#1561b5" stroke="#1561b5" stroke-width="10" stroke-linejoin="round" stroke-miterlimit="10" d="M364,918h-8.4  c-7.9,0-14.6-5.4-14.6-13.2V774.5c0-7.9,6.7-14.5,14.6-14.5H452c7.9,0,14,6.6,14,14.5V803"></path><path fill="#1561b5" stroke="#1561b5" stroke-width="5" stroke-linecap="round" stroke-miterlimit="10" d="M389.6,838.8h52  c2,0,3.6,1.6,3.6,3.6v23.7c0,2-1.6,3.6-3.6,3.6h-52c-2,0-3.6-1.6-3.6-3.6v-23.7C385.9,840.5,387.6,838.8,389.6,838.8z"></path><line fill="#1561b5" stroke="#1561b5" stroke-width="10" stroke-linecap="round" stroke-linejoin="round" stroke-miterlimit="10" x1="446.3" y1="781.2" x2="489" y2="823.9"></line><g><line fill="#1561b5" stroke="#1561b5" stroke-width="10" stroke-linejoin="round" stroke-miterlimit="10" x1="399" y1="870" x2="399" y2="853"></line><line fill="#1561b5" stroke="#1561b5" stroke-width="10" stroke-linejoin="round" stroke-miterlimit="10" x1="433" y1="870" x2="433" y2="859"></line><line fill="#1561b5" stroke="#1561b5" stroke-width="10" stroke-linejoin="round" stroke-miterlimit="10" x1="416" y1="870" x2="416" y2="847"></line></g><path fill="#1561b5" stroke="#1561b5" stroke-width="10" stroke-miterlimit="10" d="M834.1,634.8v-96.7c0-7.4,6-13.4,13.4-13.4h51.6  c7.4,0,13.4,6,13.4,13.4v96.7c0,4.2-3.4,7.5-7.5,7.5h-63.3C837.5,642.3,834.1,639,834.1,634.8z"></path><path fill="#1561b5" stroke="#1561b5" stroke-width="10" stroke-miterlimit="10" d="M899.1,642.3v45.8c0,2.3-1.9,4.2-4.2,4.2h-43.2  c-2.3,0-4.2-1.9-4.2-4.2v-45.8"></path><g><rect x="858.1" y="660.7" fill="#1561b5" width="8.3" height="8.3"></rect><rect x="880.1" y="660.7" fill="#1561b5" width="8.3" height="8.3"></rect></g><path fill="#1561b5" stroke="#1561b5" stroke-width="5" stroke-linecap="round" stroke-miterlimit="10" d="M851,625.3v-74.9  c0-4.8,3.3-8.6,7.5-8.6h30.1c4.1,0,7.5,3.9,7.5,8.6v74.9H851z"></path><g><path d="M61.3,35c-3.3,0-6,2.7-6,6s2.7,6,6,6c3.3,0,6-2.7,6-6S64.6,35,61.3,35z M61.3,45.3c-2.4,0-4.3-1.9-4.3-4.3s1.9-4.3,4.3-4.3   s4.3,1.9,4.3,4.3S63.6,45.3,61.3,45.3z"></path><path d="M79,61V30c0-3.3-2.7-6-5.9-6h-8.4l-1.4-6.8c-0.6-3.1-3.7-5.2-6.8-4.5L18,20.4c-1.5,0.3-2.8,1.2-3.7,2.5   c-0.9,1.3-1.2,2.8-0.9,4.4l8.9,44c0.6,2.8,3,4.7,5.7,4.7c0,0,0,0,0,0c0.5,2.6,2.9,4.7,5.8,4.7h23.6c2.4,5.2,7.7,8.9,13.8,8.9   c8.4,0,15.2-6.8,15.2-15.2C86.5,68.5,83.5,63.6,79,61z M25.7,70.5l-8.9-44c-0.1-0.6,0-1.3,0.4-1.8c0.4-0.5,0.9-0.9,1.5-1L57.2,16   c1.3-0.3,2.5,0.6,2.8,1.9l1.2,6.1h-3.1l-0.4-1.9c-0.2-0.8-0.6-1.5-1.3-2c-0.7-0.5-1.5-0.6-2.3-0.5L22.9,26c-1.7,0.3-2.8,2-2.4,3.7   l6.3,31.2c0.1,0.7,0.6,1.4,1.1,1.8v9.8C26.8,72.4,25.9,71.6,25.7,70.5z M27.9,30v27.7l-5.7-28.3c-0.2-0.7,0.3-1.5,1.1-1.6l5.8-1.2   C28.3,27.5,27.9,28.7,27.9,30z M56.4,24H41.5l12.9-2.6c0.4-0.1,0.7,0,1,0.2c0.3,0.2,0.5,0.5,0.6,0.9L56.4,24z M33.8,77.1   c-1.4,0-2.5-1-2.5-2.3V30c0-1.3,1.2-2.6,2.5-2.6h39.3c1.3,0,2.5,1.2,2.5,2.6v29.5c-1-0.3-2-0.5-3.1-0.6V33.7c0-1.8-1.4-3.2-3.1-3.2   H37.6c-1.7,0-3.1,1.5-3.1,3.2v31.8c0,1.7,1.4,3,3.1,3h19.5c-0.7,1.7-1.1,3.6-1.1,5.6c0,1,0.1,2,0.3,3H33.8z M57.9,66.8H37.6   c-0.8,0-1.4-0.6-1.4-1.3v-6.3c0.1,0,0.2-0.1,0.3-0.2l9.1-9.1c0.3-0.3,0.8-0.3,1.1,0l8.6,8.6l-4.8,4.8c-0.3,0.3-0.3,0.9,0,1.2   c0.2,0.2,0.4,0.3,0.6,0.3c0.2,0,0.4-0.1,0.6-0.3l9.1-9.1c0.3-0.3,0.8-0.3,1.1,0l4.3,4.3C62.6,61,59.7,63.6,57.9,66.8z M68.1,59.2   l-5-5c-0.5-0.5-1.1-0.7-1.8-0.7s-1.3,0.3-1.8,0.7l-3.1,3.1l-8.6-8.6c-1-1-2.5-1-3.5,0l-8.2,8.2V33.7c0-0.8,0.7-1.5,1.4-1.5h31.8   c0.7,0,1.4,0.7,1.4,1.5v25.2C69.8,58.9,68.9,59,68.1,59.2z M71.3,86c-6.5,0-11.8-5.3-11.8-11.8c0-6.5,5.3-11.8,11.8-11.8   s11.8,5.3,11.8,11.8C83.1,80.7,77.8,86,71.3,86z"></path><path d="M77.4,71.7h-3.6v-3.6c0-0.5-0.4-0.9-0.9-0.9h-3.2c-0.5,0-0.9,0.4-0.9,0.9v3.6h-3.6c-0.5,0-0.9,0.4-0.9,0.9v3.2   c0,0.5,0.4,0.9,0.9,0.9h3.6v3.5c0,0.5,0.4,0.9,0.9,0.9h3.2c0.5,0,0.9-0.4,0.9-0.9v-3.5h3.6c0.5,0,0.9-0.4,0.9-0.9v-3.2   C78.2,72.1,77.8,71.7,77.4,71.7z M76.5,74.9h-3.6c-0.5,0-0.9,0.4-0.9,0.9v3.5h-1.5v-3.5c0-0.5-0.4-0.9-0.9-0.9H66v-1.5h3.6   c0.5,0,0.9-0.4,0.9-0.9V69H72v3.6c0,0.5,0.4,0.9,0.9,0.9h3.6V74.9z"></path></g></svg>