<svg width="59" height="58" viewBox="0 0 59 58" fill="none" xmlns="http://www.w3.org/2000/svg">
<rect x="3.78125" y="3" width="52" height="52" rx="26" fill="#98A2B3"/>
<path d="M23.7812 35L28.7812 30M28.7812 30L33.7812 35M28.7812 30V41.25M38.7812 35.9285C40.3081 34.6676 41.2812 32.7599 41.2812 30.625C41.2812 26.828 38.2032 23.75 34.4062 23.75C34.1331 23.75 33.8776 23.6075 33.7389 23.3722C32.1088 20.606 29.0993 18.75 25.6562 18.75C20.4786 18.75 16.2812 22.9473 16.2812 28.125C16.2812 30.7076 17.3256 33.0463 19.0149 34.7419" stroke="#F9FAFB" stroke-width="1.66667" stroke-linecap="round" stroke-linejoin="round"/>
<rect x="3.78125" y="3" width="52" height="52" rx="26" stroke="#F9FAFB" stroke-width="6"/>
</svg>
