<svg width="6" height="5" viewBox="0 0 6 5" fill="none" xmlns="http://www.w3.org/2000/svg">
<path d="M2.65815 4.54783L0.848318 1.53979L0.848316 1.53979C0.677536 1.25595 0.592146 1.11402 0.563013 1.00293C0.453207 0.584206 0.696384 0.154094 1.11178 0.0323114C1.222 4.20164e-07 1.38763 4.12945e-07 1.71889 3.98505e-07L4.14153 2.92901e-07C4.47279 2.78461e-07 4.63842 2.71241e-07 4.74863 0.0323112C5.16403 0.154094 5.40721 0.584205 5.2974 1.00293C5.26827 1.11402 5.18288 1.25595 5.0121 1.53979L3.20226 4.54783C3.15169 4.63189 3.1264 4.67392 3.10085 4.69778C3.00478 4.78751 2.85563 4.78751 2.75956 4.69778C2.73402 4.67392 2.70873 4.63189 2.65816 4.54784L2.65815 4.54783Z" fill="white"/>
</svg>
