<svg width="23" height="23" viewBox="0 0 23 23" fill="none" xmlns="http://www.w3.org/2000/svg">
<path d="M11.5 1.91663V6.70829M11.5 1.91663C10.8165 1.91663 10.1496 1.98819 9.5066 2.12423M11.5 1.91663C12.1835 1.91663 12.8504 1.98819 13.4934 2.12423M11.5 6.70829C8.85363 6.70829 6.70835 8.85362 6.70835 11.5M11.5 6.70829C14.1464 6.70829 16.2917 8.85362 16.2917 11.5M11.5 16.2916V21.0833M11.5 16.2916C14.1464 16.2916 16.2917 14.1463 16.2917 11.5M11.5 16.2916C8.85363 16.2916 6.70835 14.1463 6.70835 11.5M11.5 21.0833C12.1825 21.0833 12.8484 21.0119 13.4905 20.8763M11.5 21.0833C10.8149 21.0833 10.1467 21.0114 9.50232 20.8748M4.72356 4.72352L8.11178 8.11174M14.8882 14.8882L18.2764 18.2764M1.91669 11.5H6.70835M1.91669 11.5C1.91669 12.1836 1.98824 12.8504 2.1243 13.4935M1.91669 11.5C1.91669 10.8154 1.98845 10.1475 2.1249 9.50359M16.2917 11.5H21.0834M21.0834 11.5C21.0834 10.8164 21.0118 10.1495 20.8757 9.50642M21.0834 11.5C21.0834 12.1833 21.0118 12.8499 20.8759 13.4927M4.72356 18.2764L8.11178 14.8882M14.8882 8.11174L18.2764 4.72352M16.7197 3.46153C17.8451 4.19381 18.8072 5.15601 19.5393 6.28154M19.5366 16.7225C18.8044 17.8469 17.8426 18.8082 16.7176 19.5397M6.28066 19.5386C5.15685 18.8075 4.1959 17.847 3.46415 16.7236M3.46124 6.28075C4.19316 5.15574 5.15483 4.19394 6.27974 3.46188" stroke="#475467" stroke-width="1.5" stroke-linecap="round" stroke-linejoin="round"/>
</svg>
