<svg width="49" height="49" viewBox="0 0 49 49" fill="none" xmlns="http://www.w3.org/2000/svg">
<circle cx="24.5" cy="24.5" r="24" fill="#F2F3F5" stroke="#E4E4E4"/>
<path d="M22 15H28M16 18H34M32 18L31.2987 28.5193C31.1935 30.0975 31.1409 30.8867 30.8 31.485C30.4999 32.0118 30.0472 32.4353 29.5017 32.6997C28.882 33 28.0911 33 26.5093 33H23.4907C21.9089 33 21.118 33 20.4983 32.6997C19.9528 32.4353 19.5001 32.0118 19.2 31.485C18.8591 30.8867 18.8065 30.0975 18.7013 28.5193L18 18M23 22.5V27.5M27 22.5V27.5" stroke="black" stroke-width="2" stroke-linecap="round" stroke-linejoin="round"/>
</svg>
