<svg width="49" height="49" viewBox="0 0 49 49" fill="none" xmlns="http://www.w3.org/2000/svg">
<circle cx="24.5" cy="24.5" r="24.5" fill="#027A48"/>
<path d="M15 14H16.3062C16.5522 14 16.6752 14 16.7742 14.0452C16.8614 14.0851 16.9353 14.1492 16.9871 14.2299C17.0459 14.3215 17.0633 14.4433 17.0981 14.6869L17.5714 18M17.5714 18L18.6233 25.7314C18.7568 26.7125 18.8235 27.2031 19.0581 27.5723C19.2648 27.8977 19.5611 28.1564 19.9114 28.3174C20.3089 28.5 20.8039 28.5 21.7941 28.5H30.352C31.2945 28.5 31.7658 28.5 32.151 28.3304C32.4905 28.1809 32.7818 27.9398 32.9923 27.6342C33.2309 27.2876 33.3191 26.8247 33.4955 25.8988L34.8191 18.9497C34.8812 18.6238 34.9122 18.4609 34.8672 18.3335C34.8278 18.2218 34.7499 18.1277 34.6475 18.068C34.5308 18 34.365 18 34.0332 18H17.5714ZM23 33C23 33.5523 22.5523 34 22 34C21.4477 34 21 33.5523 21 33C21 32.4477 21.4477 32 22 32C22.5523 32 23 32.4477 23 33ZM31 33C31 33.5523 30.5523 34 30 34C29.4477 34 29 33.5523 29 33C29 32.4477 29.4477 32 30 32C30.5523 32 31 32.4477 31 33Z" stroke="white" stroke-width="2" stroke-linecap="round" stroke-linejoin="round"/>
</svg>
