<svg width="37" height="37" viewBox="0 0 37 37" fill="none" xmlns="http://www.w3.org/2000/svg">
<path d="M36.6797 18.6067C36.7782 8.52749 28.687 0.276793 18.6074 0.178274C8.52786 0.0797544 0.276895 8.17072 0.178379 18.2499C0.0798629 28.3292 8.1711 36.5799 18.2507 36.6784C28.3302 36.7769 36.5812 28.6859 36.6797 18.6067Z" fill="url(#paint0_radial_3_22550)"/>
<g style="mix-blend-mode:multiply">
<path d="M36.681 18.4305C36.681 28.5078 28.5075 36.681 18.43 36.681C14.4305 36.681 10.7346 35.3964 7.73291 33.218C10.4353 34.6314 13.5076 35.4339 16.767 35.4339C27.5346 35.4339 36.2652 26.7037 36.2652 15.9363C36.2652 15.3502 36.2403 14.7682 36.1863 14.1943C36.5105 15.5537 36.681 16.9714 36.681 18.4305Z" fill="#FBD69E"/>
</g>
<path d="M11.256 22.9833C14.5762 22.9833 17.2678 20.1998 17.2678 16.7661C17.2678 13.3324 14.5762 10.5488 11.256 10.5488C7.93574 10.5488 5.24414 13.3324 5.24414 16.7661C5.24414 20.1998 7.93574 22.9833 11.256 22.9833Z" fill="white"/>
<path d="M13.5146 16.7655C13.5146 18.013 12.5033 19.0242 11.2558 19.0242C10.0082 19.0242 8.99707 18.013 8.99707 16.7655C8.99707 15.5181 10.0083 14.5068 11.2558 14.5068C12.5032 14.5068 13.5146 15.518 13.5146 16.7655Z" fill="#87594A"/>
<path d="M25.6032 22.9833C28.9234 22.9833 31.615 20.1998 31.615 16.7661C31.615 13.3324 28.9234 10.5488 25.6032 10.5488C22.2829 10.5488 19.5913 13.3324 19.5913 16.7661C19.5913 20.1998 22.2829 22.9833 25.6032 22.9833Z" fill="white"/>
<path d="M23.3447 16.7655C23.3447 18.013 24.356 19.0242 25.6035 19.0242C26.8511 19.0242 27.8623 18.013 27.8623 16.7655C27.8623 15.5181 26.851 14.5068 25.6035 14.5068C24.3561 14.5068 23.3447 15.518 23.3447 16.7655Z" fill="#87594A"/>
<g style="mix-blend-mode:multiply">
<path d="M7.67204 8.75778C8.75705 7.94534 10.1436 7.63749 11.4705 7.91419C11.9697 8.01372 12.531 7.83583 12.7433 7.39231C12.7458 7.38684 12.7481 7.38136 12.7505 7.37589C12.9638 6.93614 12.5671 6.31048 11.8362 6.1585C10.0062 5.7768 8.0939 6.20145 6.59751 7.32198C5.99971 7.76903 5.90516 8.50384 6.28443 8.81193C6.28894 8.81582 6.29344 8.81983 6.29794 8.82385C6.67806 9.13571 7.26187 9.05918 7.67204 8.75778Z" fill="#FBD69E"/>
</g>
<g style="mix-blend-mode:multiply">
<path d="M29.1861 8.75778C28.1011 7.94534 26.7146 7.63749 25.3879 7.91419C24.8886 8.01372 24.3273 7.83583 24.115 7.39231C24.1126 7.38684 24.1102 7.38136 24.1078 7.37589C23.8945 6.93614 24.2912 6.31048 25.0221 6.1585C26.8521 5.7768 28.7644 6.20145 30.2608 7.32198C30.8586 7.76903 30.9531 8.50384 30.5738 8.81193C30.5693 8.81582 30.5648 8.81983 30.5604 8.82385C30.1803 9.13571 29.5964 9.05918 29.1863 8.75778H29.1861Z" fill="#FBD69E"/>
</g>
<path d="M21.7937 29.3857C21.7937 30.8033 21.0795 32.0363 20.0277 32.667C19.6 32.923 19.1166 33.0795 18.6027 33.1087C18.5452 33.1121 18.4875 33.1133 18.4296 33.1133C18.3717 33.1133 18.314 33.1121 18.2564 33.1087C17.7426 33.0796 17.2592 32.923 16.8315 32.667C15.7797 32.0363 15.0654 30.8033 15.0654 29.3857C15.0654 28.7848 15.194 28.2608 15.4221 27.8202C15.9747 26.7507 17.114 26.1719 18.4296 26.1719C19.7451 26.1719 20.8844 26.7507 21.4371 27.8202C21.6652 28.2607 21.7937 28.7847 21.7937 29.3857Z" fill="#87594A"/>
<defs>
<radialGradient id="paint0_radial_3_22550" cx="0" cy="0" r="1" gradientUnits="userSpaceOnUse" gradientTransform="translate(18.2236 15.2464) scale(18.2513 18.2513)">
<stop stop-color="#FDDB35"/>
<stop offset="0.482" stop-color="#FCD934"/>
<stop offset="0.655" stop-color="#FCD232"/>
<stop offset="0.779" stop-color="#FBC62E"/>
<stop offset="0.879" stop-color="#F9B528"/>
<stop offset="0.964" stop-color="#F89F21"/>
<stop offset="1" stop-color="#F7941E"/>
</radialGradient>
</defs>
</svg>
