<svg width="37" height="38" viewBox="0 0 37 38" fill="none" xmlns="http://www.w3.org/2000/svg">
<path d="M36.6384 18.5232C36.7137 8.44381 28.6035 0.21178 18.5237 0.136483C8.44393 0.0611852 0.211628 8.17113 0.136333 18.2506C0.0610385 28.33 8.17126 36.562 18.251 36.6373C28.3308 36.7126 36.5631 28.6027 36.6384 18.5232Z" fill="url(#paint0_radial_3_22538)"/>
<g style="mix-blend-mode:multiply">
<path d="M36.6385 18.3886C36.6385 28.4658 28.4651 36.639 18.3875 36.639C14.3881 36.639 10.6921 35.3544 7.69043 33.176C10.3928 34.5896 13.465 35.3919 16.7244 35.3919C27.4921 35.3919 36.2228 26.6617 36.2228 15.8943C36.2228 15.3082 36.1978 14.7261 36.1438 14.1523C36.4681 15.5117 36.6385 16.9294 36.6385 18.3886Z" fill="#FBD69E"/>
</g>
<g style="mix-blend-mode:multiply">
<path d="M12.0395 10.6805C10.6965 10.4972 9.33496 10.9013 8.30946 11.7875C7.92143 12.1169 7.34432 12.2339 6.94327 11.9495C6.93853 11.9458 6.93378 11.9422 6.92903 11.9385C6.52908 11.6577 6.57203 10.918 7.1371 10.4303C8.55148 9.20794 10.4295 8.65065 12.2816 8.9035C13.0213 9.004 13.4608 9.60047 13.2788 10.054C13.2768 10.0596 13.2749 10.0653 13.2728 10.0709C13.092 10.528 12.5445 10.7447 12.0395 10.6804V10.6805Z" fill="#FBD69E"/>
</g>
<g style="mix-blend-mode:multiply">
<path d="M24.7341 10.6805C26.077 10.4972 27.4386 10.9013 28.4641 11.7875C28.8521 12.1169 29.4293 12.2339 29.8302 11.9495C29.8349 11.9458 29.8397 11.9422 29.8444 11.9385C30.2444 11.6577 30.2014 10.918 29.6364 10.4303C28.222 9.20794 26.344 8.65065 24.4918 8.9035C23.7521 9.004 23.3126 9.60047 23.4947 10.054C23.4966 10.0596 23.4987 10.0653 23.5006 10.0709C23.6816 10.528 24.229 10.7447 24.734 10.6804L24.7341 10.6805Z" fill="#FBD69E"/>
</g>
<path d="M11.4685 19.8274C13.369 19.8274 14.9097 18.2341 14.9097 16.2687C14.9097 14.3032 13.369 12.71 11.4685 12.71C9.56801 12.71 8.02734 14.3032 8.02734 16.2687C8.02734 18.2341 9.56801 19.8274 11.4685 19.8274Z" fill="#87594A"/>
<path d="M12.7617 14.8895C12.7617 15.6035 12.1829 16.1823 11.4687 16.1823C10.7546 16.1823 10.1758 15.6035 10.1758 14.8895C10.1758 14.1755 10.7546 13.5967 11.4687 13.5967C12.1829 13.5967 12.7617 14.1755 12.7617 14.8895Z" fill="white"/>
<path d="M25.3049 19.8274C27.2054 19.8274 28.7461 18.2341 28.7461 16.2687C28.7461 14.3032 27.2054 12.71 25.3049 12.71C23.4044 12.71 21.8638 14.3032 21.8638 16.2687C21.8638 18.2341 23.4044 19.8274 25.3049 19.8274Z" fill="#87594A"/>
<path d="M26.5976 14.8895C26.5976 15.6035 26.0188 16.1823 25.3047 16.1823C24.5905 16.1823 24.0117 15.6035 24.0117 14.8895C24.0117 14.1755 24.5905 13.5967 25.3047 13.5967C26.0188 13.5967 26.5976 14.1755 26.5976 14.8895Z" fill="white"/>
<path d="M28.8733 23.7928C28.7754 24.5697 28.5538 25.3168 28.2214 26.0168C26.7061 29.2419 22.9207 31.5257 18.4909 31.5257H18.2797C13.8526 31.5257 10.0671 29.2419 8.55195 26.0189C8.22208 25.3167 7.99794 24.5696 7.89999 23.7927C7.85108 23.4 8.32258 23.1118 8.76317 23.2569C12.1363 24.3604 17.4654 24.4821 18.3853 24.4821C19.3052 24.4821 24.6369 24.3604 28.01 23.2569C28.4506 23.1118 28.9223 23.3999 28.8732 23.7927L28.8733 23.7928Z" fill="#87594A"/>
<path d="M24.0127 30.6341V33.1841C24.0127 35.8418 21.7676 37.9975 18.9989 37.9975H17.7763C15.0077 37.9975 12.7627 35.8418 12.7627 33.1841V30.6341C12.7627 26.458 13.6003 24.9336 16.3259 24.9336C17.2898 24.9336 17.915 25.103 18.2014 25.4387C18.3246 25.5835 18.3862 25.7559 18.3862 25.9591C18.3862 25.7559 18.4477 25.5834 18.571 25.4417C18.8542 25.103 19.4826 24.9336 20.4496 24.9336C23.172 24.9336 24.0128 26.458 24.0128 30.6341H24.0127Z" fill="url(#paint1_linear_3_22538)"/>
<g style="mix-blend-mode:multiply">
<path d="M18.5712 25.4415V28.9862C18.5712 29.1649 18.4911 29.3095 18.3895 29.3095H18.3864C18.2848 29.3095 18.2017 29.1647 18.2017 28.9862V25.4385C18.3248 25.5833 18.3864 25.7557 18.3864 25.9589C18.3864 25.7557 18.4479 25.5832 18.5712 25.4415Z" fill="#E6E7E8"/>
</g>
<defs>
<radialGradient id="paint0_radial_3_22538" cx="0" cy="0" r="1" gradientUnits="userSpaceOnUse" gradientTransform="translate(18.3875 15.5377) scale(18.2513)">
<stop stop-color="#FDDB35"/>
<stop offset="0.482" stop-color="#FCD934"/>
<stop offset="0.655" stop-color="#FCD232"/>
<stop offset="0.779" stop-color="#FBC62E"/>
<stop offset="0.879" stop-color="#F9B528"/>
<stop offset="0.964" stop-color="#F89F21"/>
<stop offset="1" stop-color="#F7941E"/>
</radialGradient>
<linearGradient id="paint1_linear_3_22538" x1="18.3876" y1="24.9336" x2="18.3876" y2="37.9976" gradientUnits="userSpaceOnUse">
<stop stop-color="#E3272D"/>
<stop offset="1" stop-color="#EC3676"/>
</linearGradient>
</defs>
</svg>
