<svg width="17" height="16" viewBox="0 0 17 16" fill="none" xmlns="http://www.w3.org/2000/svg">
<g clip-path="url(#clip0_4565_12535)">
<path d="M6.17198 6.00016C6.32872 5.55461 6.63808 5.1789 7.04528 4.93958C7.45248 4.70027 7.93124 4.61279 8.39676 4.69264C8.86228 4.77249 9.28452 5.01451 9.5887 5.37585C9.89287 5.73718 10.0593 6.19451 10.0586 6.66683C10.0586 8.00016 8.05865 8.66683 8.05865 8.66683M8.11198 11.3335H8.11865M14.7786 8.00016C14.7786 11.6821 11.7939 14.6668 8.11198 14.6668C4.43008 14.6668 1.44531 11.6821 1.44531 8.00016C1.44531 4.31826 4.43008 1.3335 8.11198 1.3335C11.7939 1.3335 14.7786 4.31826 14.7786 8.00016Z" stroke="#98A2B3" stroke-width="1.33333" stroke-linecap="round" stroke-linejoin="round"/>
</g>
<defs>
<clipPath id="clip0_4565_12535">
<rect width="16" height="16" fill="white" transform="translate(0.111328)"/>
</clipPath>
</defs>
</svg>
