<svg width="54" height="54" viewBox="0 0 54 54" fill="none" xmlns="http://www.w3.org/2000/svg">
<rect x="1" y="1" width="52" height="52" rx="26" fill="white"/>
<path d="M22 32L27 27M27 27L32 32M27 27V38.25M37 32.9285C38.5269 31.6676 39.5 29.7599 39.5 27.625C39.5 23.828 36.422 20.75 32.625 20.75C32.3519 20.75 32.0963 20.6075 31.9576 20.3722C30.3276 17.606 27.318 15.75 23.875 15.75C18.6973 15.75 14.5 19.9473 14.5 25.125C14.5 27.7076 15.5443 30.0463 17.2337 31.7419" stroke="#98A2B3" stroke-width="1.66667" stroke-linecap="round" stroke-linejoin="round"/>
<rect x="1" y="1" width="52" height="52" rx="26" stroke="#BBC2CD"/>
</svg>
