<svg width="35" height="34" viewBox="0 0 35 34" fill="none" xmlns="http://www.w3.org/2000/svg">
<path d="M27.709 18.4165C28.2048 18.4165 28.6861 18.4732 29.1673 18.544V14.1665C29.1673 13.4151 28.86 12.6944 28.313 12.163C27.7661 11.6317 27.0242 11.3332 26.2507 11.3332H24.7923V8.49984C24.7923 4.58984 21.5257 1.4165 17.5007 1.4165C13.4757 1.4165 10.209 4.58984 10.209 8.49984V11.3332H8.75065C7.9771 11.3332 7.23524 11.6317 6.68826 12.163C6.14128 12.6944 5.83398 13.4151 5.83398 14.1665V28.3332C5.83398 29.9057 7.1319 31.1665 8.75065 31.1665H20.1402C19.3965 29.9198 18.959 28.4748 18.959 26.9165C18.959 22.2273 22.8819 18.4165 27.709 18.4165ZM13.1257 8.49984C13.1257 6.14817 15.0798 4.24984 17.5007 4.24984C19.9215 4.24984 21.8757 6.14817 21.8757 8.49984V11.3332H13.1257V8.49984ZM17.5007 24.0832C16.9238 24.0832 16.3599 23.917 15.8802 23.6057C15.4006 23.2943 15.0268 22.8518 14.806 22.3341C14.5852 21.8164 14.5275 21.2467 14.64 20.6971C14.7526 20.1475 15.0304 19.6426 15.4383 19.2464C15.8462 18.8501 16.3659 18.5803 16.9316 18.4709C17.4974 18.3616 18.0839 18.4177 18.6168 18.6322C19.1498 18.8466 19.6053 19.2098 19.9258 19.6757C20.2463 20.1417 20.4173 20.6895 20.4173 21.2498C20.4173 22.8223 19.1194 24.0832 17.5007 24.0832ZM32.8132 24.4373L25.8861 31.1665L21.8757 26.9165L23.5673 25.2732L25.8861 27.5257L31.1215 22.4398L32.8132 24.4373Z" fill="black"/>
</svg>
