<svg width="23" height="23" viewBox="0 0 23 23" fill="none" xmlns="http://www.w3.org/2000/svg">
<path d="M2.14587 2.25342H3.36068C3.5895 2.25342 3.7039 2.25342 3.79597 2.29549C3.8771 2.33257 3.94586 2.39221 3.99404 2.46728C4.04872 2.55247 4.0649 2.66573 4.09725 2.89224L4.53746 5.97366M4.53746 5.97366L5.51578 13.1643C5.63993 14.0768 5.702 14.5331 5.92015 14.8765C6.11237 15.1791 6.38795 15.4198 6.71373 15.5694C7.08343 15.7393 7.54389 15.7393 8.4648 15.7393H16.4241C17.3008 15.7393 17.7391 15.7393 18.0973 15.5816C18.4131 15.4425 18.6841 15.2183 18.8798 14.9341C19.1017 14.6117 19.1837 14.1811 19.3478 13.32L20.5788 6.85692C20.6366 6.55383 20.6654 6.40229 20.6236 6.28383C20.5869 6.17992 20.5145 6.09241 20.4193 6.03692C20.3107 5.97366 20.1565 5.97366 19.8479 5.97366H4.53746ZM9.58635 19.9245C9.58635 20.4382 9.16995 20.8546 8.65629 20.8546C8.14263 20.8546 7.72623 20.4382 7.72623 19.9245C7.72623 19.4109 8.14263 18.9945 8.65629 18.9945C9.16995 18.9945 9.58635 19.4109 9.58635 19.9245ZM17.0268 19.9245C17.0268 20.4382 16.6104 20.8546 16.0968 20.8546C15.5831 20.8546 15.1667 20.4382 15.1667 19.9245C15.1667 19.4109 15.5831 18.9945 16.0968 18.9945C16.6104 18.9945 17.0268 19.4109 17.0268 19.9245Z" stroke="#202952" stroke-width="2" stroke-linecap="round" stroke-linejoin="round"/>
</svg>
