<svg width="61" height="57" viewBox="0 0 61 57" fill="none" xmlns="http://www.w3.org/2000/svg">
<path d="M28.5979 1.85411C29.1966 0.0114856 31.8034 0.0114813 32.4021 1.8541L38.0212 19.1479C38.289 19.972 39.0569 20.5299 39.9233 20.5299H58.1071C60.0446 20.5299 60.8501 23.0091 59.2827 24.1479L44.5717 34.8361C43.8707 35.3454 43.5774 36.2481 43.8452 37.0722L49.4643 54.366C50.063 56.2086 47.954 57.7409 46.3866 56.6021L31.6756 45.9139C30.9746 45.4046 30.0254 45.4046 29.3244 45.9139L14.6134 56.6021C13.046 57.7409 10.937 56.2086 11.5357 54.366L17.1548 37.0722C17.4226 36.2481 17.1293 35.3454 16.4283 34.8361L1.7173 24.1479C0.149869 23.0091 0.955415 20.5299 2.89286 20.5299H21.0767C21.9431 20.5299 22.711 19.972 22.9788 19.1479L28.5979 1.85411Z" fill="#FAC515"/>
</svg>
