<svg width="23" height="23" viewBox="0 0 23 23" fill="none" xmlns="http://www.w3.org/2000/svg">
<path d="M11.4465 14.3438C8.49811 14.3438 5.87615 15.7674 4.20688 17.9766C3.84761 18.4521 3.66797 18.6898 3.67385 19.0111C3.67839 19.2594 3.83427 19.5725 4.02958 19.7258C4.28239 19.9242 4.63273 19.9242 5.3334 19.9242H17.5595C18.2602 19.9242 18.6105 19.9242 18.8634 19.7258C19.0587 19.5725 19.2145 19.2594 19.2191 19.0111C19.225 18.6898 19.0453 18.4521 18.6861 17.9766C17.0168 15.7674 14.3948 14.3438 11.4465 14.3438Z" stroke="#202952" stroke-width="2" stroke-linecap="round" stroke-linejoin="round"/>
<path d="M11.4465 11.5536C13.7579 11.5536 15.6317 9.67983 15.6317 7.36837C15.6317 5.05691 13.7579 3.18311 11.4465 3.18311C9.13501 3.18311 7.2612 5.05691 7.2612 7.36837C7.2612 9.67983 9.13501 11.5536 11.4465 11.5536Z" stroke="#202952" stroke-width="2" stroke-linecap="round" stroke-linejoin="round"/>
</svg>
