<svg width="49" height="19" viewBox="0 0 49 19" fill="none" xmlns="http://www.w3.org/2000/svg">
<path fill-rule="evenodd" clip-rule="evenodd" d="M12.1596 18.1599H7.95041L4.79405 4.08148C4.64424 3.43387 4.32614 2.86135 3.85822 2.59151C2.6905 1.9134 1.40374 1.37372 0 1.10154V0.559517H6.78062C7.71645 0.559517 8.41832 1.37372 8.5353 2.31933L10.173 12.4746L14.3801 0.559517H18.4723L12.1596 18.1599ZM20.8122 18.1599H16.837L20.1103 0.559517H24.0855L20.8122 18.1599ZM29.2277 5.43558C29.3447 4.48763 30.0466 3.94561 30.8654 3.94561C32.1522 3.80952 33.5539 4.0817 34.7237 4.75747L35.4255 0.968013C34.2557 0.425992 32.969 0.153809 31.8013 0.153809C27.943 0.153809 25.1356 2.59173 25.1356 5.97526C25.1356 8.54927 27.1242 9.9008 28.5279 10.715C30.0466 11.5269 30.6315 12.0689 30.5145 12.8807C30.5145 14.0985 29.3447 14.6406 28.177 14.6406C26.7732 14.6406 25.3695 14.2346 24.0848 13.5565L23.3829 17.3483C24.7867 18.0241 26.3053 18.2963 27.7091 18.2963C32.0352 18.43 34.7237 15.9944 34.7237 12.3387C34.7237 7.73506 29.2277 7.46523 29.2277 5.43558V5.43558ZM48.6354 18.1599L45.4791 0.559517H42.0888C41.3869 0.559517 40.685 1.10154 40.4511 1.9134L34.6063 18.1599H38.6984L39.5152 15.5883H44.5433L45.0112 18.1599H48.6354ZM42.6736 5.29997L43.8414 11.9333H40.568L42.6736 5.29997Z" fill="#172B85"/>
</svg>
