<svg width="40" height="30" viewBox="0 0 40 30" fill="none" xmlns="http://www.w3.org/2000/svg">
<g clip-path="url(#clip0_3730_43005)">
<path fill-rule="evenodd" clip-rule="evenodd" d="M0 0H40V30H0V0Z" fill="black"/>
<path fill-rule="evenodd" clip-rule="evenodd" d="M26.6687 0H40V30H26.6687V0Z" fill="#009900"/>
<path fill-rule="evenodd" clip-rule="evenodd" d="M13.3313 0H26.6688V30H13.3313V0Z" fill="#BF0000"/>
<path fill-rule="evenodd" clip-rule="evenodd" d="M21.2984 16.7148H21.8501C21.8501 16.9275 21.983 17.1535 22.1492 17.2798H21.0857C21.2519 17.1336 21.2984 16.9475 21.2984 16.7148Z" fill="white" stroke="#BD6B00" stroke-width="0.0664662"/>
<path fill-rule="evenodd" clip-rule="evenodd" d="M17.7891 13.5704L18.0948 13.9028L21.8834 13.916L22.1891 13.5837L21.2187 13.5638L20.7535 13.2314H19.2247L18.7861 13.5704H17.7891Z" fill="white"/>
<path fill-rule="evenodd" clip-rule="evenodd" d="M19.3377 13.1854H20.6471C20.8199 13.0924 20.8797 12.7933 20.8797 12.6271C20.8797 12.1353 20.5274 11.896 20.1818 11.8827C20.1286 11.8827 20.0688 11.8428 20.0555 11.7963C20.0223 11.6899 20.0289 11.6168 19.989 11.6235C19.9625 11.6235 19.9691 11.6899 19.9425 11.783C19.9226 11.8362 19.8694 11.8827 19.8096 11.8893C19.3842 11.9093 19.105 12.2217 19.1117 12.6271C19.1183 12.893 19.1516 13.0525 19.3377 13.1854Z" fill="white" stroke="#BD6B00" stroke-width="0.0664662"/>
<path fill-rule="evenodd" clip-rule="evenodd" d="M17.1907 17.8449H22.7938L22.2953 17.4395H17.6826L17.1841 17.8449H17.1907Z" fill="white"/>
<path fill-rule="evenodd" clip-rule="evenodd" d="M19.763 16.3095L19.8627 16.6152H20.0953L19.9092 16.3095H19.763ZM19.6301 16.6152L19.6965 16.921H19.9624L19.8627 16.6152H19.6301ZM20.0953 16.6152L20.2814 16.921H20.6736L20.3678 16.6152H20.0953ZM17.8022 17.3065C18.0083 17.1137 18.1412 16.9542 18.1412 16.7216H18.6464C18.6464 16.8545 18.6929 16.9276 18.766 16.921H19.2778V16.6219H18.9056V14.9802C18.8923 14.3953 19.6101 14.0629 19.9026 14.0629H18.1545V14.0098H21.8301V14.0629H20.0687C20.5938 14.0629 21.099 14.5614 21.1056 14.9802V15.4454H21.0392L21.0325 14.9868C21.0325 14.5282 20.4542 14.1028 19.989 14.1161C19.5902 14.1228 18.9654 14.5083 18.9721 14.9802V15.1264L19.9225 15.133L19.9159 15.2992L20.0621 15.3923L20.3612 15.4853V15.7379L20.5739 15.7977V16.0436L20.8265 16.1566V16.4092L20.9926 16.5089L20.986 16.7681L21.2053 16.921H20.6869L21.0126 17.2866H20.5274L20.2881 16.921H19.9757L20.1153 17.2799H19.7829L19.6965 16.921H19.2844V17.3065H17.8089H17.8022ZM19.2778 16.3095V16.6152H19.6301L19.5636 16.3095H19.2712H19.2778Z" fill="white"/>
<path d="M19.8627 16.6152L19.763 16.3095H19.9092L20.0953 16.6152M19.8627 16.6152H20.0953M19.8627 16.6152L19.9624 16.921H19.6965M19.8627 16.6152H19.6301M20.0953 16.6152L20.2814 16.921H20.6736L20.3678 16.6152H20.0953ZM19.6301 16.6152L19.6965 16.921M19.6301 16.6152H19.2778V16.3095H19.2712H19.5636L19.6301 16.6152ZM19.6965 16.921L19.7829 17.2799H20.1153L19.9757 16.921H20.2881L20.5274 17.2866H21.0126L20.6869 16.921H21.2053L20.986 16.7681L20.9926 16.5089L20.8265 16.4092V16.1566L20.5739 16.0436V15.7977L20.3612 15.7379V15.4853L20.0621 15.3923L19.9159 15.2992L19.9225 15.133L18.9721 15.1264V14.9802C18.9654 14.5083 19.5902 14.1228 19.989 14.1161C20.4542 14.1028 21.0325 14.5282 21.0325 14.9868L21.0392 15.4454H21.1056V14.9802C21.099 14.5614 20.5938 14.0629 20.0687 14.0629H21.8301V14.0098H18.1545V14.0629H19.9026C19.6101 14.0629 18.8923 14.3953 18.9056 14.9802V16.6219H19.2778V16.921H18.766C18.6929 16.9276 18.6464 16.8545 18.6464 16.7216H18.1412C18.1412 16.9542 18.0083 17.1137 17.8022 17.3065H17.8089H19.2844V16.921H19.6965Z" stroke="#BD6B00" stroke-width="0.0664662"/>
<path fill-rule="evenodd" clip-rule="evenodd" d="M19.2979 15.7773H19.5172V16.2825H19.2979V15.7773Z" stroke="#BD6B00" stroke-width="0.0664662"/>
<path fill-rule="evenodd" clip-rule="evenodd" d="M18.9854 16.3155H19.198V15.9433C19.198 15.7838 19.3443 15.6176 19.4107 15.611C19.4905 15.611 19.6035 15.7638 19.6101 15.93V16.3155H19.8361V15.3584H18.9854V16.3155ZM20.6869 16.5349H20.9528V16.7475H20.6869V16.5349ZM20.5274 16.1826H20.7932V16.3886H20.5274V16.1826ZM20.2681 15.8237H20.534V16.0297H20.2681V15.8237ZM20.0488 15.5246H20.3147V15.7306H20.0488V15.5246Z" stroke="#BD6B00" stroke-width="0.0664662"/>
<path fill-rule="evenodd" clip-rule="evenodd" d="M19.8694 16.3157L20.1485 16.329L20.6337 16.7544V16.5018L20.4676 16.3822V16.1828L20.2283 16.0498V15.8305L19.9957 15.7507V15.4649L19.8827 15.3652L19.876 16.3223L19.8694 16.3157Z" stroke="#BD6B00" stroke-width="0.0664662"/>
<path fill-rule="evenodd" clip-rule="evenodd" d="M21.0259 15.6846H21.0923V16.1565H21.0259V15.6846Z" fill="white" stroke="#BD6B00" stroke-width="0.0664662"/>
<path fill-rule="evenodd" clip-rule="evenodd" d="M17.1642 14.1026C17.0844 13.9697 16.9847 14.2887 16.6458 14.5213C16.4929 14.6277 16.3799 14.9135 16.3799 15.0996C16.3799 15.2325 16.3932 15.3588 16.3799 15.4851C16.3733 15.5582 16.2868 15.7377 16.3467 15.7842C16.4929 15.8905 16.6856 16.1431 16.7721 16.2295C16.8518 16.296 16.9183 15.8772 16.9715 15.6978C17.0379 15.4984 17.0113 15.2525 17.1841 15.073C17.3038 14.9401 17.6095 14.8204 17.5829 14.7673L17.1642 14.1026Z" fill="white" stroke="#BD6B00" stroke-width="0.0664662"/>
<path fill-rule="evenodd" clip-rule="evenodd" d="M17.1443 15.1267C17.1179 15.064 17.0821 15.0057 17.038 14.9539C16.9956 14.9014 16.9408 14.8603 16.8785 14.8343C16.8172 14.8161 16.7621 14.7817 16.7189 14.7346C16.6935 14.7061 16.6753 14.6719 16.6658 14.6349C16.6582 14.5909 16.6582 14.5459 16.6658 14.502L16.6458 14.5219C16.493 14.6282 16.38 14.914 16.38 15.1001C16.3779 15.1511 16.3779 15.2021 16.38 15.253C16.3933 15.2863 16.3999 15.3195 16.4198 15.3394L16.493 15.3926L16.6724 15.4391C16.7396 15.4693 16.7988 15.5149 16.8452 15.5721C16.8936 15.6233 16.9339 15.6816 16.9649 15.7449L16.9782 15.6917C17.0313 15.5122 17.0247 15.2995 17.151 15.1267H17.1443Z" fill="#BF0000" stroke="#BD6B00" stroke-width="0.0664662"/>
<path d="M16.6656 14.4951C16.6323 14.7145 16.7586 14.7942 16.8782 14.8341C16.9979 14.8806 17.0976 15.0069 17.1441 15.1265M16.3665 15.2262C16.4196 15.4256 16.5526 15.3991 16.6722 15.4389C16.7918 15.4855 16.9181 15.6383 16.9713 15.758" stroke="#BD6B00" stroke-width="0.0664662"/>
<path fill-rule="evenodd" clip-rule="evenodd" d="M17.0513 13.9696L17.1177 13.9297L18.2942 15.917L18.2277 15.9569L17.0513 13.9629V13.9696Z" fill="white" stroke="#BD6B00" stroke-width="0.0664662"/>
<path fill-rule="evenodd" clip-rule="evenodd" d="M17.1775 13.8896C17.1775 13.9248 17.1635 13.9587 17.1386 13.9836C17.1136 14.0085 17.0798 14.0225 17.0446 14.0225C17.0093 14.0225 16.9755 14.0085 16.9506 13.9836C16.9256 13.9587 16.9116 13.9248 16.9116 13.8896C16.9116 13.8543 16.9256 13.8205 16.9506 13.7956C16.9755 13.7707 17.0093 13.7567 17.0446 13.7567C17.0798 13.7567 17.1136 13.7707 17.1386 13.7956C17.1635 13.8205 17.1775 13.8543 17.1775 13.8896ZM18.1878 12.2944H18.6663V12.4007H18.1878V12.2944ZM18.1878 12.5004H18.6663V13.4177H18.1878V12.5004ZM18.1612 12.1681H18.6929C18.7062 11.9886 18.5268 11.7959 18.4271 11.7959C18.3207 11.8025 18.1545 11.9953 18.1612 12.1681Z" fill="white" stroke="#BD6B00" stroke-width="0.0664662"/>
<path fill-rule="evenodd" clip-rule="evenodd" d="M19.5104 12.0618C19.4107 12.1017 19.331 12.2147 19.2845 12.3476C19.2379 12.4806 19.218 12.6335 19.2446 12.7531C19.2446 12.7996 19.2645 12.8262 19.2778 12.8528C19.2911 12.8727 19.3044 12.886 19.3177 12.886C19.3376 12.886 19.3576 12.886 19.3642 12.8661L19.3775 12.8129C19.3709 12.68 19.3709 12.5603 19.3974 12.454C19.427 12.3359 19.4977 12.2322 19.5968 12.1615C19.6168 12.1483 19.6234 12.1283 19.6301 12.115C19.6298 12.0975 19.6227 12.0808 19.6101 12.0685C19.5836 12.0486 19.5437 12.0419 19.5104 12.0618ZM19.5237 12.0884C19.5503 12.0751 19.5769 12.0884 19.5902 12.0951L19.5968 12.1084C19.5968 12.115 19.5968 12.1217 19.5769 12.135C19.4748 12.2098 19.4019 12.3179 19.3709 12.4407C19.3433 12.5628 19.3365 12.6886 19.3509 12.8129C19.3509 12.8273 19.3463 12.8413 19.3376 12.8528C19.3376 12.8528 19.3376 12.8594 19.3243 12.8528C19.3243 12.8528 19.311 12.8528 19.2977 12.8329C19.2846 12.8079 19.2756 12.7809 19.2712 12.7531C19.2512 12.6335 19.2712 12.4872 19.3177 12.3543C19.3642 12.2347 19.4373 12.1283 19.5171 12.0884H19.5237Z" fill="#BD6B00"/>
<path fill-rule="evenodd" clip-rule="evenodd" d="M19.6833 12.1886C19.5836 12.2351 19.5171 12.3414 19.4839 12.4677C19.4486 12.5954 19.4418 12.7293 19.4639 12.8599C19.4772 12.9463 19.5304 12.9928 19.5703 12.9928C19.5902 12.9994 19.6101 12.9928 19.6234 12.9729C19.6367 12.9529 19.6434 12.933 19.6367 12.9064C19.6101 12.8 19.6035 12.6804 19.6168 12.5674C19.6367 12.4544 19.6833 12.3547 19.763 12.2949C19.783 12.275 19.7962 12.2617 19.7962 12.2417C19.7969 12.2345 19.796 12.2273 19.7937 12.2204C19.7914 12.2136 19.7878 12.2072 19.783 12.2018C19.7564 12.1819 19.7165 12.1753 19.6833 12.1886ZM19.6965 12.2218C19.7231 12.2085 19.7497 12.2151 19.763 12.2218L19.7697 12.2417L19.7497 12.2683C19.7051 12.3041 19.668 12.3483 19.6406 12.3985C19.6133 12.4488 19.5961 12.5039 19.5902 12.5608C19.5703 12.6804 19.5836 12.8067 19.6035 12.9064C19.6101 12.933 19.6035 12.9463 19.6035 12.9596L19.5703 12.9662C19.5503 12.9662 19.5038 12.933 19.4905 12.8532C19.4706 12.7402 19.4772 12.594 19.5104 12.4744C19.5437 12.3547 19.6101 12.255 19.6965 12.2218Z" fill="#BD6B00"/>
<path fill-rule="evenodd" clip-rule="evenodd" d="M18.1611 14.1621H18.6928V14.8932H18.1611V14.1621ZM18.1943 15.3186H18.7061V15.4781H18.1943V15.3186ZM18.181 15.5911H18.7128V16.1694H18.181V15.5911ZM18.1412 16.289H18.7194V16.6147H18.1412V16.289ZM18.2143 15.1857H18.6795L18.7726 15.0262H18.1345L18.2143 15.1857ZM18.8391 14.6141L18.8457 14.2153H19.1647C19.0276 14.3221 18.9163 14.4584 18.8391 14.6141Z" fill="white" stroke="#BD6B00" stroke-width="0.0664662"/>
<path fill-rule="evenodd" clip-rule="evenodd" d="M18.2476 14.7811C18.2476 14.8675 18.3473 14.8342 18.3473 14.7877V14.4155C18.3473 14.349 18.5068 14.3623 18.5068 14.4088V14.8076C18.5068 14.8741 18.6198 14.8675 18.6131 14.8076V14.3424C18.6131 14.1962 18.2476 14.2028 18.2476 14.3357V14.7811ZM18.2476 15.6651H18.6264V16.1303H18.2476V15.6651Z" stroke="#BD6B00" stroke-width="0.0664662"/>
<path fill-rule="evenodd" clip-rule="evenodd" d="M18.4869 15.864H18.6198V15.9305H18.4869V15.864ZM18.2542 15.864H18.3872V15.9305H18.2542V15.864ZM18.3872 15.6646H18.4869V15.864H18.3872V15.6646ZM18.3872 15.9305H18.4869V16.1365H18.3872V15.9305ZM16.2802 10.9455C16.3068 11.3111 16.1871 11.5171 15.9944 11.4839C15.9412 11.2845 16.0608 11.1449 16.2802 10.9455ZM15.8482 11.7631C15.6753 11.6767 15.8016 10.9987 15.8681 10.7129C15.9146 11.0785 16.001 11.5969 15.8482 11.7631Z" fill="white"/>
<path d="M18.4869 15.864H18.6198V15.9305H18.4869M18.4869 15.864V15.9305M18.4869 15.864V15.6646H18.3872V15.864M18.4869 15.864H18.3872M18.4869 15.9305H18.3872M18.4869 15.9305V16.1365H18.3872V15.9305M18.3872 15.864H18.2542V15.9305H18.3872M18.3872 15.864V15.9305M16.2802 10.9455C16.3068 11.3111 16.1871 11.5171 15.9944 11.4839C15.9412 11.2845 16.0608 11.1449 16.2802 10.9455ZM15.8482 11.7631C15.6753 11.6767 15.8016 10.9987 15.8681 10.7129C15.9146 11.0785 16.001 11.5969 15.8482 11.7631Z" stroke="#BD6B00" stroke-width="0.0664662"/>
<path fill-rule="evenodd" clip-rule="evenodd" d="M15.9079 11.7967C16.2004 11.8964 16.4397 11.5841 16.5128 11.2185C16.2735 11.5508 15.8813 11.5508 15.9146 11.7967H15.9079ZM15.6886 12.1357C15.4626 12.0759 15.5955 11.3581 15.6421 11.0723C15.6886 11.3714 15.8481 12.036 15.6886 12.1357ZM15.7683 12.1158C15.7816 11.8699 16.0276 11.9363 16.2004 11.8034C16.1671 11.9363 16.0674 12.149 15.7683 12.1158ZM15.4892 12.4481C15.2632 12.3817 15.3961 11.6106 15.3828 11.2916C15.4493 11.5708 15.662 12.375 15.4892 12.4481ZM15.5955 12.4149C15.7816 12.4747 16.0276 12.3484 16.0475 12.1291C15.8813 12.2421 15.6288 12.1557 15.5955 12.4149Z" fill="white" stroke="#BD6B00" stroke-width="0.0664662"/>
<path fill-rule="evenodd" clip-rule="evenodd" d="M15.3164 12.7867C15.1037 12.8066 15.1968 12.1486 15.1968 11.5371C15.2765 12.1087 15.4959 12.6338 15.3164 12.7867Z" fill="white" stroke="#BD6B00" stroke-width="0.0664662"/>
<path fill-rule="evenodd" clip-rule="evenodd" d="M15.3962 12.7597C15.5425 12.8262 15.8017 12.7132 15.8748 12.4673C15.6089 12.5803 15.4361 12.4673 15.3962 12.7597ZM17.0978 11.2842C17.0579 11.6099 16.925 11.796 16.7322 11.7627C16.679 11.5633 16.8386 11.4304 17.0978 11.2842ZM16.5793 12.1084C16.905 12.1549 17.018 11.909 17.244 11.5833C16.9316 11.8093 16.566 11.8491 16.5793 12.115V12.1084Z" fill="white" stroke="#BD6B00" stroke-width="0.0664662"/>
<path fill-rule="evenodd" clip-rule="evenodd" d="M16.4796 12.0754C16.3068 11.8628 16.4796 11.5902 16.6125 11.3643C16.586 11.7032 16.6989 11.896 16.4796 12.0754ZM16.4131 12.4277C16.3866 12.215 16.7455 12.1685 16.905 12.0555C16.8452 12.1751 16.7721 12.5008 16.4065 12.4277H16.4131Z" fill="white" stroke="#BD6B00" stroke-width="0.0664662"/>
<path fill-rule="evenodd" clip-rule="evenodd" d="M16.3332 12.4281C16.0873 12.4016 16.187 11.9828 16.3664 11.7568C16.2933 12.0759 16.4994 12.2952 16.3332 12.4281Z" fill="white" stroke="#BD6B00" stroke-width="0.0664662"/>
<path fill-rule="evenodd" clip-rule="evenodd" d="M16.1471 12.7803C15.868 12.6474 16.0474 12.3017 16.1471 12.0957C16.1072 12.3682 16.3332 12.5743 16.1471 12.7737V12.7803Z" fill="white" stroke="#BD6B00" stroke-width="0.0664662"/>
<path fill-rule="evenodd" clip-rule="evenodd" d="M16.2005 12.7402C16.3467 12.9396 16.6325 12.687 16.6923 12.3945C16.4464 12.6006 16.2603 12.5673 16.2005 12.7468V12.7402ZM15.5624 14.0894C15.5358 13.8036 15.7485 13.2918 15.5956 13.0127C15.5757 12.9728 15.6421 12.8731 15.6887 12.9329C15.7551 13.0326 15.8216 13.3118 15.8548 13.2054C15.8814 13.0924 15.8881 12.8997 15.9878 12.8598C16.0542 12.8399 16.1406 12.8199 16.1141 12.9263C16.0875 13.0193 16.0343 13.1522 16.0941 13.1589C16.1273 13.1589 16.227 13.026 16.3135 12.9595C16.3799 12.9063 16.4863 12.9994 16.3799 13.0791C16.0609 13.345 15.7485 13.4713 15.5624 14.0894ZM14.9841 18.3765C14.9442 18.3765 14.8977 18.3566 14.9442 18.4164C15.3231 18.8816 15.4295 19.0146 15.9811 18.9481C16.5328 18.875 16.6657 18.7221 17.0579 18.5028C17.1714 18.443 17.2957 18.4064 17.4234 18.395C17.5512 18.3836 17.68 18.3976 17.8023 18.4363C17.9086 18.4695 17.9751 18.4695 17.8953 18.3898C17.8156 18.3167 17.7292 18.2103 17.6295 18.1372C17.3815 17.9714 17.0793 17.9071 16.7854 17.9578C16.3866 18.0242 16.0476 18.2834 15.6421 18.3831C15.425 18.427 15.2013 18.427 14.9841 18.3831V18.3765ZM18.1612 19.2073C18.2277 19.2206 18.2742 19.3535 18.3141 19.2671C18.3673 19.1143 18.3274 19.0013 18.2609 19.0079C18.1812 19.0279 18.0549 19.2073 18.1612 19.2073Z" fill="white" stroke="#BD6B00" stroke-width="0.0664662"/>
<path fill-rule="evenodd" clip-rule="evenodd" d="M14.7249 13.8703C14.6452 13.7773 14.6651 13.7507 14.7914 13.744C14.8844 13.744 15.0706 13.8105 15.1437 13.7507C15.2101 13.7042 15.1769 13.5048 15.2101 13.4184C15.2234 13.3585 15.2567 13.2854 15.3431 13.4051C15.5823 13.7906 15.8748 14.2558 16.0077 14.7078C16.0742 14.9604 16.0077 15.3592 15.7817 15.625C15.7817 15.3991 15.702 15.2462 15.6023 15.0534C15.4694 14.8075 14.9974 14.1229 14.7249 13.8637V13.8703Z" fill="white"/>
<path fill-rule="evenodd" clip-rule="evenodd" d="M15.7151 15.8904C15.981 15.8904 16.0275 15.5382 16.0275 15.4385C15.8946 15.4651 15.6686 15.6844 15.7151 15.8904ZM18.0082 19.34C18.1943 19.3799 18.1877 18.928 17.9949 18.7352C18.0813 19.0277 17.862 19.2935 18.0016 19.3334L18.0082 19.34ZM17.9285 19.3334C17.9418 19.5461 17.3967 19.3068 17.2638 19.134C17.5828 19.2736 17.9152 19.1606 17.9285 19.3334ZM17.6958 19.0277C17.7158 19.2337 17.2306 19.0476 17.0777 18.8881C17.4034 18.9944 17.6759 18.8548 17.6958 19.021V19.0277ZM17.7822 19.0542C17.975 19.1008 17.9418 18.6289 17.7557 18.4693C17.8487 18.7817 17.636 19.0077 17.7822 19.0542ZM17.5828 18.7684C17.7756 18.815 17.6626 18.4095 17.523 18.25C17.5496 18.5424 17.4566 18.7485 17.5895 18.7684H17.5828ZM17.4831 18.7684C17.5031 18.9811 17.1242 18.8216 16.978 18.6156C17.297 18.7153 17.4632 18.5956 17.4831 18.7684ZM17.3834 18.6023C17.5031 18.5159 17.3768 18.2832 17.1375 18.2965C17.1641 18.4361 17.2439 18.6887 17.3834 18.6023ZM18.314 19.5793C18.3206 19.792 17.7822 19.6857 17.6094 19.4597C17.9551 19.5262 18.294 19.4065 18.3073 19.5793H18.314ZM16.1605 19.1938C16.1804 19.4065 15.5889 19.1672 15.4426 18.9678C15.755 19.0742 16.1405 19.021 16.1605 19.1938ZM16.5194 19.2802C16.6457 19.1938 16.3931 18.9678 16.187 18.9147C16.2136 19.0542 16.3864 19.3666 16.5194 19.2869V19.2802ZM16.5593 19.4331C16.5726 19.6259 15.9278 19.5195 15.7617 19.34C16.3133 19.4397 16.5393 19.2669 16.5593 19.4331Z" fill="white" stroke="#BD6B00" stroke-width="0.0664662"/>
<path fill-rule="evenodd" clip-rule="evenodd" d="M16.865 19.5594C16.9315 19.7388 16.3133 19.6923 16.094 19.5926C16.4463 19.5926 16.8118 19.4331 16.865 19.5594Z" fill="white" stroke="#BD6B00" stroke-width="0.0664662"/>
<path fill-rule="evenodd" clip-rule="evenodd" d="M17.1508 19.6923C17.2172 19.8518 16.6456 19.8518 16.3665 19.7587C16.7387 19.7587 17.0843 19.5327 17.1508 19.6923ZM17.5695 19.7787C17.6758 19.9714 17.0644 19.9847 16.8716 19.8917C17.2172 19.8451 17.4831 19.6258 17.5695 19.7787ZM16.8583 19.453C16.6656 19.5726 16.6788 19.2137 16.526 18.9678C16.7653 19.1871 16.9912 19.34 16.8583 19.453Z" fill="white" stroke="#BD6B00" stroke-width="0.0664662"/>
<path fill-rule="evenodd" clip-rule="evenodd" d="M17.2041 19.5859C17.0446 19.7255 16.9116 19.2337 16.7654 18.9545C17.0047 19.2204 17.3503 19.4663 17.2041 19.5793V19.5859ZM17.6561 19.7189C17.5231 19.8784 17.1243 19.2536 16.9781 18.9213C17.1974 19.1805 17.7624 19.5859 17.6561 19.7189ZM17.2706 20.1974C17.2041 20.4367 16.1938 19.9714 16.0742 19.7255C16.6591 20.0313 17.2838 19.9648 17.2706 20.1908V20.1974ZM14.0336 15.2922C14.0071 15.259 13.9406 15.2922 13.9539 15.3653C13.9738 15.465 14.1201 15.9768 14.3726 16.1496C14.5521 16.2826 15.5026 16.4886 15.9279 16.5817C16.1672 16.6282 16.36 16.7478 16.5195 16.9339C16.4649 16.7134 16.3983 16.4959 16.3201 16.2826C16.2403 16.0832 16.0276 15.8705 15.8016 15.8638C15.3962 15.8439 14.8645 15.8106 14.4723 15.6445C14.2947 15.5696 14.1408 15.4478 14.027 15.2922H14.0336Z" fill="white" stroke="#BD6B00" stroke-width="0.0664662"/>
<path fill-rule="evenodd" clip-rule="evenodd" d="M16.38 17.3197C16.5129 17.4127 16.6525 17.0737 16.493 16.748C16.4863 17.0604 16.2404 17.1668 16.38 17.3197Z" fill="white" stroke="#BD6B00" stroke-width="0.0664662"/>
<path fill-rule="evenodd" clip-rule="evenodd" d="M16.5062 17.6317C16.6857 17.6849 16.7388 17.3659 16.6258 17.1133C16.6458 17.3858 16.34 17.552 16.5062 17.6317Z" fill="white" stroke="#BD6B00" stroke-width="0.0664662"/>
<path fill-rule="evenodd" clip-rule="evenodd" d="M16.6457 17.885C16.8185 17.9714 16.8783 17.6457 16.7587 17.4131C16.772 17.7122 16.5128 17.8052 16.6457 17.8783V17.885Z" fill="white" stroke="#BD6B00" stroke-width="0.0664662"/>
<path fill-rule="evenodd" clip-rule="evenodd" d="M16.5725 17.9041C16.506 18.1035 16.1072 17.7246 16.0408 17.5186C16.2867 17.7645 16.619 17.7312 16.5725 17.8974V17.9041Z" fill="white" stroke="#BD6B00" stroke-width="0.0664662"/>
<path fill-rule="evenodd" clip-rule="evenodd" d="M16.3932 17.5919C16.3134 17.7913 15.8149 17.2596 15.7019 17.0137C15.9478 17.2596 16.4463 17.4457 16.3932 17.5853V17.5919Z" fill="white" stroke="#BD6B00" stroke-width="0.0664662"/>
<path fill-rule="evenodd" clip-rule="evenodd" d="M16.2935 17.2793C16.2138 17.512 15.6754 16.8938 15.5159 16.6745C15.7817 16.9138 16.3533 17.1132 16.2935 17.2793ZM16.2736 17.0533C16.473 17.0135 16.2669 16.8539 16.0277 16.5947C16.021 16.8672 16.0609 17.06 16.2736 17.0533Z" fill="white" stroke="#BD6B00" stroke-width="0.0664662"/>
<path fill-rule="evenodd" clip-rule="evenodd" d="M15.9477 16.8946C16.0341 16.8082 15.8746 16.7683 15.6752 16.5423C15.642 16.6952 15.8613 16.9744 15.9544 16.8946H15.9477ZM16.8782 17.9049C16.9846 17.9714 17.051 17.752 16.9248 17.5593C16.8915 17.772 16.7852 17.8251 16.8782 17.9049ZM14.6051 16.5556C14.3858 16.6886 14.0335 16.1568 13.9404 15.9375C14.1332 16.1901 14.645 16.4161 14.6051 16.5556Z" fill="white" stroke="#BD6B00" stroke-width="0.0664662"/>
<path fill-rule="evenodd" clip-rule="evenodd" d="M14.798 16.8611C14.6718 16.9941 14.2863 16.6285 14.1533 16.4424C14.3527 16.6218 14.8512 16.6418 14.798 16.8611Z" fill="white" stroke="#BD6B00" stroke-width="0.0664662"/>
<path fill-rule="evenodd" clip-rule="evenodd" d="M15.0041 17.14C14.9642 17.3261 14.4059 16.9074 14.2729 16.708C14.5122 16.9406 15.044 16.9207 15.0041 17.14Z" fill="white" stroke="#BD6B00" stroke-width="0.0664662"/>
<path fill-rule="evenodd" clip-rule="evenodd" d="M14.9175 17.3463C14.8311 17.5124 14.3725 17.0937 14.2595 16.881C14.5453 17.1203 14.9907 17.1801 14.9242 17.3463H14.9175ZM14.6849 16.5287C14.8245 16.3759 14.7647 16.3028 14.6583 16.0635C14.6051 16.3094 14.5187 16.4091 14.6849 16.5287ZM14.8777 16.8145C15.1435 16.8278 14.8777 16.5088 14.8112 16.2363C14.8378 16.542 14.7447 16.788 14.8777 16.8145Z" fill="white" stroke="#BD6B00" stroke-width="0.0664662"/>
<path fill-rule="evenodd" clip-rule="evenodd" d="M15.0439 17.0675C15.2233 17.0277 15.1768 16.7684 15.0306 16.4561C15.0638 16.795 14.8777 16.9878 15.0439 17.0675ZM14.9774 17.5793C14.9109 17.7787 14.3925 17.3135 14.3127 17.1274C14.5786 17.3533 15.0239 17.4265 14.9774 17.5793Z" fill="white" stroke="#BD6B00" stroke-width="0.0664662"/>
<path fill-rule="evenodd" clip-rule="evenodd" d="M15.2899 17.8977C15.2168 18.0971 14.6718 17.685 14.5056 17.459C14.8313 17.7248 15.3298 17.6983 15.2899 17.8977Z" fill="white" stroke="#BD6B00" stroke-width="0.0664662"/>
<path fill-rule="evenodd" clip-rule="evenodd" d="M15.6088 18.2237C15.5224 18.5095 14.9508 18.0509 14.7847 17.8249C15.1436 18.1041 15.6487 18.0243 15.6088 18.2237ZM15.0771 17.4926C15.23 17.5657 15.2898 17.1337 15.2034 16.8213C15.2034 17.1536 14.891 17.4062 15.0705 17.486L15.0771 17.4926Z" fill="white" stroke="#BD6B00" stroke-width="0.0664662"/>
<path fill-rule="evenodd" clip-rule="evenodd" d="M15.3364 17.8379C15.5225 17.8911 15.4693 17.4191 15.3032 17.1068C15.2832 17.4191 15.1503 17.7049 15.3364 17.8379ZM15.6687 18.1636C15.8681 18.1702 15.7352 17.7581 15.5624 17.5255C15.589 17.8246 15.4959 18.1237 15.6687 18.1636ZM15.3032 18.3364C15.2367 18.4427 15.0905 18.25 14.8379 18.1037C15.0639 18.1702 15.3297 18.2367 15.3032 18.3364ZM15.1835 14.8336C15.3829 14.6874 15.23 14.4215 15.1835 14.1689C15.117 14.4082 14.9575 14.7273 15.1835 14.8336ZM15.1835 15.1859C14.8844 15.1526 14.9309 14.7804 14.9176 14.5412C15.0107 14.8668 15.25 14.92 15.1835 15.1925V15.1859ZM15.2234 15.1394C15.4693 15.1261 15.456 14.8469 15.4693 14.5677C15.343 14.827 15.2035 14.8668 15.2234 15.1394Z" fill="white" stroke="#BD6B00" stroke-width="0.0664662"/>
<path fill-rule="evenodd" clip-rule="evenodd" d="M15.2166 15.4852C15.0172 15.5051 14.9242 15.3124 14.8843 15.0199C15.0637 15.2925 15.2233 15.206 15.2166 15.4852ZM15.2831 15.4653C15.529 15.4985 15.4825 15.2127 15.4825 15C15.4027 15.1994 15.2033 15.2659 15.2831 15.4653Z" fill="white" stroke="#BD6B00" stroke-width="0.0664662"/>
<path fill-rule="evenodd" clip-rule="evenodd" d="M14.8977 15.3457C14.9176 15.5318 15.0373 15.8508 15.23 15.7777C15.3031 15.5517 15.0572 15.5052 14.8977 15.3457Z" fill="white" stroke="#BD6B00" stroke-width="0.0664662"/>
<path fill-rule="evenodd" clip-rule="evenodd" d="M15.2832 15.7975C15.2035 15.638 15.4826 15.5516 15.5358 15.3389C15.569 15.6446 15.5424 15.844 15.2832 15.8041V15.7975ZM14.4923 13.8567C14.6451 13.6971 14.5122 13.4313 14.4657 13.1787C14.3992 13.418 14.2995 13.737 14.4923 13.8567ZM14.4923 14.1624C14.2264 14.1956 14.1599 13.6506 14.1267 13.4113C14.2198 13.737 14.5255 13.8766 14.4923 14.1691V14.1624ZM14.5454 14.1624C14.7316 14.0627 14.6917 13.85 14.7448 13.6971C14.6252 13.8899 14.5056 13.9165 14.5454 14.1624Z" fill="white" stroke="#BD6B00" stroke-width="0.0664662"/>
<path fill-rule="evenodd" clip-rule="evenodd" d="M14.4857 14.5214C14.2132 14.5414 14.047 13.9365 14.0337 13.6973C14.1201 14.023 14.5255 14.1958 14.4923 14.5214H14.4857ZM14.5455 14.5082C14.8113 14.4483 14.7781 14.2755 14.7382 14.003C14.6518 14.2822 14.5056 14.2223 14.5455 14.5082Z" fill="white" stroke="#BD6B00" stroke-width="0.0664662"/>
<path fill-rule="evenodd" clip-rule="evenodd" d="M14.4856 14.8671C14.1798 14.9203 14.1998 14.4284 13.9539 14.0762C14.1665 14.342 14.5521 14.6744 14.4856 14.8671ZM14.5521 14.8472C14.7913 14.8605 14.8179 14.5082 14.8046 14.362C14.7448 14.5082 14.4723 14.6411 14.5587 14.8538L14.5521 14.8472Z" fill="white" stroke="#BD6B00" stroke-width="0.0664662"/>
<path fill-rule="evenodd" clip-rule="evenodd" d="M14.0071 14.4883C14.1201 14.8671 14.2862 15.246 14.4856 15.2194C14.5853 15.0001 14.2929 14.9735 14.0071 14.4883Z" fill="white" stroke="#BD6B00" stroke-width="0.0664662"/>
<path fill-rule="evenodd" clip-rule="evenodd" d="M14.5586 15.1598C14.4788 14.9936 14.758 14.9139 14.8112 14.7012C14.8444 15.0069 14.8178 15.2063 14.5586 15.1598ZM14.0867 14.9205C14.2528 15.2595 14.3259 15.6516 14.5519 15.5918C14.6383 15.326 14.2994 15.2728 14.0867 14.9205Z" fill="white" stroke="#BD6B00" stroke-width="0.0664662"/>
<path fill-rule="evenodd" clip-rule="evenodd" d="M14.5986 15.532C14.4989 15.3459 14.778 15.2861 14.8511 15.0402C14.8844 15.3592 14.8511 15.5918 14.5986 15.5254V15.532ZM15.0771 13.2389C15.2366 13.2788 15.4094 13.0994 15.3496 12.8268C15.1635 12.8667 15.0838 13.0395 15.0771 13.2389ZM14.552 13.0994C14.5653 13.1791 14.665 13.1858 14.6318 13.0728C14.607 12.9995 14.607 12.9201 14.6318 12.8468C14.6638 12.7474 14.6638 12.6404 14.6318 12.541C14.6052 12.4746 14.5121 12.5144 14.552 12.5676C14.5919 12.6274 14.5986 12.7537 14.5653 12.8135C14.5254 12.9 14.5387 13.0129 14.552 13.0994ZM16.0741 14.1628C16.0076 14.2492 15.8813 14.1894 15.981 14.0631C16.0608 13.9634 16.1804 13.877 16.1804 13.7707C16.1937 13.6377 16.2669 13.4383 16.34 13.3652C16.4131 13.2921 16.4995 13.3918 16.4197 13.445C16.3333 13.4981 16.2735 13.7374 16.2801 13.8305C16.2735 13.9634 16.1472 14.0631 16.0741 14.1628ZM15.8747 14.0099C15.8082 14.103 15.7152 14.0432 15.7684 13.8969C15.8149 13.7972 15.8215 13.6643 15.8747 13.5912C15.9545 13.4782 16.0741 13.3852 16.1472 13.312C16.227 13.2456 16.2801 13.312 16.2137 13.3785C16.1322 13.4599 16.0588 13.5489 15.9943 13.6444C15.9013 13.7906 15.9412 13.9102 15.8747 14.0099ZM14.8312 13.5314C14.8245 13.6643 14.9309 13.6909 14.9242 13.5048C14.9242 13.3054 14.778 13.1193 14.8578 12.8202C14.9109 12.674 14.9109 12.4015 14.8844 12.2619C14.8578 12.1157 14.7514 12.2087 14.7979 12.3217C14.8378 12.4546 14.7913 12.6939 14.7581 12.8202C14.6584 13.1791 14.8378 13.3519 14.8245 13.5314H14.8312ZM15.117 12.8003C15.1037 12.9265 14.9973 12.9332 15.0306 12.767C15.0572 12.6341 15.0572 12.5277 15.0306 12.4147C14.9907 12.2752 15.004 12.0359 15.0306 11.9362C15.0638 11.8298 15.1635 11.8897 15.1236 11.9694C15.0772 12.0951 15.0703 12.2319 15.1037 12.3616C15.1436 12.4945 15.1369 12.6806 15.117 12.8069V12.8003ZM14.0801 15.2662C14.1333 15.326 14.213 15.2861 14.1466 15.1997C14.0801 15.1332 14.1001 15.1199 14.0602 15.0402C14.0203 14.9471 14.0269 14.9006 13.9804 14.8408C13.9339 14.7743 13.8741 14.8408 13.9139 14.8873C13.9671 14.9538 13.9538 14.9936 13.9804 15.0535C14.0469 15.1532 14.0269 15.2063 14.0801 15.2662ZM15.436 16.9012C15.5173 16.9461 15.5864 17.0101 15.6373 17.0877C15.6883 17.1653 15.7196 17.2541 15.7285 17.3465C15.7354 17.5121 15.7809 17.6737 15.8614 17.8185C15.7285 17.7852 15.662 17.5725 15.6421 17.3665C15.6221 17.1538 15.5091 17.0674 15.4427 16.9012H15.436ZM15.775 17.2934C15.888 17.4994 16.0409 17.5792 16.0542 17.732C16.0675 17.9115 16.0807 17.9182 16.1273 18.091C15.9943 18.0577 15.9611 18.0444 15.9279 17.7786C15.9079 17.5925 15.7551 17.4662 15.775 17.2934Z" fill="white" stroke="#BD6B00" stroke-width="0.0664662"/>
<path fill-rule="evenodd" clip-rule="evenodd" d="M19.2711 19.2076C19.3376 19.3272 19.404 19.5067 19.537 19.4734C19.537 19.387 19.3974 19.3206 19.2711 19.2076ZM19.4705 19.2474C19.7164 19.3538 19.9358 19.3272 19.969 19.4867C19.7297 19.5133 19.6367 19.4203 19.4639 19.2474H19.4705ZM18.4004 18.4033C18.5655 18.5317 18.6826 18.712 18.7327 18.9151C18.7863 19.0988 18.8669 19.2736 18.972 19.4335C18.7991 19.3174 18.674 19.1427 18.6197 18.9417C18.5732 18.7423 18.5134 18.5894 18.4004 18.41V18.4033ZM18.6064 18.4033C18.7925 18.5495 18.9654 18.7224 19.0185 18.9284C19.0717 19.1212 19.1049 19.2674 19.2312 19.4601C19.0318 19.3338 18.9587 19.1477 18.8989 18.9417C18.8524 18.7423 18.7327 18.5961 18.6064 18.41V18.4033ZM19.2179 18.8885C19.2153 18.8719 19.2185 18.8549 19.227 18.8404C19.2355 18.8258 19.2487 18.8147 19.2645 18.8088C19.3213 18.7887 19.379 18.771 19.4373 18.7556C19.5037 18.7357 19.5436 18.7822 19.5436 18.8154V18.9483C19.5436 18.9949 19.5303 19.0015 19.4971 19.0082C19.4506 19.0148 19.3841 19.0215 19.3376 19.0547C19.2977 19.0813 19.2578 19.0613 19.2379 19.0215L19.2179 18.8885ZM19.9225 18.8885C19.9225 18.8486 19.9092 18.8154 19.8826 18.8088C19.8321 18.7879 19.7776 18.7788 19.7231 18.7822C19.6566 18.7822 19.65 18.7955 19.65 18.8221V18.9616C19.65 19.0148 19.65 19.0148 19.6765 19.0281C19.7231 19.0281 19.7962 19.0281 19.8427 19.068C19.8759 19.0879 19.9092 19.068 19.9158 19.0281L19.9225 18.8885Z" fill="white"/>
<path fill-rule="evenodd" clip-rule="evenodd" d="M21.8964 20.7562C21.8964 20.8359 21.9097 20.9024 21.9629 20.9622C21.6588 20.8704 21.3313 20.8965 21.0457 21.0353C20.926 21.0885 20.7798 20.9689 20.9194 20.8559C21.1188 20.703 21.5641 20.7894 21.8964 20.7562ZM18.0746 20.7562C18.0804 20.8238 18.0713 20.8918 18.048 20.9556C18.3405 20.8426 18.6529 20.9423 18.952 21.0619C19.1514 21.1483 19.1713 20.9954 19.1381 20.9489C19.1013 20.8933 19.0522 20.847 18.9945 20.8136C18.9369 20.7801 18.8723 20.7605 18.8058 20.7562H18.0746ZM18.3272 19.3138C18.2408 19.2806 18.1477 19.3138 18.0613 19.4069C17.7755 19.6861 17.4365 19.9586 17.164 20.1779C17.0643 20.2643 16.9646 20.4238 17.39 20.5767C17.41 20.59 17.7224 20.7096 17.9218 20.7096C18.0082 20.7096 18.0082 20.8293 17.9882 20.8625C17.955 20.929 17.9816 20.9556 17.9151 21.0154C17.842 21.0818 17.9151 21.155 17.9816 21.1018C18.2208 20.8891 18.6196 21.0287 18.9985 21.1483C19.0916 21.1749 19.2511 21.1683 19.2511 21.042C19.2511 20.909 19.3508 20.816 19.4106 20.8093C19.5701 20.8359 20.3411 20.8426 20.5738 20.816C20.7067 20.796 20.72 21.0087 20.7931 21.0818C20.8463 21.1417 21.039 21.155 21.1786 21.0951C21.4445 20.9755 21.8433 20.9755 22.0094 21.0951C22.0759 21.1417 22.1357 21.0951 22.0958 21.0486C22.0427 20.9821 22.0493 20.9423 22.0227 20.8891C21.9563 20.7562 22.0094 20.7296 22.0759 20.7229C22.807 20.6232 23.0463 20.3773 22.8203 20.1713C22.5279 19.9187 22.2088 19.6595 21.9297 19.3604C21.8499 19.2806 21.7967 19.2474 21.6439 19.3138C21.1146 19.5538 20.5431 19.6871 19.9623 19.706C19.3995 19.6697 18.8469 19.5394 18.3272 19.3205V19.3138Z" fill="white"/>
<path fill-rule="evenodd" clip-rule="evenodd" d="M21.7702 19.3535L21.6639 19.3801C21.0657 19.5928 20.5207 19.739 19.9557 19.739C19.404 19.739 18.8258 19.5795 18.3007 19.3668C18.2684 19.3557 18.2333 19.3557 18.201 19.3668C18.1678 19.3735 18.1345 19.3934 18.1146 19.4133C17.8689 19.659 17.6069 19.8877 17.3303 20.0979C17.2838 20.1312 17.2904 20.2176 17.3635 20.2442C17.9152 20.4436 18.4536 20.8091 19.9956 20.7958C21.5575 20.7825 22.1092 20.4236 22.6011 20.2575C22.6343 20.2442 22.6675 20.2242 22.6875 20.191C22.6922 20.1831 22.6952 20.1743 22.6964 20.1651C22.6975 20.1559 22.6968 20.1467 22.6941 20.1378C22.6855 20.117 22.6718 20.0987 22.6542 20.0846C22.3684 19.852 22.0693 19.6659 21.8699 19.3934C21.85 19.3602 21.8101 19.3535 21.7702 19.3602V19.3535ZM21.7702 19.3867C21.8035 19.3867 21.8367 19.3867 21.8433 19.4067C22.0427 19.6925 22.3551 19.872 22.6343 20.1046L22.6609 20.1511C22.6627 20.1553 22.6637 20.1598 22.6637 20.1644C22.6637 20.169 22.6627 20.1735 22.6609 20.1777C22.6542 20.1976 22.621 20.2176 22.5944 20.2242C22.0893 20.397 21.5509 20.756 20.0022 20.7692C18.4602 20.7825 17.9285 20.417 17.3768 20.2176C17.3236 20.191 17.3303 20.1378 17.3502 20.1245C17.6294 19.9118 17.8952 19.6726 18.1345 19.4333C18.1551 19.414 18.1803 19.4003 18.2076 19.3934H18.2874C18.8127 19.6216 19.3766 19.7479 19.9491 19.7656C20.5273 19.7656 21.079 19.6194 21.6772 19.4133C21.7093 19.4006 21.7427 19.3917 21.7769 19.3867H21.7702Z" fill="#BD6B00"/>
<path fill-rule="evenodd" clip-rule="evenodd" d="M17.9883 9.32357C17.9883 9.23052 18.1213 9.22387 18.108 9.35016C18.088 9.50303 18.4071 9.90183 18.4337 10.1478C18.4536 10.3139 18.334 10.4535 18.221 10.5466C18.1558 10.5927 18.0793 10.6202 17.9996 10.6261C17.92 10.6319 17.8402 10.6159 17.769 10.5798C17.7092 10.5266 17.656 10.3604 17.7025 10.294C17.7158 10.274 17.7889 10.5399 17.9485 10.5399C18.1678 10.5399 18.3473 10.3737 18.3473 10.2275C18.3605 9.97494 17.995 9.57614 17.9883 9.32357ZM18.6198 9.94835C18.6596 9.92177 18.7128 10.0348 18.6729 10.0613C18.6397 10.0813 18.5732 9.97494 18.6198 9.94171V9.94835ZM18.7195 9.71572C18.6995 9.72902 18.6663 9.71572 18.6729 9.70243C18.7368 9.61369 18.8183 9.53903 18.9122 9.48309C18.9388 9.4698 18.9787 9.50968 18.9654 9.52962C18.8976 9.60843 18.8137 9.67188 18.7195 9.71572ZM19.5569 9.05106C19.5769 9.01118 19.6965 8.96465 19.7298 8.93807C19.7563 8.90483 19.7696 8.96465 19.7563 8.98459C19.7364 9.03112 19.6301 9.09759 19.5835 9.10423C19.5636 9.10423 19.5436 9.07765 19.5569 9.05771V9.05106ZM19.8427 9.071C19.8777 8.98261 19.935 8.90477 20.0089 8.84501C20.0421 8.82507 20.0953 8.84501 20.082 8.8716C20.0369 8.95951 19.9707 9.03487 19.8893 9.09094C19.8693 9.11088 19.8361 9.09094 19.8427 9.071ZM19.5968 9.25046C19.5769 9.26375 19.5902 9.29699 19.6035 9.30363C19.6433 9.31692 19.7032 9.31692 19.7364 9.30363C19.7763 9.27705 19.7563 9.11088 19.7032 9.19729C19.6633 9.25046 19.6367 9.23717 19.5968 9.25046ZM19.1116 9.62267C19.0252 9.5562 19.1382 9.46315 19.2246 9.52962C19.4041 9.66255 18.9587 10.181 18.7195 10.4203C18.6729 10.4668 18.6331 10.3538 18.6929 10.294C18.8659 10.149 19.0161 9.9787 19.1382 9.78883C19.1648 9.7556 19.1847 9.68249 19.1116 9.62267ZM20.1285 9.18399C20.1352 9.11753 20.0222 9.18399 20.0222 9.09759C20.0222 9.05106 20.1485 9.01783 20.2017 9.071C20.2881 9.16405 20.2216 9.31692 20.0687 9.33022C19.9491 9.33022 19.7364 9.50968 19.7696 9.54291C19.8029 9.58944 20.1285 9.61602 20.3213 9.58944C20.4409 9.5695 20.4144 9.67584 20.2947 9.68914C20.1751 9.70243 20.082 9.68914 19.9757 9.72902C19.8427 9.76225 19.7896 9.92841 19.7165 9.99488C19.7032 10.0082 19.6633 9.94171 19.6766 9.91512C19.7298 9.83536 19.8095 9.71572 19.9026 9.67584C19.9557 9.6559 19.743 9.64926 19.6766 9.62932C19.6234 9.61602 19.6367 9.54291 19.6566 9.50303C19.6832 9.44986 19.8826 9.24381 19.969 9.25046C20.0421 9.25046 20.1219 9.23052 20.1285 9.18399ZM20.4609 9.19729C20.5008 9.16405 20.5273 9.11088 20.5606 9.07765C20.5805 9.05771 20.6204 9.07765 20.6138 9.13082C20.6071 9.17735 20.5473 9.21058 20.5141 9.24381C20.4808 9.26375 20.4476 9.21723 20.4675 9.19729H20.4609ZM20.8929 9.04441C20.9527 9.04441 20.9594 9.15076 20.9062 9.16405C20.8663 9.17735 20.8397 9.05106 20.8929 9.04441ZM20.7533 9.37674C20.7533 9.47644 20.7999 9.4698 20.8863 9.46315C20.9727 9.46315 21.0458 9.46315 21.0458 9.38339C21.0458 9.29698 20.9993 9.21723 20.9793 9.27705C20.9727 9.33022 20.9594 9.42327 20.9261 9.38339C20.8996 9.35016 20.9129 9.34351 20.8597 9.39668C20.8264 9.42992 20.8264 9.38339 20.8065 9.3568C20.7932 9.33686 20.7533 9.3701 20.7533 9.38339V9.37674ZM20.1418 9.8553C20.1219 9.98159 20.1418 10.1544 20.2017 10.1544C20.2814 10.1544 20.4409 9.88853 20.5207 9.74231C20.5672 9.66255 20.6403 9.64926 20.6071 9.73566C20.5606 9.86195 20.5672 10.1345 20.6071 10.2142C20.6337 10.2541 20.8065 10.1743 20.8331 10.1145C20.8863 10.0015 20.8397 9.79548 20.8597 9.6692C20.8663 9.58944 20.9461 9.5695 20.9394 9.64926C20.929 9.81521 20.9268 9.98158 20.9328 10.1478C20.9328 10.2142 21.1255 10.3073 21.1521 10.1079C21.1654 9.98823 21.2319 9.86195 21.1521 9.72902C21.099 9.64261 21.2252 9.64926 21.2917 9.7689C21.3382 9.84865 21.2518 9.98159 21.2585 10.0813C21.2585 10.2408 21.1388 10.3339 21.0524 10.3339C20.9727 10.3339 20.9195 10.2342 20.853 10.2342C20.7866 10.2342 20.7068 10.3472 20.6536 10.3405C20.4144 10.3272 20.5406 9.98823 20.4675 9.98159C20.3878 9.98159 20.3014 10.3139 20.2017 10.3073C20.1086 10.294 20.0023 10.0281 20.0488 9.92177C20.082 9.81542 20.1485 9.78883 20.1418 9.8553ZM21.2651 9.32357C21.1521 9.25711 21.2651 9.07765 21.3249 9.13747C21.4313 9.2704 21.5376 9.5695 21.6174 9.59608C21.6639 9.60938 21.6573 9.3701 21.6905 9.26375C21.7171 9.17735 21.8101 9.20393 21.7969 9.31028C21.7902 9.34351 21.6639 9.73566 21.6772 9.74896C21.7657 9.91483 21.8392 10.0883 21.8966 10.2674C21.9165 10.3472 21.8234 10.294 21.8101 10.2807C21.7503 10.1876 21.6506 9.84865 21.6506 9.86859L21.5376 10.3804C21.5243 10.4469 21.4246 10.4336 21.4512 10.3139C21.4712 10.2209 21.6041 9.76225 21.5975 9.74231C21.5213 9.57843 21.4074 9.43492 21.2651 9.32357Z" fill="white"/>
<path fill-rule="evenodd" clip-rule="evenodd" d="M21.4646 10.4269C21.438 10.4269 21.3848 10.4934 21.5444 10.5266C21.7504 10.5665 21.983 10.4934 22.0495 10.2873C22.1359 10.0414 22.1824 9.80876 22.229 9.72235C22.2821 9.62265 22.3486 9.6293 22.2954 9.48307C22.2622 9.37008 22.1957 9.40331 22.1824 9.46313C22.1492 9.61601 22.0096 10.1278 21.9631 10.2142C21.8833 10.387 21.7172 10.4535 21.4646 10.4269Z" fill="white"/>
<path fill-rule="evenodd" clip-rule="evenodd" d="M21.8899 9.61642C21.8633 9.56989 21.8101 9.61642 21.8234 9.66295C21.8266 9.68172 21.8363 9.69874 21.851 9.71093C21.8656 9.72312 21.8841 9.72968 21.9031 9.72941C21.9497 9.72941 22.0494 9.73606 22.0494 9.66295C22.0494 9.60977 22.0028 9.56325 21.9763 9.62307C21.943 9.67624 21.9098 9.66959 21.8899 9.62307V9.61642ZM21.9364 9.41702C21.9231 9.43032 21.9364 9.49014 21.9563 9.48349C22.0327 9.48403 22.108 9.46577 22.1757 9.43032C22.189 9.41702 22.1823 9.38379 22.1624 9.38379C22.0959 9.38379 21.9896 9.38379 21.9364 9.41702ZM22.5213 9.56989C22.5745 9.49014 22.7074 9.48349 22.6542 9.59648C22.5177 9.87055 22.3781 10.1431 22.2355 10.414C22.1823 10.5071 22.1424 10.4605 22.1823 10.3874C22.2288 10.2944 22.508 9.58983 22.5213 9.56989Z" fill="white"/>
<path fill-rule="evenodd" clip-rule="evenodd" d="M22.0094 10.5468C21.9961 10.4936 21.9097 10.4138 21.923 10.5601C21.9363 10.8126 22.2886 10.7329 22.3883 10.6465C22.488 10.5601 22.4082 10.9323 22.5345 10.9721C22.601 10.9921 22.7339 10.899 22.8004 10.8126C22.9798 10.58 23.0995 10.241 23.2656 10.015C23.3321 9.92198 23.2324 9.85552 23.1992 9.92863C23.0397 10.1812 22.8535 10.6996 22.6475 10.8326C22.4813 10.9389 22.5345 10.6996 22.5279 10.6199C22.5212 10.5667 22.4547 10.4869 22.3683 10.5601C22.2988 10.6157 22.2114 10.6441 22.1224 10.6398C22.0759 10.6398 22.0294 10.6398 22.0094 10.5468Z" fill="white"/>
<path fill-rule="evenodd" clip-rule="evenodd" d="M22.6343 10.0816C22.6343 10.0617 22.5612 10.055 22.5679 10.1281C22.5679 10.1813 22.6343 10.1946 22.641 10.1946C22.7407 10.1148 22.621 10.1547 22.6343 10.075V10.0816ZM22.4814 10.3741C22.4615 10.3741 22.4416 10.4405 22.4947 10.4472L22.754 10.4339C22.7805 10.4339 22.7938 10.3741 22.7274 10.3807C22.6476 10.3807 22.5479 10.3608 22.4814 10.3807V10.3741ZM18.3605 9.27072C18.3938 9.27072 18.4669 9.36377 18.4602 9.397C18.4602 9.4103 18.3805 9.397 18.3605 9.37707C18.3406 9.35713 18.3472 9.27072 18.3605 9.27072ZM18.0083 9.96197C17.9418 10.0018 18.0216 10.075 18.0747 10.0417C18.2608 9.91544 18.54 9.78916 18.6065 9.54323C18.6264 9.46347 18.6995 9.33719 18.7726 9.3106C18.8391 9.27737 18.9454 9.43688 19.0119 9.3106C19.0518 9.24413 19.1914 9.35713 19.2246 9.28401C19.2645 9.19761 19.2445 9.15108 19.2445 9.05803C19.2445 9.00485 19.198 8.99156 19.1648 9.07797C19.1515 9.11785 19.1648 9.15773 19.1581 9.18431C19.1448 9.19761 19.1183 9.2109 19.0917 9.19761C19.0784 9.18431 19.0917 9.15108 19.0518 9.13114C19.0385 9.13114 19.0119 9.12449 18.9986 9.14443C18.9521 9.23084 18.9321 9.3106 18.859 9.2109C18.7992 9.14443 18.766 9.00485 18.7261 9.19096C18.7128 9.25743 18.6131 9.35048 18.5533 9.35048C18.4802 9.35048 18.5001 9.15108 18.3406 9.18431C18.2542 9.20425 18.2608 9.36377 18.2741 9.41694C18.2941 9.50335 18.54 9.44353 18.5201 9.4967C18.4802 9.67616 18.2276 9.85562 18.0083 9.96197ZM16.4995 10.8393C16.4928 10.8726 16.5327 10.9523 16.5726 10.959C16.6125 10.959 16.6391 10.8726 16.6258 10.8393C16.6125 10.8194 16.5061 10.8194 16.4995 10.8393ZM16.7188 11.165C16.6922 11.1384 16.6125 11.2115 16.6789 11.2647C16.7122 11.2979 16.8451 11.3378 16.8783 11.278C16.9315 11.1982 16.8318 10.9124 16.8783 10.8792C16.9116 10.846 17.0644 11.0653 17.1442 11.0786C17.3237 11.1052 17.2771 10.7729 17.4765 10.7994C17.6028 10.8127 17.6161 10.6532 17.5962 10.5469C17.5829 10.4472 17.4234 10.3076 17.3502 10.2411C17.2572 10.1614 17.2107 10.3076 17.2705 10.3475C17.3502 10.4139 17.4898 10.5402 17.5098 10.62C17.5164 10.6599 17.4167 10.7396 17.3768 10.7197C17.2838 10.6665 17.204 10.4538 17.1243 10.4073C17.0977 10.394 17.0312 10.4272 17.0578 10.4937C17.0977 10.5668 17.2572 10.6732 17.2638 10.7529C17.2705 10.8194 17.1974 10.9656 17.1442 10.9656C17.0844 10.9656 16.9448 10.7861 16.8983 10.6997C16.8717 10.6665 16.7986 10.6665 16.7853 10.7263C16.781 10.8491 16.7921 10.9719 16.8185 11.0919C16.8318 11.1982 16.7587 11.2049 16.7188 11.165ZM16.453 10.5934C16.4264 10.62 16.5061 10.6732 16.5194 10.6599C16.546 10.6333 16.659 10.507 16.6391 10.4605C16.6191 10.4206 16.4662 10.3275 16.4397 10.3741C16.3931 10.4472 16.5859 10.4871 16.5527 10.507C16.5155 10.5309 16.4819 10.56 16.453 10.5934ZM16.7255 10.0351C16.7255 10.0351 16.7786 10.2012 16.8185 10.1281C16.8451 10.0816 16.7255 10.0351 16.7255 10.0351ZM16.8052 10.3009C16.7919 10.3009 16.7388 10.3475 16.772 10.3674C16.8252 10.394 16.9647 10.4206 16.9315 10.3209C16.9116 10.2611 17.1442 10.3209 17.0844 10.1614C17.0603 10.1122 17.0206 10.0724 16.9714 10.0484C16.9448 10.0484 16.8717 10.0816 16.9182 10.1082C16.9515 10.1215 17.0512 10.1813 17.0179 10.2212C16.9714 10.2611 16.9448 10.2012 16.8916 10.2145C16.865 10.2145 16.885 10.2943 16.865 10.3142C16.865 10.3275 16.8185 10.2877 16.8052 10.2943V10.3009ZM17.1708 9.66952C17.1298 9.70341 17.1016 9.75032 17.091 9.80245C17.091 9.81574 17.111 9.84233 17.1243 9.83568C17.1652 9.80461 17.1936 9.75975 17.204 9.7094C17.204 9.68946 17.1907 9.65622 17.1708 9.66952ZM17.3569 9.64958C17.3037 9.58311 17.4234 9.47676 17.4699 9.61634C17.5031 9.70275 17.8355 10.1414 17.9019 10.2877C17.9551 10.3874 17.9019 10.4272 17.8421 10.3541C17.6759 10.1414 17.5364 9.87556 17.3569 9.64958ZM17.7025 9.65622C17.7623 9.58976 17.882 9.45682 17.8487 9.39036C17.8222 9.32389 17.749 9.32389 17.7358 9.34383C17.6693 9.43024 17.7889 9.4103 17.769 9.43688C17.7358 9.50335 17.7025 9.54323 17.6826 9.6097C17.6759 9.62964 17.6892 9.66952 17.7025 9.65622ZM22.8736 9.86892C22.8271 9.83568 22.9135 9.66952 22.9733 9.73598C23.1262 9.91544 23.1993 10.507 23.2458 10.9523C23.2458 10.9523 23.1793 11.0121 23.1793 10.9988C23.1793 10.7662 23.0796 10.0417 22.8736 9.86892ZM19.3442 9.29731C19.2911 9.17767 19.4173 9.13779 19.4373 9.21755C19.5237 9.60305 19.7364 9.8955 19.9026 10.1547C19.9491 10.2345 19.9026 10.2877 19.7896 10.2079C19.7098 10.1547 19.6234 9.94867 19.5902 9.94203C19.5104 9.92873 19.3376 10.2744 18.9853 10.1747C18.8923 10.1481 18.8989 9.87556 18.8923 9.75592C18.8923 9.6961 18.9587 9.68946 18.9587 9.75592C18.9587 9.86892 18.9587 10.1015 19.0983 10.1148C19.218 10.1148 19.4705 9.95532 19.5237 9.82239C19.5769 9.68946 19.3974 9.43024 19.3442 9.29066V9.29731Z" fill="white"/>
<path fill-rule="evenodd" clip-rule="evenodd" d="M22.9666 10.9056C22.9932 10.8259 23.3721 10.1878 23.4252 10.0482C23.4518 9.98173 23.5582 10.1678 23.4518 10.2675C23.3588 10.3473 23.0862 10.7993 23.0331 10.9588C23.0065 11.0252 22.94 10.992 22.9666 10.9056Z" fill="white"/>
<path fill-rule="evenodd" clip-rule="evenodd" d="M23.6115 10.3003C23.678 10.0344 23.8508 10.3401 23.6979 10.4864C23.4719 10.7124 23.3988 11.1444 23.0332 11.2109C22.9402 11.2308 22.7674 11.1643 22.7142 11.1244C22.6943 11.1112 22.7275 11.0181 22.7873 11.0646C22.8737 11.1311 23.0598 11.151 23.1595 11.0713C23.3767 10.8595 23.5328 10.5932 23.6115 10.3003ZM19.8229 11.1444C19.803 11.1643 19.7564 11.1643 19.7498 11.1909C19.7299 11.284 19.7498 11.3371 19.7299 11.4302C19.7099 11.5232 19.6435 11.5232 19.6501 11.4501C19.6501 11.3571 19.7365 11.2175 19.6767 11.2109C19.6368 11.2042 19.6102 11.151 19.6501 11.1244C19.7232 11.0779 19.7631 11.0846 19.8096 11.0979C19.8296 11.1045 19.8362 11.1311 19.8229 11.1444Z" fill="white"/>
<path fill-rule="evenodd" clip-rule="evenodd" d="M19.7697 11.0114C19.6766 11.1044 19.5836 11.1376 19.4972 11.244C19.4573 11.2839 19.464 11.3437 19.4374 11.4035C19.4174 11.4633 19.3443 11.47 19.3244 11.4633C19.2911 11.4367 19.2978 11.3304 19.2579 11.3836C19.218 11.4434 19.1981 11.5165 19.1449 11.5165C19.0984 11.5165 19.012 11.4168 19.0585 11.4168C19.2114 11.3969 19.2047 11.2839 19.2579 11.2706C19.3244 11.2639 19.3244 11.3703 19.3709 11.3503C19.3975 11.337 19.4174 11.2108 19.4507 11.1775C19.5504 11.0712 19.6301 11.018 19.7365 10.9382C19.783 10.8984 19.8229 10.9715 19.7697 11.018V11.0114ZM20.122 11.3437C20.0422 11.357 20.0555 11.4567 20.0821 11.4633C20.1153 11.4833 20.1751 11.4899 20.1951 11.3769C20.2084 11.3304 20.215 11.6096 20.3147 11.5032C20.3812 11.4367 20.5208 11.5165 20.5806 11.4367C20.6271 11.3769 20.6471 11.337 20.6072 11.2573C20.5939 11.2373 20.5407 11.244 20.5407 11.3038C20.5407 11.357 20.5075 11.4168 20.4543 11.4102C20.4277 11.4035 20.4676 11.2839 20.441 11.2506C20.4348 11.2445 20.4264 11.2411 20.4177 11.2411C20.409 11.2411 20.4007 11.2445 20.3945 11.2506C20.3745 11.2772 20.4144 11.3969 20.3546 11.4102C20.2748 11.4234 20.3147 11.3304 20.2881 11.3171C20.1751 11.2639 20.1685 11.3304 20.122 11.337V11.3437ZM20.7202 11.1443C20.78 11.131 20.76 11.131 20.8531 11.0579C20.8863 11.0313 20.893 11.1111 20.8863 11.1443C20.8863 11.1908 20.8199 11.1576 20.7999 11.2041C20.7733 11.2639 20.7866 11.4035 20.7733 11.4567C20.7733 11.4833 20.7202 11.4833 20.7202 11.4567C20.7069 11.3902 20.7268 11.3237 20.7202 11.2373C20.7202 11.2108 20.6869 11.1642 20.7202 11.1509V11.1443ZM20.3878 10.9781C20.3745 11.0379 20.3745 11.0845 20.3745 11.131C20.3745 11.1642 20.441 11.1443 20.441 11.1376C20.441 11.0845 20.4543 11.0047 20.441 10.9848C20.4277 10.9781 20.3945 10.9648 20.3878 10.9781Z" fill="white"/>
<path fill-rule="evenodd" clip-rule="evenodd" d="M19.969 10.3604L19.8759 10.7326L19.743 10.48V10.7392L19.4505 10.3936L19.5502 10.7658L19.2844 10.5398L19.4306 10.7924L18.9653 10.4933L19.2578 10.8389L18.8856 10.6528L19.1514 10.8788L18.5532 10.6528L19.1315 10.9386C19.3942 10.819 19.6804 10.76 19.969 10.7658C20.2946 10.7658 20.5871 10.8323 20.7998 10.9386L21.3847 10.6528L20.7865 10.8788L21.0524 10.6528L20.6868 10.8389L20.9726 10.4933L20.5073 10.7924L20.6536 10.5398L20.3877 10.7591L20.4874 10.3936L20.2016 10.7392V10.48L20.0687 10.7326L19.969 10.3604Z" fill="white"/>
<path d="M19.4562 18.4373L19.4375 18.5998H19.4125L19.4062 18.4873C19.3989 18.4531 19.3884 18.4196 19.375 18.3873C19.3672 18.3593 19.3567 18.3321 19.3438 18.3061L19.2812 18.2186L19.3312 18.0811C19.373 18.1237 19.405 18.1749 19.425 18.2311C19.4469 18.2954 19.4575 18.3631 19.4562 18.4311M19.8937 18.1686C19.8937 18.2123 19.8812 18.2436 19.8625 18.2623C19.85 18.2811 19.825 18.2998 19.7812 18.3061L19.8062 18.3998C19.8125 18.4412 19.8125 18.4834 19.8062 18.5248C19.805 18.5519 19.8029 18.579 19.8 18.6061H19.775C19.7751 18.5788 19.773 18.5517 19.7687 18.5248C19.7665 18.5036 19.7623 18.4827 19.7563 18.4623L19.7313 18.3998C19.7189 18.3696 19.7042 18.3403 19.6875 18.3123L19.625 18.2061L19.6625 18.0811L19.725 18.1436C19.7438 18.1561 19.7625 18.1623 19.7875 18.1623C19.8375 18.1623 19.8625 18.1373 19.8625 18.0811H19.8875V18.1686M20.2875 18.4686L20.2563 18.5998C20.2313 18.5998 20.2187 18.5811 20.2062 18.5561L20.1812 18.4748C20.1767 18.4396 20.1746 18.4041 20.175 18.3686C20.1548 18.3754 20.1338 18.3796 20.1125 18.3811C20.0833 18.3825 20.0546 18.3736 20.0312 18.3561C20.0217 18.3486 20.014 18.3391 20.0086 18.3283C20.0032 18.3175 20.0002 18.3056 20 18.2936C20 18.2373 20.0188 18.1873 20.0438 18.1498C20.075 18.1061 20.1063 18.0873 20.1375 18.0811C20.1688 18.0811 20.1875 18.0873 20.2 18.1061C20.2107 18.123 20.2171 18.1423 20.2188 18.1623V18.2873C20.2188 18.3436 20.225 18.3811 20.2375 18.4061C20.2375 18.4248 20.2563 18.4436 20.2875 18.4686ZM20.1625 18.2498C20.1625 18.2123 20.1437 18.1998 20.1125 18.1998C20.0997 18.1979 20.0865 18.2001 20.075 18.2061C20.0625 18.2123 20.0625 18.2186 20.0625 18.2248C20.0625 18.2436 20.0813 18.2561 20.125 18.2561L20.1625 18.2498ZM20.7062 18.4373L20.6875 18.5998C20.6562 18.5748 20.625 18.5373 20.6 18.4748C20.5657 18.3918 20.5385 18.3061 20.5187 18.2186C20.4876 18.3351 20.45 18.4499 20.4062 18.5623C20.3924 18.5798 20.3755 18.5947 20.3563 18.6061V18.4498C20.3938 18.4061 20.4125 18.3811 20.4188 18.3561C20.4397 18.3228 20.4565 18.2872 20.4688 18.2498L20.5 18.0811H20.525L20.5812 18.2498C20.5937 18.2873 20.6125 18.3248 20.6375 18.3498L20.7 18.4373" fill="white"/>
<path d="M21.925 19.9625C21.95 19.9875 21.9625 20.0125 21.9687 20.0375L21.9937 20.1375L21.9437 20.1437C21.9266 20.1102 21.9056 20.0787 21.8812 20.05C21.8594 20.024 21.8364 19.999 21.8125 19.975C21.7778 19.9429 21.7424 19.9116 21.7062 19.8813C21.6659 19.8443 21.6242 19.8088 21.5812 19.775C21.5562 19.7625 21.5437 19.75 21.5437 19.7437C21.5337 19.7287 21.5273 19.7116 21.525 19.6938C21.5184 19.6608 21.5142 19.6273 21.5125 19.5938L21.6812 19.7313C21.735 19.7751 21.7871 19.821 21.8375 19.8687L21.925 19.9625ZM21.3312 19.6L21.3187 19.725H21.125L21.1437 19.6H21.3312ZM21.8562 20.1562L21.3812 20.3L21.3 20.175L21.7062 20.05L21.6625 20C21.6463 19.984 21.6272 19.9712 21.6062 19.9625C21.6064 19.9741 21.6042 19.9855 21.6 19.9963C21.5957 20.007 21.5893 20.0167 21.5812 20.025C21.5646 20.0434 21.5428 20.0565 21.5187 20.0625C21.4819 20.0726 21.443 20.0726 21.4062 20.0625C21.3745 20.0588 21.3455 20.0432 21.325 20.0187C21.2972 19.9782 21.282 19.9304 21.2812 19.8813C21.2812 19.8188 21.3 19.7812 21.3375 19.7687C21.3812 19.7562 21.45 19.7687 21.525 19.8125C21.5986 19.8467 21.6629 19.8982 21.7125 19.9625L21.8562 20.1562ZM21.4937 19.9062C21.4778 19.8981 21.461 19.8919 21.4437 19.8875C21.4314 19.884 21.4185 19.884 21.4062 19.8875C21.4 19.8882 21.3939 19.8902 21.3885 19.8935C21.3831 19.8967 21.3785 19.9011 21.375 19.9062C21.3709 19.9117 21.3687 19.9182 21.3687 19.925C21.3687 19.9318 21.3709 19.9383 21.375 19.9438L21.4062 19.9562H21.4437L21.4687 19.9375L21.4937 19.9062ZM20.9937 19.8062L20.9625 19.9312L20.7625 19.9125L20.7937 19.7875L20.9875 19.8062M21.4562 20.2875L21.35 20.3125C21.3148 20.3182 21.2789 20.3182 21.2437 20.3125C21.211 20.3111 21.179 20.3026 21.15 20.2875C21.1312 20.3188 21.1 20.35 21.0562 20.3625C21.0244 20.3788 20.9909 20.3914 20.9562 20.4L20.8812 20.4188L20.8187 20.2938L20.8875 20.275C20.9151 20.2687 20.9423 20.2603 20.9687 20.25L21.025 20.2188L20.9625 20.1875H20.9187C20.9146 20.1864 20.9103 20.1864 20.9062 20.1875C20.9002 20.1923 20.8958 20.1989 20.8937 20.2062H20.8625C20.8312 20.1562 20.825 20.1125 20.8437 20.0812C20.8625 20.05 20.9 20.0312 20.9687 20.0187C21.0216 20.0041 21.0767 19.9999 21.1312 20.0063C21.1812 20.0125 21.2125 20.0312 21.225 20.0625C21.2375 20.075 21.2375 20.0938 21.2375 20.1063L21.2125 20.1812H21.2437C21.2561 20.1831 21.2688 20.1831 21.2812 20.1812L21.3875 20.1625L21.45 20.2875M20.95 20.4L20.85 20.4188C20.8026 20.4284 20.7534 20.4195 20.7125 20.3937C20.6622 20.3509 20.6253 20.2945 20.6062 20.2313L20.5562 20.0938C20.5468 20.068 20.5293 20.046 20.5062 20.0312C20.4887 20.0188 20.4698 20.0083 20.45 20L20.4875 19.8687C20.525 19.8875 20.55 19.9062 20.575 19.9312L20.6375 20.0375L20.6687 20.1313L20.7375 20.2687C20.7562 20.2875 20.7812 20.2938 20.8 20.2875L20.9062 20.275L20.95 20.4ZM20.5125 19.9312L20.45 20.05L20.2625 20.0063L20.325 19.8875L20.5125 19.9312ZM20.625 20.4562L20.1562 20.5L20.1312 20.375L20.5187 20.3312C20.51 20.312 20.4972 20.295 20.4812 20.2812C20.4613 20.2673 20.4404 20.2548 20.4187 20.2437L20.45 20.1187C20.4937 20.1437 20.525 20.175 20.55 20.2C20.5687 20.2313 20.5875 20.275 20.6 20.3312L20.625 20.4562ZM20.25 20.5187C20.2039 20.5176 20.158 20.5134 20.1125 20.5063C20.0762 20.4988 20.0407 20.4884 20.0062 20.475C19.9802 20.4866 19.9529 20.495 19.925 20.5C19.8896 20.503 19.8541 20.503 19.8187 20.5H19.6937C19.6675 20.5001 19.6417 20.4937 19.6187 20.4813C19.6 20.4688 19.5875 20.45 19.5687 20.4188C19.5425 20.4463 19.5105 20.4676 19.475 20.4813L19.3687 20.4875H19.2625L19.275 20.3563H19.3812C19.4312 20.3563 19.475 20.3562 19.5125 20.3312C19.5356 20.3226 19.5557 20.3073 19.5701 20.2873C19.5846 20.2673 19.5928 20.2434 19.5937 20.2188L19.6375 20.225C19.6348 20.252 19.6327 20.2791 19.6312 20.3062C19.6312 20.325 19.6312 20.3375 19.65 20.35C19.6687 20.3625 19.6875 20.3687 19.7125 20.3687H19.8062C19.8687 20.3687 19.9062 20.3688 19.9312 20.3563C19.9687 20.3438 19.9875 20.325 19.9937 20.2875L20 20.2625C20 20.2625 20.0187 20.2625 20.0312 20.25L20.0625 20.2375V20.2625C20.0626 20.2688 20.0626 20.275 20.0625 20.2812L20.0437 20.35C20.0844 20.3639 20.1262 20.3743 20.1687 20.3813C20.175 20.3688 20.1687 20.3562 20.1625 20.3375L20.1437 20.3C20.1437 20.2932 20.1459 20.2867 20.15 20.2812L20.1687 20.2687L20.2312 20.2125L20.2625 20.275V20.3375L20.25 20.5187ZM19.5437 19.975L19.4187 20.0562L19.3375 20L19.25 20.0625L19.1312 20L19.2437 19.9188L19.3375 19.9688L19.4312 19.9062L19.5437 19.9688M19.3562 20.4813L18.9 20.4062L18.95 20.2812L19.3375 20.3438C19.3375 20.3188 19.3375 20.3 19.325 20.2812C19.3161 20.2637 19.3056 20.2469 19.2937 20.2313L19.3937 20.125C19.4187 20.1625 19.4312 20.1875 19.4375 20.225C19.4375 20.2563 19.425 20.3 19.4062 20.3563L19.3562 20.4813ZM18.975 20.4188L18.875 20.4C18.8187 20.3875 18.7875 20.3625 18.7812 20.325C18.7687 20.2875 18.7875 20.2312 18.8312 20.15L18.9062 20.025C18.925 19.9937 18.9312 19.9688 18.925 19.95C18.9213 19.9344 18.9149 19.9196 18.9062 19.9062L19.0437 19.8062C19.0625 19.8375 19.0625 19.8687 19.0625 19.8937C19.0625 19.925 19.0437 19.9625 19.0187 20.0063L18.9687 20.0938C18.9407 20.1352 18.9215 20.182 18.9125 20.2313C18.9125 20.2563 18.925 20.2687 18.9437 20.275L19.0437 20.3L18.975 20.425M18.7375 19.925L18.5812 19.9937L18.4687 19.8875L18.6312 19.825L18.7375 19.9312M18.675 20.3438C18.6464 20.378 18.6127 20.4075 18.575 20.4312C18.5427 20.4513 18.5064 20.4641 18.4687 20.4688L18.3187 20.4625C18.2591 20.4537 18.2005 20.439 18.1437 20.4188C18.0632 20.3962 17.99 20.3532 17.9312 20.2938C17.8937 20.2438 17.8937 20.2 17.9312 20.1562C17.9664 20.1155 18.0087 20.0816 18.0562 20.0562C18.1062 20.025 18.1812 19.9937 18.2937 19.9562L18.3187 19.9875L18.1437 20.0625C18.1125 20.0813 18.0812 20.1 18.0625 20.125C18.0375 20.15 18.0437 20.1875 18.075 20.225C18.1878 20.3124 18.326 20.3607 18.4687 20.3625C18.5437 20.3625 18.5937 20.3438 18.6125 20.3188C18.6312 20.3 18.6375 20.2813 18.6437 20.2563L18.6562 20.1562L18.8125 20.0625C18.8133 20.0939 18.8112 20.1253 18.8062 20.1562C18.7928 20.1937 18.7715 20.2278 18.7437 20.2563L18.6687 20.3438" fill="#BF0000"/>
</g>
<defs>
<clipPath id="clip0_3730_43005">
<rect width="40" height="30" fill="white"/>
</clipPath>
</defs>
</svg>
