<svg width="40" height="30" viewBox="0 0 40 30" fill="none" xmlns="http://www.w3.org/2000/svg">
<g clip-path="url(#clip0_3730_44578)">
<path d="M0 0H40V30H0V0Z" fill="#E41E20"/>
<path d="M17 5.83105C16.7125 5.83105 16.2313 5.9248 16.2375 6.14355C15.425 6.0123 15.3438 6.34355 15.3938 6.64355C15.4688 6.5248 15.5625 6.45605 15.6375 6.4498C15.7438 6.43105 15.8563 6.46855 15.975 6.5373C16.0871 6.60757 16.1881 6.69391 16.275 6.79355C15.9875 6.8623 15.7625 6.81855 15.5375 6.78105C15.4104 6.75396 15.2895 6.70306 15.1813 6.63105C15.0875 6.56855 15.0563 6.50605 14.9125 6.3623C14.7438 6.1873 14.5625 6.2373 14.6188 6.50605C14.75 6.75605 14.9688 6.86855 15.2438 6.91855C15.375 6.9373 15.575 6.98105 15.8 6.98105C16.025 6.98105 16.275 6.9498 16.4125 6.98105C16.3313 7.03105 16.2375 7.1248 16.05 7.15605C15.8625 7.19355 15.5813 7.04355 15.4063 7.00605C15.425 7.1498 15.6125 7.2873 15.975 7.3623C16.575 7.4873 17.0688 7.5873 17.4 7.76855C17.662 7.91461 17.8933 8.10985 18.0813 8.34355C18.375 8.6873 18.3938 8.95605 18.4063 9.01855C18.4688 9.56855 18.275 9.88105 17.9125 9.98105C17.7375 10.0248 17.4125 9.9373 17.3 9.7998C17.175 9.6623 17.0688 9.4248 17.1 9.0498C17.1313 8.9123 17.2938 8.53105 17.1563 8.45605C16.5046 8.09793 15.8303 7.78268 15.1375 7.5123C14.9813 7.4498 14.8563 7.6623 14.8063 7.7498C14.3448 7.68547 13.9034 7.51916 13.5142 7.26294C13.125 7.00673 12.7978 6.66704 12.5563 6.26855C12.2938 5.79355 11.85 6.26855 11.925 6.7248C12.0438 7.2248 12.425 7.5873 12.8875 7.8498C13.3563 8.10605 13.95 8.3623 14.5438 8.3498C14.8688 8.4123 14.8625 8.8248 14.4813 8.90605C13.725 8.90605 13.1188 8.89355 12.55 8.34355C12.1188 7.9498 11.8813 8.41855 12 8.68105C12.2125 9.4998 13.3813 9.73105 14.5625 9.46855C15.025 9.39355 14.75 9.88105 14.625 9.8873C14.125 10.2436 13.2438 10.5873 12.4625 9.8873C12.1063 9.6123 11.8625 9.8373 12 10.2311C12.3438 11.2623 13.6688 11.0436 14.575 10.5436C14.8063 10.4123 15.0188 10.7123 14.7375 10.9436C13.6063 11.7311 13.0438 11.7436 12.5313 11.4436C11.8938 11.1873 11.8438 11.8936 12.2188 12.1311C12.6375 12.3811 13.7063 12.1936 14.4938 11.6936C14.8313 11.4436 14.8438 11.8373 14.6313 11.9936C13.7 12.7998 13.3313 13.0123 12.3625 12.8811C11.8813 12.8436 11.8875 13.4373 12.2625 13.6686C12.7813 13.9873 13.7938 13.4623 14.575 12.8061C14.9063 12.6311 14.9625 12.9186 14.8 13.2623C14.4541 13.7519 13.9837 14.1402 13.4375 14.3873C13 14.5561 12.5875 14.5311 12.2938 14.4311C11.9313 14.3061 11.8875 14.6811 12.0875 15.0186C12.2063 15.2248 12.7 15.2873 13.2375 15.0998C13.775 14.9123 14.35 14.4623 14.7438 13.9436C15.0875 13.6373 15.05 14.0436 14.8875 14.3311C14.1 15.5811 13.375 16.0436 12.4188 15.9686C12 15.8936 11.9 16.2186 12.1688 16.5311C12.6438 16.9186 13.2313 16.9061 13.7563 16.5186C14.2125 16.0811 15.0938 15.1186 15.5563 14.6061C15.8813 14.3498 15.9875 14.6061 15.8875 15.1311C15.8 15.4311 15.5875 15.7561 14.9938 15.9811C14.5875 16.2123 14.8938 16.5311 15.1938 16.5436C15.3625 16.5436 15.7 16.3436 15.9625 16.0561C16.3 15.6686 16.325 15.4123 16.5125 14.8123C16.6875 14.5248 17.0063 14.6623 17.0063 14.9623C16.85 15.5623 16.725 15.6686 16.4125 15.9123C16.1188 16.1936 16.6188 16.2873 16.7875 16.1686C17.275 15.8436 17.45 15.4186 17.6125 15.0311C17.7375 14.7561 18.075 14.8873 17.9125 15.3436C17.5375 16.4311 16.9125 16.8561 15.8313 17.0811C15.725 17.0998 15.6563 17.1623 15.6938 17.2873L16.1313 17.7248C15.4625 17.9248 14.9188 18.0373 14.2438 18.2248L13.3188 17.6123C13.2375 17.4123 13.1938 17.0998 12.7063 17.3186C12.3813 17.1686 12.225 17.2248 12.0438 17.3811C12.3063 17.3811 12.4188 17.4561 12.525 17.5748C12.6625 17.9311 12.975 17.9686 13.2938 17.8686C13.5 18.0373 13.6063 18.1748 13.8188 18.3498L12.775 18.3186C12.4 17.9248 12.1125 17.9436 11.85 18.2561C11.6438 18.2873 11.5625 18.2873 11.425 18.5311C11.6375 18.4436 11.775 18.4186 11.8688 18.5123C12.2625 18.7436 12.5188 18.6936 12.7125 18.5123L13.8063 18.5811C13.6688 18.7061 13.4813 18.7686 13.3375 18.8811C12.775 18.7186 12.475 18.9436 12.375 19.3998C12.2961 19.5827 12.2701 19.7841 12.3 19.9811C12.35 19.7936 12.4438 19.6373 12.6063 19.5436C13.1063 19.6686 13.2938 19.4623 13.325 19.1623C13.575 18.9623 13.9375 18.9186 14.1813 18.7186C14.4688 18.8061 14.6063 18.8623 14.8938 18.9561C14.9938 19.2686 15.225 19.3873 15.6 19.3061C16.0375 19.3186 15.9625 19.5061 16 19.6498C16.125 19.4436 16.1188 19.2373 15.8438 19.0498C15.7438 18.7811 15.5188 18.6561 15.2313 18.8123C14.9563 18.7373 14.8875 18.6248 14.6125 18.5436C15.3 18.3248 15.7875 18.2748 16.475 18.0561L16.9563 18.4811C17.05 18.5373 17.1375 18.5498 17.1938 18.4811C17.625 17.8561 17.8188 17.3123 18.2125 16.8998C18.3688 16.7248 18.5625 16.4998 18.775 16.4436C18.8813 16.4123 19.0125 16.4311 19.1 16.5248C19.1813 16.6123 19.25 16.7811 19.225 17.0373C19.1813 17.3936 19.0938 17.5123 18.9938 17.7248C18.8875 17.9436 18.7688 18.0748 18.6375 18.2436C18.3875 18.5748 18.05 18.7686 17.85 18.8998C17.45 19.1561 17.2875 19.0436 16.975 19.0248C16.575 19.0686 16.475 19.2623 16.8 19.5311C17.1 19.6936 17.375 19.7123 17.6 19.6686C17.7875 19.6311 18.0125 19.3873 18.175 19.2561C18.35 19.0498 18.65 19.2936 18.4438 19.5373C18.075 19.9748 17.7125 20.2623 17.2563 20.2561C16.775 20.3186 16.8688 20.5873 17.1813 20.7186C17.7563 20.9498 18.2688 20.5123 18.5313 20.2186C18.7313 19.9998 18.875 19.9936 18.8438 20.3373C18.6375 20.9561 18.3688 21.1936 17.9188 21.2248C17.5563 21.1873 17.55 21.4748 17.8188 21.6623C18.4188 22.0748 18.8563 21.3623 19.0625 20.9373C19.2063 20.5498 19.4313 20.7311 19.4563 21.0498C19.4563 21.4811 19.2688 21.8248 18.75 22.2623C19.1438 22.8936 19.6063 23.5373 20 24.1686L21.2 10.7936L20 8.6873C19.875 8.5748 19.45 8.0748 19.3438 7.9998C19.3 7.9623 19.2813 7.9373 19.3375 7.9123C19.3938 7.8873 19.525 7.8623 19.6188 7.8498C19.3688 7.59355 19.1438 7.5123 18.6625 7.3748C18.7813 7.3248 18.8938 7.3498 19.2438 7.3373C19.029 7.04875 18.7363 6.82757 18.4 6.6998C18.6625 6.5123 18.7125 6.4998 18.975 6.28105C18.561 6.24907 18.1521 6.16937 17.7563 6.04355C17.52 5.93124 17.2664 5.85941 17.0063 5.83105H17ZM17.05 6.35605C17.2875 6.35605 17.4313 6.4373 17.4313 6.5373C17.4313 6.6373 17.2875 6.71855 17.05 6.71855C16.8125 6.71855 16.6625 6.6248 16.6625 6.53105C16.6625 6.43105 16.8125 6.35605 17.05 6.35605Z" fill="black"/>
<path d="M23 5.83105C23.2875 5.83105 23.7687 5.9248 23.7625 6.14355C24.575 6.0123 24.6562 6.34355 24.6062 6.64355C24.5312 6.5248 24.4375 6.45605 24.3625 6.4498C24.2562 6.43105 24.1437 6.46855 24.025 6.5373C23.9129 6.60757 23.8119 6.69391 23.725 6.79355C24.0125 6.8623 24.2375 6.81855 24.4625 6.78105C24.5896 6.75396 24.7105 6.70306 24.8187 6.63105C24.9125 6.56855 24.9437 6.50605 25.0875 6.3623C25.2562 6.1873 25.4375 6.2373 25.3812 6.50605C25.25 6.75605 25.0312 6.86855 24.7562 6.91855C24.625 6.9373 24.425 6.98105 24.2 6.98105C23.975 6.98105 23.725 6.9498 23.5875 6.98105C23.6687 7.03105 23.7625 7.1248 23.95 7.15605C24.1375 7.19355 24.4187 7.04355 24.5937 7.00605C24.575 7.1498 24.3875 7.2873 24.025 7.3623C23.425 7.4873 22.9312 7.5873 22.6 7.76855C22.338 7.91461 22.1067 8.10985 21.9187 8.34355C21.625 8.6873 21.6062 8.95605 21.5937 9.01855C21.5312 9.56855 21.725 9.88105 22.0875 9.98105C22.2625 10.0248 22.5875 9.9373 22.7 9.7998C22.825 9.6623 22.9312 9.4248 22.9 9.0498C22.8687 8.9123 22.7062 8.53105 22.8437 8.45605C23.4954 8.09793 24.1697 7.78268 24.8625 7.5123C25.0187 7.4498 25.1437 7.6623 25.1937 7.7498C25.6552 7.68547 26.0966 7.51916 26.4858 7.26294C26.875 7.00673 27.2022 6.66704 27.4437 6.26855C27.7062 5.79355 28.15 6.26855 28.075 6.7248C27.9562 7.2248 27.575 7.5873 27.1125 7.8498C26.6437 8.10605 26.05 8.3623 25.4562 8.3498C25.1312 8.4123 25.1375 8.8248 25.5187 8.90605C26.275 8.90605 26.8812 8.89355 27.45 8.34355C27.8812 7.9498 28.1187 8.41855 28 8.68105C27.7875 9.4998 26.6187 9.73105 25.4375 9.46855C24.975 9.39355 25.25 9.88105 25.375 9.8873C25.875 10.2436 26.7562 10.5873 27.5375 9.8873C27.8937 9.6123 28.1375 9.8373 28 10.2311C27.6562 11.2623 26.3312 11.0436 25.425 10.5436C25.1937 10.4123 24.9812 10.7123 25.2625 10.9436C26.3937 11.7311 26.9562 11.7436 27.4687 11.4436C28.1062 11.1873 28.1562 11.8936 27.7812 12.1311C27.3625 12.3811 26.2937 12.1936 25.5062 11.6936C25.1687 11.4436 25.1562 11.8373 25.3687 11.9936C26.3 12.7998 26.6687 13.0123 27.6375 12.8811C28.1187 12.8436 28.1125 13.4373 27.7375 13.6686C27.2187 13.9873 26.2062 13.4623 25.425 12.8061C25.0937 12.6311 25.0375 12.9186 25.2 13.2623C25.5459 13.7519 26.0163 14.1402 26.5625 14.3873C27 14.5561 27.4125 14.5311 27.7062 14.4311C28.0687 14.3061 28.1125 14.6811 27.9125 15.0186C27.7937 15.2248 27.3 15.2873 26.7625 15.0998C26.225 14.9123 25.65 14.4623 25.2562 13.9436C24.9125 13.6373 24.95 14.0436 25.1125 14.3311C25.9 15.5811 26.625 16.0436 27.5812 15.9686C28 15.8936 28.1 16.2186 27.8312 16.5311C27.3562 16.9186 26.7687 16.9061 26.2437 16.5186C25.7875 16.0811 24.9062 15.1186 24.4437 14.6061C24.1187 14.3498 24.0125 14.6061 24.1125 15.1311C24.2 15.4311 24.4125 15.7561 25.0062 15.9811C25.4125 16.2123 25.1062 16.5311 24.8062 16.5436C24.6375 16.5436 24.3 16.3436 24.0375 16.0561C23.7 15.6686 23.675 15.4123 23.4875 14.8123C23.3125 14.5248 22.9937 14.6623 22.9937 14.9623C23.15 15.5623 23.275 15.6686 23.5875 15.9123C23.8812 16.1936 23.3812 16.2873 23.2125 16.1686C22.725 15.8436 22.55 15.4186 22.3875 15.0311C22.2625 14.7561 21.925 14.8873 22.0875 15.3436C22.4625 16.4311 23.0875 16.8561 24.1687 17.0811C24.275 17.0998 24.3437 17.1623 24.3062 17.2873L23.8687 17.7248C24.5375 17.9248 25.0812 18.0373 25.7562 18.2248L26.6812 17.6123C26.7625 17.4123 26.8062 17.0998 27.2937 17.3186C27.6187 17.1686 27.775 17.2248 27.9562 17.3811C27.6937 17.3811 27.5812 17.4561 27.475 17.5748C27.3375 17.9311 27.025 17.9686 26.7062 17.8686C26.5 18.0373 26.3937 18.1748 26.1812 18.3498L27.225 18.3186C27.6 17.9248 27.8875 17.9436 28.15 18.2561C28.3562 18.2873 28.4375 18.2873 28.575 18.5311C28.3625 18.4436 28.225 18.4186 28.1312 18.5123C27.7375 18.7436 27.4812 18.6936 27.2875 18.5123L26.1937 18.5811C26.3312 18.7061 26.5187 18.7686 26.6625 18.8811C27.225 18.7186 27.525 18.9436 27.625 19.3998C27.7039 19.5827 27.7299 19.7841 27.7 19.9811C27.65 19.7936 27.5562 19.6373 27.3937 19.5436C26.8937 19.6686 26.7062 19.4623 26.675 19.1623C26.425 18.9623 26.0625 18.9186 25.8187 18.7186C25.5312 18.8061 25.3937 18.8623 25.1062 18.9561C25.0062 19.2686 24.775 19.3873 24.4 19.3061C23.9625 19.3186 24.0375 19.5061 24 19.6498C23.875 19.4436 23.8812 19.2373 24.1562 19.0498C24.2562 18.7811 24.4812 18.6561 24.7687 18.8123C25.0437 18.7373 25.1125 18.6248 25.3875 18.5436C24.7 18.3248 24.2125 18.2748 23.525 18.0561L23.0437 18.4811C22.95 18.5373 22.8625 18.5498 22.8062 18.4811C22.375 17.8561 22.1812 17.3123 21.7875 16.8998C21.6312 16.7248 21.4375 16.4998 21.225 16.4436C21.1187 16.4123 20.9875 16.4311 20.9 16.5248C20.8187 16.6123 20.75 16.7811 20.775 17.0373C20.8187 17.3936 20.9062 17.5123 21.0062 17.7248C21.1125 17.9436 21.2312 18.0748 21.3625 18.2436C21.6125 18.5748 21.95 18.7686 22.15 18.8998C22.55 19.1561 22.7125 19.0436 23.025 19.0248C23.425 19.0686 23.525 19.2623 23.2 19.5311C22.9 19.6936 22.625 19.7123 22.4 19.6686C22.2125 19.6311 21.9875 19.3873 21.825 19.2561C21.65 19.0498 21.35 19.2936 21.5562 19.5373C21.925 19.9748 22.2875 20.2623 22.7437 20.2561C23.225 20.3186 23.1312 20.5873 22.8187 20.7186C22.2437 20.9498 21.7312 20.5123 21.4687 20.2186C21.2687 19.9998 21.125 19.9936 21.1562 20.3373C21.3625 20.9561 21.6312 21.1936 22.0812 21.2248C22.4437 21.1873 22.45 21.4748 22.1812 21.6623C21.5812 22.0748 21.1437 21.3623 20.9375 20.9373C20.7937 20.5498 20.5687 20.7311 20.5437 21.0498C20.5437 21.4811 20.7312 21.8248 21.25 22.2623C20.8562 22.8936 20.3937 23.5373 20 24.1686L18.8 10.7936L20 8.6873C20.125 8.5748 20.55 8.0748 20.6562 7.9998C20.7 7.9623 20.7187 7.9373 20.6625 7.9123C20.6062 7.8873 20.475 7.8623 20.3812 7.8498C20.6312 7.59355 20.8562 7.5123 21.3375 7.3748C21.2187 7.3248 21.1062 7.3498 20.7562 7.3373C20.971 7.04875 21.2637 6.82757 21.6 6.6998C21.3375 6.5123 21.2875 6.4998 21.025 6.28105C21.439 6.24907 21.8479 6.16937 22.2437 6.04355C22.48 5.93124 22.7336 5.85941 22.9937 5.83105H23ZM22.95 6.35605C22.7125 6.35605 22.5687 6.4373 22.5687 6.5373C22.5687 6.6373 22.7125 6.71855 22.95 6.71855C23.1875 6.71855 23.3375 6.6248 23.3375 6.53105C23.3375 6.43105 23.1875 6.35605 22.95 6.35605Z" fill="black"/>
</g>
<g clip-path="url(#clip1_3730_44578)">
<path d="M0 0H40V30H0V0Z" fill="#E41E20"/>
<path d="M17 5.83105C16.7125 5.83105 16.2313 5.9248 16.2375 6.14355C15.425 6.0123 15.3438 6.34355 15.3938 6.64355C15.4688 6.5248 15.5625 6.45605 15.6375 6.4498C15.7438 6.43105 15.8563 6.46855 15.975 6.5373C16.0871 6.60757 16.1881 6.69391 16.275 6.79355C15.9875 6.8623 15.7625 6.81855 15.5375 6.78105C15.4104 6.75396 15.2895 6.70306 15.1813 6.63105C15.0875 6.56855 15.0563 6.50605 14.9125 6.3623C14.7438 6.1873 14.5625 6.2373 14.6188 6.50605C14.75 6.75605 14.9688 6.86855 15.2438 6.91855C15.375 6.9373 15.575 6.98105 15.8 6.98105C16.025 6.98105 16.275 6.9498 16.4125 6.98105C16.3313 7.03105 16.2375 7.1248 16.05 7.15605C15.8625 7.19355 15.5813 7.04355 15.4063 7.00605C15.425 7.1498 15.6125 7.2873 15.975 7.3623C16.575 7.4873 17.0688 7.5873 17.4 7.76855C17.662 7.91461 17.8933 8.10985 18.0813 8.34355C18.375 8.6873 18.3938 8.95605 18.4063 9.01855C18.4688 9.56855 18.275 9.88105 17.9125 9.98105C17.7375 10.0248 17.4125 9.9373 17.3 9.7998C17.175 9.6623 17.0688 9.4248 17.1 9.0498C17.1313 8.9123 17.2938 8.53105 17.1563 8.45605C16.5046 8.09793 15.8303 7.78268 15.1375 7.5123C14.9813 7.4498 14.8563 7.6623 14.8063 7.7498C14.3448 7.68547 13.9034 7.51916 13.5142 7.26294C13.125 7.00673 12.7978 6.66704 12.5563 6.26855C12.2938 5.79355 11.85 6.26855 11.925 6.7248C12.0438 7.2248 12.425 7.5873 12.8875 7.8498C13.3563 8.10605 13.95 8.3623 14.5438 8.3498C14.8688 8.4123 14.8625 8.8248 14.4813 8.90605C13.725 8.90605 13.1188 8.89355 12.55 8.34355C12.1188 7.9498 11.8813 8.41855 12 8.68105C12.2125 9.4998 13.3813 9.73105 14.5625 9.46855C15.025 9.39355 14.75 9.88105 14.625 9.8873C14.125 10.2436 13.2438 10.5873 12.4625 9.8873C12.1063 9.6123 11.8625 9.8373 12 10.2311C12.3438 11.2623 13.6688 11.0436 14.575 10.5436C14.8063 10.4123 15.0188 10.7123 14.7375 10.9436C13.6063 11.7311 13.0438 11.7436 12.5313 11.4436C11.8938 11.1873 11.8438 11.8936 12.2188 12.1311C12.6375 12.3811 13.7063 12.1936 14.4938 11.6936C14.8313 11.4436 14.8438 11.8373 14.6313 11.9936C13.7 12.7998 13.3313 13.0123 12.3625 12.8811C11.8813 12.8436 11.8875 13.4373 12.2625 13.6686C12.7813 13.9873 13.7938 13.4623 14.575 12.8061C14.9063 12.6311 14.9625 12.9186 14.8 13.2623C14.4541 13.7519 13.9837 14.1402 13.4375 14.3873C13 14.5561 12.5875 14.5311 12.2938 14.4311C11.9313 14.3061 11.8875 14.6811 12.0875 15.0186C12.2063 15.2248 12.7 15.2873 13.2375 15.0998C13.775 14.9123 14.35 14.4623 14.7438 13.9436C15.0875 13.6373 15.05 14.0436 14.8875 14.3311C14.1 15.5811 13.375 16.0436 12.4188 15.9686C12 15.8936 11.9 16.2186 12.1688 16.5311C12.6438 16.9186 13.2313 16.9061 13.7563 16.5186C14.2125 16.0811 15.0938 15.1186 15.5563 14.6061C15.8813 14.3498 15.9875 14.6061 15.8875 15.1311C15.8 15.4311 15.5875 15.7561 14.9938 15.9811C14.5875 16.2123 14.8938 16.5311 15.1938 16.5436C15.3625 16.5436 15.7 16.3436 15.9625 16.0561C16.3 15.6686 16.325 15.4123 16.5125 14.8123C16.6875 14.5248 17.0063 14.6623 17.0063 14.9623C16.85 15.5623 16.725 15.6686 16.4125 15.9123C16.1188 16.1936 16.6188 16.2873 16.7875 16.1686C17.275 15.8436 17.45 15.4186 17.6125 15.0311C17.7375 14.7561 18.075 14.8873 17.9125 15.3436C17.5375 16.4311 16.9125 16.8561 15.8313 17.0811C15.725 17.0998 15.6563 17.1623 15.6938 17.2873L16.1313 17.7248C15.4625 17.9248 14.9188 18.0373 14.2438 18.2248L13.3188 17.6123C13.2375 17.4123 13.1938 17.0998 12.7063 17.3186C12.3813 17.1686 12.225 17.2248 12.0438 17.3811C12.3063 17.3811 12.4188 17.4561 12.525 17.5748C12.6625 17.9311 12.975 17.9686 13.2938 17.8686C13.5 18.0373 13.6063 18.1748 13.8188 18.3498L12.775 18.3186C12.4 17.9248 12.1125 17.9436 11.85 18.2561C11.6438 18.2873 11.5625 18.2873 11.425 18.5311C11.6375 18.4436 11.775 18.4186 11.8688 18.5123C12.2625 18.7436 12.5188 18.6936 12.7125 18.5123L13.8063 18.5811C13.6688 18.7061 13.4813 18.7686 13.3375 18.8811C12.775 18.7186 12.475 18.9436 12.375 19.3998C12.2961 19.5827 12.2701 19.7841 12.3 19.9811C12.35 19.7936 12.4438 19.6373 12.6063 19.5436C13.1063 19.6686 13.2938 19.4623 13.325 19.1623C13.575 18.9623 13.9375 18.9186 14.1813 18.7186C14.4688 18.8061 14.6063 18.8623 14.8938 18.9561C14.9938 19.2686 15.225 19.3873 15.6 19.3061C16.0375 19.3186 15.9625 19.5061 16 19.6498C16.125 19.4436 16.1188 19.2373 15.8438 19.0498C15.7438 18.7811 15.5188 18.6561 15.2313 18.8123C14.9563 18.7373 14.8875 18.6248 14.6125 18.5436C15.3 18.3248 15.7875 18.2748 16.475 18.0561L16.9563 18.4811C17.05 18.5373 17.1375 18.5498 17.1938 18.4811C17.625 17.8561 17.8188 17.3123 18.2125 16.8998C18.3688 16.7248 18.5625 16.4998 18.775 16.4436C18.8813 16.4123 19.0125 16.4311 19.1 16.5248C19.1813 16.6123 19.25 16.7811 19.225 17.0373C19.1813 17.3936 19.0938 17.5123 18.9938 17.7248C18.8875 17.9436 18.7688 18.0748 18.6375 18.2436C18.3875 18.5748 18.05 18.7686 17.85 18.8998C17.45 19.1561 17.2875 19.0436 16.975 19.0248C16.575 19.0686 16.475 19.2623 16.8 19.5311C17.1 19.6936 17.375 19.7123 17.6 19.6686C17.7875 19.6311 18.0125 19.3873 18.175 19.2561C18.35 19.0498 18.65 19.2936 18.4438 19.5373C18.075 19.9748 17.7125 20.2623 17.2563 20.2561C16.775 20.3186 16.8688 20.5873 17.1813 20.7186C17.7563 20.9498 18.2688 20.5123 18.5313 20.2186C18.7313 19.9998 18.875 19.9936 18.8438 20.3373C18.6375 20.9561 18.3688 21.1936 17.9188 21.2248C17.5563 21.1873 17.55 21.4748 17.8188 21.6623C18.4188 22.0748 18.8563 21.3623 19.0625 20.9373C19.2063 20.5498 19.4313 20.7311 19.4563 21.0498C19.4563 21.4811 19.2688 21.8248 18.75 22.2623C19.1438 22.8936 19.6063 23.5373 20 24.1686L21.2 10.7936L20 8.6873C19.875 8.5748 19.45 8.0748 19.3438 7.9998C19.3 7.9623 19.2813 7.9373 19.3375 7.9123C19.3938 7.8873 19.525 7.8623 19.6188 7.8498C19.3688 7.59355 19.1438 7.5123 18.6625 7.3748C18.7813 7.3248 18.8938 7.3498 19.2438 7.3373C19.029 7.04875 18.7363 6.82757 18.4 6.6998C18.6625 6.5123 18.7125 6.4998 18.975 6.28105C18.561 6.24907 18.1521 6.16937 17.7563 6.04355C17.52 5.93124 17.2664 5.85941 17.0063 5.83105H17ZM17.05 6.35605C17.2875 6.35605 17.4313 6.4373 17.4313 6.5373C17.4313 6.6373 17.2875 6.71855 17.05 6.71855C16.8125 6.71855 16.6625 6.6248 16.6625 6.53105C16.6625 6.43105 16.8125 6.35605 17.05 6.35605Z" fill="black"/>
<path d="M23 5.83105C23.2875 5.83105 23.7687 5.9248 23.7625 6.14355C24.575 6.0123 24.6562 6.34355 24.6062 6.64355C24.5312 6.5248 24.4375 6.45605 24.3625 6.4498C24.2562 6.43105 24.1437 6.46855 24.025 6.5373C23.9129 6.60757 23.8119 6.69391 23.725 6.79355C24.0125 6.8623 24.2375 6.81855 24.4625 6.78105C24.5896 6.75396 24.7105 6.70306 24.8187 6.63105C24.9125 6.56855 24.9437 6.50605 25.0875 6.3623C25.2562 6.1873 25.4375 6.2373 25.3812 6.50605C25.25 6.75605 25.0312 6.86855 24.7562 6.91855C24.625 6.9373 24.425 6.98105 24.2 6.98105C23.975 6.98105 23.725 6.9498 23.5875 6.98105C23.6687 7.03105 23.7625 7.1248 23.95 7.15605C24.1375 7.19355 24.4187 7.04355 24.5937 7.00605C24.575 7.1498 24.3875 7.2873 24.025 7.3623C23.425 7.4873 22.9312 7.5873 22.6 7.76855C22.338 7.91461 22.1067 8.10985 21.9187 8.34355C21.625 8.6873 21.6062 8.95605 21.5937 9.01855C21.5312 9.56855 21.725 9.88105 22.0875 9.98105C22.2625 10.0248 22.5875 9.9373 22.7 9.7998C22.825 9.6623 22.9312 9.4248 22.9 9.0498C22.8687 8.9123 22.7062 8.53105 22.8437 8.45605C23.4954 8.09793 24.1697 7.78268 24.8625 7.5123C25.0187 7.4498 25.1437 7.6623 25.1937 7.7498C25.6552 7.68547 26.0966 7.51916 26.4858 7.26294C26.875 7.00673 27.2022 6.66704 27.4437 6.26855C27.7062 5.79355 28.15 6.26855 28.075 6.7248C27.9562 7.2248 27.575 7.5873 27.1125 7.8498C26.6437 8.10605 26.05 8.3623 25.4562 8.3498C25.1312 8.4123 25.1375 8.8248 25.5187 8.90605C26.275 8.90605 26.8812 8.89355 27.45 8.34355C27.8812 7.9498 28.1187 8.41855 28 8.68105C27.7875 9.4998 26.6187 9.73105 25.4375 9.46855C24.975 9.39355 25.25 9.88105 25.375 9.8873C25.875 10.2436 26.7562 10.5873 27.5375 9.8873C27.8937 9.6123 28.1375 9.8373 28 10.2311C27.6562 11.2623 26.3312 11.0436 25.425 10.5436C25.1937 10.4123 24.9812 10.7123 25.2625 10.9436C26.3937 11.7311 26.9562 11.7436 27.4687 11.4436C28.1062 11.1873 28.1562 11.8936 27.7812 12.1311C27.3625 12.3811 26.2937 12.1936 25.5062 11.6936C25.1687 11.4436 25.1562 11.8373 25.3687 11.9936C26.3 12.7998 26.6687 13.0123 27.6375 12.8811C28.1187 12.8436 28.1125 13.4373 27.7375 13.6686C27.2187 13.9873 26.2062 13.4623 25.425 12.8061C25.0937 12.6311 25.0375 12.9186 25.2 13.2623C25.5459 13.7519 26.0163 14.1402 26.5625 14.3873C27 14.5561 27.4125 14.5311 27.7062 14.4311C28.0687 14.3061 28.1125 14.6811 27.9125 15.0186C27.7937 15.2248 27.3 15.2873 26.7625 15.0998C26.225 14.9123 25.65 14.4623 25.2562 13.9436C24.9125 13.6373 24.95 14.0436 25.1125 14.3311C25.9 15.5811 26.625 16.0436 27.5812 15.9686C28 15.8936 28.1 16.2186 27.8312 16.5311C27.3562 16.9186 26.7687 16.9061 26.2437 16.5186C25.7875 16.0811 24.9062 15.1186 24.4437 14.6061C24.1187 14.3498 24.0125 14.6061 24.1125 15.1311C24.2 15.4311 24.4125 15.7561 25.0062 15.9811C25.4125 16.2123 25.1062 16.5311 24.8062 16.5436C24.6375 16.5436 24.3 16.3436 24.0375 16.0561C23.7 15.6686 23.675 15.4123 23.4875 14.8123C23.3125 14.5248 22.9937 14.6623 22.9937 14.9623C23.15 15.5623 23.275 15.6686 23.5875 15.9123C23.8812 16.1936 23.3812 16.2873 23.2125 16.1686C22.725 15.8436 22.55 15.4186 22.3875 15.0311C22.2625 14.7561 21.925 14.8873 22.0875 15.3436C22.4625 16.4311 23.0875 16.8561 24.1687 17.0811C24.275 17.0998 24.3437 17.1623 24.3062 17.2873L23.8687 17.7248C24.5375 17.9248 25.0812 18.0373 25.7562 18.2248L26.6812 17.6123C26.7625 17.4123 26.8062 17.0998 27.2937 17.3186C27.6187 17.1686 27.775 17.2248 27.9562 17.3811C27.6937 17.3811 27.5812 17.4561 27.475 17.5748C27.3375 17.9311 27.025 17.9686 26.7062 17.8686C26.5 18.0373 26.3937 18.1748 26.1812 18.3498L27.225 18.3186C27.6 17.9248 27.8875 17.9436 28.15 18.2561C28.3562 18.2873 28.4375 18.2873 28.575 18.5311C28.3625 18.4436 28.225 18.4186 28.1312 18.5123C27.7375 18.7436 27.4812 18.6936 27.2875 18.5123L26.1937 18.5811C26.3312 18.7061 26.5187 18.7686 26.6625 18.8811C27.225 18.7186 27.525 18.9436 27.625 19.3998C27.7039 19.5827 27.7299 19.7841 27.7 19.9811C27.65 19.7936 27.5562 19.6373 27.3937 19.5436C26.8937 19.6686 26.7062 19.4623 26.675 19.1623C26.425 18.9623 26.0625 18.9186 25.8187 18.7186C25.5312 18.8061 25.3937 18.8623 25.1062 18.9561C25.0062 19.2686 24.775 19.3873 24.4 19.3061C23.9625 19.3186 24.0375 19.5061 24 19.6498C23.875 19.4436 23.8812 19.2373 24.1562 19.0498C24.2562 18.7811 24.4812 18.6561 24.7687 18.8123C25.0437 18.7373 25.1125 18.6248 25.3875 18.5436C24.7 18.3248 24.2125 18.2748 23.525 18.0561L23.0437 18.4811C22.95 18.5373 22.8625 18.5498 22.8062 18.4811C22.375 17.8561 22.1812 17.3123 21.7875 16.8998C21.6312 16.7248 21.4375 16.4998 21.225 16.4436C21.1187 16.4123 20.9875 16.4311 20.9 16.5248C20.8187 16.6123 20.75 16.7811 20.775 17.0373C20.8187 17.3936 20.9062 17.5123 21.0062 17.7248C21.1125 17.9436 21.2312 18.0748 21.3625 18.2436C21.6125 18.5748 21.95 18.7686 22.15 18.8998C22.55 19.1561 22.7125 19.0436 23.025 19.0248C23.425 19.0686 23.525 19.2623 23.2 19.5311C22.9 19.6936 22.625 19.7123 22.4 19.6686C22.2125 19.6311 21.9875 19.3873 21.825 19.2561C21.65 19.0498 21.35 19.2936 21.5562 19.5373C21.925 19.9748 22.2875 20.2623 22.7437 20.2561C23.225 20.3186 23.1312 20.5873 22.8187 20.7186C22.2437 20.9498 21.7312 20.5123 21.4687 20.2186C21.2687 19.9998 21.125 19.9936 21.1562 20.3373C21.3625 20.9561 21.6312 21.1936 22.0812 21.2248C22.4437 21.1873 22.45 21.4748 22.1812 21.6623C21.5812 22.0748 21.1437 21.3623 20.9375 20.9373C20.7937 20.5498 20.5687 20.7311 20.5437 21.0498C20.5437 21.4811 20.7312 21.8248 21.25 22.2623C20.8562 22.8936 20.3937 23.5373 20 24.1686L18.8 10.7936L20 8.6873C20.125 8.5748 20.55 8.0748 20.6562 7.9998C20.7 7.9623 20.7187 7.9373 20.6625 7.9123C20.6062 7.8873 20.475 7.8623 20.3812 7.8498C20.6312 7.59355 20.8562 7.5123 21.3375 7.3748C21.2187 7.3248 21.1062 7.3498 20.7562 7.3373C20.971 7.04875 21.2637 6.82757 21.6 6.6998C21.3375 6.5123 21.2875 6.4998 21.025 6.28105C21.439 6.24907 21.8479 6.16937 22.2437 6.04355C22.48 5.93124 22.7336 5.85941 22.9937 5.83105H23ZM22.95 6.35605C22.7125 6.35605 22.5687 6.4373 22.5687 6.5373C22.5687 6.6373 22.7125 6.71855 22.95 6.71855C23.1875 6.71855 23.3375 6.6248 23.3375 6.53105C23.3375 6.43105 23.1875 6.35605 22.95 6.35605Z" fill="black"/>
</g>
<defs>
<clipPath id="clip0_3730_44578">
<rect width="40" height="30" fill="white"/>
</clipPath>
<clipPath id="clip1_3730_44578">
<rect width="40" height="30" fill="white"/>
</clipPath>
</defs>
</svg>
