<svg width="93" height="62" viewBox="0 0 93 62" fill="none" xmlns="http://www.w3.org/2000/svg">
<g clip-path="url(#clip0_4604_75878)">
<path d="M92.5 0H0V61.6667H92.5V0Z" fill="white"/>
<path d="M46.25 0H0V61.6667H46.25V0Z" fill="#006233"/>
<path d="M59.6116 23.1244C57.9148 20.1853 55.2955 17.8883 52.1601 16.5895C49.0247 15.2908 45.5484 15.063 42.2703 15.9413C38.9922 16.8197 36.0955 18.7552 34.0296 21.4476C31.9636 24.14 30.8438 27.439 30.8438 30.8327C30.8438 34.2264 31.9636 37.5253 34.0296 40.2178C36.0955 42.9102 38.9922 44.8457 42.2703 45.724C45.5484 46.6024 49.0247 46.3746 52.1601 45.0758C55.2955 43.7771 57.9148 41.4801 59.6116 38.541C58.0146 40.5357 55.8375 41.9851 53.3811 42.6889C50.9246 43.3928 48.3103 43.3162 45.8992 42.47C43.4882 41.6237 41.3995 40.0494 39.9219 37.9648C38.4443 35.8801 37.6506 33.3879 37.6506 30.8327C37.6506 28.2774 38.4443 25.7853 39.9219 23.7006C41.3995 21.6159 43.4882 20.0417 45.8992 19.1954C48.3103 18.3491 50.9246 18.2726 53.3811 18.9764C55.8375 19.6803 58.0146 21.1297 59.6116 23.1244ZM60.1255 30.8327L46.2505 26.3105L54.8839 38.1299V23.5355L46.2505 35.3549L60.1255 30.8327Z" fill="#D21034"/>
</g>
<defs>
<clipPath id="clip0_4604_75878">
<rect width="92.5" height="61.6667" fill="white"/>
</clipPath>
</defs>
</svg>
