<svg width="40" height="30" viewBox="0 0 40 30" fill="none" xmlns="http://www.w3.org/2000/svg">
<g clip-path="url(#clip0_3730_44623)">
<path fill-rule="evenodd" clip-rule="evenodd" d="M0 0H40V15.225H0V0Z" fill="#FF0000"/>
<path fill-rule="evenodd" clip-rule="evenodd" d="M0 14.7754H40V30.0004H0V14.7754Z" fill="black"/>
<path fill-rule="evenodd" clip-rule="evenodd" d="M14.2938 9.26211C24.6188 11.9684 17.9813 25.2371 9.8376 19.7121L9.2876 20.5621C14.0813 23.9746 18.8251 21.2246 20.1626 17.6621C21.5501 13.9871 19.6876 8.81836 14.3751 8.28711L14.2938 9.26211Z" fill="#FFEC00"/>
<path fill-rule="evenodd" clip-rule="evenodd" d="M10.625 20.675L11.9813 21.3062L11.3438 22.6688L9.98755 22.0312L10.625 20.675ZM19.9375 14.4563H21.4375V15.9563H19.9375V14.4563ZM19.2063 12.025L20.6 11.4875L21.1438 12.8813L19.75 13.425L19.2063 12.025ZM17.5813 10.2063L18.65 9.15L19.7063 10.2125L18.6438 11.2688L17.5813 10.2063ZM15.9438 7.71875L17.3438 8.24375L16.8125 9.64375L15.4125 9.11875L15.9438 7.71875ZM19.75 16.875L21.1438 17.4312L20.5813 18.8188L19.1938 18.2625L19.75 16.875ZM15.3813 21.25L16.7563 20.6688L17.35 22.0438L15.975 22.6313L15.3813 21.25ZM12.9125 21.425H14.4125V22.925H12.9125V21.425ZM15.4938 14.175L14.225 13.2375L12.9563 14.15L13.4563 12.7125L12.1875 11.775H13.7188L14.25 10.3625L14.7375 11.7812L16.2813 11.7625L15.0563 12.7188L15.4938 14.1812V14.175Z" fill="#FFEC00"/>
<path fill-rule="evenodd" clip-rule="evenodd" d="M21 21.6504C20.925 21.6754 20.6125 22.4254 20.3938 22.7879L20.625 22.8504C21.475 23.1504 21.9001 23.4254 22.2626 23.9441C22.3464 24.0258 22.4565 24.075 22.5733 24.083C22.69 24.0911 22.8058 24.0573 22.9 23.9879C22.9 23.9879 23.075 23.9254 23.3 23.6754C23.4875 23.3941 23.4375 23.1754 23.2125 22.9816C22.525 22.4816 21.7813 22.1066 21 21.6504Z" fill="#FFEE00"/>
<path fill-rule="evenodd" clip-rule="evenodd" d="M22.8312 23.2996C22.8312 23.3717 22.8026 23.4409 22.7516 23.4919C22.7006 23.5428 22.6314 23.5715 22.5593 23.5715C22.4872 23.5715 22.4181 23.5428 22.3671 23.4919C22.3161 23.4409 22.2875 23.3717 22.2875 23.2996C22.2875 23.2283 22.3158 23.16 22.3662 23.1096C22.4166 23.0592 22.4849 23.0309 22.5562 23.0309C22.6275 23.0309 22.6958 23.0592 22.7462 23.1096C22.7966 23.16 22.825 23.2283 22.825 23.2996H22.8312ZM21.4937 22.4496C21.4937 22.5217 21.4651 22.5909 21.4141 22.6419C21.3631 22.6928 21.2939 22.7215 21.2218 22.7215C21.1497 22.7215 21.0806 22.6928 21.0296 22.6419C20.9786 22.5909 20.95 22.5217 20.95 22.4496C20.95 22.3775 20.9786 22.3084 21.0296 22.2574C21.0806 22.2064 21.1497 22.1777 21.2218 22.1777C21.2939 22.1777 21.3631 22.2064 21.4141 22.2574C21.4651 22.3084 21.4937 22.3775 21.4937 22.4496ZM22.1749 22.8871C22.1749 22.9592 22.1463 23.0284 22.0953 23.0794C22.0443 23.1303 21.9752 23.159 21.9031 23.159C21.831 23.159 21.7618 23.1303 21.7108 23.0794C21.6598 23.0284 21.6312 22.9592 21.6312 22.8871C21.6312 22.815 21.6598 22.7459 21.7108 22.6949C21.7618 22.6439 21.831 22.6152 21.9031 22.6152C21.9752 22.6152 22.0443 22.6439 22.0953 22.6949C22.1463 22.7459 22.1749 22.815 22.1749 22.8871Z" fill="black"/>
<path fill-rule="evenodd" clip-rule="evenodd" d="M20.2812 22.7316C17.6187 21.2129 14.825 19.5754 12.1562 18.0566C10.9875 17.3254 10.9312 15.9691 11.7187 14.9379C11.7937 14.7941 11.8937 14.8254 11.9312 14.9066C12.025 15.4066 12.3062 15.9254 12.6437 16.2504C15.4138 17.9929 18.1579 19.7764 20.875 21.6004C20.6625 21.9629 20.5 22.3691 20.2812 22.7254V22.7316Z" fill="#FFEE00"/>
<path fill-rule="evenodd" clip-rule="evenodd" d="M18.575 19.0938L19.6875 20.0938L18.6875 21.2062L17.575 20.2062L18.575 19.0938Z" fill="#FFEC00"/>
<path d="M20.7188 21.7998L12.9062 17.0811M19.7563 20.7123L17.125 19.0061M18.2625 21.6748L15.5813 20.1248" stroke="black" stroke-width="0.375"/>
</g>
<g clip-path="url(#clip1_3730_44623)">
<path fill-rule="evenodd" clip-rule="evenodd" d="M0 0H40V15.225H0V0Z" fill="#FF0000"/>
<path fill-rule="evenodd" clip-rule="evenodd" d="M0 14.7754H40V30.0004H0V14.7754Z" fill="black"/>
<path fill-rule="evenodd" clip-rule="evenodd" d="M14.2938 9.26211C24.6188 11.9684 17.9813 25.2371 9.8376 19.7121L9.2876 20.5621C14.0813 23.9746 18.8251 21.2246 20.1626 17.6621C21.5501 13.9871 19.6876 8.81836 14.3751 8.28711L14.2938 9.26211Z" fill="#FFEC00"/>
<path fill-rule="evenodd" clip-rule="evenodd" d="M10.625 20.675L11.9813 21.3062L11.3438 22.6688L9.98755 22.0312L10.625 20.675ZM19.9375 14.4563H21.4375V15.9563H19.9375V14.4563ZM19.2063 12.025L20.6 11.4875L21.1438 12.8813L19.75 13.425L19.2063 12.025ZM17.5813 10.2063L18.65 9.15L19.7063 10.2125L18.6438 11.2688L17.5813 10.2063ZM15.9438 7.71875L17.3438 8.24375L16.8125 9.64375L15.4125 9.11875L15.9438 7.71875ZM19.75 16.875L21.1438 17.4312L20.5813 18.8188L19.1938 18.2625L19.75 16.875ZM15.3813 21.25L16.7563 20.6688L17.35 22.0438L15.975 22.6313L15.3813 21.25ZM12.9125 21.425H14.4125V22.925H12.9125V21.425ZM15.4938 14.175L14.225 13.2375L12.9563 14.15L13.4563 12.7125L12.1875 11.775H13.7188L14.25 10.3625L14.7375 11.7812L16.2813 11.7625L15.0563 12.7188L15.4938 14.1812V14.175Z" fill="#FFEC00"/>
<path fill-rule="evenodd" clip-rule="evenodd" d="M21 21.6504C20.925 21.6754 20.6125 22.4254 20.3938 22.7879L20.625 22.8504C21.475 23.1504 21.9001 23.4254 22.2626 23.9441C22.3464 24.0258 22.4565 24.075 22.5733 24.083C22.69 24.0911 22.8058 24.0573 22.9 23.9879C22.9 23.9879 23.075 23.9254 23.3 23.6754C23.4875 23.3941 23.4375 23.1754 23.2125 22.9816C22.525 22.4816 21.7813 22.1066 21 21.6504Z" fill="#FFEE00"/>
<path fill-rule="evenodd" clip-rule="evenodd" d="M22.8312 23.2996C22.8312 23.3717 22.8026 23.4409 22.7516 23.4919C22.7006 23.5428 22.6314 23.5715 22.5593 23.5715C22.4872 23.5715 22.4181 23.5428 22.3671 23.4919C22.3161 23.4409 22.2875 23.3717 22.2875 23.2996C22.2875 23.2283 22.3158 23.16 22.3662 23.1096C22.4166 23.0592 22.4849 23.0309 22.5562 23.0309C22.6275 23.0309 22.6958 23.0592 22.7462 23.1096C22.7966 23.16 22.825 23.2283 22.825 23.2996H22.8312ZM21.4937 22.4496C21.4937 22.5217 21.4651 22.5909 21.4141 22.6419C21.3631 22.6928 21.2939 22.7215 21.2218 22.7215C21.1497 22.7215 21.0806 22.6928 21.0296 22.6419C20.9786 22.5909 20.95 22.5217 20.95 22.4496C20.95 22.3775 20.9786 22.3084 21.0296 22.2574C21.0806 22.2064 21.1497 22.1777 21.2218 22.1777C21.2939 22.1777 21.3631 22.2064 21.4141 22.2574C21.4651 22.3084 21.4937 22.3775 21.4937 22.4496ZM22.1749 22.8871C22.1749 22.9592 22.1463 23.0284 22.0953 23.0794C22.0443 23.1303 21.9752 23.159 21.9031 23.159C21.831 23.159 21.7618 23.1303 21.7108 23.0794C21.6598 23.0284 21.6312 22.9592 21.6312 22.8871C21.6312 22.815 21.6598 22.7459 21.7108 22.6949C21.7618 22.6439 21.831 22.6152 21.9031 22.6152C21.9752 22.6152 22.0443 22.6439 22.0953 22.6949C22.1463 22.7459 22.1749 22.815 22.1749 22.8871Z" fill="black"/>
<path fill-rule="evenodd" clip-rule="evenodd" d="M20.2812 22.7316C17.6187 21.2129 14.825 19.5754 12.1562 18.0566C10.9875 17.3254 10.9312 15.9691 11.7187 14.9379C11.7937 14.7941 11.8937 14.8254 11.9312 14.9066C12.025 15.4066 12.3062 15.9254 12.6437 16.2504C15.4138 17.9929 18.1579 19.7764 20.875 21.6004C20.6625 21.9629 20.5 22.3691 20.2812 22.7254V22.7316Z" fill="#FFEE00"/>
<path fill-rule="evenodd" clip-rule="evenodd" d="M18.575 19.0938L19.6875 20.0938L18.6875 21.2062L17.575 20.2062L18.575 19.0938Z" fill="#FFEC00"/>
<path d="M20.7188 21.7998L12.9062 17.0811M19.7563 20.7123L17.125 19.0061M18.2625 21.6748L15.5813 20.1248" stroke="black" stroke-width="0.375"/>
</g>
<defs>
<clipPath id="clip0_3730_44623">
<rect width="40" height="30" fill="white"/>
</clipPath>
<clipPath id="clip1_3730_44623">
<rect width="40" height="30" fill="white"/>
</clipPath>
</defs>
</svg>
