<svg width="40" height="30" viewBox="0 0 40 30" fill="none" xmlns="http://www.w3.org/2000/svg">
<g clip-path="url(#clip0_3730_44561)">
<path d="M0 0H40V30H0V0Z" fill="#012169"/>
<path d="M26.0501 11.7496C26.0501 15.0371 25.6751 18.7309 28.1126 21.2996C28.6126 21.8246 29.5751 23.0309 30.3938 22.9871C31.2501 22.9371 32.3563 21.6684 32.8438 21.0496C34.9688 18.2496 34.6376 14.9121 34.7063 11.6621C33.7501 12.0934 33.2688 12.2371 32.4313 12.2246C31.8063 12.2871 30.8501 11.8809 30.2751 11.5996C29.9001 11.8496 29.3563 12.1559 28.3751 12.1871C27.2501 12.2371 26.8876 12.0434 26.0501 11.7496Z" fill="#CCCC33"/>
<path d="M26.3062 12.1121C26.2437 13.8371 26.2937 15.7746 26.5562 17.6121C26.8625 18.5809 26.8187 19.1121 27.2625 19.6871L33.45 19.6371C33.825 19.0309 34.1062 18.1121 34.1375 17.7434C34.4875 15.8871 34.4937 13.8309 34.5062 11.9934C33.8256 12.3677 33.0482 12.5288 32.275 12.4559C31.6034 12.4155 30.9506 12.2186 30.3687 11.8809C29.775 12.2309 29.5687 12.3934 28.5937 12.4371C27.8312 12.4746 27.2187 12.5371 26.3062 12.1121Z" fill="white"/>
<path d="M31.7437 12.0752L31.8312 12.1189L31.7499 12.0752H31.7437Z" fill="#A4A43D"/>
<path d="M29.25 12.4121L29.5 12.6621V12.4121H29.25Z" fill="#FEF8F1"/>
<path d="M32.5126 12.4561L32.5938 12.4998L32.5063 12.4561H32.5126Z" fill="#E5E59D"/>
<path d="M28.3688 14.7002L28.2375 15.0752L28.3625 14.7002H28.3688Z" fill="#FACA88"/>
<path d="M31.7437 14.8691L31.8312 14.9129L31.7499 14.8691H31.7437Z" fill="#FAE3C9"/>
<path d="M26.2437 16.1816L26.2937 16.2691L26.2499 16.1816H26.2437Z" fill="#D9D868"/>
<path d="M26.1187 17.0625L26.1624 17.1562L26.1249 17.0688L26.1187 17.0625Z" fill="#A4A43D"/>
<path d="M27.2749 19.6504C27.7124 20.5754 29.2749 22.7629 30.4624 22.7254C31.6249 22.6816 32.9312 20.5379 33.4374 19.6504H27.2749Z" fill="#00CCFF"/>
<path d="M32.3001 21.0434L31.7876 21.6809L32.3063 21.0371L32.3001 21.0434Z" fill="#0DC9C1"/>
<path d="M30.5188 14.7001C30.7188 15.1626 31.3438 15.6688 31.5188 15.9188C31.3 16.1688 31.2563 16.1438 31.2813 16.6063C31.6563 16.2063 31.6688 16.1688 31.9188 16.2251C32.4563 16.7626 32.0125 17.9126 31.5688 18.1626C31.125 18.4313 31.2063 18.1563 30.5375 18.4876C30.8438 18.7501 31.2 18.4501 31.4875 18.5313C31.6438 18.7188 31.4125 19.0563 31.5313 19.3813C31.7813 19.3563 31.7563 18.8376 31.8188 18.6501C32.0063 17.9626 33.1313 17.4876 33.1875 16.8563C33.425 16.7501 33.6563 16.8251 33.9375 16.9813C33.8 16.3938 33.3313 16.4001 33.2 16.2188C32.9 15.7563 32.6313 15.2313 31.9875 15.0938C31.4875 14.9876 31.5313 15.1251 31.2188 14.9063C31.0188 14.7563 30.425 14.4688 30.5188 14.7001Z" fill="#FF9900"/>
<path fill-rule="evenodd" clip-rule="evenodd" d="M31.9313 15.2252C31.9313 15.2525 31.9205 15.2788 31.9011 15.2981C31.8818 15.3175 31.8556 15.3283 31.8282 15.3283C31.8009 15.3283 31.7746 15.3175 31.7553 15.2981C31.736 15.2788 31.7251 15.2525 31.7251 15.2252C31.7251 15.1978 31.736 15.1716 31.7553 15.1523C31.7746 15.1329 31.8009 15.1221 31.8282 15.1221C31.8556 15.1221 31.8818 15.1329 31.9011 15.1523C31.9205 15.1716 31.9313 15.1978 31.9313 15.2252Z" fill="white"/>
<path d="M28.9499 16.6566C29.2624 16.2691 29.4249 15.4691 29.5624 15.2066C29.8874 15.2816 29.8749 15.3316 30.2812 15.0941C29.7499 14.9441 29.7062 14.9566 29.6437 14.7129C29.8687 13.9816 31.0937 13.8379 31.5187 14.1129C31.9687 14.3816 31.6874 14.4379 32.2937 14.8629C32.3812 14.4754 31.9499 14.3004 31.8874 14.0129C31.9812 13.7816 32.3874 13.8254 32.6124 13.5754C32.4749 13.3566 32.0312 13.6254 31.8374 13.6629C31.1499 13.8191 30.1937 13.0504 29.6124 13.2879C29.4062 13.1316 29.3624 12.8879 29.3624 12.5566C28.9187 12.9629 29.1437 13.3691 29.0374 13.5754C28.7749 14.0566 28.4312 14.5441 28.6124 15.1754C28.7499 15.6629 28.8499 15.5629 28.8124 15.9441C28.7687 16.1879 28.7874 16.8504 28.9499 16.6566Z" fill="#FF9900"/>
<path fill-rule="evenodd" clip-rule="evenodd" d="M28.7501 15.1624C28.8063 15.1374 28.8688 15.1561 28.8938 15.2061C28.9025 15.2237 28.9058 15.2435 28.9033 15.2629C28.9008 15.2824 28.8927 15.3007 28.8799 15.3155C28.8671 15.3304 28.8502 15.3411 28.8313 15.3465C28.8125 15.3518 28.7925 15.3515 28.7738 15.3455C28.7551 15.3396 28.7386 15.3283 28.7263 15.313C28.714 15.2978 28.7064 15.2792 28.7046 15.2597C28.7027 15.2402 28.7066 15.2206 28.7158 15.2033C28.725 15.186 28.7391 15.1718 28.7563 15.1624H28.7501Z" fill="white"/>
<path d="M31.5187 16.9252C31.0187 16.8627 30.2624 17.1314 29.9562 17.1564C29.8624 16.8377 29.9062 16.8127 29.4937 16.5939C29.6374 17.1314 29.6687 17.1564 29.4937 17.3439C28.7562 17.5252 27.9937 16.5502 28.0062 16.0439C28.0062 15.5252 28.2062 15.7314 28.2562 14.9814C27.8812 15.1064 27.9562 15.5752 27.7374 15.7814C27.4874 15.8189 27.3249 15.4502 26.9874 15.3877C26.8749 15.6189 27.3312 15.8564 27.4624 16.0064C27.9562 16.5189 27.7874 17.7252 28.2937 18.1002C28.2687 18.3627 28.0812 18.5252 27.7937 18.6877C28.3749 18.8689 28.6062 18.4564 28.8374 18.4377C29.3874 18.4252 29.9812 18.4627 30.4312 17.9814C30.7687 17.6064 30.6374 17.5752 30.9812 17.4189C31.2124 17.3314 31.7687 16.9689 31.5187 16.9189V16.9252Z" fill="#FF9900"/>
<path fill-rule="evenodd" clip-rule="evenodd" d="M30.3437 17.8686C30.3322 17.8616 30.3222 17.8524 30.3142 17.8416C30.3063 17.8307 30.3006 17.8184 30.2974 17.8054C30.2942 17.7923 30.2936 17.7788 30.2956 17.7655C30.2977 17.7522 30.3023 17.7394 30.3093 17.728C30.3163 17.7165 30.3254 17.7065 30.3363 17.6985C30.3471 17.6906 30.3594 17.6848 30.3725 17.6816C30.3855 17.6784 30.3991 17.6779 30.4124 17.6799C30.4257 17.682 30.4384 17.6866 30.4499 17.6936C30.4731 17.7077 30.4898 17.7304 30.4962 17.7568C30.5027 17.7831 30.4984 17.811 30.4843 17.8342C30.4702 17.8574 30.4475 17.8741 30.4211 17.8805C30.3947 17.887 30.3669 17.8827 30.3437 17.8686Z" fill="white"/>
<path d="M0 0H20V15H0V0Z" fill="#012169"/>
<path d="M2.34375 0L9.96875 5.65625L17.5625 0H20V1.9375L12.5 7.53125L20 13.0938V15H17.5L10 9.40625L2.53125 15H0V13.125L7.46875 7.5625L0 2V0H2.34375Z" fill="white"/>
<path d="M13.25 8.78125L20 13.75V15L11.5312 8.78125H13.25ZM7.5 9.40625L7.6875 10.5L1.6875 15H0L7.5 9.40625ZM20 0V0.09375L12.2188 5.96875L12.2812 4.59375L18.4375 0H20ZM0 0L7.46875 5.5H5.59375L0 1.3125V0Z" fill="#C8102E"/>
<path d="M7.53125 0V15H12.5312V0H7.53125ZM0 5V10H20V5H0Z" fill="white"/>
<path d="M0 6.03125V9.03125H20V6.03125H0ZM8.53125 0V15H11.5312V0H8.53125Z" fill="#C8102E"/>
</g>
<defs>
<clipPath id="clip0_3730_44561">
<rect width="40" height="30" fill="white"/>
</clipPath>
</defs>
</svg>
