<svg width="40" height="30" viewBox="0 0 40 30" fill="none" xmlns="http://www.w3.org/2000/svg">
<g clip-path="url(#clip0_3730_44648)">
<path d="M0 0H40V30H0V0Z" fill="#3A7DCE"/>
<path d="M9.85635 14.4246C9.6376 13.9371 9.6376 13.9371 9.6376 13.4496C9.5251 13.4496 9.5126 13.4683 9.4501 13.4496C9.38135 13.4308 9.35635 13.8996 9.1501 13.8121C9.11885 13.7621 9.3001 13.4246 9.10635 13.2808C9.04385 13.2371 9.11885 12.9558 9.09385 12.8308C9.09385 12.8308 8.84385 12.9808 8.65635 12.4683C8.5626 12.3308 8.4376 12.5933 8.4376 12.5933C8.4376 12.5933 8.49385 12.7433 8.39385 12.7808C8.25635 12.6683 8.1501 12.7308 7.9751 12.5683C7.8001 12.4121 8.0126 12.2308 7.6751 12.0996C7.89385 11.4871 7.89385 11.6058 8.4376 11.3621C8.1126 11.1121 8.1126 11.1121 7.89385 10.7496C7.56885 10.6246 7.45635 10.4996 7.13135 10.2621C6.69385 9.64334 6.4751 8.41834 6.4751 7.56209C6.7501 7.27459 7.13135 8.54334 7.6751 8.91209L8.4376 9.28084C8.8751 9.52459 8.98135 9.76834 9.3126 10.0121L10.2876 10.3871C10.7251 10.7496 10.9438 11.2371 11.2688 11.3621C11.6251 11.3621 11.6938 11.1308 11.8063 11.1183C12.4501 11.0808 12.7751 10.9933 12.9001 10.7746C13.0313 10.5996 13.3376 10.8746 14.2126 10.5058L14.1063 10.0121C14.1063 10.0121 14.3376 9.79959 14.6501 9.88709C14.6438 9.66834 14.6188 9.07459 14.9313 8.79959C14.7438 8.58084 15.0438 8.23709 15.0563 8.13084C14.9688 7.59334 15.1438 7.58709 15.1813 7.42459C15.2188 7.26834 15.0313 7.31834 15.0813 7.09959C15.1376 6.88084 15.4563 6.83084 15.4938 6.64959C15.5376 6.46834 15.4251 5.75584 15.4126 5.59959C16.0001 5.42459 16.1876 4.88709 16.3938 5.11209C16.5001 4.37459 16.6126 4.12459 17.2688 4.12459C17.3563 3.89959 17.0251 3.70584 17.1563 3.63084C17.3751 3.59959 17.5376 3.61834 17.7938 3.98709C17.8751 4.11209 17.8938 3.81834 17.9751 3.78709C18.0563 3.75584 18.2501 3.75584 18.2813 3.61209C18.3126 3.46209 18.3563 3.26209 18.4688 3.01834C18.5563 2.81834 18.6251 3.09959 18.7063 3.48709C19.1688 3.50584 20.2063 3.61834 20.6438 3.75584C20.9688 3.84959 21.1876 3.66209 21.5001 3.61834C21.7313 3.88084 21.9501 3.68084 22.0751 4.24334C22.2438 4.54334 22.5313 4.26834 22.5938 4.35584C22.9563 5.48709 24.2063 4.72459 24.3063 4.74334C24.4626 4.74334 24.6563 5.24334 24.7876 5.23709C24.9876 5.19959 24.9313 5.04334 25.1126 5.10584C25.0626 5.53084 25.4626 6.01834 25.4626 6.33709C25.4626 6.33709 25.5563 6.39334 25.6501 6.29959C25.7376 6.19959 25.8188 5.96209 25.9001 5.96834C26.0876 5.99959 27.2751 6.34334 27.5126 6.46209C27.6188 6.68084 27.7188 6.79334 27.9376 6.75584C28.1126 6.88709 27.9876 7.06834 28.0876 7.07459C28.3063 6.94959 28.3813 6.82459 28.6001 6.94334C28.8188 7.06834 29.0376 7.31209 29.1438 7.55584C29.1438 7.68084 29.0313 8.16834 29.1438 8.90584C29.2001 9.14959 29.7501 10.9246 29.7501 11.1058C29.7501 11.3558 29.5813 11.4808 29.4688 11.7246C29.9063 12.0933 29.4688 12.7058 29.2501 13.0746C30.8876 13.4433 30.1251 14.1746 31.4313 13.8058C31.1063 14.6683 31.2188 14.5996 31.5438 15.4558C30.8938 15.9433 31.5313 16.0933 31.1001 16.7058C31.0688 16.7496 31.3563 17.2433 31.7563 17.2433C31.6501 18.2183 31.3188 17.8558 31.4313 19.3246C30.5751 19.3058 30.9188 20.4246 30.3438 20.3058C30.3751 21.0058 30.6688 21.0683 30.5563 21.7746C30.1188 21.8996 30.1188 21.8996 29.9063 22.2683L29.5813 22.1433C29.4688 22.7558 29.2501 22.8808 29.5813 23.4933C29.5813 23.4933 29.1563 23.5058 29.0313 23.4933C29.0251 23.7058 29.2188 23.7621 29.2501 23.9808C29.2376 24.0683 28.6313 24.4558 28.1626 24.4746C28.0376 24.7746 28.4876 25.0996 28.4626 25.2496C27.9501 25.3621 27.7251 26.0621 27.7251 26.0621C27.7251 26.0621 27.9876 26.1871 27.9438 26.3121C27.8063 26.1996 27.7251 26.1871 27.5063 26.1871C27.4001 26.2183 27.1313 26.1871 26.8813 26.6683C26.6001 26.7683 26.4688 26.7308 26.2563 27.0433C26.1626 26.7496 26.0251 27.0496 25.8626 27.1683C25.6938 27.2808 25.4751 27.5746 25.4438 27.5621C25.4501 27.4746 25.5438 27.1683 25.5438 27.1683L24.9376 27.3121C24.8938 27.3183 24.9063 26.9558 24.8001 26.9683C24.6938 26.9808 24.4001 27.4246 24.3001 27.4371C24.2001 27.4496 24.1688 27.2996 24.0813 27.3121C23.9938 27.3246 23.8313 27.7808 23.7688 27.7933C23.7063 27.7996 23.4563 27.5121 23.2501 27.5558C22.1813 27.9808 22.0063 26.7183 21.8438 27.4308C21.6188 27.2933 21.6563 27.3683 21.4251 27.4371C21.2813 27.4808 21.2688 27.2246 21.1376 27.2246C20.8813 27.2371 20.8876 27.5121 20.7501 27.4308C20.6376 26.8558 19.9376 26.9558 19.8751 26.7121C19.8126 26.4621 20.1751 26.4621 20.2876 26.2871C20.3751 26.0371 20.1938 25.9371 20.5563 25.6996C21.0251 25.3433 20.9813 24.4621 20.8626 24.1183C20.8626 24.1183 20.4938 23.0121 20.4251 23.0121C20.2063 22.9496 20.2063 23.4183 19.8876 23.5496C19.2313 23.7996 18.0751 22.9308 17.8751 22.9308C17.6938 22.9308 16.8438 23.1558 16.8751 22.6808C16.7501 23.1433 16.2813 22.7871 16.2501 22.7871C15.8126 22.7871 15.9813 23.1683 15.6876 23.1558C15.5563 23.1058 14.2126 23.0121 14.2126 23.0121V23.2621L12.5813 22.5246C11.9251 22.2746 12.2501 21.6683 11.1626 22.0371V21.2996H10.6188C10.8376 19.8246 10.6188 20.5621 10.5063 19.2121L10.0688 19.3371C9.63135 18.6746 10.6813 18.7996 9.74385 18.3558C9.74385 18.3558 9.7626 17.6246 9.5251 17.8683C9.48135 17.8996 9.6376 18.2308 9.6376 18.2308C8.7626 18.1058 8.5501 17.8683 8.5501 16.8871C8.5501 16.8871 9.2626 16.9996 9.2001 16.8871C9.1001 16.6996 8.96885 15.5121 8.9876 15.4246C8.98135 15.2621 9.65635 14.8621 9.5251 14.4746C9.6126 14.4371 9.85635 14.4308 9.85635 14.4308" fill="white"/>
<path d="M32.0159 17.9997C31.9836 18.0784 31.989 18.157 32.0213 18.2175C32.0804 18.1147 32.032 18.0723 32.0213 17.9997H32.0159ZM6.42464 8.96347C6.42464 8.96347 6.26335 8.93928 6.29561 9.10258C6.34937 8.98161 6.41926 8.96952 6.42464 8.96347ZM6.40851 8.57637C6.31711 8.57637 6.20421 8.56428 6.24722 8.72758C6.30099 8.60057 6.40851 8.58242 6.40851 8.57637ZM7.0913 10.7719C7.0913 10.7719 7.23109 10.7598 7.19883 10.9231C7.14507 10.8022 7.0913 10.778 7.0913 10.7719Z" stroke="white" stroke-width="0.285123" stroke-linejoin="round"/>
</g>
<g clip-path="url(#clip1_3730_44648)">
<path d="M0 0H40V30H0V0Z" fill="#3A7DCE"/>
<path d="M9.85635 14.4246C9.6376 13.9371 9.6376 13.9371 9.6376 13.4496C9.5251 13.4496 9.5126 13.4683 9.4501 13.4496C9.38135 13.4308 9.35635 13.8996 9.1501 13.8121C9.11885 13.7621 9.3001 13.4246 9.10635 13.2808C9.04385 13.2371 9.11885 12.9558 9.09385 12.8308C9.09385 12.8308 8.84385 12.9808 8.65635 12.4683C8.5626 12.3308 8.4376 12.5933 8.4376 12.5933C8.4376 12.5933 8.49385 12.7433 8.39385 12.7808C8.25635 12.6683 8.1501 12.7308 7.9751 12.5683C7.8001 12.4121 8.0126 12.2308 7.6751 12.0996C7.89385 11.4871 7.89385 11.6058 8.4376 11.3621C8.1126 11.1121 8.1126 11.1121 7.89385 10.7496C7.56885 10.6246 7.45635 10.4996 7.13135 10.2621C6.69385 9.64334 6.4751 8.41834 6.4751 7.56209C6.7501 7.27459 7.13135 8.54334 7.6751 8.91209L8.4376 9.28084C8.8751 9.52459 8.98135 9.76834 9.3126 10.0121L10.2876 10.3871C10.7251 10.7496 10.9438 11.2371 11.2688 11.3621C11.6251 11.3621 11.6938 11.1308 11.8063 11.1183C12.4501 11.0808 12.7751 10.9933 12.9001 10.7746C13.0313 10.5996 13.3376 10.8746 14.2126 10.5058L14.1063 10.0121C14.1063 10.0121 14.3376 9.79959 14.6501 9.88709C14.6438 9.66834 14.6188 9.07459 14.9313 8.79959C14.7438 8.58084 15.0438 8.23709 15.0563 8.13084C14.9688 7.59334 15.1438 7.58709 15.1813 7.42459C15.2188 7.26834 15.0313 7.31834 15.0813 7.09959C15.1376 6.88084 15.4563 6.83084 15.4938 6.64959C15.5376 6.46834 15.4251 5.75584 15.4126 5.59959C16.0001 5.42459 16.1876 4.88709 16.3938 5.11209C16.5001 4.37459 16.6126 4.12459 17.2688 4.12459C17.3563 3.89959 17.0251 3.70584 17.1563 3.63084C17.3751 3.59959 17.5376 3.61834 17.7938 3.98709C17.8751 4.11209 17.8938 3.81834 17.9751 3.78709C18.0563 3.75584 18.2501 3.75584 18.2813 3.61209C18.3126 3.46209 18.3563 3.26209 18.4688 3.01834C18.5563 2.81834 18.6251 3.09959 18.7063 3.48709C19.1688 3.50584 20.2063 3.61834 20.6438 3.75584C20.9688 3.84959 21.1876 3.66209 21.5001 3.61834C21.7313 3.88084 21.9501 3.68084 22.0751 4.24334C22.2438 4.54334 22.5313 4.26834 22.5938 4.35584C22.9563 5.48709 24.2063 4.72459 24.3063 4.74334C24.4626 4.74334 24.6563 5.24334 24.7876 5.23709C24.9876 5.19959 24.9313 5.04334 25.1126 5.10584C25.0626 5.53084 25.4626 6.01834 25.4626 6.33709C25.4626 6.33709 25.5563 6.39334 25.6501 6.29959C25.7376 6.19959 25.8188 5.96209 25.9001 5.96834C26.0876 5.99959 27.2751 6.34334 27.5126 6.46209C27.6188 6.68084 27.7188 6.79334 27.9376 6.75584C28.1126 6.88709 27.9876 7.06834 28.0876 7.07459C28.3063 6.94959 28.3813 6.82459 28.6001 6.94334C28.8188 7.06834 29.0376 7.31209 29.1438 7.55584C29.1438 7.68084 29.0313 8.16834 29.1438 8.90584C29.2001 9.14959 29.7501 10.9246 29.7501 11.1058C29.7501 11.3558 29.5813 11.4808 29.4688 11.7246C29.9063 12.0933 29.4688 12.7058 29.2501 13.0746C30.8876 13.4433 30.1251 14.1746 31.4313 13.8058C31.1063 14.6683 31.2188 14.5996 31.5438 15.4558C30.8938 15.9433 31.5313 16.0933 31.1001 16.7058C31.0688 16.7496 31.3563 17.2433 31.7563 17.2433C31.6501 18.2183 31.3188 17.8558 31.4313 19.3246C30.5751 19.3058 30.9188 20.4246 30.3438 20.3058C30.3751 21.0058 30.6688 21.0683 30.5563 21.7746C30.1188 21.8996 30.1188 21.8996 29.9063 22.2683L29.5813 22.1433C29.4688 22.7558 29.2501 22.8808 29.5813 23.4933C29.5813 23.4933 29.1563 23.5058 29.0313 23.4933C29.0251 23.7058 29.2188 23.7621 29.2501 23.9808C29.2376 24.0683 28.6313 24.4558 28.1626 24.4746C28.0376 24.7746 28.4876 25.0996 28.4626 25.2496C27.9501 25.3621 27.7251 26.0621 27.7251 26.0621C27.7251 26.0621 27.9876 26.1871 27.9438 26.3121C27.8063 26.1996 27.7251 26.1871 27.5063 26.1871C27.4001 26.2183 27.1313 26.1871 26.8813 26.6683C26.6001 26.7683 26.4688 26.7308 26.2563 27.0433C26.1626 26.7496 26.0251 27.0496 25.8626 27.1683C25.6938 27.2808 25.4751 27.5746 25.4438 27.5621C25.4501 27.4746 25.5438 27.1683 25.5438 27.1683L24.9376 27.3121C24.8938 27.3183 24.9063 26.9558 24.8001 26.9683C24.6938 26.9808 24.4001 27.4246 24.3001 27.4371C24.2001 27.4496 24.1688 27.2996 24.0813 27.3121C23.9938 27.3246 23.8313 27.7808 23.7688 27.7933C23.7063 27.7996 23.4563 27.5121 23.2501 27.5558C22.1813 27.9808 22.0063 26.7183 21.8438 27.4308C21.6188 27.2933 21.6563 27.3683 21.4251 27.4371C21.2813 27.4808 21.2688 27.2246 21.1376 27.2246C20.8813 27.2371 20.8876 27.5121 20.7501 27.4308C20.6376 26.8558 19.9376 26.9558 19.8751 26.7121C19.8126 26.4621 20.1751 26.4621 20.2876 26.2871C20.3751 26.0371 20.1938 25.9371 20.5563 25.6996C21.0251 25.3433 20.9813 24.4621 20.8626 24.1183C20.8626 24.1183 20.4938 23.0121 20.4251 23.0121C20.2063 22.9496 20.2063 23.4183 19.8876 23.5496C19.2313 23.7996 18.0751 22.9308 17.8751 22.9308C17.6938 22.9308 16.8438 23.1558 16.8751 22.6808C16.7501 23.1433 16.2813 22.7871 16.2501 22.7871C15.8126 22.7871 15.9813 23.1683 15.6876 23.1558C15.5563 23.1058 14.2126 23.0121 14.2126 23.0121V23.2621L12.5813 22.5246C11.9251 22.2746 12.2501 21.6683 11.1626 22.0371V21.2996H10.6188C10.8376 19.8246 10.6188 20.5621 10.5063 19.2121L10.0688 19.3371C9.63135 18.6746 10.6813 18.7996 9.74385 18.3558C9.74385 18.3558 9.7626 17.6246 9.5251 17.8683C9.48135 17.8996 9.6376 18.2308 9.6376 18.2308C8.7626 18.1058 8.5501 17.8683 8.5501 16.8871C8.5501 16.8871 9.2626 16.9996 9.2001 16.8871C9.1001 16.6996 8.96885 15.5121 8.9876 15.4246C8.98135 15.2621 9.65635 14.8621 9.5251 14.4746C9.6126 14.4371 9.85635 14.4308 9.85635 14.4308" fill="white"/>
<path d="M32.0159 17.9997C31.9836 18.0784 31.989 18.157 32.0213 18.2175C32.0804 18.1147 32.032 18.0723 32.0213 17.9997H32.0159ZM6.42464 8.96347C6.42464 8.96347 6.26335 8.93928 6.29561 9.10258C6.34937 8.98161 6.41926 8.96952 6.42464 8.96347ZM6.40851 8.57637C6.31711 8.57637 6.20421 8.56428 6.24722 8.72758C6.30099 8.60057 6.40851 8.58242 6.40851 8.57637ZM7.0913 10.7719C7.0913 10.7719 7.23109 10.7598 7.19883 10.9231C7.14507 10.8022 7.0913 10.778 7.0913 10.7719Z" stroke="white" stroke-width="0.285123" stroke-linejoin="round"/>
</g>
<defs>
<clipPath id="clip0_3730_44648">
<rect width="40" height="30" fill="white"/>
</clipPath>
<clipPath id="clip1_3730_44648">
<rect width="40" height="30" fill="white"/>
</clipPath>
</defs>
</svg>
