<svg width="40" height="30" viewBox="0 0 40 30" fill="none" xmlns="http://www.w3.org/2000/svg">
<g clip-path="url(#clip0_3730_45073)">
<path d="M0 0H40V30H0V0Z" fill="#74ACDF"/>
<path d="M0 10H40V20H0V10Z" fill="white"/>
<path d="M19.8081 15.0779L21.5181 18.7979C21.5181 18.7979 21.5481 18.8699 21.5961 18.8519C21.6441 18.8279 21.6141 18.7619 21.6141 18.7619L20.1921 14.9219M20.1501 16.3679C20.1261 16.9319 20.4741 17.2439 20.4321 17.7479C20.3841 18.2579 20.6601 18.5399 20.7321 18.7379C20.7921 18.9359 20.6541 19.0499 20.7141 19.0799C20.7741 19.1099 20.8941 18.9539 20.8581 18.6719C20.8161 18.3959 20.6061 18.3119 20.6541 17.6939C20.7021 17.0759 20.4021 16.9319 20.4741 16.3739" fill="#F6B40E"/>
<path d="M19.8081 15.0779L21.5181 18.7979C21.5181 18.7979 21.5481 18.8699 21.5961 18.8519C21.6441 18.8279 21.6141 18.7619 21.6141 18.7619L20.1921 14.9219M20.1501 16.3679C20.1261 16.9319 20.4741 17.2439 20.4321 17.7479C20.3841 18.2579 20.6601 18.5399 20.7321 18.7379C20.7921 18.9359 20.6541 19.0499 20.7141 19.0799C20.7741 19.1099 20.8941 18.9539 20.8581 18.6719C20.8161 18.3959 20.6061 18.3119 20.6541 17.6939C20.7021 17.0759 20.4021 16.9319 20.4741 16.3739" stroke="#85340A" stroke-width="0.132"/>
<path d="M19.7928 14.9986L19.9491 19.0898C19.9491 19.0898 19.9493 19.1678 20.0005 19.1696C20.054 19.1658 20.0516 19.0933 20.0516 19.0933L20.2073 15.0014M19.6151 16.3213C19.3771 16.8332 19.5793 17.2546 19.3476 17.7042C19.1081 18.157 19.2551 18.5231 19.2459 18.7336C19.2255 18.9395 19.0544 18.992 19.0984 19.0427C19.1423 19.0934 19.3129 18.9952 19.3875 18.7209C19.4544 18.4498 19.2925 18.2918 19.5733 17.7392C19.8542 17.1866 19.6321 16.9388 19.9122 16.4508" fill="#F6B40E"/>
<path d="M19.7928 14.9986L19.9491 19.0898C19.9491 19.0898 19.9493 19.1678 20.0005 19.1696C20.054 19.1658 20.0516 19.0933 20.0516 19.0933L20.2073 15.0014M19.6151 16.3213C19.3771 16.8332 19.5793 17.2546 19.3476 17.7042C19.1081 18.157 19.2551 18.5231 19.2459 18.7336C19.2255 18.9395 19.0544 18.992 19.0984 19.0427C19.1423 19.0934 19.3129 18.9952 19.3875 18.7209C19.4544 18.4498 19.2925 18.2918 19.5733 17.7392C19.8542 17.1866 19.6321 16.9388 19.9122 16.4508" stroke="#85340A" stroke-width="0.132"/>
<path d="M19.8091 14.9199L18.3878 18.7595C18.3878 18.7595 18.3581 18.8316 18.4048 18.8528C18.4557 18.8698 18.4812 18.8019 18.4812 18.8019L20.191 15.0811M19.1388 16.0739C18.723 16.4557 18.7485 16.9224 18.3624 17.2491C17.9678 17.5758 17.9636 17.9703 17.8745 18.1613C17.7769 18.3437 17.5987 18.3267 17.6199 18.3904C17.6411 18.454 17.8363 18.4285 18.0102 18.2037C18.1757 17.9788 18.0866 17.7709 18.5575 17.3679C19.0285 16.9648 18.9182 16.6509 19.3636 16.3072" fill="#F6B40E"/>
<path d="M19.8091 14.9199L18.3878 18.7595C18.3878 18.7595 18.3581 18.8316 18.4048 18.8528C18.4557 18.8698 18.4812 18.8019 18.4812 18.8019L20.191 15.0811M19.1388 16.0739C18.723 16.4557 18.7485 16.9224 18.3624 17.2491C17.9678 17.5758 17.9636 17.9703 17.8745 18.1613C17.7769 18.3437 17.5987 18.3267 17.6199 18.3904C17.6411 18.454 17.8363 18.4285 18.0102 18.2037C18.1757 17.9788 18.0866 17.7709 18.5575 17.3679C19.0285 16.9648 18.9182 16.6509 19.3636 16.3072" stroke="#85340A" stroke-width="0.132"/>
<path d="M19.8547 14.8527L17.0722 17.8561C17.0722 17.8561 17.0172 17.9114 17.0522 17.9488C17.0927 17.984 17.1422 17.931 17.1422 17.931L20.1457 15.1477M18.7937 15.6623C18.2635 15.856 18.1084 16.2969 17.6267 16.4509C17.1371 16.6018 16.9822 16.9647 16.8269 17.107C16.6669 17.2382 16.5088 17.1543 16.504 17.2212C16.4992 17.2881 16.6893 17.3393 16.936 17.1981C17.175 17.0537 17.1722 16.8275 17.7615 16.6354C18.3509 16.4432 18.3691 16.1109 18.9122 15.9639" fill="#F6B40E"/>
<path d="M19.8547 14.8527L17.0722 17.8561C17.0722 17.8561 17.0172 17.9114 17.0522 17.9488C17.0927 17.984 17.1422 17.931 17.1422 17.931L20.1457 15.1477M18.7937 15.6623C18.2635 15.856 18.1084 16.2969 17.6267 16.4509C17.1371 16.6018 16.9822 16.9647 16.8269 17.107C16.6669 17.2382 16.5088 17.1543 16.504 17.2212C16.4992 17.2881 16.6893 17.3393 16.936 17.1981C17.175 17.0537 17.1722 16.8275 17.7615 16.6354C18.3509 16.4432 18.3691 16.1109 18.9122 15.9639" stroke="#85340A" stroke-width="0.132"/>
<path d="M20.2581 16.4639C20.2881 17.0039 20.5941 17.2439 20.5341 17.7419C20.6661 17.3519 20.3481 17.0459 20.3661 16.4699M19.9041 15.0419L21.0741 17.5979L20.0961 14.9639" fill="#85340A"/>
<path d="M19.6783 16.452C19.4994 16.9623 19.6903 17.3012 19.4442 17.7383C19.7154 17.4285 19.5387 17.0241 19.7758 16.4988M19.8954 15.0027L19.9982 17.8119L20.1027 15.0041" fill="#85340A"/>
<path d="M19.1474 16.2182C18.7868 16.6213 18.8335 17.0073 18.4389 17.317C18.808 17.1346 18.7995 16.6934 19.2195 16.2988M19.9026 14.9624L18.9226 17.5971L20.0935 15.043" fill="#85340A"/>
<path d="M18.7462 15.7985C18.2588 16.0329 18.1542 16.4075 17.6711 16.5426C18.082 16.5153 18.243 16.1044 18.782 15.9006M19.9245 14.9273L18.0108 16.9864L20.0701 15.0748" fill="#85340A"/>
<path d="M19.9221 14.8076L16.2021 16.5176C16.2021 16.5176 16.1301 16.5476 16.1481 16.5956C16.1721 16.6436 16.2381 16.6136 16.2381 16.6136L20.0781 15.1916M18.6321 15.1496C18.0681 15.1256 17.7561 15.4736 17.2521 15.4316C16.7421 15.3836 16.4601 15.6596 16.2621 15.7316C16.0641 15.7916 15.9501 15.6536 15.9201 15.7136C15.8901 15.7736 16.0461 15.8936 16.3281 15.8576C16.6041 15.8156 16.6881 15.6056 17.3061 15.6536C17.9241 15.7016 18.0681 15.4016 18.6261 15.4736" fill="#F6B40E"/>
<path d="M19.9221 14.8076L16.2021 16.5176C16.2021 16.5176 16.1301 16.5476 16.1481 16.5956C16.1721 16.6436 16.2381 16.6136 16.2381 16.6136L20.0781 15.1916M18.6321 15.1496C18.0681 15.1256 17.7561 15.4736 17.2521 15.4316C16.7421 15.3836 16.4601 15.6596 16.2621 15.7316C16.0641 15.7916 15.9501 15.6536 15.9201 15.7136C15.8901 15.7736 16.0461 15.8936 16.3281 15.8576C16.6041 15.8156 16.6881 15.6056 17.3061 15.6536C17.9241 15.7016 18.0681 15.4016 18.6261 15.4736" stroke="#85340A" stroke-width="0.132"/>
<path d="M20.0014 14.7928L15.9102 14.9491C15.9102 14.9491 15.8322 14.9493 15.8304 15.0005C15.8342 15.054 15.9067 15.0516 15.9067 15.0516L19.9986 15.2073M18.6787 14.6151C18.1668 14.3771 17.7454 14.5793 17.2958 14.3476C16.843 14.1081 16.4769 14.2551 16.2664 14.2459C16.0605 14.2255 16.008 14.0544 15.9573 14.0984C15.9066 14.1423 16.0048 14.3129 16.2791 14.3875C16.5502 14.4544 16.7082 14.2925 17.2608 14.5733C17.8134 14.8542 18.0612 14.6321 18.5492 14.9122" fill="#F6B40E"/>
<path d="M20.0014 14.7928L15.9102 14.9491C15.9102 14.9491 15.8322 14.9493 15.8304 15.0005C15.8342 15.054 15.9067 15.0516 15.9067 15.0516L19.9986 15.2073M18.6787 14.6151C18.1668 14.3771 17.7454 14.5793 17.2958 14.3476C16.843 14.1081 16.4769 14.2551 16.2664 14.2459C16.0605 14.2255 16.008 14.0544 15.9573 14.0984C15.9066 14.1423 16.0048 14.3129 16.2791 14.3875C16.5502 14.4544 16.7082 14.2925 17.2608 14.5733C17.8134 14.8542 18.0612 14.6321 18.5492 14.9122" stroke="#85340A" stroke-width="0.132"/>
<path d="M20.0806 14.8086L16.241 13.3874C16.241 13.3874 16.1689 13.3577 16.1477 13.4043C16.1307 13.4552 16.1986 13.4807 16.1986 13.4807L19.9194 15.1905M18.9266 14.1383C18.5448 13.7225 18.0781 13.748 17.7514 13.3619C17.4247 12.9673 17.0302 12.9631 16.8392 12.874C16.6568 12.7764 16.6738 12.5982 16.6101 12.6194C16.5465 12.6406 16.5719 12.8358 16.7968 13.0098C17.0217 13.1752 17.2296 13.0861 17.6326 13.5571C18.0357 14.028 18.3496 13.9177 18.6933 14.3632" fill="#F6B40E"/>
<path d="M20.0806 14.8086L16.241 13.3874C16.241 13.3874 16.1689 13.3577 16.1477 13.4043C16.1307 13.4552 16.1986 13.4807 16.1986 13.4807L19.9194 15.1905M18.9266 14.1383C18.5448 13.7225 18.0781 13.748 17.7514 13.3619C17.4247 12.9673 17.0302 12.9631 16.8392 12.874C16.6568 12.7764 16.6738 12.5982 16.6101 12.6194C16.5465 12.6406 16.5719 12.8358 16.7968 13.0098C17.0217 13.1752 17.2296 13.0861 17.6326 13.5571C18.0357 14.028 18.3496 13.9177 18.6933 14.3632" stroke="#85340A" stroke-width="0.132"/>
<path d="M20.1476 14.8539L17.1442 12.0715C17.1442 12.0715 17.0889 12.0164 17.0514 12.0514C17.0163 12.092 17.0692 12.1415 17.0692 12.1415L19.8525 15.145M19.3379 13.793C19.1443 13.2627 18.7034 13.1077 18.5493 12.626C18.3985 12.1364 18.0356 11.9815 17.8933 11.8261C17.7621 11.6662 17.846 11.508 17.779 11.5033C17.7121 11.4985 17.661 11.6886 17.8021 11.9353C17.9466 12.1742 18.1727 12.1715 18.3649 12.7608C18.557 13.3501 18.8893 13.3684 19.0363 13.9114" fill="#F6B40E"/>
<path d="M20.1476 14.8539L17.1442 12.0715C17.1442 12.0715 17.0889 12.0164 17.0514 12.0514C17.0163 12.092 17.0692 12.1415 17.0692 12.1415L19.8525 15.145M19.3379 13.793C19.1443 13.2627 18.7034 13.1077 18.5493 12.626C18.3985 12.1364 18.0356 11.9815 17.8933 11.8261C17.7621 11.6662 17.846 11.508 17.779 11.5033C17.7121 11.4985 17.661 11.6886 17.8021 11.9353C17.9466 12.1742 18.1727 12.1715 18.3649 12.7608C18.557 13.3501 18.8893 13.3684 19.0363 13.9114" stroke="#85340A" stroke-width="0.132"/>
<path d="M18.5361 15.2573C17.9961 15.2873 17.7561 15.5933 17.2581 15.5333C17.6481 15.6653 17.9541 15.3473 18.5301 15.3653M19.9581 14.9033L17.4021 16.0733L20.0361 15.0953" fill="#85340A"/>
<path d="M18.5488 14.6778C18.0384 14.4989 17.6996 14.6898 17.2624 14.4438C17.5722 14.715 17.9766 14.5383 18.5019 14.7753M19.998 14.895L17.1888 14.9978L19.9966 15.1022" fill="#85340A"/>
<path d="M18.7823 14.1467C18.3792 13.7861 17.9932 13.8327 17.6834 13.4382C17.8659 13.8073 18.3071 13.7988 18.7017 14.2188M20.0381 14.9019L17.4034 13.9218L19.9575 15.0928" fill="#85340A"/>
<path d="M19.2015 13.7457C18.9671 13.2583 18.5925 13.1537 18.4574 12.6706C18.4847 13.0815 18.8956 13.2425 19.0994 13.7815M20.0727 14.924L18.0136 13.0103L19.9252 15.0696" fill="#85340A"/>
<path d="M20.1919 14.9221L18.4819 11.2021C18.4819 11.2021 18.4519 11.1301 18.4039 11.1481C18.3559 11.1721 18.3859 11.2381 18.3859 11.2381L19.8079 15.0781M19.8499 13.6321C19.8739 13.0681 19.5259 12.7561 19.5679 12.2521C19.6159 11.7421 19.3399 11.4601 19.2679 11.2621C19.2079 11.0641 19.3459 10.9501 19.2859 10.9201C19.2259 10.8901 19.1059 11.0461 19.1419 11.3281C19.1839 11.6041 19.3939 11.6881 19.3459 12.3061C19.2979 12.9241 19.5979 13.0681 19.5259 13.6261" fill="#F6B40E"/>
<path d="M20.1919 14.9221L18.4819 11.2021C18.4819 11.2021 18.4519 11.1301 18.4039 11.1481C18.3559 11.1721 18.3859 11.2381 18.3859 11.2381L19.8079 15.0781M19.8499 13.6321C19.8739 13.0681 19.5259 12.7561 19.5679 12.2521C19.6159 11.7421 19.3399 11.4601 19.2679 11.2621C19.2079 11.0641 19.3459 10.9501 19.2859 10.9201C19.2259 10.8901 19.1059 11.0461 19.1419 11.3281C19.1839 11.6041 19.3939 11.6881 19.3459 12.3061C19.2979 12.9241 19.5979 13.0681 19.5259 13.6261" stroke="#85340A" stroke-width="0.132"/>
<path d="M20.2072 15.0014L20.0509 10.9102C20.0509 10.9102 20.0507 10.8322 19.9995 10.8304C19.946 10.8342 19.9484 10.9067 19.9484 10.9067L19.7927 14.9986M20.3849 13.6787C20.6229 13.1668 20.4207 12.7454 20.6524 12.2958C20.8919 11.843 20.7449 11.4769 20.7541 11.2664C20.7745 11.0605 20.9456 11.008 20.9016 10.9573C20.8577 10.9066 20.6871 11.0048 20.6125 11.2791C20.5456 11.5502 20.7075 11.7082 20.4267 12.2608C20.1458 12.8134 20.3679 13.0612 20.0878 13.5492" fill="#F6B40E"/>
<path d="M20.2072 15.0014L20.0509 10.9102C20.0509 10.9102 20.0507 10.8322 19.9995 10.8304C19.946 10.8342 19.9484 10.9067 19.9484 10.9067L19.7927 14.9986M20.3849 13.6787C20.6229 13.1668 20.4207 12.7454 20.6524 12.2958C20.8919 11.843 20.7449 11.4769 20.7541 11.2664C20.7745 11.0605 20.9456 11.008 20.9016 10.9573C20.8577 10.9066 20.6871 11.0048 20.6125 11.2791C20.5456 11.5502 20.7075 11.7082 20.4267 12.2608C20.1458 12.8134 20.3679 13.0612 20.0878 13.5492" stroke="#85340A" stroke-width="0.132"/>
<path d="M20.1909 15.0801L21.6122 11.2405C21.6122 11.2405 21.6419 11.1684 21.5952 11.1472C21.5443 11.1302 21.5188 11.1981 21.5188 11.1981L19.809 14.9189M20.8612 13.9261C21.277 13.5443 21.2515 13.0776 21.6376 12.7509C22.0322 12.4242 22.0364 12.0297 22.1255 11.8387C22.2231 11.6563 22.4013 11.6733 22.3801 11.6096C22.3589 11.546 22.1637 11.5715 21.9898 11.7963C21.8243 12.0212 21.9134 12.2291 21.4425 12.6321C20.9715 13.0352 21.0818 13.3491 20.6364 13.6928" fill="#F6B40E"/>
<path d="M20.1909 15.0801L21.6122 11.2405C21.6122 11.2405 21.6419 11.1684 21.5952 11.1472C21.5443 11.1302 21.5188 11.1981 21.5188 11.1981L19.809 14.9189M20.8612 13.9261C21.277 13.5443 21.2515 13.0776 21.6376 12.7509C22.0322 12.4242 22.0364 12.0297 22.1255 11.8387C22.2231 11.6563 22.4013 11.6733 22.3801 11.6096C22.3589 11.546 22.1637 11.5715 21.9898 11.7963C21.8243 12.0212 21.9134 12.2291 21.4425 12.6321C20.9715 13.0352 21.0818 13.3491 20.6364 13.6928" stroke="#85340A" stroke-width="0.132"/>
<path d="M20.1453 15.1473L22.9278 12.1439C22.9278 12.1439 22.9828 12.0886 22.9478 12.0512C22.9073 12.016 22.8578 12.069 22.8578 12.069L19.8543 14.8523M21.2063 14.3377C21.7365 14.144 21.8916 13.7031 22.3733 13.5491C22.8629 13.3982 23.0178 13.0353 23.1731 12.893C23.3331 12.7618 23.4912 12.8457 23.496 12.7788C23.5008 12.7119 23.3107 12.6607 23.064 12.8019C22.825 12.9463 22.8278 13.1725 22.2385 13.3646C21.6491 13.5568 21.6309 13.8891 21.0878 14.0361" fill="#F6B40E"/>
<path d="M20.1453 15.1473L22.9278 12.1439C22.9278 12.1439 22.9828 12.0886 22.9478 12.0512C22.9073 12.016 22.8578 12.069 22.8578 12.069L19.8543 14.8523M21.2063 14.3377C21.7365 14.144 21.8916 13.7031 22.3733 13.5491C22.8629 13.3982 23.0178 13.0353 23.1731 12.893C23.3331 12.7618 23.4912 12.8457 23.496 12.7788C23.5008 12.7119 23.3107 12.6607 23.064 12.8019C22.825 12.9463 22.8278 13.1725 22.2385 13.3646C21.6491 13.5568 21.6309 13.8891 21.0878 14.0361" stroke="#85340A" stroke-width="0.132"/>
<path d="M19.7419 13.5361C19.7119 12.9961 19.4059 12.7561 19.4659 12.2581C19.3339 12.6481 19.6519 12.9541 19.6339 13.5301M20.0959 14.9581L18.9259 12.4021L19.9039 15.0361" fill="#85340A"/>
<path d="M20.3217 13.548C20.5006 13.0377 20.3097 12.6988 20.5558 12.2617C20.2846 12.5715 20.4613 12.9759 20.2242 13.5012M20.1046 14.9973L20.0018 12.1881L19.8973 14.9959" fill="#85340A"/>
<path d="M20.8526 13.7818C21.2132 13.3787 21.1665 12.9927 21.5611 12.683C21.192 12.8654 21.2005 13.3066 20.7805 13.7012M20.0974 15.0376L21.0774 12.4029L19.9065 14.957" fill="#85340A"/>
<path d="M21.2538 14.2015C21.7412 13.9671 21.8458 13.5925 22.3289 13.4574C21.918 13.4847 21.757 13.8956 21.218 14.0994M20.0755 15.0727L21.9892 13.0136L19.9299 14.9252" fill="#85340A"/>
<path d="M20.0779 15.1924L23.7979 13.4824C23.7979 13.4824 23.8699 13.4524 23.8519 13.4044C23.8279 13.3564 23.7619 13.3864 23.7619 13.3864L19.9219 14.8084M21.3679 14.8504C21.9319 14.8744 22.2439 14.5264 22.7479 14.5684C23.2579 14.6164 23.5399 14.3404 23.7379 14.2684C23.9359 14.2084 24.0499 14.3464 24.0799 14.2864C24.1099 14.2264 23.9539 14.1064 23.6719 14.1424C23.3959 14.1844 23.3119 14.3944 22.6939 14.3464C22.0759 14.2984 21.9319 14.5984 21.3739 14.5264" fill="#F6B40E"/>
<path d="M20.0779 15.1924L23.7979 13.4824C23.7979 13.4824 23.8699 13.4524 23.8519 13.4044C23.8279 13.3564 23.7619 13.3864 23.7619 13.3864L19.9219 14.8084M21.3679 14.8504C21.9319 14.8744 22.2439 14.5264 22.7479 14.5684C23.2579 14.6164 23.5399 14.3404 23.7379 14.2684C23.9359 14.2084 24.0499 14.3464 24.0799 14.2864C24.1099 14.2264 23.9539 14.1064 23.6719 14.1424C23.3959 14.1844 23.3119 14.3944 22.6939 14.3464C22.0759 14.2984 21.9319 14.5984 21.3739 14.5264" stroke="#85340A" stroke-width="0.132"/>
<path d="M19.9986 15.2072L24.0898 15.0509C24.0898 15.0509 24.1678 15.0507 24.1696 14.9995C24.1658 14.946 24.0933 14.9484 24.0933 14.9484L20.0014 14.7927M21.3213 15.3849C21.8332 15.6229 22.2546 15.4207 22.7042 15.6524C23.157 15.8919 23.5231 15.7449 23.7336 15.7541C23.9395 15.7745 23.992 15.9456 24.0427 15.9016C24.0934 15.8577 23.9952 15.6871 23.7209 15.6125C23.4498 15.5456 23.2918 15.7075 22.7392 15.4267C22.1866 15.1458 21.9388 15.3679 21.4508 15.0878" fill="#F6B40E"/>
<path d="M19.9986 15.2072L24.0898 15.0509C24.0898 15.0509 24.1678 15.0507 24.1696 14.9995C24.1658 14.946 24.0933 14.9484 24.0933 14.9484L20.0014 14.7927M21.3213 15.3849C21.8332 15.6229 22.2546 15.4207 22.7042 15.6524C23.157 15.8919 23.5231 15.7449 23.7336 15.7541C23.9395 15.7745 23.992 15.9456 24.0427 15.9016C24.0934 15.8577 23.9952 15.6871 23.7209 15.6125C23.4498 15.5456 23.2918 15.7075 22.7392 15.4267C22.1866 15.1458 21.9388 15.3679 21.4508 15.0878" stroke="#85340A" stroke-width="0.132"/>
<path d="M19.9194 15.1914L23.759 16.6126C23.759 16.6126 23.8311 16.6423 23.8523 16.5957C23.8693 16.5448 23.8014 16.5193 23.8014 16.5193L20.0806 14.8095M21.0734 15.8617C21.4552 16.2775 21.9219 16.252 22.2486 16.6381C22.5753 17.0327 22.9698 17.0369 23.1608 17.126C23.3432 17.2236 23.3262 17.4018 23.3899 17.3806C23.4535 17.3594 23.4281 17.1642 23.2032 16.9902C22.9783 16.8248 22.7704 16.9139 22.3674 16.4429C21.9643 15.972 21.6504 16.0823 21.3067 15.6368" fill="#F6B40E"/>
<path d="M19.9194 15.1914L23.759 16.6126C23.759 16.6126 23.8311 16.6423 23.8523 16.5957C23.8693 16.5448 23.8014 16.5193 23.8014 16.5193L20.0806 14.8095M21.0734 15.8617C21.4552 16.2775 21.9219 16.252 22.2486 16.6381C22.5753 17.0327 22.9698 17.0369 23.1608 17.126C23.3432 17.2236 23.3262 17.4018 23.3899 17.3806C23.4535 17.3594 23.4281 17.1642 23.2032 16.9902C22.9783 16.8248 22.7704 16.9139 22.3674 16.4429C21.9643 15.972 21.6504 16.0823 21.3067 15.6368" stroke="#85340A" stroke-width="0.132"/>
<path d="M19.8524 15.1461L22.8558 17.9285C22.8558 17.9285 22.9111 17.9836 22.9486 17.9486C22.9837 17.908 22.9308 17.8585 22.9308 17.8585L20.1475 14.855M20.6621 16.207C20.8557 16.7373 21.2966 16.8923 21.4507 17.374C21.6015 17.8636 21.9644 18.0185 22.1067 18.1739C22.2379 18.3338 22.154 18.492 22.221 18.4967C22.2879 18.5015 22.339 18.3114 22.1979 18.0647C22.0534 17.8258 21.8273 17.8285 21.6351 17.2392C21.443 16.6499 21.1107 16.6316 20.9637 16.0886" fill="#F6B40E"/>
<path d="M19.8524 15.1461L22.8558 17.9285C22.8558 17.9285 22.9111 17.9836 22.9486 17.9486C22.9837 17.908 22.9308 17.8585 22.9308 17.8585L20.1475 14.855M20.6621 16.207C20.8557 16.7373 21.2966 16.8923 21.4507 17.374C21.6015 17.8636 21.9644 18.0185 22.1067 18.1739C22.2379 18.3338 22.154 18.492 22.221 18.4967C22.2879 18.5015 22.339 18.3114 22.1979 18.0647C22.0534 17.8258 21.8273 17.8285 21.6351 17.2392C21.443 16.6499 21.1107 16.6316 20.9637 16.0886" stroke="#85340A" stroke-width="0.132"/>
<path d="M21.4639 14.7427C22.0039 14.7127 22.2439 14.4067 22.7419 14.4667C22.3519 14.3347 22.0459 14.6527 21.4699 14.6347M20.0419 15.0967L22.5979 13.9267L19.9639 14.9047" fill="#85340A"/>
<path d="M21.4512 15.3222C21.9616 15.5011 22.3004 15.3102 22.7376 15.5562C22.4278 15.285 22.0234 15.4617 21.4981 15.2247M20.002 15.105L22.8112 15.0022L20.0034 14.8978" fill="#85340A"/>
<path d="M21.2177 15.8533C21.6208 16.2139 22.0068 16.1673 22.3166 16.5618C22.1341 16.1927 21.6929 16.2012 21.2983 15.7812M19.9619 15.0981L22.5966 16.0782L20.0425 14.9072" fill="#85340A"/>
<path d="M20.7985 16.2543C21.0329 16.7417 21.4075 16.8463 21.5426 17.3294C21.5153 16.9185 21.1044 16.7575 20.9006 16.2185M19.9273 15.076L21.9864 16.9897L20.0748 14.9304" fill="#85340A"/>
<path d="M20 16.6686C20.9217 16.6686 21.6688 15.9214 21.6688 14.9998C21.6688 14.0782 20.9217 13.3311 20 13.3311C19.0784 13.3311 18.3313 14.0782 18.3313 14.9998C18.3313 15.9214 19.0784 16.6686 20 16.6686Z" fill="#F6B40E" stroke="#85340A" stroke-width="0.175"/>
<path d="M20.5688 14.6436C20.4563 14.6436 20.3438 14.6936 20.2812 14.7936C20.4062 14.9123 20.6938 14.9186 20.8875 14.7811C20.8466 14.7376 20.7972 14.703 20.7423 14.6793C20.6875 14.6557 20.6285 14.6435 20.5688 14.6436ZM20.5688 14.6686C20.675 14.6686 20.7813 14.7186 20.7938 14.7686C20.6688 14.9123 20.4625 14.8936 20.3312 14.7936C20.3564 14.7537 20.3916 14.7212 20.4333 14.6993C20.475 14.6773 20.5217 14.6667 20.5688 14.6686Z" fill="#843511"/>
<path d="M20.5875 14.5625C20.4187 14.5625 20.3812 14.6062 20.3062 14.6687C20.2312 14.7312 20.1875 14.7187 20.1812 14.7312C20.1625 14.7437 20.1812 14.7813 20.2 14.7688C20.2312 14.7563 20.2812 14.7312 20.3562 14.6687C20.4312 14.6062 20.5125 14.6062 20.5875 14.6062C20.8187 14.6062 20.9437 14.7938 20.975 14.7812C20.9937 14.7687 20.8437 14.5625 20.5875 14.5625Z" fill="#85340A"/>
<path d="M21.05 14.6436C20.7563 14.3873 20.3813 14.3436 20.175 14.5373C20.1266 14.6016 20.0945 14.6767 20.0813 14.7561C20.0563 14.8998 20.1 15.0561 20.2125 15.2186L20.1625 15.2436C20.0644 15.0644 20.0292 14.8576 20.0625 14.6561C20.0707 14.6071 20.0833 14.559 20.1 14.5123C20.3813 14.2811 20.7688 14.2623 21.05 14.6373V14.6436Z" fill="#85340A"/>
<path d="M20.5626 14.8879C20.6282 14.8879 20.6813 14.8347 20.6813 14.7691C20.6813 14.7036 20.6282 14.6504 20.5626 14.6504C20.497 14.6504 20.4438 14.7036 20.4438 14.7691C20.4438 14.8347 20.497 14.8879 20.5626 14.8879Z" fill="#85340A"/>
<path d="M20.8938 14.8434C20.675 15.0121 20.4563 14.9996 20.3313 14.9246C20.2063 14.8434 20.2063 14.8184 20.2313 14.8184C20.2563 14.8184 20.2813 14.8434 20.3813 14.8996C20.4875 14.9496 20.6375 14.9496 20.8938 14.8434Z" fill="#85340A"/>
<path d="M19.75 15.2309C19.7299 15.2329 19.7107 15.24 19.6941 15.2515C19.6776 15.263 19.6642 15.2785 19.6553 15.2966C19.6464 15.3146 19.6423 15.3347 19.6432 15.3548C19.6442 15.375 19.6503 15.3945 19.661 15.4116C19.6716 15.4288 19.6864 15.4429 19.704 15.4527C19.7216 15.4625 19.7414 15.4677 19.7616 15.4678C19.7817 15.4678 19.8016 15.4627 19.8192 15.453C19.8369 15.4433 19.8517 15.4292 19.8624 15.4121C19.9037 15.4377 19.9514 15.4507 20 15.4496H20.0125C20.0631 15.4524 20.1134 15.4393 20.1562 15.4121C20.1677 15.428 20.183 15.4407 20.2007 15.4492C20.2184 15.4577 20.2379 15.4617 20.2575 15.4608C20.2771 15.46 20.2961 15.4543 20.313 15.4442C20.3298 15.4342 20.3439 15.4201 20.354 15.4033C20.3641 15.3865 20.3699 15.3674 20.3708 15.3478C20.3717 15.3283 20.3678 15.3087 20.3594 15.291C20.3509 15.2733 20.3382 15.258 20.3224 15.2464C20.3066 15.2348 20.2881 15.2273 20.2687 15.2246C20.2999 15.2434 20.3187 15.2684 20.3187 15.3059C20.3187 15.3434 20.2875 15.3809 20.2437 15.3809C20.2238 15.3809 20.2047 15.373 20.1907 15.3589C20.1766 15.3448 20.1687 15.3257 20.1687 15.3059C20.1539 15.3367 20.1309 15.3629 20.1023 15.3817C20.0736 15.4004 20.0404 15.4109 20.0062 15.4121C19.9731 15.4098 19.9412 15.3988 19.9137 15.3801C19.8863 15.3614 19.8643 15.3358 19.85 15.3059C19.85 15.3163 19.8479 15.3265 19.8437 15.3361C19.8396 15.3456 19.8335 15.3542 19.8258 15.3612C19.8182 15.3683 19.8092 15.3737 19.7993 15.377C19.7895 15.3804 19.7791 15.3817 19.7687 15.3809C19.7312 15.3809 19.6937 15.3434 19.6937 15.3059C19.6937 15.2684 19.7125 15.2434 19.7437 15.2309H19.75ZM19.875 15.5746C19.7437 15.5746 19.6875 15.6871 19.575 15.7621C19.6375 15.7371 19.6937 15.6871 19.7812 15.6371C19.8687 15.5871 19.95 15.6496 20 15.6496C20.05 15.6496 20.125 15.5871 20.2187 15.6371C20.3062 15.6871 20.3624 15.7371 20.4249 15.7621C20.3062 15.6871 20.2562 15.5746 20.125 15.5746C20.0813 15.579 20.0388 15.5917 20 15.6121C19.9615 15.5896 19.9191 15.5747 19.875 15.5684V15.5746Z" fill="#85340A"/>
<path d="M19.8251 15.7245C19.7751 15.7245 19.7125 15.737 19.6125 15.762C19.8438 15.712 19.8938 15.7933 20 15.7933C20.1 15.7933 20.15 15.712 20.3813 15.762C20.1313 15.687 20.075 15.737 20 15.737C19.95 15.737 19.9126 15.7183 19.8251 15.7245Z" fill="#85340A"/>
<path d="M19.625 15.7623H19.575C19.8437 15.7935 19.7187 15.9498 20 15.9498C20.2812 15.9498 20.1562 15.7935 20.4249 15.7623C20.1437 15.7373 20.2312 15.906 20 15.906C19.7812 15.906 19.85 15.7623 19.625 15.7623ZM20.2312 16.181C20.2312 16.1197 20.2068 16.0609 20.1635 16.0175C20.1201 15.9742 20.0613 15.9498 20 15.9498C19.9386 15.9498 19.8798 15.9742 19.8364 16.0175C19.7931 16.0609 19.7687 16.1197 19.7687 16.181C19.7809 16.1289 19.8104 16.0824 19.8524 16.0491C19.8944 16.0158 19.9464 15.9977 20 15.9977C20.0535 15.9977 20.1055 16.0158 20.1475 16.0491C20.1895 16.0824 20.219 16.1289 20.2312 16.181Z" fill="#85340A"/>
<path d="M18.9624 14.6436C19.2562 14.3873 19.6312 14.3436 19.8374 14.5373C19.8858 14.6016 19.918 14.6767 19.9312 14.7561C19.9562 14.8998 19.9124 15.0561 19.7999 15.2186L19.8499 15.2436C19.948 15.0644 19.9833 14.8576 19.9499 14.6561C19.9417 14.6071 19.9292 14.559 19.9124 14.5123C19.6312 14.2811 19.2437 14.2623 18.9624 14.6373V14.6436Z" fill="#85340A"/>
<path d="M19.425 14.5625C19.5937 14.5625 19.6312 14.6062 19.7062 14.6687C19.7812 14.7312 19.825 14.7187 19.8312 14.7312C19.85 14.7437 19.8312 14.7813 19.8125 14.7688C19.7812 14.7563 19.7312 14.7312 19.6562 14.6687C19.5812 14.6062 19.5 14.6062 19.425 14.6062C19.1937 14.6062 19.0687 14.7938 19.0375 14.7812C19.0187 14.7687 19.1687 14.5625 19.425 14.5625Z" fill="#85340A"/>
<path d="M19.4188 14.6436C19.3063 14.6436 19.1938 14.6936 19.1313 14.7936C19.2563 14.9123 19.5438 14.9186 19.7376 14.7811C19.6967 14.7376 19.6473 14.703 19.5924 14.6793C19.5376 14.6557 19.4785 14.6435 19.4188 14.6436ZM19.4188 14.6686C19.5251 14.6686 19.6313 14.7186 19.6438 14.7686C19.5188 14.9123 19.3126 14.8936 19.1813 14.7936C19.2065 14.7537 19.2417 14.7212 19.2834 14.6993C19.3251 14.6773 19.3718 14.6667 19.4188 14.6686Z" fill="#843511"/>
<path d="M19.4312 14.8879C19.4968 14.8879 19.55 14.8347 19.55 14.7691C19.55 14.7036 19.4968 14.6504 19.4312 14.6504C19.3657 14.6504 19.3125 14.7036 19.3125 14.7691C19.3125 14.8347 19.3657 14.8879 19.4312 14.8879Z" fill="#85340A"/>
<path d="M19.1187 14.8434C19.3374 15.0121 19.5562 14.9996 19.6812 14.9246C19.8062 14.8434 19.8062 14.8184 19.7812 14.8184C19.7562 14.8184 19.7312 14.8434 19.6312 14.8996C19.5249 14.9496 19.3749 14.9496 19.1187 14.8434Z" fill="#85340A"/>
</g>
<g clip-path="url(#clip1_3730_45073)">
<path d="M0 0H40V30H0V0Z" fill="#74ACDF"/>
<path d="M0 10H40V20H0V10Z" fill="white"/>
<path d="M19.8081 15.0779L21.5181 18.7979C21.5181 18.7979 21.5481 18.8699 21.5961 18.8519C21.6441 18.8279 21.6141 18.7619 21.6141 18.7619L20.1921 14.9219M20.1501 16.3679C20.1261 16.9319 20.4741 17.2439 20.4321 17.7479C20.3841 18.2579 20.6601 18.5399 20.7321 18.7379C20.7921 18.9359 20.6541 19.0499 20.7141 19.0799C20.7741 19.1099 20.8941 18.9539 20.8581 18.6719C20.8161 18.3959 20.6061 18.3119 20.6541 17.6939C20.7021 17.0759 20.4021 16.9319 20.4741 16.3739" fill="#F6B40E"/>
<path d="M19.8081 15.0779L21.5181 18.7979C21.5181 18.7979 21.5481 18.8699 21.5961 18.8519C21.6441 18.8279 21.6141 18.7619 21.6141 18.7619L20.1921 14.9219M20.1501 16.3679C20.1261 16.9319 20.4741 17.2439 20.4321 17.7479C20.3841 18.2579 20.6601 18.5399 20.7321 18.7379C20.7921 18.9359 20.6541 19.0499 20.7141 19.0799C20.7741 19.1099 20.8941 18.9539 20.8581 18.6719C20.8161 18.3959 20.6061 18.3119 20.6541 17.6939C20.7021 17.0759 20.4021 16.9319 20.4741 16.3739" stroke="#85340A" stroke-width="0.132"/>
<path d="M19.7928 14.9986L19.9491 19.0898C19.9491 19.0898 19.9493 19.1678 20.0005 19.1696C20.054 19.1658 20.0516 19.0933 20.0516 19.0933L20.2073 15.0014M19.6151 16.3213C19.3771 16.8332 19.5793 17.2546 19.3476 17.7042C19.1081 18.157 19.2551 18.5231 19.2459 18.7336C19.2255 18.9395 19.0544 18.992 19.0984 19.0427C19.1423 19.0934 19.3129 18.9952 19.3875 18.7209C19.4544 18.4498 19.2925 18.2918 19.5733 17.7392C19.8542 17.1866 19.6321 16.9388 19.9122 16.4508" fill="#F6B40E"/>
<path d="M19.7928 14.9986L19.9491 19.0898C19.9491 19.0898 19.9493 19.1678 20.0005 19.1696C20.054 19.1658 20.0516 19.0933 20.0516 19.0933L20.2073 15.0014M19.6151 16.3213C19.3771 16.8332 19.5793 17.2546 19.3476 17.7042C19.1081 18.157 19.2551 18.5231 19.2459 18.7336C19.2255 18.9395 19.0544 18.992 19.0984 19.0427C19.1423 19.0934 19.3129 18.9952 19.3875 18.7209C19.4544 18.4498 19.2925 18.2918 19.5733 17.7392C19.8542 17.1866 19.6321 16.9388 19.9122 16.4508" stroke="#85340A" stroke-width="0.132"/>
<path d="M19.8091 14.9199L18.3878 18.7595C18.3878 18.7595 18.3581 18.8316 18.4048 18.8528C18.4557 18.8698 18.4812 18.8019 18.4812 18.8019L20.191 15.0811M19.1388 16.0739C18.723 16.4557 18.7485 16.9224 18.3624 17.2491C17.9678 17.5758 17.9636 17.9703 17.8745 18.1613C17.7769 18.3437 17.5987 18.3267 17.6199 18.3904C17.6411 18.454 17.8363 18.4285 18.0102 18.2037C18.1757 17.9788 18.0866 17.7709 18.5575 17.3679C19.0285 16.9648 18.9182 16.6509 19.3636 16.3072" fill="#F6B40E"/>
<path d="M19.8091 14.9199L18.3878 18.7595C18.3878 18.7595 18.3581 18.8316 18.4048 18.8528C18.4557 18.8698 18.4812 18.8019 18.4812 18.8019L20.191 15.0811M19.1388 16.0739C18.723 16.4557 18.7485 16.9224 18.3624 17.2491C17.9678 17.5758 17.9636 17.9703 17.8745 18.1613C17.7769 18.3437 17.5987 18.3267 17.6199 18.3904C17.6411 18.454 17.8363 18.4285 18.0102 18.2037C18.1757 17.9788 18.0866 17.7709 18.5575 17.3679C19.0285 16.9648 18.9182 16.6509 19.3636 16.3072" stroke="#85340A" stroke-width="0.132"/>
<path d="M19.8547 14.8527L17.0722 17.8561C17.0722 17.8561 17.0172 17.9114 17.0522 17.9488C17.0927 17.984 17.1422 17.931 17.1422 17.931L20.1457 15.1477M18.7937 15.6623C18.2635 15.856 18.1084 16.2969 17.6267 16.4509C17.1371 16.6018 16.9822 16.9647 16.8269 17.107C16.6669 17.2382 16.5088 17.1543 16.504 17.2212C16.4992 17.2881 16.6893 17.3393 16.936 17.1981C17.175 17.0537 17.1722 16.8275 17.7615 16.6354C18.3509 16.4432 18.3691 16.1109 18.9122 15.9639" fill="#F6B40E"/>
<path d="M19.8547 14.8527L17.0722 17.8561C17.0722 17.8561 17.0172 17.9114 17.0522 17.9488C17.0927 17.984 17.1422 17.931 17.1422 17.931L20.1457 15.1477M18.7937 15.6623C18.2635 15.856 18.1084 16.2969 17.6267 16.4509C17.1371 16.6018 16.9822 16.9647 16.8269 17.107C16.6669 17.2382 16.5088 17.1543 16.504 17.2212C16.4992 17.2881 16.6893 17.3393 16.936 17.1981C17.175 17.0537 17.1722 16.8275 17.7615 16.6354C18.3509 16.4432 18.3691 16.1109 18.9122 15.9639" stroke="#85340A" stroke-width="0.132"/>
<path d="M20.2581 16.4639C20.2881 17.0039 20.5941 17.2439 20.5341 17.7419C20.6661 17.3519 20.3481 17.0459 20.3661 16.4699M19.9041 15.0419L21.0741 17.5979L20.0961 14.9639" fill="#85340A"/>
<path d="M19.6783 16.452C19.4994 16.9623 19.6903 17.3012 19.4442 17.7383C19.7154 17.4285 19.5387 17.0241 19.7758 16.4988M19.8954 15.0027L19.9982 17.8119L20.1027 15.0041" fill="#85340A"/>
<path d="M19.1474 16.2182C18.7868 16.6213 18.8335 17.0073 18.4389 17.317C18.808 17.1346 18.7995 16.6934 19.2195 16.2988M19.9026 14.9624L18.9226 17.5971L20.0935 15.043" fill="#85340A"/>
<path d="M18.7462 15.7985C18.2588 16.0329 18.1542 16.4075 17.6711 16.5426C18.082 16.5153 18.243 16.1044 18.782 15.9006M19.9245 14.9273L18.0108 16.9864L20.0701 15.0748" fill="#85340A"/>
<path d="M19.9221 14.8076L16.2021 16.5176C16.2021 16.5176 16.1301 16.5476 16.1481 16.5956C16.1721 16.6436 16.2381 16.6136 16.2381 16.6136L20.0781 15.1916M18.6321 15.1496C18.0681 15.1256 17.7561 15.4736 17.2521 15.4316C16.7421 15.3836 16.4601 15.6596 16.2621 15.7316C16.0641 15.7916 15.9501 15.6536 15.9201 15.7136C15.8901 15.7736 16.0461 15.8936 16.3281 15.8576C16.6041 15.8156 16.6881 15.6056 17.3061 15.6536C17.9241 15.7016 18.0681 15.4016 18.6261 15.4736" fill="#F6B40E"/>
<path d="M19.9221 14.8076L16.2021 16.5176C16.2021 16.5176 16.1301 16.5476 16.1481 16.5956C16.1721 16.6436 16.2381 16.6136 16.2381 16.6136L20.0781 15.1916M18.6321 15.1496C18.0681 15.1256 17.7561 15.4736 17.2521 15.4316C16.7421 15.3836 16.4601 15.6596 16.2621 15.7316C16.0641 15.7916 15.9501 15.6536 15.9201 15.7136C15.8901 15.7736 16.0461 15.8936 16.3281 15.8576C16.6041 15.8156 16.6881 15.6056 17.3061 15.6536C17.9241 15.7016 18.0681 15.4016 18.6261 15.4736" stroke="#85340A" stroke-width="0.132"/>
<path d="M20.0014 14.7928L15.9102 14.9491C15.9102 14.9491 15.8322 14.9493 15.8304 15.0005C15.8342 15.054 15.9067 15.0516 15.9067 15.0516L19.9986 15.2073M18.6787 14.6151C18.1668 14.3771 17.7454 14.5793 17.2958 14.3476C16.843 14.1081 16.4769 14.2551 16.2664 14.2459C16.0605 14.2255 16.008 14.0544 15.9573 14.0984C15.9066 14.1423 16.0048 14.3129 16.2791 14.3875C16.5502 14.4544 16.7082 14.2925 17.2608 14.5733C17.8134 14.8542 18.0612 14.6321 18.5492 14.9122" fill="#F6B40E"/>
<path d="M20.0014 14.7928L15.9102 14.9491C15.9102 14.9491 15.8322 14.9493 15.8304 15.0005C15.8342 15.054 15.9067 15.0516 15.9067 15.0516L19.9986 15.2073M18.6787 14.6151C18.1668 14.3771 17.7454 14.5793 17.2958 14.3476C16.843 14.1081 16.4769 14.2551 16.2664 14.2459C16.0605 14.2255 16.008 14.0544 15.9573 14.0984C15.9066 14.1423 16.0048 14.3129 16.2791 14.3875C16.5502 14.4544 16.7082 14.2925 17.2608 14.5733C17.8134 14.8542 18.0612 14.6321 18.5492 14.9122" stroke="#85340A" stroke-width="0.132"/>
<path d="M20.0806 14.8086L16.241 13.3874C16.241 13.3874 16.1689 13.3577 16.1477 13.4043C16.1307 13.4552 16.1986 13.4807 16.1986 13.4807L19.9194 15.1905M18.9266 14.1383C18.5448 13.7225 18.0781 13.748 17.7514 13.3619C17.4247 12.9673 17.0302 12.9631 16.8392 12.874C16.6568 12.7764 16.6738 12.5982 16.6101 12.6194C16.5465 12.6406 16.5719 12.8358 16.7968 13.0098C17.0217 13.1752 17.2296 13.0861 17.6326 13.5571C18.0357 14.028 18.3496 13.9177 18.6933 14.3632" fill="#F6B40E"/>
<path d="M20.0806 14.8086L16.241 13.3874C16.241 13.3874 16.1689 13.3577 16.1477 13.4043C16.1307 13.4552 16.1986 13.4807 16.1986 13.4807L19.9194 15.1905M18.9266 14.1383C18.5448 13.7225 18.0781 13.748 17.7514 13.3619C17.4247 12.9673 17.0302 12.9631 16.8392 12.874C16.6568 12.7764 16.6738 12.5982 16.6101 12.6194C16.5465 12.6406 16.5719 12.8358 16.7968 13.0098C17.0217 13.1752 17.2296 13.0861 17.6326 13.5571C18.0357 14.028 18.3496 13.9177 18.6933 14.3632" stroke="#85340A" stroke-width="0.132"/>
<path d="M20.1476 14.8539L17.1442 12.0715C17.1442 12.0715 17.0889 12.0164 17.0514 12.0514C17.0163 12.092 17.0692 12.1415 17.0692 12.1415L19.8525 15.145M19.3379 13.793C19.1443 13.2627 18.7034 13.1077 18.5493 12.626C18.3985 12.1364 18.0356 11.9815 17.8933 11.8261C17.7621 11.6662 17.846 11.508 17.779 11.5033C17.7121 11.4985 17.661 11.6886 17.8021 11.9353C17.9466 12.1742 18.1727 12.1715 18.3649 12.7608C18.557 13.3501 18.8893 13.3684 19.0363 13.9114" fill="#F6B40E"/>
<path d="M20.1476 14.8539L17.1442 12.0715C17.1442 12.0715 17.0889 12.0164 17.0514 12.0514C17.0163 12.092 17.0692 12.1415 17.0692 12.1415L19.8525 15.145M19.3379 13.793C19.1443 13.2627 18.7034 13.1077 18.5493 12.626C18.3985 12.1364 18.0356 11.9815 17.8933 11.8261C17.7621 11.6662 17.846 11.508 17.779 11.5033C17.7121 11.4985 17.661 11.6886 17.8021 11.9353C17.9466 12.1742 18.1727 12.1715 18.3649 12.7608C18.557 13.3501 18.8893 13.3684 19.0363 13.9114" stroke="#85340A" stroke-width="0.132"/>
<path d="M18.5361 15.2573C17.9961 15.2873 17.7561 15.5933 17.2581 15.5333C17.6481 15.6653 17.9541 15.3473 18.5301 15.3653M19.9581 14.9033L17.4021 16.0733L20.0361 15.0953" fill="#85340A"/>
<path d="M18.5488 14.6778C18.0384 14.4989 17.6996 14.6898 17.2624 14.4438C17.5722 14.715 17.9766 14.5383 18.5019 14.7753M19.998 14.895L17.1888 14.9978L19.9966 15.1022" fill="#85340A"/>
<path d="M18.7823 14.1467C18.3792 13.7861 17.9932 13.8327 17.6834 13.4382C17.8659 13.8073 18.3071 13.7988 18.7017 14.2188M20.0381 14.9019L17.4034 13.9218L19.9575 15.0928" fill="#85340A"/>
<path d="M19.2015 13.7457C18.9671 13.2583 18.5925 13.1537 18.4574 12.6706C18.4847 13.0815 18.8956 13.2425 19.0994 13.7815M20.0727 14.924L18.0136 13.0103L19.9252 15.0696" fill="#85340A"/>
<path d="M20.1919 14.9221L18.4819 11.2021C18.4819 11.2021 18.4519 11.1301 18.4039 11.1481C18.3559 11.1721 18.3859 11.2381 18.3859 11.2381L19.8079 15.0781M19.8499 13.6321C19.8739 13.0681 19.5259 12.7561 19.5679 12.2521C19.6159 11.7421 19.3399 11.4601 19.2679 11.2621C19.2079 11.0641 19.3459 10.9501 19.2859 10.9201C19.2259 10.8901 19.1059 11.0461 19.1419 11.3281C19.1839 11.6041 19.3939 11.6881 19.3459 12.3061C19.2979 12.9241 19.5979 13.0681 19.5259 13.6261" fill="#F6B40E"/>
<path d="M20.1919 14.9221L18.4819 11.2021C18.4819 11.2021 18.4519 11.1301 18.4039 11.1481C18.3559 11.1721 18.3859 11.2381 18.3859 11.2381L19.8079 15.0781M19.8499 13.6321C19.8739 13.0681 19.5259 12.7561 19.5679 12.2521C19.6159 11.7421 19.3399 11.4601 19.2679 11.2621C19.2079 11.0641 19.3459 10.9501 19.2859 10.9201C19.2259 10.8901 19.1059 11.0461 19.1419 11.3281C19.1839 11.6041 19.3939 11.6881 19.3459 12.3061C19.2979 12.9241 19.5979 13.0681 19.5259 13.6261" stroke="#85340A" stroke-width="0.132"/>
<path d="M20.2072 15.0014L20.0509 10.9102C20.0509 10.9102 20.0507 10.8322 19.9995 10.8304C19.946 10.8342 19.9484 10.9067 19.9484 10.9067L19.7927 14.9986M20.3849 13.6787C20.6229 13.1668 20.4207 12.7454 20.6524 12.2958C20.8919 11.843 20.7449 11.4769 20.7541 11.2664C20.7745 11.0605 20.9456 11.008 20.9016 10.9573C20.8577 10.9066 20.6871 11.0048 20.6125 11.2791C20.5456 11.5502 20.7075 11.7082 20.4267 12.2608C20.1458 12.8134 20.3679 13.0612 20.0878 13.5492" fill="#F6B40E"/>
<path d="M20.2072 15.0014L20.0509 10.9102C20.0509 10.9102 20.0507 10.8322 19.9995 10.8304C19.946 10.8342 19.9484 10.9067 19.9484 10.9067L19.7927 14.9986M20.3849 13.6787C20.6229 13.1668 20.4207 12.7454 20.6524 12.2958C20.8919 11.843 20.7449 11.4769 20.7541 11.2664C20.7745 11.0605 20.9456 11.008 20.9016 10.9573C20.8577 10.9066 20.6871 11.0048 20.6125 11.2791C20.5456 11.5502 20.7075 11.7082 20.4267 12.2608C20.1458 12.8134 20.3679 13.0612 20.0878 13.5492" stroke="#85340A" stroke-width="0.132"/>
<path d="M20.1909 15.0801L21.6122 11.2405C21.6122 11.2405 21.6419 11.1684 21.5952 11.1472C21.5443 11.1302 21.5188 11.1981 21.5188 11.1981L19.809 14.9189M20.8612 13.9261C21.277 13.5443 21.2515 13.0776 21.6376 12.7509C22.0322 12.4242 22.0364 12.0297 22.1255 11.8387C22.2231 11.6563 22.4013 11.6733 22.3801 11.6096C22.3589 11.546 22.1637 11.5715 21.9898 11.7963C21.8243 12.0212 21.9134 12.2291 21.4425 12.6321C20.9715 13.0352 21.0818 13.3491 20.6364 13.6928" fill="#F6B40E"/>
<path d="M20.1909 15.0801L21.6122 11.2405C21.6122 11.2405 21.6419 11.1684 21.5952 11.1472C21.5443 11.1302 21.5188 11.1981 21.5188 11.1981L19.809 14.9189M20.8612 13.9261C21.277 13.5443 21.2515 13.0776 21.6376 12.7509C22.0322 12.4242 22.0364 12.0297 22.1255 11.8387C22.2231 11.6563 22.4013 11.6733 22.3801 11.6096C22.3589 11.546 22.1637 11.5715 21.9898 11.7963C21.8243 12.0212 21.9134 12.2291 21.4425 12.6321C20.9715 13.0352 21.0818 13.3491 20.6364 13.6928" stroke="#85340A" stroke-width="0.132"/>
<path d="M20.1453 15.1473L22.9278 12.1439C22.9278 12.1439 22.9828 12.0886 22.9478 12.0512C22.9073 12.016 22.8578 12.069 22.8578 12.069L19.8543 14.8523M21.2063 14.3377C21.7365 14.144 21.8916 13.7031 22.3733 13.5491C22.8629 13.3982 23.0178 13.0353 23.1731 12.893C23.3331 12.7618 23.4912 12.8457 23.496 12.7788C23.5008 12.7119 23.3107 12.6607 23.064 12.8019C22.825 12.9463 22.8278 13.1725 22.2385 13.3646C21.6491 13.5568 21.6309 13.8891 21.0878 14.0361" fill="#F6B40E"/>
<path d="M20.1453 15.1473L22.9278 12.1439C22.9278 12.1439 22.9828 12.0886 22.9478 12.0512C22.9073 12.016 22.8578 12.069 22.8578 12.069L19.8543 14.8523M21.2063 14.3377C21.7365 14.144 21.8916 13.7031 22.3733 13.5491C22.8629 13.3982 23.0178 13.0353 23.1731 12.893C23.3331 12.7618 23.4912 12.8457 23.496 12.7788C23.5008 12.7119 23.3107 12.6607 23.064 12.8019C22.825 12.9463 22.8278 13.1725 22.2385 13.3646C21.6491 13.5568 21.6309 13.8891 21.0878 14.0361" stroke="#85340A" stroke-width="0.132"/>
<path d="M19.7419 13.5361C19.7119 12.9961 19.4059 12.7561 19.4659 12.2581C19.3339 12.6481 19.6519 12.9541 19.6339 13.5301M20.0959 14.9581L18.9259 12.4021L19.9039 15.0361" fill="#85340A"/>
<path d="M20.3217 13.548C20.5006 13.0377 20.3097 12.6988 20.5558 12.2617C20.2846 12.5715 20.4613 12.9759 20.2242 13.5012M20.1046 14.9973L20.0018 12.1881L19.8973 14.9959" fill="#85340A"/>
<path d="M20.8526 13.7818C21.2132 13.3787 21.1665 12.9927 21.5611 12.683C21.192 12.8654 21.2005 13.3066 20.7805 13.7012M20.0974 15.0376L21.0774 12.4029L19.9065 14.957" fill="#85340A"/>
<path d="M21.2538 14.2015C21.7412 13.9671 21.8458 13.5925 22.3289 13.4574C21.918 13.4847 21.757 13.8956 21.218 14.0994M20.0755 15.0727L21.9892 13.0136L19.9299 14.9252" fill="#85340A"/>
<path d="M20.0779 15.1924L23.7979 13.4824C23.7979 13.4824 23.8699 13.4524 23.8519 13.4044C23.8279 13.3564 23.7619 13.3864 23.7619 13.3864L19.9219 14.8084M21.3679 14.8504C21.9319 14.8744 22.2439 14.5264 22.7479 14.5684C23.2579 14.6164 23.5399 14.3404 23.7379 14.2684C23.9359 14.2084 24.0499 14.3464 24.0799 14.2864C24.1099 14.2264 23.9539 14.1064 23.6719 14.1424C23.3959 14.1844 23.3119 14.3944 22.6939 14.3464C22.0759 14.2984 21.9319 14.5984 21.3739 14.5264" fill="#F6B40E"/>
<path d="M20.0779 15.1924L23.7979 13.4824C23.7979 13.4824 23.8699 13.4524 23.8519 13.4044C23.8279 13.3564 23.7619 13.3864 23.7619 13.3864L19.9219 14.8084M21.3679 14.8504C21.9319 14.8744 22.2439 14.5264 22.7479 14.5684C23.2579 14.6164 23.5399 14.3404 23.7379 14.2684C23.9359 14.2084 24.0499 14.3464 24.0799 14.2864C24.1099 14.2264 23.9539 14.1064 23.6719 14.1424C23.3959 14.1844 23.3119 14.3944 22.6939 14.3464C22.0759 14.2984 21.9319 14.5984 21.3739 14.5264" stroke="#85340A" stroke-width="0.132"/>
<path d="M19.9986 15.2072L24.0898 15.0509C24.0898 15.0509 24.1678 15.0507 24.1696 14.9995C24.1658 14.946 24.0933 14.9484 24.0933 14.9484L20.0014 14.7927M21.3213 15.3849C21.8332 15.6229 22.2546 15.4207 22.7042 15.6524C23.157 15.8919 23.5231 15.7449 23.7336 15.7541C23.9395 15.7745 23.992 15.9456 24.0427 15.9016C24.0934 15.8577 23.9952 15.6871 23.7209 15.6125C23.4498 15.5456 23.2918 15.7075 22.7392 15.4267C22.1866 15.1458 21.9388 15.3679 21.4508 15.0878" fill="#F6B40E"/>
<path d="M19.9986 15.2072L24.0898 15.0509C24.0898 15.0509 24.1678 15.0507 24.1696 14.9995C24.1658 14.946 24.0933 14.9484 24.0933 14.9484L20.0014 14.7927M21.3213 15.3849C21.8332 15.6229 22.2546 15.4207 22.7042 15.6524C23.157 15.8919 23.5231 15.7449 23.7336 15.7541C23.9395 15.7745 23.992 15.9456 24.0427 15.9016C24.0934 15.8577 23.9952 15.6871 23.7209 15.6125C23.4498 15.5456 23.2918 15.7075 22.7392 15.4267C22.1866 15.1458 21.9388 15.3679 21.4508 15.0878" stroke="#85340A" stroke-width="0.132"/>
<path d="M19.9194 15.1914L23.759 16.6126C23.759 16.6126 23.8311 16.6423 23.8523 16.5957C23.8693 16.5448 23.8014 16.5193 23.8014 16.5193L20.0806 14.8095M21.0734 15.8617C21.4552 16.2775 21.9219 16.252 22.2486 16.6381C22.5753 17.0327 22.9698 17.0369 23.1608 17.126C23.3432 17.2236 23.3262 17.4018 23.3899 17.3806C23.4535 17.3594 23.4281 17.1642 23.2032 16.9902C22.9783 16.8248 22.7704 16.9139 22.3674 16.4429C21.9643 15.972 21.6504 16.0823 21.3067 15.6368" fill="#F6B40E"/>
<path d="M19.9194 15.1914L23.759 16.6126C23.759 16.6126 23.8311 16.6423 23.8523 16.5957C23.8693 16.5448 23.8014 16.5193 23.8014 16.5193L20.0806 14.8095M21.0734 15.8617C21.4552 16.2775 21.9219 16.252 22.2486 16.6381C22.5753 17.0327 22.9698 17.0369 23.1608 17.126C23.3432 17.2236 23.3262 17.4018 23.3899 17.3806C23.4535 17.3594 23.4281 17.1642 23.2032 16.9902C22.9783 16.8248 22.7704 16.9139 22.3674 16.4429C21.9643 15.972 21.6504 16.0823 21.3067 15.6368" stroke="#85340A" stroke-width="0.132"/>
<path d="M19.8524 15.1461L22.8558 17.9285C22.8558 17.9285 22.9111 17.9836 22.9486 17.9486C22.9837 17.908 22.9308 17.8585 22.9308 17.8585L20.1475 14.855M20.6621 16.207C20.8557 16.7373 21.2966 16.8923 21.4507 17.374C21.6015 17.8636 21.9644 18.0185 22.1067 18.1739C22.2379 18.3338 22.154 18.492 22.221 18.4967C22.2879 18.5015 22.339 18.3114 22.1979 18.0647C22.0534 17.8258 21.8273 17.8285 21.6351 17.2392C21.443 16.6499 21.1107 16.6316 20.9637 16.0886" fill="#F6B40E"/>
<path d="M19.8524 15.1461L22.8558 17.9285C22.8558 17.9285 22.9111 17.9836 22.9486 17.9486C22.9837 17.908 22.9308 17.8585 22.9308 17.8585L20.1475 14.855M20.6621 16.207C20.8557 16.7373 21.2966 16.8923 21.4507 17.374C21.6015 17.8636 21.9644 18.0185 22.1067 18.1739C22.2379 18.3338 22.154 18.492 22.221 18.4967C22.2879 18.5015 22.339 18.3114 22.1979 18.0647C22.0534 17.8258 21.8273 17.8285 21.6351 17.2392C21.443 16.6499 21.1107 16.6316 20.9637 16.0886" stroke="#85340A" stroke-width="0.132"/>
<path d="M21.4639 14.7427C22.0039 14.7127 22.2439 14.4067 22.7419 14.4667C22.3519 14.3347 22.0459 14.6527 21.4699 14.6347M20.0419 15.0967L22.5979 13.9267L19.9639 14.9047" fill="#85340A"/>
<path d="M21.4512 15.3222C21.9616 15.5011 22.3004 15.3102 22.7376 15.5562C22.4278 15.285 22.0234 15.4617 21.4981 15.2247M20.002 15.105L22.8112 15.0022L20.0034 14.8978" fill="#85340A"/>
<path d="M21.2177 15.8533C21.6208 16.2139 22.0068 16.1673 22.3166 16.5618C22.1341 16.1927 21.6929 16.2012 21.2983 15.7812M19.9619 15.0981L22.5966 16.0782L20.0425 14.9072" fill="#85340A"/>
<path d="M20.7985 16.2543C21.0329 16.7417 21.4075 16.8463 21.5426 17.3294C21.5153 16.9185 21.1044 16.7575 20.9006 16.2185M19.9273 15.076L21.9864 16.9897L20.0748 14.9304" fill="#85340A"/>
<path d="M20 16.6686C20.9217 16.6686 21.6688 15.9214 21.6688 14.9998C21.6688 14.0782 20.9217 13.3311 20 13.3311C19.0784 13.3311 18.3313 14.0782 18.3313 14.9998C18.3313 15.9214 19.0784 16.6686 20 16.6686Z" fill="#F6B40E" stroke="#85340A" stroke-width="0.175"/>
<path d="M20.5688 14.6436C20.4563 14.6436 20.3438 14.6936 20.2812 14.7936C20.4062 14.9123 20.6938 14.9186 20.8875 14.7811C20.8466 14.7376 20.7972 14.703 20.7423 14.6793C20.6875 14.6557 20.6285 14.6435 20.5688 14.6436ZM20.5688 14.6686C20.675 14.6686 20.7813 14.7186 20.7938 14.7686C20.6688 14.9123 20.4625 14.8936 20.3312 14.7936C20.3564 14.7537 20.3916 14.7212 20.4333 14.6993C20.475 14.6773 20.5217 14.6667 20.5688 14.6686Z" fill="#843511"/>
<path d="M20.5875 14.5625C20.4187 14.5625 20.3812 14.6062 20.3062 14.6687C20.2312 14.7312 20.1875 14.7187 20.1812 14.7312C20.1625 14.7437 20.1812 14.7813 20.2 14.7688C20.2312 14.7563 20.2812 14.7312 20.3562 14.6687C20.4312 14.6062 20.5125 14.6062 20.5875 14.6062C20.8187 14.6062 20.9437 14.7938 20.975 14.7812C20.9937 14.7687 20.8437 14.5625 20.5875 14.5625Z" fill="#85340A"/>
<path d="M21.05 14.6436C20.7563 14.3873 20.3813 14.3436 20.175 14.5373C20.1266 14.6016 20.0945 14.6767 20.0813 14.7561C20.0563 14.8998 20.1 15.0561 20.2125 15.2186L20.1625 15.2436C20.0644 15.0644 20.0292 14.8576 20.0625 14.6561C20.0707 14.6071 20.0833 14.559 20.1 14.5123C20.3813 14.2811 20.7688 14.2623 21.05 14.6373V14.6436Z" fill="#85340A"/>
<path d="M20.5626 14.8879C20.6282 14.8879 20.6813 14.8347 20.6813 14.7691C20.6813 14.7036 20.6282 14.6504 20.5626 14.6504C20.497 14.6504 20.4438 14.7036 20.4438 14.7691C20.4438 14.8347 20.497 14.8879 20.5626 14.8879Z" fill="#85340A"/>
<path d="M20.8938 14.8434C20.675 15.0121 20.4563 14.9996 20.3313 14.9246C20.2063 14.8434 20.2063 14.8184 20.2313 14.8184C20.2563 14.8184 20.2813 14.8434 20.3813 14.8996C20.4875 14.9496 20.6375 14.9496 20.8938 14.8434Z" fill="#85340A"/>
<path d="M19.75 15.2309C19.7299 15.2329 19.7107 15.24 19.6941 15.2515C19.6776 15.263 19.6642 15.2785 19.6553 15.2966C19.6464 15.3146 19.6423 15.3347 19.6432 15.3548C19.6442 15.375 19.6503 15.3945 19.661 15.4116C19.6716 15.4288 19.6864 15.4429 19.704 15.4527C19.7216 15.4625 19.7414 15.4677 19.7616 15.4678C19.7817 15.4678 19.8016 15.4627 19.8192 15.453C19.8369 15.4433 19.8517 15.4292 19.8624 15.4121C19.9037 15.4377 19.9514 15.4507 20 15.4496H20.0125C20.0631 15.4524 20.1134 15.4393 20.1562 15.4121C20.1677 15.428 20.183 15.4407 20.2007 15.4492C20.2184 15.4577 20.2379 15.4617 20.2575 15.4608C20.2771 15.46 20.2961 15.4543 20.313 15.4442C20.3298 15.4342 20.3439 15.4201 20.354 15.4033C20.3641 15.3865 20.3699 15.3674 20.3708 15.3478C20.3717 15.3283 20.3678 15.3087 20.3594 15.291C20.3509 15.2733 20.3382 15.258 20.3224 15.2464C20.3066 15.2348 20.2881 15.2273 20.2687 15.2246C20.2999 15.2434 20.3187 15.2684 20.3187 15.3059C20.3187 15.3434 20.2875 15.3809 20.2437 15.3809C20.2238 15.3809 20.2047 15.373 20.1907 15.3589C20.1766 15.3448 20.1687 15.3257 20.1687 15.3059C20.1539 15.3367 20.1309 15.3629 20.1023 15.3817C20.0736 15.4004 20.0404 15.4109 20.0062 15.4121C19.9731 15.4098 19.9412 15.3988 19.9137 15.3801C19.8863 15.3614 19.8643 15.3358 19.85 15.3059C19.85 15.3163 19.8479 15.3265 19.8437 15.3361C19.8396 15.3456 19.8335 15.3542 19.8258 15.3612C19.8182 15.3683 19.8092 15.3737 19.7993 15.377C19.7895 15.3804 19.7791 15.3817 19.7687 15.3809C19.7312 15.3809 19.6937 15.3434 19.6937 15.3059C19.6937 15.2684 19.7125 15.2434 19.7437 15.2309H19.75ZM19.875 15.5746C19.7437 15.5746 19.6875 15.6871 19.575 15.7621C19.6375 15.7371 19.6937 15.6871 19.7812 15.6371C19.8687 15.5871 19.95 15.6496 20 15.6496C20.05 15.6496 20.125 15.5871 20.2187 15.6371C20.3062 15.6871 20.3624 15.7371 20.4249 15.7621C20.3062 15.6871 20.2562 15.5746 20.125 15.5746C20.0813 15.579 20.0388 15.5917 20 15.6121C19.9615 15.5896 19.9191 15.5747 19.875 15.5684V15.5746Z" fill="#85340A"/>
<path d="M19.8251 15.7245C19.7751 15.7245 19.7125 15.737 19.6125 15.762C19.8438 15.712 19.8938 15.7933 20 15.7933C20.1 15.7933 20.15 15.712 20.3813 15.762C20.1313 15.687 20.075 15.737 20 15.737C19.95 15.737 19.9126 15.7183 19.8251 15.7245Z" fill="#85340A"/>
<path d="M19.625 15.7623H19.575C19.8437 15.7935 19.7187 15.9498 20 15.9498C20.2812 15.9498 20.1562 15.7935 20.4249 15.7623C20.1437 15.7373 20.2312 15.906 20 15.906C19.7812 15.906 19.85 15.7623 19.625 15.7623ZM20.2312 16.181C20.2312 16.1197 20.2068 16.0609 20.1635 16.0175C20.1201 15.9742 20.0613 15.9498 20 15.9498C19.9386 15.9498 19.8798 15.9742 19.8364 16.0175C19.7931 16.0609 19.7687 16.1197 19.7687 16.181C19.7809 16.1289 19.8104 16.0824 19.8524 16.0491C19.8944 16.0158 19.9464 15.9977 20 15.9977C20.0535 15.9977 20.1055 16.0158 20.1475 16.0491C20.1895 16.0824 20.219 16.1289 20.2312 16.181Z" fill="#85340A"/>
<path d="M18.9624 14.6436C19.2562 14.3873 19.6312 14.3436 19.8374 14.5373C19.8858 14.6016 19.918 14.6767 19.9312 14.7561C19.9562 14.8998 19.9124 15.0561 19.7999 15.2186L19.8499 15.2436C19.948 15.0644 19.9833 14.8576 19.9499 14.6561C19.9417 14.6071 19.9292 14.559 19.9124 14.5123C19.6312 14.2811 19.2437 14.2623 18.9624 14.6373V14.6436Z" fill="#85340A"/>
<path d="M19.425 14.5625C19.5937 14.5625 19.6312 14.6062 19.7062 14.6687C19.7812 14.7312 19.825 14.7187 19.8312 14.7312C19.85 14.7437 19.8312 14.7813 19.8125 14.7688C19.7812 14.7563 19.7312 14.7312 19.6562 14.6687C19.5812 14.6062 19.5 14.6062 19.425 14.6062C19.1937 14.6062 19.0687 14.7938 19.0375 14.7812C19.0187 14.7687 19.1687 14.5625 19.425 14.5625Z" fill="#85340A"/>
<path d="M19.4188 14.6436C19.3063 14.6436 19.1938 14.6936 19.1313 14.7936C19.2563 14.9123 19.5438 14.9186 19.7376 14.7811C19.6967 14.7376 19.6473 14.703 19.5924 14.6793C19.5376 14.6557 19.4785 14.6435 19.4188 14.6436ZM19.4188 14.6686C19.5251 14.6686 19.6313 14.7186 19.6438 14.7686C19.5188 14.9123 19.3126 14.8936 19.1813 14.7936C19.2065 14.7537 19.2417 14.7212 19.2834 14.6993C19.3251 14.6773 19.3718 14.6667 19.4188 14.6686Z" fill="#843511"/>
<path d="M19.4312 14.8879C19.4968 14.8879 19.55 14.8347 19.55 14.7691C19.55 14.7036 19.4968 14.6504 19.4312 14.6504C19.3657 14.6504 19.3125 14.7036 19.3125 14.7691C19.3125 14.8347 19.3657 14.8879 19.4312 14.8879Z" fill="#85340A"/>
<path d="M19.1187 14.8434C19.3374 15.0121 19.5562 14.9996 19.6812 14.9246C19.8062 14.8434 19.8062 14.8184 19.7812 14.8184C19.7562 14.8184 19.7312 14.8434 19.6312 14.8996C19.5249 14.9496 19.3749 14.9496 19.1187 14.8434Z" fill="#85340A"/>
</g>
<defs>
<clipPath id="clip0_3730_45073">
<rect width="40" height="30" fill="white"/>
</clipPath>
<clipPath id="clip1_3730_45073">
<rect width="40" height="30" fill="white"/>
</clipPath>
</defs>
</svg>
