<svg width="80" height="60" viewBox="0 0 80 60" fill="none" xmlns="http://www.w3.org/2000/svg">
<g clip-path="url(#clip0_3730_47440)">
<mask id="mask0_3730_47440" style="mask-type:luminance" maskUnits="userSpaceOnUse" x="0" y="0" width="80" height="60">
<path d="M0 0H79.9992V59.9994H0V0Z" fill="white"/>
</mask>
<g mask="url(#mask0_3730_47440)">
<path d="M0 0V59.9994H89.9991V0H0Z" fill="#3399CC"/>
<path d="M0 40V43.3333H89.9991V40H0ZM0 46.6666V49.9999H89.9991V46.6666H0Z" fill="#FFFF00"/>
</g>
<path d="M17.8374 3.5L18.1999 3.875L17.8249 3.5H17.8374Z" fill="#99CCCC"/>
<path d="M17.4624 4.6248L17.8374 4.9873L17.4624 4.6123" fill="#CCCCFF"/>
<path d="M17.8375 5.34961L18.2 5.72461L17.825 5.34961H17.8375Z" fill="#CC6666"/>
<path d="M18.575 5.34961L18.9375 5.72461L18.5625 5.34961H18.575Z" fill="#66CCCC"/>
<path d="M18.5749 5.72461L18.9374 6.09961L18.5624 5.72461H18.5749Z" fill="#CCCCFF"/>
<path d="M17.7751 4.25L15.1876 14.0625L5.3501 16.75L15.1501 19.3125L17.7751 29.1125L20.3876 19.3125L30.1876 16.6875L20.3876 14.075L17.7626 4.275L17.7751 4.25Z" fill="#CC0000" stroke="white" stroke-width="0.4625"/>
<path d="M18.5749 7.2002L18.9374 7.5752L18.5624 7.2002H18.5749Z" fill="#FFCCCC"/>
<path d="M15.625 9.78789L15.9875 10.1504L15.6125 9.77539L15.625 9.78789Z" fill="#6699CC"/>
<path d="M16.3501 9.78789L16.7251 10.1504L16.3501 9.77539" fill="#FFCCCC"/>
<path d="M20.05 9.78789L20.425 10.1504L20.05 9.77539V9.78789Z" fill="#6699CC"/>
<path d="M15.625 10.1504L15.9875 10.5254L15.6125 10.1504H15.625Z" fill="#99CCCC"/>
<path d="M15.625 10.5254L15.9875 10.9004L15.6125 10.5254" fill="#CCFFFF"/>
<path d="M15.625 12L15.9875 12.375L15.6125 12" fill="#FFCCCC"/>
<path d="M14.875 12.3748L15.25 12.7373L14.875 12.3623V12.3748Z" fill="#99CCCC"/>
<path d="M15.75 12.6123L15.8625 12.8623L15.7375 12.6123" fill="#CC3333"/>
<path d="M20.7876 12.3748L21.1626 12.7373L20.7876 12.3623V12.3748Z" fill="#99CCCC"/>
<path d="M13.3999 13.8496L13.7749 14.2121L13.3999 13.8371V13.8496Z" fill="#99CCCC"/>
<path d="M21.8999 13.8379L22.2624 14.2129L21.8874 13.8379H21.8999Z" fill="#CCCCFF"/>
<path d="M23.375 14.2129L23.7375 14.5879L23.3625 14.2129H23.375Z" fill="#99CCCC"/>
<path d="M8.6001 15.3252L8.9751 15.6877L8.6001 15.3127V15.3252Z" fill="#6699CC"/>
<path d="M7.87505 15.6875L8.23755 16.0625L7.86255 15.6875H7.87505Z" fill="#99CCFF"/>
<path d="M9.3499 15.6875L9.7124 16.0625L9.3374 15.6875H9.3499ZM26.3249 15.6875L26.6874 16.0625L26.3124 15.6875H26.3249Z" fill="#FFCCCC"/>
<path d="M6.38745 16.0625L6.76245 16.425L6.38745 16.05V16.0625Z" fill="#66CCCC"/>
<path d="M4.55005 16.7998L4.92505 17.1623L4.55005 16.7873V16.7998Z" fill="#99CCCC"/>
<path d="M31.1251 16.7871L31.4876 17.1621L31.1126 16.7871" fill="#99CCCC"/>
<path d="M6.38745 17.5379L6.76245 17.9004L6.38745 17.5254V17.5379Z" fill="#66CCCC"/>
<path d="M6.75 17.5379L7.125 17.9004L6.75 17.5254V17.5379Z" fill="#CCCCFF"/>
<path d="M8.23755 17.5379L8.61255 17.9004L8.23755 17.5254V17.5379Z" fill="#FFCCCC"/>
<path d="M27.425 17.5379L27.8 17.9004L27.425 17.5254V17.5379Z" fill="#FFCCCC"/>
<path d="M28.8999 17.5379L29.2749 17.9004L28.8999 17.5254V17.5379Z" fill="#CCCCFF"/>
<path d="M29.275 17.5379L29.65 17.9004L29.275 17.5254" fill="#66CCCC"/>
<path d="M7.87505 17.9004L8.23755 18.2754L7.86255 17.9004H7.87505Z" fill="#99CCFF"/>
<path d="M9.3499 17.9004L9.7124 18.2754L9.3374 17.9004H9.3499ZM26.3249 17.9004L26.6874 18.2754L26.3124 17.9004H26.3249Z" fill="#FFCCCC"/>
<path d="M8.6001 18.2752L8.9751 18.6377L8.6001 18.2627V18.2752Z" fill="#6699CC"/>
<path d="M8.9751 18.2752L9.3501 18.6377L8.9751 18.2627V18.2752Z" fill="#99CCFF"/>
<path d="M10.825 18.2752L11.2 18.6377L10.825 18.2627V18.2752Z" fill="#FFCCCC"/>
<path d="M24.8374 18.2752L25.2124 18.6377L24.8374 18.2627V18.2752Z" fill="#FFCCCC"/>
<path d="M26.6875 18.2752L27.0625 18.6377L26.6875 18.2627V18.2752Z" fill="#99CCFF"/>
<path d="M27.0499 18.2752L27.4249 18.6377L27.0499 18.2627" fill="#6699CC"/>
<path d="M10.825 19.0127L11.1875 19.3752L10.8125 19.0002L10.825 19.0127Z" fill="#6699CC"/>
<path d="M23.3749 19.375L23.7374 19.75L23.3624 19.375" fill="#99CCCC"/>
<path d="M21.8999 19.75L22.2624 20.125L21.8874 19.75H21.8999Z" fill="#CCCCFF"/>
<path d="M14.5 20.125L14.875 20.4875L14.5 20.1125V20.125Z" fill="#99CCCC"/>
<path d="M15.25 20.1248L15.625 20.4873L15.25 20.1123" fill="#CC3333"/>
<path d="M21.1499 20.1248L21.5249 20.4873L21.1499 20.1123V20.1248Z" fill="#99CCCC"/>
<path d="M15.75 21.0996L15.8625 21.3496L15.7375 21.0996" fill="#CC3333"/>
<path d="M15.625 21.5879L15.9875 21.9629L15.6125 21.5879" fill="#FFCCCC"/>
<path d="M15.625 23.0625L15.9875 23.4375L15.6125 23.0625H15.625Z" fill="#CCFFFF"/>
<path d="M15.625 23.4375L15.9875 23.8125L15.6125 23.4375" fill="#99CCCC"/>
<path d="M15.625 23.7998L15.9875 24.1748L15.6125 23.7998H15.625Z" fill="#6699CC"/>
<path d="M16.3501 26.0252L16.7251 26.3877L16.3501 26.0127" fill="#6699CC"/>
<path d="M18.5749 26.3877L18.9374 26.7627L18.5624 26.3877H18.5749Z" fill="#FFCCCC"/>
<path d="M18.5749 27.8623L18.9374 28.2373L18.5624 27.8623H18.5749Z" fill="#CCCCFF"/>
<path d="M17.8375 28.2373L18.2 28.6123L17.825 28.2373H17.8375Z" fill="#CC6666"/>
<path d="M18.575 28.2373L18.9375 28.6123L18.5625 28.2373H18.575Z" fill="#66CCCC"/>
<path d="M17.8249 30.0879L18.1999 30.4504L17.8249 30.0754V30.0879Z" fill="#99CCCC"/>
</g>
<g clip-path="url(#clip1_3730_47440)">
<mask id="mask1_3730_47440" style="mask-type:luminance" maskUnits="userSpaceOnUse" x="0" y="0" width="80" height="60">
<path d="M0 0H79.9992V59.9994H0V0Z" fill="white"/>
</mask>
<g mask="url(#mask1_3730_47440)">
<path d="M0 0V59.9994H89.9991V0H0Z" fill="#3399CC"/>
<path d="M0 40V43.3333H89.9991V40H0ZM0 46.6666V49.9999H89.9991V46.6666H0Z" fill="#FFFF00"/>
</g>
<path d="M17.8374 3.5L18.1999 3.875L17.8249 3.5H17.8374Z" fill="#99CCCC"/>
<path d="M17.4624 4.6248L17.8374 4.9873L17.4624 4.6123" fill="#CCCCFF"/>
<path d="M17.8375 5.34961L18.2 5.72461L17.825 5.34961H17.8375Z" fill="#CC6666"/>
<path d="M18.575 5.34961L18.9375 5.72461L18.5625 5.34961H18.575Z" fill="#66CCCC"/>
<path d="M18.5749 5.72461L18.9374 6.09961L18.5624 5.72461H18.5749Z" fill="#CCCCFF"/>
<path d="M17.7751 4.25L15.1876 14.0625L5.3501 16.75L15.1501 19.3125L17.7751 29.1125L20.3876 19.3125L30.1876 16.6875L20.3876 14.075L17.7626 4.275L17.7751 4.25Z" fill="#CC0000" stroke="white" stroke-width="0.4625"/>
<path d="M18.5749 7.2002L18.9374 7.5752L18.5624 7.2002H18.5749Z" fill="#FFCCCC"/>
<path d="M15.625 9.78789L15.9875 10.1504L15.6125 9.77539L15.625 9.78789Z" fill="#6699CC"/>
<path d="M16.3501 9.78789L16.7251 10.1504L16.3501 9.77539" fill="#FFCCCC"/>
<path d="M20.05 9.78789L20.425 10.1504L20.05 9.77539V9.78789Z" fill="#6699CC"/>
<path d="M15.625 10.1504L15.9875 10.5254L15.6125 10.1504H15.625Z" fill="#99CCCC"/>
<path d="M15.625 10.5254L15.9875 10.9004L15.6125 10.5254" fill="#CCFFFF"/>
<path d="M15.625 12L15.9875 12.375L15.6125 12" fill="#FFCCCC"/>
<path d="M14.875 12.3748L15.25 12.7373L14.875 12.3623V12.3748Z" fill="#99CCCC"/>
<path d="M15.75 12.6123L15.8625 12.8623L15.7375 12.6123" fill="#CC3333"/>
<path d="M20.7876 12.3748L21.1626 12.7373L20.7876 12.3623V12.3748Z" fill="#99CCCC"/>
<path d="M13.3999 13.8496L13.7749 14.2121L13.3999 13.8371V13.8496Z" fill="#99CCCC"/>
<path d="M21.8999 13.8379L22.2624 14.2129L21.8874 13.8379H21.8999Z" fill="#CCCCFF"/>
<path d="M23.375 14.2129L23.7375 14.5879L23.3625 14.2129H23.375Z" fill="#99CCCC"/>
<path d="M8.6001 15.3252L8.9751 15.6877L8.6001 15.3127V15.3252Z" fill="#6699CC"/>
<path d="M7.87505 15.6875L8.23755 16.0625L7.86255 15.6875H7.87505Z" fill="#99CCFF"/>
<path d="M9.3499 15.6875L9.7124 16.0625L9.3374 15.6875H9.3499ZM26.3249 15.6875L26.6874 16.0625L26.3124 15.6875H26.3249Z" fill="#FFCCCC"/>
<path d="M6.38745 16.0625L6.76245 16.425L6.38745 16.05V16.0625Z" fill="#66CCCC"/>
<path d="M4.55005 16.7998L4.92505 17.1623L4.55005 16.7873V16.7998Z" fill="#99CCCC"/>
<path d="M31.1251 16.7871L31.4876 17.1621L31.1126 16.7871" fill="#99CCCC"/>
<path d="M6.38745 17.5379L6.76245 17.9004L6.38745 17.5254V17.5379Z" fill="#66CCCC"/>
<path d="M6.75 17.5379L7.125 17.9004L6.75 17.5254V17.5379Z" fill="#CCCCFF"/>
<path d="M8.23755 17.5379L8.61255 17.9004L8.23755 17.5254V17.5379Z" fill="#FFCCCC"/>
<path d="M27.425 17.5379L27.8 17.9004L27.425 17.5254V17.5379Z" fill="#FFCCCC"/>
<path d="M28.8999 17.5379L29.2749 17.9004L28.8999 17.5254V17.5379Z" fill="#CCCCFF"/>
<path d="M29.275 17.5379L29.65 17.9004L29.275 17.5254" fill="#66CCCC"/>
<path d="M7.87505 17.9004L8.23755 18.2754L7.86255 17.9004H7.87505Z" fill="#99CCFF"/>
<path d="M9.3499 17.9004L9.7124 18.2754L9.3374 17.9004H9.3499ZM26.3249 17.9004L26.6874 18.2754L26.3124 17.9004H26.3249Z" fill="#FFCCCC"/>
<path d="M8.6001 18.2752L8.9751 18.6377L8.6001 18.2627V18.2752Z" fill="#6699CC"/>
<path d="M8.9751 18.2752L9.3501 18.6377L8.9751 18.2627V18.2752Z" fill="#99CCFF"/>
<path d="M10.825 18.2752L11.2 18.6377L10.825 18.2627V18.2752Z" fill="#FFCCCC"/>
<path d="M24.8374 18.2752L25.2124 18.6377L24.8374 18.2627V18.2752Z" fill="#FFCCCC"/>
<path d="M26.6875 18.2752L27.0625 18.6377L26.6875 18.2627V18.2752Z" fill="#99CCFF"/>
<path d="M27.0499 18.2752L27.4249 18.6377L27.0499 18.2627" fill="#6699CC"/>
<path d="M10.825 19.0127L11.1875 19.3752L10.8125 19.0002L10.825 19.0127Z" fill="#6699CC"/>
<path d="M23.3749 19.375L23.7374 19.75L23.3624 19.375" fill="#99CCCC"/>
<path d="M21.8999 19.75L22.2624 20.125L21.8874 19.75H21.8999Z" fill="#CCCCFF"/>
<path d="M14.5 20.125L14.875 20.4875L14.5 20.1125V20.125Z" fill="#99CCCC"/>
<path d="M15.25 20.1248L15.625 20.4873L15.25 20.1123" fill="#CC3333"/>
<path d="M21.1499 20.1248L21.5249 20.4873L21.1499 20.1123V20.1248Z" fill="#99CCCC"/>
<path d="M15.75 21.0996L15.8625 21.3496L15.7375 21.0996" fill="#CC3333"/>
<path d="M15.625 21.5879L15.9875 21.9629L15.6125 21.5879" fill="#FFCCCC"/>
<path d="M15.625 23.0625L15.9875 23.4375L15.6125 23.0625H15.625Z" fill="#CCFFFF"/>
<path d="M15.625 23.4375L15.9875 23.8125L15.6125 23.4375" fill="#99CCCC"/>
<path d="M15.625 23.7998L15.9875 24.1748L15.6125 23.7998H15.625Z" fill="#6699CC"/>
<path d="M16.3501 26.0252L16.7251 26.3877L16.3501 26.0127" fill="#6699CC"/>
<path d="M18.5749 26.3877L18.9374 26.7627L18.5624 26.3877H18.5749Z" fill="#FFCCCC"/>
<path d="M18.5749 27.8623L18.9374 28.2373L18.5624 27.8623H18.5749Z" fill="#CCCCFF"/>
<path d="M17.8375 28.2373L18.2 28.6123L17.825 28.2373H17.8375Z" fill="#CC6666"/>
<path d="M18.575 28.2373L18.9375 28.6123L18.5625 28.2373H18.575Z" fill="#66CCCC"/>
<path d="M17.8249 30.0879L18.1999 30.4504L17.8249 30.0754V30.0879Z" fill="#99CCCC"/>
</g>
<defs>
<clipPath id="clip0_3730_47440">
<rect width="80" height="60" fill="white"/>
</clipPath>
<clipPath id="clip1_3730_47440">
<rect width="80" height="60" fill="white"/>
</clipPath>
</defs>
</svg>
