<svg width="80" height="60" viewBox="0 0 80 60" fill="none" xmlns="http://www.w3.org/2000/svg">
<g clip-path="url(#clip0_3730_47815)">
<path d="M0 0H80V60H0V0Z" fill="#000066"/>
<path fill-rule="evenodd" clip-rule="evenodd" d="M37.4749 49.0629L32.0124 49.5379L32.7624 54.9629L28.9999 51.0004L25.2374 54.9629L25.9874 49.5379L20.5249 49.0629L25.2374 46.2754L22.1999 41.7129L27.3249 43.6504L28.9999 38.4379L30.6874 43.6504L35.8124 41.7129L32.7749 46.2754M60.8249 54.0629L59.4999 52.0879L61.7249 52.9254L62.4499 50.6629L63.1749 52.9254L65.3999 52.0879L64.0874 54.0629L66.1374 55.2754L63.7624 55.4879L64.0874 57.8504L62.4624 56.1129L60.8124 57.8504L61.1374 55.4879L58.7624 55.2879M60.8124 18.8004L59.4999 16.8254L61.7249 17.6629L62.4499 15.4004L63.1749 17.6629L65.3999 16.8254L64.0874 18.8004L66.1374 20.0254L63.7624 20.2254L64.0874 22.5879L62.4624 20.8629L60.8124 22.5754L61.1374 20.2254L58.7624 20.0254M47.5999 33.1254L46.2874 31.1504L48.5124 31.9879L49.2374 29.7254L49.9749 31.9879L52.1999 31.1504L50.8749 33.1254L52.9249 34.3379L50.5499 34.5504L50.8874 36.9129L49.2374 35.1754L47.6124 36.9129L47.9249 34.5504L45.5499 34.3504M72.5874 29.6004L71.2499 27.6254L73.4749 28.4629L74.1999 26.2004L74.9374 28.4629L77.1624 27.6254L75.8499 29.6004L77.8874 30.8129L75.5124 31.0254L75.8374 33.3754L74.2124 31.6504L72.5624 33.3754L72.8874 31.0254L70.5124 30.8129M67.7499 40.0004L66.4624 40.8129L66.8249 39.3254L65.6624 38.3504L67.1749 38.2254L67.7499 36.8254L68.3374 38.2379L69.8499 38.3504L68.6874 39.3254L69.0499 40.8129" fill="white"/>
<path d="M0 0H40V30H0V0Z" fill="#000066"/>
<path d="M4.6875 0L19.9375 11.3125L35.125 0H40V3.875L25 15.0625L40 26.1875V30H35L20 18.8125L5.0625 30H0V26.25L14.9375 15.125L0 4V0H4.6875Z" fill="white"/>
<path d="M26.5 17.5625L40 27.5V30L23.0625 17.5625H26.5ZM15 18.8125L15.375 21L3.375 30H0L15 18.8125ZM40 0V0.1875L24.4375 11.9375L24.5625 9.1875L36.875 0H40ZM0 0L14.9375 11H11.1875L0 2.625V0Z" fill="#C8102E"/>
<path d="M15.0625 0V30H25.0625V0H15.0625ZM0 10V20H40V10H0Z" fill="white"/>
<path d="M0 12.0625V18.0625H40V12.0625H0ZM17.0625 0V30H23.0625V0H17.0625Z" fill="#C8102E"/>
</g>
<defs>
<clipPath id="clip0_3730_47815">
<rect width="80" height="60" fill="white"/>
</clipPath>
</defs>
</svg>
