<svg width="80" height="60" viewBox="0 0 80 60" fill="none" xmlns="http://www.w3.org/2000/svg">
<g clip-path="url(#clip0_3730_47904)">
<path d="M0 0H80V60H0V0Z" fill="#00267F"/>
<path d="M26.6626 0H53.3376V60H26.6626V0Z" fill="#FFC726"/>
<path d="M39.975 16.9375C39.1 19.3125 38.225 21.7625 36.325 23.65C36.9125 23.45 37.95 23.275 38.6 23.3V33.2375L35.8 33.65C35.7 33.65 35.675 33.4875 35.675 33.275C35.4 30.1875 34.675 27.5875 33.825 24.9C33.7625 24.5375 32.7 23.15 33.525 23.4C33.625 23.4 34.7125 23.85 34.55 23.6375C32.9796 22.0535 30.9504 21.0039 28.75 20.6375C28.5625 20.6 28.45 20.7 28.625 20.9125C31.425 25.2375 33.7875 30.35 33.7625 36.4125C34.8625 36.4125 37.5125 35.7625 38.6 35.7625V42.775H40L40.3125 23.1875L39.975 16.9375Z" fill="black"/>
<path d="M39.9625 16.9375C40.8375 19.3125 41.7125 21.7625 43.6125 23.65C43.025 23.45 41.9875 23.275 41.3375 23.3V33.2375L44.1375 33.65C44.2375 33.65 44.2625 33.4875 44.2625 33.275C44.5375 30.1875 45.2625 27.5875 46.1125 24.9C46.175 24.5375 47.2375 23.15 46.4125 23.4C46.3125 23.4 45.225 23.85 45.3875 23.6375C46.9579 22.0535 48.9871 21.0039 51.1875 20.6375C51.375 20.6 51.4875 20.7 51.3125 20.9125C48.5125 25.2375 46.15 30.35 46.175 36.4125C45.075 36.4125 42.425 35.7625 41.3375 35.7625V42.775H39.9375L39.625 23.1875L39.9625 16.9375Z" fill="black"/>
</g>
<g clip-path="url(#clip1_3730_47904)">
<path d="M0 0H80V60H0V0Z" fill="#00267F"/>
<path d="M26.6626 0H53.3376V60H26.6626V0Z" fill="#FFC726"/>
<path d="M39.975 16.9375C39.1 19.3125 38.225 21.7625 36.325 23.65C36.9125 23.45 37.95 23.275 38.6 23.3V33.2375L35.8 33.65C35.7 33.65 35.675 33.4875 35.675 33.275C35.4 30.1875 34.675 27.5875 33.825 24.9C33.7625 24.5375 32.7 23.15 33.525 23.4C33.625 23.4 34.7125 23.85 34.55 23.6375C32.9796 22.0535 30.9504 21.0039 28.75 20.6375C28.5625 20.6 28.45 20.7 28.625 20.9125C31.425 25.2375 33.7875 30.35 33.7625 36.4125C34.8625 36.4125 37.5125 35.7625 38.6 35.7625V42.775H40L40.3125 23.1875L39.975 16.9375Z" fill="black"/>
<path d="M39.9625 16.9375C40.8375 19.3125 41.7125 21.7625 43.6125 23.65C43.025 23.45 41.9875 23.275 41.3375 23.3V33.2375L44.1375 33.65C44.2375 33.65 44.2625 33.4875 44.2625 33.275C44.5375 30.1875 45.2625 27.5875 46.1125 24.9C46.175 24.5375 47.2375 23.15 46.4125 23.4C46.3125 23.4 45.225 23.85 45.3875 23.6375C46.9579 22.0535 48.9871 21.0039 51.1875 20.6375C51.375 20.6 51.4875 20.7 51.3125 20.9125C48.5125 25.2375 46.15 30.35 46.175 36.4125C45.075 36.4125 42.425 35.7625 41.3375 35.7625V42.775H39.9375L39.625 23.1875L39.9625 16.9375Z" fill="black"/>
</g>
<defs>
<clipPath id="clip0_3730_47904">
<rect width="80" height="60" fill="white"/>
</clipPath>
<clipPath id="clip1_3730_47904">
<rect width="80" height="60" fill="white"/>
</clipPath>
</defs>
</svg>
