<svg width="80" height="60" viewBox="0 0 80 60" fill="none" xmlns="http://www.w3.org/2000/svg">
<g clip-path="url(#clip0_3730_49140)">
<path d="M0 0H80V60H0V0Z" fill="#CF142B"/>
<path d="M69.9627 16.3252V36.5252C69.9627 41.9127 59.1877 43.6752 59.1877 43.6752C59.1877 43.6752 48.3877 41.9252 48.3877 36.5002V16.3252H69.9502H69.9627Z" fill="white"/>
<path d="M69.9627 36.525C69.9627 41.9125 59.1877 43.675 59.1877 43.675C59.1877 43.675 48.3877 41.925 48.3877 36.5C48.3877 36.5 48.3877 36.0625 48.6127 35.825C48.6127 35.825 48.4877 36.7125 49.1752 37.4C49.1752 37.4 48.6377 36.425 49.1752 35.4875C49.1752 35.4875 48.9627 36.7125 49.7252 37.4C49.7252 37.4 49.3127 36.4125 49.7752 35.3125C49.7752 35.3125 49.5502 37.1 50.3627 37.475C50.3627 37.475 50.5877 36.425 50.2627 35.775C50.2627 35.775 50.8252 36 50.8002 37.5C50.8002 37.5 50.9752 37.275 51.0252 36.1875C51.0252 36.1875 51.0502 37.4375 51.4627 37.725C51.4627 37.725 51.6127 37.6 51.4252 37.0375C51.2252 36.4875 51.5002 36.2875 51.5502 36.2875C51.5502 36.2875 51.4502 36.9125 51.9752 37.3875C51.9752 37.3875 51.7502 36.4 52.0627 36.2625C52.0627 36.2625 51.9877 37.1 52.6627 37.275C52.6627 37.275 52.7002 37.0375 52.5627 36.775C52.5627 36.775 52.4377 36.4625 52.5252 36.2125C52.5252 36.2125 52.7377 36.9625 53.0252 37.0875C53.0252 37.0875 52.8502 36.6375 53.0252 36.2125C53.0252 36.2125 53.0502 36.8375 53.6127 37.1C53.6127 37.1 53.2377 36.6 53.3752 36.075L56.9627 36.25L58.8377 36.3375L64.4252 35.9625L65.3752 35.125C65.3752 35.125 65.7627 35.6375 65.1502 36.475C65.1502 36.475 65.7502 36.375 65.9377 35.4375C65.9377 35.4375 66.1877 35.95 65.8502 36.5375C65.8502 36.5375 66.5127 35.8625 66.6002 35.125C66.6002 35.125 66.8627 35.85 66.2377 36.625C66.2377 36.625 66.7877 36.425 67.0252 35.6125C67.0252 35.6125 67.2252 36.1125 66.6877 36.8C66.6877 36.8 67.7002 36.2875 67.6752 35.175C67.6752 35.175 68.0877 35.775 67.6127 36.625C67.6127 36.625 68.1127 36.1625 68.1752 35.4625C68.1752 35.4625 68.4627 35.775 68.1502 36.6375C68.1502 36.6375 68.7752 36.0375 68.8752 35.4C68.8752 35.4 69.0002 36 68.4752 36.75C68.4752 36.75 68.8377 36.65 69.1877 35.925C69.1877 35.925 69.2752 36.225 68.9627 36.75C68.9627 36.75 69.3127 36.6875 69.5377 36.0125C69.5377 36.0125 69.5752 36.4125 69.4752 36.7625C69.4752 36.7625 69.7377 36.6 69.8002 35.85C69.8021 36.0432 69.8538 36.2326 69.9502 36.4V36.5L69.9627 36.525Z" fill="#2F8F22"/>
<path d="M64.4249 24.8377C64.4249 24.8377 64.0499 24.9127 63.5499 24.7627C63.0749 24.6127 62.8874 24.6752 62.7374 24.7627C62.7374 24.7627 62.9249 24.3752 62.4499 24.0627C62.4499 24.0627 62.5999 24.4627 62.3874 24.6377C62.3874 24.6377 62.2999 24.7252 62.1874 24.6002C62.1874 24.6002 62.0249 24.4127 61.8374 24.3002C61.8374 24.3002 62.2499 24.1502 62.1749 23.7377C62.0999 23.3252 61.8749 23.2877 61.7624 23.2252C61.7422 23.3242 61.7422 23.4262 61.7624 23.5252C61.7624 23.5252 61.3249 23.2752 61.9124 22.9377C62.5124 22.6002 62.4124 22.3877 62.2999 22.2127C62.1844 22.0359 62.0359 21.8831 61.8624 21.7627C61.8624 21.7627 61.9874 21.9627 61.9499 22.1252C61.9374 22.2752 61.6499 22.3752 61.6999 22.1127C61.7624 21.8127 61.6999 21.8627 61.6999 21.5752C61.6999 21.5752 62.2249 21.7502 62.4499 21.2252C62.4499 21.2252 62.6499 20.6877 61.9749 20.4252C61.9749 20.4252 62.1374 20.6502 62.0624 20.8002C62.0624 20.8002 61.9124 21.0752 61.7499 20.8752C61.5874 20.6627 61.4749 20.6002 61.4874 20.3502C61.4874 20.3502 62.0999 20.4377 61.9374 19.7627C61.9374 19.7627 61.8249 20.2127 61.0374 19.6127C61.0374 19.6127 61.5624 19.0877 61.3499 18.6627C61.3499 18.6627 61.2874 18.4752 60.7374 18.5752C60.7374 18.5752 61.2124 18.2752 61.0249 18.0127C61.0249 18.0127 60.9124 17.8502 60.4499 18.0627C60.4499 18.0627 60.6374 17.7752 60.1874 17.4377C60.1874 17.4377 59.8874 17.5877 59.7374 17.7377C59.7374 17.7377 59.4374 17.3627 59.2374 17.2002C59.2374 17.2002 58.8874 17.3377 58.7999 17.7377C58.7999 17.7377 58.6374 17.5502 58.2624 17.4377C58.2624 17.4377 58.0874 17.7877 58.3249 18.0627C58.3249 18.0627 58.1499 18.0627 57.8249 17.9252C57.8249 17.9252 57.4749 17.7752 57.5374 18.0627C57.5749 18.3627 57.6124 18.4377 57.6874 18.5877C57.6874 18.5877 56.8749 18.4002 56.9124 18.8377C56.9196 18.9855 56.9565 19.1302 57.0209 19.2634C57.0854 19.3966 57.176 19.5154 57.2874 19.6127C57.2874 19.6127 56.8499 20.2127 56.4624 19.7627C56.4624 19.7627 56.3124 19.9127 56.6124 20.2877C56.6124 20.2877 56.9124 20.6002 56.6499 20.8127C56.6499 20.8127 56.3374 21.0627 56.1874 20.5627C56.1874 20.5627 55.6749 21.0752 56.2874 21.4627C56.2874 21.4627 56.6624 21.6877 57.0749 21.3377C57.0749 21.3377 56.9499 22.3377 56.5749 22.1377C56.5749 22.1377 56.3374 21.9877 56.7499 21.7752C56.7499 21.7752 56.1499 21.7002 56.0624 22.2752C56.0624 22.2752 55.9874 22.7127 56.4999 22.9002C56.4999 22.9002 56.8874 23.0502 56.4999 23.3502C56.4999 23.3502 56.1874 23.5627 56.3874 23.9002C56.3874 23.9002 56.6124 24.2502 56.0249 24.3002C56.0249 24.3002 55.7249 24.3002 55.6124 24.2502C55.6124 24.2502 55.4874 24.5002 55.5624 24.7502C55.5624 24.7502 55.2749 24.5377 54.6249 24.7752C53.9749 25.0252 54.0124 24.8502 53.9749 24.9252L53.7749 25.2252C53.7749 25.2252 54.1249 25.6752 54.1374 25.6377L54.0624 26.1377L54.2374 26.2127L55.5874 25.6127L56.9624 24.9002L58.0749 24.9502L58.7749 25.1127L59.6749 25.1877L60.3499 24.8377H61.2999L62.3499 25.3627L63.5374 26.0752L64.1624 26.2002L64.6499 26.1627V25.1877L64.4249 24.8377Z" fill="#D40000" stroke="black" stroke-width="0.15" stroke-linejoin="round"/>
<path d="M53.5248 25.9629C53.5248 25.9629 54.0498 26.2379 54.2748 25.9254C54.2748 25.9254 54.5498 25.3754 53.9248 25.1754C53.9248 25.1754 54.2748 24.7754 53.8998 24.4004C53.8998 24.4004 53.6998 24.2004 53.3748 24.3379C53.3748 24.3379 53.2248 24.0504 52.9123 24.0629C52.9123 24.0629 52.6123 24.0629 52.5373 24.3754C52.5373 24.3754 52.1373 24.2254 51.9248 24.4504C51.9248 24.4504 51.5498 24.8504 52.0623 25.1754L52.4248 25.2129L52.7748 25.0379L53.1873 25.1504C53.1873 25.1504 53.0748 25.5504 53.5248 25.9629Z" fill="#D40000" stroke="black" stroke-width="0.15" stroke-linejoin="round"/>
<path d="M65.2 25.0122C65.3755 24.9901 65.5535 25.0242 65.7084 25.1095C65.8634 25.1949 65.9873 25.327 66.0625 25.4872C66.3875 26.2622 65.6875 26.6872 65.6875 26.6872C65.7375 26.8497 65.75 27.0872 65.75 27.0872C66.725 27.2122 66.55 28.3122 66.55 28.3122L66.225 28.0372C65.6625 27.8122 65.0625 28.3122 64.65 29.1122C64.225 29.9372 64.425 30.2997 64.5 31.2747C64.575 32.2372 66.125 32.8247 66.125 32.8247L64.9125 35.9497C64.4375 37.1997 63.4125 36.6872 63.125 36.4122C62.8375 36.1622 62.7625 36.3122 62.625 36.4122C62.4875 36.5372 63.2875 37.1622 61.8125 37.7622C60.35 38.3497 60.1 38.7997 59.85 38.9497C59.6 39.0997 58.6 39.0122 58.5 38.8747C58.375 38.7497 58.45 38.7497 58.0625 38.5122C57.6875 38.2997 57.0375 38.0747 56.3375 37.7372C55.6375 37.3997 55.6625 36.9622 55.675 36.8747C55.675 36.7872 55.9125 36.0622 55.0875 36.6372C54.275 37.2247 53.575 36.3622 53.575 36.3622C53.425 36.1497 52.725 34.3122 52.725 34.3122C52.5806 33.8004 52.401 33.2992 52.1875 32.8122C52.1875 32.8122 52.1375 32.9122 52.75 32.5622C53.35 32.2247 53.625 31.6497 53.8375 31.0747C54.05 30.4997 53.8375 29.5122 53.7625 29.3247C53.6875 29.1247 53.2375 28.2122 52.675 28.0247C52.125 27.8247 51.7375 28.3247 51.7375 28.3247C51.7375 28.3247 51.575 27.1997 52.5625 27.0747C52.5625 27.0747 52.5625 26.8497 52.6125 26.6872C52.6125 26.6872 51.9125 26.2622 52.2375 25.4872C52.2375 25.4872 52.4625 24.9497 53.0875 25.0122L52.95 25.3122C52.95 25.3122 52.8 26.8872 55.1 25.8372C57.4125 24.7622 57.35 24.5622 58.6875 25.2372L59.6375 25.2247C59.6375 25.2247 61.0125 24.5622 61.475 24.8497C61.9125 25.1372 63.5125 26.0247 63.5125 26.0247C63.5125 26.0247 65.0625 26.6122 65.375 25.5247L65.2 25.0122Z" fill="#64B4D1" stroke="black" stroke-width="0.15"/>
<path d="M58.2251 31.8746C58.2251 31.8746 58.1501 31.3871 58.0751 31.0746C58.0751 31.0746 57.8876 30.5871 58.2001 30.2246L58.5501 29.8121C58.5501 29.8121 58.7751 29.5121 59.0501 29.4746C59.0501 29.4746 59.3376 29.4746 59.3501 29.4121C59.3876 29.3496 59.7001 28.8496 60.4251 29.4121C60.4251 29.4121 60.6501 29.0371 61.0251 28.9621C61.0251 28.9621 61.4001 28.8621 61.5876 29.1371C61.5876 29.1371 62.0251 28.8121 62.3876 29.3496C62.3876 29.3496 62.9001 29.0496 63.2876 29.6371C63.2876 29.6371 63.7876 29.3871 64.0876 29.8996C64.4001 30.4371 64.3376 30.6496 64.3376 30.6496L64.5876 31.4996L65.4001 32.4996L63.5001 33.2246H62.6251L60.9126 33.6746L57.8751 33.9121L57.0376 32.9121L58.2376 31.8746H58.2251Z" fill="white" stroke="#00247D" stroke-width="0.15" stroke-miterlimit="10"/>
<path d="M55.6625 36.9377C55.6625 36.9377 55.2125 36.9502 54.975 37.0877C54.75 37.1877 54.5625 37.3127 54.3 37.4877C54.3 37.4877 54.175 37.6502 53.65 37.5502C53.65 37.5502 52.75 37.3377 52.75 38.0502C52.75 38.0502 51.65 38.1252 52.1 39.0877C52.1 39.0877 52.3875 39.8377 53.0125 39.3127C53.0125 39.3127 52.6125 39.8752 53.3875 40.1002C53.3875 40.1002 53.9375 40.2502 54.1125 39.6627C54.1125 39.6627 54.2 39.4377 53.9875 39.1627C53.9875 39.1627 54.25 39.1127 54.4375 38.8252C54.4375 38.8252 53.8625 39.5502 54.5 39.8252C54.5 39.8252 55.2875 40.0127 55.325 39.2002C55.325 39.2002 55.25 38.8002 55.575 38.6627C55.575 38.6627 56.2 38.5127 56.45 37.8377C56.45 37.8377 55.575 37.3502 55.6625 36.9377ZM53.825 29.7502C53.825 29.7502 53.125 29.4377 52.775 29.7502C52.775 29.7502 52.3375 29.4752 51.8375 29.7502C51.8375 29.7502 51.375 30.0502 51.05 30.4002C51.05 30.4002 50.825 30.5877 50.9 31.2002C50.9 31.2002 51.025 31.6377 50.9625 31.8377C50.9625 31.8377 50.8125 31.8127 50.5 32.1877C50.5 32.1877 50.1125 32.6252 49.75 32.2252C49.75 32.2252 49.875 32.8002 50.5125 32.7002C50.5125 32.7002 50.2 32.9502 50.475 33.5752C50.475 33.5752 50.675 34.0252 50.35 34.6002C50.35 34.6002 50.9125 34.3752 50.9 33.7002C50.9 33.7002 50.8375 33.2502 51.025 32.9502C51.025 32.9502 50.8375 33.2252 51.225 33.8377C51.225 33.8377 51.525 34.2877 51.2875 34.7377C51.2875 34.7377 51.8375 34.5377 51.7875 33.8627C51.7375 33.1877 51.4125 33.4627 51.6125 32.8377C51.6125 32.8377 51.675 33.1627 51.8375 33.3377C51.962 33.4428 52.0557 33.5796 52.1085 33.7337C52.1613 33.8878 52.1714 34.0534 52.1375 34.2127C52.1375 34.2127 52.4625 33.7877 52.3875 33.3627C52.3661 33.1713 52.3111 32.9851 52.225 32.8127L53.275 32.2127L53.8125 31.2752L53.825 29.7502Z" fill="#D40000" stroke="black" stroke-width="0.15" stroke-linejoin="round"/>
<path d="M52.2249 32.4379C52.2249 32.4379 51.7874 32.4129 51.7249 32.0629M50.9624 31.8379C50.9624 31.8379 51.1124 31.8379 51.2624 31.9879C51.2624 31.9879 51.3499 32.1379 51.4999 32.1129" stroke="black" stroke-width="0.15" stroke-miterlimit="10"/>
<path d="M52.8752 31.1499C52.8752 31.1499 52.6502 31.1499 52.5002 31.0499C52.5002 31.0499 52.3877 30.9624 52.3127 31.0999C52.3127 31.0999 52.1877 31.2999 52.4127 31.3874C52.4127 31.3874 52.6877 31.5374 52.2627 31.8124C52.2627 31.8124 52.7627 31.6124 52.5627 31.3624C52.5627 31.3624 52.3377 31.2124 52.4127 31.1499C52.4127 31.1499 52.4377 31.0999 52.5377 31.1499C52.6127 31.2249 52.7877 31.1999 52.8752 31.1499Z" fill="black"/>
<path d="M59.7001 32.3748L59.9626 32.2998L58.2126 26.2998H58.1626L59.7001 32.3748Z" fill="#784421" stroke="black" stroke-width="0.15"/>
<path d="M53.8999 39.037C53.8999 39.037 53.4999 38.7996 53.1499 39.0746C53.1499 39.0746 53.1999 38.9246 53.4499 38.8621C53.4499 38.8621 53.5999 38.4621 53.9874 38.4996C53.9874 38.4996 53.8249 38.6995 53.6124 38.8495C53.6124 38.8495 53.8374 38.8745 53.9124 39.037H53.8999Z" fill="black"/>
<path d="M52.4624 39.9749C52.4624 39.9749 51.8124 39.5749 52.1749 38.8874C52.1749 38.8874 52.2749 38.6999 52.4624 38.7374C52.4624 38.7374 52.8749 38.8624 52.5624 39.4249C52.5624 39.4249 52.3874 39.7874 52.4624 39.9874V39.9749ZM53.7749 40.6374C53.7749 40.6374 52.8499 40.2124 53.1374 39.4874C53.1374 39.4874 53.2249 39.2374 53.4374 39.2624C53.4374 39.2624 53.7874 39.2874 53.7249 39.7624C53.7249 39.7624 53.6124 40.2124 53.7749 40.6374Z" fill="#64B4D1" stroke="#00247D" stroke-width="0.15" stroke-miterlimit="2.6"/>
<path d="M53.5873 37.9502C53.5873 37.9502 53.2998 38.1627 53.1998 38.3002C53.1998 38.3002 53.0748 38.1502 52.9248 38.0752C52.9248 38.0752 53.1123 38.0377 53.1998 38.1127C53.1998 38.1127 53.3498 37.9877 53.5748 37.9502H53.5873Z" fill="black"/>
<path d="M54.3999 40.4502C54.3999 40.4502 55.1499 40.2752 54.9999 39.5127C54.9999 39.5127 54.9249 39.1877 54.6249 39.2377C54.6249 39.2377 54.2499 39.3377 54.4999 39.8127C54.4999 39.8127 54.6374 40.1377 54.3999 40.4502Z" fill="#64B4D1" stroke="#00247D" stroke-width="0.15" stroke-miterlimit="2.6"/>
<path d="M57.7002 24.5875L58.4127 24.825C58.4127 24.825 59.0877 25.1125 59.9502 24.825L60.6002 24.575L60.1627 25.25V25.6125L60.4252 26.0125C60.4252 26.0125 60.2627 26.0875 59.7502 25.7625C59.7502 25.7625 59.2002 25.3375 58.5502 25.7625C58.5502 25.7625 58.1752 26.0125 57.8752 26.0125L58.3127 25.5375L58.1502 25.1L57.7002 24.5625V24.5875Z" fill="#F5CE00" stroke="black" stroke-width="0.15" stroke-miterlimit="2.6"/>
<path d="M54.6876 39.5625C54.6876 39.5625 54.7126 39.5125 54.6876 39.5L54.6251 39.525C54.6251 39.525 54.5501 39.65 54.6251 39.825C54.6251 39.825 54.6876 39.9375 54.6626 40.05V40.1C54.6626 40.1 54.7001 40.0875 54.7001 40.05C54.7001 40.05 54.7501 39.95 54.6751 39.825C54.6751 39.825 54.6001 39.65 54.6876 39.5625Z" fill="white"/>
<path d="M64.75 25.9629C64.75 25.9629 64.225 26.2379 64 25.9254C64 25.9254 63.7375 25.3754 64.3625 25.1754C64.3625 25.1754 64.0125 24.7754 64.375 24.4004C64.375 24.4004 64.575 24.2004 64.9 24.3379C64.9 24.3379 65.05 24.0504 65.3625 24.0629C65.3625 24.0629 65.6625 24.0629 65.7375 24.3754C65.7375 24.3754 66.15 24.2254 66.3625 24.4504C66.3625 24.4504 66.7125 24.8504 66.2125 25.1754L65.85 25.2129L65.4875 25.0379L65.1125 25.1504C65.1125 25.1504 65.2125 25.5504 64.7375 25.9629H64.75Z" fill="#D40000" stroke="black" stroke-width="0.15" stroke-linejoin="round"/>
<path d="M60.6001 25.5497C60.6001 25.5497 60.6001 25.6497 60.5001 25.6747C60.5001 25.6747 60.3751 25.7122 60.3126 25.5622V25.5247C60.3126 25.4622 60.2751 25.2747 60.4876 25.1122C60.4876 25.1122 60.8126 24.8497 61.4376 25.1747C62.0405 25.5137 62.6577 25.8265 63.2876 26.1122C63.2876 26.1122 63.6751 26.3122 64.2751 26.3372C64.2751 26.3372 65.0876 26.3997 65.4376 25.8247C65.4376 25.8247 65.7001 25.3872 65.4376 25.0997C65.4376 25.0997 65.3251 24.9747 65.1501 24.9997C65.0591 25.0199 64.9788 25.0734 64.9251 25.1497C64.9251 25.1497 64.8001 25.3247 64.9376 25.4622C64.9376 25.4622 65.1376 25.5872 65.2126 25.3372C65.2126 25.3622 65.2751 25.5497 65.1626 25.6997C65.1626 25.6997 64.6626 26.4497 63.3001 25.6872L61.5126 24.6747C61.5126 24.6747 60.6251 24.2122 60.0626 24.9372C60.0626 24.9372 59.6376 25.5372 60.2001 25.9247C60.2001 25.9247 60.6251 26.1747 60.8751 25.7747C60.8751 25.7747 61.1001 25.3872 60.7501 25.2247C60.7501 25.2247 60.4501 25.0747 60.3376 25.3747C60.2126 25.6747 60.5626 25.7497 60.5876 25.5372C60.5876 25.5372 60.5876 25.4872 60.6251 25.5372L60.6001 25.5497Z" fill="#F5CE00" stroke="black" stroke-width="0.15" stroke-miterlimit="2.6"/>
<path d="M53.4998 28.6498V27.5248C53.4998 27.4248 53.4998 27.3748 53.6498 27.2498C53.7748 27.1498 53.9123 26.9623 54.1123 27.4623C54.1123 27.4623 54.5123 27.0248 54.6373 26.9623C54.6373 26.9623 54.8873 26.7748 55.0498 27.0498C55.0498 27.0498 55.2498 26.7248 55.4248 26.6498C55.4248 26.6498 55.8248 26.3998 55.8373 27.1748L56.1498 26.8748C56.1498 26.8748 56.3998 26.6873 56.6748 26.9623C56.6748 26.9623 57.1123 27.4123 57.1748 27.5373C57.1748 27.5373 57.2748 27.6623 57.2998 27.8748C57.2998 27.8748 57.2998 28.1248 57.4248 28.2498C57.4248 28.2498 57.5623 28.3748 57.6998 28.3998C57.6998 28.3998 58.0123 28.4123 58.1498 28.7248C58.1498 28.7248 58.1873 28.6623 58.3498 30.1248V32.8123L56.5498 34.9498L53.6623 34.1248L52.5123 33.6373L52.2373 32.8123L53.3623 32.0748L53.9623 30.4498L53.7748 29.2873L53.4998 28.6373V28.6498Z" fill="#E4CB5E" stroke="black" stroke-width="0.15" stroke-miterlimit="2.6"/>
<path d="M61.4502 30.0498L61.6002 29.8623L61.9127 29.6123C61.9127 29.6123 62.4127 30.9123 62.4377 31.1998V31.5998C62.4377 31.5998 63.1877 31.7998 63.3377 32.9373L62.7127 34.0873L61.7377 33.5373L61.4502 33.3498V30.0623V30.0498Z" fill="#784421" stroke="black" stroke-width="0.15"/>
<path d="M52.2876 39.0496C52.2876 39.0496 52.3126 39.0121 52.2876 38.9746L52.2251 39.0246C52.2251 39.0246 52.0376 39.2371 52.2001 39.5746C52.2001 39.5746 52.2001 39.6246 52.2376 39.5996C52.2376 39.5996 52.2751 39.5996 52.2376 39.5621C52.2376 39.5621 52.1001 39.2621 52.2876 39.0621V39.0496Z" fill="white"/>
<path d="M55.2123 38.8248C55.2123 38.8248 55.2248 38.7248 55.1623 38.6248C55.1623 38.6248 55.1248 38.5498 55.1373 38.4373M55.8373 27.1748C55.8373 27.1748 55.8373 27.4623 55.9248 27.6748C55.9998 27.8748 56.2873 28.2373 56.2998 28.4123" stroke="black" stroke-width="0.15" stroke-miterlimit="10"/>
<path d="M62.6252 36.9375C62.6252 36.9375 63.0752 36.95 63.3127 37.0875C63.5627 37.1875 63.7377 37.3125 64.0002 37.4875C64.0002 37.4875 64.1252 37.65 64.6502 37.55C64.6502 37.55 65.5502 37.3375 65.5502 38.05C65.5502 38.05 66.6377 38.125 66.2002 39.0875C66.2002 39.0875 65.9002 39.8375 65.2752 39.3125C65.2752 39.3125 65.6752 39.875 64.9002 40.1C64.9002 40.1 64.3502 40.25 64.1877 39.6625C64.1877 39.6625 64.0877 39.4375 64.3127 39.1625C64.3127 39.1625 64.0502 39.1125 63.8752 38.825C63.8752 38.825 64.4377 39.55 63.8127 39.825C63.8127 39.825 63.0252 40.0125 62.9752 39.2C62.9752 39.2 63.0377 38.8 62.7252 38.6625C62.7252 38.6625 62.1002 38.5125 61.8252 37.8375C61.8252 37.8375 62.7252 37.35 62.6377 36.9375H62.6252Z" fill="#D40000" stroke="black" stroke-width="0.15" stroke-linejoin="round"/>
<path d="M55.4751 28.4252L56.2251 34.4002M55.6626 28.4127L56.4876 33.9877M55.8001 28.3877L56.7751 33.9127" stroke="black" stroke-width="0.15" stroke-miterlimit="10"/>
<path d="M57.3251 33.4371L57.6001 33.3496L55.8501 27.3496H55.7876L57.3251 33.4371Z" fill="#784421" stroke="black" stroke-width="0.15"/>
<path d="M56.3376 28.1621L58.1001 32.5996M56.2251 28.2246L57.9251 32.8496" stroke="black" stroke-width="0.15" stroke-miterlimit="10"/>
<path d="M53.4498 40.1998C53.4498 40.1998 53.2373 40.0123 53.2748 39.6623C53.2748 39.6623 53.2748 39.5873 53.2373 39.5748C53.2373 39.5748 53.1998 39.5623 53.1998 39.6498C53.1998 39.6498 53.1373 40.0123 53.3873 40.2123C53.3873 40.2123 53.3998 40.2498 53.4373 40.2373C53.4373 40.2373 53.4623 40.2373 53.4373 40.1998H53.4498Z" fill="white"/>
<path d="M56.4375 28.0996L58.225 32.1496M55.9375 28.3496L57.0625 33.8121" stroke="black" stroke-width="0.15" stroke-miterlimit="10"/>
<path d="M65.0001 32.375C64.2126 31.925 64.0375 30.95 64.0375 30.95C63.9246 30.3476 63.9942 29.7251 64.2376 29.1625C64.7376 28.0875 65.6251 27.875 65.6251 27.875C65.6251 27.875 64.7626 28.475 64.5251 29.275C64.5251 29.275 64.35 29.9625 64.45 30.6125C64.55 31.3 64.5126 31.125 64.6751 31.65L65.0001 32.4V32.375Z" fill="#F5CE00" stroke="black" stroke-width="0.15" stroke-miterlimit="2.6"/>
<path d="M61.5875 29.8379L58.2625 30.9004L58.0875 32.4004C57.3 33.5379 55.6875 33.7379 55.6875 33.7379L56.9375 35.0754L59.3125 35.5754L60.5875 34.6004L61.7375 33.5504C61.6125 32.9879 61.675 32.1504 61.675 32.1504C61.675 32.0004 61.7375 31.6754 61.7375 31.6754C61.7375 31.6754 61.55 30.3379 61.5875 29.8629V29.8379Z" fill="#784421" stroke="black" stroke-width="0.15"/>
<path d="M58.1252 32.0254C58.1252 32.0254 60.3252 31.3379 61.6252 30.7754M57.0752 33.2754C57.0752 33.2754 59.8252 32.7754 61.7377 31.6754L62.4377 31.2004" stroke="black" stroke-width="0.15" stroke-miterlimit="10"/>
<path d="M62.4376 31.5996L61.6876 32.1496C61.6876 32.1496 58.6251 33.5496 56.2876 33.5996M61.6751 33.1496C61.6751 33.1496 59.3251 34.3746 58.0001 34.3746" stroke="black" stroke-width="0.15" stroke-miterlimit="10"/>
<path d="M64.4751 29.7502C64.4751 29.7502 65.1751 29.4377 65.5251 29.7502C65.5251 29.7502 65.9751 29.4752 66.4751 29.7502C66.4751 29.7502 66.9251 30.0502 67.2501 30.4002C67.2501 30.4002 67.4751 30.5877 67.4001 31.2002C67.4001 31.2002 67.2751 31.6377 67.3626 31.8377C67.3626 31.8377 67.5001 31.8127 67.8001 32.1877C67.8001 32.1877 68.2126 32.6252 68.5501 32.2252C68.5501 32.2252 68.4501 32.8002 67.8001 32.7002C67.8001 32.7002 68.1001 32.9502 67.8376 33.5752C67.8376 33.5752 67.6376 34.0252 67.9626 34.6002C67.9626 34.6002 67.3876 34.3752 67.4126 33.7002C67.4126 33.7002 67.4626 33.2502 67.2876 32.9502C67.2876 32.9502 67.4626 33.2252 67.0751 33.8377C67.0751 33.8377 66.7751 34.2877 67.0251 34.7377C67.0251 34.7377 66.4626 34.5377 66.5251 33.8627C66.5626 33.1877 66.9001 33.4627 66.6876 32.8377C66.6876 32.8377 66.6376 33.1627 66.4751 33.3377C66.3506 33.4428 66.2569 33.5796 66.2041 33.7337C66.1513 33.8878 66.1412 34.0534 66.1751 34.2127C66.1751 34.2127 65.8501 33.7877 65.9251 33.3627C66.0001 32.9252 66.0751 32.8127 66.0751 32.8127L65.0376 32.2127L64.5126 31.2752L64.4751 29.7502Z" fill="#D40000" stroke="black" stroke-width="0.15" stroke-linejoin="round"/>
<path d="M52.575 33.55C52.575 33.55 52.675 33.0875 53.1125 33.25C53.1125 33.25 53.2625 32.5 54.075 32.475C54.8875 32.45 54.925 33.275 54.925 33.325C54.925 33.325 55.175 32.975 55.5625 33.0125C55.5625 33.0125 56.25 32.975 56.0125 34.075L56.1375 34.225C56.1375 34.225 56.65 32.9875 57.725 33.3C57.725 33.3 58.775 33.625 58.1 34.6375C58.1 34.6375 58.625 35.325 59.05 35.2625C59.5 35.2 59.8875 35.0625 60.325 34.2875C60.775 33.5125 61.7875 33.3875 62.0375 33.4375C62.2875 33.475 62.5 33.6625 62.5375 33.8375C62.5375 33.8375 63.075 32.05 65.0125 32.3125L65.7875 32.725L66.0875 32.85L65.6375 34.1L64.5875 36.5L63.7625 36.75L62.9125 36.2625L62.6125 36.4125V37.15L61.4875 37.95L60.7125 38.2625L59.8625 38.8625L59.65 39.3875C59.65 39.3875 59.1875 39.175 58.65 39.3875L58.475 38.9375L57.975 38.475L56.025 37.55L55.6875 36.425L55.325 36.2625L54.925 36.7125L54.3625 36.7875L53.4875 36.1875L52.5625 33.5625L52.575 33.55Z" fill="white" stroke="#00247D" stroke-width="0.15" stroke-miterlimit="10"/>
<path d="M61.0249 24.7501C61.0249 24.7501 60.2749 24.7251 60.3124 25.5001" stroke="black" stroke-width="0.15" stroke-miterlimit="2.6"/>
<path d="M65.875 32.9128C64.6 32.5128 64.25 31.1253 64.25 31.1253C64.0971 30.4796 64.1496 29.8022 64.4 29.1878C65 27.8128 65.9875 27.8128 65.9875 27.8128C66.1147 27.7944 66.2441 27.8257 66.3488 27.9001C66.4536 27.9746 66.5256 28.0866 66.55 28.2128C66.6 28.5128 66.3875 28.6253 66.3875 28.6253C66.05 28.8128 65.825 28.5628 65.825 28.5628C65.675 28.3628 65.7875 28.2003 65.7875 28.2003C65.875 28.0753 66.0375 28.1503 66.0375 28.1503C66.2 28.1753 66.1625 28.3503 66.1625 28.3503C66.1625 28.3503 66.2125 28.1503 66.0125 28.1253C66.0125 28.1253 65.6125 28.0378 65.1625 28.6003C65.1625 28.6003 64.575 29.3628 64.575 30.3628C64.575 30.3628 64.5 32.2128 66.4125 32.6878C66.4125 32.6878 66.2125 32.9878 65.8375 34.0753C65.8375 34.0753 65.425 35.4753 65.0375 36.2378C65.0375 36.2378 64.5 37.3128 63.3 36.8753C63.3 36.8753 62.6 36.5628 62.6 36.0628C62.6 36.0628 62.5625 35.5878 62.975 35.5628C62.975 35.5628 63.3875 35.5253 63.3875 35.8753C63.3875 35.8753 63.3875 36.2503 62.95 36.1753C62.95 36.1753 62.8 36.1378 62.8125 35.9878C62.8125 35.9878 62.8375 35.8378 63.0375 35.9128C63.225 35.9878 63.0375 35.9128 63.0375 35.9003C63.0375 35.9003 62.9625 35.8628 62.8875 35.9003C62.8875 35.9003 62.8125 35.9003 62.8125 36.0253C62.8125 36.0253 62.8125 36.1003 62.9 36.1628L63.1125 36.1878C63.1125 36.1878 63.2375 36.4378 63.4875 36.5253C63.6369 36.5714 63.795 36.5818 63.9491 36.5558C64.1032 36.5297 64.2491 36.4679 64.375 36.3753C64.5427 36.23 64.6715 36.0453 64.75 35.8378C65.0024 35.2897 65.2195 34.726 65.4 34.1503C65.4 34.1503 65.625 33.4378 65.825 33.0628L65.875 32.9128Z" fill="#F5CE00" stroke="black" stroke-width="0.15" stroke-miterlimit="2.6"/>
<path d="M62.2501 36.4251C62.2501 36.4251 62.5001 36.4001 62.5001 36.6126C62.5001 36.6126 62.4876 36.9126 62.1001 36.8501C62.1001 36.8501 61.7251 36.7751 61.8501 36.3501C61.8501 36.3501 61.9501 36.0626 62.3001 36.1001C62.3001 36.1001 62.6501 36.1001 62.8001 36.5751C62.8001 36.5751 62.9251 36.9876 62.7126 37.3251C62.4876 37.7001 61.9376 37.9501 61.6626 38.0751C61.6626 38.0751 60.5751 38.4876 60.2501 38.7376C60.2501 38.7376 59.7501 39.1001 59.9751 39.4376C59.9751 39.4376 60.0626 39.5751 60.1876 39.5751C60.1876 39.5751 60.3376 39.5751 60.3501 39.4251C60.3501 39.4251 60.3501 39.5126 60.2626 39.5501C60.2626 39.5501 60.1626 39.6001 60.0501 39.5126C60.0501 39.5126 59.9251 39.3876 60.0251 39.2126C60.0251 39.2126 60.1501 39.0126 60.4751 39.1376C60.4751 39.1376 60.7251 39.2751 60.6251 39.5501C60.6251 39.5501 60.5126 39.8126 60.2001 39.8001C60.2001 39.8001 59.9626 39.8001 59.8001 39.6501C59.5501 39.3876 59.5501 38.9001 59.7751 38.6501C59.7751 38.6501 59.9626 38.3876 60.3626 38.2001L61.4876 37.7626C61.8126 37.6251 62.1001 37.4751 62.2876 37.2501C62.2876 37.2501 62.4501 37.0751 62.5126 36.7501C62.5126 36.7501 62.5626 36.5001 62.4126 36.4501L62.2626 36.4126L62.2501 36.4251Z" fill="#F5CE00" stroke="black" stroke-width="0.15" stroke-miterlimit="2.6"/>
<path d="M62.2749 36.4252C62.2749 36.4252 62.5374 36.3752 62.7124 36.7002C62.7124 36.7002 62.7999 36.8877 62.8124 37.0127M62.8999 35.8877C62.8999 35.8877 62.6374 35.9252 62.7749 36.3127C62.9124 36.6752 63.1499 36.7752 63.2124 36.8377" stroke="black" stroke-width="0.15" stroke-miterlimit="2.6"/>
<path d="M57.7 25.5501C57.7 25.5501 57.7 25.6501 57.825 25.6751C57.825 25.6751 57.925 25.7001 57.9875 25.5626V25.5251C57.9875 25.4626 58.025 25.2751 57.8375 25.1126C57.8375 25.1126 57.4875 24.8501 56.8625 25.1751C56.8625 25.1751 56.3625 25.4251 56.025 25.6251C56.025 25.6251 55.1375 26.1001 55.025 26.1251C55.025 26.1251 54.625 26.3251 54.025 26.3501C54.025 26.3501 53.2125 26.4126 52.875 25.8376C52.875 25.8376 52.6 25.4001 52.875 25.1126C52.875 25.1126 52.975 24.9876 53.15 25.0126C53.225 25.0251 53.3 25.0626 53.375 25.1626C53.375 25.1626 53.5 25.3376 53.3625 25.4751C53.3625 25.4751 53.1625 25.6001 53.0875 25.3501C53.0875 25.3751 53.05 25.5501 53.15 25.7251C53.15 25.7251 53.65 26.4626 55 25.6876L56.7875 24.6876C56.7875 24.6876 57.6875 24.2251 58.2375 24.9376C58.2375 24.9376 58.6625 25.5376 58.1125 25.9376C58.1125 25.9376 57.7 26.1876 57.425 25.7876C57.425 25.7876 57.225 25.4126 57.55 25.2376C57.55 25.2376 57.85 25.0876 57.9875 25.3876C58.1125 25.6876 57.7375 25.7626 57.7125 25.5501C57.7125 25.5501 57.7125 25.5001 57.7 25.5501ZM53.3 32.3876C54.0875 31.9501 54.275 30.9501 54.275 30.9501C54.45 29.9501 54.0625 29.1626 54.0625 29.1626C53.5625 28.0876 52.6875 27.8751 52.6875 27.8751C52.6875 27.8751 53.5375 28.4751 53.775 29.2751C53.775 29.2751 53.975 29.9626 53.85 30.6126C53.75 31.3001 53.7875 31.1251 53.625 31.6501L53.3 32.3876Z" fill="#F5CE00" stroke="black" stroke-width="0.15" stroke-miterlimit="2.6"/>
<path d="M57.2998 24.7501C57.2998 24.7501 58.0498 24.7251 57.9998 25.5001" stroke="black" stroke-width="0.15" stroke-miterlimit="2.6"/>
<path d="M52.4123 32.9128C53.6998 32.5128 54.0373 31.1253 54.0373 31.1253C54.1942 30.4809 54.1461 29.8036 53.8998 29.1878C53.2998 27.8128 52.3123 27.8128 52.3123 27.8128C52.1851 27.7944 52.0557 27.8257 51.951 27.9001C51.8462 27.9746 51.7742 28.0866 51.7498 28.2128C51.7123 28.5128 51.9123 28.6253 51.9123 28.6253C52.2623 28.8128 52.4873 28.5628 52.4873 28.5628C52.6248 28.3628 52.5123 28.2003 52.5123 28.2003C52.4248 28.0753 52.2623 28.1503 52.2623 28.1503C52.1123 28.1753 52.1373 28.3503 52.1373 28.3503C52.1373 28.3503 52.0998 28.1503 52.2873 28.1253C52.2873 28.1253 52.6873 28.0378 53.1373 28.6003C53.1373 28.6003 53.7373 29.3628 53.7373 30.3628C53.7373 30.3628 53.8123 32.2128 51.8873 32.6878C51.8873 32.6878 52.0998 32.9878 52.4623 34.0753C52.4623 34.0753 52.8873 35.4753 53.2873 36.2378C53.2873 36.2378 53.8123 37.3128 54.9998 36.8753C54.9998 36.8753 55.6998 36.5628 55.6998 36.0628C55.6998 36.0628 55.7498 35.5878 55.3248 35.5628C55.3248 35.5628 54.9123 35.5253 54.9123 35.8753C54.9123 35.8753 54.9123 36.2503 55.3623 36.1753C55.3623 36.1753 55.5123 36.1378 55.4873 35.9878C55.4873 35.9878 55.4623 35.8378 55.2748 35.9128C55.0748 35.9878 55.2748 35.9128 55.2748 35.9003C55.2748 35.9003 55.3373 35.8628 55.4123 35.9003C55.4123 35.9003 55.4873 35.9003 55.4873 36.0253C55.4873 36.0253 55.4873 36.1003 55.3998 36.1628L55.2123 36.1878C55.2123 36.1878 55.0873 36.4378 54.8123 36.5253C54.6654 36.5745 54.5086 36.5866 54.3559 36.5604C54.2032 36.5342 54.0594 36.4706 53.9373 36.3753C53.7697 36.23 53.6408 36.0453 53.5623 35.8378C53.3057 35.29 53.0844 34.7263 52.8998 34.1503C52.8998 34.1503 52.6748 33.4378 52.4998 33.0628L52.4248 32.9128H52.4123Z" fill="#F5CE00" stroke="black" stroke-width="0.15" stroke-miterlimit="2.6"/>
<path d="M56.0625 36.4251C56.0625 36.4251 55.8125 36.4001 55.8125 36.6126C55.8125 36.6126 55.8125 36.9126 56.2125 36.8501C56.2125 36.8501 56.5875 36.7751 56.45 36.3501C56.45 36.3501 56.3625 36.0626 56 36.1001C56 36.1001 55.6625 36.1001 55.5 36.5751C55.5 36.5751 55.3875 36.9876 55.6 37.3251C55.825 37.7001 56.375 37.9501 56.6375 38.0751C56.6375 38.0751 57.725 38.4876 58.0625 38.7376C58.0625 38.7376 58.55 39.1001 58.325 39.4376C58.325 39.4376 58.25 39.5751 58.1125 39.5751C58.1125 39.5751 57.9625 39.5751 57.95 39.4251C57.95 39.4251 57.95 39.5126 58.0375 39.5501C58.0375 39.5501 58.15 39.6001 58.25 39.5126C58.25 39.5126 58.375 39.3876 58.275 39.2126C58.275 39.2126 58.15 39.0126 57.85 39.1376C57.85 39.1376 57.575 39.2751 57.7 39.5501C57.7 39.5501 57.7875 39.8126 58.1 39.8001C58.1 39.8001 58.35 39.8001 58.5 39.6501C58.75 39.3876 58.75 38.9001 58.55 38.6501C58.55 38.6501 58.3375 38.3876 57.95 38.2001C57.7125 38.1251 57.2625 37.9376 56.825 37.7626C56.4875 37.6251 56.2 37.4751 56.0125 37.2501C56.0125 37.2501 55.85 37.0751 55.7875 36.7501C55.7875 36.7501 55.75 36.5001 55.9 36.4501L56.05 36.4126L56.0625 36.4251Z" fill="#F5CE00" stroke="black" stroke-width="0.15" stroke-miterlimit="2.6"/>
<path d="M56.025 36.4251C56.025 36.4251 55.7625 36.3751 55.6 36.7001C55.6 36.7001 55.5125 36.8876 55.4875 37.0126M55.4 35.8876C55.4 35.8876 55.675 35.9251 55.5375 36.3126C55.3875 36.6751 55.1625 36.7751 55.0875 36.8376M58.5125 25.4501C58.5125 25.4501 59.1625 25.0376 59.8125 25.4876M54.85 29.4001C54.85 29.4001 54.9375 29.0251 54.525 28.4001C54.525 28.4001 54.25 27.8126 54.125 27.4626M55.05 27.0501L55.3375 27.8751L55.7125 28.7251" stroke="black" stroke-width="0.15" stroke-miterlimit="2.6"/>
<path d="M55.15 29.7879C55.15 29.7879 55.4 30.0504 55.375 30.4879M54.3625 29.5004C54.3625 29.5004 54.625 29.6254 54.6 30.3504C54.6 30.3504 54.5875 30.8504 54.975 31.1254M54.3125 31.3004C54.3125 31.3004 55.15 31.2129 55.2125 31.7379C55.2125 31.7379 55.2125 32.2379 55.5125 32.2754C55.5125 32.2754 55.925 32.3129 56.0125 32.7254M54.5875 31.8754C54.5875 31.8754 54.7375 32.0879 54.8875 32.2004M55.6625 31.3254C55.6625 31.3254 55.8625 31.6629 55.9125 31.8379M56.575 27.4629C56.575 27.4629 56.775 27.7254 56.9625 27.8379M57.35 29.0379C57.35 29.0379 57.775 29.2379 57.725 30.2879C57.725 30.2879 57.65 30.9129 57.8375 31.2504" stroke="black" stroke-width="0.15" stroke-miterlimit="10"/>
<path d="M55.3877 28.3252L55.4377 28.4252C55.4377 28.4252 56.1877 28.4627 56.5752 27.9502L56.5377 27.8502C56.5377 27.8502 55.8752 27.8127 55.4127 28.3252H55.3877Z" fill="#784421" stroke="black" stroke-width="0.15"/>
<path d="M58.0874 32.3123C58.0874 32.3123 60.6624 31.5623 61.6624 31.1123" stroke="black" stroke-width="0.15" stroke-miterlimit="10"/>
<path d="M57.8126 27.5623L57.7876 27.4873L59.0501 26.9873L59.0876 27.0873L57.8126 27.5623Z" fill="#784421" stroke="black" stroke-width="0.15"/>
<path d="M57.9248 27.5125L58.7748 31.675M58.0748 27.475L59.0373 31.6M58.2373 27.4L59.2873 31.5125M58.6623 27.25L60.0998 30.325M58.8498 27.2L60.3873 30.225M58.9748 27.125L60.6498 30.1625M58.7123 31.7125L59.3623 31.5125M58.2248 31.3125C58.2248 31.3125 60.1248 30.75 61.5998 30.1625M58.1748 31.5C58.1748 31.5 60.6123 30.875 61.5748 30.4M58.9248 33.475L59.0498 33.8875L59.3998 33.7625L59.2748 33.375M59.8998 33.2125L60.0248 33.5875L60.3748 33.475L60.2498 33.1M58.2498 30.9L58.2248 30.375L61.4123 29.4125L61.5748 29.8625M59.5748 29.9625L59.7373 30.4375M60.6873 29.6375L60.8873 30.0875M60.9498 29.55L61.1498 29.9625M61.1998 29.4625L61.3998 29.9125M61.3998 29.4125L61.7498 29.2125L61.8998 29.6M61.5748 29.3125L61.7498 29.725" stroke="black" stroke-width="0.15" stroke-miterlimit="10"/>
<path d="M53.6875 35.3877C53.6875 35.3877 53.0625 34.7502 53.6875 34.1377C53.6875 34.1377 53 33.8127 53.1125 33.2627M54.8125 35.8877C54.8125 35.8877 54.15 35.9752 54.35 34.7127C54.35 34.7127 54.075 35.2127 53.9875 35.4627C53.9485 35.587 53.9518 35.7208 53.9971 35.843C54.0423 35.9652 54.1269 36.0688 54.2375 36.1377C54.35 36.2127 54.925 36.3627 55.1125 35.9877M54.075 33.9627C54.075 33.9627 53.8125 34.2002 54 34.6377M54.35 34.0127C54.35 34.0127 54.375 34.4502 54.6 34.6877M54.5375 33.8502C54.5375 33.8502 54.5375 34.3502 54.9 34.6752M54.7125 33.6752C54.7125 33.6752 54.7125 34.2377 55.1375 34.6002M56.825 34.5127C56.825 34.5127 57.025 34.0252 57.475 34.0627C57.475 34.0627 57.2625 34.1627 57.2625 34.3752C57.2625 34.3752 57.2375 34.7502 57.625 34.7752C57.625 34.7752 57.9375 34.8252 58.1 34.6502" stroke="#00247D" stroke-width="0.15" stroke-miterlimit="10"/>
<path d="M57.8877 36.6379C57.8877 36.6379 56.7752 36.1129 56.8877 35.3754C56.8877 35.3754 56.9377 34.9254 57.3877 34.7004M57.1377 35.1754C57.1377 35.1754 57.0377 35.4879 57.2627 35.7129M57.4002 34.9629C57.4002 34.9629 57.2502 35.3129 57.4877 35.5629M57.6752 34.7754C57.6752 34.7754 57.5002 35.0754 57.7002 35.3379M56.6502 36.7129C56.6502 36.7129 57.2502 37.2504 57.7252 37.2504M56.4627 36.8879C56.4627 36.8879 57.0252 37.3379 57.3877 37.4129M56.2627 37.0129C56.2627 37.0129 56.9502 37.6254 57.3877 37.6629M59.1002 38.2379C59.1002 38.2379 58.4127 38.6129 58.9502 39.0129M58.6502 37.8379L59.7752 37.2629M58.9377 38.0379C58.9377 38.0379 60.0627 37.3504 60.4002 37.2004M59.5252 38.1004C59.5252 38.1004 60.4877 37.4504 61.0127 37.1629M60.1627 38.0504C60.1627 38.0504 60.8252 37.5504 61.4752 37.1629M61.6877 36.5254C61.6877 36.5254 61.3627 36.0379 60.2877 36.5254C60.2877 36.5254 60.7002 36.1629 61.4752 35.8754M62.5377 33.8379C62.5377 33.8379 62.6377 34.2254 62.5377 34.4629" stroke="#00247D" stroke-width="0.15" stroke-miterlimit="10"/>
<path d="M60.8125 35.7129C60.8125 35.7129 61.0375 35.3879 61.6 35.2129C61.6 35.2129 61.75 35.5879 62.2 35.5254C62.2 35.5254 62.85 35.3879 62.65 34.6504C62.65 34.6504 62.5125 34.1254 61.75 34.0629M64.0125 33.1504C64.0125 33.1504 64.775 33.3004 64.7625 33.9129C64.7625 33.9129 64.8375 34.8629 63.8375 35.0379M64.6625 33.5379C64.6625 33.5379 64.8625 33.0754 65.35 32.8879M64.775 32.6129C64.775 32.6129 64.9875 32.9629 65.125 33.0004M64.675 32.8754C64.675 32.8754 64.8625 33.1379 64.925 33.1879M64.6 33.1254C64.653 33.2003 64.7161 33.2676 64.7875 33.3254M60.625 29.4754C60.625 29.4754 60.775 29.2254 61.1625 29.3254M62.675 31.3004C62.675 31.3004 62.925 30.3254 63.7375 30.6754M63.4125 30.6004C63.4125 30.6004 63.4875 30.1504 63.2875 29.9129M62.8375 30.5629C62.8375 30.5629 62.95 30.7504 62.85 30.9004" stroke="#00247D" stroke-width="0.15" stroke-miterlimit="10"/>
<path d="M64.5252 40.625C64.5252 40.625 65.4502 40.2125 65.1627 39.4875C65.1627 39.4875 65.0752 39.2375 64.8627 39.2625C64.8627 39.2625 64.5127 39.275 64.5752 39.7625C64.5752 39.7625 64.7002 40.2375 64.5127 40.6375L64.5252 40.625Z" fill="#64B4D1" stroke="#00247D" stroke-width="0.15" stroke-miterlimit="2.6"/>
<path d="M64.8501 40.1998C64.8501 40.1998 65.0626 40.0123 65.0376 39.6623C65.0376 39.6623 65.0126 39.5873 65.0376 39.5748C65.0376 39.5748 65.0876 39.5623 65.0876 39.6498C65.0876 39.6498 65.1501 40.0123 64.9126 40.2123C64.9126 40.2123 64.9001 40.2498 64.8626 40.2373C64.8626 40.2373 64.8376 40.2373 64.8626 40.1998H64.8501Z" fill="white"/>
<path d="M65.8377 39.9749C65.8377 39.9749 66.4877 39.5749 66.1377 38.8874C66.1377 38.8874 66.0252 38.6999 65.8377 38.7374C65.8377 38.7374 65.4377 38.8624 65.7502 39.4249C65.7502 39.4249 65.9002 39.7874 65.8377 39.9874V39.9749Z" fill="#64B4D1" stroke="#00247D" stroke-width="0.15" stroke-miterlimit="2.6"/>
<path d="M65.9999 39.0496C65.9999 39.0496 65.9749 39.0121 65.9999 38.9746L66.0499 39.0246C66.0499 39.0246 66.2374 39.2371 66.0874 39.5746C66.0874 39.5746 66.0749 39.6246 66.0249 39.5996V39.5621C66.0249 39.5621 66.1749 39.2621 65.9999 39.0621V39.0496Z" fill="white"/>
<path d="M63.8749 40.4502C63.8749 40.4502 63.1499 40.2752 63.2874 39.5127C63.2874 39.5127 63.3624 39.1877 63.6749 39.2377C63.6749 39.2377 64.0499 39.3377 63.7999 39.8127C63.7999 39.8127 63.6624 40.1377 63.8874 40.4502H63.8749Z" fill="#64B4D1" stroke="#00247D" stroke-width="0.15" stroke-miterlimit="2.6"/>
<path d="M63.5998 39.5625V39.5C63.5998 39.5 63.6498 39.5 63.6623 39.525C63.6623 39.525 63.7373 39.65 63.6748 39.825C63.6748 39.825 63.6123 39.9375 63.6498 40.05C63.6498 40.05 63.6498 40.0875 63.6123 40.1L63.5873 40.05C63.5873 40.05 63.5498 39.95 63.6123 39.825C63.6123 39.825 63.6873 39.65 63.6123 39.5625H63.5998Z" fill="white"/>
<path d="M64.4002 39.0377C64.4002 39.0377 64.8252 38.8002 65.1502 39.0752C65.1502 39.0752 65.1252 38.9252 64.8502 38.8627C64.8502 38.8627 64.7252 38.4627 64.3252 38.5002C64.3252 38.5002 64.4752 38.7002 64.7002 38.8502C64.7002 38.8502 64.4752 38.8752 64.4002 39.0377ZM64.7002 37.9502C64.7002 37.9502 65.0002 38.1627 65.1002 38.3002C65.1002 38.3002 65.2127 38.1502 65.3502 38.0752C65.3502 38.0752 65.2002 38.0377 65.1002 38.1127C65.1002 38.1127 64.9627 37.9877 64.7252 37.9502H64.7002Z" fill="black"/>
<path d="M63.1002 38.8254C63.1002 38.8254 63.0627 38.7254 63.1377 38.6254C63.1377 38.6254 63.1877 38.5504 63.1627 38.4379M66.0877 32.4379C66.0877 32.4379 66.5252 32.4129 66.5877 32.0629M67.3377 31.8379C67.3377 31.8379 67.1877 31.8379 67.0627 31.9879C67.0627 31.9879 66.9502 32.1379 66.8127 32.1129" stroke="black" stroke-width="0.15" stroke-miterlimit="10"/>
<path d="M65.4502 31.1499C65.4502 31.1499 65.6752 31.1499 65.7877 31.0499C65.7877 31.0499 65.9252 30.9624 66.0002 31.0999C66.0002 31.0999 66.1252 31.2999 65.9002 31.3874C65.9002 31.3874 65.6252 31.5374 66.0627 31.8124C66.0627 31.8124 65.5377 31.6124 65.7627 31.3624C65.7627 31.3624 65.9877 31.2124 65.8877 31.1499C65.8877 31.1499 65.8627 31.0999 65.7752 31.1499C65.6877 31.2249 65.5127 31.1999 65.4502 31.1499Z" fill="black"/>
<path d="M65.75 25.6998C65.75 25.6998 65.85 25.5498 65.8125 25.1498C65.7625 24.7498 66.1375 24.6873 66.2625 24.7998C66.2625 24.7998 66.4125 24.9248 66.2625 25.1873C66.1588 25.4142 65.9769 25.5961 65.75 25.6998Z" fill="#64B4D1" stroke="#00247D" stroke-width="0.15" stroke-miterlimit="2.6"/>
<path d="M65.875 25.3754C65.875 25.3754 66.025 25.2379 65.95 24.9254L65.975 24.9004H66.0125C66.0125 24.9004 66.0875 25.2504 65.9375 25.4254C65.9375 25.4254 65.9125 25.4629 65.875 25.4254V25.3754Z" fill="white"/>
<path d="M65.6377 25.5498C65.6377 25.5498 65.6377 25.3748 65.3502 25.0998C65.0502 24.7998 65.2877 24.5498 65.4752 24.5498C65.4752 24.5498 65.6377 24.5498 65.7252 24.8373C65.7818 25.0777 65.7507 25.3303 65.6377 25.5498Z" fill="#64B4D1" stroke="#00247D" stroke-width="0.15" stroke-miterlimit="2.6"/>
<path d="M65.6002 25.1754C65.6002 25.1754 65.6002 24.9754 65.3252 24.7629V24.7129H65.3752C65.3752 24.7129 65.6627 24.9379 65.6627 25.1879C65.6627 25.1879 65.6627 25.2254 65.6252 25.2254C65.6252 25.2254 65.6002 25.2254 65.6002 25.1754Z" fill="white"/>
<path d="M65.2501 25.4124C65.2501 25.4124 65.1626 25.2874 64.8126 25.1499C64.4501 25.0249 64.5376 24.7124 64.6876 24.6499C64.6876 24.6499 64.8501 24.5874 65.0126 24.7874C65.1603 24.9618 65.2402 25.1838 65.2376 25.4124H65.2501Z" fill="#64B4D1" stroke="#00247D" stroke-width="0.15" stroke-miterlimit="2.6"/>
<path d="M65.0749 25.1627C65.0749 25.1627 64.9999 24.9877 64.6749 24.9002C64.6749 24.9002 64.6499 24.9002 64.6499 24.8627C64.6499 24.8627 64.6499 24.8377 64.6874 24.8502C64.6874 24.8502 65.0499 24.9252 65.1499 25.1502L65.1374 25.1877C65.1374 25.1877 65.0999 25.1877 65.0874 25.1627H65.0749Z" fill="white"/>
<path d="M65.4627 25.5499C65.4627 25.5499 65.3002 25.6124 64.9127 25.4249C64.5252 25.2374 64.3627 25.5624 64.4377 25.7124C64.4377 25.7124 64.5002 25.9124 64.7877 25.8624C65.0419 25.8486 65.2822 25.7418 65.4627 25.5624V25.5499Z" fill="#64B4D1" stroke="#00247D" stroke-width="0.15" stroke-miterlimit="2.6"/>
<path d="M64.5748 25.6748C64.5748 25.6748 64.7498 25.7998 65.0623 25.6748H65.0998C65.0998 25.6748 65.0998 25.6998 65.0748 25.7123C65.0748 25.7123 64.7498 25.8623 64.5248 25.7248C64.5248 25.7248 64.4998 25.7248 64.5248 25.6873H64.5748V25.6748Z" fill="white"/>
<path d="M64.9126 24.3379C64.9126 24.3379 65.0876 24.4379 65.0626 24.6504" stroke="black" stroke-width="0.15" stroke-miterlimit="2.6"/>
<path d="M65.75 24.375C65.75 24.375 65.825 24.6125 65.75 24.75" stroke="black" stroke-width="0.15" stroke-miterlimit="10"/>
<path d="M52.5249 25.7004C52.5249 25.7004 52.4249 25.5504 52.4624 25.1504C52.5124 24.7254 52.1499 24.6879 52.0249 24.8004C52.0249 24.8004 51.8749 24.9254 51.9999 25.1879C52.1067 25.417 52.2934 25.5992 52.5249 25.7004Z" fill="#64B4D1" stroke="#00247D" stroke-width="0.15" stroke-miterlimit="2.6"/>
<path d="M52.3874 25.3754C52.3874 25.3754 52.2624 25.2379 52.3124 24.9254V24.9004H52.2624C52.2624 24.9004 52.1999 25.2504 52.3499 25.4254C52.3499 25.4254 52.3749 25.4629 52.3874 25.4254V25.3754Z" fill="white"/>
<path d="M52.6501 25.5498C52.6501 25.5498 52.6501 25.3748 52.9501 25.0998C53.2376 24.7998 53.0001 24.5498 52.8251 24.5498C52.8251 24.5498 52.6251 24.5498 52.5751 24.8373C52.5147 25.0762 52.5413 25.3287 52.6501 25.5498Z" fill="#64B4D1" stroke="#00247D" stroke-width="0.15" stroke-miterlimit="2.6"/>
<path d="M52.6873 25.1754C52.6873 25.1754 52.6873 24.9754 52.9373 24.7629C52.9373 24.7629 52.9748 24.7254 52.9373 24.7129H52.9123C52.9123 24.7129 52.6123 24.9379 52.6123 25.1879C52.6123 25.1879 52.6123 25.2254 52.6623 25.2254C52.6623 25.2254 52.6873 25.2254 52.6873 25.1754Z" fill="white"/>
<path d="M53.0377 25.4124C53.0377 25.4124 53.1127 25.2874 53.4752 25.1499C53.8252 25.0249 53.7252 24.7124 53.5877 24.6499C53.5877 24.6499 53.4377 24.5874 53.2627 24.7874C53.1149 24.9618 53.035 25.1838 53.0377 25.4124Z" fill="#64B4D1" stroke="#00247D" stroke-width="0.15" stroke-miterlimit="2.6"/>
<path d="M53.2002 25.1627C53.2002 25.1627 53.2752 24.9877 53.6002 24.9002C53.6002 24.9002 53.6252 24.9002 53.6252 24.8627C53.6252 24.8627 53.6252 24.8377 53.6002 24.8502C53.6002 24.8502 53.2377 24.9252 53.1377 25.1502V25.1877C53.1377 25.1877 53.1877 25.1877 53.2002 25.1627Z" fill="white"/>
<path d="M52.8125 25.5499C52.8125 25.5499 52.9875 25.6124 53.3625 25.4249C53.7375 25.2374 53.9125 25.5624 53.8625 25.7124C53.8625 25.7124 53.775 25.9124 53.4875 25.8624C53.2333 25.8486 52.9931 25.7418 52.8125 25.5624V25.5499Z" fill="#64B4D1" stroke="#00247D" stroke-width="0.15" stroke-miterlimit="2.6"/>
<path d="M53.7 25.6748C53.7 25.6748 53.5375 25.7998 53.2125 25.6748H53.1875V25.7123C53.1875 25.7123 53.5375 25.8623 53.75 25.7248C53.75 25.7248 53.775 25.7248 53.75 25.6873H53.7V25.6748Z" fill="white"/>
<path d="M53.3752 24.3379C53.3752 24.3379 53.1877 24.4379 53.2252 24.6504" stroke="black" stroke-width="0.15" stroke-miterlimit="2.6"/>
<path d="M52.525 24.375C52.525 24.375 52.45 24.6125 52.525 24.75" stroke="black" stroke-width="0.15" stroke-miterlimit="10"/>
<path d="M60.8376 22.2003C60.8376 22.2003 60.9626 22.5378 60.9126 22.8503C60.8751 23.1503 60.9376 23.2127 61.0376 23.2752C61.1251 23.3127 61.3376 23.2253 61.3501 23.0003C61.3501 23.0003 61.6001 23.4753 61.1251 23.7878C61.1251 23.7878 60.7876 24.0002 60.5001 23.7377C60.4001 23.6252 60.3501 23.3627 60.4126 23.1127C60.4126 23.1127 60.4876 22.7752 60.3501 22.4252C60.3501 22.4252 60.5501 22.6253 60.5001 23.0378C60.5001 23.0378 60.4001 23.7877 60.9501 23.7377C60.9501 23.7377 61.3251 23.7378 61.3251 23.2878C61.3251 23.2878 61.1876 23.4378 61.0251 23.3878C60.9496 23.3698 60.884 23.3234 60.8421 23.2581C60.8001 23.1928 60.7851 23.1139 60.8001 23.0378C60.8126 22.8378 60.8751 22.5003 60.8376 22.2003ZM60.2501 23.3753C60.2501 23.3753 60.2001 23.9752 59.6751 24.1127C59.6751 24.1127 59.7501 24.0003 59.6376 23.7003C59.6376 23.7003 59.5126 23.5503 59.5126 23.2878C59.5126 23.2878 59.3626 23.4128 59.5501 23.7628C59.6751 23.9753 59.5501 24.2128 59.5376 24.2253C59.4876 24.2378 60.4001 24.1003 60.2376 23.3878L60.2501 23.3753ZM59.5501 22.8128C59.5501 22.8128 59.4126 22.6627 59.4001 22.3377C59.4001 22.0002 59.3376 21.9128 59.2876 21.8878C59.2876 21.8878 59.3501 22.1752 59.3376 22.3377C59.3267 22.4649 59.3438 22.5929 59.3876 22.7127C59.3876 22.7127 59.0876 22.7502 58.9001 22.3377C58.7376 21.9252 58.5626 21.9627 58.4751 21.9627C58.4751 21.9627 58.5751 21.9752 58.7751 22.3377C58.9751 22.7127 59.0376 22.8002 59.5501 22.8002V22.8128ZM58.2001 21.9378C58.2001 21.9378 58.3501 22.3378 58.3751 22.5378C58.3751 22.5378 57.9876 22.4128 57.8751 22.1003C57.8751 22.1003 57.4751 22.2253 57.6251 22.6878C57.6251 22.6878 57.2626 22.5628 57.1001 22.2878C57.1001 22.2878 57.3001 22.4378 57.4876 22.5003C57.4876 22.5003 57.4626 22.1128 57.9376 21.9753C57.9376 21.9753 58.0126 22.3128 58.2626 22.3878L58.2001 21.9378ZM58.8251 21.2628C58.8251 21.2628 58.9751 21.4503 59.2501 21.4503C59.3273 21.456 59.4046 21.4418 59.4747 21.409C59.5448 21.3761 59.6052 21.3258 59.6501 21.2628C59.6501 21.2628 59.6376 21.5878 59.2501 21.6003C59.2501 21.6003 58.8376 21.6003 58.8376 21.2628H58.8251ZM57.1501 23.5753L57.4001 23.8128C57.4001 23.8128 57.5501 23.9627 57.6501 23.7752C57.6501 23.7752 57.8126 23.4753 58.0126 23.5003C58.0126 23.5003 57.8626 23.5878 57.7126 23.8753C57.7126 23.8753 57.6876 23.9628 57.5626 23.9753C57.5001 23.9753 57.4376 24.0003 57.3376 23.8878C57.3376 23.8878 57.2501 23.7752 57.1501 23.5877V23.5753ZM59.2376 19.9002C58.8376 19.9002 59.1751 20.2003 59.1751 20.2003C59.1751 20.7003 58.7876 20.8753 58.5126 20.7253C58.2376 20.5753 58.4626 20.2253 58.4626 20.2253C58.4626 20.2253 58.1626 20.4127 58.3376 20.7127C58.5376 21.0127 59.0501 20.8628 59.2376 20.6003C59.4251 20.8753 59.9501 21.0127 60.1251 20.7127C60.3376 20.4127 60.0251 20.2127 60.0251 20.2127C60.0251 20.2127 60.2501 20.5752 59.9626 20.7127C59.7001 20.8752 59.2876 20.7127 59.3126 20.2127C59.3126 20.2127 59.6501 19.9002 59.2501 19.9002H59.2376ZM59.4876 19.3503C59.4876 19.3503 59.6376 19.6003 59.6126 19.9753C59.6126 19.9753 59.7251 19.6002 59.4876 19.3627V19.3503ZM58.2376 19.9378C58.2376 19.9378 58.2001 19.6628 57.9376 19.6378C57.9376 19.6378 58.1751 19.8003 58.2376 19.9378ZM60.2376 19.9378C60.2376 19.9378 60.2751 19.6628 60.5501 19.6378C60.5501 19.6378 60.3251 19.8003 60.2501 19.9378H60.2376ZM57.8376 20.3377C57.8376 20.3377 58.0376 20.4003 58.1626 20.2503L57.8376 20.3377ZM57.1626 18.7003C57.1626 18.7003 57.4001 18.6878 57.6376 19.0378C57.6376 19.0378 57.4001 19.1627 57.3376 19.2377C57.3376 19.2377 57.3376 19.1127 57.4626 19.0252C57.4626 19.0252 57.4126 18.8502 57.1626 18.7127V18.7003ZM61.1626 18.7003C61.1626 18.7003 60.9126 18.6878 60.6751 19.0378C60.6751 19.0378 60.9251 19.1627 60.9751 19.2377C60.9751 19.2377 60.9751 19.1127 60.8501 19.0252C60.8501 19.0252 60.9001 18.8502 61.1626 18.7127V18.7003ZM59.3251 18.9753C59.3251 18.9753 59.5376 19.0378 59.8001 18.8878C59.8001 18.8878 60.1251 18.7128 60.3376 18.8878C60.3376 18.8878 60.1626 18.8003 59.8001 18.9753C59.8001 18.9753 59.4626 19.1753 59.3251 18.9753Z" fill="black"/>
<path d="M59.5498 19.1997C59.5498 19.1997 59.7248 18.8872 60.2998 18.9497C60.2998 18.9497 60.1373 19.3997 59.5498 19.1997Z" fill="white"/>
<path d="M59.9252 19.2379C59.9804 19.2379 60.0252 19.1763 60.0252 19.1004C60.0252 19.0245 59.9804 18.9629 59.9252 18.9629C59.87 18.9629 59.8252 19.0245 59.8252 19.1004C59.8252 19.1763 59.87 19.2379 59.9252 19.2379Z" fill="#784421"/>
<path d="M59.9248 19.1877C59.9593 19.1877 59.9873 19.1485 59.9873 19.1002C59.9873 19.0519 59.9593 19.0127 59.9248 19.0127C59.8903 19.0127 59.8623 19.0519 59.8623 19.1002C59.8623 19.1485 59.8903 19.1877 59.9248 19.1877Z" fill="black"/>
<path d="M58.3501 18.5127C58.3501 18.5127 58.7001 18.5502 58.9251 18.6627C58.9251 18.6627 59.1501 18.8127 59.4001 18.6252C59.4001 18.6252 59.6751 18.4502 59.8626 18.2377C59.8626 18.2377 59.4251 18.5252 59.2626 18.5752C59.2626 18.5752 59.1126 18.4502 59.0751 18.2877C59.0751 18.2877 59.0751 18.1627 59.3251 17.9502C59.3251 17.9502 59.0126 18.0502 58.9501 18.3127C58.9898 18.4187 59.0492 18.5162 59.1251 18.6002C59.1251 18.6002 59.0751 18.6377 58.9251 18.5252C58.9251 18.5252 58.5751 18.4252 58.3501 18.5252V18.5127ZM59.2501 20.6377C58.9501 20.9002 59.2501 20.8752 59.2501 20.8752C59.2501 20.8752 59.5501 20.9002 59.2501 20.6252V20.6377ZM59.0751 18.9877C59.0751 18.9877 58.8501 19.0502 58.5751 18.9002C58.5751 18.9002 58.2501 18.7252 58.0376 18.9002C58.0376 18.9002 58.2251 18.8127 58.5751 18.9877C58.5751 18.9877 58.9376 19.1877 59.0751 18.9877Z" fill="black"/>
<path d="M58.8501 19.1997C58.8501 19.1997 58.6626 18.8872 58.1001 18.9497C58.1001 18.9497 58.2501 19.3997 58.8501 19.1997Z" fill="white"/>
<path d="M58.4623 19.2379C58.5175 19.2379 58.5623 19.1763 58.5623 19.1004C58.5623 19.0245 58.5175 18.9629 58.4623 18.9629C58.4071 18.9629 58.3623 19.0245 58.3623 19.1004C58.3623 19.1763 58.4071 19.2379 58.4623 19.2379Z" fill="#784421"/>
<path d="M58.4624 19.1877C58.4969 19.1877 58.5249 19.1485 58.5249 19.1002C58.5249 19.0519 58.4969 19.0127 58.4624 19.0127C58.4279 19.0127 58.3999 19.0519 58.3999 19.1002C58.3999 19.1485 58.4279 19.1877 58.4624 19.1877Z" fill="black"/>
<path d="M69.9998 16.3252V36.5252C69.9998 41.9127 59.2248 43.6752 59.2248 43.6752C59.2248 43.6752 48.4248 41.9252 48.4248 36.5252V16.3252H70.0123H69.9998Z" stroke="black" stroke-width="0.15"/>
<path d="M0 0H40V30H0V0Z" fill="#000066"/>
<path d="M4.6875 0L19.9375 11.3125L35.125 0H40V3.875L25 15.0625L40 26.1875V30H35L20 18.8125L5.0625 30H0V26.25L14.9375 15.125L0 4V0H4.6875Z" fill="white"/>
<path d="M26.5 17.5625L40 27.5V30L23.0625 17.5625H26.5ZM15 18.8125L15.375 21L3.375 30H0L15 18.8125ZM40 0V0.1875L24.4375 11.9375L24.5625 9.1875L36.875 0H40ZM0 0L14.9375 11H11.1875L0 2.625V0Z" fill="#C8102E"/>
<path d="M15.0625 0V30H25.0625V0H15.0625ZM0 10V20H40V10H0Z" fill="white"/>
<path d="M0 12.0625V18.0625H40V12.0625H0ZM17.0625 0V30H23.0625V0H17.0625Z" fill="#C8102E"/>
</g>
<defs>
<clipPath id="clip0_3730_49140">
<rect width="80" height="60" fill="white"/>
</clipPath>
</defs>
</svg>
