<svg width="80" height="60" viewBox="0 0 80 60" fill="none" xmlns="http://www.w3.org/2000/svg">
<g clip-path="url(#clip0_3730_50584)">
<path fill-rule="evenodd" clip-rule="evenodd" d="M0 0H80V60H0V0Z" fill="#229E45"/>
<path fill-rule="evenodd" clip-rule="evenodd" d="M40.1752 54.5L77.8627 30.0375L39.9502 5.5L2.1377 30.0875L40.1752 54.5Z" fill="#F8E509"/>
<path fill-rule="evenodd" clip-rule="evenodd" d="M56.6 30C56.6 38.7875 49.4625 45.9125 40.65 45.9125C37.5009 45.9075 34.4239 44.969 31.8081 43.2156C29.1922 41.4622 27.155 38.9726 25.9539 36.0615C24.7527 33.1505 24.4417 29.9486 25.06 26.8608C25.6783 23.7729 27.1982 20.9377 29.4276 18.7136C31.657 16.4894 34.4958 14.9762 37.585 14.3652C40.6743 13.7541 43.8754 14.0727 46.7837 15.2807C49.6919 16.4887 52.1767 18.5318 53.924 21.1517C55.6712 23.7717 56.6025 26.8509 56.6 30Z" fill="#2B49A3"/>
<path fill-rule="evenodd" clip-rule="evenodd" d="M35.4123 39.5373L34.9123 39.2498L34.4123 39.4998L34.5248 38.9373L34.1248 38.5123L34.6873 38.4498L34.9623 37.9498L35.1998 38.4748L35.7498 38.5748L35.3373 38.9498M46.0873 42.2373L45.5998 41.9498L45.0998 42.1998L45.1998 41.6373L44.8123 41.2248L45.3748 41.1623L45.6373 40.6498L45.8873 41.1748L46.4373 41.2748L46.0123 41.6623M41.4873 37.9123L41.0623 37.6623L40.6248 37.8873L40.7248 37.3998L40.3748 37.0373L40.8748 36.9873L41.0998 36.5373L41.2998 36.9998L41.7873 37.0873L41.4123 37.4248M52.2873 36.3623L51.8623 36.1123L51.4248 36.3373L51.5248 35.8498L51.1873 35.4998L51.6748 35.4498L51.8998 35.0123L52.0998 35.4623L52.5748 35.5498L52.2123 35.8748M41.2998 33.1248L40.7998 32.8498L40.2998 33.0998L40.3998 32.5248L40.0123 32.1123L40.5748 32.0498L40.8373 31.5373L41.0873 32.0623L41.6373 32.1623L41.2123 32.5623M28.1373 28.1873L27.6373 27.9123L27.1373 28.1623L27.2623 27.5873L26.8498 27.1748L27.4248 27.1123L27.6748 26.5998L27.9248 27.1248L28.4748 27.2248L28.0623 27.6123M29.7248 34.7623L29.2248 34.4748L28.7248 34.7248L28.8373 34.1623L28.4373 33.7498L28.9998 33.6748L29.2623 33.1748L29.5123 33.6998L30.0623 33.7998L29.6498 34.1873M46.1498 25.7748L45.6998 25.5248L45.2498 25.7498L45.3498 25.2498L44.9998 24.8748L45.4998 24.8123L45.7373 24.3623L45.9498 24.8373L46.4498 24.9248L46.0748 25.2623M45.2373 30.0498L44.8998 29.8498L44.5373 30.0248L44.6123 29.6248L44.3373 29.3373L44.7373 29.2873L44.9248 28.9373L45.0873 29.3123L45.4623 29.3748L45.1873 29.6498M27.4123 35.9498L27.0748 35.7623L26.7373 35.9248L26.8123 35.5498L26.5498 35.2748L26.9248 35.2248L27.0998 34.8873L27.2623 35.2373L27.6373 35.3123L27.3498 35.5623M52.3748 37.4748L52.0998 37.3373L51.8248 37.4623L51.8873 37.1748L51.6748 36.9748L51.9748 36.9373L52.1248 36.6873L52.2498 36.9373L52.5623 36.9998L52.3248 37.1873" fill="#FFFFEF"/>
<path fill-rule="evenodd" clip-rule="evenodd" d="M27.4123 35.9502L27.0748 35.7627L26.7373 35.9252L26.8123 35.5502L26.5498 35.2752L26.9248 35.2252L27.0998 34.8877L27.2623 35.2377L27.6373 35.3127L27.3498 35.5627" fill="#FFFFEF"/>
<path fill-rule="evenodd" clip-rule="evenodd" d="M27.4123 35.9498L27.0748 35.7623L26.7373 35.9248L26.8123 35.5498L26.5498 35.2748L26.9248 35.2248L27.0998 34.8873L27.2623 35.2373L27.6373 35.3123L27.3498 35.5623M32.6373 35.9373L32.3123 35.7623L31.9748 35.9248L32.0498 35.5498L31.7873 35.2748L32.1623 35.2248L32.3373 34.8873L32.4998 35.2373L32.8748 35.2998L32.5873 35.5623M31.9873 37.6873L31.6623 37.4998L31.3248 37.6748L31.3998 37.2998L31.1373 37.0123L31.5123 36.9623L31.6873 36.6248L31.8498 36.9748L32.2248 37.0498L31.9373 37.2998M42.8623 34.5248L42.5373 34.3248L42.1873 34.4998L42.2623 34.1248L42.0123 33.8373L42.3873 33.7998L42.5623 33.4623L42.7123 33.8123L43.0873 33.8748L42.8123 34.1373M39.6748 34.5123L39.3373 34.3248L38.9998 34.4998L39.0748 34.1248L38.8248 33.8373L39.1998 33.7998L39.3748 33.4498L39.5248 33.8123L39.8998 33.8748L39.6248 34.1373M31.0248 33.4123L30.8123 33.2873L30.5998 33.3873L30.6498 33.1498L30.4873 32.9748L30.7248 32.9498L30.8248 32.7373L30.9248 32.9623L31.1623 32.9998L30.9873 33.1623M51.9623 38.8373L51.6373 38.6498L51.2998 38.8248L51.3748 38.4498L51.1123 38.1623L51.4873 38.1123L51.6623 37.7748L51.8248 38.1248L52.1998 38.1998L51.9123 38.4498M49.3123 39.1998L49.0373 39.0248L48.7498 39.1748L48.8123 38.8498L48.5998 38.6248L48.9123 38.5873L49.0623 38.2998L49.1873 38.5998L49.4998 38.6498L49.2623 38.8748M50.5623 39.1623L50.3123 39.0123L50.0498 39.1373L50.0998 38.8498L49.8998 38.6373L50.1873 38.5998L50.3248 38.3498L50.4498 38.5998L50.7373 38.6623L50.5248 38.8623M54.1623 36.0123L53.9123 35.8873L53.6623 36.0123L53.7248 35.7248L53.5248 35.5123L53.8123 35.4748L53.9373 35.2248L54.0623 35.4873L54.3248 35.5373L54.1248 35.7373M49.2748 40.9623L48.9623 40.7873L48.6248 40.9373L48.6998 40.5873L48.4498 40.3373L48.8248 40.2998L48.9873 39.9873L49.1373 40.3123L49.5123 40.3748L49.2248 40.6123M49.2998 42.3873L48.9998 42.2123L48.6998 42.3748L48.7748 42.0248L48.5373 41.7748L48.8748 41.7248L49.0248 41.4123L49.1623 41.7373L49.4998 41.7998L49.2498 42.0498M46.8748 39.1623L46.6373 39.0123L46.3873 39.1373L46.4373 38.8623L46.2498 38.6498L46.5248 38.6248L46.6498 38.3748L46.7748 38.6248L47.0498 38.6748L46.8498 38.8748M44.6248 39.1623L44.3748 39.0123L44.1248 39.1373L44.1873 38.8623L43.9873 38.6498L44.2748 38.6248L44.3998 38.3748L44.5248 38.6248L44.7873 38.6748L44.5873 38.8748M40.7873 35.7998L40.5373 35.6623L40.2873 35.7873L40.3498 35.4998L40.1498 35.2998L40.4248 35.2623L40.5498 35.0123L40.6748 35.2623L40.9498 35.3248L40.7498 35.5123M41.2123 42.6373L41.0123 42.5248L40.7873 42.6373L40.8373 42.3873L40.6748 42.2123L40.9123 42.1873L41.0248 41.9748L41.1248 42.1998L41.3623 42.2373L41.1873 42.3998M35.4123 31.5748L34.9123 31.2873L34.4123 31.5373L34.5248 30.9748L34.1248 30.5623L34.6873 30.4873L34.9623 29.9873L35.1998 30.5123L35.7498 30.6123L35.3373 30.9998" fill="#FFFFEF"/>
<path fill-rule="evenodd" clip-rule="evenodd" d="M55.55 35.7248C55.8597 34.9212 56.1022 34.0934 56.275 33.2498C47.8 25.8123 38.3625 21.9998 26.4375 22.7873C26.005 23.6242 25.6494 24.4986 25.375 25.3998C39.5 24.0498 49.875 30.2998 55.55 35.7248Z" fill="white"/>
<path d="M51.7499 31.55L52.0374 31.7125C51.9945 31.7974 51.9813 31.8942 51.9999 31.9875C52.0292 32.078 52.0917 32.1539 52.1749 32.2C52.2624 32.2625 52.3499 32.3 52.4249 32.2875C52.4999 32.2875 52.5499 32.25 52.5874 32.2C52.6092 32.1668 52.6181 32.1268 52.6124 32.0875C52.6022 32.0413 52.5807 31.9984 52.5499 31.9625C52.5249 31.925 52.4624 31.8375 52.3624 31.7375C52.2596 31.6314 52.1826 31.5031 52.1374 31.3625C52.1062 31.2561 52.1143 31.142 52.1602 31.041C52.2061 30.9401 52.2867 30.859 52.3874 30.8125C52.4783 30.7746 52.5788 30.7658 52.6749 30.7875C52.7924 30.8146 52.9031 30.8656 52.9999 30.9375C53.1749 31.0625 53.2874 31.1875 53.3249 31.3375C53.3422 31.4077 53.3444 31.4807 53.3315 31.5518C53.3186 31.6229 53.2908 31.6904 53.2499 31.75L52.9499 31.5625C52.9874 31.4875 52.9999 31.4125 52.9749 31.35C52.9624 31.2875 52.9124 31.225 52.8249 31.175C52.7607 31.1234 52.6821 31.0928 52.5999 31.0875C52.5772 31.0867 52.5548 31.0921 52.535 31.1032C52.5152 31.1142 52.4987 31.1304 52.4874 31.15C52.4624 31.1875 52.4624 31.225 52.4749 31.275C52.4874 31.325 52.5499 31.425 52.6749 31.55C52.7999 31.675 52.8749 31.7875 52.9249 31.8625C52.9695 31.9444 52.9897 32.0374 52.9831 32.1305C52.9764 32.2236 52.9432 32.3128 52.8874 32.3875C52.8289 32.4725 52.7461 32.5378 52.6499 32.575C52.5562 32.6182 52.4514 32.6313 52.3499 32.6125C52.2374 32.5875 52.1249 32.5375 51.9999 32.45C51.8124 32.325 51.6999 32.1875 51.6624 32.0375C51.6217 31.8674 51.6486 31.6882 51.7374 31.5375L51.7499 31.55ZM50.2999 30.6L50.6124 30.7625C50.5737 30.8488 50.5649 30.9456 50.5874 31.0375C50.6194 31.1233 50.6816 31.1944 50.7624 31.2375C50.8624 31.3 50.9374 31.325 51.0124 31.3125C51.0874 31.3125 51.1374 31.275 51.1749 31.2125C51.1939 31.1828 51.2026 31.1477 51.1999 31.1125C51.1999 31.075 51.1749 31.025 51.1374 30.9875C51.0734 30.9102 51.0067 30.8352 50.9374 30.7625C50.7999 30.625 50.7124 30.5125 50.6874 30.4125C50.667 30.3482 50.6608 30.2802 50.6695 30.2132C50.6781 30.1463 50.7013 30.082 50.7374 30.025C50.7849 29.9479 50.8546 29.8869 50.9374 29.85C51.0233 29.8104 51.119 29.7973 51.2124 29.8125C51.328 29.832 51.4385 29.8745 51.5374 29.9375C51.7249 30.0625 51.8374 30.1875 51.8749 30.325C51.8977 30.3953 51.905 30.4696 51.8964 30.543C51.8878 30.6163 51.8634 30.6869 51.8249 30.75L51.5124 30.575C51.5499 30.4875 51.5624 30.425 51.5374 30.3625C51.5124 30.3 51.4624 30.2375 51.3749 30.1875C51.3057 30.1379 51.2225 30.1116 51.1374 30.1125C51.1169 30.1139 51.097 30.1203 51.0796 30.1312C51.0621 30.1421 51.0476 30.1572 51.0374 30.175C51.0124 30.2125 51.0124 30.25 51.0249 30.3C51.0374 30.35 51.1124 30.45 51.2374 30.575C51.3624 30.7 51.4499 30.8 51.4874 30.875C51.5375 30.9534 51.5641 31.0445 51.5641 31.1375C51.5641 31.2305 51.5375 31.3216 51.4874 31.4C51.4335 31.4872 51.3553 31.5567 51.2624 31.6C51.1687 31.6432 51.0639 31.6563 50.9624 31.6375C50.8338 31.6158 50.7106 31.569 50.5999 31.5C50.4383 31.4139 50.3138 31.2716 50.2499 31.1C50.2016 30.9331 50.2195 30.754 50.2999 30.6ZM48.5249 30.125L49.4374 28.625L50.5374 29.3125L50.3874 29.5625L49.5874 29.0625L49.3874 29.4L50.1374 29.8625L49.9749 30.1125L49.2249 29.65L48.9749 30.0625L49.8124 30.5625L49.6624 30.8125L48.5374 30.125H48.5249ZM45.9374 28L46.0749 27.75L46.7499 28.0875L46.4374 28.7125C46.3374 28.7375 46.2124 28.75 46.0624 28.7375C45.9184 28.7216 45.7785 28.6792 45.6499 28.6125C45.4986 28.5388 45.3693 28.4267 45.2749 28.2875C45.1889 28.1581 45.1453 28.0053 45.1499 27.85C45.1562 27.6884 45.199 27.5303 45.2749 27.3875C45.35 27.2372 45.4618 27.1082 45.5999 27.0125C45.732 26.9211 45.8893 26.8731 46.0499 26.875C46.1749 26.875 46.2999 26.9125 46.4499 27C46.6499 27.0875 46.7749 27.2125 46.8374 27.35C46.9024 27.4865 46.9157 27.6419 46.8749 27.7875L46.5374 27.6875C46.5581 27.6038 46.5492 27.5155 46.5124 27.4375C46.4749 27.3625 46.4124 27.3125 46.3124 27.2625C46.2541 27.2292 46.1895 27.2087 46.1227 27.2022C46.0559 27.1958 45.9885 27.2035 45.9249 27.225C45.7999 27.2625 45.6874 27.375 45.5999 27.55C45.5124 27.725 45.4749 27.8875 45.5124 28.025C45.5297 28.0902 45.561 28.1509 45.6042 28.2027C45.6474 28.2545 45.7014 28.2963 45.7624 28.325C45.8249 28.3625 45.8999 28.3875 45.9749 28.3875C46.0495 28.3988 46.1253 28.3988 46.1999 28.3875L46.2999 28.1875L45.9374 28ZM34.6624 25.2125L34.9124 23.4625L35.4374 23.55L35.5749 24.775L36.0624 23.65L36.5874 23.725L36.3374 25.45L35.9999 25.4L36.2124 24.0375L35.6624 25.35L35.3249 25.3L35.1874 23.8875L34.9874 25.2625L34.6624 25.2125ZM32.8999 25L33.0624 23.25L34.3499 23.375L34.3249 23.675L33.3874 23.5875L33.3499 23.9625L34.2249 24.05L34.1874 24.35L33.3124 24.2625L33.2749 24.7375L34.2499 24.825L34.2249 25.125L32.8999 25Z" fill="#309E3A"/>
<path d="M27.0625 23.9127C27.0625 23.7252 27.1 23.5877 27.15 23.4627C27.1939 23.3738 27.2531 23.2934 27.325 23.2252C27.3892 23.1605 27.4657 23.1095 27.55 23.0752C27.675 23.0377 27.8 23.0127 27.925 23.0127C28.1875 23.0127 28.3875 23.1127 28.55 23.2627C28.6274 23.3582 28.6849 23.4683 28.7193 23.5863C28.7536 23.7044 28.7641 23.8281 28.75 23.9502C28.75 24.2252 28.6625 24.4502 28.5 24.6127C28.4165 24.6899 28.3178 24.7487 28.2101 24.7853C28.1024 24.8219 27.9883 24.8355 27.875 24.8252C27.7633 24.8263 27.6525 24.8048 27.5494 24.7618C27.4462 24.7188 27.3529 24.6553 27.275 24.5752C27.1195 24.3911 27.0431 24.1529 27.0625 23.9127Z" fill="#309E3A"/>
<path d="M27.4248 23.9127C27.4248 24.1002 27.4623 24.2502 27.5498 24.3627C27.6373 24.4627 27.7498 24.5252 27.8998 24.5252C27.9647 24.5298 28.0298 24.5198 28.0903 24.496C28.1509 24.4722 28.2054 24.4352 28.2498 24.3877C28.3373 24.2877 28.3748 24.1377 28.3873 23.9252C28.3873 23.7252 28.3623 23.5752 28.2623 23.4752C28.2216 23.4248 28.1702 23.3841 28.1118 23.356C28.0535 23.3279 27.9896 23.3131 27.9248 23.3127C27.859 23.3106 27.7936 23.323 27.7332 23.3489C27.6727 23.3748 27.6186 23.4137 27.5748 23.4627C27.4748 23.5627 27.4373 23.7127 27.4248 23.9127Z" fill="#F7FFFF"/>
<path d="M29.125 24.8125L29.15 23.0625H29.9C30.0875 23.0625 30.2125 23.0875 30.3 23.125C30.3875 23.15 30.45 23.2125 30.5 23.2875C30.55 23.3625 30.575 23.4625 30.575 23.575C30.576 23.6953 30.5313 23.8114 30.45 23.9C30.3576 23.9866 30.2387 24.0394 30.1125 24.05L30.3 24.2C30.35 24.25 30.4125 24.35 30.4875 24.4875L30.7 24.8375H30.275L30.025 24.4375L29.85 24.1875C29.8197 24.1531 29.7809 24.1272 29.7375 24.1125C29.6806 24.0959 29.6217 24.0875 29.5625 24.0875H29.4875V24.8125H29.125Z" fill="#309E3A"/>
<path d="M29.5 23.8123H29.75C29.925 23.8123 30.0375 23.8123 30.075 23.7873C30.1125 23.7873 30.15 23.7498 30.175 23.7248C30.2 23.6998 30.2125 23.6373 30.2125 23.5998C30.2125 23.5248 30.2 23.4748 30.1625 23.4498C30.1375 23.4123 30.0875 23.3873 30.0375 23.3748H29.7875L29.5 23.3623V23.7998V23.8123Z" fill="white"/>
<path d="M31.1251 23.1504L31.7751 23.1879C31.9126 23.1879 32.0251 23.2004 32.1001 23.2254C32.1974 23.2607 32.2836 23.3211 32.3501 23.4004C32.4221 23.4878 32.4734 23.5904 32.5001 23.7004C32.5376 23.8129 32.5501 23.9504 32.5376 24.1129C32.5375 24.2405 32.5164 24.3672 32.4751 24.4879C32.4251 24.6129 32.3501 24.7129 32.2626 24.7879C32.1898 24.8479 32.1043 24.8906 32.0126 24.9129C31.9376 24.9379 31.8251 24.9379 31.7001 24.9379L31.0376 24.9004L31.1251 23.1504Z" fill="#309E3A"/>
<path d="M31.4624 23.4629L31.3999 24.6254H31.8749C31.9374 24.6254 31.9874 24.6004 32.0249 24.5629C32.0624 24.5254 32.0999 24.4754 32.1249 24.4004C32.1499 24.3254 32.1749 24.2129 32.1749 24.0754L32.1624 23.7629C32.1446 23.697 32.1101 23.6367 32.0624 23.5879C32.0209 23.5461 31.9692 23.516 31.9124 23.5004C31.8179 23.4793 31.7217 23.4668 31.6249 23.4629H31.4624Z" fill="white"/>
<path d="M39.7002 26.2752L40.1127 24.5752L40.6627 24.7002L41.0627 24.8252C41.1502 24.8752 41.2252 24.9502 41.2627 25.0627C41.3127 25.1627 41.3127 25.2752 41.2877 25.4127C41.2627 25.5127 41.2252 25.6002 41.1627 25.6627C41.1168 25.7176 41.0595 25.7617 40.9947 25.792C40.9299 25.8222 40.8592 25.8378 40.7877 25.8377C40.7002 25.8377 40.5752 25.8127 40.4127 25.7752L40.2002 25.7127L40.0502 26.3627L39.7002 26.2752Z" fill="#309E3A"/>
<path d="M40.3754 24.9502L40.2754 25.4252L40.4629 25.4752C40.5879 25.5002 40.6879 25.5252 40.7379 25.5127C40.7865 25.5059 40.8319 25.4843 40.8677 25.4507C40.9035 25.4171 40.928 25.3733 40.9379 25.3252C40.9379 25.2627 40.9379 25.2127 40.9129 25.1627C40.8855 25.1119 40.8413 25.0721 40.7879 25.0502L40.5504 24.9877L40.3879 24.9502H40.3754Z" fill="white"/>
<path d="M41.3252 26.7623L41.9127 25.1123L42.6002 25.3623C42.7877 25.4248 42.9002 25.4873 42.9752 25.5373C43.0377 25.5998 43.0877 25.6623 43.1002 25.7623C43.1127 25.8623 43.1252 25.9498 43.1002 26.0498C43.0502 26.1748 42.9752 26.2623 42.8752 26.3248C42.7752 26.3748 42.6502 26.3873 42.5002 26.3623C42.5502 26.4248 42.6002 26.4873 42.6252 26.5623L42.7252 26.8998L42.8002 27.2873L42.4127 27.1498L42.2877 26.6998C42.265 26.598 42.2357 26.4978 42.2002 26.3998C42.1836 26.3609 42.1579 26.3266 42.1252 26.2998C42.1002 26.2623 42.0502 26.2373 41.9627 26.2123L41.9002 26.1873L41.6502 26.8873L41.3252 26.7623Z" fill="#309E3A"/>
<path d="M42.0003 25.9252L42.2378 26.0127C42.4003 26.0752 42.5003 26.1002 42.5503 26.1002C42.5878 26.1002 42.6253 26.1002 42.6628 26.0627C42.7003 26.0377 42.7253 26.0002 42.7378 25.9502C42.7628 25.9002 42.7628 25.8502 42.7378 25.8002C42.7193 25.7517 42.6837 25.7117 42.6378 25.6877L42.3878 25.6002L42.1378 25.5127L41.9878 25.9252H42.0003Z" fill="white"/>
<path d="M43.3748 26.7004C43.4178 26.554 43.4901 26.4179 43.5873 26.3004C43.6505 26.225 43.7267 26.1615 43.8123 26.1129C43.8898 26.0691 43.9745 26.0395 44.0623 26.0254C44.1873 26.0254 44.3123 26.0254 44.4498 26.0754C44.5616 26.103 44.6661 26.1541 44.7566 26.2252C44.8472 26.2963 44.9215 26.3859 44.9748 26.4879C45.0748 26.6879 45.0748 26.9254 44.9998 27.2004C44.938 27.4366 44.7852 27.6388 44.5748 27.7629C44.3873 27.8754 44.1623 27.8879 43.9248 27.8129C43.8134 27.7845 43.7091 27.7332 43.6187 27.6621C43.5283 27.5911 43.4537 27.5019 43.3998 27.4004C43.3497 27.2911 43.3218 27.173 43.3175 27.0529C43.3132 26.9328 43.3327 26.813 43.3748 26.7004Z" fill="#309E3A"/>
<path d="M43.7249 26.8C43.6749 26.9875 43.6624 27.15 43.7249 27.275C43.7874 27.4 43.8749 27.475 44.0124 27.525C44.1374 27.5625 44.2624 27.55 44.3874 27.475C44.5124 27.4125 44.5874 27.275 44.6499 27.075C44.7124 26.8875 44.7124 26.7375 44.6499 26.6125C44.6253 26.5532 44.5878 26.5001 44.5403 26.4569C44.4928 26.4137 44.4363 26.3815 44.3749 26.3625C44.3134 26.3413 44.2481 26.3336 44.1833 26.3401C44.1186 26.3466 44.056 26.367 43.9999 26.4C43.8749 26.475 43.7874 26.6 43.7249 26.8Z" fill="white"/>
<path d="M46.7876 29.1379L47.5876 27.5879L48.2501 27.9254C48.375 27.9853 48.489 28.0656 48.5876 28.1629C48.6501 28.2254 48.6876 28.3004 48.6876 28.4004C48.6876 28.5004 48.6876 28.5879 48.6376 28.6754C48.5895 28.7878 48.5 28.8773 48.3876 28.9254C48.2626 28.9504 48.1376 28.9504 48.0001 28.9004C48.0501 28.9754 48.0751 29.0504 48.1001 29.1129C48.1251 29.1879 48.1376 29.3004 48.1501 29.4629L48.1751 29.8629L47.8001 29.6754L47.7501 29.2129C47.7442 29.108 47.7317 29.0037 47.7126 28.9004C47.7041 28.8536 47.6824 28.8103 47.6501 28.7754L47.5001 28.6879L47.4376 28.6504L47.1001 29.3004L46.7876 29.1379Z" fill="#309E3A"/>
<path d="M47.5625 28.4L47.8 28.525C47.95 28.6 48.05 28.65 48.0875 28.65C48.125 28.65 48.175 28.65 48.2125 28.625C48.25 28.6125 48.275 28.575 48.3 28.525C48.325 28.475 48.3375 28.425 48.325 28.375C48.3096 28.3252 48.279 28.2815 48.2375 28.25C48.1643 28.2051 48.0893 28.1634 48.0125 28.125L47.7625 28L47.5625 28.4Z" fill="white"/>
<path d="M53.2623 32.3371C53.3432 32.2086 53.4495 32.098 53.5748 32.0121C53.6589 31.9583 53.7521 31.9202 53.8498 31.8996C53.9405 31.8811 54.0341 31.8811 54.1248 31.8996C54.2498 31.9246 54.3623 31.9746 54.4748 32.0496C54.5721 32.1102 54.6557 32.1904 54.7202 32.2851C54.7848 32.3798 54.8289 32.4869 54.8498 32.5996C54.8873 32.8121 54.8248 33.0496 54.6748 33.2871C54.5493 33.4937 54.347 33.6421 54.1123 33.6996C54.0004 33.7238 53.8846 33.7241 53.7726 33.7004C53.6606 33.6767 53.5548 33.6296 53.4623 33.5621C53.365 33.5015 53.2814 33.4213 53.2169 33.3266C53.1523 33.2319 53.1082 33.1248 53.0873 33.0121C53.0498 32.7871 53.1123 32.5621 53.2623 32.3371Z" fill="#309E3A"/>
<path d="M53.575 32.5367C53.45 32.6992 53.4125 32.8492 53.4375 32.9867C53.4467 33.05 53.4693 33.1107 53.5038 33.1646C53.5383 33.2184 53.5839 33.2644 53.6375 33.2992C53.7625 33.3867 53.8875 33.4117 54.0125 33.3742C54.1375 33.3367 54.2625 33.2492 54.375 33.0742C54.4875 32.8992 54.5375 32.7492 54.5125 32.6242C54.5 32.4992 54.425 32.3867 54.3125 32.2992C54.2 32.2117 54.0625 32.1992 53.9375 32.2367C53.8125 32.2617 53.6875 32.3617 53.5625 32.5367H53.575Z" fill="white"/>
<path d="M37.7251 25.5629L38.0126 24.3379L38.9126 24.5504L38.8751 24.7504L38.2126 24.6004L38.1501 24.8754L38.7626 25.0129L38.7126 25.2254L38.1001 25.0754L38.0251 25.4129L38.7126 25.5754L38.6626 25.7754L37.7251 25.5629Z" fill="#309E3A"/>
</g>
<defs>
<clipPath id="clip0_3730_50584">
<rect width="80" height="60" fill="white"/>
</clipPath>
</defs>
</svg>
