<svg width="80" height="60" viewBox="0 0 80 60" fill="none" xmlns="http://www.w3.org/2000/svg">
<g clip-path="url(#clip0_3730_50711)">
<path fill-rule="evenodd" clip-rule="evenodd" d="M80 52.025C79.1 52.8625 78.3375 54.775 75.95 54.775C71.1875 54.775 70 50.7125 66.425 50.7125C64.05 50.7125 62.8625 54.775 60.475 54.775C55.7125 54.775 54.525 50.7125 50.95 50.7125C48.575 50.7125 47.3875 54.775 45.0125 54.775C40.2375 54.775 39.05 50.7125 35.475 50.7125C33.1 50.7125 31.9 54.775 29.525 54.775C24.7625 54.775 23.575 50.7125 20 50.7125C17.625 50.7125 16.425 54.775 14.05 54.775C9.275 54.775 8.0875 50.7125 4.525 50.7125C2.15 50.7125 1.425 53.6125 0 53.6125V58.825C1.425 58.825 2.1375 55.95 4.5375 55.95C8.1 55.95 9.2875 60 14.0375 60C16.425 60 17.6125 55.9375 20 55.9375C23.575 55.9375 24.7625 60 29.5375 60C31.9125 60 33.0875 55.9375 35.475 55.9375C39.05 55.9375 40.2375 60 45 60C47.375 60 48.575 55.9375 50.95 55.9375C54.525 55.9375 55.7125 60 60.475 60C62.85 60 64.05 55.9375 66.425 55.9375C70 55.9375 71.2 60 75.95 60C78.325 60 79.1 58.85 80 58.025V52.025ZM80 41.875C79.1 42.7125 78.3375 44.625 75.95 44.625C71.1875 44.625 70 40.5625 66.425 40.5625C64.05 40.5625 62.8625 44.625 60.475 44.625C55.7125 44.625 54.525 40.5625 50.95 40.5625C48.575 40.5625 47.3875 44.625 45.0125 44.625C40.2375 44.625 39.05 40.5625 35.475 40.5625C33.1 40.5625 31.9 44.625 29.525 44.625C24.7625 44.625 23.575 40.5625 20 40.5625C17.625 40.5625 16.425 44.625 14.05 44.625C9.275 44.625 8.0875 40.5625 4.525 40.5625C2.15 40.5625 1.425 43.4625 0 43.4625V48.6875C1.425 48.6875 2.1375 45.8 4.5375 45.8C8.1 45.8 9.2875 49.8625 14.0375 49.8625C16.425 49.8625 17.6125 45.8 20 45.8C23.575 45.8 24.7625 49.8625 29.5375 49.8625C31.9125 49.8625 33.0875 45.8 35.475 45.8C39.05 45.8 40.2375 49.8625 45.0125 49.8625C47.3875 49.8625 48.575 45.8 50.95 45.8C54.525 45.8 55.7125 49.8625 60.475 49.8625C62.85 49.8625 64.05 45.8 66.425 45.8C70 45.8 71.2 49.8625 75.95 49.8625C78.325 49.8625 79.1 48.7125 80 47.8875V41.875ZM80 31.7375C79.1 32.575 78.3375 34.4875 75.95 34.4875C71.1875 34.4875 70 30.425 66.425 30.425C64.05 30.425 62.8625 34.4875 60.475 34.4875C55.7125 34.4875 54.525 30.425 50.95 30.425C48.575 30.425 47.3875 34.4875 45.0125 34.4875C40.2375 34.4875 39.05 30.425 35.475 30.425C33.1 30.425 31.9 34.4875 29.525 34.4875C24.7625 34.4875 23.575 30.425 20 30.425C17.625 30.425 16.425 34.4875 14.05 34.4875C9.275 34.4875 8.0875 30.425 4.525 30.425C2.15 30.425 1.425 33.325 0 33.325V38.55C1.425 38.55 2.1375 35.65 4.5375 35.65C8.1 35.65 9.2875 39.7125 14.0375 39.7125C16.425 39.7125 17.6125 35.65 20 35.65C23.575 35.65 24.7625 39.7125 29.5375 39.7125C31.9125 39.7125 33.0875 35.65 35.475 35.65C39.05 35.65 40.2375 39.7125 45.0125 39.7125C47.3875 39.7125 48.575 35.65 50.95 35.65C54.525 35.65 55.7125 39.7125 60.475 39.7125C62.85 39.7125 64.05 35.65 66.425 35.65C70 35.65 71.2 39.7125 75.95 39.7125C78.325 39.7125 79.1 38.5625 80 37.7375V31.7375ZM80 21.6C79.1 22.425 78.3375 24.35 75.95 24.35C71.1875 24.35 70 20.2875 66.425 20.2875C64.05 20.2875 62.8625 24.35 60.475 24.35C55.7125 24.35 54.525 20.2875 50.95 20.2875C48.575 20.2875 47.3875 24.35 45.0125 24.35C40.2375 24.35 39.05 20.2875 35.475 20.2875C33.1 20.2875 31.9 24.35 29.525 24.35C24.7625 24.35 23.575 20.2875 20 20.2875C17.625 20.2875 16.425 24.35 14.05 24.35C9.275 24.35 8.0875 20.2875 4.525 20.2875C2.15 20.2875 1.425 23.1875 0 23.1875V28.4C1.425 28.4 2.1375 25.525 4.5375 25.525C8.1 25.525 9.2875 29.575 14.0375 29.575C16.425 29.575 17.6125 25.5125 20 25.5125C23.575 25.5125 24.7625 29.575 29.5375 29.575C31.9125 29.575 33.0875 25.5125 35.475 25.5125C39.05 25.5125 40.2375 29.575 45.0125 29.575C47.3875 29.575 48.575 25.5125 50.95 25.5125C54.525 25.5125 55.7125 29.575 60.475 29.575C62.85 29.575 64.05 25.5125 66.425 25.5125C70 25.5125 71.2 29.575 75.95 29.575C78.325 29.575 79.1 28.4125 80 27.5875V21.6ZM80 11.4375C79.1 12.275 78.3375 14.2 75.95 14.2C71.1875 14.2 70 10.1375 66.425 10.1375C64.05 10.1375 62.8625 14.2 60.475 14.2C55.7125 14.2 54.525 10.1375 50.95 10.1375C48.575 10.1375 47.3875 14.2 45.0125 14.2C40.2375 14.2 39.05 10.1375 35.475 10.1375C33.1 10.1375 31.9 14.2 29.525 14.2C24.7625 14.2 23.575 10.1375 20 10.1375C17.625 10.1375 16.425 14.2 14.05 14.2C9.275 14.2 8.0875 10.1375 4.525 10.1375C2.15 10.15 1.425 13.05 0 13.05V18.275C1.425 18.275 2.1375 15.3875 4.525 15.3875C8.0875 15.3875 9.2875 19.45 14.05 19.45C16.425 19.45 17.6125 15.3875 20 15.3875C23.575 15.3875 24.7625 19.45 29.5375 19.45C31.9125 19.45 33.0875 15.3875 35.4625 15.3875C39.05 15.3875 40.2375 19.45 45 19.45C47.375 19.45 48.575 15.3875 50.95 15.3875C54.525 15.3875 55.7125 19.45 60.475 19.45C62.85 19.45 64.05 15.3875 66.425 15.3875C70 15.3875 71.2 19.45 75.95 19.45C78.325 19.45 79.1 18.2875 80 17.4625V11.4625V11.4375ZM80 1.3125C79.1 2.1375 78.3375 4.0625 75.95 4.0625C71.1875 4.0625 70 0 66.425 0C64.05 0 62.8625 4.0625 60.475 4.0625C55.7125 4.0625 54.525 0 50.95 0C48.575 0 47.3875 4.0625 45.0125 4.0625C40.2375 4.0625 39.05 0 35.475 0C33.1 0 31.9 4.0625 29.525 4.0625C24.75 4.0625 23.575 0 20 0C17.625 0 16.425 4.0625 14.05 4.0625C9.275 4.0625 8.0875 0 4.525 0C2.15 0 1.425 2.9 0 2.9V8.1375C1.425 8.125 2.1375 5.25 4.525 5.25C8.0875 5.25 9.2875 9.3 14.05 9.3C16.425 9.3 17.6125 5.25 20 5.25C23.575 5.25 24.7625 9.3 29.5375 9.3C31.9125 9.3 33.0875 5.25 35.4625 5.25C39.05 5.25 40.2375 9.3 45 9.3C47.375 9.3 48.575 5.25 50.95 5.25C54.525 5.25 55.7125 9.3 60.475 9.3C62.85 9.3 64.05 5.25 66.425 5.25C70 5.25 71.2 9.3 75.95 9.3C78.325 9.3 79.1 8.15 80 7.325V1.3125Z" fill="#000063"/>
<path fill-rule="evenodd" clip-rule="evenodd" d="M59.3501 16.4629L58.9126 57.5879C58.9126 59.7504 60.8751 59.7504 61.0876 57.5879L60.6501 16.4629H59.3501Z" fill="#A24300" stroke="white" stroke-width="0.2625"/>
<path fill-rule="evenodd" clip-rule="evenodd" d="M63.8374 31.7502L62.4624 30.2627L62.1374 31.7752L61.5499 29.5877L60.9874 30.6877L60.8874 28.3627L60.3374 29.4627L60.2374 27.1377L59.6874 28.2377L59.3749 25.5002L58.8249 26.6002L58.4999 23.8752L57.9374 24.9752L57.6249 22.2377L57.4624 20.8627L57.7374 20.3252L58.4624 20.5877L59.5999 21.6752L61.8874 23.8502L60.4749 23.3127L62.7624 25.4877L61.3374 24.9502L63.6249 27.1127L62.1999 26.5877L64.2749 28.3377L62.8624 27.8127L64.9249 29.5627L63.5124 29.0377L65.0874 30.9377L63.4499 29.9877L63.8249 31.7752L63.8374 31.7502Z" fill="#006D00" stroke="white" stroke-width="0.225"/>
<path d="M63.8375 31.7502L57.75 20.3252M61.8875 23.8502L58.625 21.9502L57.95 24.9627" stroke="black" stroke-width="0.0375"/>
<path d="M62.7752 25.4754L59.4877 23.5879L58.8252 26.6004" stroke="black" stroke-width="0.0375"/>
<path d="M63.6375 27.0996L60.3625 25.2246L59.6875 28.2246" stroke="black" stroke-width="0.0375"/>
<path d="M64.2876 28.3371L61.2251 26.8496L60.3501 29.4746" stroke="black" stroke-width="0.0375"/>
<path d="M64.9375 29.5627L61.875 28.0752L61 30.7002" stroke="black" stroke-width="0.0375"/>
<path d="M65.1002 30.9254L62.3127 28.9004L62.1377 31.7754" stroke="black" stroke-width="0.0375"/>
<path fill-rule="evenodd" clip-rule="evenodd" d="M47.8751 12.2379L50.1001 13.0879L49.4501 11.4004L51.4001 13.3129L51.2126 11.9379L52.7876 14.2379L52.6001 12.8629L54.1751 15.1629L53.9876 13.7879L56.0251 16.3879L55.8376 15.0129L57.8751 17.6129L57.7001 16.2379L59.7251 18.8379L60.7501 20.1379L60.8376 20.8254L60.0001 20.9004L58.2501 20.3629L54.7251 19.2754L56.3876 19.1379L52.8751 18.0504L54.5376 17.9129L51.0251 16.8254L52.6876 16.6754L49.6376 15.9004L51.3001 15.7629L48.2501 14.9879L49.9126 14.8379L47.2251 13.6754L49.3626 13.8379L47.8876 12.2504L47.8751 12.2379Z" fill="#006D00" stroke="white" stroke-width="0.25"/>
<path d="M47.875 12.2373L60.8375 20.8248M54.725 19.2748L58.9875 19.5998L57.7 16.2373" stroke="black" stroke-width="0.0375"/>
<path d="M52.875 18.05L57.125 18.375L55.8375 15" stroke="black" stroke-width="0.0375"/>
<path d="M51.0249 16.8254L55.2749 17.1504L53.9874 13.7754" stroke="black" stroke-width="0.0375"/>
<path d="M49.625 15.8998L53.4375 15.9123L52.6 12.8623" stroke="black" stroke-width="0.0375"/>
<path d="M48.25 14.975L52.05 15L51.2125 11.9375" stroke="black" stroke-width="0.0375"/>
<path d="M47.2251 13.6754L51.1126 14.3879L49.4626 11.4004" stroke="black" stroke-width="0.0375"/>
<path fill-rule="evenodd" clip-rule="evenodd" d="M73.7251 15.0996L71.8751 16.4621L73.9251 16.6871L71.0626 17.3621L72.5876 17.8121L69.5001 18.0371L71.0251 18.4871L67.9376 18.7121L69.4501 19.1746L65.8376 19.6246L67.3626 20.0746L63.7501 20.5246L65.2751 20.9746L61.6626 21.4246L59.8501 21.6496L59.1001 21.4246L59.3751 20.7496L60.7126 19.6246L63.3751 17.3621L62.8001 18.7121L65.4626 16.4621L64.8876 17.8121L67.5501 15.5621L66.9751 16.9121L69.1251 14.8746L68.5626 16.2371L70.6876 14.1996L70.1251 15.5496L72.5001 13.9746L71.4126 15.5621L73.7376 15.1121L73.7251 15.0996Z" fill="#006D00" stroke="white" stroke-width="0.25"/>
<path d="M73.7251 15.0996L59.1001 21.4246M63.3626 17.3621L61.1876 20.5246L65.2751 20.9746" stroke="black" stroke-width="0.0375"/>
<path d="M65.4624 16.4629L63.2749 19.6254L67.3624 20.0754" stroke="black" stroke-width="0.0375"/>
<path d="M67.5498 15.5498L65.3623 18.7123L69.4498 19.1748" stroke="black" stroke-width="0.0375"/>
<path d="M69.1249 14.875L67.4624 17.8125L71.0249 18.4875" stroke="black" stroke-width="0.0375"/>
<path d="M70.6874 14.2002L69.0249 17.1377L72.5874 17.8127" stroke="black" stroke-width="0.0375"/>
<path d="M72.5002 13.9746L70.0752 16.6871H73.9127" stroke="black" stroke-width="0.0375"/>
<path fill-rule="evenodd" clip-rule="evenodd" d="M73.4251 28.7873L71.1251 28.1248L71.9501 29.7498L69.8126 27.9998L70.1376 29.3373L68.3251 27.1873L68.6626 28.5373L66.8501 26.3748L67.1751 27.7248L64.8626 25.2998L65.2001 26.6498L62.8876 24.2248L63.2251 25.5748L60.9126 23.1498L59.7626 21.9373L59.6001 21.2623L60.4251 21.1123L62.2376 21.5123L65.8626 22.3123L64.2126 22.5873L67.8376 23.3873L66.1876 23.6623L69.8126 24.4623L68.1626 24.7498L71.2876 25.2748L69.6376 25.5498L72.7626 26.0748L71.1251 26.3748L73.9126 27.3123H71.7876L73.4126 28.8123L73.4251 28.7873Z" fill="#006D00" stroke="white" stroke-width="0.25"/>
<path d="M73.4251 28.7877L59.6001 21.2627M65.8501 22.3127L61.5751 22.3377L63.2251 25.5877" stroke="black" stroke-width="0.0375"/>
<path d="M67.8248 23.3877L63.5498 23.4127L65.1998 26.6627" stroke="black" stroke-width="0.0375"/>
<path d="M69.7999 24.4629L65.5249 24.4879L67.1749 27.7379" stroke="black" stroke-width="0.0375"/>
<path d="M71.2875 25.2754L67.5 25.5629L68.6625 28.5379" stroke="black" stroke-width="0.0375"/>
<path d="M72.7748 26.0879L68.9873 26.3629L70.1373 29.3379" stroke="black" stroke-width="0.0375"/>
<path d="M73.9126 27.3004L69.9751 26.9004L71.9501 29.7504" stroke="black" stroke-width="0.0375"/>
<path fill-rule="evenodd" clip-rule="evenodd" d="M49.3998 29.5746L50.5623 27.9496L48.7998 28.2121L50.9748 26.9746L49.5873 26.9121L52.0873 26.0371L50.6998 25.9621L53.1998 25.0871L51.8123 25.0121L54.6873 23.8121L53.2873 23.7496L56.1623 22.5371L54.7748 22.4746L57.6498 21.2746L59.0873 20.6621L59.7873 20.6996L59.7373 21.3621L58.9498 22.6621L57.3748 25.2621L57.4748 23.9371L55.8998 26.5371L55.9873 25.1996L54.4123 27.7996L54.4998 26.4746L53.2998 28.7496L53.3873 27.4246L52.1873 29.6996L52.2748 28.3746L50.7498 30.2996L51.2123 28.6496L49.3998 29.5746Z" fill="#006D00" stroke="white" stroke-width="0.225"/>
<path d="M49.3999 29.5752L59.7749 20.7002M57.3874 25.2627L58.2999 21.9627L54.7749 22.4752" stroke="black" stroke-width="0.0375"/>
<path d="M55.9001 26.5373L56.8126 23.2373L53.2876 23.7373" stroke="black" stroke-width="0.0375"/>
<path d="M54.4125 27.8L55.3375 24.5L51.8125 25.0125" stroke="black" stroke-width="0.0375"/>
<path d="M53.3002 28.7504L53.8502 25.7754L50.7002 25.9629" stroke="black" stroke-width="0.0375"/>
<path d="M52.1874 29.6996L52.7374 26.7246L49.5874 26.9121" stroke="black" stroke-width="0.0375"/>
<path d="M50.7498 30.2998L51.9998 27.3623L48.7998 28.2123" stroke="black" stroke-width="0.0375"/>
<path fill-rule="evenodd" clip-rule="evenodd" d="M70.3751 8.27461L68.1376 9.77461L67.7751 8.16211L66.4626 10.3871L66.2126 9.32461L65.1376 11.5996L64.9876 10.5496L64.1501 12.8871L63.6751 11.7621L62.8376 14.5996L62.3626 13.4746L61.5251 16.3121L61.0376 15.1871L60.2001 18.0246L59.7876 19.4496L60.0251 20.0121L60.9251 19.7121L62.4751 18.5621L65.6001 16.2621L63.8001 16.8496L66.9126 14.5371L65.1126 15.1371L68.2251 12.8246L66.4251 13.4246L69.5501 11.6246L67.4251 12.1246L70.7501 10.4121L68.7126 10.9371L71.1751 8.98711L69.0501 9.99961L70.3751 8.27461Z" fill="#006D00" stroke="white" stroke-width="0.25"/>
<path d="M69.4999 9.08789L66.2749 11.8629L60.0249 20.0129" stroke="black" stroke-width="0.0375"/>
<path d="M64.9126 16.6L61.3376 18.2875L61.0376 15.6875" stroke="black" stroke-width="0.0375"/>
<path d="M66.2748 14.8996L62.6498 16.5746L62.3623 13.9746" stroke="black" stroke-width="0.0375"/>
<path d="M67.5627 13.1879L63.9752 14.8629L63.7002 12.2754" stroke="black" stroke-width="0.0375"/>
<path d="M68.6376 11.9129L65.2876 13.1504L64.9126 11.0254" stroke="black" stroke-width="0.0375"/>
<path d="M69.8749 10.6877L66.2749 11.8752L66.1499 9.8252" stroke="black" stroke-width="0.0375"/>
<path d="M70.3499 9.52539L67.0249 11.2254L67.6749 8.65039" stroke="black" stroke-width="0.0375"/>
<path fill-rule="evenodd" clip-rule="evenodd" d="M58.2627 5.47461L59.2627 7.74961L60.5502 6.54961L60.3377 9.02461L61.1877 8.22461L60.7252 10.6496L61.4752 9.82461L60.7877 12.1996L61.8752 11.4496L60.8752 14.2371L61.9502 13.4871L60.9502 16.2996L62.0377 15.5496L61.0377 18.3496L60.5377 19.7496L59.9877 20.1246L59.3877 19.4621L58.7627 17.7871L57.5127 14.4246L58.6877 15.7371L57.4252 12.3621L58.6002 13.6871L57.3502 10.3121L58.5002 11.6246L56.9377 8.69961L58.4377 10.0871L56.6377 7.09961L58.0502 8.47461L57.1377 5.69961L58.3377 7.52461L58.2627 5.47461Z" fill="#006D00" stroke="white" stroke-width="0.25"/>
<path d="M58.5249 6.5498L59.5874 10.3623L59.9874 20.1123" stroke="black" stroke-width="0.0375"/>
<path d="M57.875 15.0254L59.9 18.0629L61.7375 15.9754" stroke="black" stroke-width="0.0375"/>
<path d="M57.75 12.9629L59.8125 16.0129L61.65 13.9254" stroke="black" stroke-width="0.0375"/>
<path d="M57.6875 10.9121L59.7375 13.9621L61.5375 11.8746" stroke="black" stroke-width="0.0375"/>
<path d="M57.5498 9.3623L59.6498 11.9123L61.2748 10.2873" stroke="black" stroke-width="0.0375"/>
<path d="M57.25 7.75L59.5875 10.375L60.9625 8.675" stroke="black" stroke-width="0.0375"/>
<path d="M57.5376 6.5498L59.3376 9.4873L60.3501 6.9998" stroke="black" stroke-width="0.0375"/>
<path fill-rule="evenodd" clip-rule="evenodd" d="M44.875 22.2502L47.7875 20.2252L46.325 19.4752L48.8875 19.9002L48.0125 18.7377L50.4875 19.6752L49.6125 18.5127L52.1 19.4377L51.225 18.2877L54.225 19.3002L53.35 18.1377L56.2625 19.6502L55.3875 18.4877L58.3875 19.5127L59.85 20.2627L60.2875 20.8377L59.7 21.2502L58.0875 21.4752L55.5 22.5502L55.975 21.6252L52.7625 22.0752L53.925 21.2752L50.6375 22.2252L51.8125 21.4127L49.0375 22.4502L50.275 21.1502L47.425 22.6752L48.675 21.3752L46.325 23.0002L47.6375 21.2002L44.875 22.2502Z" fill="#006D00" stroke="white" stroke-width="0.2375"/>
<path d="M45.7876 21.7002L48.8126 20.3877L50.4251 20.1627L51.7626 20.1377L54.0751 20.2877L56.1626 20.3752L60.2876 20.8377" stroke="black" stroke-width="0.0375"/>
<path d="M55.8998 22.1121L58.2123 20.6871L55.8623 18.8496" stroke="black" stroke-width="0.0375"/>
<path d="M53.3125 21.9004L56.15 20.3754L53.8125 18.5254" stroke="black" stroke-width="0.0375"/>
<path d="M51.4627 21.8502L54.0752 20.2877L51.7002 18.5752M48.0127 22.2752L50.4252 20.1627L48.4752 19.1002" stroke="black" stroke-width="0.0375"/>
<path d="M46.9375 22.4121L48.8125 20.3996L47.3125 19.8371M49.6125 22.0496L51.9875 20.1496L50.0875 18.8496" stroke="black" stroke-width="0.0375"/>
<path fill-rule="evenodd" clip-rule="evenodd" d="M54.6873 44.3934L54.6599 40.9839L53.672 39.3914C53.4247 38.6086 53.5459 38.2306 53.9469 38.2038C54.3462 38.18 54.7423 38.4062 55.3179 38.4315C55.8934 38.4568 55.7851 37.5475 56.6355 37.5728C57.4859 37.5981 58.9685 38.0535 60.2296 38.1294C61.4922 38.2038 62.1503 37.7246 63.6053 37.674C65.0604 37.6234 65.4436 38.305 65.526 38.305C65.6085 38.305 66.0208 38.0282 66.4314 37.9776C66.8437 37.927 66.9811 38.1294 66.9811 38.1294C66.9811 38.1294 66.9536 38.9881 66.7612 39.4926C66.5688 39.9986 65.8833 40.8321 65.8559 40.8321C65.8284 40.8321 65.6085 44.5452 65.6085 44.5705C65.6085 44.5958 54.6873 44.4693 54.6873 44.3934Z" fill="#CC0000" stroke="black" stroke-width="0.0206823"/>
<path fill-rule="evenodd" clip-rule="evenodd" d="M65.9845 40.8991C65.9845 40.8991 67.0838 40.1252 67.1129 38.2634C67.1291 37.1919 66.5568 36.418 65.1243 36.418C63.1196 36.418 60.2563 37.2082 60.2563 37.2082V37.4716C60.2563 37.4716 62.5472 36.6814 65.126 36.6814C66.2706 36.6814 66.8446 37.4553 66.8446 38.247C66.8446 39.5656 65.6967 40.9006 65.6967 40.9006V43.0094H65.9845V40.8991Z" fill="#FFF100" stroke="black" stroke-width="0.0206823"/>
<path fill-rule="evenodd" clip-rule="evenodd" d="M66.5825 40.3486C66.5795 40.3849 66.5847 40.4215 66.5978 40.4559C66.6109 40.4903 66.6315 40.5219 66.6585 40.5486C66.6854 40.5753 66.718 40.5966 66.7544 40.6112C66.7907 40.6258 66.8298 40.6333 66.8694 40.6333C66.9091 40.6333 66.9482 40.6258 66.9845 40.6112C67.0208 40.5966 67.0535 40.5753 67.0804 40.5486C67.1074 40.5219 67.128 40.4903 67.1411 40.4559C67.1542 40.4215 67.1594 40.3849 67.1564 40.3486C67.151 40.2819 67.1184 40.2197 67.0652 40.1742C67.0119 40.1288 66.942 40.1035 66.8694 40.1035C66.7969 40.1035 66.7269 40.1288 66.6737 40.1742C66.6205 40.2197 66.5879 40.2819 66.5825 40.3486Z" fill="white" stroke="black" stroke-width="0.0206823"/>
<path fill-rule="evenodd" clip-rule="evenodd" d="M66.8667 39.7441C66.8637 39.7804 66.8689 39.817 66.882 39.8514C66.8951 39.8858 66.9157 39.9174 66.9426 39.9441C66.9696 39.9708 67.0022 39.9922 67.0385 40.0067C67.0748 40.0213 67.114 40.0288 67.1536 40.0288C67.1932 40.0288 67.2324 40.0213 67.2687 40.0067C67.305 39.9922 67.3377 39.9708 67.3646 39.9441C67.3915 39.9174 67.4122 39.8858 67.4253 39.8514C67.4383 39.817 67.4436 39.7804 67.4406 39.7441C67.4352 39.6775 67.4026 39.6152 67.3493 39.5697C67.2961 39.5243 67.2262 39.499 67.1536 39.499C67.081 39.499 67.0111 39.5243 66.9579 39.5697C66.9047 39.6152 66.8721 39.6775 66.8667 39.7441Z" fill="white" stroke="black" stroke-width="0.0206823"/>
<path fill-rule="evenodd" clip-rule="evenodd" d="M67.0205 39.1289C67.0175 39.1652 67.0227 39.2017 67.0358 39.2362C67.0489 39.2706 67.0695 39.3021 67.0965 39.3289C67.1234 39.3556 67.156 39.3769 67.1923 39.3915C67.2286 39.4061 67.2678 39.4136 67.3074 39.4136C67.347 39.4136 67.3862 39.4061 67.4225 39.3915C67.4588 39.3769 67.4915 39.3556 67.5184 39.3289C67.5453 39.3021 67.566 39.2706 67.5791 39.2362C67.5922 39.2017 67.5974 39.1652 67.5944 39.1289C67.589 39.0622 67.5564 38.9999 67.5032 38.9545C67.4499 38.909 67.38 38.8838 67.3074 38.8838C67.2348 38.8838 67.1649 38.909 67.1117 38.9545C67.0585 38.9999 67.0259 39.0622 67.0205 39.1289Z" fill="white" stroke="black" stroke-width="0.0206823"/>
<path fill-rule="evenodd" clip-rule="evenodd" d="M67.1269 38.4785C67.1239 38.5148 67.1292 38.5514 67.1422 38.5858C67.1553 38.6202 67.176 38.6517 67.2029 38.6785C67.2298 38.7052 67.2625 38.7265 67.2988 38.7411C67.3351 38.7557 67.3743 38.7632 67.4139 38.7632C67.4535 38.7632 67.4927 38.7557 67.529 38.7411C67.5653 38.7265 67.5979 38.7052 67.6249 38.6785C67.6518 38.6517 67.6724 38.6202 67.6855 38.5858C67.6986 38.5514 67.7038 38.5148 67.7009 38.4785C67.6954 38.4118 67.6628 38.3495 67.6096 38.3041C67.5564 38.2587 67.4865 38.2334 67.4139 38.2334C67.3413 38.2334 67.2714 38.2587 67.2182 38.3041C67.1649 38.3495 67.1323 38.4118 67.1269 38.4785Z" fill="white" stroke="black" stroke-width="0.0206823"/>
<path fill-rule="evenodd" clip-rule="evenodd" d="M67.1035 37.7675C67.1005 37.8039 67.1057 37.8404 67.1188 37.8748C67.1319 37.9092 67.1525 37.9408 67.1795 37.9675C67.2064 37.9943 67.239 38.0156 67.2753 38.0302C67.3117 38.0448 67.3508 38.0523 67.3904 38.0523C67.43 38.0523 67.4692 38.0448 67.5055 38.0302C67.5418 38.0156 67.5745 37.9943 67.6014 37.9675C67.6284 37.9408 67.649 37.9092 67.6621 37.8748C67.6752 37.8404 67.6804 37.8039 67.6774 37.7675C67.672 37.7009 67.6394 37.6386 67.5862 37.5932C67.5329 37.5477 67.463 37.5225 67.3904 37.5225C67.3178 37.5225 67.2479 37.5477 67.1947 37.5932C67.1415 37.6386 67.1089 37.7009 67.1035 37.7675Z" fill="white" stroke="black" stroke-width="0.0206823"/>
<path fill-rule="evenodd" clip-rule="evenodd" d="M66.1684 40.8808C66.1654 40.9172 66.1707 40.9537 66.1837 40.9881C66.1968 41.0225 66.2175 41.0541 66.2444 41.0808C66.2713 41.1075 66.304 41.1289 66.3403 41.1435C66.3766 41.158 66.4158 41.1656 66.4554 41.1656C66.495 41.1656 66.5342 41.158 66.5705 41.1435C66.6068 41.1289 66.6394 41.1075 66.6664 41.0808C66.6933 41.0541 66.7139 41.0225 66.727 40.9881C66.7401 40.9537 66.7453 40.9172 66.7424 40.8808C66.7369 40.8142 66.7043 40.7519 66.6511 40.7064C66.5979 40.661 66.528 40.6357 66.4554 40.6357C66.3828 40.6357 66.3129 40.661 66.2597 40.7064C66.2064 40.7519 66.1738 40.8142 66.1684 40.8808Z" fill="white" stroke="black" stroke-width="0.0206823"/>
<path fill-rule="evenodd" clip-rule="evenodd" d="M66.8549 37.0937C66.852 37.1301 66.8572 37.1666 66.8703 37.201C66.8833 37.2354 66.904 37.267 66.9309 37.2937C66.9579 37.3204 66.9905 37.3418 67.0268 37.3563C67.0631 37.3709 67.1023 37.3785 67.1419 37.3785C67.1815 37.3785 67.2207 37.3709 67.257 37.3563C67.2933 37.3418 67.3259 37.3204 67.3529 37.2937C67.3798 37.267 67.4005 37.2354 67.4136 37.201C67.4266 37.1666 67.4318 37.1301 67.4289 37.0937C67.4234 37.0271 67.3908 36.9648 67.3376 36.9193C67.2844 36.8739 67.2145 36.8486 67.1419 36.8486C67.0693 36.8486 66.9994 36.8739 66.9462 36.9193C66.893 36.9648 66.8604 37.0271 66.8549 37.0937Z" fill="white" stroke="black" stroke-width="0.0206823"/>
<path fill-rule="evenodd" clip-rule="evenodd" d="M66.3222 36.5605C66.3193 36.5969 66.3245 36.6334 66.3375 36.6678C66.3506 36.7022 66.3713 36.7338 66.3982 36.7605C66.4252 36.7872 66.4578 36.8086 66.4941 36.8231C66.5304 36.8377 66.5696 36.8452 66.6092 36.8452C66.6488 36.8452 66.688 36.8377 66.7243 36.8231C66.7606 36.8086 66.7932 36.7872 66.8202 36.7605C66.8471 36.7338 66.8678 36.7022 66.8808 36.6678C66.8939 36.6334 66.8991 36.5969 66.8962 36.5605C66.8907 36.4939 66.8581 36.4316 66.8049 36.3861C66.7517 36.3407 66.6818 36.3154 66.6092 36.3154C66.5366 36.3154 66.4667 36.3407 66.4135 36.3861C66.3602 36.4316 66.3277 36.4939 66.3222 36.5605Z" fill="white" stroke="black" stroke-width="0.0206823"/>
<path fill-rule="evenodd" clip-rule="evenodd" d="M65.6118 36.205C65.6088 36.2414 65.614 36.2779 65.6271 36.3123C65.6402 36.3467 65.6608 36.3783 65.6878 36.405C65.7147 36.4318 65.7473 36.4531 65.7836 36.4677C65.82 36.4823 65.8591 36.4898 65.8987 36.4898C65.9384 36.4898 65.9775 36.4823 66.0138 36.4677C66.0501 36.4531 66.0828 36.4318 66.1097 36.405C66.1367 36.3783 66.1573 36.3467 66.1704 36.3123C66.1835 36.2779 66.1887 36.2414 66.1857 36.205C66.1803 36.1384 66.1477 36.0761 66.0945 36.0307C66.0412 35.9852 65.9713 35.96 65.8987 35.96C65.8261 35.96 65.7562 35.9852 65.703 36.0307C65.6498 36.0761 65.6172 36.1384 65.6118 36.205Z" fill="white" stroke="black" stroke-width="0.0206823"/>
<path fill-rule="evenodd" clip-rule="evenodd" d="M64.9018 36.1582C64.8988 36.1945 64.9041 36.231 64.9171 36.2655C64.9302 36.2999 64.9509 36.3314 64.9778 36.3582C65.0047 36.3849 65.0374 36.4062 65.0737 36.4208C65.11 36.4354 65.1492 36.4429 65.1888 36.4429C65.2284 36.4429 65.2676 36.4354 65.3039 36.4208C65.3402 36.4062 65.3728 36.3849 65.3998 36.3582C65.4267 36.3314 65.4473 36.2999 65.4604 36.2655C65.4735 36.231 65.4787 36.1945 65.4758 36.1582C65.4703 36.0915 65.4377 36.0292 65.3845 35.9838C65.3313 35.9383 65.2614 35.9131 65.1888 35.9131C65.1162 35.9131 65.0463 35.9383 64.9931 35.9838C64.9398 36.0292 64.9072 36.0915 64.9018 36.1582Z" fill="white" stroke="black" stroke-width="0.0206823"/>
<path fill-rule="evenodd" clip-rule="evenodd" d="M64.1323 36.1816C64.1293 36.2179 64.1345 36.2545 64.1476 36.2889C64.1607 36.3233 64.1813 36.3549 64.2083 36.3816C64.2352 36.4083 64.2679 36.4297 64.3042 36.4442C64.3405 36.4588 64.3796 36.4663 64.4192 36.4663C64.4589 36.4663 64.498 36.4588 64.5343 36.4442C64.5706 36.4297 64.6033 36.4083 64.6302 36.3816C64.6572 36.3549 64.6778 36.3233 64.6909 36.2889C64.704 36.2545 64.7092 36.2179 64.7062 36.1816C64.7008 36.115 64.6682 36.0527 64.615 36.0072C64.5618 35.9618 64.4918 35.9365 64.4192 35.9365C64.3467 35.9365 64.2767 35.9618 64.2235 36.0072C64.1703 36.0527 64.1377 36.115 64.1323 36.1816Z" fill="white" stroke="black" stroke-width="0.0206823"/>
<path fill-rule="evenodd" clip-rule="evenodd" d="M63.3627 36.288C63.3598 36.3244 63.365 36.3609 63.3781 36.3953C63.3912 36.4298 63.4118 36.4613 63.4387 36.488C63.4657 36.5148 63.4983 36.5361 63.5346 36.5507C63.5709 36.5653 63.6101 36.5728 63.6497 36.5728C63.6893 36.5728 63.7285 36.5653 63.7648 36.5507C63.8011 36.5361 63.8338 36.5148 63.8607 36.488C63.8876 36.4613 63.9083 36.4298 63.9214 36.3953C63.9344 36.3609 63.9397 36.3244 63.9367 36.288C63.9313 36.2214 63.8987 36.1591 63.8454 36.1137C63.7922 36.0682 63.7223 36.043 63.6497 36.043C63.5771 36.043 63.5072 36.0682 63.454 36.1137C63.4008 36.1591 63.3682 36.2214 63.3627 36.288Z" fill="white" stroke="black" stroke-width="0.0206823"/>
<path fill-rule="evenodd" clip-rule="evenodd" d="M62.6054 36.3828C62.6025 36.4191 62.6077 36.4556 62.6207 36.4901C62.6338 36.5245 62.6545 36.556 62.6814 36.5828C62.7084 36.6095 62.741 36.6308 62.7773 36.6454C62.8136 36.66 62.8528 36.6675 62.8924 36.6675C62.932 36.6675 62.9712 36.66 63.0075 36.6454C63.0438 36.6308 63.0764 36.6095 63.1034 36.5828C63.1303 36.556 63.151 36.5245 63.164 36.4901C63.1771 36.4556 63.1823 36.4191 63.1794 36.3828C63.1739 36.3161 63.1413 36.2538 63.0881 36.2084C63.0349 36.1629 62.965 36.1377 62.8924 36.1377C62.8198 36.1377 62.7499 36.1629 62.6967 36.2084C62.6435 36.2538 62.6109 36.3161 62.6054 36.3828Z" fill="white" stroke="black" stroke-width="0.0206823"/>
<path fill-rule="evenodd" clip-rule="evenodd" d="M61.7768 36.5009C61.7738 36.5373 61.7791 36.5738 61.7921 36.6082C61.8052 36.6426 61.8259 36.6742 61.8528 36.7009C61.8797 36.7277 61.9124 36.749 61.9487 36.7636C61.985 36.7781 62.0242 36.7857 62.0638 36.7857C62.1034 36.7857 62.1426 36.7781 62.1789 36.7636C62.2152 36.749 62.2478 36.7277 62.2748 36.7009C62.3017 36.6742 62.3223 36.6426 62.3354 36.6082C62.3485 36.5738 62.3537 36.5373 62.3508 36.5009C62.3453 36.4343 62.3127 36.372 62.2595 36.3266C62.2063 36.2811 62.1364 36.2559 62.0638 36.2559C61.9912 36.2559 61.9213 36.2811 61.8681 36.3266C61.8148 36.372 61.7822 36.4343 61.7768 36.5009Z" fill="white" stroke="black" stroke-width="0.0206823"/>
<path fill-rule="evenodd" clip-rule="evenodd" d="M61.0668 36.6904C61.0639 36.7267 61.0691 36.7633 61.0822 36.7977C61.0953 36.8321 61.1159 36.8637 61.1428 36.8904C61.1698 36.9171 61.2024 36.9384 61.2387 36.953C61.275 36.9676 61.3142 36.9751 61.3538 36.9751C61.3934 36.9751 61.4326 36.9676 61.4689 36.953C61.5052 36.9384 61.5379 36.9171 61.5648 36.8904C61.5917 36.8637 61.6124 36.8321 61.6255 36.7977C61.6385 36.7633 61.6438 36.7267 61.6408 36.6904C61.6354 36.6237 61.6028 36.5615 61.5495 36.516C61.4963 36.4706 61.4264 36.4453 61.3538 36.4453C61.2812 36.4453 61.2113 36.4706 61.1581 36.516C61.1049 36.5615 61.0723 36.6237 61.0668 36.6904Z" fill="white" stroke="black" stroke-width="0.0206823"/>
<path fill-rule="evenodd" clip-rule="evenodd" d="M53.9278 40.3486C53.9307 40.3849 53.9255 40.4215 53.9125 40.4559C53.8994 40.4903 53.8787 40.5219 53.8518 40.5486C53.8248 40.5753 53.7922 40.5966 53.7559 40.6112C53.7196 40.6258 53.6804 40.6333 53.6408 40.6333C53.6012 40.6333 53.562 40.6258 53.5257 40.6112C53.4894 40.5966 53.4568 40.5753 53.4298 40.5486C53.4029 40.5219 53.3822 40.4903 53.3692 40.4559C53.3561 40.4215 53.3509 40.3849 53.3538 40.3486C53.3593 40.2819 53.3919 40.2197 53.4451 40.1742C53.4983 40.1288 53.5682 40.1035 53.6408 40.1035C53.7134 40.1035 53.7833 40.1288 53.8365 40.1742C53.8898 40.2197 53.9223 40.2819 53.9278 40.3486Z" fill="white" stroke="black" stroke-width="0.0206823"/>
<path fill-rule="evenodd" clip-rule="evenodd" d="M53.6319 39.7451C53.6349 39.7814 53.6296 39.818 53.6166 39.8524C53.6035 39.8868 53.5828 39.9183 53.5559 39.9451C53.5289 39.9718 53.4963 39.9931 53.46 40.0077C53.4237 40.0223 53.3845 40.0298 53.3449 40.0298C53.3053 40.0298 53.2661 40.0223 53.2298 40.0077C53.1935 39.9931 53.1609 39.9718 53.1339 39.9451C53.107 39.9183 53.0863 39.8868 53.0733 39.8524C53.0602 39.818 53.055 39.7814 53.0579 39.7451C53.0634 39.6784 53.096 39.6161 53.1492 39.5707C53.2024 39.5253 53.2723 39.5 53.3449 39.5C53.4175 39.5 53.4874 39.5253 53.5406 39.5707C53.5939 39.6161 53.6264 39.6784 53.6319 39.7451Z" fill="white" stroke="black" stroke-width="0.0206823"/>
<path fill-rule="evenodd" clip-rule="evenodd" d="M53.4898 39.1298C53.4928 39.1662 53.4875 39.2027 53.4745 39.2371C53.4614 39.2716 53.4407 39.3031 53.4138 39.3298C53.3869 39.3566 53.3542 39.3779 53.3179 39.3925C53.2816 39.4071 53.2424 39.4146 53.2028 39.4146C53.1632 39.4146 53.124 39.4071 53.0877 39.3925C53.0514 39.3779 53.0188 39.3566 52.9918 39.3298C52.9649 39.3031 52.9443 39.2716 52.9312 39.2371C52.9181 39.2027 52.9129 39.1662 52.9158 39.1298C52.9213 39.0632 52.9539 39.0009 53.0071 38.9555C53.0603 38.91 53.1302 38.8848 53.2028 38.8848C53.2754 38.8848 53.3453 38.91 53.3985 38.9555C53.4518 39.0009 53.4844 39.0632 53.4898 39.1298Z" fill="white" stroke="black" stroke-width="0.0206823"/>
<path fill-rule="evenodd" clip-rule="evenodd" d="M53.3833 38.4785C53.3863 38.5148 53.3811 38.5514 53.368 38.5858C53.3549 38.6202 53.3343 38.6517 53.3074 38.6785C53.2804 38.7052 53.2478 38.7265 53.2115 38.7411C53.1752 38.7557 53.136 38.7632 53.0964 38.7632C53.0568 38.7632 53.0176 38.7557 52.9813 38.7411C52.945 38.7265 52.9123 38.7052 52.8854 38.6785C52.8585 38.6517 52.8378 38.6202 52.8247 38.5858C52.8117 38.5514 52.8064 38.5148 52.8094 38.4785C52.8148 38.4118 52.8474 38.3495 52.9007 38.3041C52.9539 38.2587 53.0238 38.2334 53.0964 38.2334C53.169 38.2334 53.2389 38.2587 53.2921 38.3041C53.3453 38.3495 53.3779 38.4118 53.3833 38.4785Z" fill="white" stroke="black" stroke-width="0.0206823"/>
<path fill-rule="evenodd" clip-rule="evenodd" d="M53.4068 37.7685C53.4098 37.8049 53.4045 37.8414 53.3915 37.8758C53.3784 37.9102 53.3577 37.9418 53.3308 37.9685C53.3039 37.9952 53.2712 38.0166 53.2349 38.0311C53.1986 38.0457 53.1594 38.0533 53.1198 38.0533C53.0802 38.0533 53.041 38.0457 53.0047 38.0311C52.9684 38.0166 52.9358 37.9952 52.9088 37.9685C52.8819 37.9418 52.8612 37.9102 52.8482 37.8758C52.8351 37.8414 52.8299 37.8049 52.8328 37.7685C52.8383 37.7019 52.8709 37.6396 52.9241 37.5941C52.9773 37.5487 53.0472 37.5234 53.1198 37.5234C53.1924 37.5234 53.2623 37.5487 53.3155 37.5941C53.3688 37.6396 53.4013 37.7019 53.4068 37.7685Z" fill="white" stroke="black" stroke-width="0.0206823"/>
<path fill-rule="evenodd" clip-rule="evenodd" d="M53.6436 37.0937C53.6466 37.1301 53.6414 37.1666 53.6283 37.201C53.6152 37.2354 53.5945 37.267 53.5676 37.2937C53.5407 37.3204 53.508 37.3418 53.4717 37.3563C53.4354 37.3709 53.3962 37.3785 53.3566 37.3785C53.317 37.3785 53.2778 37.3709 53.2415 37.3563C53.2052 37.3418 53.1726 37.3204 53.1457 37.2937C53.1187 37.267 53.0981 37.2354 53.085 37.201C53.0719 37.1666 53.0667 37.1301 53.0697 37.0937C53.0751 37.0271 53.1077 36.9648 53.1609 36.9193C53.2141 36.8739 53.284 36.8486 53.3566 36.8486C53.4292 36.8486 53.4991 36.8739 53.5524 36.9193C53.6056 36.9648 53.6382 37.0271 53.6436 37.0937Z" fill="white" stroke="black" stroke-width="0.0206823"/>
<path fill-rule="evenodd" clip-rule="evenodd" d="M54.1646 36.5605C54.1676 36.5969 54.1623 36.6334 54.1493 36.6678C54.1362 36.7022 54.1155 36.7338 54.0886 36.7605C54.0617 36.7872 54.029 36.8086 53.9927 36.8231C53.9564 36.8377 53.9172 36.8452 53.8776 36.8452C53.838 36.8452 53.7988 36.8377 53.7625 36.8231C53.7262 36.8086 53.6936 36.7872 53.6666 36.7605C53.6397 36.7338 53.6191 36.7022 53.606 36.6678C53.5929 36.6334 53.5877 36.5969 53.5907 36.5605C53.5961 36.4939 53.6287 36.4316 53.6819 36.3861C53.7351 36.3407 53.805 36.3154 53.8776 36.3154C53.9502 36.3154 54.0201 36.3407 54.0733 36.3861C54.1266 36.4316 54.1592 36.4939 54.1646 36.5605Z" fill="white" stroke="black" stroke-width="0.0206823"/>
<path fill-rule="evenodd" clip-rule="evenodd" d="M54.8868 36.206C54.8897 36.2424 54.8845 36.2789 54.8714 36.3133C54.8584 36.3477 54.8377 36.3793 54.8108 36.406C54.7838 36.4327 54.7512 36.4541 54.7149 36.4686C54.6786 36.4832 54.6394 36.4908 54.5998 36.4908C54.5602 36.4908 54.521 36.4832 54.4847 36.4686C54.4484 36.4541 54.4158 36.4327 54.3888 36.406C54.3619 36.3793 54.3412 36.3477 54.3281 36.3133C54.3151 36.2789 54.3099 36.2424 54.3128 36.206C54.3183 36.1394 54.3509 36.0771 54.4041 36.0316C54.4573 35.9862 54.5272 35.9609 54.5998 35.9609C54.6724 35.9609 54.7423 35.9862 54.7955 36.0316C54.8487 36.0771 54.8813 36.1394 54.8868 36.206Z" fill="white" stroke="black" stroke-width="0.0206823"/>
<path fill-rule="evenodd" clip-rule="evenodd" d="M55.5967 36.1582C55.5997 36.1945 55.5945 36.231 55.5814 36.2655C55.5683 36.2999 55.5477 36.3314 55.5207 36.3582C55.4938 36.3849 55.4611 36.4062 55.4248 36.4208C55.3885 36.4354 55.3494 36.4429 55.3098 36.4429C55.2701 36.4429 55.231 36.4354 55.1947 36.4208C55.1584 36.4062 55.1257 36.3849 55.0988 36.3582C55.0718 36.3314 55.0512 36.2999 55.0381 36.2655C55.025 36.231 55.0198 36.1945 55.0228 36.1582C55.0282 36.0915 55.0608 36.0292 55.114 35.9838C55.1672 35.9383 55.2372 35.9131 55.3098 35.9131C55.3823 35.9131 55.4523 35.9383 55.5055 35.9838C55.5587 36.0292 55.5913 36.0915 55.5967 36.1582Z" fill="white" stroke="black" stroke-width="0.0206823"/>
<path fill-rule="evenodd" clip-rule="evenodd" d="M56.3663 36.1826C56.3692 36.2189 56.364 36.2555 56.3509 36.2899C56.3379 36.3243 56.3172 36.3558 56.2903 36.3826C56.2633 36.4093 56.2307 36.4306 56.1944 36.4452C56.1581 36.4598 56.1189 36.4673 56.0793 36.4673C56.0397 36.4673 56.0005 36.4598 55.9642 36.4452C55.9279 36.4306 55.8952 36.4093 55.8683 36.3826C55.8414 36.3558 55.8207 36.3243 55.8076 36.2899C55.7946 36.2555 55.7893 36.2189 55.7923 36.1826C55.7977 36.1159 55.8303 36.0536 55.8836 36.0082C55.9368 35.9628 56.0067 35.9375 56.0793 35.9375C56.1519 35.9375 56.2218 35.9628 56.275 36.0082C56.3282 36.0536 56.3608 36.1159 56.3663 36.1826Z" fill="white" stroke="black" stroke-width="0.0206823"/>
<path fill-rule="evenodd" clip-rule="evenodd" d="M57.1353 36.289C57.1383 36.3254 57.133 36.3619 57.12 36.3963C57.1069 36.4307 57.0862 36.4623 57.0593 36.489C57.0324 36.5157 56.9997 36.5371 56.9634 36.5517C56.9271 36.5662 56.8879 36.5738 56.8483 36.5738C56.8087 36.5738 56.7695 36.5662 56.7332 36.5517C56.6969 36.5371 56.6643 36.5157 56.6374 36.489C56.6104 36.4623 56.5898 36.4307 56.5767 36.3963C56.5636 36.3619 56.5584 36.3254 56.5614 36.289C56.5668 36.2224 56.5994 36.1601 56.6526 36.1146C56.7058 36.0692 56.7757 36.0439 56.8483 36.0439C56.9209 36.0439 56.9908 36.0692 57.0441 36.1146C57.0973 36.1601 57.1299 36.2224 57.1353 36.289Z" fill="white" stroke="black" stroke-width="0.0206823"/>
<path fill-rule="evenodd" clip-rule="evenodd" d="M57.9048 36.3837C57.9078 36.4201 57.9026 36.4566 57.8895 36.491C57.8764 36.5255 57.8558 36.557 57.8288 36.5837C57.8019 36.6105 57.7693 36.6318 57.733 36.6464C57.6966 36.661 57.6575 36.6685 57.6179 36.6685C57.5783 36.6685 57.5391 36.661 57.5028 36.6464C57.4665 36.6318 57.4338 36.6105 57.4069 36.5837C57.3799 36.557 57.3593 36.5255 57.3462 36.491C57.3331 36.4566 57.3279 36.4201 57.3309 36.3837C57.3363 36.3171 57.3689 36.2548 57.4221 36.2094C57.4754 36.1639 57.5453 36.1387 57.6179 36.1387C57.6905 36.1387 57.7604 36.1639 57.8136 36.2094C57.8668 36.2548 57.8994 36.3171 57.9048 36.3837Z" fill="white" stroke="black" stroke-width="0.0206823"/>
<path fill-rule="evenodd" clip-rule="evenodd" d="M58.7217 36.5019C58.7247 36.5383 58.7195 36.5748 58.7064 36.6092C58.6933 36.6436 58.6727 36.6752 58.6457 36.7019C58.6188 36.7286 58.5861 36.75 58.5498 36.7645C58.5135 36.7791 58.4744 36.7867 58.4348 36.7867C58.3951 36.7867 58.356 36.7791 58.3197 36.7645C58.2834 36.75 58.2507 36.7286 58.2238 36.7019C58.1968 36.6752 58.1762 36.6436 58.1631 36.6092C58.15 36.5748 58.1448 36.5383 58.1478 36.5019C58.1532 36.4353 58.1858 36.373 58.239 36.3275C58.2922 36.2821 58.3622 36.2568 58.4348 36.2568C58.5073 36.2568 58.5773 36.2821 58.6305 36.3275C58.6837 36.373 58.7163 36.4353 58.7217 36.5019Z" fill="white" stroke="black" stroke-width="0.0206823"/>
<path fill-rule="evenodd" clip-rule="evenodd" d="M59.4317 36.6914C59.4347 36.7277 59.4294 36.7642 59.4164 36.7987C59.4033 36.8331 59.3826 36.8646 59.3557 36.8914C59.3288 36.9181 59.2961 36.9394 59.2598 36.954C59.2235 36.9686 59.1843 36.9761 59.1447 36.9761C59.1051 36.9761 59.0659 36.9686 59.0296 36.954C58.9933 36.9394 58.9607 36.9181 58.9337 36.8914C58.9068 36.8646 58.8861 36.8331 58.8731 36.7987C58.86 36.7642 58.8548 36.7277 58.8577 36.6914C58.8632 36.6247 58.8958 36.5624 58.949 36.517C59.0022 36.4715 59.0721 36.4463 59.1447 36.4463C59.2173 36.4463 59.2872 36.4715 59.3404 36.517C59.3937 36.5624 59.4263 36.6247 59.4317 36.6914Z" fill="white" stroke="black" stroke-width="0.0206823"/>
<path fill-rule="evenodd" clip-rule="evenodd" d="M54.3301 40.8808C54.3331 40.9172 54.3279 40.9537 54.3148 40.9881C54.3017 41.0225 54.2811 41.0541 54.2541 41.0808C54.2272 41.1075 54.1945 41.1289 54.1582 41.1435C54.1219 41.158 54.0828 41.1656 54.0432 41.1656C54.0035 41.1656 53.9644 41.158 53.9281 41.1435C53.8918 41.1289 53.8591 41.1075 53.8322 41.0808C53.8052 41.0541 53.7846 41.0225 53.7715 40.9881C53.7584 40.9537 53.7532 40.9172 53.7562 40.8808C53.7616 40.8142 53.7942 40.7519 53.8474 40.7064C53.9006 40.661 53.9706 40.6357 54.0432 40.6357C54.1157 40.6357 54.1857 40.661 54.2389 40.7064C54.2921 40.7519 54.3247 40.8142 54.3301 40.8808Z" fill="white" stroke="black" stroke-width="0.0206823"/>
<path fill-rule="evenodd" clip-rule="evenodd" d="M54.5258 40.8991C54.5258 40.8991 53.4264 40.1252 53.3973 38.2634C53.3811 37.1919 53.9535 36.418 55.3859 36.418C57.3907 36.418 60.2539 37.2082 60.2539 37.2082V37.4716C60.2539 37.4716 57.963 36.6814 55.3843 36.6814C54.2396 36.6814 53.6657 37.4553 53.6657 38.247C53.6657 39.5656 54.8136 40.9006 54.8136 40.9006V43.0094H54.5258V40.8991Z" fill="#FFF100" stroke="black" stroke-width="0.0206823"/>
<path fill-rule="evenodd" clip-rule="evenodd" d="M56.522 41.8762C56.522 41.8762 56.6044 41.6755 56.904 41.6755C57.1077 41.6755 57.2856 41.8762 57.2856 42.0769V42.4789H57.4769V42.0769C57.4769 41.8762 57.6676 41.6755 57.8584 41.6755C58.1451 41.6755 58.2404 41.8762 58.2404 41.8762C58.2404 41.8762 58.2404 41.2735 57.8584 41.2735C57.5722 41.2735 57.4769 41.4742 57.4769 41.4742C57.4769 41.4742 57.5722 41.1731 57.5722 40.8715C57.5722 40.5699 57.3815 40.3691 57.3815 40.3691C57.3815 40.4077 57.1902 40.5704 57.1902 40.8715C57.1902 41.1726 57.2856 41.4742 57.2856 41.4742C57.2856 41.4742 57.1902 41.2735 56.904 41.2735C56.522 41.2735 56.522 41.8762 56.522 41.8762Z" fill="#FFF100" stroke="black" stroke-width="0.0165828"/>
<path fill-rule="evenodd" clip-rule="evenodd" d="M62.251 41.8762C62.251 41.8762 62.3334 41.6755 62.633 41.6755C62.8367 41.6755 63.0146 41.8762 63.0146 42.0769V42.4789H63.2059V42.0769C63.2059 41.8762 63.3966 41.6755 63.5874 41.6755C63.8741 41.6755 63.9694 41.8762 63.9694 41.8762C63.9694 41.8762 63.9694 41.2735 63.5874 41.2735C63.3012 41.2735 63.2059 41.4742 63.2059 41.4742C63.2059 41.4742 63.3012 41.1731 63.3012 40.8715C63.3012 40.5699 63.1105 40.3691 63.1105 40.3691C63.1105 40.4077 62.9192 40.5704 62.9192 40.8715C62.9192 41.1726 63.0146 41.4742 63.0146 41.4742C63.0146 41.4742 62.9192 41.2735 62.633 41.2735C62.251 41.2735 62.251 41.8762 62.251 41.8762Z" fill="#FFF100" stroke="black" stroke-width="0.0165828"/>
<path fill-rule="evenodd" clip-rule="evenodd" d="M54.5259 44.592V42.2182C54.5259 42.2182 55.0982 43.0099 55.9583 43.0099C56.6616 43.0099 57.3908 41.9548 57.3908 41.9548C57.3908 41.9548 58.0617 42.7465 58.8232 42.7465C59.5022 42.7465 60.254 41.7256 60.254 41.7256C60.254 41.7256 60.9525 42.7465 61.6865 42.7465C62.4221 42.7465 63.1189 41.9548 63.1189 41.9548C63.1189 41.9548 63.8675 43.0099 64.8375 43.0099C65.696 43.0099 65.9838 42.2182 65.9838 42.2182V44.592H54.5259Z" fill="#FFF100" stroke="black" stroke-width="0.0206823"/>
<path fill-rule="evenodd" clip-rule="evenodd" d="M54.5264 44.5915V42.7461C54.5264 42.7461 56.245 43.2714 56.245 44.5915H54.5264Z" fill="#FFF100" stroke="black" stroke-width="0.0206823"/>
<path fill-rule="evenodd" clip-rule="evenodd" d="M65.9722 44.5915V42.7461C65.9722 42.7461 64.2536 43.2714 64.2536 44.5915H65.9722Z" fill="#FFF100" stroke="black" stroke-width="0.0206823"/>
<path fill-rule="evenodd" clip-rule="evenodd" d="M55.6719 44.592C55.6719 43.2719 57.3905 42.4385 57.3905 42.4385C57.3905 42.4385 59.1091 43.2719 59.1091 44.592H55.6719Z" fill="#FFF100" stroke="black" stroke-width="0.0206823"/>
<path fill-rule="evenodd" clip-rule="evenodd" d="M61.4009 44.592C61.4009 43.2719 63.1195 42.4385 63.1195 42.4385C63.1195 42.4385 64.8381 43.2719 64.8381 44.592H61.4009Z" fill="#FFF100" stroke="black" stroke-width="0.0206823"/>
<path fill-rule="evenodd" clip-rule="evenodd" d="M58.249 44.5988C58.249 43.2802 60.2554 42.2266 60.2554 42.2266C60.2554 42.2266 62.2602 43.2802 62.2602 44.5988H58.2506H58.249Z" fill="#FFF100" stroke="black" stroke-width="0.0206823"/>
<path fill-rule="evenodd" clip-rule="evenodd" d="M66.2644 44.5942C65.6985 44.3308 63.6109 44.0674 60.2492 44.0674C56.8876 44.0674 54.6545 44.3308 54.087 44.5942C53.5211 44.8576 53.5211 45.386 54.087 45.6494C54.6529 45.9128 56.8892 46.1762 60.2492 46.1762C63.6093 46.1762 65.6985 45.9128 66.2644 45.6494C66.8302 45.386 66.8302 44.8576 66.2644 44.5942Z" fill="white" stroke="black" stroke-width="0.0205652"/>
<path fill-rule="evenodd" clip-rule="evenodd" d="M65.9842 45.6448C65.9842 46.1775 61.2141 46.1775 60.2554 46.1775C59.2137 46.1775 54.5264 46.3195 54.5264 45.6448C54.5264 45.124 59.2492 45.124 60.2554 45.124C61.2496 45.124 65.9842 45.2305 65.9842 45.6448Z" fill="#808080"/>
<path fill-rule="evenodd" clip-rule="evenodd" d="M55.0946 43.7511C55.0946 43.9286 54.9762 44.0706 54.8105 44.0706C54.6447 44.0706 54.5264 43.9286 54.5264 43.7511C54.5264 43.5736 54.6447 43.4434 54.8105 43.4434C54.9642 43.4434 55.0946 43.5854 55.0946 43.7511ZM65.9842 43.7511C65.9842 43.9286 65.854 44.0706 65.6884 44.0706C65.5345 44.0706 65.4042 43.9286 65.4042 43.7511C65.4042 43.5736 65.5345 43.4434 65.6884 43.4434C65.854 43.4434 65.9724 43.5854 65.9724 43.7511H65.9842Z" fill="#CC0000"/>
<path fill-rule="evenodd" clip-rule="evenodd" d="M60.8234 43.5979C60.8234 43.7636 60.563 43.9057 60.2553 43.9057C59.9475 43.9057 59.6753 43.7636 59.6753 43.5861C59.6753 43.4086 59.9357 43.2783 60.2553 43.2783C60.5749 43.2783 60.8234 43.4203 60.8234 43.5861V43.5979Z" fill="black"/>
<path fill-rule="evenodd" clip-rule="evenodd" d="M63.5693 43.5979C63.5693 43.7636 63.3799 43.9057 63.143 43.9057C62.9062 43.9057 62.717 43.7636 62.717 43.5861C62.717 43.4086 62.9064 43.2783 63.1432 43.2783C63.3799 43.2783 63.5693 43.4203 63.5693 43.5861V43.5979ZM57.6747 43.5979C57.6747 43.7636 57.4853 43.9057 57.2484 43.9057C57.0115 43.9057 56.8105 43.7636 56.8105 43.5861C56.8105 43.4086 56.9999 43.2783 57.2486 43.2783C57.4853 43.2783 57.6747 43.4203 57.6747 43.5861V43.5979Z" fill="#006300"/>
<path fill-rule="evenodd" clip-rule="evenodd" d="M59.1035 41.7788C59.1035 41.7788 59.4305 41.3281 59.7584 41.3281H60.0854V41.6283C60.0854 42.0808 59.5949 42.2322 59.5949 42.2322H60.9039C60.9039 42.2322 60.4124 42.0808 60.4124 41.6283V41.3281H60.7403C61.0674 41.3281 61.3944 41.7805 61.3944 41.7805V40.5737C61.3944 40.5737 61.0674 41.0262 60.7403 41.0262H60.4124V40.7242C60.4124 40.2726 60.9039 40.1221 60.9039 40.1221H59.594C59.594 40.1221 60.0845 40.2726 60.0845 40.7242V41.0262H59.7575C59.4295 41.0262 59.1025 40.5737 59.1025 40.5737V41.7797L59.1035 41.7788Z" fill="#FFF100" stroke="black" stroke-width="0.0195001"/>
<path fill-rule="evenodd" clip-rule="evenodd" d="M54.519 42.7488H54.8466C54.8466 42.7488 54.6008 42.617 54.6008 42.2212V41.9585H54.7644C54.9284 41.9585 55.0924 42.3544 55.0924 42.3544V41.2985C55.0924 41.2985 54.9284 41.6943 54.7644 41.6943H54.6008V41.4302C54.6008 41.035 54.8466 40.9033 54.8466 40.9033H54.519V42.7488Z" fill="#FFF100" stroke="black" stroke-width="0.019349"/>
<path fill-rule="evenodd" clip-rule="evenodd" d="M65.9795 42.7488H65.6519C65.6519 42.7488 65.8977 42.617 65.8977 42.2212V41.9585H65.7342C65.5702 41.9585 65.4062 42.3544 65.4062 42.3544V41.2985C65.4062 41.2985 65.5702 41.6943 65.7342 41.6943H65.8977V41.4302C65.8977 41.035 65.6519 40.9033 65.6519 40.9033H65.9795V42.7488Z" fill="#FFF100" stroke="black" stroke-width="0.019349"/>
<path fill-rule="evenodd" clip-rule="evenodd" d="M60.5401 41.1638C60.5401 41.2337 60.51 41.3007 60.4563 41.3501C60.4026 41.3995 60.3298 41.4272 60.2539 41.4272C60.178 41.4272 60.1053 41.3995 60.0516 41.3501C59.9979 41.3007 59.9678 41.2337 59.9678 41.1638C59.9678 41.0939 59.9979 41.0269 60.0516 40.9775C60.1053 40.9281 60.178 40.9004 60.2539 40.9004C60.3298 40.9004 60.4026 40.9281 60.4563 40.9775C60.51 41.0269 60.5401 41.0939 60.5401 41.1638Z" fill="white" stroke="black" stroke-width="0.0206823"/>
<path fill-rule="evenodd" clip-rule="evenodd" d="M59.1035 36.2398C59.1035 36.2398 59.4305 35.789 59.7584 35.789H60.0854V36.0892C60.0854 36.5417 59.5949 36.6931 59.5949 36.6931H60.9039C60.9039 36.6931 60.4124 36.5417 60.4124 36.0892V35.789H60.7403C61.0674 35.789 61.3944 36.2415 61.3944 36.2415V35.0346C61.3944 35.0346 61.0674 35.4871 60.7403 35.4871H60.4124V35.1852C60.4124 34.7335 60.9039 34.583 60.9039 34.583H59.594C59.594 34.583 60.0845 34.7335 60.0845 35.1852V35.4871H59.7575C59.4295 35.4871 59.1025 35.0346 59.1025 35.0346V36.2406L59.1035 36.2398Z" fill="#FFF100" stroke="black" stroke-width="0.0195001"/>
<path fill-rule="evenodd" clip-rule="evenodd" d="M60.564 35.6716C60.564 35.7415 60.5339 35.8085 60.4802 35.8579C60.4265 35.9073 60.3538 35.935 60.2779 35.935C60.202 35.935 60.1292 35.9073 60.0755 35.8579C60.0218 35.8085 59.9917 35.7415 59.9917 35.6716C59.9917 35.6018 60.0218 35.5348 60.0755 35.4854C60.1292 35.436 60.202 35.4082 60.2779 35.4082C60.3538 35.4082 60.4265 35.436 60.4802 35.4854C60.5339 35.5348 60.564 35.6018 60.564 35.6716Z" fill="white" stroke="black" stroke-width="0.0206823"/>
<path fill-rule="evenodd" clip-rule="evenodd" d="M59.6818 36.6865H60.8281V37.4783H59.6802L59.6818 36.6865Z" fill="#FFF100" stroke="black" stroke-width="0.0206823"/>
<path fill-rule="evenodd" clip-rule="evenodd" d="M59.6818 37.1006H60.8281V40.1143H59.6802L59.6818 37.1006Z" fill="#FFF100" stroke="black" stroke-width="0.0206823"/>
<path fill-rule="evenodd" clip-rule="evenodd" d="M60.5328 39.5791C60.5357 39.6154 60.5305 39.6519 60.5174 39.6864C60.5044 39.7208 60.4837 39.7523 60.4568 39.7791C60.4298 39.8058 60.3972 39.8271 60.3609 39.8417C60.3246 39.8563 60.2854 39.8638 60.2458 39.8638C60.2062 39.8638 60.167 39.8563 60.1307 39.8417C60.0944 39.8271 60.0618 39.8058 60.0348 39.7791C60.0079 39.7523 59.9872 39.7208 59.9741 39.6864C59.9611 39.6519 59.9558 39.6154 59.9588 39.5791C59.9643 39.5124 59.9968 39.4501 60.0501 39.4047C60.1033 39.3592 60.1732 39.334 60.2458 39.334C60.3184 39.334 60.3883 39.3592 60.4415 39.4047C60.4947 39.4501 60.5273 39.5124 60.5328 39.5791Z" fill="white" stroke="black" stroke-width="0.0206823"/>
<path fill-rule="evenodd" clip-rule="evenodd" d="M60.5328 38.9042C60.5357 38.9406 60.5305 38.9771 60.5174 39.0115C60.5044 39.046 60.4837 39.0775 60.4568 39.1043C60.4298 39.131 60.3972 39.1523 60.3609 39.1669C60.3246 39.1815 60.2854 39.189 60.2458 39.189C60.2062 39.189 60.167 39.1815 60.1307 39.1669C60.0944 39.1523 60.0618 39.131 60.0348 39.1043C60.0079 39.0775 59.9872 39.046 59.9741 39.0115C59.9611 38.9771 59.9558 38.9406 59.9588 38.9042C59.9643 38.8376 59.9968 38.7753 60.0501 38.7299C60.1033 38.6844 60.1732 38.6592 60.2458 38.6592C60.3184 38.6592 60.3883 38.6844 60.4415 38.7299C60.4947 38.7753 60.5273 38.8376 60.5328 38.9042Z" fill="white" stroke="black" stroke-width="0.0206823"/>
<path fill-rule="evenodd" clip-rule="evenodd" d="M60.5328 38.2773C60.5357 38.3137 60.5305 38.3502 60.5174 38.3846C60.5044 38.419 60.4837 38.4506 60.4568 38.4773C60.4298 38.504 60.3972 38.5254 60.3609 38.5399C60.3246 38.5545 60.2854 38.562 60.2458 38.562C60.2062 38.562 60.167 38.5545 60.1307 38.5399C60.0944 38.5254 60.0618 38.504 60.0348 38.4773C60.0079 38.4506 59.9872 38.419 59.9741 38.3846C59.9611 38.3502 59.9558 38.3137 59.9588 38.2773C59.9643 38.2107 59.9968 38.1484 60.0501 38.1029C60.1033 38.0575 60.1732 38.0322 60.2458 38.0322C60.3184 38.0322 60.3883 38.0575 60.4415 38.1029C60.4947 38.1484 60.5273 38.2107 60.5328 38.2773Z" fill="white" stroke="black" stroke-width="0.0206823"/>
<path fill-rule="evenodd" clip-rule="evenodd" d="M60.5328 37.6142C60.5357 37.6506 60.5305 37.6871 60.5174 37.7215C60.5044 37.7559 60.4837 37.7875 60.4568 37.8142C60.4298 37.8409 60.3972 37.8623 60.3609 37.8768C60.3246 37.8914 60.2854 37.899 60.2458 37.899C60.2062 37.899 60.167 37.8914 60.1307 37.8768C60.0944 37.8623 60.0618 37.8409 60.0348 37.8142C60.0079 37.7875 59.9872 37.7559 59.9741 37.7215C59.9611 37.6871 59.9558 37.6506 59.9588 37.6142C59.9643 37.5476 59.9968 37.4853 60.0501 37.4398C60.1033 37.3944 60.1732 37.3691 60.2458 37.3691C60.3184 37.3691 60.3883 37.3944 60.4415 37.4398C60.4947 37.4853 60.5273 37.5476 60.5328 37.6142Z" fill="white" stroke="black" stroke-width="0.0206823"/>
<path fill-rule="evenodd" clip-rule="evenodd" d="M60.8589 44.6036C60.8589 44.722 60.5986 44.8168 60.2671 44.8168C59.9356 44.8168 59.6989 44.722 59.6989 44.6036C59.6989 44.4853 59.9593 44.3906 60.2789 44.3906C60.5986 44.3906 60.8589 44.4854 60.8589 44.6036ZM66.1381 45.1245C66.1026 45.2074 65.8184 45.2193 65.4989 45.1364C65.1793 45.0654 64.9544 44.947 64.978 44.8641C65.0135 44.7813 65.2977 44.7694 65.6173 44.8523C65.9368 44.9233 66.1617 45.0416 66.1381 45.1245ZM63.9247 44.7695C63.9247 44.8759 63.6406 44.9351 63.3091 44.9233C62.9896 44.8995 62.729 44.7931 62.7409 44.6865C62.7528 44.58 63.0369 44.5209 63.3564 44.5445C63.6879 44.5683 63.9483 44.6629 63.9247 44.7695ZM54.2422 45.1245C54.2659 45.2074 54.55 45.2193 54.8697 45.1364C55.1892 45.0654 55.4259 44.947 55.3904 44.8641C55.3549 44.7813 55.0708 44.7694 54.7512 44.8523C54.4434 44.9233 54.2068 45.0416 54.2423 45.1245H54.2422ZM56.5504 44.722C56.5622 44.8286 56.8463 44.8878 57.1659 44.8641C57.4973 44.8404 57.7577 44.7458 57.734 44.6274C57.734 44.5326 57.4499 44.4616 57.1185 44.4854C56.7989 44.509 56.5386 44.6036 56.5504 44.722Z" fill="black"/>
<path d="M0 0H40V30H0V0Z" fill="#012169"/>
<path d="M4.6875 0L19.9375 11.3125L35.125 0H40V3.875L25 15.0625L40 26.1875V30H35L20 18.8125L5.0625 30H0V26.25L14.9375 15.125L0 4V0H4.6875Z" fill="white"/>
<path d="M26.5 17.5625L40 27.5V30L23.0625 17.5625H26.5ZM15 18.8125L15.375 21L3.375 30H0L15 18.8125ZM40 0V0.1875L24.4375 11.9375L24.5625 9.1875L36.875 0H40ZM0 0L14.9375 11H11.1875L0 2.625V0Z" fill="#C8102E"/>
<path d="M15.0625 0V30H25.0625V0H15.0625ZM0 10V20H40V10H0Z" fill="white"/>
<path d="M0 12.0625V18.0625H40V12.0625H0ZM17.0625 0V30H23.0625V0H17.0625Z" fill="#C8102E"/>
</g>
<defs>
<clipPath id="clip0_3730_50711">
<rect width="80" height="60" fill="white"/>
</clipPath>
</defs>
</svg>
