<svg width="80" height="60" viewBox="0 0 80 60" fill="none" xmlns="http://www.w3.org/2000/svg">
<g clip-path="url(#clip0_3730_50854)">
<path d="M0 0H80V60H0V0Z" fill="#032EA1"/>
<path d="M0 15H80V45H0V15Z" fill="#E00025"/>
<path d="M31.5498 28.2744H48.6198V34.8444H31.5498V28.2744Z" fill="white" stroke="black" stroke-width="0.15" stroke-linejoin="bevel"/>
<path d="M47.7498 31.889H48.2748V34.364H47.7498V31.889ZM31.5498 30.674H48.6198V31.424H31.5498V30.674ZM31.5498 29.624H48.6198V30.314H31.5498V29.624Z" fill="white" stroke="black" stroke-width="0.15" stroke-linejoin="bevel"/>
<path d="M31.5498 28.6045H48.6198V29.2495H31.5498V28.6045Z" fill="white" stroke="black" stroke-width="0.135" stroke-linejoin="bevel"/>
<path d="M36.0502 31.8896H36.5902V34.3646H36.0502V31.8896ZM43.4002 31.8896H43.9402V34.3646H43.4002V31.8896ZM31.7002 31.8896H32.2252V34.3646H31.7002V31.8896ZM32.7502 31.8896H33.2752V34.3646H32.7502V31.8896ZM33.8752 31.8896H34.4002V34.3646H33.8752V31.8896ZM35.0002 31.8896H35.5252V34.3646H35.0002V31.8896ZM44.4202 31.8896H44.9602V34.3646H44.4202V31.8896ZM45.5452 31.8896H46.0852V34.3646H45.5452V31.8896ZM46.6702 31.8896H47.2102V34.3646H46.6702V31.8896Z" fill="white" stroke="black" stroke-width="0.15" stroke-linejoin="bevel"/>
<path d="M24.875 35.1749C25.1886 35.0041 25.4249 34.7196 25.535 34.3799H54.5C54.6101 34.7196 54.8464 35.0041 55.16 35.1749H24.875Z" fill="white" stroke="black" stroke-width="0.15"/>
<path d="M39.6497 18.2697C39.6497 18.2697 39.6347 17.6546 39.9947 17.6396C40.3397 17.6396 40.3247 18.2697 40.3247 18.2697H39.6497ZM37.7747 26.4447V25.6197C37.7747 25.1997 37.3547 25.1697 37.3547 24.8697C37.3547 24.8697 37.2947 24.4197 37.4147 24.2097C37.5797 24.8097 37.8647 24.7047 37.8647 24.4497C37.8647 24.2397 37.7147 24.0297 37.3697 23.5047C37.2497 23.3397 37.3247 22.8147 37.4747 22.6197C37.5347 23.0697 37.6097 23.2947 37.8047 23.2947C37.9247 23.2947 38.0147 23.2197 38.0147 22.9947C38.0147 22.6947 37.8197 22.5447 37.7147 22.2747C37.663 22.1403 37.6511 21.9939 37.6803 21.8529C37.7096 21.7119 37.7788 21.5824 37.8797 21.4797C37.9547 21.9297 37.9397 22.1097 38.1347 22.1097C38.5397 21.9747 38.1347 21.3896 38.0447 21.2396C37.9547 21.0746 38.1947 20.7297 38.1947 20.7297C38.3147 21.1347 38.3447 21.1647 38.4947 21.1197C38.6747 21.0747 38.6447 20.8197 38.4347 20.6097C38.2997 20.4597 38.3147 20.2646 38.4647 20.1146C38.6147 20.3996 38.7947 20.3847 38.8097 20.2047L38.6897 19.5447H41.2997L41.1647 20.1896C41.1347 20.3696 41.3747 20.4146 41.5247 20.1146C41.6747 20.2646 41.6897 20.4747 41.5547 20.6097C41.3447 20.8197 41.3147 21.0747 41.4947 21.1197C41.6447 21.1647 41.6747 21.1197 41.7947 20.7297C41.7947 20.7297 42.0197 20.9546 41.9447 21.2396C41.8547 21.3896 41.4497 21.9897 41.8547 22.1097C42.0497 22.1097 42.0347 21.9297 42.1097 21.4797C42.2081 21.584 42.2745 21.7143 42.3011 21.8552C42.3277 21.9961 42.3133 22.1417 42.2597 22.2747C42.1697 22.5447 41.9597 22.6947 41.9597 22.9947C41.9597 23.2197 42.0647 23.2947 42.1847 23.2947C42.3797 23.2947 42.4547 23.0847 42.5147 22.6197C42.6647 22.8147 42.7397 23.3397 42.6197 23.5197C42.2747 24.0297 42.1097 24.2397 42.1097 24.4497C42.1097 24.7047 42.4097 24.8097 42.5597 24.2097C42.6947 24.4197 42.6347 24.8697 42.6347 24.8697C42.6347 25.1697 42.2297 25.1997 42.2147 25.6197V26.4447H37.7747ZM38.8547 19.5447L38.7947 19.0797H41.1797L41.1197 19.5447H38.8547ZM39.0047 19.0646L38.9747 18.6896H40.9997L40.9547 19.0646H39.0047ZM39.3497 18.6747L39.3047 18.2847H40.6547L40.6397 18.6747H39.3497ZM44.2997 35.1747C43.9997 35.0697 43.5497 34.7397 43.5497 34.4247V30.7797L43.9397 30.2697H36.0497L36.4247 30.7797V34.4247C36.4247 34.7397 36.1247 35.0697 35.8247 35.1747H44.2997Z" fill="white" stroke="black" stroke-width="0.15"/>
<path d="M37.4297 31.8896H37.9697V34.3646H37.4297V31.8896ZM41.9897 31.8896H42.5297V34.3646H41.9897V31.8896Z" fill="white" stroke="black" stroke-width="0.15" stroke-linejoin="bevel"/>
<path d="M35.8998 26.1299V30.2699H43.9998V26.1299C43.9062 26.1641 43.822 26.22 43.7542 26.293C43.6864 26.366 43.6369 26.454 43.6098 26.5499V28.3199H36.3048V26.5499C36.3048 26.5499 36.2148 26.2499 35.8848 26.1299H35.8998Z" fill="white" stroke="black" stroke-width="0.15"/>
<path d="M42.8898 35.175C42.6198 35.07 42.0498 34.74 42.0498 34.425V30.345C42.1098 30.12 42.4098 29.985 42.6048 29.835H37.2498C37.5048 29.985 37.7898 30.09 37.8948 30.345V34.425C37.8948 34.74 37.4448 35.07 37.1748 35.175H42.8898Z" fill="white" stroke="black" stroke-width="0.15"/>
<path d="M43.6097 29.8793V26.9393H42.8747V26.6543H37.0547V26.9543H36.3047V29.8793H43.6097ZM41.7497 35.1743C41.4797 35.0693 41.1047 34.7393 41.1047 34.4243V30.9443L41.3147 30.6293H38.6597L38.8847 30.9293V34.4243C38.8847 34.7393 38.4947 35.0693 38.2397 35.1743H41.7497Z" fill="white" stroke="black" stroke-width="0.15"/>
<path d="M39.3047 30.6299H40.6547V35.1749H39.3047V30.6299Z" fill="white" stroke="black" stroke-width="0.15"/>
<path d="M41.3598 29.6247C41.3598 29.3247 42.2298 29.3097 42.6798 29.0547H37.2798C37.7298 29.3097 38.5848 29.3247 38.5848 29.6247L38.7648 30.2097L41.0148 30.2997L41.3598 29.6247Z" fill="white" stroke="black" stroke-width="0.15" stroke-linejoin="bevel"/>
<path d="M42.4099 26.4448C42.4099 25.7098 42.4399 25.4398 42.6649 25.4398V27.7498C42.1099 27.9598 41.7199 28.6498 41.7199 28.6498H38.2399C38.2399 28.6498 37.8499 27.9598 37.2949 27.7498V25.4248C37.5649 25.4248 37.5649 25.7248 37.5649 26.4298L42.4099 26.4448ZM42.6649 26.1448C42.6649 25.3048 43.3999 25.2148 43.3999 25.2148V25.9648C43.1149 25.9498 42.9799 26.2048 42.9799 26.5648C42.9799 26.9398 43.2049 26.9398 43.2049 26.9398V29.0698H42.6649V26.1448Z" fill="white" stroke="black" stroke-width="0.15"/>
<path d="M37.2951 26.1448C37.2951 25.3048 36.5601 25.2148 36.5601 25.2148V25.9648C36.8451 25.9498 36.9801 26.2048 36.9801 26.5648C36.9801 26.9398 36.7551 26.9398 36.7551 26.9398V29.0698H37.2951V26.1448Z" fill="white" stroke="black" stroke-width="0.15"/>
<path d="M38.7197 20.3398H41.2997M38.4197 21.1498H41.5697M38.1197 22.1248H41.8547M37.8047 23.3099H42.2297M37.6997 24.6599H42.2597" stroke="black" stroke-width="0.12"/>
<path d="M36.3198 29.0996H43.6098M38.6298 29.0996H41.3298V30.0896H38.6298V29.0996Z" stroke="black" stroke-width="0.15"/>
<path d="M38.2998 26.8794C38.7498 27.4194 38.6898 28.3344 38.6898 28.8744H41.2998C41.2998 28.3344 41.2398 27.4194 41.6898 26.8794H38.2998ZM39.7548 20.7294L39.3948 20.5344V20.0094C39.5448 20.0544 39.6948 20.0694 39.7248 20.3094C39.7698 19.9644 39.8748 19.9944 40.0098 19.8594C40.1598 19.9944 40.2348 19.9644 40.2948 20.3094C40.2948 20.0694 40.4748 20.0544 40.6098 20.0094V20.5344L40.2648 20.7144L39.7548 20.7294Z" fill="white" stroke="black" stroke-width="0.15"/>
<path d="M39.725 21.5842L39.125 21.1642V20.6992C39.35 20.7442 39.575 20.7742 39.605 21.0292C39.665 20.6542 39.8 20.4742 40.01 20.3242C40.205 20.4742 40.34 20.6542 40.415 21.0292C40.43 20.7742 40.67 20.7442 40.865 20.6992V21.1792L40.28 21.5842H39.725Z" fill="white" stroke="black" stroke-width="0.15"/>
<path d="M39.6797 22.9196L39.0047 22.3196V21.6146C39.2447 21.6746 39.5147 21.7046 39.5447 22.0796C39.6197 21.5546 39.7697 21.2696 39.9947 21.0596C40.2347 21.2696 40.3847 21.5546 40.4747 22.0796C40.5047 21.7046 40.7747 21.6746 41.0147 21.6146V22.3196L40.3247 22.9196H39.6797ZM40.9397 23.7146L40.3397 24.5696H39.6347L39.0197 23.7146H40.9397ZM38.6597 25.1396C38.9597 25.3046 39.0797 25.6496 39.1097 26.2796H40.8497C40.8797 25.6496 40.9997 25.3046 41.2997 25.1396H38.6597Z" fill="white" stroke="black" stroke-width="0.15"/>
<path d="M41.3299 23.7001V22.8601C41.2007 22.8876 41.0807 22.9474 40.981 23.034C40.8813 23.1206 40.8052 23.2311 40.7599 23.3551C40.7599 23.0551 40.3849 22.4101 39.9799 22.0801C39.5749 22.4401 39.1849 23.0401 39.1999 23.3401C39.1249 23.1151 38.9299 22.9351 38.6299 22.8601V23.7151L41.3299 23.7001Z" fill="white" stroke="black" stroke-width="0.15" stroke-linejoin="bevel"/>
<path d="M41.4498 25.1395V24.2995C41.1348 24.3895 40.9248 24.5545 40.8348 24.7945C40.8348 24.4945 40.4298 23.8495 39.9798 23.5195C39.5298 23.8945 39.1098 24.4795 39.1248 24.7945C39.0498 24.5695 38.8248 24.3895 38.5098 24.2995V25.1545L41.4498 25.1395Z" fill="white" stroke="black" stroke-width="0.15" stroke-linejoin="bevel"/>
<path d="M41.8098 26.8951V25.9051C41.4974 26.0027 41.2276 26.2037 41.0448 26.4751C41.0448 25.9501 40.4448 25.1251 39.9798 24.8701C39.4998 25.1401 38.9148 25.9801 38.9148 26.4751C38.7273 26.2018 38.4521 26.0007 38.1348 25.9051V26.8951H41.8098Z" fill="white" stroke="black" stroke-width="0.15" stroke-linejoin="bevel"/>
<path d="M41.5999 29.1001V28.0801C41.2399 28.2151 41.1499 28.5451 41.0299 28.7851C41.0749 27.7501 40.4599 26.6551 39.9799 26.3701C39.4999 26.6551 38.8699 27.7801 38.9299 28.7701C38.8099 28.5601 38.7049 28.2151 38.3599 28.0801V29.0851L41.5999 29.1001Z" fill="white" stroke="black" stroke-width="0.15" stroke-linejoin="bevel"/>
<path d="M41.3601 30.6297V29.6097C40.9851 29.6997 40.9701 29.8347 40.8501 30.0597C40.8951 29.4447 40.4601 28.7397 39.9801 28.4697C39.5001 28.7397 39.0801 29.4447 39.1101 30.0597C38.9901 29.8347 38.9751 29.6997 38.6001 29.6097V30.6297H41.3601Z" fill="white" stroke="black" stroke-width="0.15"/>
<path d="M25.5499 34.3796V31.3196C25.4449 30.9296 25.0999 30.5696 24.8599 30.5096V27.8096L25.4149 28.1096L26.0599 30.9446V34.3946L25.5499 34.3796Z" fill="white" stroke="black" stroke-width="0.15"/>
<path d="M25.5499 34.3939V31.3189C25.4449 30.9289 25.0999 30.5689 24.8599 30.5089V27.6289C25.2349 27.6289 25.4149 28.1089 25.4149 28.1089L26.0599 30.9439V34.3789L25.5499 34.3939Z" fill="white" stroke="black" stroke-width="0.15"/>
<path d="M25.145 35.1742C25.4 35.0692 25.775 34.7392 25.775 34.4242V30.5842L25.595 30.2842H32.15L31.895 30.5842V34.4242C31.906 34.5831 31.959 34.7363 32.0486 34.8681C32.1382 34.9999 32.2612 35.1055 32.405 35.1742H25.145Z" fill="white" stroke="black" stroke-width="0.15"/>
<path d="M31.0697 35.1745C30.8147 35.0695 30.4397 34.7395 30.4397 34.4245V30.7795L30.9797 30.2695H26.5397L27.0797 30.7795V34.4245C27.0797 34.7395 26.7047 35.0695 26.4497 35.1745H31.0697Z" fill="white" stroke="black" stroke-width="0.15"/>
<path d="M30.4549 35.1739C30.1999 35.0689 29.8099 34.7389 29.8099 34.4239V31.1239L30.1699 30.6289H27.3499L27.7099 31.1239V34.4239C27.7099 34.7389 27.3349 35.0689 27.0649 35.1739H30.4549Z" fill="white" stroke="black" stroke-width="0.15"/>
<path d="M28.1 30.6289H29.435V35.1889H28.085L28.1 30.6289Z" fill="white" stroke="black" stroke-width="0.15"/>
<path d="M26.255 31.8893H26.795V34.3643H26.255V31.8893ZM30.875 31.8893H31.4V34.3643H30.86L30.875 31.8893ZM25.79 27.7193H26.45V30.2693H25.79V27.7193ZM25.79 27.2393H26.435V27.7193H25.79V27.2393ZM31.13 28.2743H32.045V30.2243H31.13V28.2743Z" fill="white"/>
<path d="M25.79 27.7193H26.45V30.2693H25.79V27.7193ZM25.79 27.7193H26.435V27.2393H25.79V27.7193ZM26.255 31.8893H26.795V34.3643H26.255V31.8893ZM30.875 31.8893H31.4V34.3643H30.86L30.875 31.8893ZM31.13 28.2743H32.045V30.2243H31.13V28.2743Z" stroke="black" stroke-width="0.15" stroke-linejoin="bevel"/>
<path d="M26.4349 30.2393V25.8893C26.6149 25.8893 26.6449 26.5343 27.0649 26.5343C27.2899 26.5343 27.2749 26.2643 27.1399 26.0543C27.0349 25.8593 26.8999 25.6043 27.0799 25.1093C27.2149 25.4843 27.5449 25.6043 27.4849 25.3793C27.3799 24.9743 27.0649 24.8993 27.3049 24.2843C27.3799 24.7943 27.7099 24.7793 27.6349 24.4793C27.5449 24.1343 27.3499 23.9843 27.5899 23.5043C27.7249 24.0593 27.8899 24.0293 27.8899 23.6843C27.8899 23.1743 27.8899 22.6343 28.5199 22.4393C28.5199 22.4393 28.5649 21.9893 28.8049 21.9893C29.0299 21.9893 29.0749 22.4393 29.0749 22.4393C29.7199 22.6343 29.7049 23.1893 29.7049 23.6843C29.7049 24.0293 29.8699 24.0593 30.0049 23.5043C30.2449 23.9843 30.0499 24.1343 29.9599 24.4793C29.8849 24.7793 30.2149 24.7943 30.2899 24.2843C30.5299 24.8993 30.2149 24.9743 30.1099 25.3793C30.0499 25.6043 30.3799 25.4843 30.5149 25.1093C30.6949 25.6043 30.5599 25.8593 30.4549 26.0543C30.3349 26.2643 30.3049 26.5343 30.5299 26.5343C30.9499 26.5343 30.9799 25.9043 31.1599 25.9043V30.2393H26.4349ZM25.3999 26.9543V30.2693H25.7749V26.9543C25.6399 26.8793 25.5199 26.8793 25.3999 26.9543Z" fill="white" stroke="black" stroke-width="0.15"/>
<path d="M25.4297 29.0989C25.8947 29.3389 26.3597 29.6239 26.4797 30.2689H25.4297V29.0989ZM31.9097 28.1089V30.2689H32.2097V28.1089C32.1197 28.0639 31.9847 28.0489 31.9097 28.1089Z" fill="white" stroke="black" stroke-width="0.15"/>
<path d="M32.2098 29.0997C31.7448 29.3247 31.2798 29.5947 31.1598 30.2547H32.2098V29.0997ZM29.1198 24.0447L29.3898 23.8197V23.5197C29.2998 23.5197 29.2398 23.5647 29.1648 23.6697C29.1357 23.5734 29.0875 23.4839 29.0231 23.4066C28.9586 23.3293 28.8793 23.2657 28.7898 23.2197C28.699 23.2625 28.6177 23.323 28.5507 23.3977C28.4837 23.4724 28.4324 23.5598 28.3998 23.6547C28.3248 23.5497 28.2798 23.5347 28.1748 23.5047V23.8047L28.4448 24.0447H29.1198Z" fill="white" stroke="black" stroke-width="0.15"/>
<path d="M29.2698 24.7793L29.3898 24.4943V24.1193C29.2998 24.1193 29.2398 24.1643 29.1648 24.2693C29.1357 24.173 29.0875 24.0835 29.0231 24.0062C28.9586 23.9289 28.8793 23.8653 28.7898 23.8193C28.699 23.8621 28.6177 23.9226 28.5507 23.9973C28.4837 24.072 28.4324 24.1594 28.3998 24.2543C28.3248 24.1493 28.2798 24.1343 28.1748 24.1193V24.4943L28.2948 24.7793H29.2698Z" fill="white" stroke="black" stroke-width="0.15"/>
<path d="M29.3 25.7689L29.69 25.2739V24.7939C29.54 24.7939 29.465 24.8689 29.36 25.0339C29.255 24.6889 29.06 24.6289 28.79 24.4639C28.505 24.6139 28.31 24.6889 28.22 25.0189C28.1 24.8539 28.025 24.8089 27.875 24.7939V25.2739L28.28 25.7689H29.3Z" fill="white" stroke="black" stroke-width="0.15"/>
<path d="M29.405 26.744C29.405 26.744 29.885 26.339 29.9 26.114V25.589C29.72 25.604 29.555 25.649 29.42 25.874C29.3 25.439 29.12 25.319 28.79 25.124C28.445 25.319 28.265 25.439 28.16 25.874C28.01 25.649 27.86 25.604 27.665 25.574V26.114C27.791 26.3519 27.9587 26.5653 28.16 26.744H29.405Z" fill="white" stroke="black" stroke-width="0.15"/>
<path d="M29.5997 28.5445C29.5997 28.5445 30.2597 27.8395 30.2747 27.5545V26.7445C30.0347 26.7745 29.7947 26.9395 29.6147 27.2845C29.4647 26.6095 29.2247 26.1445 28.7897 25.8145C28.3397 26.1445 28.0997 26.6095 27.9497 27.2845C27.7697 26.9395 27.5447 26.7745 27.3047 26.7445V27.5545C27.3497 27.8395 27.9647 28.5445 27.9647 28.5445H29.5997Z" fill="white" stroke="black" stroke-width="0.15"/>
<path d="M29.5997 29.6094C29.5997 29.6094 30.1547 29.0544 30.2747 28.8144V28.0044C30.0347 28.0344 29.7947 28.1994 29.6147 28.5294C29.5746 28.2565 29.481 27.9941 29.3395 27.7573C29.1979 27.5205 29.0111 27.314 28.7897 27.1494C28.3397 27.4794 28.0997 27.8544 27.9497 28.5294C27.7697 28.1994 27.5447 28.0344 27.3047 28.0044V28.8144C27.4547 29.0544 27.9647 29.6094 27.9647 29.6094H29.5997Z" fill="white" stroke="black" stroke-width="0.15"/>
<path d="M29.8247 30.2394C29.6747 29.5344 29.5247 29.0094 28.7597 28.4844C27.9797 29.0094 27.8447 29.5344 27.6797 30.2394H29.8247Z" fill="white" stroke="black" stroke-width="0.15"/>
<path d="M30.2297 30.6294V29.6094C29.8697 29.7594 29.5547 29.9544 29.4347 30.1794C29.3147 29.6094 29.0597 29.3694 28.7447 29.0244C28.4297 29.3694 28.2197 29.6244 28.0847 30.1794C27.9647 29.9544 27.6497 29.7444 27.3047 29.6094V30.6294H30.2297Z" fill="white" stroke="black" stroke-width="0.15"/>
<path d="M54.455 34.3796V31.3196C54.56 30.9296 54.905 30.5696 55.145 30.5096V27.8096L54.59 28.1096L53.945 30.9446V34.3946L54.455 34.3796Z" fill="white" stroke="black" stroke-width="0.15"/>
<path d="M54.455 34.3939V31.3189C54.56 30.9289 54.905 30.5689 55.145 30.5089V27.6289C54.77 27.6289 54.59 28.1089 54.59 28.1089L53.945 30.9439V34.3789L54.455 34.3939Z" fill="white" stroke="black" stroke-width="0.15"/>
<path d="M54.8599 35.1742C54.6049 35.0692 54.2299 34.7392 54.2299 34.4242V30.5842L54.4099 30.2842H47.8549L48.1099 30.5842V34.4242C48.0989 34.5831 48.0458 34.7363 47.9562 34.8681C47.8666 34.9999 47.7437 35.1055 47.5999 35.1742H54.8599Z" fill="white" stroke="black" stroke-width="0.15"/>
<path d="M48.9352 35.1745C49.1902 35.0695 49.5652 34.7395 49.5652 34.4245V30.7795L49.0252 30.2695H53.4652L52.9252 30.7795V34.4245C52.9252 34.7395 53.3002 35.0695 53.5552 35.1745H48.9352Z" fill="white" stroke="black" stroke-width="0.15"/>
<path d="M49.5499 35.1739C49.8049 35.0689 50.1949 34.7389 50.1949 34.4239V31.1239L49.8349 30.6289H52.6549L52.2949 31.1239V34.4239C52.2949 34.7389 52.6699 35.0689 52.9399 35.1739H49.5499Z" fill="white" stroke="black" stroke-width="0.15"/>
<path d="M51.9049 30.6289H50.5699V35.1889H51.9199L51.9049 30.6289Z" fill="white" stroke="black" stroke-width="0.15"/>
<path d="M53.7498 31.8893H53.2098V34.3643H53.7498V31.8893ZM49.1298 31.8893H48.6048V34.3643H49.1448L49.1298 31.8893ZM54.2148 27.7193H53.5548V30.2693H54.2148V27.7193ZM54.2148 27.2393H53.5698V27.7193H54.2148V27.2393ZM48.8748 28.2743H47.9598V30.2243H48.8748V28.2743Z" fill="white"/>
<path d="M54.2148 27.7193H53.5548V30.2693H54.2148V27.7193ZM54.2148 27.7193H53.5698V27.2393H54.2148V27.7193ZM53.7498 31.8893H53.2098V34.3643H53.7498V31.8893ZM49.1298 31.8893H48.6048V34.3643H49.1448L49.1298 31.8893ZM48.8748 28.2743H47.9598V30.2243H48.8748V28.2743Z" stroke="black" stroke-width="0.15" stroke-linejoin="bevel"/>
<path d="M53.57 30.2393V25.8893C53.39 25.8893 53.36 26.5343 52.94 26.5343C52.715 26.5343 52.73 26.2643 52.865 26.0543C52.97 25.8593 53.105 25.6043 52.925 25.1093C52.79 25.4843 52.46 25.6043 52.52 25.3793C52.625 24.9743 52.94 24.8993 52.7 24.2843C52.625 24.7943 52.295 24.7793 52.37 24.4793C52.46 24.1343 52.655 23.9843 52.415 23.5043C52.28 24.0593 52.115 24.0293 52.115 23.6843C52.115 23.1743 52.115 22.6343 51.485 22.4393C51.485 22.4393 51.44 21.9893 51.2 21.9893C50.975 21.9893 50.93 22.4393 50.93 22.4393C50.285 22.6343 50.3 23.1893 50.3 23.6843C50.3 24.0293 50.135 24.0593 50 23.5043C49.76 23.9843 49.955 24.1343 50.045 24.4793C50.12 24.7793 49.79 24.7943 49.715 24.2843C49.475 24.8993 49.79 24.9743 49.895 25.3793C49.955 25.6043 49.625 25.4843 49.49 25.1093C49.31 25.6043 49.445 25.8593 49.55 26.0543C49.67 26.2643 49.7 26.5343 49.475 26.5343C49.055 26.5343 49.025 25.9043 48.845 25.9043V30.2393H53.57ZM54.605 26.9543V30.2693H54.23V26.9543C54.365 26.8793 54.485 26.8793 54.605 26.9543Z" fill="white" stroke="black" stroke-width="0.15"/>
<path d="M54.5752 29.0989C54.1102 29.3389 53.6452 29.6239 53.5252 30.2689H54.5752V29.0989ZM48.0952 28.1089V30.2689H47.7952V28.1089C47.8852 28.0639 48.0202 28.0489 48.0952 28.1089Z" fill="white" stroke="black" stroke-width="0.15"/>
<path d="M47.7951 29.0997C48.2601 29.3247 48.7251 29.5947 48.8451 30.2547H47.7951V29.0997ZM50.8851 24.0447L50.6151 23.8197V23.5197C50.7051 23.5197 50.7651 23.5647 50.8401 23.6697C50.8692 23.5734 50.9174 23.4839 50.9818 23.4066C51.0463 23.3293 51.1256 23.2657 51.2151 23.2197C51.3059 23.2625 51.3872 23.323 51.4542 23.3977C51.5212 23.4724 51.5725 23.5598 51.6051 23.6547C51.6801 23.5497 51.7251 23.5347 51.8301 23.5047V23.8047L51.5601 24.0447H50.8851Z" fill="white" stroke="black" stroke-width="0.15"/>
<path d="M50.7351 24.7793L50.6151 24.4943V24.1193C50.7051 24.1193 50.7651 24.1643 50.8401 24.2693C50.8692 24.173 50.9174 24.0835 50.9818 24.0062C51.0463 23.9289 51.1256 23.8653 51.2151 23.8193C51.3059 23.8621 51.3872 23.9226 51.4542 23.9973C51.5212 24.072 51.5725 24.1594 51.6051 24.2543C51.6801 24.1493 51.7251 24.1343 51.8301 24.1193V24.4943L51.7101 24.7793H50.7351Z" fill="white" stroke="black" stroke-width="0.15"/>
<path d="M50.7049 25.7689L50.3149 25.2739V24.7939C50.4649 24.7939 50.5399 24.8689 50.6449 25.0339C50.7499 24.6889 50.9449 24.6289 51.2149 24.4639C51.4999 24.6139 51.6949 24.6889 51.7849 25.0189C51.9049 24.8539 51.9799 24.8089 52.1299 24.7939V25.2739L51.7249 25.7689H50.7049Z" fill="white" stroke="black" stroke-width="0.15"/>
<path d="M50.5998 26.744C50.5998 26.744 50.1198 26.339 50.1048 26.114V25.589C50.2848 25.604 50.4498 25.649 50.5848 25.874C50.7048 25.439 50.8848 25.319 51.2148 25.124C51.5598 25.319 51.7398 25.439 51.8448 25.874C51.9948 25.649 52.1448 25.604 52.3398 25.574V26.114C52.2139 26.3519 52.0462 26.5653 51.8448 26.744H50.5998Z" fill="white" stroke="black" stroke-width="0.15"/>
<path d="M50.4052 28.5445C50.4052 28.5445 49.7452 27.8395 49.7302 27.5545V26.7445C49.9702 26.7745 50.2102 26.9395 50.3902 27.2845C50.5402 26.6095 50.7802 26.1445 51.2152 25.8145C51.6652 26.1445 51.9052 26.6095 52.0552 27.2845C52.2352 26.9395 52.4602 26.7745 52.7002 26.7445V27.5545C52.6552 27.8395 52.0402 28.5445 52.0402 28.5445H50.4052Z" fill="white" stroke="black" stroke-width="0.15"/>
<path d="M50.4052 29.6094C50.4052 29.6094 49.8502 29.0544 49.7302 28.8144V28.0044C49.9702 28.0344 50.2102 28.1994 50.3902 28.5294C50.4303 28.2565 50.5238 27.9941 50.6654 27.7573C50.807 27.5205 50.9938 27.314 51.2152 27.1494C51.6652 27.4794 51.9052 27.8544 52.0552 28.5294C52.2352 28.1994 52.4602 28.0344 52.7002 28.0044V28.8144C52.5502 29.0544 52.0402 29.6094 52.0402 29.6094H50.4052Z" fill="white" stroke="black" stroke-width="0.15"/>
<path d="M50.1802 30.2394C50.3302 29.5344 50.4802 29.0094 51.2452 28.4844C52.0252 29.0094 52.1602 29.5344 52.3252 30.2394H50.1802Z" fill="white" stroke="black" stroke-width="0.15"/>
<path d="M49.7752 30.6294V29.6094C50.1352 29.7594 50.4502 29.9544 50.5702 30.1794C50.6902 29.6094 50.9452 29.3694 51.2602 29.0244C51.5752 29.3694 51.7852 29.6244 51.9202 30.1794C52.0402 29.9544 52.3552 29.7444 52.7002 29.6094V30.6294H49.7752Z" fill="white" stroke="black" stroke-width="0.15"/>
<path d="M21.6049 38.8942H58.3999V40.7692H21.6049V38.8942ZM20.6299 40.7692H59.3749V42.6442H20.6299V40.7692ZM23.5399 36.0742H56.4499V37.2892H23.5399V36.0742Z" fill="white" stroke="black" stroke-width="0.15"/>
<path d="M22.5801 37.2895H57.4401V38.8795H22.5801V37.2895ZM24.1101 35.1445H55.9101V36.0745H24.1101V35.1445Z" fill="white" stroke="black" stroke-width="0.15"/>
<path d="M27.5601 35.1445H29.9601V42.6445H27.5601V35.1445Z" fill="white" stroke="black" stroke-width="0.15"/>
<path d="M28.1 35.1445H29.435V42.6445H28.085L28.1 35.1445ZM38.75 35.1445H41.15V42.6445H38.75V35.1445Z" fill="white" stroke="black" stroke-width="0.15"/>
<path d="M39.3047 35.1445H40.6547V42.6445H39.3047V35.1445ZM50.0297 35.1445H52.4297V42.6445H50.0297V35.1445Z" fill="white" stroke="black" stroke-width="0.15"/>
<path d="M50.5547 35.1445H51.9047V42.6445H50.5547V35.1445Z" fill="white" stroke="black" stroke-width="0.15"/>
<path d="M25.5498 34.3799H54.4998M28.0698 41.6999H29.4498M28.0698 40.7549H29.4498M28.0698 39.8249H29.4498M28.0698 38.8799H29.4498M28.0698 37.9499H29.4498M28.0698 37.0049H29.4498M28.0698 36.0749H29.4498M39.3198 41.6999H40.6098M39.3198 40.7549H40.6098M39.3198 39.8249H40.6098M39.3198 38.8799H40.6098M39.3198 37.9499H40.6098M39.3198 37.0049H40.6098M39.3198 36.0749H40.6098M50.5398 41.6999H51.9198M50.5398 40.7549H51.9198M50.5398 39.8249H51.9198M50.5398 38.8799H51.9198M50.5398 37.9499H51.9198M50.5398 37.0049H51.9198M50.5398 36.0749H51.9198" stroke="black" stroke-width="0.15"/>
</g>
<defs>
<clipPath id="clip0_3730_50854">
<rect width="80" height="60" fill="white"/>
</clipPath>
</defs>
</svg>
