<svg width="80" height="60" viewBox="0 0 80 60" fill="none" xmlns="http://www.w3.org/2000/svg">
<g clip-path="url(#clip0_3730_50875)">
<path d="M0 0H26.6625V60H0V0Z" fill="#007A5E"/>
<path d="M26.6626 0H53.3376V60H26.6626V0Z" fill="#CE1126"/>
<path d="M53.3374 0H79.9999V60H53.3374V0Z" fill="#FCD116"/>
<path d="M40.0001 22.8887L37.7778 29.6442L41.1556 30.7998L40.0001 22.8887Z" fill="#FCD116"/>
<path d="M39.9999 22.8887L42.2222 29.6442L38.8444 30.7998L39.9999 22.8887Z" fill="#FCD116"/>
<path d="M46.7629 27.8019L39.6513 27.7761L39.5961 31.3456L46.7629 27.8019Z" fill="#FCD116"/>
<path d="M46.763 27.8016L41.0248 32.0026L38.882 29.1473L46.763 27.8016Z" fill="#FCD116"/>
<path d="M44.1797 35.7525L42.0067 28.9809L38.5948 30.0315L44.1797 35.7525Z" fill="#FCD116"/>
<path d="M44.1796 35.7524L38.411 31.5932L40.4645 28.673L44.1796 35.7524Z" fill="#FCD116"/>
<path d="M35.8204 35.7524L41.589 31.5932L39.5355 28.673L35.8204 35.7524Z" fill="#FCD116"/>
<path d="M35.8203 35.7525L37.9933 28.9809L41.4052 30.0315L35.8203 35.7525Z" fill="#FCD116"/>
<path d="M33.237 27.8026L38.9752 32.0036L41.118 29.1482L33.237 27.8026Z" fill="#FCD116"/>
<path d="M33.2371 27.8029L40.3487 27.777L40.4039 31.3466L33.2371 27.8029Z" fill="#FCD116"/>
</g>
<defs>
<clipPath id="clip0_3730_50875">
<rect width="80" height="60" fill="white"/>
</clipPath>
</defs>
</svg>
