<svg width="80" height="60" viewBox="0 0 80 60" fill="none" xmlns="http://www.w3.org/2000/svg">
<g clip-path="url(#clip0_3730_50889)">
<mask id="mask0_3730_50889" style="mask-type:luminance" maskUnits="userSpaceOnUse" x="-1" y="0" width="82" height="61">
<path d="M-0.0371094 0H80.1684V60.16H-0.0371094V0Z" fill="white"/>
</mask>
<g mask="url(#mask0_3730_50889)">
<path fill-rule="evenodd" clip-rule="evenodd" d="M-0.0370783 27.3779H99.4149V51.5829H-0.0488281L-0.0370783 27.3779Z" fill="white"/>
<path fill-rule="evenodd" clip-rule="evenodd" d="M0.0332031 0H99.4382V30.1505H0.0332031V0ZM0.0684535 45.3433H100.19V60.16H0.0684535V45.3433Z" fill="#081873"/>
<path fill-rule="evenodd" clip-rule="evenodd" d="M0.0688477 35.5557H99.4738V40.2087H0.0688477V35.5557Z" fill="#DE3929"/>
<path fill-rule="evenodd" clip-rule="evenodd" d="M29.8548 46.9057L30.6303 49.3027H33.1448L31.1003 50.795L31.8758 53.2037L29.8548 51.6997L27.8103 53.192L28.5976 50.7832L26.5531 49.291H29.0793M51.7098 29.4217L52.4971 31.8305H54.9998L52.9553 33.311L53.7308 35.7197L51.6863 34.2275L49.6418 35.7197L50.4173 33.311L48.3728 31.8305H50.9108M24.8258 39.3975L25.6013 41.8062H28.1276L26.0948 43.3102L26.8821 45.7072L24.8376 44.2267L22.7931 45.7072L23.5686 43.3102L21.5241 41.818H24.0503M51.7098 38.716L52.4971 41.113H54.9998L52.9553 42.6052L53.7308 45.0022L51.6863 43.5217L49.6418 45.014L50.4173 42.6052L48.3728 41.113H50.9108M46.1521 22.1132L46.9393 24.5102H49.4773L47.4328 26.0025L48.2083 28.4112L46.1638 26.919L44.1193 28.4112L44.9066 26.0025L42.8503 24.5102H45.3883M37.8096 19.1992L38.5968 21.608H41.1231L39.0786 23.0885L39.8541 25.4972L37.8096 24.0167L35.7651 25.4972L36.5523 23.0885L34.5078 21.608H37.0223M29.4436 21.9487L30.2308 24.3575H32.7571L30.7126 25.838L31.4998 28.2467L29.4436 26.7545L27.3991 28.2467L28.1863 25.838L26.1418 24.3575H28.6798M24.5908 29.4335L25.3663 31.8422H27.9043L25.8481 33.3227L26.6353 35.7315L24.5908 34.2392L22.5463 35.7315L23.3218 33.3227L21.2773 31.8422H23.8036M37.8096 49.3967L38.5968 51.8055H41.1231L39.0786 53.286L39.8658 55.6947L37.8096 54.2025L35.7651 55.6947L36.5523 53.286L34.5078 51.8055H37.0223M46.6808 46.9057L47.4563 49.3027H49.9826L47.9498 50.795L48.7371 53.2037L46.6926 51.7115L44.6363 53.2037L45.4236 50.795L43.3791 49.3027H45.9053" fill="#FFCE08"/>
</g>
</g>
<defs>
<clipPath id="clip0_3730_50889">
<rect width="80" height="60" fill="white"/>
</clipPath>
</defs>
</svg>
