<svg width="80" height="60" viewBox="0 0 80 60" fill="none" xmlns="http://www.w3.org/2000/svg">
<g clip-path="url(#clip0_3731_51027)">
<path d="M0 0H80V60H0V0Z" fill="#000066"/>
<path d="M0 0H40V30H0V0Z" fill="#012169"/>
<path d="M4.6875 0L19.9375 11.3125L35.125 0H40V3.875L25 15.0625L40 26.1875V30H35L20 18.8125L5.0625 30H0V26.25L14.9375 15.125L0 4V0H4.6875Z" fill="white"/>
<path d="M26.5 17.5625L40 27.5V30L23.0625 17.5625H26.5ZM15 18.8125L15.375 21L3.375 30H0L15 18.8125ZM40 0V0.1875L24.4375 11.9375L24.5625 9.1875L36.875 0H40ZM0 0L14.9375 11H11.1875L0 2.625V0Z" fill="#C8102E"/>
<path d="M15.0625 0V30H25.0625V0H15.0625ZM0 10V20H40V10H0Z" fill="white"/>
<path d="M0 12.0625V18.0625H40V12.0625H0ZM17.0625 0V30H23.0625V0H17.0625Z" fill="#C8102E"/>
<path d="M69.4478 22.7277V32.9008C69.4478 41.7233 65.2761 44.7513 59.6885 47.1476C54.1009 44.7513 49.8857 41.7233 49.8857 32.9008V22.7168H69.4478V22.7277Z" fill="white" stroke="white" stroke-width="1.04563" stroke-linejoin="round"/>
<path d="M43.8191 46.3203C44.135 47.1481 46.3788 48.2482 48.9928 46.8431C50.7682 45.841 51.9119 44.4469 53.012 41.9417C53.317 41.31 53.4803 40.5258 52.7506 40.0574C52.1733 39.6326 51.2257 39.1643 50.8118 38.7504C50.6048 38.5325 50.3979 38.38 50.2454 38.2275C50.3543 38.3365 50.4524 38.4345 50.5504 38.587C51.596 39.8396 50.5068 41.6694 49.3523 42.7695C48.5136 43.5537 47.0105 45.4816 44.8103 43.6518C44.3419 43.2379 43.2419 44.9588 43.83 46.3203H43.8191ZM75.5584 46.3203C75.1881 47.1481 72.9443 48.2482 70.3847 46.8431C68.6202 45.841 67.4657 44.4469 66.322 41.9417C66.0606 41.31 65.8972 40.5258 66.627 40.0574C67.2043 39.6326 68.1519 39.1643 68.5658 38.7504C68.7727 38.5325 68.9252 38.38 69.1321 38.2275C69.0232 38.3365 68.9252 38.4345 68.8272 38.587C67.7815 39.8396 68.8707 41.6694 69.9708 42.7695C70.8095 43.5537 72.3671 45.4816 74.5672 43.6518C75.0356 43.2379 76.0812 44.9588 75.5475 46.3203H75.5584Z" fill="#FCEA83" stroke="white" stroke-width="1.04563" stroke-linejoin="round"/>
<path d="M59.6889 50.8078C63.8605 50.8078 70.2868 48.9235 73.7395 42.3447C74.3059 41.2555 73.7396 40.6783 73.0534 40.3188C72.2777 39.9282 71.5712 39.413 70.9621 38.7939C71.8008 39.6326 71.6374 40.2099 71.071 41.1466C68.4025 45.5906 64.7536 47.8343 59.6889 47.8343C54.6241 47.8343 50.9753 45.5906 48.3067 41.1466C47.7403 40.2099 47.577 39.6326 48.3612 38.8048C47.7612 39.4316 47.0527 39.9445 46.2699 40.3188C45.5946 40.6783 45.0173 41.2555 45.5946 42.3447C49.0365 48.9235 55.5063 50.8078 59.6889 50.8078Z" fill="#FCEA83" stroke="white" stroke-width="1.04563" stroke-linejoin="round"/>
<path d="M50.0275 41.9855C49.9186 41.4627 49.2542 41.6697 49.0473 42.3014C48.7654 41.9401 48.5175 41.5537 48.3066 41.1468C47.6858 40.2101 47.5768 39.5784 48.47 38.6961C48.8839 38.2823 49.7226 37.803 50.289 38.3258C51.4871 39.317 50.8662 40.9399 50.0275 41.9855ZM69.2955 41.9855C69.4044 41.4627 70.1342 41.6697 70.3411 42.3014C70.6025 41.9311 70.8639 41.5716 71.0709 41.1468C71.6917 40.2101 71.8007 39.5784 70.853 38.6961C70.4936 38.2823 69.6549 37.803 69.0341 38.3258C67.8795 39.317 68.4568 40.9399 69.2955 41.9855ZM43.8191 46.3205C43.2963 45.5363 42.8824 43.4886 42.7735 42.9767C42.621 42.5083 42.5665 42.0836 43.1438 41.8875C43.7211 41.6697 44.233 42.3994 44.4944 43.0312C44.7558 43.652 45.1806 44.5887 45.649 45.7433C44.4944 45.068 43.5577 45.5254 43.8191 46.3205ZM75.5584 46.3205C76.0268 45.5363 76.4406 43.4886 76.604 42.9767C76.7129 42.5083 76.811 42.0836 76.2337 41.8875C75.6564 41.6697 75.1445 42.3994 74.8831 43.0312C74.6217 43.652 74.1969 44.5887 73.7285 45.7433C74.8831 45.068 75.7653 45.5254 75.5584 46.3205Z" fill="#C8102E" stroke="white" stroke-width="1.04563" stroke-linejoin="round"/>
<path d="M55.6696 22.673C54.9943 22.8255 54.5259 22.88 53.8942 22.3027C53.4803 21.8888 53.5783 21.159 54.0031 20.8867C54.4715 20.5817 54.8854 20.3748 55.4626 20.5273C56.0399 20.6907 57.5539 22.0957 57.1836 22.1502C56.8132 22.1502 56.2469 22.5096 55.6696 22.673ZM57.2816 20.1679C57.4994 20.0045 57.7608 19.9064 58.4361 19.8411C59.0679 19.7975 59.5253 19.7975 59.6887 20.2768C59.9066 20.8432 60.0591 21.5185 60.4729 21.8343C60.2115 21.9868 58.9045 22.1502 58.4361 21.8888C57.8153 21.5729 57.6519 20.3639 57.2925 20.1679H57.2816ZM61.78 20.2223C61.9869 20.0589 62.2483 20.0589 62.9237 20.1134C63.599 20.1679 63.8604 20.2223 64.0129 20.6907C64.1762 21.2135 64.0129 21.8888 64.3396 22.3571C64.0129 22.4661 62.9781 22.4661 62.6078 22.0957C62.0414 21.6818 62.085 20.4728 61.78 20.2114V20.2223Z" fill="white" stroke="white" stroke-width="1.04563" stroke-linejoin="round"/>
<path d="M64.906 20.5276C64.4376 20.4187 64.1217 20.3751 63.9257 20.5276C64.1762 20.8435 63.9693 22.0961 64.4921 22.51C64.8515 22.7714 65.7991 22.8367 66.0061 22.2486C66.2675 21.7257 66.2675 20.9415 64.9169 20.5276H64.906ZM59.5362 20.0048C59.6887 19.8523 60.0046 19.7979 60.6254 19.7979C61.3116 19.7979 61.7146 19.9068 61.9325 20.3207C62.1503 20.8435 62.0849 21.5188 62.4553 21.9436C62.3028 22.1505 60.8868 22.1505 60.4729 21.8347C59.8957 21.4643 59.8412 20.2662 59.5362 20.0048ZM55.1032 20.4732C55.1032 20.2117 55.4626 20.1682 56.4102 20.1137C57.336 20.0048 57.3905 20.0593 57.7064 20.7346C57.8589 21.1049 58.0658 21.7257 58.4906 21.9327C57.336 22.205 56.9657 22.3575 56.3449 21.9871C55.8914 21.7036 55.5168 21.3102 55.2557 20.8435C55.2012 20.691 55.2012 20.5276 55.0923 20.4732H55.1032Z" fill="#073163" stroke="white" stroke-width="1.04563" stroke-linejoin="round"/>
<path d="M55.2014 15.8334C54.8311 15.8334 54.5261 15.6809 54.3083 15.4195C53.9489 14.9402 52.9577 14.7333 52.5329 15.1581C52.3804 15.267 52.1735 15.267 52.021 15.3106C51.7596 15.3106 51.4437 15.572 51.5417 16.0948C51.7596 15.9314 51.8031 16.0948 51.9665 16.0948C52.0754 16.0403 52.021 16.1492 52.021 16.2473C52.021 16.5087 52.5874 17.0315 53.1102 16.977C53.6874 16.977 53.9489 17.1949 54.0469 17.3038C54.2103 17.4454 54.1013 17.4018 54.2103 17.6632C54.3627 17.8157 54.4172 17.8702 54.1558 18.0771C54.0369 18.1763 53.9412 18.3004 53.8756 18.4406C53.8099 18.5808 53.7759 18.7337 53.7759 18.8886C53.7759 19.0434 53.8099 19.1963 53.8756 19.3366C53.9412 19.4768 54.0369 19.6009 54.1558 19.7C54.8311 20.212 56.552 21.0071 58.4908 19.4822C60.3642 18.0227 63.2833 18.8613 63.5011 19.3733C63.7625 19.907 63.8606 20.212 63.915 20.4734C63.9695 20.6912 64.2309 20.8981 64.6012 20.8437C64.9607 20.8437 65.3746 20.9962 65.5815 21.1596C65.8538 21.312 66.2132 21.2685 66.1152 20.7892C65.8974 19.3297 65.0151 19.1228 64.9171 18.4474C65.429 18.491 65.7885 18.491 66.0063 18.2841C66.1588 18.0771 66.3657 17.7068 66.5836 17.6088C66.7361 17.4998 66.7361 17.3909 66.5291 17.4454C66.2677 17.4998 66.1152 17.6088 65.636 17.5543C63.2397 17.2929 56.5085 15.463 55.2014 15.8334Z" fill="#059334" stroke="white" stroke-width="1.04563" stroke-linejoin="round"/>
<path d="M65.8536 17.609C65.4555 17.8899 65.1152 18.2449 64.8515 18.6547C64.3396 19.33 62.7711 20.0053 60.8324 20.0053C58.9589 20.0053 57.8153 19.7003 56.9766 19.025C56.6185 18.7387 56.2316 18.4904 55.822 18.2843C55.2557 18.0229 55.1467 17.4456 55.2992 16.9773C55.1467 17.2387 55.0487 17.5001 54.7328 17.4456C54.515 17.4456 54.1011 17.4456 54.21 17.6635C54.1556 17.5546 54.1556 17.4021 54.1011 17.3367L53.9922 17.2387C54.1556 17.3476 54.5259 17.0318 54.7873 17.0318C54.9943 17.0862 55.2557 16.8248 55.2012 16.5089L55.0487 15.8336C55.4626 15.6158 60.9413 16.6179 62.0414 16.7159C63.1306 16.7703 66.2675 17.2387 65.8536 17.609Z" fill="black" stroke="white" stroke-width="1.04563" stroke-linejoin="round"/>
<path d="M55.9311 15.6269C56.4539 15.1041 57.0747 14.8427 57.7065 14.9952H57.859C58.1857 14.7338 58.9046 14.6793 59.3294 14.8862H59.5363C60.1572 14.6793 61.3553 14.8862 61.7801 15.311L61.9326 15.42C63.3485 15.311 64.1763 15.9319 65.1675 16.9339C65.2764 17.0429 65.4289 17.2389 65.6903 17.2934C66.0062 17.3478 66.0606 17.5112 65.7992 17.6637C65.3805 17.9227 65.0116 18.2547 64.71 18.644C64.2308 19.2757 62.7168 19.9075 60.8325 19.9075C59.0135 19.9075 57.9134 19.5807 57.0747 18.9599C56.6064 18.6004 56.2469 18.3935 55.9855 18.2301C55.6697 18.1212 55.2558 17.7073 55.4083 17.2934C55.5172 16.8795 55.2558 16.3567 55.0488 15.8339C55.2013 15.7249 55.6152 15.5724 55.8222 15.6814L55.9311 15.6269Z" fill="#059334" stroke="white" stroke-width="1.04563" stroke-linejoin="round"/>
<path d="M65.1676 16.9339C64.1873 15.9319 63.3486 15.311 61.9326 15.4091C61.9326 15.4635 61.9326 15.6269 61.8782 15.7358C62.865 16.1787 63.7397 16.8375 64.4378 17.6637C64.6556 17.4459 65.0151 17.1954 65.1676 16.9339ZM61.7802 15.311C61.3554 14.8971 60.1573 14.6793 59.5364 14.8971C59.5364 15.1041 59.5364 15.42 59.4275 15.6269C59.7978 15.7794 60.1028 16.1497 60.4187 16.5092C60.6365 16.4547 61.1484 16.3022 61.4098 16.2477C61.5658 15.9494 61.69 15.6354 61.7802 15.311ZM59.3295 14.8862C58.9047 14.6793 58.1749 14.7338 57.859 14.9952C57.7501 15.213 57.7066 15.6269 57.7066 15.8339C57.9244 15.8339 58.2294 15.9863 58.3274 16.0953C58.6542 15.9863 59.068 15.7794 59.2205 15.6269C59.275 15.4091 59.373 15.1041 59.3295 14.8971V14.8862ZM55.9312 15.6269C56.454 15.1041 57.0748 14.8427 57.7066 14.9952C57.5976 15.1585 57.5541 15.4635 57.5541 15.7794C56.9768 15.7249 56.247 15.8883 55.9312 16.0953V15.6269Z" fill="#00493D" stroke="white" stroke-width="1.04563" stroke-linejoin="round"/>
<path d="M64.2309 17.7621C63.5747 16.9852 62.757 16.3607 61.8347 15.9322C61.8347 15.9867 61.7257 16.1936 61.6713 16.357C61.9871 16.8254 62.608 17.871 62.8694 18.4483C63.1308 18.3394 63.8606 18.0235 64.2309 17.7621ZM60.2662 18.9166C60.3565 18.2048 60.4074 17.4884 60.4187 16.7709C60.6801 16.7165 61.2029 16.564 61.4099 16.5095C61.6713 16.9343 62.303 18.0344 62.5644 18.5463C61.9327 18.6988 60.8871 18.9602 60.2662 18.9166ZM58.4363 16.4115C58.6978 16.3026 59.0681 16.0847 59.3186 15.8887C59.5364 16.0412 59.9503 16.4115 60.1028 16.6184C60.1028 17.0868 59.9503 18.4483 59.8959 18.9058C59.482 18.9058 58.8067 18.8077 58.4363 18.6008C58.4908 17.8166 58.5453 16.9343 58.4363 16.4115ZM55.8223 17.0323C55.8767 16.9234 55.9312 16.564 55.9312 16.4115C56.3451 16.1501 57.3907 15.8887 58.1749 16.3026C58.2294 16.8254 58.1749 18.1324 58.1205 18.4483C57.4219 17.8802 56.6532 17.4043 55.8332 17.0323H55.8223Z" fill="#00493D" stroke="white" stroke-width="1.04563" stroke-linejoin="round"/>
<path d="M53.2191 16.0843C53.1102 16.0843 53.0558 15.7793 52.8488 15.7793C52.7943 15.7793 52.6419 15.8338 52.5874 15.7793C52.5874 15.8882 52.6419 15.9971 52.6963 16.0407C52.7508 16.1932 53.0122 16.0952 53.2191 16.0952V16.0843Z" fill="black"/>
<path d="M53.2191 16.9772C53.84 16.9772 53.9489 16.1929 54.2647 16.1494M53.5786 17.0316C54.0469 17.2495 54.4172 16.1494 54.7767 16.1929M52.6418 15.681C52.7943 15.681 52.9032 15.4632 53.1647 15.7246C53.2736 15.8335 53.4261 15.888 53.535 15.888M53.4261 16.4544C53.2082 16.7811 52.8488 16.9772 52.6418 16.8791M52.5329 15.1582C52.3804 15.2671 52.2824 15.4632 52.1735 15.6266M52.021 15.9315V16.1929" stroke="white" stroke-width="1.04563" stroke-linejoin="round"/>
<path d="M57.6087 15.1582C56.5086 14.3195 55.2015 13.5353 54.0034 13.3828C55.2535 14.2163 56.4404 15.141 57.5542 16.1494" fill="black"/>
<path d="M57.6087 15.1582C56.5086 14.3195 55.2015 13.5353 54.0034 13.3828C55.2535 14.2163 56.4404 15.141 57.5542 16.1494" stroke="white" stroke-width="1.04563" stroke-linejoin="round"/>
<path d="M58.2293 14.374C56.9222 13.4808 55.4083 12.4897 53.9487 12.3916C55.3146 13.1831 56.5311 14.208 57.5431 15.4196M59.8958 12.9144C60.4854 11.5741 61.3587 10.3776 62.4554 9.40723C61.9326 10.5073 61.3662 12.7511 61.0939 13.6442" fill="black"/>
<path d="M58.2293 14.374C56.9222 13.4808 55.4083 12.4897 53.9487 12.3916C55.3146 13.1831 56.5311 14.208 57.5431 15.4196M59.8958 12.9145C60.4854 11.5741 61.3587 10.3776 62.4554 9.40723C61.9326 10.5073 61.3662 12.7511 61.0939 13.6442" stroke="white" stroke-width="1.04563" stroke-linejoin="round"/>
<path d="M61.0503 12.6534C61.555 11.4261 62.5041 10.4343 63.7079 9.87598C62.8035 11.0044 62.1299 12.2997 61.7256 13.6882" fill="black"/>
<path d="M61.0503 12.6534C61.555 11.4261 62.5041 10.4343 63.7079 9.87598C62.8035 11.0044 62.1299 12.2997 61.7256 13.6882" stroke="white" stroke-width="1.04563" stroke-linejoin="round"/>
<path d="M61.5186 13.688C62.5186 12.1572 63.9519 10.9589 65.6357 10.2461C64.3287 11.5531 62.4008 13.9494 61.9324 14.897M62.2483 14.8425C63.185 14.3197 65.0693 13.481 66.42 13.7533C65.5922 14.0583 63.087 15.202 61.9869 16.2585" fill="black"/>
<path d="M61.5186 13.688C62.5186 12.1572 63.9519 10.9589 65.6357 10.2461C64.3287 11.5531 62.4008 13.9494 61.9324 14.897M62.2483 14.8425C63.185 14.3197 65.0693 13.481 66.42 13.7533C65.5922 14.0583 63.087 15.202 61.9869 16.2585" stroke="white" stroke-width="1.04563" stroke-linejoin="round"/>
<path d="M62.0415 14.4717C62.9238 13.535 64.5467 12.1299 66.2676 11.5527C65.0151 12.7508 62.3465 15.4738 61.9871 15.8877M59.5364 13.9053C58.9046 11.9666 57.9679 10.1476 56.5629 9.57031C57.682 11.1704 58.4605 12.9832 58.8502 14.8965M58.3274 13.8509C57.2926 12.5983 55.8767 11.3457 54.2646 11.0843C55.8443 12.118 57.0923 13.5853 57.859 15.3104" fill="black"/>
<path d="M62.0415 14.4717C62.9238 13.535 64.5467 12.1299 66.2676 11.5527C65.0151 12.7508 62.3465 15.4738 61.9871 15.8877M59.5364 13.9053C58.9046 11.9666 57.9679 10.1476 56.5629 9.57031C57.682 11.1704 58.4605 12.9832 58.8502 14.8965M58.3274 13.8509C57.2926 12.5983 55.8767 11.3457 54.2646 11.0843C55.8443 12.118 57.0923 13.5853 57.859 15.3104" stroke="white" stroke-width="1.04563" stroke-linejoin="round"/>
<path d="M58.9155 13.7964C57.6085 11.4438 56.6064 11.0299 56.04 10.5615C56.5084 11.4438 57.6521 13.7964 58.3274 14.7876" fill="black"/>
<path d="M58.9155 13.7964C57.6085 11.4438 56.6064 11.0299 56.04 10.5615C56.5084 11.4438 57.6521 13.7964 58.3274 14.7876" stroke="white" stroke-width="1.04563" stroke-linejoin="round"/>
<path d="M56.3013 13.6445C57.0462 14.113 57.6845 14.7327 58.1747 15.4635" stroke="white" stroke-width="1.04563" stroke-linejoin="round"/>
<path d="M56.3013 14.7337C56.6062 14.9951 57.1835 15.311 57.7063 15.7794L56.3013 14.7337ZM62.5097 15.5179C63.0325 15.104 64.1762 14.4287 64.7535 14.2109L62.5097 15.5179ZM62.1394 15.1585C62.6622 14.4723 63.7078 13.5356 64.0782 13.2197L62.1394 15.1585ZM63.5989 11.9127C62.897 12.6993 62.2354 13.5208 61.6166 14.3743L63.5989 11.9127ZM62.2483 11.4443C61.754 12.1755 61.317 12.9439 60.9413 13.7425L62.2483 11.4443ZM58.1202 11.5533C58.4361 12.3919 59.0134 13.797 59.2094 14.3743L58.1202 11.5533ZM57.6519 12.4355C57.8697 12.7623 58.2836 13.4811 58.4361 14.004L57.6519 12.4355Z" fill="black"/>
<path d="M56.3013 14.7337C56.6062 14.9951 57.1835 15.311 57.7063 15.7794M62.5097 15.5179C63.0325 15.104 64.1762 14.4287 64.7535 14.2109M62.1394 15.1585C62.6622 14.4723 63.7078 13.5356 64.0782 13.2197M63.5989 11.9127C62.897 12.6993 62.2354 13.5208 61.6166 14.3743M62.2483 11.4443C61.754 12.1755 61.317 12.9439 60.9413 13.7425M58.1202 11.5533C58.4361 12.3919 59.0134 13.797 59.2094 14.3743M57.6519 12.4355C57.8697 12.7623 58.2836 13.4811 58.4361 14.004" stroke="white" stroke-width="1.04563" stroke-linejoin="round"/>
<path d="M59.4272 12.1736C59.4272 11.7053 59.7431 11.1934 60.059 11.1934C60.4184 11.1934 60.6798 11.8142 60.6798 12.1736C60.6798 12.5984 60.364 12.9579 60.059 12.9579C59.7322 12.9579 59.4272 12.6529 59.4272 12.1736Z" fill="black" stroke="white" stroke-width="1.04563" stroke-linejoin="round"/>
<path d="M58.7524 12.5984C58.8068 12.0756 59.1663 11.6617 59.4821 11.7053C59.798 11.7598 59.9505 12.3915 59.896 12.7509C59.8416 13.1648 59.4821 13.4807 59.2207 13.4262C58.9593 13.4262 58.6979 13.0668 58.7524 12.5984ZM60.1574 12.7509C60.0485 12.2826 60.2664 11.7707 60.5822 11.7053C60.8872 11.6617 61.2031 12.1737 61.2575 12.5984C61.3665 13.0123 61.0942 13.4262 60.8327 13.4262C60.5822 13.4807 60.2119 13.2193 60.1574 12.7509Z" fill="black" stroke="white" stroke-width="1.04563" stroke-linejoin="round"/>
<path d="M59.373 13.1649C59.373 12.6529 59.6889 12.1846 60.0048 12.1846C60.3642 12.1846 60.6256 12.751 60.6256 13.1649C60.6256 13.5896 60.3206 13.9491 60.0048 13.9491C59.6889 13.9491 59.373 13.6441 59.373 13.1649Z" fill="black" stroke="white" stroke-width="1.04563" stroke-linejoin="round"/>
<path d="M58.4365 13.4265C58.4365 12.9581 58.8069 12.4462 59.1118 12.4462C59.4386 12.4462 59.7436 13.0671 59.7436 13.4265C59.7436 13.8513 59.3732 14.2107 59.1118 14.2107C58.8069 14.2107 58.4365 13.9057 58.4365 13.4265ZM60.3644 13.2195C60.3644 12.7512 60.6912 12.2393 60.9961 12.2393C61.3556 12.2393 61.617 12.8601 61.617 13.2195C61.617 13.6443 61.312 14.0038 60.9961 14.0038C60.6803 14.0038 60.3644 13.6879 60.3644 13.2195Z" fill="black" stroke="white" stroke-width="1.04563" stroke-linejoin="round"/>
<path d="M60.1572 13.6445C60.1572 13.1217 60.5275 12.6533 60.8325 12.6533C61.1593 12.6533 61.4643 13.2197 61.4643 13.6336C61.4643 14.0584 61.1484 14.4287 60.8325 14.4287C60.5275 14.4287 60.1572 14.102 60.1572 13.6445Z" fill="black" stroke="white" stroke-width="1.04563" stroke-linejoin="round"/>
<path d="M59.3295 14.112C59.3295 13.5892 59.6345 13.1209 59.9503 13.1209C60.3207 13.1209 60.5821 13.7417 60.5821 14.1011C60.5821 14.5368 60.2553 14.8963 59.9503 14.8963C59.6345 14.8963 59.3186 14.5695 59.3186 14.112H59.3295ZM58.0225 14.112C58.0225 13.5892 58.2839 13.1209 58.5453 13.1209C58.8067 13.1209 59.0136 13.7417 59.0136 14.1011C59.0136 14.5368 58.7522 14.8963 58.5453 14.8963C58.2839 14.8963 58.0225 14.5695 58.0225 14.112ZM60.9415 14.014C60.9415 13.5348 61.2029 13.0664 61.4643 13.0664C61.7257 13.0664 61.9872 13.6437 61.9872 14.0031C61.9872 14.4715 61.6713 14.7873 61.4643 14.7873C61.2029 14.7873 60.9415 14.4715 60.9415 14.0031V14.014Z" fill="black" stroke="white" stroke-width="1.04563" stroke-linejoin="round"/>
<path d="M61.2574 14.8858C61.3664 14.3739 61.6713 13.9491 61.8783 14.0145C62.0961 14.058 62.1397 14.6789 62.0417 15.0492C61.9872 15.5176 61.6713 15.779 61.4644 15.7245C61.2465 15.6809 61.1485 15.3106 61.2465 14.8967L61.2574 14.8858Z" fill="black" stroke="white" stroke-width="1.04563" stroke-linejoin="round"/>
<path d="M60.2662 14.7333C60.3206 14.2649 60.6256 13.7966 60.887 13.851C61.2029 13.851 61.3554 14.4719 61.3118 14.8313C61.2573 15.3105 60.985 15.6264 60.7345 15.5719C60.4731 15.5719 60.2117 15.2016 60.2662 14.7333ZM58.8066 14.8858C58.6433 14.3738 58.3274 14.0144 58.1204 14.058C57.9135 14.1124 57.859 14.7333 57.968 15.1036C58.0769 15.5175 58.3819 15.7789 58.5888 15.7244C58.7522 15.6809 58.9156 15.3105 58.8066 14.8966V14.8858Z" fill="black" stroke="white" stroke-width="1.04563" stroke-linejoin="round"/>
<path d="M58.4365 14.7883C58.4365 14.3199 58.6979 13.8516 58.9593 13.8516C59.2752 13.8516 59.4822 14.4288 59.4822 14.7883C59.4822 15.2566 59.2208 15.5725 58.9593 15.5725C58.7415 15.5725 58.4365 15.2566 58.4365 14.7883Z" fill="black" stroke="white" stroke-width="1.04563" stroke-linejoin="round"/>
<path d="M59.2206 14.9947C59.2206 14.4719 59.5365 14.0145 59.8414 14.0145C60.2118 14.0145 60.4732 14.5808 60.4732 14.9947C60.4732 15.4195 60.1573 15.779 59.8414 15.779C59.5365 15.779 59.2206 15.4631 59.2206 14.9947ZM59.482 9.25466C59.3731 9.66855 59.0136 10.0389 59.2642 10.6162C58.8067 10.4528 58.3928 10.3983 58.0225 10.8231C58.4908 10.7686 58.9047 10.932 59.1117 11.237C58.6978 11.1825 58.4908 11.4004 58.3819 11.6618C58.7522 11.5529 59.1117 11.4439 59.275 11.4984C59.1117 11.6618 58.8503 11.9123 58.8067 12.1301C59.1117 11.8687 59.482 11.9123 59.6889 11.7598C59.5364 12.1301 59.8414 12.4896 60.1028 12.849C60.0593 12.3371 60.3642 11.9777 60.2118 11.7054C60.6801 11.8143 60.7346 12.2282 61.4099 12.2282C61.1485 12.0757 60.996 11.5529 60.6801 11.5529C60.8326 11.4984 61.4643 11.4439 61.5733 11.5529C61.4643 11.335 61.094 11.139 60.8871 11.139C61.1049 10.9211 61.4643 10.5072 61.7257 10.3983C61.3554 10.4528 60.789 10.5072 60.5821 10.8231C61.094 10.3983 60.996 9.62498 61.5624 9.51606C61.2574 9.4616 60.789 9.66855 60.4187 10.0389C60.5821 9.72301 60.5821 9.30912 60.789 9.2002C60.3642 9.30912 59.8959 9.83193 59.7434 10.0933C59.7208 9.7976 59.6314 9.51084 59.482 9.25466Z" fill="black" stroke="white" stroke-width="1.04563" stroke-linejoin="round"/>
<path d="M59.7434 10.0935C59.7434 10.246 59.7434 10.5619 59.689 10.6599L59.7434 10.0935ZM60.4187 10.0391C60.3098 10.148 60.1029 10.5074 60.1029 10.8233L60.4187 10.0391Z" fill="black"/>
<path d="M59.7434 10.0935C59.7434 10.246 59.7434 10.5619 59.689 10.6599M60.4187 10.0391C60.3098 10.148 60.1029 10.5074 60.1029 10.8233" stroke="white" stroke-width="1.04563" stroke-linejoin="round"/>
<path d="M60.7346 10.6602C60.555 10.7674 60.4227 10.9386 60.3643 11.1394" stroke="white" stroke-width="1.04563" stroke-linejoin="round"/>
<path d="M43.8191 46.3203C44.135 47.1481 46.3788 48.2482 48.9928 46.8431C50.7682 45.841 51.9119 44.4469 53.012 41.9417C53.317 41.31 53.4803 40.5258 52.7506 40.0574C52.1733 39.6326 51.2257 39.1643 50.8118 38.7504C50.6048 38.5325 50.3979 38.38 50.2454 38.2275C50.3543 38.3365 50.4524 38.4345 50.5504 38.587C51.596 39.8396 50.5068 41.6694 49.3523 42.7695C48.5136 43.5537 47.0105 45.4816 44.8103 43.6518C44.3419 43.2379 43.2419 44.9588 43.83 46.3203H43.8191ZM75.5584 46.3203C75.1881 47.1481 72.9443 48.2482 70.3847 46.8431C68.6202 45.841 67.4657 44.4469 66.322 41.9417C66.0606 41.31 65.8972 40.5258 66.627 40.0574C67.2043 39.6326 68.1519 39.1643 68.5658 38.7504C68.7727 38.5325 68.9252 38.38 69.1321 38.2275C69.0232 38.3365 68.9252 38.4345 68.8272 38.587C67.7815 39.8396 68.8707 41.6694 69.9708 42.7695C70.8095 43.5537 72.3671 45.4816 74.5672 43.6518C75.0356 43.2379 76.0812 44.9588 75.5475 46.3203H75.5584Z" fill="#FCEA83" stroke="black" stroke-width="0.152488"/>
<path d="M59.6889 50.8078C63.8605 50.8078 70.2868 48.9235 73.7395 42.3447C74.3059 41.2555 73.7396 40.6783 73.0534 40.3188C72.2777 39.9282 71.5712 39.413 70.9621 38.7939C71.8008 39.6326 71.6374 40.2099 71.071 41.1466C68.4025 45.5906 64.7536 47.8343 59.6889 47.8343C54.6241 47.8343 50.9753 45.5906 48.3067 41.1466C47.7403 40.2099 47.577 39.6326 48.3612 38.8048C47.7612 39.4316 47.0527 39.9445 46.2699 40.3188C45.5946 40.6783 45.0173 41.2555 45.5946 42.3447C49.0365 48.9235 55.5063 50.8078 59.6889 50.8078Z" fill="#FCEA83" stroke="black" stroke-width="0.152488"/>
<path d="M50.0275 41.9855C49.9186 41.4627 49.2542 41.6697 49.0473 42.3014C48.7654 41.9401 48.5175 41.5537 48.3066 41.1468C47.6858 40.2101 47.5768 39.5784 48.47 38.6961C48.8839 38.2823 49.7226 37.803 50.289 38.3258C51.4871 39.317 50.8662 40.9399 50.0275 41.9855ZM69.2955 41.9855C69.4044 41.4627 70.1342 41.6697 70.3411 42.3014C70.6025 41.9311 70.8639 41.5716 71.0709 41.1468C71.6917 40.2101 71.8007 39.5784 70.853 38.6961C70.4936 38.2823 69.6549 37.803 69.0341 38.3258C67.8795 39.317 68.4568 40.9399 69.2955 41.9855ZM43.8191 46.3205C43.2963 45.5363 42.8824 43.4886 42.7735 42.9767C42.621 42.5083 42.5665 42.0836 43.1438 41.8875C43.7211 41.6697 44.233 42.3994 44.4944 43.0312C44.7558 43.652 45.1806 44.5887 45.649 45.7433C44.4944 45.068 43.5577 45.5254 43.8191 46.3205ZM75.5584 46.3205C76.0268 45.5363 76.4406 43.4886 76.604 42.9767C76.7129 42.5083 76.811 42.0836 76.2337 41.8875C75.6564 41.6697 75.1445 42.3994 74.8831 43.0312C74.6217 43.652 74.1969 44.5887 73.7285 45.7433C74.8831 45.068 75.7653 45.5254 75.5584 46.3205Z" fill="#C8102E" stroke="black" stroke-width="0.152488"/>
<path d="M46.8472 41.6148L46.4333 41.8326C46.3244 41.8762 46.3244 41.9851 46.3244 42.0395H46.2699L46.063 41.5712H46.1174C46.1174 41.6148 46.1719 41.6801 46.2699 41.6148L47.1631 41.1464C47.272 41.0919 47.272 41.0375 47.2175 40.9939L47.2611 40.9395L47.5225 41.4623H47.4789C47.4245 41.4078 47.37 41.3533 47.2611 41.4078L46.9017 41.6256L47.0542 41.9306L47.4789 41.7781C47.5879 41.7237 47.5225 41.6148 47.5225 41.5603H47.577L47.7948 42.0395C47.7404 41.9851 47.6859 41.9306 47.577 41.9851L46.6947 42.4534C46.5858 42.5079 46.5858 42.5624 46.6403 42.6059L46.5858 42.6604L46.3244 42.192L46.3789 42.1376C46.4333 42.192 46.4878 42.2465 46.5967 42.192L47.0106 41.9742L46.8472 41.6148ZM47.7404 42.301C47.8493 42.2465 47.8493 42.192 47.7839 42.0831H47.8384L48.3612 42.8673L48.0018 43.1287V43.0852C48.2087 42.9218 48.2087 42.7148 48.1543 42.6604C48.0998 42.6059 48.0453 42.5515 48.0453 42.5079C48.0018 42.5079 48.0018 42.4534 47.8928 42.5624L47.5225 42.8238C47.577 42.8673 47.6314 43.0307 47.8928 42.8673H47.9473L47.37 43.2921V43.2377C47.6314 43.0198 47.5225 42.8673 47.4789 42.8238L47.1086 43.0852C46.9997 43.1287 46.9997 43.1941 46.9997 43.2377C47.0542 43.2377 47.0542 43.2921 47.1086 43.3466C47.1631 43.4555 47.3265 43.5535 47.577 43.4555L47.6314 43.4991L47.2175 43.6516L46.6947 42.8238H46.7492C46.7928 42.8673 46.8581 42.9327 46.9561 42.8673L47.7404 42.301ZM48.5681 44.2833L48.2087 44.5883C48.1543 44.6427 48.1543 44.7517 48.2087 44.8061H48.1543L47.7839 44.4358L47.8384 44.3813C47.8928 44.4358 47.9473 44.4902 48.0562 44.3813L48.7315 43.706C48.8404 43.6516 48.8405 43.5971 48.7751 43.4882L49.1454 43.9239C49.091 43.8585 48.9929 43.8585 48.9276 43.9239L48.6226 44.2288L48.884 44.4902L49.1999 44.2288C49.3088 44.1199 49.2543 44.0763 49.1999 44.011L49.2543 43.9674L49.6138 44.3813H49.5593C49.5157 44.3813 49.4504 44.3378 49.3524 44.4358L48.6771 45.0675C48.5681 45.1764 48.5681 45.22 48.6226 45.2745V45.3289L48.2632 44.9041C48.3067 44.9041 48.4157 44.9586 48.4701 44.9041L48.8296 44.5447L48.5681 44.2833ZM49.3524 45.3834L49.5158 45.5359L49.7227 45.0675C49.7227 45.0675 49.5593 45.1111 49.2979 45.2745L49.3524 45.3834L49.2979 45.427L49.189 45.318C49.1454 45.3725 49.091 45.3725 49.0365 45.427C48.884 45.5359 48.9276 45.5903 48.9929 45.6448V45.6884L48.7315 45.427H48.7751L48.9929 45.3725L50.0277 44.8061L50.0821 44.8497C50.0821 44.8497 50.0277 44.9041 49.5593 45.9498C49.5593 46.0587 49.5157 46.1023 49.5593 46.2112L49.1454 45.8517L49.1999 45.7973C49.2543 45.9062 49.3524 45.9062 49.4068 45.7973C49.4068 45.7428 49.4613 45.6339 49.4613 45.5794L49.2979 45.427L49.3524 45.3725V45.3834ZM49.7663 46.4181L49.8207 46.3637C49.8752 46.4181 49.9296 46.4181 50.0386 46.3637L50.7139 45.4814L50.6594 45.427C50.5505 45.3725 50.398 45.3725 50.2455 45.5359V45.4814L50.4525 45.22L51.2367 45.7973L50.9753 46.1023H50.9208C51.0733 45.9498 51.0297 45.7428 50.9208 45.6884V45.6339L50.2455 46.527C50.1366 46.5815 50.1911 46.6795 50.2455 46.734H50.1911L49.7663 46.4181Z" fill="#00493D"/>
<path d="M51.1279 46.6256L50.8665 46.996C50.8121 47.1049 50.8665 47.1485 50.921 47.2138L50.8665 47.2574L50.4526 46.9415V46.8871C50.5616 46.9415 50.6051 46.9415 50.6596 46.8435L51.2369 46.0593C51.2804 45.9503 51.2369 45.8959 51.1824 45.8414L51.2369 45.7979L51.6508 46.1028V46.1573C51.5418 46.1028 51.4983 46.1028 51.4329 46.2117L51.1824 46.5821L51.4983 46.789L51.7597 46.4187C51.8032 46.3098 51.7597 46.2662 51.7052 46.2117L51.7597 46.1573L52.1736 46.4732V46.5276C52.1191 46.4732 52.0211 46.4732 51.9557 46.5821L51.4438 47.4099C51.3349 47.4643 51.3894 47.5188 51.4438 47.5732V47.6168L50.9755 47.3118H51.0299C51.0735 47.3118 51.1388 47.3118 51.1824 47.2574L51.4438 46.8435L51.1279 46.6256ZM52.1736 48.0961L52.228 48.0416C52.2825 48.0961 52.3805 48.0961 52.435 47.9871L52.8489 47.1049C52.9033 46.996 52.8489 46.9415 52.7944 46.8871L53.6876 47.3118L53.4697 47.7257L53.4262 47.6713C53.5786 47.4643 53.4262 47.2574 53.3717 47.2029C53.3172 47.2029 53.2628 47.1485 53.2192 47.1485C53.1647 47.1485 53.1647 47.1485 53.1103 47.2574C53.0558 47.3118 52.9033 47.6168 52.9033 47.6168C52.9578 47.6713 53.0558 47.7802 53.2737 47.5079H53.3172L53.0123 48.1396L52.9578 48.0961C53.1103 47.7693 52.9033 47.7257 52.8489 47.7257L52.6419 48.1396C52.5875 48.2486 52.6419 48.303 52.6964 48.303V48.3575L52.1736 48.0961ZM53.6876 48.8258C53.5351 48.7169 53.5351 48.401 53.6876 48.0961C53.7965 47.7693 54.0034 47.5188 54.2104 47.6168C54.3629 47.6713 54.3193 47.9871 54.2104 48.303C54.047 48.6624 53.84 48.8694 53.6876 48.8258H53.6331C54.0034 48.9783 54.2648 48.7714 54.4173 48.401C54.5698 48.0961 54.5262 47.7257 54.1995 47.5732C53.8945 47.4099 53.5786 47.6168 53.4262 47.9871C53.2737 48.3575 53.3172 48.7169 53.644 48.8258H53.6876ZM55.2996 48.9239L55.5174 48.303C55.561 48.1941 55.5174 48.1396 55.463 48.0852L55.7244 48.1396V48.1941C55.6699 48.1941 55.6154 48.1941 55.561 48.303L55.354 48.9239C55.2451 49.1853 55.0926 49.3922 54.7877 49.2942C54.5698 49.2397 54.4173 48.9783 54.5262 48.7169L54.7877 48.0416C54.8312 47.9327 54.7877 47.8782 54.7332 47.8238V47.7802L55.2016 47.9871V48.0416C55.1471 47.9871 55.0491 47.9871 55.0491 48.0961L54.7768 48.7605C54.7223 48.9674 54.7223 49.1744 54.8857 49.2288C55.0382 49.2833 55.1907 49.1744 55.2887 48.913L55.2996 48.9239ZM55.7788 48.2486C55.7788 48.1941 55.7788 48.1941 55.7244 48.1941L56.0838 48.2486L56.4106 49.2397L56.5631 48.608C56.6066 48.4991 56.5631 48.4555 56.5086 48.401L56.8136 48.4555L56.77 48.51C56.7155 48.51 56.6611 48.51 56.6066 48.6189L56.3452 49.7625H56.3016L55.8769 48.51L55.6154 49.3486C55.6154 49.5011 55.6699 49.5011 55.7244 49.5556V49.6101L55.4085 49.5011V49.4467C55.463 49.5011 55.561 49.4467 55.561 49.3378L55.8224 48.401L55.7788 48.2486ZM57.5542 49.2942C57.4453 49.7625 57.2275 49.8715 57.1294 49.8715H57.0205C57.0205 49.8715 56.9769 49.817 57.0205 49.7625L57.1839 48.7169C57.2384 48.6624 57.2384 48.608 57.2928 48.6624H57.4017C57.4998 48.6624 57.5978 48.8803 57.5542 49.2942L57.7067 49.3486C57.8156 48.8258 57.5978 48.608 57.3364 48.5644C57.1294 48.51 56.8136 48.4555 56.8136 48.4555V48.51C56.868 48.5644 56.9769 48.5644 56.9225 48.7278L56.77 49.6536C56.7155 49.7625 56.6611 49.817 56.6066 49.817H56.5631L57.075 49.9259C57.3364 49.9695 57.5978 49.9259 57.7067 49.3486L57.5542 49.2942ZM58.0226 48.8694C58.0226 48.7605 57.9137 48.7169 57.8592 48.7169V48.6624L58.8068 48.7714L58.7523 49.1853C58.7523 48.9239 58.589 48.8258 58.4909 48.8258C58.4365 48.7714 58.382 48.7714 58.3276 48.7714C58.284 48.7714 58.284 48.7714 58.284 48.9239L58.2295 49.3486C58.284 49.3486 58.4365 49.3922 58.5454 49.0872L58.4909 49.7625H58.4365C58.4365 49.4467 58.284 49.4467 58.2186 49.4467L58.1751 49.915C58.1751 50.0239 58.1751 50.0239 58.2295 50.0239L58.3384 50.0784C58.4909 50.0784 58.6434 50.024 58.7523 49.7081H58.8068L58.6979 50.122L57.7067 50.0131C57.8156 50.0131 57.8592 49.9695 57.9246 49.8715L58.0226 48.8694ZM59.7435 49.5011C59.7435 49.9695 59.5801 50.122 59.4276 50.122C59.3732 50.0784 59.3732 50.0784 59.3187 50.0784L59.2752 50.0239L59.3296 48.9347C59.3296 48.8694 59.3296 48.8694 59.3732 48.8694H59.4821C59.591 48.8694 59.7435 49.0328 59.7435 49.5011H59.9505C59.9505 48.9783 59.6891 48.8258 59.4276 48.8258C59.2098 48.7714 58.9048 48.7714 58.9048 48.7714V48.8258C58.9593 48.8258 59.0682 48.8694 59.0682 48.9783L59.0138 49.9695C59.0138 50.0784 58.9593 50.122 58.9048 50.122V50.1764H59.3732C59.6346 50.1764 59.896 50.0675 59.9505 49.5011H59.7326H59.7435ZM61.2575 49.915C61.2575 50.0239 61.312 50.0239 61.41 50.0239V50.0784L60.8327 50.122C60.8872 50.0784 60.9961 50.0131 60.9961 49.915L60.8872 48.9347C60.8327 48.8258 60.7783 48.8258 60.6802 48.8258V48.7714L61.2575 48.7169C61.203 48.7714 61.0941 48.8258 61.1486 48.9347L61.2575 49.915ZM61.7803 50.0239V49.9695C61.8348 49.9695 61.8892 49.915 61.8892 49.817L61.6714 48.7278H61.6169C61.508 48.7714 61.41 48.8694 61.4645 49.0872H61.41L61.3555 48.7169L62.3031 48.5644L62.3467 48.9239H62.3031C62.3031 48.7169 62.1398 48.6624 61.9764 48.6624H61.9328L62.1506 49.7516C62.1506 49.8606 62.1942 49.915 62.3031 49.915V49.9695L61.7803 50.0239ZM64.0241 48.9783L63.8062 48.3575C63.8062 48.2486 63.7082 48.2486 63.6537 48.2486V48.1941L63.9152 48.0852V48.1396C63.8607 48.1941 63.8607 48.1941 63.8607 48.303L64.0785 48.9783C64.1221 49.1962 64.1221 49.5011 63.8171 49.6101C63.5993 49.6536 63.3488 49.5556 63.2943 49.2397L63.0765 48.5644C63.0329 48.4555 62.9784 48.4555 62.924 48.4555L62.8695 48.401L63.3923 48.2486V48.303C63.3488 48.3575 63.2834 48.4119 63.3488 48.51L63.5013 49.1853C63.5557 49.4031 63.7191 49.5011 63.8607 49.5011C64.0241 49.4467 64.0785 49.2397 64.0241 48.9783ZM64.6013 48.608C64.8519 48.4991 64.8083 48.3575 64.7538 48.1941C64.6994 48.0416 64.6013 47.9327 64.4924 47.9871C64.438 47.9871 64.3835 48.0416 64.438 48.0961L64.6013 48.608L64.6449 48.6624L64.7538 49.0872C64.8083 49.1962 64.9063 49.1962 64.9717 49.1308V49.1853L64.4924 49.4031L64.438 49.3486C64.5469 49.2942 64.5469 49.2397 64.5469 49.1308L64.1766 48.2486C64.1221 48.0961 64.0676 48.1396 63.9696 48.1396V48.0961L64.4924 47.8782C64.7103 47.8347 64.9063 47.8782 65.0152 48.0961C65.0697 48.3575 64.9608 48.51 64.7538 48.6189C64.6994 48.6189 64.6449 48.6624 64.6449 48.6624L64.6013 48.608Z" fill="#00493D"/>
<path d="M65.8975 48.7601C65.745 48.8255 65.5381 48.6076 65.3747 48.2482C65.2222 47.9323 65.2222 47.6164 65.3747 47.5729C65.5381 47.5184 65.745 47.7254 65.8975 48.0412C66.0609 48.3571 66.0609 48.6621 65.8975 48.771C66.2243 48.6621 66.3223 48.3026 66.1589 47.9323C66.0064 47.6164 65.6906 47.4095 65.3747 47.5184C65.3014 47.5552 65.2362 47.6063 65.1832 47.6688C65.1301 47.7313 65.0901 47.8039 65.0657 47.8822C65.0413 47.9605 65.0329 48.0429 65.0411 48.1245C65.0493 48.2061 65.0738 48.2852 65.1133 48.3571C65.2767 48.7165 65.5925 48.9235 65.8975 48.771V48.7601ZM65.952 47.3115H65.8539L66.1589 47.0936L67.1065 47.6164L66.7798 47.0501C66.7362 46.9411 66.6273 46.9411 66.5837 46.9411V46.8867L66.8451 46.7778C66.7907 46.8431 66.7362 46.8867 66.8451 46.9956L67.3679 48.0412L67.3135 48.0957L66.1589 47.464L66.5837 48.2482C66.6273 48.3571 66.7362 48.3571 66.7907 48.3026V48.3571L66.5293 48.5096V48.4551C66.5837 48.4007 66.5837 48.3462 66.5293 48.2482L66.1154 47.4095L65.952 47.3006V47.3115ZM68.3046 47.464V47.4095C68.3046 47.355 68.3591 47.3006 68.3046 47.2025L67.6729 46.3203H67.6185C67.5095 46.3639 67.466 46.5817 67.6185 46.7342L67.5749 46.7886L67.357 46.4183L68.1413 45.8955L68.3591 46.2223C68.1957 46.0589 68.0323 46.0589 67.9343 46.1133L67.8799 46.1569L68.5116 47.0501C68.5661 47.159 68.6641 47.159 68.7294 47.1045V47.1481L68.3046 47.464Z" fill="#00493D"/>
<path d="M68.8818 46.2113L69.1867 46.5817C69.2412 46.6252 69.3501 46.6252 69.4046 46.5817V46.6252L68.9798 46.9955V46.9411C69.0343 46.8866 69.0343 46.8322 68.9798 46.7341L68.359 45.9499C68.3045 45.841 68.25 45.8955 68.1411 45.8955L68.5659 45.536V45.5905C68.5659 45.634 68.5114 45.6994 68.5659 45.7974L68.8273 46.1024L69.1323 45.8955L68.8818 45.536C68.8273 45.4271 68.7184 45.4816 68.6639 45.4816L69.0887 45.1112V45.1657C69.0343 45.2202 69.0343 45.2746 69.0887 45.3835L69.7096 46.1569C69.764 46.2113 69.8185 46.2113 69.8729 46.1569L69.9165 46.2113L69.5026 46.5817L69.4482 46.5272C69.5026 46.4727 69.5571 46.4183 69.5026 46.3094L69.1867 45.9499L68.8818 46.2113ZM69.3501 45.1112C69.2957 45.0677 69.1867 45.0677 69.1323 45.1112V45.0677L69.8185 44.4359L70.1343 44.7518H70.0799C69.9165 44.534 69.7096 44.6429 69.6115 44.6973C69.6115 44.7518 69.5571 44.7518 69.5026 44.8063C69.5026 44.8063 69.5026 44.8498 69.5571 44.9587L69.8729 45.2746C69.9165 45.2202 70.0799 45.1112 69.8729 44.8498H69.9165L70.3413 45.3291V45.3726C70.0799 45.1112 69.971 45.2637 69.9165 45.3291L70.2433 45.634C70.2868 45.743 70.3413 45.743 70.3413 45.743L70.4938 45.5905C70.5482 45.536 70.6027 45.3726 70.4938 45.0677H70.5482L70.7552 45.4271L70.0799 46.1024L70.0254 46.0588C70.0799 46.0044 70.1343 45.9499 70.0254 45.841L69.3501 45.1112ZM70.6027 43.6517C70.5482 43.7062 70.5482 43.8151 70.6463 43.8695C70.7552 43.9676 70.8641 43.9676 71.0711 43.8695C71.18 43.8151 71.376 43.7606 71.5394 43.9131C71.8008 44.1745 71.6919 44.3815 71.6483 44.4904C71.5939 44.5448 71.485 44.5993 71.4305 44.6429C71.376 44.6429 71.376 44.6429 71.376 44.6973V44.7518L71.0166 44.4359H71.0711C71.278 44.5448 71.485 44.5884 71.5939 44.4359C71.7028 44.327 71.5939 44.2181 71.5394 44.1745C71.4305 44.0656 71.3216 44.0656 71.1691 44.1745C71.0166 44.229 70.8097 44.229 70.6463 44.1201C70.4393 43.9131 70.4393 43.7606 70.5374 43.5972L70.7552 43.4448C70.8097 43.4448 70.8097 43.4448 70.7552 43.3358L71.1255 43.5972H71.0711C70.8096 43.4883 70.6463 43.5537 70.6027 43.6517ZM71.0711 43.2378C70.9621 43.1833 70.9077 43.2378 70.8532 43.2923H70.8097L71.3869 42.4536L71.7464 42.715L71.6919 42.7695C71.6267 42.7135 71.5436 42.6827 71.4577 42.6827C71.3718 42.6827 71.2887 42.7135 71.2235 42.7695C71.2235 42.8239 71.1691 42.8784 71.1691 42.9219C71.1255 42.9219 71.1255 42.9764 71.2235 43.0309C71.278 43.0853 71.5939 43.2923 71.5939 43.2923C71.6483 43.2378 71.7464 43.1289 71.5394 42.9219V42.8675L72.0622 43.2923C71.7464 43.1289 71.6919 43.2923 71.6483 43.3358L72.0078 43.5972C72.1167 43.6517 72.1603 43.6517 72.1603 43.6517C72.1603 43.5972 72.2147 43.5428 72.2692 43.4992C72.3236 43.3903 72.3781 43.2378 72.1603 43.0309L72.2147 42.9764L72.4761 43.2923L71.9533 44.0765H71.8989C71.9533 43.9676 71.9533 43.9131 71.8553 43.8151L71.0711 43.2378ZM72.4761 42.3011L72.3236 42.5625C72.1058 42.3447 72.0078 42.1922 72.0078 42.1922L72.4761 42.3011H72.585C72.6395 42.3011 72.7375 42.3447 72.792 42.3447C72.9445 42.3991 72.9009 42.4536 72.8465 42.5625H72.9009L73.1623 42.0833C73.0534 42.1922 72.9989 42.1377 72.9009 42.1377C71.8008 41.9308 71.7028 41.8763 71.7028 41.8763V41.9308L72.5306 42.8675C72.585 42.9219 72.585 43.0309 72.585 43.0853H72.6395L72.792 42.8239L72.7375 42.7695C72.6831 42.8784 72.6286 42.9219 72.5306 42.7695L72.4217 42.6605L72.585 42.3011H72.4761ZM72.1603 41.1465C72.1167 41.201 72.1167 41.3099 72.2692 41.3644C72.4217 41.408 72.487 41.3644 72.6395 41.2555C72.792 41.1465 72.9445 41.0376 73.1514 41.1465C73.4782 41.3099 73.4128 41.5713 73.3693 41.6694L73.2059 41.8872V41.9852L72.792 41.7674C73.0534 41.8218 73.2603 41.7674 73.3148 41.6149C73.3693 41.506 73.2603 41.408 73.2059 41.3535C73.097 41.3099 72.9989 41.3535 72.8465 41.4624C72.6831 41.6149 72.5197 41.6803 72.3236 41.5713C72.1058 41.4624 72.0078 41.3099 72.1058 41.1465C72.1058 41.0376 72.2147 40.9941 72.2692 40.9396C72.2692 40.8851 72.2692 40.8851 72.2147 40.8307V40.7871L72.6395 40.9941H72.585C72.3236 40.9396 72.1603 41.0485 72.1603 41.1465Z" fill="#00493D"/>
<path d="M55.6696 22.673C54.9943 22.8255 54.5259 22.88 53.8942 22.3027C53.4803 21.8888 53.5783 21.159 54.0031 20.8867C54.4715 20.5817 54.8854 20.3748 55.4626 20.5273C56.0399 20.6907 57.5539 22.0957 57.1836 22.1502C56.8132 22.1502 56.2469 22.5096 55.6696 22.673ZM57.2816 20.1679C57.4994 20.0045 57.7608 19.9064 58.4361 19.8411C59.0679 19.7975 59.5253 19.7975 59.6887 20.2768C59.9066 20.8432 60.0591 21.5185 60.4729 21.8343C60.2115 21.9868 58.9045 22.1502 58.4361 21.8888C57.8153 21.5729 57.6519 20.3639 57.2925 20.1679H57.2816ZM61.78 20.2223C61.9869 20.0589 62.2483 20.0589 62.9237 20.1134C63.599 20.1679 63.8604 20.2223 64.0129 20.6907C64.1762 21.2135 64.0129 21.8888 64.3396 22.3571C64.0129 22.4661 62.9781 22.4661 62.6078 22.0957C62.0414 21.6818 62.085 20.4728 61.78 20.2114V20.2223Z" fill="white" stroke="black" stroke-width="0.152488"/>
<path d="M64.906 20.5276C64.4376 20.4187 64.1217 20.3751 63.9257 20.5276C64.1762 20.8435 63.9693 22.0961 64.4921 22.51C64.8515 22.7714 65.7991 22.8367 66.0061 22.2486C66.2675 21.7257 66.2675 20.9415 64.9169 20.5276H64.906ZM59.5362 20.0048C59.6887 19.8523 60.0046 19.7979 60.6254 19.7979C61.3116 19.7979 61.7146 19.9068 61.9325 20.3207C62.1503 20.8435 62.0849 21.5188 62.4553 21.9436C62.3028 22.1505 60.8868 22.1505 60.4729 21.8347C59.8957 21.4643 59.8412 20.2662 59.5362 20.0048ZM55.1032 20.4732C55.1032 20.2117 55.4626 20.1682 56.4102 20.1137C57.336 20.0048 57.3905 20.0593 57.7064 20.7346C57.8589 21.1049 58.0658 21.7257 58.4906 21.9327C57.336 22.205 56.9657 22.3575 56.3449 21.9871C55.8914 21.7036 55.5168 21.3102 55.2557 20.8435C55.2012 20.691 55.2012 20.5276 55.0923 20.4732H55.1032Z" fill="#073163" stroke="black" stroke-width="0.152488"/>
<path d="M57.6087 15.1582C56.5086 14.3195 55.2015 13.5353 54.0034 13.3828C55.2535 14.2163 56.4404 15.141 57.5542 16.1494" fill="#F9D050"/>
<path d="M57.6087 15.1582C56.5086 14.3195 55.2015 13.5353 54.0034 13.3828C55.2535 14.2163 56.4404 15.141 57.5542 16.1494" stroke="black" stroke-width="0.065352"/>
<path d="M58.2293 14.374C56.9222 13.4808 55.4083 12.4897 53.9487 12.3916C55.3146 13.1831 56.5311 14.208 57.5431 15.4196M59.8958 12.9144C60.4854 11.5741 61.3587 10.3776 62.4554 9.40723C61.9326 10.5073 61.3662 12.7511 61.0939 13.6442" fill="#F9D050"/>
<path d="M58.2293 14.374C56.9222 13.4808 55.4083 12.4897 53.9487 12.3916C55.3146 13.1831 56.5311 14.208 57.5431 15.4196M59.8958 12.9145C60.4854 11.5741 61.3587 10.3776 62.4554 9.40723C61.9326 10.5073 61.3662 12.7511 61.0939 13.6442" stroke="black" stroke-width="0.065352"/>
<path d="M61.0503 12.6534C61.555 11.4261 62.5041 10.4343 63.7079 9.87598C62.8035 11.0044 62.1299 12.2997 61.7256 13.6882" fill="#F9D050"/>
<path d="M61.0503 12.6534C61.555 11.4261 62.5041 10.4343 63.7079 9.87598C62.8035 11.0044 62.1299 12.2997 61.7256 13.6882" stroke="black" stroke-width="0.065352"/>
<path d="M61.5186 13.688C62.5186 12.1572 63.9519 10.9589 65.6357 10.2461C64.3287 11.5531 62.4008 13.9494 61.9324 14.897M62.2483 14.8425C63.185 14.3197 65.0693 13.481 66.42 13.7533C65.5922 14.0583 63.087 15.202 61.9869 16.2585" fill="#F9D050"/>
<path d="M61.5186 13.688C62.5186 12.1572 63.9519 10.9589 65.6357 10.2461C64.3287 11.5531 62.4008 13.9494 61.9324 14.897M62.2483 14.8425C63.185 14.3197 65.0693 13.481 66.42 13.7533C65.5922 14.0583 63.087 15.202 61.9869 16.2585" stroke="black" stroke-width="0.065352"/>
<path d="M62.0415 14.4717C62.9238 13.535 64.5467 12.1299 66.2676 11.5527C65.0151 12.7508 62.3465 15.4738 61.9871 15.8877M59.5364 13.9053C58.9046 11.9666 57.9679 10.1476 56.5629 9.57031C57.682 11.1704 58.4605 12.9832 58.8502 14.8965M58.3274 13.8509C57.2926 12.5983 55.8767 11.3457 54.2646 11.0843C55.8443 12.118 57.0923 13.5853 57.859 15.3104" fill="#F9D050"/>
<path d="M62.0415 14.4717C62.9238 13.535 64.5467 12.1299 66.2676 11.5527C65.0151 12.7508 62.3465 15.4738 61.9871 15.8877M59.5364 13.9053C58.9046 11.9666 57.9679 10.1476 56.5629 9.57031C57.682 11.1704 58.4605 12.9832 58.8502 14.8965M58.3274 13.8509C57.2926 12.5983 55.8767 11.3457 54.2646 11.0843C55.8443 12.118 57.0923 13.5853 57.859 15.3104" stroke="black" stroke-width="0.065352"/>
<path d="M58.9155 13.7964C57.6085 11.4438 56.6064 11.0299 56.04 10.5615C56.5084 11.4438 57.6521 13.7964 58.3274 14.7876" fill="#F9D050"/>
<path d="M58.9155 13.7964C57.6085 11.4438 56.6064 11.0299 56.04 10.5615C56.5084 11.4438 57.6521 13.7964 58.3274 14.7876" stroke="black" stroke-width="0.065352"/>
<path d="M56.3013 13.6445C57.0462 14.113 57.6845 14.7327 58.1747 15.4635" stroke="black" stroke-width="0.065352"/>
<path d="M56.3013 14.7337C56.6062 14.9951 57.1835 15.311 57.7063 15.7794L56.3013 14.7337ZM62.5097 15.5179C63.0325 15.104 64.1762 14.4287 64.7535 14.2109L62.5097 15.5179ZM62.1394 15.1585C62.6622 14.4723 63.7078 13.5356 64.0782 13.2197L62.1394 15.1585ZM63.5989 11.9127C62.897 12.6993 62.2354 13.5208 61.6166 14.3743L63.5989 11.9127ZM62.2483 11.4443C61.754 12.1755 61.317 12.9439 60.9413 13.7425L62.2483 11.4443ZM58.1202 11.5533C58.4361 12.3919 59.0134 13.797 59.2094 14.3743L58.1202 11.5533ZM57.6519 12.4355C57.8697 12.7623 58.2836 13.4811 58.4361 14.004L57.6519 12.4355Z" fill="#F9D050"/>
<path d="M56.3013 14.7337C56.6062 14.9951 57.1835 15.311 57.7063 15.7794M62.5097 15.5179C63.0325 15.104 64.1762 14.4287 64.7535 14.2109M62.1394 15.1585C62.6622 14.4723 63.7078 13.5356 64.0782 13.2197M63.5989 11.9127C62.897 12.6993 62.2354 13.5208 61.6166 14.3743M62.2483 11.4443C61.754 12.1755 61.317 12.9439 60.9413 13.7425M58.1202 11.5533C58.4361 12.3919 59.0134 13.797 59.2094 14.3743M57.6519 12.4355C57.8697 12.7623 58.2836 13.4811 58.4361 14.004" stroke="black" stroke-width="0.065352"/>
<path d="M59.4272 12.1736C59.4272 11.7053 59.7431 11.1934 60.059 11.1934C60.4184 11.1934 60.6798 11.8142 60.6798 12.1736C60.6798 12.5984 60.364 12.9579 60.059 12.9579C59.7322 12.9579 59.4272 12.6529 59.4272 12.1736Z" fill="#F9D050" stroke="black" stroke-width="0.065352"/>
<path d="M58.7524 12.5984C58.8068 12.0756 59.1663 11.6617 59.4821 11.7053C59.798 11.7598 59.9505 12.3915 59.896 12.7509C59.8416 13.1648 59.4821 13.4807 59.2207 13.4262C58.9593 13.4262 58.6979 13.0668 58.7524 12.5984ZM60.1574 12.7509C60.0485 12.2826 60.2664 11.7707 60.5822 11.7053C60.8872 11.6617 61.2031 12.1737 61.2575 12.5984C61.3665 13.0123 61.0942 13.4262 60.8327 13.4262C60.5822 13.4807 60.2119 13.2193 60.1574 12.7509Z" fill="#F9D050" stroke="black" stroke-width="0.065352"/>
<path d="M59.373 13.1649C59.373 12.6529 59.6889 12.1846 60.0048 12.1846C60.3642 12.1846 60.6256 12.751 60.6256 13.1649C60.6256 13.5896 60.3206 13.9491 60.0048 13.9491C59.6889 13.9491 59.373 13.6441 59.373 13.1649Z" fill="#F9D050" stroke="black" stroke-width="0.065352"/>
<path d="M58.4365 13.4265C58.4365 12.9581 58.8069 12.4462 59.1118 12.4462C59.4386 12.4462 59.7436 13.0671 59.7436 13.4265C59.7436 13.8513 59.3732 14.2107 59.1118 14.2107C58.8069 14.2107 58.4365 13.9057 58.4365 13.4265ZM60.3644 13.2195C60.3644 12.7512 60.6912 12.2393 60.9961 12.2393C61.3556 12.2393 61.617 12.8601 61.617 13.2195C61.617 13.6443 61.312 14.0038 60.9961 14.0038C60.6803 14.0038 60.3644 13.6879 60.3644 13.2195Z" fill="#F9D050" stroke="black" stroke-width="0.065352"/>
<path d="M60.1572 13.6445C60.1572 13.1217 60.5275 12.6533 60.8325 12.6533C61.1593 12.6533 61.4643 13.2197 61.4643 13.6336C61.4643 14.0584 61.1484 14.4287 60.8325 14.4287C60.5275 14.4287 60.1572 14.102 60.1572 13.6445Z" fill="#F9D050" stroke="black" stroke-width="0.065352"/>
<path d="M59.3295 14.112C59.3295 13.5892 59.6345 13.1209 59.9503 13.1209C60.3207 13.1209 60.5821 13.7417 60.5821 14.1011C60.5821 14.5368 60.2553 14.8963 59.9503 14.8963C59.6345 14.8963 59.3186 14.5695 59.3186 14.112H59.3295ZM58.0225 14.112C58.0225 13.5892 58.2839 13.1209 58.5453 13.1209C58.8067 13.1209 59.0136 13.7417 59.0136 14.1011C59.0136 14.5368 58.7522 14.8963 58.5453 14.8963C58.2839 14.8963 58.0225 14.5695 58.0225 14.112ZM60.9415 14.014C60.9415 13.5348 61.2029 13.0664 61.4643 13.0664C61.7257 13.0664 61.9872 13.6437 61.9872 14.0031C61.9872 14.4715 61.6713 14.7873 61.4643 14.7873C61.2029 14.7873 60.9415 14.4715 60.9415 14.0031V14.014Z" fill="#F9D050" stroke="black" stroke-width="0.065352"/>
<path d="M61.2574 14.8858C61.3664 14.3739 61.6713 13.9491 61.8783 14.0145C62.0961 14.058 62.1397 14.6789 62.0417 15.0492C61.9872 15.5176 61.6713 15.779 61.4644 15.7245C61.2465 15.6809 61.1485 15.3106 61.2465 14.8967L61.2574 14.8858Z" fill="#F9D050" stroke="black" stroke-width="0.065352"/>
<path d="M60.2662 14.7333C60.3206 14.2649 60.6256 13.7966 60.887 13.851C61.2029 13.851 61.3554 14.4719 61.3118 14.8313C61.2573 15.3105 60.985 15.6264 60.7345 15.5719C60.4731 15.5719 60.2117 15.2016 60.2662 14.7333ZM58.8066 14.8858C58.6433 14.3738 58.3274 14.0144 58.1204 14.058C57.9135 14.1124 57.859 14.7333 57.968 15.1036C58.0769 15.5175 58.3819 15.7789 58.5888 15.7244C58.7522 15.6809 58.9156 15.3105 58.8066 14.8966V14.8858Z" fill="#F9D050" stroke="black" stroke-width="0.065352"/>
<path d="M58.4365 14.7883C58.4365 14.3199 58.6979 13.8516 58.9593 13.8516C59.2752 13.8516 59.4822 14.4288 59.4822 14.7883C59.4822 15.2566 59.2208 15.5725 58.9593 15.5725C58.7415 15.5725 58.4365 15.2566 58.4365 14.7883Z" fill="#F9D050" stroke="black" stroke-width="0.065352"/>
<path d="M59.2206 14.9947C59.2206 14.4719 59.5365 14.0145 59.8414 14.0145C60.2118 14.0145 60.4732 14.5808 60.4732 14.9947C60.4732 15.4195 60.1573 15.779 59.8414 15.779C59.5365 15.779 59.2206 15.4631 59.2206 14.9947ZM59.482 9.25466C59.3731 9.66855 59.0136 10.0389 59.2642 10.6162C58.8067 10.4528 58.3928 10.3983 58.0225 10.8231C58.4908 10.7686 58.9047 10.932 59.1117 11.237C58.6978 11.1825 58.4908 11.4004 58.3819 11.6618C58.7522 11.5529 59.1117 11.4439 59.275 11.4984C59.1117 11.6618 58.8503 11.9123 58.8067 12.1301C59.1117 11.8687 59.482 11.9123 59.6889 11.7598C59.5364 12.1301 59.8414 12.4896 60.1028 12.849C60.0593 12.3371 60.3642 11.9777 60.2118 11.7054C60.6801 11.8143 60.7346 12.2282 61.4099 12.2282C61.1485 12.0757 60.996 11.5529 60.6801 11.5529C60.8326 11.4984 61.4643 11.4439 61.5733 11.5529C61.4643 11.335 61.094 11.139 60.8871 11.139C61.1049 10.9211 61.4643 10.5072 61.7257 10.3983C61.3554 10.4528 60.789 10.5072 60.5821 10.8231C61.094 10.3983 60.996 9.62498 61.5624 9.51606C61.2574 9.4616 60.789 9.66855 60.4187 10.0389C60.5821 9.72301 60.5821 9.30912 60.789 9.2002C60.3642 9.30912 59.8959 9.83193 59.7434 10.0933C59.7208 9.7976 59.6314 9.51084 59.482 9.25466Z" fill="#F9D050" stroke="black" stroke-width="0.065352"/>
<path d="M59.7434 10.0935C59.7434 10.246 59.7434 10.5619 59.689 10.6599L59.7434 10.0935ZM60.4187 10.0391C60.3098 10.148 60.1029 10.5074 60.1029 10.8233L60.4187 10.0391Z" fill="#F9D050"/>
<path d="M59.7434 10.0935C59.7434 10.246 59.7434 10.5619 59.689 10.6599M60.4187 10.0391C60.3098 10.148 60.1029 10.5074 60.1029 10.8233" stroke="black" stroke-width="0.065352"/>
<path d="M60.7346 10.6602C60.555 10.7674 60.4227 10.9386 60.3643 11.1394" stroke="black" stroke-width="0.065352"/>
<path d="M55.2014 15.8334C54.8311 15.8334 54.5261 15.6809 54.3083 15.4195C53.9489 14.9402 52.9577 14.7333 52.5329 15.1581C52.3804 15.267 52.1735 15.267 52.021 15.3106C51.7596 15.3106 51.4437 15.572 51.5417 16.0948C51.7596 15.9314 51.8031 16.0948 51.9665 16.0948C52.0754 16.0403 52.021 16.1492 52.021 16.2473C52.021 16.5087 52.5874 17.0315 53.1102 16.977C53.6874 16.977 53.9489 17.1949 54.0469 17.3038C54.2103 17.4454 54.1013 17.4018 54.2103 17.6632C54.3627 17.8157 54.4172 17.8702 54.1558 18.0771C54.0369 18.1763 53.9412 18.3004 53.8756 18.4406C53.8099 18.5808 53.7759 18.7337 53.7759 18.8886C53.7759 19.0434 53.8099 19.1963 53.8756 19.3366C53.9412 19.4768 54.0369 19.6009 54.1558 19.7C54.8311 20.212 56.552 21.0071 58.4908 19.4822C60.3642 18.0227 63.2833 18.8613 63.5011 19.3733C63.7625 19.907 63.8606 20.212 63.915 20.4734C63.9695 20.6912 64.2309 20.8981 64.6012 20.8437C64.9607 20.8437 65.3746 20.9962 65.5815 21.1596C65.8538 21.312 66.2132 21.2685 66.1152 20.7892C65.8974 19.3297 65.0151 19.1228 64.9171 18.4474C65.429 18.491 65.7885 18.491 66.0063 18.2841C66.1588 18.0771 66.3657 17.7068 66.5836 17.6088C66.7361 17.4998 66.7361 17.3909 66.5291 17.4454C66.2677 17.4998 66.1152 17.6088 65.636 17.5543C63.2397 17.2929 56.5085 15.463 55.2014 15.8334Z" fill="#059334" stroke="black" stroke-width="0.152488"/>
<path d="M65.8536 17.609C65.4555 17.8899 65.1152 18.2449 64.8515 18.6547C64.3396 19.33 62.7711 20.0053 60.8324 20.0053C58.9589 20.0053 57.8153 19.7003 56.9766 19.025C56.6185 18.7387 56.2316 18.4904 55.822 18.2843C55.2557 18.0229 55.1467 17.4456 55.2992 16.9773C55.1467 17.2387 55.0487 17.5001 54.7328 17.4456C54.515 17.4456 54.1011 17.4456 54.21 17.6635C54.1556 17.5546 54.1556 17.4021 54.1011 17.3367L53.9922 17.2387C54.1556 17.3476 54.5259 17.0318 54.7873 17.0318C54.9943 17.0862 55.2557 16.8248 55.2012 16.5089L55.0487 15.8336C55.4626 15.6158 60.9413 16.6179 62.0414 16.7159C63.1306 16.7703 66.2675 17.2387 65.8536 17.609Z" fill="black" stroke="black" stroke-width="0.152488"/>
<path d="M55.9311 15.6269C56.4539 15.1041 57.0747 14.8427 57.7065 14.9952H57.859C58.1857 14.7338 58.9046 14.6793 59.3294 14.8862H59.5363C60.1572 14.6793 61.3553 14.8862 61.7801 15.311L61.9326 15.42C63.3485 15.311 64.1763 15.9319 65.1675 16.9339C65.2764 17.0429 65.4289 17.2389 65.6903 17.2934C66.0062 17.3478 66.0606 17.5112 65.7992 17.6637C65.3805 17.9227 65.0116 18.2547 64.71 18.644C64.2308 19.2757 62.7168 19.9075 60.8325 19.9075C59.0135 19.9075 57.9134 19.5807 57.0747 18.9599C56.6064 18.6004 56.2469 18.3935 55.9855 18.2301C55.6697 18.1212 55.2558 17.7073 55.4083 17.2934C55.5172 16.8795 55.2558 16.3567 55.0488 15.8339C55.2013 15.7249 55.6152 15.5724 55.8222 15.6814L55.9311 15.6269Z" fill="#059334" stroke="black" stroke-width="0.152488"/>
<path d="M65.1676 16.9339C64.1873 15.9319 63.3486 15.311 61.9326 15.4091C61.9326 15.4635 61.9326 15.6269 61.8782 15.7358C62.865 16.1787 63.7397 16.8375 64.4378 17.6637C64.6556 17.4459 65.0151 17.1954 65.1676 16.9339ZM61.7802 15.311C61.3554 14.8971 60.1573 14.6793 59.5364 14.8971C59.5364 15.1041 59.5364 15.42 59.4275 15.6269C59.7978 15.7794 60.1028 16.1497 60.4187 16.5092C60.6365 16.4547 61.1484 16.3022 61.4098 16.2477C61.5658 15.9494 61.69 15.6354 61.7802 15.311ZM59.3295 14.8862C58.9047 14.6793 58.1749 14.7338 57.859 14.9952C57.7501 15.213 57.7066 15.6269 57.7066 15.8339C57.9244 15.8339 58.2294 15.9863 58.3274 16.0953C58.6542 15.9863 59.068 15.7794 59.2205 15.6269C59.275 15.4091 59.373 15.1041 59.3295 14.8971V14.8862ZM55.9312 15.6269C56.454 15.1041 57.0748 14.8427 57.7066 14.9952C57.5976 15.1585 57.5541 15.4635 57.5541 15.7794C56.9768 15.7249 56.247 15.8883 55.9312 16.0953V15.6269Z" fill="#00493D" stroke="black" stroke-width="0.152488"/>
<path d="M64.2309 17.7621C63.5747 16.9852 62.757 16.3607 61.8347 15.9322C61.8347 15.9867 61.7257 16.1936 61.6713 16.357C61.9871 16.8254 62.608 17.871 62.8694 18.4483C63.1308 18.3394 63.8606 18.0235 64.2309 17.7621ZM60.2662 18.9166C60.3565 18.2048 60.4074 17.4884 60.4187 16.7709C60.6801 16.7165 61.2029 16.564 61.4099 16.5095C61.6713 16.9343 62.303 18.0344 62.5644 18.5463C61.9327 18.6988 60.8871 18.9602 60.2662 18.9166ZM58.4363 16.4115C58.6978 16.3026 59.0681 16.0847 59.3186 15.8887C59.5364 16.0412 59.9503 16.4115 60.1028 16.6184C60.1028 17.0868 59.9503 18.4483 59.8959 18.9058C59.482 18.9058 58.8067 18.8077 58.4363 18.6008C58.4908 17.8166 58.5453 16.9343 58.4363 16.4115ZM55.8223 17.0323C55.8767 16.9234 55.9312 16.564 55.9312 16.4115C56.3451 16.1501 57.3907 15.8887 58.1749 16.3026C58.2294 16.8254 58.1749 18.1324 58.1205 18.4483C57.4219 17.8802 56.6532 17.4043 55.8332 17.0323H55.8223Z" fill="#00493D" stroke="black" stroke-width="0.152488"/>
<path d="M53.2191 16.0843C53.1102 16.0843 53.0558 15.7793 52.8488 15.7793C52.7943 15.7793 52.6419 15.8338 52.5874 15.7793C52.5874 15.8882 52.6419 15.9971 52.6963 16.0407C52.7508 16.1932 53.0122 16.0952 53.2191 16.0952V16.0843Z" fill="black"/>
<path d="M53.2191 16.9772C53.84 16.9772 53.9489 16.1929 54.2647 16.1494M53.5786 17.0316C54.0469 17.2495 54.4172 16.1494 54.7767 16.1929M52.6418 15.681C52.7943 15.681 52.9032 15.4632 53.1647 15.7246C53.2736 15.8335 53.4261 15.888 53.535 15.888M53.4261 16.4544C53.2082 16.7811 52.8488 16.9772 52.6418 16.8791M52.5329 15.1582C52.3804 15.2671 52.2824 15.4632 52.1735 15.6266M52.021 15.9315V16.1929" stroke="black" stroke-width="0.152488"/>
<path d="M69.4478 22.7287V32.9018C69.4478 41.7243 65.2761 44.7523 59.6885 47.1485C54.1009 44.7523 49.8857 41.7243 49.8857 32.9018V22.7178H69.4478V22.7287Z" fill="white"/>
<path d="M59.6887 31.3332C60.157 31.3332 60.8868 30.9193 61.5186 30.2876C62.1939 29.5578 63.3484 29.3073 64.5465 30.2876C65.7446 31.2787 66.4744 30.8648 67.1061 30.2876C67.727 29.7212 68.2498 29.5033 69.4479 29.5033V22.7285H49.875V29.5142C51.0731 29.5142 51.5959 29.7321 52.2277 30.2985C52.8485 30.8757 53.5783 31.2896 54.7873 30.2985C56.0399 29.3182 57.1291 29.5687 57.8588 30.2985C58.4361 30.9302 59.1659 31.3441 59.6887 31.3441V31.3332Z" fill="#C8102E"/>
<path d="M59.6887 36.5615C60.3204 36.5615 61.573 35.8753 61.878 35.7229C63.0325 35.0367 63.8603 35.6684 64.5465 35.9843C65.2763 36.2892 66.6269 36.6596 67.4656 35.9843C68.3043 35.2981 68.7726 35.3525 69.3499 35.3525C69.4588 34.5683 69.4588 33.7841 69.4588 32.9018V32.2701C68.7182 32.1176 68.3587 32.3245 67.5745 33.0107C66.7903 33.686 65.8971 33.5336 64.7426 33.1197C63.6534 32.6404 62.5642 31.8126 61.4641 33.1197C61.0078 33.6295 60.3712 33.942 59.6887 33.991C58.9045 33.991 58.2292 33.4791 57.9133 33.1197C56.7696 31.8126 55.724 32.6404 54.6239 33.1197C53.4802 33.5336 52.5326 33.686 51.7593 33.0107C51.0296 32.3245 50.6592 32.1176 49.875 32.2701V32.9018C49.875 33.7841 49.9295 34.5683 50.0275 35.3525C50.6048 35.3525 51.0296 35.2981 51.8573 35.9843C52.696 36.6596 54.1011 36.2892 54.7873 35.9843C55.5171 35.6684 56.3448 35.0367 57.4994 35.7229C57.8153 35.8753 59.0134 36.5506 59.6887 36.5506V36.5615ZM59.6887 38.8053C60.5931 38.7565 61.4718 38.4872 62.2483 38.0211C63.2939 37.4438 64.0237 37.6943 65.0693 38.228C66.1585 38.7508 67.0517 38.5874 67.6834 38.228C67.9884 38.0102 68.2498 37.5963 68.9251 37.7597C68.6201 39.0667 68.1409 40.2104 67.5745 41.1471C67.1295 41.2946 66.6597 41.3523 66.1922 41.3167C65.7248 41.2812 65.2691 41.1532 64.8515 40.9401C63.7623 40.4173 62.4008 40.1014 61.671 40.5698C61.0792 40.955 60.3943 41.1733 59.6887 41.2015C59.1114 41.2015 58.3817 40.9837 57.7064 40.5698C56.9766 40.1014 55.6151 40.4173 54.5259 40.9401C54.1091 41.155 53.6537 41.2849 53.1862 41.3223C52.7188 41.3597 52.2486 41.3038 51.8029 41.158C51.2365 40.2104 50.7681 39.0558 50.4523 37.7597C51.1276 37.5963 51.389 38.0211 51.7049 38.228C52.0954 38.4485 52.5362 38.5643 52.9847 38.5643C53.4331 38.5643 53.874 38.4485 54.2645 38.228C55.3537 37.7052 56.0834 37.4438 57.1291 38.0102C57.9046 38.4802 58.7834 38.7531 59.6887 38.8053ZM59.6887 47.1486C61.7075 46.3662 63.5925 45.2748 65.2763 43.9136C64.8515 43.7611 64.601 43.8592 64.2307 43.5978C63.8603 43.3364 62.7711 43.2383 61.8344 43.7611C61.1848 44.1401 60.4462 44.3397 59.6941 44.3397C58.9421 44.3397 58.2035 44.1401 57.5539 43.7611C56.6063 43.2383 55.5171 43.3364 55.1576 43.5978C54.7873 43.8592 54.5259 43.7611 54.1011 43.9245C55.7781 45.2928 57.6649 46.3814 59.6887 47.1486Z" fill="#0B50A0"/>
<path d="M58.3272 25.2772C58.3817 25.3861 58.2836 25.6475 58.3272 25.7455C58.4361 25.9634 58.4361 26.0723 58.5886 26.1703H58.959C60.1026 26.1703 61.4641 25.702 62.6078 25.702C63.7079 25.702 64.3832 26.0614 65.004 26.0614C65.3743 26.0614 65.6902 25.8 65.6902 25.5386C65.6902 25.2772 65.2763 25.1247 64.3832 25.1247C63.1306 25.1247 62.4553 25.4406 61.4097 25.4406C59.8412 25.4406 59.5798 24.8633 59.5798 24.6019C59.5798 24.3405 59.8412 23.981 60.6799 23.981C60.9413 23.981 61.1482 23.9266 61.2572 23.8177C61.3116 23.7087 61.4641 23.5018 61.78 23.3493C62.1394 23.1315 62.8692 23.3493 63.2395 23.0879C63.2395 23.3057 62.9236 23.6107 62.6622 23.7196C63.185 23.5562 63.7514 23.5562 63.8604 23.981C63.5989 23.8177 63.185 23.9266 63.0326 23.981C62.8147 24.0246 62.7167 24.09 62.5097 24.1335C62.7167 24.0791 62.8256 24.493 63.1306 24.493C62.8256 24.7544 62.3028 24.7544 61.78 24.5474C61.6166 24.493 61.2027 24.3405 60.9413 24.3405C60.4185 24.3405 60.1026 24.4494 60.1026 24.6563C60.1026 24.9177 60.4294 25.0702 61.3552 25.0702C62.3028 25.0702 62.8256 24.8088 64.2307 24.8088C64.1218 24.6563 64.2851 24.493 64.0782 24.3405C64.601 24.3405 65.1674 24.493 65.3852 24.8633C65.3308 24.493 65.6357 24.188 65.5377 23.8721C65.8536 23.9266 66.115 24.2315 66.1586 24.493C66.1586 24.3405 66.3764 24.3405 66.3764 24.188C66.5221 24.2667 66.6399 24.3884 66.714 24.5366C66.7881 24.6847 66.8147 24.852 66.7903 25.0158C66.9428 24.7544 67.1062 24.8633 67.2042 24.5474C67.3131 24.7653 67.2587 25.3861 66.8883 25.593C67.2151 25.3752 67.6725 25.3752 67.9884 25.7455C67.6725 25.702 67.5201 25.8545 67.3676 25.9089C66.6076 26.2974 65.7583 26.4777 64.906 26.4317C64.0782 26.3773 63.9693 26.2139 63.4464 26.2139C63.7623 26.2684 64.3832 26.9001 64.9713 26.9001C65.3308 26.9001 65.5922 26.9001 65.7447 26.8456C65.8972 26.7912 66.1586 26.8456 66.3655 26.9545C66.5289 27.107 66.8448 27.2595 67.0517 27.216C66.9972 27.4229 66.8883 27.5209 66.7358 27.5754C66.9972 27.7388 66.8448 27.8368 67.1062 28.0437C66.9972 28.0437 66.8883 28.1527 66.7358 28.0982C66.8883 28.2507 66.8883 28.4685 67.0517 28.5666C66.9972 28.5666 66.8339 28.621 66.7358 28.5666C66.8883 28.7844 66.7358 29.0349 66.8883 29.1438C67.0517 29.3617 66.7358 29.6122 66.4744 29.4052C66.5289 29.5577 66.3655 29.7211 66.213 29.6667C66.0605 29.6122 65.9516 29.4488 65.9952 29.4052C65.9952 29.3508 65.9952 29.3508 66.0605 29.2963C65.9516 29.4597 65.7447 29.4597 65.6357 29.4052C65.5922 29.3508 65.5268 29.2963 65.5268 29.2528C65.1674 29.3617 65.0149 29.0349 65.0694 28.8824C65.1129 28.7299 65.4288 28.6646 65.5377 28.7299C65.6466 28.7735 65.7447 28.8389 65.8536 28.7299C65.9625 28.6755 66.0061 28.5666 66.0061 28.4685C66.0061 28.3052 65.8536 27.8368 65.1674 27.8913C64.3832 27.9457 63.1306 27.7388 62.5097 27.5209C62.4553 27.4774 62.4008 27.4774 62.3464 27.412C62.3464 27.6299 62.1394 27.7388 62.1394 27.9457C62.1394 28.2071 62.2483 28.4141 62.5642 28.5121C62.4008 28.7735 62.1394 28.7299 62.0414 28.5666C62.0414 28.7299 61.8235 28.828 61.8235 29.0349C61.78 28.926 61.7146 28.8824 61.6711 28.7735C61.5186 29.1438 61.0938 29.3508 60.8868 29.2528C60.6254 29.4597 60.3205 29.4052 60.2115 29.1983C60.059 29.3072 59.8412 29.3072 59.7432 29.1983C59.7432 29.3508 59.6342 29.3072 59.5798 29.5142C59.5798 29.6231 59.3728 29.6667 59.2748 29.6231C59.1659 29.5577 59.1114 29.3508 59.2204 29.2528C59.0679 29.3617 58.9045 29.3617 58.8065 29.2528C58.8065 29.1438 58.8065 28.9914 58.9154 28.926H59.0134C58.9045 28.8824 58.752 28.926 58.6431 28.8824C58.5342 28.7735 58.5342 28.6646 58.5886 28.5666C58.6431 28.5121 58.8065 28.4141 58.9154 28.5121L58.959 28.5666C58.959 28.4576 59.0134 28.3596 59.0679 28.3596C59.1768 28.3052 59.3184 28.3052 59.4818 28.4685C59.5907 28.621 59.6887 28.621 60.0046 28.5775C60.266 28.5775 60.6799 28.3052 60.9849 28.0437C60.1135 27.8913 60.6254 27.314 60.8868 27.107C60.6799 27.0526 60.364 27.0526 60.1571 27.1615C59.0679 27.7388 57.9133 28.4141 57.1835 28.2071C57.1937 28.3163 57.2312 28.4212 57.2925 28.5121C57.1291 28.5121 56.8132 28.5121 56.7152 28.3596C56.6607 28.4685 56.5627 28.7299 56.6607 28.9369C56.5518 28.828 56.2468 28.7191 56.0835 28.6755C56.1924 28.7844 56.0835 28.9914 56.1379 29.1438C55.9854 28.9914 55.724 28.8824 55.6151 28.9914C55.5062 29.1003 55.2992 29.1438 55.1468 29.1003C55.0452 29.2438 54.9 29.3508 54.7329 29.4052C54.7329 29.2963 54.7329 29.1438 54.6784 29.0894C54.6239 29.2528 54.4606 29.4597 54.2645 29.5577C54.2645 29.4488 54.2645 29.2963 54.21 29.1983C54.21 29.4052 53.7961 29.5142 53.7417 29.6667C53.7961 29.5142 53.7961 29.3508 53.7961 29.2528C53.7383 29.3454 53.6621 29.425 53.5721 29.4869C53.4822 29.5487 53.3805 29.5914 53.2733 29.6122C53.3169 29.5033 53.3822 29.3944 53.3169 29.2963C53.2733 29.5142 52.9575 29.6231 52.6961 29.5577C52.6961 29.6667 52.4782 29.8191 52.2277 29.6667C52.0643 29.6122 51.9663 29.4488 52.0643 29.3508C51.8574 29.3508 51.6504 29.1438 51.7593 28.9914C51.7593 28.9369 51.8029 28.8824 51.8029 28.828C51.6504 28.7191 51.596 28.5121 51.7593 28.3596C51.8029 28.3052 51.9663 28.3052 52.0643 28.3052C52.0643 27.8913 52.4346 27.8913 52.5871 28.1962C52.6961 28.3596 53.0119 28.621 53.2733 28.5666C53.3822 28.5666 53.4258 28.5121 53.5347 28.5121C54.0033 28.3573 54.4444 28.1294 54.8418 27.8368C54.8853 27.6843 54.8853 27.5754 54.8853 27.4774C54.6784 27.5863 54.4714 27.6843 54.3625 27.8368V27.6843C54.21 27.6843 53.9486 27.6299 53.8397 27.6299C53.8942 27.5754 53.9486 27.314 54.0576 27.2595C53.7961 27.314 53.5347 27.2595 53.3169 27.216C53.4258 27.107 53.4258 26.9545 53.4803 26.7912C53.3714 26.8456 53.1099 26.7476 52.903 26.7912C52.9575 26.6387 53.0119 26.4317 53.1644 26.3773C52.9466 26.4317 52.696 26.3773 52.4346 26.2684C52.6525 26.2684 52.7505 26.0069 52.903 26.0069C52.4891 26.0069 52.3802 25.8 52.1732 25.702C52.3257 25.7455 52.4346 25.593 52.5871 25.593C52.4346 25.5386 52.1732 25.2772 52.2822 25.1247C52.2277 25.1792 52.1732 25.2772 52.0643 25.3425C51.9554 25.3861 51.7593 25.3425 51.596 25.1792C51.487 24.9613 51.5415 24.7108 51.7593 24.6563C51.7115 24.6533 51.6656 24.6366 51.627 24.6082C51.5884 24.5798 51.5588 24.541 51.5416 24.4963C51.5244 24.4516 51.5204 24.4029 51.53 24.356C51.5397 24.309 51.5625 24.2659 51.596 24.2316C51.6504 24.1226 51.8574 23.981 51.9663 24.1226L52.1188 24.3405C52.0643 24.2316 52.0643 24.0246 52.0643 23.8721C52.1188 23.7196 52.2277 23.7196 52.3911 23.6543C52.5327 23.6543 52.6416 23.8177 52.6416 23.981C52.6416 24.1335 52.6961 24.2316 52.7505 24.4494L52.7941 24.2316C52.7941 24.0246 53.0555 24.0791 53.2189 24.1226C53.3714 24.188 53.4258 24.493 53.2189 24.6563C53.1099 24.7653 53.1644 24.9177 53.2733 25.0158C53.6328 25.5931 54.2536 26.0614 54.7873 26.1159C54.7873 25.898 54.8962 25.702 55.0487 25.5386C55.0487 25.4297 55.0923 25.2772 55.1576 25.1792C55.2012 24.8633 55.3537 24.7108 55.5606 24.8088C55.5171 24.7544 55.4517 24.6999 55.4517 24.6563C55.2992 24.493 55.1468 24.2315 55.2557 24.0246C55.3646 23.8177 55.6696 23.8721 55.7785 23.981C55.724 23.6543 56.0835 23.4038 56.0835 23.2404C56.1379 23.4038 56.2468 23.6107 56.1924 23.7632C56.2468 23.5562 56.6063 23.2948 56.8677 23.1968C56.7588 23.3493 57.0855 23.6107 57.0311 23.7632C57.14 23.5018 57.5539 23.3493 57.8589 23.3493C57.7499 23.4582 57.7499 23.6652 57.7499 23.7632C57.9133 23.7632 58.1856 23.7196 58.2836 23.5562C58.2836 23.7741 58.1747 23.981 58.0658 24.0791C58.1203 24.0246 58.3272 24.0246 58.4906 24.0246C58.3272 24.188 58.3817 24.3514 58.2292 24.4494C58.4361 24.3405 58.6975 24.3405 58.752 24.5583C58.8609 24.7108 58.6975 24.9722 58.5886 25.1247C58.4797 25.1792 58.3817 25.2772 58.3272 25.2772Z" fill="#F9D050" stroke="black" stroke-width="0.152488"/>
<path d="M55.103 25.9092C54.7327 26.0617 54.6238 26.432 54.5693 26.6389" stroke="black" stroke-width="0.152488"/>
<path d="M55.0487 26.2686C54.5259 26.5953 54.3081 26.8458 54.417 27.4231M55.2992 27.8479C55.626 27.739 55.822 27.6301 56.0835 27.1617" stroke="black" stroke-width="0.152488"/>
<path d="M55.9308 27.3682C55.8219 27.586 55.9308 27.9454 55.7783 28.0979C55.9184 28.0282 56.0393 27.9252 56.1304 27.798C56.2216 27.6708 56.2802 27.5232 56.3011 27.3682" stroke="black" stroke-width="0.152488"/>
<path d="M56.04 27.9457C56.247 27.8368 56.5629 27.5209 56.7153 27.1615C56.6609 27.314 56.7153 27.5754 56.6064 27.7388C56.8678 27.4774 56.9768 27.314 57.0312 27.0526L57.0748 27.2704C57.1837 27.1615 57.2926 27.0526 57.2926 26.8456M57.2817 26.9981V27.2595C57.4996 27.107 57.554 26.9001 57.554 26.6387" stroke="black" stroke-width="0.152488"/>
<path d="M57.4993 26.9547C57.8151 26.7369 57.8587 26.4319 57.8587 25.9636M57.8587 26.4864C58.0766 26.323 58.1201 26.225 58.1201 25.7457M57.4448 24.3407C57.3359 24.3407 57.227 24.3951 57.227 24.5585C57.227 24.6565 57.0745 24.809 57.0745 24.9724C57.0309 25.1793 56.922 25.2338 56.7695 25.1793C56.6061 25.0704 56.6061 25.0704 56.6061 24.9179C56.6061 24.7001 56.8675 24.6565 56.8675 24.4496C56.922 24.3407 56.9765 24.1882 57.0309 24.1882C56.7695 24.3407 56.3992 24.2317 56.3447 23.9268" stroke="black" stroke-width="0.152488"/>
<path d="M57.9133 24.4929C57.8044 24.5473 57.6955 24.3839 57.5539 24.4493C57.4994 24.4493 57.336 24.4929 57.2925 24.4493" stroke="black" stroke-width="0.152488"/>
<path d="M57.1834 24.7544C57.2378 24.8089 57.4992 24.9178 57.7607 24.8089C57.5428 24.8633 57.3903 24.6019 57.5973 24.4494M56.715 24.2316C56.4972 24.2316 56.3447 24.395 56.3992 24.5584C56.4536 24.7108 56.6606 24.7108 56.813 24.6019M56.3447 26.8457C56.3992 26.7912 56.4536 26.6932 56.4536 26.6278C56.5625 26.6278 56.6714 26.5843 56.715 26.5298C56.922 26.5298 57.0745 26.3773 57.1289 26.2248C57.2378 26.2248 57.2923 25.9634 57.3468 25.8545C57.3903 25.909 57.4992 25.8545 57.5537 25.6367C57.6626 25.702 57.8151 25.6367 57.8587 25.4842M55.7238 25.1247C55.7238 25.1792 55.6149 25.2772 55.506 25.3426C55.5605 25.4406 55.506 25.702 55.408 25.7456C55.4624 25.8545 55.408 26.007 55.3535 26.1159C55.3535 26.1704 55.408 26.3337 55.408 26.3773M55.9308 24.0791C55.8219 24.3405 55.8763 24.6564 56.0833 24.7108" stroke="black" stroke-width="0.152488"/>
<path d="M56.0398 24.9071C55.9854 25.1794 55.9854 25.5389 55.9309 25.7022C55.8765 25.8112 55.7784 26.1706 56.1923 26.2686C56.6607 26.3775 56.9221 26.3231 57.1835 25.5389M57.9677 27.5757C57.9677 27.6301 57.9133 27.739 57.8152 27.739M58.3272 27.4776C58.3272 27.5866 58.2182 27.739 58.1747 27.7826M58.6975 27.3687C58.6975 27.4776 58.6975 27.6301 58.5886 27.6846M55.517 24.1338C55.5606 24.1338 55.6259 24.2427 55.6695 24.3407C55.517 24.2318 55.3536 24.4932 55.4517 24.6566M55.3536 25.016L55.1467 25.1794M55.2012 25.4844C55.1467 25.4844 55.0922 25.5389 55.0487 25.5389M52.696 24.5477C52.696 24.4932 52.696 24.4932 52.7505 24.4388M52.2276 24.3952C52.1732 24.3952 52.1732 24.3952 52.1187 24.3407M52.2712 25.125H52.3801M52.0643 24.8091C51.9815 24.7269 51.8746 24.6735 51.7593 24.6566M54.9397 26.7479C54.5694 27.0528 54.4169 27.3143 54.3625 27.6846M55.2992 26.9984C55.2067 27.1924 55.0637 27.3579 54.8853 27.4776M53.2733 28.5668C53.0989 28.623 52.914 28.6385 52.7327 28.6121C52.5515 28.5857 52.3787 28.518 52.2276 28.4143C52.1732 28.3599 52.1187 28.3599 52.0643 28.3054M54.8308 27.848C54.7873 28.044 54.7219 28.3054 54.6239 28.3599C55.0487 28.142 55.4081 27.8371 55.4626 27.3687M51.8028 28.8282C51.9662 28.7738 52.1296 28.8827 52.2276 28.7738M60.8868 27.1073C60.9957 27.1618 61.1482 27.2162 61.2026 27.2598C61.2571 27.1509 61.464 26.9984 61.6165 26.9548M57.1835 28.2074C57.129 27.9896 57.238 27.739 57.5538 27.6301M55.1467 29.0896C55.2012 28.9807 55.2012 28.8282 55.2556 28.7302M52.8485 29.253C52.794 29.3619 52.696 29.46 52.696 29.558M52.0643 29.3511C52.0643 29.3511 52.0643 29.2966 52.1187 29.2966C52.2276 29.253 52.3801 29.1441 52.4346 29.0352M59.1658 28.6213C59.0569 28.6758 59.0134 28.6213 58.9589 28.5668M59.1114 28.8827C59.1114 28.8827 59.0678 28.9372 59.0025 28.9372M59.3728 29.1441C59.3183 29.1986 59.2639 29.253 59.2203 29.253M60.8868 29.253C60.9957 29.1986 61.0502 29.0896 61.1046 28.8827M60.2115 29.1986C60.364 29.1441 60.4729 29.0352 60.6254 28.8827M61.671 28.7738C61.671 28.6649 61.671 28.5668 61.7255 28.4688M65.5377 29.253C65.4287 29.1441 65.4287 28.9916 65.5921 28.8827C65.701 28.8282 65.7446 28.7738 65.8535 28.7302" stroke="black" stroke-width="0.152488"/>
<path d="M62.3464 27.4123C61.5186 27.0528 61.5731 26.5845 60.8869 26.6389M66.0606 29.0461C66.115 29.0897 66.0606 29.253 66.0606 29.2966M66.5289 29.0461C66.4745 29.1986 66.4745 29.253 66.4745 29.4055M62.5098 24.1338H62.0741M58.1203 25.9092C58.1203 26.0181 58.2837 26.2251 58.6976 26.2251C58.6431 26.2251 58.5887 26.1706 58.5887 26.1706M58.3272 25.2774C58.2837 25.3319 58.2183 25.2774 58.2183 25.2774C58.1203 25.1685 58.2837 24.9725 58.4362 24.8636C58.2837 24.918 58.1748 24.918 58.0658 24.918C57.9569 25.2339 57.6519 25.3864 57.445 25.1794C57.3905 25.3864 57.1291 25.6478 56.9222 25.5933C56.7043 25.4844 56.6608 25.3319 56.7043 25.1794C56.4538 25.4844 56.1379 25.2883 56.0399 25.1794C55.9855 25.0705 56.0399 24.8091 56.1488 24.4932" stroke="black" stroke-width="0.152488"/>
<path d="M61.6714 27.2598C61.5189 27.3687 61.3555 27.2598 61.203 27.4231C61.0941 27.5321 61.2575 27.5756 61.3555 27.5756C61.312 27.739 61.312 27.7935 61.5734 27.7935C61.4645 27.946 61.7803 28.0004 61.7259 28.2074C61.7915 28.1394 61.8365 28.0542 61.8558 27.9617C61.8751 27.8692 61.8678 27.7731 61.8348 27.6846C61.7803 27.5212 61.508 27.4231 61.6714 27.2598Z" fill="black"/>
<path d="M56.9222 25.5928C56.7044 25.4838 56.6608 25.3314 56.7044 25.1789C56.6608 25.2878 56.5628 25.3314 56.4539 25.3314C56.2361 25.7997 55.9855 26.2245 55.6697 26.2245C55.2993 26.2681 55.3538 26.6384 55.6152 26.6384C56.1925 26.7473 56.4539 26.5295 56.9222 25.5928ZM51.7594 24.3402C51.9119 24.1877 51.803 24.0243 51.705 23.9807C51.5416 23.9263 51.2366 23.9807 51.0732 24.2313C51.2366 24.1877 51.4 24.1877 51.4436 24.2857C51.498 24.3946 51.5961 24.5036 51.7594 24.3402ZM52.0208 23.4035C52.3803 23.4035 52.4892 23.4579 52.5328 23.6104C52.5872 23.7193 52.4892 23.8718 52.3803 23.8718C52.2278 23.8718 52.0644 23.7629 52.1189 23.7193C52.1733 23.6104 52.1733 23.4579 52.01 23.3926L52.0208 23.4035ZM53.0556 24.2313C53.317 24.2857 53.4259 24.1223 53.2734 23.9263C53.219 23.7629 53.0556 23.6649 52.7942 23.7084C53.0556 23.8718 52.7942 24.1332 53.0556 24.2313ZM51.1277 25.1244C51.1746 25.2171 51.253 25.2899 51.3489 25.3299C51.4447 25.3698 51.5517 25.3742 51.6505 25.3422C51.803 25.2769 51.8684 25.1244 51.803 25.0155C51.6941 24.863 51.5416 24.8085 51.498 25.0155C51.3891 25.2333 51.2366 25.1789 51.1277 25.1244ZM51.9119 28.3049C51.803 28.0979 51.498 28.0979 51.2366 28.3049C51.3455 28.2504 51.5416 28.3049 51.5961 28.4138C51.6505 28.5227 51.7594 28.5227 51.8139 28.5227C51.8575 28.4683 51.9664 28.4138 51.9119 28.3049ZM52.3258 27.9999C52.3258 27.7385 51.9664 27.6731 51.7594 27.7821C51.8684 27.7821 52.0208 27.891 52.0208 27.9999C52.0644 28.1088 52.1733 28.1524 52.2278 28.1524C52.3367 28.0979 52.3803 28.0435 52.3367 27.9999H52.3258ZM51.803 28.9366C51.498 28.8821 51.3347 29.2525 51.3347 29.503C51.3891 29.3505 51.5525 29.2525 51.705 29.296C51.8575 29.296 51.9119 29.2525 51.9119 29.1436C51.9664 29.0346 51.9119 28.9911 51.803 28.9257V28.9366ZM51.8575 29.8189C51.9664 29.8733 52.0753 29.7644 52.1189 29.6119C52.1189 29.503 52.3367 29.503 52.3803 29.5575C52.4892 29.6119 52.4892 29.8189 52.3258 29.9278C52.2169 29.9822 51.9664 30.0367 51.8575 29.8189ZM59.1115 28.2504C59.0026 28.2068 58.7521 28.0979 58.5452 28.2504C58.6976 28.2068 58.8066 28.3049 58.8501 28.4138C58.8501 28.5227 59.0135 28.5663 59.068 28.4683C59.1115 28.4138 59.1769 28.3049 59.1115 28.2504ZM58.6432 28.6207C58.4362 28.5118 58.1748 28.7732 58.1204 28.9911C58.2268 28.9042 58.3548 28.8478 58.4907 28.8277C58.5996 28.8821 58.6976 28.8277 58.6976 28.7188C58.7521 28.6752 58.7521 28.6207 58.6432 28.6207ZM58.9155 29.0455C58.7521 29.0455 58.5452 29.2525 58.5452 29.4594C58.5887 29.3505 58.6976 29.296 58.8066 29.3505C58.9155 29.3505 59.068 29.296 59.068 29.198C59.068 29.0891 59.0135 29.0346 58.9046 29.0346L58.9155 29.0455ZM59.3729 29.4594C59.264 29.405 59.1115 29.4594 59.1115 29.6119C59.1115 29.7644 59.1115 29.9278 59.068 29.9822C59.1769 29.8733 59.2749 29.8189 59.3729 29.7644C59.4274 29.7208 59.4819 29.5574 59.3729 29.4594ZM65.2764 28.9911C65.1675 28.8821 65.015 28.9366 64.9605 29.0346C64.9061 29.1436 64.8516 29.405 64.9605 29.6119C64.9605 29.503 65.0695 29.3505 65.1784 29.3505C65.3309 29.296 65.3744 29.0891 65.2764 28.9911ZM65.5923 29.198C65.3744 29.3069 65.3744 29.6664 65.5378 29.8733C65.5378 29.7644 65.5923 29.6119 65.6903 29.5575C65.8537 29.5575 65.9081 29.3505 65.8537 29.2525C65.7448 29.1436 65.6358 29.198 65.5923 29.198ZM66.2131 29.405C66.1042 29.3505 65.9953 29.4594 65.9953 29.5575C65.9517 29.7208 66.0606 29.9278 66.2131 30.0258C66.2131 29.9169 66.2676 29.8189 66.322 29.7644C66.4745 29.6555 66.431 29.4594 66.2131 29.405ZM66.6815 29.3505C66.5726 29.3505 66.4745 29.503 66.5726 29.6664C66.627 29.7753 66.7359 29.8189 66.9429 29.7753C66.8884 29.7753 66.7904 29.6119 66.834 29.5575C66.8884 29.4485 66.834 29.3505 66.6815 29.3505Z" fill="#073163"/>
<path d="M52.1732 39.1106L54.7873 31.0723L57.4014 39.1106L50.5503 34.1547H59.0243L52.1732 39.1106Z" fill="#F9D050"/>
<path d="M52.6959 38.3805L58.1202 34.4158H51.4434L56.8131 38.3805L54.7872 32.0195L52.6959 38.3805Z" fill="#024919"/>
<path d="M52.1732 39.1106L54.7873 31.0723L57.4014 39.1106L50.5503 34.1547H59.0243L52.1732 39.1106Z" fill="#F9D050"/>
<path d="M52.6959 38.3805L58.1202 34.4158H51.4434L56.8131 38.3805L54.7872 32.0195L52.6959 38.3805Z" fill="#024919"/>
<path d="M52.1732 39.1106L54.7873 31.0723L57.4014 39.1106L50.5503 34.1547H59.0243L52.1732 39.1106Z" fill="#F9D050"/>
<path d="M52.6959 38.3805L58.1202 34.4158H51.4434L56.8131 38.3805L54.7872 32.0195L52.6959 38.3805Z" fill="#024919"/>
<path d="M69.4478 22.7287V32.9018C69.4478 41.7243 65.2761 44.7523 59.6885 47.1485C54.1009 44.7523 49.8857 41.7243 49.8857 32.9018V22.7178H69.4478V22.7287Z" stroke="black" stroke-width="0.152488"/>
</g>
<defs>
<clipPath id="clip0_3731_51027">
<rect width="80" height="60" fill="white"/>
</clipPath>
</defs>
</svg>
