<svg width="80" height="60" viewBox="0 0 80 60" fill="none" xmlns="http://www.w3.org/2000/svg">
<g clip-path="url(#clip0_3731_51064)">
<path d="M0 0H80V60H0V0Z" fill="#DE2910"/>
<path d="M9.59995 22.2L14.9999 6L20.3998 22.2L6 12.3H23.9998L9.59995 22.2Z" fill="#FFDE00"/>
<path d="M33.0211 6.31033L27.4639 7.54185L31.1708 3.22227L30.8072 9.03585L27.7233 3.88908L33.0211 6.31033Z" fill="#FFDE00"/>
<path d="M38.6298 13.4184L33.0299 12.3982L38.1219 9.85437L35.5321 15.0719L34.6857 9.13191L38.6298 13.4184Z" fill="#FFDE00"/>
<path d="M37.8128 23.3906L33.1159 20.1752L38.8026 19.9294L34.31 23.637L35.9598 17.8683L37.8128 23.3906Z" fill="#FFDE00"/>
<path d="M30.7486 29.9049L27.6581 25.1249L32.9985 27.0945L27.4225 28.7792L31.1723 24.0953L30.7486 29.9049Z" fill="#FFDE00"/>
</g>
<defs>
<clipPath id="clip0_3731_51064">
<rect width="80" height="60" fill="white"/>
</clipPath>
</defs>
</svg>
