<svg width="83" height="60" viewBox="0 0 83 60" fill="none" xmlns="http://www.w3.org/2000/svg">
<path d="M2.78613 0H82.7861V60H2.78613V0Z" fill="#008000"/>
<path d="M42.7862 38.3371C47.3909 38.3371 51.1237 34.6043 51.1237 29.9996C51.1237 25.3949 47.3909 21.6621 42.7862 21.6621C38.1816 21.6621 34.4487 25.3949 34.4487 29.9996C34.4487 34.6043 38.1816 38.3371 42.7862 38.3371Z" fill="#FFE000"/>
<path d="M45.3859 36.8627C49.176 36.8627 52.2484 33.7902 52.2484 30.0002C52.2484 26.2101 49.176 23.1377 45.3859 23.1377C41.5959 23.1377 38.5234 26.2101 38.5234 30.0002C38.5234 33.7902 41.5959 36.8627 45.3859 36.8627Z" fill="#008000"/>
<path d="M16.5111 30.3875C21.3298 30.3875 25.2361 26.4812 25.2361 21.6625C25.2361 16.8438 21.3298 12.9375 16.5111 12.9375C11.6924 12.9375 7.78613 16.8438 7.78613 21.6625C7.78613 26.4812 11.6924 30.3875 16.5111 30.3875Z" fill="#FFE000"/>
<path d="M15.9111 28.25H18.0986C18.0986 28.25 18.1861 28.05 18.0736 27.95C17.9486 27.85 17.4861 27.825 17.6111 27.475C17.8611 26.75 17.9111 26.975 18.0736 25.25C18.1925 23.7731 18.2759 22.2935 18.3236 20.8125H17.9986C17.9986 20.8125 18.0611 21.65 17.8736 22.75C17.6986 23.85 17.6361 23.9375 17.4361 24.7875C17.3419 25.2658 17.2038 25.7345 17.0236 26.1875C16.8486 26.6875 16.8236 26.7 16.5486 27.1625C16.2611 27.6125 16.3611 27.4375 16.2111 27.7125C16.1236 27.85 16.0361 27.8125 15.9736 27.9125C15.9236 28.0125 15.9111 28.25 15.9111 28.25Z" fill="#802000" stroke="#7B3100" stroke-width="0.1875"/>
<path d="M17.5737 15.3125C17.6024 15.702 17.5513 16.0933 17.4237 16.4625C17.2505 16.8487 17.1529 17.2645 17.1362 17.6875C16.9112 17.7625 16.6737 17.2 16.4487 17.5375C16.6112 18 16.9987 18.3625 17.2487 18.775C17.2987 18.9 17.6737 19.2375 17.4487 19.3125C16.9112 19.125 16.7737 18.4375 16.4487 18.025C16.2585 17.6692 15.9808 17.3678 15.6418 17.1491C15.3029 16.9304 14.9138 16.8017 14.5112 16.775C14.1987 16.7875 13.2112 16.7125 13.4612 17.2375C13.8362 17.4875 14.3112 17.6625 14.6862 17.95C14.9737 17.975 15.4737 18.45 15.4487 18.625C14.9487 18.425 14.7237 18.1875 14.1987 17.975C13.4737 17.7 12.4862 17.8625 12.0737 18.575C12.0112 18.7625 11.8987 19.3 12.1362 19.3625C12.4112 18.9375 12.7987 18.45 13.3737 18.5875C13.8237 18.625 12.8737 19.425 13.2362 19.2625C13.3612 19.2125 13.6112 19.0375 13.8112 19.0125C13.9987 19.0125 14.0987 19.1375 14.2362 19.1625C14.5237 19.2 14.6112 19.3125 14.5737 19.3875C14.5487 19.4625 14.4487 19.3875 14.1612 19.4875C14.0237 19.5375 13.9487 19.6625 13.7862 19.725C13.6112 19.775 13.2612 19.7875 13.1362 19.725C12.6737 19.5375 11.9237 19.5625 11.7862 20.1375C11.7862 20.3875 11.5612 20.1125 11.4612 20.225C11.3737 20.5 11.3612 20.775 10.9612 20.75C10.7112 21 10.4612 21.275 10.1362 21.4625C10.3237 21.8875 11.0487 21.0375 11.0112 21.4C10.6987 21.8375 11.1862 21.925 11.3862 21.5875C11.7487 21.2125 12.1987 20.75 12.7237 21.1375C12.9737 21.375 13.1237 21.0125 13.3112 21.0125C13.4362 21.325 13.5737 21.0375 13.7112 20.95C13.9237 20.925 13.8612 21.225 14.1112 21.0375C14.6237 20.7 15.2487 20.9875 15.7487 20.6625C16.2862 20.4125 15.8237 20.85 15.6862 21.025C15.4487 21.475 15.6487 22.075 15.1487 22.35C14.9362 22.8875 15.3862 23.6 14.9362 24C14.8737 24.25 15.5112 24.225 15.6862 24.325C16.0112 24.325 15.6862 23.6 15.9987 23.5C16.4237 23.75 16.3987 23.025 16.3112 22.8C16.3612 22.3 16.3862 21.725 16.6362 21.2625C16.9112 20.7 17.1612 21.5 16.8612 21.725C16.6862 22.2375 16.4362 22.9 16.8237 23.3875C16.9487 23.4125 17.0362 23.6875 17.1737 23.7625C17.3237 23.85 17.5237 23.75 17.5487 23.5C17.7487 22.75 17.6487 21.95 17.9237 21.2125C18.1112 20.9875 18.3737 21.175 18.4862 21.3875C18.8612 21.825 19.1237 22.3625 19.5737 22.725C19.9997 22.8992 20.3467 23.224 20.5487 23.6375C20.5487 23.9625 21.4737 24.0125 21.1987 23.6375C20.9362 23.3 21.1112 22.9375 21.3737 22.7C21.5237 22.7375 21.4862 22.475 21.3737 22.575C21.1862 22.5375 21.1737 22.2 21.4237 22.3625C21.8612 22.5 21.3987 22.05 21.2362 22.0375C20.8737 21.8125 20.4612 21.5625 20.2862 21.1625C20.7612 21.1625 21.2487 21.425 21.7237 21.275C22.1112 21.075 22.4987 21.275 22.6362 21.625C22.9362 21.575 22.8112 21.275 22.6362 21.175C22.8487 21.0875 23.0112 20.9 22.7362 20.7375C22.6112 20.5625 22.9237 20.2375 22.5237 20.2625C22.5362 19.95 22.4237 19.675 22.0862 19.5625C21.7487 19.2875 20.7612 19.9875 20.7987 19.35C20.6987 19 21.1987 19.3 21.3362 19.125C21.4737 18.75 20.6487 18.8 20.9237 18.5C21.0987 18.4 21.9362 18.2375 21.2862 18.1125C21.1393 18.1556 20.9846 18.1656 20.8333 18.1418C20.682 18.118 20.5379 18.0611 20.4112 17.975C20.1737 18.3625 19.5112 17.75 19.6237 18.45C19.5362 18.7125 18.9362 19.4 18.7737 18.875C18.8987 18.4625 19.6237 18.3375 19.3987 17.775C19.3612 17.4375 19.0737 17.8375 18.9487 17.8125C18.8737 17.6 19.1487 17.3375 19.3487 17.2875C19.7237 17.5875 19.7237 16.9125 20.0987 16.975C20.3612 16.9125 20.0112 16.8 19.9362 16.75C20.0112 16.5625 20.4237 16.4625 20.0237 16.2875C19.6612 16.0375 19.3987 16.55 19.1112 16.575C18.8362 16.2625 19.3612 16.1125 19.5112 15.95C19.5237 15.825 19.2112 15.9125 19.2987 15.8C19.3862 15.6625 19.9487 15.65 19.6737 15.425C19.2534 15.2967 18.8011 15.3233 18.3987 15.5C18.1487 15.575 18.0862 16.125 17.8737 16.1C17.7862 15.85 17.9112 15.375 17.5737 15.3125ZM19.4487 20.6C19.7487 20.55 19.4487 21.0625 19.3237 21.05C19.3237 20.875 18.8737 20.8875 19.1612 20.725C19.2491 20.6671 19.3464 20.6248 19.4487 20.6Z" fill="#008000"/>
<path d="M2.78606 7.14258L3.33693 8.85549L5.01968 8.21811L4.02431 9.7175L5.57212 10.6359L3.77825 10.7922L4.02511 12.575L2.78606 11.2701L1.54623 12.5742L1.79308 10.7922L0 10.6351L1.54781 9.71671L0.551656 8.21732L2.23441 8.8547L2.78606 7.14258Z" fill="#FFE000"/>
<path d="M2.78606 7.14258L3.33693 8.85549L5.01968 8.21811L4.02431 9.7175L5.57212 10.6359L3.77825 10.7922L4.02511 12.575L2.78606 11.2701L1.54623 12.5742L1.79308 10.7922L0 10.6351L1.54781 9.71671L0.551656 8.21732L2.23441 8.8547L2.78606 7.14258Z" fill="#FFE000"/>
<path d="M2.78606 7.14258L3.33693 8.85549L5.01968 8.21811L4.02431 9.7175L5.57212 10.6359L3.77825 10.7922L4.02511 12.575L2.78606 11.2701L1.54623 12.5742L1.79308 10.7922L0 10.6351L1.54781 9.71671L0.551656 8.21732L2.23441 8.8547L2.78606 7.14258Z" fill="#FFE000"/>
<path d="M2.78606 7.14258L3.33693 8.85549L5.01968 8.21811L4.02431 9.7175L5.57212 10.6359L3.77825 10.7922L4.02511 12.575L2.78606 11.2701L1.54623 12.5742L1.79308 10.7922L0 10.6351L1.54781 9.71671L0.551656 8.21732L2.23441 8.8547L2.78606 7.14258Z" fill="#FFE000"/>
<path d="M2.78611 8.33301L3.22188 9.4006L4.37123 9.48474L3.49016 10.2293L3.7656 11.3485L2.78611 10.7405L1.80662 11.3493L2.08126 10.2301L1.2002 9.48553L2.35113 9.4014L2.78611 8.33301Z" fill="#FFE000"/>
</svg>
