<svg width="80" height="60" viewBox="0 0 80 60" fill="none" xmlns="http://www.w3.org/2000/svg">
<g clip-path="url(#clip0_3731_53413)">
<path d="M0 0H80V60H0V0Z" fill="#000066"/>
<path fill-rule="evenodd" clip-rule="evenodd" d="M58.9498 26.625L59.5998 24.5375L57.8498 23.2125L60.0498 23.1875L60.7998 21.125L61.4998 23.1875L63.7123 23.25L61.9498 24.5625L62.5748 26.65L60.7623 25.4M64.1498 27.025L65.4498 25.2875L64.2373 23.4375L66.3248 24.1625L67.6998 22.475V24.675L69.7498 25.475L67.6498 26.1L67.5498 28.2875L66.2748 26.4875M53.9748 28.3625L53.8873 26.175L51.7873 25.525L53.8748 24.75V22.575L55.2373 24.2625L57.3373 23.5625L56.1123 25.4L57.3998 27.15L55.2748 26.5875M50.3248 31.7L49.3998 29.725L47.2248 29.95L48.8248 28.4125L47.9998 26.375L49.8998 27.4L51.5623 25.925L51.1373 28.1L52.9998 29.2125L50.8373 29.525M48.6248 36.475L46.9623 35.0875L45.0873 36.2375L45.8873 34.15L44.2748 32.7L46.4373 32.7875L47.3123 30.7375L47.8498 32.8875L49.9998 33.075L48.1748 34.3M48.5748 41.85L46.5123 41.25L45.2498 43.0625L45.1623 40.825L43.1123 40.1375L45.1248 39.3625V37.1125L46.4623 38.875L48.5123 38.175L47.3123 40.05M50.9998 46.4L48.8748 46.7L48.4373 48.875L47.4623 46.875L45.3248 47.075L46.8498 45.5375L45.9623 43.4875L47.8748 44.55L49.4748 43.075L49.1248 45.25M54.7498 50L52.8623 51.025L53.1873 53.225L51.5998 51.675L49.6498 52.625L50.5623 50.6375L49.0248 49.025L51.1873 49.35L52.1873 47.4125L52.6123 49.5875M59.3373 50.7125L58.2998 52.625L59.7623 54.275L57.5873 53.8625L56.4748 55.7375L56.1748 53.575L54.0248 53.075L55.9998 52.15L55.7873 49.9625L57.3123 51.5625M64.4873 49.925L64.4248 52.1L66.4623 52.9L64.3373 53.525L64.1873 55.7125L62.9373 53.925L60.8123 54.475L62.1623 52.7375L60.9873 50.9L63.0623 51.6125M69.8748 26.225L71.3748 27.8L73.3623 26.875L72.3248 28.85L73.7623 30.4875L71.6373 30.1375L70.5123 32.075L70.2498 29.875L68.1248 29.4375L70.0873 28.4375M74.3623 31.0625L75.0498 33.1375L77.2373 33.175L75.4623 34.5125L76.0498 36.6125L74.2873 35.3625L72.4623 36.625L73.1373 34.525L71.4123 33.2L73.6123 33.15M76.0498 37.3L75.7998 39.475L77.7623 40.4375L75.5998 40.8875L75.2623 43.05L74.1748 41.1625L71.9998 41.525L73.4998 39.9L72.4873 37.9625L74.4873 38.8625M74.8623 43.8375L73.8873 45.7875L75.3748 47.375L73.1998 47.0375L72.1498 48.95L71.7748 46.7875L69.5998 46.375L71.5498 45.375L71.2623 43.2L72.8373 44.7375M71.6123 49.625L69.7748 50.775L70.2498 52.9375L68.5623 51.5L66.6873 52.575L67.4748 50.5375L65.8373 49.025L68.0123 49.2125L68.8873 47.2125L69.4373 49.3625" fill="white"/>
<path d="M0 0H40V30H0V0Z" fill="#000066"/>
<path d="M4.6875 0L19.9375 11.3125L35.125 0H40V3.875L25 15.0625L40 26.1875V30H35L20 18.8125L5.0625 30H0V26.25L14.9375 15.125L0 4V0H4.6875Z" fill="white"/>
<path d="M26.5 17.5625L40 27.5V30L23.0625 17.5625H26.5ZM15 18.8125L15.375 21L3.375 30H0L15 18.8125ZM40 0V0.1875L24.4375 11.9375L24.5625 9.1875L36.875 0H40ZM0 0L14.9375 11H11.1875L0 2.625V0Z" fill="#C8102E"/>
<path d="M15.0625 0V30H25.0625V0H15.0625ZM0 10V20H40V10H0Z" fill="white"/>
<path d="M0 12.0625V18.0625H40V12.0625H0ZM17.0625 0V30H23.0625V0H17.0625Z" fill="#C8102E"/>
</g>
<defs>
<clipPath id="clip0_3731_53413">
<rect width="80" height="60" fill="white"/>
</clipPath>
</defs>
</svg>
