<svg width="80" height="60" viewBox="0 0 80 60" fill="none" xmlns="http://www.w3.org/2000/svg">
<g clip-path="url(#clip0_3731_53551)">
<path d="M0 0H80V60H0V0Z" fill="white"/>
<path d="M38.4749 49.8255C38.4651 49.8187 38.4567 49.8102 38.4499 49.8005H38.4374L38.2749 49.6255L37.7999 49.063L37.1874 48.2755L37.1124 48.163L36.3374 47.9255L35.7624 47.663L36.0624 47.3255L37.1124 47.763L37.8874 47.9255L39.3249 48.988L38.9124 49.3505C38.7656 49.4872 38.6278 49.6334 38.4999 49.788L38.5874 49.7255L38.6874 49.8005L38.4874 49.8255H38.4749ZM33.1499 48.2255C32.4451 48.2192 31.7547 48.025 31.1499 47.663C31.1499 47.663 31.2374 47.5005 31.4374 47.363C31.6374 47.213 31.9874 47.0505 32.5624 47.038C33.2374 47.038 34.0624 47.2755 34.9999 47.713C34.4397 48.0437 33.8004 48.2165 33.1499 48.213V48.2255ZM30.2124 47.5755C30.0874 47.5755 29.9624 47.5255 29.8874 47.4505C29.8165 47.364 29.7691 47.2606 29.7499 47.1505C29.7167 47.0114 29.704 46.8682 29.7124 46.7255C29.7645 46.7069 29.8196 46.6984 29.8749 46.7005C30.1249 46.7005 30.3249 46.913 30.4124 47.1255C30.4624 47.2505 30.4749 47.3505 30.4374 47.438C30.4124 47.513 30.3124 47.563 30.2124 47.563V47.5755ZM35.3749 46.9755C33.6374 46.7255 32.8999 46.1005 32.5874 45.613C32.2624 45.1005 32.3374 44.613 32.3374 44.613C32.3374 44.613 32.4374 44.588 32.5874 44.588C33.0624 44.588 34.2374 44.8255 35.3749 46.963V46.9755ZM31.8124 46.6255C31.0749 46.6255 30.5124 46.5005 30.1374 46.2505C29.9771 46.1497 29.8474 46.0071 29.7624 45.838C29.7356 45.7742 29.7187 45.7068 29.7124 45.638C29.9974 45.5191 30.3036 45.4596 30.6124 45.463C31.0585 45.479 31.4971 45.5833 31.9026 45.77C32.3081 45.9567 32.6726 46.2219 32.9749 46.5505C32.5499 46.6005 32.1624 46.6255 31.8124 46.6255ZM28.2249 46.5005C27.4499 46.5005 26.3749 46.2505 25.6999 45.588C25.6999 45.588 26.4374 45.4005 27.2499 45.3755H27.3999C28.1374 45.3755 28.6999 45.513 29.0749 45.8005C29.1999 45.9005 29.2749 45.988 29.2874 46.0755C29.2999 46.1505 29.2624 46.2255 29.1874 46.288C29.0124 46.413 28.7124 46.488 28.2874 46.488H28.2249V46.5005ZM25.6874 45.188C25.639 45.187 25.5915 45.1753 25.5483 45.1537C25.505 45.1321 25.4671 45.1011 25.4374 45.063C25.3851 44.9885 25.3509 44.9029 25.3374 44.813C25.2999 44.638 25.3124 44.463 25.3124 44.4505C25.3518 44.4333 25.3944 44.4247 25.4374 44.4255C25.5499 44.4255 25.6374 44.488 25.6874 44.5505C25.7634 44.6199 25.8231 44.7053 25.8624 44.8005C25.8874 44.913 25.8999 45.0005 25.8624 45.0755C25.8624 45.1255 25.7874 45.2005 25.6999 45.2005L25.6874 45.188ZM31.5499 45.063C31.4249 45.063 31.2999 45.013 31.2249 44.938C31.154 44.8514 31.1066 44.7481 31.0874 44.638C31.0542 44.4989 31.0415 44.3557 31.0499 44.213C31.102 44.1944 31.1571 44.1859 31.2124 44.188C31.4624 44.188 31.6749 44.4005 31.7499 44.613C31.7999 44.738 31.8124 44.838 31.7874 44.9255C31.7499 45.0005 31.6624 45.0505 31.5374 45.0505L31.5499 45.063ZM28.6999 44.938C27.1249 44.888 26.2999 44.438 25.8999 44.063C25.7255 43.9122 25.5813 43.7299 25.4749 43.5255C25.4124 43.4005 25.3874 43.3005 25.3874 43.2755C25.3874 43.2505 25.5374 43.2255 25.7624 43.2255H25.8124C26.3374 43.2255 27.4249 43.4505 28.6874 44.938H28.6999ZM30.3999 44.788C29.5002 44.6902 28.6638 44.2786 28.0374 43.6255C27.8068 43.3732 27.6321 43.075 27.5249 42.7505C27.5249 42.7505 27.6749 42.713 27.8999 42.7005C27.9415 42.699 27.9832 42.699 28.0249 42.7005C28.6499 42.713 29.8124 43.0005 30.3999 44.788ZM23.8999 44.163C23.5006 44.1666 23.1022 44.1246 22.7124 44.038C22.0499 43.863 21.7624 43.613 21.6374 43.4255C21.5863 43.3504 21.5522 43.2651 21.5374 43.1755C21.5334 43.1422 21.5334 43.1087 21.5374 43.0755C21.5374 43.0755 21.9749 42.9505 22.5874 42.938C22.8975 42.9301 23.2076 42.9552 23.5124 43.013C24.15 43.1473 24.718 43.5067 25.1124 44.0255C25.1124 44.0255 24.6124 44.1755 23.8999 44.1755V44.163ZM26.8374 43.113C26.7795 43.1145 26.722 43.1042 26.6682 43.0827C26.6145 43.0612 26.5657 43.029 26.5249 42.988C26.454 42.9014 26.4066 42.7981 26.3874 42.688C26.3374 42.488 26.3499 42.288 26.3499 42.263C26.3973 42.2417 26.4481 42.2289 26.4999 42.2255H26.5124C26.7624 42.2255 26.9624 42.4505 27.0499 42.663C27.0999 42.788 27.0999 42.888 27.0749 42.963C27.0374 43.0505 26.9499 43.1005 26.8374 43.1005V43.113ZM24.6374 42.8005C24.2154 42.6808 23.8117 42.5042 23.4374 42.2755C22.8874 41.938 22.1999 41.338 22.1249 40.4005L22.2499 40.388H22.2874C22.4499 40.388 22.7874 40.4255 23.1999 40.738C23.7249 41.138 24.1999 41.838 24.6374 42.8005ZM26.0749 42.7505C25.7302 42.5935 25.4101 42.3872 25.1249 42.138C24.3933 41.5065 23.8233 40.7094 23.4624 39.813C23.4624 39.813 23.5749 39.7505 23.7499 39.738C23.7582 39.7377 23.7665 39.7377 23.7749 39.738H23.8249C24.0749 39.738 24.4374 39.8505 24.8374 40.288C25.3124 40.788 25.7249 41.613 26.0874 42.7505H26.0749ZM22.3374 42.638C21.8499 42.638 21.6874 42.388 21.6374 42.263C21.5889 42.1443 21.5717 42.0152 21.5874 41.888C21.6694 41.8698 21.7534 41.8614 21.8374 41.863C21.9926 41.8581 22.1469 41.8894 22.2879 41.9545C22.4289 42.0196 22.5529 42.1166 22.6499 42.238C22.6749 42.288 22.7499 42.413 22.6874 42.5255C22.6374 42.6005 22.5249 42.6505 22.3374 42.6505V42.638ZM21.2749 41.288C20.898 41.292 20.5216 41.2628 20.1499 41.2005C19.7249 41.1255 19.4874 40.763 19.3499 40.463C19.2249 40.1505 19.1749 39.838 19.1749 39.838C20.4999 39.8755 21.1374 40.263 21.4249 40.588C21.6064 40.7748 21.7207 41.0166 21.7499 41.2755C21.7499 41.2755 21.5499 41.3005 21.2749 41.3005V41.288ZM22.6499 39.913C22.543 39.7762 22.4429 39.6344 22.3499 39.488C22.1874 39.238 22.0499 38.988 22.0499 38.788C22.0499 38.5755 21.9999 38.163 21.9749 37.913L21.8999 37.3505C21.9374 37.3505 22.7249 37.6505 22.7249 38.4005C22.7249 39.1505 22.6499 39.9005 22.6499 39.9005V39.913ZM21.6249 39.838H21.5999C20.7424 39.5812 19.9612 39.1176 19.3249 38.488C19.1124 38.238 18.9749 37.838 18.9374 37.313C18.9124 36.938 18.9374 36.6255 18.9374 36.588C18.9822 36.5761 19.0287 36.5719 19.0749 36.5755C19.2499 36.5755 19.4499 36.6505 19.6999 36.8255C19.9319 36.9898 20.1494 37.1738 20.3499 37.3755C20.7499 37.7755 21.0624 38.1755 21.0624 38.1755C21.0999 38.2255 21.3124 38.638 21.4999 39.038C21.5876 39.2216 21.6547 39.4145 21.6999 39.613C21.7124 39.688 21.7249 39.738 21.6999 39.788C21.694 39.8087 21.6806 39.8265 21.6624 39.838C21.6459 39.8417 21.6288 39.8417 21.6124 39.838H21.6249Z" fill="#435125"/>
<path d="M35.7375 49.8255C35.7473 49.8187 35.7557 49.8102 35.7625 49.8005H35.775L35.9375 49.6255L36.4125 49.063L37.025 48.2755L37.1 48.163L37.875 47.9255L38.45 47.663L38.15 47.3255L37.1 47.763L36.325 47.9255L34.8875 48.988L35.3 49.3505C35.4468 49.4872 35.5846 49.6334 35.7125 49.788L35.625 49.7255L35.525 49.8005L35.725 49.8255H35.7375ZM41.0625 48.2255C41.7674 48.2192 42.4578 48.025 43.0625 47.663C43.0625 47.663 42.975 47.5005 42.775 47.363C42.575 47.213 42.225 47.0505 41.65 47.038C40.975 47.038 40.15 47.2755 39.2125 47.713C39.7727 48.0437 40.412 48.2165 41.0625 48.213V48.2255ZM44 47.5755C44.125 47.5755 44.25 47.5255 44.325 47.4505C44.3959 47.364 44.4433 47.2606 44.4625 47.1505C44.4957 47.0114 44.5084 46.8682 44.5 46.7255C44.4479 46.7069 44.3928 46.6984 44.3375 46.7005C44.0875 46.7005 43.8875 46.913 43.8 47.1255C43.75 47.2505 43.7375 47.3505 43.775 47.438C43.8 47.513 43.9 47.563 44 47.563V47.5755ZM38.8375 46.9755C40.575 46.7255 41.3125 46.1005 41.625 45.613C41.95 45.1005 41.875 44.613 41.875 44.613C41.875 44.613 41.775 44.588 41.625 44.588C41.15 44.588 39.975 44.8255 38.8375 46.963V46.9755ZM42.4 46.6255C43.1375 46.6255 43.7 46.5005 44.075 46.2505C44.2353 46.1497 44.365 46.0071 44.45 45.838C44.4768 45.7742 44.4937 45.7068 44.5 45.638C44.215 45.5191 43.9088 45.4596 43.6 45.463C43.1539 45.479 42.7153 45.5833 42.3098 45.77C41.9043 45.9567 41.5398 46.2219 41.2375 46.5505C41.6625 46.6005 42.05 46.6255 42.4 46.6255ZM45.9875 46.5005C46.7625 46.5005 47.8375 46.2505 48.5125 45.588C48.5125 45.588 47.775 45.4005 46.9625 45.3755H46.8125C46.075 45.3755 45.5125 45.513 45.1375 45.8005C45.0125 45.9005 44.9375 45.988 44.925 46.0755C44.9125 46.1505 44.95 46.2255 45.025 46.288C45.2 46.413 45.5 46.488 45.925 46.488H45.9875V46.5005ZM48.525 45.188C48.5734 45.187 48.6209 45.1753 48.6641 45.1537C48.7074 45.1321 48.7453 45.1011 48.775 45.063C48.8273 44.9885 48.8615 44.9029 48.875 44.813C48.9125 44.638 48.9 44.463 48.9 44.4505C48.8606 44.4333 48.818 44.4247 48.775 44.4255C48.6625 44.4255 48.575 44.488 48.525 44.5505C48.449 44.6199 48.3893 44.7053 48.35 44.8005C48.325 44.913 48.3125 45.0005 48.35 45.0755C48.35 45.1255 48.425 45.2005 48.5125 45.2005L48.525 45.188ZM42.6625 45.063C42.7875 45.063 42.9125 45.013 42.9875 44.938C43.0584 44.8514 43.1058 44.7481 43.125 44.638C43.1582 44.4989 43.1709 44.3557 43.1625 44.213C43.1104 44.1944 43.0553 44.1859 43 44.188C42.75 44.188 42.5375 44.4005 42.4625 44.613C42.4125 44.738 42.4 44.838 42.425 44.9255C42.4625 45.0005 42.55 45.0505 42.675 45.0505L42.6625 45.063ZM45.5125 44.938C47.0875 44.888 47.9125 44.438 48.3125 44.063C48.4869 43.9122 48.6311 43.7299 48.7375 43.5255C48.8 43.4005 48.825 43.3005 48.825 43.2755C48.825 43.2505 48.675 43.2255 48.45 43.2255H48.4C47.875 43.2255 46.7875 43.4505 45.525 44.938H45.5125ZM43.8125 44.788C44.7122 44.6902 45.5486 44.2786 46.175 43.6255C46.4056 43.3732 46.5803 43.075 46.6875 42.7505C46.6875 42.7505 46.5375 42.713 46.3125 42.7005C46.2709 42.699 46.2292 42.699 46.1875 42.7005C45.5625 42.713 44.4 43.0005 43.8125 44.788ZM50.3125 44.163C50.7118 44.1666 51.1102 44.1246 51.5 44.038C52.1625 43.863 52.45 43.613 52.575 43.4255C52.6261 43.3504 52.6602 43.2651 52.675 43.1755C52.679 43.1422 52.679 43.1087 52.675 43.0755C52.675 43.0755 52.2375 42.9505 51.625 42.938C51.3149 42.9301 51.0048 42.9552 50.7 43.013C50.0624 43.1473 49.4944 43.5067 49.1 44.0255C49.1 44.0255 49.6 44.1755 50.3125 44.1755V44.163ZM47.375 43.113C47.4329 43.1145 47.4904 43.1042 47.5442 43.0827C47.5979 43.0612 47.6467 43.029 47.6875 42.988C47.7584 42.9014 47.8058 42.7981 47.825 42.688C47.875 42.488 47.8625 42.288 47.8625 42.263C47.8151 42.2417 47.7644 42.2289 47.7125 42.2255H47.7C47.45 42.2255 47.25 42.4505 47.1625 42.663C47.1125 42.788 47.1125 42.888 47.1375 42.963C47.175 43.0505 47.2625 43.1005 47.375 43.1005V43.113ZM49.575 42.8005C49.997 42.6808 50.4007 42.5042 50.775 42.2755C51.325 41.938 52.0125 41.338 52.0875 40.4005L51.9625 40.388H51.925C51.7625 40.388 51.425 40.4255 51.0125 40.738C50.4875 41.138 50.0125 41.838 49.575 42.8005ZM48.1375 42.7505C48.4823 42.5935 48.8023 42.3872 49.0875 42.138C49.8191 41.5065 50.3891 40.7094 50.75 39.813C50.75 39.813 50.6375 39.7505 50.4625 39.738C50.4542 39.7377 50.4459 39.7377 50.4375 39.738H50.3875C50.1375 39.738 49.775 39.8505 49.375 40.288C48.9 40.788 48.4875 41.613 48.125 42.7505H48.1375ZM51.875 42.638C52.3625 42.638 52.525 42.388 52.575 42.263C52.6235 42.1443 52.6407 42.0152 52.625 41.888C52.543 41.8698 52.4591 41.8614 52.375 41.863C52.2198 41.8581 52.0655 41.8894 51.9245 41.9545C51.7835 42.0196 51.6595 42.1166 51.5625 42.238C51.5375 42.288 51.4625 42.413 51.525 42.5255C51.575 42.6005 51.6875 42.6505 51.875 42.6505V42.638ZM52.9375 41.288C53.3144 41.292 53.6908 41.2628 54.0625 41.2005C54.4875 41.1255 54.725 40.763 54.8625 40.463C54.9875 40.1505 55.0375 39.838 55.0375 39.838C53.7125 39.8755 53.075 40.263 52.7875 40.588C52.606 40.7748 52.4917 41.0166 52.4625 41.2755C52.4625 41.2755 52.6625 41.3005 52.9375 41.3005V41.288ZM51.5625 39.913C51.6694 39.7762 51.7695 39.6344 51.8625 39.488C52.025 39.238 52.1625 38.988 52.1625 38.788C52.1625 38.5755 52.2125 38.163 52.2375 37.913L52.3125 37.3505C52.275 37.3505 51.4875 37.6505 51.4875 38.4005C51.4875 39.1505 51.5625 39.9005 51.5625 39.9005V39.913ZM52.5875 39.838H52.6125C53.47 39.5812 54.2513 39.1176 54.8875 38.488C55.1 38.238 55.2375 37.838 55.275 37.313C55.3 36.938 55.275 36.6255 55.275 36.588C55.2302 36.5761 55.1837 36.5719 55.1375 36.5755C54.9625 36.5755 54.7625 36.6505 54.5125 36.8255C54.2805 36.9898 54.063 37.1738 53.8625 37.3755C53.4625 37.7755 53.15 38.1755 53.15 38.1755C53.1125 38.2255 52.9 38.638 52.7125 39.038C52.6248 39.2216 52.5577 39.4145 52.5125 39.613C52.5 39.688 52.4875 39.738 52.5125 39.788C52.5184 39.8087 52.5318 39.8265 52.55 39.838C52.5665 39.8417 52.5836 39.8417 52.6 39.838H52.5875Z" fill="#435125"/>
<path d="M64.8751 9.5498L64.6501 9.6373L64.5501 9.6748L64.2751 9.6623L64.0001 9.7873L63.5251 10.1123L63.5126 10.1248L63.3251 10.1748L63.1626 10.0998L63.0751 10.1498L63.0376 10.3373L62.9501 10.4748L62.8376 10.5498L62.4626 10.5873L62.1501 10.7623L61.7251 10.6373L61.5376 10.7248L61.1251 11.0998L60.9126 11.1873H60.8501L60.5626 11.1748L60.4501 11.2123L60.2751 11.3748L59.9501 11.3998L59.8376 11.4748L59.6751 11.7998L59.5001 11.9998L59.4001 12.0123L59.3001 11.9748L59.2126 11.9873L59.1751 12.1998L59.1001 12.2873L58.8751 12.3623L58.7001 12.5123L58.5376 12.5873H58.2876L58.0751 12.7123L57.6876 12.7373L57.5251 12.8873L57.4876 12.9248L57.4126 12.9623L57.2876 13.0373L57.2626 13.0623L57.1126 13.0373L56.9376 13.0998L56.8626 12.9998L56.7376 13.0623L56.5876 13.0748L56.3876 12.9873L56.2251 12.9123L56.1126 12.9373L56.0751 13.1248V13.1498L55.9501 13.2998L55.7376 13.4373L55.7126 13.4748L55.4626 13.7998L54.9876 14.2998L54.5876 14.4998L54.1751 14.6248L53.8876 14.8623L53.1376 15.2373L51.9251 15.8373L51.6751 15.9123L51.3251 15.9623L50.7001 16.1998L50.1501 16.3623L50.1126 16.3748L50.0126 16.4123L49.2251 16.6498L48.8626 16.5998L48.6501 16.6873L48.0876 16.6248H47.7001L47.4501 16.6748L46.9876 16.8998L46.2001 17.2748L45.9501 17.5248L45.5501 17.7248L45.0751 17.8748V17.6748L44.9126 17.7248L44.7876 17.7623L44.4126 17.8123H44.2001L44.0626 17.7748H44.0376L43.2626 18.0373L42.3876 18.1248L41.9501 18.2623H41.6251L41.4251 18.3248L41.0251 18.3748L40.8751 18.3373L40.8501 18.3248L39.6751 18.3748L39.1376 18.3123L38.8876 18.3748L38.4501 18.2248L37.8251 18.1498L37.6751 18.1123L37.3501 18.0123L37.2001 18.0998L37.0751 18.1123L36.8251 18.0123H36.7251L36.5001 18.0873L36.3751 18.0623L36.2501 17.9623L35.9876 17.9248L35.8126 17.7873L34.8751 17.9123L34.6251 17.8373L33.7626 17.5873H33.6376L33.4626 17.7123L33.2126 17.8123L32.9751 17.8623L32.6751 17.8748L32.3251 17.7873L31.9751 17.6123L31.8376 17.5748L31.5376 17.6123H31.4501L30.9001 17.3248L30.2001 16.8873L29.7251 16.6498L29.5376 16.6248L29.5126 16.7123L29.6001 16.9873L29.6376 17.2748V17.5248L29.6251 17.6873L29.6626 17.8248L29.8376 18.0248L29.9126 18.2123L29.9626 18.7373V19.2748L29.8751 20.1248L29.8501 20.2498L29.7501 20.6998L29.6626 21.1123L29.3001 22.1998L29.2126 22.3248L28.9626 22.4873L28.4251 22.8623L28.0251 23.0873L27.9001 23.1373L27.5751 23.1623H27.3751L27.1251 23.0248L26.8751 22.9623L26.5501 22.7248L26.2001 22.6498L25.8001 22.4248L25.7001 22.2998L25.4876 22.2748L25.1876 22.1873L25.0751 22.1498L25.0001 22.1373L24.6251 22.1248L24.2626 21.9623L24.0751 21.9123H23.8251L23.5626 22.0373L23.4251 22.0873L23.2501 22.0248H23.1251L23.0001 22.2373L22.9751 22.2748L22.8751 22.3248H22.6626L22.5626 22.3623L22.4251 22.4248L22.3001 22.4748L22.2376 22.4998H22.2001L22.1376 22.5248H22.0626L21.9126 22.4498L21.8376 22.4123L21.7126 22.3873L21.6501 22.4248L21.6376 22.6623L21.5751 22.7998L21.3751 22.9748L21.1751 23.1498L21.0501 23.3498L20.6751 24.1873L20.4376 24.5248L20.3751 24.6123L20.1251 24.8748L19.9126 25.0373L19.4251 25.4123L18.9626 25.5998L18.5626 25.6748H18.3626L17.9876 25.6248L17.6626 25.5248L17.2876 25.2998L16.9001 24.9748L16.3126 24.4123L16.2376 24.3623L16.2126 24.3498L16.0376 24.2248H15.9001L15.8501 24.3248L15.8126 24.4498L15.7876 24.5623L15.7251 25.1873V25.2248L15.7626 25.4873L16.2126 26.1123L16.3376 26.4373L16.3626 26.4748L16.4501 26.6248L16.5251 26.7498L16.6876 27.1998L16.5751 27.4498L16.6251 27.6248L16.5001 27.7248L16.4751 27.8748L16.8626 28.3748L16.9501 28.5873L16.8626 28.8873L16.7001 29.0623L16.6626 29.0998L16.6876 29.2248L16.8626 29.3998L17.1751 29.6748L17.3376 30.0748L17.4626 30.1998L17.6126 30.1623L17.6876 30.2248H17.8126L17.9376 30.3498L18.0126 30.3748L18.1376 30.4373L18.2376 30.5623L18.2501 30.9623L18.4376 31.4373V31.7498L18.5626 31.9373L18.5876 32.0873L18.5251 32.4998L18.6751 32.6248L18.8251 32.5998L18.9251 32.6123L19.0876 32.7498L19.2876 33.0498L19.4876 33.0248L19.6126 33.0748L20.2001 33.6123L20.3251 33.6873L20.4376 33.7373L20.5626 33.8623L20.7376 33.7373H20.7626L20.9626 33.7123L21.0501 33.7748L21.2251 33.8873H21.4376L21.9376 34.0373L22.1376 34.0873L22.5626 34.3498L22.7501 34.4623L22.8501 34.5498L23.0001 34.6748L23.2751 34.7998L23.5251 34.8498L23.6501 34.8748L23.7626 34.9123L24.2876 35.1248L24.5751 35.1873L24.8251 35.2873L25.0251 35.3498H25.1751L25.3751 35.1873H25.5626L25.7251 35.2123L25.8876 35.1873L26.1376 35.0373L26.1751 34.9623L26.3501 34.8873L26.9501 34.8123L27.1251 34.8623L27.5751 34.6748L27.8751 34.7498L28.1251 34.6623L28.7126 34.7873L28.8626 34.8998L29.0376 35.0873H29.2501L29.1626 35.2248L29.4126 35.4998L29.6501 35.8373L29.6626 35.8873L29.8251 36.3748L29.9501 36.5498L30.0376 36.7873V36.9373L29.9126 37.0498L29.8876 37.0998V37.1248L29.9126 37.1873L29.9626 37.1623L30.0501 37.1123L30.1751 37.0873L30.3751 37.1123L30.5126 37.1248L30.7251 37.0248L30.8751 36.9498L31.1001 37.0498H31.3501L31.4626 37.0873L31.7626 37.2248L31.9126 37.2373L31.9626 37.1998L32.0001 37.1248L31.9876 37.0248L31.8626 36.8873L31.6126 36.5873L31.5126 36.4373L31.4376 36.2248L31.4126 35.9498L31.3876 35.7623L31.4251 35.5123L31.4876 35.4248L31.5376 35.2248L31.5501 35.1748L31.7001 34.9873L32.0751 34.7373L32.4751 34.3873L32.7876 34.1748L33.1126 34.0373V33.9998L33.1626 34.0123L33.9876 33.7248L34.3626 33.6623L36.8626 33.8373L36.9501 33.8123L37.0376 33.5748L37.0751 33.5373L37.1126 33.5123L37.3876 33.3873L37.5126 33.3623L37.8626 33.4498L38.0126 33.4873L38.2501 33.3623H38.4126L38.7501 33.1748H38.9626L39.0501 33.1498L39.4626 32.8498L39.8501 32.7373L39.9501 32.6873L39.9876 32.6623L40.4001 32.4498L40.6501 32.2498L40.8751 32.1248L41.1251 32.0748L41.7501 32.0248L41.8876 31.8123L42.1626 31.7748L42.3251 31.5873L42.5126 31.5123L42.6501 31.3123L42.7751 31.1498L42.9251 31.0623L43.4376 31.0248L44.0376 31.0998L44.1251 31.0498L44.2501 30.5623L44.4001 30.4748L44.7751 29.9123V29.7123L44.7876 29.5373L44.8501 29.2873L44.8126 28.8623L44.8626 28.4123L45.1001 27.8498L45.3126 27.6248L45.6501 27.3873L45.8251 27.3123L46.0751 27.2748H46.1001L46.1626 27.2498H47.3126L47.6001 27.2373L48.3126 27.3623H48.3626L48.6001 27.4498L48.8751 27.6623L49.1751 27.9498L49.2251 27.9998L49.4126 28.0873L49.4751 28.1123L49.6251 28.0873L49.8501 27.9623L50.0251 27.8373L50.2501 27.7123V27.6873L50.3876 27.4998L50.4376 27.4123L50.8876 27.2373L51.4126 27.2123L51.4751 27.1748H51.5001L51.6376 26.9998H51.7626L52.0876 27.1248L52.3001 27.0748L52.4751 27.1373L52.6126 27.1248L52.8626 27.0873L53.1501 27.2873L53.3126 27.3123L53.8751 27.6373H53.9251L53.9501 27.6498L54.0126 27.6248L54.1126 27.5998H54.1251L54.1376 27.6123L54.2126 27.6998L54.3001 27.7123L54.4001 27.5873L54.3626 27.5123L54.3501 27.4873L54.1376 27.4498L53.9626 27.1373L54.1376 26.9498L53.8626 26.6248L53.8126 26.5623V26.5498L53.7126 26.3998L53.2376 25.6748L52.6126 25.1748L52.4001 25.0123L52.3251 24.9498L51.9876 24.6123L51.7501 24.2998L51.7251 24.2373L51.6751 24.1248L51.5376 23.8248L51.2876 23.6373L51.0876 23.4123L50.6626 22.8373L50.6001 22.7498L50.5001 22.6873H50.2876L50.2751 22.6623H50.2626V22.6498L50.3626 22.5498L50.4876 22.5248L50.5251 22.4123L50.3126 21.7998V21.7748L50.3001 21.5873L50.4626 20.6998L50.4876 20.5873L50.7876 19.9998L50.9626 19.8498L51.1626 19.4623L51.3376 19.2123L51.5001 19.0498L51.5251 19.0373L51.8126 18.8623L52.0626 18.8248L52.3001 18.7873L52.7126 18.9123H53.0876L53.1751 18.8998L53.3501 18.8748L53.6376 18.7873L53.7751 18.6998L53.8501 18.5998L54.0001 18.0998L54.0501 17.9373L54.1376 17.7623L54.6751 17.1498L55.0751 16.7748L55.9751 16.1248L56.4126 15.8623L56.6376 15.7248L58.6501 14.8248L59.1751 14.2998L59.4501 14.0248L59.9251 13.6998L60.4876 13.4623L60.9876 13.0873L61.0876 12.9498L61.2126 12.5123L61.3376 12.4873L61.4251 12.2748L61.4626 12.2123L61.8501 11.9373L61.9001 11.9123L63.4376 11.1373L63.6626 11.1748L63.7876 10.9873L64.2251 10.9123H64.3126L64.4251 10.8498L64.5126 10.6873V10.6498L64.5251 10.2248L64.6251 10.1123L64.6751 9.8373L64.7251 9.7623L64.7751 9.6998L64.9001 9.6123L64.8751 9.5623V9.5498Z" fill="#D47600"/>
</g>
<defs>
<clipPath id="clip0_3731_53551">
<rect width="80" height="60" fill="white"/>
</clipPath>
</defs>
</svg>
