<svg width="80" height="60" viewBox="0 0 80 60" fill="none" xmlns="http://www.w3.org/2000/svg">
<g clip-path="url(#clip0_4604_77098)">
<mask id="mask0_4604_77098" style="mask-type:luminance" maskUnits="userSpaceOnUse" x="-1" y="0" width="82" height="61">
<path d="M-0.0253906 0H80.1919V60.16H-0.0253906V0Z" fill="white"/>
</mask>
<g mask="url(#mask0_4604_77098)">
<path fill-rule="evenodd" clip-rule="evenodd" d="M-20.3887 0H100.343V60.16H-20.3887V0Z" fill="#108C00"/>
<path fill-rule="evenodd" clip-rule="evenodd" d="M-20.5879 20.9395H100.743V26.8262H-20.5879V20.9395Z" fill="#FFD600"/>
<path fill-rule="evenodd" clip-rule="evenodd" d="M31.2305 0H36.9292V60.16H31.2422L31.2305 0Z" fill="#FFD600"/>
<path fill-rule="evenodd" clip-rule="evenodd" d="M36.7285 0H42.4155V60.16H36.7285V0Z" fill="black"/>
<path fill-rule="evenodd" clip-rule="evenodd" d="M-20.5879 26.625H100.743V32.5235H-20.5879V26.625Z" fill="black"/>
<path fill-rule="evenodd" clip-rule="evenodd" d="M-20.5879 32.5234H100.743V38.4102H-20.5879V32.5234Z" fill="white"/>
<path fill-rule="evenodd" clip-rule="evenodd" d="M42.416 0H48.1148V60.16H42.416V0Z" fill="white"/>
<path d="M24.1566 30.127C24.1566 39.0498 31.3585 46.2832 40.2424 46.2832C49.1263 46.2832 56.3281 39.0498 56.3281 30.127C56.3281 21.2041 49.1263 13.9707 40.2424 13.9707C31.3585 13.9707 24.1566 21.2041 24.1566 30.127Z" fill="#E72910"/>
<path fill-rule="evenodd" clip-rule="evenodd" d="M39.3958 16.0968L40.0538 14.2168L40.6531 16.0615C40.6531 16.0615 42.6623 16.1203 42.6623 16.085C42.6623 16.0498 41.0761 17.2953 41.0761 17.2953L41.7928 19.3633C41.7693 19.3045 40.0538 18.0825 40.0538 18.0825C40.0538 18.0825 38.3148 19.3045 38.3501 19.3045C38.3853 19.3045 39.0081 17.307 39.0081 17.307L37.4453 16.1203L39.3958 16.085V16.0968Z" fill="black"/>
<path fill-rule="evenodd" clip-rule="evenodd" d="M39.4889 16.1781L40.0412 14.5684L40.5582 16.1664C40.5582 16.1664 42.3089 16.2134 42.3089 16.1899C42.3089 16.1664 40.9342 17.2474 40.9342 17.2474L41.5452 19.0334C41.5217 18.9746 40.0412 17.9289 40.0412 17.9289C40.0412 17.9289 38.5372 18.9864 38.5607 18.9864C38.5842 18.9864 39.1482 17.2474 39.1482 17.2474L37.7852 16.2134L39.4772 16.1899L39.4889 16.1781Z" fill="#FFE700"/>
<path fill-rule="evenodd" clip-rule="evenodd" d="M39.7252 16.4498L40.0542 15.5098L40.3597 16.438C40.3597 16.438 41.3585 16.4615 41.3585 16.438C41.3585 16.4145 40.5712 17.049 40.5712 17.049L40.9237 18.083C40.912 18.0478 40.0542 17.4485 40.0542 17.4485L39.2082 18.0595C39.2317 18.0595 39.5372 17.0608 39.5372 17.0608L38.7617 16.4733L39.7252 16.4498Z" fill="#108C00"/>
<path fill-rule="evenodd" clip-rule="evenodd" d="M51.8978 24.8859L52.5558 23.0059L53.1433 24.8506C53.1433 24.8506 55.1643 24.9211 55.1643 24.8859C55.1643 24.8506 53.578 26.0961 53.578 26.0961L54.283 28.1641C54.2595 28.1054 52.5558 26.8834 52.5558 26.8834C52.5558 26.8834 50.8168 28.1054 50.852 28.1054C50.8873 28.1054 51.51 26.1079 51.51 26.1079L49.9473 24.9094L51.8978 24.8741V24.8859Z" fill="black"/>
<path fill-rule="evenodd" clip-rule="evenodd" d="M51.9791 24.979L52.5548 23.3457L53.0718 24.9555C53.0718 24.9555 54.8108 25.0025 54.8108 24.979C54.8108 24.9555 53.4361 26.0365 53.4361 26.0365L54.0588 27.8107C54.0353 27.7637 52.5548 26.7062 52.5548 26.7062C52.5548 26.7062 51.0508 27.7637 51.0743 27.7637C51.0978 27.7637 51.6501 26.0247 51.6501 26.0247L50.2988 25.0025L51.9791 24.979Z" fill="#FFE700"/>
<path fill-rule="evenodd" clip-rule="evenodd" d="M52.2272 25.2505L52.5562 24.3105L52.85 25.227L53.8605 25.2505L53.0615 25.8498C53.0615 25.8498 53.4375 26.9073 53.414 26.8838C53.414 26.8485 52.5562 26.2493 52.5562 26.2493L51.6985 26.8485L52.0275 25.8498L51.252 25.2623L52.2272 25.2505Z" fill="#108C00"/>
<path fill-rule="evenodd" clip-rule="evenodd" d="M48.2552 38.8448L48.9132 36.9648L49.5007 38.8213C49.5007 38.8213 51.5217 38.8801 51.5217 38.8566C51.5217 38.8331 49.9354 40.0668 49.9354 40.0668L50.6404 42.1231C50.6169 42.0643 48.9132 40.8541 48.9132 40.8541C48.9132 40.8541 47.1742 42.0643 47.1977 42.0643C47.2212 42.0643 47.8674 40.0668 47.8674 40.0668L46.3047 38.8918L48.2552 38.8566V38.8448Z" fill="black"/>
<path fill-rule="evenodd" clip-rule="evenodd" d="M48.3365 38.9379L48.9123 37.3164L49.4293 38.9144C49.4293 38.9144 51.1683 38.9732 51.1683 38.9379C51.1683 38.9027 49.7935 39.9954 49.7935 39.9954L50.4162 41.7814C50.3928 41.7227 48.9123 40.6769 48.9123 40.6769C48.9123 40.6769 47.4083 41.7344 47.4318 41.7344C47.4553 41.7344 48.0075 39.9954 48.0075 39.9954L46.6562 38.9732L48.3365 38.9379Z" fill="#FFE700"/>
<path fill-rule="evenodd" clip-rule="evenodd" d="M48.5846 39.2095L48.9136 38.2695L49.2074 39.1978C49.2074 39.1978 50.2179 39.233 50.2179 39.2095C50.2179 39.186 49.4189 39.8205 49.4189 39.8205L49.7714 40.8428C49.7714 40.8193 48.9136 40.2083 48.9136 40.2083L48.0559 40.8193L48.3849 39.8205L47.6094 39.233L48.5846 39.2095Z" fill="#108C00"/>
<path fill-rule="evenodd" clip-rule="evenodd" d="M30.7825 38.8448L31.4405 36.9648L32.028 38.8213C32.028 38.8213 34.0373 38.8801 34.0373 38.8566C34.0373 38.8331 32.451 40.0668 32.451 40.0668L33.1795 42.1231C33.1443 42.0643 31.4405 40.8541 31.4405 40.8541C31.4405 40.8541 29.7015 42.0643 29.725 42.0643C29.7485 42.0643 30.3948 40.0668 30.3948 40.0668L28.832 38.8918L30.7825 38.8566V38.8448Z" fill="black"/>
<path fill-rule="evenodd" clip-rule="evenodd" d="M30.8756 38.9379L31.4396 37.3164L31.9566 38.9144C31.9566 38.9144 33.6956 38.9732 33.6956 38.9379C33.6956 38.9027 32.3208 39.9954 32.3208 39.9954L32.9436 41.7814C32.9201 41.7227 31.4396 40.6769 31.4396 40.6769C31.4396 40.6769 29.9356 41.7344 29.9591 41.7344C29.9826 41.7344 30.5348 39.9954 30.5348 39.9954L29.1836 38.9732L30.8638 38.9379H30.8756Z" fill="#FFE700"/>
<path fill-rule="evenodd" clip-rule="evenodd" d="M31.112 39.2095L31.441 38.2695L31.7347 39.1978C31.7347 39.1978 32.7452 39.233 32.7452 39.2095C32.7452 39.186 31.9462 39.8205 31.9462 39.8205L32.2987 40.8428C32.2987 40.8193 31.441 40.2083 31.441 40.2083L30.5832 40.8193L30.9122 39.8205L30.1367 39.233L31.112 39.2095Z" fill="#108C00"/>
<path fill-rule="evenodd" clip-rule="evenodd" d="M27.5872 24.5226L28.2452 22.6426L28.8445 24.4991C28.8445 24.4991 30.8537 24.5578 30.8537 24.5226C30.8537 24.4873 29.2675 25.7446 29.2675 25.7446L29.9842 27.8008C29.949 27.7421 28.2452 26.5318 28.2452 26.5318C28.2452 26.5318 26.5062 27.7303 26.5415 27.7303C26.5767 27.7303 27.1995 25.7328 27.1995 25.7328L25.6367 24.5578L27.5872 24.5226Z" fill="black"/>
<path fill-rule="evenodd" clip-rule="evenodd" d="M27.6803 24.6156L28.2443 22.9941L28.773 24.5921C28.773 24.5921 30.5003 24.6509 30.5003 24.6156C30.5003 24.5804 29.1255 25.6731 29.1255 25.6731L29.7483 27.4591C29.7248 27.4004 28.2443 26.3546 28.2443 26.3546C28.2443 26.3546 26.7403 27.4121 26.7755 27.4121C26.8108 27.4121 27.3395 25.6731 27.3395 25.6731L25.9883 24.6509L27.6803 24.6156Z" fill="#FFE700"/>
<path fill-rule="evenodd" clip-rule="evenodd" d="M27.9166 24.8873L28.2456 23.9473L28.5511 24.8755L29.5499 24.8873L28.7626 25.4983L29.1151 26.5205C29.1034 26.497 28.2456 25.886 28.2456 25.886L27.3996 26.497C27.4231 26.497 27.7286 25.4983 27.7286 25.4983L26.9531 24.9108L27.9166 24.8873Z" fill="#108C00"/>
<path fill-rule="evenodd" clip-rule="evenodd" d="M48.1024 20.456L47.4444 22.336L46.8569 20.4912C46.8569 20.4912 44.8359 20.4325 44.8359 20.456C44.8359 20.4795 46.4222 19.2457 46.4222 19.2457L45.7172 17.1895C45.7407 17.2482 47.4444 18.4585 47.4444 18.4585C47.4444 18.4585 49.1834 17.2482 49.1482 17.2482C49.1129 17.2482 48.4902 19.2457 48.4902 19.2457L50.0529 20.4207L48.1024 20.456Z" fill="black"/>
<path fill-rule="evenodd" clip-rule="evenodd" d="M48.0193 20.361C48.0193 20.3963 47.4318 21.9943 47.4318 21.9943L46.9265 20.3963C46.9265 20.3963 45.1875 20.3375 45.1875 20.361C45.1875 20.3845 46.5623 19.3153 46.5623 19.3153L45.9395 17.5293C45.963 17.588 47.4435 18.6338 47.4435 18.6338C47.4435 18.6338 48.9475 17.5763 48.924 17.5763C48.9005 17.5763 48.3483 19.3153 48.3483 19.3153L49.6995 20.3375L48.0075 20.361H48.0193Z" fill="#FFE700"/>
<path fill-rule="evenodd" clip-rule="evenodd" d="M47.7739 20.0922L47.4449 21.0322L47.1511 20.1157C47.1511 20.1157 46.1406 20.0805 46.1406 20.104C46.1406 20.1275 46.9396 19.493 46.9396 19.493L46.5871 18.4707C46.5871 18.4942 47.4449 19.1052 47.4449 19.1052L48.3026 18.4942C48.2791 18.4942 47.9619 19.493 47.9619 19.493L48.7491 20.0805L47.7739 20.104V20.0922Z" fill="#108C00"/>
<path fill-rule="evenodd" clip-rule="evenodd" d="M53.12 34.1103L52.462 35.9903L51.8745 34.1338C51.8745 34.1338 49.8535 34.075 49.8535 34.1103C49.8535 34.1455 51.4398 32.9 51.4398 32.9L50.7348 30.832C50.7583 30.8908 52.462 32.101 52.462 32.101C52.462 32.101 54.201 30.8908 54.1658 30.8908C54.1305 30.8908 53.5078 32.8883 53.5078 32.8883L55.0823 34.075L53.1318 34.1103H53.12Z" fill="black"/>
<path fill-rule="evenodd" clip-rule="evenodd" d="M53.0368 34.0154L52.4611 35.6369L51.9441 34.0389C51.9441 34.0389 50.2051 33.9919 50.2051 34.0154C50.2051 34.0389 51.5798 32.9579 51.5798 32.9579L50.9571 31.1719C50.9806 31.2306 52.4611 32.2764 52.4611 32.2764C52.4611 32.2764 53.9651 31.2189 53.9416 31.2189C53.9181 31.2189 53.3658 32.9579 53.3658 32.9579L54.7171 33.9919L53.0251 34.0154H53.0368Z" fill="#FFE700"/>
<path fill-rule="evenodd" clip-rule="evenodd" d="M52.7915 33.7465L52.4625 34.6865L52.1687 33.7583C52.1687 33.7583 51.1582 33.7348 51.1582 33.7583C51.1582 33.7818 51.9572 33.1473 51.9572 33.1473L51.6047 32.1133C51.6047 32.1485 52.4625 32.7478 52.4625 32.7478L53.3202 32.1368C53.2967 32.1368 52.9795 33.1473 52.9795 33.1473L53.7667 33.7348L52.7915 33.7465Z" fill="#108C00"/>
<path fill-rule="evenodd" clip-rule="evenodd" d="M40.6767 44.0986L40.0187 45.9786L39.4312 44.1221C39.4312 44.1221 37.4102 44.0633 37.4102 44.0868C37.4102 44.1103 38.9964 42.8766 38.9964 42.8766L38.2914 40.8203C38.3149 40.8791 40.0187 42.0893 40.0187 42.0893C40.0187 42.0893 41.7577 40.8791 41.7224 40.8791C41.6872 40.8791 41.0644 42.8766 41.0644 42.8766L42.6272 44.0633L40.6767 44.0986Z" fill="black"/>
<path fill-rule="evenodd" clip-rule="evenodd" d="M40.5935 43.9919L40.0177 45.6369L39.5007 44.0272C39.5007 44.0272 37.7617 43.9684 37.7617 44.0037C37.7617 44.0389 39.1365 42.9462 39.1365 42.9462L38.5137 41.1602C38.5372 41.2189 40.0177 42.2647 40.0177 42.2647C40.0177 42.2647 41.5217 41.2072 41.4982 41.2072C41.4747 41.2072 40.9225 42.9462 40.9225 42.9462L42.2737 43.9684L40.5935 44.0037V43.9919Z" fill="#FFE700"/>
<path fill-rule="evenodd" clip-rule="evenodd" d="M40.3481 43.7348L40.0191 44.6748L39.7253 43.7466C39.7253 43.7466 38.7148 43.7113 38.7148 43.7348C38.7148 43.7583 39.5138 43.1238 39.5138 43.1238L39.1613 42.1016C39.1613 42.1251 40.0191 42.7361 40.0191 42.7361L40.8768 42.1251L40.5478 43.1238L41.3233 43.7113L40.3481 43.7348Z" fill="#108C00"/>
<path fill-rule="evenodd" clip-rule="evenodd" d="M28.997 34.1103L28.3272 35.9903L27.7397 34.1338C27.7397 34.1338 25.7188 34.075 25.7188 34.1103C25.7188 34.1455 27.305 32.9 27.305 32.9L26.6 30.832C26.6235 30.8908 28.3272 32.101 28.3272 32.101L30.0545 30.9025L29.3847 32.9L30.9475 34.0868L28.997 34.122V34.1103Z" fill="black"/>
<path fill-rule="evenodd" clip-rule="evenodd" d="M28.9021 34.0154L28.3263 35.6369L27.8093 34.0389C27.8093 34.0389 26.0703 33.9919 26.0703 34.0154C26.0703 34.0389 27.4451 32.9579 27.4451 32.9579L26.8223 31.1719C26.8458 31.2306 28.3263 32.2764 28.3263 32.2764C28.3263 32.2764 29.8303 31.2189 29.8068 31.2189C29.7833 31.2189 29.2311 32.9579 29.2311 32.9579L30.5823 33.9919L28.9021 34.0154Z" fill="#FFE700"/>
<path fill-rule="evenodd" clip-rule="evenodd" d="M28.6567 33.7465L28.3277 34.6865L28.0339 33.7583C28.0339 33.7583 27.0234 33.7348 27.0234 33.7583C27.0234 33.7818 27.8224 33.1473 27.8224 33.1473L27.4699 32.1133C27.4699 32.1485 28.3277 32.7478 28.3277 32.7478L29.1854 32.1368L28.8564 33.1473L29.6319 33.7348L28.6567 33.7465Z" fill="#108C00"/>
<path fill-rule="evenodd" clip-rule="evenodd" d="M33.3095 20.6571L32.6515 22.5371L32.0405 20.6924C32.0405 20.6924 30.043 20.6336 30.043 20.6571C30.043 20.6806 31.6292 19.4469 31.6292 19.4469L30.9125 17.3906C30.936 17.4494 32.6397 18.6596 32.6397 18.6596C32.6397 18.6596 34.3787 17.4494 34.3552 17.4494C34.3317 17.4494 33.6972 19.4469 33.6972 19.4469L35.2482 20.6219L33.3095 20.6689V20.6571Z" fill="black"/>
<path fill-rule="evenodd" clip-rule="evenodd" d="M33.2146 20.5622L32.6388 22.2072L32.1218 20.5975C32.1218 20.5975 30.3828 20.5387 30.3828 20.574C30.3828 20.6092 31.7576 19.5165 31.7576 19.5165L31.1348 17.7305C31.1583 17.7892 32.6388 18.835 32.6388 18.835C32.6388 18.835 34.1428 17.7775 34.1193 17.7775C34.0958 17.7775 33.5553 19.5165 33.5553 19.5165L34.8948 20.5387L33.2146 20.574V20.5622Z" fill="#FFE700"/>
<path fill-rule="evenodd" clip-rule="evenodd" d="M32.9692 20.3051L32.6402 21.2451L32.3464 20.3169C32.3464 20.3169 31.3477 20.2816 31.3477 20.3051C31.3477 20.3286 32.1349 19.6941 32.1349 19.6941L31.7824 18.6719C31.7824 18.6954 32.6402 19.3064 32.6402 19.3064L33.4979 18.6954L33.1689 19.6941L33.9444 20.2816L32.9692 20.3051Z" fill="#108C00"/>
<path d="M41.2103 37.7267C41.6759 37.6685 42.0534 35.7522 42.0534 33.4465C42.0534 31.1408 41.6759 29.3188 41.2103 29.377C40.7446 29.4352 40.3672 31.3516 40.3672 33.6573C40.3672 35.963 40.7446 37.7849 41.2103 37.7267Z" fill="#009200" stroke="black" stroke-width="0.0615821"/>
<path d="M42.2881 37.6645C42.7869 37.6021 43.1914 35.6825 43.1914 33.3767C43.1914 31.071 42.7869 29.2525 42.2881 29.3148C41.7892 29.3772 41.3848 31.2969 41.3848 33.6026C41.3848 35.9083 41.7892 37.7269 42.2881 37.6645Z" fill="#009200" stroke="black" stroke-width="0.0637436"/>
<path d="M41.8613 38.2623C42.2604 38.2124 42.584 36.1159 42.584 33.5796C42.584 31.0434 42.2604 29.0278 41.8613 29.0776C41.4622 29.1275 41.1387 31.224 41.1387 33.7603C41.1387 36.2966 41.4622 38.3122 41.8613 38.2623Z" fill="#009200" stroke="black" stroke-width="0.0597968"/>
<path fill-rule="evenodd" clip-rule="evenodd" d="M36.9004 34.5556C37.6336 34.5189 37.3159 34.1523 37.6825 33.9446C38.0491 33.7491 38.5745 33.8713 38.7334 34.1157C38.8923 34.3601 38.7701 34.6045 38.9778 34.6045C39.1855 34.6045 44.7212 34.299 44.9167 34.4945C45.1122 34.7022 45.1611 35.1055 44.9534 35.2644C44.7579 35.4354 37.7558 35.631 37.5114 35.4599C37.267 35.2888 36.9004 34.6045 36.9004 34.5556Z" fill="#A95600" stroke="black" stroke-width="0.0611"/>
<path fill-rule="evenodd" clip-rule="evenodd" d="M40.7294 36.0042C40.7294 36.493 41.5652 36.3439 41.5872 36.7521C41.5744 37.1847 40.1813 36.7948 40.1465 36.0042C40.1813 35.2123 41.5212 34.8066 41.5524 35.2588C41.5744 35.6327 40.7275 35.5154 40.7275 36.0042H40.7294Z" fill="#FFFF00" stroke="black" stroke-width="0.0583689"/>
<path fill-rule="evenodd" clip-rule="evenodd" d="M41.2196 36.0159C41.2196 36.5047 42.0555 36.3556 42.0775 36.7638C42.0646 37.1964 40.6715 36.8066 40.6367 36.0159C40.6715 35.2241 42.0115 34.8184 42.0426 35.2705C42.0646 35.6444 41.2178 35.5271 41.2178 36.0159H41.2196Z" fill="#FFFF00" stroke="black" stroke-width="0.0583689"/>
<path fill-rule="evenodd" clip-rule="evenodd" d="M41.745 35.9905C41.745 36.4793 42.5809 36.3302 42.6028 36.7384C42.59 37.171 41.1969 36.7812 41.1621 35.9905C41.1969 35.1987 42.5369 34.793 42.568 35.2451C42.59 35.619 41.7432 35.5017 41.7432 35.9905H41.745Z" fill="#FFFF00" stroke="black" stroke-width="0.0583689"/>
<path fill-rule="evenodd" clip-rule="evenodd" d="M42.2333 35.9905C42.2333 36.4793 43.0691 36.3302 43.0911 36.7384C43.0783 37.171 41.6852 36.7812 41.6504 35.9905C41.6852 35.1987 43.0251 34.793 43.0563 35.2451C43.0783 35.619 42.2315 35.5017 42.2315 35.9905H42.2333Z" fill="#FFFF00" stroke="black" stroke-width="0.0583689"/>
<path d="M44.5867 37.4778C44.8465 37.4826 45.0609 37.2725 45.0654 37.0086C45.07 36.7447 44.8631 36.527 44.6033 36.5222C44.3434 36.5175 44.1291 36.7276 44.1245 36.9915C44.1199 37.2554 44.3268 37.4731 44.5867 37.4778Z" fill="#A95600" stroke="black" stroke-width="0.0549851"/>
<path d="M41.6594 37.06C41.8968 37.0359 42.0467 36.5966 41.9941 36.0788C41.9415 35.561 41.7064 35.1607 41.469 35.1848C41.2315 35.209 41.0817 35.6483 41.1343 36.1661C41.1869 36.6839 41.422 37.0841 41.6594 37.06Z" fill="#009200" stroke="black" stroke-width="0.0712542"/>
<path d="M40.9407 36.9975C41.1781 36.9734 41.3279 36.5341 41.2753 36.0163C41.2227 35.4985 40.9876 35.0982 40.7502 35.1223C40.5128 35.1465 40.363 35.5858 40.4155 36.1036C40.4681 36.6214 40.7033 37.0216 40.9407 36.9975Z" fill="#009200" stroke="black" stroke-width="0.0712542"/>
<path d="M40.429 36.0795C40.6664 36.0554 40.8162 35.6161 40.7636 35.0983C40.711 34.5805 40.4759 34.1803 40.2385 34.2044C40.0011 34.2285 39.8512 34.6678 39.9038 35.1856C39.9564 35.7034 40.1915 36.1037 40.429 36.0795Z" fill="#009200" stroke="black" stroke-width="0.0712542"/>
<path d="M40.9567 35.9122C41.1801 35.8895 41.3146 35.412 41.2571 34.8456C41.1996 34.2793 40.9718 33.8385 40.7484 33.8612C40.5249 33.8839 40.3904 34.3615 40.4479 34.9278C40.5054 35.4942 40.7332 35.9349 40.9567 35.9122Z" fill="#009200" stroke="black" stroke-width="0.0722945"/>
<path d="M41.9643 36.0333C42.1878 36.0106 42.3249 35.5593 42.2707 35.0253C42.2165 34.4913 41.9913 34.0768 41.7679 34.0995C41.5444 34.1222 41.4073 34.5735 41.4615 35.1075C41.5157 35.6415 41.7409 36.056 41.9643 36.0333Z" fill="#009200" stroke="black" stroke-width="0.0701986"/>
<path d="M41.4135 35.6954C41.637 35.6727 41.7742 35.2214 41.7199 34.6874C41.6657 34.1534 41.4406 33.7389 41.2171 33.7616C40.9936 33.7843 40.8565 34.2356 40.9107 34.7696C40.965 35.3036 41.1901 35.7181 41.4135 35.6954Z" fill="#009200" stroke="black" stroke-width="0.0701986"/>
<path d="M40.726 35.213C40.9495 35.1903 41.0867 34.739 41.0324 34.205C40.9782 33.671 40.7531 33.2565 40.5296 33.2792C40.3061 33.3019 40.169 33.7532 40.2232 34.2872C40.2775 34.8212 40.5026 35.2357 40.726 35.213Z" fill="#009200" stroke="black" stroke-width="0.0701986"/>
<path d="M40.0834 34.9337C40.3069 34.911 40.4441 34.4597 40.3898 33.9257C40.3356 33.3917 40.1105 32.9772 39.887 32.9999C39.6636 33.0226 39.5264 33.4739 39.5806 34.0079C39.6349 34.5419 39.86 34.9564 40.0834 34.9337Z" fill="#009200" stroke="black" stroke-width="0.0701986"/>
<path fill-rule="evenodd" clip-rule="evenodd" d="M39.4909 24.9985C39.4909 24.9985 38.0611 26.2205 38.2567 29.5077C38.4766 32.8071 41.495 34.3346 41.495 34.3346C41.495 34.3346 42.2526 33.3937 42.1304 30.7297C41.886 26.8438 40.444 25.1452 40.444 25.1452L39.4909 24.9863V24.9985Z" fill="#804BFF" stroke="black" stroke-width="0.0611"/>
<path d="M42.4802 37.1942C42.7181 37.2129 42.944 36.8074 42.9849 36.2886C43.0257 35.7697 42.8659 35.3339 42.628 35.3152C42.3901 35.2964 42.1642 35.7019 42.1233 36.2208C42.0825 36.7396 42.2422 37.1754 42.4802 37.1942Z" fill="#009200" stroke="black" stroke-width="0.0712542"/>
<path d="M41.7829 37.0047C42.0208 37.0234 42.2468 36.618 42.2876 36.0991C42.3284 35.5802 42.1687 35.1444 41.9308 35.1257C41.6929 35.107 41.4669 35.5124 41.4261 36.0313C41.3852 36.5502 41.545 36.986 41.7829 37.0047Z" fill="#009200" stroke="black" stroke-width="0.0712542"/>
<path d="M41.445 36.0106C41.6829 36.0293 41.9089 35.6238 41.9497 35.105C41.9905 34.5861 41.8308 34.1503 41.5929 34.1316C41.355 34.1128 41.129 34.5183 41.0882 35.0372C41.0473 35.556 41.2071 35.9918 41.445 36.0106Z" fill="#009200" stroke="black" stroke-width="0.0712542"/>
<path d="M41.9937 35.9386C42.2176 35.9562 42.4353 35.5105 42.48 34.943C42.5246 34.3754 42.3793 33.9011 42.1554 33.8835C41.9315 33.8658 41.7138 34.3116 41.6691 34.8791C41.6245 35.4467 41.7698 35.921 41.9937 35.9386Z" fill="#009200" stroke="black" stroke-width="0.0722945"/>
<path d="M42.9639 36.2392C43.1878 36.2568 43.4034 35.8373 43.4455 35.3022C43.4877 34.7671 43.3403 34.3191 43.1164 34.3014C42.8925 34.2838 42.6768 34.7033 42.6347 35.2384C42.5926 35.7735 42.74 36.2215 42.9639 36.2392Z" fill="#009200" stroke="black" stroke-width="0.0701986"/>
<path d="M42.4814 35.8075C42.7054 35.8251 42.921 35.4057 42.9631 34.8706C43.0052 34.3355 42.8579 33.8874 42.6339 33.8698C42.41 33.8522 42.1944 34.2717 42.1523 34.8068C42.1102 35.3418 42.2575 35.7899 42.4814 35.8075Z" fill="#009200" stroke="black" stroke-width="0.0701986"/>
<path d="M41.8916 35.2099C42.1155 35.2275 42.3312 34.808 42.3733 34.2729C42.4154 33.7378 42.268 33.2898 42.0441 33.2721C41.8202 33.2545 41.6045 33.674 41.5624 34.2091C41.5203 34.7442 41.6677 35.1922 41.8916 35.2099Z" fill="#009200" stroke="black" stroke-width="0.0701986"/>
<path d="M41.3096 34.8212C41.5335 34.8388 41.7491 34.4193 41.7912 33.8842C41.8334 33.3492 41.686 32.9011 41.4621 32.8835C41.2382 32.8658 41.0225 33.2853 40.9804 33.8204C40.9383 34.3555 41.0857 34.8036 41.3096 34.8212Z" fill="#009200" stroke="black" stroke-width="0.0701986"/>
<path d="M43.7028 34.4604C44.3324 34.2243 44.2305 32.5024 43.4753 30.6144C42.7201 28.7264 41.5975 27.3872 40.968 27.6233C40.3385 27.8594 40.4403 29.5813 41.1955 31.4693C41.9507 33.3573 43.0733 34.6965 43.7028 34.4604Z" fill="#C90000" stroke="black" stroke-width="0.0270717"/>
<path d="M41.6324 28.199C41.9239 28.2041 42.1639 27.9966 42.1685 27.7354C42.173 27.4743 41.9404 27.2584 41.6489 27.2534C41.3574 27.2483 41.1174 27.4558 41.1128 27.717C41.1083 27.9781 41.3409 28.194 41.6324 28.199Z" fill="#009200" stroke="black" stroke-width="0.063497"/>
<path d="M41.8008 27.5299C42.0559 27.5344 42.2663 27.3263 42.2709 27.0651C42.2755 26.804 42.0724 26.5887 41.8173 26.5842C41.5622 26.5798 41.3518 26.7879 41.3472 27.049C41.3427 27.3102 41.5457 27.5255 41.8008 27.5299Z" fill="#009200" stroke="black" stroke-width="0.0633557"/>
<path d="M41.166 27.5182C41.4211 27.5227 41.6316 27.3146 41.6361 27.0534C41.6407 26.7923 41.4376 26.577 41.1825 26.5725C40.9275 26.5681 40.717 26.7762 40.7124 27.0373C40.7079 27.2984 40.911 27.5137 41.166 27.5182Z" fill="#009200" stroke="black" stroke-width="0.0633557"/>
<path d="M41.4128 26.4729C41.6825 26.4776 41.9044 26.2909 41.9085 26.0559C41.9126 25.8209 41.6973 25.6265 41.4277 25.6218C41.158 25.6171 40.9361 25.8038 40.932 26.0388C40.9279 26.2739 41.1432 26.4682 41.4128 26.4729Z" fill="#009200" stroke="black" stroke-width="0.0617979"/>
<path d="M41.3601 25.9221C41.6297 25.9268 41.8517 25.7401 41.8558 25.5051C41.8599 25.2701 41.6446 25.0757 41.375 25.071C41.1053 25.0663 40.8834 25.253 40.8793 25.4881C40.8752 25.7231 41.0905 25.9174 41.3601 25.9221Z" fill="#009200" stroke="black" stroke-width="0.0617979"/>
<path d="M40.5606 27.1647C40.8156 27.1691 41.0261 26.961 41.0307 26.6999C41.0352 26.4388 40.8322 26.2235 40.5771 26.219C40.322 26.2145 40.1115 26.4226 40.107 26.6838C40.1024 26.9449 40.3055 27.1602 40.5606 27.1647Z" fill="#009200" stroke="black" stroke-width="0.0633557"/>
<path d="M40.6895 26.8248C40.9445 26.8293 41.155 26.6212 41.1596 26.3601C41.1641 26.0989 40.9611 25.8836 40.706 25.8792C40.4509 25.8747 40.2404 26.0828 40.2359 26.3439C40.2313 26.6051 40.4344 26.8204 40.6895 26.8248Z" fill="#009200" stroke="black" stroke-width="0.0633557"/>
<path d="M40.1695 26.5838C40.461 26.5889 40.701 26.3813 40.7056 26.1202C40.7102 25.859 40.4775 25.6432 40.186 25.6381C39.8945 25.633 39.6545 25.8406 39.6499 26.1017C39.6454 26.3629 39.878 26.5787 40.1695 26.5838Z" fill="#009200" stroke="black" stroke-width="0.063497"/>
<path d="M41.0066 25.2425C41.2762 25.2472 41.4981 25.0604 41.5022 24.8254C41.5064 24.5904 41.2911 24.396 41.0214 24.3913C40.7518 24.3866 40.5299 24.5733 40.5258 24.8084C40.5217 25.0434 40.7369 25.2377 41.0066 25.2425Z" fill="#009200" stroke="black" stroke-width="0.0617979"/>
<path d="M40.2364 26.1569C40.4914 26.1613 40.7019 25.9532 40.7065 25.6921C40.711 25.4309 40.5079 25.2156 40.2529 25.2112C39.9978 25.2067 39.7873 25.4148 39.7828 25.676C39.7782 25.9371 39.9813 26.1524 40.2364 26.1569Z" fill="#009200" stroke="black" stroke-width="0.0633557"/>
<path d="M39.2383 26.6041C39.4934 26.6086 39.7038 26.4005 39.7084 26.1394C39.713 25.8782 39.5099 25.6629 39.2548 25.6585C38.9997 25.654 38.7893 25.8621 38.7847 26.1232C38.7802 26.3844 38.9832 26.5997 39.2383 26.6041Z" fill="#009200" stroke="black" stroke-width="0.0633557"/>
<path d="M39.3985 26.5221C39.6535 26.5266 39.864 26.3185 39.8686 26.0573C39.8731 25.7962 39.67 25.5809 39.415 25.5764C39.1599 25.572 38.9494 25.7801 38.9449 26.0412C38.9403 26.3023 39.1434 26.5177 39.3985 26.5221Z" fill="#009200" stroke="black" stroke-width="0.0633557"/>
<path d="M39.6016 26.1471C39.8567 26.1516 40.0671 25.9435 40.0717 25.6823C40.0762 25.4212 39.8732 25.2059 39.6181 25.2014C39.363 25.197 39.1526 25.4051 39.148 25.6662C39.1434 25.9273 39.3465 26.1427 39.6016 26.1471Z" fill="#009200" stroke="black" stroke-width="0.0633557"/>
<path d="M44.0508 36.1631C44.8532 35.8902 44.7748 33.7117 43.8756 31.2973C42.9765 28.883 41.5971 27.147 40.7947 27.4199C39.9923 27.6928 40.0707 29.8713 40.9699 32.2857C41.869 34.7001 43.2484 36.4361 44.0508 36.1631Z" fill="#009200" stroke="black" stroke-width="0.0568228"/>
<path d="M44.0028 33.461C44.1511 33.3897 44.1117 32.9221 43.9149 32.4167C43.718 31.9113 43.4383 31.5594 43.29 31.6307C43.1417 31.702 43.1811 32.1695 43.3779 32.6749C43.5747 33.1803 43.8545 33.5323 44.0028 33.461Z" fill="#009200" stroke="black" stroke-width="0.0580502"/>
<path fill-rule="evenodd" clip-rule="evenodd" d="M43.4567 32.4921C44.6624 34.1561 44.4806 35.1894 44.3308 36.062C43.9618 35.0404 43.7692 34.3989 42.5635 32.7349C41.3578 31.0709 42.001 29.9433 42.0986 29.3402C42.2739 29.8691 42.251 30.828 43.4567 32.4921Z" fill="#009200" stroke="black" stroke-width="0.0585995"/>
<path fill-rule="evenodd" clip-rule="evenodd" d="M43.5407 33.8124C44.7464 35.4764 44.5645 36.5097 44.4148 37.3823C44.0458 36.3607 43.8532 35.7192 42.6475 34.0552C41.4418 32.3912 42.085 31.2636 42.1826 30.6605C42.3579 31.1894 42.335 32.1484 43.5407 33.8124Z" fill="#009200" stroke="black" stroke-width="0.0585995"/>
<path fill-rule="evenodd" clip-rule="evenodd" d="M43.6375 34.8713C44.8813 36.5071 44.7224 37.5448 44.592 38.4211C44.1999 37.4081 43.9929 36.771 42.7491 35.1352C41.5053 33.4994 42.1237 32.3564 42.208 31.751C42.3952 32.2758 42.3937 33.2355 43.6375 34.8713Z" fill="#009200" stroke="black" stroke-width="0.0586384"/>
<path d="M43.3318 32.6992C43.6226 32.6274 43.5771 31.837 43.2302 30.9339C42.8833 30.0307 42.3662 29.3568 42.0754 29.4286C41.7846 29.5004 41.8301 30.2908 42.177 31.1939C42.524 32.0971 43.041 32.771 43.3318 32.6992Z" fill="#009200" stroke="black" stroke-width="0.058584"/>
<path d="M42.8113 33.184C43.0747 33.1427 43.0712 32.5065 42.8036 31.763C42.5359 31.0196 42.1054 30.4504 41.8421 30.4916C41.5787 30.5329 41.5822 31.1691 41.8499 31.9126C42.1175 32.656 42.548 33.2252 42.8113 33.184Z" fill="#009200" stroke="black" stroke-width="0.0570783"/>
<path d="M41.9622 33.741C42.2255 33.7051 42.2381 33.0688 41.9903 32.3199C41.7425 31.5709 41.3281 30.9928 41.0647 31.0287C40.8014 31.0646 40.7888 31.7009 41.0366 32.4499C41.2844 33.1988 41.6988 33.7769 41.9622 33.741Z" fill="#009200" stroke="black" stroke-width="0.0569489"/>
<path d="M42.5012 31.1031C42.7113 31.0672 42.6927 30.5917 42.4598 30.041C42.2268 29.4902 41.8677 29.0729 41.6577 29.1088C41.4476 29.1447 41.4662 29.6203 41.6991 30.171C41.9321 30.7217 42.2912 31.139 42.5012 31.1031Z" fill="#009200" stroke="black" stroke-width="0.0582656"/>
<path d="M42.0816 31.6466C42.2965 31.6233 42.31 31.1446 42.1118 30.5773C41.9135 30.0101 41.5786 29.5692 41.3637 29.5925C41.1488 29.6158 41.1353 30.0946 41.3336 30.6618C41.5318 31.2291 41.8668 31.67 42.0816 31.6466Z" fill="#009200" stroke="black" stroke-width="0.0588265"/>
<path fill-rule="evenodd" clip-rule="evenodd" d="M41.3066 30.026C41.6506 31.0065 41.7781 31.8843 41.5901 31.9858C41.402 32.0872 40.971 31.3731 40.627 30.3926" fill="#009200"/>
<path d="M41.3066 30.026C41.6506 31.0065 41.7781 31.8843 41.5901 31.9858C41.402 32.0872 40.971 31.3731 40.627 30.3926" stroke="black" stroke-width="0.0589021"/>
<path d="M42.0465 30.508C42.2614 30.4846 42.2749 30.0059 42.0766 29.4386C41.8783 28.8714 41.5434 28.4305 41.3285 28.4538C41.1137 28.4772 41.1002 28.9559 41.2984 29.5232C41.4967 30.0904 41.8316 30.5313 42.0465 30.508Z" fill="#009200" stroke="black" stroke-width="0.0588265"/>
<path d="M41.4247 30.9244C41.6395 30.9064 41.6611 30.4276 41.4727 29.8548C41.2844 29.2821 40.9575 28.8324 40.7426 28.8503C40.5277 28.8683 40.5062 29.3471 40.6945 29.9199C40.8829 30.4926 41.2098 30.9423 41.4247 30.9244Z" fill="#009200" stroke="black" stroke-width="0.0588556"/>
<path fill-rule="evenodd" clip-rule="evenodd" d="M40.7409 28.7003C41.085 29.3651 41.2655 29.9817 41.1432 30.077C41.0208 30.1724 40.6428 29.7097 40.2988 29.0449" fill="#009200"/>
<path d="M40.7409 28.7003C41.085 29.3651 41.2655 29.9817 41.1432 30.077C41.0208 30.1724 40.6428 29.7097 40.2988 29.0449" stroke="black" stroke-width="0.0588173"/>
<path fill-rule="evenodd" clip-rule="evenodd" d="M40.9968 28.2726C41.3408 28.9374 41.5213 29.5539 41.399 29.6493C41.2767 29.7446 40.8987 29.282 40.5547 28.6172" fill="#009200"/>
<path d="M40.9968 28.2726C41.3408 28.9374 41.5213 29.5539 41.399 29.6493C41.2767 29.7446 40.8987 29.282 40.5547 28.6172" stroke="black" stroke-width="0.0588173"/>
<path fill-rule="evenodd" clip-rule="evenodd" d="M42.1086 28.5073C42.5872 29.4214 42.8372 30.2682 42.6656 30.398C42.494 30.5278 41.9669 29.8906 41.4883 28.9766" fill="#009200"/>
<path d="M42.1086 28.5073C42.5872 29.4214 42.8372 30.2682 42.6656 30.398C42.494 30.5278 41.9669 29.8906 41.4883 28.9766" stroke="black" stroke-width="0.0589039"/>
<path fill-rule="evenodd" clip-rule="evenodd" d="M41.3816 27.8746C41.7256 28.6058 41.9061 29.2846 41.7838 29.3901C41.6615 29.4956 41.2835 28.9871 40.9395 28.2559" fill="#009200"/>
<path d="M41.3816 27.8746C41.7256 28.6058 41.9061 29.2846 41.7838 29.3901C41.6615 29.4956 41.2835 28.9871 40.9395 28.2559" stroke="black" stroke-width="0.0580682"/>
<path fill-rule="evenodd" clip-rule="evenodd" d="M41.8874 25.3277C41.6469 25.575 41.8952 26.0052 42.122 26.153C42.3762 26.36 43.8152 27.7177 44.787 26.4756C43.9893 26.4971 42.4661 24.7766 41.8874 25.3277Z" fill="#804BFF" stroke="black" stroke-width="0.0573169"/>
<path fill-rule="evenodd" clip-rule="evenodd" d="M41.7175 24.607C41.477 24.8543 41.7253 25.2845 41.9521 25.4323C42.2063 25.6393 43.6453 26.997 44.6171 25.7549C43.8193 25.7764 42.2962 24.0559 41.7175 24.607Z" fill="#804BFF" stroke="black" stroke-width="0.0573169"/>
<path fill-rule="evenodd" clip-rule="evenodd" d="M41.4968 23.9214C41.2563 24.1688 41.5046 24.5989 41.7314 24.7468C41.9856 24.9538 43.4246 26.3114 44.3963 25.0694C43.5986 25.0909 42.0755 23.3703 41.4968 23.9214Z" fill="#804BFF" stroke="black" stroke-width="0.0573169"/>
<path fill-rule="evenodd" clip-rule="evenodd" d="M41.0202 23.1402C40.7797 23.3875 41.028 23.8177 41.2548 23.9655C41.509 24.1725 42.9481 25.5302 43.9198 24.2881C43.1221 24.3096 41.599 22.5891 41.0202 23.1402Z" fill="#804BFF" stroke="black" stroke-width="0.0573169"/>
<path fill-rule="evenodd" clip-rule="evenodd" d="M38.8348 22.7933C39.2982 22.4313 40.1666 22.3243 40.8533 22.6853C41.4263 22.9745 42.3946 24.1451 43.1084 24.4225C42.9222 24.4659 42.7269 24.4752 42.5343 24.4499C42.3416 24.4245 42.1554 24.365 41.9866 24.2749C41.3691 24.7459 41.1479 24.8139 40.5071 24.9073C39.6212 25.0361 38.8756 24.7945 38.6072 24.3134C38.3279 23.8597 38.4243 23.1318 38.8348 22.7933Z" fill="#804BFF" stroke="black" stroke-width="0.0596336"/>
<path d="M40.1891 23.5837C40.4286 23.5879 40.6247 23.4846 40.627 23.353C40.6293 23.2214 40.437 23.1114 40.1974 23.1072C39.9579 23.103 39.7618 23.2063 39.7595 23.3379C39.7572 23.4694 39.9495 23.5795 40.1891 23.5837Z" fill="#FF0000" stroke="black" stroke-width="0.0550748"/>
<path d="M39.1346 24.6428C39.4512 24.5225 39.6496 24.276 39.5777 24.0923C39.5058 23.9086 39.1908 23.8572 38.8741 23.9775C38.5575 24.0978 38.3591 24.3442 38.431 24.5279C38.5029 24.7116 38.8179 24.7631 39.1346 24.6428Z" fill="#FFFF00" stroke="black" stroke-width="0.0607953"/>
<path d="M39.504 24.2449C39.5822 24.2463 39.6468 24.1839 39.6482 24.1057C39.6495 24.0274 39.5872 23.9628 39.5089 23.9615C39.4306 23.9601 39.3661 24.0224 39.3647 24.1007C39.3633 24.179 39.4257 24.2436 39.504 24.2449Z" fill="black"/>
<path fill-rule="evenodd" clip-rule="evenodd" d="M39.6973 23.6471C39.7479 23.8239 39.6081 24.0659 39.2839 24.1541C38.9542 24.2774 38.7135 24.5529 38.5883 25.0024C38.0292 23.9836 38.3326 23.5479 38.8673 23.44C39.3268 23.3072 39.6076 23.3219 39.6973 23.6471Z" fill="#FFFF00" stroke="black" stroke-width="0.0721373"/>
<path d="M38.3237 24.7356C38.3872 24.7367 38.4395 24.6862 38.4406 24.6228C38.4417 24.5593 38.3912 24.507 38.3277 24.5059C38.2643 24.5048 38.212 24.5553 38.2109 24.6188C38.2098 24.6822 38.2603 24.7345 38.3237 24.7356Z" fill="black"/>
</g>
</g>
<defs>
<clipPath id="clip0_4604_77098">
<rect width="80" height="60" fill="white"/>
</clipPath>
</defs>
</svg>
