<svg width="80" height="60" viewBox="0 0 80 60" fill="none" xmlns="http://www.w3.org/2000/svg">
<g clip-path="url(#clip0_3731_53686)">
<path fill-rule="evenodd" clip-rule="evenodd" d="M0 0H80V60H0V0Z" fill="#FFE800"/>
<path fill-rule="evenodd" clip-rule="evenodd" d="M0 30H80V60H0V30Z" fill="#00148E"/>
<path fill-rule="evenodd" clip-rule="evenodd" d="M0 45H80V60H0V45Z" fill="#DA0010"/>
<path fill-rule="evenodd" clip-rule="evenodd" d="M33.7001 36.3504L24.6251 45.9129L24.4751 45.7129L33.5251 36.1504L33.6751 36.3504H33.7001ZM40.0001 37.9129L28.1501 50.4129L27.9501 50.2129L39.7876 37.7129L40.0001 37.9129Z" fill="black"/>
<path fill-rule="evenodd" clip-rule="evenodd" d="M28.1865 50.2666L27.079 51.3741L25.8166 52.3267L26.7693 51.0644L27.8768 49.9569L28.1865 50.2666Z" fill="#808080" stroke="black" stroke-width="0.0606398"/>
<path fill-rule="evenodd" clip-rule="evenodd" d="M25.1367 45.3789L24.0292 46.4864L22.7668 47.439L23.7195 46.1767L24.827 45.0692L25.1367 45.3789Z" fill="#808080" stroke="black" stroke-width="0.0606398"/>
<path fill-rule="evenodd" clip-rule="evenodd" d="M25.9925 14.3486C25.9925 14.3486 24.9968 41.2766 28.9793 41.2766C32.9618 41.2766 34.9587 38.4446 34.9587 38.4446L34.9137 23.6446L25.9925 14.3486Z" fill="#FFDF00" stroke="black" stroke-width="0.0894427"/>
<path fill-rule="evenodd" clip-rule="evenodd" d="M28.4281 16.8613C28.4281 18.2773 27.9837 38.4453 29.9749 38.4453C31.9662 38.4453 34.9587 37.0293 34.9587 37.0293L34.9137 23.6453L28.4281 16.8613Z" fill="#0000C4" stroke="black" stroke-width="0.0894427"/>
<path fill-rule="evenodd" clip-rule="evenodd" d="M29.7217 18.2207C29.7217 19.6367 29.9748 35.6127 31.9717 35.6127H34.9586L34.9136 23.6447L29.7217 18.2207Z" fill="#E10000" stroke="black" stroke-width="0.0894427"/>
<path fill-rule="evenodd" clip-rule="evenodd" d="M25.7749 14.4998L34.8249 24.0623L34.9874 23.8623L25.9374 14.2998L25.7749 14.4998Z" fill="black"/>
<path fill-rule="evenodd" clip-rule="evenodd" d="M23.0371 19.8672C23.0371 19.8672 20.4706 45.9537 28.1701 45.9537C34.5864 45.9537 34.5864 41.8384 35.8696 41.8384L34.5864 32.2284L23.0299 19.8672H23.0371Z" fill="#FFDF00" stroke="black" stroke-width="0.0999444"/>
<path d="M29.3974 24.2037C29.4524 24.1995 31.3999 19.985 36.2674 17.3174" stroke="black" stroke-width="0.108269"/>
<path fill-rule="evenodd" clip-rule="evenodd" d="M28.6007 20.2317C29.2795 20.5484 29.709 20.9129 30.1 21.3379C29.3232 21.1752 28.9225 21.1094 28.2437 20.7927C27.565 20.4759 27.0465 19.9914 26.6345 19.5994C27.1397 19.7532 27.9182 19.9132 28.6007 20.2317Z" fill="#005B00" stroke="black" stroke-width="0.0489698"/>
<path fill-rule="evenodd" clip-rule="evenodd" d="M30.3033 22.8127C30.3533 22.8977 30.3103 23.0175 30.2046 23.0762C30.0988 23.135 29.9721 23.1124 29.9208 23.0252C29.8696 22.9381 29.9151 22.8226 30.0208 22.7639C30.1266 22.7051 30.2533 22.7277 30.3033 22.8127Z" fill="#FF0000" stroke="black" stroke-width="0.0335875"/>
<path fill-rule="evenodd" clip-rule="evenodd" d="M32.4362 17.5336C32.1421 18.2802 31.8176 18.7723 31.4436 19.2313C31.6117 18.4006 31.6831 17.9743 31.9772 17.2276C32.2713 16.481 32.7006 15.8817 33.0476 15.4047C32.8978 15.9507 32.7319 16.7829 32.4362 17.5336Z" fill="#005B00" stroke="black" stroke-width="0.0461669"/>
<path fill-rule="evenodd" clip-rule="evenodd" d="M31.4433 17.4949C31.3754 18.2415 31.2266 18.8198 31.0311 19.4062C30.98 18.6806 30.9419 18.318 31.0098 17.5714C31.0776 16.8248 31.2859 16.098 31.4559 15.516C31.4583 16.0189 31.5115 16.7441 31.4433 17.4949Z" fill="#005B00" stroke="black" stroke-width="0.0398615"/>
<path fill-rule="evenodd" clip-rule="evenodd" d="M32.0918 18.3491C31.7071 18.8016 31.3836 18.9979 31.0436 19.1254C31.3863 18.4979 31.5541 18.1641 31.9388 17.7116C32.3234 17.2591 32.7356 17.0466 33.0666 16.8816C32.8204 17.2635 32.4785 17.8941 32.0918 18.3491Z" fill="#005B00" stroke="black" stroke-width="0.0432966"/>
<path fill-rule="evenodd" clip-rule="evenodd" d="M28.8149 18.9813C29.2674 19.5243 29.4924 20.0473 29.6624 20.6253C29.0699 20.2223 28.7574 20.0343 28.3049 19.4913C27.8524 18.9483 27.5974 18.2683 27.3974 17.7203C27.7649 18.0348 28.3599 18.4353 28.8149 18.9813Z" fill="#005B00" stroke="black" stroke-width="0.0495432"/>
<path fill-rule="evenodd" clip-rule="evenodd" d="M27.9042 23.1663C28.4698 23.6188 28.7683 24.0853 29.0063 24.6123C28.2867 24.3138 27.9088 24.1798 27.3432 23.7273C26.7775 23.2748 26.4333 22.6628 26.1623 22.1688C26.613 22.4155 27.3354 22.7113 27.9042 23.1663Z" fill="#005B00" stroke="black" stroke-width="0.0526016"/>
<path fill-rule="evenodd" clip-rule="evenodd" d="M30.5529 22.9178C30.1004 23.6418 29.6109 24.1283 29.0499 24.5873C29.3204 23.7933 29.4374 23.3868 29.8899 22.6628C30.3424 21.9388 30.9884 21.3438 31.5104 20.8698C31.2752 21.3946 31.0079 22.1898 30.5529 22.9178Z" fill="#005B00" stroke="black" stroke-width="0.0540371"/>
<path fill-rule="evenodd" clip-rule="evenodd" d="M31.0258 22.8893C30.3018 23.387 29.6716 23.646 29.0001 23.85C29.6191 23.2123 29.9193 22.877 30.6433 22.3793C31.3673 21.8815 32.1748 21.584 32.8238 21.35C32.3709 21.7485 31.7538 22.3888 31.0258 22.8893Z" fill="#005B00" stroke="black" stroke-width="0.0519301"/>
<path fill-rule="evenodd" clip-rule="evenodd" d="M35.9069 17.686C35.5902 18.048 35.3062 18.2625 35.0002 18.4495C35.2609 18.0175 35.3862 17.793 35.7029 17.431C36.0197 17.069 36.3852 16.814 36.6792 16.612C36.4852 16.8888 36.2254 17.322 35.9069 17.686Z" fill="#005B00" stroke="black" stroke-width="0.0275007"/>
<path fill-rule="evenodd" clip-rule="evenodd" d="M35.2206 16.6189C35.0396 17.0035 34.8461 17.2925 34.6251 17.5815C34.7361 17.1969 34.7846 17.0035 34.9656 16.6189C35.1466 16.2342 35.4016 15.873 35.6076 15.584C35.5124 15.8475 35.4026 16.2321 35.2206 16.6189Z" fill="#005B00" stroke="black" stroke-width="0.0228451"/>
<path fill-rule="evenodd" clip-rule="evenodd" d="M36.2801 17.3088C35.9633 17.4898 35.7253 17.5453 35.4873 17.5623C35.8041 17.2833 35.9633 17.1328 36.2801 16.9518C36.5968 16.7708 36.8943 16.7198 37.1323 16.6818C36.9153 16.8461 36.5986 17.1268 36.2801 17.3088Z" fill="#005B00" stroke="black" stroke-width="0.0250413"/>
<path fill-rule="evenodd" clip-rule="evenodd" d="M31.9091 19.3371C31.3434 19.6764 30.8782 19.8739 30.3937 20.0439C30.9103 19.6346 31.1649 19.4214 31.7306 19.0821C32.2962 18.7427 32.8869 18.5089 33.3609 18.3239C32.9936 18.5852 32.4778 18.9958 31.9091 19.3371Z" fill="#005B00" stroke="black" stroke-width="0.0314413"/>
<path fill-rule="evenodd" clip-rule="evenodd" d="M33.5599 19.8439C32.8133 20.2964 32.1776 20.5099 31.5061 20.6629C32.1617 20.0564 32.4818 19.7354 33.2284 19.2829C33.9751 18.8304 34.7868 18.5924 35.4388 18.4064C34.9647 18.7797 34.3107 19.3889 33.5599 19.8439Z" fill="#005B00" stroke="black" stroke-width="0.052336"/>
<path d="M28.4862 27.1666C28.5343 27.1391 28.0793 23.1691 31.1164 19.0396" stroke="black" stroke-width="0.106572"/>
<path fill-rule="evenodd" clip-rule="evenodd" d="M33.1407 18.8C33.1907 18.885 33.1477 19.0048 33.042 19.0635C32.9362 19.1223 32.8095 19.0997 32.7582 19.0125C32.707 18.9254 32.7525 18.8099 32.8582 18.7512C32.964 18.6924 33.0907 18.715 33.1407 18.8Z" fill="#FF0000" stroke="black" stroke-width="0.0335875"/>
<path fill-rule="evenodd" clip-rule="evenodd" d="M34.4908 18.012C34.5408 18.097 34.4978 18.2167 34.3921 18.2755C34.2863 18.3342 34.1596 18.3116 34.1083 18.2245C34.0571 18.1373 34.1026 18.0218 34.2083 17.9631C34.3141 17.9043 34.4408 17.927 34.4908 18.012Z" fill="#FF0000" stroke="black" stroke-width="0.0335875"/>
<path fill-rule="evenodd" clip-rule="evenodd" d="M30.7237 20.6591C30.7587 20.7241 30.6935 20.8268 30.576 20.8856C30.4585 20.9443 30.3346 20.9382 30.2987 20.8716C30.2629 20.8049 30.3299 20.7054 30.4474 20.6467C30.5649 20.5879 30.6887 20.5941 30.7237 20.6591Z" fill="#FF0000" stroke="black" stroke-width="0.0302835"/>
<path fill-rule="evenodd" clip-rule="evenodd" d="M31.1236 20.4843C31.1586 20.5493 31.0934 20.652 30.9759 20.7108C30.8584 20.7695 30.7345 20.7634 30.6986 20.6968C30.6628 20.6301 30.7298 20.5306 30.8473 20.4719C30.9648 20.4131 31.0886 20.4193 31.1236 20.4843Z" fill="#FF0000" stroke="black" stroke-width="0.0302835"/>
<path fill-rule="evenodd" clip-rule="evenodd" d="M30.8863 20.8593C30.9213 20.9243 30.8561 21.027 30.7386 21.0858C30.6211 21.1445 30.4972 21.1384 30.4613 21.0718C30.4255 21.0051 30.4925 20.9056 30.61 20.8469C30.7275 20.7881 30.8513 20.7943 30.8863 20.8593Z" fill="#FF0000" stroke="black" stroke-width="0.0302835"/>
<path fill-rule="evenodd" clip-rule="evenodd" d="M31.5877 20.9125C31.6377 21.0125 31.5877 21.1375 31.4627 21.2C31.3377 21.2625 31.2127 21.225 31.1627 21.1125C31.1127 21 31.1627 20.8875 31.2877 20.825C31.4127 20.7625 31.5377 20.8 31.5752 20.9125H31.5877Z" fill="#FF0000" stroke="black" stroke-width="0.0375"/>
<path fill-rule="evenodd" clip-rule="evenodd" d="M31.8751 20.6121C31.9126 20.7121 31.8751 20.8371 31.7501 20.8996C31.6251 20.9621 31.5001 20.9246 31.4376 20.8246C31.3751 20.7246 31.4376 20.5871 31.5626 20.5246C31.6876 20.4621 31.8126 20.5121 31.8626 20.6121H31.8751Z" fill="#FF0000" stroke="black" stroke-width="0.0375"/>
<path fill-rule="evenodd" clip-rule="evenodd" d="M31.9373 20.7501C31.9873 20.8501 31.9373 20.9876 31.8123 21.0376C31.6873 21.0876 31.5623 21.0626 31.5123 20.9626C31.4623 20.8626 31.5123 20.7376 31.6373 20.6751C31.7623 20.6126 31.8873 20.6501 31.9373 20.7501Z" fill="#FF0000" stroke="black" stroke-width="0.0375"/>
<path fill-rule="evenodd" clip-rule="evenodd" d="M25.6035 22.6182C25.6035 23.9899 23.037 39.0947 29.4605 43.2099C32.027 44.5817 35.8767 41.8382 35.8767 43.2099L34.5935 32.2282L25.6035 22.6182Z" fill="#0000C4" stroke="black" stroke-width="0.0999444"/>
<path fill-rule="evenodd" clip-rule="evenodd" d="M28.1702 25.3613C28.1702 26.7331 26.8869 37.7148 30.7439 40.4661C33.3104 43.2096 39.7339 42.4656 39.7339 42.4656L34.5937 32.2278L28.1702 25.3613Z" fill="#E10000" stroke="black" stroke-width="0.0999444"/>
<path fill-rule="evenodd" clip-rule="evenodd" d="M22.9751 19.75L34.8251 32.25L35.0376 32.05L23.1876 19.5625L22.9876 19.7625L22.9751 19.75Z" fill="black"/>
<path fill-rule="evenodd" clip-rule="evenodd" d="M21.1519 18.268L21.9041 18.4007L22.1254 18.622C22.0951 18.6197 22.3466 18.8432 22.0369 19.153C21.7271 19.4627 21.2864 19.0185 21.2864 19.0185C21.2864 19.0185 21.4191 19.7707 21.8629 20.2145C22.3066 20.6582 22.8364 20.5685 22.8364 20.5685C22.8364 20.5685 22.3321 20.1552 22.7036 19.8162C23.0756 19.4742 23.2346 19.7277 23.2346 19.7277L23.6771 20.1702L23.9886 19.8587L22.2174 18.0875L22.0846 17.3352L20.9436 17.1462L21.1524 18.265L21.1519 18.268Z" fill="#CECECC" stroke="black" stroke-width="0.0278887"/>
<path fill-rule="evenodd" clip-rule="evenodd" d="M22.8975 13.0148L23.8077 14.4258L24.96 14.7368L24.2077 15.2236L25.5795 15.1793L26.2007 15.6231L26.4232 15.2671L25.8002 14.8221L25.3147 13.4483L25.1807 14.3796L24.4722 13.3586L22.897 13.0116L22.8975 13.0148Z" fill="#CECECC" stroke="black" stroke-width="0.0300285"/>
<path fill-rule="evenodd" clip-rule="evenodd" d="M26.5998 13.8628C26.5998 13.9378 26.4998 14.0016 26.3848 14.0016C26.2698 14.0016 26.1648 13.9378 26.1648 13.8628C26.1648 13.7878 26.2648 13.7203 26.3848 13.7203C26.5048 13.7203 26.5998 13.7841 26.5998 13.8628ZM26.2898 14.1591C26.2898 15.5016 27.3348 21.2016 27.4198 21.3403C27.4248 21.5091 27.1798 21.5803 27.0648 21.3741C26.7348 20.7216 26.0248 15.3741 25.9998 14.1253C25.9848 13.6116 26.1848 13.5703 26.4148 13.5816C26.5998 13.5891 26.8298 13.7203 26.8298 13.8778C26.8298 14.0653 26.5398 14.2041 26.2898 14.1591Z" fill="#E10000" stroke="black" stroke-width="0.057735"/>
<path fill-rule="evenodd" clip-rule="evenodd" d="M27.0002 15.1937C26.9627 15.2687 26.8358 15.3074 26.7266 15.2787C26.6173 15.2499 26.5494 15.1599 26.5869 15.0849C26.6244 15.0099 26.7532 14.9674 26.8672 14.9974C26.9812 15.0274 27.0396 15.1149 27.0002 15.1937ZM26.5576 15.4124C26.9026 18.1087 25.7452 22.2724 25.7547 22.4362C25.6769 22.6024 25.4067 22.6162 25.4024 22.3774C25.3456 22.2224 26.6779 18.4612 26.2989 15.3062C26.5416 14.7887 26.7522 14.7974 26.9651 14.8662C27.1371 14.9199 27.2899 15.1087 27.2112 15.2662C27.1174 15.4537 26.7726 15.5199 26.5576 15.4124Z" fill="#0000C4" stroke="black" stroke-width="0.060506"/>
<path fill-rule="evenodd" clip-rule="evenodd" d="M23.3377 18.9374C23.3377 19.0624 23.2127 19.1874 23.0627 19.1874C22.9127 19.1874 22.7877 19.0624 22.7877 18.9374C22.7877 18.8124 22.9127 18.7124 23.0627 18.7124C23.2127 18.7124 23.3252 18.8124 23.3252 18.9374H23.3377ZM22.9377 19.4374C22.9377 21.6749 24.2502 31.1749 24.3502 31.4124C24.3502 31.6874 24.0627 31.8124 23.9127 31.4624C23.5002 30.3749 22.6127 21.4624 22.5752 19.3874C22.5627 18.5249 22.8127 18.4624 23.1002 18.4749C23.3377 18.4874 23.6127 18.7124 23.6127 18.9749C23.6127 19.2749 23.2502 19.5124 22.9377 19.4374Z" fill="#E10000" stroke="black" stroke-width="0.0875"/>
<path fill-rule="evenodd" clip-rule="evenodd" d="M24.0124 20.0917C23.9624 20.2117 23.7999 20.2762 23.6619 20.2331C23.5239 20.19 23.4404 20.0486 23.4904 19.9286C23.5404 19.8086 23.7054 19.7381 23.8494 19.7831C23.9934 19.8281 24.0649 19.9657 24.0124 20.0917ZM23.4429 20.4495C23.7979 24.7241 22.1974 31.3646 22.2044 31.6245C22.1004 31.8903 21.7564 31.9185 21.7584 31.5393C21.6909 31.2945 23.5014 25.2892 23.1174 20.2867C23.4419 19.4591 23.7094 19.4681 23.9779 19.5723C24.1949 19.6537 24.3834 19.95 24.2784 20.202C24.1534 20.502 23.7129 20.6152 23.4429 20.4495Z" fill="#0000C4" stroke="black" stroke-width="0.0852291"/>
<path fill-rule="evenodd" clip-rule="evenodd" d="M46.3 36.3504L55.3625 45.9129L55.525 45.7129L46.4625 36.1504L46.3 36.3504ZM40 37.9129L51.85 50.4129L52.05 50.2129L40.2125 37.7129L40 37.9129Z" fill="black"/>
<path fill-rule="evenodd" clip-rule="evenodd" d="M51.8135 50.2666L52.921 51.3741L54.1834 52.3267L53.2307 51.0644L52.1232 49.9569L51.8135 50.2666Z" fill="#808080" stroke="black" stroke-width="0.0606398"/>
<path fill-rule="evenodd" clip-rule="evenodd" d="M54.8633 45.3789L55.9708 46.4864L57.2332 47.439L56.2805 46.1767L55.173 45.0692L54.8633 45.3789Z" fill="#808080" stroke="black" stroke-width="0.0606398"/>
<path fill-rule="evenodd" clip-rule="evenodd" d="M54.0075 14.3486C54.0075 14.3486 55.0032 41.2766 51.0207 41.2766C47.0382 41.2766 45.0413 38.4446 45.0413 38.4446L45.0863 23.6446L54.0075 14.3486Z" fill="#FFDF00" stroke="black" stroke-width="0.0894427"/>
<path fill-rule="evenodd" clip-rule="evenodd" d="M51.5719 16.8613C51.5719 18.2773 52.0163 38.4453 50.0251 38.4453C48.0338 38.4453 45.0413 37.0293 45.0413 37.0293L45.0863 23.6453L51.5719 16.8613Z" fill="#0000C4" stroke="black" stroke-width="0.0894427"/>
<path fill-rule="evenodd" clip-rule="evenodd" d="M50.2778 18.2207C50.2778 19.6367 50.0247 35.6127 48.0278 35.6127H45.041L45.086 23.6447L50.2778 18.2207Z" fill="#E10000" stroke="black" stroke-width="0.0894427"/>
<path fill-rule="evenodd" clip-rule="evenodd" d="M54.2247 14.4998L45.1747 24.0623L45.0122 23.8623L54.0622 14.2998L54.2247 14.4998Z" fill="black"/>
<path fill-rule="evenodd" clip-rule="evenodd" d="M47.0815 21.8843C47.0815 21.8843 49.6185 25.1393 50.8425 27.655C52.0655 30.1758 53.4935 34.0171 53.4935 34.0171C53.4935 34.0171 52.6775 30.2353 51.1375 27.2035C49.1195 23.3893 47.0805 22.1013 47.0815 21.8843Z" fill="#005B00" stroke="black" stroke-width="0.0417337"/>
<path fill-rule="evenodd" clip-rule="evenodd" d="M46.9934 19.2985C46.9934 19.2985 49.8245 23.3241 51.1168 26.3098C52.4074 29.301 53.8444 33.7848 53.8444 33.7848C53.8444 33.7848 53.1469 29.471 51.5107 25.8616C49.3542 21.3073 46.9753 19.5379 46.9934 19.2985Z" fill="#005B00" stroke="black" stroke-width="0.0482227"/>
<path fill-rule="evenodd" clip-rule="evenodd" d="M49.437 15.3182C49.437 15.3182 51.44 21.2795 52.0503 24.9657C52.6575 28.6552 53.0282 33.7327 53.0282 33.7327C53.0282 33.7327 53.414 29.4712 52.5958 24.9475C51.464 19.1557 49.354 15.503 49.437 15.3182Z" fill="#005B00" stroke="black" stroke-width="0.0547737"/>
<path fill-rule="evenodd" clip-rule="evenodd" d="M47.6387 15.0451C47.6387 15.0451 50.4124 20.3392 51.4927 23.9369C52.5702 27.5396 53.5835 32.7374 53.5835 32.7374C53.5835 32.7374 53.4372 28.0156 52.0416 23.6362C50.1695 18.0729 47.5781 15.284 47.6387 15.0451Z" fill="#005B00" stroke="black" stroke-width="0.0555036"/>
<path fill-rule="evenodd" clip-rule="evenodd" d="M50.9694 16.7305C50.9694 16.7305 52.3496 22.4305 52.6964 25.8312C53.0404 29.234 53.1389 33.8253 53.1389 33.8253C53.1389 33.8253 53.6184 30.1095 53.1371 25.9227C52.4529 20.5455 50.8951 16.8785 50.9694 16.7305Z" fill="#005B00" stroke="black" stroke-width="0.0492217"/>
<path fill-rule="evenodd" clip-rule="evenodd" d="M47.3217 16.8867C47.3217 16.8867 50.005 21.4217 51.0908 24.5917C52.1742 27.7667 53.241 32.4067 53.241 32.4067C53.241 32.4067 52.9817 28.1067 51.5861 24.2567C49.7222 19.3767 47.2725 17.1117 47.3217 16.8867Z" fill="#005B00" stroke="black" stroke-width="0.0506234"/>
<path fill-rule="evenodd" clip-rule="evenodd" d="M46.8186 20.0455C46.8186 20.0455 49.6497 23.6406 50.942 26.394C52.2326 29.153 53.6696 33.3422 53.6696 33.3422C53.6696 33.3422 52.9721 29.238 51.3359 25.9173C49.1794 21.7372 46.8005 20.2793 46.8186 20.0455Z" fill="#005B00" stroke="black" stroke-width="0.0476898"/>
<path fill-rule="evenodd" clip-rule="evenodd" d="M47.1863 18.3943C47.1863 18.3943 49.7907 22.6237 50.9244 25.6831C52.0563 28.7478 53.2613 33.2941 53.2613 33.2941C53.2613 33.2941 52.7788 28.9858 51.335 25.2802C49.4225 20.5956 47.1569 18.628 47.1863 18.3943Z" fill="#005B00" stroke="black" stroke-width="0.0475875"/>
<path fill-rule="evenodd" clip-rule="evenodd" d="M50.0067 15.4081C50.0067 15.4081 51.6811 21.2445 52.0961 24.8091C52.5077 28.3766 52.6152 33.2534 52.6152 33.2534C52.6152 33.2534 53.2132 29.2096 52.6357 24.8303C51.813 19.2174 49.9153 15.5788 50.0067 15.4081Z" fill="#005B00" stroke="black" stroke-width="0.0532434"/>
<path fill-rule="evenodd" clip-rule="evenodd" d="M47.7085 13.9534C47.7085 13.9534 50.1535 19.4513 51.0385 23.1227C51.9205 26.7989 52.6705 32.0592 52.6705 32.0592C52.6705 32.0592 52.7365 27.3429 51.5815 22.8673C50.0185 17.1737 47.6395 14.1866 47.7085 13.9534Z" fill="#005B00" stroke="black" stroke-width="0.0547386"/>
<path fill-rule="evenodd" clip-rule="evenodd" d="M51.6016 17.1475C51.6016 17.1475 52.6533 22.6208 52.8046 25.8629C52.9531 29.107 52.7884 33.4663 52.7884 33.4663C52.7884 33.4663 53.4801 29.9655 53.2395 25.9711C52.8644 20.838 51.519 17.2843 51.6016 17.1475Z" fill="#005B00" stroke="black" stroke-width="0.0473281"/>
<path fill-rule="evenodd" clip-rule="evenodd" d="M47.396 16.2198C47.396 16.2198 49.841 20.9586 50.726 24.2023C51.608 27.4508 52.358 32.1533 52.358 32.1533C52.358 32.1533 52.424 27.8588 51.269 23.9126C49.706 18.9023 47.327 16.4391 47.396 16.2198Z" fill="#005B00" stroke="black" stroke-width="0.0517292"/>
<path fill-rule="evenodd" clip-rule="evenodd" d="M56.9629 19.8672C56.9629 19.8672 59.5294 45.9537 51.8299 45.9537C45.4136 45.9537 45.4136 41.8384 44.1304 41.8384L45.4136 32.2284L56.9701 19.8672H56.9629Z" fill="#FFDF00" stroke="black" stroke-width="0.0999444"/>
<path fill-rule="evenodd" clip-rule="evenodd" d="M54.3965 22.6182C54.3965 23.9899 56.963 39.0947 50.5395 43.2099C47.973 44.5817 44.1233 41.8382 44.1233 43.2099L45.4065 32.2282L54.3965 22.6182Z" fill="#0000C4" stroke="black" stroke-width="0.0999444"/>
<path fill-rule="evenodd" clip-rule="evenodd" d="M51.8298 25.3623C51.8298 26.7341 53.1131 37.7158 49.2561 40.4671C46.6896 43.2106 40.2661 42.4666 40.2661 42.4666L45.4063 32.2288L51.8298 25.3623Z" fill="#E10000" stroke="black" stroke-width="0.0999444"/>
<path fill-rule="evenodd" clip-rule="evenodd" d="M57.0249 19.75L45.1749 32.25L44.9624 32.05L56.8124 19.5625L57.0249 19.7625V19.75Z" fill="black"/>
<path fill-rule="evenodd" clip-rule="evenodd" d="M58.8481 18.268L58.0959 18.4007L57.8746 18.622C57.9049 18.6197 57.6534 18.8432 57.9631 19.153C58.2729 19.4627 58.7136 19.0185 58.7136 19.0185C58.7136 19.0185 58.5809 19.7707 58.1371 20.2145C57.6934 20.6582 57.1636 20.5685 57.1636 20.5685C57.1636 20.5685 57.6679 20.1552 57.2964 19.8162C56.9244 19.4742 56.7654 19.7277 56.7654 19.7277L56.3229 20.1702L56.0114 19.8587L57.7826 18.0875L57.9154 17.3352L59.0564 17.1462L58.8476 18.265L58.8481 18.268Z" fill="#CECECC" stroke="black" stroke-width="0.0278887"/>
<path fill-rule="evenodd" clip-rule="evenodd" d="M57.1025 13.0158L56.1923 14.4268L55.04 14.7378L55.7923 15.2245L54.4205 15.1803L53.7993 15.624L53.5768 15.268L54.1998 14.823L54.6853 13.4493L54.8193 14.3805L55.5278 13.3595L57.103 13.0125L57.1025 13.0158Z" fill="#CECECC" stroke="black" stroke-width="0.0300285"/>
<path fill-rule="evenodd" clip-rule="evenodd" d="M53.4124 13.8628C53.4124 13.9378 53.5124 14.0016 53.6274 14.0016C53.7424 14.0016 53.8474 13.9378 53.8474 13.8628C53.8474 13.7878 53.7474 13.7203 53.6274 13.7203C53.5074 13.7203 53.4124 13.7841 53.4124 13.8628ZM53.7224 14.1591C53.7224 15.5016 52.6774 21.2016 52.5924 21.3403C52.5874 21.5091 52.8324 21.5803 52.9474 21.3741C53.2774 20.7216 53.9874 15.3741 54.0124 14.1253C54.0274 13.6116 53.8274 13.5703 53.5974 13.5816C53.4124 13.5891 53.1824 13.7203 53.1824 13.8778C53.1824 14.0653 53.4724 14.2041 53.7224 14.1591Z" fill="#E10000" stroke="black" stroke-width="0.057735"/>
<path fill-rule="evenodd" clip-rule="evenodd" d="M52.9998 15.1937C53.0373 15.2687 53.1642 15.3074 53.2734 15.2787C53.3827 15.2499 53.4506 15.1599 53.4131 15.0849C53.3756 15.0099 53.2468 14.9674 53.1328 14.9974C53.0188 15.0274 52.9604 15.1149 52.9998 15.1937ZM53.4424 15.4124C53.0974 18.1087 54.2548 22.2724 54.2453 22.4362C54.3231 22.6024 54.5933 22.6162 54.5976 22.3774C54.6544 22.2224 53.3221 18.4612 53.7011 15.3062C53.4584 14.7887 53.2478 14.7974 53.0349 14.8662C52.8629 14.9199 52.7101 15.1087 52.7888 15.2662C52.8826 15.4537 53.2274 15.5199 53.4424 15.4124Z" fill="#0000C4" stroke="black" stroke-width="0.060506"/>
<path fill-rule="evenodd" clip-rule="evenodd" d="M56.6749 18.9374C56.6749 19.0624 56.7999 19.1874 56.9374 19.1874C57.0874 19.1874 57.2124 19.0624 57.2124 18.9374C57.2124 18.8124 57.0874 18.7124 56.9374 18.7124C56.7874 18.7124 56.6749 18.8124 56.6749 18.9374ZM57.0499 19.4374C56.7506 23.4469 56.2835 27.442 55.6499 31.4124C55.6499 31.6874 55.9374 31.8124 56.0874 31.4624C56.4999 30.3749 57.3874 21.4624 57.4249 19.3874C57.4374 18.5249 57.1874 18.4624 56.8999 18.4749C56.6624 18.4874 56.3874 18.7124 56.3874 18.9749C56.3874 19.2749 56.7499 19.5124 57.0624 19.4374H57.0499Z" fill="#E10000" stroke="black" stroke-width="0.0875"/>
<path fill-rule="evenodd" clip-rule="evenodd" d="M55.9876 20.0917C56.0376 20.2117 56.2001 20.2762 56.3381 20.2331C56.4761 20.19 56.5596 20.0486 56.5096 19.9286C56.4596 19.8086 56.2946 19.7381 56.1506 19.7831C56.0066 19.8281 55.9351 19.9657 55.9876 20.0917ZM56.5571 20.4495C56.2021 24.7241 57.8026 31.3646 57.7956 31.6245C57.8996 31.8903 58.2436 31.9185 58.2416 31.5393C58.3091 31.2945 56.4986 25.2892 56.8826 20.2867C56.5581 19.4591 56.2906 19.4681 56.0221 19.5723C55.8051 19.6537 55.6166 19.95 55.7216 20.202C55.8466 20.502 56.2871 20.6152 56.5571 20.4495Z" fill="#0000C4" stroke="black" stroke-width="0.0852291"/>
<path fill-rule="evenodd" clip-rule="evenodd" d="M35.8837 52.8196C36.4694 53.1793 37.1331 53.3686 37.8086 53.3686C38.4841 53.3686 39.1478 53.1793 39.7335 52.8196V41.8379H37.167C38.4502 45.9531 38.4502 50.0761 35.8765 52.8196H35.8837Z" fill="#E10000" stroke="black" stroke-width="0.0999444"/>
<path fill-rule="evenodd" clip-rule="evenodd" d="M37.916 42.0805C37.916 49.8243 36.0566 51.548 36.0566 53.1055C36.831 53.1055 37.3473 52.3793 37.916 51.3818C38.6904 49.8243 38.7648 41.958 38.6904 42.0805H37.916Z" fill="#0000C4" stroke="black" stroke-width="0.0824958"/>
<path fill-rule="evenodd" clip-rule="evenodd" d="M36.3671 42.0813C36.3278 46.605 34.4071 50.7963 34.7703 51.7238C35.1815 52.555 36.3671 49.825 37.9159 51.3738C38.6903 49.825 38.7646 41.9588 38.6903 42.0725H36.3671V42.0813Z" fill="#0000C4" stroke="black" stroke-width="0.0824958"/>
<path fill-rule="evenodd" clip-rule="evenodd" d="M36.5409 41.4209C36.5409 46.5096 34.7603 46.8489 34.7603 48.2059C35.5346 48.2059 36.5365 47.4641 36.5409 47.5331C37.3153 46.5096 37.3896 41.3404 37.3153 41.4209H36.5409Z" fill="#FFDF00" stroke="black" stroke-width="0.0668747"/>
<path fill-rule="evenodd" clip-rule="evenodd" d="M34.9923 41.4209C34.9529 44.3936 33.0761 46.9236 33.4392 47.5331C33.8548 48.0736 34.9923 46.5096 36.5411 47.5331C37.3154 46.5096 37.3898 41.3404 37.3154 41.4209H34.9923Z" fill="#FFDF00" stroke="black" stroke-width="0.0668747"/>
<path fill-rule="evenodd" clip-rule="evenodd" d="M44.1158 52.8196C43.5301 53.1793 42.8664 53.3686 42.1909 53.3686C41.5154 53.3686 40.8518 53.1793 40.266 52.8196V41.8379H42.8325C41.5493 45.9531 41.5493 50.0761 44.123 52.8196H44.1158Z" fill="#E10000" stroke="black" stroke-width="0.0999444"/>
<path fill-rule="evenodd" clip-rule="evenodd" d="M42.0835 42.0805C42.0835 49.8243 43.9429 51.548 43.9429 53.1055C43.1685 53.1055 42.6522 52.3793 42.0835 51.3818C41.3091 49.8243 41.2347 41.958 41.3091 42.0805H42.0835Z" fill="#0000C4" stroke="black" stroke-width="0.0824958"/>
<path fill-rule="evenodd" clip-rule="evenodd" d="M43.6324 42.0813C43.6717 46.605 45.5924 50.7963 45.2292 51.7238C44.818 52.555 43.6324 49.825 42.0836 51.3738C41.3092 49.825 41.2349 41.9588 41.3092 42.0725H43.6324V42.0813Z" fill="#0000C4" stroke="black" stroke-width="0.0824958"/>
<path fill-rule="evenodd" clip-rule="evenodd" d="M43.4586 41.4209C43.4586 46.5096 45.2393 46.8489 45.2393 48.2059C44.4649 48.2059 43.463 47.4641 43.4586 47.5331C42.6843 46.5096 42.6099 41.3404 42.6843 41.4209H43.4586Z" fill="#FFDF00" stroke="black" stroke-width="0.0668747"/>
<path fill-rule="evenodd" clip-rule="evenodd" d="M45.0072 41.4209C45.0466 44.3936 46.9235 46.9236 46.5603 47.5331C46.1447 48.0736 45.0072 46.5096 43.4585 47.5331C42.6841 46.5096 42.6097 41.3404 42.6841 41.4209H45.0072Z" fill="#FFDF00" stroke="black" stroke-width="0.0668747"/>
<path fill-rule="evenodd" clip-rule="evenodd" d="M30.2039 42.6953L28.8584 43.6688L30.2039 44.6423L30.8759 44.1555L31.2119 44.6423L31.5479 45.6158L31.8854 44.6423L32.2214 44.1555H50.2499V43.182H32.2199L31.8839 42.6925C31.8839 42.2058 31.9544 41.719 32.2214 41.719H33.5654C33.5654 41.2323 32.8934 40.2588 31.5479 40.2588C30.2039 40.2588 29.5304 41.2323 29.5304 41.719H30.8759C31.1414 41.719 31.2119 42.2058 31.2119 42.6953L30.8759 43.182L30.2024 42.6925L30.2039 42.6953Z" fill="#908F8A" stroke="black" stroke-width="0.0913954"/>
<path fill-rule="evenodd" clip-rule="evenodd" d="M34.1504 45.0554H45.9349V45.6528H34.1539L34.1504 45.0554ZM34.1504 44.4546H45.9349V45.0554H34.1539L34.1504 44.4546ZM34.1504 43.8573H45.9349V44.458H34.1539L34.1504 43.8573ZM34.1504 43.2599H45.9349V43.8573H34.1539L34.1504 43.2599ZM34.1504 42.6625H45.9349V43.2599H34.1539L34.1504 42.6625ZM34.1504 42.0618H45.9349V42.6625H34.1539L34.1504 42.0618ZM34.1504 41.4678H45.9349V42.0618H34.1539L34.1504 41.4678Z" fill="#B74D00"/>
<path d="M45.9349 45.0554H34.1504L34.1539 45.6528H45.9349V45.0554ZM45.9349 45.0554V44.4546H34.1504L34.1539 45.0554H45.9349ZM45.9349 43.8573H34.1504L34.1539 44.458H45.9349V43.8573ZM45.9349 43.8573V43.2599M45.9349 43.8573H34.1539L34.1504 43.2599H45.9349M45.9349 43.2599V42.6625M45.9349 43.2599H34.1539L34.1504 42.6625H45.9349M45.9349 42.6625V42.0618M45.9349 42.6625H34.1539L34.1504 42.0618H45.9349M45.9349 42.0618V41.4678H34.1504L34.1539 42.0618H45.9349Z" stroke="black" stroke-width="0.0618648"/>
<path fill-rule="evenodd" clip-rule="evenodd" d="M34.7124 41.4316L39.0187 45.6166H39.6343L35.3312 41.435H34.7155L34.7124 41.4316Z" fill="#908F8A" stroke="black" stroke-width="0.107171"/>
<path fill-rule="evenodd" clip-rule="evenodd" d="M34.7124 45.7432L39.0187 41.5582H39.6343L35.3312 45.7398H34.7155L34.7124 45.7432Z" fill="#908F8A" stroke="black" stroke-width="0.107171"/>
<path fill-rule="evenodd" clip-rule="evenodd" d="M34.832 41.4316V45.6166H35.4515V41.4316H34.832Z" fill="#908F8A" stroke="black" stroke-width="0.106545"/>
<path fill-rule="evenodd" clip-rule="evenodd" d="M40.25 41.4316L44.5562 45.6166H45.1719L40.8687 41.435H40.2531L40.25 41.4316Z" fill="#908F8A" stroke="black" stroke-width="0.107171"/>
<path fill-rule="evenodd" clip-rule="evenodd" d="M40.25 45.7432L44.5562 41.5582H45.1719L40.8687 45.7398H40.2531L40.25 45.7432Z" fill="#908F8A" stroke="black" stroke-width="0.107171"/>
<path fill-rule="evenodd" clip-rule="evenodd" d="M44.6821 41.4316V45.6166H45.3016V41.4316H44.6821Z" fill="#908F8A" stroke="black" stroke-width="0.106545"/>
<path fill-rule="evenodd" clip-rule="evenodd" d="M40.3818 41.4316V45.6166H41.0013V41.4316H40.3818Z" fill="#908F8A" stroke="black" stroke-width="0.106545"/>
<path fill-rule="evenodd" clip-rule="evenodd" d="M39.1318 41.4316V45.6166H39.7513V41.4316H39.1318Z" fill="#908F8A" stroke="black" stroke-width="0.106545"/>
<path fill-rule="evenodd" clip-rule="evenodd" d="M48.7237 29.4843C48.7237 36.3043 44.6927 41.8378 39.7337 41.8378C34.7747 41.8378 30.7437 36.3043 30.7437 29.4843C30.7437 22.6643 34.7674 17.123 39.7337 17.123C44.6999 17.123 48.7237 22.6565 48.7237 29.4765V29.4843ZM47.4404 29.4843C47.4404 35.5448 43.9894 40.466 39.7337 40.466C35.4779 40.466 32.0269 35.5448 32.0269 29.4843C32.0269 23.416 35.4779 18.4948 39.7337 18.4948C43.9894 18.4948 47.4404 23.416 47.4404 29.4843Z" fill="#FFDF00" stroke="black" stroke-width="0.0999444"/>
<path fill-rule="evenodd" clip-rule="evenodd" d="M43.2354 18.0995C42.1552 17.4718 40.9734 17.123 39.7337 17.123C38.4939 17.123 37.3122 17.4718 36.2319 18.0918L36.7394 19.3628C37.6511 18.801 38.685 18.5053 39.7373 18.5053C40.7896 18.5053 41.8235 18.801 42.7352 19.3628L43.2354 18.0918V18.0995Z" fill="#FFDF00" stroke="black" stroke-width="0.0999444"/>
<path fill-rule="evenodd" clip-rule="evenodd" d="M43.2603 40.5372C42.1801 41.1649 40.9983 41.5137 39.7586 41.5137C38.5188 41.5137 37.3371 41.1649 36.2568 40.5449L36.7643 39.2739C37.676 39.8357 38.7099 40.1314 39.7622 40.1314C40.8145 40.1314 41.8484 39.8357 42.7601 39.2739L43.2603 40.5449V40.5372Z" fill="#FFDF00" stroke="black" stroke-width="0.0999444"/>
<path fill-rule="evenodd" clip-rule="evenodd" d="M47.4501 29.4873C47.4501 35.5498 43.9876 40.4623 39.7376 40.4623C35.4876 40.4623 32.0376 35.5498 32.0376 29.4873C32.0376 23.4248 35.4876 18.4873 39.7376 18.4873C43.9876 18.4873 47.4501 23.4123 47.4501 29.4873Z" fill="#A7CFFF"/>
<path fill-rule="evenodd" clip-rule="evenodd" d="M47.4406 29.4845C47.5204 31.546 47.1071 32.5535 46.5779 34.7003C46.4401 34.9328 45.7804 34.1965 45.3889 33.8323C44.9974 33.468 44.8234 34.1578 44.3304 33.5998C43.8446 33.0263 43.5329 33.7548 43.1704 33.2743C42.8079 32.7938 39.4511 32.7318 39.4511 32.6853C39.7846 32.5148 41.4956 32.7008 41.2201 31.825C40.9084 30.9105 38.9726 31.794 38.7116 30.6315C38.5304 29.469 34.8256 29.4225 34.5574 29.1435C34.6661 29.5775 37.4429 29.7635 37.3776 30.8873C37.3124 31.3523 34.6444 31.484 34.3834 31.8715C34.1659 32.3598 36.4859 31.7398 36.5656 32.3365C36.5656 32.5845 36.2249 32.3365 35.0214 32.724C34.4124 32.9178 36.1379 33.5223 35.4854 33.8555C34.8329 34.1888 33.4336 34.336 33.4916 34.4755C33.7091 35.173 36.7324 35.9945 36.4351 36.1108C35.3621 36.6223 34.7966 36.9555 34.2819 37.25C32.7736 34.9855 31.9834 32.264 32.0271 29.4845C34.3254 28.601 33.8396 28.415 38.0881 28.415C42.3366 28.415 43.7431 28.5933 47.4406 29.4845Z" fill="#AFFF7B" stroke="black" stroke-width="0.0999444"/>
<path fill-rule="evenodd" clip-rule="evenodd" d="M47.4404 29.4852C46.8604 29.4852 46.2514 29.7487 45.6279 29.7487C44.9971 29.7487 44.3591 29.4774 43.7066 29.4774C43.0541 29.4774 42.3074 29.8339 41.6404 29.8339C40.9661 29.8339 40.3789 29.4852 39.7046 29.4852C39.0304 29.4852 38.3561 29.7487 37.6891 29.7487C37.0221 29.7487 36.3624 29.4774 35.7171 29.4774C35.0719 29.4774 34.4339 29.7487 33.8176 29.7487C33.2014 29.7487 32.5996 29.4774 32.0269 29.4774C32.0269 27.9662 32.2444 26.5247 32.6359 25.2072C34.5934 25.3622 33.4334 23.9904 34.5934 23.9904C34.932 23.9708 35.2706 24.0284 35.5869 24.1594C35.9031 24.2903 36.1897 24.4916 36.4276 24.7499C36.6016 24.7499 37.4716 23.8664 38.4504 23.9904C39.4219 24.1144 39.0666 26.1062 40.3644 26.2069C41.0169 26.7339 41.4011 27.0672 42.3001 27.2842C43.5834 27.4082 47.2591 27.0904 47.2809 27.2687C47.3867 28.0021 47.44 28.7431 47.4404 29.4852Z" fill="white" stroke="black" stroke-width="0.0999444"/>
<path fill-rule="evenodd" clip-rule="evenodd" d="M40.8975 35.8779C40.8975 35.5359 41.235 35.3079 41.235 34.7619C41.235 34.2159 40.935 34.2039 40.925 33.6939C40.92 33.4839 41.1825 33.2739 41.2975 33.2499C41.4125 33.2259 41.51 33.6939 41.51 33.7959C41.51 33.8979 41.3925 33.5439 41.295 33.5379C41.1975 33.5319 40.9875 33.5739 40.9875 33.6759C40.9875 33.8799 41.3575 34.1319 41.33 34.8159C41.3025 35.4879 41.0125 35.6919 41.0125 35.8959C41.0125 36.0999 41.1375 36.6639 41.1375 36.6639C41.1375 36.6639 40.895 36.2139 40.895 35.8719L40.8975 35.8779Z" fill="black" stroke="black" stroke-width="0.0516398"/>
<path fill-rule="evenodd" clip-rule="evenodd" d="M41.9775 35.828C41.9775 35.486 41.64 35.258 41.64 34.712C41.64 34.166 41.94 34.154 41.95 33.644C41.975 33.404 41.655 33.248 41.54 33.23C41.425 33.212 41.29 33.71 41.29 33.806C41.29 33.902 41.425 33.494 41.5225 33.488C41.62 33.482 41.8875 33.524 41.8875 33.626C41.8875 33.83 41.5175 34.082 41.545 34.766C41.5725 35.438 41.8625 35.642 41.8625 35.846C41.8625 36.05 41.7375 36.614 41.7375 36.614C41.7375 36.614 41.98 36.164 41.98 35.822L41.9775 35.828Z" fill="black" stroke="black" stroke-width="0.0516398"/>
<path fill-rule="evenodd" clip-rule="evenodd" d="M41.6252 33.1123C41.6252 33.2748 41.5377 33.4123 41.4377 33.4123C41.3377 33.4123 41.2627 33.2748 41.2627 33.0998C41.2627 32.9248 41.3377 32.7998 41.4377 32.7998C41.5377 32.7998 41.6252 32.9373 41.6252 33.1123ZM43.7502 34.2373H43.8002V36.6748H43.7377L43.7502 34.2373ZM44.2627 34.0373H44.3252V36.4998H44.2627V34.0373Z" fill="black"/>
<path fill-rule="evenodd" clip-rule="evenodd" d="M44.0752 35.1504V35.0879L44.5752 35.1754V35.2379L44.0752 35.1504Z" fill="black"/>
<path fill-rule="evenodd" clip-rule="evenodd" d="M36.9291 35.8575C36.9291 35.8575 38.8141 36.741 39.2274 37.268C39.6334 37.795 39.4739 37.795 39.4739 37.795L43.6571 37.9733C43.6571 37.7098 44.3966 37.7098 44.5634 37.0898C44.7301 36.4775 44.7301 36.2993 44.7301 36.2993L43.4179 36.741L43.4904 35.9505H42.3449L42.1781 36.741L39.7131 36.6558L39.8799 34.54L39.3869 34.6253L39.3144 36.6403C39.2274 36.6403 37.0089 36.028 36.9219 35.8575H36.9291Z" fill="#B74D00" stroke="black" stroke-width="0.0999444"/>
<path fill-rule="evenodd" clip-rule="evenodd" d="M33.1362 23.2379C33.1362 23.2379 35.8695 22.3699 39.8135 22.4319C43.7575 22.4939 46.4907 23.4239 46.4327 23.4239C46.3747 23.4239 45.6787 21.9979 45.6787 21.9979C45.6787 21.9979 42.8947 21.1841 39.7555 21.1221C36.6235 21.0601 33.8902 21.7421 33.9555 21.8041L33.1362 23.2379Z" fill="#FEDE00" stroke="#FEDE00" stroke-width="0.0999444"/>
<path fill-rule="evenodd" clip-rule="evenodd" d="M38.25 21.2248L39.95 21.1998L39.975 22.1873L38.275 22.2248L38.25 21.2248ZM34.35 21.7623L33.75 22.7498L35.775 22.4998L35.6125 21.5373L34.35 21.7873V21.7623ZM36.0625 21.3873L37.7625 21.2498L37.8375 22.2248L36.15 22.3748L36.0625 21.3873ZM42.175 21.2998L40.4875 21.1748L40.425 22.1748L42.1125 22.2748L42.175 21.2998ZM45.825 21.9248L46.4375 23.1248L44.6125 22.6748L44.8125 21.7123L45.8125 21.9123L45.825 21.9248ZM44.35 21.5498L42.675 21.3373L42.55 22.3123L44.2375 22.5373L44.35 21.5498Z" fill="#38A9F9"/>
<path fill-rule="evenodd" clip-rule="evenodd" d="M39.8134 23.796L39.6322 22.7498L39.0812 23.641L39.2842 22.5948L38.4649 23.1915L39.0159 22.3158L38.0444 22.5328L38.8782 21.9438L37.8994 21.75L38.8782 21.5485L38.0444 20.9595L39.0159 21.1765L38.4577 20.3008L39.2842 20.8975L39.0812 19.8513L39.6322 20.7425L39.8134 19.6963L40.0019 20.7425L40.5457 19.8513L40.3499 20.8975L41.1692 20.3008L40.6109 21.1765L41.5897 20.9595L40.7559 21.5485L41.7347 21.75L40.7559 21.9438L41.5897 22.5328L40.6109 22.3158L41.1692 23.1915L40.3499 22.5948L40.5529 23.641L40.0019 22.7498L39.8134 23.796Z" fill="#FFDF00" stroke="black" stroke-width="0.0999444"/>
<path fill-rule="evenodd" clip-rule="evenodd" d="M41.2613 21.0934C41.2613 21.6746 40.7911 22.1434 40.2068 22.1434C39.6226 22.1434 39.1523 21.6746 39.1523 21.0934C39.1523 20.5121 39.6226 20.0371 40.2068 20.0371C40.7911 20.0371 41.2613 20.5121 41.2613 21.0996V21.0934Z" fill="#FFDF00" stroke="black" stroke-width="0.0889757"/>
<path fill-rule="evenodd" clip-rule="evenodd" d="M40.0877 21.3252C40.0877 21.3877 39.9252 21.4502 39.7377 21.4502C39.5502 21.4502 39.3877 21.3877 39.3877 21.3252C39.3877 21.2627 39.5377 21.2002 39.7377 21.2002C39.9377 21.2002 40.0877 21.2502 40.0877 21.3252ZM40.8377 21.3252C40.8377 21.3877 40.7252 21.4502 40.5877 21.4502C40.4502 21.4502 40.3127 21.3877 40.3127 21.3252C40.3127 21.2502 40.4377 21.2002 40.5752 21.2002C40.7127 21.2002 40.8377 21.2502 40.8377 21.3252Z" fill="black"/>
<path d="M40.0509 21.7561L40.1239 21.7981C39.9484 21.6909 40.0284 21.7306 40.3039 22.0021C40.4612 21.9106 40.4911 21.8274 40.5888 21.7141" stroke="black" stroke-width="0.100943"/>
<path d="M39.353 22.3086L39.411 22.3706C39.2733 22.2156 39.3385 22.2931 39.643 22.4946C39.933 22.5333 40.2303 22.4016 40.4043 22.1846" stroke="black" stroke-width="0.0999444"/>
<path fill-rule="evenodd" clip-rule="evenodd" d="M35.1749 24.3496C35.1749 24.3496 35.2999 25.3496 34.5374 26.5996C33.7874 27.8371 33.8999 27.3996 33.8999 27.3996C33.8999 27.3996 34.2499 28.0871 34.1874 28.0871C34.1249 28.0871 33.5999 27.4621 33.5999 27.4621L32.9749 28.1496C32.9749 28.1496 33.5499 27.0871 33.4874 27.0871C33.4249 27.0871 33.3124 26.7121 33.3124 26.7121L33.7749 26.5246C33.7749 26.5246 34.4749 25.2246 34.4749 25.2871C34.4749 25.3496 32.3874 26.7121 32.3874 26.7121L35.1749 24.3621V24.3496ZM35.6374 24.7246C35.5749 24.7246 35.9249 25.7246 36.2249 26.2246C36.5124 26.7246 36.5124 27.3371 36.5124 27.3371L37.4999 27.8371L36.2249 25.9121L37.0374 26.2121L35.6374 24.7246ZM35.6374 27.3371C35.6374 27.3371 36.3374 28.0871 36.3874 28.3371C36.4374 28.5871 36.4499 29.1371 36.4499 29.1371L36.1624 28.5121L35.7499 29.0746C35.7499 29.0746 36.0499 28.1996 35.9874 28.1371C35.9249 28.0746 35.5249 28.4496 35.5249 28.4496C35.5249 28.4496 35.6999 27.9496 35.6999 27.8996C35.6999 27.8496 35.6999 27.5246 35.6374 27.3371ZM32.1499 29.0746C32.3874 28.8871 32.8499 28.7621 32.8499 28.7621C32.8499 28.7621 32.5624 29.2621 32.4999 29.2621C32.4374 29.2621 32.2749 29.2621 32.1499 29.0746ZM40.1624 26.3496C40.1624 26.3496 41.6749 27.2746 41.6749 27.3371C41.6749 27.3996 40.6874 26.8996 40.6874 26.8996L40.1624 26.3496ZM37.4374 24.4121C37.5624 24.4746 39.6499 26.2121 39.5874 26.2121C39.5249 26.2121 38.6624 25.7121 38.6624 25.7871V26.2121L38.1874 25.2246L38.0749 25.5996L37.4499 24.4121H37.4374ZM37.9624 27.2121L38.5374 28.3871L39.1249 28.2621C39.1249 28.2621 38.0249 27.2121 37.9624 27.2121ZM39.7624 26.4621L39.8249 27.5871C39.8249 27.5871 40.1624 27.8996 40.1624 27.8371C40.1624 27.7746 39.8249 26.5246 39.7624 26.4621Z" fill="#B7E1FF"/>
<path fill-rule="evenodd" clip-rule="evenodd" d="M22.8252 11.1873C22.8252 11.1873 25.4502 9.7373 28.4377 8.6623C30.6357 7.8547 32.9037 7.25214 35.2127 6.8623C36.0877 6.8623 37.6127 9.0873 37.8627 9.0873C38.1127 9.0873 39.1252 8.4623 40.4002 8.4623C41.6752 8.4623 42.4127 9.4623 42.6752 9.4623H44.9502C45.2002 9.4623 44.1877 6.9873 44.9502 7.1123C45.3252 7.1748 48.5502 7.6748 51.5502 8.6373C54.5502 9.6123 58.8002 11.3373 58.8002 11.3373C58.8002 11.3373 51.8627 12.2498 50.0002 11.9873C49.7502 12.1123 50.0002 13.6123 49.6252 12.9498C49.0502 12.8248 46.9127 12.4873 46.5377 12.4873C46.1627 12.4873 45.4502 12.9123 44.4377 13.1623C43.4377 13.4123 42.1627 13.7873 42.1627 13.7873L43.8127 16.3748L41.7877 17.3748C41.7877 17.3748 40.5252 14.3998 40.0127 14.3998C39.5002 14.3998 39.2627 16.4998 38.6252 16.3748C38.0002 16.2498 37.7502 14.3998 37.2377 13.8998C36.7377 13.4123 34.0627 13.2248 33.0502 12.9873C32.0502 12.7373 30.4127 12.5498 29.5252 12.2998C28.6502 12.0498 27.7502 12.9248 27.3752 12.9248C27.0002 12.9248 27.8752 12.1748 27.5002 12.0498C27.1252 11.9248 26.8752 12.4248 26.6252 12.4248C26.3752 12.4248 23.7127 11.9248 23.4627 11.7998C23.2127 11.6748 24.0877 11.1873 23.8377 11.1873H22.8252Z" fill="#984000"/>
<path fill-rule="evenodd" clip-rule="evenodd" d="M41.6824 9.94983C41.6824 10.6388 41.1159 11.1978 40.4201 11.1978C39.7244 11.1978 39.1606 10.6388 39.1606 9.94983C39.1606 9.26083 39.7244 8.70508 40.4201 8.70508C41.1159 8.70508 41.6824 9.26408 41.6824 9.94983Z" fill="#808080" stroke="#772600" stroke-width="0.110614"/>
<path fill-rule="evenodd" clip-rule="evenodd" d="M35.2837 10.1877C35.5098 9.92366 35.7899 9.52366 36.5223 9.52366C36.6911 9.45566 36.6911 9.05566 37.0826 9.05566C37.4774 9.05566 37.3627 9.45566 37.6462 9.59166C37.9263 9.72366 40.2314 9.45566 40.2314 9.45566C40.2314 9.45566 40.4542 9.65566 40.4542 9.92366C40.4542 10.1917 40.2854 10.3877 40.2314 10.3877C40.1774 10.3877 37.9263 10.1877 37.7576 10.2557C37.5888 10.3237 37.4774 10.3877 37.0826 10.3877C36.6911 10.3877 36.5763 9.92366 36.2962 9.92366C36.0161 9.92366 35.7359 9.85566 35.2837 10.1917V10.1877Z" fill="#984000" stroke="#772600" stroke-width="0.194734"/>
<path d="M42.1417 10.048H43.0395C43.3635 10.052 43.4748 10.168 43.7718 10.18H44.5582C44.8451 10.168 44.997 10.088 45.2872 10.048C45.7766 10.04 45.6112 9.99603 45.5133 9.64803C45.4256 9.38803 45.4121 9.26403 45.2872 9.11603C45.24 8.79603 45.132 8.68403 45.1185 8.31603C45.0678 8.03603 44.9733 7.84803 45.0645 7.51603C45.1927 7.74403 45.2433 7.83603 45.5707 7.85203C45.9082 7.85203 46.0398 7.84003 46.2457 7.98403C46.401 8.18003 46.6102 8.11603 46.9207 8.11603C47.1772 8.17203 47.2211 8.32803 47.4236 8.44803C47.6632 8.60803 47.8185 8.64803 48.1526 8.64803C48.4226 8.70803 48.6588 8.75203 48.8276 8.84803C48.9727 9.05203 49.1988 9.10403 49.5026 9.11603C49.6713 9.11603 49.8063 9.09603 49.9515 9.04803C50.2113 9.06403 50.4746 9.04803 50.7952 9.04803C51.0045 9.33603 51.0517 9.44403 51.4128 9.44803C51.6626 9.65603 51.8718 9.68803 52.0878 9.78003H52.9316C53.2353 9.80803 53.3298 9.95603 53.6066 10.048C53.844 10.1752 54.0874 10.2861 54.3356 10.38C54.5772 10.4319 54.8225 10.4547 55.068 10.448C55.2738 10.576 55.527 10.584 55.6856 10.712C55.9185 10.772 56.2357 10.844 56.4146 10.912C56.7116 10.96 56.8263 11.072 57.0896 11.112C57.3157 11.192 57.0153 11.256 56.8635 11.312C56.5327 11.3 56.5091 11.152 56.1885 11.112C56.0197 10.996 55.7632 11.012 55.5135 10.912H55.4595C55.6822 11.072 55.8982 11.172 55.797 11.448C55.5101 11.448 55.2772 11.404 55.0106 11.38C54.7271 11.316 54.5988 11.248 54.2816 11.248C54.5988 11.156 54.6798 11.256 54.8992 11.38C54.9802 11.7 54.8047 11.58 54.5043 11.58C54.2478 11.472 54.0926 11.34 53.7753 11.312H53.1003C53.4345 11.328 53.5053 11.476 53.718 11.648C53.7348 11.752 53.7146 11.744 53.5492 11.78C53.3737 11.6 53.1476 11.54 52.8742 11.448C52.6076 11.436 52.3275 11.408 52.0878 11.312C51.9225 11.3 51.9495 11.068 52.314 11.448C52.5333 11.6 52.611 11.728 52.5941 11.848C52.3038 11.76 52.1621 11.624 51.9765 11.512C51.724 11.4083 51.457 11.3634 51.1901 11.38C50.8998 11.288 51.2205 11.236 51.4128 11.58C51.8313 11.932 51.3588 11.78 51.1901 11.712C50.937 11.628 50.6737 11.504 50.4577 11.448C50.289 11.388 50.1405 11.332 49.9515 11.312C50.2451 11.344 50.343 11.468 50.4577 11.712C50.7547 11.952 50.4442 11.836 50.1776 11.78C50.0088 11.604 49.7895 11.512 49.6713 11.312C49.3912 11.148 49.3811 10.952 49.56 11.38C49.6038 11.516 49.5937 11.812 49.614 11.848C49.4081 11.58 49.452 11.512 49.2225 11.512C49.0638 11.384 48.8343 11.284 48.7162 11.112C48.5002 11.088 48.4867 10.996 48.2673 10.912C48.4462 11.164 48.6858 11.412 48.8276 11.648C49.0841 11.816 49.155 11.968 49.3338 12.112C49.4047 12.26 49.6038 12.38 49.3912 12.18C49.1482 11.9 48.9693 11.832 48.6048 11.648C48.3956 11.448 48.3213 11.368 48.0986 11.18C47.7948 11.064 47.913 11 48.0986 11.38C48.3112 11.612 48.4732 11.868 48.6588 12.048C48.8044 12.2541 48.975 12.4334 49.1651 12.58C49.2157 12.668 49.3676 12.684 49.1651 12.712C48.9963 12.528 48.7466 12.412 48.5475 12.244C48.2673 12.152 48.1357 11.98 47.9298 11.78C47.7948 11.544 47.5788 11.364 47.4236 11.18C47.0996 11.028 47.4877 11.324 47.5923 11.512C47.6632 11.756 47.7543 11.952 47.8151 12.18C47.9096 12.4 47.5316 12.128 47.4236 12.048C47.2016 11.8775 46.9522 11.7632 46.6912 11.712C46.4676 11.659 46.2424 11.6149 46.0162 11.58C45.7631 11.5 46.1546 11.772 46.2997 12.048C46.5832 12.364 46.0196 12.104 45.8508 12.048C45.5722 11.9919 45.2896 11.9691 45.0071 11.98C44.646 12.004 44.9058 12.06 45.0071 12.244C45.1185 12.348 45.1961 12.564 45.1758 12.644C44.9396 12.604 44.7371 12.524 44.4435 12.512C44.2072 12.604 43.9271 12.58 43.6571 12.58C43.647 12.748 43.7077 12.604 43.8258 12.78C44.0216 12.872 44.1498 12.984 44.1093 13.112H42.4792C42.3003 13.168 42.5163 13.14 42.648 13.38C42.5737 13.596 42.4792 13.512 42.2531 13.512C42.1012 13.44 41.7941 13.408 41.6355 13.312C41.4768 13.312 41.4903 13.264 41.3553 13.244C41.8278 13.644 41.5916 13.544 41.8616 13.844C41.9055 13.864 42.0135 13.912 41.9156 13.912M38.2065 16.044C38.1727 16.044 38.0985 15.828 37.9837 15.644C37.9027 15.404 37.8015 15.54 37.7002 15.176C37.7137 14.8 37.7238 14.736 37.7002 14.376C37.4707 14.184 37.3728 14.128 37.194 13.776C36.9105 13.496 37.2378 13.016 37.2918 12.664C37.0421 12.6 36.9206 13.124 36.5392 13.312C36.2625 13.532 36.5055 12.856 36.3705 12.464C36.2793 11.908 36.006 12.744 35.9047 12.98C35.7191 13.128 35.6617 13.32 35.3985 13.044C35.3985 12.84 35.5638 12.264 35.493 12.152C35.2297 12.308 34.8855 12.772 34.6121 12.844C34.3353 12.776 34.6695 12.252 34.6695 11.864C34.5682 11.824 34.1733 12.896 34.0113 12.904C33.8493 12.912 33.9202 11.864 33.8426 11.888C33.7245 12.088 33.4848 12.504 33.3195 12.648C32.9988 12.596 33.3667 11.948 33.414 11.708C33.468 11.42 33.1136 12.26 32.9246 12.312C32.7862 12.456 32.5128 12.552 32.4183 12.58C32.5263 12.332 33.0596 11.832 33.0258 11.688C32.712 11.7 32.2361 12.188 31.9695 12.248C31.794 12.248 31.551 12.316 31.5206 12.312C31.5341 11.992 32.1753 11.728 32.2766 11.532C31.9627 11.592 31.3586 11.92 31.1831 12.18C30.9738 12.232 30.7106 12.3 30.5081 12.18C30.5385 11.88 31.011 11.3 31.1156 11.108C30.8287 11.256 30.687 11.372 30.3832 11.44C30.3258 11.508 30.1638 11.652 30.2145 11.508C30.3056 11.228 30.4406 11.108 30.552 10.908C30.2988 10.964 30.2043 11.136 29.9343 11.308C29.7622 11.316 29.2695 11.904 29.1041 11.912C28.8242 12.1735 28.4975 12.3555 28.149 12.444C27.8925 12.5 27.7676 12.564 27.6427 12.712C27.771 12.444 27.9667 12.192 28.149 12.048C28.2602 11.8052 28.4392 11.6158 28.6552 11.512C28.7193 11.42 28.8948 11.396 28.7092 11.38C28.5506 11.548 28.2806 11.74 28.149 11.848C27.9768 11.976 27.7777 12.104 27.6967 12.048C27.7878 11.76 27.9498 11.688 28.0916 11.448C28.3886 11.224 28.0916 11.368 27.8655 11.448C27.7203 11.6 27.4605 11.716 27.2478 11.848C27.0116 11.92 26.853 12.088 26.5728 12.18C26.5728 12.276 26.6538 12.008 26.6876 11.912C26.9171 11.616 26.9778 11.532 27.2478 11.448C27.3153 11.332 27.3963 11.38 27.1938 11.38C27.0386 11.54 26.8293 11.628 26.6302 11.78C26.4311 11.832 26.1712 11.848 25.9012 11.848C25.5502 11.896 25.5806 11.928 25.9012 11.712C26.0801 11.512 26.2286 11.564 26.2387 11.312C26.0261 11.496 25.7662 11.632 25.5063 11.78C25.2903 11.788 25.233 11.848 25.0001 11.848C25.1115 11.712 25.179 11.54 25.3376 11.448C25.5738 11.14 25.1891 11.388 25.1115 11.448H24.2677C24.1192 11.672 24.261 11.448 24.3825 11.312C24.5276 11.224 24.6795 11.108 24.6626 11.048C24.4938 11.22 24.3015 11.3 24.1563 11.448C24.0011 11.504 23.8188 11.528 23.8188 11.58C23.9437 11.368 24.1428 11.236 24.2711 11.048C24.4601 11 24.6221 10.928 24.6626 10.848H23.8762H24.4365C24.7233 10.848 24.9663 10.816 25.2262 10.78C25.6717 10.692 25.1857 10.648 24.9427 10.648C24.8988 10.544 25.0845 10.488 25.2802 10.448C25.449 10.352 25.6616 10.268 25.8438 10.18C26.0047 10.122 26.1564 10.0328 26.2927 9.91603C26.124 9.92403 26.124 9.97203 25.9552 9.98003C26.2083 9.96003 26.3872 9.91603 26.6876 9.91603C26.935 9.81938 27.1783 9.70858 27.4166 9.58403C27.5178 9.44003 27.5583 9.44803 27.3052 9.44803C27.5313 9.36403 27.852 9.32003 28.0342 9.24803C28.2669 9.19028 28.4933 9.10172 28.7092 8.98403C28.8746 8.85203 28.9691 8.69603 29.1581 8.58403C29.3775 8.76003 29.3808 8.78403 29.7757 8.78403C30.093 8.78003 30.2887 8.68803 30.4507 8.51603C30.6937 8.43603 30.7376 8.30003 31.0143 8.25203C31.2744 8.30045 31.5375 8.32186 31.8007 8.31603C32.0707 8.23203 32.3306 8.07603 32.5297 7.91603C32.7018 7.81603 32.9077 7.67203 33.0933 7.58403C33.2958 7.70803 33.4578 7.80803 33.711 7.85203C33.9708 7.80403 34.1092 7.65203 34.3286 7.58403C34.4639 7.41336 34.641 7.29725 34.8348 7.25203C35.1622 7.06003 35.1386 7.31203 35.2837 7.51603C35.4525 7.72403 35.6685 7.62403 35.9013 7.71603C36.033 7.95603 36.1275 8.11603 36.2962 8.24803C36.4278 8.44003 36.5831 8.48803 36.8598 8.51603C36.9611 8.67603 36.8801 8.78803 37.0826 8.84803C37.1636 8.95203 37.302 8.99203 37.4201 9.04803" stroke="#772600" stroke-width="0.128598"/>
<path d="M41.4937 14.3445V14.3765C41.4937 14.2845 41.4937 14.3365 41.5511 14.5125C41.5713 14.6565 41.5241 14.6405 41.4667 14.7445C41.4566 14.8925 41.4397 15.0005 41.4397 15.1765C41.4194 15.3205 41.3519 15.4565 41.2979 15.5765C41.2439 15.7005 41.0111 15.7725 41.0178 15.9445C40.8828 15.9885 40.8794 15.8845 40.8761 15.7085C40.7951 15.6005 40.7681 15.4525 40.7073 15.3085C40.6736 15.1725 40.5926 15.0685 40.5386 14.9085C40.4576 14.7605 40.3867 14.7165 40.3158 14.5445C40.2854 14.4645 40.2922 14.3605 40.2314 14.3125C40.1403 14.1725 40.0796 14.1525 39.9209 14.1445C39.7994 14.1765 39.7522 14.2405 39.6408 14.2765C39.5531 14.3125 39.3843 14.3005 39.2763 14.3445C39.2493 14.3965 39.3303 14.4245 39.3607 14.5445C39.2864 14.6165 39.2594 14.7405 39.2189 14.8445C39.1514 14.9445 39.1076 14.9925 39.0772 15.1445C39.1244 15.2365 39.0839 15.3605 39.0232 15.4445C39.0029 15.5965 38.9388 15.6805 38.9084 15.8085C38.8207 15.8845 38.7869 15.9525 38.7127 16.0765C38.6486 16.1845 38.5912 16.1765 38.4326 16.1765C38.3077 16.1365 38.2908 16.0565 38.1794 16.0085C38.1693 15.9685 38.1592 15.9565 38.1221 15.9445" stroke="#782600" stroke-width="0.113901"/>
<path fill-rule="evenodd" clip-rule="evenodd" d="M38.4499 15.6875C38.4499 15.6875 38.3999 16.3125 37.9999 16.725C37.5999 17.1375 36.7749 17.6125 36.7749 17.6125C36.7749 17.6125 37.8874 17.0875 37.9999 17.2C38.1249 17.325 37.2874 18.2375 37.2874 18.2375C37.2874 18.2375 38.3749 17.275 38.5124 17.275C38.6499 17.275 38.9624 18.2125 39.0874 18.1875C39.1999 18.1625 38.8374 17 38.8874 16.8125C38.9374 16.6375 38.8874 15.65 38.8874 15.65L38.4624 15.6875H38.4499ZM41.0124 15.6125C41.0124 15.6125 40.9624 16.275 40.5624 16.7125C40.1624 17.15 39.3374 17.6625 39.3374 17.6625C39.3374 17.6625 40.4499 17.1 40.5624 17.225C40.6874 17.35 39.8499 18.325 39.8499 18.325C39.8499 18.325 40.9374 17.3 41.0749 17.3C41.2124 17.3 41.5249 18.3 41.6499 18.275C41.7624 18.25 41.3999 17 41.4499 16.8125C41.4999 16.6125 41.4499 15.5625 41.4499 15.5625L41.0124 15.6125ZM37.4249 9.6125C37.4249 9.725 37.2999 9.825 37.1624 9.825C37.0249 9.825 36.8874 9.725 36.8874 9.6C36.8874 9.475 37.0124 9.375 37.1624 9.375C37.3124 9.375 37.4249 9.475 37.4249 9.6V9.6125Z" fill="#812E00"/>
</g>
<defs>
<clipPath id="clip0_3731_53686">
<rect width="80" height="60" fill="white"/>
</clipPath>
</defs>
</svg>
