<svg width="80" height="60" viewBox="0 0 80 60" fill="none" xmlns="http://www.w3.org/2000/svg">
<g clip-path="url(#clip0_3731_53723)">
<path d="M0 40H80V60H0V40Z" fill="black"/>
<path d="M0 20H80V40H0V20Z" fill="white"/>
<path d="M0 0H80V20H0V0Z" fill="#CE1126"/>
<path d="M40.0798 30.2396L46.9298 36.5996L46.4398 25.0496C46.3698 23.2996 44.8498 23.6996 43.7398 24.3296C42.6298 25.0496 41.3398 25.0496 39.9998 24.5796C38.6498 25.0496 37.3698 25.0496 36.2598 24.3296C35.1598 23.6996 33.6298 23.2996 33.5598 25.0496L33.0698 36.5996L40.0798 30.2396Z" fill="white" stroke="#C09300" stroke-width="0.13" stroke-linejoin="round"/>
<path d="M34.3498 24.6504L33.8698 35.8804L33.0698 36.6004L33.5598 25.0504C33.7961 24.8692 34.064 24.7336 34.3498 24.6504ZM35.3098 25.4504L34.9098 34.8504L34.1098 35.6704L34.5898 24.8204C34.7498 24.9804 35.2198 25.3704 35.3098 25.4504ZM36.1798 26.1704L35.8698 34.0104L35.2198 34.6404L35.6198 25.7004C35.7798 25.8504 36.0998 26.0804 36.1798 26.1704ZM37.1298 26.5704L36.8198 33.2504L36.1898 33.7604L36.4998 26.3304C36.6598 26.4004 36.9698 26.5704 37.1298 26.5704ZM38.0098 26.5704L37.7798 32.1404L37.1298 32.7704L37.3798 26.6404C37.5298 26.6404 37.9398 26.6404 38.0098 26.5704Z" fill="#C09300"/>
<path d="M45.6497 24.6504L46.1297 35.8804L46.9297 36.6004L46.4397 25.0504C46.2034 24.8692 45.9356 24.7336 45.6497 24.6504ZM44.6897 25.4504L45.0897 34.8504L45.8897 35.6704L45.4097 24.8204C45.2497 24.9804 44.7797 25.3704 44.6897 25.4504ZM43.8197 26.1704L44.1297 34.0104L44.7797 34.6404L44.3797 25.7004C44.2197 25.8504 43.8997 26.0804 43.8197 26.1704ZM42.8697 26.5704L43.1797 33.2504L43.8097 33.7604L43.4997 26.3304C43.3397 26.4004 43.0297 26.5704 42.8697 26.5704ZM41.9897 26.5704L42.2197 32.1404L42.8697 32.7704L42.6197 26.6404C42.4697 26.6404 42.0597 26.6404 41.9897 26.5704Z" fill="#C09300"/>
<path d="M40.3197 31.5L41.2797 35.88L40.9597 36.2L40.6297 35.95L40.0897 32.05L40.3197 35.95L39.9997 36.35L39.6897 35.95L39.9197 32.05L39.3697 35.95L39.0397 36.2L38.7197 35.88L39.6797 31.51H40.3197V31.5Z" fill="#C09300" stroke="#C09300" stroke-width="0.11"/>
<path d="M37.8499 29.5801L35.9399 36.3501L38.5699 36.7501L39.6799 31.6601L37.8499 29.5801Z" fill="white" stroke="#C09300" stroke-width="0.12" stroke-linejoin="round"/>
<path d="M37.2197 31.9005L37.4497 32.4505L38.6897 31.2705" stroke="#C09300" stroke-width="0.13" stroke-linejoin="round"/>
<path d="M38.0799 30.5L38.3399 32.93L39.1299 31.89M38.8099 32.29L39.2399 33.79M39.4099 33.24L38.5399 34.56M38.8099 35.88L38.5299 34.56M38.5299 34.56L38.2899 33.22L37.6999 34.01L37.4499 33.1L36.6299 33.94L37.0399 35.46L37.6199 34.52L37.9299 35.48L38.5299 34.56Z" stroke="#C09300" stroke-width="0.13" stroke-linejoin="round"/>
<path d="M36.5 36.2002L37.03 35.4502L37.37 36.6002L37.85 35.8002L38.16 36.7602" stroke="#C09300" stroke-width="0.13" stroke-linejoin="round"/>
<path d="M42.1501 29.5801L44.0601 36.3501L41.4301 36.7501L40.3201 31.6601L42.1501 29.5801Z" fill="white" stroke="#C09300" stroke-width="0.12" stroke-linejoin="round"/>
<path d="M42.7803 31.9005L42.5503 32.4505L41.3103 31.2705" stroke="#C09300" stroke-width="0.13" stroke-linejoin="round"/>
<path d="M41.9201 30.5L41.6601 32.93L40.8701 31.89M41.1901 32.29L40.7601 33.79M40.5901 33.24L41.4601 34.56M41.1901 35.88L41.4701 34.56M41.4701 34.56L41.7101 33.22L42.3001 34.01L42.5501 33.1L43.3701 33.94L42.9601 35.46L42.3801 34.52L42.0701 35.48L41.4701 34.56Z" stroke="#C09300" stroke-width="0.13" stroke-linejoin="round"/>
<path d="M43.5 36.2002L42.97 35.4502L42.63 36.6002L42.15 35.8002L41.84 36.7602" stroke="#C09300" stroke-width="0.13" stroke-linejoin="round"/>
<path d="M39.9997 39.3799C41.9997 39.3799 43.8997 39.2199 45.0197 38.9099C45.4897 38.8199 45.4897 38.5799 45.4897 38.2599C45.9697 38.0999 45.7297 37.5399 46.0597 37.5399C45.7197 37.6399 45.6597 36.9899 45.2597 37.0699C45.2597 36.5099 44.6897 36.4399 44.2197 36.5999C43.2697 36.9099 41.5897 36.9899 39.9997 36.9899C38.3997 36.9099 36.7397 36.9099 35.7797 36.5899C35.3097 36.4399 34.7497 36.5099 34.7497 37.0699C34.3497 36.9899 34.2797 37.6299 33.9497 37.5399C34.2797 37.5399 34.0297 38.1099 34.5097 38.2599C34.5097 38.5799 34.5097 38.8199 34.9897 38.9099C36.0897 39.2199 38.0097 39.3799 39.9997 39.3799Z" fill="white" stroke="#C09300" stroke-width="0.24" stroke-linecap="round" stroke-linejoin="round"/>
<path d="M37.2897 36.3497C37.9297 36.4397 38.6497 36.5097 39.2097 36.4397C39.5297 36.4397 39.7597 36.9897 39.1197 37.0697C38.5697 37.1397 37.6897 37.0697 37.2197 36.9897C36.6012 36.8814 35.9873 36.748 35.3797 36.5897C34.8197 36.3497 35.2197 35.8897 35.5397 35.9497C36.1106 36.1326 36.696 36.2664 37.2897 36.3497ZM42.7097 36.3497C42.0697 36.4397 41.3497 36.5097 40.8097 36.4397C40.4697 36.4397 40.2397 36.9897 40.8797 37.0697C41.4397 37.1397 42.3097 37.0697 42.7797 36.9897C43.1797 36.9097 44.0597 36.7597 44.6197 36.5897C45.1797 36.3497 44.7797 35.8897 44.4597 35.9497C43.8888 36.1326 43.3034 36.2665 42.7097 36.3497Z" fill="white" stroke="#C09300" stroke-width="0.13" stroke-linecap="round" stroke-linejoin="round"/>
<path d="M35.2997 36.0399C34.8197 35.9499 34.5997 36.5099 34.7497 36.8299C34.8197 36.6699 35.1497 36.6699 35.2197 36.5099C35.3097 36.2699 35.1497 36.2699 35.3097 36.0399H35.2997ZM37.2197 37.5099C37.2197 37.1899 37.5297 37.2299 37.5297 36.9099C37.5297 36.7599 37.4497 36.5099 37.2897 36.5099C37.2064 36.5147 37.1277 36.55 37.0687 36.609C37.0097 36.668 36.9745 36.7466 36.9697 36.8299C36.8997 37.1399 37.2197 37.1899 37.2197 37.5099ZM39.4897 36.5999C39.9597 36.5999 39.9097 37.2299 39.6897 37.5499C39.6897 37.3199 39.2897 37.2299 39.2897 37.0699C39.2897 36.8299 39.6497 36.8299 39.4897 36.5999ZM44.6897 36.0399C45.1797 35.9499 45.4097 36.5099 45.2497 36.8299C45.1797 36.6699 44.8497 36.6699 44.7797 36.5099C44.6897 36.2699 44.8497 36.2699 44.6897 36.0399ZM42.7997 37.4999C42.7997 37.1799 42.4797 37.2199 42.4797 36.8999C42.4797 36.7499 42.5597 36.4999 42.7197 36.4999C42.803 36.5047 42.8817 36.54 42.9407 36.599C42.9997 36.658 43.0349 36.7366 43.0397 36.8199C43.1097 37.1299 42.7897 37.1799 42.7897 37.4999H42.7997ZM40.4997 36.5999C40.0297 36.5999 40.0797 37.2299 40.2997 37.5499C40.2997 37.3199 40.6997 37.2299 40.6997 37.0699C40.6997 36.8299 40.3397 36.8299 40.4997 36.5999Z" fill="white" stroke="#C09300" stroke-width="0.13" stroke-linecap="round" stroke-linejoin="round"/>
<path d="M35.4697 36.1992C35.6297 36.1992 35.8697 36.2692 35.9397 36.3592L35.4697 36.1992ZM36.2597 36.4392C36.3397 36.4392 36.6597 36.5092 36.8097 36.5992L36.2597 36.4392ZM39.1197 36.7592C38.9697 36.7592 38.6497 36.7592 38.5697 36.8292L39.1197 36.7492V36.7592ZM38.2497 36.7592C38.1597 36.6692 37.8497 36.6692 37.6897 36.7592H38.2497ZM44.5297 36.1992C44.3601 36.2014 44.1955 36.2574 44.0597 36.3592L44.5297 36.1992ZM43.7497 36.4392C43.6497 36.4392 43.3497 36.5092 43.1897 36.5992L43.7497 36.4392ZM40.8797 36.7592C41.0297 36.7592 41.3497 36.7592 41.4397 36.8292L40.8797 36.7492V36.7592ZM41.7497 36.7592C41.8397 36.6692 42.1497 36.6692 42.3097 36.7592H41.7497Z" fill="white" stroke="#C09300" stroke-width="0.09" stroke-linecap="round" stroke-linejoin="round"/>
<path d="M35.3294 37.4595C35.2794 37.4495 35.2494 37.3995 35.2694 37.3595C35.2794 37.2895 35.3294 37.2595 35.3694 37.2795C35.4094 37.2795 35.4594 37.3395 35.4594 37.3595L35.4194 37.4295L35.3994 37.4395C35.3994 37.4595 35.3594 37.4595 35.3294 37.4595ZM40.8294 37.8495C40.8094 37.8495 40.7694 37.7995 40.7694 37.7795C40.7694 37.7395 40.8294 37.6795 40.8694 37.6795L40.9494 37.7195C40.9794 37.7495 40.9794 37.8095 40.9394 37.8395C40.9194 37.8595 40.8594 37.8595 40.8294 37.8395V37.8495ZM40.8594 38.0995C40.8194 38.0795 40.8094 38.0595 40.7994 38.0195C40.7994 37.9695 40.7994 37.9595 40.8494 37.9295L40.8894 37.9095L40.9294 37.9295C40.9694 37.9495 40.9994 37.9695 40.9994 38.0095C40.9994 38.0395 40.9694 38.0695 40.9294 38.0895C40.8994 38.1095 40.8894 38.1095 40.8594 38.0895V38.0995Z" fill="#C09300"/>
<path d="M35.7796 37C35.7396 37 35.6896 37.04 35.6596 37.06C35.5996 37.07 35.5196 37.11 35.4596 37.06C35.3996 37.05 35.3196 37.06 35.3096 37.14C35.3196 37.21 35.4096 37.24 35.4696 37.2C35.5096 37.15 35.6196 37.11 35.6396 37.2C35.5896 37.28 35.5996 37.37 35.5596 37.44C35.5596 37.49 35.5296 37.53 35.5096 37.57C35.4596 37.57 35.4096 37.57 35.3696 37.6C35.3386 37.6 35.308 37.6072 35.2802 37.6211C35.2524 37.635 35.2283 37.6552 35.2096 37.68C35.1696 37.74 35.1296 37.8 35.1196 37.88C35.1296 37.94 35.2196 37.96 35.2796 37.97L35.4796 38.03L35.7996 38.12C35.9596 38.17 36.1196 38.19 36.2796 38.23L36.3296 38.24C36.3996 38.26 36.4296 38.19 36.4296 38.14L36.5296 37.78C36.5496 37.73 36.5796 37.63 36.4896 37.65C36.4396 37.68 36.3896 37.73 36.3296 37.73C36.2396 37.73 36.2896 37.83 36.3296 37.86C36.3296 37.92 36.3096 37.99 36.2796 38.04C36.2196 38.07 36.1596 38.04 36.0996 38.02C36.0496 38.02 35.9296 37.99 35.9796 37.92L36.0296 37.74C36.0596 37.68 36.0596 37.61 36.0796 37.54C36.0396 37.47 35.9796 37.57 35.9296 37.58C35.8896 37.6 35.7696 37.61 35.8296 37.68C35.8896 37.72 35.8496 37.79 35.8296 37.85C35.8296 37.92 35.7496 37.95 35.6896 37.92C35.6296 37.92 35.5396 37.87 35.5896 37.81L35.6396 37.63L35.7096 37.43C35.7096 37.36 35.7396 37.31 35.7696 37.25C35.7696 37.18 35.8196 37.12 35.8196 37.05C35.8196 37.02 35.7996 37.01 35.7796 37.01V37ZM35.4096 37.73C35.4142 37.7274 35.4194 37.726 35.4246 37.726C35.4299 37.726 35.4351 37.7274 35.4396 37.73C35.4596 37.75 35.4596 37.77 35.4396 37.79L35.4096 37.81C35.3596 37.81 35.3496 37.8 35.3496 37.78C35.3496 37.77 35.3496 37.76 35.3796 37.75C35.3918 37.7412 35.4053 37.7345 35.4196 37.73H35.4096ZM35.3096 38.23C35.2596 38.19 35.2696 38.16 35.3396 38.1C35.3796 38.08 35.3896 38.08 35.4296 38.11C35.4896 38.16 35.4896 38.19 35.4296 38.24C35.4096 38.26 35.3996 38.26 35.3796 38.26C35.3496 38.26 35.3396 38.26 35.3096 38.24V38.23ZM35.6096 38.33C35.5873 38.3231 35.5685 38.3077 35.5573 38.2872C35.5461 38.2666 35.5434 38.2425 35.5496 38.22C35.5696 38.18 35.5796 38.17 35.6396 38.17C35.7096 38.17 35.7196 38.18 35.7296 38.24C35.7296 38.28 35.7296 38.29 35.6996 38.31C35.6885 38.3188 35.6756 38.3252 35.6618 38.3286C35.648 38.3321 35.6336 38.3325 35.6196 38.33H35.6096ZM44.5296 38.33C44.5096 38.32 44.4996 38.31 44.4996 38.28C44.4996 38.24 44.5196 38.21 44.5796 38.19C44.6396 38.16 44.6796 38.16 44.6996 38.21C44.7296 38.27 44.7296 38.29 44.6896 38.33C44.6696 38.36 44.6596 38.36 44.6096 38.36C44.5596 38.36 44.5496 38.36 44.5296 38.34V38.33ZM36.0296 38.45C35.9896 38.45 35.9696 38.41 35.9696 38.37C35.9696 38.34 35.9696 38.33 35.9896 38.31L36.0496 38.29L36.1096 38.3C36.1596 38.34 36.1696 38.38 36.1396 38.42C36.1096 38.46 36.0796 38.46 36.0196 38.45H36.0296ZM38.2096 38.55L38.1896 38.52C38.1896 38.46 38.1896 38.41 38.2096 38.35C38.2196 38.3 38.2096 38.25 38.2296 38.2L38.2696 37.92C38.2696 37.87 38.2696 37.82 38.2896 37.78C38.2996 37.7 38.2896 37.63 38.3096 37.56C38.3096 37.53 38.3396 37.46 38.3696 37.5C38.4096 37.56 38.4596 37.6 38.5096 37.65C38.5496 37.68 38.5096 37.72 38.4796 37.73C38.4396 37.74 38.4296 37.79 38.4296 37.83L38.4096 37.95C38.4096 38.02 38.4096 38.08 38.3896 38.15L38.3796 38.33L38.3596 38.45C38.3596 38.49 38.3596 38.54 38.3196 38.56C38.2896 38.58 38.2396 38.58 38.2196 38.55H38.2096ZM41.1796 37.57L41.0496 37.69C40.9896 37.74 41.0996 37.76 41.1096 37.8C41.1296 37.86 41.1296 37.92 41.1296 37.98C41.1496 38.04 41.1596 38.09 41.1496 38.15C41.1496 38.22 41.0696 38.2 41.0296 38.24C40.9796 38.26 40.9596 38.31 40.9296 38.34C40.9058 38.3902 40.8923 38.4445 40.8896 38.5C40.8896 38.55 40.8596 38.6 40.8896 38.64L40.8996 38.66H40.9496L41.0996 38.65C41.2196 38.63 41.3496 38.63 41.4696 38.62L41.6896 38.6C41.7496 38.61 41.7796 38.55 41.7796 38.5C41.7396 38.43 41.7696 38.36 41.7396 38.3C41.7196 38.22 41.7296 38.15 41.7196 38.08C41.7196 38.02 41.6496 38 41.6196 38.04C41.5796 38.08 41.5196 38.09 41.4996 38.13C41.4696 38.19 41.5596 38.19 41.5796 38.23L41.5896 38.38C41.5996 38.44 41.5396 38.44 41.4896 38.45C41.4396 38.47 41.3696 38.48 41.3396 38.42C41.3196 38.37 41.3196 38.32 41.3196 38.27C41.3196 38.17 41.2896 38.09 41.2896 38C41.2896 37.9 41.2596 37.79 41.2596 37.68C41.2596 37.63 41.2496 37.56 41.1796 37.57ZM41.1196 38.39H41.1496V38.47L41.1196 38.48C41.1065 38.4842 41.0932 38.4875 41.0796 38.49C41.073 38.4903 41.0663 38.4903 41.0596 38.49C41.0396 38.47 41.0396 38.44 41.0696 38.41L41.1196 38.39ZM38.1196 37.47C38.0896 37.47 38.0396 37.54 37.9996 37.53C37.9096 37.54 37.9196 37.63 37.9896 37.66V37.74C37.9996 37.82 37.9496 37.89 37.9596 37.97C37.9596 38.05 37.9296 38.14 37.9296 38.23C37.8996 38.32 37.8996 38.41 37.8896 38.5C37.8796 38.58 37.8196 38.55 37.7696 38.53V38.43C37.7796 38.34 37.7196 38.32 37.6496 38.31C37.5796 38.31 37.5496 38.26 37.5696 38.2C37.5996 38.16 37.6696 38.17 37.7196 38.17C37.8196 38.19 37.8096 38.06 37.7596 38.01C37.7196 37.95 37.6396 37.91 37.6196 37.85C37.6196 37.77 37.5696 37.68 37.4996 37.64C37.3896 37.63 37.2996 37.72 37.2696 37.82C37.2196 37.82 37.1696 37.84 37.1296 37.86C37.0596 37.88 36.9596 38 37.0596 38.05C37.1096 38.06 37.2796 38.1 37.1996 38.17C37.1596 38.25 37.0796 38.25 37.0096 38.23C36.9396 38.23 36.8596 38.19 36.8596 38.11C36.8496 38.03 36.8496 37.95 36.8196 37.88C36.7996 37.8 36.7096 37.82 36.6996 37.9C36.6296 37.95 36.6396 38.04 36.6896 38.1C36.7196 38.17 36.6896 38.26 36.6596 38.32C36.6396 38.42 36.5396 38.42 36.4696 38.44C36.4396 38.46 36.3096 38.44 36.3596 38.51C36.4346 38.5445 36.5184 38.555 36.5996 38.54C36.6796 38.54 36.7496 38.47 36.7996 38.4C36.8496 38.35 36.9396 38.38 37.0196 38.38C37.0896 38.38 37.1696 38.43 37.2496 38.39C37.2696 38.34 37.3696 38.24 37.3996 38.34C37.3996 38.43 37.4696 38.47 37.5496 38.46C37.6396 38.46 37.5996 38.52 37.5996 38.58C37.5996 38.67 37.6696 38.72 37.7496 38.76H37.8296C37.8996 38.73 37.9796 38.7 38.0096 38.62C38.0396 38.55 38.0396 38.47 38.0596 38.4C38.0796 38.29 38.0996 38.17 38.0996 38.06C38.1296 37.96 38.1196 37.85 38.1396 37.74L38.1696 37.51C38.1696 37.46 38.1496 37.46 38.1196 37.47ZM37.4496 37.88C37.4596 37.88 37.4696 37.9 37.4696 37.93C37.4696 37.97 37.4896 38 37.5196 38.01V38.04L37.4396 38.06C37.3896 38.06 37.3496 38.04 37.3196 38.01L37.2996 37.99L37.3296 37.97L37.3796 37.92C37.4096 37.89 37.4296 37.88 37.4496 37.88ZM44.0496 37.09C43.9921 37.0941 43.9351 37.1042 43.8796 37.12C43.7796 37.12 43.7296 37.22 43.8296 37.28C43.8896 37.43 43.9796 37.24 44.0796 37.26C44.2196 37.28 44.2296 37.44 44.2596 37.56C44.2596 37.67 44.2996 37.78 44.3296 37.89C44.4296 38 44.2596 38.07 44.1896 37.99C44.1296 37.92 43.9896 37.84 43.9196 37.93C43.8296 37.97 43.8196 38.09 43.7496 38.13C43.6296 38.16 43.6196 38.01 43.5496 37.95C43.4896 37.86 43.3796 37.85 43.2896 37.83C43.2496 37.74 43.2696 37.59 43.1896 37.53C43.1096 37.56 42.9696 37.7 43.0896 37.77C43.1896 37.87 43.0396 37.91 42.9896 37.97C42.9096 38.06 42.8896 38.17 42.8896 38.27C42.7596 38.34 42.7396 38.19 42.7196 38.1C42.7196 37.99 42.6196 38.02 42.5496 38.06C42.4496 38.1 42.4096 38.19 42.3496 38.26V38.46C42.3696 38.55 42.4696 38.51 42.5296 38.5C42.6296 38.46 42.6696 38.57 42.5896 38.63C42.5296 38.69 42.3696 38.66 42.3896 38.77H42.5496C42.6496 38.74 42.7696 38.66 42.7796 38.54C42.7996 38.44 42.9496 38.45 43.0296 38.43C43.1296 38.4 43.2596 38.39 43.2896 38.53C43.3596 38.6 43.5096 38.68 43.5896 38.58C43.6277 38.5559 43.6582 38.5215 43.6777 38.4808C43.6971 38.4401 43.7048 38.3948 43.6996 38.35C43.6896 38.27 43.8296 38.27 43.8696 38.32C43.9196 38.4 44.0796 38.38 44.1596 38.32C44.2396 38.27 44.2596 38.16 44.3796 38.16L44.9196 38.01C45.0596 37.98 44.8996 37.89 44.8596 37.83C44.7596 37.78 44.6596 38 44.5396 37.89C44.4396 37.82 44.4496 37.69 44.4196 37.58C44.3896 37.44 44.3996 37.28 44.2996 37.18C44.2396 37.11 44.1396 37.09 44.0496 37.09ZM43.3696 38.04C43.3796 38.04 43.3996 38.04 43.4196 38.06C43.4596 38.08 43.4896 38.12 43.4896 38.16C43.4896 38.18 43.4896 38.18 43.4596 38.19L43.4096 38.21C43.3896 38.21 43.3396 38.18 43.3396 38.16V38.12C43.3196 38.08 43.3196 38.08 43.3396 38.06L43.3696 38.04ZM44.0196 38.08C44.0596 38.08 44.0796 38.08 44.0996 38.11C44.1096 38.15 44.0996 38.17 44.0596 38.19L44.0096 38.21L43.9696 38.18C43.9496 38.17 43.9396 38.16 43.9396 38.14C43.9396 38.11 43.9796 38.08 44.0196 38.07V38.08ZM43.1196 38.08C43.1396 38.08 43.1496 38.08 43.1596 38.1C43.1796 38.12 43.1896 38.13 43.1896 38.16V38.22C43.1896 38.25 43.1896 38.24 43.1296 38.24C43.0696 38.24 43.0596 38.24 43.0596 38.18C43.0596 38.14 43.0596 38.13 43.0896 38.11C43.0996 38.09 43.1196 38.09 43.1296 38.09L43.1196 38.08ZM42.5796 38.23C42.5891 38.2329 42.5977 38.238 42.6046 38.245C42.6116 38.252 42.6168 38.2606 42.6196 38.27C42.6196 38.3 42.6196 38.32 42.5996 38.33C42.5696 38.34 42.5196 38.35 42.4996 38.33C42.4993 38.3267 42.4993 38.3233 42.4996 38.32C42.4796 38.31 42.4796 38.3 42.4996 38.29V38.28L42.5196 38.25C42.5258 38.2403 42.5351 38.233 42.5461 38.2293C42.557 38.2257 42.5689 38.2259 42.5796 38.23ZM43.4996 38.35L43.5496 38.36V38.42H43.4296L43.4196 38.4C43.4196 38.38 43.4196 38.37 43.4396 38.36L43.4996 38.35ZM41.7896 38.83C41.7796 38.83 41.7596 38.82 41.7796 38.81C41.7896 38.78 41.8296 38.77 41.8596 38.75C41.9141 38.7292 41.9623 38.6948 41.9996 38.65C41.9996 38.61 42.0396 38.59 42.0396 38.55L42.0296 38.41C42.0161 38.368 41.9877 38.3324 41.9496 38.31C41.9196 38.3 41.8796 38.29 41.8696 38.25C41.8696 38.22 41.8996 38.19 41.9096 38.16L41.9696 38.04C41.9996 38.01 42.0396 38.04 42.0496 38.06L42.0996 38.16C42.1296 38.19 42.1496 38.22 42.1596 38.26C42.1796 38.3 42.1996 38.33 42.1996 38.36L42.2196 38.49C42.2196 38.54 42.2196 38.6 42.1996 38.65L42.1396 38.73C42.1096 38.76 42.0796 38.79 42.0396 38.8C42.0096 38.81 41.9896 38.84 41.9496 38.84H41.7996L41.7896 38.83ZM41.0996 38.87C41.0796 38.85 41.0696 38.84 41.0696 38.81C41.0696 38.78 41.0696 38.78 41.0996 38.75C41.1396 38.71 41.1596 38.71 41.2396 38.75C41.3096 38.79 41.3396 38.79 41.3396 38.76C41.3496 38.74 41.3896 38.71 41.4396 38.71C41.4581 38.7107 41.4758 38.7178 41.4896 38.73C41.5096 38.75 41.5196 38.76 41.5196 38.8C41.5196 38.85 41.5196 38.85 41.4896 38.88C41.4596 38.9 41.4596 38.9 41.4196 38.9C41.4019 38.899 41.3848 38.8928 41.3705 38.8821C41.3563 38.8715 41.3455 38.8568 41.3396 38.84C41.3396 38.82 41.3396 38.81 41.3196 38.83L41.2996 38.84C41.2796 38.84 41.2396 38.87 41.2196 38.89L41.1696 38.9C41.1296 38.9 41.1296 38.9 41.0996 38.87ZM39.1196 37.98C39.0496 37.98 38.9796 38.04 38.9696 38.11C38.9896 38.18 39.0496 38.26 39.0096 38.33C39.0396 38.43 38.9296 38.47 38.8596 38.42C38.8196 38.32 38.7996 38.22 38.7296 38.12C38.6496 38.1 38.6196 38.23 38.5596 38.28C38.5896 38.35 38.6696 38.42 38.6796 38.51C38.6996 38.61 38.6396 38.71 38.5696 38.75C38.4996 38.82 38.3996 38.8 38.3196 38.81C38.2196 38.87 38.3896 38.89 38.4396 38.89C38.5396 38.9 38.6496 38.89 38.7396 38.81C38.8096 38.78 38.7996 38.64 38.8896 38.63L39.3696 38.66C39.4496 38.68 39.5796 38.65 39.6396 38.71C39.6396 38.81 39.7396 38.89 39.8296 38.93C39.8796 38.95 39.9296 38.88 39.9796 38.87C40.0796 38.84 40.0496 38.72 40.1096 38.67H40.6096C40.6296 38.67 40.6396 38.62 40.6696 38.6L40.6496 38.41C40.6196 38.33 40.6496 38.23 40.5996 38.16C40.5096 38.14 40.4396 38.21 40.3596 38.22C40.2596 38.26 40.1896 38.35 40.1796 38.45C40.1296 38.54 40.0396 38.43 40.0796 38.35L40.0696 38.25C40.0196 38.2 39.9296 38.22 39.8596 38.21L39.5596 38.19C39.4596 38.19 39.3696 38.2 39.2896 38.18C39.1896 38.18 39.1896 38.08 39.1896 38C39.1696 37.9848 39.1446 37.9776 39.1196 37.98ZM39.3196 38.35L39.4196 38.36H39.5496C39.6496 38.38 39.7496 38.38 39.8496 38.38C39.8696 38.38 39.8896 38.4 39.9096 38.42V38.62C39.9096 38.65 39.9096 38.69 39.8896 38.7C39.8844 38.708 39.8776 38.7148 39.8696 38.72C39.855 38.7174 39.8411 38.7116 39.829 38.7029C39.8169 38.6943 39.8068 38.683 39.7996 38.67V38.53C39.7798 38.5132 39.7554 38.5028 39.7296 38.5L39.4696 38.49L39.2696 38.48C39.2396 38.47 39.1996 38.48 39.1796 38.44C39.1596 38.42 39.1896 38.38 39.2196 38.37C39.251 38.3559 39.2852 38.3491 39.3196 38.35ZM40.4496 38.38C40.4596 38.38 40.4696 38.38 40.4696 38.41L40.4896 38.46C40.4896 38.47 40.4896 38.48 40.4696 38.48C40.4196 38.5 40.3696 38.5 40.3496 38.48C40.3496 38.47 40.3496 38.43 40.3696 38.42L40.4496 38.38Z" fill="#C09300"/>
<path d="M39.9998 32.7199C43.2598 30.2199 42.9798 26.5399 42.9798 26.5399L42.7298 26.5599C42.0398 26.5599 40.4098 26.1599 40.0298 25.6699C39.6298 26.1199 37.9498 26.5699 37.2698 26.5699L37.0198 26.5399C37.0198 26.5399 36.7298 30.2099 39.9998 32.7199Z" fill="white" stroke="#C09300" stroke-width="0.11"/>
<path d="M42.7198 26.7998H42.6398C42.0198 26.7998 40.5798 26.4898 40.0198 26.0098C39.4398 26.4498 37.9698 26.8098 37.3598 26.8098C37.3329 26.8087 37.3061 26.8054 37.2798 26.7998C37.2853 27.4317 37.3726 28.0603 37.5398 28.6698C37.9409 30.1382 38.8033 31.4388 39.9998 32.3798C41.197 31.4352 42.0593 30.1312 42.4598 28.6598C42.6261 28.0535 42.7135 27.4284 42.7198 26.7998Z" fill="white" stroke="#C09300" stroke-width="0.09"/>
<path d="M38.9398 26.5002C38.4026 26.6752 37.8442 26.7761 37.2798 26.8002L37.2898 27.2102C37.3239 27.7008 37.4077 28.1866 37.5398 28.6602C37.8086 29.6437 38.2861 30.5578 38.9398 31.3402V26.5002ZM40.9998 26.5002V31.4202C41.6849 30.6198 42.1836 29.6771 42.4598 28.6602C42.5917 28.1866 42.6755 27.7008 42.7098 27.2102L42.7198 26.8102H42.6398C42.2598 26.8102 41.5998 26.6902 40.9998 26.4902V26.5002Z" fill="#C09300"/>
<path d="M41.2298 25.3C41.2998 25.31 41.1398 24.95 41.1398 24.95C41.3198 25.13 41.9798 25.18 41.9798 25.18C41.5798 25 41.1798 23.67 41.2298 22.6C41.2698 21.54 41.0798 21.12 40.9298 20.96C40.7298 20.76 40.0798 20.58 39.6598 20.56C39.4098 20.55 39.4598 20.74 39.4598 20.74C39.0098 20.63 38.5598 20.58 38.3598 20.72C38.1798 20.84 38.1398 21.47 38.2798 21.36C38.6098 21.09 38.8998 21.34 39.0998 21.63C39.2798 21.88 39.2698 22.6 39.0098 23.45C38.7795 24.0925 38.4414 24.6911 38.0098 25.22C38.4098 25.22 38.9698 24.87 38.9698 24.87L38.8398 25.42C39.2598 25.22 39.5898 24.91 39.5898 24.91L39.9898 25.33C40.1198 25.15 40.3898 24.91 40.3898 24.91C40.3898 24.91 40.7198 25.26 41.2298 25.31V25.3Z" fill="white" stroke="#C09300" stroke-width="0.12"/>
<path d="M39.6097 22.76C39.6097 22.76 39.3897 24.4 38.9697 24.86M39.9697 22.71C39.9697 22.71 39.8697 24.38 39.5897 24.91M40.2797 22.78C40.2797 22.78 40.2797 24.6 40.3797 24.91M40.6797 22.87C40.6797 22.87 40.7597 24.4 41.1397 24.95" stroke="#C09300" stroke-width="0.13"/>
<path d="M39.1998 21.9595C39.1908 21.8435 39.1567 21.7309 39.0998 21.6295C38.8998 21.3295 38.6098 21.0895 38.2798 21.3595C38.2798 21.3595 38.3898 21.0095 38.6398 20.9995C38.8198 20.9895 39.2498 21.1395 39.6298 21.7795C39.6298 21.7795 39.3498 21.7195 39.2798 21.7795C39.1598 21.8795 39.2098 21.9595 39.2098 21.9595H39.1998Z" fill="#C09300" stroke="#C09300" stroke-width="0.03"/>
<path d="M38.2397 20.93C38.2697 20.83 38.3097 20.75 38.3697 20.72C38.5697 20.58 39.0097 20.62 39.4597 20.74C39.4597 20.74 39.4197 20.55 39.6597 20.56C40.0797 20.58 40.7197 20.76 40.9197 20.96C40.9838 21.0303 41.0346 21.1116 41.0697 21.2C40.9697 21.06 40.6897 21.07 40.6197 21.08C40.5197 21.09 40.4497 21.08 40.3097 21.12C40.2397 21.14 40.1397 21.16 40.0797 21.2C40.0397 21.24 39.9997 21.36 39.9397 21.36C39.8397 21.36 39.8397 21.34 39.8097 21.31C39.7797 21.26 39.7597 21.2 39.7197 21.21C39.6197 21.22 39.4397 21.14 39.2197 20.96C38.9897 20.78 38.8997 20.74 38.6197 20.76C38.3197 20.78 38.2397 20.95 38.2397 20.95V20.93Z" fill="#C09300" stroke="#C09300" stroke-width="0.03"/>
<path d="M39.8798 21.1902C39.946 21.1902 39.9998 21.1365 39.9998 21.0702C39.9998 21.0039 39.946 20.9502 39.8798 20.9502C39.8135 20.9502 39.7598 21.0039 39.7598 21.0702C39.7598 21.1365 39.8135 21.1902 39.8798 21.1902Z" fill="white"/>
</g>
<defs>
<clipPath id="clip0_3731_53723">
<rect width="80" height="60" fill="white"/>
</clipPath>
</defs>
</svg>
