<svg width="80" height="60" viewBox="0 0 80 60" fill="none" xmlns="http://www.w3.org/2000/svg">
<g clip-path="url(#clip0_3731_57397)">
<path d="M0 0H80V60H0V0Z" fill="#E32118"/>
<path d="M0 0H80V40H0V0Z" fill="white"/>
<path d="M0 0H80V20H0V0Z" fill="#3E9A00"/>
<path d="M0 0V60L22.5 30L0 0Z" fill="#0073CE"/>
<path d="M35.2002 23.9756H44.7752V34.0006C44.7752 37.3756 40.3752 34.7756 40.0002 36.5756C39.3502 34.7256 35.2252 37.4006 35.2252 33.8006L35.2002 23.9756Z" fill="white" stroke="black" stroke-width="0.125"/>
<path d="M40.6752 34.9756C40.6752 34.9756 40.5502 35.1006 40.3252 35.0006C40.1002 34.9006 40.0752 28.5756 40.0752 28.5756C40.5752 28.0256 40.9752 27.8506 40.9752 27.8506L41.2752 28.1006C40.1502 28.6756 40.2502 29.5006 40.3502 30.9256C40.3752 31.4506 40.3752 32.1256 40.5002 32.7756C40.6752 33.6006 41.0252 34.3006 41.0502 34.8256C41.0752 35.1506 40.6752 34.9756 40.6752 34.9756Z" fill="#73452B" stroke="black" stroke-width="0.025"/>
<path d="M39.8998 27.7002H40.3498C39.9748 31.3252 40.2998 33.4752 40.2998 34.5252C40.2998 34.8752 40.4998 35.0002 40.4748 35.0002C40.0248 35.5002 39.7998 34.9752 39.7998 34.9752L39.8998 27.7002Z" fill="#73452B" stroke="black" stroke-width="0.025"/>
<path d="M39.1999 34.975C38.7749 35.175 38.7249 34.775 38.7499 34.725C39.6749 32.85 40.0749 28.725 39.2249 28.275L39.2749 27.875C39.5999 27.975 39.8999 28.4 39.8999 28.4C40.0249 33.025 39.8999 34.925 39.8249 35C39.3749 35.475 39.1999 34.925 39.1749 34.875" fill="#A36629"/>
<path d="M39.1999 34.975C38.7749 35.175 38.7249 34.775 38.7499 34.725C39.6749 32.85 40.0749 28.725 39.2249 28.275L39.2749 27.875C39.5999 27.975 39.8999 28.4 39.8999 28.4C40.0249 33.025 39.8999 34.925 39.8249 35C39.3749 35.475 39.1999 34.925 39.1749 34.875" stroke="black" stroke-width="0.025"/>
<path d="M39.1749 34.9004C39.0999 34.5004 39.8249 33.4754 39.7749 32.4004M40.3999 33.2754C40.6249 33.9004 40.7249 34.4504 40.6749 34.9754" stroke="black" stroke-width="0.025"/>
<path d="M41.3751 26.0007C41.5251 25.8257 41.5251 25.8257 41.8001 25.8257C41.8501 25.4507 42.4751 25.4507 42.5251 25.9257C43.0251 25.8257 43.1251 26.1257 42.9251 26.4257C43.4001 26.3007 43.8251 26.4257 43.7001 26.9757C44.5501 27.2007 44.2251 27.8007 43.8501 27.9257C43.8001 28.3007 43.4501 28.4257 42.9751 28.2757C42.3751 28.7007 42.0251 28.5507 41.7501 28.1257C41.0751 28.2257 41.0251 28.0757 40.7251 27.7007C40.2001 27.9257 40.1001 27.9257 39.6501 27.6507C39.6251 28.0007 39.5001 27.9007 39.2751 27.8757C39.3001 28.3257 39.1251 28.5257 38.7251 28.3757C39.0251 29.0007 38.2501 29.2757 37.8751 28.7507C37.5251 28.7757 37.5001 28.6757 37.3251 28.5507C37.1751 29.0507 36.6251 28.9757 36.5251 28.7007C35.8251 28.6007 35.9001 28.2257 36.4751 28.2007C36.5251 27.8007 36.8751 27.8757 37.1001 27.9257C37.1251 27.6757 37.2751 27.7257 37.4001 27.7757C37.3251 27.6007 37.3751 27.5007 37.6001 27.4507C37.2751 27.0257 37.4751 26.8757 37.8001 26.7257C37.6251 26.3257 37.9251 26.3507 38.1501 26.3257C38.1251 25.9007 38.2501 25.8257 38.7001 25.7757C38.6501 25.6257 38.7251 25.5007 38.9751 25.5007C38.8251 25.0757 39.0251 24.9757 39.4751 25.0507C39.5501 24.4257 40.8751 24.7257 40.7751 25.5757C41.1501 25.6257 41.2751 25.7007 41.3751 26.0007Z" fill="#009A3B" stroke="black" stroke-width="0.025"/>
<path d="M38.6999 25.7752C38.7999 25.8252 38.9249 25.7752 38.9499 26.0502C39.1499 25.7002 39.3999 25.9002 39.3999 26.3002M40.7749 25.5752C40.6749 25.7252 40.2999 25.7252 40.3499 26.1252C40.2249 25.9502 39.9749 25.9002 39.8749 26.0752M41.3749 26.0002C41.3749 26.1002 41.3499 26.4002 41.2499 26.5502M42.9249 26.4252C42.9499 26.4502 42.5749 26.4252 42.3999 26.5502M43.8499 27.9252C43.7499 27.8752 43.5499 27.7502 43.3999 27.9502C43.3999 27.8502 43.3999 27.5752 43.1249 27.5752M42.9749 28.2752C42.9749 28.0252 42.9249 27.9502 42.8749 27.8752M42.1499 27.9252C41.9499 27.7752 41.7499 28.0002 41.7499 28.1252M40.6999 27.7002C40.6999 27.6002 40.6249 27.4002 40.7999 27.3252M37.8499 28.7502C37.8999 28.5002 38.0749 28.5002 38.0499 28.3752M38.0499 28.3752C38.0249 28.1752 37.7999 28.0002 37.5249 28.2752M38.0499 28.3752C38.1999 28.3252 38.3499 28.3502 38.3999 28.4252M37.6249 27.4502C37.7249 27.3502 37.9749 27.3752 38.1249 27.4502M38.1249 26.8502C38.2499 26.8502 38.4749 26.8002 38.5499 27.0252C38.8249 26.6002 39.0249 26.6502 39.0749 26.7502M39.5749 26.7002C39.7749 26.6252 40.1249 26.8252 40.3249 27.1752C40.4249 26.9002 40.5749 26.9502 40.7249 26.9252M41.6749 27.1752C41.9999 27.0252 42.1999 27.3252 42.2999 27.4502C42.4499 27.2502 42.5749 27.2502 42.7249 27.2502M38.6499 27.7752C38.7249 27.6502 38.8999 27.6252 39.0249 27.7002C38.9999 27.4752 39.1499 27.3752 39.2499 27.4252" stroke="black" stroke-width="0.025"/>
<path d="M39.675 22.5629L39.125 22.5879L38.85 23.0879L38.55 22.6129L38 22.6379L38.25 22.1379L37.95 21.6754L38.525 21.6504L38.775 21.1504L39.075 21.6254L39.625 21.6004L39.375 22.1004L39.675 22.5629ZM37.325 22.7504L36.775 22.8754L36.625 23.4129L36.225 23.0129L35.7 23.1379L35.85 22.6129L35.475 22.2129L36 22.0754L36.15 21.5379L36.55 21.9379L37.1 21.8129L36.925 22.3504L37.325 22.7504ZM35.05 23.2129L34.55 23.4629L34.525 24.0129L34.05 23.7129L33.55 23.9629L33.6 23.4004L33.125 23.1004L33.625 22.8504L33.675 22.2879L34.125 22.6004L34.625 22.3504L34.6 22.9004L35.05 23.2129ZM40.4 22.5629L40.95 22.5879L41.2 23.0879L41.5 22.6129L42.05 22.6379L41.8 22.1379L42.1 21.6754L41.55 21.6504L41.275 21.1504L40.975 21.6254L40.425 21.6004L40.675 22.1004L40.4 22.5629ZM42.75 22.7504L43.275 22.8754L43.425 23.4129L43.825 23.0129L44.35 23.1379L44.2 22.6129L44.6 22.2129L44.05 22.0754L43.9 21.5379L43.5 21.9379L42.975 21.8129L43.125 22.3504L42.75 22.7504ZM45 23.2129L45.5 23.4629L45.525 24.0129L46 23.7129L46.5 23.9629L46.475 23.4004L46.925 23.1004L46.425 22.8504L46.4 22.2879L45.925 22.6004L45.425 22.3504L45.475 22.9004L45 23.2129Z" fill="#FFD700" stroke="black" stroke-width="0.0875"/>
<path d="M45.6751 33.8L46.3001 34.7L46.8751 33.85L46.4751 33.125L45.6751 33.8ZM41.7001 36.425L41.7501 37.325C41.7501 37.325 42.0001 37.325 42.2251 37.25C42.4251 37.175 42.6001 37.025 42.6001 37.025L42.5751 36.55L41.7001 36.425ZM38.3501 36.425L38.3001 37.3C38.3001 37.3 38.0751 37.3 37.8501 37.25C37.6501 37.2 37.4751 37.075 37.4751 37.075L37.2251 36.475L38.3501 36.425ZM34.3251 33.8L33.6751 34.7L32.9751 33.55L33.5001 33L34.3251 33.8Z" fill="white" stroke="black" stroke-width="0.0875"/>
<path d="M37.4502 38.2254C37.4502 39.0754 42.6002 39.0754 42.6002 38.2254V37.0254C42.6002 37.6504 37.4502 37.5254 37.4502 37.0254V38.2254Z" fill="white" stroke="black" stroke-width="0.0875"/>
<path d="M32.8501 35.45C33.3001 37.75 37.4501 37.8 37.4501 37.8V37.025C37.3501 36.725 37.5251 36.625 38.2001 36.525C38.4751 36.5 38.3501 36.1 38.3501 36.1C38.3501 36.1 36.5501 36.425 35.2751 35.925C33.5501 35.225 33.3001 33.875 33.3001 33.875C33.3001 33.875 33.1751 34.925 32.8501 35.45ZM47.1751 35.45C46.7501 37.75 42.6001 37.8 42.6001 37.8V37.025C42.6751 36.725 42.5001 36.625 41.8251 36.525C41.5501 36.5 41.7001 36.1 41.7001 36.1C41.7001 36.1 43.5001 36.425 44.7751 35.925C46.4751 35.225 46.6751 33.875 46.6751 33.875C46.6751 33.875 46.8501 34.925 47.1751 35.45Z" fill="white" stroke="black" stroke-width="0.0875"/>
<path d="M33.175 34.5752C32.025 33.9502 32.925 33.3002 33.025 31.4502C33.2 32.5752 34.475 33.0502 34.325 33.7752C33.8 33.8002 33.55 33.0002 33.3 33.8752L33.175 34.5752ZM46.85 34.5752C48 33.9252 47.05 33.3002 46.95 31.4502C46.775 32.5752 45.525 33.0502 45.675 33.7752C46.175 33.8002 46.425 33.0002 46.675 33.8752L46.85 34.5502V34.5752Z" fill="white" stroke="black" stroke-width="0.0875"/>
<path d="M33.8752 35.425L34.0002 35.525L33.7252 35.825C33.6002 35.95 33.5877 36.025 33.6627 36.1C33.7502 36.1875 33.8252 36.15 33.9127 36.05L34.2252 35.725L34.3252 35.825L34.0252 36.175C33.8627 36.3625 33.7127 36.325 33.5752 36.2C33.4752 36.1 33.4002 35.95 33.5752 35.7625L33.8752 35.425ZM34.3752 35.85L34.5002 35.925L34.4752 36.525L34.7502 36.1L34.8752 36.175L34.4752 36.825L34.3252 36.75L34.3502 36.15L34.0752 36.575L33.9502 36.5L34.3752 35.85ZM34.6002 36.9L34.9502 36.2L35.0752 36.275L34.7502 36.95L34.6002 36.9ZM35.1502 36.3L34.8752 37.025L35.1502 37.125C35.4002 37.2125 35.5252 37.1 35.6002 36.8875C35.6877 36.6625 35.6502 36.5125 35.4002 36.4L35.1502 36.3ZM35.2502 36.475C35.5002 36.5625 35.5252 36.6625 35.4502 36.85C35.3752 37.0125 35.3252 37.075 35.0752 36.95L35.2502 36.475ZM35.9752 36.575L35.5252 37.25L35.7002 37.3L35.8002 37.125L36.1002 37.2L36.1252 37.375L36.3002 37.4L36.1252 36.6L35.9752 36.575ZM36.0252 36.75L36.0752 37.05L35.8752 37.025L36.0252 36.75ZM36.4002 36.6375L36.3752 37.4125H36.6627C36.9377 37.425 37.0127 37.2875 37.0252 37.0375C37.0252 36.8125 36.9377 36.6625 36.6627 36.6625L36.4002 36.6375ZM36.5502 36.7625C36.8252 36.775 36.8627 36.8625 36.8627 37.05C36.8502 37.2375 36.8127 37.3125 36.5377 37.275V36.775L36.5502 36.7625ZM39.0252 37.725V38.525H39.2002V38.225C39.2002 38.225 39.3502 38.225 39.4752 38.2C39.5627 38.175 39.6377 38.1125 39.6377 37.95C39.6377 37.8 39.5502 37.725 39.4002 37.725H39.0252ZM39.2002 37.85H39.3752C39.5127 37.85 39.5002 38.075 39.3752 38.075H39.2002V37.85ZM39.9252 37.725L39.6002 38.525H39.7752L39.8502 38.325H40.1752L40.2502 38.525H40.4252L40.1002 37.725H39.9252ZM40.0002 37.9L40.1252 38.2H39.9002L40.0002 37.9ZM40.4252 38.375L40.8502 37.85H40.4752V37.725H41.0752V37.85L40.6252 38.375H41.0752V38.525H40.4252V38.375ZM42.9502 36.825L43.1002 36.8L43.1752 37.25C43.2002 37.4125 43.1252 37.5125 43.0127 37.5625C42.8877 37.6125 42.7127 37.5625 42.7002 37.35L42.8252 37.325C42.8502 37.45 42.9002 37.4625 42.9502 37.45C43.0127 37.425 43.0377 37.35 43.0252 37.275L42.9502 36.825ZM43.2002 36.775L43.3377 36.75L43.4127 37.125C43.4377 37.2875 43.4877 37.35 43.6002 37.3375C43.7252 37.3125 43.7377 37.2375 43.7127 37.0875L43.6252 36.7L43.7752 36.675L43.8752 37.0875C43.9252 37.3375 43.8002 37.425 43.6252 37.4625C43.4877 37.4875 43.3252 37.4625 43.2752 37.2125L43.2002 36.775ZM43.9752 37.125L44.1002 37.075C44.1627 37.1875 44.2502 37.175 44.3252 37.15C44.4252 37.1 44.4502 37.0125 44.3877 36.975C44.3127 36.9375 44.1377 37 44.0502 36.975C43.9377 36.925 43.8877 36.85 43.9002 36.7625C43.9002 36.6375 44.0002 36.5875 44.1127 36.55C44.2377 36.5125 44.3627 36.525 44.4502 36.675L44.3002 36.725C44.2502 36.6375 44.1752 36.65 44.1252 36.675C44.0752 36.7 44.0002 36.7375 44.0502 36.8C44.0752 36.8625 44.2627 36.825 44.3627 36.825C44.4627 36.825 44.5377 36.9 44.5502 36.9875C44.5752 37.125 44.5252 37.2 44.3627 37.2625C44.1752 37.3375 44.0002 37.2625 43.9752 37.125ZM44.6502 36.5L44.4502 36.6L44.4002 36.475L44.9502 36.25L45.0002 36.35L44.8002 36.45L45.0252 37L44.9002 37.075L44.6502 36.5ZM44.9752 36.225L45.1002 36.15L45.4502 36.8L45.3252 36.875L44.9752 36.225ZM45.8252 36.275L45.9752 36.225C45.9945 36.2723 46.0014 36.3237 45.9952 36.3745C45.9891 36.4252 45.9701 36.4735 45.94 36.5148C45.91 36.5561 45.8699 36.589 45.8235 36.6105C45.7772 36.632 45.7261 36.6413 45.6752 36.6375C45.3002 36.6375 45.2502 36.2125 45.3127 36.075C45.4127 35.8375 45.6877 35.85 45.8127 35.975L45.6877 36.075C45.6127 35.975 45.4377 36.0375 45.4377 36.125C45.4211 36.1981 45.4293 36.2746 45.461 36.3425C45.4927 36.4104 45.546 36.4658 45.6127 36.5C45.7377 36.55 45.9127 36.4 45.8252 36.275ZM45.7502 35.75L45.8752 35.65L46.3252 36.25L46.2002 36.35L45.7502 35.75ZM46.2252 35.375L46.1002 35.475L46.3752 36.225L46.5002 36.1L46.4252 35.95L46.6502 35.75L46.8002 35.825L46.9252 35.725L46.2252 35.375ZM46.2752 35.55L46.5252 35.675L46.3752 35.825L46.2752 35.55Z" fill="black"/>
</g>
<defs>
<clipPath id="clip0_3731_57397">
<rect width="80" height="60" fill="white"/>
</clipPath>
</defs>
</svg>
