<svg width="80" height="60" viewBox="0 0 80 60" fill="none" xmlns="http://www.w3.org/2000/svg">
<g clip-path="url(#clip0_3731_57410)">
<path fill-rule="evenodd" clip-rule="evenodd" d="M0 0H80V60H0V0Z" fill="#BE0027"/>
<path fill-rule="evenodd" clip-rule="evenodd" d="M0 60L80 59.9625V30L0 60Z" fill="#B4D7F4"/>
<path fill-rule="evenodd" clip-rule="evenodd" d="M0 0L80 0.0375V30L0 0Z" fill="#239E46"/>
<path fill-rule="evenodd" clip-rule="evenodd" d="M23.2748 45.05C21.9373 45.425 21.1748 46.4625 21.1873 47.4375L27.7873 47.4125C27.8373 46.3625 26.9748 45.3875 25.6623 45C32.1123 44.875 37.7123 42.45 38.7373 40.9C37.7373 40.4625 36.5623 41.1625 35.7373 41C37.6998 40.0875 43.6123 36.2625 42.6498 32.1625C41.8998 34.4375 39.6498 36.325 38.6748 36.8375C40.8873 33.4875 43.8998 29.9875 41.2873 27.2875C41.4123 28.85 40.2873 30.575 39.7873 30.7125C41.0748 27.1625 42.2873 22.7125 39.5248 19.7875C39.8873 20.85 39.7373 23.8375 39.2373 23.975C39.0873 21.5625 38.6748 16.5 36.1373 16.5625C36.9373 17.2875 37.2873 19.2375 37.3123 21.2125C36.7966 19.8456 35.8765 18.6683 34.6748 17.8375C33.4205 15.668 31.6355 13.8529 29.4873 12.5625C29.7123 14.15 29.8998 15.4 32.1123 17.05C30.9623 16.975 29.8123 14.7875 28.5748 14.725C27.5873 14.675 26.8248 15.6125 25.2123 15.075C25.3873 15.6 26.1373 15.8375 26.2998 16.225C25.9498 16.475 25.1373 16.1875 24.4623 15.85C25.3998 17.1 26.8373 17.85 28.0623 17.6C29.5248 17.325 31.0873 17.475 32.5873 18.325C31.6619 18.5186 30.7092 18.544 29.7748 18.4C30.6373 19.275 31.2123 19.8625 32.7248 19.85C34.0623 19.85 34.7748 19.125 35.1123 19.575C35.9623 20.575 36.5248 21.575 37.2373 22.75C35.6748 22.9125 36.1498 20.9875 34.4123 20C33.4248 22 35.5373 24.4 36.9498 25.4C36.9097 26.7663 37.215 28.1205 37.8373 29.3375C38.2748 30.15 38.8373 30.9875 38.6248 32.825C37.7623 32.2 36.9373 30.1 37.2498 28.4375C36.1748 28.725 35.7498 30.6125 36.2498 31.5625C36.6248 32.275 36.8748 33.6625 36.4498 34.275C36.0248 34.85 35.9873 34.775 35.9873 36.025C35.9998 36.75 35.5873 37.625 34.9248 38.2375C35.1188 37.5979 35.1658 36.9228 35.0623 36.2625C34.5373 37.1625 33.1998 38.0875 32.7873 39.0625C32.3748 40.025 32.2748 41.7125 30.2873 42.1C27.7123 42.6 26.8248 43.05 25.1873 43.725C24.9998 42.475 25.5498 39.85 26.5998 40.0125C27.6123 40.1875 30.7248 38.9375 29.5998 36.325C29.3873 37.15 28.6623 37.95 27.8623 37.9875C28.7248 36.8875 30.2373 35.7375 29.4998 33.8875C29.0533 34.8193 28.3454 35.6011 27.4623 36.1375C28.5123 34.1375 27.5873 33.5125 26.3373 35.1875C25.8623 35.825 25.5748 37.1125 25.2748 38.75C24.7748 37.425 24.8123 35.675 24.2248 34.25C23.6248 32.7125 25.0373 32.3125 25.6998 32.4375C27.3248 32.875 30.0623 32.875 29.8623 30.175C29.1498 31.0875 27.9248 31.3625 26.5873 31.05C28.0873 29.95 29.2623 27.8875 27.5873 26.8C27.5124 27.4379 27.2802 28.0471 26.9114 28.573C26.5427 29.0988 26.049 29.5248 25.4748 29.8125C25.2064 28.7981 25.1935 27.7331 25.4373 26.7125C24.7873 27.4125 24.3123 28.8375 23.9248 30.4875C23.8873 28.8625 24.1998 27.7 24.4248 26.825C24.7748 25.5625 25.6248 26.3875 26.9248 26.475C28.1998 26.55 29.9248 25.85 29.5998 24.1375C29.1748 24.825 28.2873 25.0875 27.3873 25.0125C28.4748 24.35 30.3623 23.1875 29.3248 21.3875C28.8873 22.0625 28.7498 22.6375 27.4873 22.85C27.8123 22.1 27.8623 21.0125 28.8623 20.6C27.1123 20.2375 26.1123 21.3875 25.5873 23.1875C25.3873 21.9375 25.1373 21.4875 25.0873 20.5625C26.0373 19.525 26.1373 17.4625 24.0873 17.0125C23.953 17.7385 24.0046 18.4868 24.2373 19.1875C23.2748 18.6125 21.9248 18.3 21.0123 19.1C21.6373 19.7625 22.5748 20.35 24.0373 19.625C23.6873 20.75 22.7873 20.5625 21.5623 20.125C22.3123 21.5375 23.2623 21.7875 24.3123 21.625C24.8623 23.075 24.8873 24.175 23.2748 26.275C23.3498 24.975 23.2623 24 22.2248 22.9375C21.3248 22.0625 20.5998 22.975 21.9998 24.9125C21.1498 24.2875 20.1998 23.0375 19.9123 21.775C19.6373 23.325 19.8873 25.1625 20.7498 26.2C20.3373 26.6375 19.8748 26.15 19.1873 25.075C19.4373 28.5 20.8998 29.1625 22.8623 28.4C22.9123 30.275 22.9123 32.0125 23.0248 34.275C21.8873 32.625 20.4373 31.4 19.6373 31.1C19.3873 32.0125 20.3248 33.225 20.8623 33.8875C20.0498 33.7125 18.2998 32.3875 18.2998 32.3875C18.1248 33.9 20.0873 35.3125 21.3623 35.9375C19.8623 35.875 19.1998 35.3125 18.2373 34.3875C18.2623 38.6125 22.8123 37.875 23.6748 37.225L24.0498 43.7875C22.7623 43.5625 22.8623 43.1625 21.7623 43.075C18.6998 42.95 16.2748 39.4 15.4748 36.7875C15.2373 37.2125 15.4248 37.6625 15.2123 38.2C14.7123 36.9125 14.0873 35.25 13.2248 34.475C13.4498 35.225 13.4748 35.9875 13.3998 37.3875C13.0998 36.4875 12.8373 36.2 12.8123 35.1375C12.8248 34.325 13.5998 33.725 13.5623 32.575C13.5248 31.7375 12.7623 29.9125 12.6498 28.5125C12.2748 29.9625 12.0498 31.4875 11.4748 32.3875C11.7623 30.8375 11.6748 29.7625 12.1498 28.725C12.6998 27.6375 13.1623 26.65 12.7998 25.55C12.4498 25.975 12.5623 26.3625 11.6748 27.4C11.4873 26.275 12.8248 24.4625 14.1248 23.7375C15.0373 23.2625 16.1873 21.5375 15.4373 20.3625C14.5748 20.9875 14.1873 21.8125 12.9748 23.2375C13.8498 19.8625 16.0998 18.9625 18.7873 18.95C19.3748 18.95 20.5748 18.7375 20.9123 17.95C20.1623 18.2375 19.2623 18.275 18.4623 18.125C19.0498 17.2625 20.2623 17.375 21.4123 17.375C22.2998 17.375 23.6998 17.25 24.2623 15.975C23.0271 16.4568 21.6721 16.5398 20.3873 16.2125C22.0998 15.3375 24.7623 15.2375 26.1373 14.075C24.5748 12.9125 20.6748 14.35 18.2123 16.0375C18.8998 15.4125 19.9873 14.2875 20.5873 13.3875C19.2373 12.7375 15.8373 16.5125 14.6623 18.7625C13.5373 19.3875 13.0998 20.3875 12.6623 21.075C13.2498 19.0625 13.3123 17.6 13.8123 15.95C9.9998 17.25 11.5748 24.325 10.7498 26.025C10.8498 24.15 10.7623 21.7625 9.9998 20.525C8.8248 21.425 8.7248 26.7125 9.8248 31.1125C9.4248 29.9375 8.6748 28.8375 8.4373 27.4C6.6873 30.575 9.4623 34.3375 11.7748 37.3C10.0248 36.3875 8.3123 34.4375 7.1748 32.8C7.4873 38.5 13.4248 39.675 14.3498 41.075C13.0998 40.4875 10.7123 39.3375 9.6873 40.55C11.1113 40.814 12.4778 41.326 13.7248 42.0625C15.2748 43.9875 18.1873 44.8375 23.2748 45.05Z" fill="#F3E295"/>
</g>
<defs>
<clipPath id="clip0_3731_57410">
<rect width="80" height="60" fill="white"/>
</clipPath>
</defs>
</svg>
