<svg width="80" height="60" viewBox="0 0 80 60" fill="none" xmlns="http://www.w3.org/2000/svg">
<g clip-path="url(#clip0_3732_57460)">
<mask id="mask0_3732_57460" style="mask-type:luminance" maskUnits="userSpaceOnUse" x="-1" y="0" width="82" height="61">
<path d="M-0.0151367 0H80.2021V60.16H-0.0151367V0Z" fill="white"/>
</mask>
<g mask="url(#mask0_3732_57460)">
<path fill-rule="evenodd" clip-rule="evenodd" d="M-20.7773 0.411133H101.188V58.9261H-20.7773V0.411133Z" fill="#FFC621"/>
<path fill-rule="evenodd" clip-rule="evenodd" d="M-21.0122 40.2441H101.106V60.1604H-21.0122V40.2441Z" fill="#EF2118"/>
<path fill-rule="evenodd" clip-rule="evenodd" d="M-20.7773 0H101.188V21.15H-20.7773V0Z" fill="#298C08"/>
<path d="M38.0513 43.7638C45.0493 43.7638 50.7223 38.0908 50.7223 31.0928C50.7223 24.0949 45.0493 18.4219 38.0513 18.4219C31.0534 18.4219 25.3804 24.0949 25.3804 31.0928C25.3804 38.0908 31.0534 43.7638 38.0513 43.7638Z" fill="#006BC6"/>
<path fill-rule="evenodd" clip-rule="evenodd" d="M32.3682 22.114L31.6044 22.6427L34.3657 26.5202L35.1059 26.0502L32.3564 22.114H32.3682ZM35.8227 31.279L34.6829 30.48L35.1529 28.9877L29.5012 29.07L27.8562 27.8127L35.5759 27.7305L37.0094 23.3947L37.7849 25.1572L35.8227 31.2672V31.279ZM44.8114 22.9717L44.0712 22.4077L41.2159 26.2147L41.8739 26.767L44.8114 22.9717ZM37.1269 29.023L37.5382 27.707H39.1009L37.3149 22.3255L38.0199 20.3867L40.4287 27.7187L44.9877 27.7775L43.5542 29.0347L37.1269 29.0112V29.023ZM47.7724 35.039L48.0897 34.1695L43.5894 32.6067L43.2604 33.4292L47.7724 35.039ZM39.6532 29.587L41.0279 29.5752L41.5097 31.0557L46.0687 27.707L48.1367 27.7775L41.8974 32.3247L43.2487 36.6957L41.6037 35.7087L39.6532 29.587ZM37.3267 41.572L38.2549 41.5955L38.2902 36.8367L37.4207 36.778L37.3267 41.5837V41.572ZM39.9117 32.1367L40.3582 33.441L39.1009 34.381L43.7304 37.6357L44.3179 39.6097L38.0199 35.1447L34.3187 37.812L34.7299 35.932L39.8999 32.1367H39.9117ZM27.7739 33.6642L28.0442 34.5455L32.5914 33.112L32.3564 32.266L27.7739 33.6642ZM37.5499 33.1942L36.4454 34.0285L35.1764 33.1237L33.5079 38.5287L31.8159 39.7037L34.1072 32.3365L30.4177 29.634L32.3329 29.446L37.5499 33.1942Z" fill="#FFC621"/>
</g>
</g>
<defs>
<clipPath id="clip0_3732_57460">
<rect width="80" height="60" fill="white"/>
</clipPath>
</defs>
</svg>
