<svg width="106" height="60" viewBox="0 0 106 60" fill="none" xmlns="http://www.w3.org/2000/svg">
<g clip-path="url(#clip0_4615_141122)">
<path d="M105.955 0.0546875H0.046875V59.9507H105.955V0.0546875Z" fill="#00539F" stroke="black" stroke-width="0.25"/>
<path d="M105.955 0.0546875H0.046875V59.9507H105.955V0.0546875Z" fill="#00539F" stroke="black" stroke-width="0.25"/>
<path d="M105.955 59.9465V0.0546875H0.046875L105.955 59.9465Z" fill="#24923C" stroke="black" stroke-width="0.25" stroke-linejoin="bevel"/>
<path d="M52.9985 39.9468C57.856 39.9468 61.7938 35.4929 61.7938 29.9988C61.7938 24.5047 57.856 20.0508 52.9985 20.0508C48.1409 20.0508 44.2031 24.5047 44.2031 29.9988C44.2031 35.4929 48.1409 39.9468 52.9985 39.9468Z" fill="#FFF200" stroke="black" stroke-width="0.125" stroke-linejoin="bevel"/>
<path d="M47.1886 27.3668C46.9496 26.8885 46.5525 26.7013 46.2068 27.059C46.0597 27.2129 46.1774 27.425 46.0708 27.5664C45.9678 27.7078 46.1737 27.766 46.3098 27.791C46.4458 27.8159 46.6076 28.028 46.5378 28.2526C46.4422 28.5604 46.8613 28.5021 46.6738 28.9596C46.4863 29.4212 46.7363 30.436 46.4752 30.7396C46.1223 31.1513 46.0046 31.7169 45.7546 31.7169C45.5045 31.7169 45.4236 31.8667 45.4016 31.9997C45.3611 32.2493 45.1037 32.1536 45.089 32.3408C45.067 32.5986 45.3722 33.1102 45.6222 33.131C46.0193 33.1642 45.9678 32.7068 46.3208 32.7068C46.6738 32.7068 46.8503 32.1619 47.354 32.2825C47.5011 32.3158 47.707 32.2576 47.8762 32.1744C48.0416 32.0912 48.3615 32.0289 48.5344 32.2202C48.7954 32.5154 49.0455 32.3158 49.244 32.5487C49.4426 32.7858 49.8397 32.7733 50.3177 32.6776C50.7957 32.582 51.4612 32.4198 52.4761 33.3264C52.8732 33.6799 52.8107 33.892 52.7371 34.1873C52.5717 34.8361 53.0423 35.0274 52.9136 35.4724C52.693 36.2293 53.1122 36.2501 53.1012 36.6036C53.0901 36.9571 53.2041 37.0153 53.5167 37.3481C53.8292 37.6766 53.9542 37.7598 54.2668 37.7598C54.5793 37.7598 55.0389 37.9844 55.2044 37.8762C55.3699 37.7681 55.8295 37.9719 55.9876 37.7598C56.4766 37.0985 55.7486 36.6993 56.1457 34.9525C56.3222 34.1707 56.3443 33.7506 56.5612 33.5718C56.7818 33.393 56.7083 33.0519 56.6642 32.7816C56.6237 32.5113 56.5318 32.2285 56.8002 31.9083C57.4253 31.1638 57.3959 30.6564 57.6349 30.6564C57.8739 30.6564 57.8481 30.5275 57.8739 30.3029C57.9143 29.9494 58.3114 29.9619 58.4475 29.6999C58.5835 29.442 58.7122 29.3713 58.8851 29.4878C59.1682 29.6749 59.1057 29.3713 59.2932 29.3214C59.4807 29.2757 59.6682 29.0137 59.3336 28.7309C58.999 28.4481 58.8005 28.0363 58.9365 27.8118C59.0726 27.5872 58.863 27.4707 59.0101 27.2212C59.1572 26.9717 59.3925 26.7429 59.2086 26.2439C59.1057 25.9611 58.988 25.6117 59.1057 25.3955C59.2932 25.042 58.8667 24.6178 59.1057 24.2393C58.7711 23.9898 58.396 24.3807 58.168 24.2642C57.9401 24.1478 57.5577 24.4556 57.2598 24.4181C56.6972 24.3474 56.5612 24.5138 56.5502 24.8881C56.5391 25.2665 56.3737 25.1127 56.3222 25.358C56.2707 25.6076 55.9582 25.6533 55.8846 25.4662C55.8111 25.279 55.7045 25.3372 55.6346 25.6533C55.5831 25.8904 55.7081 26.0775 55.2816 26.4435C54.8551 26.8095 55.0389 27.0299 53.2703 28.1195C52.7923 28.4148 51.373 28.5812 50.9979 28.4855C50.6229 28.3898 50.1853 28.7808 49.9243 28.5188C49.6632 28.2609 49.0785 28.7475 48.6226 28.1985C48.4461 27.9864 47.9975 28.1403 47.799 27.9033C47.5967 27.6828 47.3871 27.766 47.1886 27.3668Z" fill="#24923C" stroke="black" stroke-width="0.125"/>
<path d="M98.6078 21.5972C97.262 19.9004 95.9787 21.277 94.5888 21.1314C93.4159 19.5843 93.1107 18.6985 93.0261 16.4402C92.9379 14.182 92.6364 12.7056 92.4194 11.4288C92.2025 10.152 91.6803 9.48243 90.8346 8.35954C89.3344 6.3716 86.5988 3.71824 85.3817 2.78249C84.1646 1.85091 83.819 1.89666 84.558 4.00936C85.2971 6.12207 87.7717 11.329 88.7719 12.9509C88.8601 13.737 88.599 16.1449 88.599 17.1763C85.5141 15.7998 81.9547 13.4417 79.3478 12.8511C78.48 12.6556 77.4357 12.3105 76.7849 12.0651C76.1341 11.8197 75.6597 11.9611 76.6121 12.9509C79.3919 15.8497 80.8149 17.0932 84.0396 18.7983C85.3412 19.4845 86.4186 21.1855 87.2091 21.8426C88.5108 22.9239 88.1174 25.5273 86.209 27.3448C82.9071 30.4889 75.6965 35.0096 65.1436 32.4061C64.0699 32.1399 63.272 32.5683 65.1436 33.0923C72.6593 35.205 78.9948 33.425 84.6022 30.1936C89.0329 27.6401 92.6584 26.2219 94.5925 25.8725C95.6772 25.6771 96.6332 24.9409 97.1112 24.3504C97.6518 23.685 98.2842 22.7284 100.303 22.5829C100.321 21.8675 99.413 21.7428 98.6078 21.5972Z" fill="#FFF200" stroke="black" stroke-width="0.125"/>
<path d="M95.9355 22.0669C95.9355 22.3539 96.5422 22.4537 96.7812 22.4578C97.3254 22.4703 97.2629 21.913 96.8143 22.0045C96.329 22.1043 95.9355 21.8548 95.9355 22.0669Z" fill="#24923C" stroke="black" stroke-width="0.063"/>
<path d="M19.2959 17.1358L21.1528 16.6118L20.2851 18.5249L21.8 19.8266L19.9321 20.2716L19.9909 22.4134L18.5164 21.0451L17.0567 22.4176L17.1008 20.2757L15.2402 19.8391L16.7441 18.5332L15.8764 16.6243L17.7259 17.14L18.5091 15.1895L19.2959 17.1358Z" fill="white"/>
<path d="M7.84868 30.7608L9.70923 30.2368L8.83779 32.1499L10.3564 33.4516L8.48847 33.8966L8.54731 36.0384L7.07284 34.6701L5.61307 36.0426L5.6572 33.9008L3.79297 33.4641L5.29685 32.1582L4.42909 30.2493L6.28228 30.765L7.0618 28.8145L7.84868 30.7608Z" fill="white"/>
<path d="M29.6241 27.0538L31.4846 26.5298L30.6132 28.4428L32.1318 29.7446L30.2639 30.1896L30.3227 32.3314L28.8482 30.9631L27.3885 32.3355L27.4289 30.1937L25.5684 29.757L27.0722 28.4512L26.2045 26.5422L28.0577 27.0579L28.8372 25.1074L29.6241 27.0538Z" fill="white"/>
<path d="M19.2959 50.6143L21.1565 50.0945L20.2851 52.0034L21.8036 53.3051L19.9357 53.7501L19.9946 55.8919L18.5201 54.5278L17.0603 55.9002L17.1045 53.7584L15.2402 53.3217L16.7441 52.0117L15.8764 50.1028L17.7296 50.6185L18.5091 48.668L19.2959 50.6143Z" fill="white"/>
<path d="M23.0743 35.5352L22.622 37.128L21.1328 37.1322L22.3462 38.1178L21.8829 39.7107L23.0816 38.7208L24.2803 39.7065L23.817 38.1012L25.0194 37.128L23.5339 37.1322L23.0743 35.5352Z" fill="white"/>
</g>
<defs>
<clipPath id="clip0_4615_141122">
<rect width="106" height="60" fill="white"/>
</clipPath>
</defs>
</svg>
