<svg width="80" height="60" viewBox="0 0 80 60" fill="none" xmlns="http://www.w3.org/2000/svg">
<g clip-path="url(#clip0_3732_57532)">
<path d="M0 0H80V60H0V0Z" fill="#012169"/>
<path fill-rule="evenodd" clip-rule="evenodd" d="M0 0H50V25H0V0Z" fill="#012169"/>
<path fill-rule="evenodd" clip-rule="evenodd" d="M51.6129 38.6128C51.5422 38.6068 51.4711 38.6068 51.4004 38.6128C51.0254 38.6878 50.4504 40.0253 50.1504 40.8128C49.6379 41.4878 49.3754 42.0128 49.1754 42.4003C49.0879 42.5503 48.9629 42.7253 49.0004 42.9253C48.2504 43.1253 48.2129 43.8503 48.2129 44.1253C48.2129 44.4378 48.3004 44.5878 48.3004 44.5878L48.7504 45.5253V45.5378C49.2254 46.6628 49.9254 48.1503 50.3379 48.2628C50.8879 48.4503 52.3379 47.8503 53.4379 46.8003C55.546 47.7844 57.8047 48.2982 60.0879 48.3128C62.6379 48.3128 64.9254 47.6253 66.7129 46.8003C67.8129 47.8503 69.2629 48.4503 69.8379 48.2628C70.2129 48.1378 70.9254 46.6378 71.4129 45.5378L71.8504 44.5878C71.8504 44.5878 71.9379 44.4378 71.9379 44.1378C71.9379 43.8628 71.9004 43.1378 71.1504 42.9378C71.1879 42.7378 71.0754 42.5628 70.9879 42.4003C70.7754 42.0003 70.5129 41.4753 70.0254 40.7753C69.7004 40.0003 69.1254 38.6878 68.7754 38.6253C68.2504 38.5253 67.1504 38.8128 67.1504 38.9253V38.9753L64.9379 41.3003C64.9379 41.3628 65.0504 43.0503 65.4754 44.5503C63.7386 45.2451 61.9066 45.592 60.0629 45.5753C57.9379 45.5753 56.1254 45.1503 54.6629 44.5378C54.9393 43.4776 55.1194 42.3887 55.2004 41.2878L53.0004 38.9753V38.9253C53.0004 38.8378 52.1504 38.6128 51.6129 38.6128ZM52.1629 41.4878C52.4504 41.4878 52.7379 41.7628 52.9754 42.0378L52.9629 42.2003C52.8731 42.634 52.7562 43.06 52.6129 43.4753C52.0682 43.1224 51.5572 42.7077 51.0879 42.2378C51.3254 41.9503 51.7129 41.5628 52.1129 41.5128H52.1629V41.4878ZM67.9879 41.4878H68.0379C68.4504 41.5628 68.8254 41.9503 69.0754 42.2378C68.6028 42.713 68.0875 43.1319 67.5379 43.4878C67.3941 43.0685 67.2771 42.6383 67.1879 42.2003C67.1776 42.1465 67.1693 42.0923 67.1629 42.0378C67.4129 41.7503 67.7004 41.5003 67.9879 41.5003V41.4878ZM50.1879 44.7878C50.4879 45.0378 50.8629 45.3378 51.3254 45.6378C51.203 45.7291 51.0677 45.7967 50.9254 45.8378C50.7254 45.8878 50.5379 45.8753 50.3379 45.8378C50.2609 45.6141 50.2186 45.3774 50.2129 45.1378C50.2024 45.0213 50.1941 44.9046 50.1879 44.7878ZM69.9629 44.7878L69.9504 45.1378C69.9426 45.3732 69.9004 45.6055 69.8254 45.8253C69.656 45.8712 69.4801 45.8783 69.3082 45.8461C69.1363 45.8138 68.972 45.743 68.8254 45.6378C69.2879 45.3378 69.6754 45.0378 69.9629 44.7878Z" fill="url(#paint0_linear_3732_57532)" stroke="white" stroke-width="1.25"/>
<path fill-rule="evenodd" clip-rule="evenodd" d="M53.2748 42.4501C53.2748 42.4501 52.5123 41.0626 51.8873 41.1751C51.2498 41.2626 50.6373 42.1501 50.6123 42.2001C50.2588 41.8513 49.9438 41.4524 49.6748 41.0126C49.7123 40.9626 50.6498 38.4001 51.1748 38.2876C51.6748 38.1751 52.7623 38.4751 52.7623 38.5751L53.2748 42.4501Z" fill="url(#paint1_linear_3732_57532)" stroke="black" stroke-width="0.15"/>
<path fill-rule="evenodd" clip-rule="evenodd" d="M54.9754 40.9627C54.9754 41.0627 54.7004 44.7377 53.6129 46.0127C52.5379 47.3002 50.7379 48.0877 50.0879 47.9002C49.4629 47.7002 48.0254 43.9877 48.0254 43.9877C48.0254 43.9877 49.5504 45.7627 50.6879 45.4627C51.8254 45.1752 52.5129 42.9502 52.7254 41.8502C52.9379 40.7752 52.7629 38.6377 52.7629 38.6377L54.9879 40.9627H54.9754Z" fill="url(#paint2_linear_3732_57532)" stroke="black" stroke-width="0.15"/>
<path fill-rule="evenodd" clip-rule="evenodd" d="M66.6123 42.4501C66.6123 42.4501 67.3873 41.0626 68.0123 41.1751C68.6373 41.2626 69.2373 42.1501 69.2873 42.2001C69.6408 41.8513 69.9558 41.4524 70.2248 41.0126C70.1748 40.9626 69.2373 38.4001 68.7248 38.2876C68.2123 38.1751 67.1248 38.4751 67.1248 38.5751L66.6123 42.4501Z" fill="url(#paint3_linear_3732_57532)" stroke="black" stroke-width="0.15"/>
<path fill-rule="evenodd" clip-rule="evenodd" d="M64.9129 40.9627C64.9129 41.0627 65.1879 44.7377 66.2754 46.0127C67.3629 47.3002 69.1504 48.0877 69.8004 47.9002C70.4254 47.7002 71.8754 43.9877 71.8754 43.9877C71.8754 43.9877 70.3379 45.7627 69.2004 45.4627C68.0754 45.1752 67.3879 42.9502 67.1754 41.8502C66.9504 40.7752 67.1254 38.6377 67.1254 38.6377L64.9004 40.9627H64.9129Z" fill="url(#paint4_linear_3732_57532)" stroke="black" stroke-width="0.15"/>
<path fill-rule="evenodd" clip-rule="evenodd" d="M50.15 40.7754C49.65 41.4629 49.3875 42.0004 49.1625 42.4004C48.95 42.8004 49.0875 43.3629 49.5625 44.1504C50.1 44.9879 54.4375 48.3254 60.075 48.3254C65.725 48.3254 70.05 45.0004 70.575 44.1504C71.075 43.3504 71.2001 42.8004 70.9876 42.4004C70.7751 42.0004 70.5 41.4629 70 40.7754C70 41.8129 66.4125 45.5879 60.075 45.5879C53.7375 45.5879 50.15 41.8129 50.15 40.7754Z" fill="url(#paint5_linear_3732_57532)" stroke="black" stroke-width="0.1875"/>
<path fill-rule="evenodd" clip-rule="evenodd" d="M69.7124 47.35L70.6874 45.4625L70.1999 45.0625C70.0749 45.5375 69.5124 45.7 69.4124 46.3125C69.3249 46.9 69.7874 47.4875 69.7124 47.35Z" fill="url(#paint6_linear_3732_57532)" stroke="black" stroke-width="0.15"/>
<path fill-rule="evenodd" clip-rule="evenodd" d="M70.5998 46.8128C70.5998 46.8128 70.7748 45.9628 70.2248 45.8628C69.6748 45.7628 69.3748 46.3378 69.4623 46.1128C69.5373 45.8628 69.8623 45.6128 69.9248 44.7753C69.9623 43.9378 69.8748 43.4878 69.8748 43.4878C69.8748 43.4878 70.0998 42.4003 70.9748 42.5503C71.8748 42.7128 71.9123 43.5003 71.9123 43.7878C71.9166 43.9372 71.8911 44.0859 71.8373 44.2253L70.5998 46.8128Z" fill="url(#paint7_linear_3732_57532)" stroke="black" stroke-width="0.15"/>
<path d="M67.3996 43.9625L67.5871 44.3125L67.7121 44.2375L67.6246 43.9875L67.6371 43.95L67.8496 43.8L68.3996 44.8875V44.95L68.2746 45.0375L68.3371 45.1375L68.8621 44.7625L68.8121 44.6625L68.6871 44.7375H68.6496L68.0996 43.6375L68.2996 43.4875H68.3496L68.4746 43.6875L68.5996 43.6L68.4121 43.25L67.4121 43.9625H67.3996ZM66.0871 44.8L66.1371 44.9L66.2496 44.85L66.2871 44.8625L66.7746 45.975L66.7621 46.025L66.6621 46.1L66.6996 46.2L67.2121 45.8875L67.1746 45.7875L67.0621 45.8375H67.0121L66.7871 45.3L67.3246 45L67.5496 45.5V45.5625L67.4246 45.6375L67.4746 45.75L67.9996 45.4375L67.9496 45.3375L67.8371 45.3875L67.7996 45.3625L67.3246 44.2625V44.2125L67.4246 44.1375L67.3871 44.0375L66.8746 44.35L66.9121 44.45L67.0371 44.3875L67.0746 44.4125L67.2621 44.8625L66.7371 45.175L66.5371 44.7125L66.5621 44.6625L66.6621 44.6L66.6121 44.4875L66.0871 44.8ZM65.7871 45.75L65.8121 45.85L65.9621 45.8125L66.0121 45.825L66.1246 46.2875L66.0246 46.3375C65.7121 46.4375 65.4746 46.275 65.3621 45.875C65.2621 45.475 65.3871 45.175 65.6746 45.075C65.7316 45.0574 65.7911 45.0531 65.8496 45.0625L65.8871 45.0875L65.9871 45.3L66.1371 45.25L66.0496 44.875C65.8871 44.875 65.7371 44.9 65.6121 44.95C65.1621 45.1125 64.9621 45.5125 65.0746 45.975C65.1996 46.4375 65.5621 46.65 65.9746 46.5125C66.1279 46.457 66.2717 46.3725 66.3996 46.2625L66.2496 45.75L66.2746 45.7L66.3871 45.65L66.3496 45.5375L65.7871 45.75ZM64.5746 47.0375L65.1621 46.825L65.1246 46.7125L64.9996 46.7375L64.9621 46.725L64.6371 45.525L64.6496 45.4875L64.7746 45.425L64.7496 45.325L64.1621 45.525L64.1996 45.6375L64.3246 45.6L64.3746 45.625L64.6871 46.8125L64.6621 46.8625L64.5371 46.9125L64.5746 47.025V47.0375ZM61.3871 47.6125L62.4246 47.5125L62.3871 47.0875L62.2621 47.1L62.2371 47.35L62.2121 47.3875L61.7746 47.4375L61.7246 46.825L61.9746 46.8L62.0121 46.8375L62.0371 47H62.1621L62.1121 46.45H61.9871V46.625L61.9621 46.675L61.7121 46.6875L61.6621 46.1375L62.0496 46.1L62.0746 46.125L62.1246 46.3375L62.2621 46.325L62.2371 45.95L61.2621 46.05V46.1625H61.3871L61.4246 46.2L61.5121 47.4375L61.4996 47.475L61.3746 47.5V47.625L61.3871 47.6125ZM59.8371 46.075V46.2H59.9621L59.9871 46.2375L59.9996 47.475L59.9746 47.5125L59.8621 47.5375V47.6375H60.4121V47.525H60.2871L60.2621 47.475V46.875H60.8121V47.45L60.7871 47.4875L60.6746 47.5V47.625H61.2246V47.5H61.0996L61.0871 47.45L61.0621 46.2L61.0871 46.1625H61.2121V46.0375H60.6496V46.1625L60.7746 46.175L60.7996 46.2125V46.7125L60.2621 46.725L60.2371 46.225L60.2746 46.1875H60.3871V46.0625L59.8371 46.075ZM58.6621 46.0375V46.45H58.7871L58.8246 46.2L58.8496 46.1625H59.0871V47.4375L59.0496 47.4875H58.9246V47.6125H59.4996V47.5L59.3746 47.4875L59.3371 47.4375L59.3496 46.1875H59.5746L59.6121 46.2125L59.6496 46.4625H59.7746V46.05L58.6621 46.0375ZM56.8746 47.3625L57.8746 47.4125L57.8996 47H57.7746L57.7371 47.2375L57.7121 47.2625L57.2746 47.25L57.2996 46.625L57.5371 46.65L57.5621 46.6875L57.5871 46.8625H57.6871L57.7121 46.325H57.5996L57.5746 46.475L57.5496 46.5125H57.2996L57.3246 45.9375L57.6996 45.9625L57.7246 45.9875L57.7371 46.2H57.8746V45.8375L56.9371 45.7875V45.9L57.0621 45.925L57.0746 45.9625L57.0246 47.2L56.9996 47.2375H56.8746V47.35V47.3625ZM54.5496 46.6875L55.0996 46.8875L55.1246 46.7875L54.9996 46.725V46.675L55.3121 45.4875L55.3496 45.4625L55.4746 45.5L55.4996 45.4L54.9621 45.1875L54.9371 45.3L55.0496 45.35L55.0746 45.4L54.7371 46.575L54.7121 46.6125L54.5871 46.575L54.5496 46.6875ZM53.5996 46.275C53.6965 46.3627 53.8065 46.4304 53.9246 46.475C54.2246 46.575 54.4621 46.45 54.5246 46.2C54.5427 46.1324 54.5465 46.0607 54.5356 45.991C54.5247 45.9213 54.4995 45.8558 54.4621 45.8L54.2371 45.55C54.1621 45.4375 54.1371 45.35 54.1621 45.2375C54.1996 45.125 54.2996 45.0625 54.4371 45.1125C54.4871 45.1375 54.5371 45.1625 54.5621 45.2V45.2375L54.5371 45.4875L54.6621 45.525L54.7621 45.175C54.6704 45.0832 54.5645 45.0112 54.4496 44.9625C54.1996 44.8625 53.9746 45 53.8996 45.2375C53.8852 45.2964 53.8822 45.358 53.8908 45.4183C53.8994 45.4786 53.9194 45.5362 53.9496 45.5875C53.9996 45.7125 54.0746 45.775 54.1371 45.8375C54.2496 45.9625 54.2871 46.0875 54.2621 46.2C54.2246 46.325 54.1121 46.3875 53.9621 46.325C53.9073 46.3018 53.8565 46.268 53.8121 46.225L53.7996 46.1875L53.8496 45.9125L53.7121 45.8625L53.5996 46.275ZM52.3746 45.7L53.2996 46.2L53.4496 45.825L53.3246 45.7625L53.2121 45.975L53.1746 45.9875L52.7871 45.7625L53.0121 45.225L53.2371 45.35V45.3875L53.1996 45.55L53.2996 45.6125L53.4996 45.1125L53.3996 45.0625L53.3121 45.2L53.2746 45.225L53.0621 45.1L53.2621 44.6L53.5996 44.7875L53.6121 44.825L53.5621 45.025L53.6871 45.0875L53.8121 44.7625L52.9621 44.275L52.9121 44.375L53.0121 44.45L53.0246 44.5L52.5746 45.625H52.5371L52.4246 45.5875L52.3746 45.7ZM52.2371 43.825L51.7746 43.4625L51.7121 43.5625L51.7996 43.65L51.8121 43.7L51.2371 44.725L51.1871 44.7375L51.0996 44.675L51.0371 44.775L51.4871 45.125C51.6621 45.25 51.7996 45.3125 51.9371 45.3C52.1371 45.275 52.3121 45.15 52.4371 44.925C52.6621 44.5 52.5996 44.1 52.2371 43.825ZM52.0371 43.825L52.1371 43.9C52.3871 44.0875 52.4121 44.3625 52.1996 44.725C51.9871 45.1 51.7621 45.175 51.5246 44.975L51.4246 44.925L52.0496 43.8375L52.0371 43.825ZM55.6996 45.45L55.6871 45.55L55.7996 45.5875L55.8121 45.6375L55.5996 46.85L55.5621 46.875H55.4371V46.975L55.9496 47.1L55.9746 47L55.8496 46.95L55.8371 46.9125L55.9246 46.4H55.9621C56.1496 46.45 56.1871 46.5625 56.1871 46.8C56.1996 46.9125 56.1996 47.0125 56.2871 47.1375C56.3246 47.1875 56.3746 47.2375 56.4621 47.25C56.524 47.2636 56.5866 47.272 56.6496 47.275L56.6621 47.175H56.6496C56.5246 47.1375 56.4621 47.0875 56.4621 46.95C56.4371 46.825 56.4621 46.7 56.4121 46.575C56.3784 46.4969 56.3208 46.4348 56.2496 46.4C56.4621 46.4 56.5871 46.2875 56.6246 46.0875C56.6746 45.8375 56.5621 45.65 56.2621 45.5875L55.7121 45.45H55.6996ZM56.0746 45.6625L56.1496 45.6875C56.3246 45.7375 56.3996 45.8625 56.3621 46.05C56.3246 46.2625 56.2121 46.3375 56.0121 46.275L55.9496 46.2625L56.0621 45.6625H56.0746ZM62.8496 45.7875L62.8621 45.9125H62.9871L63.0246 45.9375L63.1996 47.1625L63.1746 47.2L63.0496 47.2375L63.0746 47.3375L63.6371 47.2375V47.1125L63.4996 47.1375L63.4621 47.1L63.3871 46.6H63.4246C63.6246 46.5375 63.6996 46.625 63.7996 46.8375C63.8371 46.9375 63.8621 47.0375 63.9871 47.1125C64.0371 47.15 64.1121 47.1625 64.2121 47.15C64.28 47.1344 64.3468 47.1135 64.4121 47.0875L64.3996 46.975H64.3746C64.2371 47.0125 64.1621 46.975 64.0996 46.8625C64.0496 46.7625 64.0121 46.6375 63.9371 46.55C63.8871 46.4875 63.8121 46.45 63.7121 46.45C63.9246 46.35 64.0246 46.2 63.9996 45.9875C63.9621 45.7375 63.7871 45.6125 63.4746 45.675L62.8496 45.7875ZM63.2871 45.85H63.3746C63.5746 45.8 63.6871 45.875 63.7246 46.075C63.7496 46.275 63.6621 46.4 63.4496 46.45H63.3746L63.2746 45.85H63.2871Z" fill="black"/>
<path fill-rule="evenodd" clip-rule="evenodd" d="M50.1879 47.35L49.2129 45.4625L49.7004 45.0625C49.8254 45.5375 50.3879 45.7 50.4879 46.3125C50.5754 46.9 50.1129 47.4875 50.1879 47.35Z" fill="url(#paint8_linear_3732_57532)" stroke="black" stroke-width="0.15"/>
<path fill-rule="evenodd" clip-rule="evenodd" d="M49.2871 46.8128C49.2871 46.8128 49.1121 45.9628 49.6621 45.8628C50.2121 45.7628 50.5121 46.3378 50.4371 46.1128C50.3496 45.8628 50.0246 45.6128 49.9746 44.7753C49.9246 43.9378 50.0121 43.4878 50.0121 43.4878C50.0121 43.4878 49.7996 42.4003 48.9121 42.5503C48.0246 42.7128 47.9746 43.5003 47.9746 43.7878C47.9746 44.0628 48.0621 44.2253 48.0621 44.2253L49.2871 46.8128Z" fill="url(#paint9_linear_3732_57532)" stroke="black" stroke-width="0.15"/>
<path fill-rule="evenodd" clip-rule="evenodd" d="M60.0621 44.5127C60.0621 44.5127 49.8121 41.1377 49.8871 28.3377L49.9621 11.3877H70.1246L70.1996 28.2377C70.2621 41.0377 60.0246 44.5002 60.0246 44.5002L60.0621 44.5127Z" fill="#0072C4" stroke="white" stroke-width="0.4875"/>
<path fill-rule="evenodd" clip-rule="evenodd" d="M51.2824 15.4515C51.3006 15.4515 51.4198 15.3177 51.5388 15.2047C51.6945 15.102 51.8411 14.9888 51.9968 14.8962C52.125 14.8243 52.3631 14.7626 52.4639 14.701C52.6133 14.6173 52.7446 14.498 52.8486 14.3513C52.8669 14.1353 52.8944 13.9708 52.8944 13.7138C53.0594 13.611 53.2059 13.5288 53.3524 13.4671C53.563 13.3951 53.6089 13.3026 53.8195 13.2615C53.957 13.21 54.1768 13.21 54.3691 13.21C54.5798 13.21 54.708 13.3848 54.9004 13.4157C55.1294 13.5185 55.2301 13.5905 55.4133 13.7652C55.5049 13.9092 55.569 14.0326 55.743 14.1353C55.8805 14.2177 56.0086 14.3411 56.1643 14.3822C56.3475 14.4952 56.4941 14.5672 56.6315 14.7317C56.7598 14.8346 56.8146 14.9785 56.9246 15.0813C57.0596 15.2107 57.2035 15.3276 57.3551 15.431C57.5383 15.5647 57.7214 15.6675 58.0054 15.6366C58.1611 15.6366 58.326 15.6057 58.5091 15.6366C58.7199 15.6366 58.9214 15.6366 59.1045 15.6982C59.3245 15.6982 59.4984 15.7291 59.6999 15.7497C59.8831 15.7805 60.0755 15.7908 60.2861 15.7908C60.4694 15.8525 60.6709 15.8422 60.8815 15.8422H62.0723C62.2829 15.8422 62.5028 15.8525 62.6585 15.8936C62.8577 15.8907 63.0565 15.8736 63.2538 15.8422C63.4828 15.8422 63.6569 15.801 63.8859 15.7908H64.6003C64.7835 15.8525 65.0215 15.8936 65.1499 15.9965C65.3239 16.0478 65.4063 16.1403 65.5712 16.1918C65.7087 16.2637 65.9009 16.3872 66.0016 16.5413C66.1354 16.7056 66.2493 16.8888 66.3405 17.0863C66.4505 17.2713 66.4963 17.4976 66.5879 17.7341C66.6429 17.9603 66.6795 18.1762 66.6795 18.423C66.7253 18.639 66.7161 18.8755 66.7161 19.1222C66.6703 19.3485 66.6611 19.5951 66.5879 19.811C66.5879 20.0578 66.5422 20.2737 66.5054 20.4588C66.4688 20.6645 66.423 20.7981 66.4139 21.0551V21.7543C66.4139 21.9806 66.3589 22.1451 66.3405 22.3918C66.2273 22.6355 66.1264 22.8861 66.0383 23.1425C65.9052 23.2485 65.7904 23.3809 65.6995 23.5331C65.6078 23.5948 65.562 23.6977 65.5804 23.7388C65.7453 23.8005 65.6994 23.9341 65.6994 24.181C65.7269 24.3762 65.7453 24.6127 65.791 24.8287C65.8001 25.0652 65.846 25.2091 65.9101 25.3737C65.9834 25.4765 66.0017 25.425 65.8277 25.425C65.7085 25.5278 65.5804 25.4765 65.5345 25.2708C65.4388 25.1072 65.3792 24.9204 65.3605 24.7258C65.3422 24.4996 65.3055 24.2733 65.2414 24.1296C65.2139 23.8518 65.1499 23.8518 64.9026 23.8313C64.7835 23.7182 64.6276 23.6873 64.3896 23.6873C64.1606 23.6873 64.1423 23.6566 64.1423 23.9341V24.6333C64.0965 24.839 64.014 24.9932 63.9683 25.1783C63.84 25.2811 63.785 25.4558 63.6294 25.569C63.5561 25.7952 63.4554 25.8363 63.2538 25.8775L62.9974 25.5278C63.1164 25.3016 63.2171 25.2708 63.2905 25.0241C63.382 24.8287 63.437 24.7053 63.5011 24.5305C63.4095 24.3762 63.3363 24.3042 63.2538 24.0883C63.1659 23.9159 63.0953 23.7331 63.0431 23.5433C62.8966 23.4817 62.6769 23.4715 62.576 23.3892C62.3654 23.3378 62.3104 23.5948 62.0631 23.5948H61.4769C61.2113 23.5948 61.1471 23.7491 60.9273 23.7388C60.8631 23.7593 60.6983 23.7285 60.4601 23.7388C60.277 23.8107 60.0664 23.7901 59.8648 23.7901C59.6541 23.7901 59.4801 23.7285 59.3153 23.6873C59.1229 23.6257 58.9305 23.564 58.729 23.5435C58.4818 23.5435 58.381 23.564 58.2161 23.6873C58.0879 23.7798 57.8955 23.9752 57.7581 24.0883C57.694 24.2528 57.6665 24.5305 57.5749 24.7258C57.5383 24.9315 57.465 25.0446 57.4193 25.2296C57.3479 25.4193 57.3046 25.6207 57.291 25.8261C57.2726 26.1551 57.2085 26.114 57.0345 26.0213C56.9613 25.8775 56.8514 25.7335 56.778 25.569C56.8146 25.3222 56.8696 25.1988 56.8696 24.9315C56.8239 24.7258 56.7323 24.7465 56.6131 24.8801C56.6131 25.1371 56.6131 25.3428 56.5216 25.4763C56.5057 25.5567 56.4757 25.6327 56.4332 25.6999C56.3907 25.767 56.3367 25.8239 56.2743 25.8672C56.2101 26.0522 56.0728 26.1447 55.9354 26.2167C55.917 26.2167 55.9354 26.1551 55.9354 26.0111C55.8346 25.7952 55.9354 25.5998 55.9354 25.3222C55.9354 25.0755 55.917 24.911 55.9811 24.6847C55.9811 24.438 55.8896 24.2117 55.8529 24.037C55.7705 23.852 55.7248 23.7595 55.5141 23.6873C55.3584 23.6155 55.1476 23.5331 55.0469 23.379C54.9499 23.2273 54.8165 23.1096 54.6623 23.0396C54.479 22.9676 54.3783 22.8853 54.2409 22.7928C54.1126 22.6283 54.0028 22.5666 53.9478 22.3507C53.8561 22.1965 53.847 21.9086 53.7829 21.703C53.7648 21.4985 53.7217 21.2978 53.6546 21.1066C53.6339 20.9027 53.5908 20.7024 53.5264 20.5103C53.4989 20.3046 53.4531 20.099 53.3983 19.8625C53.3983 19.626 53.3983 19.3895 53.3524 19.1736V18.4745C53.3249 18.2687 53.3158 17.9808 53.2699 17.8266C53.2699 17.5593 53.2424 17.4153 53.1784 17.2303C53.0868 17.0555 53.0868 16.9835 52.931 16.9321C52.8211 17.0863 52.6471 17.1583 52.4273 17.1892C52.2716 17.148 52.0518 17.1172 51.8778 17.035C51.7036 16.9937 51.5938 16.9116 51.4564 16.8293C51.3773 16.6939 51.2917 16.5635 51.1999 16.4386C51.1724 16.1815 51.1266 16.0478 51.1084 15.7908C51.1084 15.6058 51.1175 15.7086 51.2915 15.4515H51.2824Z" fill="#BCBCBC"/>
<path fill-rule="evenodd" clip-rule="evenodd" d="M53.7829 17.2406L53.8195 17.1993C53.7463 17.2817 53.7738 17.2406 53.9386 17.1686C54.0303 17.1068 54.2043 16.9938 54.2684 16.9218C54.3416 16.8806 54.4699 16.819 54.5431 16.747C54.6164 16.6442 54.6989 16.562 54.8088 16.4695C54.9188 16.3563 55.0286 16.3152 55.166 16.2226C55.3309 16.2021 55.395 16.1198 55.5506 16.1815C55.6973 16.2227 55.7614 16.2227 55.8804 16.0787C55.9995 15.9965 56.1369 15.904 56.1826 15.7702V15.5543C56.1826 15.7806 56.1369 15.8627 55.9995 15.9347C55.9079 16.0685 55.7796 16.2021 55.7248 16.3255C55.6331 16.4797 55.6148 16.562 55.5233 16.634C55.4408 16.747 55.3125 16.8087 55.285 16.9938C55.3216 17.0761 55.285 17.1172 55.3766 17.1275C55.4591 17.2097 55.5506 17.1788 55.6698 17.1275C55.7692 17.0064 55.8498 16.8674 55.9079 16.7162C56.0086 16.5517 56.0636 16.4797 56.1185 16.3562C56.2285 16.2741 56.2926 16.2125 56.3293 16.0787C56.4483 15.9965 56.549 15.9142 56.6315 15.832C56.7231 15.7702 56.769 15.7188 56.8971 15.688C56.9066 15.8261 56.8743 15.9637 56.8055 16.0787C56.778 16.2741 56.7873 16.3666 56.8421 16.49C56.9246 16.562 56.9063 16.6133 56.9613 16.747C57.007 16.6236 57.0345 16.3975 57.0529 16.2535V16.2226C57.0529 16.3666 57.0529 16.5722 57.0163 16.6751C57.0163 16.8807 57.062 16.9732 57.1078 17.1275C57.1536 17.2097 57.1994 17.2612 57.2544 17.3022C57.2544 17.0966 57.3094 16.9732 57.3185 16.7882C57.3551 16.9218 57.346 17.1172 57.3735 17.2715C57.3826 17.436 57.4375 17.5593 57.4925 17.693C57.5658 17.7342 57.5841 17.878 57.6115 17.765C57.6849 17.5182 57.6849 17.2508 57.7306 16.9937C57.7398 16.8601 57.749 16.6647 57.7948 16.5722L57.7306 16.9835C57.7398 16.8601 57.749 16.6751 57.7948 16.5722V16.5311C57.8281 16.7176 57.8495 16.9066 57.8589 17.0966C57.8589 17.2508 57.8498 17.4051 57.8864 17.5491C57.978 17.4976 58.042 17.3742 58.097 17.2406C58.1613 17.0995 58.2414 16.9682 58.3351 16.8498L58.097 17.2303C58.162 17.0929 58.242 16.9651 58.3351 16.8498V16.819C58.3176 16.9793 58.3084 17.1407 58.3076 17.3022C58.3076 17.4667 58.3076 17.6518 58.3351 17.765C58.3718 17.95 58.4176 17.9808 58.4268 18.1762C58.4268 18.2791 58.4084 18.3818 58.4543 18.4332C58.5825 18.4641 58.5825 18.382 58.6008 18.1865C58.6008 17.9602 58.6558 17.8061 58.6649 17.5902C58.6649 17.3227 58.6924 17.621 58.7199 17.7238C58.7747 17.8707 58.8058 18.0274 58.8115 18.1865C58.8115 18.2893 58.8023 18.3818 58.839 18.4332C58.958 18.3716 59.0038 18.2276 59.0771 18.1453C59.1413 17.9808 59.2053 17.9088 59.2603 17.7958C59.416 17.765 59.4069 17.693 59.4069 17.4873C59.4069 17.3126 59.3976 17.1377 59.4435 16.9938C59.491 16.8423 59.5307 16.6878 59.5625 16.5311C59.6175 16.5002 59.6725 16.5928 59.7091 16.6751C59.7733 16.7882 59.7641 16.9526 59.7641 17.1275C59.8006 17.2817 59.8556 17.405 59.9198 17.549C59.9754 17.6758 60.0462 17.7934 60.1304 17.8986C60.1579 18.0117 60.1579 18.2071 60.1579 18.3613C60.277 18.2071 60.2954 17.9911 60.3045 17.765C60.2861 17.6107 60.2861 17.4153 60.2495 17.2715C60.2495 17.1172 60.2129 16.963 60.1854 16.8498C60.0938 16.7985 60.0663 16.747 60.1579 16.6031C60.2495 16.5106 60.3594 16.5517 60.5151 16.5722C60.5976 16.6647 60.6251 16.7162 60.6343 16.9218C60.6343 17.1068 60.6343 17.2508 60.6983 17.3743C60.7533 17.4771 60.8083 17.549 60.8449 17.7238C60.8906 17.7752 60.9274 17.8472 60.9914 17.765C61.028 17.6621 61.0555 17.4565 61.083 17.3433C61.1105 17.2097 61.1655 17.1377 61.2295 17.0966C61.2295 17.292 61.2295 17.4051 61.2936 17.5491C61.3486 17.7032 61.3853 17.765 61.4403 17.9397C61.5044 17.9911 61.5135 18.094 61.596 18.1453C61.6143 17.9808 61.6235 17.7958 61.6235 17.5901V17.0966C61.6326 16.9321 61.6693 16.8396 61.715 16.7058C61.8066 16.8498 61.8066 16.9012 61.8066 17.0966C61.8983 17.0555 61.9166 16.9732 61.9531 16.8498C62.0173 16.7778 62.0448 16.747 62.0723 16.9218C62.0905 17.1068 62.1273 17.2715 62.1639 17.4462C62.2189 17.5285 62.2921 17.7237 62.3654 17.7958C62.4173 17.8987 62.4787 17.9952 62.5485 18.0837C62.5944 18.1865 62.6035 18.2585 62.7318 18.2893C62.7318 18.0528 62.7318 17.8163 62.6951 17.5901C62.6951 17.3845 62.6585 17.3126 62.6401 17.1275C62.5851 17.0143 62.5576 16.8293 62.576 16.7778C62.6957 16.8924 62.7898 17.0368 62.8508 17.1995C62.9149 17.3742 62.979 17.4873 63.034 17.6621C63.1211 17.7692 63.1979 17.8864 63.263 18.0117C63.373 18.1146 63.4279 18.2276 63.5378 18.3202C63.5928 18.3818 63.721 18.423 63.7484 18.3921C63.7393 18.1865 63.7118 18.0117 63.6569 17.837C63.6566 17.6903 63.6252 17.5457 63.5653 17.4153C63.4461 17.3022 63.3546 17.22 63.2905 17.0657C63.2538 17.0145 63.2446 16.9835 63.2355 16.891C63.3934 17.0316 63.5349 17.194 63.6568 17.3742C63.7161 17.478 63.7981 17.563 63.895 17.621C63.95 17.7032 64.124 17.7958 64.2523 17.8266C64.3266 17.937 64.4339 18.0137 64.5545 18.0426L64.2523 17.837C64.3281 17.9435 64.4353 18.0164 64.5545 18.0426V18.0837C64.5325 17.882 64.4699 17.6886 64.3713 17.5182C64.314 17.3617 64.2189 17.2263 64.0965 17.1275C64.0221 16.9999 63.9216 16.8941 63.8034 16.819C63.7209 16.7162 63.6019 16.5311 63.5286 16.4695C63.666 16.3666 63.8125 16.5311 63.9499 16.6031C64.069 16.747 64.1789 16.9321 64.2523 17.0246C64.3226 17.1935 64.4152 17.3495 64.527 17.4873C64.6553 17.5696 64.7376 17.6518 64.8476 17.7648C65.0308 17.8163 64.9575 17.7443 64.9117 17.5901C64.8477 17.3845 64.9117 17.3845 65.0308 17.5182C65.1133 17.5901 65.214 17.693 65.333 17.765C65.3789 17.837 65.4613 17.8883 65.5345 17.837C65.5711 17.7855 65.5712 17.7855 65.5712 17.7341C65.507 17.5078 65.4522 17.3433 65.2964 17.2715C65.2323 17.1686 65.1133 17.0657 65.0217 16.963C64.9667 16.8601 64.9025 16.7985 64.8476 16.6751L65.0308 16.9526C64.9667 16.8498 64.9025 16.7985 64.8476 16.6751H64.8202C65.0033 16.6751 65.0674 16.7367 65.2048 16.819C65.3156 16.8698 65.4111 16.9555 65.4797 17.0657C65.5347 17.148 65.6262 17.2406 65.6903 17.3433L65.9834 17.5901C66.0841 17.7341 66.1024 17.8266 66.1024 18.0426C66.1665 18.1453 66.1758 18.351 66.194 18.4641C66.1758 18.6595 66.1115 18.5053 66.1024 18.3921C66.0842 18.238 66.0291 18.2482 65.9193 18.2893C65.9193 18.495 65.9468 18.5567 66.0109 18.7108C65.9984 18.8353 65.9608 18.9548 65.9009 19.0605C65.8277 19.1118 65.8093 18.9577 65.7453 18.8857C65.7453 18.6801 65.6903 18.6492 65.562 18.5361V18.6801C65.6353 18.824 65.7085 18.9576 65.7178 19.1633C65.7653 19.3115 65.787 19.4686 65.7819 19.626C65.7819 19.8008 65.7819 19.9653 65.7453 20.1195C65.7453 20.3046 65.7178 20.387 65.7178 20.572V21.559C65.6959 21.7085 65.6867 21.86 65.6903 22.0115L65.7178 21.559C65.6903 21.6823 65.6903 21.8366 65.6903 22.0115V22.0422C65.6353 21.8675 65.5711 21.7132 65.5345 21.5282C65.4464 21.4247 65.3778 21.3023 65.333 21.1682C65.3055 21.0141 65.2964 20.8392 65.2689 20.7158C65.2231 20.5925 65.1773 20.4588 65.0858 20.5411C65.0492 20.7981 65.0949 20.9523 65.1773 21.1991C65.2232 21.3636 65.2231 21.5076 65.2689 21.6618C65.3421 21.8468 65.3971 21.8675 65.2689 22.0731C65.2048 22.1965 65.1773 22.2273 65.1499 22.361C65.0399 22.4227 65.0124 22.4638 65.0033 22.6077C64.9666 22.4741 64.875 22.3096 64.8202 22.1553C64.7652 21.9806 64.701 21.8057 64.6735 21.6618C64.6003 21.5385 64.5087 21.3533 64.4354 21.2711C64.3529 21.1683 64.2523 20.9626 64.1973 20.8598C64.0781 20.7056 64.0506 20.6131 63.9499 20.5411C63.9316 20.4691 63.8949 20.3766 63.8309 20.4382C63.8309 20.6027 63.8309 20.7776 63.8675 20.9215C63.895 21.1272 63.95 21.2402 63.9591 21.4458V21.8366C63.8859 21.631 63.8034 21.4665 63.7484 21.2711C63.6751 21.1683 63.611 20.9626 63.5378 20.8907C63.4828 20.7467 63.4461 20.6336 63.382 20.5411C63.3729 20.4382 63.327 20.4382 63.2905 20.3663C63.2905 20.5616 63.3546 20.6336 63.382 20.7776C63.4461 20.9215 63.4645 21.1375 63.4461 21.2095C63.3729 20.9626 63.2996 20.6953 63.208 20.4691C63.1164 20.3252 63.0249 20.1401 62.9699 20.0065C62.8783 19.8933 62.7866 19.8831 62.6951 19.8008C62.6132 19.7628 62.5408 19.7028 62.4844 19.626C62.5119 19.811 62.576 19.9345 62.6035 20.0785C62.631 20.2532 62.6951 20.3972 62.7225 20.5411C62.695 20.7776 62.6493 20.4691 62.6035 20.3663C62.576 20.1606 62.5119 20.0578 62.4569 19.9447C62.3745 19.8727 62.3013 19.7597 62.2188 19.698C62.1273 19.6567 62.1638 19.698 62.1638 19.8317C62.1638 20.0476 62.1638 20.1915 62.2188 20.3252C62.2829 20.428 62.2829 20.5616 62.2829 20.7467C62.2738 20.9215 62.2463 21.0552 62.2463 21.2402V21.5178C62.1821 21.374 62.118 21.2813 62.0631 21.0963C61.9715 20.9318 61.9349 20.8187 61.8616 20.6438C61.7975 20.6131 61.6784 20.5822 61.6234 20.6438C61.6326 20.8187 61.7059 20.8907 61.715 21.0963C61.596 21.2301 61.6143 21.2711 61.5319 21.0655C61.4678 20.901 61.3853 20.9112 61.2936 20.8187C61.138 20.7981 61.1929 20.685 61.1471 20.5308C61.1471 20.3971 61.1471 20.2635 61.1105 20.1503C60.9455 20.1503 60.854 20.1503 60.7533 20.2532C60.7075 20.356 60.7258 20.5616 60.7533 20.7158V21.1991C60.7166 21.3225 60.6616 21.3328 60.6343 21.4871C60.5793 21.631 60.5609 21.7955 60.5151 21.8983C60.4051 22.0115 60.451 22.0217 60.396 21.8366V20.7056C60.396 20.5206 60.4235 20.4281 60.4235 20.2531C60.3594 20.1093 60.3503 20.0783 60.1488 20.0783C60.1121 20.1708 60.1304 20.3355 60.1488 20.428C60.1488 20.6027 60.167 20.7673 60.1854 20.8907C60.1854 21.0757 60.2038 21.1888 60.2129 21.3431C60.2129 21.5281 60.1763 21.6721 60.0938 21.7543C59.993 21.7956 60.0846 21.8777 59.9748 21.9086C59.8548 21.8447 59.7437 21.7615 59.645 21.6618C59.535 21.6206 59.4251 21.5898 59.2603 21.5898C59.0588 21.5898 59.0588 21.559 58.9855 21.3842C58.9308 21.2001 58.8909 21.0108 58.8664 20.8187C58.8023 20.6542 58.7931 20.5411 58.7474 20.356C58.7061 20.2575 58.643 20.1726 58.5641 20.1092C58.5275 20.2942 58.4909 20.4382 58.4816 20.644C58.4451 20.7262 58.4359 20.9318 58.4176 21.0243C58.3626 20.9215 58.3351 20.7158 58.2985 20.5718C58.2435 20.3663 58.1978 20.2223 58.0054 20.2943C57.8039 20.2943 57.7948 20.2943 57.7948 20.5411L58.0329 20.9523V21.4458C58.0329 21.6516 58.042 21.7133 57.9139 21.7543C57.868 21.5487 57.7581 21.3431 57.639 21.1683C57.6299 21.0243 57.5933 21.0655 57.465 21.0655C57.3825 21.0655 57.3001 21.045 57.2544 21.0963V21.4047C57.181 21.4253 57.1628 21.4047 57.1078 21.3431C57.0528 21.4458 57.0895 21.5898 57.1078 21.7235C57.0711 21.888 57.0163 22.032 56.9613 22.1142C56.9429 22.0628 56.9154 22.0833 56.9613 22.0833C56.7506 21.9908 56.5949 21.9395 56.4116 21.8777C56.3201 21.8777 56.2376 21.9908 56.1826 22.0833C56.027 22.1348 55.9629 22.1862 55.7889 22.1862C55.6239 22.1862 55.5506 22.2171 55.4041 22.2171C55.2941 22.2478 55.1568 22.2582 55.0104 22.2582C54.937 22.2273 54.7904 22.2273 54.7446 22.1862C54.8088 22.0833 54.8729 22.032 54.9279 21.8777C55.014 21.8003 55.0937 21.7143 55.166 21.6207C55.2393 21.559 55.3309 21.4253 55.4041 21.3431C55.4499 21.1683 55.5141 21.1375 55.6148 21.0655C55.798 21.0655 55.8255 21.1375 55.9995 21.1683C56.1735 21.2402 56.2743 21.2711 56.3658 21.1271C56.5033 21.0655 56.6224 20.9523 56.778 20.9215L57.0803 20.7158C57.2085 20.6233 57.2635 20.5308 57.3734 20.428C57.41 20.2841 57.5016 20.171 57.465 20.0167C57.3001 19.9653 57.1994 19.9755 57.0986 20.0783C56.9795 20.2018 56.9521 20.2532 56.8055 20.356C56.6865 20.3972 56.6224 20.4588 56.4758 20.5C56.3568 20.5513 56.201 20.5308 56.0636 20.5308C55.9263 20.5308 55.7521 20.5205 55.6698 20.572C55.8073 20.4691 55.9629 20.3663 56.091 20.3252C56.2101 20.2327 56.256 20.1915 56.4209 20.1812C56.4941 20.0783 56.5674 20.0783 56.604 19.9037C56.6498 19.698 56.485 19.7597 56.3568 19.8316C56.2376 19.8625 56.1003 19.955 55.9995 20.0065C55.8752 20.0518 55.7455 20.0761 55.6148 20.0783C55.5781 20.0167 55.6423 19.9653 55.6698 19.8727C55.8073 19.8111 55.8346 19.7905 55.8529 19.626C55.6881 19.6466 55.6331 19.7082 55.4866 19.7288C55.34 19.77 55.1843 19.7905 55.0104 19.8008H54.5981C54.4515 19.8008 54.3691 19.7596 54.2043 19.7596C54.0851 19.6877 54.0851 19.6568 54.0851 19.4512C54.1768 19.3278 54.2684 19.3483 54.4515 19.3483L54.7721 19.1633C54.8821 19.1427 54.9553 19.0913 54.9279 19.0296H54.5065C54.3415 18.9473 54.5065 18.9166 54.5981 18.8548C54.7355 18.8548 54.8911 18.8548 54.9828 18.9166C55.166 18.9166 55.2301 18.8446 55.3675 18.7108C55.4865 18.6081 55.5506 18.5361 55.6698 18.4641C55.7614 18.351 55.8529 18.2893 55.9079 18.1866C56.0361 18.0528 56.1185 17.9808 56.1826 17.8678C56.256 17.8163 56.3109 17.765 56.2743 17.693C56.0819 17.7136 55.9995 17.7958 55.8805 17.8986C55.8117 17.9814 55.7312 18.0509 55.6423 18.1042C55.5266 18.1963 55.3901 18.2498 55.2485 18.2585C55.1019 18.2585 54.9736 18.2276 54.8363 18.2173C54.6713 18.1968 54.8179 18.1557 54.8638 18.0735C54.9279 18.0322 54.9736 17.9192 54.9188 17.837C54.7996 17.7855 54.6439 17.7957 54.5065 17.7957H54.0853C53.9295 17.7957 53.8653 17.7547 53.7554 17.693C53.7279 17.5901 53.7554 17.621 53.8745 17.621C54.0079 17.6149 54.1401 17.5908 54.2683 17.549C54.4058 17.5078 54.424 17.4462 54.4515 17.2715C54.305 17.2715 54.1493 17.2715 54.0578 17.2406H53.7829ZM51.1999 16.4386C51.1724 16.1815 51.1174 16.0478 51.1084 15.7908C51.1084 15.6058 51.1175 15.7086 51.2824 15.4515C51.3006 15.4515 51.4198 15.3177 51.5388 15.2047C51.6945 15.102 51.8411 14.9888 51.9968 14.8962C52.1159 14.8243 52.3631 14.7626 52.4639 14.701C52.6133 14.6173 52.7446 14.498 52.8486 14.3513C52.8578 14.1353 52.8853 13.9708 52.8853 13.7138C53.0593 13.611 53.2059 13.5288 53.3524 13.4671C53.563 13.3951 53.6089 13.3026 53.8195 13.2615C53.957 13.21 54.1768 13.21 54.3691 13.21C54.5798 13.21 54.708 13.3848 54.9004 13.4157C55.1294 13.5185 55.2301 13.5905 55.4041 13.7652C55.5049 13.9092 55.569 14.0326 55.743 14.1353C55.8805 14.2177 56.0086 14.3411 56.1643 14.3822C56.1643 14.5672 56.201 14.5363 56.0911 14.5363C56.0728 14.7215 56.0361 14.701 55.8804 14.7112C55.7681 14.6437 55.6734 14.5445 55.6056 14.4233C55.6698 14.2485 55.6331 14.5775 55.6056 14.6392C55.5324 14.7112 55.4865 14.7832 55.4041 14.7112C55.3491 14.5363 55.3125 14.4233 55.3125 14.2177C55.285 14.0017 55.23 14.156 55.1935 14.2485C55.1476 14.4335 55.166 14.4952 55.221 14.6392C55.0653 14.6392 54.9461 14.6187 54.8363 14.5981C54.7263 14.5672 54.5981 14.6083 54.4699 14.6701C54.3141 14.7832 54.3691 14.7832 54.4424 14.9168C54.5799 14.9682 54.6805 15.0506 54.8088 15.1225C54.937 15.102 55.0835 15.0608 55.2209 15.0196C55.3675 14.9683 55.4958 14.9991 55.6423 15.0196C55.7155 15.0711 55.8073 15.0711 55.8529 15.1225C55.8529 15.2356 55.8529 15.3487 55.8163 15.4103C55.7613 15.4617 55.6973 15.5852 55.6056 15.616C55.4774 15.7006 55.3384 15.763 55.1935 15.801C55.0103 15.801 54.937 15.8525 54.7996 15.9347C54.7813 16.1197 54.7355 16.161 54.5889 16.2226C54.4602 16.2914 54.3193 16.3266 54.1768 16.3255C54.0851 16.3255 54.0028 16.3357 53.9661 16.2843C54.0678 16.1652 54.1486 16.0257 54.2043 15.8731C54.2318 15.7908 54.2868 15.7497 54.2318 15.6881C54.0576 15.6982 54.0119 15.6982 53.9935 15.8936C53.9753 16.089 53.9111 16.1198 53.7829 16.1815C53.8195 16.0067 53.8286 15.8731 53.8745 15.7291C53.7473 15.7515 53.6186 15.7618 53.4898 15.76C53.3983 15.8216 53.3615 15.8525 53.3983 15.9656C53.2791 16.017 53.1234 15.9862 52.9769 15.9656C52.8486 15.9656 52.9219 15.904 52.8303 15.8318C52.7661 15.6982 52.7021 15.6675 52.5555 15.6571C52.4914 15.76 52.3724 15.7908 52.2899 15.8627C52.1616 15.9142 52.0793 15.8731 51.9601 15.8011C51.8136 15.8011 51.8319 15.8525 51.8685 15.9758C51.9326 16.0171 51.8685 16.0683 51.9601 16.0787C52.0518 16.161 52.1251 16.1815 52.2899 16.1815C52.4181 16.1403 52.5646 16.1507 52.7111 16.1507C52.8578 16.1507 52.8303 16.1918 52.8303 16.3563C52.7388 16.4386 52.5921 16.4283 52.4365 16.4283C52.3142 16.4104 52.1942 16.3759 52.0793 16.3255C51.9418 16.3152 51.8319 16.2843 51.722 16.3255C51.6763 16.3872 51.5388 16.4077 51.6945 16.4283C51.7586 16.5002 52.1068 16.4591 52.125 16.5825C52.2166 16.6853 52.1891 16.819 52.0518 16.819C52.0201 16.7971 51.9836 16.7856 51.9465 16.7856C51.9093 16.7856 51.8728 16.7971 51.8411 16.819C51.7495 16.8396 51.6213 16.819 51.4473 16.8396C51.6763 16.8601 51.2823 16.562 51.1999 16.4386Z" fill="#FEFEFE"/>
<path fill-rule="evenodd" clip-rule="evenodd" d="M52.1431 15.2772L51.9598 15.4109C51.8316 15.4931 51.6851 15.6164 51.6026 15.6884C51.5384 15.7502 51.5384 15.7913 51.4561 15.7913C51.5936 15.7707 51.6576 15.7296 51.7858 15.6576C51.9416 15.6371 52.0881 15.5959 52.1706 15.5137C52.2529 15.4828 52.1706 15.3492 52.1431 15.2669V15.2772ZM53.5169 13.6218C53.5353 13.6218 53.5719 13.7246 53.6361 13.7966C53.6818 13.9303 53.7276 14.0228 53.7276 14.1873C53.7643 14.0124 53.8192 13.8788 53.8467 13.6937C53.8009 13.5909 53.8009 13.5601 53.6636 13.5498C53.6636 13.6526 53.6818 13.5807 53.5169 13.6218Z" fill="#BCBCBC"/>
<path fill-rule="evenodd" clip-rule="evenodd" d="M52.6852 14.8615C52.6174 14.8615 52.7936 14.7823 52.8614 14.7665C52.9156 14.6398 52.9427 14.5606 53.0376 14.4814C53.1867 14.4814 53.2681 14.5448 53.3359 14.6556C53.4714 14.7031 53.5121 14.7665 53.6612 14.7981C53.729 14.8615 53.7968 14.8615 53.6612 14.909C53.5799 14.9565 53.4579 14.9723 53.3087 14.9723C53.1863 14.983 53.0668 15.0206 52.9563 15.0831C52.7529 15.0831 52.7801 15.0832 52.6852 14.8615Z" fill="#C4C4C2" stroke="black" stroke-width="0.131858"/>
<path fill-rule="evenodd" clip-rule="evenodd" d="M54.0576 13.6522V13.6934C54.0576 13.5906 54.0576 13.6419 54.0851 13.8373C54.1341 13.9671 54.1561 14.1078 54.1492 14.2486C54.2343 14.1665 54.2977 14.0598 54.3325 13.9402C54.3325 13.6626 54.2866 13.6728 54.0576 13.6522ZM55.1567 17.6931H55.1935C55.1019 17.6931 55.1567 17.6931 55.3125 17.5902C55.4132 17.5079 55.4957 17.3846 55.6422 17.3434C55.7556 17.2349 55.8861 17.1512 56.027 17.0967C56.1002 17.0556 56.1644 16.9939 56.2376 17.0658C56.2194 17.2304 56.1919 17.3023 56.0545 17.3743C55.9904 17.4772 55.8895 17.5388 55.7889 17.5799C55.6972 17.6417 55.5872 17.6417 55.5506 17.7649C55.3857 17.8473 55.3675 17.8267 55.166 17.6931H55.1567ZM55.7339 18.7109C55.7796 18.6597 55.972 18.4437 56.0636 18.3614C56.1445 18.2284 56.2434 18.1105 56.3567 18.0118C56.4482 17.8576 56.5582 17.7548 56.6315 17.6211L56.8696 17.2716C56.8696 17.4257 56.8514 17.6314 56.8971 17.7239C56.9059 17.8717 56.8739 18.0189 56.8055 18.1454C56.7414 18.2688 56.6865 18.3511 56.5307 18.4333C56.4025 18.5157 56.3201 18.5362 56.2101 18.6391C56.1221 18.7041 56.0303 18.7625 55.9354 18.8138C55.8529 18.8549 55.8896 18.8447 55.7339 18.7109ZM54.7996 19.5129H54.8362C54.7446 19.5129 54.7904 19.5233 54.9552 19.4102C55.0835 19.2662 55.1842 19.2046 55.34 19.1326C55.467 19.1264 55.5917 19.0914 55.7064 19.0297C55.7705 19.0092 55.8255 18.9578 55.8804 19.0297C55.972 19.1737 55.9995 19.2147 55.8529 19.3073C55.7635 19.3876 55.6607 19.447 55.5506 19.4822C55.4774 19.5541 55.3309 19.5541 55.1844 19.5849C55.0744 19.5849 55.0011 19.6056 54.9552 19.5129L55.1935 19.5849C55.0744 19.5849 55.0102 19.6056 54.7996 19.5129ZM56.0819 19.5129V19.4822C56.0819 19.5849 56.0819 19.5334 56.146 19.3382C56.2651 19.1428 56.3017 19.0297 56.4482 18.9886C56.5124 18.8858 56.6315 18.8652 56.778 18.8138C56.833 18.9167 56.7872 19.0401 56.778 19.1634C56.7414 19.2971 56.6315 19.3897 56.5674 19.4822C56.4757 19.5541 56.4391 19.6261 56.2926 19.6569C56.1826 19.6569 56.2467 19.6569 56.0911 19.5129H56.0819Z" fill="#BCBCBC"/>
<path fill-rule="evenodd" clip-rule="evenodd" d="M53.1597 14.958C53.1597 15.0505 53.0955 15.1327 53.0132 15.1327C52.9215 15.1327 52.8574 15.0505 52.8574 14.958C52.8574 14.8655 52.9307 14.7832 53.0132 14.7832C53.0957 14.7832 53.1597 14.8551 53.1597 14.958Z" fill="black"/>
<path fill-rule="evenodd" clip-rule="evenodd" d="M53.6062 24.5179H53.7282C53.3487 24.5179 53.5791 24.4862 54.2027 25.0721C54.4738 24.8187 54.4738 24.7871 54.6771 25.2304C54.8127 25.4679 54.8398 25.1987 55.0431 24.9454C55.138 25.4521 55.1923 25.9746 55.5176 25.4996C55.8972 25.4996 56.2767 25.4679 56.4801 25.6421C56.7241 26.1646 56.6428 25.5471 56.8325 25.7846C57.3748 25.848 57.3612 25.2463 57.9306 25.0879C58.283 25.6104 58.4457 25.2146 58.8795 24.9612C59.2184 25.0562 59.5302 25.6421 59.598 25.0721C59.8691 24.5654 59.8826 24.5971 60.0724 25.0721C60.3435 25.3571 60.452 24.9454 60.6689 24.8029C61.0756 25.0721 61.5229 25.1196 62.1058 24.9454C62.2143 25.4046 62.4583 25.1988 62.7158 25.0721C63.2445 25.3413 63.4208 25.4204 64.0308 25.0721C64.329 24.6604 64.1663 25.0879 64.3832 25.3571C64.8306 25.1988 64.7086 25.1671 65.2237 25.2146C65.7524 25.2146 65.7931 25.2146 65.9422 24.8029C66.2133 25.1037 66.2946 25.3254 66.6606 24.9454C67.23 24.9454 67.0538 25.0246 67.3791 24.7871C67.6367 25.4204 67.6909 24.9771 67.9891 25.2146C67.8214 25.6823 67.5259 26.0721 67.1487 26.323C66.9182 26.798 66.7691 27.273 66.3082 27.4631C65.9693 27.8589 65.6033 28.0964 65.2237 28.4448C64.7086 28.6031 64.1392 28.5714 63.5563 28.5714H58.5135C58.161 28.7931 57.5646 28.8881 57.0765 28.999C56.5343 28.999 55.8972 28.999 55.5176 28.8565C55.26 28.5556 54.8127 28.2231 54.5687 27.8747C54.2976 27.6372 54.2976 27.178 54.0807 26.893C53.8909 26.4972 53.8096 25.8638 53.6062 25.4996V24.5179Z" fill="#005120" stroke="#002B0D" stroke-width="0.195345"/>
<path fill-rule="evenodd" clip-rule="evenodd" d="M65.2232 25.785V25.9117C65.2232 25.5317 65.2368 25.7375 64.9792 26.4817C64.9386 26.6559 64.8166 26.7034 64.6268 26.7667M64.1523 26.3392H64.2743C63.827 26.8142 63.5287 27.0518 63.4338 27.606L64.2743 26.3392C63.827 26.8142 63.5287 27.0518 63.4338 27.606M62.4714 25.6425C62.4714 25.6425 62.4578 26.1334 62.3494 26.3392L62.4714 25.6425ZM61.0344 25.785H61.1564H61.0209C61.0751 25.785 61.1158 25.785 61.0209 25.785H61.0344ZM54.3242 25.785C54.3784 25.785 54.6224 26.2284 54.9207 26.4817C54.8529 26.8934 54.7309 27.3684 54.9207 27.7485M55.2867 26.6242C55.3409 26.6242 55.5714 27.0676 55.8832 27.3209L55.2867 26.6242C55.3409 26.6242 55.5714 27.0676 55.8832 27.3209V27.4635C55.8832 27.0201 55.856 26.5767 56.0052 26.3392C56.1407 26.6084 56.3034 27.0201 56.3576 26.6242C57.0354 26.5926 57.3608 26.3709 57.7946 26.1967C57.7946 26.4026 57.7674 26.3075 57.9301 26.4817M66.0637 25.9117H66.1857C65.9553 26.1334 65.779 26.5926 65.5893 26.8934M61.1564 25.5H62.1054H61.1564Z" fill="#005120"/>
<path d="M65.2232 25.785V25.9117C65.2232 25.5317 65.2368 25.7375 64.9792 26.4817C64.9386 26.6559 64.8166 26.7034 64.6268 26.7667M64.1523 26.3392H64.2743M64.2743 26.3392C63.827 26.8142 63.5287 27.0518 63.4338 27.606L64.2743 26.3392ZM62.4714 25.6425C62.4714 25.6425 62.4578 26.1334 62.3494 26.3392M61.9969 26.6242V26.7509M61.0209 25.785H61.1564H61.0344H61.0209ZM61.0209 25.785C61.0751 25.785 61.1158 25.785 61.0209 25.785ZM54.3242 25.785C54.3784 25.785 54.6224 26.2284 54.9207 26.4817C54.8529 26.8934 54.7309 27.3684 54.9207 27.7485M55.8832 27.3209C55.5714 27.0676 55.3409 26.6242 55.2867 26.6242L55.8832 27.3209ZM55.8832 27.3209V27.4635C55.8832 27.0201 55.856 26.5767 56.0052 26.3392C56.1407 26.6084 56.3034 27.0201 56.3576 26.6242C57.0354 26.5926 57.3608 26.3709 57.7946 26.1967C57.7946 26.4026 57.7674 26.3075 57.9301 26.4817M66.0637 25.9117H66.1857C65.9553 26.1334 65.779 26.5926 65.5893 26.8934M61.1564 25.5H62.1054" stroke="#002B0D" stroke-width="0.195345"/>
<path fill-rule="evenodd" clip-rule="evenodd" d="M53.2373 26.7871C51.7998 26.7871 51.3123 28.4746 49.8748 28.4746H49.7998V28.5746C49.7998 29.7496 49.8748 30.8371 50.0248 31.8496C51.3498 31.7496 51.8373 30.1746 53.2373 30.1746C54.6748 30.1746 55.1498 31.8496 56.5873 31.8496C58.0373 31.8496 58.5123 30.1746 59.9498 30.1746C61.3873 30.1746 61.8748 31.8496 63.3123 31.8496C64.7498 31.8496 65.2248 30.1746 66.6623 30.1746C68.0373 30.1746 68.5373 31.7371 69.8623 31.8496C70.0284 30.7345 70.1079 29.6052 70.0998 28.4746H70.0123C68.5748 28.4746 68.0998 26.7996 66.6623 26.7996C65.2248 26.7996 64.7373 28.4871 63.3123 28.4871C61.8748 28.4871 61.3873 26.7996 59.9373 26.7996C58.5123 26.7996 58.0248 28.4871 56.5873 28.4871C55.1623 28.4871 54.6748 26.7996 53.2373 26.7996V26.7871ZM53.2373 33.3746C52.1123 33.3746 51.5873 34.3996 50.7123 34.8496C51.0005 35.7386 51.3603 36.5964 51.7873 37.4121C52.1998 37.0621 52.6248 36.7621 53.2373 36.7621C54.6748 36.7621 55.1498 38.4496 56.5873 38.4496C58.0373 38.4496 58.5123 36.7621 59.9498 36.7621C61.3873 36.7621 61.8748 38.4496 63.2998 38.4496C64.7248 38.4496 65.2248 36.7621 66.6623 36.7621C67.1826 36.7834 67.6809 37.0039 68.0748 37.3871C68.5005 36.575 68.8603 35.7216 69.1498 34.8371C68.3123 34.3746 67.7748 33.3746 66.6498 33.3746C65.2248 33.3746 64.7373 35.0621 63.2998 35.0621C61.8623 35.0621 61.3748 33.3746 59.9498 33.3746C58.5248 33.3746 58.0248 35.0621 56.5873 35.0621C55.1623 35.0621 54.6748 33.3746 53.2373 33.3746ZM59.9498 39.9621C58.5123 39.9621 58.0248 41.6496 56.5873 41.6496C55.2248 41.6496 54.7248 40.1496 53.4623 39.9746C54.8142 41.6577 56.4832 43.0592 58.3748 44.0996C58.8248 43.6996 59.2873 44.5496 59.9373 44.5496C60.5998 44.5496 61.0623 43.6871 61.4998 44.0746C63.3408 43.0716 64.9952 41.6844 66.3748 39.9871C65.1498 40.1996 64.6248 41.6496 63.2998 41.6496C61.8623 41.6496 61.3873 39.9621 59.9498 39.9621Z" fill="white"/>
<path d="M51.0332 33.5347C51.4991 33.3497 51.9725 33.1917 52.4518 33.0615L54.6539 35.5378L52.8436 35.9637L51.0332 33.5347Z" stroke="#512007" stroke-width="0.072988"/>
<path d="M55.377 37.5761C55.4113 37.0013 56.3851 33.7021 56.3851 33.7021M55.7092 37.6136L56.4768 33.7271M55.9727 37.6261L56.6143 33.7271M55.4113 37.1013C55.5832 37.0013 56.0758 36.8513 56.0758 36.8513M55.6519 36.5264C55.8123 36.5264 56.1445 36.3764 56.1445 36.3764M55.7436 36.089C55.9068 36.0217 56.0756 35.9715 56.2477 35.9391M55.8123 35.5392L56.3508 35.4392M56.0529 35.0643C56.0529 35.1018 56.4195 35.1018 56.4195 35.1018M56.1445 34.6394L56.5112 34.7019" stroke="#512007" stroke-width="0.0717923"/>
<path d="M61.665 39.9819C61.6245 38.9997 60.4761 33.3623 60.4761 33.3623M61.2732 39.7898L60.3681 33.3837M60.8679 39.2986C60.8409 38.9356 60.2059 33.405 60.2059 33.405M61.6245 39.1705C61.4219 38.9997 60.8409 38.7434 60.8409 38.7434M61.3408 38.1882C61.1517 38.1882 60.7599 37.932 60.7599 37.932M61.2327 37.4409C61.0402 37.3258 60.8411 37.24 60.6383 37.1846M61.1517 36.5013L60.5167 36.3305M60.8679 35.6899C60.8679 35.7539 60.4356 35.7539 60.4356 35.7539M60.7599 34.9638L60.3275 35.0706" stroke="#512007" stroke-width="0.0679401"/>
<path d="M65.0049 37.9608C64.9644 37.2352 63.816 33.0713 63.816 33.0713M64.6131 37.8188L63.7079 33.0871M64.2078 37.4561C64.1808 37.1879 63.5458 33.1028 63.5458 33.1028M64.9644 37.3614C64.7617 37.2353 64.1808 37.046 64.1808 37.046M64.6806 36.6359C64.4915 36.6359 64.0997 36.4466 64.0997 36.4466M64.5726 36.0839C64.38 35.9989 64.181 35.9355 63.9781 35.8946M64.4915 35.3899L63.8565 35.2637M64.2078 34.7905C64.2078 34.8378 63.7755 34.8378 63.7755 34.8378M64.0997 34.2542L63.6674 34.3331" stroke="#512007" stroke-width="0.072988"/>
<path fill-rule="evenodd" clip-rule="evenodd" d="M59.5176 38.3924L59.6392 26.8785C59.6392 26.8785 59.9904 26.8311 59.9904 26.8785C59.9904 26.9258 59.9499 38.3451 59.9094 38.3924C59.8689 38.4397 59.4771 38.4713 59.5176 38.3924ZM63.368 27.3832L63.2869 37.0518L63.0167 37.4303L63.0978 27.3832H63.368Z" fill="#DD8B59" stroke="#512007" stroke-width="0.072988"/>
<path fill-rule="evenodd" clip-rule="evenodd" d="M55.1537 36.5002C55.1537 36.5002 55.559 41.2319 60.0714 41.09C64.5838 40.948 65.8403 36.3266 65.8403 36.3266L63.8813 36.232C63.8408 36.232 62.3141 38.4402 60.3416 38.3929C58.3691 38.3455 57.7477 37.7935 57.3153 37.3361C56.883 36.8629 56.5047 36.1847 56.5047 36.1847L54.208 35.1279L54.3431 36.1374L55.1537 36.5002ZM67.3534 36.027L67.2183 35.3961V34.8598L67.4345 34.292C67.4345 34.292 64.0164 34.8756 64.0164 34.9229L64.0029 35.9954L67.3534 36.0112V36.027Z" fill="#DD8B59" stroke="#512007" stroke-width="0.072988"/>
<path d="M55.0049 36.4524C55.1265 36.4524 56.0317 36.689 56.0317 36.689L56.9774 38.1558M66.7047 34.8594L66.6236 35.8057H67.1775L67.137 34.8594H66.7047ZM66.1237 34.9067L66.0832 35.9161L66.4345 35.8688L66.475 34.9067H66.1237ZM65.5293 35.9161V35.1275L65.8806 34.9856L65.9211 35.7742L65.5293 35.9161ZM64.8538 35.8688L64.9348 35.1748L65.3402 35.2221L65.3672 35.9635L64.8538 35.8688ZM64.1107 35.8688L64.1513 35.2695L64.5566 35.2221V35.9161L64.1107 35.8688Z" stroke="#512007" stroke-width="0.072988"/>
<path d="M55.667 36.6421C55.7075 36.6894 56.4911 39.765 60.2604 39.765C64.0298 39.765 64.935 36.2793 64.935 36.2793" stroke="#512007" stroke-width="0.072988"/>
<path d="M65.5291 36.374C65.5291 36.374 63.7187 40.9481 60.2601 40.6326C56.815 40.3172 56.2611 38.803 55.9909 38.0144C55.7207 37.2257 55.5586 36.5948 55.5586 36.5948" stroke="#512007" stroke-width="0.072988"/>
<path fill-rule="evenodd" clip-rule="evenodd" d="M56.5315 36.1841C56.572 35.916 56.572 27.6038 56.572 27.6038L56.3424 27.5723L56.3018 36.0421L56.5315 36.1999V36.1841ZM50.9248 33.487L53.897 35.1746L53.8295 35.4112C53.8295 35.4112 50.9653 33.834 50.9653 33.7867C50.9653 33.7393 50.9924 33.5501 50.9248 33.4712V33.487Z" fill="#DD8B59" stroke="#512007" stroke-width="0.072988"/>
<path fill-rule="evenodd" clip-rule="evenodd" d="M52.2891 32.9825C52.2891 33.1087 52.7214 35.9162 52.7214 35.9162C52.7214 35.9162 52.9916 35.9635 52.9916 35.9162L52.5322 33.0298L52.2891 32.9825ZM55.0451 33.0614C55.1937 33.0614 57.8823 32.5566 57.8823 32.5566L57.8282 33.0614L55.1937 33.3768L55.0451 33.0614Z" fill="#DD8B59" stroke="#512007" stroke-width="0.072988"/>
<path fill-rule="evenodd" clip-rule="evenodd" d="M55.4238 29.2596C55.5184 29.2596 56.3695 29.7644 56.7343 29.6382C57.0991 29.512 56.8559 29.165 56.9235 29.165C57.0045 29.165 57.2747 29.4016 57.4368 29.2123C57.599 29.0388 57.707 28.4868 57.6395 28.5341C57.5584 28.5814 55.4779 29.4489 55.4373 29.2596H55.4238Z" fill="#FECF3E" stroke="#512007" stroke-width="0.072988"/>
<path fill-rule="evenodd" clip-rule="evenodd" d="M55.0859 30.4113C55.2345 30.4587 58.3014 29.4492 58.3014 29.4492C58.3014 29.4492 58.3014 29.7647 58.2608 29.7647L55.0859 30.7268V30.4113Z" fill="#DD8B59" stroke="#512007" stroke-width="0.072988"/>
<path fill-rule="evenodd" clip-rule="evenodd" d="M62.1785 28.9917C62.1785 28.9917 62.3811 29.5438 62.5838 29.4492C62.7864 29.3545 62.9756 29.1653 62.9756 29.1653C62.9756 29.1653 63.1377 29.6384 63.4079 29.5438C63.6781 29.4492 63.8402 28.9444 63.8402 28.9444C63.8402 28.9444 64.1104 29.0391 64.232 28.9917C64.3536 28.9444 64.5022 28.2031 64.5022 28.2031L62.192 28.9917H62.1785ZM61.9488 33.4396C61.9083 33.5343 62.1515 33.7551 62.3541 33.7551C62.5568 33.7551 62.6243 33.4396 62.6648 33.5343C62.7054 33.6131 62.7054 34.039 63.2053 33.897C63.7051 33.7551 63.7186 33.345 63.7186 33.345C63.7186 33.345 63.57 33.4869 63.9213 33.5343C64.2726 33.5816 64.6238 32.9349 64.5968 32.9349C64.5428 32.9349 62.0299 33.4869 61.9488 33.4396Z" fill="#FECF3E" stroke="#512007" stroke-width="0.072988"/>
<path fill-rule="evenodd" clip-rule="evenodd" d="M55.2071 29.0706C55.1824 29.2127 55.1917 29.3601 55.2341 29.4964L57.801 28.487C57.801 28.487 57.9091 28.2504 57.801 28.2504C57.693 28.2504 55.1666 29.1652 55.1936 29.0863L55.2071 29.0706ZM58.5846 28.4397C58.6522 28.4397 61.2056 27.4775 61.2056 27.4775C61.2056 27.4775 61.2461 27.8876 61.2056 27.8876L58.8143 28.7078L58.5711 28.4397H58.5846Z" fill="#DD8B59" stroke="#512007" stroke-width="0.072988"/>
<path fill-rule="evenodd" clip-rule="evenodd" d="M61.9489 30.4592C61.9489 30.4592 61.5571 30.9639 61.6787 31.6421C61.8003 32.3361 61.9489 32.9355 61.9894 32.9355C62.0299 32.9355 62.4623 32.0207 62.9351 31.9734C63.408 31.926 64.2726 32.4781 64.2726 32.4781C64.2726 32.4781 64.151 31.374 64.1916 30.8693C64.2321 30.3646 64.8941 29.4971 64.8941 29.4971L61.9489 30.4434V30.4592Z" fill="#FECF3E" stroke="#512007" stroke-width="0.072988"/>
<path fill-rule="evenodd" clip-rule="evenodd" d="M58.382 29.6225C58.382 29.6225 58.3009 30.0484 58.3414 30.0484L61.6784 29.0389V28.7393L58.382 29.6067V29.6225Z" fill="#DD8B59" stroke="#512007" stroke-width="0.072988"/>
<path fill-rule="evenodd" clip-rule="evenodd" d="M54.1401 35.1746C54.1401 35.1746 53.3565 35.0484 53.397 35.2692C53.4376 35.5058 53.7888 35.7266 53.8294 35.8686C53.8699 36.0105 53.7078 36.4995 53.9509 36.4679C54.1806 36.4206 54.4103 36.2313 54.4103 36.0894L54.3698 35.3007L54.1401 35.1746Z" fill="#B6B6B4" stroke="#512007" stroke-width="0.072988"/>
<path fill-rule="evenodd" clip-rule="evenodd" d="M58.5039 32.8873V33.2028L61.3275 32.7454L61.2465 32.5088L58.5039 32.8873Z" fill="#DD8B59" stroke="#512007" stroke-width="0.072988"/>
<path fill-rule="evenodd" clip-rule="evenodd" d="M55.1537 33.4398C55.2077 33.4398 55.1537 33.8498 55.4779 33.7552C55.7887 33.6606 55.8697 33.4398 55.8697 33.4398C55.8697 33.4398 55.9508 33.9445 56.3831 33.8972C56.8154 33.8498 57.0586 33.2978 57.0586 33.2978C57.0586 33.2978 57.0856 33.7079 57.3559 33.5659C57.6261 33.424 57.7071 33.1085 57.7071 33.1085L55.2348 33.5186L55.1672 33.4398H55.1537ZM55.1537 30.7269C55.1537 30.7269 54.8024 30.8688 54.924 31.689C55.0456 32.5092 55.3293 32.9824 55.3564 32.9824C55.3969 32.9824 55.7076 32.1937 56.1805 32.0675C56.6533 31.9098 57.4774 32.4776 57.4774 32.4776C57.4774 32.4776 57.3964 31.7363 57.518 31.0581C57.6047 30.6164 57.7807 30.2054 58.0314 29.8594C58.0314 29.8594 55.2753 30.7269 55.1672 30.7269H55.1537Z" fill="#FECF3E" stroke="#512007" stroke-width="0.072988"/>
<path fill-rule="evenodd" clip-rule="evenodd" d="M61.7603 33.1082L61.8008 33.3921C61.8008 33.3921 64.6379 32.982 64.6379 32.9189C64.6379 32.8874 64.6379 32.6035 64.5839 32.6035C64.5433 32.6035 61.8008 33.1555 61.7467 33.1082H61.7603ZM61.7197 30.1745L61.7603 30.4899L65.0973 29.4489C65.0973 29.4489 65.1783 29.165 65.1378 29.165C65.0973 29.165 61.8008 30.3164 61.7197 30.1745Z" fill="#DD8B59" stroke="#512007" stroke-width="0.072988"/>
<path d="M67.2992 34.023L64.8673 29.5436M64.5431 32.6508C64.5836 32.5246 64.7052 29.7644 64.7052 29.7644M62.0707 28.7077C62.0707 28.7077 62.0302 28.9916 62.0707 28.9916C62.1113 28.9916 64.5431 28.2976 64.5431 28.2503C64.5431 28.203 64.7863 27.9348 64.5836 27.9821C64.3945 28.0295 62.1518 28.8496 62.0707 28.7077Z" stroke="#512007" stroke-width="0.072988"/>
<path fill-rule="evenodd" clip-rule="evenodd" d="M58.6659 28.5816C58.801 28.6131 59.0848 29.0863 59.2469 28.9917C59.409 28.897 59.6387 28.6131 59.6387 28.6131C59.6387 28.6131 59.5981 29.1652 59.9089 29.0863C60.2331 28.9917 60.2737 28.6131 60.2737 28.6131C60.2737 28.6131 60.5033 28.7709 60.706 28.6131C60.8951 28.487 61.0843 27.793 61.0167 27.793C60.9492 27.793 58.7335 28.6131 58.6524 28.5816H58.6659ZM58.5849 29.9065C58.5849 30.0011 58.1796 30.7267 58.3147 31.4207C58.4498 32.1147 58.6524 32.7456 58.693 32.7456C58.7335 32.7456 59.3279 32.02 59.8413 31.8781C60.3412 31.7361 61.0978 32.3355 61.0572 32.3355C61.0167 32.3355 60.8546 31.6415 60.8546 31.1368C60.8546 30.632 61.449 29.0863 61.449 29.0863L58.5849 29.9065ZM58.5849 33.2187C58.5849 33.2503 58.693 33.5657 58.9767 33.5657C59.2469 33.5657 59.2874 33.2503 59.2874 33.2503C59.2874 33.2503 59.2469 33.8023 59.6792 33.755C60.1115 33.7077 60.2601 33.203 60.2601 33.203C60.2601 33.203 60.3007 33.4869 60.6654 33.3449C61.0167 33.203 61.4761 32.7456 61.449 32.7456C61.4085 32.7456 58.6119 33.3449 58.5714 33.2187H58.5849Z" fill="#FECF3E" stroke="#512007" stroke-width="0.072988"/>
<path fill-rule="evenodd" clip-rule="evenodd" d="M58.9095 31.4632C58.965 31.4656 59.0174 31.4939 59.0552 31.5419C59.0929 31.5899 59.1129 31.6536 59.1107 31.719C59.1086 31.7845 59.0844 31.8462 59.0436 31.8908C59.0028 31.9353 58.9486 31.9589 58.8931 31.9565C58.8375 31.954 58.7851 31.9257 58.7473 31.8777C58.7096 31.8297 58.6896 31.766 58.6918 31.7006C58.694 31.6352 58.7181 31.5734 58.759 31.5289C58.7998 31.4844 58.8539 31.4607 58.9095 31.4632Z" fill="#BE0F17" stroke="#512007" stroke-width="0.0718338"/>
<path fill-rule="evenodd" clip-rule="evenodd" d="M60.3362 31.0384C60.3918 31.0408 60.4442 31.0691 60.4819 31.1171C60.5197 31.1651 60.5397 31.2288 60.5375 31.2942C60.5353 31.3597 60.5112 31.4214 60.4703 31.466C60.4295 31.5105 60.3754 31.5341 60.3198 31.5317C60.2643 31.5292 60.2118 31.5009 60.1741 31.4529C60.1364 31.4049 60.1164 31.3412 60.1186 31.2758C60.1207 31.2104 60.1449 31.1486 60.1857 31.1041C60.2265 31.0596 60.2807 31.0359 60.3362 31.0384Z" fill="#BE0F17" stroke="#512007" stroke-width="0.0718338"/>
<path fill-rule="evenodd" clip-rule="evenodd" d="M59.6224 31.9124C59.6779 31.9148 59.7303 31.9432 59.7681 31.9912C59.8058 32.0391 59.8258 32.1029 59.8236 32.1683C59.8214 32.2337 59.7973 32.2955 59.7565 32.34C59.7156 32.3845 59.6615 32.4082 59.6059 32.4057C59.5504 32.4033 59.498 32.3749 59.4602 32.3269C59.4225 32.279 59.4025 32.2152 59.4047 32.1498C59.4069 32.0844 59.431 32.0226 59.4719 31.9781C59.5127 31.9336 59.5668 31.9099 59.6224 31.9124Z" fill="#BE0F17" stroke="#512007" stroke-width="0.0718338"/>
<path fill-rule="evenodd" clip-rule="evenodd" d="M59.6224 30.5774C59.6779 30.5799 59.7303 30.6082 59.7681 30.6562C59.8058 30.7042 59.8258 30.7679 59.8236 30.8333C59.8214 30.8987 59.7973 30.9605 59.7565 31.005C59.7156 31.0495 59.6615 31.0732 59.6059 31.0707C59.5504 31.0683 59.498 31.04 59.4602 30.992C59.4225 30.944 59.4025 30.8803 59.4047 30.8149C59.4069 30.7494 59.431 30.6877 59.4719 30.6432C59.5127 30.5986 59.5668 30.575 59.6224 30.5774Z" fill="#BE0F17" stroke="#512007" stroke-width="0.0718338"/>
<path d="M59.9094 27.0051C59.9094 26.9735 61.1253 27.6044 61.1253 27.6517C61.1253 27.699 65.4485 34.4024 65.4891 34.4024M63.3274 27.6517L64.4353 28.2038L64.7865 29.2132M56.4913 27.5729C56.4508 27.5729 57.7072 28.6769 57.7072 28.6769L57.8693 29.576M52.2221 34.2604C52.7625 33.9923 56.5724 30.0965 56.5724 30.0965M51.1953 33.5191L55.478 29.3078M58.3422 29.9387L62.3952 37.7935M61.9089 33.1879C61.9089 33.1879 62.3817 35.0333 62.8546 35.3172C63.2073 35.5382 63.55 35.7804 63.8813 36.0427" stroke="#512007" stroke-width="0.072988"/>
<path d="M61.8545 33.2344C61.8545 33.2344 62.1922 35.411 62.6651 35.8211C63.138 36.2312 63.6108 36.6886 63.6108 36.6886" stroke="#512007" stroke-width="0.072988"/>
<path d="M58.6016 33.2168C58.6016 33.2168 59.0609 36.2451 60.0066 36.9391C60.586 37.3596 61.1624 37.7855 61.7359 38.2167" stroke="#512007" stroke-width="0.072988"/>
<path d="M58.5611 33.1689C58.5611 33.1689 59.5744 35.5664 60.4526 36.2919C61.3037 37.0332 62.4791 37.7114 62.4791 37.7114M55.2646 33.374C55.5349 33.926 55.4943 34.9828 55.8051 35.3456C56.0907 35.7225 56.3526 36.1231 56.5886 36.5443M55.3322 33.4055C55.4943 33.6737 55.9266 35.0459 56.1969 35.456C56.3995 35.8345 58.399 38.1688 58.399 38.1688" stroke="#512007" stroke-width="0.072988"/>
<path fill-rule="evenodd" clip-rule="evenodd" d="M57.737 38.2792C57.737 38.3248 57.7293 38.3699 57.7144 38.412C57.6995 38.4541 57.6776 38.4924 57.65 38.5246C57.6224 38.5568 57.5896 38.5824 57.5535 38.5998C57.5175 38.6172 57.4788 38.6262 57.4398 38.6262C57.4008 38.6262 57.3621 38.6172 57.3261 38.5998C57.29 38.5824 57.2572 38.5568 57.2296 38.5246C57.202 38.4924 57.1801 38.4541 57.1652 38.412C57.1503 38.3699 57.1426 38.3248 57.1426 38.2792C57.1426 38.1872 57.1739 38.0989 57.2296 38.0339C57.2854 37.9688 57.361 37.9322 57.4398 37.9322C57.5186 37.9322 57.5942 37.9688 57.65 38.0339C57.7057 38.0989 57.737 38.1872 57.737 38.2792ZM59.1826 39.0205C59.1826 39.1 59.1556 39.1762 59.1074 39.2324C59.0593 39.2886 58.994 39.3202 58.9259 39.3202C58.8578 39.3202 58.7925 39.2886 58.7444 39.2324C58.6963 39.1762 58.6692 39.1 58.6692 39.0205C58.6692 38.941 58.6963 38.8648 58.7444 38.8086C58.7925 38.7524 58.8578 38.7208 58.9259 38.7208C58.994 38.7208 59.0593 38.7524 59.1074 38.8086C59.1556 38.8648 59.1826 38.941 59.1826 39.0205ZM61.0335 39.2098C61.0335 39.2893 61.0065 39.3655 60.9583 39.4217C60.9102 39.4779 60.8449 39.5095 60.7768 39.5095C60.7087 39.5095 60.6434 39.4779 60.5953 39.4217C60.5472 39.3655 60.5201 39.2893 60.5201 39.2098C60.5201 39.1303 60.5472 39.0541 60.5953 38.9979C60.6434 38.9417 60.7087 38.9101 60.7768 38.9101C60.8449 38.9101 60.9102 38.9417 60.9583 38.9979C61.0065 39.0541 61.0335 39.1303 61.0335 39.2098ZM62.6412 38.5C62.6412 38.6578 62.5466 38.7682 62.425 38.7682C62.3035 38.7682 62.2089 38.642 62.2089 38.5C62.2089 38.3581 62.3035 38.2161 62.425 38.2161C62.5466 38.2161 62.6412 38.3423 62.6412 38.5ZM63.9382 37.601C63.9382 37.7429 63.8166 37.8534 63.6815 37.8534C63.5464 37.8534 63.4248 37.7429 63.4248 37.601C63.4248 37.459 63.5464 37.3486 63.6815 37.3486C63.8166 37.3486 63.9382 37.459 63.9382 37.601Z" fill="black" stroke="#512007" stroke-width="0.072988"/>
<path fill-rule="evenodd" clip-rule="evenodd" d="M56.3183 27.7593C56.1967 27.8539 54.2378 28.406 54.508 28.3586C54.7782 28.3113 56.3589 28.8318 56.3183 28.6741C56.2778 28.5164 56.3183 27.8539 56.3183 27.7593ZM59.6553 27.0811C59.5743 27.0811 58.4394 27.5858 58.48 27.5858C58.5205 27.5858 59.7769 27.9959 59.7364 27.9012C59.6959 27.8066 59.6959 27.2072 59.6553 27.0811ZM63.0734 27.5385C62.9924 27.5858 61.6548 27.9485 61.898 27.9959C62.1412 28.0432 63.0329 28.4059 63.0329 28.3113C63.0329 28.2325 63.0329 27.5858 63.0734 27.5227V27.5385Z" fill="#FF0000" stroke="#512007" stroke-width="0.072988"/>
<path d="M61.6543 38.2635C61.6948 37.538 62.8432 33.374 62.8432 33.374M62.0461 38.1216L62.9513 33.3898M62.4514 37.7588C62.4784 37.4907 63.1134 33.4056 63.1134 33.4056M61.6948 37.6642C61.8975 37.538 62.4784 37.3487 62.4784 37.3487M61.9785 36.9386C62.1677 36.9386 62.5595 36.7494 62.5595 36.7494M62.0866 36.3866C62.2792 36.3016 62.4782 36.2382 62.6811 36.1973M62.1677 35.6926L62.8027 35.5664M62.4514 35.0932C62.4514 35.1406 62.8837 35.1406 62.8837 35.1406M62.5595 34.557L62.9918 34.6358" stroke="#512007" stroke-width="0.072988"/>
<path d="M58.3037 38.7929C58.3442 38.0339 59.4926 33.6777 59.4926 33.6777M58.6955 38.8424L59.6007 33.7107M59.0062 38.8589L59.7628 33.7107M58.3442 38.1659C58.5469 38.0339 59.1278 37.8359 59.1278 37.8359M58.628 37.4069C58.8171 37.4069 59.2089 37.2088 59.2089 37.2088M58.736 36.8293C58.9286 36.7404 59.1276 36.6741 59.3305 36.6313M58.8171 36.1033L59.4521 35.9713M59.1008 35.4763C59.1008 35.5258 59.5331 35.5258 59.5331 35.5258M59.2089 34.9153L59.6412 34.9978" stroke="#512007" stroke-width="0.0746533"/>
<path d="M58.293 38.4608C58.2524 37.7241 57.1041 33.4961 57.1041 33.4961M57.9012 38.3167L56.996 33.5121M57.4959 37.9483C57.4689 37.6761 56.8339 33.5281 56.8339 33.5281M58.2524 37.8522C58.0498 37.7241 57.4688 37.5319 57.4688 37.5319M57.9687 37.1155C57.7796 37.1155 57.3878 36.9234 57.3878 36.9234M57.8606 36.555C57.6681 36.4687 57.469 36.4044 57.2662 36.3628M57.7796 35.8503L57.1446 35.7222M57.4959 35.2418C57.4959 35.2898 57.0635 35.2898 57.0635 35.2898M57.3878 34.6972L56.9555 34.7773" stroke="#512007" stroke-width="0.0735473"/>
<path fill-rule="evenodd" clip-rule="evenodd" d="M63.7188 36.232L67.4476 36.3266L67.4881 36.0111L63.6377 35.9638L63.7188 36.232ZM63.8809 35.0806C64.3132 35.0806 67.5692 34.355 67.5692 34.355C67.5692 34.355 67.6907 33.8818 67.5692 33.8818C67.4476 33.8818 63.8809 34.7651 63.8809 34.7651V35.0806Z" fill="#DD8B59" stroke="#512007" stroke-width="0.072988"/>
<path fill-rule="evenodd" clip-rule="evenodd" d="M59.6224 31.2454C59.6779 31.2478 59.7303 31.2762 59.7681 31.3242C59.8058 31.3721 59.8258 31.4359 59.8236 31.5013C59.8214 31.5667 59.7973 31.6285 59.7565 31.673C59.7156 31.7175 59.6615 31.7412 59.6059 31.7387C59.5504 31.7363 59.498 31.7079 59.4602 31.6599C59.4225 31.612 59.4025 31.5483 59.4047 31.4828C59.4069 31.4174 59.431 31.3556 59.4719 31.3111C59.5127 31.2666 59.5668 31.243 59.6224 31.2454Z" fill="#BE0F17" stroke="#512007" stroke-width="0.0718338"/>
<path d="M0 0H40V30H0V0Z" fill="#012169"/>
<path d="M4.6875 0L19.9375 11.3125L35.125 0H40V3.875L25 15.0625L40 26.1875V30H35L20 18.8125L5.0625 30H0V26.25L14.9375 15.125L0 4V0H4.6875Z" fill="white"/>
<path d="M26.5 17.5625L40 27.5V30L23.0625 17.5625H26.5ZM15 18.8125L15.375 21L3.375 30H0L15 18.8125ZM40 0V0.1875L24.4375 11.9375L24.5625 9.1875L36.875 0H40ZM0 0L14.9375 11H11.1875L0 2.625V0Z" fill="#C8102E"/>
<path d="M15.0625 0V30H25.0625V0H15.0625ZM0 10V20H40V10H0Z" fill="white"/>
<path d="M0 12.0625V18.0625H40V12.0625H0ZM17.0625 0V30H23.0625V0H17.0625Z" fill="#C8102E"/>
</g>
<defs>
<linearGradient id="paint0_linear_3732_57532" x1="27.3251" y1="71.1669" x2="30.3163" y2="69.6486" gradientUnits="userSpaceOnUse">
<stop stop-color="#A43907"/>
<stop offset="1" stop-color="white"/>
</linearGradient>
<linearGradient id="paint1_linear_3732_57532" x1="53.4444" y1="41.933" x2="49.6005" y2="40.0578" gradientUnits="userSpaceOnUse">
<stop stop-color="#A43907"/>
<stop offset="1" stop-color="white"/>
</linearGradient>
<linearGradient id="paint2_linear_3732_57532" x1="55.3012" y1="43.4643" x2="47.2801" y2="42.525" gradientUnits="userSpaceOnUse">
<stop stop-color="#A43907"/>
<stop offset="1" stop-color="white"/>
</linearGradient>
<linearGradient id="paint3_linear_3732_57532" x1="70.2508" y1="39.7954" x2="66.5742" y2="39.9696" gradientUnits="userSpaceOnUse">
<stop stop-color="#A43907"/>
<stop offset="1" stop-color="white"/>
</linearGradient>
<linearGradient id="paint4_linear_3732_57532" x1="72.2197" y1="41.9733" x2="64.3529" y2="42.3959" gradientUnits="userSpaceOnUse">
<stop stop-color="#A43907"/>
<stop offset="1" stop-color="white"/>
</linearGradient>
<linearGradient id="paint5_linear_3732_57532" x1="71.0968" y1="44.5369" x2="49.0634" y2="44.5369" gradientUnits="userSpaceOnUse">
<stop stop-color="#A43907"/>
<stop offset="1" stop-color="white"/>
</linearGradient>
<linearGradient id="paint6_linear_3732_57532" x1="49.4851" y1="46.2796" x2="81.5995" y2="46.382" gradientUnits="userSpaceOnUse">
<stop stop-color="#A43907"/>
<stop offset="1" stop-color="white"/>
</linearGradient>
<linearGradient id="paint7_linear_3732_57532" x1="72.2341" y1="44.0989" x2="69.6119" y2="44.1672" gradientUnits="userSpaceOnUse">
<stop stop-color="#A43907"/>
<stop offset="1" stop-color="white"/>
</linearGradient>
<linearGradient id="paint8_linear_3732_57532" x1="48.9727" y1="47.2069" x2="51.4912" y2="47.355" gradientUnits="userSpaceOnUse">
<stop stop-color="#A43907"/>
<stop offset="1" stop-color="white"/>
</linearGradient>
<linearGradient id="paint9_linear_3732_57532" x1="50.8309" y1="46.569" x2="46.166" y2="45.5336" gradientUnits="userSpaceOnUse">
<stop stop-color="#A43907"/>
<stop offset="1" stop-color="white"/>
</linearGradient>
<clipPath id="clip0_3732_57532">
<rect width="80" height="60" fill="white"/>
</clipPath>
</defs>
</svg>
