<svg width="80" height="60" viewBox="0 0 80 60" fill="none" xmlns="http://www.w3.org/2000/svg">
<g clip-path="url(#clip0_3732_57760)">
<path d="M0 0V60H80V0H0Z" fill="#68BFE5"/>
<path d="M52.6123 24.1504V41.2004C52.6123 46.7754 62.6873 50.0754 62.6873 50.0754C62.6873 50.0754 72.7498 46.7754 72.7498 41.2004V24.1504H52.6123Z" fill="white"/>
<path d="M61.2873 30.1504V37.8254H52.6123V40.6129H61.2873V49.5504L62.6873 50.0879L64.0748 49.5504V40.6254H72.7498V37.8254H64.0748V30.1504H61.2873Z" fill="#D21034"/>
<path d="M52.6121 24.1504H72.7496V30.7504H52.5996L52.6121 24.1504Z" fill="#D21034"/>
<path d="M54.223 29.0754C54.8473 29.0754 55.3533 28.6661 55.3533 28.1613C55.3533 27.6564 54.8473 27.2471 54.223 27.2471C53.5988 27.2471 53.0928 27.6564 53.0928 28.1613C53.0928 28.6661 53.5988 29.0754 54.223 29.0754Z" fill="white" stroke="black" stroke-width="0.066486" stroke-miterlimit="3"/>
<path d="M54.2234 28.1946C54.7788 28.1946 55.229 27.9676 55.229 27.6876C55.229 27.4076 54.7788 27.1807 54.2234 27.1807C53.668 27.1807 53.2178 27.4076 53.2178 27.6876C53.2178 27.9676 53.668 28.1946 54.2234 28.1946Z" fill="white" stroke="black" stroke-width="0.066486" stroke-miterlimit="3"/>
<path d="M54.2234 29.217C54.7788 29.217 55.229 28.9901 55.229 28.7101C55.229 28.4301 54.7788 28.2031 54.2234 28.2031C53.668 28.2031 53.2178 28.4301 53.2178 28.7101C53.2178 28.9901 53.668 29.217 54.2234 29.217Z" fill="white" stroke="black" stroke-width="0.066486" stroke-miterlimit="3"/>
<path d="M54.2234 28.6682C54.7788 28.6682 55.229 28.4412 55.229 28.1613C55.229 27.8813 54.7788 27.6543 54.2234 27.6543C53.668 27.6543 53.2178 27.8813 53.2178 28.1613C53.2178 28.4412 53.668 28.6682 54.2234 28.6682Z" fill="white" stroke="black" stroke-width="0.066486" stroke-miterlimit="3"/>
<path d="M72.2493 29.4258L72.0868 28.9758C72.0868 28.9758 71.6368 28.7883 71.5993 28.5508C71.5243 27.9133 71.2993 27.6758 70.9493 27.5758C70.7608 27.5224 70.5589 27.5448 70.3868 27.6383C70.2868 27.7883 69.7618 27.7883 69.4868 27.8008C69.1993 27.8008 69.1868 27.6758 69.1868 27.6758C68.9743 27.6758 68.8743 27.5133 68.8743 27.5133C68.7368 27.2258 68.6243 27.1133 68.5493 27.0758C68.9243 27.0758 69.1993 26.9133 69.6243 26.4758C70.0743 26.0008 70.3993 26.1758 70.3993 26.1758C70.1743 26.6258 70.4743 26.5883 70.4743 26.5883C71.0743 26.2758 70.5493 25.5008 70.3743 25.5383C70.1868 25.5758 70.1368 25.4508 70.1368 25.4508C70.1368 25.5883 69.9368 25.6508 69.9368 25.6508C70.0868 24.7633 69.5618 24.5258 69.5618 24.5258C69.4868 24.6008 69.4368 24.7633 69.4368 24.7633C69.2868 25.3008 68.7993 25.2133 68.2493 24.9508C67.6993 24.7008 66.2493 25.2258 65.7868 25.4133C65.3243 25.6008 64.4868 25.8758 63.7368 25.4633C62.9868 25.0383 62.7993 25.1133 62.4993 25.2008C62.2118 25.2758 61.6868 25.4008 61.4993 25.3008C61.367 25.2341 61.2222 25.1957 61.0743 25.1883C61.1243 25.1633 61.0493 25.0383 61.0493 25.0383C60.8118 24.7258 61.0743 24.5383 61.0743 24.5383C61.0743 24.5383 60.6493 24.6633 60.8243 25.3883L60.8993 25.4883C60.8993 25.4883 60.9493 25.7258 61.0743 25.7883V25.8383C61.0743 25.8383 61.1868 25.7883 61.2118 25.9383C61.2493 26.0883 61.4118 25.9383 61.4743 25.8133C61.4743 25.8133 61.3618 26.4883 62.1868 26.6508C62.1868 26.6508 62.0993 26.5383 62.1243 26.4758C62.1618 26.4008 62.0243 26.3508 62.0368 26.2508C62.0493 26.1383 61.8368 26.1008 61.9993 26.0133C62.1743 25.9383 62.2493 25.7758 62.6243 26.0008C62.9868 26.2133 63.2743 26.1633 63.2743 26.1633C63.2743 26.1633 63.0493 25.7133 63.1743 25.7133C63.2993 25.7133 63.8493 26.3883 64.1118 26.3633C64.3868 26.3258 64.9118 26.0133 65.1743 26.1258C65.1743 26.1258 65.1993 26.0008 66.1993 25.8258C67.1993 25.6508 68.4493 25.1508 68.9118 25.5883C68.9118 25.5883 68.9618 25.9383 69.1618 26.0258C69.1618 26.0258 69.1243 26.7508 67.8868 26.3508L67.4368 26.2258C67.4368 26.2258 67.3618 26.0133 64.9993 26.6258C64.9993 26.6258 64.8618 26.6758 64.7618 26.7383C64.6743 26.8008 64.5493 26.7008 64.0743 26.8633C63.6118 27.0508 61.8618 27.6133 60.7868 27.4133C60.5493 27.3383 60.3368 27.3758 60.3243 27.3383C60.3243 27.3008 60.4493 27.3508 60.4493 27.3508C60.3743 27.2633 60.3368 27.2508 60.3368 27.2508C59.4368 27.1508 59.5868 26.7508 59.5868 26.7508L59.6368 26.8758C59.7868 26.6758 59.5868 26.2258 59.5868 26.2258H59.5743C59.5748 26.2133 59.5748 26.2008 59.5743 26.1883L59.6368 26.1383C60.0743 25.7633 60.5743 25.7008 60.5743 25.7008C60.2743 25.3258 59.6493 25.5258 59.6493 25.5258C59.6618 25.0883 59.4743 24.5633 59.4743 24.5633C59.0893 24.6265 58.744 24.8372 58.5118 25.1508C58.4868 24.6883 57.8993 24.4258 57.8993 24.4258C58.1243 24.6883 57.9868 25.3258 57.9868 25.3258H58.0118H57.9493L57.9368 25.4633H57.9118C57.9118 25.4633 57.6993 25.5383 57.4493 26.1133C57.4493 26.1133 57.4243 26.2383 57.3243 26.3633V26.3133C57.3243 26.3133 57.0368 26.6883 56.3993 26.3133C56.3993 26.3133 55.5243 25.8008 55.1993 25.8133C54.8993 25.8383 54.6993 25.9758 54.7118 26.0633C54.7118 26.0633 53.9993 26.0133 53.7618 26.4133C53.7618 26.4133 53.2243 26.6133 53.6868 27.0383C53.6868 27.0383 53.7493 27.2383 53.8743 27.3383C53.8743 27.3383 53.8618 26.9383 53.9618 27.0508L54.0243 27.1258C54.0368 27.1758 54.0868 27.3258 54.1743 27.4133L54.2493 27.3883C54.2493 27.2883 54.2743 27.1633 54.2993 27.1133H54.3243L54.4493 27.3133L54.5743 27.2383C54.6493 27.2383 54.7368 27.3008 54.7368 27.3008L54.8993 27.1633C55.0618 27.1883 55.1118 26.8633 55.1118 26.8633C55.1773 26.8795 55.2453 26.8824 55.3119 26.8716C55.3785 26.8609 55.4423 26.8368 55.4993 26.8008C55.5743 27.0508 56.1493 27.3383 56.1493 27.3383H56.1743L56.0993 27.3883C56.3618 27.5758 56.8493 27.5258 56.8493 27.5258C56.6493 27.6008 56.6743 27.9883 56.6743 27.9883C56.5493 28.0383 56.5493 28.1508 56.5493 28.1508C56.9493 28.3133 57.2118 28.1758 57.2118 28.1758C57.2368 28.3008 57.2118 28.3258 57.2118 28.3258C57.0493 28.6633 56.9743 29.0008 56.9743 29.0008H56.9868V29.0258C56.9868 29.0258 56.2743 29.2758 55.9743 29.6133C55.9743 29.6133 55.9368 29.5133 55.8493 29.5133C55.7618 29.5133 55.4993 29.2883 55.3743 29.2508C55.2493 29.2133 55.0618 29.2883 54.9993 29.2258C54.9618 29.1758 54.9868 28.7758 54.8993 28.7258L54.8118 28.4758C54.7618 28.6008 54.5118 28.5758 54.5118 28.5758L54.4118 28.6508L54.3118 28.6383C54.2868 28.6383 54.2618 28.7008 54.2493 28.7633L54.2118 28.8008V28.7258C54.1743 28.7633 54.0743 28.7133 54.0368 28.7133C54.0118 28.7133 53.9868 28.7633 53.9743 28.8258L53.7368 28.8383C53.6993 28.8633 53.7368 29.1633 53.7368 29.1633C53.4493 29.3133 53.5868 29.5508 53.5868 29.5508C53.7368 30.3008 55.0243 29.9633 55.1243 30.0633C55.2243 30.1633 55.4493 30.1883 55.5618 30.1883C55.6868 30.1883 55.8243 30.4633 55.9868 30.4883C56.1493 30.5133 55.9868 30.2633 56.7493 30.0883C57.5118 29.9008 57.7743 29.5883 57.7743 29.5883C58.0118 29.5383 58.0743 29.2508 58.0868 29.1383L58.1118 29.3133C58.1493 29.5758 57.9618 29.6883 57.9618 29.6883L58.6243 29.4758C58.8868 29.4133 58.8493 29.1758 58.8493 29.1758C59.0993 29.9008 59.5618 29.9508 59.5618 29.9508C59.6493 29.6758 59.6368 29.5883 59.6368 29.5883H59.8493C59.8493 29.4258 59.7243 29.3133 59.6368 29.2633L59.9618 29.4508L60.0868 29.4383C60.0868 29.5508 60.2493 29.6508 60.2493 29.6508L60.2743 29.5008C60.4243 29.7008 60.6993 29.6258 60.6993 29.6258C60.6928 29.592 60.6845 29.5586 60.6743 29.5258C61.2618 29.8883 62.1993 29.4258 62.1993 29.4258C62.4493 29.4758 62.4868 29.3258 62.4868 29.3258C62.7618 29.3633 62.8368 29.1633 62.8368 29.1633C63.4993 29.1133 63.9743 28.6383 63.9743 28.6383C64.3118 28.6133 64.3243 28.3758 64.3243 28.3758C64.3243 28.3758 64.6493 28.4383 64.9743 28.0383C65.7243 26.9758 66.8243 27.5383 66.8243 27.5383L66.1868 27.5758C64.4993 27.5633 65.1993 28.7008 65.1993 28.7008H65.2993C65.4618 28.7258 66.0118 29.1633 65.7993 29.4758V29.5008C65.4493 29.9633 64.8243 29.5258 64.6368 29.1258C64.4618 28.7258 64.0868 28.8133 64.0868 28.8133C64.0868 28.8133 63.1493 28.9758 63.5368 29.7258C63.5493 29.9133 63.6618 30.1258 64.0118 30.3258C64.1993 30.6008 64.8243 30.6258 65.2743 30.5258C65.4993 30.5008 66.6243 30.0008 66.6243 30.0008C66.7118 29.7508 66.9993 29.8133 67.2493 29.4508C67.4993 29.1008 66.8868 28.9758 66.7493 28.7758C66.6243 28.5883 66.7868 28.6258 66.7868 28.6258C67.3368 28.9133 67.3868 27.9758 67.3868 27.9758C67.4031 28.1292 67.4622 28.2749 67.5572 28.3964C67.6522 28.5179 67.7794 28.6104 67.9243 28.6633C68.2118 28.3758 67.9993 27.7633 67.9993 27.7633C68.7118 29.0383 69.1368 28.8258 69.1368 28.8258C68.7618 28.6008 68.9493 28.2758 68.9493 28.2758C69.2868 29.6258 70.6993 28.4508 70.6993 28.4508C70.6243 28.6508 70.6993 28.7633 70.8243 28.8883C70.9493 29.0133 71.0993 29.0633 71.0243 29.3008C70.9618 29.5258 70.2993 29.4758 70.2993 29.4758C70.2993 29.4758 69.6743 29.4508 69.7243 29.9758C69.7618 30.1008 70.1743 30.1508 70.3493 30.1133C70.3493 30.1133 70.2743 30.1383 70.5118 30.1633H70.7868C71.0493 30.1633 71.3493 30.1133 71.3493 30.1133C71.7118 30.0383 71.6493 29.9133 71.6493 29.9133C72.2118 29.8133 72.2743 29.4383 72.2743 29.4383L72.2493 29.4258Z" fill="#FFD100" stroke="black" stroke-width="0.1" stroke-miterlimit="3"/>
<path d="M53.699 27.0881C53.699 27.0881 53.7365 27.0256 53.7865 27.0131C53.8365 27.0131 53.8865 27.0381 53.9365 27.1131L53.974 27.0881C53.974 27.0881 53.824 26.8631 53.874 26.7131C53.9115 26.6381 53.974 26.5881 54.074 26.5756V26.5381C53.949 26.5631 53.874 26.6131 53.849 26.7006C53.8354 26.728 53.8269 26.7576 53.824 26.7881C53.824 26.8631 53.849 26.9381 53.8865 27.0006C53.8577 26.9796 53.8218 26.9706 53.7865 26.9756C53.7647 26.9782 53.744 26.9865 53.7265 26.9997C53.7089 27.0129 53.6951 27.0304 53.6865 27.0506L53.699 27.0881ZM71.324 30.0881C70.949 30.1506 70.3865 30.1756 70.3365 30.0631C70.3365 30.0381 70.3365 29.9631 70.6365 29.7631L70.6115 29.7006C70.349 29.8756 70.2365 29.9881 70.274 30.0756C70.3615 30.3006 71.174 30.1756 71.3365 30.1506L71.324 30.0881ZM64.024 30.3006C63.9365 30.1756 63.9865 29.9881 64.149 29.7631L64.0865 29.7256C63.9115 29.9756 63.874 30.1756 63.9615 30.3506L64.024 30.3006Z" fill="black"/>
<path d="M63.5113 29.7258C63.5113 29.9633 63.6863 30.1758 63.9988 30.3633L64.0363 30.3008C63.7363 30.1258 63.5863 29.9258 63.5863 29.7258C63.5613 29.4133 63.8988 29.1633 63.9113 29.1633L63.8738 29.1133C63.8488 29.1133 63.4988 29.3758 63.5113 29.7383V29.7258ZM70.0113 29.8133C69.9113 29.9758 69.9488 30.1633 69.9488 30.1633H70.0113C70.0113 30.1508 69.9863 29.9883 70.0738 29.8508C70.1034 29.8104 70.1407 29.7763 70.1837 29.7505C70.2266 29.7247 70.2743 29.7078 70.3238 29.7008V29.6383C70.1863 29.6633 70.0738 29.7258 70.0238 29.8133H70.0113ZM55.1238 26.8883H55.0988V26.9133C55.0988 26.9133 55.0738 27.1133 54.9738 27.1633C54.9498 27.173 54.9229 27.173 54.8988 27.1633L54.7363 27.0758C54.7113 27.0508 54.6863 27.0383 54.6363 27.0508C54.6163 27.0267 54.6015 26.9987 54.5928 26.9686C54.5842 26.9384 54.582 26.9068 54.5863 26.8758C54.5988 26.7883 54.6613 26.7008 54.7863 26.6258L54.7613 26.5883C54.6363 26.6758 54.5613 26.7758 54.5488 26.8758C54.5488 27.0008 54.6113 27.0758 54.6113 27.0758V27.0883H54.6363C54.6738 27.0758 54.6738 27.0883 54.7113 27.1133L54.8863 27.2133H55.0113C55.0988 27.1508 55.1363 26.9758 55.1363 26.9383C55.5363 27.0258 55.8613 26.5258 55.8863 26.5133L55.8488 26.4883C55.8488 26.4883 55.5113 26.9883 55.1238 26.8883Z" fill="black"/>
<path d="M54.1363 26.8131C54.1233 26.8997 54.141 26.9881 54.1863 27.0631C54.2238 27.1256 54.2738 27.1631 54.3113 27.1756C54.3738 27.1756 54.4113 27.1381 54.4613 27.1006C54.4863 27.0756 54.5113 27.0506 54.5363 27.0506L54.5738 27.0756L54.5988 27.0506L54.5363 27.0131C54.4988 27.0131 54.4613 27.0381 54.4363 27.0756C54.4113 27.1131 54.3613 27.1381 54.3113 27.1381C54.2863 27.1381 54.2488 27.1006 54.2113 27.0381C54.1911 27.007 54.1773 26.9722 54.1709 26.9357C54.1644 26.8991 54.1654 26.8617 54.1738 26.8256C54.2238 26.6506 54.4363 26.5131 54.4363 26.5131L54.4238 26.4756C54.4113 26.4756 54.1863 26.6256 54.1363 26.8131ZM53.5863 29.4006C53.5988 29.3256 53.6613 29.2756 53.7488 29.2256C53.7238 29.2256 53.8238 29.3006 53.9113 29.3006L53.9738 29.2631C53.9988 29.2881 54.1488 29.4256 54.1488 29.6006C54.1488 29.6381 54.1488 29.6756 54.1238 29.7131L54.1613 29.7256C54.2738 29.4631 53.9863 29.2256 53.9863 29.2256H53.9613L53.9113 29.2631C53.8363 29.2631 53.7488 29.1881 53.7488 29.1881C53.6238 29.2381 53.5738 29.3131 53.5488 29.3881L53.5863 29.4006ZM54.8738 28.7256C54.7863 28.7381 54.5613 28.7756 54.4863 28.9006C54.4613 28.9506 54.4488 29.0006 54.4738 29.0506L54.4988 29.1256C54.5738 29.3256 54.6488 29.5256 54.7363 29.5756L54.7488 29.5381C54.6738 29.5006 54.5988 29.2881 54.5363 29.1131L54.5113 29.0381C54.5004 29.0191 54.4946 28.9975 54.4946 28.9756C54.4946 28.9536 54.5004 28.9321 54.5113 28.9131C54.5738 28.8256 54.7863 28.7881 54.8863 28.7756C54.9363 28.7756 54.9488 28.9631 54.9613 29.0756H54.9988C54.9863 28.9006 54.9613 28.7256 54.8738 28.7256Z" fill="black"/>
<path d="M54.2362 28.9258C54.1862 28.9633 54.1987 29.0258 54.1987 29.0383C54.1987 29.0508 54.2237 29.5383 54.4487 29.6383L54.4612 29.6008C54.2612 29.5133 54.2362 29.0383 54.2362 29.0258C54.2362 29.0258 54.2362 28.9758 54.2612 28.9508C54.2987 28.9258 54.3612 28.9133 54.4612 28.9508L54.4737 28.9133C54.3612 28.8758 54.2862 28.8883 54.2362 28.9133V28.9258Z" fill="black"/>
<path d="M54.0489 28.9629C53.9489 29.0379 53.9614 29.2379 53.9614 29.2504H53.9989C53.9989 29.2504 53.9989 29.0504 54.0739 29.0004C54.1114 28.9754 54.1489 28.9754 54.1989 29.0004L54.2114 28.9504C54.1489 28.9254 54.0864 28.9254 54.0489 28.9504V28.9629Z" fill="black"/>
<path d="M59.5501 26.2749C59.5501 26.2749 59.6581 26.5243 59.6581 26.7154C59.6581 26.7486 59.6415 26.7736 59.6332 26.7985L59.5917 26.6905L59.5667 26.7736C59.5667 26.7736 59.5169 26.8899 59.5917 27.0146C59.6914 27.1808 59.9407 27.2805 60.3396 27.3221V27.3304C60.328 27.3302 60.3166 27.3331 60.3064 27.3387L60.2898 27.3553V27.3886C60.3064 27.4301 60.3479 27.4301 60.4394 27.4301L60.4975 27.4384L60.5474 27.4551L60.5391 27.4467C60.6222 27.4467 60.7302 27.4717 60.8383 27.5132L60.7552 27.5299L60.8466 27.5714C60.8549 27.5714 61.5696 27.8623 61.8605 28.095C61.7774 28.1698 61.42 28.4274 60.805 28.2778L60.7053 28.2529L60.7718 28.336C60.7718 28.336 61.179 28.8014 61.2621 29.084C61.1208 29.084 60.5806 29.084 60.3895 28.9178L60.3479 28.9593C60.3479 28.9593 60.5973 29.3416 60.6637 29.6325C60.5806 29.6491 60.4144 29.6574 60.3064 29.5161L60.2565 29.458L60.2316 29.6242C60.1817 29.5826 60.1152 29.5327 60.1152 29.4663V29.433L59.9656 29.458L59.6498 29.2668C59.6337 29.255 59.6171 29.2439 59.6 29.2336L59.5667 29.2917L59.6166 29.3167C59.6831 29.3665 59.7994 29.4579 59.8077 29.5909H59.6083V29.6325C59.6083 29.6574 59.6083 29.7488 59.5335 29.94C59.4421 29.9234 59.093 29.7987 58.8852 29.2086L58.8188 29.2252V29.2419C58.8188 29.3 58.8021 29.433 58.6193 29.4829L58.0791 29.6491C58.1264 29.581 58.1498 29.4992 58.1456 29.4164V29.3499C58.1354 29.2783 58.1299 29.2061 58.129 29.1338C58.129 29.0092 58.1539 28.9344 58.2453 28.8845L58.2121 28.818C58.2038 28.818 57.4142 29.1421 57.0236 29.0092C57.0403 28.9261 57.1067 28.6601 57.2397 28.3776L57.2231 28.3942C57.248 28.3776 57.273 28.3443 57.248 28.2113V28.1698L57.2065 28.1864C57.2065 28.1864 56.9572 28.3028 56.5915 28.1698C56.5915 28.1365 56.6164 28.0867 56.6912 28.0534L56.7161 28.0451V27.9786C56.7161 27.8789 56.7245 27.6462 56.8657 27.5963L56.8491 27.5299C56.8491 27.5299 56.4253 27.5631 56.1676 27.4218C56.2789 27.3418 56.4067 27.2879 56.5416 27.2639H56.5666V27.2307C56.5655 27.1648 56.5513 27.0999 56.525 27.0395C56.6247 27.0728 56.7411 27.0977 56.7826 27.0645L56.7993 27.0561L56.7826 26.7985H56.7161L56.7245 27.0146L56.4751 26.9564L56.3754 26.9232L56.4419 27.0063C56.4821 27.0648 56.5025 27.1347 56.5001 27.2057C56.3492 27.2383 56.2074 27.3036 56.0845 27.3969L56.043 27.4301L56.0845 27.4551C56.284 27.588 56.5915 27.6047 56.7494 27.5963C56.6786 27.7082 56.6412 27.8379 56.6413 27.9703V28.0036C56.6083 28.0229 56.5799 28.0493 56.5584 28.0809C56.5368 28.1125 56.5226 28.1486 56.5167 28.1864V28.2113L56.5333 28.2196C56.7394 28.3145 56.9734 28.3293 57.1899 28.2612V28.336C57.0236 28.6851 56.9405 29.0258 56.9405 29.0258V29.059H56.9655C57.2896 29.192 57.8547 29.0175 58.1123 28.9261C58.0791 28.9842 58.0542 29.0507 58.0542 29.1338C58.0552 29.2285 58.0635 29.323 58.0791 29.4164C58.0791 29.6075 57.9544 29.6823 57.9461 29.6823L57.9711 29.7488L58.6359 29.5494C58.7855 29.5078 58.8437 29.4164 58.8686 29.3416C59.1263 29.9566 59.5335 30.0065 59.5584 30.0148H59.5834L59.5917 29.9898C59.6356 29.8837 59.6636 29.7717 59.6748 29.6574C59.7413 29.6548 59.8077 29.652 59.8742 29.6491V29.6075C59.8742 29.5494 59.8659 29.4995 59.841 29.458L59.9573 29.5244L60.0654 29.5078C60.0903 29.6159 60.2233 29.7073 60.2399 29.7156L60.2815 29.7405L60.3064 29.5992C60.4726 29.7405 60.697 29.699 60.7136 29.699L60.7385 29.6907V29.6574C60.7053 29.433 60.5557 29.1671 60.4643 29.0258C60.7552 29.1588 61.2871 29.1505 61.312 29.1505H61.3452V29.1089C61.2357 28.8339 61.0781 28.5807 60.8798 28.3609C61.5613 28.4856 61.927 28.1282 61.9436 28.1116L61.9685 28.0867L61.9353 28.0701C61.6367 27.8566 61.3129 27.6808 60.9712 27.5465L61.046 27.5299L60.9629 27.4883C60.8137 27.4121 60.6485 27.3722 60.4809 27.372C60.3978 27.2722 60.3563 27.2639 60.3479 27.2556C59.8825 27.2057 59.7163 27.0811 59.6498 26.9813V26.9564L59.6665 26.9315C59.708 26.8733 59.7246 26.7985 59.7246 26.7154C59.7246 26.4993 59.6166 26.2583 59.6166 26.25L59.5501 26.2749Z" fill="black"/>
<path d="M57.4308 26.1424C57.4308 26.1424 57.3809 26.3917 57.1649 26.5164C56.9986 26.5995 56.7909 26.5995 56.5332 26.4915L56.5 26.4831V26.5164C56.5185 26.6233 56.5782 26.7188 56.6662 26.7823C56.7743 26.8654 56.9405 26.8987 57.1566 26.8821C57.0818 26.9652 56.8574 27.2477 56.8574 27.5303V27.5718C56.8906 27.5885 57.2397 27.6882 57.4059 27.4804C57.4059 27.5635 57.4391 27.8544 57.5472 27.9625C57.6136 28.0289 57.6303 28.112 57.6303 28.1868C57.6303 28.2533 57.6136 28.3032 57.6136 28.3032L57.597 28.3531L57.6386 28.3198C57.6552 28.3115 57.9793 28.0705 58.079 27.763C58.079 27.763 58.1372 27.6799 58.2369 27.655V27.6965C58.2369 27.8212 58.2868 28.0373 58.6359 28.1702L58.6608 28.1785V28.1536C58.6598 28.1342 58.6598 28.1148 58.6608 28.0954C58.6608 28.004 58.6608 27.8461 58.7522 27.763C58.789 27.7288 58.8138 27.6836 58.8228 27.6342C58.8317 27.5847 58.8245 27.5337 58.8021 27.4887C58.8769 27.5054 59.0431 27.5635 59.1096 27.6882C59.2093 27.871 59.55 27.7214 59.5667 27.7214L59.5584 27.6799C59.5584 27.6799 59.4088 27.7131 59.3173 27.655C59.2982 27.64 59.2824 27.6211 59.2709 27.5997C59.2595 27.5782 59.2526 27.5546 59.2509 27.5303L59.2342 27.3308C59.2342 27.2477 59.2176 27.1896 59.1761 27.148C59.2176 27.148 59.309 27.148 59.3423 27.2311C59.4088 27.3641 59.6165 27.3724 59.6248 27.3724L59.6996 27.3807L59.6415 27.3391C59.6415 27.3391 59.4586 27.2228 59.4919 27.0649L59.5168 26.9485C59.5667 26.7408 59.6498 26.4 59.575 26.184L59.5417 26.2006C59.5584 26.2504 59.5667 26.3169 59.5667 26.3834C59.5667 26.5662 59.5085 26.7989 59.4836 26.9402L59.4503 27.0566C59.449 27.0704 59.449 27.0843 59.4503 27.0981C59.4503 27.2062 59.5085 27.281 59.5584 27.3225C59.5002 27.3142 59.4171 27.281 59.3921 27.2145C59.334 27.0981 59.201 27.0981 59.1428 27.1064L59.093 27.1148L59.1262 27.148C59.1844 27.1812 59.1927 27.2311 59.1927 27.3391L59.2093 27.5303C59.2176 27.5968 59.2509 27.6466 59.2924 27.6799C59.3423 27.7131 59.3921 27.7131 59.4337 27.7214C59.334 27.7464 59.1927 27.763 59.1428 27.6716C59.0514 27.4887 58.7855 27.4472 58.7771 27.4389H58.7356L58.7522 27.4721C58.7522 27.4721 58.7855 27.522 58.7855 27.5885C58.7855 27.63 58.7688 27.6882 58.7273 27.7298C58.6359 27.8212 58.6192 27.9957 58.6192 28.0871V28.1204C58.3201 27.9957 58.2702 27.8129 58.2702 27.7048V27.6217L58.2868 27.5968H58.2536C58.2098 27.6042 58.1684 27.6216 58.1323 27.6475C58.0963 27.6734 58.0667 27.7072 58.0458 27.7464C57.9632 27.9495 57.8284 28.1272 57.6552 28.2616C57.66 28.2342 57.6628 28.2064 57.6635 28.1785C57.6635 28.1037 57.6469 28.0123 57.5804 27.9375C57.4557 27.8212 57.4391 27.4389 57.4391 27.4389V27.3724L57.4059 27.4306C57.2729 27.6633 56.8906 27.5469 56.8823 27.5469C56.8657 27.256 57.2147 26.8737 57.2147 26.8654L57.248 26.8322H57.1981C56.9737 26.8654 56.7992 26.8322 56.6828 26.7491C56.6168 26.6964 56.57 26.6234 56.5499 26.5413C56.7992 26.6327 57.0153 26.641 57.1815 26.5496C57.2533 26.506 57.3155 26.4481 57.3641 26.3794C57.4127 26.3108 57.4467 26.233 57.4641 26.1507C57.7134 25.6022 57.9211 25.5108 57.9211 25.5108L57.9128 25.4775C57.8962 25.4775 57.6801 25.5606 57.4308 26.1424Z" fill="black"/>
<path d="M57.9876 25.3194H57.9709L57.7715 25.5936H57.8297C58.4498 25.6425 59.0313 25.914 59.4669 26.3582L59.4918 26.3831L59.683 26.1754L59.6663 26.1504C59.1261 25.3027 57.9959 25.3194 57.9793 25.3194H57.9876ZM58.0042 25.3942C58.1372 25.3942 59.1012 25.4191 59.5998 26.1671L59.4918 26.2834C59.0533 25.8667 58.4894 25.6067 57.8878 25.5437C57.9265 25.4938 57.9653 25.444 58.0042 25.3942Z" fill="black"/>
<path d="M57.8298 25.8846C57.7403 26.0016 57.6804 26.1384 57.6552 26.2835L57.6635 26.3168C57.6058 26.3774 57.5612 26.4493 57.5326 26.5279C57.504 26.6066 57.492 26.6903 57.4973 26.7739C57.4973 26.8819 57.5139 26.9899 57.5472 27.0897L57.5721 27.1478C57.6719 27.4304 57.7633 27.6797 58.2204 27.5301C58.6525 27.3972 58.6691 27.3639 58.7772 27.1811L58.8104 27.1395C58.8686 27.0398 58.9351 27.0232 59.0016 26.9982C59.0847 26.9733 59.1678 26.9484 59.2509 26.7988L59.3174 26.6907C59.4005 26.5827 59.5002 26.4414 59.5085 26.2752H59.4753C59.4505 26.4195 59.3874 26.5544 59.2924 26.6658L59.2093 26.7822C59.1912 26.8281 59.162 26.8689 59.1243 26.9008C59.0866 26.9327 59.0416 26.9547 58.9933 26.965C58.9488 26.9735 58.9066 26.9912 58.8694 27.0169C58.8322 27.0427 58.8008 27.076 58.7772 27.1146L58.7439 27.1645C58.6442 27.339 58.6276 27.3639 58.2037 27.4969C57.7882 27.6299 57.7051 27.4221 57.6054 27.1312L57.5804 27.073C57.4641 26.7572 57.5555 26.4414 57.7134 26.3251L57.7633 26.2835L57.6885 26.2918V26.2835C57.6885 26.2253 57.7466 26.0674 57.8547 25.9095C57.9544 25.7766 58.1871 25.6519 58.1871 25.6436L58.1705 25.6104C58.1539 25.6187 57.9295 25.7516 57.8298 25.8846Z" fill="black"/>
<path d="M57.6306 27.0395C57.7054 27.0893 57.8051 27.081 57.9381 27.0395C57.9381 27.081 57.9381 27.1808 58.0212 27.2472C58.1209 27.3304 58.2705 27.347 58.4783 27.2971V27.2556C58.2788 27.3054 58.1292 27.2888 58.0461 27.214C58.0197 27.1883 57.9993 27.1572 57.9864 27.1227C57.9734 27.0882 57.9683 27.0513 57.9713 27.0145V26.9813L57.9464 26.9979C57.8217 27.0478 57.722 27.0561 57.6472 26.9979C57.5226 26.9148 57.5309 26.6904 57.5309 26.6904H57.4976C57.4976 26.6904 57.481 26.9398 57.6306 27.0395Z" fill="black"/>
<path d="M57.8635 26.7326C57.8136 26.7492 57.797 26.7908 57.797 26.824V26.8489C57.8136 26.9487 57.9217 27.0152 58.0131 27.0401C58.1128 27.065 58.2292 27.0733 58.2707 27.0152C58.2874 26.9902 58.304 26.9487 58.2707 26.8739C58.235 26.8037 58.1737 26.75 58.0994 26.7237C58.0252 26.6974 57.9437 26.7006 57.8718 26.7326H57.8635ZM58.0297 27.0069C57.9466 26.9819 57.8469 26.9237 57.8386 26.8406C57.8386 26.8406 57.8303 26.7825 57.8801 26.7658C57.9443 26.7398 58.016 26.739 58.0808 26.7637C58.1455 26.7884 58.1986 26.8367 58.2292 26.8988C58.2541 26.9321 58.2541 26.9653 58.2375 26.9819C58.2126 27.0235 58.1211 27.0318 58.0297 27.0069ZM57.9965 27.2312C57.9715 27.439 57.9965 27.4473 58.0048 27.4473H58.0214L58.038 27.439L58.1544 27.2728L58.0048 27.2063V27.2312H57.9965ZM58.038 27.2645L58.0962 27.2894L58.0297 27.3808V27.2645H58.038ZM57.689 27.065L57.6807 27.2562L57.8469 27.0567L57.6807 27.0401V27.065H57.689ZM57.7222 27.0816H57.7721L57.7222 27.1481V27.0816Z" fill="black"/>
<path d="M57.5723 26.9984C57.5723 26.9984 57.697 27.2395 57.7219 27.3309C57.7302 27.3807 57.805 27.4472 57.8881 27.4722C57.9712 27.5054 58.0543 27.5054 58.1125 27.4638L58.2205 27.3724C58.2538 27.3309 58.2704 27.3226 58.3037 27.3309V27.2893C58.2538 27.2893 58.2289 27.3059 58.1956 27.3392L58.0876 27.4223C58.0211 27.4722 57.9463 27.4555 57.9047 27.4389C57.8216 27.414 57.7635 27.3558 57.7551 27.3143C57.7302 27.2311 57.6139 26.9901 57.6056 26.9818L57.5723 26.9984ZM57.7385 26.2837C57.6448 26.333 57.5735 26.4163 57.5391 26.5164L57.5723 26.5247C57.5723 26.5247 57.6305 26.3751 57.7468 26.317C57.7782 26.3027 57.8122 26.2954 57.8466 26.2954C57.881 26.2954 57.915 26.3027 57.9463 26.317L57.9546 26.2837C57.8715 26.2505 57.805 26.2505 57.7302 26.2837H57.7385ZM58.6361 26.7159C58.6527 26.7159 58.902 26.9153 58.7607 27.148L58.7857 27.173C58.9519 26.8987 58.661 26.6826 58.661 26.6743L58.6361 26.7159ZM57.8715 26.7491C57.8715 26.7491 57.8299 26.8904 58.0377 26.9403C58.0377 26.9403 57.8466 26.9403 57.8299 26.8904C57.8216 26.8405 57.8299 26.7325 57.8715 26.7491ZM58.4948 26.9153C58.4948 26.932 58.4782 26.9403 58.4699 26.9403C58.4645 26.9406 58.4591 26.9391 58.4546 26.9361C58.4501 26.9331 58.4467 26.9287 58.4449 26.9236C58.4449 26.907 58.4532 26.8987 58.4699 26.8987C58.4782 26.8987 58.4948 26.907 58.4948 26.9236V26.9153ZM58.5114 27.0151C58.5114 27.0234 58.5114 27.0317 58.4948 27.0317C58.4894 27.032 58.4841 27.0305 58.4796 27.0275C58.4751 27.0245 58.4717 27.0202 58.4699 27.0151C58.4699 27.0085 58.4725 27.0021 58.4772 26.9974C58.4818 26.9928 58.4882 26.9901 58.4948 26.9901C58.5031 26.9901 58.5114 26.9984 58.5114 27.0151Z" fill="black"/>
<path d="M58.3618 26.9903C58.3756 26.9903 58.3868 26.9791 58.3868 26.9654C58.3868 26.9516 58.3756 26.9404 58.3618 26.9404C58.3481 26.9404 58.3369 26.9516 58.3369 26.9654C58.3369 26.9791 58.3481 26.9903 58.3618 26.9903Z" fill="black"/>
<path d="M58.428 27.0983C58.428 27.1049 58.4254 27.1113 58.4207 27.1159C58.416 27.1206 58.4097 27.1232 58.4031 27.1232C58.3965 27.1232 58.3901 27.1206 58.3855 27.1159C58.3808 27.1113 58.3782 27.1049 58.3782 27.0983C58.3782 27.09 58.3865 27.0817 58.4031 27.0817L58.428 27.0983ZM57.838 26.4916C57.838 26.4982 57.8353 26.5046 57.8306 26.5092C57.826 26.5139 57.8196 26.5166 57.813 26.5166C57.8064 26.5166 57.8001 26.5139 57.7954 26.5092C57.7907 26.5046 57.7881 26.4982 57.7881 26.4916C57.7904 26.4882 57.7934 26.4854 57.7971 26.4834C57.8007 26.4815 57.8047 26.4805 57.8089 26.4805C57.813 26.4805 57.817 26.4815 57.8207 26.4834C57.8243 26.4854 57.8274 26.4882 57.8296 26.4916H57.838Z" fill="black"/>
<path d="M57.8296 26.6075C57.8434 26.6075 57.8546 26.5963 57.8546 26.5825C57.8546 26.5688 57.8434 26.5576 57.8296 26.5576C57.8158 26.5576 57.8047 26.5688 57.8047 26.5825C57.8047 26.5963 57.8158 26.6075 57.8296 26.6075Z" fill="black"/>
<path d="M57.7056 26.5655C57.7194 26.5655 57.7305 26.5543 57.7305 26.5406C57.7305 26.5268 57.7194 26.5156 57.7056 26.5156C57.6918 26.5156 57.6807 26.5268 57.6807 26.5406C57.6807 26.5543 57.6918 26.5655 57.7056 26.5655Z" fill="black"/>
<path d="M57.7632 26.6738C57.7635 26.6792 57.7621 26.6845 57.7591 26.689C57.7561 26.6935 57.7517 26.6969 57.7466 26.6987C57.74 26.6987 57.7337 26.6961 57.729 26.6914C57.7243 26.6867 57.7217 26.6804 57.7217 26.6738C57.7217 26.6672 57.7243 26.6608 57.729 26.6562C57.7337 26.6515 57.74 26.6489 57.7466 26.6489C57.7517 26.6507 57.7561 26.6541 57.7591 26.6585C57.7621 26.663 57.7635 26.6684 57.7632 26.6738ZM58.1621 25.876C58.1621 25.876 58.453 26.0588 58.1705 26.3995C58.1705 26.3995 58.3117 26.2915 58.3201 26.117C58.3367 25.9424 58.2203 25.8012 58.1538 25.876H58.1621ZM59.2841 26.3663C59.1844 26.4162 59.0514 26.3247 58.9849 26.2416C58.9184 26.1585 58.7771 26.1336 58.6857 26.2915C58.6026 26.4411 58.478 26.4993 58.478 26.4993C58.478 26.4993 58.6026 26.4328 58.7273 26.2915C58.8519 26.1585 58.9267 26.2666 59.0514 26.333C59.1678 26.3995 59.1927 26.4162 59.2758 26.3746V26.3663H59.2841Z" fill="black"/>
<path d="M59.2591 26.3918C59.2326 26.4123 59.1997 26.4228 59.1662 26.4213C59.1327 26.4197 59.1008 26.4063 59.0763 26.3835C58.9932 26.317 58.935 26.2339 58.8436 26.2838C58.7439 26.3336 58.5693 26.4666 58.5693 26.4666C58.5693 26.4666 58.8602 26.2671 58.9184 26.317C58.9683 26.3586 59.1012 26.4666 59.176 26.4334L59.2591 26.3918Z" fill="black"/>
<path d="M59.0347 26.5079C58.9432 26.4414 58.8518 26.591 58.777 26.5744C58.6939 26.5578 58.6357 26.4248 58.6357 26.4248C58.6357 26.4248 58.7022 26.5578 58.802 26.5328C58.91 26.4996 58.9765 26.4331 59.043 26.483C59.1011 26.5328 59.0347 26.5079 59.0347 26.5079Z" fill="black"/>
<path d="M58.8938 26.5329C58.8701 26.5378 58.8455 26.5374 58.8219 26.5318C58.7984 26.5261 58.7763 26.5154 58.7573 26.5004C58.7383 26.4853 58.7228 26.4663 58.7119 26.4447C58.7011 26.423 58.6951 26.3992 58.6943 26.375C58.6943 26.375 58.7525 26.5246 58.9104 26.4997L58.8938 26.5329Z" fill="black"/>
<path d="M58.8857 26.4159C58.894 26.4574 58.894 26.4824 58.8441 26.4824C58.7942 26.4824 58.761 26.4658 58.761 26.4159C58.761 26.3743 58.8774 26.3827 58.8857 26.4159ZM58.2374 26.1666C58.2354 26.1805 58.2284 26.1933 58.2177 26.2024C58.207 26.2116 58.1933 26.2166 58.1792 26.2164C58.146 26.2164 58.1377 26.1998 58.1377 26.1666C58.1377 26.1333 58.1377 26.1084 58.1792 26.1084C58.2208 26.1084 58.2374 26.1333 58.2374 26.1666Z" fill="black"/>
<path d="M58.0291 25.9593C58.0291 25.9593 58.3449 25.9593 58.1953 26.3499C58.1953 26.3499 58.3116 26.1588 58.2368 26.0175C58.1537 25.8845 58.0457 25.9178 58.0457 25.9178C58.0457 25.9178 58.0124 25.9427 58.0291 25.9593Z" fill="black"/>
<path d="M58.0288 26.1173C58.0288 26.2005 58.0787 26.2753 58.1784 26.3584L58.2033 26.3251C58.1119 26.2503 58.0621 26.1838 58.0621 26.1173C58.0621 26.0509 58.1119 26.0093 58.1119 26.0093L58.087 25.9844C58.087 25.9844 58.0288 26.0342 58.0205 26.1173H58.0288Z" fill="black"/>
<path d="M58.0961 26.1838C58.1044 26.2254 58.1459 26.2669 58.1958 26.2835L58.2124 26.2503C58.1709 26.2337 58.1376 26.2004 58.1293 26.1672C58.1127 26.1007 58.1625 26.0259 58.1625 26.0259L58.1293 26.001C58.1293 26.001 58.0711 26.1007 58.0961 26.1838ZM58.5199 26.3999C58.5199 26.3999 58.5781 26.5246 58.495 26.6575L58.4119 26.7905C58.4119 26.7905 58.5116 26.5994 58.47 26.5246C58.4368 26.4414 58.5199 26.3999 58.5199 26.3999ZM59.7333 27.713C60.0491 27.7712 60.7721 28.3363 60.7721 28.3363L60.8137 28.2864C60.7887 28.2615 60.074 27.7047 59.7416 27.6465L59.725 27.713H59.7333ZM60.0158 28.5025C60.0325 28.7934 60.3483 28.9679 60.3483 28.9762L60.3898 28.9181C60.3898 28.9181 60.0989 28.7518 60.0823 28.5025H60.0158ZM59.2429 28.569C59.2429 28.8848 59.5421 29.2671 59.5588 29.2837L59.6086 29.2422C59.6086 29.2422 59.3094 28.8599 59.3094 28.569H59.2429ZM58.2373 28.6022C58.2872 28.7103 58.2872 28.7601 58.2706 28.7851C58.254 28.8183 58.2207 28.8183 58.2207 28.8183L58.229 28.8848C58.254 28.8848 58.3038 28.8682 58.3288 28.8183C58.362 28.7601 58.3537 28.677 58.2955 28.569L58.2373 28.6022Z" fill="black"/>
<path d="M53.6992 27.0378C53.6992 27.0378 53.7117 27.2503 53.8742 27.3753C53.8742 27.3753 53.8617 27.1503 53.9117 27.0503C53.9117 27.0503 53.8242 26.9503 53.6992 27.0378ZM54.0242 27.1628C54.0242 27.1628 54.0617 27.3628 54.1742 27.4503L54.2492 27.4378C54.2492 27.4378 54.2742 27.1878 54.3117 27.1628C54.3492 27.1378 54.1492 27.2503 54.0242 27.1628Z" fill="white" stroke="black" stroke-width="0.025" stroke-miterlimit="3"/>
<path d="M54.3117 27.1626L54.4367 27.3626L54.5867 27.2751L54.5617 27.0501C54.5617 27.0501 54.4742 27.0251 54.3117 27.1626ZM54.8992 27.2001L54.7367 27.3376C54.7367 27.3376 54.6492 27.2751 54.5867 27.2751L54.6117 27.0626C54.6117 27.0626 54.7367 26.9751 54.8992 27.2001ZM53.7367 29.2001C53.7367 29.2001 53.7117 28.9001 53.7367 28.8876C53.7367 28.8876 53.8617 28.9251 53.9117 28.8876C53.9117 28.8876 53.9742 29.1126 53.9617 29.2126C53.9367 29.3126 53.8242 29.2751 53.7367 29.2126V29.2001ZM54.4867 28.9001C54.4867 28.9001 54.4742 28.6501 54.5117 28.6126C54.5117 28.6126 54.7617 28.6501 54.8117 28.5126L54.8992 28.7626C54.8992 28.7626 54.6367 28.7251 54.4742 28.8876L54.4867 28.9001Z" fill="white"/>
<path d="M54.5867 27.2751L54.4367 27.3626L54.3117 27.1626C54.4742 27.0251 54.5617 27.0501 54.5617 27.0501L54.5867 27.2751ZM54.5867 27.2751C54.6492 27.2751 54.7367 27.3376 54.7367 27.3376L54.8992 27.2001C54.7367 26.9751 54.6117 27.0626 54.6117 27.0626L54.5867 27.2751ZM53.7367 29.2001C53.7367 29.2001 53.7117 28.9001 53.7367 28.8876C53.7367 28.8876 53.8617 28.9251 53.9117 28.8876C53.9117 28.8876 53.9742 29.1126 53.9617 29.2126C53.9367 29.3126 53.8242 29.2751 53.7367 29.2126V29.2001ZM54.4867 28.9001C54.4867 28.9001 54.4742 28.6501 54.5117 28.6126C54.5117 28.6126 54.7617 28.6501 54.8117 28.5126L54.8992 28.7626C54.8992 28.7626 54.6367 28.7251 54.4742 28.8876L54.4867 28.9001Z" stroke="black" stroke-width="0.025" stroke-miterlimit="3"/>
<path d="M54.224 28.9506C54.224 28.9506 54.2615 28.6881 54.3115 28.6756C54.3115 28.6756 54.4365 28.7131 54.474 28.6631V28.9881C54.474 28.9881 54.474 28.8506 54.224 28.9506ZM53.9365 28.9881C53.9365 28.9881 53.999 28.7506 54.0365 28.7506C54.074 28.7506 54.1615 28.8131 54.2115 28.7756V28.9506C54.2115 28.9506 54.0115 28.9006 53.974 29.1881L53.9365 28.9881Z" fill="white" stroke="black" stroke-width="0.025" stroke-miterlimit="3"/>
<path d="M57.7117 33.8006C57.7117 33.8006 58.3617 34.4131 58.1992 34.9506C58.1992 34.9506 58.6117 34.0381 58.1617 33.7631C57.7117 33.5131 57.6992 33.7006 57.7117 33.8006Z" fill="#00A651" stroke="black" stroke-width="0.0625" stroke-miterlimit="4.8"/>
<path d="M56.8747 34.3878C56.8747 34.3878 56.7122 34.6378 56.8997 34.8003C56.8997 34.8003 56.6872 35.1003 56.8497 35.3503C56.8497 35.3503 56.7247 35.6128 56.7497 35.9003C56.7497 35.9003 56.6497 36.3378 56.8747 36.5378C56.8747 36.5378 57.1247 36.6628 57.2497 36.5503C57.2497 36.5503 57.4622 36.2253 57.3247 35.8878C57.3247 35.8878 57.4747 35.6003 57.2997 35.2378C57.2997 35.2378 57.3497 35.0378 57.2122 34.8003C57.2122 34.8003 57.2997 34.6503 57.2247 34.5253C57.2247 34.5253 56.9122 34.1878 56.8747 34.4003V34.3878Z" fill="#964B36" stroke="black" stroke-width="0.0625" stroke-miterlimit="4.8"/>
<path d="M57.0621 33.6254C57.0621 33.6254 56.2871 32.1254 55.7371 32.0629C55.1871 32.0004 55.1621 31.4629 55.1621 31.4629C55.1621 31.4629 55.2246 31.7129 55.6621 31.7129C56.0996 31.7129 56.9371 32.3379 57.0371 32.8004C57.1246 33.2629 57.2246 33.2004 57.2246 33.2004L57.0621 33.6254Z" fill="#00A651" stroke="black" stroke-width="0.0625" stroke-miterlimit="4.8"/>
<path d="M57.0625 33.5133C57.0625 33.5133 57.35 31.6258 58.5875 31.5883C59.825 31.5633 59.4125 31.6883 59.7125 31.4883C59.7125 31.4883 58.8875 31.9133 58.375 31.9883C57.85 32.0383 57.425 33.0508 57.45 33.2383C57.45 33.4258 57.1625 33.7883 57.025 33.6633C56.875 33.5383 57.0625 33.5133 57.0625 33.5133Z" fill="#00A651" stroke="black" stroke-width="0.0625" stroke-miterlimit="4.8"/>
<path d="M57.35 34.2251C57.35 34.2251 57.6375 33.4751 58.1125 33.7251C58.1125 33.7251 57.7375 33.0001 57.0625 33.6251C57.0625 33.6251 57.3625 34.0376 57.35 34.2251ZM56.4125 33.4751C56.4125 33.4751 56.8125 35.1501 56.1875 35.6626C56.1875 35.6626 56.2125 34.8001 55.825 34.2876C55.45 33.7626 56.2 33.2001 56.4125 33.4751Z" fill="#00A651" stroke="black" stroke-width="0.0625" stroke-miterlimit="4.8"/>
<path d="M56.4619 33.7633C56.4619 33.7633 57.1994 34.4758 57.2369 34.7133C57.2869 34.9383 57.4619 34.0008 57.1119 33.7383C56.7619 33.4758 56.3994 33.4258 56.3994 33.4258L56.4619 33.7758V33.7633Z" fill="#00A651" stroke="black" stroke-width="0.0625" stroke-miterlimit="4.8"/>
<path d="M55.0996 35.625C55.0996 35.625 55.1621 35.9125 55.3496 35.975C55.3496 35.975 55.3496 36.1875 55.5246 36.25C55.5246 36.25 55.4371 36.4375 55.5746 36.55C55.5746 36.55 55.5496 36.925 55.6746 36.9875C55.6746 36.9875 56.0121 36.975 56.1246 36.875C56.1246 36.875 56.1871 36.6375 55.9996 36.4C55.9996 36.4 56.0371 36.175 55.8496 36.05C55.8496 36.05 55.9121 35.7375 55.6746 35.625C55.6746 35.625 55.6371 35.375 55.4996 35.25C55.4996 35.25 55.2246 35.6375 55.0996 35.625Z" fill="#964B36" stroke="black" stroke-width="0.0625" stroke-miterlimit="4.8"/>
<path d="M55.4619 35.25C55.4619 35.25 54.4994 34.9 53.9619 35.4C53.9619 35.4 54.7869 35.525 54.8869 35.6875C54.9869 35.85 55.4994 35.4125 55.4619 35.25Z" fill="#00A651" stroke="black" stroke-width="0.0625" stroke-miterlimit="4.8"/>
<path d="M55.1622 35.8506L54.9872 35.7256C54.8997 35.6506 54.0872 35.4381 53.9747 36.2256C53.9747 36.2256 53.6747 35.4381 54.0997 35.3506C54.5372 35.2256 54.8747 35.4756 55.1622 35.8506ZM54.5372 34.2506C54.5372 34.2506 54.8247 34.9006 54.9372 34.9256C55.0497 34.9631 55.1247 34.8506 55.1247 34.8506C55.1247 34.8506 54.7372 34.2756 54.5247 34.2506H54.5372ZM54.3122 33.2631C54.3122 33.2631 54.0622 32.4381 53.7622 32.6631C53.4622 32.8756 53.5372 33.4756 53.5372 33.4756C53.5372 33.4756 52.9497 32.8506 53.2872 32.3756C53.6372 31.8881 54.3122 32.4256 54.3122 33.2631Z" fill="#00A651" stroke="black" stroke-width="0.0625" stroke-miterlimit="4.8"/>
<path d="M54.9873 34.9755C54.9873 34.9755 54.9873 35.138 55.0998 35.1755C55.1998 35.2255 55.4123 35.3005 55.4123 35.213C55.4123 35.1255 55.2498 34.7505 55.1873 34.8005C55.1248 34.8505 55.0123 34.8505 54.9873 34.9755Z" fill="#964B36" stroke="black" stroke-width="0.0625" stroke-miterlimit="4.8"/>
<path d="M54.7995 34.0002C54.7995 34.0002 54.762 33.2877 55.237 33.0127C55.237 33.0127 55.3245 33.0377 55.3745 32.8877C55.3745 32.8877 54.9995 33.8002 55.112 34.2627L55.0995 34.3127" fill="#00A651"/>
<path d="M54.7995 34.0002C54.7995 34.0002 54.762 33.2877 55.237 33.0127C55.237 33.0127 55.3245 33.0377 55.3745 32.8877C55.3745 32.8877 54.9995 33.8002 55.112 34.2627L55.0995 34.3127" stroke="black" stroke-width="0.0625" stroke-miterlimit="4.8"/>
<path d="M54.8867 33.125C54.8867 33.125 55.7367 31.375 56.7617 31.9875C56.7617 31.9875 55.6867 32.2 55.2992 32.975L54.9117 33.55L54.8867 33.125Z" fill="#00A651" stroke="black" stroke-width="0.0625" stroke-miterlimit="4.8"/>
<path d="M54.4371 33.763C54.4371 33.763 54.1871 32.588 54.0246 32.438C53.8746 32.2755 53.6121 32.113 53.2871 32.3755C53.2871 32.3755 53.8371 31.888 54.4121 32.3005C54.9996 32.7005 54.8746 33.3505 54.8746 33.3505L54.8121 34.163L54.4246 33.8005" fill="#00A651"/>
<path d="M54.4371 33.763C54.4371 33.763 54.1871 32.588 54.0246 32.438C53.8746 32.2755 53.6121 32.113 53.2871 32.3755C53.2871 32.3755 53.8371 31.888 54.4121 32.3005C54.9996 32.7005 54.8746 33.3505 54.8746 33.3505L54.8121 34.163L54.4246 33.8005" stroke="black" stroke-width="0.0625" stroke-miterlimit="4.8"/>
<path d="M55.3498 35.163C55.3498 35.163 54.3124 33.2005 53.6374 34.6005C53.6374 34.6005 53.5124 34.963 53.6499 35.1005C53.6499 35.1005 53.2749 34.813 53.4499 34.1255C53.6249 33.438 54.7623 33.7505 55.0998 34.313C55.4248 34.8755 55.5123 35.163 55.4748 35.188C55.4248 35.2255 55.3498 35.163 55.3498 35.163ZM58.2624 35.7255C58.2624 35.7255 59.0124 34.1755 59.4499 34.8755C59.4499 34.8755 59.5749 35.2255 59.3874 35.3755C59.3874 35.3755 59.0874 35.0005 58.8249 35.4505C58.5499 35.888 58.6623 35.8505 58.6623 35.8505C58.6623 35.8505 58.3874 35.9255 58.2624 35.7255Z" fill="#00A651" stroke="black" stroke-width="0.0625" stroke-miterlimit="4.8"/>
<path d="M59.375 35.375C59.375 35.375 59.7875 35.5875 59.65 36.025C59.65 36.025 60.2 34.975 59.45 34.875C59.45 34.875 59.5875 35.2125 59.3875 35.375H59.375ZM59.4375 34.3C59.4375 34.3 60.425 34.5875 60.45 35.0125C60.45 35.0125 60.625 34.1875 60.0625 33.9375C60.0625 33.9375 59.3875 34.0625 59.4375 34.3125V34.3Z" fill="#00A651" stroke="black" stroke-width="0.0625" stroke-miterlimit="4.8"/>
<path d="M59.8748 33.0006C60.2998 32.1756 60.8248 33.2631 60.8248 33.2631C60.8248 33.2631 61.0123 32.4006 60.4873 32.2506C59.9498 32.0881 59.6123 34.0881 59.6123 34.0881L58.9873 34.2131C58.9873 34.2131 59.1498 32.4881 60.0873 32.3381H60.2123" fill="#00A651"/>
<path d="M59.8748 33.0006C60.2998 32.1756 60.8248 33.2631 60.8248 33.2631C60.8248 33.2631 61.0123 32.4006 60.4873 32.2506C59.9498 32.0881 59.6123 34.0881 59.6123 34.0881L58.9873 34.2131C58.9873 34.2131 59.1498 32.4881 60.0873 32.3381H60.2123" stroke="black" stroke-width="0.0625" stroke-miterlimit="4.8"/>
<path d="M59.1243 33.5C59.1243 33.5 58.5243 32.275 58.1243 32.15C57.7243 32.025 58.3368 31.8375 58.5868 32.075C58.8368 32.3125 59.3118 32.6125 59.2618 33.2375L59.1243 33.5ZM58.4993 35.175C58.4993 35.175 58.6743 34.35 59.1493 34.1C59.6243 33.85 60.0618 33.9375 60.0618 33.9375C60.0618 33.9375 59.4993 34.0625 59.3993 34.35C59.3118 34.625 59.1493 34.65 59.1493 34.65L58.5118 35.175H58.4993Z" fill="#00A651" stroke="black" stroke-width="0.0625" stroke-miterlimit="4.8"/>
<path d="M58.2499 35.7256C58.2499 35.7256 57.9999 36.2256 58.0499 36.3006C58.0499 36.3006 57.7749 36.7131 57.8874 36.9256C57.8874 36.9256 58.1624 37.1381 58.2874 37.0506C58.2874 37.0506 58.6124 36.5881 58.5249 36.3381C58.5249 36.3381 58.7499 36.0381 58.6624 35.8506C58.6624 35.8506 58.3374 35.8631 58.2624 35.7256H58.2499Z" fill="#964B36" stroke="black" stroke-width="0.0625" stroke-miterlimit="4.8"/>
<path d="M56.8744 34.8254C56.8994 34.8379 57.0619 34.9129 57.1619 34.8754L57.2369 34.8129L57.1744 34.7879C57.1369 34.8629 56.9619 34.8004 56.9119 34.7754L56.8869 34.8254H56.8744ZM56.8619 35.3254L56.8369 35.3879C56.8494 35.3879 57.1744 35.4504 57.3244 35.3129L57.2744 35.2629C57.1494 35.3754 56.8619 35.3129 56.8494 35.3129L56.8619 35.3254ZM56.7744 35.8754L56.7369 35.9254C56.7369 35.9254 57.1119 36.1879 57.3494 35.9004L57.2869 35.8629C57.0994 36.1004 56.7869 35.8879 56.7744 35.8629V35.8754ZM55.3369 35.9504L55.3494 35.9879C55.3619 35.9879 55.6744 35.8629 55.6994 35.6254H55.6619C55.6494 35.8254 55.3494 35.9504 55.3369 35.9504ZM55.5119 36.2379V36.2754C55.5369 36.2754 55.8244 36.2504 55.8744 36.0504H55.8369C55.7869 36.2129 55.5244 36.2379 55.5119 36.2379ZM55.5744 36.5379V36.5754C55.5869 36.5754 55.9119 36.5879 56.0244 36.4129L55.9869 36.3879C55.8869 36.5504 55.5744 36.5379 55.5744 36.5379ZM58.0369 36.3254C58.0369 36.3254 58.1744 36.4754 58.3369 36.4629C58.3774 36.4621 58.4172 36.4528 58.4538 36.4356C58.4905 36.4183 58.523 36.3936 58.5494 36.3629L58.4994 36.3129C58.4494 36.3754 58.3994 36.4004 58.3369 36.4004C58.2119 36.4004 58.0869 36.2754 58.0869 36.2754L58.0369 36.3254Z" fill="black"/>
<path d="M67.7504 37.4758C67.7356 37.4857 67.7228 37.4985 67.7129 37.5133L67.7629 37.4758H67.7504ZM68.9129 37.1883C68.9004 37.1633 68.8879 37.1758 68.8754 37.1633L68.8254 37.0633H68.7879L68.7004 36.8883C68.7053 36.8763 68.7053 36.8628 68.7004 36.8508C68.7008 36.8341 68.7008 36.8174 68.7004 36.8008C68.7004 36.8008 68.6754 36.8008 68.6629 36.7758V36.5758L68.6504 36.5133C68.6248 36.4721 68.6118 36.4243 68.6129 36.3758V36.2508C68.6254 36.2008 68.6004 36.1758 68.6004 36.1258L68.6129 36.0133V35.3383L68.6004 35.2133L68.5879 35.1633V34.9633V35.2883L68.5629 34.7508L68.1379 34.5508C68.1379 34.5508 68.1004 35.3258 68.1129 35.4258C68.1129 35.5383 68.1629 36.2633 68.1379 36.3508L68.0754 36.8883C68.0754 36.8883 67.8754 37.0383 67.8004 37.1883C67.7129 37.3508 67.7379 37.4008 67.7129 37.4008L67.9004 37.3758L67.7629 37.4758C67.7773 37.4699 67.793 37.468 67.8083 37.4702C67.8237 37.4724 67.8382 37.4786 67.8504 37.4883L67.8754 37.5133L67.9004 37.4883C67.9379 37.4883 67.9629 37.5383 67.9879 37.5258L68.0379 37.5008L68.0629 37.4508C68.0754 37.4383 68.1004 37.4508 68.1129 37.4508H68.2004C68.2379 37.4508 68.2754 37.3883 68.3129 37.3633C68.3379 37.3383 68.3629 37.3258 68.4004 37.3258C68.4379 37.3258 68.4754 37.3633 68.5254 37.3633C68.5504 37.3633 68.5629 37.3633 68.5879 37.3383L68.6379 37.2633L68.7379 37.2508L68.7879 37.2633H68.8629L68.9004 37.2883L68.9254 37.2383L68.9129 37.1883Z" fill="#964B36"/>
<path d="M67.7629 37.4758L67.7129 37.5133C67.7228 37.4985 67.7356 37.4857 67.7504 37.4758H67.7629ZM67.7629 37.4758L67.9004 37.3758L67.7129 37.4008C67.7379 37.4008 67.7129 37.3508 67.8004 37.1883C67.8754 37.0383 68.0754 36.8883 68.0754 36.8883L68.1379 36.3508C68.1629 36.2633 68.1129 35.5383 68.1129 35.4258C68.1004 35.3258 68.1379 34.5508 68.1379 34.5508L68.5629 34.7508L68.5879 35.2883V34.9633V35.1633L68.6004 35.2133L68.6129 35.3383V36.0133L68.6004 36.1258C68.6004 36.1758 68.6254 36.2008 68.6129 36.2508V36.3758C68.6118 36.4243 68.6248 36.4721 68.6504 36.5133L68.6629 36.5758V36.7758C68.6754 36.8008 68.7004 36.8008 68.7004 36.8008C68.7008 36.8174 68.7008 36.8341 68.7004 36.8508C68.7053 36.8628 68.7053 36.8763 68.7004 36.8883L68.7879 37.0633H68.8254L68.8754 37.1633C68.8879 37.1758 68.9004 37.1633 68.9129 37.1883L68.9254 37.2383L68.9004 37.2883L68.8629 37.2633H68.7879L68.7379 37.2508L68.6379 37.2633L68.5879 37.3383C68.5629 37.3633 68.5504 37.3633 68.5254 37.3633C68.4754 37.3633 68.4379 37.3258 68.4004 37.3258C68.3629 37.3258 68.3379 37.3383 68.3129 37.3633C68.2754 37.3883 68.2379 37.4508 68.2004 37.4508H68.1129C68.1004 37.4508 68.0754 37.4383 68.0629 37.4508L68.0379 37.5008L67.9879 37.5258C67.9629 37.5383 67.9379 37.4883 67.9004 37.4883L67.8754 37.5133L67.8504 37.4883C67.8382 37.4786 67.8237 37.4724 67.8083 37.4702C67.793 37.468 67.7773 37.4699 67.7629 37.4758Z" stroke="black" stroke-width="0.0375" stroke-miterlimit="4.8"/>
<path d="M68.0624 37.4631H68.1374V37.4881C68.1412 37.4903 68.1456 37.4915 68.1499 37.4915C68.1543 37.4915 68.1586 37.4903 68.1624 37.4881L68.1999 37.5131H68.2374L68.2874 37.5256C68.3124 37.5381 68.3374 37.5256 68.3624 37.5131C68.3874 37.4881 68.3999 37.5131 68.4374 37.5381C68.4499 37.5506 68.4499 37.5506 68.4624 37.5381L68.4749 37.5256L68.5124 37.5131L68.5499 37.5006L68.5999 37.4756L68.6499 37.5006C68.6582 37.4996 68.6666 37.4996 68.6749 37.5006L68.7624 37.4381C68.7999 37.4131 68.8249 37.4381 68.8499 37.4381H68.8874C68.8999 37.4256 68.9124 37.4381 68.9374 37.4381C68.9374 37.4256 68.9374 37.4131 68.9624 37.4006L69.0499 37.4506C69.0624 37.4631 69.1374 37.4756 69.1249 37.4256C69.1249 37.3756 69.0749 37.4131 69.0624 37.3756V37.3006C69.0565 37.2799 69.0432 37.2621 69.0249 37.2506C68.9999 37.2506 68.9999 37.2631 68.9749 37.2506L68.9499 37.1756L68.9124 37.2006C68.8874 37.2006 68.8874 37.1881 68.8749 37.1631C68.8374 37.1256 68.8249 37.1881 68.7874 37.1756C68.7624 37.1756 68.7374 37.1131 68.7249 37.0881C68.7124 37.0756 68.6874 37.0256 68.6624 37.0381C68.6374 37.0506 68.6624 37.1006 68.6624 37.1256H68.5999C68.5749 37.1256 68.5749 37.1256 68.5624 37.1506C68.5374 37.2006 68.5249 37.2381 68.4749 37.2256C68.4624 37.2256 68.4374 37.2131 68.4249 37.2256L68.3624 37.2506C68.3459 37.254 68.3289 37.254 68.3124 37.2506L68.2624 37.2006C68.2624 37.1973 68.2611 37.1941 68.2588 37.1918C68.2564 37.1894 68.2533 37.1881 68.2499 37.1881C68.2466 37.1881 68.2434 37.1894 68.2411 37.1918C68.2388 37.1941 68.2374 37.1973 68.2374 37.2006C68.2334 37.1922 68.2292 37.1839 68.2249 37.1756C68.1999 37.1756 68.1999 37.1756 68.1874 37.2131L68.1749 37.2756L68.1374 37.3256L68.0874 37.3381C68.0624 37.3381 68.0374 37.3756 68.0374 37.3381C68.0124 37.2881 68.0749 37.2006 68.0124 37.2131C67.9999 37.2131 67.9874 37.2131 67.9749 37.2381V37.3256C67.9624 37.3631 67.8874 37.4256 67.8999 37.4506C67.8999 37.4881 67.9499 37.4506 67.9499 37.4506L67.9749 37.5006C67.9999 37.5381 68.0624 37.4506 68.0624 37.5006M67.7999 37.1631V37.1381L67.7499 37.1256C67.7249 37.1256 67.6999 37.1631 67.6874 37.1756C67.6624 37.2256 67.6624 37.3006 67.6124 37.3006H67.5499V37.4256C67.5499 37.4256 67.5249 37.4256 67.5249 37.4506C67.5124 37.5006 67.5499 37.4756 67.5749 37.4756H67.6999L67.7624 37.4631C67.7874 37.4631 67.8124 37.4631 67.8249 37.4381C67.8349 37.4223 67.8433 37.4056 67.8499 37.3881V37.3381C67.8499 37.3131 67.8874 37.3256 67.8874 37.2881C67.8999 37.2006 67.8124 37.2631 67.8249 37.1756" fill="#964B36"/>
<path d="M68.0624 37.4631H68.1374V37.4881C68.1412 37.4903 68.1456 37.4915 68.1499 37.4915C68.1543 37.4915 68.1586 37.4903 68.1624 37.4881L68.1999 37.5131H68.2374L68.2874 37.5256C68.3124 37.5381 68.3374 37.5256 68.3624 37.5131C68.3874 37.4881 68.3999 37.5131 68.4374 37.5381C68.4499 37.5506 68.4499 37.5506 68.4624 37.5381L68.4749 37.5256L68.5124 37.5131L68.5499 37.5006L68.5999 37.4756L68.6499 37.5006C68.6582 37.4996 68.6666 37.4996 68.6749 37.5006L68.7624 37.4381C68.7999 37.4131 68.8249 37.4381 68.8499 37.4381H68.8874C68.8999 37.4256 68.9124 37.4381 68.9374 37.4381C68.9374 37.4256 68.9374 37.4131 68.9624 37.4006L69.0499 37.4506C69.0624 37.4631 69.1374 37.4756 69.1249 37.4256C69.1249 37.3756 69.0749 37.4131 69.0624 37.3756V37.3006C69.0565 37.2799 69.0432 37.2621 69.0249 37.2506C68.9999 37.2506 68.9999 37.2631 68.9749 37.2506L68.9499 37.1756L68.9124 37.2006C68.8874 37.2006 68.8874 37.1881 68.8749 37.1631C68.8374 37.1256 68.8249 37.1881 68.7874 37.1756C68.7624 37.1756 68.7374 37.1131 68.7249 37.0881C68.7124 37.0756 68.6874 37.0256 68.6624 37.0381C68.6374 37.0506 68.6624 37.1006 68.6624 37.1256H68.5999C68.5749 37.1256 68.5749 37.1256 68.5624 37.1506C68.5374 37.2006 68.5249 37.2381 68.4749 37.2256C68.4624 37.2256 68.4374 37.2131 68.4249 37.2256L68.3624 37.2506C68.3459 37.254 68.3289 37.254 68.3124 37.2506L68.2624 37.2006C68.2624 37.1973 68.2611 37.1941 68.2588 37.1918C68.2564 37.1894 68.2533 37.1881 68.2499 37.1881C68.2466 37.1881 68.2434 37.1894 68.2411 37.1918C68.2388 37.1941 68.2374 37.1973 68.2374 37.2006C68.2334 37.1922 68.2292 37.1839 68.2249 37.1756C68.1999 37.1756 68.1999 37.1756 68.1874 37.2131L68.1749 37.2756L68.1374 37.3256L68.0874 37.3381C68.0624 37.3381 68.0374 37.3756 68.0374 37.3381C68.0124 37.2881 68.0749 37.2006 68.0124 37.2131C67.9999 37.2131 67.9874 37.2131 67.9749 37.2381V37.3256C67.9624 37.3631 67.8874 37.4256 67.8999 37.4506C67.8999 37.4881 67.9499 37.4506 67.9499 37.4506L67.9749 37.5006C67.9999 37.5381 68.0624 37.4506 68.0624 37.5006M67.7999 37.1631V37.1381L67.7499 37.1256C67.7249 37.1256 67.6999 37.1631 67.6874 37.1756C67.6624 37.2256 67.6624 37.3006 67.6124 37.3006H67.5499V37.4256C67.5499 37.4256 67.5249 37.4256 67.5249 37.4506C67.5124 37.5006 67.5499 37.4756 67.5749 37.4756H67.6999L67.7624 37.4631C67.7874 37.4631 67.8124 37.4631 67.8249 37.4381C67.8349 37.4223 67.8433 37.4056 67.8499 37.3881V37.3381C67.8499 37.3131 67.8874 37.3256 67.8874 37.2881C67.8999 37.2006 67.8124 37.2631 67.8249 37.1756" stroke="black" stroke-width="0.0375" stroke-miterlimit="4.8"/>
<path d="M68.85 34.7381C68.85 34.8506 68.775 34.9381 68.675 34.9381C68.5875 34.9381 68.5 34.8506 68.5 34.7381C68.5 34.6256 68.5875 34.5381 68.675 34.5381C68.775 34.5381 68.85 34.6256 68.85 34.7381ZM68.2875 34.4881C68.2875 34.6006 68.2125 34.6881 68.1125 34.6881C68.0125 34.6881 67.9375 34.6006 67.9375 34.4881C67.9375 34.3631 68.025 34.2881 68.1125 34.2881C68.2 34.2881 68.2875 34.3756 68.2875 34.4881Z" fill="black" stroke="black" stroke-width="0.0625" stroke-miterlimit="4.8"/>
<path d="M68.5873 34.5633C68.5873 34.6883 68.5123 34.7633 68.4123 34.7633C68.3123 34.7633 68.2373 34.6758 68.2373 34.5633C68.2373 34.4508 68.3123 34.3633 68.4123 34.3633C68.5123 34.3633 68.5873 34.4508 68.5873 34.5633Z" fill="black" stroke="black" stroke-width="0.0625" stroke-miterlimit="4.8"/>
<path d="M68.3002 34.7508C68.3002 34.8633 68.2252 34.9508 68.1252 34.9508C68.0252 34.9508 67.9502 34.8633 67.9502 34.7508C67.9502 34.6383 68.0252 34.5508 68.1252 34.5508C68.2252 34.5508 68.3002 34.6383 68.3002 34.7508Z" fill="black" stroke="black" stroke-width="0.0625" stroke-miterlimit="4.8"/>
<path d="M68.5629 34.9127C68.5629 35.0127 68.4879 35.1127 68.3879 35.1127C68.3004 35.1127 68.2129 35.0252 68.2129 34.9127C68.2129 34.7877 68.3004 34.7002 68.3879 34.7002C68.4879 34.7002 68.5629 34.7877 68.5629 34.9002V34.9127Z" fill="black" stroke="black" stroke-width="0.0625" stroke-miterlimit="4.8"/>
<path d="M68.65 32.6883C68.65 32.6883 70.3875 30.2633 72.25 32.7758C72.25 32.7758 72.2625 33.0258 72.0875 33.3008L72.05 33.0883L71.925 33.1258L71.9 33.0008L71.7 32.9883L71.7625 32.7133L71.55 32.8883L71.575 32.7008L71.325 32.9508L71.3625 32.4133L71.0875 32.8758L71.125 32.5633L71.025 32.7008L70.975 32.5133L70.8875 32.7008L70.7625 32.6133V32.7383L70.5375 32.5508L70.4625 32.8008L70.35 32.5258L70.325 32.7133L70.2125 32.5008L70.2 32.7383L69.8375 32.5758L69.9125 32.8008L69.75 32.6758L69.775 32.8008L69.5375 32.7508L69.5625 32.8883L69.3125 32.8383L69.35 32.9633L69.0125 32.9258L69.1375 33.0508L69.1 33.1258C69.1 33.1258 70.975 32.5008 71.1 34.8508L70.7625 35.0133L70.8625 34.8258L70.7625 34.7633L70.475 34.5508L70.5625 34.2508L70.4625 34.2883L70.45 34.1133L70.4 34.1383L70.2875 33.9758L70.2625 34.0383L70.1875 33.8258L70.1 33.9758L70.0625 33.6258L69.9375 33.8508L69.9125 33.7258L69.875 33.8008L69.7125 33.6133L69.6625 33.7383L69.6 33.6383L69.5625 33.7633L69.3875 33.5883V33.7133L69.2625 33.6258L69.225 33.6883L68.9625 33.5508L68.95 33.6758L68.8 33.5508L68.7625 33.6758C68.7625 33.6758 70.4625 34.6508 69.9375 36.2258L69.8375 36.4258L69.8125 35.9008L69.65 36.1758L69.7625 35.5633L69.65 35.6883L69.6375 35.4383L69.5 35.6883L69.45 35.4133L69.3875 35.4883L69.2875 35.0883L69.2125 35.2508L69.0875 34.8008L68.9875 34.9883L68.925 34.6008L68.8625 34.8383L68.675 34.4883L68.65 34.6258L68.5375 34.3508L68.475 34.4383C68.475 34.4383 68.1625 34.4258 68.0625 34.3508C67.975 34.2633 67.7125 34.8133 67.7125 34.8133L67.7375 34.4883L67.625 34.7133V34.4883L67.425 35.1508L67.375 34.6758L67.275 35.0883L67.225 34.9633L67.1875 35.1258L67.125 35.0633L67.075 35.2508L66.975 35.1758V35.4258L66.875 35.3008L66.8 35.6758L66.75 35.5258V35.6883L66.675 35.6008L66.6 35.9758L66.475 35.8133V36.0883L66.5125 36.2883L66.3875 36.2258L66.4375 36.5508C66.4375 36.5508 65.95 35.6508 66.5375 34.7758C67.1125 33.9008 67.9 33.6508 67.9 33.6508L67.8125 33.5758V33.5008L67.3375 33.7383V33.6008L67.2125 33.7008L67.1875 33.5508L67.1125 33.6883L67.1 33.6258L66.975 33.8008L66.925 33.5508L66.85 33.8508L66.775 33.6383L66.6125 34.0758V33.7508L66.4875 34.1008L66.4375 33.7258L66.35 34.1508V33.7758L66.2 34.1508L66.1125 33.7758L66.05 34.1508L65.95 33.8633L65.8625 34.2883L65.7125 33.9133L65.6375 34.4758L65.55 34.2508L65.525 34.6633L65.425 34.4133L65.525 34.9383L65.4 34.7383L65.4375 35.0633L65.2375 34.7008V35.1258L65.1375 34.9883L65.0875 35.1508C65.0875 35.1508 65.05 33.5258 66.1625 33.2008C67.275 32.8883 67.9875 33.3008 67.9875 33.3008L67.5625 32.9508L67.6125 32.8383H67.4625L67.525 32.7133L67.1875 32.7258L67.2875 32.6008L67.0375 32.6383V32.5633L66.875 32.6883L66.9375 32.5383L66.725 32.6883L66.7125 32.4758L66.5875 32.6508L66.5375 32.4633L66.0375 32.9633L66.1625 32.4508L66.075 32.5633L66.0625 32.4383L65.925 32.6633L65.8875 32.5133L65.825 32.7008L65.775 32.4758L65.675 32.7008L65.55 32.5008L65.5125 32.7633L65.4375 32.6258L65.3375 32.8258L65.2125 32.7008V32.8258L64.9625 32.7133L65.0125 32.9008L64.825 32.7508L64.775 33.0008L64.675 32.8758L64.5875 33.1883L64.5125 32.8883L64.4375 33.1258C64.4375 33.1258 65.4125 30.6008 67.8875 32.2508C67.8875 32.2508 68.1625 32.5133 68.225 32.7008C68.2875 32.8883 68.2375 32.7258 68.2375 32.7258L68.1875 30.9883L68.2875 31.7383L68.35 31.4883L68.3375 31.8633L68.5875 31.3258C68.5875 31.3258 68.2875 32.2258 68.4 32.5633C68.4 32.5633 68.5125 31.5133 68.8875 31.3883L68.5375 32.1383L68.65 32.1258L68.575 32.2758H68.6625L68.55 32.5258L68.4875 32.6508L68.55 32.7758L68.65 32.6883Z" fill="#00A651" stroke="black" stroke-width="0.0625" stroke-miterlimit="4.8"/>
<path d="M68.3873 33.7L68.4373 33.75C68.4373 33.75 68.5998 33.575 68.8623 33.8L68.8998 33.75C68.5873 33.4875 68.3998 33.7 68.3998 33.7H68.3873ZM68.3123 32.85V32.9125L68.4248 32.8625L68.3373 33.0125L68.5248 32.95L68.2998 33.2375L68.3498 33.275L68.7123 32.8125L68.4873 32.8875L68.5873 32.725L68.3873 32.8L68.4248 32.5625H68.3623L68.3123 32.85Z" fill="black"/>
<path d="M67.9875 32.8754L68.0625 33.0379L67.9375 32.9879L68.3 33.6379L68.35 33.5754L68.275 33.7629L68.3375 33.7879L68.4875 33.3879L68.4375 33.3504L68.3125 33.5129L68.0875 33.1254L68.1875 33.1629L68.0875 32.9504L68.225 33.0254V32.7879H68.1625V32.9129L67.9375 32.7754L67.9875 32.8754ZM67.75 33.6754L67.775 33.7379C67.875 33.7004 67.9625 33.6879 68.025 33.7129C68.0875 33.7504 68.1125 33.8254 68.1125 33.8379L68.175 33.8129C68.175 33.8129 68.15 33.7004 68.05 33.6629C67.975 33.6254 67.875 33.6254 67.75 33.6754ZM68.0375 34.3504L67.975 34.0004H68.05L68.1 34.3379L68.0375 34.3504ZM68.5125 34.3004L68.425 34.0254L68.4875 34.0129L68.575 34.2629L68.5125 34.3004ZM68.6875 34.4879L68.625 34.2254L68.6875 34.2129L68.7625 34.4754L68.6875 34.4879Z" fill="black"/>
<path d="M55.3248 42.525C55.3248 42.525 55.0248 42.4 54.8873 42.5C54.7623 42.5875 54.7748 42.7375 54.6623 42.725C54.6623 42.725 55.1123 42.825 55.1998 42.7125L55.3248 42.5625M55.3748 42.65C55.3748 42.65 55.1748 42.9 55.2498 43.0625C55.3123 43.2125 55.4623 43.225 55.4248 43.3375C55.4248 43.3375 55.6123 42.925 55.5248 42.8C55.4373 42.675 55.3998 42.6625 55.3998 42.6625M55.0498 41.9375C55.0498 41.9375 54.7373 42.0375 54.6998 42.1875C54.6748 42.3625 54.7748 42.45 54.6873 42.525C54.6873 42.525 55.0873 42.3 55.0748 42.15V41.9625M55.2248 42.05C55.2248 42.05 55.3748 41.7625 55.2873 41.625C55.1873 41.475 55.0373 41.5 55.0623 41.375C55.0623 41.375 54.9373 41.8125 55.0623 41.925L55.1998 42.05M54.9248 41.9375C54.9248 41.9375 54.9248 41.6125 54.7998 41.5375C54.6498 41.45 54.5248 41.525 54.4873 41.4125C54.4873 41.4125 54.5748 41.8625 54.7123 41.9125L54.8998 41.95M55.4498 42.475C55.4498 42.475 55.7873 42.35 55.8248 42.725C55.8498 43.1 55.7998 42.975 55.7998 42.975C55.7998 42.975 55.6248 42.575 55.4248 42.5125L55.4498 42.475Z" fill="#00A651"/>
<path d="M55.3248 42.525C55.3248 42.525 55.0248 42.4 54.8873 42.5C54.7623 42.5875 54.7748 42.7375 54.6623 42.725C54.6623 42.725 55.1123 42.825 55.1998 42.7125L55.3248 42.5625M55.3748 42.65C55.3748 42.65 55.1748 42.9 55.2498 43.0625C55.3123 43.2125 55.4623 43.225 55.4248 43.3375C55.4248 43.3375 55.6123 42.925 55.5248 42.8C55.4373 42.675 55.3998 42.6625 55.3998 42.6625M55.0498 41.9375C55.0498 41.9375 54.7373 42.0375 54.6998 42.1875C54.6748 42.3625 54.7748 42.45 54.6873 42.525C54.6873 42.525 55.0873 42.3 55.0748 42.15V41.9625M55.2248 42.05C55.2248 42.05 55.3748 41.7625 55.2873 41.625C55.1873 41.475 55.0373 41.5 55.0623 41.375C55.0623 41.375 54.9373 41.8125 55.0623 41.925L55.1998 42.05M54.9248 41.9375C54.9248 41.9375 54.9248 41.6125 54.7998 41.5375C54.6498 41.45 54.5248 41.525 54.4873 41.4125C54.4873 41.4125 54.5748 41.8625 54.7123 41.9125L54.8998 41.95M55.4498 42.475C55.4498 42.475 55.7873 42.35 55.8248 42.725C55.8498 43.1 55.7998 42.975 55.7998 42.975C55.7998 42.975 55.6248 42.575 55.4248 42.5125L55.4498 42.475Z" stroke="black" stroke-width="0.0625" stroke-miterlimit="4.8"/>
<path d="M55.3748 42.6633L55.3998 42.9383H55.4498L55.4123 42.6633L55.5373 42.0508H55.4873L55.3623 42.6633H55.3748Z" fill="black"/>
<path d="M55.0623 42.5754L55.0498 42.6129C55.2123 42.6754 55.4248 42.4879 55.4373 42.4879L55.4123 42.4504C55.4123 42.4504 55.1998 42.6129 55.0623 42.5754ZM55.4873 42.2129L54.7373 41.8379L54.7623 41.7754L55.5123 42.1504L55.4873 42.2129Z" fill="black"/>
<path d="M54.9367 42.1258L54.8867 42.0758L55.0367 41.9258L55.0867 41.9758L54.9367 42.1258ZM55.1992 42.0508L55.0367 41.7008L55.0992 41.6758L55.2617 42.0258L55.1992 42.0508ZM55.4242 42.4758V42.5508C55.6367 42.5383 55.6742 42.6758 55.6742 42.6758L55.7492 42.6508C55.7492 42.6133 55.6617 42.4633 55.4242 42.4758Z" fill="black"/>
<path d="M58.8992 42.625C59.1492 42.5 59.1992 42 59.1992 42C59.1367 42.175 58.6742 42.3625 58.6742 42.3625C59.0117 42.15 59.4242 41.1875 59.4242 41.1875C59.3242 41.525 58.4242 41.8125 57.8492 42.1375C57.2742 42.4625 57.5742 43.3875 57.5742 43.3875C57.4117 43.275 57.0992 42.7875 57.0367 42.35C56.9742 41.9125 56.8117 41.7375 56.4117 41.6875C56.0242 41.6375 55.7867 42.0875 55.7867 42.0875L55.1992 42.3875L55.7992 42.4125C55.7992 42.4125 56.2242 42.55 56.2242 42.8875C56.2242 43.2125 55.8492 44.55 56.4742 45.3C56.8867 45.8125 58.4742 46.1125 58.4742 46.1125" fill="white"/>
<path d="M58.8992 42.625C59.1492 42.5 59.1992 42 59.1992 42C59.1367 42.175 58.6742 42.3625 58.6742 42.3625C59.0117 42.15 59.4242 41.1875 59.4242 41.1875C59.3242 41.525 58.4242 41.8125 57.8492 42.1375C57.2742 42.4625 57.5742 43.3875 57.5742 43.3875C57.4117 43.275 57.0992 42.7875 57.0367 42.35C56.9742 41.9125 56.8117 41.7375 56.4117 41.6875C56.0242 41.6375 55.7867 42.0875 55.7867 42.0875L55.1992 42.3875L55.7992 42.4125C55.7992 42.4125 56.2242 42.55 56.2242 42.8875C56.2242 43.2125 55.8492 44.55 56.4742 45.3C56.8867 45.8125 58.4742 46.1125 58.4742 46.1125" stroke="black" stroke-width="0.0875" stroke-miterlimit="4.8"/>
<path d="M57.7373 43.6631C57.7373 43.6631 57.8623 43.0631 58.2498 43.0881C58.6373 43.1131 58.7498 42.6381 58.9873 42.5756C59.2248 42.5006 60.4248 42.1756 60.5498 41.6006C60.5498 41.6006 60.4373 42.5506 59.3373 43.0256C59.3373 43.0256 60.2248 42.7381 60.3373 42.5381C60.3373 42.5381 59.9373 43.3881 58.9748 43.5256C58.9748 43.5256 59.8748 43.4506 59.9998 43.2131C59.9998 43.2131 59.5998 43.7381 58.9373 43.8131C58.9373 43.8131 59.5623 44.0631 59.7123 43.8506C59.7123 43.8506 59.3748 44.2506 58.9623 44.2756L59.0873 44.3006C59.0873 44.3006 58.6873 44.7756 58.2498 44.4631C57.8123 44.1506 57.7998 44.5381 57.7998 44.5381" fill="white"/>
<path d="M57.7373 43.6631C57.7373 43.6631 57.8623 43.0631 58.2498 43.0881C58.6373 43.1131 58.7498 42.6381 58.9873 42.5756C59.2248 42.5006 60.4248 42.1756 60.5498 41.6006C60.5498 41.6006 60.4373 42.5506 59.3373 43.0256C59.3373 43.0256 60.2248 42.7381 60.3373 42.5381C60.3373 42.5381 59.9373 43.3881 58.9748 43.5256C58.9748 43.5256 59.8748 43.4506 59.9998 43.2131C59.9998 43.2131 59.5998 43.7381 58.9373 43.8131C58.9373 43.8131 59.5623 44.0631 59.7123 43.8506C59.7123 43.8506 59.3748 44.2506 58.9623 44.2756L59.0873 44.3006C59.0873 44.3006 58.6873 44.7756 58.2498 44.4631C57.8123 44.1506 57.7998 44.5381 57.7998 44.5381" stroke="black" stroke-width="0.0875" stroke-miterlimit="4.8"/>
<path d="M58.6246 44.5625C58.6246 44.5625 59.1371 45.4125 59.1871 45.8625C59.1871 45.8625 60.1621 46.925 60.5246 46.9875C60.5246 46.9875 60.3496 47.0625 60.0246 46.8C60.0246 46.8 60.2996 47.075 60.3496 47.0875C60.3996 47.0875 60.1371 47.0625 60.0996 46.9875C60.1467 47.0596 60.2059 47.123 60.2746 47.175L60.2121 47.15C60.2121 47.15 60.0871 47.1375 60.0121 47.0875C59.9496 47.0375 59.9996 47.2125 59.9996 47.2125C59.9996 47.2125 59.8496 47.175 59.7996 47.125C59.7496 47.075 59.8121 47.2375 59.8121 47.2375L59.6871 47.2L59.5871 47.2625C59.5871 47.2625 59.5871 47.325 59.5246 47.2625C59.4621 47.225 59.3496 47.2625 59.3496 47.2625C59.3496 47.2625 59.2746 47.3375 59.2246 47.2875C59.1871 47.2375 59.0371 47.4875 59.0371 47.4875L58.4121 45.95" fill="white"/>
<path d="M58.6246 44.5625C58.6246 44.5625 59.1371 45.4125 59.1871 45.8625C59.1871 45.8625 60.1621 46.925 60.5246 46.9875C60.5246 46.9875 60.3496 47.0625 60.0246 46.8C60.0246 46.8 60.2996 47.075 60.3496 47.0875C60.3996 47.0875 60.1371 47.0625 60.0996 46.9875C60.1467 47.0596 60.2059 47.123 60.2746 47.175L60.2121 47.15C60.2121 47.15 60.0871 47.1375 60.0121 47.0875C59.9496 47.0375 59.9996 47.2125 59.9996 47.2125C59.9996 47.2125 59.8496 47.175 59.7996 47.125C59.7496 47.075 59.8121 47.2375 59.8121 47.2375L59.6871 47.2L59.5871 47.2625C59.5871 47.2625 59.5871 47.325 59.5246 47.2625C59.4621 47.225 59.3496 47.2625 59.3496 47.2625C59.3496 47.2625 59.2746 47.3375 59.2246 47.2875C59.1871 47.2375 59.0371 47.4875 59.0371 47.4875L58.4121 45.95" stroke="black" stroke-width="0.0875" stroke-miterlimit="4.8"/>
<path d="M59.2375 47.3375L58.4375 45.8125L58.5125 45.7625L59.3125 47.3L59.2375 47.3375ZM59.9375 47.2375L58.5625 45.7L58.6375 45.6375L60.0125 47.175L59.9375 47.2375ZM60.25 47.1125L58.6875 45.625L58.75 45.5625L60.3125 47.025L60.25 47.1125Z" fill="black"/>
<path d="M56.3176 42.1729C56.3176 42.1729 56.2178 41.9901 56.1264 42.0648C56.0433 42.1313 55.9934 42.148 55.9768 42.1396C55.9768 42.1396 56.0599 42.1396 56.1181 42.0981C56.168 42.0482 56.2511 42.0732 56.3176 42.1812V42.1729ZM55.7691 42.0898L55.8272 42.2061L55.7607 42.3973L55.8106 42.4139L55.8688 42.2061L55.8106 42.0732L55.7691 42.0898Z" fill="black"/>
<path d="M56.3006 42.1484C56.3006 42.1484 56.2175 42.2315 56.1178 42.2149L56.0098 42.19H56.1594C56.2175 42.19 56.2923 42.1651 56.3006 42.1484Z" fill="black"/>
<path d="M56.2756 42.1649C56.2756 42.1649 56.1759 42.0652 56.1094 42.0984C56.1094 42.0984 56.2257 42.0569 56.2922 42.1566L56.2756 42.1649Z" fill="black"/>
<path d="M56.2591 42.1475C56.2591 42.1475 56.151 42.2223 56.0347 42.1475L56.0264 42.1309H56.043C56.043 42.1309 56.1843 42.189 56.2591 42.1475Z" fill="black"/>
<path d="M56.168 42.1641C56.1864 42.1641 56.2013 42.1493 56.2013 42.1309C56.2013 42.1125 56.1864 42.0977 56.168 42.0977C56.1496 42.0977 56.1348 42.1125 56.1348 42.1309C56.1348 42.1493 56.1496 42.1641 56.168 42.1641Z" fill="black"/>
<path d="M56.2492 44.9502C56.2492 44.9502 56.1617 45.1002 56.2117 45.2002C56.2492 45.2877 56.4617 45.3252 56.4742 45.4502C56.4992 45.5752 56.5742 45.5752 56.6617 45.5752L56.7742 45.5377C56.7742 45.5377 56.3867 45.3377 56.2742 45.0002L56.2492 44.9502Z" fill="black"/>
<path d="M68.6742 41.8505C68.6742 41.8505 69.3742 40.9255 69.9992 41.163C70.6242 41.413 71.0117 41.538 71.0117 41.538C71.0117 41.538 71.0242 42.1505 70.6992 42.1505C70.3742 42.1505 70.0492 41.5255 69.7492 41.713C69.5224 41.8405 69.3295 42.0205 69.1867 42.238C69.1742 42.3255 68.3992 42.338 68.6742 41.8505Z" fill="#964B36" stroke="black" stroke-width="0.0375" stroke-miterlimit="4.8"/>
<path d="M66.0243 46.3001C66.0243 46.3001 65.8243 46.5001 65.9118 46.5501C65.9993 46.6001 66.1743 46.5501 66.1743 46.4751C66.1743 46.4001 66.0493 46.2751 66.0243 46.3001Z" fill="#964B36" stroke="black" stroke-width="0.0625" stroke-miterlimit="4.8"/>
<path d="M65.8746 46.5002C65.8746 46.5002 65.4996 46.2877 65.2246 46.7752C64.9371 47.2502 64.7121 48.0377 64.5496 48.1502C64.3871 48.2502 66.1496 47.3752 66.1746 47.0002C66.1746 47.0002 66.2871 46.5252 66.0996 46.5377C65.9121 46.5377 65.8996 46.5627 65.8621 46.4877L65.8746 46.5002Z" fill="#964B36" stroke="black" stroke-width="0.0625" stroke-miterlimit="4.8"/>
<path d="M65.9119 46.5504C65.9119 46.5504 65.5369 46.6379 65.4619 47.1629C65.3869 47.6879 64.8744 47.9504 64.8369 47.9754M71.0119 41.5254C71.0119 41.5254 70.4619 41.7254 70.5494 42.1129L71.0119 41.5254Z" fill="#964B36"/>
<path d="M65.9119 46.5504C65.9119 46.5504 65.5369 46.6379 65.4619 47.1629C65.3869 47.6879 64.8744 47.9504 64.8369 47.9754M71.0119 41.5254C71.0119 41.5254 70.4619 41.7254 70.5494 42.1129" stroke="black" stroke-width="0.0375" stroke-miterlimit="4.8"/>
<path d="M66.7119 42.6631C66.7119 42.6631 66.7369 41.3381 67.8244 41.3881C68.0244 41.4131 67.9244 41.6506 67.9244 41.6506C67.9244 41.6506 68.1744 41.4881 68.2744 41.7506C68.2744 41.7506 68.6119 41.6006 68.6494 41.9381C68.6494 41.9381 69.0244 41.8881 68.9744 42.1881C68.9744 42.1881 69.2244 42.1256 69.2244 42.3381C69.2244 42.3381 69.5119 42.2256 69.4744 42.5256C69.4744 42.5256 69.7994 42.3131 69.7619 42.7006C69.7619 42.7006 70.0869 42.4631 70.1994 42.8506C70.3244 43.2506 69.8744 44.0756 69.4369 44.2881" fill="#FFF200"/>
<path d="M66.7119 42.6631C66.7119 42.6631 66.7369 41.3381 67.8244 41.3881C68.0244 41.4131 67.9244 41.6506 67.9244 41.6506C67.9244 41.6506 68.1744 41.4881 68.2744 41.7506C68.2744 41.7506 68.6119 41.6006 68.6494 41.9381C68.6494 41.9381 69.0244 41.8881 68.9744 42.1881C68.9744 42.1881 69.2244 42.1256 69.2244 42.3381C69.2244 42.3381 69.5119 42.2256 69.4744 42.5256C69.4744 42.5256 69.7994 42.3131 69.7619 42.7006C69.7619 42.7006 70.0869 42.4631 70.1994 42.8506C70.3244 43.2506 69.8744 44.0756 69.4369 44.2881" stroke="black" stroke-width="0.0375" stroke-miterlimit="4.8"/>
<path d="M69.7375 42.7502C69.7375 42.7502 69.875 43.7752 69.3 44.1627L69.3125 44.1877C69.925 43.8127 69.775 42.7502 69.775 42.7377H69.7375V42.7502ZM69.025 43.8752L69.05 43.9002C69.425 43.5377 69.5125 42.5752 69.5125 42.5252H69.475C69.475 42.5252 69.3875 43.5252 69.025 43.8752ZM68.6875 43.6377H68.725C68.8013 43.1767 68.9761 42.7375 69.2375 42.3502L69.2125 42.3377C69.2125 42.3377 68.7375 43.0252 68.6875 43.6377ZM68.4125 43.4627H68.45C68.5125 42.7502 69 42.2127 69 42.2002L68.975 42.1752C68.975 42.1752 68.475 42.7377 68.4125 43.4627ZM68.0375 43.2127H68.075C68.1125 42.3752 68.675 41.9627 68.675 41.9627L68.65 41.9252C68.65 41.9252 68.075 42.3502 68.025 43.2252L68.0375 43.2127ZM67.6875 43.0127H67.725C67.7 42.2377 68.2875 41.7627 68.3 41.7627L68.275 41.7377C68.275 41.7377 67.65 42.2127 67.6875 43.0127ZM67.0625 42.7252H67.1C67.1291 42.4881 67.2242 42.264 67.3745 42.0784C67.5248 41.8927 67.7242 41.753 67.95 41.6752V41.6377C67.7143 41.7164 67.5058 41.8603 67.3487 42.0528C67.1915 42.2453 67.0923 42.4785 67.0625 42.7252Z" fill="black"/>
<path d="M66.075 44.2756C66.075 44.2756 65.8875 43.0381 66.625 42.6506C66.625 42.6506 66.7625 42.6256 66.8375 42.8006C66.8375 42.8006 67.225 42.6381 67.2375 42.9631C67.2375 42.9631 67.4375 42.8131 67.4875 43.0256C67.4875 43.0256 67.9 42.9381 67.825 43.2506C67.825 43.2506 68.175 43.1506 68.1375 43.4506C68.1375 43.4506 68.4875 43.3256 68.4375 43.5756C68.4375 43.5756 68.8125 43.5006 68.7125 43.8006C68.7125 43.8006 69.175 43.7506 69.0375 44.0631C69.0375 44.0631 69.375 43.9756 69.2875 44.2381C69.2875 44.2381 69.7375 44.3256 69.5375 44.6131C69.2098 45.0038 68.7883 45.3049 68.3125 45.4881" fill="#00A651"/>
<path d="M66.075 44.2756C66.075 44.2756 65.8875 43.0381 66.625 42.6506C66.625 42.6506 66.7625 42.6256 66.8375 42.8006C66.8375 42.8006 67.225 42.6381 67.2375 42.9631C67.2375 42.9631 67.4375 42.8131 67.4875 43.0256C67.4875 43.0256 67.9 42.9381 67.825 43.2506C67.825 43.2506 68.175 43.1506 68.1375 43.4506C68.1375 43.4506 68.4875 43.3256 68.4375 43.5756C68.4375 43.5756 68.8125 43.5006 68.7125 43.8006C68.7125 43.8006 69.175 43.7506 69.0375 44.0631C69.0375 44.0631 69.375 43.9756 69.2875 44.2381C69.2875 44.2381 69.7375 44.3256 69.5375 44.6131C69.2098 45.0038 68.7883 45.3049 68.3125 45.4881" stroke="black" stroke-width="0.0375" stroke-miterlimit="4.8"/>
<path d="M65.6749 45.5129C65.6749 45.5129 65.3749 44.4879 65.9499 44.2254C65.9499 44.2254 66.0624 44.2004 66.0749 44.3004C66.0749 44.3004 66.1999 44.1379 66.2999 44.2879C66.2999 44.2879 66.5874 44.1504 66.6624 44.3629C66.6624 44.3629 66.8499 44.2004 66.9499 44.4379C66.9499 44.4379 67.1374 44.3629 67.1374 44.5629C67.1374 44.5629 67.3874 44.4379 67.3874 44.6879C67.3874 44.6879 67.6374 44.5879 67.5749 44.8379C67.5749 44.8379 67.9499 44.9004 67.8374 45.0754C67.8374 45.0754 68.1749 45.1629 68.0499 45.3004C68.0499 45.3004 68.3999 45.2629 68.2124 45.5004C68.2124 45.5004 68.4874 45.4129 68.3374 45.7129C68.1749 46.0129 67.6874 46.3379 67.3374 46.3879" fill="#00A651"/>
<path d="M65.6749 45.5129C65.6749 45.5129 65.3749 44.4879 65.9499 44.2254C65.9499 44.2254 66.0624 44.2004 66.0749 44.3004C66.0749 44.3004 66.1999 44.1379 66.2999 44.2879C66.2999 44.2879 66.5874 44.1504 66.6624 44.3629C66.6624 44.3629 66.8499 44.2004 66.9499 44.4379C66.9499 44.4379 67.1374 44.3629 67.1374 44.5629C67.1374 44.5629 67.3874 44.4379 67.3874 44.6879C67.3874 44.6879 67.6374 44.5879 67.5749 44.8379C67.5749 44.8379 67.9499 44.9004 67.8374 45.0754C67.8374 45.0754 68.1749 45.1629 68.0499 45.3004C68.0499 45.3004 68.3999 45.2629 68.2124 45.5004C68.2124 45.5004 68.4874 45.4129 68.3374 45.7129C68.1749 46.0129 67.6874 46.3379 67.3374 46.3879" stroke="black" stroke-width="0.0375" stroke-miterlimit="4.8"/>
<path d="M66.0369 46.3254C66.0369 46.3254 65.3994 45.7004 65.6994 45.5254C65.6994 45.5254 65.8244 45.5629 65.8869 45.7004C65.8869 45.7004 66.0369 45.4754 66.1369 45.7004C66.1369 45.7004 66.3619 45.6254 66.3619 45.7879L66.5369 45.9129C66.5369 45.9129 66.7494 45.9004 66.7119 46.0379C66.7119 46.0379 66.9494 46.0004 66.9369 46.1254C66.9369 46.1254 67.1369 46.1379 67.1244 46.2754C67.1244 46.2754 67.4744 46.3379 67.3119 46.5129C67.3119 46.5129 66.7119 46.6379 66.2744 46.4629C66.2744 46.4629 66.0619 46.3879 66.0369 46.3254Z" fill="#00A651" stroke="black" stroke-width="0.0375" stroke-miterlimit="4.8"/>
<path d="M68.2368 45.3006V45.3381C68.6546 45.0396 69.0182 44.6718 69.3118 44.2506L69.2743 44.2256C69.2743 44.2381 68.5993 45.1631 68.2368 45.3006ZM68.0118 45.1381L68.0368 45.1756C68.3618 44.9881 69.0243 44.1131 69.0368 44.0756L69.0243 44.0506C69.0118 44.0631 68.3368 44.9506 68.0243 45.1381H68.0118ZM67.8243 45.0631L67.8493 45.0881C68.1957 44.6987 68.4898 44.2659 68.7243 43.8006L68.6993 43.7881C68.6993 43.7881 68.1743 44.7756 67.8243 45.0631ZM67.6618 44.8381H67.6993C67.7618 44.3631 68.4493 43.6006 68.4493 43.5881L68.4118 43.5756C68.3868 43.6006 67.7243 44.3506 67.6618 44.8381ZM66.2993 44.2506H66.3368C66.2868 43.5631 66.8493 42.8131 66.8618 42.8131L66.8243 42.7881C66.8243 42.7881 66.2368 43.5631 66.2993 44.2506ZM66.6618 44.3131H66.6993C66.5993 43.7631 67.2493 42.9881 67.2493 42.9756L67.2243 42.9506C67.1993 42.9881 66.5618 43.7506 66.6618 44.3131ZM67.2118 44.5131H67.2493C67.2243 43.8881 67.8243 43.2631 67.8368 43.2631L67.8118 43.2256C67.8118 43.2381 67.1868 43.8756 67.2118 44.5131ZM65.8993 45.6381H65.9368C65.7118 45.0506 66.0868 44.3131 66.0993 44.3131L66.0618 44.2881C66.0618 44.2881 65.6743 45.0506 65.8993 45.6506V45.6381ZM66.1493 45.6881L66.1868 45.6756C65.9868 45.0881 66.3118 44.3006 66.3118 44.3006L66.2868 44.2756C66.2868 44.2756 65.9493 45.0881 66.1493 45.6881ZM67.1868 46.2756V46.3006C67.8118 46.0881 68.2243 45.5131 68.2243 45.5131L68.1868 45.4881C68.1868 45.4881 67.7868 46.0506 67.1868 46.2756ZM67.0618 46.1381V46.1756C67.5618 45.9506 68.0243 45.3256 68.0243 45.3256L67.9993 45.3006C67.9993 45.3006 67.5368 45.9256 67.0618 46.1381ZM66.9368 46.0881L66.9618 46.1256C67.3368 45.8381 67.8368 45.1256 67.8368 45.1256L67.8118 45.1006C67.8118 45.1006 67.3118 45.8131 66.9368 46.0881ZM66.3118 45.7256H66.3618C66.3409 45.2515 66.4489 44.7807 66.6743 44.3631L66.6368 44.3506C66.6368 44.3506 66.2368 45.1006 66.3243 45.7256H66.3118ZM66.5868 45.9006L66.6118 45.9256C67.0118 45.5631 67.1493 44.6006 67.1493 44.5506H67.1118C67.1118 44.5506 66.9868 45.5506 66.5868 45.9006ZM66.8618 46.0006L66.8868 46.0381C67.2503 45.7329 67.5011 45.3149 67.5993 44.8506H67.5618C67.5618 44.8506 67.4118 45.6006 66.8618 46.0131V46.0006ZM66.9243 44.3256V44.4381L66.4993 45.8131L66.5368 45.8256L66.9618 44.4506C66.8993 43.7756 67.4868 43.0381 67.4993 43.0381L67.4618 43.0131C67.4618 43.0131 66.9243 43.6756 66.9243 44.3256Z" fill="black"/>
<path d="M67.3748 44.6625C67.3748 44.6875 67.2373 45.625 66.7248 45.975L66.7498 46.0125C67.2748 45.65 67.3998 44.725 67.3998 44.675C67.6248 44.4125 68.1498 43.4625 68.1498 43.4625L68.1248 43.4375C68.1248 43.4375 67.5998 44.3875 67.3748 44.6625ZM65.8748 45.7C65.8748 45.7125 65.9498 46.2 66.0498 46.35L66.0873 46.3375C65.9873 46.175 65.8998 45.7 65.8998 45.6875L65.8623 45.7H65.8748ZM66.1123 45.7L66.0998 46.3625H66.1373V45.7H66.1123Z" fill="black"/>
<path d="M66.125 46.3756L66.1625 46.3881C66.325 46.0381 66.375 45.7881 66.375 45.7881H66.3375C66.3375 45.7881 66.2875 46.0256 66.125 46.3756ZM66.1625 46.3881L66.1875 46.4256C66.3732 46.3146 66.5079 46.135 66.5625 45.9256H66.525C66.525 45.9256 66.45 46.2256 66.1625 46.3881ZM66.225 46.4131V46.4506C66.525 46.4256 66.725 46.0631 66.725 46.0381H66.7C66.7 46.0381 66.5 46.3881 66.225 46.4131Z" fill="black"/>
<path d="M66.25 46.4375V46.475C66.7375 46.4375 66.95 46.15 66.95 46.1375L66.925 46.125C66.925 46.125 66.7125 46.4 66.25 46.4375Z" fill="black"/>
<path d="M66.2871 46.4379V46.4754C66.2996 46.4754 66.9121 46.6129 67.1246 46.3004L67.0871 46.2754C66.8996 46.5754 66.2871 46.4504 66.2871 46.4379Z" fill="black"/>
<path d="M52.6123 24.1504V41.2004C52.6123 46.7754 62.6873 50.0754 62.6873 50.0754C62.6873 50.0754 72.7498 46.7754 72.7498 41.2004V24.1504H52.6123Z" stroke="black" stroke-width="0.35" stroke-miterlimit="4.8"/>
<path d="M0 0H40V30H0V0Z" fill="#012169"/>
<path d="M4.6875 0L19.9375 11.3125L35.125 0H40V3.875L25 15.0625L40 26.1875V30H35L20 18.8125L5.0625 30H0V26.25L14.9375 15.125L0 4V0H4.6875Z" fill="white"/>
<path d="M26.5 17.5625L40 27.5V30L23.0625 17.5625H26.5ZM15 18.8125L15.375 21L3.375 30H0L15 18.8125ZM40 0V0.1875L24.4375 11.9375L24.5625 9.1875L36.875 0H40ZM0 0L14.9375 11H11.1875L0 2.625V0Z" fill="#C8102E"/>
<path d="M15.0625 0V30H25.0625V0H15.0625ZM0 10V20H40V10H0Z" fill="white"/>
<path d="M0 12.0625V18.0625H40V12.0625H0ZM17.0625 0V30H23.0625V0H17.0625Z" fill="#C8102E"/>
</g>
<defs>
<clipPath id="clip0_3732_57760">
<rect width="80" height="60" fill="white"/>
</clipPath>
</defs>
</svg>
