<svg width="80" height="60" viewBox="0 0 80 60" fill="none" xmlns="http://www.w3.org/2000/svg">
<g clip-path="url(#clip0_3732_57822)">
<path d="M0 0H80V60H0V0Z" fill="#002395"/>
<path d="M0 0H36.6V24.6H0V0Z" fill="white"/>
<path d="M0 0H12V24H0V0Z" fill="#002395"/>
<path d="M24 0H36V24H24V0Z" fill="#ED2939"/>
<path d="M53.25 27.4502L55.175 30.5252H60.675V41.2502L56.55 34.8002L51 43.6502H53.7L56.55 38.5502L62.4 49.0502L68.25 38.5502L71.1 43.6502H73.8L68.25 34.8002L64.125 41.2502V35.3252H66.6L68.4375 32.4002H64.125V30.5252H69.625L71.55 27.4502H53.25ZM59.7 40.5752H53.7V42.6752H59.7V40.5752ZM71.1 40.5752H65.1V42.6752H71.1V40.5752Z" fill="white"/>
<path d="M0 -3.15039L1.845 2.54961L-3 -0.975391H3L-1.845 2.54961L0 -3.15039Z" fill="white"/>
<path d="M0 -3.15039L1.845 2.54961L-3 -0.975391H3L-1.845 2.54961L0 -3.15039Z" fill="white"/>
<path d="M0 -3.15039L1.845 2.54961L-3 -0.975391H3L-1.845 2.54961L0 -3.15039Z" fill="white"/>
<path d="M0 -3.15039L1.845 2.54961L-3 -0.975391H3L-1.845 2.54961L0 -3.15039Z" fill="white"/>
<path d="M0 -3.15039L1.845 2.54961L-3 -0.975391H3L-1.845 2.54961L0 -3.15039Z" fill="white"/>
</g>
<defs>
<clipPath id="clip0_3732_57822">
<rect width="80" height="60" fill="white"/>
</clipPath>
</defs>
</svg>
