<svg width="80" height="60" viewBox="0 0 80 60" fill="none" xmlns="http://www.w3.org/2000/svg">
<g clip-path="url(#clip0_3732_57809)">
<mask id="mask0_3732_57809" style="mask-type:luminance" maskUnits="userSpaceOnUse" x="0" y="0" width="80" height="60">
<path d="M0 0H80V60H0V0Z" fill="white"/>
</mask>
<g mask="url(#mask0_3732_57809)">
<path d="M0 0H80V60H0V0Z" fill="white"/>
<path d="M10 0H70V60H10V0Z" fill="white"/>
<path fill-rule="evenodd" clip-rule="evenodd" d="M34.6622 42.5996C34.6622 42.5996 36.0122 41.4996 37.3372 41.4996C38.6622 41.4996 39.0122 42.4121 39.9372 42.4871C40.8497 42.5621 41.6122 41.5746 42.7497 41.5371C43.8872 41.4996 45.3122 42.3371 45.3122 42.3371L40.3372 43.8371L34.6622 42.5871V42.5996ZM31.7997 40.9746L48.7247 41.0621C48.7247 41.0621 47.2622 39.4746 45.5372 39.4371C43.8122 39.4121 44.2872 40.1871 42.9747 40.2871C41.6497 40.3996 41.3247 39.4871 40.1122 39.5121C38.9122 39.5496 38.2122 40.2871 37.2997 40.3246C36.3747 40.3621 35.2122 39.4121 34.5122 39.4496C33.8122 39.4871 31.3247 40.5371 31.3247 40.5371L31.7997 40.9871V40.9746ZM29.6372 38.9746L50.5122 39.0371C50.8497 38.5621 49.4872 37.4246 48.2497 37.3246C47.2247 37.3621 46.4997 38.3871 45.6497 38.4246C44.7997 38.4621 43.8497 37.3621 42.8997 37.3996C41.9497 37.4371 40.9622 38.4246 40.0122 38.4246C39.0497 38.4246 38.3622 37.3621 37.1497 37.3621C35.9372 37.3621 35.3997 38.5246 34.4747 38.4621C33.5622 38.3871 32.7497 37.2871 31.8747 37.2871C30.9997 37.2871 29.5372 38.5996 29.2497 38.5371C28.9497 38.4496 29.6122 39.0746 29.6372 38.9621V38.9746Z" fill="#083D9C" stroke="#083D9C" stroke-width="0.333333"/>
<path fill-rule="evenodd" clip-rule="evenodd" d="M37.6625 27.3627L42.4625 28.6377V21.7877C40.2625 21.9127 38.4375 17.6127 42.3125 17.3252C38.5 16.7752 38.0625 17.7627 37.625 18.8252L37.6625 27.3627Z" fill="#FF0000" stroke="black" stroke-width="0.3125" stroke-linejoin="round"/>
<path fill-rule="evenodd" clip-rule="evenodd" d="M34.625 32.3379L45.4625 32.3754L34.625 32.3379Z" fill="#083D9C"/>
<path d="M34.625 32.3379L45.4625 32.3754" stroke="#083D9C" stroke-width="0.625" stroke-linecap="round"/>
<path d="M35.1377 29.75L36.4252 31.4625M35.1377 31.4625L36.5252 29.775M35.8752 29.625L35.8377 30.6875M37.1877 29.7375L38.4752 31.4625M37.1877 31.4625L38.5752 29.775M37.9252 29.625L37.8877 30.6875M39.2752 29.7375L40.5627 31.4625M39.2752 31.4625L40.6627 29.775M40.0127 29.625L39.9752 30.6875M41.4377 29.7375L42.7127 31.4625M41.4377 31.4625L42.8252 29.775M42.1627 29.625L42.1377 30.6875M43.5127 29.7375L44.8002 31.4625M43.5252 31.4625L44.9127 29.775M44.2502 29.625L44.2127 30.6875" stroke="black" stroke-width="0.5" stroke-linecap="round"/>
<path fill-rule="evenodd" clip-rule="evenodd" d="M27.3373 32.4504L31.9498 32.4879V29.6004L26.6748 29.3379L27.3373 32.4504ZM27.1123 28.4504L32.0248 28.9379L31.9873 26.8879L27.1873 24.9754L27.1123 28.4629V28.4504ZM28.1123 24.3629L31.8748 26.1879L32.4123 25.6254C32.4123 25.6254 32.0623 25.3879 32.0873 25.1629C32.0873 24.9504 32.4373 24.9129 32.4373 24.6629C32.4373 24.4504 32.0623 24.4129 32.0498 24.2004C32.0248 23.9504 32.3498 23.7004 32.3498 23.7004L28.9498 20.7379L28.0998 24.3629H28.1123ZM52.8623 32.4879H47.9873L47.9498 29.6629L53.2998 29.2629L52.8623 32.4879ZM48.0248 29.0004L53.8123 28.3004L52.5623 24.9629L47.9873 26.9129L48.0248 29.0004ZM52.2373 24.0504L48.0623 26.2504C47.9998 26.0004 47.9498 25.7754 47.6623 25.5879C47.6623 25.5879 47.9123 25.4379 47.9123 25.1879C47.9123 24.9379 47.5873 24.8879 47.5873 24.7504C47.5873 24.6129 47.8873 24.4754 47.9123 24.1379C47.8748 23.9129 47.5873 23.5879 47.6373 23.5254L50.8873 21.0504L52.2373 24.0504ZM43.1873 28.9379L45.2748 28.8504L45.3123 28.0129L43.1873 28.9379ZM36.8123 28.8754L34.6248 28.8129V27.9379L36.8248 28.8754H36.8123ZM36.8123 28.6254L34.6248 27.5004V26.0254C34.6248 26.0254 34.3748 26.0629 34.3998 25.7754C34.4123 25.1629 36.0123 26.8879 36.8248 27.4504L36.8123 28.6254ZM43.1873 28.4879V27.5254C43.1873 27.5254 45.1623 25.7504 45.5748 25.4129C45.5748 25.7879 45.3498 26.0629 45.3498 26.0629V27.4629L43.1873 28.4879ZM30.3748 20.4754L32.5998 22.9379C32.6498 22.7129 33.1623 22.6754 33.6748 22.7129C34.1748 22.7504 34.5873 22.6754 34.5873 23.0379C34.5873 23.4004 34.3373 23.3504 34.3373 23.6129C34.3373 23.8754 34.7123 23.8504 34.7123 24.1754C34.7123 24.5004 34.4373 24.4379 34.4373 24.6879C34.4373 24.9004 34.7373 24.9129 34.7373 24.9129L36.8123 26.9254V24.7754L32.5373 18.0629L30.3748 20.4754ZM33.7998 17.9254L36.7123 23.8629C36.7123 23.8629 36.7373 18.3879 37.2248 18.1004L36.4123 16.6004L33.7998 17.9254ZM46.4248 18.1629L43.1748 23.9379V21.5004C43.1748 21.5004 43.4498 21.1004 43.0248 21.1254C42.5998 21.1629 42.0873 21.1004 42.0873 21.1004L43.3873 16.5254L46.4248 18.1504V18.1629ZM49.7498 20.6254C49.7123 20.6879 47.5623 22.8754 47.5623 22.8754C47.4623 22.6254 46.8123 22.7504 46.1873 22.7504C45.5748 22.7504 45.4873 22.9504 45.5248 23.1129C45.5873 23.5254 45.7998 23.2129 45.7998 23.6129C45.7998 24.0004 45.4998 23.8629 45.4623 24.1379C45.4998 24.4754 45.9373 24.3879 45.6748 24.6379L43.1873 27.0379V24.7629L47.8248 17.5629L49.7498 20.6254Z" fill="#EF7D08"/>
<path fill-rule="evenodd" clip-rule="evenodd" d="M38.725 33.5502C37.6875 35.2752 34.9 34.7627 34.2375 33.5502C34.05 33.5002 34.1625 26.1127 34.1625 26.1127C34.1625 26.1127 33.85 25.9752 33.8375 25.7377C33.825 25.5127 34.2625 25.4877 34.2625 25.2002C34.2625 24.9127 33.8125 25.0252 33.8 24.7252C33.8 24.4502 34.2875 24.4752 34.2625 24.2252C34.2375 23.9252 33.725 23.9752 33.7 23.7002C33.7 23.4877 34.075 23.3002 34.175 23.2002C34.0583 23.2029 33.9417 23.2029 33.825 23.2002L33.025 23.2127C32.45 23.2127 33.025 23.3377 33.025 23.6627C33.025 23.8752 32.7375 24.0252 32.7125 24.2002C32.7 24.4002 33.1125 24.5252 33.125 24.7627C33.125 24.9627 32.7125 24.9752 32.725 25.1752C32.75 25.4877 33.1 25.5627 33.0875 25.7627C33.0875 25.9502 32.6375 26.0252 32.625 26.1752C32.65 26.4752 32.7 33.7752 32.7 33.7752C33.4125 37.5002 37.55 38.4377 38.725 33.5502ZM41.4625 33.5502C42.5 35.2752 45.2875 34.7627 45.9375 33.5502C46.1375 33.5002 46.025 26.1127 46.025 26.1127C46.025 26.1127 46.3375 25.9752 46.35 25.7377C46.3625 25.5127 45.95 25.4877 45.95 25.2002C45.95 24.9127 46.375 25.0252 46.375 24.7252C46.375 24.4502 45.9375 24.4752 45.9625 24.2002C45.9875 23.9127 46.3375 23.9502 46.35 23.6752C46.3625 23.4377 46.1375 23.3002 46.025 23.2002H46.3625L47.1625 23.2127C47.725 23.2127 47.1625 23.3377 47.1625 23.6627C47.1625 23.8752 47.45 24.0252 47.475 24.2002C47.475 24.4002 47.075 24.5252 47.0625 24.7627C47.0625 24.9627 47.475 24.9752 47.4625 25.1752C47.4375 25.4877 47.0875 25.5627 47.0875 25.7627C47.1 25.9502 47.55 26.0252 47.55 26.1752L47.4875 33.7752C46.775 37.5002 42.625 38.4377 41.4625 33.5502Z" fill="#FF0000" stroke="black" stroke-width="0.3125" stroke-linejoin="round"/>
<path fill-rule="evenodd" clip-rule="evenodd" d="M37.7127 36.95H42.3752C42.4127 36.9125 41.3252 35.325 40.0502 35.45C38.6127 35.4875 37.6377 36.95 37.7127 36.95ZM52.5752 36.825H46.2002C46.2002 36.825 47.0252 36.35 47.2502 35.9C47.6627 36.125 47.5502 36.35 48.3752 36.3875C49.2002 36.425 49.9877 35.45 50.7752 35.4875C51.5627 35.525 52.5752 36.8625 52.5752 36.8375V36.825ZM27.4502 36.825H33.8252C33.8252 36.825 33.0002 36.35 32.7752 35.9C32.3627 36.125 32.4752 36.35 31.6502 36.3875C30.8252 36.425 30.0252 35.45 29.2502 35.4875C28.4627 35.525 27.4502 36.8625 27.4502 36.8375V36.825ZM27.9252 34.825L32.4627 34.8625C32.4627 34.8625 32.1752 34.2375 32.1377 33.475C30.9627 33.075 30.0127 34.35 29.1627 34.3875C28.3252 34.425 27.4502 33.475 27.4502 33.475L27.9252 34.825ZM52.1752 34.825L47.6252 34.8625C47.6252 34.8625 47.9127 34.2375 47.9502 33.475C49.1252 33.075 50.0752 34.35 50.9252 34.3875C51.7627 34.425 52.6377 33.475 52.6377 33.475L52.1627 34.825H52.1752ZM38.8752 34.875L41.1752 34.8125C41.1752 34.8125 41.2127 34.1125 40.0127 34.1125C38.8127 34.1125 38.9127 34.9125 38.8752 34.875ZM37.4752 33.8875C37.9142 33.6955 38.2754 33.3607 38.5002 32.9375L36.9252 32.975C36.9252 32.975 36.2002 33.4125 35.8377 33.8875H37.4752ZM42.5752 33.8875C42.1362 33.6955 41.775 33.3607 41.5502 32.9375L43.1252 32.975C43.1252 32.975 43.8502 33.4125 44.2127 33.8875H42.5752Z" fill="#083D9C" stroke="#083D9C" stroke-width="0.333333"/>
<path fill-rule="evenodd" clip-rule="evenodd" d="M-5 45H85V60H-5V45ZM-5 0H85V15H-5V0Z" fill="#DE2010"/>
</g>
</g>
<defs>
<clipPath id="clip0_3732_57809">
<rect width="80" height="60" fill="white"/>
</clipPath>
</defs>
</svg>
