<svg width="80" height="60" viewBox="0 0 80 60" fill="none" xmlns="http://www.w3.org/2000/svg">
<g clip-path="url(#clip0_3732_57860)">
<path d="M0 0H80V60H0V0Z" fill="white"/>
<path d="M34 0H46V60H34V0Z" fill="#FF0000"/>
<path d="M0 24H80V36H0V24Z" fill="#FF0000"/>
<g style="mix-blend-mode:multiply">
<path fill-rule="evenodd" clip-rule="evenodd" d="M18.35 46.6375C18.475 44.5375 18.85 42.75 18.85 42.75C18.85 42.75 17.625 42.875 17 42.875C16.3875 42.875 15.15 42.75 15.15 42.75C15.15 42.75 15.525 44.5375 15.65 46.65C13.5375 46.525 11.75 46.15 11.75 46.15C11.75 46.15 11.875 47.075 11.875 48C11.875 48.925 11.75 49.85 11.75 49.85C11.75 49.85 13.5375 49.475 15.65 49.35C15.525 51.4625 15.15 53.25 15.15 53.25C15.15 53.25 16.075 53.125 17 53.125C17.925 53.125 18.85 53.25 18.85 53.25C18.85 53.25 18.475 51.4625 18.35 49.35C20.4625 49.475 22.25 49.85 22.25 49.85C22.25 49.85 22.125 48.625 22.125 48C22.125 47.3875 22.25 46.15 22.25 46.15C22.25 46.15 20.4625 46.525 18.3625 46.65L18.35 46.6375ZM64.35 10.6375C64.475 8.5375 64.85 6.75 64.85 6.75C64.85 6.75 63.625 6.875 63 6.875C62.3875 6.875 61.15 6.75 61.15 6.75C61.15 6.75 61.525 8.5375 61.65 10.6375C59.5375 10.5125 57.75 10.15 57.75 10.15C57.75 10.15 57.875 11.075 57.875 12C57.875 12.925 57.75 13.85 57.75 13.85C57.75 13.85 59.5375 13.475 61.65 13.35C61.525 15.4625 61.15 17.25 61.15 17.25C61.15 17.25 62.075 17.125 63 17.125C63.925 17.125 64.85 17.25 64.85 17.25C64.85 17.25 64.475 15.4625 64.35 13.3625C66.4625 13.4875 68.25 13.8625 68.25 13.8625C68.25 13.8625 68.125 12.6125 68.125 12C68.125 11.3875 68.25 10.15 68.25 10.15C68.25 10.15 66.4625 10.525 64.35 10.65V10.6375ZM18.35 10.6375C18.475 8.5375 18.85 6.75 18.85 6.75C18.85 6.75 17.625 6.875 17 6.875C16.3875 6.875 15.15 6.75 15.15 6.75C15.15 6.75 15.525 8.5375 15.65 10.65C13.5375 10.525 11.75 10.15 11.75 10.15C11.75 10.15 11.875 11.075 11.875 12C11.875 12.925 11.75 13.85 11.75 13.85C11.75 13.85 13.5375 13.475 15.65 13.35C15.525 15.4625 15.15 17.25 15.15 17.25C15.15 17.25 16.075 17.125 17 17.125C17.925 17.125 18.85 17.25 18.85 17.25C18.85 17.25 18.475 15.4625 18.35 13.35C20.4625 13.475 22.25 13.85 22.25 13.85C22.25 13.85 22.125 12.625 22.125 12C22.125 11.3875 22.25 10.15 22.25 10.15C22.25 10.15 20.4625 10.525 18.3625 10.65L18.35 10.6375ZM64.35 46.6375C64.475 44.5375 64.85 42.75 64.85 42.75C64.85 42.75 63.625 42.875 63 42.875C62.3875 42.875 61.15 42.75 61.15 42.75C61.15 42.75 61.525 44.5375 61.65 46.65C59.5375 46.525 57.75 46.15 57.75 46.15C57.75 46.15 57.875 47.075 57.875 48C57.875 48.925 57.75 49.85 57.75 49.85C57.75 49.85 59.5375 49.475 61.65 49.35C61.525 51.4625 61.15 53.25 61.15 53.25C61.15 53.25 62.075 53.125 63 53.125C63.925 53.125 64.85 53.25 64.85 53.25C64.85 53.25 64.475 51.4625 64.35 49.35C66.4625 49.475 68.25 49.85 68.25 49.85C68.25 49.85 68.125 48.625 68.125 48C68.125 47.3875 68.25 46.15 68.25 46.15C68.25 46.15 66.4625 46.525 64.35 46.65V46.6375Z" fill="#FF0000"/>
</g>
</g>
<defs>
<clipPath id="clip0_3732_57860">
<rect width="80" height="60" fill="white"/>
</clipPath>
</defs>
</svg>
