<svg width="80" height="60" viewBox="0 0 80 60" fill="none" xmlns="http://www.w3.org/2000/svg">
<g clip-path="url(#clip0_3732_57903)">
<path d="M0 0H80V60H0V0Z" fill="#DA000C"/>
<path d="M0 0H80V40.2H0V0Z" fill="white"/>
<path d="M26.0781 27.2578H41.0781V37.5703H26.0781V27.2578Z" fill="black"/>
<path d="M33.8594 36.0703H24.7187L22.6797 37.4063V38.8125H33.8594M30.0391 30.1406C31.3516 30.1406 32.4297 31.2422 32.4297 32.6016V36.0469H34.1406V22.9219H24.6953V36.0469H27.6484V32.6016C27.6484 31.2891 28.7031 30.1406 30.0391 30.1406Z" fill="#DA000C"/>
<path d="M33.8594 36.0703H24.7187L22.6797 37.4063V38.8125H33.8594M30.0391 30.1406C31.3516 30.1406 32.4297 31.2422 32.4297 32.6016V36.0469H34.1406V22.9219H24.6953V36.0469H27.6484V32.6016C27.6484 31.2891 28.7031 30.1406 30.0391 30.1406Z" stroke="black" stroke-width="0.234375" stroke-linecap="square"/>
<path d="M27.9297 14.0625H32.2891V22.0312H27.9297V14.0625Z" fill="black"/>
<path d="M32.2656 20.7891H28.4688V19.4297H25.6797V20.7891H23.8047V19.4297H22.6562V21.8672H32.2656M23.7813 21.8672H31.9844V22.9219H23.7813V21.8672ZM27.0625 11.1562V19.4531H28.4688V17.1797C28.4688 16.3359 29.0547 15.6328 29.8984 15.5859H29.9922C30.2015 15.5859 30.4087 15.6272 30.6021 15.7073C30.7955 15.7873 30.9711 15.9047 31.1191 16.0527C31.2671 16.2007 31.3845 16.3764 31.4646 16.5698C31.5447 16.7631 31.5859 16.9704 31.5859 17.1797V19.4531H32.9219V11.1562H27.0625ZM26.5234 10.0312V11.1562H33.3906V10.0312H26.5234ZM25.6563 7.89844V10.0312H33.8594V7.89844H32.6172V9H31.0703V7.89844H28.7266V9H27.2031V7.89844H25.6563ZM22.6562 37.4063H33.9062H22.6562ZM41.1719 36.75H33.5781L31.2813 37.8516V39.4922H41.1719" fill="#DA000C"/>
<path d="M32.2656 20.7891H28.4688V19.4297H25.6797V20.7891H23.8047V19.4297H22.6562V21.8672H32.2656M22.6562 37.4063H33.9062M41.1719 36.75H33.5781L31.2813 37.8516V39.4922H41.1719M23.7813 21.8672H31.9844V22.9219H23.7813V21.8672ZM27.0625 11.1562V19.4531H28.4688V17.1797C28.4688 16.3359 29.0547 15.6328 29.8984 15.5859H29.9922C30.2015 15.5859 30.4087 15.6272 30.6021 15.7073C30.7955 15.7873 30.9711 15.9047 31.1191 16.0527C31.2671 16.2007 31.3845 16.3764 31.4646 16.5698C31.5447 16.7631 31.5859 16.9704 31.5859 17.1797V19.4531H32.9219V11.1562H27.0625ZM26.5234 10.0312V11.1562H33.3906V10.0312H26.5234ZM25.6563 7.89844V10.0312H33.8594V7.89844H32.6172V9H31.0703V7.89844H28.7266V9H27.2031V7.89844H25.6563Z" stroke="black" stroke-width="0.234375" stroke-linecap="square"/>
<path d="M31.2812 37.8516H41.4062H31.2812Z" fill="#DA000C"/>
<path d="M31.2812 37.8516H41.4062" stroke="black" stroke-width="0.234375"/>
<path d="M53.9219 27.2578H38.9219V37.5703H53.9219V27.2578Z" fill="black"/>
<path d="M46.1406 36.0703H55.2813L57.3203 37.4063V38.8125H46.1406M49.9609 30.1406C48.6484 30.1406 47.5703 31.2422 47.5703 32.6016V36.0469H45.8594V22.9219H55.3047V36.0469H52.3516V32.6016C52.3516 31.2891 51.2969 30.1406 49.9609 30.1406Z" fill="#DA000C"/>
<path d="M46.1406 36.0703H55.2813L57.3203 37.4063V38.8125H46.1406M49.9609 30.1406C48.6484 30.1406 47.5703 31.2422 47.5703 32.6016V36.0469H45.8594V22.9219H55.3047V36.0469H52.3516V32.6016C52.3516 31.2891 51.2969 30.1406 49.9609 30.1406Z" stroke="black" stroke-width="0.234375" stroke-linecap="square"/>
<path d="M52.0703 14.0625H47.7109V22.0312H52.0703V14.0625Z" fill="black"/>
<path d="M47.7344 20.7891H51.5312V19.4297H54.3203V20.7891H56.1953V19.4297H57.3438V21.8672H47.7344M56.2187 21.8672H48.0156V22.9219H56.2187V21.8672ZM52.9375 11.1562V19.4531H51.5312V17.1797C51.5312 16.3359 50.9453 15.6328 50.1016 15.5859H50.0078C49.7985 15.5859 49.5913 15.6272 49.3979 15.7073C49.2045 15.7873 49.0289 15.9047 48.8809 16.0527C48.7329 16.2007 48.6155 16.3764 48.5354 16.5698C48.4553 16.7631 48.4141 16.9704 48.4141 17.1797V19.4531H47.0781V11.1562H52.9375ZM53.4766 10.0312V11.1562H46.6094V10.0312H53.4766ZM54.3437 7.89844V10.0312H46.1406V7.89844H47.3828V9H48.9297V7.89844H51.2734V9H52.7969V7.89844H54.3437ZM57.3438 37.4063H46.0938H57.3438ZM38.8281 36.75H46.4219L48.7187 37.8516V39.4922H38.8281" fill="#DA000C"/>
<path d="M47.7344 20.7891H51.5312V19.4297H54.3203V20.7891H56.1953V19.4297H57.3438V21.8672H47.7344M57.3438 37.4063H46.0938M38.8281 36.75H46.4219L48.7187 37.8516V39.4922H38.8281M56.2187 21.8672H48.0156V22.9219H56.2187V21.8672ZM52.9375 11.1562V19.4531H51.5312V17.1797C51.5312 16.3359 50.9453 15.6328 50.1016 15.5859H50.0078C49.7985 15.5859 49.5913 15.6272 49.3979 15.7073C49.2045 15.7873 49.0289 15.9047 48.8809 16.0527C48.7329 16.2007 48.6155 16.3764 48.5354 16.5698C48.4553 16.7631 48.4141 16.9704 48.4141 17.1797V19.4531H47.0781V11.1562H52.9375ZM53.4766 10.0312V11.1562H46.6094V10.0312H53.4766ZM54.3437 7.89844V10.0312H46.1406V7.89844H47.3828V9H48.9297V7.89844H51.2734V9H52.7969V7.89844H54.3437Z" stroke="black" stroke-width="0.234375" stroke-linecap="square"/>
<path d="M48.7188 37.8516H38.5938H48.7188Z" fill="#DA000C"/>
<path d="M48.7188 37.8516H38.5938" stroke="black" stroke-width="0.234375"/>
<path d="M44.0549 35.1562C43.422 35.3906 42.883 35.7188 42.297 36.0469C41.5679 36.4634 40.8707 36.9334 40.2111 37.4531C39.9767 37.6172 39.7424 37.7812 39.5783 38.0156C39.3439 38.2031 39.1095 38.4844 39.1564 38.8359C39.1564 38.9766 39.3439 38.6484 39.4846 38.625C39.7071 38.5059 39.9656 38.4725 40.2111 38.5312C40.5158 38.2031 40.9142 37.9922 41.2424 37.7344C42.1977 37.043 43.2181 36.4464 44.2892 35.9531L44.0549 35.1562Z" fill="#F8D80E" stroke="black" stroke-width="0.1875" stroke-linecap="round"/>
<path d="M41.0312 36.8906V37.8047V36.8906ZM41.5937 36.4922V37.4063V36.4922ZM42.1563 36.1406V37.0313V36.1406ZM42.7422 35.7891V36.7266V35.7891Z" fill="#F8D80E"/>
<path d="M41.0312 36.8906V37.8047M41.5937 36.4922V37.4063M42.1563 36.1406V37.0313M42.7422 35.7891V36.7266" stroke="black" stroke-width="0.234375" stroke-linecap="round"/>
<path d="M35.9922 35.2031L35.7109 35.9766C37.0061 36.4734 38.247 37.1017 39.4141 37.8516C39.8125 38.1328 40.2344 38.3906 40.5391 38.7656C40.6094 38.9531 40.4219 39.1172 40.2344 39.0469C40.0703 39 39.8828 38.9297 39.7188 39.0469C39.4609 39.1641 39.2266 39.5625 39.6016 39.6797C40.1641 40.0547 41.0313 39.8906 41.2891 39.2578C41.4297 38.9297 41.4531 38.5078 41.1719 38.2266C40.7031 37.6875 40.0469 37.2891 39.4375 36.8906C38.3432 36.2237 37.1899 35.6588 35.9922 35.2031Z" fill="#F8D80E" stroke="black" stroke-width="0.1875" stroke-linecap="round"/>
<path d="M39.5313 37.0313L39.4609 37.8281L39.5313 37.0313ZM40.1875 37.4297L40 38.2031L40.1875 37.4297ZM40.8906 37.9688L40.4688 38.5781L40.8906 37.9688ZM41.1016 39.4219L40.4922 39.0938L41.1016 39.4219ZM41.2891 38.7656L40.5859 38.8359L41.2891 38.7656ZM40.3984 39.7734L40.3516 39.1641L40.3984 39.7734ZM40.1172 39.0938L39.5547 39.5156L40.1172 39.0938ZM37.3516 35.8359V36.5625V35.8359ZM38.8281 36.6328V37.4531V36.6328ZM38.0781 36.2344V37.0078V36.2344Z" fill="#F8D80E"/>
<path d="M39.5313 37.0313L39.4609 37.8281M40.1875 37.4297L40 38.2031M40.8906 37.9688L40.4688 38.5781M41.1016 39.4219L40.4922 39.0938M41.2891 38.7656L40.5859 38.8359M40.3984 39.7734L40.3516 39.1641M40.1172 39.0938L39.5547 39.5156M37.3516 35.8359V36.5625M38.8281 36.6328V37.4531M38.0781 36.2344V37.0078" stroke="black" stroke-width="0.234375" stroke-linecap="round"/>
<path d="M35.2656 53.3438V55.2188H36.4375V54.2812H38.0547V55.2188H39.3203V53.3438H35.2656ZM35.2656 55.9219V57.7969H39.2969V55.9219H38.0313V56.8594H36.4141V55.9219H35.2656Z" fill="#F8D80E" stroke="black" stroke-width="0.234375"/>
<path d="M39.2969 45.3984H40.4688V58.9922H39.2969V45.3984Z" fill="#F8D80E" stroke="black" stroke-width="0.234375"/>
<path d="M39.2969 46.5703H40.4687V58.2891H39.2969V46.5703ZM39.9062 42.0469L42.3906 43.5L39.9062 44.9531L37.3984 43.5L39.9062 42.0469ZM36.5547 42.9844H35.9219V44.0156H36.5547L39.9062 45.9609L43.2344 44.0156H43.8906V42.9844H43.2344L39.9062 41.0391L36.5547 42.9844Z" fill="#F8D80E" stroke="black" stroke-width="0.234375"/>
<path d="M39.8359 38.5078C39.5631 38.5633 39.319 38.714 39.1472 38.933C38.9755 39.152 38.8873 39.425 38.8984 39.7031V42.3281C38.9199 42.6069 39.0404 42.8688 39.2382 43.0665C39.4359 43.2642 39.6977 43.3847 39.9765 43.4062C40.2084 43.4236 40.4402 43.3702 40.641 43.253C40.8419 43.1358 41.0025 42.9604 41.1015 42.75L40.7031 42.5156C40.6478 42.6529 40.5492 42.7684 40.4223 42.8445C40.2954 42.9207 40.1471 42.9533 40 42.9375C39.625 42.9375 39.3203 42.5625 39.3672 42.2109V39.5859C39.3849 39.414 39.4675 39.2553 39.5981 39.1421C39.7287 39.0289 39.8976 38.9697 40.0703 38.9766C40.2109 38.9297 40.4218 39.1406 40.5156 38.9766C40.6562 38.7656 40.4218 38.625 40.2812 38.5078H39.8359ZM41.1953 39.4219C41.0807 39.5823 40.9276 39.7113 40.75 39.7969V41.5547L41.2187 41.8125V39.4219H41.1953Z" fill="#F8D80E" stroke="black" stroke-width="0.234375"/>
<path d="M36.4375 9H43.3047V21.4687H36.4375V9Z" fill="black"/>
<path d="M35.9688 9V19.4297H38.1484V16.3359C38.1484 15.6328 38.6172 14.625 40 14.625C41.3828 14.625 41.875 15.6328 41.875 16.3359V19.4531H44.0313V9H35.9688ZM39.6719 10.1719H40.3281V13.7344H39.6719V10.1719ZM37.7266 10.875H38.4297V13.4766H37.7266V10.875ZM41.5937 10.875H42.2734V13.4766H41.5703L41.5937 10.875ZM35.2188 7.5V8.97656H44.7812V7.5H35.2188ZM34.3281 5.76562V7.5H45.6953V5.76562H44.2656V6.70312H42.625V5.76562H40.7969V6.70312H39.2031V5.76562H37.3516V6.70312H35.7812V5.76562H34.3281ZM32.2188 22.9219V24H47.8047V22.9219H32.2188Z" fill="#DA000C" stroke="black" stroke-width="0.234375"/>
<path d="M31.5625 19.4297V22.9453H48.4375V19.4297H46.8438V20.7891H44.6875V19.4297H41.8281V20.7891H38.125V19.4297H35.2656V20.7891H33.1563V19.4297H31.5625Z" fill="#DA000C" stroke="black" stroke-width="0.234375"/>
<path d="M33.6016 24V36.75H36.6016V31.9687C36.6016 29.7422 38.1016 28.6875 40 28.6875C41.8281 28.6875 43.3984 29.7422 43.3984 31.9687V36.75H46.3984V24H33.6016Z" fill="#DA000C" stroke="black" stroke-width="0.234375" stroke-linejoin="round"/>
</g>
<defs>
<clipPath id="clip0_3732_57903">
<rect width="80" height="60" fill="white"/>
</clipPath>
</defs>
</svg>
