<svg width="80" height="60" viewBox="0 0 80 60" fill="none" xmlns="http://www.w3.org/2000/svg">
<g clip-path="url(#clip0_3732_57922)">
<path d="M0 0H80V60H0V0Z" fill="white"/>
<path d="M0 30H80V60H0V30ZM10 30C10 35.3043 12.1071 40.3914 15.8579 44.1421C19.6086 47.8929 24.6957 50 30 50C35.3043 50 40.3914 47.8929 44.1421 44.1421C47.8929 40.3914 50 35.3043 50 30C50 24.6957 47.8929 19.6086 44.1421 15.8579C40.3914 12.1071 35.3043 10 30 10C24.6957 10 19.6086 12.1071 15.8579 15.8579C12.1071 19.6086 10 24.6957 10 30Z" fill="#D00C33"/>
</g>
<defs>
<clipPath id="clip0_3732_57922">
<rect width="80" height="60" fill="white"/>
</clipPath>
</defs>
</svg>
