<svg width="80" height="60" viewBox="0 0 80 60" fill="none" xmlns="http://www.w3.org/2000/svg">
<g clip-path="url(#clip0_3732_57918)">
<path fill-rule="evenodd" clip-rule="evenodd" d="M0 0H80V6.6625H0V0Z" fill="#005BAE"/>
<path fill-rule="evenodd" clip-rule="evenodd" d="M0 6.66211H80V13.3371H0V6.66211Z" fill="white"/>
<path fill-rule="evenodd" clip-rule="evenodd" d="M0 13.3379H80V20.0004H0V13.3379Z" fill="#005BAE"/>
<path fill-rule="evenodd" clip-rule="evenodd" d="M0 20H80V26.6625H0V20Z" fill="white"/>
<path d="M0 0H33.3375V33.3375H0V0Z" fill="#005BAE"/>
<path fill-rule="evenodd" clip-rule="evenodd" d="M0 26.6621H80V33.3371H0V26.6621Z" fill="#005BAE"/>
<path fill-rule="evenodd" clip-rule="evenodd" d="M0 33.3379H80V40.0004H0V33.3379Z" fill="white"/>
<path fill-rule="evenodd" clip-rule="evenodd" d="M0 40H80V46.6625H0V40Z" fill="#005BAE"/>
<path fill-rule="evenodd" clip-rule="evenodd" d="M0 46.6621H80V53.3371H0V46.6621Z" fill="white"/>
<path fill-rule="evenodd" clip-rule="evenodd" d="M13.333 0H19.9996V33.3332H13.333V0Z" fill="white"/>
<path fill-rule="evenodd" clip-rule="evenodd" d="M0 13.333H33.3332V19.9996H0V13.333Z" fill="white"/>
<path d="M0 53.3379H80V60.0004H0V53.3379Z" fill="#005BAE"/>
</g>
<defs>
<clipPath id="clip0_3732_57918">
<rect width="80" height="60" fill="white"/>
</clipPath>
</defs>
</svg>
