<svg width="80" height="60" viewBox="0 0 80 60" fill="none" xmlns="http://www.w3.org/2000/svg">
<g clip-path="url(#clip0_3732_57988)">
<path d="M0 0H80V60H0V0Z" fill="#CE1126"/>
<path d="M8.40039 8.40039H71.6004V51.6004H8.40039V8.40039Z" fill="#007A5E"/>
<path d="M8.40039 8.41211H71.6004L8.40039 51.6121H71.6004L8.40039 8.41211Z" fill="#FCD116"/>
<path d="M39.9871 37.2125C43.9636 37.2125 47.1871 33.989 47.1871 30.0125C47.1871 26.0361 43.9636 22.8125 39.9871 22.8125C36.0107 22.8125 32.7871 26.0361 32.7871 30.0125C32.7871 33.989 36.0107 37.2125 39.9871 37.2125Z" fill="#CE1126"/>
<path d="M40 23.4004L37.9605 29.6774L41.099 30.6971" fill="#FCD116"/>
<path d="M40 23.4004L42.0395 29.6774L38.901 30.6971" fill="#FCD116"/>
<path d="M46.2764 27.9609H39.6764V31.2609" fill="#FCD116"/>
<path d="M46.2764 27.9609L40.9369 31.8403L38.9972 29.1706" fill="#FCD116"/>
<path d="M43.8789 35.3398L41.8394 29.0629L38.7009 30.0826" fill="#FCD116"/>
<path d="M43.8789 35.3398L38.5394 31.4605L40.4791 28.7907" fill="#FCD116"/>
<path d="M36.1201 35.3398L41.4596 31.4605L39.5199 28.7907" fill="#FCD116"/>
<path d="M36.1201 35.3398L38.1596 29.0629L41.2981 30.0826" fill="#FCD116"/>
<path d="M33.7227 27.96L39.0622 31.8393L41.0019 29.1696" fill="#FCD116"/>
<path d="M33.7227 27.96H40.3227V31.26" fill="#FCD116"/>
<path d="M40 0.299805L38.7948 4.00893L40.6494 4.61151" fill="#FCD116"/>
<path d="M40 0.299805L41.2052 4.00893L39.3506 4.61151" fill="#FCD116"/>
<path d="M43.709 2.99414H39.809V4.94414" fill="#FCD116"/>
<path d="M43.709 2.99414L40.5538 5.2865L39.4076 3.70892" fill="#FCD116"/>
<path d="M42.293 7.35449L41.0878 3.64537L39.2332 4.24795" fill="#FCD116"/>
<path d="M42.293 7.35449L39.1378 5.06213L40.284 3.48455" fill="#FCD116"/>
<path d="M37.708 7.35547L40.8632 5.06311L39.717 3.48552" fill="#FCD116"/>
<path d="M37.708 7.35547L38.9132 3.64635L40.7677 4.24893" fill="#FCD116"/>
<path d="M36.291 2.99512L39.4462 5.28748L40.5924 3.7099" fill="#FCD116"/>
<path d="M36.291 2.99512H40.191V4.94512" fill="#FCD116"/>
<path d="M12.7871 30.0873C13.7367 31.8582 15.1953 33.3037 16.9746 34.2373C16.9053 32.2837 16.4239 30.3669 15.5621 28.6123L12.7871 30.0873Z" fill="#CE1126"/>
<path d="M11.2622 24.3379C12.5622 27.0504 7.87471 33.5504 15.6997 35.0754C14.6431 33.5444 14.1606 31.6897 14.3372 29.8379C16.0764 30.6418 17.5036 31.9944 18.3997 33.6879C20.4497 26.2504 13.1497 26.7129 11.2622 24.3379Z" fill="#FCD116"/>
<path d="M40 52.125L38.7948 55.8341L40.6494 56.4367" fill="#FCD116"/>
<path d="M40 52.125L41.2052 55.8341L39.3506 56.4367" fill="#FCD116"/>
<path d="M43.709 54.8193H39.809V56.7693" fill="#FCD116"/>
<path d="M43.709 54.8193L40.5538 57.1117L39.4076 55.5341" fill="#FCD116"/>
<path d="M42.293 59.1797L41.0878 55.4706L39.2332 56.0732" fill="#FCD116"/>
<path d="M42.293 59.1797L39.1378 56.8873L40.284 55.3097" fill="#FCD116"/>
<path d="M37.708 59.1807L40.8632 56.8883L39.717 55.3107" fill="#FCD116"/>
<path d="M37.708 59.1807L38.9132 55.4715L40.7677 56.0741" fill="#FCD116"/>
<path d="M36.291 54.8203L39.4462 57.1127L40.5924 55.5351" fill="#FCD116"/>
<path d="M36.291 54.8203H40.191V56.7703" fill="#FCD116"/>
</g>
<defs>
<clipPath id="clip0_3732_57988">
<rect width="80" height="60" fill="white"/>
</clipPath>
</defs>
</svg>
