<svg width="80" height="60" viewBox="0 0 80 60" fill="none" xmlns="http://www.w3.org/2000/svg">
<g clip-path="url(#clip0_3732_58017)">
<path fill-rule="evenodd" clip-rule="evenodd" d="M0 0H80V60H0V0Z" fill="#BE0027"/>
<path fill-rule="evenodd" clip-rule="evenodd" d="M3.2002 3.41211H76.8877V56.9621H3.2002V3.41211Z" fill="#3B5AA3"/>
<path fill-rule="evenodd" clip-rule="evenodd" d="M39.2998 51.6504C39.4634 51.7285 39.6421 51.7701 39.8234 51.7723C40.0047 51.7744 40.1844 51.7371 40.3498 51.6629C57.5748 42.5004 57.5748 17.3754 40.3623 8.33791C40.1909 8.25987 40.004 8.22159 39.8157 8.22592C39.6274 8.23025 39.4425 8.27708 39.2748 8.36291C22.4873 17.5379 22.4373 42.3754 39.2873 51.6504H39.2998Z" fill="#CBE0E5"/>
<path fill-rule="evenodd" clip-rule="evenodd" d="M39.3001 52.1127C39.5501 52.3252 40.1001 52.3002 40.3501 52.1127C53.0376 42.6127 53.1001 36.7002 52.5501 36.7002H27.4251C27.0501 36.7002 27.6501 42.7252 39.3001 52.1127Z" fill="#ADD2D9"/>
<path fill-rule="evenodd" clip-rule="evenodd" d="M29.4129 41.4001C30.562 41.04 31.8035 41.1156 32.9004 41.6126C33.8504 42.1126 34.4004 42.1126 35.4254 42.1126C36.5004 42.1376 37.3379 42.9251 38.5004 42.9626C40.6379 43.0126 41.5379 44.0751 39.8754 44.0876C39.1004 44.0876 37.4129 43.5501 36.6004 43.6626C34.9004 43.8376 33.8254 44.2126 32.2254 46.0001L34.0754 47.2501C35.6754 46.6126 35.9379 45.8751 36.8254 45.8501C37.8254 45.8126 38.1629 45.2001 39.3254 45.2001C40.7133 45.316 42.1107 45.1805 43.4504 44.8001C45.3004 44.3751 44.4254 43.0751 43.3004 42.6126C42.3879 42.2251 40.7004 42.6001 39.6504 42.2126C38.8504 41.9001 39.5004 41.4001 39.9379 41.3001C40.3629 41.2126 40.8254 41.3626 41.3629 41.4501C42.3254 41.5251 43.5379 41.4376 44.3754 41.3001C46.1254 41.0376 46.0504 40.5251 46.8754 40.5126C47.5004 40.4751 47.9629 40.3001 48.3754 40.0001C48.8754 39.6626 49.3879 39.0001 49.9879 39.0251L51.5754 39.0876L49.3254 44.1376L42.9879 50.6001L39.7004 51.8501L32.4754 47.1376L28.8379 41.5501L29.4254 41.4001H29.4129Z" fill="#FDF9A1"/>
<path fill-rule="evenodd" clip-rule="evenodd" d="M37.7254 36.4997L52.2254 36.4247L52.4754 35.1372C52.4754 35.1372 51.9629 35.0622 51.5379 35.0372C51.0254 34.9997 50.1254 35.5872 49.5379 35.5747C49.1004 35.5747 48.6254 34.8247 48.2004 34.8247C47.4504 34.8247 47.4004 35.4872 46.7004 35.5122C46.1379 35.4872 45.9004 35.0622 45.1629 35.1122C44.4129 35.1497 44.4629 35.5747 43.5004 35.5497C42.2254 35.5122 41.7129 34.4122 40.6879 34.3997C38.9879 34.3747 38.9379 36.0247 37.7129 36.4872L37.7254 36.4997Z" fill="#179A3B"/>
<path fill-rule="evenodd" clip-rule="evenodd" d="M37.725 36.8002L52.65 36.7252V36.3252L37.375 36.4002L37.7125 36.8002H37.725Z" fill="#FDF9A1"/>
<path fill-rule="evenodd" clip-rule="evenodd" d="M43.85 41.2874C44.0875 42.1624 44.325 42.4624 45.25 42.6999C46.1625 42.9124 47.5625 42.0249 46.7 41.1624C45.875 40.3624 45 40.1624 44.2625 39.4374C42.7 37.8999 40.35 34.1249 40.35 31.4624C40.35 29.1749 40.125 24.4874 40.125 20.0499C40.125 19.7624 39.25 20.8499 39.25 21.1499C39.3 25.0624 39.3 28.0249 39.45 31.9749C39.7 34.8624 41.075 36.8124 42.2875 38.5624C42.825 39.4124 43.6125 40.3124 43.85 41.2874Z" fill="#A79270"/>
<path d="M34.439 28.9208C34.4057 28.8191 34.3619 28.7279 34.3075 28.6473C34.2541 28.5657 34.1901 28.4961 34.1155 28.4387C34.042 28.3813 33.9584 28.3374 33.8647 28.3072C33.7709 28.277 33.6682 28.2619 33.5563 28.2619C33.373 28.2619 33.2062 28.3092 33.0561 28.4039C32.9059 28.4987 32.7865 28.6382 32.6979 28.8226C32.6092 29.007 32.5649 29.2332 32.5649 29.5012C32.5649 29.7692 32.6097 29.9954 32.6994 30.1798C32.7891 30.3642 32.9105 30.5037 33.0636 30.5984C33.2168 30.6932 33.3891 30.7405 33.5805 30.7405C33.7578 30.7405 33.914 30.7027 34.049 30.6272C34.1851 30.5506 34.2909 30.4428 34.3664 30.3037C34.443 30.1637 34.4813 29.9989 34.4813 29.8095L34.5962 29.8337H33.6652V29.5012H34.844V29.8337C34.844 30.0886 34.7896 30.3103 34.6808 30.4987C34.573 30.6871 34.4239 30.8332 34.2334 30.937C34.044 31.0398 33.8264 31.0911 33.5805 31.0911C33.3065 31.0911 33.0656 31.0267 32.8581 30.8977C32.6515 30.7687 32.4903 30.5853 32.3744 30.3476C32.2596 30.1098 32.2022 29.8276 32.2022 29.5012C32.2022 29.2564 32.2349 29.0362 32.3004 28.8407C32.3669 28.6442 32.4606 28.477 32.5815 28.339C32.7024 28.2009 32.8455 28.0951 33.0107 28.0216C33.176 27.948 33.3578 27.9112 33.5563 27.9112C33.7196 27.9112 33.8717 27.9359 34.0128 27.9853C34.1548 28.0337 34.2813 28.1027 34.3921 28.1924C34.504 28.281 34.5972 28.3873 34.6717 28.5112C34.7463 28.6342 34.7977 28.7707 34.8259 28.9208H34.439Z" fill="#BD0728"/>
<path d="M34.439 28.9208L34.3125 28.9621L34.3425 29.0538H34.439V28.9208ZM34.3075 28.6473L34.1962 28.7201L34.1972 28.7217L34.3075 28.6473ZM34.1155 28.4387L34.0337 28.5435L34.0344 28.5441L34.1155 28.4387ZM33.8647 28.3072L33.9055 28.1806H33.9055L33.8647 28.3072ZM32.6979 28.8226L32.8177 28.8802L32.6979 28.8226ZM32.6994 30.1798L32.5798 30.238L32.6994 30.1798ZM33.0636 30.5984L32.9937 30.7116L33.0636 30.5984ZM34.049 30.6272L34.114 30.7432L34.1143 30.7431L34.049 30.6272ZM34.3664 30.3037L34.2497 30.2399L34.2496 30.2402L34.3664 30.3037ZM34.4813 29.8095L34.5087 29.6794L34.3483 29.6456V29.8095H34.4813ZM34.5962 29.8337V29.9667L34.6236 29.7035L34.5962 29.8337ZM33.6652 29.8337H33.5322V29.9667H33.6652V29.8337ZM33.6652 29.5012V29.3682H33.5322V29.5012H33.6652ZM34.844 29.5012H34.977V29.3682H34.844V29.5012ZM34.6808 30.4987L34.5656 30.4322L34.5653 30.4326L34.6808 30.4987ZM34.2334 30.937L34.2968 31.0539L34.2971 31.0538L34.2334 30.937ZM32.8581 30.8977L32.7876 31.0105L32.7879 31.0107L32.8581 30.8977ZM32.3744 30.3476L32.2547 30.4054L32.2549 30.4058L32.3744 30.3476ZM32.3004 28.8407L32.1744 28.7981L32.1743 28.7985L32.3004 28.8407ZM32.5815 28.339L32.6816 28.4266L32.5815 28.339ZM34.0128 27.9853L33.9688 28.1108L33.9699 28.1112L34.0128 27.9853ZM34.3921 28.1924L34.3085 28.2958L34.3095 28.2966L34.3921 28.1924ZM34.6717 28.5112L34.5578 28.5798L34.558 28.5802L34.6717 28.5112ZM34.8259 28.9208V29.0538H34.9862L34.9566 28.8963L34.8259 28.9208ZM34.5654 28.8795C34.5287 28.7672 34.4797 28.6647 34.4177 28.5729L34.1972 28.7217C34.2441 28.7911 34.2827 28.8709 34.3125 28.9621L34.5654 28.8795ZM34.4188 28.5745C34.3575 28.4808 34.2835 28.4002 34.1967 28.3333L34.0344 28.5441C34.0967 28.5921 34.1506 28.6505 34.1962 28.7201L34.4188 28.5745ZM34.1974 28.3339C34.1109 28.2663 34.0132 28.2154 33.9055 28.1806L33.8238 28.4338C33.9035 28.4595 33.9731 28.4962 34.0337 28.5435L34.1974 28.3339ZM33.9055 28.1806C33.7969 28.1456 33.6802 28.1289 33.5563 28.1289V28.3949C33.6562 28.3949 33.745 28.4084 33.8238 28.4338L33.9055 28.1806ZM33.5563 28.1289C33.3487 28.1289 33.1572 28.1829 32.9851 28.2915L33.127 28.5164C33.2552 28.4356 33.3972 28.3949 33.5563 28.3949V28.1289ZM32.9851 28.2915C32.8108 28.4014 32.6758 28.5616 32.578 28.765L32.8177 28.8802C32.8973 28.7148 33.0011 28.5959 33.127 28.5164L32.9851 28.2915ZM32.578 28.765C32.4785 28.972 32.4319 29.2192 32.4319 29.5012H32.6979C32.6979 29.2472 32.74 29.042 32.8177 28.8802L32.578 28.765ZM32.4319 29.5012C32.4319 29.7834 32.479 30.0308 32.5798 30.238L32.819 30.1216C32.7404 29.96 32.6979 29.755 32.6979 29.5012H32.4319ZM32.5798 30.238C32.6789 30.4418 32.8162 30.6018 32.9937 30.7116L33.1336 30.4853C33.0047 30.4056 32.8992 30.2866 32.819 30.1216L32.5798 30.238ZM32.9937 30.7116C33.1692 30.8201 33.366 30.8735 33.5805 30.8735V30.6075C33.4122 30.6075 33.2644 30.5662 33.1336 30.4853L32.9937 30.7116ZM33.5805 30.8735C33.7772 30.8735 33.9564 30.8314 34.114 30.7432L33.9841 30.5111C33.8717 30.574 33.7385 30.6075 33.5805 30.6075V30.8735ZM34.1143 30.7431C34.2724 30.654 34.3959 30.5279 34.4833 30.3672L34.2496 30.2402C34.1858 30.3576 34.0977 30.4471 33.9838 30.5113L34.1143 30.7431ZM34.4831 30.3675C34.5722 30.2046 34.6143 30.0171 34.6143 29.8095H34.3483C34.3483 29.9808 34.3138 30.1228 34.2497 30.2399L34.4831 30.3675ZM34.4539 29.9397L34.5688 29.9638L34.6236 29.7035L34.5087 29.6794L34.4539 29.9397ZM34.5962 29.7007H33.6652V29.9667H34.5962V29.7007ZM33.7982 29.8337V29.5012H33.5322V29.8337H33.7982ZM33.6652 29.6342H34.844V29.3682H33.6652V29.6342ZM34.711 29.5012V29.8337H34.977V29.5012H34.711ZM34.711 29.8337C34.711 30.0693 34.6609 30.2672 34.5656 30.4322L34.796 30.5652C34.9183 30.3533 34.977 30.1079 34.977 29.8337H34.711ZM34.5653 30.4326C34.4698 30.5997 34.3386 30.7282 34.1698 30.8202L34.2971 31.0538C34.5092 30.9382 34.6762 30.7745 34.7962 30.5647L34.5653 30.4326ZM34.17 30.8201C34.0026 30.9109 33.8074 30.9581 33.5805 30.9581V31.2241C33.8454 31.2241 34.0854 31.1686 34.2968 31.0539L34.17 30.8201ZM33.5805 30.9581C33.3282 30.9581 33.1123 30.8991 32.9283 30.7847L32.7879 31.0107C33.019 31.1543 33.2847 31.2241 33.5805 31.2241V30.9581ZM32.9285 30.7849C32.745 30.6703 32.5999 30.5067 32.494 30.2893L32.2549 30.4058C32.3807 30.664 32.5581 30.8672 32.7876 31.0105L32.9285 30.7849ZM32.4942 30.2897C32.3899 30.0737 32.3352 29.8122 32.3352 29.5012H32.0692C32.0692 29.8431 32.1293 30.1458 32.2547 30.4054L32.4942 30.2897ZM32.3352 29.5012C32.3352 29.2681 32.3663 29.0625 32.4265 28.883L32.1743 28.7985C32.1035 29.0098 32.0692 29.2446 32.0692 29.5012H32.3352ZM32.4264 28.8834C32.488 28.7013 32.5736 28.5499 32.6816 28.4266L32.4815 28.2513C32.3476 28.4041 32.2458 28.5872 32.1744 28.7981L32.4264 28.8834ZM32.6816 28.4266C32.79 28.3028 32.9174 28.2087 33.0648 28.1431L32.9566 27.9001C32.7735 27.9816 32.6149 28.099 32.4815 28.2513L32.6816 28.4266ZM33.0648 28.1431C33.2114 28.0778 33.3746 28.0442 33.5563 28.0442V27.7782C33.341 27.7782 33.1405 27.8182 32.9566 27.9001L33.0648 28.1431ZM33.5563 28.0442C33.706 28.0442 33.8431 28.0668 33.9688 28.1108L34.0567 27.8598C33.9003 27.805 33.7331 27.7782 33.5563 27.7782V28.0442ZM33.9699 28.1112C34.0979 28.1548 34.2104 28.2164 34.3085 28.2957L34.4758 28.089C34.3521 27.9889 34.2117 27.9125 34.0556 27.8594L33.9699 28.1112ZM34.3095 28.2966C34.4087 28.3752 34.4913 28.4694 34.5578 28.5798L34.7857 28.4427C34.703 28.3053 34.5993 28.1868 34.4747 28.0881L34.3095 28.2966ZM34.558 28.5802C34.6238 28.6886 34.6697 28.81 34.6952 28.9454L34.9566 28.8963C34.9256 28.7314 34.8688 28.5797 34.7854 28.4423L34.558 28.5802ZM34.8259 28.7878H34.439V29.0538H34.8259V28.7878Z" fill="white"/>
<path d="M38.1776 27.9702H38.5524V30.0196C38.5524 30.2312 38.5025 30.4201 38.4028 30.5863C38.304 30.7516 38.1645 30.8821 37.9841 30.9778C37.8038 31.0725 37.5922 31.1198 37.3493 31.1198C37.1065 31.1198 36.8949 31.0725 36.7146 30.9778C36.5342 30.8821 36.3942 30.7516 36.2944 30.5863C36.1957 30.4201 36.1463 30.2312 36.1463 30.0196V27.9702H36.5211V29.9893C36.5211 30.1405 36.5544 30.275 36.6209 30.3929C36.6874 30.5098 36.7821 30.6019 36.905 30.6695C37.0289 30.736 37.1771 30.7692 37.3493 30.7692C37.5216 30.7692 37.6698 30.736 37.7937 30.6695C37.9176 30.6019 38.0123 30.5098 38.0778 30.3929C38.1443 30.275 38.1776 30.1405 38.1776 29.9893V27.9702Z" fill="#BD0728"/>
<path d="M38.1776 27.9702V27.8372H38.0446V27.9702H38.1776ZM38.5524 27.9702H38.6854V27.8372H38.5524V27.9702ZM38.4028 30.5863L38.2887 30.5179L38.2886 30.5181L38.4028 30.5863ZM37.9841 30.9778L38.046 31.0955L38.0465 31.0953L37.9841 30.9778ZM36.7146 30.9778L36.6522 31.0953L36.6527 31.0955L36.7146 30.9778ZM36.2944 30.5863L36.1801 30.6542L36.1806 30.6551L36.2944 30.5863ZM36.1463 27.9702V27.8372H36.0133V27.9702H36.1463ZM36.5211 27.9702H36.6541V27.8372H36.5211V27.9702ZM36.6209 30.3929L36.505 30.4582L36.5053 30.4586L36.6209 30.3929ZM36.905 30.6695L36.841 30.786L36.8421 30.7866L36.905 30.6695ZM37.7937 30.6695L37.8566 30.7866L37.8573 30.7862L37.7937 30.6695ZM38.0778 30.3929L37.962 30.3275L37.9618 30.3279L38.0778 30.3929ZM38.1776 28.1032H38.5524V27.8372H38.1776V28.1032ZM38.4194 27.9702V30.0196H38.6854V27.9702H38.4194ZM38.4194 30.0196C38.4194 30.2093 38.3749 30.3742 38.2887 30.5179L38.5168 30.6548C38.6301 30.466 38.6854 30.253 38.6854 30.0196H38.4194ZM38.2886 30.5181C38.2031 30.6612 38.082 30.7752 37.9218 30.8603L38.0465 31.0953C38.2469 30.9889 38.405 30.8419 38.5169 30.6546L38.2886 30.5181ZM37.9223 30.86C37.7643 30.943 37.5747 30.9868 37.3493 30.9868V31.2528C37.6096 31.2528 37.8432 31.202 38.046 31.0955L37.9223 30.86ZM37.3493 30.9868C37.1239 30.9868 36.9344 30.943 36.7764 30.86L36.6527 31.0955C36.8555 31.202 37.0891 31.2528 37.3493 31.2528V30.9868ZM36.7769 30.8603C36.6166 30.7752 36.4949 30.661 36.4083 30.5176L36.1806 30.6551C36.2935 30.8421 36.4519 30.9889 36.6522 31.0953L36.7769 30.8603ZM36.4088 30.5184C36.3234 30.3746 36.2793 30.2096 36.2793 30.0196H36.0133C36.0133 30.2527 36.068 30.4655 36.1801 30.6542L36.4088 30.5184ZM36.2793 30.0196V27.9702H36.0133V30.0196H36.2793ZM36.1463 28.1032H36.5211V27.8372H36.1463V28.1032ZM36.3881 27.9702V29.9893H36.6541V27.9702H36.3881ZM36.3881 29.9893C36.3881 30.1606 36.426 30.3181 36.505 30.4582L36.7367 30.3275C36.6827 30.2318 36.6541 30.1203 36.6541 29.9893H36.3881ZM36.5053 30.4586C36.5845 30.5978 36.6975 30.7072 36.841 30.786L36.969 30.5529C36.8667 30.4967 36.7903 30.4217 36.7365 30.3271L36.5053 30.4586ZM36.8421 30.7866C36.9893 30.8656 37.16 30.9022 37.3493 30.9022V30.6362C37.1941 30.6362 37.0686 30.6063 36.9679 30.5523L36.8421 30.7866ZM37.3493 30.9022C37.5387 30.9022 37.7094 30.8656 37.8566 30.7866L37.7308 30.5523C37.6301 30.6063 37.5046 30.6362 37.3493 30.6362V30.9022ZM37.8573 30.7862C38.002 30.7074 38.1154 30.5978 38.1939 30.4579L37.9618 30.3279C37.9092 30.4217 37.8332 30.4965 37.7301 30.5527L37.8573 30.7862ZM38.1937 30.4582C38.2727 30.3181 38.3106 30.1606 38.3106 29.9893H38.0446C38.0446 30.1203 38.016 30.2318 37.962 30.3275L38.1937 30.4582ZM38.3106 29.9893V27.9702H38.0446V29.9893H38.3106Z" fill="white"/>
<path d="M40.9119 31.0654H40.519L41.6555 27.9702H42.0424L43.179 31.0654H42.786L41.8611 28.4598H41.8369L40.9119 31.0654ZM41.057 29.8563H42.6409V30.1888H41.057V29.8563Z" fill="#BD0728"/>
<path d="M40.9119 31.0654V31.1984H41.0058L41.0373 31.1099L40.9119 31.0654ZM40.519 31.0654L40.3941 31.0196L40.3285 31.1984H40.519V31.0654ZM41.6555 27.9702V27.8372H41.5627L41.5307 27.9243L41.6555 27.9702ZM42.0424 27.9702L42.1673 27.9243L42.1353 27.8372H42.0424V27.9702ZM43.179 31.0654V31.1984H43.3695L43.3038 31.0196L43.179 31.0654ZM42.786 31.0654L42.6607 31.1099L42.6921 31.1984H42.786V31.0654ZM41.8611 28.4598L41.9864 28.4153L41.955 28.3268H41.8611V28.4598ZM41.8369 28.4598V28.3268H41.743L41.7115 28.4153L41.8369 28.4598ZM41.057 29.8563V29.7233H40.924V29.8563H41.057ZM42.6409 29.8563H42.7739V29.7233H42.6409V29.8563ZM42.6409 30.1888V30.3218H42.7739V30.1888H42.6409ZM41.057 30.1888H40.924V30.3218H41.057V30.1888ZM40.9119 30.9324H40.519V31.1984H40.9119V30.9324ZM40.6438 31.1113L41.7804 28.016L41.5307 27.9243L40.3941 31.0196L40.6438 31.1113ZM41.6555 28.1032H42.0424V27.8372H41.6555V28.1032ZM41.9176 28.016L43.0541 31.1113L43.3038 31.0196L42.1673 27.9243L41.9176 28.016ZM43.179 30.9324H42.786V31.1984H43.179V30.9324ZM42.9114 31.0209L41.9864 28.4153L41.7357 28.5043L42.6607 31.1099L42.9114 31.0209ZM41.8611 28.3268H41.8369V28.5928H41.8611V28.3268ZM41.7115 28.4153L40.7866 31.0209L41.0373 31.1099L41.9622 28.5043L41.7115 28.4153ZM41.057 29.9893H42.6409V29.7233H41.057V29.9893ZM42.5079 29.8563V30.1888H42.7739V29.8563H42.5079ZM42.6409 30.0558H41.057V30.3218H42.6409V30.0558ZM41.19 30.1888V29.8563H40.924V30.1888H41.19Z" fill="white"/>
<path d="M44.6912 27.9536H45.1386L46.1905 30.5229H46.2268L47.2787 27.9536H47.726V31.0488H47.3754V28.6971H47.3452L46.3779 31.0488H46.0394L45.0721 28.6971H45.0419V31.0488H44.6912V27.9536Z" fill="#BD0728"/>
<path d="M44.6912 27.9536V27.8206H44.5582V27.9536H44.6912ZM45.1386 27.9536L45.2617 27.9032L45.2279 27.8206H45.1386V27.9536ZM46.1905 30.5229L46.0674 30.5733L46.1012 30.6559H46.1905V30.5229ZM46.2268 30.5229V30.6559H46.316L46.3499 30.5733L46.2268 30.5229ZM47.2787 27.9536V27.8206H47.1894L47.1556 27.9032L47.2787 27.9536ZM47.726 27.9536H47.859V27.8206H47.726V27.9536ZM47.726 31.0488V31.1818H47.859V31.0488H47.726ZM47.3754 31.0488H47.2424V31.1818H47.3754V31.0488ZM47.3754 28.6971H47.5084V28.5641H47.3754V28.6971ZM47.3452 28.6971V28.5641H47.2561L47.2222 28.6466L47.3452 28.6971ZM46.3779 31.0488V31.1818H46.467L46.5009 31.0994L46.3779 31.0488ZM46.0394 31.0488L45.9164 31.0994L45.9503 31.1818H46.0394V31.0488ZM45.0721 28.6971L45.1951 28.6466L45.1612 28.5641H45.0721V28.6971ZM45.0419 28.6971V28.5641H44.9089V28.6971H45.0419ZM45.0419 31.0488V31.1818H45.1749V31.0488H45.0419ZM44.6912 31.0488H44.5582V31.1818H44.6912V31.0488ZM44.6912 28.0866H45.1386V27.8206H44.6912V28.0866ZM45.0155 28.0039L46.0674 30.5733L46.3136 30.4725L45.2617 27.9032L45.0155 28.0039ZM46.1905 30.6559H46.2268V30.3899H46.1905V30.6559ZM46.3499 30.5733L47.4018 28.0039L47.1556 27.9032L46.1037 30.4725L46.3499 30.5733ZM47.2787 28.0866H47.726V27.8206H47.2787V28.0866ZM47.593 27.9536V31.0488H47.859V27.9536H47.593ZM47.726 30.9158H47.3754V31.1818H47.726V30.9158ZM47.5084 31.0488V28.6971H47.2424V31.0488H47.5084ZM47.3754 28.5641H47.3452V28.8301H47.3754V28.5641ZM47.2222 28.6466L46.2549 30.9982L46.5009 31.0994L47.4682 28.7477L47.2222 28.6466ZM46.3779 30.9158H46.0394V31.1818H46.3779V30.9158ZM46.1624 30.9982L45.1951 28.6466L44.9491 28.7477L45.9164 31.0994L46.1624 30.9982ZM45.0721 28.5641H45.0419V28.8301H45.0721V28.5641ZM44.9089 28.6971V31.0488H45.1749V28.6971H44.9089ZM45.0419 30.9158H44.6912V31.1818H45.0419V30.9158ZM44.8242 31.0488V27.9536H44.5582V31.0488H44.8242Z" fill="white"/>
<path fill-rule="evenodd" clip-rule="evenodd" d="M32.4502 20.1125C32.2627 20.4875 32.9002 20 33.0502 19.95C33.8877 19.65 34.2127 18.6 35.6502 19.2375C36.7752 19.725 38.2877 19.4375 37.5002 19.9375C36.5252 20.525 34.5627 21.175 34.5252 24.0875C34.6877 24.3625 34.7002 24.325 34.8377 24.0125C35.1377 23.3375 36.5502 21.5 37.2502 21.65C37.5377 21.725 38.3627 20.8125 38.3752 21.075C38.4627 21.8 37.2502 23.275 37.2752 25.2375C37.2752 25.7 37.8377 25.85 38.1002 25.525C38.3752 25.2375 38.5252 24.95 39.0002 24.575C39.8252 23.9 39.6002 21 39.7002 21.1375C40.2877 21.8875 40.3752 24.05 41.2502 24.925C41.9877 25.6625 42.5752 25.3 42.4127 24.3C42.1002 22.25 41.1377 22.8375 40.6752 20.725C40.5752 20.3125 40.5502 19.95 41.1002 20.1125C41.7627 20.3125 42.1627 20.6125 42.6502 21.3625C43.1502 22.0875 44.0752 22.775 44.6127 23.1875C45.5502 23.9125 45.8877 23.2875 45.4377 22.3625C44.8663 21.312 43.9338 20.5038 42.8127 20.0875C42.0377 19.8125 41.7627 19.7875 41.0877 19.6625C40.9002 19.625 40.7127 19.2375 41.0377 19.025C41.7607 18.5037 42.6032 18.1727 43.4877 18.0625C44.3252 18.0375 44.9877 18.7125 45.5752 18.8875C46.7502 19.1875 46.7502 18.45 46.2252 17.8875C45.8002 17.425 44.9002 16.6375 44.0627 16.75C42.3752 16.9625 42.4877 16.9125 41.4377 17.6C41.0627 17.825 40.6377 18.075 40.8002 17.8C41.1752 17.1125 40.8252 17.2375 41.4127 16.5375C41.8627 16.0375 42.2002 15.6625 42.6627 15.5375C43.0877 15.425 43.6627 14.975 43.8252 14.7375C44.2502 14.1625 43.8877 13.825 43.2377 14.025C42.6627 14.175 42.3627 14.55 41.9877 14.65C41.0627 14.95 40.3252 17.025 40.2127 17.325C40.0752 17.675 39.9127 17.5 39.9377 17.2C40.0627 15.7375 40.1877 13.2625 39.6877 12.25C38.8877 10.75 38.9627 11.45 38.6627 12.1625C38.2127 13.2875 38.3752 14.35 38.6627 15.45C38.7877 16 39.2377 16.625 39.3252 17.0625C39.3877 17.4 39.1252 16.9625 38.9752 16.75C38.4877 16 38.1252 15.5 37.3252 15.0875C36.5262 14.7588 35.6482 14.6718 34.8002 14.8375C34.5752 14.9125 35.0502 15.2375 35.2377 15.3875C35.7752 15.8125 36.7877 15.95 37.4877 16.375C38.0627 16.7375 38.5127 16.9625 38.7127 17.4625C38.7877 17.8375 38.9127 18.3875 38.6627 18.375C38.0252 18.3375 37.0377 17.775 34.9877 18C33.9377 18.15 33.0377 19.0375 32.4502 20.1125Z" fill="#239E46"/>
<path fill-rule="evenodd" clip-rule="evenodd" d="M36.9121 38.8252H37.4996V39.8127H36.9121V38.8252Z" fill="black"/>
<path fill-rule="evenodd" clip-rule="evenodd" d="M33.9625 32.2373C36.3125 35.4873 40.0875 37.3873 40.1625 38.8623H32.8125C34.5 36.8373 35.5375 35.4623 33.9625 32.2373Z" fill="#FDF9FF"/>
<path fill-rule="evenodd" clip-rule="evenodd" d="M31.8249 38.9379C35.0249 39.6504 38.8374 40.0504 41.2749 38.8379C41.2999 39.5504 40.4874 40.5879 39.8124 40.5879H33.6874C34.3999 40.4754 34.8124 40.2629 35.9624 40.2129L32.7124 40.2379C32.3374 40.2504 31.7124 39.2879 31.8249 38.9379Z" fill="#A68861"/>
<path fill-rule="evenodd" clip-rule="evenodd" d="M39.0748 53.1251C39.3998 53.3126 39.9123 53.3001 40.1998 53.1501C58.6748 43.3126 58.6873 16.3501 40.2248 6.65014C40.04 6.56457 39.838 6.52234 39.6344 6.52667C39.4308 6.531 39.2308 6.58178 39.0498 6.67514C21.0498 16.5251 20.9998 43.1751 39.0748 53.1376V53.1251ZM39.1623 50.9126C39.3176 50.989 39.4879 51.0298 39.6609 51.0319C39.8339 51.0341 40.0052 50.9976 40.1623 50.9251C55.6123 41.8251 55.7998 17.7876 40.1748 9.17514C39.8748 8.95014 39.4373 9.02514 39.1373 9.17514C24.3373 17.9376 23.5123 40.9876 39.1623 50.9126Z" fill="#BE0027"/>
<path d="M34.439 28.9208C34.4057 28.8191 34.3619 28.7279 34.3075 28.6473C34.2541 28.5657 34.1901 28.4961 34.1155 28.4387C34.042 28.3813 33.9584 28.3374 33.8647 28.3072C33.7709 28.277 33.6682 28.2619 33.5563 28.2619C33.373 28.2619 33.2062 28.3092 33.0561 28.4039C32.9059 28.4987 32.7865 28.6382 32.6979 28.8226C32.6092 29.007 32.5649 29.2332 32.5649 29.5012C32.5649 29.7692 32.6097 29.9954 32.6994 30.1798C32.7891 30.3642 32.9105 30.5037 33.0636 30.5984C33.2168 30.6932 33.3891 30.7405 33.5805 30.7405C33.7578 30.7405 33.914 30.7027 34.049 30.6272C34.1851 30.5506 34.2909 30.4428 34.3664 30.3037C34.443 30.1637 34.4813 29.9989 34.4813 29.8095L34.5962 29.8337H33.6652V29.5012H34.844V29.8337C34.844 30.0886 34.7896 30.3103 34.6808 30.4987C34.573 30.6871 34.4239 30.8332 34.2334 30.937C34.044 31.0398 33.8264 31.0911 33.5805 31.0911C33.3065 31.0911 33.0656 31.0267 32.8581 30.8977C32.6515 30.7687 32.4903 30.5853 32.3744 30.3476C32.2596 30.1098 32.2022 29.8276 32.2022 29.5012C32.2022 29.2564 32.2349 29.0362 32.3004 28.8407C32.3669 28.6442 32.4606 28.477 32.5815 28.339C32.7024 28.2009 32.8455 28.0951 33.0107 28.0216C33.176 27.948 33.3578 27.9112 33.5563 27.9112C33.7196 27.9112 33.8717 27.9359 34.0128 27.9853C34.1548 28.0337 34.2813 28.1027 34.3921 28.1924C34.504 28.281 34.5972 28.3873 34.6717 28.5112C34.7463 28.6342 34.7977 28.7707 34.8259 28.9208H34.439Z" fill="#BD0728"/>
<path d="M38.1776 27.9702H38.5524V30.0196C38.5524 30.2312 38.5025 30.4201 38.4028 30.5863C38.304 30.7516 38.1645 30.8821 37.9841 30.9778C37.8038 31.0725 37.5922 31.1198 37.3493 31.1198C37.1065 31.1198 36.8949 31.0725 36.7146 30.9778C36.5342 30.8821 36.3942 30.7516 36.2944 30.5863C36.1957 30.4201 36.1463 30.2312 36.1463 30.0196V27.9702H36.5211V29.9893C36.5211 30.1405 36.5544 30.275 36.6209 30.3929C36.6874 30.5098 36.7821 30.6019 36.905 30.6695C37.0289 30.736 37.1771 30.7692 37.3493 30.7692C37.5216 30.7692 37.6698 30.736 37.7937 30.6695C37.9176 30.6019 38.0123 30.5098 38.0778 30.3929C38.1443 30.275 38.1776 30.1405 38.1776 29.9893V27.9702Z" fill="#BD0728"/>
<path d="M40.9119 31.0654H40.519L41.6555 27.9702H42.0424L43.179 31.0654H42.786L41.8611 28.4598H41.8369L40.9119 31.0654ZM41.057 29.8563H42.6409V30.1888H41.057V29.8563Z" fill="#BD0728"/>
<path d="M44.6912 27.9536H45.1386L46.1905 30.5229H46.2268L47.2787 27.9536H47.726V31.0488H47.3754V28.6971H47.3452L46.3779 31.0488H46.0394L45.0721 28.6971H45.0419V31.0488H44.6912V27.9536Z" fill="#BD0728"/>
</g>
<defs>
<clipPath id="clip0_3732_58017">
<rect width="80" height="60" fill="white"/>
</clipPath>
</defs>
</svg>
