<svg width="80" height="60" viewBox="0 0 80 60" fill="none" xmlns="http://www.w3.org/2000/svg">
<g clip-path="url(#clip0_3732_58185)">
<path d="M0 0H80V60H0V0Z" fill="#4997D0"/>
<path d="M26.6621 0H53.3371V60H26.6621V0Z" fill="white"/>
<path d="M37.6755 36.4582C37.9005 36.4249 38.0255 36.3582 38.1755 36.3082M38.3672 35.9749C38.4768 36.0834 38.5621 36.2141 38.6172 36.3582M37.9421 35.9332C38.0446 36.035 38.1291 36.1533 38.1921 36.2832M34.0671 24.8998C33.9838 25.0331 33.8088 25.1248 33.6671 25.1831M33.6421 25.1665C33.6421 25.0498 33.6171 24.9165 33.6421 24.7998M33.4755 25.2165L33.5338 25.3831M33.7005 25.4665L33.5338 25.4915M33.2005 25.4165C33.2005 25.6331 33.2338 25.8831 33.2505 26.0748M33.1005 25.9915C33.1334 26.053 33.1788 26.1069 33.2338 26.1498M32.8505 26.6831C32.8921 26.7665 32.9338 26.8665 32.9588 27.0165M33.2671 26.6331L33.1005 26.7581M33.2421 27.1248C33.1588 27.1998 33.0588 27.2498 32.9505 27.2998M32.6338 30.6665C32.7184 30.8175 32.8316 30.9505 32.9671 31.0582M33.0171 31.1998C32.9291 31.189 32.8441 31.1606 32.7671 31.1165M33.1338 31.8248L33.2755 31.9082M33.2421 32.1915C33.3421 32.2582 33.4505 32.3832 33.5505 32.5165M33.4338 32.7498C33.5505 32.7748 33.6421 32.8082 33.7005 32.8332M33.6171 33.0415H33.7838M33.8921 32.5998L33.8505 32.9498M33.9338 33.0832L33.9671 32.9498M34.3588 33.4498L34.3505 33.7165M37.6171 36.0499L37.5171 36.1749M37.3171 35.8415L37.2588 35.6999" stroke="#24420E" stroke-width="0.0333335"/>
<path d="M40.5086 37.0831C40.4419 36.9747 40.3419 36.9081 40.2336 36.8581C39.5919 36.5247 38.9502 36.3664 38.2336 36.2497C38.0586 36.2247 37.8919 36.0664 37.7169 35.9831C37.3002 35.7914 36.8419 35.7164 36.4419 35.5081C36.38 35.4756 36.3237 35.4334 36.2752 35.3831C36.1086 35.1997 35.8169 35.1414 35.6419 34.9664C34.9419 34.3164 34.2085 33.7164 33.8252 32.8414C33.3585 31.783 32.7835 30.6914 32.8585 29.483C32.9085 28.733 32.8002 27.958 32.9835 27.233C33.2669 26.158 33.6169 25.0997 34.2669 24.208L34.1585 24.2747C33.541 25.1916 33.1054 26.2185 32.8752 27.2997C32.6835 28.0247 32.7919 28.7997 32.7502 29.5497C32.6669 30.758 33.2502 31.8497 33.7085 32.9081C34.0919 33.7747 34.8335 34.3831 35.5252 35.0414C35.7086 35.2081 35.9919 35.2664 36.1586 35.4581C36.2087 35.5065 36.2647 35.5485 36.3252 35.5831C36.7336 35.7831 37.1919 35.8581 37.6086 36.0581C37.7752 36.1414 37.9419 36.2914 38.1086 36.3164C38.8099 36.4058 39.4915 36.6114 40.1252 36.9247C40.2346 36.9712 40.3295 37.046 40.4002 37.1414L40.5086 37.0747" fill="#406325"/>
<path d="M40.5086 37.0831C40.4419 36.9747 40.3419 36.9081 40.2336 36.8581C39.5919 36.5247 38.9502 36.3664 38.2336 36.2497C38.0586 36.2247 37.8919 36.0664 37.7169 35.9831C37.3002 35.7914 36.8419 35.7164 36.4419 35.5081C36.38 35.4756 36.3237 35.4334 36.2752 35.3831C36.1086 35.1997 35.8169 35.1414 35.6419 34.9664C34.9419 34.3164 34.2085 33.7164 33.8252 32.8414C33.3585 31.783 32.7835 30.6914 32.8585 29.483C32.9085 28.733 32.8002 27.958 32.9835 27.233C33.2669 26.158 33.6169 25.0997 34.2669 24.208L34.1585 24.2747C33.541 25.1916 33.1054 26.2185 32.8752 27.2997C32.6835 28.0247 32.7919 28.7997 32.7502 29.5497C32.6669 30.758 33.2502 31.8497 33.7085 32.9081C34.0919 33.7747 34.8335 34.3831 35.5252 35.0414C35.7086 35.2081 35.9919 35.2664 36.1586 35.4581C36.2087 35.5065 36.2647 35.5485 36.3252 35.5831C36.7336 35.7831 37.1919 35.8581 37.6086 36.0581C37.7752 36.1414 37.9419 36.2914 38.1086 36.3164C38.8099 36.4058 39.4915 36.6114 40.1252 36.9247C40.2346 36.9712 40.3295 37.046 40.4002 37.1414L40.5086 37.0747" stroke="#24420E" stroke-width="0.0166668"/>
<path d="M33.8587 32.6331C33.687 31.9924 33.6813 31.3184 33.842 30.6748C34.4004 31.7581 34.217 32.6498 33.8587 32.6331ZM37.6837 36.4165C37.0921 36.4498 35.9671 37.1915 35.8587 37.3665C37.1171 37.3748 37.8587 36.7582 37.6837 36.4165ZM38.3087 36.0582C37.7393 35.4326 37.3379 34.6728 37.1421 33.8498C38.3921 34.7498 38.7171 35.8748 38.3087 36.0582Z" fill="#67923D" stroke="#24420E" stroke-width="0.0166668"/>
<path d="M37.8837 36.0667C37.2838 35.558 36.8247 34.9038 36.5503 34.1667C37.8253 34.85 38.242 35.85 37.8837 36.0667ZM36.5837 35.5C36.667 34.85 36.117 33.4834 35.9587 33.3334C35.7087 34.7084 36.2087 35.6334 36.592 35.5H36.5837ZM34.3087 33.475C34.1741 32.8976 34.1884 32.2954 34.3503 31.725C34.8087 32.7 34.6253 33.4917 34.3087 33.475ZM33.167 27.0833C33.6232 26.493 34.2267 26.0331 34.917 25.75C34.3587 26.9667 33.417 27.4083 33.167 27.0833Z" fill="#67923D" stroke="#24420E" stroke-width="0.0166668"/>
<path d="M33.2255 26.6081C33.5558 25.9359 34.0556 25.3615 34.6755 24.9414C34.3672 26.2497 33.5339 26.8747 33.2255 26.6081ZM35.5505 34.8748C35.1339 34.3581 34.8839 32.8831 34.9422 32.6748C35.8755 33.7165 35.9422 34.7748 35.5422 34.8748H35.5505ZM33.1589 31.8331C32.5755 31.9248 31.3755 31.4498 31.2422 31.3081C32.4589 31.0414 33.2755 31.4748 33.1589 31.8331ZM32.9755 31.0248C33.0422 30.5664 33.6922 29.7081 33.8339 29.6414C33.7505 30.6414 33.2172 31.1914 32.9755 31.0248ZM37.2506 35.9165C36.439 36.0977 35.6891 36.4885 35.0755 37.0498C36.5755 37.0581 37.4672 36.3248 37.2506 35.9165Z" fill="#67923D" stroke="#24420E" stroke-width="0.0166668"/>
<path d="M33.8671 32.6249C34.2171 32.6415 34.4004 31.7582 33.8421 30.6748C33.9472 31.32 33.9556 31.9772 33.8671 32.6249ZM34.8004 34.2915C34.2865 33.8322 33.6642 33.511 32.9921 33.3582C33.7337 34.3665 34.6504 34.6165 34.8004 34.2915ZM32.7671 29.8748C32.5299 29.1154 32.1058 28.4277 31.5337 27.8748C31.6587 29.3082 32.4171 30.0998 32.7671 29.8748ZM33.4671 32.7332C33.0504 32.4248 31.8837 32.2832 31.7171 32.3415C32.5671 33.0249 33.4004 33.0415 33.4671 32.7332ZM32.6837 30.6582C32.3227 30.1605 31.837 29.7668 31.2754 29.5165C31.7337 30.5498 32.4921 30.9332 32.6837 30.6582ZM32.9087 26.6998C32.9921 26.0665 32.4504 24.7498 32.3004 24.5998C32.0587 25.9331 32.5421 26.8248 32.9087 26.6998ZM33.2837 25.4498C33.4438 24.7824 33.4295 24.0851 33.2421 23.4248C32.7087 24.5498 32.9254 25.4748 33.2837 25.4581V25.4498Z" fill="#406325" stroke="#24420E" stroke-width="0.0166668"/>
<path d="M33.7004 24.8167C33.9303 24.3104 34.0305 23.7548 33.9921 23.2001C33.3921 24.0084 33.4087 24.7751 33.7004 24.8167ZM34.2004 24.3084C34.57 23.897 34.8282 23.3978 34.9504 22.8584C34.1421 23.4417 33.9337 24.1751 34.2004 24.3084ZM32.8671 27.9084C32.8671 27.9834 32.7837 27.2251 32.0254 26.3834C32.0587 27.6168 32.5421 28.0834 32.8587 27.9084H32.8671ZM35.5754 35.0585C34.9125 34.7128 34.1728 34.5408 33.4254 34.5585C34.4754 35.4251 35.5004 35.4418 35.5754 35.0585ZM36.5754 35.4918C36.2004 35.6251 35.7087 34.7085 35.9504 33.3335C36.0586 34.0809 36.2689 34.8099 36.5754 35.5001V35.4918ZM37.6921 36.4251C37.8588 36.7585 37.1254 37.3751 35.8754 37.3668C36.8754 36.9501 37.6421 36.5418 37.6838 36.4251H37.6921ZM38.3004 36.0501C38.7171 35.8585 38.3921 34.7585 37.1338 33.8501C37.8504 34.9501 38.3421 35.9001 38.3004 36.0501Z" fill="#406325" stroke="#24420E" stroke-width="0.0166668"/>
<path d="M37.8837 36.0584C38.2337 35.8334 37.8253 34.85 36.5503 34.1667C37.342 35.1 37.9003 35.9167 37.8837 36.0584ZM34.317 33.475C34.6253 33.4917 34.817 32.7 34.3587 31.725C34.417 32.6417 34.392 33.3917 34.317 33.475ZM33.167 27.075C33.417 27.4083 34.3337 26.9667 34.9087 25.75C34.3961 26.2769 33.8094 26.726 33.167 27.0833V27.075Z" fill="#406325" stroke="#24420E" stroke-width="0.0166668"/>
<path d="M33.2422 26.6081C33.5422 26.8747 34.3672 26.2497 34.6755 24.9414C34.0089 25.8831 33.3755 26.5914 33.2422 26.6081ZM35.5505 34.8665C35.9422 34.7748 35.8839 33.7165 34.9422 32.6748C35.3589 33.7998 35.6089 34.7415 35.5505 34.8665ZM33.1422 31.8331C33.2589 31.4748 32.4505 31.0498 31.2422 31.3081C32.2672 31.4914 33.0755 31.7248 33.1422 31.8331ZM32.9755 31.0248C33.2255 31.1914 33.7505 30.6414 33.8422 29.6414C33.6233 30.141 33.3343 30.6068 32.9839 31.0248H32.9755ZM37.2506 35.9165C37.4672 36.3331 36.5839 37.0581 35.0839 37.0415C36.2672 36.5581 37.1922 36.0665 37.2506 35.9165Z" fill="#406325" stroke="#24420E" stroke-width="0.0166668"/>
<path d="M33.2839 32.1917C32.9346 31.6367 32.4462 31.1828 31.8672 30.875C32.2839 32.0083 33.0505 32.4667 33.2839 32.1917Z" fill="#406325" stroke="#24420E" stroke-width="0.0166668"/>
<path d="M32.7004 27.8334C33.0337 27.4418 34.1587 27.0668 34.3337 27.0834C33.6671 27.9584 32.8337 28.1334 32.7004 27.8334ZM34.7837 34.2918C34.6421 34.6251 33.7337 34.3751 32.9837 33.3668C33.5388 33.7606 34.1479 34.0721 34.7921 34.2918H34.7837ZM32.7587 29.8751C32.4087 30.1001 31.6671 29.3084 31.5337 27.8751C32.0837 28.9834 32.6171 29.8334 32.7587 29.8751ZM33.4587 32.7334C33.4004 33.0418 32.5671 33.0335 31.7254 32.3418C32.2814 32.5547 32.8652 32.6866 33.4587 32.7334ZM32.6754 30.6501C32.4754 30.9251 31.7337 30.5501 31.2754 29.5168C31.9587 30.1834 32.5671 30.6584 32.6754 30.6501ZM32.9004 26.6917C32.5337 26.8251 32.0587 25.9417 32.2921 24.6084C32.5171 25.7334 32.7921 26.6251 32.9004 26.6917ZM33.2754 25.4501C32.9171 25.4751 32.7004 24.5501 33.2337 23.4251C33.1671 24.4917 33.1921 25.3584 33.2754 25.4501ZM33.6921 24.8167C33.4087 24.7667 33.3837 24.0084 33.9921 23.2001C33.8119 23.7209 33.7107 24.2659 33.6921 24.8167ZM34.1921 24.3084C33.9337 24.1667 34.1337 23.4417 34.9421 22.8584C34.6215 23.3019 34.3688 23.7905 34.1921 24.3084Z" fill="#67923D" stroke="#24420E" stroke-width="0.0166668"/>
<path d="M32.8584 27.9088C32.5334 28.0838 32.0584 27.6171 32.0251 26.3838C32.4417 27.3588 32.7417 27.8671 32.8584 27.9088ZM35.5668 35.0588C35.4918 35.4422 34.4751 35.4255 33.4251 34.5672C34.5251 34.9255 35.4501 35.1255 35.5668 35.0588ZM34.8834 34.2672C34.5688 33.7884 34.3797 33.2382 34.3334 32.6672C35.0834 33.3922 35.1834 34.1755 34.9001 34.2672H34.8834ZM33.4834 32.1838C33.2313 31.5785 33.145 30.9169 33.2334 30.2671C33.9251 31.2588 33.8417 32.1588 33.4834 32.1838ZM33.2584 32.1921C33.0334 32.4672 32.2667 32.0171 31.8584 30.8755C32.2571 31.3815 32.7289 31.8252 33.2584 32.1921Z" fill="#67923D" stroke="#24420E" stroke-width="0.0166668"/>
<path d="M32.7012 27.8335C32.8345 28.1335 33.6512 27.9585 34.3262 27.0918C33.3262 27.6585 32.9345 27.9085 32.7012 27.8335ZM33.4762 32.1668C33.8345 32.1418 33.9178 31.2502 33.2262 30.2668C33.4105 30.8856 33.4949 31.5298 33.4762 32.1752V32.1668ZM34.8929 34.2668C35.1762 34.1835 35.0762 33.3918 34.3345 32.6668C34.7012 33.4752 34.9345 34.1668 34.8929 34.2668Z" fill="#406325" stroke="#24420E" stroke-width="0.0166668"/>
<path d="M32.8507 29.3169C32.9655 28.5858 32.8397 27.8371 32.4924 27.1836C32.1007 28.4669 32.4757 29.4003 32.8507 29.3169Z" fill="#406325" stroke="#24420E" stroke-width="0.0166668"/>
<path d="M32.8337 29.483C32.3337 29.5913 32.1087 28.4829 32.4921 27.2246C32.5754 28.3496 32.7254 29.3996 32.8254 29.4746L32.8337 29.483Z" fill="#67923D" stroke="#24420E" stroke-width="0.0166668"/>
<path d="M32.7256 29.4753C32.7988 28.7371 33.0567 28.0292 33.4756 27.417C33.6423 28.7337 33.1006 29.6087 32.7256 29.4753Z" fill="#67923D" stroke="#24420E" stroke-width="0.0166668"/>
<path d="M32.7334 29.467C33.1001 29.6003 33.6417 28.7337 33.4751 27.417C33.1834 28.5253 32.8501 29.4003 32.7334 29.467Z" fill="#406325" stroke="#24420E" stroke-width="0.0166668"/>
<path d="M32.8418 30.2748C32.9572 29.5502 33.2619 28.8689 33.7251 28.2998C33.7918 29.6498 33.2001 30.4581 32.8418 30.2748Z" fill="#67923D" stroke="#24420E" stroke-width="0.0166668"/>
<path d="M32.8506 30.2835C33.2006 30.4669 33.7923 29.6752 33.7256 28.3252C33.3589 29.3919 32.9756 30.2335 32.8506 30.2835Z" fill="#406325" stroke="#24420E" stroke-width="0.0166668"/>
<path d="M33.0673 26.0329C33.1179 26.0329 33.1589 25.9919 33.1589 25.9413C33.1589 25.8907 33.1179 25.8496 33.0673 25.8496C33.0166 25.8496 32.9756 25.8907 32.9756 25.9413C32.9756 25.9919 33.0166 26.0329 33.0673 26.0329Z" fill="#BA1F3E" stroke="#511124" stroke-width="0.0166668"/>
<path d="M33.7674 25.5163C33.8181 25.5163 33.8591 25.4753 33.8591 25.4247C33.8591 25.374 33.8181 25.333 33.7674 25.333C33.7168 25.333 33.6758 25.374 33.6758 25.4247C33.6758 25.4753 33.7168 25.5163 33.7674 25.5163Z" fill="#BA1F3E" stroke="#511124" stroke-width="0.0166668"/>
<path d="M33.4676 25.2331C33.5183 25.2331 33.5593 25.1921 33.5593 25.1415C33.5593 25.0908 33.5183 25.0498 33.4676 25.0498C33.417 25.0498 33.376 25.0908 33.376 25.1415C33.376 25.1921 33.417 25.2331 33.4676 25.2331Z" fill="#BA1F3E" stroke="#511124" stroke-width="0.0166668"/>
<path d="M32.7089 31.2001C32.7687 31.2001 32.8173 31.1516 32.8173 31.0917C32.8173 31.0319 32.7687 30.9834 32.7089 30.9834C32.6491 30.9834 32.6006 31.0319 32.6006 31.0917C32.6006 31.1516 32.6491 31.2001 32.7089 31.2001Z" fill="#BA1F3E" stroke="#511124" stroke-width="0.0166668"/>
<path d="M32.9169 29.8661C32.9768 29.8661 33.0253 29.8176 33.0253 29.7577C33.0253 29.6979 32.9768 29.6494 32.9169 29.6494C32.8571 29.6494 32.8086 29.6979 32.8086 29.7577C32.8086 29.8176 32.8571 29.8661 32.9169 29.8661Z" fill="#BA1F3E" stroke="#511124" stroke-width="0.0166668"/>
<path d="M34.0175 32.9833C34.0773 32.9833 34.1258 32.9348 34.1258 32.8749C34.1258 32.8151 34.0773 32.7666 34.0175 32.7666C33.9577 32.7666 33.9092 32.8151 33.9092 32.8749C33.9092 32.9348 33.9577 32.9833 34.0175 32.9833Z" fill="#BA1F3E" stroke="#511124" stroke-width="0.0166668"/>
<path d="M33.5341 33.1415C33.5939 33.1415 33.6424 33.093 33.6424 33.0331C33.6424 32.9733 33.5939 32.9248 33.5341 32.9248C33.4743 32.9248 33.4258 32.9733 33.4258 33.0331C33.4258 33.093 33.4743 33.1415 33.5341 33.1415Z" fill="#BA1F3E" stroke="#511124" stroke-width="0.0166668"/>
<path d="M37.2255 35.7411C37.2854 35.7411 37.3339 35.6926 37.3339 35.6327C37.3339 35.5729 37.2854 35.5244 37.2255 35.5244C37.1657 35.5244 37.1172 35.5729 37.1172 35.6327C37.1172 35.6926 37.1657 35.7411 37.2255 35.7411Z" fill="#BA1F3E" stroke="#511124" stroke-width="0.0166668"/>
<path d="M37.4677 36.3329C37.5275 36.3329 37.576 36.2844 37.576 36.2245C37.576 36.1647 37.5275 36.1162 37.4677 36.1162C37.4079 36.1162 37.3594 36.1647 37.3594 36.2245C37.3594 36.2844 37.4079 36.3329 37.4677 36.3329Z" fill="#BA1F3E" stroke="#511124" stroke-width="0.0166668"/>
<path d="M46.7588 26.5829C46.8171 26.6329 46.8588 26.6496 46.9505 26.7412M46.4005 25.1579C46.4005 25.0495 46.3505 24.8579 46.3255 24.7412M46.6172 24.9912C46.6172 25.1579 46.5921 25.3079 46.5255 25.4495M46.1755 25.4079C46.3255 25.5412 46.4671 25.6579 46.6172 25.7329M46.9338 25.8329C46.9422 25.9996 46.9255 26.1662 46.8755 26.3329M46.9088 26.4579L47.0172 26.2662M46.8588 27.2829C46.9755 27.3079 47.0921 27.4496 47.1505 27.5746M47.1922 27.4662L47.3255 27.2829M47.4672 29.8496C47.4088 29.9497 47.3419 30.0445 47.2672 30.1329M46.9338 30.1329C47.0005 30.2496 47.0671 30.3829 47.1505 30.4662M47.3588 30.9579C47.2612 31.0964 47.1328 31.2105 46.9838 31.2912M47.0005 31.6662C46.9088 31.7329 46.7921 31.9162 46.6921 32.0579M47.3922 30.3746L47.2171 30.4496M47.1005 29.8246L47.2088 29.9162M46.4338 33.0329H46.2505M46.0838 32.8829L46.1421 33.0163M45.4921 33.4413C45.4755 33.5996 45.4921 33.7496 45.5088 33.9079M45.8671 33.1579L45.9505 33.3413M46.2755 33.3246L46.0671 33.3663M43.4921 35.4663L43.4088 35.6163M44.4088 35.2829C44.2838 35.2996 44.1755 35.2829 44.0671 35.2663M43.6088 35.7663C43.5271 35.7337 43.4437 35.7059 43.3588 35.6829M42.1421 35.9079C42.0588 35.9663 41.9755 36.1079 41.8838 36.2413M41.8338 35.8663C41.6338 35.9746 41.5755 36.1746 41.4671 36.3496M41.7005 36.5913C41.5503 36.5437 41.4029 36.4881 41.2588 36.4246M42.6505 36.3579C42.4588 36.2579 42.2588 36.2746 42.0588 36.2413M42.9588 36.2079C42.6505 36.1496 42.3755 36.1579 42.1005 36.1996M42.7505 35.9829L42.6338 35.9329M42.1671 36.3913L41.9755 36.2829M46.8088 32.1829C46.7005 32.2496 46.5922 32.3746 46.4921 32.5079M46.6421 25.8746L46.4671 25.8079" stroke="#24420E" stroke-width="0.0333335"/>
<path d="M39.5342 37.0743C39.6038 36.9758 39.6988 36.898 39.8092 36.8493C40.4509 36.5159 41.0925 36.3659 41.8092 36.2493C41.9842 36.2159 42.1509 36.0576 42.3259 35.9826C42.7425 35.7826 43.2009 35.7076 43.6009 35.5076C43.6634 35.4727 43.7197 35.4276 43.7675 35.3743C43.9342 35.1909 44.2259 35.1326 44.4009 34.9576C45.1009 34.3076 45.8342 33.7076 46.2175 32.8326C46.6842 31.7743 47.2592 30.6826 47.1842 29.4826C47.1342 28.7159 47.2426 27.9492 47.0592 27.2326C46.8277 26.1492 46.3922 25.1198 45.7759 24.1992L45.8842 24.2659C46.5013 25.183 46.937 26.2098 47.1676 27.2909C47.3592 28.0159 47.2509 28.7909 47.2926 29.5492C47.3759 30.7493 46.7926 31.8409 46.3342 32.9076C45.9509 33.7743 45.2092 34.3743 44.5175 35.0326C44.3342 35.1993 44.0509 35.2576 43.8842 35.4493C43.8341 35.4978 43.7781 35.5397 43.7175 35.5743C43.3092 35.7826 42.8509 35.8576 42.4342 36.0493C42.2675 36.1326 42.1009 36.2826 41.9342 36.3159C41.2333 36.4027 40.5518 36.6055 39.9175 36.9159C39.8072 36.9647 39.7121 37.0425 39.6425 37.141L39.5342 37.0659" fill="#406325"/>
<path d="M39.5342 37.0743C39.6038 36.9758 39.6988 36.898 39.8092 36.8493C40.4509 36.5159 41.0925 36.3659 41.8092 36.2493C41.9842 36.2159 42.1509 36.0576 42.3259 35.9826C42.7425 35.7826 43.2009 35.7076 43.6009 35.5076C43.6634 35.4727 43.7197 35.4276 43.7675 35.3743C43.9342 35.1909 44.2259 35.1326 44.4009 34.9576C45.1009 34.3076 45.8342 33.7076 46.2175 32.8326C46.6842 31.7743 47.2592 30.6826 47.1842 29.4826C47.1342 28.7159 47.2426 27.9492 47.0592 27.2326C46.8277 26.1492 46.3922 25.1198 45.7759 24.1992L45.8842 24.2659C46.5013 25.183 46.937 26.2098 47.1676 27.2909C47.3592 28.0159 47.2509 28.7909 47.2926 29.5492C47.3759 30.7493 46.7926 31.8409 46.3342 32.9076C45.9509 33.7743 45.2092 34.3743 44.5175 35.0326C44.3342 35.1993 44.0509 35.2576 43.8842 35.4493C43.8341 35.4978 43.7781 35.5397 43.7175 35.5743C43.3092 35.7826 42.8509 35.8576 42.4342 36.0493C42.2675 36.1326 42.1009 36.2826 41.9342 36.3159C41.2333 36.4027 40.5518 36.6055 39.9175 36.9159C39.8072 36.9647 39.7121 37.0425 39.6425 37.141L39.5342 37.0659" stroke="#24420E" stroke-width="0.0166668"/>
<path d="M46.1342 32.8828C46.3675 32.2662 46.1342 30.8161 46.0175 30.6328C45.4592 31.9162 45.7342 32.9328 46.1342 32.8828Z" fill="#406325" stroke="#24420E" stroke-width="0.0166668"/>
<path d="M45.5427 33.4659C45.7344 32.9993 45.5927 31.8576 45.5094 31.7159C45.0427 32.6909 45.2344 33.4909 45.5427 33.4659ZM46.9427 27.2909C46.5243 26.7531 45.9728 26.3337 45.3427 26.0742C45.8594 27.1826 46.7177 27.5909 46.9427 27.2909Z" fill="#406325" stroke="#24420E" stroke-width="0.0166668"/>
<path d="M46.8177 26.6241C46.5422 26.0634 46.1258 25.5839 45.6094 25.2324C45.8594 26.3158 46.5594 26.8408 46.8177 26.6241ZM47.2094 27.8741C46.9177 27.5324 45.9427 27.2074 45.7927 27.2241C46.376 27.9741 47.0927 28.1324 47.2094 27.8658V27.8741ZM46.9761 31.7325C47.5723 31.7283 48.1565 31.5642 48.6677 31.2575C47.5927 31.0241 46.876 31.4158 46.9761 31.7325ZM46.9677 31.2575C46.9677 30.7908 46.4344 29.8574 46.301 29.7574C46.251 30.7574 46.701 31.3825 46.9677 31.2575Z" fill="#406325" stroke="#24420E" stroke-width="0.0166668"/>
<path d="M47.0007 30.1161C46.8839 29.3944 46.5792 28.7161 46.1173 28.1494C46.0507 29.4994 46.6423 30.2994 47.0007 30.1161ZM42.584 36.3911C43.1092 36.8543 43.7473 37.1705 44.434 37.3078C43.7007 36.2828 42.759 36.0495 42.5923 36.3911H42.584Z" fill="#406325" stroke="#24420E" stroke-width="0.0166668"/>
<path d="M46.1347 32.8666C45.7263 32.9166 45.4597 31.9166 46.018 30.6333C45.9763 31.8166 46.0347 32.775 46.1347 32.8666ZM41.6847 36.5083C42.3625 36.6618 42.9886 36.9892 43.5013 37.4583C42.2513 37.4666 41.5013 36.85 41.6847 36.5083ZM41.6847 35.8416C41.8513 35.175 42.9347 34.075 43.143 34C42.843 35.425 42.0013 36.125 41.6847 35.85V35.8416ZM43.4597 35.4916C43.3763 34.8416 43.9263 33.475 44.0847 33.325C44.3347 34.7 43.8347 35.625 43.4597 35.4916ZM45.243 34.2833C45.757 33.824 46.3792 33.5028 47.0514 33.35C46.3097 34.3583 45.393 34.6083 45.243 34.2833ZM47.393 29.8416C47.4764 29.3166 48.2014 28.3499 48.3597 28.2666C48.2597 29.3999 47.668 30.0166 47.393 29.8499V29.8416Z" fill="#67923D" stroke="#24420E" stroke-width="0.0166668"/>
<path d="M46.4182 33.0163C47.0467 32.6951 47.7461 32.5374 48.4516 32.5579C47.4682 33.3663 46.4932 33.3746 46.4182 33.0163ZM47.2766 30.9746C47.6542 30.4518 48.1629 30.0379 48.7516 29.7746C48.2682 30.8579 47.4766 31.2579 47.2766 30.9746ZM47.1516 27.1746C47.1516 26.5412 47.8182 25.2829 47.9849 25.1579C48.0766 26.4996 47.5099 27.3412 47.1516 27.1746ZM46.5682 25.0079C46.4293 24.461 46.4293 23.8881 46.5682 23.3412C47.0266 24.2579 46.8766 25.0246 46.5682 25.0079ZM46.2266 24.8329C45.7863 24.3013 45.4855 23.6683 45.3516 22.9912C46.3349 23.7662 46.5516 24.6912 46.2182 24.8329H46.2266Z" fill="#67923D" stroke="#24420E" stroke-width="0.0166668"/>
<path d="M47.1932 27.7074C47.1682 27.7824 47.4432 27.0658 48.3766 26.4324C48.0432 27.6241 47.4599 27.9574 47.1932 27.7074ZM44.3516 35.2075C44.9349 34.7741 46.5599 34.5658 46.7849 34.6408C45.6016 35.6241 44.4349 35.6408 44.3516 35.1991V35.2075ZM45.5432 33.4658C45.2349 33.4825 45.0432 32.6908 45.5016 31.7158C45.4432 32.6325 45.4682 33.3825 45.5432 33.4658ZM46.9516 27.2991C46.7266 27.5908 45.8682 27.1908 45.3516 26.0741C45.8193 26.5594 46.359 26.9697 46.9516 27.2908V27.2991ZM46.8099 26.6241C46.5516 26.8408 45.8682 26.3241 45.6099 25.2324C46.1682 26.0158 46.6932 26.6074 46.8099 26.6241ZM47.2099 27.8741C47.0932 28.1408 46.3849 27.9824 45.8016 27.2324C46.6682 27.7241 47.0099 27.9408 47.2182 27.8741H47.2099ZM46.9932 31.7241C46.8849 31.4158 47.6016 31.0325 48.6766 31.2658C48.0954 31.3321 47.5278 31.4866 46.9932 31.7241ZM46.9599 31.2575C46.6932 31.3825 46.2516 30.7658 46.2932 29.7658C46.442 30.2953 46.6666 30.8005 46.9599 31.2658V31.2575Z" fill="#67923D" stroke="#24420E" stroke-width="0.0166668"/>
<path d="M46.9933 30.1331C46.6433 30.3165 46.0516 29.5165 46.1182 28.1748C46.4849 29.2415 46.8683 30.0831 46.9933 30.1331ZM42.6016 36.3832C42.7682 36.0498 43.6932 36.2748 44.4349 37.2999C43.8745 36.902 43.2561 36.5928 42.6016 36.3832Z" fill="#67923D" stroke="#24420E" stroke-width="0.0166668"/>
<path d="M43.459 35.4826C43.8423 35.6159 44.334 34.6992 44.0923 33.3242C43.859 34.4909 43.5757 35.4159 43.459 35.4909V35.4826Z" fill="#406325" stroke="#24420E" stroke-width="0.0166668"/>
<path d="M44.3177 35.0496C44.6332 34.3439 44.765 33.5699 44.701 32.7996C43.8677 33.9329 43.9177 34.9913 44.3177 35.0496ZM41.676 36.4996C41.5093 36.8413 42.2343 37.4579 43.4927 37.4413C42.8424 37.2225 42.2296 36.9049 41.676 36.4996ZM41.6927 35.8329C42.0093 36.1079 42.8427 35.4163 43.1427 33.9913C42.4677 35.0246 41.8343 35.8079 41.6927 35.8246V35.8329ZM45.251 34.2746C45.401 34.6079 46.3094 34.3579 47.0594 33.3496C46.5045 33.7437 45.8953 34.0553 45.251 34.2746ZM47.401 29.8329C47.676 30.0079 48.2594 29.3912 48.3594 28.2662C48.1193 28.833 47.7963 29.361 47.401 29.8329ZM46.4177 33.0163C46.4927 33.3829 47.451 33.3663 48.4427 32.5579C47.401 32.8913 46.526 33.0746 46.4177 33.0163ZM47.276 30.9663C47.4844 31.2496 48.2677 30.8496 48.751 29.7662C48.3234 30.239 47.826 30.6437 47.276 30.9663ZM47.1677 27.1662C47.526 27.3329 48.0844 26.4996 48.001 25.1662C47.651 26.2496 47.2927 27.1079 47.1677 27.1662ZM46.5844 25.0079C46.8844 25.0162 47.0427 24.2579 46.5844 23.3412C46.6594 24.2162 46.651 24.9329 46.5844 25.0079ZM46.2344 24.8246C46.5677 24.6829 46.351 23.7662 45.3677 22.9912C45.7464 23.5557 46.0385 24.1736 46.2344 24.8246ZM47.201 27.7162C47.4677 27.9662 48.051 27.6329 48.3844 26.4329C47.7344 27.2746 47.326 27.6996 47.201 27.7162ZM44.3677 35.2079C44.451 35.6413 45.6094 35.6246 46.7844 34.6496C45.5427 35.0496 44.501 35.2829 44.3677 35.2079Z" fill="#406325" stroke="#24420E" stroke-width="0.0166668"/>
<path d="M44.9264 34.5662C45.166 34.0421 45.2692 33.4659 45.2264 32.8912C44.6014 33.7245 44.6264 34.5162 44.9264 34.5578V34.5662ZM46.5597 32.1745C46.8118 31.5691 46.8981 30.9076 46.8097 30.2578C46.1181 31.2495 46.2014 32.1495 46.5597 32.1745Z" fill="#406325" stroke="#24420E" stroke-width="0.0166668"/>
<path d="M44.3171 35.041C43.9171 34.991 43.8754 33.9327 44.6921 32.8077C44.3921 33.9577 44.2421 34.9243 44.3171 35.041ZM47.2504 29.3493C47.1671 28.7076 47.5838 27.6743 47.8004 27.4743C48.0088 28.6743 47.5754 29.4743 47.2421 29.3493H47.2504ZM44.9171 34.5577C44.6171 34.516 44.5921 33.7243 45.2087 32.891C45.028 33.4287 44.9297 33.9906 44.9171 34.5577ZM46.8671 25.8743C46.6838 25.3743 46.8671 24.2076 46.9671 24.0576C47.4087 25.0743 47.1838 25.8993 46.8671 25.8743ZM42.0254 35.8827C42.2337 35.216 43.3754 34.1327 43.5921 34.0577C43.2337 35.5077 42.3421 36.1827 42.0254 35.891V35.8827ZM46.5671 32.416C46.9164 31.861 47.4048 31.4071 47.9838 31.0993C47.5671 32.2327 46.7921 32.691 46.5671 32.416ZM46.5587 32.166C46.2004 32.1327 46.1171 31.2493 46.8087 30.2576C46.6244 30.8764 46.54 31.5206 46.5587 32.166Z" fill="#67923D" stroke="#24420E" stroke-width="0.0166668"/>
<path d="M47.251 29.4995C47.6843 29.6578 48.001 28.6828 47.801 27.5078C47.7032 28.1951 47.5184 28.8672 47.251 29.5078V29.4995Z" fill="#406325" stroke="#24420E" stroke-width="0.0166668"/>
<path d="M47.318 29.466C47.3597 28.841 46.7347 27.5493 46.568 27.4076C46.4013 28.7243 46.943 29.5993 47.318 29.466ZM46.8847 25.866C47.2013 25.8993 47.418 25.0826 46.9763 24.0576C47.0334 24.662 46.9997 25.2715 46.8763 25.866H46.8847ZM42.043 35.8743C42.3596 36.1743 43.243 35.5077 43.6013 34.0577C42.868 35.0827 42.1846 35.8577 42.043 35.8743ZM46.593 32.416C46.8263 32.691 47.593 32.241 48.0097 31.0993C47.6059 31.6066 47.1284 32.0504 46.593 32.416Z" fill="#406325" stroke="#24420E" stroke-width="0.0166668"/>
<path d="M47.3092 29.4577C46.9342 29.5994 46.4009 28.7327 46.5675 27.416C46.8592 28.516 47.1925 29.391 47.3092 29.4577Z" fill="#67923D" stroke="#24420E" stroke-width="0.0166668"/>
<path d="M47.0506 26.3327C47.1013 26.3327 47.1423 26.2917 47.1423 26.2411C47.1423 26.1905 47.1013 26.1494 47.0506 26.1494C47 26.1494 46.959 26.1905 46.959 26.2411C46.959 26.2917 47 26.3327 47.0506 26.3327Z" fill="#BA1F3E" stroke="#511124" stroke-width="0.0166668"/>
<path d="M47.368 27.324C47.4187 27.324 47.4597 27.2829 47.4597 27.2323C47.4597 27.1817 47.4187 27.1406 47.368 27.1406C47.3174 27.1406 47.2764 27.1817 47.2764 27.2323C47.2764 27.2829 47.3174 27.324 47.368 27.324Z" fill="#BA1F3E" stroke="#511124" stroke-width="0.0166668"/>
<path d="M47.4843 30.4657C47.5441 30.4657 47.5926 30.4172 47.5926 30.3574C47.5926 30.2975 47.5441 30.249 47.4843 30.249C47.4245 30.249 47.376 30.2975 47.376 30.3574C47.376 30.4172 47.4245 30.4657 47.4843 30.4657Z" fill="#BA1F3E" stroke="#511124" stroke-width="0.0166668"/>
<path d="M47.0507 29.8827C47.1105 29.8827 47.1591 29.8342 47.1591 29.7743C47.1591 29.7145 47.1105 29.666 47.0507 29.666C46.9909 29.666 46.9424 29.7145 46.9424 29.7743C46.9424 29.8342 46.9909 29.8827 47.0507 29.8827Z" fill="#BA1F3E" stroke="#511124" stroke-width="0.0166668"/>
<path d="M45.8261 33.2079C45.8859 33.2079 45.9344 33.1594 45.9344 33.0995C45.9344 33.0397 45.8859 32.9912 45.8261 32.9912C45.7663 32.9912 45.7178 33.0397 45.7178 33.0995C45.7178 33.1594 45.7663 33.2079 45.8261 33.2079Z" fill="#BA1F3E" stroke="#511124" stroke-width="0.0166668"/>
<path d="M46.3505 33.4325C46.4104 33.4325 46.4589 33.384 46.4589 33.3242C46.4589 33.2643 46.4104 33.2158 46.3505 33.2158C46.2907 33.2158 46.2422 33.2643 46.2422 33.3242C46.2422 33.384 46.2907 33.4325 46.3505 33.4325Z" fill="#BA1F3E" stroke="#511124" stroke-width="0.0166668"/>
<path d="M42.8173 36.1327C42.8771 36.1327 42.9257 36.0842 42.9257 36.0243C42.9257 35.9645 42.8771 35.916 42.8173 35.916C42.7575 35.916 42.709 35.9645 42.709 36.0243C42.709 36.0842 42.7575 36.1327 42.8173 36.1327Z" fill="#BA1F3E" stroke="#511124" stroke-width="0.0166668"/>
<path d="M42.2343 36.5497C42.2941 36.5497 42.3426 36.5012 42.3426 36.4413C42.3426 36.3815 42.2941 36.333 42.2343 36.333C42.1745 36.333 42.126 36.3815 42.126 36.4413C42.126 36.5012 42.1745 36.5497 42.2343 36.5497Z" fill="#BA1F3E" stroke="#511124" stroke-width="0.0166668"/>
<path d="M46.4178 25.866C46.4685 25.866 46.5095 25.8249 46.5095 25.7743C46.5095 25.7237 46.4685 25.6826 46.4178 25.6826C46.3672 25.6826 46.3262 25.7237 46.3262 25.7743C46.3262 25.8249 46.3672 25.866 46.4178 25.866Z" fill="#BA1F3E" stroke="#511124" stroke-width="0.0166668"/>
<path d="M36.1916 33.0257C36.1749 33.109 36.2583 33.2173 36.3583 33.1923C36.3999 33.1923 36.4166 33.1507 36.3749 33.1507C36.3416 33.159 36.2999 33.1507 36.2749 33.1257C36.2521 33.1052 36.2365 33.0779 36.2305 33.0479C36.2245 33.0178 36.2284 32.9866 36.2416 32.959L36.1916 33.0257Z" fill="#8C959D" stroke="#485654" stroke-width="0.00833338"/>
<path d="M36.4337 33.1915C36.3504 33.2915 36.2254 33.3332 36.1504 33.2665C36.1004 33.2165 36.0837 33.1665 36.1087 33.0999L36.0254 33.2082C36.055 33.2696 36.1012 33.3216 36.1587 33.3582C36.2587 33.3999 36.4087 33.3332 36.4921 33.2249C36.5587 33.1415 36.6254 33.0249 36.5754 32.9249C36.5374 32.8602 36.4786 32.8103 36.4087 32.7832L36.3254 32.8665C36.3671 32.8499 36.4254 32.8665 36.4671 32.8999C36.5754 32.9832 36.5087 33.1082 36.4337 33.1915Z" fill="#8C959D"/>
<path d="M36.4333 33.1921C36.4082 33.2253 36.3771 33.2536 36.3416 33.2754C36.2999 33.2921 36.2583 33.3087 36.2166 33.3004C36.1953 33.2972 36.1752 33.2886 36.1583 33.2754C36.1417 33.2611 36.1277 33.2442 36.1166 33.2254C36.1037 33.2082 36.0951 33.1882 36.0916 33.1671C36.0916 33.1421 36.0916 33.1254 36.1083 33.1004L36.1166 33.1087L36.0249 33.2087C36.0499 33.2421 36.0749 33.2837 36.1083 33.3087L36.1666 33.3504C36.188 33.3577 36.2107 33.3605 36.2333 33.3587C36.2808 33.3578 36.327 33.3433 36.3666 33.3171C36.407 33.2953 36.4436 33.2672 36.4749 33.2337L36.5583 33.1171C36.5749 33.0754 36.5833 33.0337 36.5833 32.9837C36.5829 32.9605 36.5772 32.9377 36.5666 32.9171C36.555 32.8986 36.5409 32.8818 36.5249 32.8671C36.4922 32.8315 36.4525 32.8032 36.4083 32.7837H36.4166L36.3333 32.8754H36.3249C36.3416 32.8587 36.3666 32.8587 36.3916 32.8587C36.4225 32.8637 36.4515 32.8772 36.4751 32.8979C36.4986 32.9185 36.5159 32.9454 36.5249 32.9754C36.5333 33.0171 36.5249 33.0587 36.5083 33.0921C36.4883 33.1289 36.4631 33.1626 36.4333 33.1921ZM36.4333 33.1921C36.4666 33.1671 36.4833 33.1337 36.4999 33.0921C36.5166 33.0587 36.5249 33.0087 36.5166 32.9754C36.502 32.9398 36.4755 32.9103 36.4416 32.8921C36.4083 32.8671 36.3583 32.8587 36.3333 32.8754H36.3249L36.4083 32.7754C36.4764 32.8014 36.5346 32.848 36.5749 32.9087C36.5916 32.9337 36.5999 32.9587 36.5999 32.9921C36.5999 33.0337 36.5916 33.0754 36.5666 33.1254C36.5442 33.1679 36.5162 33.2071 36.4833 33.2421C36.4583 33.2837 36.4166 33.3087 36.3749 33.3337C36.3333 33.3587 36.2916 33.3754 36.2333 33.3754C36.2107 33.3767 36.1881 33.3739 36.1666 33.3671C36.1421 33.3572 36.1195 33.3431 36.0999 33.3254C36.0656 33.2916 36.0374 33.2521 36.0166 33.2087L36.0999 33.1004H36.1166L36.1083 33.1671C36.1083 33.1837 36.1083 33.2087 36.1249 33.2254L36.1666 33.2671L36.2166 33.2921C36.2583 33.3004 36.2999 33.2921 36.3416 33.2671C36.3764 33.2477 36.4074 33.2223 36.4333 33.1921Z" fill="#485654"/>
<path d="M42.9336 25.7749L39.5919 29.0666L36.1669 32.3333L35.7835 32.7833C35.6169 32.975 35.4169 33.225 35.1835 33.45C35.1502 33.5 35.0919 33.4833 35.0419 33.5166C34.8867 33.6158 34.7465 33.7365 34.6252 33.875L33.6002 35C33.5418 35.075 33.5168 35.1166 33.5668 35.1666L34.1169 35.9C34.2169 36 34.3335 36.05 34.3835 35.9667C34.6419 35.5083 35.3002 34.8166 35.5502 34.275C35.6919 33.9416 35.8752 33.35 36.0085 33.2083C36.1752 33.025 36.6002 32.5583 36.9919 32.15L37.0752 32.0666L37.1502 31.9833C39.1085 29.9833 41.3752 27.5583 43.0252 25.8499L42.9419 25.7666L42.9336 25.7749Z" fill="#6C301E" stroke="#351710" stroke-width="0.0166668" stroke-linejoin="round"/>
<path d="M35.9917 32.3423C35.8917 32.3423 35.825 32.2839 35.75 32.2256C35.85 32.2589 35.95 32.2923 36.0417 32.2589L35.9917 32.3423Z" fill="#8C959D" stroke="#485654" stroke-width="0.00833338"/>
<path d="M46.4169 23.3418L43.7669 25.5251C43.7419 25.5585 43.7169 25.5501 43.6919 25.5251L43.4502 25.3251V25.2751L43.5669 25.1585C43.5836 25.1418 43.5669 25.1335 43.5586 25.1085L43.5086 25.0585C43.4836 25.0501 43.4669 25.0585 43.4502 25.0751L43.3336 25.2001C43.2752 25.2001 43.2252 25.2501 43.2169 25.3168C41.6169 26.8751 40.2336 28.2668 38.6419 29.8002L36.7585 31.6002C36.6919 31.6835 36.4002 31.8418 36.2085 31.9668C36.1503 31.9975 36.0992 32.0401 36.0585 32.0918L35.9085 32.5502L35.7002 32.9002C35.8919 33.1002 35.8835 33.0835 36.0169 33.2085L36.9502 32.2168L37.0169 32.1335C36.9816 32.086 36.9426 32.0414 36.9002 32.0002C36.8675 31.9716 36.8342 31.9439 36.8002 31.9168L36.7502 31.8668C36.7335 31.8502 36.7669 31.8252 36.7835 31.8085C38.9919 29.6835 41.3669 27.3335 43.3086 25.4251C43.3354 25.4354 43.3651 25.4354 43.3919 25.4251L43.6252 25.6918C43.6752 25.7418 43.7252 25.7418 43.7669 25.7251L46.4252 23.3418H46.4169Z" fill="#B2B6BA" stroke="#485654" stroke-width="0.0166668"/>
<path d="M35.9165 32.5335H35.9582C35.9753 32.5341 35.9923 32.5313 36.0082 32.5251C36.0472 32.391 36.0889 32.2576 36.1332 32.1251C36.1172 32.1089 36.097 32.0974 36.0749 32.0918C36.0999 32.0918 36.1165 32.1085 36.1332 32.1251L36.0749 32.3251L36.0165 32.5251C36.0014 32.5344 35.9843 32.5401 35.9665 32.5418C35.9468 32.5414 35.9272 32.5386 35.9082 32.5335H35.9165Z" fill="#485654"/>
<path d="M36.5168 32.392C36.5444 32.392 36.5668 32.3696 36.5668 32.342C36.5668 32.3144 36.5444 32.292 36.5168 32.292C36.4892 32.292 36.4668 32.3144 36.4668 32.342C36.4668 32.3696 36.4892 32.392 36.5168 32.392Z" stroke="#485654" stroke-width="0.0166668"/>
<path d="M36.2004 32.7084C36.228 32.7084 36.2504 32.686 36.2504 32.6584C36.2504 32.6308 36.228 32.6084 36.2004 32.6084C36.1728 32.6084 36.1504 32.6308 36.1504 32.6584C36.1504 32.686 36.1728 32.7084 36.2004 32.7084Z" stroke="#485654" stroke-width="0.0166668"/>
<path d="M36.7506 31.8667L36.6673 31.8001C36.644 31.7789 36.6217 31.7567 36.6006 31.7334C36.6552 31.7724 36.7054 31.8171 36.7506 31.8667Z" fill="#485654"/>
<path d="M41.8506 26.5837L42.1423 26.8753L42.1923 26.8253L41.9006 26.542L41.8506 26.592V26.5837Z" fill="#8C959D" stroke="#485654" stroke-width="0.00833338"/>
<path d="M40.3741 -16.6529L40.097 -16.9585L40.0447 -16.911L40.3221 -16.6138L40.3745 -16.6613L40.3741 -16.6529Z" fill="#8C959D" stroke="#485654" stroke-width="0.00833338"/>
<path d="M36.1673 35.4499C35.3612 35.2572 34.5183 35.2831 33.7256 35.5249C35.0839 36.1915 36.1839 35.9082 36.1589 35.4415L36.1673 35.4499ZM43.584 35.7249C44.3878 35.5328 45.2285 35.5615 46.0173 35.8082C44.659 36.4665 43.5506 36.1832 43.5756 35.7249H43.584Z" fill="#67923D" stroke="#24420E" stroke-width="0.0166668"/>
<path d="M36.1506 35.4585C36.1756 35.9169 35.0839 36.2002 33.7256 35.5335C35.0006 35.6169 36.0423 35.5669 36.1423 35.4502L36.1506 35.4585ZM43.5923 35.7335C43.5673 36.1919 44.659 36.4752 46.009 35.8085C44.7423 35.8919 43.7006 35.8419 43.5923 35.7252V35.7335Z" fill="#406325" stroke="#24420E" stroke-width="0.0166668"/>
<path d="M42.3759 34.9993C40.6976 32.6732 38.5337 30.7397 36.0342 29.3326C36.3342 29.316 36.9925 29.6576 37.2592 29.8326C39.2509 31.116 40.9509 32.8076 42.7259 34.816C42.6369 34.9053 42.5423 34.9888 42.4425 35.066L42.3759 34.9993Z" fill="#B2B6BA" stroke="#485654" stroke-width="0.0166668"/>
<path d="M42.5504 34.9836L42.4171 35.0836C40.5004 32.6169 37.8254 30.2585 36.0254 29.3252C38.5337 30.4835 40.6421 32.8085 42.5254 34.9669H42.5421L42.5504 34.9836Z" fill="#8C959D"/>
<path d="M42.5504 34.9831L42.4171 35.0831C41.9714 34.516 41.5015 33.9682 41.0087 33.4414C40.5202 32.9137 40.0115 32.405 39.4837 31.9164C38.9554 31.4249 38.4048 30.9577 37.8337 30.5164C37.5464 30.2956 37.2518 30.0843 36.9504 29.8831C36.6504 29.6914 36.3421 29.4997 36.0254 29.3331V29.3164C36.6845 29.6248 37.3124 29.996 37.9004 30.4247C38.4839 30.8512 39.0405 31.3131 39.5671 31.8081C40.0938 32.3034 40.6025 32.8177 41.0921 33.3498C41.5921 33.8831 42.0588 34.4331 42.5421 34.9664L42.5504 34.9831ZM42.5504 34.9831C42.0722 34.4372 41.586 33.8982 41.0921 33.3664C40.6025 32.8343 40.0938 32.3201 39.5671 31.8248C39.0403 31.33 38.4837 30.868 37.9004 30.4414C37.3151 30.0154 36.69 29.647 36.0337 29.3414V29.3247C36.6616 29.6825 37.2656 30.0806 37.8421 30.5164C38.4159 30.9576 38.9693 31.4247 39.5004 31.9164C40.0281 32.405 40.5369 32.9137 41.0254 33.4414C41.5155 33.9711 41.9826 34.5216 42.4254 35.0914L42.5504 34.9748V34.9831Z" fill="#485654"/>
<path d="M43.125 34.583C42.9686 34.6231 42.8195 34.6878 42.6833 34.7747C42.6667 34.8913 42.5167 35.0247 42.3833 35.0497L42.3417 34.983C42.3417 34.9808 42.3408 34.9787 42.3392 34.9771C42.3377 34.9756 42.3356 34.9747 42.3333 34.9747C42.3311 34.9747 42.329 34.9756 42.3275 34.9771C42.3259 34.9787 42.325 34.9808 42.325 34.983C42.308 34.9906 42.2913 34.9989 42.275 35.008C42.225 35.008 42.1667 35.0247 42.1417 35.0913C42.1083 35.1747 42.175 35.283 42.2417 35.3497C42.325 35.408 42.3583 35.433 42.4417 35.433C42.5333 35.408 42.5833 35.3247 42.6083 35.2997C42.9167 35.6747 43.15 35.883 43.5417 36.183C43.7167 36.183 43.8084 36.0747 43.75 35.9497C43.7334 35.908 43.6834 35.883 43.6417 35.8997V35.858C43.8417 35.6747 43.9334 35.4413 43.7167 35.033C43.5333 34.6997 43.325 34.5913 43.1333 34.5913L43.125 34.583ZM43.65 34.9663L43.7334 35.133C43.8584 35.383 43.75 35.683 43.5334 35.783H43.5167C43.55 35.7247 43.45 35.5997 43.4 35.6413C43.425 35.583 43.3417 35.4747 43.275 35.4997C43.3083 35.4413 43.2334 35.3413 43.1584 35.3747C43.1917 35.3163 43.1333 35.2247 43.05 35.2413C43.075 35.1663 43.0167 35.0913 42.9417 35.108C42.9417 35.0413 42.925 35.008 42.9 34.983C42.9833 34.9163 43.0917 34.808 43.1834 34.758C43.4084 34.658 43.55 34.8413 43.6417 34.9663H43.65Z" fill="#FAB81C" stroke="#6C301E" stroke-width="0.0166668"/>
<path d="M43.7417 35.2332C43.7001 35.2082 43.6751 35.1666 43.6917 35.1416C43.7084 35.1082 43.7501 35.0999 43.7917 35.1249C43.8334 35.1416 43.8584 35.1832 43.8417 35.2082C43.8334 35.2416 43.7834 35.2499 43.7417 35.2332Z" fill="#FAB81C" stroke="#6C301E" stroke-width="0.00833338"/>
<path d="M43.7164 35.1498C43.6747 35.1248 43.6497 35.0831 43.6664 35.0498C43.683 35.0248 43.7247 35.0165 43.7664 35.0415C43.808 35.0581 43.833 35.0998 43.8164 35.1248C43.808 35.1581 43.758 35.1665 43.7164 35.1498Z" fill="#FAB81C" stroke="#6C301E" stroke-width="0.00833338"/>
<path d="M43.6665 35.0493C43.6249 35.0326 43.5999 34.991 43.6165 34.966C43.6332 34.9326 43.6749 34.9243 43.7165 34.941C43.7582 34.966 43.7832 35.0076 43.7665 35.0326C43.7582 35.066 43.7082 35.0743 43.6665 35.0493Z" fill="#FAB81C" stroke="#6C301E" stroke-width="0.00833338"/>
<path d="M43.6001 34.9666C43.5585 34.9416 43.5335 34.8999 43.5501 34.8749C43.5668 34.8499 43.6085 34.8416 43.6501 34.8583C43.6918 34.8833 43.7168 34.9249 43.7085 34.9499C43.6918 34.9749 43.6418 34.9916 43.6001 34.9666Z" fill="#FAB81C" stroke="#6C301E" stroke-width="0.00833338"/>
<path d="M43.5162 34.8832C43.4662 34.8665 43.4495 34.8165 43.4662 34.7998V34.7832C43.4829 34.7915 43.5245 34.7998 43.5162 34.7748C43.5162 34.7582 43.5079 34.7498 43.5162 34.7582L43.5662 34.7748C43.6079 34.7998 43.6329 34.8415 43.6162 34.8665C43.5995 34.8998 43.5579 34.9082 43.5162 34.8832Z" fill="#FAB81C" stroke="#6C301E" stroke-width="0.00833338"/>
<path d="M42.6084 35.3001C42.6584 35.1501 42.7751 35.0167 42.9001 34.9834L42.6084 35.3001ZM42.6251 35.3167C42.7334 35.3417 42.9001 35.2167 42.9417 35.1084L42.6251 35.3167ZM42.7251 35.4417C42.8584 35.4751 43.0001 35.3417 43.0584 35.2417L42.7251 35.4417ZM42.8501 35.5751C43.0167 35.5751 43.1084 35.4667 43.1584 35.3751L42.8501 35.5751ZM42.9751 35.7084C43.1084 35.7084 43.2417 35.5917 43.2751 35.5001L42.9751 35.7084ZM43.0917 35.8167C43.1535 35.8203 43.2151 35.8066 43.2696 35.7772C43.324 35.7478 43.3692 35.7037 43.4001 35.6501M43.2334 35.9334C43.3667 35.9417 43.4834 35.8584 43.5167 35.7834L43.2334 35.9334ZM43.3834 36.0584C43.5167 36.0584 43.6084 35.9751 43.6417 35.8917L43.3834 36.0584Z" fill="#FAB81C"/>
<path d="M42.6084 35.3001C42.6322 35.23 42.6689 35.1649 42.7167 35.1084L42.8001 35.0251L42.9001 34.9834C42.8642 34.9943 42.8303 35.0112 42.8001 35.0334L42.7167 35.1167C42.6724 35.1726 42.6359 35.2343 42.6084 35.3001ZM42.6251 35.3251C42.6584 35.3251 42.6917 35.3251 42.7251 35.3084C42.7547 35.2951 42.7827 35.2783 42.8084 35.2584L42.8917 35.1917L42.9417 35.1084C42.9337 35.1405 42.9163 35.1695 42.8917 35.1917C42.8675 35.2204 42.8394 35.2456 42.8084 35.2667C42.7824 35.284 42.7544 35.298 42.7251 35.3084C42.6941 35.3237 42.6593 35.3295 42.6251 35.3251ZM42.7251 35.4417H42.8251L42.9084 35.3917C42.9652 35.3518 43.0134 35.3008 43.0501 35.2417C43.0343 35.2719 43.0147 35.2999 42.9917 35.3251C42.9699 35.353 42.9447 35.3782 42.9167 35.4001C42.8912 35.4181 42.8631 35.4321 42.8334 35.4417H42.7251ZM42.8501 35.5751C42.8812 35.5736 42.9121 35.568 42.9417 35.5584C42.9714 35.5487 42.9995 35.5347 43.0251 35.5167C43.0558 35.4984 43.0838 35.476 43.1084 35.4501L43.1584 35.3667C43.132 35.4299 43.0888 35.4847 43.0334 35.5251C42.9799 35.5623 42.9151 35.58 42.8501 35.5751ZM42.9751 35.7001C43.0385 35.6946 43.0991 35.6715 43.1501 35.6334C43.2009 35.5985 43.2436 35.5531 43.2751 35.5001C43.2667 35.5251 43.2501 35.5584 43.2251 35.5834L43.1584 35.6417C43.1326 35.6593 43.1046 35.6733 43.0751 35.6834C43.0417 35.7001 43.0084 35.7001 42.9751 35.7001ZM43.1001 35.8167C43.1282 35.8132 43.1561 35.8076 43.1834 35.8001C43.2124 35.7923 43.2404 35.7811 43.2667 35.7667C43.3231 35.74 43.3697 35.6963 43.4001 35.6417L43.3501 35.7251C43.3251 35.7417 43.3001 35.7667 43.2667 35.7751C43.2152 35.8017 43.1581 35.8159 43.1001 35.8167ZM43.2334 35.9334H43.3167C43.3463 35.9235 43.3744 35.9095 43.4001 35.8917L43.4667 35.8501C43.4917 35.8251 43.5084 35.8084 43.5167 35.7834C43.5072 35.8081 43.4931 35.8307 43.4751 35.8501C43.4527 35.8704 43.4274 35.8873 43.4001 35.9001C43.3487 35.9266 43.291 35.9381 43.2334 35.9334ZM43.3834 36.0584C43.4114 36.0591 43.4394 36.0563 43.4667 36.0501C43.5183 36.0359 43.5647 36.0069 43.6001 35.9667C43.6165 35.9462 43.6305 35.9239 43.6417 35.9001C43.623 35.9516 43.5879 35.9955 43.5417 36.0251C43.5156 36.0382 43.4874 36.0467 43.4584 36.0501C43.4308 36.0547 43.4027 36.0547 43.3751 36.0501L43.3834 36.0584Z" fill="#6C301E"/>
<path d="M34.0998 25.0005C34.7602 24.6505 35.3197 24.1369 35.7248 23.5088C34.4248 23.8588 33.8332 24.7088 34.0998 25.0088V25.0005ZM46.2499 25.3921C45.9658 24.7371 45.5181 24.1661 44.9499 23.7338C45.1832 25.0005 45.9499 25.6338 46.2499 25.4005V25.3921Z" fill="#406325" stroke="#24420E" stroke-width="0.0166668"/>
<path d="M34.1003 25.0009C33.8253 24.7093 34.4169 23.8676 35.7169 23.5176C34.8003 24.2176 34.1169 24.8676 34.1003 25.0009ZM46.2503 25.3926C45.942 25.6426 45.192 25.0093 44.9587 23.7509C45.5587 24.6676 46.1253 25.3759 46.2503 25.3926Z" fill="#67923D" stroke="#24420E" stroke-width="0.0166668"/>
<path d="M37.6837 31.5091C37.6837 31.5091 37.167 31.5674 37.0253 30.8591C36.8753 30.1007 37.467 30.0257 37.467 30.0257C37.467 30.0257 38.142 29.9507 38.567 29.9424L38.7503 31.4424L37.6837 31.5091Z" fill="url(#paint0_radial_3732_58185)" stroke="#999270" stroke-width="0.0166668"/>
<path d="M37.7498 31.2833C37.7498 31.2833 37.4165 31.3416 37.3498 30.8166C37.2998 30.4416 37.5331 30.3916 37.5331 30.3916L38.2998 30.5249V31.2083L37.7498 31.2833Z" fill="url(#paint1_radial_3732_58185)" stroke="#999270" stroke-width="0.0166668"/>
<path d="M37.5332 30.3919C37.5332 30.3919 38.0249 30.3585 38.2832 30.3252L38.3915 30.8002L37.7999 30.8335C37.7999 30.8335 37.7582 30.4085 37.5332 30.3919Z" fill="url(#paint2_radial_3732_58185)" stroke="#999270" stroke-width="0.0166668"/>
<path d="M37.4336 30.0332C37.4336 30.0332 38.0586 29.8749 38.1419 30.5749C38.1586 30.7499 38.0586 31.1665 37.7503 31.2832L38.9086 31.1582L38.8003 29.9082L38.4169 29.9415C38.4169 29.9415 37.5836 29.9665 37.4336 30.0249V30.0332Z" fill="url(#paint3_radial_3732_58185)" stroke="#999270" stroke-width="0.0166668"/>
<path d="M37.6836 31.5088C37.6836 31.5088 42.0086 31.2171 42.4503 31.2338C43.767 30.5171 42.4503 27.6921 41.342 26.1088C41.467 25.7504 38.8503 24.9504 37.6753 25.0254C37.517 25.0254 37.3753 25.0421 37.2419 25.0504C36.6003 25.1171 36.5919 25.9421 36.8503 26.4671C37.1003 26.9671 39.3753 31.0505 37.7836 31.4921L37.6836 31.5088Z" fill="#F9F0AA" stroke="#999270" stroke-width="0.0166668"/>
<path d="M42.317 27.7755C42.0359 27.1953 41.7099 26.6381 41.342 26.1088C41.467 25.7504 38.8503 24.9504 37.6753 25.0254C37.517 25.0254 37.3753 25.0421 37.2419 25.0504C36.6003 25.1171 36.5919 25.9421 36.8503 26.4671C36.9336 26.6171 37.2086 27.1338 37.5086 27.7755" fill="url(#paint4_linear_3732_58185)"/>
<path d="M42.317 27.7755C42.0359 27.1953 41.7099 26.6381 41.342 26.1088C41.467 25.7504 38.8503 24.9504 37.6753 25.0254C37.517 25.0254 37.3753 25.0421 37.2419 25.0504C36.6003 25.1171 36.5919 25.9421 36.8503 26.4671C36.9336 26.6171 37.2086 27.1338 37.5086 27.7755" stroke="#999270" stroke-width="0.0166668"/>
<path d="M37.9169 28.7501C38.3836 29.9667 38.6419 31.2501 37.7836 31.4834L37.6836 31.5084C37.6836 31.5084 42.0169 31.2167 42.4503 31.2334C43.167 30.8417 43.1003 29.8334 42.7169 28.7334" fill="url(#paint5_linear_3732_58185)"/>
<path d="M37.9169 28.7501C38.3836 29.9667 38.6419 31.2501 37.7836 31.4834L37.6836 31.5084C37.6836 31.5084 42.0169 31.2167 42.4503 31.2334C43.167 30.8417 43.1003 29.8334 42.7169 28.7334" stroke="#999270" stroke-width="0.0166668"/>
<path d="M37.2833 25.2917C36.975 25.2917 36.8916 25.5917 36.9 25.775C36.9083 26.275 37.2833 26.2917 37.2833 26.2917L37.7833 26.2667L38.0166 25.25L37.2833 25.2917Z" fill="url(#paint6_radial_3732_58185)" stroke="#999270" stroke-width="0.0166668"/>
<path d="M37.2832 25.2917L38.0165 25.25L38.0999 26.0083L37.4499 26.0417C37.4499 26.0417 37.6582 25.4333 37.2832 25.2917Z" fill="url(#paint7_linear_3732_58185)" stroke="#999270" stroke-width="0.0166668"/>
<path d="M41.3416 26.1086C41.8999 26.0253 41.8916 25.2753 41.5082 24.967C40.2166 24.9253 38.5165 24.9586 37.2915 25.0503C37.4332 25.0503 37.8165 25.0836 37.8665 25.592C37.8752 25.7022 37.8569 25.8128 37.8134 25.9144C37.7698 26.016 37.7023 26.1055 37.6165 26.1753C37.4499 26.292 37.2832 26.292 37.2832 26.292H37.5832L37.8332 26.2586C39.5832 26.0336 41.3332 26.1086 41.3332 26.1086H41.3416Z" fill="url(#paint8_linear_3732_58185)" stroke="#999270" stroke-width="0.0166668"/>
<path d="M38.2083 27.2833C38.1916 27.2583 38.1833 27.225 38.1416 27.2166C38.1249 27.2166 38.0916 27.2166 38.0999 27.1833H38.1666L38.2999 27.1666C38.3333 27.175 38.3249 27.2166 38.2999 27.2083C38.2583 27.2083 38.2833 27.25 38.2916 27.275L38.3999 27.525C38.4083 27.5583 38.4333 27.5833 38.4583 27.5833L38.55 27.575C38.575 27.5583 38.5666 27.525 38.5666 27.4916C38.5583 27.4666 38.6083 27.475 38.6083 27.4916L38.6416 27.6083C38.6416 27.625 38.6249 27.6166 38.6083 27.6166L38.3583 27.6333C38.3333 27.6333 38.2916 27.6583 38.2749 27.6333C38.2749 27.6 38.3249 27.6166 38.3249 27.5916L38.2999 27.5083L38.2083 27.2833ZM38.6083 27.2583C38.5999 27.2333 38.5833 27.2 38.55 27.1916C38.5333 27.1916 38.4999 27.1916 38.4999 27.1583H38.5583L38.6999 27.1416C38.7249 27.1416 38.7333 27.1833 38.6999 27.175C38.6749 27.175 38.675 27.2083 38.6833 27.2333L38.8083 27.5166C38.8083 27.5333 38.825 27.5583 38.85 27.5666C38.875 27.5666 38.9083 27.5666 38.9083 27.5916C38.9083 27.6083 38.875 27.6 38.8583 27.6C38.8133 27.6 38.7685 27.6056 38.725 27.6166C38.7083 27.6166 38.6833 27.6166 38.6833 27.5916C38.6833 27.5666 38.7249 27.5916 38.7333 27.5583C38.7333 27.5333 38.7166 27.5083 38.6999 27.475L38.6083 27.2583ZM38.9833 27.3166C38.9833 27.3333 39.0166 27.3166 39.025 27.3166C39.05 27.3166 39.075 27.3083 39.075 27.2833C39.0728 27.2635 39.0665 27.2443 39.0565 27.2271C39.0464 27.2098 39.0328 27.1949 39.0166 27.1833C38.9916 27.1583 38.95 27.1666 38.925 27.1666L38.9333 27.2083L38.9833 27.3166ZM39.0333 27.45C39.05 27.475 39.0583 27.5083 39.0833 27.5333C39.1 27.55 39.1333 27.5416 39.15 27.5333C39.175 27.5333 39.1916 27.5083 39.1833 27.4916C39.175 27.4333 39.1416 27.3833 39.0833 27.3666C39.0558 27.3608 39.0274 27.3608 39 27.3666L39.0166 27.4083L39.0333 27.45ZM38.8666 27.25C38.85 27.225 38.8416 27.1916 38.8083 27.1666C38.7916 27.1666 38.7583 27.175 38.75 27.15C38.75 27.125 38.7999 27.1416 38.8166 27.1333C38.8916 27.1333 38.9583 27.1083 39.0333 27.1333C39.0916 27.15 39.15 27.2 39.1583 27.2666C39.1583 27.3 39.1333 27.325 39.1083 27.3333L39.15 27.3416C39.2 27.3583 39.2416 27.3916 39.2666 27.4333C39.2833 27.4666 39.2916 27.5166 39.2666 27.55C39.2333 27.5833 39.1833 27.5833 39.15 27.5833C39.0833 27.5833 39.025 27.5833 38.9583 27.6C38.9416 27.6 38.925 27.5583 38.9583 27.5583C38.9833 27.5583 38.9833 27.525 38.975 27.5083L38.8666 27.2583V27.25ZM39.4833 27.0916C39.5083 27.0916 39.5166 27.1166 39.525 27.1333L39.55 27.2083C39.525 27.225 39.5083 27.1916 39.5 27.175C39.4916 27.1583 39.4666 27.1333 39.4416 27.1416C39.4083 27.1392 39.3749 27.1392 39.3416 27.1416C39.325 27.1583 39.3416 27.175 39.35 27.1916L39.4 27.3C39.4166 27.3 39.45 27.3 39.4666 27.2833C39.4666 27.2666 39.4416 27.225 39.4833 27.2333C39.5083 27.25 39.5 27.2833 39.5166 27.3083L39.5583 27.4C39.5333 27.425 39.5166 27.3916 39.5083 27.3666C39.4916 27.3416 39.45 27.3416 39.425 27.3416C39.4083 27.3416 39.425 27.3583 39.425 27.3666L39.475 27.4916C39.4916 27.5166 39.5333 27.5166 39.5583 27.5166C39.5916 27.5166 39.625 27.5166 39.6416 27.4833C39.6583 27.4666 39.6166 27.425 39.6416 27.4166C39.675 27.4166 39.675 27.45 39.6833 27.4666C39.6833 27.4916 39.7 27.5166 39.7083 27.5333C39.7083 27.55 39.6833 27.55 39.675 27.55L39.425 27.5666C39.3916 27.5666 39.35 27.5833 39.3416 27.55C39.3416 27.525 39.3916 27.5416 39.3916 27.5L39.3583 27.4166L39.2666 27.2C39.25 27.175 39.2333 27.15 39.2 27.1416C39.1833 27.1416 39.15 27.1416 39.1666 27.1083H39.25L39.4833 27.0916ZM39.675 27.2C39.6666 27.175 39.65 27.1416 39.6166 27.125C39.6 27.125 39.5583 27.125 39.5583 27.0916C39.5833 27.075 39.6166 27.0916 39.6416 27.0916C39.7083 27.0916 39.775 27.0666 39.8416 27.0916C39.9083 27.1083 39.9666 27.1666 39.975 27.2416C39.975 27.275 39.95 27.3 39.9166 27.3083C39.8916 27.3083 39.9333 27.3166 39.9416 27.325C40 27.35 40.025 27.4 40.0583 27.45C40.0666 27.4666 40.1 27.5083 40.1083 27.4666C40.1083 27.425 40.1666 27.4666 40.15 27.4916C40.15 27.525 40.125 27.5416 40.0916 27.5416C40.0583 27.5416 40.0166 27.525 40 27.4916C39.9666 27.4416 39.9416 27.3833 39.8916 27.35C39.875 27.3333 39.85 27.325 39.825 27.3416V27.375L39.875 27.475C39.8916 27.5 39.925 27.5 39.9583 27.5C39.9833 27.5083 39.975 27.55 39.9416 27.5416H39.8C39.775 27.5583 39.725 27.5416 39.7416 27.5166C39.7666 27.5166 39.8 27.5 39.7833 27.475L39.7 27.2583L39.675 27.2ZM39.7916 27.2833C39.8083 27.3083 39.8416 27.2833 39.8666 27.2833C39.8916 27.2833 39.8916 27.2416 39.8833 27.225C39.875 27.1833 39.85 27.1416 39.8083 27.125C39.7916 27.125 39.7416 27.1083 39.7333 27.1333L39.7916 27.2666V27.275V27.2833ZM40.3916 27.4166C40.4083 27.4416 40.4166 27.4666 40.4416 27.475C40.4583 27.475 40.4916 27.475 40.5 27.5C40.5 27.525 40.4666 27.5083 40.45 27.5166C40.4057 27.5115 40.3609 27.5115 40.3166 27.5166C40.2916 27.525 40.2666 27.5166 40.2666 27.4916C40.2833 27.475 40.325 27.4916 40.325 27.4583L40.2833 27.3666L40.1916 27.125C40.1833 27.1 40.15 27.1 40.1333 27.1C40.1083 27.1 40.075 27.1 40.075 27.1333C40.075 27.1583 40.0916 27.1916 40.075 27.2C40.05 27.2 40.0416 27.175 40.0333 27.1583L40.0083 27.075C40.0083 27.0583 40.0333 27.0666 40.0416 27.0666L40.3916 27.05C40.4166 27.05 40.4333 27.0666 40.4333 27.0916C40.4333 27.1166 40.4583 27.1416 40.4666 27.175C40.4583 27.2 40.425 27.175 40.425 27.15C40.4083 27.125 40.375 27.1 40.3416 27.0916C40.325 27.0916 40.2916 27.0916 40.275 27.1083L40.2916 27.1666L40.3916 27.4166ZM40.7083 27.3416C40.6916 27.3416 40.7 27.3666 40.7 27.375V27.4416C40.7083 27.4666 40.7416 27.4666 40.7666 27.475C40.7833 27.475 40.775 27.5166 40.75 27.5083H40.65C40.625 27.5166 40.5916 27.5 40.6083 27.475C40.625 27.475 40.6416 27.4666 40.65 27.45V27.0333C40.6666 27.0083 40.7 27.0333 40.7 27.0416L41 27.425C41.0166 27.4416 41.0416 27.4583 41.0666 27.4583C41.0916 27.4583 41.1 27.5 41.0666 27.4916H40.9416C40.925 27.4916 40.9 27.5083 40.8833 27.4916C40.8666 27.4833 40.8833 27.4583 40.9 27.4583C40.925 27.4583 40.9 27.425 40.8916 27.4083L40.8416 27.3416H40.7083ZM40.8 27.3C40.8166 27.3 40.8 27.2916 40.8 27.2833L40.6916 27.1416V27.3083H40.8V27.3ZM41.0583 27.15C41.05 27.1166 41.0333 27.0666 40.9916 27.0666C40.9666 27.0666 40.9333 27.05 40.95 27.025H41.0916C41.15 27.025 41.2083 27.025 41.2583 27.0416C41.3222 27.0609 41.3795 27.0976 41.4237 27.1477C41.4679 27.1977 41.4972 27.2591 41.5083 27.325C41.5083 27.375 41.5 27.4333 41.4583 27.4583C41.3916 27.5 41.3166 27.4916 41.25 27.4833L41.1333 27.4916C41.1083 27.4916 41.1 27.45 41.1333 27.4583C41.1666 27.4583 41.1666 27.4166 41.15 27.4L41.0583 27.15ZM41.225 27.3583C41.2333 27.3833 41.2416 27.4166 41.2666 27.4416H41.35C41.3916 27.4416 41.4083 27.4 41.4083 27.3666C41.407 27.305 41.3897 27.2447 41.3583 27.1916C41.3433 27.1624 41.3221 27.1368 41.2962 27.1167C41.2703 27.0965 41.2403 27.0823 41.2083 27.075H41.125C41.1166 27.075 41.125 27.0916 41.125 27.1083L41.225 27.3583ZM39.4666 28.3916C39.4666 28.4166 39.5 28.4416 39.5333 28.4416C39.55 28.4416 39.5916 28.4416 39.5916 28.475C39.575 28.4916 39.55 28.475 39.525 28.475C39.4829 28.4768 39.441 28.4824 39.4 28.4916H39.325C39.3083 28.4916 39.3083 28.4583 39.3333 28.4583C39.3583 28.4583 39.3833 28.45 39.3916 28.425C39.3916 28.4 39.375 28.375 39.3666 28.3583L39.2666 28.125C39.2666 28.1 39.2333 28.1 39.2083 28.1C39.1916 28.1 39.1583 28.1083 39.15 28.0833C39.15 28.0583 39.1916 28.0666 39.2083 28.05L39.2916 28.025C39.3083 28.025 39.3166 28.0333 39.325 28.05L39.4666 28.3833V28.3916ZM39.525 28.0166H39.6916C39.725 28.0166 39.7083 27.975 39.725 27.975C39.7583 27.975 39.7583 28.0166 39.7583 28.0333C39.7599 28.0402 39.7597 28.0474 39.7578 28.0542C39.7558 28.061 39.7522 28.0672 39.7472 28.0722C39.7422 28.0772 39.736 28.0808 39.7292 28.0828C39.7224 28.0847 39.7152 28.0849 39.7083 28.0833H39.5833L39.625 28.1833L39.675 28.1666C39.7201 28.1655 39.7646 28.1775 39.8031 28.2012C39.8415 28.2248 39.8723 28.2592 39.8916 28.3C39.9083 28.3333 39.9166 28.3833 39.8916 28.425C39.8583 28.4666 39.8083 28.475 39.7583 28.475C39.7166 28.475 39.675 28.4666 39.6416 28.425C39.6333 28.4083 39.6333 28.3666 39.6583 28.375C39.6916 28.375 39.7166 28.3916 39.7166 28.425C39.725 28.4416 39.7583 28.4333 39.775 28.4333C39.8 28.4333 39.825 28.4166 39.825 28.3833C39.825 28.35 39.8083 28.3 39.7833 28.275C39.7666 28.2416 39.725 28.2166 39.6833 28.2166L39.6083 28.225C39.5833 28.225 39.5833 28.2 39.575 28.1833C39.5533 28.1314 39.5338 28.0785 39.5166 28.025C39.5166 28.025 39.525 28.0083 39.5333 28.0166H39.525ZM40.1 28.1C40.0833 28.0666 40.0666 28.025 40.025 28.0166C40.0083 28.0166 39.9666 28 39.9916 27.9833H40.125C40.1824 27.9649 40.2445 27.9678 40.3 27.9916C40.3639 28.0109 40.4212 28.0476 40.4653 28.0977C40.5095 28.1477 40.5388 28.2091 40.55 28.275C40.55 28.325 40.5416 28.375 40.4916 28.4C40.4333 28.4416 40.3583 28.4333 40.2916 28.4333L40.1833 28.45C40.1583 28.45 40.15 28.4083 40.1833 28.4083C40.2166 28.4083 40.2083 28.375 40.2 28.35L40.1 28.1ZM40.2666 28.3C40.2833 28.3333 40.2916 28.3666 40.3166 28.3833C40.3416 28.4 40.3666 28.3916 40.4 28.3833C40.4333 28.3833 40.45 28.3416 40.45 28.3083C40.4474 28.2456 40.4271 28.185 40.3916 28.1333C40.3762 28.1053 40.3547 28.081 40.3288 28.0623C40.3028 28.0436 40.2731 28.0308 40.2416 28.025C40.214 28.0203 40.1859 28.0203 40.1583 28.025V28.05L40.2666 28.3ZM40.8 27.95C40.825 27.95 40.8333 27.975 40.8416 27.9916C40.8416 28.0166 40.8583 28.0333 40.8666 28.0583C40.85 28.0833 40.825 28.0583 40.8166 28.0333C40.8083 28.0166 40.7916 27.9916 40.7666 27.9916C40.7306 27.9892 40.6944 27.9892 40.6583 27.9916C40.6416 28.0083 40.6583 28.0333 40.6583 28.0416L40.7083 28.1583C40.7333 28.1583 40.7583 28.1583 40.775 28.1416C40.7916 28.125 40.7583 28.0833 40.7916 28.0916C40.825 28.0916 40.8166 28.1333 40.825 28.1583L40.8666 28.25C40.8583 28.2833 40.825 28.25 40.8166 28.225C40.8083 28.2 40.775 28.2 40.75 28.2C40.7333 28.2 40.7166 28.2 40.7333 28.2166L40.7833 28.3416C40.8 28.375 40.8416 28.3666 40.8666 28.3666C40.9 28.3666 40.9333 28.3666 40.95 28.3416C40.9666 28.325 40.9333 28.2916 40.95 28.275C40.9833 28.275 40.9916 28.3 40.9916 28.3166L41.0166 28.4C41.0166 28.4083 40.9916 28.4 40.9833 28.4L40.725 28.4166C40.7 28.4166 40.6666 28.4333 40.65 28.4166C40.6333 28.375 40.6916 28.3916 40.7 28.3666L40.675 28.2916L40.5833 28.05C40.5666 28.025 40.55 28 40.5166 27.9916C40.5 27.9916 40.4666 27.9916 40.4833 27.9583H40.5666L40.8 27.95ZM38.5333 29.1416C38.5416 29.1833 38.5833 29.2 38.6166 29.2083C38.6833 29.225 38.7583 29.25 38.8 29.3C38.825 29.3333 38.8416 29.375 38.8416 29.4166C38.8416 29.4583 38.8 29.4916 38.7583 29.5C38.7115 29.5139 38.6614 29.5109 38.6166 29.4916C38.5999 29.4833 38.6083 29.525 38.5833 29.5083C38.5583 29.5 38.5666 29.4666 38.55 29.4416C38.5432 29.4134 38.5349 29.3856 38.5249 29.3583C38.5249 29.3333 38.5583 29.3583 38.5666 29.375C38.5916 29.425 38.6416 29.4583 38.6999 29.4666C38.7333 29.4666 38.7666 29.45 38.7666 29.4166C38.7666 29.375 38.7333 29.3333 38.6999 29.3166C38.6416 29.2916 38.5833 29.2833 38.5333 29.25C38.5095 29.2363 38.4894 29.217 38.4749 29.1937C38.4604 29.1705 38.4518 29.144 38.4499 29.1166C38.4499 29.0833 38.4833 29.05 38.5166 29.0416C38.56 29.0276 38.6066 29.0276 38.6499 29.0416C38.6666 29.0416 38.6749 29.0166 38.6999 29.0333C38.6999 29.05 38.7 29.0666 38.7166 29.0833L38.7416 29.1583C38.7249 29.175 38.6999 29.1583 38.6999 29.1416C38.6749 29.1083 38.6499 29.075 38.6166 29.075C38.5833 29.075 38.5499 29.075 38.5333 29.1V29.1416ZM39.0833 29C39.1166 29 39.1166 29.025 39.125 29.0416C39.125 29.0666 39.1416 29.0916 39.15 29.1083C39.1333 29.1333 39.1083 29.1083 39.1 29.0916C39.0916 29.075 39.075 29.05 39.0416 29.05H38.9416C38.925 29.0666 38.9416 29.0833 38.9416 29.1L38.9833 29.2166C39.0083 29.2166 39.0333 29.2166 39.05 29.2C39.0666 29.1833 39.0333 29.15 39.0583 29.1416C39.0916 29.1416 39.0916 29.175 39.1 29.2C39.1 29.2333 39.125 29.2666 39.1416 29.3083C39.125 29.3333 39.0916 29.3083 39.0916 29.2833C39.0833 29.2583 39.05 29.25 39.025 29.2583C39.0083 29.2583 38.9916 29.2583 39 29.275L39.05 29.4C39.0583 29.425 39.0833 29.425 39.1083 29.425C39.1416 29.425 39.1833 29.425 39.2083 29.4C39.225 29.3833 39.2083 29.35 39.2083 29.3333C39.2333 29.3166 39.2583 29.3333 39.2583 29.3583L39.275 29.4416C39.275 29.4583 39.25 29.4583 39.2416 29.4583L38.9916 29.475C38.9583 29.475 38.925 29.5 38.9083 29.475C38.9083 29.4416 38.95 29.45 38.9583 29.425C38.9583 29.4 38.9583 29.3833 38.9416 29.3583L38.8583 29.1083C38.8583 29.0833 38.8333 29.0583 38.8 29.0583C38.7833 29.0583 38.75 29.0416 38.7666 29.025H38.85L39.0833 29ZM39.4333 29.35C39.4416 29.375 39.4583 29.4 39.4833 29.4083C39.5083 29.4083 39.5416 29.4 39.55 29.425C39.55 29.4583 39.5083 29.4416 39.4916 29.4416C39.447 29.4387 39.4022 29.4415 39.3583 29.45C39.3416 29.45 39.3166 29.4666 39.3083 29.4416C39.3083 29.4083 39.35 29.425 39.3583 29.4083L39.35 29.3416L39.2666 29.0916C39.25 29.0666 39.2416 29.0333 39.2083 29.0333C39.1916 29.0333 39.1583 29.0333 39.1666 29C39.175 28.9833 39.2083 29 39.225 29C39.2833 29 39.3416 28.975 39.4083 28.9833C39.4388 28.9854 39.4682 28.9958 39.4932 29.0134C39.5181 29.0311 39.5378 29.0552 39.55 29.0833C39.5666 29.1166 39.5666 29.1666 39.55 29.1916C39.5083 29.225 39.4583 29.2333 39.4083 29.2416C39.3916 29.2416 39.4083 29.2583 39.4083 29.2666L39.4333 29.35ZM39.3916 29.2H39.4416C39.4666 29.1916 39.4833 29.1666 39.475 29.1416C39.4715 29.1049 39.4569 29.07 39.4333 29.0416C39.4083 29.0166 39.3666 29.0166 39.3416 29.025C39.325 29.0333 39.3416 29.05 39.3416 29.0666L39.3833 29.2H39.3916ZM39.9 29.325C39.9 29.3416 39.9166 29.375 39.9416 29.375C39.9583 29.375 40 29.375 40 29.4C40 29.425 39.9583 29.4166 39.9416 29.4166C39.897 29.4143 39.8523 29.4171 39.8083 29.425C39.7916 29.425 39.7666 29.425 39.7666 29.4C39.7833 29.3833 39.825 29.4 39.825 29.3666L39.8 29.2666L39.7166 29.025C39.7166 29 39.6833 29 39.6583 29.0083C39.6416 29.0083 39.6083 29.0083 39.6 29.0333V29.1C39.5833 29.1166 39.5666 29.1 39.5666 29.075C39.5578 29.0463 39.5467 29.0185 39.5333 28.9916C39.5333 28.9666 39.5583 28.9666 39.575 28.9666L39.9166 28.95C39.9416 28.95 39.9583 28.9666 39.9583 28.9916L39.9916 29.075C39.9833 29.0916 39.95 29.075 39.95 29.0583C39.9333 29.0333 39.9083 29 39.8666 28.9916C39.85 28.9916 39.825 28.9916 39.8 29.0083L39.8166 29.0583L39.9 29.325ZM40.075 29.05C40.0666 29.025 40.0583 28.9916 40.025 28.9833C40.0083 28.9833 39.975 28.9833 39.975 28.95C39.9833 28.9333 40.0083 28.95 40.025 28.95L40.175 28.9333C40.2 28.925 40.2166 28.9666 40.1916 28.9666C40.1666 28.9666 40.1416 28.9833 40.15 29.0083L40.1916 29.1416L40.25 29.325C40.25 29.3416 40.275 29.3583 40.2916 29.3583C40.3166 29.3583 40.35 29.3583 40.3416 29.3916H40.2833L40.15 29.4083C40.1333 29.4083 40.1083 29.3916 40.1166 29.375C40.1333 29.3666 40.1666 29.375 40.1666 29.3416L40.1416 29.2416L40.075 29.05ZM40.5583 28.9166C40.5833 28.9166 40.5833 28.9416 40.5916 28.9583L40.6083 29.025C40.6 29.05 40.5666 29.025 40.5666 29.0083C40.5583 28.9833 40.5416 28.9583 40.5083 28.9583C40.475 28.9562 40.4416 28.9562 40.4083 28.9583C40.3916 28.975 40.4083 29 40.4083 29.0083L40.45 29.125C40.4666 29.125 40.4916 29.125 40.5166 29.1083C40.5333 29.0916 40.5 29.0583 40.525 29.05C40.5583 29.05 40.5583 29.0916 40.5583 29.1083L40.6 29.2166C40.5916 29.2416 40.5583 29.2166 40.5583 29.2C40.55 29.175 40.5166 29.1666 40.4916 29.1666C40.4833 29.1666 40.45 29.1666 40.4666 29.1833L40.5083 29.3083C40.5166 29.3333 40.5416 29.3416 40.5666 29.3333C40.6 29.3333 40.6416 29.3333 40.6666 29.3166C40.6833 29.3 40.6666 29.2666 40.675 29.2416C40.7 29.225 40.7166 29.25 40.7166 29.275C40.7234 29.3032 40.7317 29.331 40.7416 29.3583C40.7416 29.375 40.7166 29.375 40.7 29.375L40.45 29.3833C40.425 29.3833 40.3916 29.4 40.3666 29.3833C40.3583 29.35 40.4083 29.3583 40.4166 29.3416C40.4199 29.3305 40.4209 29.3189 40.4195 29.3074C40.418 29.2959 40.4142 29.2849 40.4083 29.275L40.325 29.025C40.325 29 40.3 28.9666 40.2666 28.9666C40.25 28.9666 40.2166 28.95 40.2333 28.9333H40.3166L40.5583 28.9166ZM40.725 29C40.7166 28.9666 40.6916 28.9416 40.6583 28.9416C40.6333 28.95 40.6166 28.8916 40.6583 28.9083H40.7833L40.8416 28.9833L41.0166 29.225V29.2L41.05 28.9C41.0666 28.8833 41.1083 28.9 41.1333 28.8833C41.1583 28.8833 41.2166 28.8833 41.2 28.9166C41.1666 28.9166 41.1333 28.9333 41.15 28.9666L41.25 29.2666C41.25 29.3 41.2833 29.3166 41.3166 29.3083C41.3416 29.3083 41.3416 29.3583 41.3166 29.35H41.1666C41.1416 29.3583 41.1 29.3583 41.1166 29.325C41.1416 29.325 41.1833 29.3083 41.1583 29.275L41.075 29.0083C41.0833 29.0166 41.075 29.0333 41.075 29.0416L41.0583 29.2916L41.05 29.3583C41.025 29.3666 41.0166 29.35 41.0083 29.3333L40.7666 29.025L40.7833 29.05C40.8083 29.1333 40.825 29.2166 40.8583 29.2916C40.8583 29.325 40.9 29.3333 40.925 29.3333C40.9583 29.35 40.9333 29.375 40.9083 29.3666H40.7833C40.7583 29.3666 40.7583 29.3333 40.7833 29.3333C40.825 29.3333 40.8166 29.2916 40.8 29.2666L40.7166 28.9916L40.725 29ZM41.45 29.0666C41.45 29.0833 41.4833 29.0666 41.4916 29.0666C41.5166 29.0666 41.55 29.0666 41.55 29.0333C41.55 28.9916 41.5333 28.95 41.5083 28.9333C41.475 28.9083 41.4416 28.9166 41.4083 28.9166L41.4166 28.9583L41.45 29.0666ZM41.4916 29.2L41.525 29.2833C41.55 29.3 41.575 29.2916 41.6 29.2916C41.6166 29.2916 41.6416 29.275 41.6333 29.25C41.6333 29.2 41.6083 29.1416 41.5583 29.125C41.5308 29.1191 41.5024 29.1191 41.475 29.125V29.15L41.4916 29.2ZM41.3333 29C41.325 28.9666 41.3166 28.9333 41.2833 28.9166C41.2666 28.9166 41.2333 28.9166 41.2333 28.8916C41.2333 28.8666 41.275 28.8916 41.2916 28.8833C41.375 28.8833 41.4416 28.8583 41.5166 28.8833C41.575 28.9 41.625 28.9583 41.625 29.0166C41.625 29.05 41.6 29.075 41.5666 29.0916C41.5666 29.075 41.6 29.0916 41.6083 29.0916C41.65 29.1083 41.6916 29.1416 41.7083 29.1833C41.725 29.225 41.7333 29.2666 41.7083 29.3C41.675 29.3333 41.625 29.3333 41.5833 29.3333L41.3916 29.3416C41.3666 29.3416 41.3583 29.3 41.3916 29.3083C41.4166 29.3083 41.425 29.275 41.4083 29.25L41.3333 29ZM41.75 28.9833C41.75 28.9583 41.7333 28.9166 41.7 28.9C41.6833 28.9 41.65 28.9 41.65 28.875C41.6666 28.85 41.7 28.875 41.7333 28.8666H41.9C41.9666 28.8666 42.025 28.9166 42.0416 28.9833C42.0583 29.0166 42.0416 29.0666 42.0166 29.0833L41.975 29.1C42.025 29.1166 42.0666 29.1583 42.0916 29.2L42.1333 29.2666C42.1583 29.2833 42.1583 29.2583 42.1583 29.2416C42.1916 29.225 42.2083 29.2666 42.1916 29.2916C42.1833 29.325 42.1333 29.3333 42.1083 29.325C42.075 29.325 42.0583 29.3 42.0416 29.275L41.9583 29.1333C41.9485 29.124 41.9363 29.1176 41.9231 29.1146C41.9099 29.1117 41.8961 29.1124 41.8833 29.1166V29.1583L41.925 29.25C41.9333 29.2833 41.9666 29.2833 41.9916 29.2916C42.025 29.2916 42.025 29.3333 41.9916 29.325H41.8416C41.825 29.325 41.7916 29.3416 41.7833 29.325C41.7666 29.2833 41.8166 29.3 41.8333 29.275L41.8166 29.2083L41.75 28.9833ZM41.8583 29.0666C41.8666 29.0833 41.9083 29.0666 41.925 29.0666C41.95 29.0666 41.9666 29.0416 41.9583 29.025C41.9583 28.9833 41.9416 28.9416 41.9166 28.9166C41.8916 28.9 41.8583 28.9 41.8333 28.9083C41.8166 28.9083 41.825 28.9333 41.8333 28.95L41.8583 29.0583V29.0666ZM42.4416 28.85C42.4583 28.85 42.4666 28.875 42.4666 28.8916C42.4666 28.9166 42.4833 28.9333 42.4916 28.9583C42.475 28.9833 42.45 28.9583 42.45 28.9416C42.4333 28.925 42.425 28.8916 42.3916 28.8916C42.3556 28.8892 42.3194 28.8892 42.2833 28.8916C42.2666 28.9 42.2833 28.925 42.2833 28.9416L42.3166 29.05H42.3833C42.4083 29.0333 42.375 28.9916 42.4 28.9833C42.4333 28.9833 42.4333 29.0166 42.4333 29.0416C42.4333 29.075 42.4583 29.1166 42.4666 29.15C42.4583 29.175 42.425 29.15 42.425 29.1333C42.425 29.1083 42.3916 29.0916 42.3666 29.1C42.3583 29.1 42.325 29.0833 42.3333 29.1L42.375 29.2416C42.375 29.2666 42.4083 29.2666 42.4333 29.2666C42.4666 29.2666 42.5083 29.2666 42.5333 29.25C42.5583 29.2333 42.5333 29.2 42.5416 29.1833C42.5666 29.1666 42.5916 29.1833 42.5833 29.2083L42.6 29.2916C42.6 29.3083 42.575 29.3083 42.5666 29.3083H42.3083C42.2833 29.3083 42.2583 29.325 42.2416 29.3083C42.2166 29.275 42.2666 29.2833 42.275 29.2666C42.2916 29.25 42.275 29.225 42.275 29.2083L42.2 28.95C42.2 28.925 42.175 28.8916 42.15 28.8916C42.125 28.8916 42.1 28.8833 42.1083 28.8583H42.1916L42.4416 28.85ZM39.7 29.9416C39.6916 29.9083 39.6833 29.875 39.65 29.8583C39.625 29.8583 39.5916 29.8583 39.6083 29.8333C39.6333 29.8166 39.6583 29.8333 39.6916 29.825C39.7583 29.825 39.825 29.8083 39.8916 29.825C39.9413 29.8353 39.9874 29.8584 40.0254 29.892C40.0634 29.9257 40.092 29.9686 40.1083 30.0166C40.125 30.0833 40.1333 30.15 40.0916 30.2083C40.05 30.2583 39.975 30.275 39.9083 30.275C39.85 30.275 39.8 30.275 39.75 30.2916C39.7333 30.3 39.7 30.2833 39.7166 30.2583C39.7416 30.2583 39.775 30.2416 39.7666 30.2166L39.7333 30.0916L39.7 29.9416ZM39.8333 30.15C39.8416 30.175 39.85 30.2083 39.8666 30.225C39.8916 30.2416 39.925 30.2333 39.95 30.225C39.9833 30.225 40.0166 30.1916 40.025 30.15C40.0315 30.0869 40.0199 30.0233 39.9916 29.9666C39.9809 29.9408 39.9638 29.9181 39.9419 29.9006C39.9201 29.8832 39.8942 29.8715 39.8666 29.8666C39.8363 29.861 39.8052 29.861 39.775 29.8666C39.7666 29.8666 39.775 29.8833 39.775 29.9L39.8333 30.15ZM40.425 29.775C40.45 29.775 40.45 29.8 40.4583 29.8166L40.475 29.8916C40.4666 29.9083 40.4333 29.8916 40.4333 29.875C40.425 29.85 40.4083 29.825 40.3833 29.825C40.3472 29.8224 40.311 29.8224 40.275 29.825C40.2583 29.8333 40.275 29.8583 40.275 29.875C40.275 29.9166 40.2916 29.9583 40.3 29.9916C40.325 29.9916 40.35 29.9916 40.3666 29.975C40.3833 29.9583 40.3583 29.925 40.3833 29.9166C40.4166 29.9166 40.4083 29.9583 40.4166 29.975C40.4166 30.0083 40.4416 30.0416 40.4416 30.0833C40.4416 30.1083 40.4 30.0833 40.4 30.0666C40.4 30.0333 40.3666 30.025 40.3416 30.0333C40.3333 30.0333 40.3 30.025 40.3166 30.0416C40.3166 30.0833 40.3333 30.125 40.35 30.175C40.35 30.2 40.3833 30.2 40.4083 30.2C40.4416 30.2 40.4833 30.2 40.5083 30.175C40.525 30.1583 40.5083 30.125 40.525 30.1083C40.55 30.0916 40.5583 30.1166 40.5583 30.1416C40.5583 30.1666 40.5583 30.1916 40.575 30.225L40.5333 30.2333L40.2833 30.25C40.2583 30.25 40.2333 30.2666 40.2083 30.25C40.1916 30.2333 40.2166 30.2166 40.2416 30.2166C40.2666 30.2083 40.2583 30.175 40.2583 30.1583L40.1916 29.8916C40.1833 29.8666 40.1666 29.8333 40.1416 29.8333C40.1166 29.8333 40.0916 29.825 40.1 29.8L40.1833 29.7916L40.425 29.775ZM40.9666 30.1166C40.9666 30.1416 40.9916 30.1666 41.0166 30.1666C41.0333 30.175 41.0666 30.1666 41.075 30.1916C41.0833 30.2166 41.0416 30.2083 41.025 30.2083L40.8833 30.2166C40.8583 30.2166 40.8333 30.225 40.8166 30.2166C40.7916 30.2166 40.8 30.1833 40.825 30.1833C40.85 30.1833 40.875 30.175 40.8833 30.15L40.875 30.0833L40.8166 29.85C40.8166 29.825 40.7833 29.825 40.7666 29.825C40.75 29.825 40.7166 29.8416 40.7083 29.8166C40.7083 29.7833 40.75 29.7916 40.7666 29.7833L40.8583 29.75C40.875 29.75 40.8833 29.7583 40.8833 29.775L40.9666 30.1166ZM41.275 29.8416C41.275 29.8083 41.25 29.775 41.2166 29.775C41.1916 29.775 41.1583 29.775 41.15 29.8C41.147 29.8156 41.1485 29.8317 41.1545 29.8465C41.1604 29.8613 41.1704 29.874 41.1833 29.8833L41.2583 29.925L41.275 29.875C41.2766 29.8639 41.2766 29.8527 41.275 29.8416ZM41.3416 30.0916C41.3416 30.0416 41.3 30.0166 41.2583 30.0083C41.2416 30.0083 41.225 29.9833 41.2166 29.9916C41.2037 30.0009 41.1937 30.0137 41.1878 30.0284C41.1819 30.0432 41.1803 30.0593 41.1833 30.075C41.2 30.125 41.225 30.1583 41.2666 30.1583C41.3 30.1666 41.3333 30.1583 41.35 30.125C41.3535 30.1113 41.3535 30.097 41.35 30.0833L41.3416 30.0916ZM41.425 30.0666C41.4294 30.0877 41.4269 30.1096 41.4179 30.1291C41.4089 30.1486 41.3938 30.1647 41.375 30.175C41.35 30.1896 41.3222 30.1987 41.2935 30.2016C41.2647 30.2045 41.2356 30.2011 41.2083 30.1916C41.1833 30.1845 41.1607 30.1706 41.1431 30.1515C41.1255 30.1324 41.1134 30.1088 41.1083 30.0833C41.1083 30.05 41.1166 30 41.1583 29.975C41.1583 29.975 41.1916 29.9666 41.1666 29.9583C41.125 29.9416 41.0833 29.9083 41.0833 29.8583C41.0666 29.8166 41.0833 29.775 41.125 29.75C41.1619 29.731 41.2045 29.7264 41.2446 29.7372C41.2847 29.748 41.3193 29.7733 41.3416 29.8083C41.3583 29.8416 41.3583 29.8833 41.3416 29.9083L41.2916 29.95C41.3333 29.95 41.375 29.9833 41.3916 30.0166C41.4083 30.025 41.4166 30.05 41.4166 30.0666H41.425ZM41.6916 30.1083C41.7083 30.1083 41.7333 30.1083 41.7333 30.075C41.7416 30.0666 41.7333 30.025 41.7583 30.0333C41.7833 30.0333 41.775 30.0583 41.7833 30.0833C41.7833 30.1166 41.7833 30.15 41.75 30.175C41.7333 30.1916 41.7083 30.1833 41.6833 30.1833H41.5416C41.525 30.1833 41.5 30.2 41.4833 30.1833C41.4666 30.1666 41.4833 30.1416 41.4833 30.125C41.5 30.0666 41.5333 30.025 41.5666 29.9916C41.6 29.9666 41.6333 29.9416 41.6416 29.9C41.6441 29.8648 41.6353 29.8298 41.6166 29.8C41.6107 29.7906 41.603 29.7824 41.5938 29.7761C41.5847 29.7697 41.5744 29.7652 41.5636 29.7629C41.5527 29.7605 41.5415 29.7604 41.5305 29.7625C41.5196 29.7646 41.5092 29.7688 41.5 29.775C41.475 29.7833 41.4666 29.8166 41.475 29.8333C41.4916 29.85 41.525 29.8333 41.5333 29.8666C41.55 29.8833 41.5333 29.9166 41.5083 29.9166C41.475 29.9166 41.4416 29.8916 41.425 29.8583C41.4185 29.8361 41.42 29.8123 41.4291 29.791C41.4382 29.7697 41.4544 29.7523 41.475 29.7416C41.5166 29.7166 41.5666 29.7166 41.6166 29.725C41.6583 29.7416 41.7 29.775 41.7166 29.825C41.725 29.8583 41.725 29.9 41.7083 29.9333C41.675 29.9916 41.6166 30.0166 41.5666 30.075C41.5583 30.0833 41.55 30.1 41.5583 30.125C41.5583 30.1 41.5916 30.1083 41.6 30.1083H41.6833H41.6916ZM42.025 30.075C42.025 30.1 42.0416 30.125 42.0666 30.1333C42.0833 30.1333 42.1166 30.1333 42.125 30.15C42.1333 30.175 42.1 30.175 42.0833 30.175H41.8583C41.8416 30.1666 41.8583 30.1333 41.875 30.1416C41.9 30.1416 41.925 30.1333 41.9333 30.1083V30.0416L41.875 29.8083C41.875 29.7833 41.85 29.7833 41.8333 29.7833C41.8083 29.7833 41.7833 29.8 41.775 29.7833C41.7583 29.7416 41.8 29.75 41.8166 29.7416L41.9166 29.7083C41.9333 29.7083 41.9416 29.7166 41.95 29.7333L42.0166 30.075H42.025Z" fill="#B07E09"/>
<path d="M39.6499 23.2832L39.3333 23.6665C39.2333 24.0999 39.4833 24.4332 39.9749 24.7165C40.3666 24.9665 41.1 25.0249 41.3333 24.8249L40.1916 23.7415L39.6499 23.2915V23.2832Z" fill="url(#paint9_radial_3732_58185)" stroke="#4C0505" stroke-width="0.0166668"/>
<path d="M41.9669 34.5251C41.9117 34.4553 41.8561 34.3859 41.8002 34.3167C41.0765 35.3003 40.1464 36.1138 39.0752 36.7001C40.3335 36.3417 41.1585 35.4334 41.9669 34.5251ZM40.6669 37.5001C41.1361 36.5828 41.642 35.6849 42.1835 34.8084C42.1257 34.733 42.0673 34.658 42.0085 34.5834C41.4002 35.6001 40.6752 36.8084 40.6752 37.5001H40.6669ZM44.1669 27.9584C44.0878 27.5851 43.9676 27.2218 43.8086 26.875C42.9154 25.3686 41.6609 24.1084 40.1585 23.2083V23.1833H40.1835L40.1669 23.175H40.2085L40.1919 23.15H40.2252L40.2002 23.1167H40.2335L40.2085 23.0917H40.2502L40.2252 23.0583H40.2585L40.2252 23.0333L40.2752 23.025L40.2335 23L40.2752 22.9917L40.2419 22.9667L40.2919 22.95L40.2502 22.925L40.3002 22.9L40.2502 22.8667L40.3085 22.85L40.2502 22.825L40.3002 22.7917H40.2335L40.2752 22.7333H40.2169L40.2419 22.6917H40.1919L40.2169 22.65L40.1585 22.6583L40.1835 22.6083L40.1335 22.6417L40.1502 22.5833L40.0919 22.6167L40.1002 22.5583L40.0585 22.6V22.5417L40.0169 22.5833V22.525L39.9752 22.575V22.5167L39.9419 22.5667L39.9252 22.5083L39.9002 22.5583L39.8835 22.5L39.8585 22.5667L39.8419 22.5L39.8169 22.5667L39.8002 22.5083L39.7835 22.5583L39.7752 22.5167L39.7502 22.575L39.7335 22.5167L39.7169 22.5833L39.6919 22.525L39.6752 22.5917L39.6502 22.5333V22.6L39.6169 22.55V22.6167L39.5752 22.5667V22.625L39.5419 22.6L39.5585 22.6583L39.5169 22.6333L39.5335 22.6917L39.5002 22.6667L39.5085 22.7167H39.4752L39.4919 22.75H39.4669L39.4835 22.7833C39.4533 22.8774 39.442 22.9765 39.4502 23.075C39.4502 23.0917 39.5002 23.1083 39.5085 23.125C39.5335 23.1583 39.5252 23.175 39.5252 23.175C39.3919 23.3917 39.2752 23.5583 39.2669 23.8083C39.3669 23.675 39.4835 23.5083 39.6335 23.5083C39.5585 23.6333 39.5252 24.0167 39.6085 24.0833L39.6752 23.9667C39.6752 24.05 39.6835 24.1167 39.7085 24.1583L39.7919 24.0167C39.7919 24.1417 39.8085 24.2417 39.8419 24.2917C39.8775 24.2392 39.9227 24.1939 39.9752 24.1583C39.9585 24.2333 39.9335 24.3 39.9419 24.3833L40.1085 24.175C40.0752 24.3083 40.1085 24.4083 40.1419 24.55C40.1752 24.3833 40.1919 24.3583 40.2669 24.2917C40.2752 24.45 40.2502 24.5917 40.2835 24.6833C40.3502 24.5417 40.4002 24.5583 40.4502 24.4667C40.4335 24.6 40.4085 24.7417 40.4502 24.8583C40.4744 24.7691 40.5308 24.6919 40.6085 24.6417C40.6085 24.825 40.6502 24.7917 40.5419 24.95C40.5919 24.9667 40.7502 24.9167 40.8419 24.875C40.8002 24.975 40.8085 25.05 40.7669 25.125C40.8502 25.075 40.9335 25 41.0085 24.925C40.9752 25.0417 40.8835 25.1583 40.9252 25.2667C40.9502 25.1583 41.0335 25.075 41.1169 25.0583C41.1002 25.1167 41.0919 25.2417 41.0085 25.3C41.2085 25.3167 41.2919 25.1833 41.3919 25.075C41.3835 25.1917 41.3919 25.275 41.5252 25.4333C41.5002 25.2333 41.5419 25.275 41.6335 25.1583C41.6835 25.3333 41.7335 25.525 41.9169 25.6583C41.8335 25.4667 41.8335 25.3667 41.8669 25.25C41.8919 25.375 42.0085 25.525 42.0335 25.6417C42.0585 25.5083 42.0752 25.3833 42.1169 25.3C42.1779 25.4492 42.2172 25.6063 42.2335 25.7667C42.2752 25.6833 42.3085 25.6 42.3252 25.5083C43.9752 27.225 44.3419 29.4084 42.5419 31.7167C43.1835 31.2834 43.3502 30.5917 43.7086 30C43.3586 30.775 43.2085 31.6417 42.5835 32.2834C43.1835 31.7667 43.3086 31.2917 43.6669 30.7917C43.2919 31.8334 42.7502 32.9751 42.0169 34.0251C42.151 34.1688 42.2843 34.3133 42.4169 34.4584L42.7502 33.8834C43.5336 32.6001 44.8086 30.7584 44.1669 27.9584Z" fill="#448127" stroke="#34541F" stroke-width="0.0166668"/>
<path d="M39.4338 22.9417C39.3505 22.9584 39.3171 22.9917 39.2588 23.0584C39.3338 23.0751 39.3921 23.0834 39.4671 23.0834C39.4838 23.0834 39.4921 23.0584 39.4921 23.0334L39.4755 22.9501C39.4755 22.9334 39.4255 22.9417 39.4088 22.9501L39.4338 22.9417Z" fill="#EAC102" stroke="#A08307" stroke-width="0.0166668"/>
<path d="M39.251 23.0583C39.2783 23.0485 39.3061 23.0401 39.3343 23.0333C39.3673 23.0256 39.4007 23.0201 39.4343 23.0166C39.407 23.0264 39.3792 23.0348 39.351 23.0416C39.318 23.0492 39.2846 23.0547 39.251 23.0583Z" fill="#A08307"/>
<path d="M39.8089 23.0171C39.8457 23.0171 39.8755 22.9873 39.8755 22.9505C39.8755 22.9136 39.8457 22.8838 39.8089 22.8838C39.772 22.8838 39.7422 22.9136 39.7422 22.9505C39.7422 22.9873 39.772 23.0171 39.8089 23.0171Z" fill="black" stroke="black" stroke-width="0.00833338"/>
<path d="M39.8258 22.967C39.8396 22.967 39.8508 22.9558 39.8508 22.942C39.8508 22.9282 39.8396 22.917 39.8258 22.917C39.812 22.917 39.8008 22.9282 39.8008 22.942C39.8008 22.9558 39.812 22.967 39.8258 22.967Z" fill="url(#paint10_radial_3732_58185)"/>
<path d="M40.6844 37.4758C40.7226 37.3525 40.7643 37.2302 40.8094 37.1092C40.8564 36.9857 40.9064 36.8635 40.9594 36.7425C41.0594 36.5008 41.1844 36.2675 41.3011 36.0425C41.4262 35.8117 41.5568 35.5838 41.6927 35.3592C41.7587 35.2476 41.8253 35.1365 41.8927 35.0258L42.1011 34.6925L41.9011 35.0258C41.8337 35.1393 41.767 35.2532 41.7011 35.3675L41.3177 36.0508C41.1929 36.28 41.0762 36.5135 40.9677 36.7508C40.9149 36.8691 40.8649 36.9885 40.8177 37.1092C40.7698 37.2301 40.7254 37.3524 40.6844 37.4758ZM39.1094 36.6842C39.2505 36.6253 39.3895 36.5614 39.526 36.4925C39.6565 36.4222 39.7844 36.3472 39.9094 36.2675C40.1672 36.1058 40.4124 35.9247 40.6427 35.7258C40.8696 35.5313 41.0839 35.3225 41.2844 35.1008C41.3871 34.9893 41.4871 34.8754 41.5844 34.7592L41.8677 34.4008C41.7782 34.5219 41.6865 34.6413 41.5927 34.7592C41.4956 34.8783 41.3956 34.995 41.2927 35.1092C41.093 35.3342 40.8787 35.5458 40.651 35.7425C40.4208 35.939 40.1756 36.1173 39.9177 36.2758C39.7899 36.3529 39.6593 36.4252 39.526 36.4925C39.3895 36.5613 39.2505 36.6253 39.1094 36.6842ZM42.2177 34.2425C42.3425 34.0598 42.462 33.8736 42.5761 33.6841L42.9094 33.1175C43.0144 32.9242 43.1172 32.7298 43.2177 32.5341L43.5261 31.9508L43.3844 32.2425L43.2344 32.5425C43.1346 32.7385 43.0318 32.933 42.9261 33.1258C42.8196 33.3174 42.7085 33.5063 42.5927 33.6925C42.4756 33.8811 42.3505 34.0646 42.2177 34.2425ZM42.7177 32.1508C42.8574 31.9819 42.9854 31.8037 43.1011 31.6175C43.2194 31.4302 43.3252 31.2354 43.4177 31.0341C43.6017 30.6339 43.7414 30.2147 43.8344 29.7841L43.8677 29.6175C43.8954 29.4519 43.9149 29.285 43.9261 29.1175C43.9428 28.8983 43.9428 28.6782 43.9261 28.4591C43.907 28.24 43.8707 28.0226 43.8177 27.8091C43.7669 27.5933 43.7001 27.3816 43.6177 27.1758C43.7025 27.3787 43.7721 27.5876 43.8261 27.8008C43.8795 28.017 43.9158 28.2372 43.9344 28.4591C43.9511 28.6758 43.9511 28.9008 43.9344 29.1258C43.9259 29.2932 43.9093 29.46 43.8844 29.6258C43.8739 29.6787 43.8627 29.7315 43.8511 29.7841C43.758 30.2147 43.6183 30.6339 43.4344 31.0341C43.3365 31.2358 43.2252 31.4307 43.1011 31.6175C42.9828 31.804 42.8519 31.9821 42.7094 32.1508H42.7177Z" fill="#34541F"/>
<path d="M42.5762 31.6669C42.7289 31.5207 42.8658 31.3587 42.9845 31.1836C43.1034 31.0083 43.2092 30.8244 43.3012 30.6336C43.3922 30.4425 43.4756 30.248 43.5512 30.0503C43.5845 29.9503 43.6345 29.8503 43.6595 29.7503L43.6928 29.6753L43.7178 29.6003L43.7678 29.4503C43.8095 29.2419 43.8262 29.0253 43.8345 28.8086C43.8359 28.5937 43.8192 28.379 43.7845 28.1669C43.7512 27.9586 43.7012 27.7503 43.6428 27.5419C43.5805 27.3358 43.5082 27.1328 43.4262 26.9336C43.511 27.1326 43.5861 27.3356 43.6512 27.5419C43.7123 27.7469 43.7596 27.9557 43.7928 28.1669C43.8275 28.379 43.8442 28.5937 43.8428 28.8086C43.8435 29.0238 43.8239 29.2387 43.7845 29.4503L43.7345 29.6086L43.7095 29.6836L43.6762 29.7586L43.5678 30.0586C43.4895 30.2564 43.4033 30.451 43.3095 30.6419C43.2176 30.8328 43.1118 31.0167 42.9928 31.1919C42.8715 31.3674 42.7319 31.5294 42.5762 31.6753V31.6669Z" fill="#34541F"/>
<path d="M42.084 34.1001C42.1923 33.9668 42.284 33.8251 42.384 33.6834L42.534 33.4751L42.6757 33.2668C42.7657 33.1206 42.8491 32.9704 42.9257 32.8168L43.1423 32.3584C43.2923 32.0501 43.434 31.7418 43.559 31.4168C43.6825 31.1002 43.78 30.7741 43.8507 30.4418C43.9173 30.1084 43.9673 29.7751 44.009 29.4334C44.0423 29.0917 44.0423 28.7501 44.009 28.4084C43.9735 28.0674 43.898 27.7317 43.784 27.4084C43.6685 27.0887 43.5263 26.7793 43.359 26.4834C43.5292 26.779 43.6741 27.0884 43.7923 27.4084C43.9063 27.7317 43.9818 28.0674 44.0173 28.4084C44.059 28.7417 44.0507 29.0917 44.0173 29.4334C43.984 29.7668 43.934 30.1084 43.8673 30.4418C43.797 30.7769 43.6995 31.1058 43.5757 31.4251C43.45 31.7419 43.311 32.0533 43.159 32.3584L42.934 32.8168C42.8576 32.9705 42.7742 33.1207 42.684 33.2668C42.6423 33.3501 42.5923 33.4084 42.5423 33.4834L42.3923 33.6918L42.0923 34.1084L42.084 34.1001Z" fill="#34541F"/>
<path d="M42.3177 34.3588L42.901 33.3921C43.0899 33.0676 43.2677 32.7369 43.4343 32.4004C43.6015 32.0652 43.7409 31.7168 43.851 31.3588C43.9093 31.1754 43.951 31.0004 43.9927 30.8171C44.0121 30.7232 44.0288 30.6287 44.0427 30.5338C44.1123 30.0702 44.1513 29.6025 44.1593 29.1338C44.1593 28.7588 44.126 28.3837 44.0593 28.0171C43.9908 27.6469 43.879 27.2861 43.726 26.9421C43.8817 27.2857 43.9964 27.6466 44.0677 28.0171C44.1351 28.3855 44.1686 28.7593 44.1677 29.1338C44.1677 29.5088 44.1427 29.8838 44.0927 30.2588C44.0828 30.3533 44.0716 30.4478 44.0593 30.5421C44.0453 30.6342 44.0286 30.7259 44.0093 30.8171C43.9703 30.9997 43.923 31.1804 43.8677 31.3588C43.758 31.7197 43.6186 32.0709 43.451 32.4088C43.2843 32.7421 43.0927 33.0754 42.9093 33.3921C42.7198 33.7145 42.5253 34.034 42.326 34.3504L42.3177 34.3588ZM40.001 23.4004H40.1176C40.2353 23.4232 40.35 23.4596 40.4593 23.5087C40.601 23.5754 40.7426 23.6587 40.8676 23.7587C40.9951 23.8519 41.1149 23.955 41.226 24.0671C41.2778 24.1239 41.3278 24.1822 41.376 24.2421L41.526 24.4337C41.4774 24.3715 41.4274 24.3103 41.376 24.2504C41.3223 24.193 41.2667 24.1374 41.2093 24.0837C41.1007 23.9696 40.9837 23.8637 40.8593 23.7671C40.7326 23.6693 40.5957 23.5855 40.451 23.5171C40.308 23.455 40.1561 23.4157 40.001 23.4004Z" fill="#34541F"/>
<path d="M41.3668 24.2999C41.3668 24.2999 41.6168 24.4499 41.7585 24.6665C41.7585 24.6665 41.3668 24.5915 41.0918 24.2832" fill="#448127"/>
<path d="M41.3673 24.2999C41.4454 24.3442 41.518 24.3973 41.584 24.4582C41.6532 24.5169 41.7148 24.5841 41.7673 24.6582L41.7757 24.6832H41.759C41.6933 24.6664 41.6292 24.6441 41.5673 24.6165C41.507 24.5931 41.4485 24.5653 41.3923 24.5332C41.2757 24.4665 41.1757 24.3832 41.084 24.2832C41.1767 24.377 41.2836 24.4557 41.4007 24.5165C41.4545 24.5477 41.5101 24.5755 41.5673 24.5999C41.6295 24.6246 41.6936 24.6441 41.759 24.6582V24.6749C41.7339 24.6368 41.706 24.6006 41.6757 24.5665L41.5757 24.4665C41.5436 24.4373 41.5102 24.4095 41.4757 24.3832C41.4408 24.3538 41.4046 24.326 41.3673 24.2999Z" fill="#34541F"/>
<path d="M40.8008 24.2246C40.8008 24.2246 41.4008 24.6079 41.4841 24.6413C41.4841 24.6413 41.3508 24.3496 41.0674 24.2246" fill="#448127"/>
<path d="M40.8008 24.2246L41.1425 24.4329C41.2279 24.484 41.314 24.534 41.4008 24.5829L41.4841 24.6329V24.6413C41.4599 24.5973 41.432 24.5555 41.4008 24.5163L41.3091 24.3996C41.2732 24.363 41.2341 24.3295 41.1924 24.2996L41.0674 24.2246C41.1145 24.2447 41.1592 24.2698 41.2008 24.2996C41.3236 24.3855 41.4237 24.4999 41.4925 24.6329L41.5091 24.6579L41.4841 24.6496L41.3091 24.5496L41.1425 24.4413C41.0274 24.3709 40.9135 24.2987 40.8008 24.2246Z" fill="#34541F"/>
<path d="M41.0421 24.0332C41.0421 24.0332 41.3505 24.1665 41.4255 24.3915C41.4255 24.3915 40.8588 24.1582 40.7588 24.0332" fill="#448127"/>
<path d="M41.0421 24.0332C41.1262 24.0656 41.2049 24.1106 41.2755 24.1665C41.3097 24.1963 41.3404 24.2298 41.3671 24.2665L41.4338 24.3915V24.4082H41.4171C41.3612 24.3812 41.3056 24.3534 41.2505 24.3249C41.1915 24.2985 41.1331 24.2707 41.0755 24.2415C41.0189 24.2129 40.9633 24.1823 40.9088 24.1499L40.8255 24.0999L40.7588 24.0332L40.8338 24.0915L40.9171 24.1415L41.0838 24.2249C41.1962 24.2835 41.3101 24.3391 41.4255 24.3915H41.4171C41.4008 24.3521 41.3783 24.3155 41.3505 24.2832C41.3261 24.2472 41.2982 24.2137 41.2671 24.1832C41.1964 24.123 41.1179 24.0726 41.0338 24.0332H41.0421Z" fill="#34541F"/>
<path d="M40.5674 24.2744C40.5674 24.2744 41.1174 24.6661 41.2841 24.6661C41.2841 24.6661 41.1174 24.3911 40.8341 24.2744" fill="#448127"/>
<path d="M40.5674 24.2749C40.6799 24.3493 40.7938 24.4216 40.9091 24.4916C40.9981 24.5437 41.0899 24.5909 41.1841 24.6333L41.2841 24.6583L41.2757 24.6749C41.2212 24.5899 41.1568 24.5116 41.0841 24.4416L40.9674 24.3499C40.9254 24.3184 40.8808 24.2905 40.8341 24.2666C40.9257 24.3083 41.0174 24.3666 41.0841 24.4333C41.1646 24.5004 41.2348 24.579 41.2924 24.6666V24.6749H41.2841C41.2467 24.6732 41.21 24.6648 41.1757 24.6499C41.1446 24.6374 41.114 24.6235 41.0841 24.6083C41.0245 24.5771 40.9662 24.5437 40.9091 24.5083C40.85 24.4705 40.7916 24.4316 40.7341 24.3916C40.6777 24.3539 40.6221 24.315 40.5674 24.2749Z" fill="#34541F"/>
<path d="M40.5674 24.3912C40.5674 24.3912 40.8507 24.6412 41.0174 24.6412C41.0174 24.6412 40.8507 24.3662 40.5674 24.2412" fill="#448127"/>
<path d="M40.5674 24.3912C40.6343 24.4446 40.7038 24.4947 40.7757 24.5412L40.8924 24.5995C40.9322 24.6167 40.9743 24.628 41.0174 24.6329L41.0091 24.6412C40.984 24.6004 40.9562 24.5615 40.9257 24.5245C40.8607 24.445 40.785 24.3749 40.7007 24.3162C40.6584 24.2875 40.6138 24.2625 40.5674 24.2412C40.659 24.2829 40.7507 24.3329 40.8174 24.4079C40.8972 24.4725 40.9674 24.5483 41.0257 24.6329V24.6495H41.0174C40.9674 24.6495 40.9341 24.6329 40.8841 24.6162C40.8436 24.5968 40.8047 24.5745 40.7674 24.5495L40.6674 24.4745C40.6328 24.4483 40.5995 24.4205 40.5674 24.3912Z" fill="#34541F"/>
<path d="M40.417 23.8496C40.417 23.8496 41.017 24.2746 41.0837 24.5079C41.0837 24.5079 40.5503 24.2579 40.4503 24.1329" fill="#448127"/>
<path d="M40.417 23.8496C40.4822 23.8951 40.5461 23.9423 40.6087 23.9913C40.6712 24.0396 40.7323 24.0896 40.792 24.1413C40.8506 24.1937 40.9062 24.2494 40.9587 24.3079L41.042 24.3913L41.1003 24.5079V24.5246L41.0837 24.5163C41.0277 24.4893 40.9721 24.4615 40.917 24.4329C40.8608 24.4064 40.8053 24.3786 40.7503 24.3496C40.6965 24.318 40.6437 24.2846 40.592 24.2496C40.5635 24.2313 40.5357 24.2118 40.5087 24.1913C40.4869 24.1743 40.4673 24.1547 40.4503 24.1329L40.517 24.1913C40.5981 24.2424 40.6815 24.2897 40.767 24.3329C40.8767 24.3913 40.9878 24.4469 41.1003 24.4996L41.0837 24.5079C41.0694 24.4719 41.0497 24.4381 41.0253 24.4079C41.0021 24.376 40.9771 24.3454 40.9503 24.3163L40.7837 24.1496C40.7268 24.0952 40.6684 24.0424 40.6087 23.9913C40.5457 23.9428 40.4818 23.8955 40.417 23.8496Z" fill="#34541F"/>
<path d="M37.0838 35.8586C36.5598 36.1328 35.9751 36.2703 35.3838 36.2586C36.2171 35.5753 37.0255 35.5586 37.0838 35.8586ZM42.9005 36.2336C43.3338 36.6253 44.6505 36.9003 44.8588 36.8503C43.9755 35.9586 43.0172 35.8669 42.9005 36.2336Z" fill="#406325" stroke="#24420E" stroke-width="0.0166668"/>
<path d="M37.0838 35.8587C37.0255 35.5504 36.2088 35.567 35.3838 36.2587C35.9269 36.0401 36.5001 35.9052 37.0838 35.8587ZM42.9088 36.2254C43.0255 35.8587 43.9755 35.9504 44.8588 36.8504C44.243 36.5476 43.586 36.337 42.9088 36.2254Z" fill="#67923D" stroke="#24420E" stroke-width="0.0166668"/>
</g>
<defs>
<radialGradient id="paint0_radial_3732_58185" cx="0" cy="0" r="1" gradientUnits="userSpaceOnUse" gradientTransform="translate(37.2837 30.6924) scale(1.37501)">
<stop offset="0.2" stop-color="#F9F0AA"/>
<stop offset="1" stop-color="#B07E09"/>
</radialGradient>
<radialGradient id="paint1_radial_3732_58185" cx="0" cy="0" r="1" gradientUnits="userSpaceOnUse" gradientTransform="translate(37.6331 31.0833) scale(0.908337 0.908336)">
<stop offset="0.2" stop-color="#F9F0AA"/>
<stop offset="1" stop-color="#B07E09"/>
</radialGradient>
<radialGradient id="paint2_radial_3732_58185" cx="0" cy="0" r="1" gradientUnits="userSpaceOnUse" gradientTransform="translate(37.8415 30.7169) scale(0.816672)">
<stop offset="0.2" stop-color="#F9F0AA"/>
<stop offset="1" stop-color="#B07E09"/>
</radialGradient>
<radialGradient id="paint3_radial_3732_58185" cx="0" cy="0" r="1" gradientUnits="userSpaceOnUse" gradientTransform="translate(38.2003 30.5915) scale(1.45001 1.45001)">
<stop offset="0.2" stop-color="#F9F0AA"/>
<stop offset="1" stop-color="#B07E09"/>
</radialGradient>
<linearGradient id="paint4_linear_3732_58185" x1="39.492" y1="26.6004" x2="39.367" y2="24.3338" gradientUnits="userSpaceOnUse">
<stop offset="0.2" stop-color="#B07E09" stop-opacity="0"/>
<stop offset="1" stop-color="#B07E09"/>
</linearGradient>
<linearGradient id="paint5_linear_3732_58185" x1="40.2586" y1="29.7251" x2="40.4586" y2="32.2168" gradientUnits="userSpaceOnUse">
<stop offset="0.2" stop-color="#B07E09" stop-opacity="0"/>
<stop offset="1" stop-color="#B07E09"/>
</linearGradient>
<radialGradient id="paint6_radial_3732_58185" cx="0" cy="0" r="1" gradientUnits="userSpaceOnUse" gradientTransform="translate(37.1666 26.0333) scale(1.08334 1.08334)">
<stop offset="0.2" stop-color="#F9F0AA"/>
<stop offset="1" stop-color="#B07E09"/>
</radialGradient>
<linearGradient id="paint7_linear_3732_58185" x1="37.6249" y1="25.7917" x2="37.9499" y2="25.05" gradientUnits="userSpaceOnUse">
<stop offset="0.2" stop-color="#F9F0AA"/>
<stop offset="1" stop-color="#B07E09"/>
</linearGradient>
<linearGradient id="paint8_linear_3732_58185" x1="39.4415" y1="24.7753" x2="39.6582" y2="27.5336" gradientUnits="userSpaceOnUse">
<stop offset="0.2" stop-color="#F9F0AA"/>
<stop offset="1" stop-color="#B07E09"/>
</linearGradient>
<radialGradient id="paint9_radial_3732_58185" cx="0" cy="0" r="1" gradientUnits="userSpaceOnUse" gradientTransform="translate(39.8249 22.9415) scale(0.0250001)">
<stop offset="0.3" stop-color="#A50A0A"/>
<stop offset="1" stop-color="#4C0505"/>
</radialGradient>
<radialGradient id="paint10_radial_3732_58185" cx="0" cy="0" r="1" gradientUnits="userSpaceOnUse" gradientTransform="translate(39.8245 22.9365) scale(0.0244271 0.0255869)">
<stop stop-color="white"/>
<stop offset="1" stop-color="white" stop-opacity="0"/>
</radialGradient>
<clipPath id="clip0_3732_58185">
<rect width="80" height="60" fill="white"/>
</clipPath>
</defs>
</svg>
