<svg width="80" height="60" viewBox="0 0 80 60" fill="none" xmlns="http://www.w3.org/2000/svg">
<g clip-path="url(#clip0_3732_58408)">
<path d="M0 0H80V60H0V0Z" fill="#D21034"/>
<path d="M0 0H80V30H0V0Z" fill="#00209F"/>
<path d="M30.5381 22.4629H49.4631V37.5254H30.5381V22.4629Z" fill="white"/>
<path d="M43.8129 33.3506L39.9379 33.4756L36.1004 33.5131C36.1004 33.5131 34.1254 34.2381 33.3129 34.4006C32.5129 34.5631 32.6129 34.8256 32.0004 34.9756C31.5004 35.0881 31.4379 35.1131 31.1504 35.1381C30.9629 35.1381 30.7504 35.2881 30.5254 35.4381V37.5256H49.4629V35.5381C49.2629 35.4256 49.0629 35.3506 48.8629 35.2881C48.5879 35.1881 48.4004 35.0881 47.9004 34.9756C47.2754 34.8381 47.3754 34.5631 46.5754 34.4006C45.7629 34.2381 43.8129 33.3506 43.8129 33.3506Z" fill="#016A16" stroke="#016A16" stroke-width="0.0375"/>
<path d="M38.9004 28.7002H39.1804L39.7004 30.8402L39.5804 31.5202L38.9004 28.7202V28.7002Z" fill="#F1B517" stroke="black" stroke-width="0.04"/>
<path d="M38.6006 27.2598L38.8006 28.9198H39.0006L38.6006 27.2798V27.2598Z" fill="white" stroke="black" stroke-width="0.04"/>
<path d="M39.1403 30.9206L38.2803 28.6206L38.6003 28.6006L39.6003 31.4006L39.1403 30.9206Z" fill="#F1B517" stroke="black" stroke-width="0.04"/>
<path d="M37.8799 27.2998L38.2399 28.8998H38.5199L37.8799 27.2998Z" fill="white" stroke="black" stroke-width="0.04"/>
<path d="M38.3799 30.1205L37.8799 29.0205L38.0799 28.9805L39.0199 30.7805L38.3799 30.1205Z" fill="#F1B517" stroke="black" stroke-width="0.04"/>
<path d="M37.2002 27.7598L37.7802 29.2798H38.0602L37.2202 27.7598H37.2002Z" fill="white" stroke="black" stroke-width="0.04"/>
<path d="M38.4603 30.2803L36.1603 27.7803C35.4403 28.3403 35.5803 29.3803 35.5803 29.3803L38.1803 31.4203L38.4403 30.2803H38.4603Z" fill="#0A328C" stroke="black" stroke-width="0.04"/>
<path d="M39.78 31.6399L38.08 29.9199C37.36 29.9599 37.92 31.0199 37.96 31.1599L39.76 32.6999V31.6399H39.78Z" fill="#D20014" stroke="black" stroke-width="0.04"/>
<path d="M39.6201 31.3601L36.1201 27.6001L35.9801 27.7001L39.7001 31.8201L39.6201 31.3601ZM35.9201 27.3601L35.8401 27.2601V27.0801L35.1201 26.6201L35.4401 27.3601L35.7001 27.4001L35.7601 27.4801L35.9201 27.3601Z" fill="#F1B517" stroke="black" stroke-width="0.04"/>
<path d="M35.54 27.6197C35.6873 27.4369 35.8713 27.287 36.08 27.1797L36.28 27.4797L35.84 27.8397L35.54 27.6397V27.6197Z" fill="#F1B517" stroke="black" stroke-width="0.04"/>
<path d="M35.1602 28.2604L35.2802 28.4604C35.3602 28.4404 36.0802 27.7604 36.0802 27.7604H36.6202L36.7602 27.5804C36.3602 27.1804 36.0202 27.6404 36.0202 27.6404L35.1602 28.2404V28.2604Z" fill="#0A328C" stroke="#0A328C" stroke-width="0.04"/>
<path d="M35.6003 28.6001C35.6003 28.4001 35.9603 27.9601 36.0003 27.9401C36.2603 28.0201 36.5003 28.1801 36.7803 27.5801C36.5403 27.8601 36.0803 27.5801 36.0803 27.5801L35.8803 27.7401V27.8201L35.2803 28.3801L35.5803 28.6001H35.6003Z" fill="#D20014" stroke="#D20014" stroke-width="0.04"/>
<path d="M37.46 30.9402L34.58 28.6602C34.08 29.1602 34.5 30.7002 34.5 30.7002L37.3 32.2202L37.44 30.9402H37.46Z" fill="#0A328C" stroke="black" stroke-width="0.04"/>
<path d="M39.8407 32.7999L37.4607 30.8799C36.6607 30.9999 37.3007 32.1799 37.3407 32.3199L39.8407 33.6799V32.7799V32.7999Z" fill="#D20014" stroke="black" stroke-width="0.04"/>
<path d="M39.74 32.4003L34.62 28.5603L34.52 28.6803L39.88 32.8803L39.74 32.4003ZM34.38 28.3603L34.3 28.2803L34.26 28.1203L33.46 27.7803L33.92 28.4403H34.18L34.26 28.5203L34.38 28.3603Z" fill="#F1B517" stroke="black" stroke-width="0.04"/>
<path d="M34.0605 28.6802C34.175 28.476 34.3319 28.2987 34.5205 28.1602L34.7605 28.4202L34.4005 28.8402L34.0605 28.6802Z" fill="#F1B517" stroke="black" stroke-width="0.04"/>
<path d="M33.8003 29.32V29.54C33.8803 29.5 34.5403 28.8 34.5403 28.8L35.0403 28.7L35.1603 28.54C34.8003 28.12 34.4203 28.68 34.4203 28.68L33.7803 29.32H33.8003Z" fill="#0A328C" stroke="#0A328C" stroke-width="0.04"/>
<path d="M34.2003 29.7C34.1603 29.5 34.4403 28.94 34.4803 28.9C34.8003 29 35.0803 29.14 35.1803 28.5C34.9803 28.82 34.4803 28.58 34.4803 28.58L34.3203 28.78V28.88L33.8203 29.54L34.2003 29.7Z" fill="#D20014" stroke="#D20014" stroke-width="0.04"/>
<path d="M37.2402 32.3402C36.0042 31.645 34.7708 30.9449 33.5402 30.2402C33.2802 30.7002 33.5202 31.3402 33.6402 31.4402C33.6402 31.7402 33.5202 31.9002 33.7802 32.5402C33.8602 32.9402 34.0402 33.3202 34.3202 33.5402C34.6402 34.8202 35.9602 34.9202 36.4602 33.8602L37.2602 32.3402H37.2402Z" fill="#0A328C" stroke="black" stroke-width="0.04"/>
<path d="M39.66 33.7002L37.16 32.2402C36.36 32.3402 37.16 33.8402 37.22 33.9802L39.66 34.8402V33.7002Z" fill="#D20014" stroke="black" stroke-width="0.04"/>
<path d="M39.2403 33.1601L33.5803 30.1601L33.4803 30.2801L39.4803 33.6201L39.2403 33.1601ZM33.3003 30.0001L33.2003 29.9401L33.1403 29.7801L32.3203 29.5801L32.8603 30.1601L33.1003 30.1201L33.2203 30.1801L33.3003 30.0001Z" fill="#F1B517" stroke="black" stroke-width="0.04"/>
<path d="M33.04 30.3598C33.12 30.1598 33.2 29.9798 33.4 29.7598L33.68 29.9798L33.4 30.4598L33.04 30.3598Z" fill="#F1B517" stroke="black" stroke-width="0.04"/>
<path d="M32.8203 31.04L32.9403 31.28L33.5403 30.36L34.0403 30.18L34.1403 29.98C33.7403 29.62 33.4403 30.26 33.4403 30.26L32.8203 31.04Z" fill="#0A328C" stroke="#0A328C" stroke-width="0.04"/>
<path d="M33.36 31.3605C33.32 31.1605 33.46 30.5205 33.5 30.5005C33.8 30.6005 34.06 30.6205 34.14 29.9805C33.94 30.2805 33.48 30.1805 33.48 30.1805L33.34 30.3805L33.36 30.4605L32.96 31.2605L33.36 31.3605Z" fill="#D20014" stroke="#D20014" stroke-width="0.04"/>
<path d="M41.0801 28.7002H40.8001L40.2801 30.8402L40.4001 31.5202L41.0801 28.7202V28.7002Z" fill="#F1B517" stroke="black" stroke-width="0.04"/>
<path d="M41.3799 27.2598L41.1799 28.9198H40.9799L41.3799 27.2798V27.2598Z" fill="white" stroke="black" stroke-width="0.04"/>
<path d="M40.8402 30.9206L41.7002 28.6206L41.3802 28.6006L40.3802 31.4006L40.8402 30.9206Z" fill="#F1B517" stroke="black" stroke-width="0.04"/>
<path d="M42.1006 27.2998L41.7406 28.8998H41.4606L42.1006 27.2998Z" fill="white" stroke="black" stroke-width="0.04"/>
<path d="M41.6006 30.1205L42.1006 29.0205L41.9006 28.9805L40.9606 30.7805L41.6006 30.1205Z" fill="#F1B517" stroke="black" stroke-width="0.04"/>
<path d="M42.7803 27.7598L42.2003 29.2798H41.9203L42.7603 27.7598H42.7803Z" fill="white" stroke="black" stroke-width="0.04"/>
<path d="M41.5202 30.2803L43.8202 27.7803C44.5402 28.3403 44.4002 29.3803 44.4002 29.3803L41.8002 31.4203L41.5402 30.2803H41.5202Z" fill="#0A328C" stroke="black" stroke-width="0.04"/>
<path d="M40.2005 31.6399L41.9005 29.9199C42.6205 29.9599 42.0605 31.0199 42.0205 31.1599L40.2205 32.6999V31.6399H40.2005Z" fill="#D20014" stroke="black" stroke-width="0.04"/>
<path d="M40.3604 31.3601L43.8604 27.6001L44.0004 27.7001L40.2804 31.8201L40.3604 31.3601ZM44.0604 27.3601L44.1404 27.2601V27.0801L44.8604 26.6201L44.5404 27.3601L44.2804 27.4001L44.2204 27.4801L44.0604 27.3601Z" fill="#F1B517" stroke="black" stroke-width="0.04"/>
<path d="M44.4404 27.6197C44.2931 27.4369 44.1092 27.287 43.9004 27.1797L43.7004 27.4797L44.1404 27.8397L44.4404 27.6397V27.6197Z" fill="#F1B517" stroke="black" stroke-width="0.04"/>
<path d="M44.8203 28.2604L44.7003 28.4604C44.6203 28.4404 43.9003 27.7604 43.9003 27.7604H43.3603L43.2203 27.5804C43.6203 27.1804 43.9603 27.6404 43.9603 27.6404L44.8203 28.2404V28.2604Z" fill="#0A328C" stroke="#0A328C" stroke-width="0.04"/>
<path d="M44.3802 28.6001C44.3802 28.4001 44.0202 27.9601 43.9802 27.9401C43.7202 28.0201 43.4802 28.1801 43.2002 27.5801C43.4402 27.8601 43.9002 27.5801 43.9002 27.5801L44.1002 27.7401V27.8201L44.7002 28.3801L44.4002 28.6001H44.3802Z" fill="#D20014" stroke="#D20014" stroke-width="0.04"/>
<path d="M42.5205 30.9402L45.4005 28.6602C45.9005 29.1602 45.4805 30.7002 45.4805 30.7002L42.6805 32.2202L42.5405 30.9402H42.5205Z" fill="#0A328C" stroke="black" stroke-width="0.04"/>
<path d="M40.1398 32.7999L42.5198 30.8799C43.3198 30.9999 42.6798 32.1799 42.6398 32.3199L40.1398 33.6799V32.7799V32.7999Z" fill="#D20014" stroke="black" stroke-width="0.04"/>
<path d="M40.2405 32.4003L45.3605 28.5603L45.4605 28.6803L40.1005 32.8803L40.2405 32.4003ZM45.6005 28.3603L45.6805 28.2803L45.7205 28.1203L46.5205 27.7803L46.0605 28.4403H45.8005L45.7205 28.5203L45.6005 28.3603Z" fill="#F1B517" stroke="black" stroke-width="0.04"/>
<path d="M45.9199 28.6802C45.8055 28.476 45.6486 28.2987 45.4599 28.1602L45.2199 28.4202L45.5799 28.8402L45.9199 28.6802Z" fill="#F1B517" stroke="black" stroke-width="0.04"/>
<path d="M46.1802 29.32V29.54C46.1002 29.5 45.4402 28.8 45.4402 28.8L44.9402 28.7L44.8202 28.54C45.1802 28.12 45.5602 28.68 45.5602 28.68L46.2002 29.32H46.1802Z" fill="#0A328C" stroke="#0A328C" stroke-width="0.04"/>
<path d="M45.7802 29.7C45.8202 29.5 45.5402 28.94 45.5002 28.9C45.1802 29 44.9002 29.14 44.8002 28.5C45.0002 28.82 45.5002 28.58 45.5002 28.58L45.6602 28.78V28.88L46.1602 29.54L45.7802 29.7Z" fill="#D20014" stroke="#D20014" stroke-width="0.04"/>
<path d="M42.7403 32.3402C43.9763 31.645 45.2096 30.9449 46.4403 30.2402C46.7003 30.7002 46.4603 31.3402 46.3403 31.4402C46.3403 31.7402 46.4603 31.9002 46.2003 32.5402C46.1203 32.9402 45.9403 33.3202 45.6603 33.5402C45.3403 34.8202 44.0203 34.9202 43.5203 33.8602L42.7203 32.3402H42.7403Z" fill="#0A328C" stroke="black" stroke-width="0.04"/>
<path d="M40.3205 33.7002L42.8205 32.2402C43.6205 32.3402 42.8205 33.8402 42.7605 33.9802L40.3205 34.8402V33.7002Z" fill="#D20014" stroke="black" stroke-width="0.04"/>
<path d="M40.7402 33.1601L46.4002 30.1601L46.5002 30.2801L40.5002 33.6201L40.7402 33.1601ZM46.6802 30.0001L46.7802 29.9401L46.8402 29.7801L47.6602 29.5801L47.1202 30.1601L46.8802 30.1201L46.7602 30.1801L46.6802 30.0001Z" fill="#F1B517" stroke="black" stroke-width="0.04"/>
<path d="M46.9404 30.3598C46.8604 30.1598 46.7804 29.9798 46.5804 29.7598L46.3004 29.9798L46.5804 30.4598L46.9404 30.3598Z" fill="#F1B517" stroke="black" stroke-width="0.04"/>
<path d="M47.1602 31.04L47.0402 31.28L46.4402 30.36L45.9402 30.18L45.8402 29.98C46.2402 29.62 46.5402 30.26 46.5402 30.26L47.1602 31.04Z" fill="#0A328C" stroke="#0A328C" stroke-width="0.04"/>
<path d="M46.6205 31.3605C46.6605 31.1605 46.5205 30.5205 46.4805 30.5005C46.1805 30.6005 45.9205 30.6205 45.8405 29.9805C46.0405 30.2805 46.5005 30.1805 46.5005 30.1805L46.6405 30.3805L46.6205 30.4605L47.0205 31.2605L46.6205 31.3605Z" fill="#D20014" stroke="#D20014" stroke-width="0.04"/>
<path d="M39.7602 25.1198L39.6602 26.9198H40.2402L40.1602 25.1198L40.7602 25.0598L40.7002 24.3398L39.2002 24.3998V25.0398L39.7602 25.1198Z" fill="#016A16" stroke="#016A16" stroke-width="0.04"/>
<path d="M39.9604 24.3801C38.4004 22.8201 37.1804 23.5801 36.9004 23.8001C37.1004 23.8401 37.2604 23.7201 37.3604 23.7001L37.1604 23.9401C37.1604 23.9401 37.6604 23.7401 37.7204 23.7401C37.6404 23.8001 37.5604 23.9401 37.5604 23.9401C37.6004 23.9401 37.8804 23.7201 37.9204 23.7201C37.8404 23.8001 37.8204 24.0201 37.8204 24.0201L38.0604 23.9201C38.1204 23.9601 38.0404 24.0401 38.0804 24.0401C38.4804 24.0001 39.0204 24.3801 39.0804 24.5001" fill="#016A16"/>
<path d="M39.9604 24.3801C38.4004 22.8201 37.1804 23.5801 36.9004 23.8001C37.1004 23.8401 37.2604 23.7201 37.3604 23.7001L37.1604 23.9401C37.1604 23.9401 37.6604 23.7401 37.7204 23.7401C37.6404 23.8001 37.5604 23.9401 37.5604 23.9401C37.6004 23.9401 37.8804 23.7201 37.9204 23.7201C37.8404 23.8001 37.8204 24.0201 37.8204 24.0201L38.0604 23.9201C38.1204 23.9601 38.0404 24.0401 38.0804 24.0401C38.4804 24.0001 39.0204 24.3801 39.0804 24.5001" stroke="black" stroke-width="0.04"/>
<path d="M39.5803 24.6597C39.4203 24.2997 36.4604 23.6597 35.8604 24.7197C36.1004 24.7797 36.3204 24.5197 36.3204 24.5197V24.7597L36.7004 24.4397L36.5604 24.7597L36.8604 24.4997V24.7597L37.2604 24.3597L37.2004 24.5797L37.5404 24.4397L37.5004 24.6397" fill="#016A16"/>
<path d="M39.5803 24.6597C39.4203 24.2997 36.4604 23.6597 35.8604 24.7197C36.1004 24.7797 36.3204 24.5197 36.3204 24.5197V24.7597L36.7004 24.4397L36.5604 24.7597L36.8604 24.4997V24.7597L37.2604 24.3597L37.2004 24.5797L37.5404 24.4397L37.5004 24.6397" stroke="black" stroke-width="0.04"/>
<path d="M39.4403 24.7202C38.6803 24.2202 37.5203 24.5602 37.5203 24.5602C36.7603 24.9602 36.3603 24.9002 36.2803 25.6802C36.3403 25.6602 36.5403 25.4002 36.5403 25.4002L36.7003 25.7002L36.7403 25.2802L36.8603 25.6202L37.0603 25.0602L37.1003 25.4402L37.3803 25.0602L37.5003 25.1802L37.6203 24.8802L37.7403 25.0802C37.7403 25.0802 37.9403 24.9602 38.0403 25.0202L38.2403 24.7802L38.3003 24.9602L38.5003 24.7602L38.5603 24.9002L38.7403 24.7402V24.8602H39.3403" fill="#016A16"/>
<path d="M39.4403 24.7202C38.6803 24.2202 37.5203 24.5602 37.5203 24.5602C36.7603 24.9602 36.3603 24.9002 36.2803 25.6802C36.3403 25.6602 36.5403 25.4002 36.5403 25.4002L36.7003 25.7002L36.7403 25.2802L36.8603 25.6202L37.0603 25.0602L37.1003 25.4402L37.3803 25.0602L37.5003 25.1802L37.6203 24.8802L37.7403 25.0802C37.7403 25.0802 37.9403 24.9602 38.0403 25.0202L38.2403 24.7802L38.3003 24.9602L38.5003 24.7602L38.5603 24.9002L38.7403 24.7402V24.8602H39.3403" stroke="black" stroke-width="0.04"/>
<path d="M39.2808 24.7998C38.7408 24.7998 37.2208 25.3798 36.8408 25.9598C36.9253 25.9152 37.0121 25.8751 37.1008 25.8398L37.1608 26.0798L37.2608 25.8398L37.2808 26.0398C37.3408 25.8798 37.4008 25.8798 37.5208 26.0198L37.5608 25.7998L37.6208 25.9998L37.7208 25.7798C37.7208 25.7798 37.7808 26.0198 37.8208 26.0198C37.8208 26.0198 37.9808 25.5798 38.0608 25.5598L38.0808 25.8398L38.1808 25.5598L38.2808 25.7598V25.4798L38.4008 25.6798C38.4008 25.6798 38.4408 25.4798 38.5208 25.4398L38.6808 25.5798L39.3608 25.0798" fill="#016A16"/>
<path d="M39.2808 24.7998C38.7408 24.7998 37.2208 25.3798 36.8408 25.9598C36.9253 25.9152 37.0121 25.8751 37.1008 25.8398L37.1608 26.0798L37.2608 25.8398L37.2808 26.0398C37.3408 25.8798 37.4008 25.8798 37.5208 26.0198L37.5608 25.7998L37.6208 25.9998L37.7208 25.7798C37.7208 25.7798 37.7808 26.0198 37.8208 26.0198C37.8208 26.0198 37.9808 25.5798 38.0608 25.5598L38.0808 25.8398L38.1808 25.5598L38.2808 25.7598V25.4798L38.4008 25.6798C38.4008 25.6798 38.4408 25.4798 38.5208 25.4398L38.6808 25.5798L39.3608 25.0798" stroke="black" stroke-width="0.04"/>
<path d="M39.3806 24.9404C38.6806 25.2004 38.0406 26.1804 38.1006 26.5804C38.4006 26.1804 38.3406 26.2404 38.4806 26.7004C38.4806 26.7004 38.5206 26.3004 38.5806 26.2604L38.6806 26.5404L38.7006 26.1604H38.8006L38.7806 25.9404L38.9206 26.0404C38.8806 25.9004 38.8606 25.8604 39.0006 25.7404C39.0006 25.7404 38.8006 25.7604 38.9606 25.4404L39.1006 25.5604C39.1006 25.5604 39.0606 25.4204 39.1006 25.3604L39.6206 25.2004" fill="#016A16"/>
<path d="M39.3806 24.9404C38.6806 25.2004 38.0406 26.1804 38.1006 26.5804C38.4006 26.1804 38.3406 26.2404 38.4806 26.7004C38.4806 26.7004 38.5206 26.3004 38.5806 26.2604L38.6806 26.5404L38.7006 26.1604H38.8006L38.7806 25.9404L38.9206 26.0404C38.8806 25.9004 38.8606 25.8604 39.0006 25.7404C39.0006 25.7404 38.8006 25.7604 38.9606 25.4404L39.1006 25.5604C39.1006 25.5604 39.0606 25.4204 39.1006 25.3604L39.6206 25.2004" stroke="black" stroke-width="0.04"/>
<path d="M39.4403 25L39.1803 25.52L39.3203 25.56L39.0003 25.78L39.2603 25.76C39.2603 25.76 38.8603 25.9 38.8203 26.3L39.2203 26.1C39.2203 26.1 38.8803 26.46 38.8203 26.68L39.0803 26.48C39.0803 26.48 38.8403 26.72 38.8803 27.08L39.0603 26.88C39.0203 27.34 39.0203 27.38 39.2203 27.72C39.2203 27.72 39.1803 27.2 39.2203 27.12L39.6803 27.6L39.4403 26.94C39.4403 26.94 39.7203 27.34 39.8803 27.32L39.5203 26.78L39.8803 27.06L39.4803 26.46L39.8403 26.58C39.8403 26.58 39.5803 26.24 39.6003 26.02L39.8603 26.3C39.8603 26.3 39.7603 26 39.7803 25.9L39.9203 25.92L39.6603 25.64L39.8403 25.6L39.8203 25.4L39.9403 25.38V25.16M39.7203 25.16C39.2803 25.76 39.5003 26.66 39.2403 27.14L39.7203 25.16Z" fill="#016A16"/>
<path d="M39.4403 25L39.1803 25.52L39.3203 25.56L39.0003 25.78L39.2603 25.76C39.2603 25.76 38.8603 25.9 38.8203 26.3L39.2203 26.1C39.2203 26.1 38.8803 26.46 38.8203 26.68L39.0803 26.48C39.0803 26.48 38.8403 26.72 38.8803 27.08L39.0603 26.88C39.0203 27.34 39.0203 27.38 39.2203 27.72C39.2203 27.72 39.1803 27.2 39.2203 27.12L39.6803 27.6L39.4403 26.94C39.4403 26.94 39.7203 27.34 39.8803 27.32L39.5203 26.78L39.8803 27.06L39.4803 26.46L39.8403 26.58C39.8403 26.58 39.5803 26.24 39.6003 26.02L39.8603 26.3C39.8603 26.3 39.7603 26 39.7803 25.9L39.9203 25.92L39.6603 25.64L39.8403 25.6L39.8203 25.4L39.9403 25.38V25.16M39.7203 25.16C39.2803 25.76 39.5003 26.66 39.2403 27.14" stroke="black" stroke-width="0.04"/>
<path d="M40.0201 24.3801C41.5801 22.8201 42.8001 23.5801 43.0801 23.8001C42.8801 23.8401 42.7201 23.7201 42.6201 23.7001L42.8201 23.9401C42.8201 23.9401 42.3201 23.7401 42.2601 23.7401C42.3401 23.8001 42.4201 23.9401 42.4201 23.9401C42.3801 23.9401 42.1001 23.7201 42.0601 23.7201C42.1401 23.8001 42.1601 24.0201 42.1601 24.0201L41.9201 23.9201C41.8601 23.9601 41.9401 24.0401 41.9001 24.0401C41.5001 24.0001 40.9601 24.3801 40.9001 24.5001" fill="#016A16"/>
<path d="M40.0201 24.3801C41.5801 22.8201 42.8001 23.5801 43.0801 23.8001C42.8801 23.8401 42.7201 23.7201 42.6201 23.7001L42.8201 23.9401C42.8201 23.9401 42.3201 23.7401 42.2601 23.7401C42.3401 23.8001 42.4201 23.9401 42.4201 23.9401C42.3801 23.9401 42.1001 23.7201 42.0601 23.7201C42.1401 23.8001 42.1601 24.0201 42.1601 24.0201L41.9201 23.9201C41.8601 23.9601 41.9401 24.0401 41.9001 24.0401C41.5001 24.0001 40.9601 24.3801 40.9001 24.5001" stroke="black" stroke-width="0.04"/>
<path d="M40.4001 24.6597C40.5601 24.2997 43.5201 23.6597 44.1201 24.7197C43.8801 24.7797 43.6601 24.5197 43.6601 24.5197V24.7597L43.2801 24.4397L43.4201 24.7597L43.1201 24.4997V24.7597L42.7201 24.3597L42.7801 24.5797L42.4401 24.4397L42.4801 24.6397" fill="#016A16"/>
<path d="M40.4001 24.6597C40.5601 24.2997 43.5201 23.6597 44.1201 24.7197C43.8801 24.7797 43.6601 24.5197 43.6601 24.5197V24.7597L43.2801 24.4397L43.4201 24.7597L43.1201 24.4997V24.7597L42.7201 24.3597L42.7801 24.5797L42.4401 24.4397L42.4801 24.6397" stroke="black" stroke-width="0.04"/>
<path d="M40.5402 24.7202C41.3002 24.2202 42.4602 24.5602 42.4602 24.5602C43.2202 24.9602 43.6202 24.9002 43.7002 25.6802C43.6402 25.6602 43.4402 25.4002 43.4402 25.4002L43.2802 25.7002L43.2402 25.2802L43.1202 25.6202L42.9202 25.0602L42.8802 25.4402L42.6002 25.0602L42.4802 25.1802L42.3602 24.8802L42.2402 25.0802C42.2402 25.0802 42.0402 24.9602 41.9402 25.0202L41.7402 24.7802L41.6802 24.9602L41.4802 24.7602L41.4202 24.9002L41.2402 24.7402V24.8602H40.6402" fill="#016A16"/>
<path d="M40.5402 24.7202C41.3002 24.2202 42.4602 24.5602 42.4602 24.5602C43.2202 24.9602 43.6202 24.9002 43.7002 25.6802C43.6402 25.6602 43.4402 25.4002 43.4402 25.4002L43.2802 25.7002L43.2402 25.2802L43.1202 25.6202L42.9202 25.0602L42.8802 25.4402L42.6002 25.0602L42.4802 25.1802L42.3602 24.8802L42.2402 25.0802C42.2402 25.0802 42.0402 24.9602 41.9402 25.0202L41.7402 24.7802L41.6802 24.9602L41.4802 24.7602L41.4202 24.9002L41.2402 24.7402V24.8602H40.6402" stroke="black" stroke-width="0.04"/>
<path d="M40.6996 24.7998C41.2396 24.7998 42.7596 25.3798 43.1396 25.9598C43.0552 25.9152 42.9684 25.8751 42.8796 25.8398L42.8196 26.0798L42.7196 25.8398L42.6996 26.0398C42.6396 25.8798 42.5796 25.8798 42.4596 26.0198L42.4196 25.7998L42.3596 25.9998L42.2596 25.7798C42.2596 25.7798 42.1996 26.0198 42.1596 26.0198C42.1596 26.0198 41.9996 25.5798 41.9196 25.5598L41.8996 25.8398L41.7996 25.5598L41.6996 25.7598V25.4798L41.5796 25.6798C41.5796 25.6798 41.5396 25.4798 41.4596 25.4398L41.2996 25.5798L40.6196 25.0798" fill="#016A16"/>
<path d="M40.6996 24.7998C41.2396 24.7998 42.7596 25.3798 43.1396 25.9598C43.0552 25.9152 42.9684 25.8751 42.8796 25.8398L42.8196 26.0798L42.7196 25.8398L42.6996 26.0398C42.6396 25.8798 42.5796 25.8798 42.4596 26.0198L42.4196 25.7998L42.3596 25.9998L42.2596 25.7798C42.2596 25.7798 42.1996 26.0198 42.1596 26.0198C42.1596 26.0198 41.9996 25.5798 41.9196 25.5598L41.8996 25.8398L41.7996 25.5598L41.6996 25.7598V25.4798L41.5796 25.6798C41.5796 25.6798 41.5396 25.4798 41.4596 25.4398L41.2996 25.5798L40.6196 25.0798" stroke="black" stroke-width="0.04"/>
<path d="M40.5999 24.9404C41.2999 25.2004 41.9399 26.1804 41.8799 26.5804C41.5799 26.1804 41.6399 26.2404 41.4999 26.7004C41.4999 26.7004 41.4599 26.3004 41.3999 26.2604L41.2999 26.5404L41.2799 26.1604H41.1799L41.1999 25.9404L41.0599 26.0404C41.0999 25.9004 41.1199 25.8604 40.9799 25.7404C40.9799 25.7404 41.1799 25.7604 41.0199 25.4404L40.8799 25.5604C40.8799 25.5604 40.9199 25.4204 40.8799 25.3604L40.3599 25.2004" fill="#016A16"/>
<path d="M40.5999 24.9404C41.2999 25.2004 41.9399 26.1804 41.8799 26.5804C41.5799 26.1804 41.6399 26.2404 41.4999 26.7004C41.4999 26.7004 41.4599 26.3004 41.3999 26.2604L41.2999 26.5404L41.2799 26.1604H41.1799L41.1999 25.9404L41.0599 26.0404C41.0999 25.9004 41.1199 25.8604 40.9799 25.7404C40.9799 25.7404 41.1799 25.7604 41.0199 25.4404L40.8799 25.5604C40.8799 25.5604 40.9199 25.4204 40.8799 25.3604L40.3599 25.2004" stroke="black" stroke-width="0.04"/>
<path d="M40.5402 25L40.8002 25.52L40.6602 25.56L40.9802 25.78L40.7202 25.76C40.7202 25.76 41.1202 25.9 41.1602 26.3L40.7602 26.1C40.7602 26.1 41.1002 26.46 41.1602 26.68L40.9002 26.48C40.9002 26.48 41.1402 26.72 41.1002 27.08L40.9202 26.88C40.9602 27.34 40.9602 27.38 40.7602 27.72C40.7602 27.72 40.8002 27.2 40.7602 27.12L40.3002 27.6L40.5402 26.94C40.5402 26.94 40.2602 27.34 40.1002 27.32L40.4602 26.78L40.1002 27.06L40.5002 26.46L40.1402 26.58C40.1402 26.58 40.4002 26.24 40.3802 26.02L40.1202 26.3C40.1202 26.3 40.2202 26 40.2002 25.9L40.0602 25.92L40.3202 25.64L40.1402 25.6L40.1602 25.4L40.0402 25.38V25.16M40.2602 25.16C40.7002 25.76 40.4802 26.66 40.7402 27.14L40.2602 25.16Z" fill="#016A16"/>
<path d="M40.5402 25L40.8002 25.52L40.6602 25.56L40.9802 25.78L40.7202 25.76C40.7202 25.76 41.1202 25.9 41.1602 26.3L40.7602 26.1C40.7602 26.1 41.1002 26.46 41.1602 26.68L40.9002 26.48C40.9002 26.48 41.1402 26.72 41.1002 27.08L40.9202 26.88C40.9602 27.34 40.9602 27.38 40.7602 27.72C40.7602 27.72 40.8002 27.2 40.7602 27.12L40.3002 27.6L40.5402 26.94C40.5402 26.94 40.2602 27.34 40.1002 27.32L40.4602 26.78L40.1002 27.06L40.5002 26.46L40.1402 26.58C40.1402 26.58 40.4002 26.24 40.3802 26.02L40.1202 26.3C40.1202 26.3 40.2202 26 40.2002 25.9L40.0602 25.92L40.3202 25.64L40.1402 25.6L40.1602 25.4L40.0402 25.38V25.16M40.2602 25.16C40.7002 25.76 40.4802 26.66 40.7402 27.14" stroke="black" stroke-width="0.04"/>
<path d="M40.2002 33.2998C40.2002 33.2998 40.4202 31.2998 40.4202 30.4598C40.4202 29.7798 40.2602 28.2998 40.2602 28.2998H39.6002C39.6002 28.2998 39.5002 29.7798 39.5202 30.4598C39.5202 31.2998 39.7402 33.2998 39.7402 33.2998H40.2002Z" fill="#F1B517" stroke="black" stroke-width="0.04"/>
<path d="M39.54 28.4004H40.34L40.24 27.8604H39.66L39.54 28.3803V28.4004Z" fill="#F1B517" stroke="black" stroke-width="0.04"/>
<path d="M39.6001 27.9599H40.3001L40.1601 27.4199H39.7201L39.5801 27.9599H39.6001Z" fill="#F1B517" stroke="black" stroke-width="0.04"/>
<path d="M39.6406 27.54H40.2406L40.1206 27H39.7406L39.6406 27.54Z" fill="#F1B517" stroke="black" stroke-width="0.04"/>
<path d="M40.1405 26.9404H39.7405L39.6805 27.1404H40.1805L40.1405 26.9404ZM40.2205 32.8804H39.7005H40.2205ZM40.2605 32.4804H39.6605H40.2605ZM40.3405 32.0804H39.5805H40.3405ZM40.3805 31.6604H39.5805H40.3805ZM40.3805 31.2204H39.5605H40.3805ZM40.4005 30.8204H39.5205H40.4005ZM40.4005 30.4804H39.4805H40.4005ZM40.4005 30.0404H39.4805H40.4005ZM40.3805 29.6204H39.4805H40.3805ZM40.3405 29.1804H39.5205H40.3405ZM40.3005 28.7804H39.5605H40.3005Z" fill="#F1B517"/>
<path d="M40.2205 32.8804H39.7005M40.2605 32.4804H39.6605M40.3405 32.0804H39.5805M40.3805 31.6604H39.5805M40.3805 31.2204H39.5605M40.4005 30.8204H39.5205M40.4005 30.4804H39.4805M40.4005 30.0404H39.4805M40.3805 29.6204H39.4805M40.3405 29.1804H39.5205M40.3005 28.7804H39.5605M40.1405 26.9404H39.7405L39.6805 27.1404H40.1805L40.1405 26.9404Z" stroke="black" stroke-width="0.04"/>
<path d="M40.0007 23.8001C39.8407 23.7401 39.5407 23.5401 39.6207 23.4201L39.7607 23.1801C39.9607 22.7401 39.7607 22.9001 39.7607 22.7801C39.7207 22.6201 40.5207 22.7401 40.5207 23.0401C40.5207 23.1401 40.4607 23.0801 40.4807 23.5601L40.3207 23.8601C40.2058 23.8751 40.089 23.8614 39.9807 23.8201L40.0007 23.8001Z" fill="#0A328C" stroke="#0A328C" stroke-width="0.04"/>
<path d="M40.0799 25.0004L39.8799 24.8204L39.9399 23.4004L40.1399 23.4604L40.0799 24.9804V25.0004Z" fill="#F1B517" stroke="black" stroke-width="0.04"/>
<path d="M40.3406 23.8602C40.4606 23.7802 40.5406 23.5602 40.4606 23.4402C40.2606 23.1802 40.1206 23.2802 39.7806 23.1602C39.7206 23.2402 39.5806 23.3602 39.6006 23.4802C40.0606 23.6802 39.8806 23.5202 40.0406 23.5402C40.1206 23.5402 40.1606 23.6402 40.3406 23.8402V23.8602Z" fill="#D20014" stroke="#D20014" stroke-width="0.04"/>
<path d="M37.6996 32.0605C37.6596 31.9605 37.4996 31.8805 37.2996 31.8805C37.0996 31.8805 36.9596 31.9605 36.8996 32.0605C36.8928 32.0343 36.8928 32.0068 36.8996 31.9805C36.8996 31.8405 37.0796 31.7405 37.2996 31.7405C37.5396 31.7405 37.7196 31.8405 37.7196 31.9805C37.7264 32.0068 37.7264 32.0343 37.7196 32.0605H37.6996Z" fill="#016A16" stroke="white" stroke-width="0.04" stroke-linecap="round"/>
<path d="M37.6804 32.3606C37.6804 32.6006 37.5004 32.8206 37.3004 32.8206C37.1004 32.8206 36.9404 32.6206 36.9404 32.3406V32.1006H37.6804V32.3406V32.3606Z" fill="#016A16" stroke="white" stroke-width="0.04" stroke-linecap="round"/>
<path d="M37.3004 32.2008C37.4993 32.2008 37.6604 32.1202 37.6604 32.0208C37.6604 31.9214 37.4993 31.8408 37.3004 31.8408C37.1016 31.8408 36.9404 31.9214 36.9404 32.0208C36.9404 32.1202 37.1016 32.2008 37.3004 32.2008Z" fill="white"/>
<path d="M37.2202 32.2005L37.1602 31.5605H37.4402L37.4002 32.2205H37.2202V32.2005Z" fill="#016A16" stroke="#F1B517" stroke-width="0.04"/>
<path d="M37.6996 32.0205C37.6596 32.1205 37.4996 32.2005 37.2996 32.2005C37.0996 32.2005 36.9596 32.1205 36.8996 32.0205C36.8928 32.0467 36.8928 32.0743 36.8996 32.1005C36.8996 32.2405 37.0796 32.3405 37.2996 32.3405C37.5396 32.3405 37.7196 32.2405 37.7196 32.1005C37.7264 32.0743 37.7264 32.0467 37.7196 32.0205H37.6996Z" fill="#016A16" stroke="white" stroke-width="0.04" stroke-linecap="round"/>
<path d="M39.2 34.5609L37.8 34.1209L37.18 33.0609L35 32.9609L35.08 33.7609L36.94 34.1009L37.1 34.4209L39.24 35.0209L39.2 34.5609Z" fill="#F1B517" stroke="black" stroke-width="0.04"/>
<path d="M37.7404 34.8605L35.5004 31.5605L35.4004 31.6605L37.6004 34.9405L37.7404 34.8605Z" fill="#503200" stroke="black" stroke-width="0.04"/>
<path d="M35.7203 31.7005L35.4803 31.3005C35.4203 31.2205 35.3603 31.2005 35.2603 31.2605C35.1603 31.3005 35.1803 31.4005 35.2203 31.4805L35.4203 31.8605L35.7203 31.7005Z" fill="white" stroke="black" stroke-width="0.04"/>
<path d="M37.9999 32.8204L33.4999 32.3604L33.3799 33.0204L37.8599 33.4803L37.9999 32.8204Z" fill="#F1B517" stroke="black" stroke-width="0.04"/>
<path d="M33.3998 32.2002L33.2998 33.1002H33.4998L33.6198 32.2802L33.4198 32.2002H33.3998ZM34.1598 32.3402L34.1198 33.1602H34.2398L34.3398 32.4602L34.1798 32.3402H34.1598ZM37.2198 32.7002L37.0998 33.4602H37.3198L37.4198 32.7002H37.2198ZM37.8798 32.7202L37.7398 33.6002L37.9798 33.6402L38.0598 33.1802C38.0598 33.2802 38.1598 33.3402 38.2598 33.3402C38.3798 33.3402 38.4598 33.2402 38.4598 33.1402C38.4598 33.0202 38.3798 32.9402 38.2598 32.9402C38.2181 32.9368 38.1764 32.9465 38.1405 32.968C38.1046 32.9896 38.0764 33.0218 38.0598 33.0602L38.1198 32.7402L37.8798 32.7202ZM36.2798 32.8602L35.6398 33.5602L35.7198 33.6402L36.5198 33.1002L36.2598 32.8602H36.2798ZM34.7998 34.6002L35.4198 33.9002L35.3598 33.8202L34.5598 34.3602L34.7998 34.6002ZM36.4198 34.4202L35.6798 33.8402L35.5998 33.9002L36.1998 34.6602L36.4198 34.4202ZM34.5598 33.0802L35.3398 33.6402L35.4198 33.5802L34.8198 32.8202L34.5598 33.0802ZM35.3998 32.6202L35.4798 33.5402H35.5798L35.8198 32.6402L35.3998 32.6202ZM35.6398 34.8202L35.5798 33.9202H35.4598L35.3198 34.8402H35.6398V34.8202ZM36.6598 33.6202L35.6998 33.7002V33.8002L36.6598 33.9202V33.6002V33.6202ZM34.3798 33.9202L35.3198 33.7802V33.7002L34.3598 33.6002V33.9202H34.3798Z" fill="#F1B517" stroke="black" stroke-width="0.04"/>
<path d="M35.5403 33.9605C35.6839 33.9605 35.8003 33.853 35.8003 33.7205C35.8003 33.5879 35.6839 33.4805 35.5403 33.4805C35.3967 33.4805 35.2803 33.5879 35.2803 33.7205C35.2803 33.853 35.3967 33.9605 35.5403 33.9605Z" fill="#F1B517" stroke="black" stroke-width="0.04"/>
<path fill-rule="evenodd" clip-rule="evenodd" d="M36.8802 33.7201C36.8802 34.4201 36.2802 35.0201 35.5402 35.0201C35.3668 35.0227 35.1947 34.9912 35.0335 34.9273C34.8723 34.8634 34.7253 34.7684 34.6009 34.6476C34.4765 34.5269 34.377 34.3829 34.3083 34.2237C34.2395 34.0646 34.2028 33.8934 34.2002 33.7201C34.2002 33.0001 34.8002 32.4201 35.5402 32.4201C35.7135 32.4174 35.8857 32.449 36.0469 32.5129C36.208 32.5768 36.355 32.6718 36.4795 32.7925C36.6039 32.9132 36.7033 33.0573 36.7721 33.2164C36.8409 33.3756 36.8776 33.5467 36.8802 33.7201ZM36.6202 33.7201C36.6176 33.8593 36.5876 33.9966 36.5319 34.1242C36.4762 34.2518 36.3959 34.3672 36.2956 34.4638C36.1953 34.5604 36.077 34.6363 35.9474 34.6871C35.8178 34.7379 35.6794 34.7627 35.5402 34.7601C35.3993 34.7627 35.2593 34.7373 35.1284 34.6852C34.9975 34.6331 34.8783 34.5555 34.7777 34.4568C34.6771 34.3581 34.5973 34.2403 34.5428 34.1104C34.4882 33.9805 34.4602 33.841 34.4602 33.7001C34.4706 33.4224 34.5896 33.16 34.7916 32.9692C34.9936 32.7785 35.2624 32.6746 35.5402 32.6801C35.6794 32.6774 35.8178 32.7022 35.9474 32.7531C36.077 32.8039 36.1953 32.8798 36.2956 32.9763C36.3959 33.0729 36.4762 33.1883 36.5319 33.3159C36.5876 33.4435 36.6176 33.5809 36.6202 33.7201Z" fill="#F1B517" stroke="black" stroke-width="0.04" stroke-linecap="round"/>
<path d="M34.7 33.0609L34.5 32.9009L34.7 33.0609ZM36.2 32.9009L36.4 32.7009L36.2 32.9009ZM36.6 34.5409L36.38 34.3609L36.6 34.5409ZM34.7 34.7409L34.9 34.5409L34.7 34.7409ZM39.24 32.4209L39.46 33.6209L39.28 33.7009L39.08 32.4409H39.24V32.4209Z" fill="#F1B517"/>
<path d="M34.7 33.0609L34.5 32.9009M36.2 32.9009L36.4 32.7009M36.6 34.5409L36.38 34.3609M34.7 34.7409L34.9 34.5409M39.24 32.4209L39.46 33.6209L39.28 33.7009L39.08 32.4409H39.24V32.4209Z" stroke="black" stroke-width="0.04"/>
<path d="M39.1201 32.2805C39.0201 32.2205 38.8801 32.3005 38.6401 32.0205C38.2601 32.3605 38.6401 32.4205 38.6801 32.7605C38.7801 32.8005 38.8601 32.4805 39.1401 32.4605L39.6001 32.4205L39.5001 32.2805H39.1001H39.1201Z" fill="white" stroke="black" stroke-width="0.04"/>
<path d="M39.28 32.5009L39.24 32.1609C39.18 32.0209 39.04 32.1409 39.04 32.2009L39.08 32.5409L39.28 32.5009Z" fill="white" stroke="black" stroke-width="0.04"/>
<path fill-rule="evenodd" clip-rule="evenodd" d="M38.1597 33.4805V33.8005C38.0397 33.8405 38.0597 33.9205 38.0597 34.0405V34.9805C38.0397 35.0605 37.9197 35.0605 37.8597 35.1005C37.7997 35.1605 37.8197 35.2605 38.0597 35.3005L38.2597 35.3205C38.5597 35.2605 38.6197 35.1605 38.4597 35.1205C38.3997 35.0805 38.2797 35.0405 38.2597 35.0005V34.7605H38.4597C38.4997 34.7605 38.5997 34.6405 38.5997 34.5405V34.0405C38.5997 33.7605 38.3997 33.7205 38.3197 33.7405V33.4805H38.1597ZM38.4797 34.0205C38.4797 33.9405 38.3597 33.8605 38.3197 33.8605C38.2797 33.8605 38.1797 33.9605 38.1797 34.0405V34.2405C38.1797 34.3205 38.2397 34.5605 38.3597 34.5805C38.3997 34.5805 38.4797 34.5005 38.4797 34.4205V34.0205Z" fill="#F1B517" stroke="black" stroke-width="0.04"/>
<path d="M36.8601 34.4609C36.7201 34.4209 36.7201 34.7009 36.7201 34.7009H36.9201C37.0201 34.7409 37.0801 34.8609 37.0401 34.9409C36.9801 34.9809 36.6001 34.8409 36.5801 34.9409C36.6401 35.3209 37.1601 35.4609 37.3401 35.3009C37.5201 35.1209 37.5601 34.7009 36.9801 34.5609L36.8601 34.4609ZM36.9801 34.5809L36.9201 34.7009L36.9801 34.5809Z" fill="white"/>
<path d="M36.9201 34.7009H36.7201C36.7201 34.7009 36.7201 34.4209 36.8601 34.4609L36.9801 34.5609C37.5601 34.7009 37.5201 35.1209 37.3401 35.3009C37.1601 35.4609 36.6401 35.3209 36.5801 34.9409C36.6001 34.8409 36.9801 34.9809 37.0401 34.9409C37.0801 34.8609 37.0201 34.7409 36.9201 34.7009ZM36.9201 34.7009L36.9801 34.5809" stroke="black" stroke-width="0.04"/>
<path d="M33.0003 34.6003L32.8003 33.8003L33.0003 34.6003ZM33.2203 34.5603L32.9203 33.9403L33.2203 34.5603ZM33.7203 34.4003L33.0603 34.0403L33.7203 34.4003ZM34.0203 34.3203L32.7803 33.7803L34.0203 34.3203Z" fill="#F1B517"/>
<path d="M33.0003 34.6003L32.8003 33.8003M33.2203 34.5603L32.9203 33.9403M33.7203 34.4003L33.0603 34.0403M34.0203 34.3203L32.7803 33.7803" stroke="black" stroke-width="0.04"/>
<path d="M32.04 33.2004L31.52 33.2204C31.48 33.2404 31.62 33.4004 31.6 33.4404C31.48 33.6604 30.72 33.6404 30.66 33.6004C30.56 33.5004 31.36 33.4404 31.38 33.4004C31.38 33.3204 31.26 33.1604 31.28 33.0604C31.28 32.9204 31.62 32.8604 31.62 32.8604L32.04 33.2004Z" fill="#D20014" stroke="#D20014" stroke-width="0.04"/>
<path d="M32.6402 33.6009L31.6402 32.7609C31.6402 32.7609 31.5802 32.7209 31.5402 32.7609C31.5002 32.8009 31.5402 32.8409 31.5402 32.8409L32.6202 33.7209L32.6402 33.6209V33.6009Z" fill="#503200" stroke="black" stroke-width="0.04"/>
<path d="M33.64 34.4405L32.8 33.7205L32.74 33.5205L32.58 33.6405C32.52 33.6805 32.46 33.8005 32.46 33.8005H32.68L33.4 34.4805L33.62 34.4405H33.64Z" fill="#F1B517" stroke="black" stroke-width="0.04"/>
<path d="M36.5004 35.5603C36.5777 35.5603 36.6404 35.4976 36.6404 35.4203C36.6404 35.343 36.5777 35.2803 36.5004 35.2803C36.423 35.2803 36.3604 35.343 36.3604 35.4203C36.3604 35.4976 36.423 35.5603 36.5004 35.5603Z" fill="#F1B517" stroke="black" stroke-width="0.04"/>
<path d="M36.1205 35.28C36.1978 35.28 36.2605 35.2173 36.2605 35.14C36.2605 35.0627 36.1978 35 36.1205 35C36.0432 35 35.9805 35.0627 35.9805 35.14C35.9805 35.2173 36.0432 35.28 36.1205 35.28Z" fill="#F1B517" stroke="black" stroke-width="0.04"/>
<path d="M35.6205 35.4607C35.6978 35.4607 35.7605 35.398 35.7605 35.3207C35.7605 35.2433 35.6978 35.1807 35.6205 35.1807C35.5432 35.1807 35.4805 35.2433 35.4805 35.3207C35.4805 35.398 35.5432 35.4607 35.6205 35.4607Z" fill="#F1B517" stroke="black" stroke-width="0.04"/>
<path d="M34.8402 35.6208C34.9175 35.6208 34.9802 35.5581 34.9802 35.4808C34.9802 35.4035 34.9175 35.3408 34.8402 35.3408C34.7629 35.3408 34.7002 35.4035 34.7002 35.4808C34.7002 35.5581 34.7629 35.6208 34.8402 35.6208Z" fill="#F1B517" stroke="black" stroke-width="0.04"/>
<path d="M34.5004 35.6609C34.5777 35.6609 34.6404 35.5982 34.6404 35.5209C34.6404 35.4435 34.5777 35.3809 34.5004 35.3809C34.423 35.3809 34.3604 35.4435 34.3604 35.5209C34.3604 35.5982 34.423 35.6609 34.5004 35.6609Z" fill="#F1B517" stroke="black" stroke-width="0.04"/>
<path d="M34.1595 35.6609C34.2369 35.6609 34.2995 35.5982 34.2995 35.5209C34.2995 35.4435 34.2369 35.3809 34.1595 35.3809C34.0822 35.3809 34.0195 35.4435 34.0195 35.5209C34.0195 35.5982 34.0822 35.6609 34.1595 35.6609Z" fill="#F1B517" stroke="black" stroke-width="0.04"/>
<path d="M33.8402 35.6609C33.9175 35.6609 33.9802 35.5982 33.9802 35.5209C33.9802 35.4435 33.9175 35.3809 33.8402 35.3809C33.7629 35.3809 33.7002 35.4435 33.7002 35.5209C33.7002 35.5982 33.7629 35.6609 33.8402 35.6609Z" fill="#F1B517" stroke="black" stroke-width="0.04"/>
<path d="M34.0004 35.4001C34.0777 35.4001 34.1404 35.3374 34.1404 35.2601C34.1404 35.1828 34.0777 35.1201 34.0004 35.1201C33.923 35.1201 33.8604 35.1828 33.8604 35.2601C33.8604 35.3374 33.923 35.4001 34.0004 35.4001Z" fill="#F1B517" stroke="black" stroke-width="0.04"/>
<path d="M34.3197 35.4206C34.397 35.4206 34.4597 35.3579 34.4597 35.2806C34.4597 35.2033 34.397 35.1406 34.3197 35.1406C34.2424 35.1406 34.1797 35.2033 34.1797 35.2806C34.1797 35.3579 34.2424 35.4206 34.3197 35.4206Z" fill="#F1B517" stroke="black" stroke-width="0.04"/>
<path d="M34.6205 35.3806C34.6978 35.3806 34.7605 35.3179 34.7605 35.2406C34.7605 35.1633 34.6978 35.1006 34.6205 35.1006C34.5432 35.1006 34.4805 35.1633 34.4805 35.2406C34.4805 35.3179 34.5432 35.3806 34.6205 35.3806Z" fill="#F1B517" stroke="black" stroke-width="0.04"/>
<path d="M34.4798 35.1404C34.5572 35.1404 34.6198 35.0777 34.6198 35.0004C34.6198 34.923 34.5572 34.8604 34.4798 34.8604C34.4025 34.8604 34.3398 34.923 34.3398 35.0004C34.3398 35.0777 34.4025 35.1404 34.4798 35.1404Z" fill="#F1B517" stroke="black" stroke-width="0.04"/>
<path d="M34.1595 35.1208C34.2369 35.1208 34.2995 35.0581 34.2995 34.9808C34.2995 34.9035 34.2369 34.8408 34.1595 34.8408C34.0822 34.8408 34.0195 34.9035 34.0195 34.9808C34.0195 35.0581 34.0822 35.1208 34.1595 35.1208Z" fill="#F1B517" stroke="black" stroke-width="0.04"/>
<path fill-rule="evenodd" clip-rule="evenodd" d="M37.2996 35.6006C37.2996 35.5406 37.1396 35.5606 37.1396 35.4806C37.1396 35.4006 37.3796 35.4806 37.3996 35.5406C37.5396 35.4206 37.5996 35.5006 37.6796 35.5406C37.7996 35.3806 37.9396 35.3806 38.0796 35.5006C38.1596 35.4206 38.3597 35.4406 38.4197 35.5406C38.5597 35.4206 38.6796 35.4406 38.7596 35.5406C38.7996 35.4806 38.8596 35.4806 38.8996 35.5406C38.9596 35.4006 39.1397 35.4406 39.2197 35.5406C39.2797 35.4606 39.3596 35.5206 39.4396 35.5606C39.4996 35.5206 39.5996 35.5206 39.5996 35.5606C39.5996 35.6406 39.4796 35.6206 39.4796 35.6806C39.4796 35.7206 39.5596 35.6806 39.5596 35.7606C39.5596 35.8206 39.4397 35.8406 39.4197 35.7606C39.3597 35.8406 39.1996 35.8006 39.1796 35.7206C39.1646 35.7376 39.1462 35.7512 39.1255 35.7606C39.1048 35.7699 39.0823 35.7747 39.0596 35.7747C39.0369 35.7747 39.0145 35.7699 38.9938 35.7606C38.9731 35.7512 38.9547 35.7376 38.9396 35.7206C38.8796 35.7606 38.7996 35.7606 38.7796 35.7206C38.6796 35.8206 38.4996 35.8006 38.4396 35.6806H38.3796C38.3609 35.7019 38.3378 35.7189 38.3119 35.7306C38.2861 35.7423 38.258 35.7483 38.2296 35.7483C38.2013 35.7483 38.1732 35.7423 38.1474 35.7306C38.1215 35.7189 38.0984 35.7019 38.0796 35.6806C37.8996 35.8006 37.7996 35.7606 37.6996 35.6806C37.5996 35.8206 37.4196 35.8206 37.3996 35.6806C37.3196 35.7406 37.1596 35.7606 37.1596 35.6806C37.1596 35.6406 37.2996 35.6606 37.2996 35.6006ZM37.6197 35.6206C37.6197 35.6606 37.5796 35.6806 37.5396 35.6806C37.4996 35.6806 37.4596 35.6606 37.4596 35.6206C37.4596 35.5806 37.4796 35.5806 37.5396 35.5806C37.5996 35.5806 37.6197 35.6006 37.6197 35.6206ZM37.9996 35.5806C37.9996 35.6206 37.9396 35.6406 37.8796 35.6406C37.8196 35.6406 37.7796 35.6206 37.7796 35.5806C37.7796 35.5606 37.8196 35.5206 37.8796 35.5206C37.9396 35.5206 37.9796 35.5606 37.9796 35.5806H37.9996ZM38.6996 35.6206C38.6996 35.6606 38.6596 35.6806 38.5996 35.6806C38.5396 35.6806 38.5197 35.6606 38.5197 35.6206C38.5197 35.6006 38.5596 35.5606 38.5996 35.5606C38.6396 35.5606 38.6996 35.5806 38.6996 35.6206ZM38.3197 35.6206C38.3197 35.6606 38.2797 35.6806 38.2197 35.6806C38.1597 35.6806 38.1396 35.6606 38.1396 35.6006C38.1396 35.5606 38.1797 35.5206 38.2197 35.5206C38.2597 35.5206 38.3197 35.5606 38.3197 35.6006V35.6206ZM39.1197 35.6206C39.1197 35.6406 39.0996 35.6806 39.0596 35.6806C38.9996 35.6806 38.9596 35.6406 38.9596 35.6006C38.9596 35.5606 38.9996 35.5406 39.0596 35.5406C39.0996 35.5406 39.1396 35.5606 39.1396 35.6006L39.1197 35.6206ZM38.8796 35.6206C38.8796 35.6606 38.8796 35.6806 38.8396 35.6806C38.7996 35.6806 38.7796 35.6606 38.7796 35.6206C38.7796 35.5806 38.7996 35.5806 38.8396 35.5806L38.8796 35.6206ZM39.3596 35.6406C39.3596 35.6806 39.3596 35.7206 39.2996 35.7206C39.2796 35.7206 39.2396 35.6806 39.2396 35.6406C39.2396 35.6006 39.2796 35.5806 39.2996 35.5806C39.3396 35.5806 39.3596 35.6006 39.3596 35.6406Z" fill="#F1B517" stroke="black" stroke-width="0.04"/>
<path d="M40.7805 34.5609L42.1805 34.1209L42.8005 33.0609L44.9805 32.9609L44.9005 33.7609L43.0405 34.1009L42.8805 34.4209L40.7405 35.0209L40.7805 34.5609Z" fill="#F1B517" stroke="black" stroke-width="0.04"/>
<path d="M42.2401 34.8605L44.4801 31.5605L44.5801 31.6605L42.3801 34.9405L42.2401 34.8605Z" fill="#503200" stroke="black" stroke-width="0.04"/>
<path d="M44.2602 31.7005L44.5002 31.3005C44.5602 31.2205 44.6202 31.2005 44.7202 31.2605C44.8202 31.3005 44.8002 31.4005 44.7602 31.4805L44.5602 31.8605L44.2602 31.7005Z" fill="white" stroke="black" stroke-width="0.04"/>
<path d="M41.9806 32.8204L46.4806 32.3604L46.6006 33.0204L42.1206 33.4803L41.9806 32.8204Z" fill="#F1B517" stroke="black" stroke-width="0.04"/>
<path d="M46.5807 32.2002L46.6807 33.1002H46.4807L46.3607 32.2802L46.5607 32.2002H46.5807ZM45.8207 32.3402L45.8607 33.1602H45.7407L45.6407 32.4602L45.8007 32.3402H45.8207ZM42.7607 32.7002L42.8807 33.4602H42.6607L42.5607 32.7002H42.7607ZM42.1007 32.7202L42.2407 33.6002L42.0007 33.6402L41.9207 33.1802C41.9207 33.2802 41.8207 33.3402 41.7207 33.3402C41.6007 33.3402 41.5207 33.2402 41.5207 33.1402C41.5207 33.0202 41.6007 32.9402 41.7207 32.9402C41.7624 32.9368 41.8041 32.9465 41.84 32.968C41.8758 32.9896 41.9041 33.0218 41.9207 33.0602L41.8607 32.7402L42.1007 32.7202ZM43.7007 32.8602L44.3407 33.5602L44.2607 33.6402L43.4607 33.1002L43.7207 32.8602H43.7007ZM45.1807 34.6002L44.5607 33.9002L44.6207 33.8202L45.4207 34.3602L45.1807 34.6002ZM43.5607 34.4202L44.3007 33.8402L44.3807 33.9002L43.7807 34.6602L43.5607 34.4202ZM45.4207 33.0802L44.6407 33.6402L44.5607 33.5802L45.1607 32.8202L45.4207 33.0802ZM44.5807 32.6202L44.5007 33.5402H44.4007L44.1607 32.6402L44.5807 32.6202ZM44.3407 34.8202L44.4007 33.9202H44.5207L44.6607 34.8402H44.3407V34.8202ZM43.3207 33.6202L44.2807 33.7002V33.8002L43.3207 33.9202V33.6002V33.6202ZM45.6007 33.9202L44.6607 33.7802V33.7002L45.6207 33.6002V33.9202H45.6007Z" fill="#F1B517" stroke="black" stroke-width="0.04"/>
<path d="M44.4402 33.9605C44.2966 33.9605 44.1802 33.853 44.1802 33.7205C44.1802 33.5879 44.2966 33.4805 44.4402 33.4805C44.5838 33.4805 44.7002 33.5879 44.7002 33.7205C44.7002 33.853 44.5838 33.9605 44.4402 33.9605Z" fill="#F1B517" stroke="black" stroke-width="0.04"/>
<path fill-rule="evenodd" clip-rule="evenodd" d="M43.1003 33.7201C43.1003 34.4201 43.7003 35.0201 44.4403 35.0201C44.6136 35.0227 44.7858 34.9912 44.947 34.9273C45.1081 34.8634 45.2551 34.7684 45.3796 34.6476C45.504 34.5269 45.6034 34.3829 45.6722 34.2237C45.7409 34.0646 45.7777 33.8934 45.7803 33.7201C45.7803 33.0001 45.1803 32.4201 44.4403 32.4201C44.2669 32.4174 44.0947 32.449 43.9336 32.5129C43.7724 32.5768 43.6254 32.6718 43.501 32.7925C43.3766 32.9132 43.2771 33.0573 43.2084 33.2164C43.1396 33.3756 43.1029 33.5467 43.1003 33.7201ZM43.3603 33.7201C43.3629 33.8593 43.3929 33.9966 43.4486 34.1242C43.5043 34.2518 43.5845 34.3672 43.6848 34.4638C43.7851 34.5604 43.9035 34.6363 44.0331 34.6871C44.1627 34.7379 44.3011 34.7627 44.4403 34.7601C44.5811 34.7627 44.7211 34.7373 44.8521 34.6852C44.983 34.6331 45.1022 34.5555 45.2028 34.4568C45.3033 34.3581 45.3832 34.2403 45.4377 34.1104C45.4922 33.9805 45.5203 33.841 45.5203 33.7001C45.5098 33.4224 45.3908 33.16 45.1888 32.9692C44.9869 32.7785 44.718 32.6746 44.4403 32.6801C44.3011 32.6774 44.1627 32.7022 44.0331 32.7531C43.9035 32.8039 43.7851 32.8798 43.6848 32.9763C43.5845 33.0729 43.5043 33.1883 43.4486 33.3159C43.3929 33.4435 43.3629 33.5809 43.3603 33.7201Z" fill="#F1B517" stroke="black" stroke-width="0.04" stroke-linecap="round"/>
<path d="M45.2805 33.0609L45.4805 32.9009L45.2805 33.0609ZM43.7805 32.9009L43.5805 32.7009L43.7805 32.9009ZM43.3805 34.5409L43.6005 34.3609L43.3805 34.5409ZM45.2805 34.7409L45.0805 34.5409L45.2805 34.7409ZM40.7405 32.4209L40.5205 33.6209L40.7005 33.7009L40.9005 32.4409H40.7405V32.4209Z" fill="#F1B517"/>
<path d="M45.2805 33.0609L45.4805 32.9009M43.7805 32.9009L43.5805 32.7009M43.3805 34.5409L43.6005 34.3609M45.2805 34.7409L45.0805 34.5409M40.7405 32.4209L40.5205 33.6209L40.7005 33.7009L40.9005 32.4409H40.7405V32.4209Z" stroke="black" stroke-width="0.04"/>
<path d="M40.8604 32.2805C40.9604 32.2205 41.1004 32.3005 41.3404 32.0205C41.7204 32.3605 41.3404 32.4205 41.3004 32.7605C41.2004 32.8005 41.1204 32.4805 40.8404 32.4605L40.3804 32.4205L40.4804 32.2805H40.8804H40.8604Z" fill="white" stroke="black" stroke-width="0.04"/>
<path d="M40.7004 32.5009L40.7404 32.1609C40.8004 32.0209 40.9404 32.1409 40.9404 32.2009L40.9004 32.5409L40.7004 32.5009Z" fill="white" stroke="black" stroke-width="0.04"/>
<path fill-rule="evenodd" clip-rule="evenodd" d="M41.8208 33.4805V33.8005C41.9408 33.8405 41.9208 33.9205 41.9208 34.0405V34.9805C41.9408 35.0605 42.0608 35.0605 42.1208 35.1005C42.1808 35.1605 42.1608 35.2605 41.9208 35.3005L41.7208 35.3205C41.4208 35.2605 41.3608 35.1605 41.5208 35.1205C41.5808 35.0805 41.7008 35.0405 41.7208 35.0005V34.7605H41.5208C41.4808 34.7605 41.3808 34.6405 41.3808 34.5405V34.0405C41.3808 33.7605 41.5808 33.7205 41.6608 33.7405V33.4805H41.8208ZM41.5008 34.0205C41.5008 33.9405 41.6208 33.8605 41.6608 33.8605C41.7008 33.8605 41.8008 33.9605 41.8008 34.0405V34.2405C41.8008 34.3205 41.7408 34.5605 41.6208 34.5805C41.5808 34.5805 41.5008 34.5005 41.5008 34.4205V34.0205Z" fill="#F1B517" stroke="black" stroke-width="0.04"/>
<path d="M43.1204 34.4609C43.2604 34.4209 43.2604 34.7009 43.2604 34.7009H43.0604C42.9604 34.7409 42.9004 34.8609 42.9404 34.9409C43.0004 34.9809 43.3804 34.8409 43.4004 34.9409C43.3404 35.3209 42.8204 35.4609 42.6404 35.3009C42.4604 35.1209 42.4204 34.7009 43.0004 34.5609L43.1204 34.4609ZM43.0004 34.5809L43.0604 34.7009L43.0004 34.5809Z" fill="white"/>
<path d="M43.0604 34.7009H43.2604C43.2604 34.7009 43.2604 34.4209 43.1204 34.4609L43.0004 34.5609C42.4204 34.7009 42.4604 35.1209 42.6404 35.3009C42.8204 35.4609 43.3404 35.3209 43.4004 34.9409C43.3804 34.8409 43.0004 34.9809 42.9404 34.9409C42.9004 34.8609 42.9604 34.7409 43.0604 34.7009ZM43.0604 34.7009L43.0004 34.5809" stroke="black" stroke-width="0.04"/>
<path d="M46.9802 34.6003L47.1802 33.8003L46.9802 34.6003ZM46.7602 34.5603L47.0602 33.9403L46.7602 34.5603ZM46.2602 34.4003L46.9202 34.0403L46.2602 34.4003ZM45.9602 34.3203L47.2002 33.7803L45.9602 34.3203Z" fill="#F1B517"/>
<path d="M46.9802 34.6003L47.1802 33.8003M46.7602 34.5603L47.0602 33.9403M46.2602 34.4003L46.9202 34.0403M45.9602 34.3203L47.2002 33.7803" stroke="black" stroke-width="0.04"/>
<path d="M47.9405 33.2004L48.4605 33.2204C48.5005 33.2404 48.3605 33.4004 48.3805 33.4404C48.5005 33.6604 49.2605 33.6404 49.3205 33.6004C49.4205 33.5004 48.6205 33.4404 48.6005 33.4004C48.6005 33.3204 48.7205 33.1604 48.7005 33.0604C48.7005 32.9204 48.3605 32.8604 48.3605 32.8604L47.9405 33.2004Z" fill="#D20014" stroke="#D20014" stroke-width="0.04"/>
<path d="M47.3402 33.6009L48.3402 32.7609C48.3402 32.7609 48.4002 32.7209 48.4402 32.7609C48.4802 32.8009 48.4402 32.8409 48.4402 32.8409L47.3602 33.7209L47.3402 33.6209V33.6009Z" fill="#503200" stroke="black" stroke-width="0.04"/>
<path d="M46.3405 34.4405L47.1805 33.7205L47.2405 33.5205L47.4005 33.6405C47.4605 33.6805 47.5205 33.8005 47.5205 33.8005H47.3005L46.5805 34.4805L46.3605 34.4405H46.3405Z" fill="#F1B517" stroke="black" stroke-width="0.04"/>
<path d="M43.4801 35.5603C43.4028 35.5603 43.3401 35.4976 43.3401 35.4203C43.3401 35.343 43.4028 35.2803 43.4801 35.2803C43.5574 35.2803 43.6201 35.343 43.6201 35.4203C43.6201 35.4976 43.5574 35.5603 43.4801 35.5603Z" fill="#F1B517" stroke="black" stroke-width="0.04"/>
<path d="M43.86 35.28C43.7827 35.28 43.72 35.2173 43.72 35.14C43.72 35.0627 43.7827 35 43.86 35C43.9373 35 44 35.0627 44 35.14C44 35.2173 43.9373 35.28 43.86 35.28Z" fill="#F1B517" stroke="black" stroke-width="0.04"/>
<path d="M44.36 35.4607C44.2827 35.4607 44.22 35.398 44.22 35.3207C44.22 35.2433 44.2827 35.1807 44.36 35.1807C44.4373 35.1807 44.5 35.2433 44.5 35.3207C44.5 35.398 44.4373 35.4607 44.36 35.4607Z" fill="#F1B517" stroke="black" stroke-width="0.04"/>
<path d="M45.1403 35.6208C45.063 35.6208 45.0003 35.5581 45.0003 35.4808C45.0003 35.4035 45.063 35.3408 45.1403 35.3408C45.2176 35.3408 45.2803 35.4035 45.2803 35.4808C45.2803 35.5581 45.2176 35.6208 45.1403 35.6208Z" fill="#F1B517" stroke="black" stroke-width="0.04"/>
<path d="M45.4801 35.6609C45.4028 35.6609 45.3401 35.5982 45.3401 35.5209C45.3401 35.4435 45.4028 35.3809 45.4801 35.3809C45.5574 35.3809 45.6201 35.4435 45.6201 35.5209C45.6201 35.5982 45.5574 35.6609 45.4801 35.6609Z" fill="#F1B517" stroke="black" stroke-width="0.04"/>
<path d="M45.8209 35.6609C45.7436 35.6609 45.6809 35.5982 45.6809 35.5209C45.6809 35.4435 45.7436 35.3809 45.8209 35.3809C45.8983 35.3809 45.9609 35.4435 45.9609 35.5209C45.9609 35.5982 45.8983 35.6609 45.8209 35.6609Z" fill="#F1B517" stroke="black" stroke-width="0.04"/>
<path d="M46.1403 35.6609C46.063 35.6609 46.0003 35.5982 46.0003 35.5209C46.0003 35.4435 46.063 35.3809 46.1403 35.3809C46.2176 35.3809 46.2803 35.4435 46.2803 35.5209C46.2803 35.5982 46.2176 35.6609 46.1403 35.6609Z" fill="#F1B517" stroke="black" stroke-width="0.04"/>
<path d="M45.9801 35.4001C45.9028 35.4001 45.8401 35.3374 45.8401 35.2601C45.8401 35.1828 45.9028 35.1201 45.9801 35.1201C46.0574 35.1201 46.1201 35.1828 46.1201 35.2601C46.1201 35.3374 46.0574 35.4001 45.9801 35.4001Z" fill="#F1B517" stroke="black" stroke-width="0.04"/>
<path d="M45.6608 35.4206C45.5835 35.4206 45.5208 35.3579 45.5208 35.2806C45.5208 35.2033 45.5835 35.1406 45.6608 35.1406C45.7381 35.1406 45.8008 35.2033 45.8008 35.2806C45.8008 35.3579 45.7381 35.4206 45.6608 35.4206Z" fill="#F1B517" stroke="black" stroke-width="0.04"/>
<path d="M45.36 35.3806C45.2827 35.3806 45.22 35.3179 45.22 35.2406C45.22 35.1633 45.2827 35.1006 45.36 35.1006C45.4373 35.1006 45.5 35.1633 45.5 35.2406C45.5 35.3179 45.4373 35.3806 45.36 35.3806Z" fill="#F1B517" stroke="black" stroke-width="0.04"/>
<path d="M45.5006 35.1404C45.4233 35.1404 45.3606 35.0777 45.3606 35.0004C45.3606 34.923 45.4233 34.8604 45.5006 34.8604C45.5779 34.8604 45.6406 34.923 45.6406 35.0004C45.6406 35.0777 45.5779 35.1404 45.5006 35.1404Z" fill="#F1B517" stroke="black" stroke-width="0.04"/>
<path d="M45.8209 35.1208C45.7436 35.1208 45.6809 35.0581 45.6809 34.9808C45.6809 34.9035 45.7436 34.8408 45.8209 34.8408C45.8983 34.8408 45.9609 34.9035 45.9609 34.9808C45.9609 35.0581 45.8983 35.1208 45.8209 35.1208Z" fill="#F1B517" stroke="black" stroke-width="0.04"/>
<path fill-rule="evenodd" clip-rule="evenodd" d="M42.6808 35.6006C42.6808 35.5406 42.8408 35.5606 42.8408 35.4806C42.8408 35.4006 42.6008 35.4806 42.5808 35.5406C42.4408 35.4206 42.3808 35.5006 42.3008 35.5406C42.1808 35.3806 42.0408 35.3806 41.9008 35.5006C41.8208 35.4206 41.6208 35.4406 41.5608 35.5406C41.4208 35.4206 41.3008 35.4406 41.2208 35.5406C41.1808 35.4806 41.1208 35.4806 41.0808 35.5406C41.0208 35.4006 40.8408 35.4406 40.7608 35.5406C40.7008 35.4606 40.6208 35.5206 40.5408 35.5606C40.4808 35.5206 40.3808 35.5206 40.3808 35.5606C40.3808 35.6406 40.5008 35.6206 40.5008 35.6806C40.5008 35.7206 40.4208 35.6806 40.4208 35.7606C40.4208 35.8206 40.5408 35.8406 40.5608 35.7606C40.6208 35.8406 40.7808 35.8006 40.8008 35.7206C40.8158 35.7376 40.8343 35.7512 40.855 35.7606C40.8757 35.7699 40.8981 35.7747 40.9208 35.7747C40.9435 35.7747 40.966 35.7699 40.9866 35.7606C41.0073 35.7512 41.0258 35.7376 41.0408 35.7206C41.1008 35.7606 41.1808 35.7606 41.2008 35.7206C41.3008 35.8206 41.4808 35.8006 41.5408 35.6806H41.6008C41.6196 35.7019 41.6427 35.7189 41.6685 35.7306C41.6944 35.7423 41.7224 35.7483 41.7508 35.7483C41.7792 35.7483 41.8072 35.7423 41.8331 35.7306C41.859 35.7189 41.8821 35.7019 41.9008 35.6806C42.0808 35.8006 42.1808 35.7606 42.2808 35.6806C42.3808 35.8206 42.5608 35.8206 42.5808 35.6806C42.6608 35.7406 42.8208 35.7606 42.8208 35.6806C42.8208 35.6406 42.6808 35.6606 42.6808 35.6006ZM42.3608 35.6206C42.3608 35.6606 42.4008 35.6806 42.4408 35.6806C42.4808 35.6806 42.5208 35.6606 42.5208 35.6206C42.5208 35.5806 42.5008 35.5806 42.4408 35.5806C42.3808 35.5806 42.3608 35.6006 42.3608 35.6206ZM41.9808 35.5806C41.9808 35.6206 42.0408 35.6406 42.1008 35.6406C42.1608 35.6406 42.2008 35.6206 42.2008 35.5806C42.2008 35.5606 42.1608 35.5206 42.1008 35.5206C42.0408 35.5206 42.0008 35.5606 42.0008 35.5806H41.9808ZM41.2808 35.6206C41.2808 35.6606 41.3208 35.6806 41.3808 35.6806C41.4408 35.6806 41.4608 35.6606 41.4608 35.6206C41.4608 35.6006 41.4208 35.5606 41.3808 35.5606C41.3408 35.5606 41.2808 35.5806 41.2808 35.6206ZM41.6608 35.6206C41.6608 35.6606 41.7008 35.6806 41.7608 35.6806C41.8208 35.6806 41.8408 35.6606 41.8408 35.6006C41.8408 35.5606 41.8008 35.5206 41.7608 35.5206C41.7208 35.5206 41.6608 35.5606 41.6608 35.6006V35.6206ZM40.8608 35.6206C40.8608 35.6406 40.8808 35.6806 40.9208 35.6806C40.9808 35.6806 41.0208 35.6406 41.0208 35.6006C41.0208 35.5606 40.9808 35.5406 40.9208 35.5406C40.8808 35.5406 40.8408 35.5606 40.8408 35.6006L40.8608 35.6206ZM41.1008 35.6206C41.1008 35.6606 41.1008 35.6806 41.1408 35.6806C41.1808 35.6806 41.2008 35.6606 41.2008 35.6206C41.2008 35.5806 41.1808 35.5806 41.1408 35.5806L41.1008 35.6206ZM40.6208 35.6406C40.6208 35.6806 40.6208 35.7206 40.6808 35.7206C40.7008 35.7206 40.7408 35.6806 40.7408 35.6406C40.7408 35.6006 40.7008 35.5806 40.6808 35.5806C40.6408 35.5806 40.6208 35.6006 40.6208 35.6406Z" fill="#F1B517" stroke="black" stroke-width="0.04"/>
<path d="M39.9596 33.1406C39.4596 33.1406 39.0596 33.3406 39.0596 33.5606C39.0596 33.6006 39.0596 33.6406 39.0996 33.6806C39.1996 33.8006 39.5596 33.8806 39.9796 33.8806C40.3796 33.8806 40.6996 33.8206 40.8196 33.7006C40.8596 33.6606 40.8796 33.6206 40.8796 33.5606C40.8796 33.3406 40.4796 33.1606 39.9596 33.1606V33.1406Z" fill="#0A328C" stroke="#0A328C" stroke-width="0.04"/>
<path d="M40.8796 33.6006V35.0006C40.8796 35.1806 40.4796 35.3006 39.9796 35.3006C39.4796 35.3006 39.0596 35.1806 39.0596 35.0006V33.6006C39.0596 33.7606 39.4596 33.9006 39.9596 33.9006C40.4796 33.9006 40.8796 33.7606 40.8796 33.6006Z" fill="#F1B517" stroke="black" stroke-width="0.04"/>
<path d="M39.0596 33.6006V33.8006L39.4996 35.2006L39.8596 34.1206L40.2596 35.2206L40.5196 34.1806L40.8796 34.8806V34.5006L40.5596 33.8206C40.5201 33.8354 40.4801 33.8488 40.4396 33.8606L40.2396 34.6206L39.9396 33.9006C39.8929 33.9017 39.8462 33.9017 39.7996 33.9006L39.4996 34.6206L39.1796 33.7406C39.0996 33.7006 39.0596 33.6406 39.0596 33.6006Z" fill="#D20014" stroke="#D20014" stroke-width="0.04"/>
<path d="M40.8796 34.7402V35.0002C40.8796 35.1802 40.4796 35.3002 39.9796 35.3002C39.4796 35.3002 39.0596 35.1802 39.0596 35.0002V34.7402C39.0596 34.9202 39.4596 35.0402 39.9596 35.0402C40.4796 35.0402 40.8796 34.9202 40.8796 34.7402Z" fill="#0A328C" stroke="#0A328C" stroke-width="0.04"/>
<path d="M40.3396 35.0002L40.1196 35.0402V35.3002L40.3596 35.2802V35.0202L40.3396 35.0002ZM39.3796 34.9802V35.2402L39.5996 35.2802V35.0202C39.5255 35.0115 39.452 34.9982 39.3796 34.9802ZM39.0596 34.7402V35.0002C39.0596 35.0602 39.0996 35.1002 39.1596 35.1402V34.8802C39.0996 34.8402 39.0596 34.8002 39.0596 34.7402ZM40.8796 34.7802C40.8796 34.8202 40.7996 34.8802 40.7196 34.9202V35.1802C40.8196 35.1402 40.8796 35.0802 40.8796 35.0002V34.8002V34.7802Z" fill="#F1B517" stroke="black" stroke-width="0.04"/>
<path d="M40.8796 33.6006V35.0006C40.8796 35.1806 40.4796 35.3006 39.9796 35.3006C39.4796 35.3006 39.0596 35.1806 39.0596 35.0006V33.6006" stroke="black" stroke-width="0.04"/>
<path d="M40.6798 33.5003C40.6798 33.6003 40.3598 33.7003 39.9798 33.7003C39.5798 33.7003 39.2598 33.6003 39.2598 33.5003C39.2598 33.4003 39.5798 33.3203 39.9598 33.3203C40.3598 33.3203 40.6798 33.4003 40.6798 33.5203V33.5003Z" fill="white" stroke="white" stroke-width="0.04"/>
<path d="M39.74 33.64L39.78 33.88H39.98L40 33.64H39.74ZM40.56 33.58L40.36 33.62L40.38 33.86L40.58 33.82V33.6L40.56 33.58ZM39.48 33.18L39.34 33.24L39.36 33.44L39.48 33.4V33.2V33.18ZM39.96 33.12H39.9L39.94 33.36H40.06L40.1 33.12C40.0534 33.1183 40.0067 33.1183 39.96 33.12ZM40.5 33.2L40.48 33.4L40.62 33.46V33.26C40.5813 33.2375 40.5413 33.2174 40.5 33.2ZM39.2 33.76L39.24 33.5L39.04 33.4V33.7L39.2 33.76ZM40.88 33.7V33.44L40.72 33.5L40.88 33.7ZM42.74 32C42.9 32 43.14 32.2 43.16 32.5C43.16 32.7 42.82 32.7 42.82 32.7C42.82 32.8 42.62 32.88 42.46 32.9C42.3 32.9 42.5 32.6 42.5 32.6C42.4 32.34 42.54 32.06 42.54 32.06L42.74 32Z" fill="#F1B517" stroke="black" stroke-width="0.04"/>
<path d="M42.5 32.6001H42.66C42.66 32.6001 42.66 32.6601 42.7 32.6601C42.74 32.6601 42.76 32.5801 42.76 32.5801H43" fill="#F1B517"/>
<path d="M42.5 32.6001H42.66C42.66 32.6001 42.66 32.6601 42.7 32.6601C42.74 32.6601 42.76 32.5801 42.76 32.5801H43" stroke="black" stroke-width="0.04"/>
<path d="M42.82 32.1809C42.96 32.0809 42.84 31.8809 42.74 31.8809H42.54C42.42 31.8809 42.26 32.0009 42.28 32.0809C42.28 32.1809 42.36 32.2209 42.44 32.2009C42.48 32.2009 42.56 32.0809 42.6 32.0809C42.66 32.0809 42.8 32.2009 42.82 32.1809Z" fill="#D20014" stroke="#F1B517" stroke-width="0.04"/>
<path fill-rule="evenodd" clip-rule="evenodd" d="M32.8399 34.9609C32.7199 34.9809 32.6999 35.1209 32.7399 35.2609C32.2199 35.4009 31.7399 35.6009 31.2599 35.7409C31.2399 35.6409 31.4999 35.3809 31.4999 35.3809C31.5599 35.4009 31.6199 35.5609 31.6199 35.5609C31.6199 35.2409 31.9399 35.0409 31.9399 35.0409C31.7399 35.0009 31.1999 35.2409 31.1399 35.3209C31.1399 35.3209 31.3399 35.2809 31.3799 35.3209C31.3799 35.3209 30.9399 35.7809 30.9199 35.9209C30.9999 36.0609 31.7199 36.1809 31.7199 36.1809C31.7199 36.2209 31.5199 36.3809 31.5199 36.3809C31.8199 36.4209 32.2599 36.2209 32.3799 36.1009C32.3799 36.1009 32.0399 36.0609 31.7799 35.8409C31.7799 35.8409 31.8199 35.9809 31.7799 36.0409C31.7799 36.0409 31.3799 35.9209 31.3199 35.8409C31.3199 35.8409 32.3199 35.6009 32.7999 35.4409C32.8199 35.5409 32.9199 35.7009 33.0399 35.6609C33.0999 35.6409 33.0799 35.5009 33.0399 35.3809C33.0562 35.3954 33.0752 35.4064 33.0958 35.4133C33.1164 35.4202 33.1383 35.4228 33.1599 35.4209C33.2399 35.4209 33.2999 35.3609 33.2999 35.2809C33.2999 35.2009 33.2399 35.1409 33.1599 35.1409C33.1295 35.1425 33.1001 35.1528 33.0753 35.1705C33.0505 35.1882 33.0313 35.2127 33.0199 35.2409C32.9999 35.1409 32.9399 34.9609 32.8599 34.9809L32.8399 34.9609ZM33.2399 35.2809C33.2399 35.3209 33.1999 35.3409 33.1599 35.3409C33.1506 35.3443 33.1406 35.3452 33.1308 35.3437C33.121 35.3422 33.1117 35.3383 33.1038 35.3324C33.0959 35.3265 33.0896 35.3187 33.0854 35.3097C33.0812 35.3007 33.0793 35.2908 33.0799 35.2809C33.0799 35.2409 33.1199 35.2009 33.1599 35.2009C33.1999 35.2009 33.2199 35.2409 33.2199 35.2809H33.2399Z" fill="#F1B517" stroke="black" stroke-width="0.04"/>
<path d="M48.6002 35.5805C48.6402 35.5005 48.6002 35.1405 48.6002 35.1405C48.5002 35.1405 48.4002 35.2805 48.4002 35.2805C48.5002 34.9605 48.2402 34.4805 48.2402 34.4805C48.4202 34.5005 49.0202 35.0805 49.0402 35.2005C49.0402 35.2005 48.7802 35.1005 48.7402 35.1205C48.8002 35.4205 49.0002 35.5605 49.0802 35.7205C49.0802 35.7205 48.7402 35.7805 48.7602 36.0805H48.5402C48.4602 35.9805 48.5602 35.8205 48.5602 35.8205L47.0202 35.1805C46.9202 35.1405 46.7002 35.0205 46.7402 34.9005C46.7602 34.8005 47.1402 34.9605 47.2202 35.0005L48.6202 35.5805H48.6002Z" fill="#F1B517" stroke="black" stroke-width="0.04"/>
<path d="M47.1199 35.3005L47.3199 34.9805C47.3799 34.8805 47.2399 34.7805 47.1399 34.9005L46.9399 35.2005C46.8599 35.3805 47.0399 35.4205 47.1399 35.3005H47.1199Z" fill="#F1B517" stroke="black" stroke-width="0.04"/>
<path d="M36.2748 36.0752L36.2623 35.7002L35.8248 35.7377L35.7998 36.1252L36.2748 36.0752Z" fill="white" stroke="black" stroke-width="0.0375"/>
<path d="M33.0502 36.5873L32.4627 36.2498C34.8877 36.4748 35.3877 35.6248 35.9752 35.5873C36.3502 35.5498 36.3877 35.9873 35.6877 35.7748L35.8752 36.2248C35.8752 36.2248 34.1502 37.1998 32.4502 36.7998L33.0502 36.5873ZM43.6502 36.0748L43.6627 35.6998L44.2002 35.7248L44.2252 36.1123L43.6502 36.0748Z" fill="white" stroke="black" stroke-width="0.0375"/>
<path d="M46.9873 36.5002L47.5498 36.1877C44.7498 36.2752 45.3874 35.7377 43.9999 35.5877C43.6249 35.5377 43.3749 36.0127 44.2749 35.7752L44.0998 36.2252H44.5373C45.4873 36.8502 46.7623 36.9127 47.6123 36.7127L46.9873 36.5002Z" fill="white" stroke="black" stroke-width="0.0375"/>
<path d="M35.6875 35.7881V36.4131C35.6875 36.4131 37.225 36.9881 39.9875 36.9881C42.7625 36.9881 44.2875 36.4131 44.2875 36.4131V35.7881C44.2875 35.7881 43.125 36.3256 39.9875 36.3256C36.8625 36.3256 35.6875 35.7881 35.6875 35.7881Z" fill="white" stroke="black" stroke-width="0.0375"/>
<path d="M35.9131 36.4127L36.0506 35.9502L36.1131 35.9752L35.9881 36.3752L36.2381 36.4377L36.2131 36.5002L35.9131 36.4127ZM36.3631 36.2127V36.1252L36.3881 36.0377L36.4631 36.0627L36.4381 36.1377L36.4006 36.2252L36.3631 36.2127ZM37.0256 36.1752L37.0881 36.2002L37.0381 36.4627L36.9881 36.5877C36.9722 36.6097 36.9506 36.627 36.9256 36.6377H36.8006C36.7595 36.6307 36.7208 36.6135 36.6881 36.5877C36.6627 36.5698 36.6448 36.543 36.6381 36.5127L36.6506 36.3877L36.7131 36.1127L36.7756 36.1252L36.7131 36.4002C36.7067 36.4332 36.7067 36.4672 36.7131 36.5002C36.7157 36.5191 36.7245 36.5367 36.7381 36.5502L36.8006 36.5752H36.9256L36.9756 36.4502L37.0256 36.1752ZM37.1006 36.6752L37.1756 36.2127H37.2506L37.4381 36.6377L37.5006 36.2627H37.5631L37.4881 36.7502L37.4256 36.7377L37.2256 36.3252L37.1631 36.7002L37.1006 36.6877V36.6752ZM37.6006 36.7627L37.6756 36.2877H37.7381L37.6756 36.7627H37.6131H37.6006ZM37.8006 36.5502C37.8006 36.4752 37.8381 36.4127 37.8881 36.3752C37.9381 36.3371 38.0005 36.3193 38.0631 36.3252C38.1131 36.3252 38.1506 36.3377 38.1881 36.3627L38.2506 36.4627C38.2756 36.5002 38.2756 36.5502 38.2631 36.5877C38.2608 36.6318 38.2479 36.6746 38.2256 36.7127C38.2025 36.7518 38.1674 36.7825 38.1256 36.8002C38.0857 36.8149 38.0426 36.8192 38.0006 36.8127C37.9563 36.8115 37.9132 36.7985 37.8756 36.7752C37.8457 36.7484 37.8241 36.7138 37.8131 36.6752C37.7989 36.6352 37.7946 36.5923 37.8006 36.5502ZM37.8631 36.5502C37.8631 36.6127 37.8631 36.6752 37.9006 36.7002C37.9256 36.7377 37.9631 36.7627 38.0131 36.7627C38.0631 36.7627 38.1006 36.7627 38.1381 36.7252C38.1756 36.7002 38.1881 36.6502 38.2006 36.6002C38.2117 36.5593 38.2117 36.5161 38.2006 36.4752C38.1865 36.4486 38.1647 36.4268 38.1381 36.4127C38.1133 36.3917 38.0828 36.3787 38.0506 36.3752C38.0131 36.3752 37.9631 36.3752 37.9256 36.4127C37.9006 36.4377 37.8756 36.4877 37.8631 36.5627V36.5502ZM38.3256 36.8377L38.3631 36.3627H38.4381L38.6631 36.7627L38.6881 36.3877H38.7506L38.7131 36.8752H38.6506L38.4131 36.4752L38.3881 36.8502H38.3256V36.8377ZM39.0256 36.8877L39.0381 36.4127L39.3756 36.4252V36.4877L39.1131 36.4752L39.1006 36.6127L39.3381 36.6252V36.6877L39.0881 36.6752V36.9002H39.0256V36.8877ZM39.4006 36.9002L39.5881 36.4252H39.6631L39.8506 36.9252H39.7756L39.7256 36.7627H39.5131L39.4631 36.9127H39.3881L39.4006 36.9002ZM39.5256 36.7127H39.7006L39.6506 36.5877C39.6405 36.5506 39.6322 36.5131 39.6256 36.4752L39.6006 36.5752L39.5381 36.7127H39.5256ZM39.9131 36.9127V36.4377H39.9881V36.9127H39.9131ZM40.2256 36.9127V36.5002H40.0631V36.4502H40.4506V36.5002H40.2881V36.9252H40.2256V36.9127ZM40.7256 36.9127L40.6881 36.4127H40.7631L40.7756 36.8377H41.0256V36.8877L40.7131 36.9002L40.7256 36.9127ZM41.0506 36.8877L41.2006 36.3877H41.2756L41.5256 36.8502H41.4381L41.3756 36.7252H41.1631L41.1256 36.8877H41.0506ZM41.1756 36.6752H41.3506L41.2881 36.5502L41.2381 36.4377C41.2367 36.4713 41.2325 36.5048 41.2256 36.5377L41.1756 36.6752ZM41.7631 36.8252L41.7131 36.3502L42.0381 36.3127L42.0506 36.3752L41.7881 36.4002V36.5502L42.0381 36.5252V36.5877L41.8006 36.6127L41.8256 36.8252H41.7631ZM42.1381 36.5627C42.1281 36.5294 42.1252 36.4945 42.1295 36.4601C42.1338 36.4256 42.1453 36.3925 42.1631 36.3627C42.2041 36.3139 42.2622 36.2826 42.3256 36.2752L42.4506 36.2877C42.5006 36.3002 42.5256 36.3252 42.5506 36.3627L42.6006 36.4877L42.5881 36.6127C42.5744 36.6532 42.5481 36.6882 42.5131 36.7127C42.4803 36.7385 42.4417 36.7557 42.4006 36.7627C42.3585 36.7692 42.3155 36.7649 42.2756 36.7502C42.2355 36.7358 42.2006 36.7097 42.1756 36.6752C42.1483 36.6386 42.1311 36.5955 42.1256 36.5502L42.1381 36.5627ZM42.2006 36.5502C42.2006 36.6002 42.2256 36.6502 42.2631 36.6752C42.3006 36.7127 42.3381 36.7127 42.3881 36.7127C42.4381 36.7127 42.4756 36.6877 42.5131 36.6502C42.5381 36.6127 42.5381 36.5627 42.5381 36.5002C42.5329 36.4645 42.5201 36.4304 42.5006 36.4002C42.4826 36.3722 42.4564 36.3503 42.4256 36.3377C42.3969 36.3303 42.3668 36.3303 42.3381 36.3377C42.2881 36.3377 42.2506 36.3502 42.2131 36.3877C42.2006 36.4252 42.1881 36.4752 42.2006 36.5502ZM42.7131 36.7127L42.6381 36.2377L42.8506 36.2002H42.9506C42.9756 36.2002 43.0006 36.2002 43.0131 36.2252L43.0506 36.3002C43.0506 36.3377 43.0506 36.3627 43.0256 36.3877C43.0131 36.4127 42.9756 36.4377 42.9381 36.4502C42.951 36.4529 42.9636 36.4571 42.9756 36.4627L43.0381 36.5252L43.1631 36.6377H43.0756L42.9881 36.5627C42.9683 36.5409 42.9474 36.52 42.9256 36.5002C42.9144 36.49 42.9018 36.4816 42.8881 36.4752C42.8757 36.4728 42.863 36.4728 42.8506 36.4752H42.8131L42.7381 36.4877L42.7881 36.7002H42.7131V36.7127ZM42.7381 36.4377L42.8631 36.4127C42.8894 36.4091 42.9149 36.4006 42.9381 36.3877C42.9511 36.3804 42.9616 36.3693 42.9683 36.3559C42.975 36.3426 42.9775 36.3275 42.9756 36.3127C42.974 36.2934 42.9651 36.2755 42.9506 36.2627H42.8631L42.7006 36.2752L42.7381 36.4377ZM43.5256 36.3877H43.5881C43.5881 36.4377 43.5756 36.4877 43.5506 36.5127C43.5173 36.5496 43.4738 36.5757 43.4256 36.5877C43.3846 36.5983 43.3416 36.5983 43.3006 36.5877C43.2601 36.574 43.2251 36.5477 43.2006 36.5127C43.1709 36.4761 43.1496 36.4334 43.1381 36.3877C43.1285 36.3466 43.1285 36.3038 43.1381 36.2627C43.1381 36.2127 43.1756 36.1752 43.2006 36.1502L43.3131 36.1002H43.4381C43.4881 36.1252 43.5131 36.1502 43.5381 36.2002L43.4756 36.2252C43.4615 36.1986 43.4397 36.1768 43.4131 36.1627C43.3847 36.1532 43.354 36.1532 43.3256 36.1627C43.2926 36.1632 43.2612 36.1766 43.2381 36.2002C43.2156 36.224 43.2023 36.255 43.2006 36.2877V36.3752C43.2106 36.4115 43.2275 36.4455 43.2506 36.4752C43.2631 36.5002 43.2881 36.5252 43.3256 36.5252H43.4131C43.4414 36.5208 43.4676 36.5077 43.4881 36.4877C43.5131 36.4627 43.5256 36.4252 43.5256 36.3877ZM43.7006 36.5127L43.5756 36.0502L43.9131 35.9627L43.9381 36.0127L43.6506 36.0877L43.6881 36.2252L43.9506 36.1627L43.9756 36.2127L43.7006 36.2877L43.7506 36.4377L44.0506 36.3627V36.4127L43.7006 36.5127Z" fill="black"/>
</g>
<defs>
<clipPath id="clip0_3732_58408">
<rect width="80" height="60" fill="white"/>
</clipPath>
</defs>
</svg>
