<svg width="80" height="60" viewBox="0 0 80 60" fill="none" xmlns="http://www.w3.org/2000/svg">
<g clip-path="url(#clip0_3732_58504)">
<path d="M0 0H80V60H0V0Z" fill="#18C3DF"/>
<path d="M0 20H80V40H0V20Z" fill="white"/>
<path d="M39 30.0003L40.6667 30.3337L40 26.667L39 30.0003Z" fill="#18C3DF"/>
<path d="M41 30.0003L39.3333 30.3337L40 26.667L41 30.0003Z" fill="#18C3DF"/>
<path d="M39.6911 29.0496L39.8892 30.7377L43.1703 28.9706L39.6911 29.0496Z" fill="#18C3DF"/>
<path d="M40.3093 30.9519L39.4773 29.4698L43.1705 28.9708L40.3093 30.9519Z" fill="#18C3DF"/>
<path d="M39.6907 30.951L40.5227 29.4689L36.8295 28.9698L39.6907 30.951Z" fill="#18C3DF"/>
<path d="M40.3089 29.0486L40.1108 30.7367L36.8297 28.9696L40.3089 29.0486Z" fill="#18C3DF"/>
<path d="M40.8083 29.4127L39.264 30.1226L41.9586 32.6972L40.8083 29.4127Z" fill="#18C3DF"/>
<path d="M39.1901 30.5884L40.3426 29.3391L41.9584 32.6974L39.1901 30.5884Z" fill="#18C3DF"/>
<path d="M40.8089 30.5884L39.6565 29.3391L38.0406 32.6974L40.8089 30.5884Z" fill="#18C3DF"/>
<path d="M39.1907 29.4127L40.735 30.1226L38.0405 32.6972L39.1907 29.4127Z" fill="#18C3DF"/>
<path d="M55.6631 24.6624L57.3298 24.9958L56.6631 21.3291L55.6631 24.6624Z" fill="#18C3DF"/>
<path d="M57.6631 24.6624L55.9964 24.9958L56.6631 21.3291L57.6631 24.6624Z" fill="#18C3DF"/>
<path d="M56.3542 23.7117L56.5522 25.3998L59.8334 23.6327L56.3542 23.7117Z" fill="#18C3DF"/>
<path d="M56.9724 25.614L56.1403 24.132L59.8336 23.6329L56.9724 25.614Z" fill="#18C3DF"/>
<path d="M56.3538 25.6131L57.1858 24.131L53.4926 23.632L56.3538 25.6131Z" fill="#18C3DF"/>
<path d="M56.9719 23.7107L56.7739 25.3988L53.4927 23.6317L56.9719 23.7107Z" fill="#18C3DF"/>
<path d="M57.4714 24.0748L55.9271 24.7847L58.6216 27.3593L57.4714 24.0748Z" fill="#18C3DF"/>
<path d="M55.8532 25.2505L57.0056 24.0012L58.6215 27.3595L55.8532 25.2505Z" fill="#18C3DF"/>
<path d="M57.472 25.2505L56.3195 24.0012L54.7037 27.3595L57.472 25.2505Z" fill="#18C3DF"/>
<path d="M55.8538 24.0748L57.3981 24.7847L54.7035 27.3593L55.8538 24.0748Z" fill="#18C3DF"/>
<path d="M55.6631 34.6624L57.3298 34.9958L56.6631 31.3291L55.6631 34.6624Z" fill="#18C3DF"/>
<path d="M57.6631 34.6624L55.9964 34.9958L56.6631 31.3291L57.6631 34.6624Z" fill="#18C3DF"/>
<path d="M56.3542 33.7117L56.5522 35.3998L59.8334 33.6327L56.3542 33.7117Z" fill="#18C3DF"/>
<path d="M56.9724 35.614L56.1403 34.132L59.8336 33.6329L56.9724 35.614Z" fill="#18C3DF"/>
<path d="M56.3538 35.6131L57.1858 34.131L53.4926 33.632L56.3538 35.6131Z" fill="#18C3DF"/>
<path d="M56.9719 33.7107L56.7739 35.3988L53.4927 33.6317L56.9719 33.7107Z" fill="#18C3DF"/>
<path d="M57.4714 34.0748L55.9271 34.7847L58.6216 37.3593L57.4714 34.0748Z" fill="#18C3DF"/>
<path d="M55.8532 35.2505L57.0056 34.0012L58.6215 37.3595L55.8532 35.2505Z" fill="#18C3DF"/>
<path d="M57.472 35.2505L56.3195 34.0012L54.7037 37.3595L57.472 35.2505Z" fill="#18C3DF"/>
<path d="M55.8538 34.0748L57.3981 34.7847L54.7035 37.3593L55.8538 34.0748Z" fill="#18C3DF"/>
<path d="M22.3379 24.6624L24.0046 24.9958L23.3379 21.3291L22.3379 24.6624Z" fill="#18C3DF"/>
<path d="M24.3379 24.6624L22.6712 24.9958L23.3379 21.3291L24.3379 24.6624Z" fill="#18C3DF"/>
<path d="M23.029 23.7117L23.227 25.3998L26.5082 23.6327L23.029 23.7117Z" fill="#18C3DF"/>
<path d="M23.6472 25.614L22.8151 24.132L26.5084 23.6329L23.6472 25.614Z" fill="#18C3DF"/>
<path d="M23.0286 25.6131L23.8606 24.131L20.1674 23.632L23.0286 25.6131Z" fill="#18C3DF"/>
<path d="M23.6467 23.7107L23.4487 25.3988L20.1675 23.6317L23.6467 23.7107Z" fill="#18C3DF"/>
<path d="M24.1462 24.0748L22.6019 24.7847L25.2965 27.3593L24.1462 24.0748Z" fill="#18C3DF"/>
<path d="M22.528 25.2505L23.6805 24.0012L25.2963 27.3595L22.528 25.2505Z" fill="#18C3DF"/>
<path d="M24.1468 25.2505L22.9944 24.0012L21.3785 27.3595L24.1468 25.2505Z" fill="#18C3DF"/>
<path d="M22.5286 24.0748L24.0729 24.7847L21.3784 27.3593L22.5286 24.0748Z" fill="#18C3DF"/>
<path d="M22.3379 34.6624L24.0046 34.9958L23.3379 31.3291L22.3379 34.6624Z" fill="#18C3DF"/>
<path d="M24.3379 34.6624L22.6712 34.9958L23.3379 31.3291L24.3379 34.6624Z" fill="#18C3DF"/>
<path d="M23.029 33.7117L23.227 35.3998L26.5082 33.6327L23.029 33.7117Z" fill="#18C3DF"/>
<path d="M23.6472 35.614L22.8151 34.132L26.5084 33.6329L23.6472 35.614Z" fill="#18C3DF"/>
<path d="M23.0286 35.6131L23.8606 34.131L20.1674 33.632L23.0286 35.6131Z" fill="#18C3DF"/>
<path d="M23.6467 33.7107L23.4487 35.3988L20.1675 33.6317L23.6467 33.7107Z" fill="#18C3DF"/>
<path d="M24.1462 34.0748L22.6019 34.7847L25.2965 37.3593L24.1462 34.0748Z" fill="#18C3DF"/>
<path d="M22.528 35.2505L23.6805 34.0012L25.2963 37.3595L22.528 35.2505Z" fill="#18C3DF"/>
<path d="M24.1468 35.2505L22.9944 34.0012L21.3785 37.3595L24.1468 35.2505Z" fill="#18C3DF"/>
<path d="M22.5286 34.0748L24.0729 34.7847L21.3784 37.3593L22.5286 34.0748Z" fill="#18C3DF"/>
</g>
<defs>
<clipPath id="clip0_3732_58504">
<rect width="80" height="60" fill="white"/>
</clipPath>
</defs>
</svg>
