<svg width="80" height="60" viewBox="0 0 80 60" fill="none" xmlns="http://www.w3.org/2000/svg">
<g clip-path="url(#clip0_3732_58531)">
<mask id="mask0_3732_58531" style="mask-type:luminance" maskUnits="userSpaceOnUse" x="-1" y="0" width="82" height="61">
<path d="M-0.0195312 0H80.186V60.16H-0.0195312V0Z" fill="white"/>
</mask>
<g mask="url(#mask0_3732_58531)">
<path fill-rule="evenodd" clip-rule="evenodd" d="M83.0528 60.16H-2.88672V0H83.0528V60.16Z" fill="#BA0000"/>
<path fill-rule="evenodd" clip-rule="evenodd" d="M38.8608 29.1168C38.8608 29.1168 32.7978 26.5083 33.6673 19.7403C34.5016 16.4855 35.9938 14.2648 38.6846 13.0545C39.9536 12.6668 41.2461 12.4905 42.5621 12.3848C42.2096 12.7138 41.9276 13.0428 41.7749 13.4423C41.4929 14.1943 41.7043 14.8993 42.0921 15.616C42.5738 16.4385 42.8676 17.2845 42.9616 18.389C43.0499 19.1417 42.9377 19.9043 42.6365 20.5996C42.3352 21.295 41.8556 21.8984 41.2461 22.3488C40.4706 22.948 39.5541 23.1595 38.8021 23.841C38.2146 24.405 37.8621 24.9808 37.7446 25.9678C37.7211 27.8595 38.2263 28.1298 38.8608 29.1168Z" fill="white"/>
<path fill-rule="evenodd" clip-rule="evenodd" d="M37.6982 19.3292V19.2939V19.3292Z" fill="#BA0000"/>
<path d="M37.6982 19.3292V19.2939" stroke="black" stroke-width="0.24675"/>
<path d="M38.0857 28.4119C35.7357 26.3321 35.9354 21.0799 37.7332 19.3291" stroke="#BA0000" stroke-width="0.24675"/>
<path fill-rule="evenodd" clip-rule="evenodd" d="M39.1787 18.1541L39.5665 18.8004L38.8615 18.5066L38.3092 19.0941L38.4032 18.3304L37.6982 18.0366L38.462 17.8604L38.556 17.1084L38.9437 17.7546L39.7192 17.5784" fill="#BA0000"/>
<path fill-rule="evenodd" clip-rule="evenodd" d="M39.3779 28.6696C39.3779 28.6696 40.0829 22.1013 46.8157 20.9498C50.1762 20.8088 52.7377 21.5726 54.6882 23.8051C55.4284 24.8978 55.9689 26.0846 56.4507 27.3066C56.0394 27.0716 55.6517 26.8953 55.2052 26.8718C54.4179 26.8131 53.7952 27.2243 53.2312 27.8001C52.5726 28.5292 51.7514 29.0927 50.8342 29.4451C50.1413 29.7514 49.3797 29.8693 48.6266 29.7868C47.8735 29.7043 47.1555 29.4242 46.5454 28.9751C45.7464 28.3993 45.2764 27.5886 44.4069 27.0716C43.7003 26.6515 42.8627 26.5091 42.0569 26.6721C40.2357 27.2126 40.1417 27.7766 39.3779 28.6696Z" fill="white"/>
<path fill-rule="evenodd" clip-rule="evenodd" d="M48.3906 24.6982H48.4259H48.3906Z" fill="#BA0000"/>
<path d="M48.3906 24.6982H48.4259" stroke="black" stroke-width="0.24675"/>
<path d="M39.8125 27.73C41.1285 24.863 46.2045 23.5235 48.4018 24.722" stroke="#BA0000" stroke-width="0.24675"/>
<path fill-rule="evenodd" clip-rule="evenodd" d="M49.9532 25.7676L49.448 26.3198L49.5185 25.5561L48.8135 25.2036L49.5537 25.0861L49.6242 24.2988L50.0237 25.0038L50.7757 24.8628L50.2705 25.4151L50.6582 26.1201" fill="#BA0000"/>
<path fill-rule="evenodd" clip-rule="evenodd" d="M39.8242 29.1403C39.8242 29.1403 46.2867 27.7303 49.5062 33.7581C50.7165 36.8953 50.7987 39.5626 49.3065 42.1123C48.5075 43.1698 47.544 44.0511 46.5452 44.9088C46.6392 44.4388 46.6745 44.0158 46.557 43.5928C46.369 42.8173 45.7815 42.3591 45.053 42.0066C44.149 41.6113 43.3517 41.0072 42.7265 40.2441C42.2195 39.6841 41.869 39.0005 41.7102 38.2621C41.5514 37.5237 41.5898 36.7564 41.8217 36.0376C42.1037 35.0976 42.7265 34.3926 42.938 33.4056C43.1138 32.6042 42.9839 31.7661 42.5737 31.0556C41.481 29.5046 40.917 29.5868 39.8242 29.1403Z" fill="white"/>
<path fill-rule="evenodd" clip-rule="evenodd" d="M46.4512 36.4365L46.4747 36.46L46.4512 36.4365Z" fill="#BA0000"/>
<path d="M46.4512 36.4365L46.4747 36.46" stroke="black" stroke-width="0.24675"/>
<path d="M40.8701 29.2578C43.9956 29.5986 46.8744 33.9813 46.4396 36.4606" stroke="#BA0000" stroke-width="0.24675"/>
<path fill-rule="evenodd" clip-rule="evenodd" d="M45.9345 38.2583L45.2412 37.9528L46.005 37.7765L46.099 36.9893L46.4632 37.659L47.227 37.4828L46.6982 38.0703L47.0507 38.74L46.3692 38.4345L45.8405 39.0338" fill="#BA0000"/>
<path fill-rule="evenodd" clip-rule="evenodd" d="M39.6837 29.8096C39.6837 29.8096 42.8444 35.6141 37.9799 40.3846C35.3009 42.4291 32.7629 43.2634 29.8959 42.5466C28.6622 42.0766 27.5459 41.4069 26.4297 40.6784C26.8997 40.6431 27.3344 40.5609 27.7104 40.3259C28.3919 39.9264 28.6622 39.2331 28.8032 38.4459C28.9255 37.4641 29.2799 36.5256 29.8372 35.7081C30.2314 35.063 30.7888 34.5333 31.453 34.1723C32.1173 33.8113 32.8649 33.6318 33.6207 33.6519C34.6077 33.6636 35.4537 34.0749 36.4642 34.0044C37.2749 33.8986 37.9094 33.6754 38.6262 32.9704C39.8012 31.5016 39.5662 30.9729 39.6837 29.7979V29.8096Z" fill="white"/>
<path fill-rule="evenodd" clip-rule="evenodd" d="M34.5371 38.2227L34.5254 38.2462L34.5371 38.2227Z" fill="#BA0000"/>
<path d="M34.5371 38.2227L34.5254 38.2462" stroke="black" stroke-width="0.24675"/>
<path d="M39.8482 30.832C40.4239 33.934 37.0164 37.9408 34.5137 38.1993" stroke="#BA0000" stroke-width="0.24675"/>
<path fill-rule="evenodd" clip-rule="evenodd" d="M32.6456 38.2344L32.7513 37.4824L33.1391 38.1522L33.9146 38.0347L33.3741 38.5752L33.7618 39.2449L33.0451 38.9042L32.5046 39.4447L32.5986 38.6927L31.8818 38.3519" fill="#BA0000"/>
<path fill-rule="evenodd" clip-rule="evenodd" d="M38.9664 29.6808C38.9664 29.6808 34.5484 34.5923 28.4149 31.6078C25.5949 29.763 23.9734 27.6363 23.7031 24.6988C23.7384 23.371 23.9851 22.102 24.3024 20.8213C24.5021 21.2443 24.7254 21.6203 25.0661 21.9023C25.6654 22.4075 26.4174 22.431 27.2164 22.3018C28.1754 22.0918 29.1709 22.116 30.1186 22.3723C30.8607 22.5285 31.5482 22.8781 32.1116 23.3858C32.6749 23.8934 33.094 24.541 33.3264 25.2628C33.6436 26.191 33.5379 27.131 33.9491 28.0593C34.3016 28.7878 34.7246 29.3048 35.6294 29.7513C37.4154 30.374 37.8266 29.9745 38.9664 29.6925V29.6808Z" fill="white"/>
<path fill-rule="evenodd" clip-rule="evenodd" d="M29.3204 27.6358L29.2969 27.624L29.3204 27.6358Z" fill="#BA0000"/>
<path d="M29.3204 27.6358L29.2969 27.624" stroke="black" stroke-width="0.24675"/>
<path d="M38.0505 30.1856C35.3245 31.7483 30.413 29.8683 29.332 27.6006" stroke="#BA0000" stroke-width="0.24675"/>
<path fill-rule="evenodd" clip-rule="evenodd" d="M28.6858 25.8505L29.4261 25.6977L28.9208 26.2852L29.2851 26.9785L28.6036 26.6495L28.0983 27.237L28.1806 26.438L27.4873 26.109L28.2276 25.9562L28.3098 25.1572" fill="#BA0000"/>
</g>
</g>
<defs>
<clipPath id="clip0_3732_58531">
<rect width="80" height="60" fill="white"/>
</clipPath>
</defs>
</svg>
