<svg width="80" height="60" viewBox="0 0 80 60" fill="none" xmlns="http://www.w3.org/2000/svg">
<g clip-path="url(#clip0_3732_58648)">
<path d="M0 0H80V20H0V0Z" fill="#FF9933"/>
<path d="M0 20H80V40H0V20Z" fill="white"/>
<path d="M0 40H80V60H0V40Z" fill="#128807"/>
<path d="M40 38C44.4183 38 48 34.4183 48 30C48 25.5817 44.4183 22 40 22C35.5817 22 32 25.5817 32 30C32 34.4183 35.5817 38 40 38Z" fill="#000088"/>
<path d="M40 37C43.866 37 47 33.866 47 30C47 26.134 43.866 23 40 23C36.134 23 33 26.134 33 30C33 33.866 36.134 37 40 37Z" fill="white"/>
<path d="M39.9996 31.4006C40.7728 31.4006 41.3996 30.7738 41.3996 30.0006C41.3996 29.2274 40.7728 28.6006 39.9996 28.6006C39.2264 28.6006 38.5996 29.2274 38.5996 30.0006C38.5996 30.7738 39.2264 31.4006 39.9996 31.4006Z" fill="#000088"/>
<path d="M46.8928 31.2735C47.0899 31.2995 47.2708 31.1607 47.2967 30.9636C47.3227 30.7665 47.1839 30.5856 46.9868 30.5597C46.7897 30.5337 46.6088 30.6725 46.5829 30.8696C46.5569 31.0667 46.6957 31.2476 46.8928 31.2735Z" fill="#000088"/>
<path d="M39.9998 37.0008L40.2398 32.8008L39.9998 30.8008L39.7598 32.8008L39.9998 37.0008Z" fill="#000088"/>
<path d="M46.3276 33.0149C46.5113 33.091 46.7218 33.0037 46.7979 32.82C46.874 32.6364 46.7868 32.4258 46.6031 32.3497C46.4194 32.2736 46.2088 32.3608 46.1327 32.5445C46.0567 32.7282 46.1439 32.9388 46.3276 33.0149Z" fill="#000088"/>
<path d="M38.1877 36.7618L39.5066 32.767L39.7924 30.7731L39.0429 32.6428L38.1877 36.7618Z" fill="#000088"/>
<path d="M45.3317 34.5492C45.4894 34.6702 45.7154 34.6404 45.8364 34.4827C45.9575 34.325 45.9277 34.099 45.77 33.9779C45.6122 33.8569 45.3863 33.8867 45.2652 34.0444C45.1442 34.2021 45.1739 34.4281 45.3317 34.5492Z" fill="#000088"/>
<path d="M36.4994 36.0626L38.8073 32.5453L39.5994 30.6932L38.3916 32.3053L36.4994 36.0626Z" fill="#000088"/>
<path d="M43.9722 35.7747C44.0932 35.9324 44.3192 35.9622 44.4769 35.8411C44.6347 35.7201 44.6644 35.4941 44.5434 35.3364C44.4223 35.1787 44.1963 35.1489 44.0386 35.2699C43.8809 35.391 43.8511 35.617 43.9722 35.7747Z" fill="#000088"/>
<path d="M35.0493 34.9503L38.1889 32.1501L39.4334 30.5662L37.8495 31.8107L35.0493 34.9503Z" fill="#000088"/>
<path d="M42.3437 36.6062C42.4198 36.7899 42.6303 36.8771 42.814 36.801C42.9977 36.7249 43.0849 36.5143 43.0089 36.3306C42.9328 36.147 42.7222 36.0597 42.5385 36.1358C42.3548 36.2119 42.2676 36.4225 42.3437 36.6062Z" fill="#000088"/>
<path d="M33.9381 33.5002L37.6954 31.6081L39.3075 30.4002L37.4554 31.1924L33.9381 33.5002Z" fill="#000088"/>
<path d="M40.5548 36.988C40.5808 37.1851 40.7616 37.3239 40.9587 37.2979C41.1559 37.272 41.2946 37.0912 41.2687 36.894C41.2427 36.6969 41.0619 36.5581 40.8648 36.5841C40.6676 36.6101 40.5289 36.7909 40.5548 36.988Z" fill="#000088"/>
<path d="M33.2394 31.8121L37.3584 30.9569L39.2281 30.2074L37.2342 30.4932L33.2394 31.8121Z" fill="#000088"/>
<path d="M38.7275 36.8938C38.7015 37.0909 38.8403 37.2718 39.0374 37.2977C39.2345 37.3237 39.4153 37.1849 39.4413 36.9878C39.4672 36.7907 39.3285 36.6098 39.1314 36.5839C38.9342 36.5579 38.7534 36.6967 38.7275 36.8938Z" fill="#000088"/>
<path d="M33.0002 30.0007L37.2002 30.2407L39.2002 30.0007L37.2002 29.7607L33.0002 30.0007Z" fill="#000088"/>
<path d="M36.9861 36.3285C36.91 36.5122 36.9972 36.7228 37.1809 36.7989C37.3646 36.875 37.5752 36.7878 37.6513 36.6041C37.7274 36.4204 37.6402 36.2098 37.4565 36.1337C37.2728 36.0576 37.0622 36.1449 36.9861 36.3285Z" fill="#000088"/>
<path d="M33.2392 28.1887L37.234 29.5075L39.2279 29.7933L37.3582 29.0439L33.2392 28.1887Z" fill="#000088"/>
<path d="M35.4508 35.3336C35.3298 35.4914 35.3596 35.7174 35.5173 35.8384C35.675 35.9594 35.901 35.9297 36.0221 35.7719C36.1431 35.6142 36.1133 35.3882 35.9556 35.2672C35.7979 35.1461 35.5719 35.1759 35.4508 35.3336Z" fill="#000088"/>
<path d="M33.9374 26.5014L37.4547 28.8092L39.3068 29.6014L37.6947 28.3936L33.9374 26.5014Z" fill="#000088"/>
<path d="M34.2253 33.9741C34.0676 34.0951 34.0378 34.3211 34.1589 34.4789C34.2799 34.6366 34.5059 34.6664 34.6636 34.5453C34.8213 34.4243 34.8511 34.1983 34.7301 34.0406C34.609 33.8828 34.383 33.8531 34.2253 33.9741Z" fill="#000088"/>
<path d="M35.0497 25.0513L37.8499 28.1908L39.4338 29.4353L38.1893 27.8514L35.0497 25.0513Z" fill="#000088"/>
<path d="M33.3938 32.3446C33.2101 32.4207 33.1229 32.6313 33.199 32.815C33.2751 32.9987 33.4857 33.0859 33.6694 33.0098C33.853 32.9338 33.9403 32.7232 33.8642 32.5395C33.7881 32.3558 33.5775 32.2686 33.3938 32.3446Z" fill="#000088"/>
<path d="M36.4998 23.9391L38.3919 27.6964L39.5998 29.3085L38.8076 27.4564L36.4998 23.9391Z" fill="#000088"/>
<path d="M33.012 30.5558C32.8149 30.5818 32.6761 30.7626 32.7021 30.9597C32.728 31.1568 32.9088 31.2956 33.106 31.2696C33.3031 31.2437 33.4419 31.0629 33.4159 30.8657C33.3899 30.6686 33.2091 30.5299 33.012 30.5558Z" fill="#000088"/>
<path d="M38.1879 23.2404L39.0431 27.3594L39.7926 29.2291L39.5068 27.2351L38.1879 23.2404Z" fill="#000088"/>
<path d="M33.1062 28.7275C32.9091 28.7015 32.7282 28.8403 32.7023 29.0374C32.6763 29.2345 32.8151 29.4153 33.0122 29.4413C33.2093 29.4672 33.3902 29.3285 33.4161 29.1314C33.4421 28.9342 33.3033 28.7534 33.1062 28.7275Z" fill="#000088"/>
<path d="M39.9993 23.0002L39.7593 27.2002L39.9993 29.2002L40.2393 27.2002L39.9993 23.0002Z" fill="#000088"/>
<path d="M33.6715 26.9861C33.4878 26.91 33.2772 26.9972 33.2011 27.1809C33.125 27.3646 33.2122 27.5752 33.3959 27.6513C33.5796 27.7274 33.7902 27.6402 33.8663 27.4565C33.9424 27.2728 33.8551 27.0622 33.6715 26.9861Z" fill="#000088"/>
<path d="M41.8113 23.2392L40.4925 27.234L40.2067 29.2279L40.9561 27.3582L41.8113 23.2392Z" fill="#000088"/>
<path d="M34.6673 25.4518C34.5096 25.3308 34.2836 25.3605 34.1626 25.5183C34.0416 25.676 34.0713 25.902 34.229 26.023C34.3868 26.1441 34.6128 26.1143 34.7338 25.9566C34.8548 25.7988 34.8251 25.5729 34.6673 25.4518Z" fill="#000088"/>
<path d="M43.4996 23.9384L41.1917 27.4557L40.3996 29.3077L41.6074 27.6957L43.4996 23.9384Z" fill="#000088"/>
<path d="M36.0269 24.2263C35.9058 24.0685 35.6798 24.0388 35.5221 24.1598C35.3644 24.2809 35.3346 24.5069 35.4557 24.6646C35.5767 24.8223 35.8027 24.8521 35.9604 24.731C36.1181 24.61 36.1479 24.384 36.0269 24.2263Z" fill="#000088"/>
<path d="M44.9497 25.0507L41.8102 27.8509L40.5656 29.4348L42.1496 28.1903L44.9497 25.0507Z" fill="#000088"/>
<path d="M37.6563 23.3948C37.5802 23.2111 37.3697 23.1239 37.186 23.2C37.0023 23.2761 36.9151 23.4866 36.9911 23.6703C37.0672 23.854 37.2778 23.9412 37.4615 23.8652C37.6452 23.7891 37.7324 23.5785 37.6563 23.3948Z" fill="#000088"/>
<path d="M46.0619 26.5007L42.3046 28.3929L40.6925 29.6007L42.5446 28.8086L46.0619 26.5007Z" fill="#000088"/>
<path d="M39.4452 23.013C39.4192 22.8158 39.2384 22.6771 39.0413 22.703C38.8441 22.729 38.7054 22.9098 38.7313 23.1069C38.7573 23.3041 38.9381 23.4428 39.1352 23.4169C39.3324 23.3909 39.4711 23.2101 39.4452 23.013Z" fill="#000088"/>
<path d="M46.7606 28.1889L42.6416 29.0441L40.7719 29.7936L42.7658 29.5078L46.7606 28.1889Z" fill="#000088"/>
<path d="M41.2725 23.1072C41.2985 22.9101 41.1597 22.7292 40.9626 22.7033C40.7655 22.6773 40.5847 22.8161 40.5587 23.0132C40.5328 23.2103 40.6715 23.3912 40.8686 23.4171C41.0658 23.4431 41.2466 23.3043 41.2725 23.1072Z" fill="#000088"/>
<path d="M46.9998 30.0002L42.7998 29.7602L40.7998 30.0002L42.7998 30.2402L46.9998 30.0002Z" fill="#000088"/>
<path d="M43.0139 23.6724C43.09 23.4887 43.0028 23.2782 42.8191 23.2021C42.6354 23.126 42.4248 23.2132 42.3487 23.3969C42.2726 23.5806 42.3598 23.7912 42.5435 23.8673C42.7272 23.9433 42.9378 23.8561 43.0139 23.6724Z" fill="#000088"/>
<path d="M46.7608 31.8123L42.766 30.4934L40.7721 30.2076L42.6418 30.9571L46.7608 31.8123Z" fill="#000088"/>
<path d="M44.5492 24.6683C44.6702 24.5106 44.6404 24.2846 44.4827 24.1636C44.325 24.0425 44.099 24.0723 43.9779 24.23C43.8569 24.3878 43.8867 24.6137 44.0444 24.7348C44.2021 24.8558 44.4281 24.8261 44.5492 24.6683Z" fill="#000088"/>
<path d="M46.0626 33.5006L42.5453 31.1927L40.6932 30.4006L42.3053 31.6084L46.0626 33.5006Z" fill="#000088"/>
<path d="M45.7747 26.0278C45.9324 25.9068 45.9622 25.6808 45.8411 25.5231C45.7201 25.3653 45.4941 25.3356 45.3364 25.4566C45.1787 25.5777 45.1489 25.8037 45.2699 25.9614C45.391 26.1191 45.617 26.1489 45.7747 26.0278Z" fill="#000088"/>
<path d="M44.9503 34.9507L42.1501 31.8111L40.5662 30.5666L41.8107 32.1505L44.9503 34.9507Z" fill="#000088"/>
<path d="M46.6062 27.6573C46.7899 27.5812 46.8771 27.3706 46.801 27.1869C46.7249 27.0033 46.5143 26.916 46.3306 26.9921C46.147 27.0682 46.0597 27.2788 46.1358 27.4625C46.2119 27.6462 46.4225 27.7334 46.6062 27.6573Z" fill="#000088"/>
<path d="M43.5002 36.0628L41.6081 32.3055L40.4002 30.6935L41.1924 32.5455L43.5002 36.0628Z" fill="#000088"/>
<path d="M46.988 29.4461C47.1851 29.4202 47.3239 29.2394 47.2979 29.0422C47.272 28.8451 47.0912 28.7064 46.894 28.7323C46.6969 28.7583 46.5581 28.9391 46.5841 29.1362C46.6101 29.3333 46.7909 29.4721 46.988 29.4461Z" fill="#000088"/>
<path d="M41.8121 36.7616L40.9569 32.6426L40.2074 30.7728L40.4932 32.7668L41.8121 36.7616Z" fill="#000088"/>
</g>
<defs>
<clipPath id="clip0_3732_58648">
<rect width="80" height="60" fill="white"/>
</clipPath>
</defs>
</svg>
