<svg width="80" height="60" viewBox="0 0 80 60" fill="none" xmlns="http://www.w3.org/2000/svg">
<g clip-path="url(#clip0_3732_59250)">
<mask id="mask0_3732_59250" style="mask-type:luminance" maskUnits="userSpaceOnUse" x="0" y="0" width="81" height="60">
<path d="M0.00390625 0H80.0078V60H0.00390625V0Z" fill="white"/>
</mask>
<g mask="url(#mask0_3732_59250)">
<path fill-rule="evenodd" clip-rule="evenodd" d="M-12.5 0H92.5V60H-12.5V0Z" fill="white"/>
<path fill-rule="evenodd" clip-rule="evenodd" d="M-12.5 40.2891H92.5V60H-12.5V40.2891Z" fill="#DA0000"/>
<path fill-rule="evenodd" clip-rule="evenodd" d="M7.46875 41.1328H13.2109V41.5195H7.46875V41.1328ZM8.32422 43.1016H8.72266V43.4883H8.32422V43.1016ZM13.2344 43.1016V43.4883H12.0859V43.0898L13.2344 43.1016ZM13.8438 41.1328H14.2422V43.4766H13.8438V41.1328Z" fill="white"/>
<path fill-rule="evenodd" clip-rule="evenodd" d="M16.1406 43.0898V43.4883H13.9609V43.0898H16.1406ZM12.0859 42.1641H12.4609V43.4883H12.0742L12.0859 42.1641Z" fill="white"/>
<path fill-rule="evenodd" clip-rule="evenodd" d="M15.8125 41.1328H16.2109V43.4766H15.8125V41.1328ZM14.8281 41.1328H15.2148V43.4766H14.8281V41.1328ZM9.57812 42.0703V42.4687H7.46875V42.0703H9.57812ZM14.1836 42.0703V42.4687H12.0742V42.0703H14.1836Z" fill="white"/>
<path fill-rule="evenodd" clip-rule="evenodd" d="M12.0859 42.1758H12.4609V43.4766H12.0742L12.0859 42.1758Z" fill="white"/>
<path fill-rule="evenodd" clip-rule="evenodd" d="M12.0859 42.1758H12.4609V43.4766H12.0742L12.0859 42.1758Z" fill="white"/>
<path fill-rule="evenodd" clip-rule="evenodd" d="M12.0859 42.1758H12.4609V43.4766H12.0742L12.0859 42.1758ZM7.48047 42.1758H7.86719V43.4766H7.48047V42.1758ZM10.8555 42.1758H11.2539V43.4766H10.8555V42.1758ZM9.17969 42.1758H9.57812V43.4766H9.17969V42.1758Z" fill="white"/>
<path fill-rule="evenodd" clip-rule="evenodd" d="M11.125 43.0898V43.4883H9.35547V43.0898H11.125ZM11.2422 42.0703V42.4687H10.1172V42.0703H11.2422Z" fill="white"/>
<path fill-rule="evenodd" clip-rule="evenodd" d="M-1.97656 41.1328H3.76562V41.5195H-1.97656V41.1328ZM-1.12109 43.1016H-0.722657V43.4883H-1.13281L-1.12109 43.1016ZM3.78906 43.1016V43.4883H2.64062V43.0898L3.78906 43.1016ZM4.39844 41.1328H4.79687V43.4766H4.39844V41.1328Z" fill="white"/>
<path fill-rule="evenodd" clip-rule="evenodd" d="M6.69531 43.0898V43.4883H4.51563V43.0898H6.69531ZM2.64062 42.1641H3.02734V43.4883H2.64062V42.1641Z" fill="white"/>
<path fill-rule="evenodd" clip-rule="evenodd" d="M6.36719 41.1328H6.76562V43.4766H6.36719V41.1328ZM5.38281 41.1328H5.76953V43.4766H5.38281V41.1328ZM0.132812 42.0703V42.4687H-1.97656V42.0703H0.132812ZM4.73828 42.0703V42.4687H2.62891V42.0703H4.73828Z" fill="white"/>
<path fill-rule="evenodd" clip-rule="evenodd" d="M2.64062 42.1758H3.02734V43.4766H2.64062V42.1758Z" fill="white"/>
<path fill-rule="evenodd" clip-rule="evenodd" d="M2.64062 42.1758H3.02734V43.4766H2.64062V42.1758Z" fill="white"/>
<path fill-rule="evenodd" clip-rule="evenodd" d="M2.64062 42.1758H3.02734V43.4766H2.64062V42.1758ZM-1.96484 42.1758H-1.57813V43.4766H-1.96484V42.1758ZM1.41016 42.1758H1.79688V43.4766H1.41016V42.1758ZM-0.265625 42.1758H0.132813V43.4766H-0.265625V42.1758Z" fill="white"/>
<path fill-rule="evenodd" clip-rule="evenodd" d="M1.67969 43.0898V43.4883H-0.078125V43.0898H1.67969ZM1.79688 42.0703V42.4687H0.671875V42.0703H1.79688Z" fill="white"/>
<path fill-rule="evenodd" clip-rule="evenodd" d="M16.832 41.1328H22.5742V41.5195H16.832V41.1328ZM17.6875 43.1016H18.0859V43.4883H17.6875V43.1016ZM22.5977 43.1016V43.4883H21.4492V43.0898L22.5977 43.1016ZM23.2188 41.1328H23.6172V43.4766H23.2188V41.1328Z" fill="white"/>
<path fill-rule="evenodd" clip-rule="evenodd" d="M25.5039 43.0898V43.4883H23.3242V43.0898H25.5039ZM21.4492 42.1641H21.8477V43.4883H21.4492V42.1641Z" fill="white"/>
<path fill-rule="evenodd" clip-rule="evenodd" d="M25.1758 41.1328H25.5742V43.4766H25.1758V41.1328ZM24.1914 41.1328H24.5898V43.4766H24.1797L24.1914 41.1328ZM18.9414 42.0703V42.4687H16.832V42.0703H18.9414ZM23.5469 42.0703V42.4687H21.4375V42.0703H23.5469Z" fill="white"/>
<path fill-rule="evenodd" clip-rule="evenodd" d="M21.4492 42.1758H21.8477V43.4766H21.4492V42.1758Z" fill="white"/>
<path fill-rule="evenodd" clip-rule="evenodd" d="M21.4492 42.1758H21.8477V43.4766H21.4492V42.1758Z" fill="white"/>
<path fill-rule="evenodd" clip-rule="evenodd" d="M21.4492 42.1758H21.8477V43.4766H21.4492V42.1758ZM16.8438 42.1758H17.2422V43.4766H16.8438V42.1758ZM20.2187 42.1758H20.6172V43.4766H20.2187V42.1758ZM18.543 42.1758H18.9414V43.4766H18.543V42.1758Z" fill="white"/>
<path fill-rule="evenodd" clip-rule="evenodd" d="M20.5 43.0898V43.4883H18.7188V43.0898H20.5ZM20.6172 42.0703V42.4687H19.4922V42.0703H20.6172Z" fill="white"/>
<path fill-rule="evenodd" clip-rule="evenodd" d="M26.2539 41.1328H32.0078V41.5195H26.2656L26.2539 41.1328ZM27.1211 43.1016H27.5078V43.4883H27.1211V43.1016ZM32.0195 43.1016V43.4883H30.8711V43.0898L32.0195 43.1016ZM32.6406 41.1328H33.0391V43.4766H32.6406V41.1328Z" fill="white"/>
<path fill-rule="evenodd" clip-rule="evenodd" d="M34.9375 43.0898V43.4883H32.7578V43.0898H34.9375ZM30.8711 42.1641H31.2695V43.4883H30.8711V42.1641Z" fill="white"/>
<path fill-rule="evenodd" clip-rule="evenodd" d="M34.6094 41.1328H35.0078V43.4766H34.6094V41.1328ZM33.6133 41.1328H34.0117V43.4766H33.6133V41.1328ZM28.3633 42.0703V42.4687H26.2656V42.0703H28.3633ZM32.9687 42.0703V42.4687H30.8711V42.0703H32.9687Z" fill="white"/>
<path fill-rule="evenodd" clip-rule="evenodd" d="M30.8711 42.1758H31.2695V43.4766H30.8711V42.1758Z" fill="white"/>
<path fill-rule="evenodd" clip-rule="evenodd" d="M30.8711 42.1758H31.2695V43.4766H30.8711V42.1758Z" fill="white"/>
<path fill-rule="evenodd" clip-rule="evenodd" d="M30.8711 42.1758H31.2695V43.4766H30.8711V42.1758ZM26.2656 42.1758H26.6641V43.4766H26.2656V42.1758ZM29.6406 42.1758H30.0391V43.4766H29.6406V42.1758ZM27.9766 42.1758H28.3633V43.4766H27.9766V42.1758Z" fill="white"/>
<path fill-rule="evenodd" clip-rule="evenodd" d="M29.9219 43.0898V43.4883H28.1523V43.0898H29.9219ZM30.0391 42.0703V42.4687H28.9141V42.0703H30.0391Z" fill="white"/>
<path fill-rule="evenodd" clip-rule="evenodd" d="M35.7227 41.1328H41.4648V41.5195H35.7227V41.1328ZM36.5781 43.1016H36.9766V43.4883H36.5781V43.1016ZM41.4883 43.1016V43.4883H40.3398V43.0898L41.4883 43.1016ZM42.1094 41.1328H42.4961V43.4766H42.1094V41.1328Z" fill="white"/>
<path fill-rule="evenodd" clip-rule="evenodd" d="M44.3945 43.0898V43.4883H42.2148V43.0898H44.3945ZM40.3398 42.1641H40.7383V43.4883H40.3398V42.1641Z" fill="white"/>
<path fill-rule="evenodd" clip-rule="evenodd" d="M44.0664 41.1328H44.4648V43.4766H44.0664V41.1328ZM43.082 41.1328H43.4805V43.4766H43.082V41.1328ZM37.832 42.0703V42.4687H35.7227V42.0703H37.832ZM42.4375 42.0703V42.4687H40.3281V42.0703H42.4375Z" fill="white"/>
<path fill-rule="evenodd" clip-rule="evenodd" d="M40.3398 42.1758H40.7383V43.4766H40.3398V42.1758Z" fill="white"/>
<path fill-rule="evenodd" clip-rule="evenodd" d="M40.3398 42.1758H40.7383V43.4766H40.3398V42.1758Z" fill="white"/>
<path fill-rule="evenodd" clip-rule="evenodd" d="M40.3398 42.1758H40.7383V43.4766H40.3398V42.1758ZM35.7344 42.1758H36.1211V43.4766H35.7344V42.1758ZM39.1094 42.1758H39.5078V43.4766H39.1094V42.1758ZM37.4336 42.1758H37.832V43.4766H37.4219L37.4336 42.1758Z" fill="white"/>
<path fill-rule="evenodd" clip-rule="evenodd" d="M39.3906 43.0898V43.4883H37.6094V43.0898H39.3906ZM39.5078 42.0703V42.4687H38.3594V42.0703H39.5078Z" fill="white"/>
<path fill-rule="evenodd" clip-rule="evenodd" d="M-12.5 0H92.5V19.7109H-12.5V0Z" fill="#239F40"/>
<path fill-rule="evenodd" clip-rule="evenodd" d="M45.2383 41.1328H50.9805V41.5195H45.2383V41.1328ZM46.0937 43.1016H46.4922V43.4883H46.0937V43.1016ZM51.0039 43.1016V43.4883H49.8437V43.0898L51.0039 43.1016ZM51.625 41.1328H52.0117V43.4766H51.625V41.1328Z" fill="white"/>
<path fill-rule="evenodd" clip-rule="evenodd" d="M53.9102 43.0898V43.4883H51.7305V43.0898H53.9102ZM49.8555 42.1641H50.2539V43.4883H49.8438L49.8555 42.1641Z" fill="white"/>
<path fill-rule="evenodd" clip-rule="evenodd" d="M53.5937 41.1328H53.9805V43.4766H53.5937V41.1328ZM52.5977 41.1328H52.9961V43.4766H52.5977V41.1328ZM47.3477 42.0703V42.4687H45.2383V42.0703H47.3477ZM51.9531 42.0703V42.4687H49.8437V42.0703H51.9531Z" fill="white"/>
<path fill-rule="evenodd" clip-rule="evenodd" d="M49.8438 42.1758H50.2539V43.4766H49.8438V42.1758Z" fill="white"/>
<path fill-rule="evenodd" clip-rule="evenodd" d="M49.8438 42.1758H50.2539V43.4766H49.8438V42.1758Z" fill="white"/>
<path fill-rule="evenodd" clip-rule="evenodd" d="M49.8438 42.1758H50.2539V43.4766H49.8438V42.1758ZM45.25 42.1758H45.6484V43.4766H45.25V42.1758ZM48.625 42.1758H49.0234V43.4766H48.625V42.1758ZM46.9492 42.1758H47.3477V43.4766H46.9492V42.1758Z" fill="white"/>
<path fill-rule="evenodd" clip-rule="evenodd" d="M48.9063 43.0898V43.4883H47.125V43.0898H48.9063ZM49.0234 42.0703V42.4687H47.8984V42.0703H49.0234Z" fill="white"/>
<path fill-rule="evenodd" clip-rule="evenodd" d="M54.6953 41.1328H60.4375V41.5195H54.6953V41.1328ZM55.5508 43.1016H55.9492V43.4883H55.5508V43.1016ZM60.4727 43.1016V43.4883H59.3125V43.0898L60.4727 43.1016ZM61.082 41.1328H61.4805V43.4766H61.082V41.1328Z" fill="white"/>
<path fill-rule="evenodd" clip-rule="evenodd" d="M63.3672 43.0898V43.4883H61.1875V43.0898H63.3672ZM59.3125 42.1641H59.7109V43.4883H59.3125V42.1641Z" fill="white"/>
<path fill-rule="evenodd" clip-rule="evenodd" d="M63.0508 41.1328H63.4375V43.4766H63.0508V41.1328ZM62.0547 41.1328H62.4531V43.4766H62.0547V41.1328ZM56.8047 42.0703V42.4687H54.707V42.0703H56.8047ZM61.4102 42.0703V42.4687H59.3125V42.0703H61.4102Z" fill="white"/>
<path fill-rule="evenodd" clip-rule="evenodd" d="M59.3125 42.1758H59.7109V43.4766H59.3125V42.1758Z" fill="white"/>
<path fill-rule="evenodd" clip-rule="evenodd" d="M59.3125 42.1758H59.7109V43.4766H59.3125V42.1758Z" fill="white"/>
<path fill-rule="evenodd" clip-rule="evenodd" d="M59.3125 42.1758H59.7109V43.4766H59.3125V42.1758ZM54.707 42.1758H55.1055V43.4766H54.707V42.1758ZM58.082 42.1758H58.4805V43.4766H58.082V42.1758ZM56.4062 42.1758H56.8047V43.4766H56.418L56.4062 42.1758Z" fill="white"/>
<path fill-rule="evenodd" clip-rule="evenodd" d="M58.3633 43.0898V43.4883H56.5938V43.0898H58.3633ZM58.4805 42.0703V42.4687H57.3437V42.0703H58.4805Z" fill="white"/>
<path fill-rule="evenodd" clip-rule="evenodd" d="M64.1641 41.1328H69.9062V41.5195H64.1641V41.1328ZM65.0195 43.1016H65.418V43.4883H65.0195V43.1016ZM69.9297 43.1016V43.4883H68.7812V43.0898L69.9297 43.1016ZM70.5391 41.1328H70.9375V43.4766H70.5391V41.1328Z" fill="white"/>
<path fill-rule="evenodd" clip-rule="evenodd" d="M72.8359 43.0898V43.4883H70.6562V43.0898H72.8359ZM68.7695 42.1641H69.168V43.4883H68.7695V42.1641Z" fill="white"/>
<path fill-rule="evenodd" clip-rule="evenodd" d="M72.5078 41.1328H72.9062V43.4766H72.5078V41.1328ZM71.5234 41.1328H71.9102V43.4766H71.5234V41.1328ZM66.2734 42.0703V42.4687H64.1641V42.0703H66.2734ZM70.8789 42.0703V42.4687H68.7695V42.0703H70.8789Z" fill="white"/>
<path fill-rule="evenodd" clip-rule="evenodd" d="M68.7812 42.1758H69.168V43.4766H68.7812V42.1758Z" fill="white"/>
<path fill-rule="evenodd" clip-rule="evenodd" d="M68.7812 42.1758H69.168V43.4766H68.7812V42.1758Z" fill="white"/>
<path fill-rule="evenodd" clip-rule="evenodd" d="M68.7812 42.1758H69.168V43.4766H68.7812V42.1758ZM64.1641 42.1758H64.5625V43.4766H64.1641V42.1758ZM67.5508 42.1758H67.9375V43.4766H67.5508V42.1758ZM65.875 42.1758H66.2734V43.4766H65.875V42.1758Z" fill="white"/>
<path fill-rule="evenodd" clip-rule="evenodd" d="M67.8203 43.0898V43.4883H66.0508V43.0898H67.8203ZM67.9375 42.0703V42.4687H66.8125V42.0703H67.9375Z" fill="white"/>
<path fill-rule="evenodd" clip-rule="evenodd" d="M73.6797 41.1328H79.4219V41.5195H73.6797V41.1328ZM74.5352 43.1016H74.9336V43.4883H74.5352V43.1016ZM79.4453 43.1016V43.4883H78.2969V43.0898L79.4453 43.1016ZM80.0547 41.1328H80.4531V43.4766H80.0547V41.1328Z" fill="white"/>
<path fill-rule="evenodd" clip-rule="evenodd" d="M82.3516 43.0898V43.4883H80.1719V43.0898H82.3516ZM78.2969 42.1641H78.6836V43.4883H78.2969V42.1641Z" fill="white"/>
<path fill-rule="evenodd" clip-rule="evenodd" d="M82.0234 41.1328H82.4219V43.4766H82.0234V41.1328ZM81.0391 41.1328H81.4258V43.4766H81.0391V41.1328ZM75.7891 42.0703V42.4687H73.6797V42.0703H75.7891ZM80.3945 42.0703V42.4687H78.2852V42.0703H80.3945Z" fill="white"/>
<path fill-rule="evenodd" clip-rule="evenodd" d="M78.2969 42.1758H78.6836V43.4766H78.2969V42.1758Z" fill="white"/>
<path fill-rule="evenodd" clip-rule="evenodd" d="M78.2969 42.1758H78.6836V43.4766H78.2969V42.1758Z" fill="white"/>
<path fill-rule="evenodd" clip-rule="evenodd" d="M78.2969 42.1758H78.6836V43.4766H78.2969V42.1758ZM73.6914 42.1758H74.0781V43.4766H73.6914V42.1758ZM77.0664 42.1758H77.4648V43.4766H77.0664V42.1758ZM75.3906 42.1758H75.7891V43.4766H75.3906V42.1758Z" fill="white"/>
<path fill-rule="evenodd" clip-rule="evenodd" d="M77.3359 43.0898V43.4883H75.5664V43.0898H77.3359ZM77.4531 42.0703V42.4687H76.3281V42.0703H77.4531Z" fill="white"/>
<path fill-rule="evenodd" clip-rule="evenodd" d="M7.46875 16.8047H13.2109V17.2031H7.46875V16.8047ZM8.32422 18.7969H8.72266V19.1719H8.32422V18.7969ZM13.2344 18.7734V19.1719H12.0859V18.7734H13.2344ZM13.8438 16.8047H14.2422V19.1719H13.8438V16.8047Z" fill="white"/>
<path fill-rule="evenodd" clip-rule="evenodd" d="M16.1406 18.7734V19.1719H13.9609V18.7734H16.1406ZM12.0859 17.8477H12.4609V19.1719H12.0742L12.0859 17.8477Z" fill="white"/>
<path fill-rule="evenodd" clip-rule="evenodd" d="M15.8125 16.8047H16.2109V19.1719H15.8125V16.8047ZM14.8281 16.8047H15.2148V19.1719H14.8281V16.8047ZM9.57812 17.7422V18.1406H7.46875V17.7539L9.57812 17.7422ZM14.1836 17.7422V18.1406H12.0742V17.7539L14.1836 17.7422Z" fill="white"/>
<path fill-rule="evenodd" clip-rule="evenodd" d="M12.0859 17.8477H12.4609V19.1719H12.0742L12.0859 17.8477Z" fill="white"/>
<path fill-rule="evenodd" clip-rule="evenodd" d="M12.0859 17.8477H12.4609V19.1719H12.0742L12.0859 17.8477Z" fill="white"/>
<path fill-rule="evenodd" clip-rule="evenodd" d="M12.0859 17.8477H12.4609V19.1719H12.0742L12.0859 17.8477ZM7.48047 17.8477H7.86719V19.1719H7.48047V17.8477ZM10.8555 17.8477H11.2539V19.1719H10.8555V17.8477ZM9.17969 17.8477H9.57812V19.1719H9.17969V17.8477Z" fill="white"/>
<path fill-rule="evenodd" clip-rule="evenodd" d="M11.125 18.7734V19.1719H9.35547V18.7734H11.125ZM11.2422 17.7539V18.1406H10.1172V17.7539H11.2422Z" fill="white"/>
<path fill-rule="evenodd" clip-rule="evenodd" d="M-1.97656 16.8047H3.76562V17.2031H-1.97656V16.8047ZM-1.12109 18.7969H-0.722657V19.1719H-1.13281L-1.12109 18.7969ZM3.78906 18.7734V19.1719H2.64062V18.7734H3.78906ZM4.39844 16.8047H4.79687V19.1719H4.39844V16.8047Z" fill="white"/>
<path fill-rule="evenodd" clip-rule="evenodd" d="M6.69531 18.7734V19.1719H4.51563V18.7734H6.69531ZM2.64062 17.8477H3.02734V19.1719H2.64062V17.8477Z" fill="white"/>
<path fill-rule="evenodd" clip-rule="evenodd" d="M6.36719 16.8047H6.76562V19.1719H6.36719V16.8047ZM5.38281 16.8047H5.76953V19.1719H5.38281V16.8047ZM0.132812 17.7422V18.1406H-1.97656V17.7539L0.132812 17.7422ZM4.73828 17.7422V18.1406H2.62891V17.7539L4.73828 17.7422Z" fill="white"/>
<path fill-rule="evenodd" clip-rule="evenodd" d="M2.64062 17.8477H3.02734V19.1719H2.64062V17.8477Z" fill="white"/>
<path fill-rule="evenodd" clip-rule="evenodd" d="M2.64062 17.8477H3.02734V19.1719H2.64062V17.8477Z" fill="white"/>
<path fill-rule="evenodd" clip-rule="evenodd" d="M2.64062 17.8477H3.02734V19.1719H2.64062V17.8477ZM-1.96484 17.8477H-1.57813V19.1719H-1.96484V17.8477ZM1.41016 17.8477H1.79688V19.1719H1.41016V17.8477ZM-0.265625 17.8477H0.132813V19.1719H-0.265625V17.8477Z" fill="white"/>
<path fill-rule="evenodd" clip-rule="evenodd" d="M1.67969 18.7734V19.1719H-0.078125V18.7734H1.67969ZM1.79688 17.7539V18.1406H0.671875V17.7539H1.79688Z" fill="white"/>
<path fill-rule="evenodd" clip-rule="evenodd" d="M16.832 16.8047H22.5742V17.2031H16.832V16.8047ZM17.6875 18.7969H18.0859V19.1719H17.6875V18.7969ZM22.5977 18.7734V19.1719H21.4492V18.7734H22.5977ZM23.2188 16.8047H23.6172V19.1719H23.2188V16.8047Z" fill="white"/>
<path fill-rule="evenodd" clip-rule="evenodd" d="M25.5039 18.7734V19.1719H23.3242V18.7734H25.5039ZM21.4492 17.8477H21.8477V19.1719H21.4492V17.8477Z" fill="white"/>
<path fill-rule="evenodd" clip-rule="evenodd" d="M25.1758 16.8047H25.5742V19.1719H25.1758V16.8047ZM24.1914 16.8047H24.5898V19.1719H24.1797L24.1914 16.8047ZM18.9414 17.7422V18.1406H16.832V17.7539L18.9414 17.7422ZM23.5469 17.7422V18.1406H21.4375V17.7539L23.5469 17.7422Z" fill="white"/>
<path fill-rule="evenodd" clip-rule="evenodd" d="M21.4492 17.8477H21.8477V19.1719H21.4492V17.8477Z" fill="white"/>
<path fill-rule="evenodd" clip-rule="evenodd" d="M21.4492 17.8477H21.8477V19.1719H21.4492V17.8477Z" fill="white"/>
<path fill-rule="evenodd" clip-rule="evenodd" d="M21.4492 17.8477H21.8477V19.1719H21.4492V17.8477ZM16.8438 17.8477H17.2422V19.1719H16.8438V17.8477ZM20.2187 17.8477H20.6172V19.1719H20.2187V17.8477ZM18.543 17.8477H18.9414V19.1719H18.543V17.8477Z" fill="white"/>
<path fill-rule="evenodd" clip-rule="evenodd" d="M20.5 18.7734V19.1719H18.7188V18.7734H20.5ZM20.6172 17.7539V18.1406H19.4922V17.7539H20.6172Z" fill="white"/>
<path fill-rule="evenodd" clip-rule="evenodd" d="M26.2539 16.8047H32.0078V17.2031H26.2656L26.2539 16.8047ZM27.1211 18.7969H27.5078V19.1719H27.1211V18.7969ZM32.0195 18.7734V19.1719H30.8711V18.7734H32.0195ZM32.6406 16.8047H33.0391V19.1719H32.6406V16.8047Z" fill="white"/>
<path fill-rule="evenodd" clip-rule="evenodd" d="M34.9375 18.7734V19.1719H32.7578V18.7734H34.9375ZM30.8711 17.8477H31.2695V19.1719H30.8711V17.8477Z" fill="white"/>
<path fill-rule="evenodd" clip-rule="evenodd" d="M34.6094 16.8047H35.0078V19.1719H34.6094V16.8047ZM33.6133 16.8047H34.0117V19.1719H33.6133V16.8047ZM28.3633 17.7422V18.1406H26.2656V17.7539L28.3633 17.7422ZM32.9687 17.7422V18.1406H30.8711V17.7539L32.9687 17.7422Z" fill="white"/>
<path fill-rule="evenodd" clip-rule="evenodd" d="M30.8711 17.8477H31.2695V19.1719H30.8711V17.8477Z" fill="white"/>
<path fill-rule="evenodd" clip-rule="evenodd" d="M30.8711 17.8477H31.2695V19.1719H30.8711V17.8477Z" fill="white"/>
<path fill-rule="evenodd" clip-rule="evenodd" d="M30.8711 17.8477H31.2695V19.1719H30.8711V17.8477ZM26.2656 17.8477H26.6641V19.1719H26.2656V17.8477ZM29.6406 17.8477H30.0391V19.1719H29.6406V17.8477ZM27.9766 17.8477H28.3633V19.1719H27.9766V17.8477Z" fill="white"/>
<path fill-rule="evenodd" clip-rule="evenodd" d="M29.9219 18.7734V19.1719H28.1523V18.7734H29.9219ZM30.0391 17.7539V18.1406H28.9141V17.7539H30.0391Z" fill="white"/>
<path fill-rule="evenodd" clip-rule="evenodd" d="M35.7227 16.8047H41.4648V17.2031H35.7227V16.8047ZM36.5781 18.7969H36.9766V19.1719H36.5781V18.7969ZM41.4883 18.7734V19.1719H40.3398V18.7734H41.4883ZM42.1094 16.8047H42.4961V19.1719H42.1094V16.8047Z" fill="white"/>
<path fill-rule="evenodd" clip-rule="evenodd" d="M44.3945 18.7734V19.1719H42.2148V18.7734H44.3945ZM40.3398 17.8477H40.7383V19.1719H40.3398V17.8477Z" fill="white"/>
<path fill-rule="evenodd" clip-rule="evenodd" d="M44.0664 16.8047H44.4648V19.1719H44.0664V16.8047ZM43.082 16.8047H43.4805V19.1719H43.082V16.8047ZM37.832 17.7422V18.1406H35.7227V17.7539L37.832 17.7422ZM42.4375 17.7422V18.1406H40.3281V17.7539L42.4375 17.7422Z" fill="white"/>
<path fill-rule="evenodd" clip-rule="evenodd" d="M40.3398 17.8477H40.7383V19.1719H40.3398V17.8477Z" fill="white"/>
<path fill-rule="evenodd" clip-rule="evenodd" d="M40.3398 17.8477H40.7383V19.1719H40.3398V17.8477Z" fill="white"/>
<path fill-rule="evenodd" clip-rule="evenodd" d="M40.3398 17.8477H40.7383V19.1719H40.3398V17.8477ZM35.7344 17.8477H36.1211V19.1719H35.7344V17.8477ZM39.1094 17.8477H39.5078V19.1719H39.1094V17.8477ZM37.4336 17.8477H37.832V19.1719H37.4219L37.4336 17.8477Z" fill="white"/>
<path fill-rule="evenodd" clip-rule="evenodd" d="M39.3906 18.7734V19.1719H37.6094V18.7734H39.3906ZM39.5078 17.7539V18.1406H38.3594V17.7539H39.5078Z" fill="white"/>
<path fill-rule="evenodd" clip-rule="evenodd" d="M45.2383 16.8047H50.9805V17.2031H45.2383V16.8047ZM46.0937 18.7969H46.4922V19.1719H46.0937V18.7969ZM51.0039 18.7734V19.1719H49.8437V18.7734H51.0039ZM51.625 16.8047H52.0117V19.1719H51.625V16.8047Z" fill="white"/>
<path fill-rule="evenodd" clip-rule="evenodd" d="M53.9102 18.7734V19.1719H51.7305V18.7734H53.9102ZM49.8555 17.8477H50.2539V19.1719H49.8438L49.8555 17.8477Z" fill="white"/>
<path fill-rule="evenodd" clip-rule="evenodd" d="M53.5937 16.8047H53.9805V19.1719H53.5937V16.8047ZM52.5977 16.8047H52.9961V19.1719H52.5977V16.8047ZM47.3477 17.7422V18.1406H45.2383V17.7539L47.3477 17.7422ZM51.9531 17.7422V18.1406H49.8437V17.7539L51.9531 17.7422Z" fill="white"/>
<path fill-rule="evenodd" clip-rule="evenodd" d="M49.8438 17.8477H50.2539V19.1719H49.8438V17.8477Z" fill="white"/>
<path fill-rule="evenodd" clip-rule="evenodd" d="M49.8438 17.8477H50.2539V19.1719H49.8438V17.8477Z" fill="white"/>
<path fill-rule="evenodd" clip-rule="evenodd" d="M49.8438 17.8477H50.2539V19.1719H49.8438V17.8477ZM45.25 17.8477H45.6484V19.1719H45.25V17.8477ZM48.625 17.8477H49.0234V19.1719H48.625V17.8477ZM46.9492 17.8477H47.3477V19.1719H46.9492V17.8477Z" fill="white"/>
<path fill-rule="evenodd" clip-rule="evenodd" d="M48.9063 18.7734V19.1719H47.125V18.7734H48.9063ZM49.0234 17.7539V18.1406H47.8984V17.7539H49.0234Z" fill="white"/>
<path fill-rule="evenodd" clip-rule="evenodd" d="M54.6953 16.8047H60.4375V17.2031H54.6953V16.8047ZM55.5508 18.7969H55.9492V19.1719H55.5508V18.7969ZM60.4727 18.7734V19.1719H59.3125V18.7734H60.4727ZM61.082 16.8047H61.4805V19.1719H61.082V16.8047Z" fill="white"/>
<path fill-rule="evenodd" clip-rule="evenodd" d="M63.3672 18.7734V19.1719H61.1875V18.7734H63.3672ZM59.3125 17.8477H59.7109V19.1719H59.3125V17.8477Z" fill="white"/>
<path fill-rule="evenodd" clip-rule="evenodd" d="M63.0508 16.8047H63.4375V19.1719H63.0508V16.8047ZM62.0547 16.8047H62.4531V19.1719H62.0547V16.8047ZM56.8047 17.7422V18.1406H54.707V17.7539L56.8047 17.7422ZM61.4102 17.7422V18.1406H59.3125V17.7539L61.4102 17.7422Z" fill="white"/>
<path fill-rule="evenodd" clip-rule="evenodd" d="M59.3125 17.8477H59.7109V19.1719H59.3125V17.8477Z" fill="white"/>
<path fill-rule="evenodd" clip-rule="evenodd" d="M59.3125 17.8477H59.7109V19.1719H59.3125V17.8477Z" fill="white"/>
<path fill-rule="evenodd" clip-rule="evenodd" d="M59.3125 17.8477H59.7109V19.1719H59.3125V17.8477ZM54.707 17.8477H55.1055V19.1719H54.707V17.8477ZM58.082 17.8477H58.4805V19.1719H58.082V17.8477ZM56.4062 17.8477H56.8047V19.1719H56.418L56.4062 17.8477Z" fill="white"/>
<path fill-rule="evenodd" clip-rule="evenodd" d="M58.3633 18.7734V19.1719H56.5938V18.7734H58.3633ZM58.4805 17.7539V18.1406H57.3437V17.7539H58.4805Z" fill="white"/>
<path fill-rule="evenodd" clip-rule="evenodd" d="M64.1641 16.8047H69.9062V17.2031H64.1641V16.8047ZM65.0195 18.7969H65.418V19.1719H65.0195V18.7969ZM69.9297 18.7734V19.1719H68.7812V18.7734H69.9297ZM70.5391 16.8047H70.9375V19.1719H70.5391V16.8047Z" fill="white"/>
<path fill-rule="evenodd" clip-rule="evenodd" d="M72.8359 18.7734V19.1719H70.6562V18.7734H72.8359ZM68.7695 17.8477H69.168V19.1719H68.7695V17.8477Z" fill="white"/>
<path fill-rule="evenodd" clip-rule="evenodd" d="M72.5078 16.8047H72.9062V19.1719H72.5078V16.8047ZM71.5234 16.8047H71.9102V19.1719H71.5234V16.8047ZM66.2734 17.7422V18.1406H64.1641V17.7539L66.2734 17.7422ZM70.8789 17.7422V18.1406H68.7695V17.7539L70.8789 17.7422Z" fill="white"/>
<path fill-rule="evenodd" clip-rule="evenodd" d="M68.7812 17.8477H69.168V19.1719H68.7812V17.8477Z" fill="white"/>
<path fill-rule="evenodd" clip-rule="evenodd" d="M68.7812 17.8477H69.168V19.1719H68.7812V17.8477Z" fill="white"/>
<path fill-rule="evenodd" clip-rule="evenodd" d="M68.7812 17.8477H69.168V19.1719H68.7812V17.8477ZM64.1641 17.8477H64.5625V19.1719H64.1641V17.8477ZM67.5508 17.8477H67.9375V19.1719H67.5508V17.8477ZM65.875 17.8477H66.2734V19.1719H65.875V17.8477Z" fill="white"/>
<path fill-rule="evenodd" clip-rule="evenodd" d="M67.8203 18.7734V19.1719H66.0508V18.7734H67.8203ZM67.9375 17.7539V18.1406H66.8125V17.7539H67.9375Z" fill="white"/>
<path fill-rule="evenodd" clip-rule="evenodd" d="M73.6797 16.8047H79.4219V17.2031H73.6797V16.8047ZM74.5352 18.7969H74.9336V19.1719H74.5352V18.7969ZM79.4453 18.7734V19.1719H78.2969V18.7734H79.4453ZM80.0547 16.8047H80.4531V19.1719H80.0547V16.8047Z" fill="white"/>
<path fill-rule="evenodd" clip-rule="evenodd" d="M82.3516 18.7734V19.1719H80.1719V18.7734H82.3516ZM78.2969 17.8477H78.6836V19.1719H78.2969V17.8477Z" fill="white"/>
<path fill-rule="evenodd" clip-rule="evenodd" d="M82.0234 16.8047H82.4219V19.1719H82.0234V16.8047ZM81.0391 16.8047H81.4258V19.1719H81.0391V16.8047ZM75.7891 17.7422V18.1406H73.6797V17.7539L75.7891 17.7422ZM80.3945 17.7422V18.1406H78.2852V17.7539L80.3945 17.7422Z" fill="white"/>
<path fill-rule="evenodd" clip-rule="evenodd" d="M78.2969 17.8477H78.6836V19.1719H78.2969V17.8477Z" fill="white"/>
<path fill-rule="evenodd" clip-rule="evenodd" d="M78.2969 17.8477H78.6836V19.1719H78.2969V17.8477Z" fill="white"/>
<path fill-rule="evenodd" clip-rule="evenodd" d="M78.2969 17.8477H78.6836V19.1719H78.2969V17.8477ZM73.6914 17.8477H74.0781V19.1719H73.6914V17.8477ZM77.0664 17.8477H77.4648V19.1719H77.0664V17.8477ZM75.3906 17.8477H75.7891V19.1719H75.3906V17.8477Z" fill="white"/>
<path fill-rule="evenodd" clip-rule="evenodd" d="M77.3359 18.7734V19.1719H75.5664V18.7734H77.3359ZM77.4531 17.7539V18.1406H76.3281V17.7539H77.4531Z" fill="white"/>
<path fill-rule="evenodd" clip-rule="evenodd" d="M1.9375 39.7852H2.64062V41.0156H1.9375V39.7852ZM20.7461 39.7852H21.4492V41.0156H20.7461V39.7852ZM-12.5 39.7852H-11.7969V41.0156H-12.5V39.7852ZM-2.94922 39.7852H-2.24609V41.0156H-2.94922V39.7852ZM6.53125 39.7852H7.23438V41.0156H6.53125V39.7852ZM11.2188 39.7852H11.9219V41.0156H11.2188V39.7852ZM16.0117 39.7852H16.7148V41.0156H16.0117V39.7852ZM25.4336 39.7852H26.1367V41.0156H25.4336V39.7852ZM49.2227 39.7852H49.9375V41.0156H49.2344L49.2227 39.7852ZM30.2266 39.7852H30.9297V41.0156H30.2266V39.7852ZM34.9141 39.7852H35.6172V41.0156H34.9141V39.7852ZM39.6602 39.7852H40.3633V41.0156H39.6602V39.7852ZM44.3945 39.7852H45.0977V41.0156H44.3945V39.7852ZM82.2695 39.7852H82.9727V41.0156H82.2695V39.7852ZM53.8281 39.7852H54.5312V41.0156H53.8281V39.7852ZM58.6094 39.7852H59.3125V41.0156H58.6094V39.7852ZM63.4492 39.7852H64.1523V41.0156H63.4492V39.7852ZM67.9961 39.7852H68.6992V41.0156H67.9961V39.7852ZM72.8359 39.7852H73.5391V41.0156H72.8359V39.7852ZM77.5703 39.7852H78.2734V41.0156H77.5703V39.7852ZM91.5977 39.7852H92.3008V41.0156H91.5977V39.7852ZM87.0508 39.7852H87.7539V41.0156H87.0508V39.7852ZM-7.74219 39.7852H-7.03906V41.0156H-7.74219V39.7852Z" fill="#D90000"/>
<path fill-rule="evenodd" clip-rule="evenodd" d="M1.9375 19.0547H2.64062V20.2852H1.9375V19.0547ZM20.7461 19.0547H21.4492V20.2852H20.7461V19.0547ZM-12.5 19.0547H-11.7969V20.2852H-12.5V19.0547ZM-2.94922 19.0547H-2.24609V20.2852H-2.94922V19.0547ZM6.53125 19.0547H7.23438V20.2852H6.53125V19.0547ZM11.2188 19.0547H11.9219V20.2852H11.2188V19.0547ZM16.0117 19.0547H16.7148V20.2852H16.0117V19.0547ZM25.4336 19.0547H26.1367V20.2852H25.4336V19.0547ZM49.2227 19.0547H49.9375V20.2852H49.2344L49.2227 19.0547ZM30.2266 19.0547H30.9297V20.2852H30.2266V19.0547ZM34.9141 19.0547H35.6172V20.2852H34.9141V19.0547ZM39.6602 19.0547H40.3633V20.2852H39.6602V19.0547ZM44.3945 19.0547H45.0977V20.2852H44.3945V19.0547ZM82.2695 19.0547H82.9727V20.2852H82.2695V19.0547ZM53.8281 19.0547H54.5312V20.2852H53.8281V19.0547ZM58.6094 19.0547H59.3125V20.2852H58.6094V19.0547ZM63.4492 19.0547H64.1523V20.2852H63.4492V19.0547ZM67.9961 19.0547H68.6992V20.2852H67.9961V19.0547ZM72.8359 19.0547H73.5391V20.2852H72.8359V19.0547ZM77.5703 19.0547H78.2734V20.2852H77.5703V19.0547ZM91.5977 19.0547H92.3008V20.2852H91.5977V19.0547ZM87.0508 19.0547H87.7539V20.2852H87.0508V19.0547ZM-7.74219 19.0547H-7.03906V20.2852H-7.74219V19.0547Z" fill="#239E3F"/>
<path fill-rule="evenodd" clip-rule="evenodd" d="M42.7895 23.1445C43.7738 24.3633 46.8324 31.0664 40.9496 35.4727C38.1723 37.5586 39.8949 37.6523 39.977 38.0039C44.4301 35.6484 45.8715 32.4375 45.8363 29.5664C45.8129 26.707 44.2895 24.1758 42.7895 23.1445Z" fill="#DA0000"/>
<path fill-rule="evenodd" clip-rule="evenodd" d="M43.3754 22.8281C44.4626 23.4897 45.3893 24.3847 46.0884 25.4482C46.7874 26.5118 47.2414 27.7174 47.4175 28.978C47.5935 30.2385 47.4873 31.5223 47.1064 32.7368C46.7256 33.9512 46.0796 35.0658 45.2152 36C48.4027 35.2969 52.4808 25.875 43.3754 22.8281ZM36.6254 22.8281C35.5389 23.4907 34.6133 24.3864 33.9154 25.4505C33.2174 26.5145 32.7646 27.7204 32.5897 28.9808C32.4148 30.2413 32.5221 31.5248 32.9038 32.7387C33.2856 33.9527 33.9323 35.0666 34.7972 36C31.598 35.2969 27.5316 25.875 36.6254 22.8281Z" fill="#DA0000"/>
<path fill-rule="evenodd" clip-rule="evenodd" d="M37.2116 23.1445C36.2272 24.3633 33.1686 31.0664 39.0514 35.4727C41.817 37.5586 40.1061 37.6523 40.0241 38.0039C35.5709 35.6484 34.1295 32.4375 34.1647 29.5664C34.1881 26.707 35.7116 24.1758 37.2116 23.1445Z" fill="#DA0000"/>
<path fill-rule="evenodd" clip-rule="evenodd" d="M45.6484 37.3945C43.9023 37.418 41.7109 37.1602 40.082 36.3047C40.3516 36.832 40.5742 37.1602 40.8438 37.6758C42.3906 37.8281 44.5352 38.0039 45.6484 37.3945ZM34.5156 37.3945C36.2617 37.418 38.4531 37.1602 40.082 36.3047C39.8125 36.832 39.5898 37.1602 39.3203 37.6758C37.7734 37.8281 35.6289 38.0039 34.5156 37.3945ZM37.7148 21.1406C38.0664 22.0781 38.9922 22.2187 39.9766 21.668C40.7031 22.0898 41.8164 22.125 42.2031 21.1875C42.4961 23.5078 40.0586 22.9453 39.9766 22.5C39.0625 23.3789 37.375 22.875 37.7148 21.1406Z" fill="#DA0000"/>
<path fill-rule="evenodd" clip-rule="evenodd" d="M40.0469 38.8594L40.9609 37.8047L41.0898 23.7305L40 22.7695L38.9102 23.6836L39.1328 37.8633L40.0469 38.8594Z" fill="#DA0000"/>
</g>
</g>
<defs>
<clipPath id="clip0_3732_59250">
<rect width="80" height="60" fill="white"/>
</clipPath>
</defs>
</svg>
