<svg width="80" height="60" viewBox="0 0 80 60" fill="none" xmlns="http://www.w3.org/2000/svg">
<path d="M0 0H80V20H0V0Z" fill="#CE1126"/>
<path d="M0 40H80V60H0V40Z" fill="black"/>
<path d="M48.8648 26.3269C48.7507 26.2721 48.647 26.1981 48.5583 26.1079C48.4926 25.9984 48.5364 25.9984 48.821 26.0641C49.3247 26.2174 49.6531 26.1517 49.9816 25.8889L50.2663 25.648L50.5947 25.8013C50.7918 25.9108 50.9889 25.9765 51.0327 25.9546C51.186 25.9108 51.4925 25.5167 51.4707 25.3853C51.4707 25.232 51.602 25.2758 51.6896 25.451C51.821 25.8013 51.6239 26.2174 51.2517 26.305C51.0984 26.3488 50.9451 26.3269 50.6823 26.2393C50.3758 26.1298 50.3101 26.1298 50.1568 26.2393C49.9733 26.378 49.7533 26.4601 49.5239 26.4757C49.2944 26.4912 49.0654 26.4395 48.8648 26.3269ZM50.1349 25.1663C49.9866 24.8985 49.9111 24.5965 49.9159 24.2904C49.9378 24.159 49.9816 24.1152 50.0911 24.159C50.3101 24.2247 50.3539 24.378 50.3101 24.8159C50.3101 25.2101 50.2444 25.3196 50.1349 25.1663ZM35.332 24.7502C35.3101 25.0349 35.8576 25.7575 36.0984 25.8889C35.9233 25.9546 35.7262 25.9327 35.5729 25.9984C34.697 26.8743 31.5437 29.94 30.9744 30.6845C32.6824 30.7283 34.5656 30.6626 36.1641 30.5969C36.1641 29.4364 37.259 29.3707 38.0035 28.9546C38.3758 29.5458 39.3174 29.5021 39.4488 30.3999V34.2539H24.8868C24.8317 34.5461 24.7159 34.8235 24.5468 35.0681C24.3777 35.3127 24.1592 35.5191 23.9053 35.674C23.6514 35.8288 23.3678 35.9285 23.0729 35.9668C22.778 36.0051 22.4784 35.981 22.1934 35.8962C22.6313 35.4582 23.3758 35.2831 23.6386 34.648C23.8576 33.2466 23.2007 32.3926 22.7627 31.5823C23.3136 31.4057 23.8315 31.1394 24.2955 30.794C23.7919 32.3269 25.6532 32.1736 27.0109 32.1298C27.0547 31.6042 27.0328 30.9911 26.6386 30.9035C27.1423 30.7064 27.2298 30.6407 28.0839 29.94V32.0422L38.1787 32.0203C38.1787 31.3634 38.3539 30.2904 37.8284 30.2904C37.3466 30.2904 37.8284 31.648 37.4342 31.648H29.6167V30.3342C29.9452 29.9838 29.9014 30.0057 32.1568 27.7502C32.3758 27.5313 33.9743 26.086 35.3539 24.7502H35.332ZM54.8429 24.6845C55.3903 24.9911 55.8283 25.3853 56.4852 25.5605C56.4195 25.8451 56.1568 25.9546 56.0911 26.2393V32.1517C56.8356 32.305 57.0108 31.867 57.3611 31.648C57.4487 32.5896 58.0619 33.5093 58.0181 34.2758H54.8429V24.7064V24.6845ZM50.5947 27.8597C50.5947 27.8597 51.7553 26.8743 51.7553 26.8305V31.9765H52.5874L52.5655 26.2174C52.894 25.867 53.5728 25.3853 53.7261 25.0349V34.232H46.4123C46.3028 32.3269 46.2809 30.3561 48.5145 30.7721V30.0057C48.4488 29.8743 48.3174 30.0276 48.2955 29.8524C48.6458 29.5021 48.7553 29.4145 49.7188 28.5823L49.7407 31.9765H50.5947V27.8597ZM47.8356 31.9327C47.9889 32.1517 48.5364 32.1517 48.4926 31.7575C48.4269 31.4291 47.7261 31.5385 47.8356 31.9327Z" fill="#007A3D"/>
<path d="M26.6382 35.787C26.88 35.787 27.0761 35.591 27.0761 35.3491C27.0761 35.1072 26.88 34.9111 26.6382 34.9111C26.3963 34.9111 26.2002 35.1072 26.2002 35.3491C26.2002 35.591 26.3963 35.787 26.6382 35.787Z" fill="#007A3D"/>
<path d="M40.4346 24.7061C40.982 24.9907 41.42 25.4068 42.0988 25.582C42.0112 25.8447 41.7703 25.9542 41.7046 26.2389V32.1513C42.4492 32.3046 42.6024 31.8885 42.9528 31.6476C43.0623 32.5892 43.6535 33.5308 43.6316 34.2754H40.4346V24.7061Z" fill="#007A3D"/>
</svg>
