<svg width="80" height="60" viewBox="0 0 80 60" fill="none" xmlns="http://www.w3.org/2000/svg">
<g clip-path="url(#clip0_3732_59278)">
<mask id="mask0_3732_59278" style="mask-type:luminance" maskUnits="userSpaceOnUse" x="-1" y="0" width="82" height="61">
<path d="M-0.0302734 0H80.1752V60.16H-0.0302734V0Z" fill="white"/>
</mask>
<g mask="url(#mask0_3732_59278)">
<path fill-rule="evenodd" clip-rule="evenodd" d="M83.042 60.16H-2.89746V0H83.042V60.16Z" fill="white"/>
<path fill-rule="evenodd" clip-rule="evenodd" d="M83.042 13.5356H-2.89746V5.63965H83.042V13.5356ZM83.042 54.7194H-2.89746V46.8234H83.042V54.7194ZM26.2895 22.4069L39.2263 44.9199L52.445 22.5126L26.2895 22.4186V22.4069Z" fill="#0000CC"/>
<path fill-rule="evenodd" clip-rule="evenodd" d="M36.794 37.3418L39.2497 41.513L41.7642 37.3653L36.7822 37.3418H36.794Z" fill="white"/>
<path fill-rule="evenodd" clip-rule="evenodd" d="M26.2422 37.6702L39.1907 15.1572L52.3977 37.5762L26.2422 37.6702Z" fill="#0000CC"/>
<path fill-rule="evenodd" clip-rule="evenodd" d="M36.7939 22.513L39.2497 18.3418L41.7642 22.5013L36.7822 22.513H36.7939ZM31.6474 31.8543L29.0977 36.0843L33.9152 36.0725L31.6474 31.8425V31.8543ZM29.1447 24.0405L33.9857 24.0758L31.6592 28.341L29.1447 24.0405ZM46.9107 31.913L49.3664 36.0843L44.4667 36.0255L46.9107 31.913ZM49.3194 24.0405L44.4784 24.0758L46.8049 28.341L49.3194 24.0405ZM35.8892 24.0405L32.5522 30.08L35.9362 35.9903L42.1402 36.1313L45.9002 30.08L42.4222 23.97L35.8892 24.0288V24.0405Z" fill="white"/>
</g>
</g>
<defs>
<clipPath id="clip0_3732_59278">
<rect width="80" height="60" fill="white"/>
</clipPath>
</defs>
</svg>
