<svg width="80" height="60" viewBox="0 0 80 60" fill="none" xmlns="http://www.w3.org/2000/svg">
<g clip-path="url(#clip0_3732_59337)">
<mask id="mask0_3732_59337" style="mask-type:luminance" maskUnits="userSpaceOnUse" x="0" y="0" width="80" height="60">
<path d="M0 0H80V60H0V0Z" fill="white"/>
</mask>
<g mask="url(#mask0_3732_59337)">
<path d="M0 0H80V60H0V0Z" fill="white"/>
<path fill-rule="evenodd" clip-rule="evenodd" d="M-10 0V4L33.8 30L-9.8 56V60H-3.4L40.2 34L83.6 60H90V56L46.6 30L90.2 4V0H83.6L40 26L-3.4 0H-9.8H-10Z" fill="#DF112D"/>
<path d="M45.2379 9.03948C46.4999 14.2515 45.8079 20.6855 39.9839 24.2695C34.2039 20.6855 33.4699 14.2515 34.7719 9.03948C36.1579 7.81948 42.3459 7.04348 45.2379 9.03948Z" fill="#E8112D" stroke="black" stroke-width="0.040722"/>
<path d="M40.0263 7.97975C41.8621 7.93708 43.6757 8.38738 45.2783 9.28375C45.5463 7.50744 46.2302 5.81959 47.2743 4.35775C46.2563 4.35775 45.8083 4.88575 45.8083 5.41575C45.5643 4.72375 44.5883 4.76375 44.2603 5.12975C45.3603 5.86375 44.5063 7.16775 43.5283 6.92175C43.0803 6.80175 42.8363 6.47375 42.7143 5.98575C42.8435 5.96041 42.9587 5.88786 43.0373 5.78224C43.116 5.67662 43.1525 5.54549 43.1398 5.41442C43.1271 5.28334 43.066 5.1617 42.9685 5.07319C42.871 4.98469 42.744 4.93566 42.6123 4.93566C42.4806 4.93566 42.3536 4.98469 42.2561 5.07319C42.1586 5.1617 42.0975 5.28334 42.0848 5.41442C42.072 5.54549 42.1086 5.67662 42.1872 5.78224C42.2659 5.88786 42.3811 5.96041 42.5103 5.98575C42.2243 6.39375 41.7363 6.63775 41.2483 6.51575C40.7183 6.39375 40.4743 5.90375 40.4743 5.49575C40.4743 4.39775 41.5343 4.23575 41.8583 4.43775C41.8583 3.70575 40.6783 3.09375 40.3103 3.70575C40.7183 2.93175 40.6363 1.95375 39.9843 1.34375C39.6868 1.64351 39.4945 2.03158 39.4361 2.44982C39.3777 2.86806 39.4563 3.29396 39.6603 3.66375C39.2923 3.05375 38.1523 3.66375 38.1523 4.39775C38.4383 4.19375 39.4963 4.35775 39.4963 5.45775C39.4963 5.86375 39.2523 6.35175 38.7643 6.47375C38.519 6.53113 38.262 6.51118 38.0285 6.41664C37.795 6.3221 37.5965 6.15761 37.4603 5.94575C37.5403 5.94575 37.6243 5.86375 37.7043 5.78175C37.7858 5.69475 37.8357 5.58278 37.8457 5.46396C37.8558 5.34513 37.8254 5.22639 37.7597 5.12693C37.6939 5.02747 37.5965 4.9531 37.4832 4.91584C37.3699 4.87858 37.2474 4.88061 37.1354 4.92161C37.0234 4.9626 36.9285 5.04016 36.8661 5.14175C36.8036 5.24333 36.7773 5.36301 36.7912 5.48144C36.8052 5.59986 36.8587 5.71011 36.9431 5.79437C37.0275 5.87862 37.1378 5.93196 37.2563 5.94575C37.1763 6.43375 36.8903 6.75975 36.4423 6.88175C36.2142 6.93848 35.9733 6.91115 35.7637 6.80478C35.5541 6.6984 35.3898 6.52009 35.3009 6.30249C35.212 6.08489 35.2045 5.84255 35.2796 5.61984C35.3548 5.39713 35.5077 5.20895 35.7103 5.08975C35.3843 4.68375 34.4063 4.68375 34.1623 5.37575C34.1623 4.84575 33.7143 4.31575 32.6963 4.31575C33.7549 5.77441 34.4526 7.46325 34.7323 9.24375C36.3569 8.36899 38.1818 7.93196 40.0263 7.97975Z" fill="#F9DD16" stroke="black" stroke-width="0.040722"/>
<path d="M44.4245 13.1114C44.2605 13.1114 44.2605 13.3154 44.2205 13.3154C44.5465 13.3154 44.7085 13.1934 44.7905 13.0314V13.2754C45.0345 13.1934 45.1165 12.9894 45.0345 12.8674L45.3205 12.9474C45.1565 12.8274 45.2805 12.5414 44.9945 12.3794C45.0745 12.3794 45.2385 12.4594 45.3205 12.5834C45.2805 12.2974 45.2385 12.1354 44.9945 11.9714H45.1985C45.145 11.9362 45.1017 11.8875 45.073 11.8303C45.0442 11.7731 45.0309 11.7093 45.0345 11.6454C45.0345 11.4834 44.9545 11.4834 44.7905 11.5254L44.0585 11.5654C43.6505 11.5654 43.2425 11.5654 42.9185 11.3194C43.4465 11.5654 44.1385 11.0754 44.1385 10.7094C44.1385 10.3014 43.5685 9.8954 42.5105 10.1394C41.4505 10.3834 40.1485 10.3014 40.1485 9.9354C40.1485 9.5694 41.0845 9.5274 41.5745 9.6094C42.0625 9.6894 42.3885 9.7314 43.2845 9.4054C43.0805 9.4874 42.3465 9.5274 41.7765 9.3654C41.2065 9.2034 39.8225 9.2034 39.8225 9.9354C39.8225 10.7094 41.2885 10.6274 42.5925 10.4234C43.3245 10.3434 43.7325 10.4234 43.7325 10.6274C43.7325 10.8714 43.0405 10.9534 42.5105 10.9134C41.9515 10.8373 41.3828 10.8781 40.8405 11.0334C40.3105 11.1974 39.9445 11.0334 39.3745 11.1574C39.0905 11.1574 38.3965 11.1574 38.0725 10.5874C37.8685 10.7494 37.2565 11.0354 37.1345 11.3614C37.0145 11.6054 37.1345 11.8894 37.2985 12.1754C37.5425 12.5014 37.1765 12.4594 36.8905 12.4594C36.5645 12.4594 36.0765 12.4594 35.8305 12.1354C35.5865 11.8894 35.3025 11.6874 35.0585 11.8494C34.9365 11.9714 35.0585 12.0934 35.1385 12.0534L35.4645 12.1334C35.3993 12.1038 35.3274 12.092 35.2561 12.099C35.1849 12.106 35.1167 12.1317 35.0585 12.1734C34.9365 12.2574 35.0585 12.4194 35.1785 12.3794C35.2625 12.3394 35.4645 12.2974 35.5865 12.3794C35.4665 12.3794 35.3025 12.3794 35.2625 12.4594C35.2225 12.5394 35.2625 12.6234 35.3825 12.6234C35.6285 12.6234 35.6685 12.7854 35.9125 12.7454C35.8558 12.7485 35.8007 12.7648 35.7514 12.7929C35.7021 12.821 35.66 12.8602 35.6285 12.9074C35.8725 12.7874 36.0765 13.0714 36.3605 12.9894C36.2805 13.0294 36.0765 13.1534 36.0765 13.2334C36.2385 13.0314 37.3785 13.3974 37.3785 12.9494L37.3385 13.2754C37.4605 13.1934 37.9085 13.1534 38.0725 12.8674C38.0725 12.9474 38.0725 13.0714 37.9905 13.1114C38.1105 13.1114 38.3165 13.0314 38.5185 12.7454C38.6005 12.6234 38.6005 12.5414 38.6005 12.4594C38.8045 12.4594 38.9265 12.4194 39.0905 12.2974C39.2525 12.1754 39.4145 12.4194 39.7005 12.2174C39.9445 12.0534 40.1885 12.2174 40.3525 12.1354C40.4725 12.0534 40.6785 12.1354 40.8405 12.0534C41.0025 11.9714 41.2485 12.0934 41.4925 11.8894C41.8985 12.0534 42.4285 12.2974 43.6105 12.0934C44.2605 11.9734 44.5065 12.2154 44.5065 12.5014C44.5065 12.7454 44.3425 12.7454 44.2605 12.7454C43.8545 12.7854 43.7325 12.6234 43.5685 12.6654C43.4885 12.7054 43.4065 12.8674 43.5685 12.9494C43.4485 12.9894 43.4485 13.1114 43.5285 13.1534C43.6085 13.1954 43.7325 13.1534 43.8545 13.1134C43.6905 13.1534 43.5685 13.2734 43.6505 13.3974C43.6905 13.4774 43.8125 13.5174 43.9345 13.3974C44.0585 13.2334 44.2605 13.1114 44.4245 13.1114ZM36.8505 9.8534C36.5245 9.7334 36.4425 9.7334 36.4825 10.0174C36.4825 10.1374 36.6065 10.3014 36.6865 10.3834C36.6865 10.2614 36.7265 9.9754 36.8505 9.8954V9.8534Z" fill="#F9DD16" stroke="black" stroke-width="0.040722"/>
<path d="M37.9482 9.89523C38.2742 9.73123 38.3962 9.73123 38.3162 10.0152C38.3162 10.1392 38.1942 10.3012 38.1122 10.3832C38.1122 10.2612 38.1122 9.97523 37.9482 9.89523Z" fill="#F9DD16" stroke="black" stroke-width="0.040722"/>
<path d="M37.4205 9.69141C38.0725 9.69141 38.1525 10.0174 38.1125 10.3834C38.1125 10.7914 37.9085 10.6274 37.7865 11.1974C37.7465 11.3614 37.5825 11.4014 37.3785 11.4014C37.2585 11.4014 37.0945 11.4014 37.0125 11.1574C36.8905 10.6274 36.6865 10.7494 36.6865 10.3434C36.6865 10.0174 36.7685 9.69141 37.4205 9.69141Z" fill="#F9DD16" stroke="black" stroke-width="0.040722"/>
<path d="M35.7502 11.1991C35.5862 11.1171 35.4642 11.1991 35.3842 11.1991C35.6282 11.2391 35.6282 11.5231 36.1162 11.6051C35.9962 11.6051 35.9542 11.6851 35.8322 11.6051C36.0342 11.7671 36.2382 11.9711 36.7282 11.9711C37.0122 11.9711 36.8082 12.0931 36.6462 12.0111C36.8082 12.2151 37.1762 12.0511 37.4202 12.4191C37.4202 12.1351 37.0122 11.7271 37.2162 11.4411C36.5242 11.4011 36.4822 11.0351 36.1162 10.7491C35.7902 10.5051 35.7502 10.2611 35.6282 9.8131C35.5882 9.6091 35.3422 9.4871 35.2202 9.5271C35.1002 9.5271 35.0162 9.6511 35.1402 9.7311C35.2202 9.8131 35.3842 9.8131 35.3842 10.0171C35.2622 9.8531 35.0582 9.8131 34.9762 9.8951C34.9362 9.9751 34.9762 10.0991 35.0562 10.0991C35.2622 10.0991 35.1402 10.3431 35.3422 10.5051C35.1402 10.3011 34.9762 10.2611 34.8542 10.3851C34.8142 10.4651 34.8542 10.5851 35.0162 10.5851C35.2202 10.5851 35.4242 11.0771 35.7502 11.1991ZM41.0442 13.0711C40.9642 13.0711 41.0042 13.2751 40.8402 13.2751C41.1662 13.2751 41.3702 13.1931 41.4922 13.0711L41.4122 13.2751C41.5722 13.1531 42.0222 13.1111 42.2242 13.1531C42.4262 13.1951 42.4682 13.1131 42.5502 12.9891C42.6302 12.8271 42.5502 12.7451 42.4302 12.6631C42.3062 12.5431 42.2662 12.3791 42.3062 12.1351C41.7362 11.3191 40.6782 11.7271 40.6782 12.0531C41.0442 12.5011 41.0842 12.4591 41.4102 12.5011C41.6962 12.5811 41.8982 12.5811 41.6962 12.7451C41.6142 12.8251 41.2882 12.7451 41.0842 12.7851C40.5562 12.7851 40.2702 12.4191 40.1482 12.6231C40.0262 12.7851 40.1482 12.8671 40.3922 12.8671C40.2302 12.8671 39.9842 12.8671 40.0262 13.0311C40.1062 13.3151 40.3522 12.9911 40.4742 13.0711C40.3942 13.0711 40.2302 13.1111 40.2302 13.1931C40.2302 13.2731 40.4322 13.3971 40.6362 13.1931C40.7548 13.1079 40.8984 13.065 41.0442 13.0711Z" fill="#F9DD16" stroke="black" stroke-width="0.040722"/>
<path d="M41.4927 11.8898C41.3166 11.8012 41.1163 11.7731 40.9227 11.8098M38.6427 11.8098C38.4787 12.1358 38.5607 12.2978 38.6027 12.4598M36.9727 10.1798C37.0527 10.2618 37.1347 10.0998 37.2987 10.2618M37.2987 10.2618C37.2587 10.2218 37.1767 10.3838 37.0527 10.2618M37.2987 10.2618V10.3838C37.2567 10.6698 37.1767 10.7918 37.3807 10.7918C37.6247 10.7918 37.5407 10.6698 37.5007 10.3838V10.2618M37.8687 10.2218C37.7467 10.2218 37.6647 10.0998 37.5007 10.2618M37.5007 10.2618C37.5407 10.2218 37.6247 10.3838 37.7467 10.2618" stroke="black" stroke-width="0.040722"/>
<path d="M37.4199 11.28C37.5819 11.28 37.6639 11.28 37.6639 11.036C37.6639 10.956 37.7859 10.914 37.7039 10.75C37.7859 10.914 37.4199 10.914 37.4199 10.832C37.4199 10.912 37.0119 10.912 37.0939 10.752C37.0539 10.912 37.1739 10.954 37.1339 11.036C37.1339 11.28 37.2139 11.28 37.4199 11.28Z" fill="#FF0016" stroke="black" stroke-width="0.040722"/>
<path d="M37.2166 10.7919L36.8086 10.6699L37.2166 10.7919ZM37.2166 10.7899H36.8086H37.2166ZM37.2166 10.8319L36.8506 10.9539L37.2166 10.8319ZM37.5426 10.7919L37.9486 10.6699L37.5426 10.7919ZM37.5426 10.7899H38.0306H37.5426ZM37.5426 10.8319L37.9486 10.9539L37.5426 10.8319Z" fill="black"/>
<path d="M37.2166 10.7919L36.8086 10.6699M37.2166 10.7899H36.8086M37.2166 10.8319L36.8506 10.9539M37.5426 10.7919L37.9486 10.6699M37.5426 10.7899H38.0306M37.5426 10.8319L37.9486 10.9539" stroke="black" stroke-width="0.040722"/>
<path d="M35.2206 9.52799C35.1006 9.36599 34.8146 9.52799 34.8146 9.69199C34.8946 9.56999 35.0586 9.73199 35.1806 9.69199C35.2206 9.69199 35.3026 9.61199 35.2206 9.52799ZM35.1006 9.89599C34.9766 9.73199 34.6506 9.89599 34.6506 10.058C34.7306 9.93799 34.8946 10.098 35.0166 10.058C35.0566 10.058 35.1406 9.93799 35.0986 9.89599H35.1006ZM35.0166 10.384C34.8546 10.222 34.5686 10.384 34.6106 10.588C34.6906 10.466 34.8546 10.588 34.9366 10.588C35.0166 10.548 35.0566 10.424 34.9766 10.384H35.0166ZM35.1406 11.89C34.9766 11.728 34.7326 11.93 34.7326 12.136C34.8126 11.972 35.0166 12.136 35.1406 12.054C35.1406 12.054 35.2206 11.932 35.1406 11.85V11.89ZM35.1406 12.176C34.9366 12.136 34.7326 12.42 34.8546 12.584C34.8546 12.38 35.0986 12.46 35.1806 12.38L35.1406 12.176ZM35.3846 12.46C35.1806 12.38 34.9766 12.624 35.0986 12.786C35.0986 12.666 35.3426 12.706 35.3846 12.624V12.42V12.46ZM40.1486 12.908C39.9446 12.868 39.7406 13.112 39.8626 13.316C39.8626 13.112 40.1086 13.194 40.1886 13.112L40.1486 12.908ZM40.3926 13.154C40.1886 13.114 40.0266 13.398 40.1486 13.56C40.1486 13.356 40.3926 13.398 40.4326 13.316C40.4726 13.276 40.4726 13.154 40.4326 13.154H40.3926ZM40.2306 12.584C40.0666 12.502 39.8226 12.746 39.8626 12.908C39.9446 12.746 40.1486 12.868 40.2306 12.788V12.622V12.584ZM43.6106 12.99C43.4466 12.95 43.2846 13.234 43.3646 13.398C43.3646 13.234 43.6106 13.276 43.6906 13.194C43.6906 13.114 43.6906 12.99 43.6106 12.99ZM43.6106 12.706C43.4466 12.584 43.2026 12.826 43.2846 12.99C43.3646 12.87 43.5686 12.95 43.6506 12.87V12.662L43.6106 12.706ZM43.7726 13.234C43.5686 13.234 43.4066 13.52 43.5286 13.642C43.5286 13.478 43.7726 13.52 43.8126 13.438C43.8526 13.358 43.8126 13.276 43.7726 13.234ZM37.4206 11.12C37.5406 11.12 37.5826 11.16 37.5826 11.404C37.5826 11.812 37.5826 12.056 37.4206 12.056C37.2986 12.056 37.2986 11.852 37.2986 11.526C37.2986 11.364 37.2986 11.242 37.2586 11.282C37.2586 11.16 37.3006 11.12 37.4206 11.12Z" fill="#0051BA"/>
<path d="M43.8116 17.3879C43.6916 17.3879 43.6916 17.5519 43.6496 17.5519C43.9336 17.5519 44.0576 17.4699 44.1376 17.3059V17.5099C44.3816 17.4699 44.4636 17.2659 44.3816 17.1439L44.6276 17.2239C44.5056 17.1439 44.6276 16.8579 44.3416 16.7359C44.4216 16.7359 44.5456 16.7759 44.6276 16.8999C44.6276 16.6559 44.5456 16.4919 44.3416 16.3699H44.5056C44.4562 16.3329 44.4183 16.2826 44.3964 16.2249C44.3744 16.1672 44.3693 16.1044 44.3816 16.0439C44.3816 15.9239 44.3016 15.9239 44.1376 15.9639H43.4876C43.1196 15.9639 42.7536 15.9639 42.4676 15.7599C42.9576 16.0039 43.5676 15.5559 43.5676 15.2299C43.5676 14.8219 43.0396 14.4979 42.1016 14.6999C41.1656 14.9439 39.9836 14.8639 39.9836 14.5379C39.9836 14.2119 40.7996 14.1299 41.2476 14.2119C41.6956 14.2919 41.9796 14.3339 42.7936 14.0499C42.6316 14.1299 41.9796 14.1699 41.4496 14.0099C40.9196 13.8499 39.6996 13.8459 39.6996 14.5379C39.6996 15.2299 41.0036 15.1479 42.1436 14.9439C42.8356 14.9039 43.2016 14.9439 43.2016 15.1479C43.2016 15.3519 42.5916 15.4339 42.1016 15.3919C41.5965 15.3282 41.0836 15.3704 40.5956 15.5159C40.1076 15.6779 39.7816 15.5159 39.2916 15.6359C39.0076 15.6359 38.3956 15.6359 38.0716 15.1079C37.9076 15.2699 37.3776 15.5159 37.2556 15.7999C37.1756 16.0439 37.2556 16.2879 37.4196 16.5339C37.6236 16.8179 37.2976 16.7779 37.0116 16.7779C36.7676 16.7779 36.3196 16.7779 36.0756 16.4919C35.8716 16.2879 35.6276 16.0859 35.3836 16.2479C35.3016 16.3699 35.3836 16.4519 35.4636 16.4099L35.7496 16.4919C35.6905 16.4656 35.6255 16.4555 35.5612 16.4625C35.4969 16.4696 35.4357 16.4935 35.3836 16.5319C35.3016 16.6139 35.3836 16.7779 35.5036 16.7359C35.5856 16.6959 35.7496 16.6559 35.8716 16.7359L35.5856 16.7759C35.5456 16.8179 35.5856 16.9399 35.7096 16.9399C35.9116 16.9399 35.9536 17.1039 36.1576 17.0619C36.1102 17.0631 36.0636 17.0747 36.0212 17.0957C35.9787 17.1168 35.9413 17.1469 35.9116 17.1839C36.1156 17.1039 36.3196 17.3479 36.5636 17.2659C36.4836 17.3059 36.3196 17.4299 36.3196 17.5099C36.4416 17.3059 37.4996 17.6319 37.4996 17.2259L37.4596 17.5099C37.5396 17.4699 37.9476 17.4299 38.1116 17.1439C38.1116 17.2239 38.1116 17.3479 38.0316 17.3879C38.1516 17.3879 38.3156 17.3079 38.5176 17.0619C38.5996 16.9419 38.5996 16.8599 38.5996 16.7799C38.7636 16.7799 38.8856 16.7799 39.0076 16.6579C39.1696 16.5359 39.3336 16.7779 39.5776 16.5759C39.7816 16.4119 39.9836 16.5759 40.1476 16.4959C40.2696 16.4119 40.4736 16.4959 40.5956 16.4119C40.7176 16.3279 41.0036 16.4519 41.2056 16.2919C41.5736 16.4119 42.0216 16.6579 43.0796 16.4519C43.6896 16.3719 43.8936 16.5759 43.8936 16.8599C43.8936 17.0639 43.7736 17.0639 43.6896 17.0639C43.2836 17.0639 43.2016 16.9439 43.0396 16.9839C42.9996 16.9839 42.9156 17.1459 43.0396 17.2279C42.9576 17.2679 42.9576 17.3899 43.0396 17.4319C43.1216 17.4739 43.2016 17.4319 43.3236 17.3919C43.1616 17.3919 43.0396 17.5119 43.1196 17.6339C43.1596 17.7159 43.2836 17.7559 43.4056 17.6339C43.4856 17.5139 43.6896 17.3879 43.8116 17.3879ZM37.0116 14.4559C36.7276 14.3359 36.6056 14.3359 36.6856 14.5779C36.6856 14.6999 36.8076 14.8639 36.8496 14.9439C36.8496 14.8239 36.8896 14.5379 37.0116 14.4979V14.4559Z" fill="#F9DD16" stroke="black" stroke-width="0.040722"/>
<path d="M38.0302 14.4983C38.2742 14.3343 38.4382 14.3343 38.3162 14.5783C38.3162 14.7003 38.2342 14.8643 38.1522 14.9443C38.1522 14.8243 38.1522 14.5383 37.9902 14.4983H38.0302Z" fill="#F9DD16" stroke="black" stroke-width="0.040722"/>
<path d="M37.5396 14.2939C38.1116 14.2939 38.1936 14.5779 38.1516 14.9439C38.1516 15.3119 37.9476 15.1479 37.8676 15.6779C37.8276 15.7999 37.6636 15.8399 37.4596 15.8399C37.3796 15.8399 37.2156 15.8399 37.1756 15.6379C37.0516 15.1479 36.8496 15.2299 36.8496 14.9039C36.8496 14.5779 36.9276 14.2939 37.5396 14.2939Z" fill="#F9DD16" stroke="black" stroke-width="0.040722"/>
<path d="M35.994 15.6778C35.872 15.5978 35.75 15.6778 35.71 15.6778C35.912 15.6778 35.912 15.9638 36.36 16.0438H36.076C36.28 16.1658 36.482 16.3698 36.89 16.3698C37.176 16.3698 36.97 16.4498 36.81 16.3698C36.97 16.5738 37.298 16.4098 37.542 16.7778C37.542 16.4918 37.134 16.1258 37.338 15.8818C36.728 15.8418 36.686 15.4738 36.36 15.2698C36.076 15.0258 36.034 14.8218 35.912 14.4158C35.872 14.2118 35.668 14.1298 35.506 14.1718C35.424 14.1718 35.342 14.2518 35.506 14.3338C35.506 14.4138 35.71 14.4138 35.71 14.5778C35.586 14.4578 35.384 14.4158 35.302 14.4978C35.302 14.5778 35.302 14.6598 35.382 14.6598C35.586 14.6598 35.464 14.9038 35.668 15.0678C35.464 14.8638 35.342 14.8218 35.22 14.9438C35.18 14.9838 35.22 15.1078 35.342 15.1078C35.546 15.1078 35.75 15.5158 36.034 15.6778H35.994ZM40.8 17.3058C40.718 17.3058 40.76 17.5098 40.596 17.5098C40.88 17.5098 41.084 17.4698 41.206 17.3478L41.126 17.5098C41.246 17.4298 41.654 17.3898 41.858 17.4298C42.062 17.4698 42.062 17.3898 42.144 17.2658C42.224 17.1438 42.144 17.0618 42.022 16.9818C41.94 16.8578 41.898 16.7358 41.94 16.4918C41.41 15.7598 40.474 16.1258 40.474 16.4118C40.8 16.8178 40.84 16.8178 41.126 16.8178C41.37 16.8978 41.532 16.8978 41.37 17.0618C41.288 17.1438 41.004 17.0618 40.84 17.0618C40.352 17.0618 40.108 16.7778 39.984 16.9418C39.864 17.1018 39.984 17.1438 40.188 17.1438C40.068 17.1438 39.822 17.1438 39.862 17.3058C39.944 17.5518 40.148 17.3058 40.27 17.3058C40.19 17.3058 40.066 17.3878 40.066 17.4698C40.066 17.5098 40.23 17.6318 40.432 17.4698C40.5367 17.3874 40.6669 17.3442 40.8 17.3478V17.3058Z" fill="#F9DD16" stroke="black" stroke-width="0.040722"/>
<path d="M41.2068 16.2878C41.0448 16.2025 40.8588 16.1743 40.6788 16.2078M38.6428 16.2078C38.4788 16.4918 38.5608 16.6138 38.6028 16.7778M37.1348 14.7418C37.1748 14.8218 37.2568 14.6598 37.4208 14.8218M37.4208 14.8218C37.3808 14.7818 37.2988 14.9438 37.1768 14.8218M37.4208 14.8218V14.9038C37.3788 15.1898 37.3008 15.3118 37.5028 15.3118C37.7048 15.3118 37.6228 15.1898 37.5828 14.9438V14.7818M37.9088 14.7818C37.8288 14.7818 37.7468 14.6598 37.5828 14.7818M37.5828 14.7818C37.6228 14.7818 37.7048 14.9438 37.8268 14.7818" stroke="black" stroke-width="0.040722"/>
<path d="M37.54 15.7195C37.664 15.7195 37.746 15.7195 37.746 15.5155C37.746 15.4335 37.866 15.3915 37.746 15.2695C37.866 15.3915 37.542 15.3915 37.542 15.3095C37.542 15.3915 37.134 15.3915 37.216 15.2695C37.216 15.3915 37.296 15.4335 37.256 15.5155C37.256 15.7175 37.338 15.7175 37.542 15.7175L37.54 15.7195Z" fill="#FF0016" stroke="black" stroke-width="0.040722"/>
<path d="M37.3387 15.3115L36.9727 15.1895L37.3387 15.3115ZM37.3387 15.3095H36.9727H37.3387ZM37.3387 15.3095L37.0127 15.4335L37.3387 15.3095ZM37.6247 15.3115L38.0307 15.1895L37.6247 15.3115ZM37.6247 15.3095H38.0727H37.6247ZM37.6647 15.3095L37.9907 15.4335L37.6647 15.3095Z" fill="black"/>
<path d="M37.3387 15.3115L36.9727 15.1895M36.9727 15.3095H37.3387L37.0127 15.4335M37.6247 15.3115L38.0307 15.1895M37.6247 15.3095H38.0727M37.6647 15.3095L37.9907 15.4335" stroke="black" stroke-width="0.040722"/>
<path d="M35.5465 14.1716C35.4245 14.0076 35.1405 14.1716 35.1405 14.2916C35.2605 14.2116 35.3845 14.3336 35.5065 14.2916C35.5065 14.2916 35.6265 14.2116 35.5065 14.1716H35.5465ZM35.4245 14.4976C35.3445 14.3336 35.0165 14.4976 35.0165 14.6176C35.0985 14.5376 35.2625 14.6596 35.3425 14.6176C35.3825 14.6176 35.4645 14.5376 35.4245 14.4976ZM35.3445 14.9036C35.2205 14.7816 34.9365 14.9036 34.9765 15.1076C35.0565 14.9856 35.2205 15.1076 35.3025 15.1076C35.3425 15.1076 35.3825 14.9436 35.3025 14.9436L35.3445 14.9036ZM35.4645 16.2876C35.3445 16.1256 35.0985 16.2876 35.0985 16.4916C35.1785 16.3716 35.3425 16.4916 35.5065 16.4116V16.2876H35.4645ZM35.4645 16.5336C35.3025 16.5336 35.0985 16.7776 35.2205 16.9396C35.2205 16.7356 35.4245 16.7776 35.5065 16.7356V16.5336H35.4645ZM35.7105 16.7776C35.5065 16.7376 35.3025 16.9396 35.4245 17.1036C35.4245 16.9816 35.6685 17.0216 35.7105 16.9396V16.7796V16.7776ZM39.9845 17.1836C39.7825 17.1836 39.5785 17.3876 39.7405 17.5916C39.7405 17.3876 39.9445 17.4696 40.0265 17.3876L39.9845 17.1836ZM40.1885 17.4296C40.0265 17.3896 39.8625 17.6316 39.9845 17.7956C39.9845 17.5916 40.1885 17.6316 40.2305 17.5516V17.4296H40.1885ZM40.0685 16.8996C39.9045 16.8196 39.6605 17.0616 39.7405 17.1836C39.7805 17.0636 39.9845 17.1836 40.0665 17.1036V16.9396L40.0685 16.8996ZM43.0805 17.3056C42.9585 17.2256 42.7945 17.5096 42.8765 17.6316C42.8765 17.5116 43.0805 17.5116 43.1625 17.4696C43.1625 17.3896 43.1625 17.2656 43.0805 17.2656V17.3056ZM43.0805 17.0216C42.9585 16.8996 42.7145 17.1436 42.7945 17.2656C42.8765 17.1436 43.0405 17.2656 43.1205 17.1436V16.9816L43.0805 17.0216ZM43.2425 17.5096C43.0405 17.5096 42.9165 17.7536 43.0405 17.8756C43.0405 17.7136 43.2425 17.7556 43.2845 17.6736L43.2445 17.5096H43.2425ZM37.5425 15.5956C37.6225 15.5956 37.6625 15.5956 37.6625 15.8396C37.6625 16.2076 37.6625 16.4096 37.5425 16.4096C37.4225 16.4096 37.4205 16.2476 37.4205 15.9636C37.4205 15.7996 37.4205 15.6776 37.3805 15.7176C37.3805 15.6376 37.3805 15.5976 37.5405 15.5976L37.5425 15.5956Z" fill="#0051BA"/>
<path d="M43.7597 20.8597C43.6477 20.8597 43.6477 21.0097 43.6197 21.0097C43.8437 21.0097 43.9557 20.9197 44.0117 20.7997V20.9797C44.1797 20.9197 44.2357 20.7697 44.1797 20.6797L44.3757 20.7397C44.2637 20.6497 44.3477 20.4397 44.1517 20.3197C44.2077 20.3197 44.3197 20.3797 44.3757 20.4697C44.3477 20.2597 44.3197 20.1397 44.1517 20.0197H44.2917C44.2551 19.9937 44.2256 19.9578 44.2059 19.9157C44.1863 19.8736 44.1772 19.8267 44.1797 19.7797C44.1797 19.6597 44.1237 19.6597 44.0117 19.6897L43.5077 19.7197C43.2277 19.7197 42.9477 19.7197 42.7237 19.5397C43.0877 19.7197 43.5637 19.3597 43.5637 19.0897C43.5637 18.7897 43.1717 18.4897 42.4437 18.6697C41.7157 18.8497 40.8197 18.7897 40.8197 18.5197C40.8197 18.2497 41.4637 18.2197 41.7997 18.2797C42.1357 18.3397 42.3597 18.3697 42.9757 18.1297C42.8357 18.1897 42.3317 18.2197 41.9397 18.0997C41.5477 17.9797 40.5957 17.9797 40.5957 18.5197C40.5957 19.0897 41.6037 19.0297 42.4997 18.8797C43.0037 18.8197 43.2837 18.8797 43.2837 19.0297C43.2837 19.2097 42.8077 19.2697 42.4437 19.2397C42.0594 19.1842 41.6684 19.2149 41.2957 19.3297C40.9317 19.4497 40.6797 19.3297 40.2877 19.4197C40.0917 19.4197 39.6157 19.4197 39.3917 18.9997C39.2517 19.1197 38.8317 19.3297 38.7477 19.5697C38.6637 19.7497 38.7477 19.9597 38.8597 20.1697C39.0277 20.4097 38.7757 20.3797 38.5797 20.3797C38.3557 20.3797 38.0197 20.3797 37.8517 20.1397C37.6837 19.9597 37.4877 19.8097 37.3197 19.9297C37.2357 20.0197 37.3197 20.1097 37.3757 20.0797L37.5997 20.1397C37.5547 20.1178 37.5051 20.109 37.4559 20.1143C37.4068 20.1196 37.3598 20.1387 37.3197 20.1697C37.2357 20.2297 37.3197 20.3497 37.4037 20.3197C37.4597 20.2897 37.5997 20.2597 37.6837 20.3197C37.5997 20.3197 37.4877 20.3197 37.4597 20.3797C37.4317 20.4397 37.4597 20.4997 37.5437 20.4997C37.7117 20.4997 37.7397 20.6197 37.9077 20.5897C37.8686 20.592 37.8305 20.6041 37.7965 20.6249C37.7624 20.6457 37.7334 20.6748 37.7117 20.7097C37.8797 20.6197 38.0197 20.8297 38.2157 20.7697C38.1597 20.7997 38.0197 20.8897 38.0197 20.9497C38.1317 20.7997 38.9157 21.0697 38.9157 20.7397L38.8877 20.9797C38.9717 20.9197 39.2797 20.8897 39.3917 20.6797C39.3917 20.7397 39.3917 20.8297 39.3357 20.8597C39.4197 20.8597 39.5597 20.7997 39.6997 20.5897C39.7557 20.4997 39.7557 20.4397 39.7557 20.3797C39.8957 20.3797 39.9797 20.3497 40.0917 20.2597C40.2037 20.1697 40.3157 20.3497 40.5117 20.1997C40.6797 20.0797 40.8477 20.1997 40.9597 20.1397C41.0437 20.0797 41.1837 20.1397 41.2957 20.0797C41.4077 20.0197 41.5757 20.1097 41.7437 19.9597C42.0237 20.0797 42.3877 20.2597 43.1997 20.1097C43.6477 20.0197 43.8157 20.1997 43.8157 20.4097C43.8157 20.5897 43.7037 20.5897 43.6477 20.5897C43.3677 20.6197 43.2837 20.4997 43.1717 20.5297C43.1157 20.5597 43.0597 20.6797 43.1717 20.7397C43.0877 20.7697 43.0877 20.8597 43.1437 20.8897C43.1997 20.9197 43.2837 20.8897 43.3677 20.8597C43.2557 20.8897 43.1717 20.9797 43.2277 21.0697C43.2557 21.1297 43.3397 21.1597 43.4237 21.0697C43.5077 20.9497 43.6477 20.8597 43.7597 20.8597ZM38.5517 18.4597C38.3277 18.3697 38.2717 18.3697 38.2997 18.5797C38.2997 18.6697 38.3837 18.7897 38.4397 18.8497C38.4397 18.7597 38.4677 18.5497 38.5517 18.4897V18.4597Z" fill="#F9DD16" stroke="black" stroke-width="0.0289828"/>
<path d="M39.3076 18.4893C39.5316 18.3693 39.6156 18.3693 39.5596 18.5793C39.5596 18.6693 39.4756 18.7893 39.4196 18.8493C39.4196 18.7593 39.4196 18.5493 39.3076 18.4893Z" fill="#F9DD16" stroke="black" stroke-width="0.0289828"/>
<path d="M38.9444 18.3398C39.3924 18.3398 39.4484 18.5798 39.4204 18.8498C39.4204 19.1498 39.2804 19.0298 39.1964 19.4498C39.1684 19.5698 39.0564 19.5998 38.9164 19.5998C38.8324 19.5998 38.7204 19.5998 38.6644 19.4198C38.5804 19.0298 38.4404 19.1198 38.4404 18.8198C38.4404 18.5798 38.4964 18.3398 38.9444 18.3398Z" fill="#F9DD16" stroke="black" stroke-width="0.0289828"/>
<path d="M37.796 19.4496C37.684 19.3896 37.6 19.4496 37.544 19.4496C37.712 19.4796 37.712 19.6896 38.048 19.7496C37.964 19.7496 37.936 19.8096 37.852 19.7496C37.992 19.8696 38.132 20.0196 38.468 20.0196C38.664 20.0196 38.524 20.1096 38.412 20.0496C38.524 20.1996 38.776 20.0796 38.944 20.3496C38.944 20.1396 38.664 19.8396 38.804 19.6296C38.328 19.5996 38.3 19.3296 38.048 19.1196C37.824 18.9396 37.796 18.7596 37.712 18.4296C37.684 18.2796 37.516 18.1896 37.432 18.2196C37.348 18.2196 37.292 18.3096 37.376 18.3696C37.432 18.4296 37.544 18.4296 37.544 18.5796C37.46 18.4596 37.32 18.4296 37.264 18.4896C37.236 18.5496 37.264 18.6396 37.32 18.6396C37.46 18.6396 37.376 18.8196 37.516 18.9396C37.376 18.7896 37.264 18.7596 37.18 18.8496C37.152 18.9096 37.18 18.9996 37.292 18.9996C37.432 18.9996 37.572 19.3596 37.796 19.4496ZM41.436 20.8296C41.38 20.8296 41.408 20.9796 41.296 20.9796C41.52 20.9796 41.66 20.9196 41.744 20.8296L41.688 20.9796C41.8 20.8896 42.108 20.8596 42.248 20.8896C42.388 20.9196 42.416 20.8596 42.472 20.7696C42.528 20.6496 42.472 20.5896 42.388 20.5296C42.304 20.4396 42.276 20.3196 42.304 20.1396C41.912 19.5396 41.184 19.8396 41.184 20.0796C41.436 20.4096 41.464 20.3796 41.688 20.4096C41.884 20.4696 42.024 20.4696 41.884 20.5896C41.828 20.6496 41.604 20.5896 41.464 20.6196C41.1 20.6196 40.904 20.3496 40.82 20.4996C40.736 20.6196 40.82 20.6796 40.988 20.6796C40.876 20.6796 40.708 20.6796 40.736 20.7996C40.792 21.0096 40.96 20.7696 41.044 20.8296C40.988 20.8296 40.876 20.8596 40.876 20.9196C40.876 20.9796 41.016 21.0696 41.156 20.9196C41.2373 20.8569 41.3359 20.8252 41.436 20.8296Z" fill="#F9DD16" stroke="black" stroke-width="0.0289828"/>
<path d="M41.7447 19.9597C41.6327 19.8997 41.4927 19.8697 41.3527 19.8997M39.7847 19.8997C39.6727 20.1397 39.7287 20.2597 39.7567 20.3797M38.6367 18.6997C38.6927 18.7597 38.7487 18.6397 38.8607 18.7597M38.8607 18.7597C38.8327 18.7297 38.7767 18.8497 38.6927 18.7597M38.8607 18.7597V18.8497C38.8327 19.0597 38.7767 19.1497 38.9167 19.1497C39.0847 19.1497 39.0287 19.0597 39.0007 18.8497V18.7597M39.2527 18.7297C39.1687 18.7297 39.1127 18.6397 39.0007 18.7597M39.0007 18.7597C39.0287 18.7297 39.0847 18.8497 39.1687 18.7597" stroke="black" stroke-width="0.0289828"/>
<path d="M38.9443 19.5101C39.0563 19.5101 39.1123 19.5101 39.1123 19.3301C39.1123 19.2701 39.1963 19.2401 39.1403 19.1201C39.1963 19.2401 38.9443 19.2401 38.9443 19.1801C38.9443 19.2401 38.6643 19.2401 38.7203 19.1201C38.6923 19.2401 38.7763 19.2701 38.7483 19.3301C38.7483 19.5101 38.8043 19.5101 38.9443 19.5101Z" fill="#FF0016" stroke="black" stroke-width="0.0289828"/>
<path d="M38.8044 19.1496L38.5244 19.0596L38.8044 19.1496ZM38.8044 19.1496H38.5244H38.8044ZM38.8044 19.1796L38.5524 19.2696L38.8044 19.1796ZM39.0284 19.1496L39.3084 19.0596L39.0284 19.1496ZM39.0284 19.1496H39.3644H39.0284ZM39.0284 19.1796L39.3084 19.2696L39.0284 19.1796Z" fill="black"/>
<path d="M38.5244 19.0596L38.8044 19.1496H38.5244M38.8044 19.1796L38.5524 19.2696M39.3084 19.0596L39.0284 19.1496H39.3644M39.0284 19.1796L39.3084 19.2696" stroke="black" stroke-width="0.0289828"/>
<path d="M36.6559 18.3455C36.5759 18.2235 36.3839 18.3455 36.3839 18.4655C36.4379 18.3755 36.5479 18.4975 36.6299 18.4655C36.6559 18.4655 36.7099 18.4055 36.6559 18.3455ZM36.5759 18.6195C36.4939 18.4975 36.2759 18.6195 36.2759 18.7415C36.3299 18.6495 36.4379 18.7715 36.5199 18.7415C36.5479 18.7415 36.6019 18.6495 36.5739 18.6215L36.5759 18.6195ZM36.5199 18.9855C36.4119 18.8655 36.2199 18.9855 36.2479 19.1395C36.3019 19.0475 36.4119 19.1395 36.4659 19.1395C36.5199 19.1075 36.5459 19.0175 36.4939 18.9855H36.5199ZM36.6019 20.1155C36.4939 19.9955 36.3299 20.1475 36.3299 20.2995C36.3839 20.1775 36.5199 20.2995 36.6019 20.2395C36.6019 20.2395 36.6559 20.1475 36.6019 20.0855V20.1155ZM36.6019 20.3295C36.4659 20.2995 36.3299 20.5135 36.4119 20.6355C36.4119 20.4835 36.5739 20.5435 36.6299 20.4835L36.5999 20.3295H36.6019ZM36.7659 20.5435C36.6299 20.4835 36.4939 20.6655 36.5739 20.7875C36.5739 20.6955 36.7379 20.7275 36.7659 20.6675V20.5135V20.5435ZM39.9579 20.8795C39.8219 20.8495 39.6859 21.0315 39.7679 21.1855C39.7679 21.0315 39.9299 21.0935 39.9859 21.0315L39.9579 20.8795ZM40.1219 21.0635C39.9859 21.0315 39.8759 21.2455 39.9579 21.3675C39.9579 21.2155 40.1219 21.2475 40.1499 21.1855C40.1759 21.1555 40.1759 21.0635 40.1499 21.0635H40.1219ZM40.0119 20.6355C39.9039 20.5755 39.7399 20.7575 39.7679 20.8795C39.8219 20.7575 39.9579 20.8495 40.0119 20.7875V20.6675V20.6355ZM42.2779 20.9415C42.1679 20.9095 42.0579 21.1235 42.1139 21.2455C42.1139 21.1255 42.2779 21.1555 42.3319 21.0935C42.3319 21.0335 42.3319 20.9415 42.2779 20.9415ZM42.2779 20.7275C42.1679 20.6355 42.0039 20.8195 42.0579 20.9415C42.1139 20.8495 42.2499 20.9095 42.3039 20.8495V20.6955L42.2779 20.7275ZM42.3859 21.1235C42.2499 21.1235 42.1399 21.3375 42.2219 21.4295C42.2219 21.3075 42.3859 21.3375 42.4139 21.2775C42.4399 21.2175 42.4139 21.1555 42.3859 21.1235ZM38.1299 19.5355C38.2119 19.5355 38.2399 19.5655 38.2399 19.7495C38.2399 20.0555 38.2399 20.2375 38.1299 20.2375C38.0499 20.2375 38.0499 20.0855 38.0499 19.8415C38.0499 19.7195 38.0499 19.6275 38.0199 19.6575C38.0199 19.5655 38.0479 19.5375 38.1299 19.5375V19.5355Z" fill="#0051BA"/>
</g>
</g>
<defs>
<clipPath id="clip0_3732_59337">
<rect width="80" height="60" fill="white"/>
</clipPath>
</defs>
</svg>
