<svg width="80" height="60" viewBox="0 0 80 60" fill="none" xmlns="http://www.w3.org/2000/svg">
<g clip-path="url(#clip0_3732_59368)">
<path fill-rule="evenodd" clip-rule="evenodd" d="M0 0H80V60H0V0Z" fill="#00ABC2"/>
<path fill-rule="evenodd" clip-rule="evenodd" d="M7.52559 58.3753C7.93809 58.7753 7.80059 59.4378 8.93809 59.3503C10.6631 59.3503 10.7131 58.3003 10.7131 57.5628C10.7131 56.8253 8.12559 55.8003 8.00059 54.7128C7.87559 53.6253 8.60059 53.3378 9.20059 53.3378C9.78809 53.3378 10.2006 53.6753 10.2006 53.9753C10.2006 54.2753 9.92559 54.3753 9.50059 54.3753C9.07559 54.3753 9.68809 54.1628 9.32559 54.0003C8.96309 53.8378 8.72559 54.2503 8.72559 54.5003C8.72559 54.7753 9.62559 54.8503 10.2256 54.6628C10.3506 55.2503 10.4006 55.2878 9.56309 56.2878C10.1631 55.9003 10.2131 55.8128 10.8756 56.0378C10.2131 55.4628 10.7131 54.3128 10.7256 54.0253C10.7381 53.7378 10.6006 53.3878 10.3506 53.2128C9.86309 52.7753 8.82559 52.7503 8.20059 53.0378C7.28809 53.4378 7.23809 54.6378 7.47559 55.0378L10.0006 57.5878C10.1756 57.8878 10.2506 58.7378 9.17559 58.7753C8.05059 58.8628 7.65059 57.3253 7.45059 56.8128C7.18809 57.3753 6.88809 58.9128 5.75059 58.8253C4.67559 58.7878 4.47559 57.9503 4.65059 57.6378L7.23809 55.0128C7.48809 54.6128 7.43809 53.4128 6.52559 53.0128C5.90059 52.7253 4.86309 52.7628 4.38809 53.1878C4.11309 53.3628 3.96309 53.7003 3.98809 54.0003C4.01309 54.3003 4.50059 55.4378 3.85059 56.0003C4.50059 55.7878 4.56309 55.8753 5.16309 56.2503C4.32559 55.2628 4.38809 55.2253 4.50059 54.6253C5.10059 54.8253 6.00059 54.7503 6.00059 54.4878C6.00059 54.2253 5.75059 53.7878 5.38809 53.9628C5.03809 54.1378 5.63809 54.3503 5.21309 54.3503C4.80059 54.3503 4.50059 54.2628 4.50059 53.9753C4.50059 53.6878 4.91309 53.3128 5.51309 53.3128C6.11309 53.3128 6.82559 53.6128 6.70059 54.7003C6.57559 55.7878 3.95059 56.9628 3.95059 57.7003C3.95059 58.4503 4.12559 59.3378 5.85059 59.3378C6.97559 59.4253 7.11309 58.7628 7.52559 58.3628V58.3753Z" fill="#FFEC2D"/>
<path fill-rule="evenodd" clip-rule="evenodd" d="M7.38789 42.9126C7.80039 42.5126 8.13789 41.3376 9.26289 41.4126C10.9879 41.4126 11.6379 42.3751 11.6379 43.1126C11.6379 43.8501 8.13789 49.8626 8.01289 50.9501C7.88789 52.0376 8.61289 52.3376 9.20039 52.3376C9.80039 52.3376 10.2129 52.0001 10.2129 51.6876C10.2129 51.3751 9.91289 51.3126 9.50039 51.3126C9.08789 51.3126 9.67539 51.5251 9.32539 51.6876C8.97539 51.8501 8.72539 51.4376 8.72539 51.1751C8.72539 50.9126 9.62539 50.8251 10.2254 51.0251C10.3379 50.4376 10.3879 50.4001 9.56289 49.4001C10.1629 49.7751 10.2129 49.8751 10.8754 49.6501C10.2129 50.2251 10.7004 51.3626 10.7254 51.6501C10.7504 51.9376 10.6004 52.3001 10.3379 52.4751C9.86289 52.9126 8.81289 52.9251 8.18789 52.6501C7.28789 52.2376 7.23789 51.0501 7.47539 50.6501L10.8754 43.3251C11.0629 43.0251 10.5879 42.0251 9.51289 41.9876C8.38789 41.9001 8.00039 43.0876 7.80039 43.6001L9.33789 43.4751C9.33789 43.4751 9.40039 43.7251 9.33789 43.8751C8.82204 43.9128 8.30872 43.9796 7.80039 44.0751L7.73789 44.8501H8.48789L8.43789 45.2001C8.43789 45.2001 7.80039 45.1501 7.73789 45.2001C7.67539 45.2376 7.61289 45.9751 7.61289 45.9751C7.61289 45.9751 7.48789 46.0251 7.36289 46.0251C7.23789 46.0251 7.11289 45.9751 7.11289 45.9751C7.11289 45.9751 7.06289 45.2376 7.00039 45.2001C6.93789 45.1501 6.30039 45.2001 6.30039 45.2001L6.23789 44.8501H7.00039L6.93789 44.0751C6.93789 44.0751 6.18789 43.9251 5.40039 43.8751C5.35039 43.7251 5.40039 43.4876 5.40039 43.4876L6.93789 43.6001C6.73789 43.0876 6.35039 41.9001 5.22539 41.9751C4.15039 42.0251 3.67539 43.0251 3.85039 43.3251L7.25039 50.6501C7.48789 51.0376 7.43789 52.2376 6.53789 52.6501C5.91289 52.9251 4.86289 52.9001 4.38789 52.4751C4.12539 52.3001 3.97539 51.9501 4.00039 51.6626C4.02539 51.3751 4.50039 50.2126 3.85039 49.6626C4.51289 49.8751 4.57539 49.7876 5.16289 49.4001C4.33789 50.4001 4.38789 50.4376 4.51289 51.0251C5.10039 50.8251 6.00039 50.9001 6.00039 51.1751C6.00039 51.4251 5.75039 51.8626 5.40039 51.6876C5.05039 51.5126 5.65039 51.3126 5.22539 51.3126C4.81289 51.3126 4.51289 51.3876 4.51289 51.6876C4.51289 51.9876 4.92539 52.3376 5.51289 52.3376C6.10039 52.3376 6.82539 52.0376 6.71289 50.9626C6.58789 49.8751 3.08789 43.8376 3.08789 43.1126C3.08789 42.3626 3.73789 41.4251 5.46289 41.4251C6.58789 41.3376 7.00039 42.5126 7.40039 42.9126H7.38789Z" fill="#FFEC2D"/>
<path fill-rule="evenodd" clip-rule="evenodd" d="M7.38789 39.9257C7.80039 40.3257 8.13789 41.5007 9.26289 41.4257C10.9879 41.4257 11.6379 40.4632 11.6379 39.7257C11.6379 38.9882 8.13789 32.9757 8.01289 31.8882C7.88789 30.8007 8.61289 30.5007 9.20039 30.5007C9.80039 30.5007 10.2129 30.8382 10.2129 31.1507C10.2129 31.4632 9.91289 31.5257 9.50039 31.5257C9.08789 31.5257 9.67539 31.3257 9.32539 31.1507C8.97539 30.9757 8.72539 31.4007 8.72539 31.6632C8.72539 31.9257 9.62539 32.0132 10.2254 31.8132C10.3379 32.4007 10.3879 32.4382 9.56289 33.4382C10.1629 33.0632 10.2129 32.9632 10.8754 33.1882C10.2129 32.6132 10.7004 31.4757 10.7254 31.1882C10.7504 30.9007 10.6004 30.5382 10.3379 30.3632C9.86289 29.9382 8.81289 29.9132 8.18789 30.1882C7.28789 30.6007 7.23789 31.7882 7.47539 32.1882L10.8754 39.5007C11.0629 39.8007 10.5879 40.8007 9.51289 40.8382C8.38789 40.9257 8.00039 39.7382 7.80039 39.2257L9.33789 39.3507C9.33789 39.3507 9.40039 39.1007 9.33789 38.9507C8.82204 38.913 8.30872 38.8462 7.80039 38.7507L7.73789 37.9757H8.48789L8.43789 37.6257C8.43789 37.6257 7.80039 37.6757 7.73789 37.6257C7.67539 37.5882 7.61289 36.8507 7.61289 36.8507C7.61289 36.8507 7.48789 36.8007 7.36289 36.8007C7.23789 36.8007 7.11289 36.8507 7.11289 36.8507C7.11289 36.8507 7.06289 37.5882 7.00039 37.6257C6.93789 37.6757 6.30039 37.6257 6.30039 37.6257L6.23789 37.9757H7.00039L6.93789 38.7507C6.93789 38.7507 6.18789 38.9007 5.40039 38.9507C5.35039 39.1007 5.40039 39.3382 5.40039 39.3382L6.93789 39.2257C6.73789 39.7382 6.35039 40.9257 5.22539 40.8507C4.15039 40.8007 3.67539 39.8007 3.85039 39.5007L7.25039 32.1882C7.48789 31.7882 7.43789 30.6007 6.53789 30.1882C5.91289 29.9132 4.86289 29.9382 4.38789 30.3632C4.12539 30.5382 3.97539 30.8882 4.00039 31.1757C4.02539 31.4632 4.50039 32.6132 3.85039 33.1757C4.51289 32.9632 4.57539 33.0507 5.16289 33.4382C4.33789 32.4382 4.38789 32.4007 4.51289 31.8132C5.10039 32.0132 6.00039 31.9382 6.00039 31.6632C6.00039 31.4132 5.75039 30.9757 5.40039 31.1507C5.05039 31.3257 5.65039 31.5257 5.22539 31.5257C4.81289 31.5257 4.51289 31.4507 4.51289 31.1507C4.51289 30.8507 4.92539 30.5007 5.51289 30.5007C6.10039 30.5007 6.82539 30.8007 6.71289 31.8757C6.58789 32.9632 3.08789 39.0007 3.08789 39.7257C3.08789 40.4757 3.73789 41.4132 5.46289 41.4132C6.58789 41.5007 7.00039 40.3257 7.40039 39.9257H7.38789Z" fill="#FFEC2D"/>
<path fill-rule="evenodd" clip-rule="evenodd" d="M7.38789 20.0757C7.80039 19.6757 8.13789 18.5007 9.26289 18.5757C10.9879 18.5757 11.6379 19.5382 11.6379 20.2757C11.6379 21.0132 8.13789 27.0257 8.01289 28.1257C7.88789 29.2007 8.61289 29.5007 9.20039 29.5007C9.80039 29.5007 10.2129 29.1632 10.2129 28.8632C10.2129 28.5632 9.91289 28.4632 9.50039 28.4632C9.08789 28.4632 9.67539 28.6882 9.32539 28.8632C8.97539 29.0382 8.72539 28.6007 8.72539 28.3382C8.72539 28.0882 9.62539 27.9882 10.2254 28.1882C10.3379 27.6007 10.3879 27.5632 9.56289 26.5632C10.1629 26.9507 10.2129 27.0382 10.8754 26.8132C10.2129 27.3882 10.7004 28.5382 10.7254 28.8132C10.7504 29.0882 10.6004 29.4632 10.3379 29.6382C9.86289 30.0757 8.81289 30.0882 8.18789 29.8132C7.28789 29.4007 7.23789 28.2132 7.47539 27.8132L10.8754 20.5007C11.0629 20.2007 10.5879 19.2007 9.51289 19.1632C8.38789 19.0757 8.00039 20.2632 7.80039 20.7757L9.33789 20.6507C9.33789 20.6507 9.40039 20.9007 9.33789 21.0507C8.53789 21.1007 7.80039 21.2507 7.80039 21.2507L7.73789 22.0257H8.48789L8.43789 22.3757C8.43789 22.3757 7.80039 22.3382 7.73789 22.3757C7.67539 22.4132 7.61289 23.1632 7.61289 23.1632C7.61289 23.1632 7.48789 23.2007 7.36289 23.2007C7.23789 23.2007 7.11289 23.1632 7.11289 23.1632C7.11289 23.1632 7.06289 22.4132 7.00039 22.3757C6.93789 22.3382 6.30039 22.3757 6.30039 22.3757L6.23789 22.0257H7.00039L6.93789 21.2507C6.93789 21.2507 6.18789 21.1007 5.40039 21.0507C5.35039 20.9007 5.40039 20.6632 5.40039 20.6632L6.93789 20.7757C6.73789 20.2632 6.35039 19.0757 5.22539 19.1507C4.15039 19.2007 3.67539 20.2007 3.85039 20.5007L7.25039 27.8132C7.48789 28.2132 7.43789 29.4007 6.53789 29.8132C5.91289 30.0882 4.86289 30.0632 4.38789 29.6382C4.12539 29.4632 3.97539 29.1132 4.00039 28.8257C4.02539 28.5382 4.50039 27.3882 3.85039 26.8257C4.51289 27.0382 4.57539 26.9507 5.16289 26.5632C4.33789 27.5632 4.38789 27.6007 4.51289 28.1882C5.10039 27.9882 6.00039 28.0757 6.00039 28.3382C6.00039 28.5882 5.75039 29.0257 5.40039 28.8507C5.05039 28.6882 5.65039 28.4757 5.22539 28.4757C4.81289 28.4757 4.51289 28.5507 4.51289 28.8507C4.51289 29.1507 4.92539 29.5007 5.51289 29.5007C6.10039 29.5007 6.82539 29.2007 6.71289 28.1257C6.58789 27.0382 3.08789 21.0132 3.08789 20.2757C3.08789 19.5382 3.73789 18.5882 5.46289 18.5882C6.58789 18.5007 7.00039 19.6757 7.40039 20.0882L7.38789 20.0757Z" fill="#FFEC2D"/>
<path fill-rule="evenodd" clip-rule="evenodd" d="M7.38789 17.0878C7.80039 17.4878 8.13789 18.6753 9.26289 18.5878C10.9879 18.5878 11.6379 17.6253 11.6379 16.8878C11.6379 16.1503 8.13789 10.1378 8.01289 9.05032C7.88789 7.96282 8.61289 7.66282 9.20039 7.66282C9.80039 7.66282 10.2129 8.01282 10.2129 8.31282C10.2129 8.61282 9.91289 8.70032 9.50039 8.70032C9.08789 8.70032 9.67539 8.48782 9.32539 8.31282C8.97539 8.13782 8.72539 8.56282 8.72539 8.82532C8.72539 9.08782 9.62539 9.17532 10.2254 8.97532C10.3379 9.56282 10.3879 9.60032 9.56289 10.6003C10.1629 10.2253 10.2129 10.1253 10.8754 10.3503C10.2129 9.78782 10.7004 8.63782 10.7254 8.35032C10.7504 8.06282 10.6004 7.70032 10.3379 7.52532C9.86289 7.10032 8.81289 7.07532 8.18789 7.36282C7.28789 7.76282 7.23789 8.96282 7.47539 9.35032L10.8754 16.6753C11.0629 16.9753 10.5879 17.9753 9.51289 18.0253C8.38789 18.1003 8.00039 16.9253 7.80039 16.4003L9.33789 16.5253C9.33789 16.5253 9.40039 16.2753 9.33789 16.1253C8.82231 16.0914 8.30902 16.0288 7.80039 15.9378L7.73789 15.1503H8.48789L8.43789 14.8003C8.43789 14.8003 7.80039 14.8503 7.73789 14.8003C7.67539 14.7628 7.61289 14.0253 7.61289 14.0253C7.61289 14.0253 7.48789 13.9753 7.36289 13.9753C7.23789 13.9753 7.11289 14.0253 7.11289 14.0253C7.11289 14.0253 7.06289 14.7628 7.00039 14.8003C6.93789 14.8503 6.30039 14.8003 6.30039 14.8003L6.23789 15.1503H7.00039L6.93789 15.9378C6.93789 15.9378 6.18789 16.0753 5.40039 16.1253C5.35039 16.2878 5.40039 16.5253 5.40039 16.5253L6.93789 16.4003C6.73789 16.9253 6.35039 18.1003 5.22539 18.0253C4.15039 17.9753 3.67539 16.9753 3.85039 16.6753L7.25039 9.35032C7.48789 8.96282 7.43789 7.76282 6.53789 7.35032C5.91289 7.07532 4.86289 7.10032 4.38789 7.52532C4.12539 7.70032 3.97539 8.05032 4.00039 8.33782C4.02539 8.62532 4.50039 9.78782 3.85039 10.3378C4.51289 10.1253 4.57539 10.2128 5.16289 10.6003C4.33789 9.60032 4.38789 9.56282 4.51289 8.97532C5.11289 9.17532 6.00039 9.10032 6.00039 8.82532C6.00039 8.57532 5.75039 8.13782 5.40039 8.31282C5.05039 8.48782 5.65039 8.70032 5.22539 8.70032C4.81289 8.70032 4.51289 8.61282 4.51289 8.31282C4.51289 8.01282 4.92539 7.66282 5.51289 7.66282C6.10039 7.66282 6.83789 7.96282 6.71289 9.03782C6.58789 10.1253 3.08789 16.1628 3.08789 16.8878C3.08789 17.6378 3.73789 18.5878 5.46289 18.5878C6.58789 18.6753 7.00039 17.4878 7.40039 17.0878H7.38789Z" fill="#FFEC2D"/>
<path fill-rule="evenodd" clip-rule="evenodd" d="M7.52559 1.62545C7.93809 1.22545 7.80059 0.562948 8.93809 0.650448C10.6631 0.650448 10.7131 1.70045 10.7131 2.43795C10.7131 3.17545 8.12559 4.20045 8.00059 5.28795C7.87559 6.37545 8.60059 6.66295 9.20059 6.66295C9.78809 6.66295 10.2006 6.32545 10.2006 6.02545C10.2006 5.72545 9.92559 5.62545 9.50059 5.62545C9.07559 5.62545 9.68809 5.83795 9.32559 6.00045C8.96309 6.16295 8.72559 5.75045 8.72559 5.50045C8.72559 5.22545 9.62559 5.13795 10.2256 5.33795C10.3506 4.75045 10.4006 4.71295 9.56309 3.71295C10.1631 4.10045 10.2131 4.18795 10.8756 3.96295C10.2131 4.53795 10.7131 5.68795 10.7256 5.97545C10.7381 6.26295 10.6006 6.61295 10.3506 6.78795C9.85059 7.25045 8.81309 7.25045 8.18809 6.97545C7.27559 6.57545 7.22559 5.37545 7.46309 4.97545L10.0006 2.41295C10.1756 2.11295 10.2506 1.26295 9.17559 1.22545C8.05059 1.13795 7.65059 2.67545 7.45059 3.18795C7.18809 2.62545 6.88809 1.07545 5.75059 1.16295C4.67559 1.20045 4.47559 2.03795 4.65059 2.35045L7.23809 4.97545C7.48809 5.37545 7.43809 6.57545 6.52559 6.97545C5.90059 7.26295 4.86309 7.23795 4.38809 6.80045C4.11309 6.62545 3.96309 6.28795 3.98809 5.98795C4.01309 5.68795 4.50059 4.55045 3.85059 3.98795C4.50059 4.20045 4.56309 4.11295 5.15059 3.73795C4.32559 4.72545 4.38809 4.76295 4.50059 5.36295C5.10059 5.16295 6.00059 5.23795 6.00059 5.50045C6.00059 5.76295 5.75059 6.20045 5.38809 6.02545C5.03809 5.85045 5.63809 5.63795 5.21309 5.63795C4.80059 5.63795 4.50059 5.72545 4.50059 6.01295C4.50059 6.30045 4.91309 6.67545 5.51309 6.67545C6.11309 6.67545 6.82559 6.37545 6.70059 5.28795C6.57559 4.20045 3.95059 3.02545 3.95059 2.28795C3.95059 1.53795 4.12559 0.650448 5.85059 0.650448C6.97559 0.562948 7.11309 1.22545 7.52559 1.62545Z" fill="#FFEC2D"/>
<path d="M55.1902 25.7392C55.1902 19.7968 50.1071 14.9795 43.8368 14.9795C37.5665 14.9795 32.4834 19.7968 32.4834 25.7392C32.4834 31.6816 37.5665 36.4989 43.8368 36.4989C50.1071 36.4989 55.1902 31.6816 55.1902 25.7392Z" fill="#FFEC2D"/>
<path fill-rule="evenodd" clip-rule="evenodd" d="M43.3027 8.56217C43.1959 8.56217 42.689 12.1376 42.5022 12.9381C42.3154 14.7392 44.9036 14.6725 44.4767 12.8714L43.3027 8.54883V8.56217ZM44.2099 43.2227C44.3033 43.2227 45.0771 39.6873 45.3305 38.9002C45.6374 37.1258 43.0492 37.0324 43.3294 38.8468L44.2099 43.2227ZM26.1191 25.6657C26.1191 25.759 29.8413 26.5061 30.6685 26.7463C32.5363 27.0531 32.6697 24.6117 30.7486 24.8785L26.1191 25.679V25.6657ZM62.3673 26.0926C62.3673 25.9992 58.6051 25.3855 57.7646 25.172C55.8835 24.9452 55.8701 27.3867 57.7646 27.0531L62.3673 26.0926ZM29.9347 14.3256C29.868 14.3923 32.3228 17.1673 32.8164 17.8477C34.0972 19.1818 35.7915 17.314 34.0972 16.4068L29.9347 14.3389V14.3256ZM58.0981 37.1391C58.1648 37.0724 55.4699 34.5109 54.9096 33.8839C53.5087 32.6565 52.0012 34.6443 53.7622 35.4181L58.0981 37.1525V37.1391ZM35.5514 10.4566C35.4714 10.4967 36.6187 13.9387 36.8055 14.7525C37.4459 16.4468 39.7672 15.3395 38.5665 13.8853L35.5647 10.4566H35.5514ZM51.9745 41.4617C52.0679 41.4217 51.174 37.9129 51.0539 37.0991C50.5336 35.3647 48.1455 36.2986 49.2262 37.8462L51.9878 41.4483L51.9745 41.4617ZM56.0169 12.8581C55.9368 12.7913 52.9751 15.0727 52.2546 15.5263C50.8271 16.727 52.7616 18.3546 53.7489 16.767L56.0169 12.8581ZM31.6024 38.7001C31.6691 38.7668 34.8043 36.6989 35.5514 36.2853C37.059 35.1913 35.2579 33.4303 34.1506 34.9512L31.6157 38.7001H31.6024ZM26.933 19.4753C26.8929 19.5554 30.1349 21.4365 30.8419 21.9301C32.5096 22.7973 33.4835 20.5293 31.5757 20.1691L26.933 19.4753ZM60.7797 32.6031C60.8197 32.5231 57.7112 30.4285 57.0442 29.8948C55.4432 28.9076 54.3092 31.1089 56.1903 31.5892L60.7797 32.6031ZM50.0267 9.53608C49.9333 9.5094 48.0788 12.6579 47.5852 13.3383C47.5861 13.5556 47.655 13.7672 47.7823 13.9433C47.9095 14.1194 48.0887 14.2513 48.2946 14.3205C48.5006 14.3896 48.7231 14.3926 48.9308 14.3289C49.1385 14.2652 49.3211 14.1381 49.453 13.9654L50.0267 9.53608ZM37.4992 42.1288C37.5926 42.1688 39.6738 39.1403 40.2075 38.4866C41.1814 36.939 38.82 35.9518 38.3797 37.7395L37.4992 42.1288ZM27.1598 32.8833C27.1998 32.9633 30.8953 32.0828 31.7625 31.9494C33.5769 31.4424 32.563 29.2011 30.962 30.2417L27.1598 32.8833ZM60.793 19.1818C60.7664 19.1018 57.0175 19.7288 56.1503 19.8088C54.2825 20.1957 55.1497 22.5038 56.8174 21.5699L60.793 19.1818Z" fill="#FFEC2D"/>
<path fill-rule="evenodd" clip-rule="evenodd" d="M46.9848 8.78873C46.8914 8.77539 45.6373 12.1774 45.2638 12.9245C44.7168 14.6589 47.2649 15.0858 47.2249 13.2447L46.9981 8.77539L46.9848 8.78873ZM40.5143 42.929C40.6077 42.9557 42.1152 39.6337 42.5421 38.8999C43.2092 37.2189 40.701 36.6319 40.6077 38.4597L40.5009 42.929H40.5143ZM39.2202 9.12226C39.1268 9.14895 39.4737 12.7511 39.4737 13.5782C39.7271 15.3526 42.222 14.7389 41.3948 13.0846L39.2202 9.12226ZM48.2922 42.7289C48.3856 42.7155 48.2922 39.1001 48.3589 38.2729C48.2389 36.4718 45.6907 36.9254 46.4111 38.6331L48.2789 42.7289H48.2922ZM32.7897 12.1107C32.7096 12.1641 34.484 15.3526 34.8176 16.1131C35.7781 17.674 37.846 16.2065 36.3918 14.9657L32.7897 12.1107ZM54.7761 39.8472C54.8561 39.7938 53.3085 36.4852 53.0417 35.7114C52.2012 34.0971 50.0399 35.4312 51.3874 36.752L54.7761 39.8472ZM28.0936 16.5934C28.0402 16.6734 30.9086 19.0482 31.5089 19.6619C32.9898 20.7825 34.364 18.7013 32.5495 18.0476L28.0936 16.5934ZM59.3388 35.2311C59.3921 35.151 56.7105 32.5895 56.1502 31.9491C54.7627 30.7351 53.2418 32.7229 55.0029 33.4967L59.3388 35.2311ZM26.039 22.1833C26.0123 22.2767 29.5478 23.6242 30.3216 24.0111C32.1093 24.6115 32.683 22.2234 30.7351 22.17L26.039 22.1833ZM61.7135 29.8946C61.7535 29.8145 58.3248 28.2403 57.5777 27.8C55.8434 27.0796 55.0829 29.4276 57.0174 29.6144L61.7135 29.8946ZM25.9189 29.0541C25.9323 29.1341 29.7479 29.0808 30.6151 29.1475C32.5095 29.0541 32.0559 26.6393 30.2415 27.293L25.9189 29.0541ZM61.967 23.0505C61.967 22.9571 58.1514 22.757 57.2976 22.6369C55.3898 22.6103 55.6699 25.0517 57.5244 24.5047L61.967 23.0372V23.0505ZM29.1876 36.1783C29.2409 36.2584 32.6563 34.6307 33.4568 34.3239C35.1111 33.4567 33.5902 31.4689 32.2694 32.8163L29.1876 36.1783ZM58.8451 15.8596C58.7918 15.7795 55.283 17.1804 54.4425 17.4339C52.7215 18.1943 54.0957 20.2755 55.5098 19.0215L58.8451 15.8596ZM34.7375 40.9011C34.8176 40.9411 37.259 38.1662 37.8727 37.5791C39.0334 36.1516 36.8054 34.9109 36.1517 36.6453L34.7375 40.9011ZM53.3752 11.0434C53.3085 10.99 50.667 13.5916 50.0132 14.1386C48.7592 15.486 50.8938 16.8735 51.6676 15.1925L53.3619 11.0434H53.3752Z" fill="#FFEC2D"/>
<path fill-rule="evenodd" clip-rule="evenodd" d="M26.4773 32.896C26.6811 33.5841 26.7102 37.4371 30.8156 41.1525C34.8918 44.8404 41.8796 45.6661 41.8796 45.6661C41.8796 45.6661 41.9088 46.189 41.4138 46.2165C40.9188 46.2716 38.5313 45.8037 37.3375 45.4459C36.1729 45.1157 35.1247 44.5102 35.0083 44.5377C34.8627 44.5927 34.6298 44.978 34.2804 44.923C33.931 44.868 32.2423 43.2167 31.4852 42.7763C29.9711 41.5392 28.6306 40.1241 27.4964 38.5655C26.6811 37.327 26.4773 36.5014 26.2153 36.5014C25.9532 36.5014 24.9924 37.1069 24.9924 37.1069C24.9924 37.1069 24.1189 35.8684 23.3619 33.8868C22.5758 31.9053 22.6631 30.7493 22.8378 30.6668C23.0416 30.5842 23.0416 32.1254 23.6239 33.529C24.2063 34.9602 25.0215 35.4005 25.0215 35.4005C25.0215 35.4005 24.4974 34.6574 24.0898 32.8135C23.6822 30.9695 23.5075 29.1806 23.7986 28.6302C24.0898 28.0797 24.3518 27.9146 24.381 27.9421C24.4392 27.9972 23.886 28.7953 24.2645 30.9145C24.643 33.0336 25.6621 34.8226 25.895 34.74C26.1279 34.6574 25.7494 34.2171 25.6038 32.9786C25.4582 31.7401 25.7494 30.9695 26.0697 30.8594C26.2153 30.7493 26.4482 32.2355 26.4773 32.896ZM23.6239 36.4188C22.8378 35.7308 21.6149 33.3364 21.3529 33.4465C21.0617 33.5841 23.3328 37.0243 23.391 37.2995C23.4492 37.6298 23.9442 38.5655 23.5657 38.4279C23.1872 38.2903 20.4794 35.5932 20.7997 36.1161C21.12 36.639 23.1581 39.0058 23.0416 39.1435C22.9252 39.2811 21.3529 37.8224 21.2947 38.0151C21.2655 38.1802 22.8378 39.6113 22.8087 39.7765C22.7796 39.9416 21.7896 38.8682 21.7896 39.0884C21.7896 39.3086 22.8087 40.3819 22.8087 40.5471C22.8087 40.7122 21.9352 39.7765 22.2264 40.2718C22.4884 40.8223 23.2454 41.2901 23.2163 41.4553C23.1872 41.6204 22.5758 41.2351 22.5758 41.3177C22.5758 41.4002 23.7113 41.7855 23.9733 42.0883C24.2645 42.391 26.1279 44.4276 27.5255 45.4459C28.923 46.4642 32.941 48.2531 33.2322 48.2531C33.4942 48.2531 33.9019 47.7027 33.8145 47.4825C33.7272 47.2623 29.7965 45.9964 28.7192 45.0606C27.6128 44.1249 24.9342 41.8681 24.7012 41.758C24.4974 41.6204 23.886 41.6754 23.886 41.5378C23.886 41.4002 24.6721 41.6204 24.6139 41.5378C24.5848 41.4553 23.5366 41.0149 23.5657 40.9324C23.6239 40.8498 24.2936 41.0975 24.2936 41.0149C24.2936 40.9324 23.0707 40.2994 23.129 40.1618C23.1581 40.0241 24.0316 40.5471 24.0316 40.437C24.0316 40.3819 22.8669 39.6113 22.896 39.4737C22.9252 39.3361 23.7986 40.0792 23.7695 39.9141C23.7404 39.7489 23.0707 38.8132 23.0707 38.7031C23.0707 38.5655 24.1189 39.6388 24.2354 39.4187C24.2936 39.226 23.8569 37.4371 23.886 37.4096C23.9151 37.3821 24.6721 37.7949 24.7886 37.5472C24.9342 37.272 24.2645 36.9142 23.6239 36.4188ZM37.0464 49.9595C36.4932 50.042 36.2311 49.8494 36.5514 49.409C36.9882 49.409 38.1528 49.0513 38.5604 48.8861C38.968 48.721 39.4048 48.5008 39.7542 48.1981C40.1036 47.8403 40.3365 48.3907 40.1327 48.6935C39.9871 48.8861 39.3174 49.2439 38.8225 49.4366C38.0946 49.6567 37.454 49.987 37.0464 49.9595ZM40.6859 48.5559C40.3074 48.1706 40.6277 47.8953 41.1809 47.5926C41.9961 47.1798 41.7632 46.6018 42.8114 46.134C43.2772 45.8587 49.7992 43.3818 51.9246 42.0608C54.0501 40.7397 60.0189 36.4739 61.6202 33.529C63.1925 30.6117 62.4355 30.3916 62.6684 30.2815C62.8722 30.1439 63.1052 30.6943 63.076 31.3548C63.0178 31.9878 62.4937 33.9143 62.6684 34.107C62.8431 34.2996 65.0559 32.5933 65.9876 30.5292C66.9193 28.465 67.6181 26.3184 68.0549 26.3184C68.5207 26.3184 67.2979 29.8411 66.5117 31.2172C65.7547 32.5933 64.8521 33.2813 65.0559 33.5841C65.2889 33.8593 67.5599 32.0704 68.346 30.7493C69.103 29.4008 69.8309 28.2174 69.9765 28.465C69.7449 30.0772 69.0725 31.6045 68.0258 32.896C66.8029 34.2171 65.3471 35.1803 65.58 35.373C65.7838 35.5932 67.4434 35.8133 69.1613 34.7125C70.9082 33.5841 71.0829 31.9603 71.2867 32.0429C71.5197 32.1254 71.0829 34.3547 69.4233 35.7308C67.7637 37.1069 65.58 37.2445 65.6382 37.5472C65.7547 37.8224 70.3841 36.2812 70.2968 36.639C70.2095 36.9692 64.2989 39.171 64.2407 39.3911C64.2407 39.5563 65.2597 39.6113 66.8611 39.2535C68.4334 38.9233 69.9474 37.7399 70.1512 38.0151C70.2095 38.4004 69.0157 39.3361 67.2105 39.7765C65.3762 40.2168 64.4736 40.7948 64.4154 40.9324C64.3863 41.07 67.6764 40.5471 67.6764 40.7122C67.6764 40.8773 63.3672 41.6754 63.3381 41.8956C63.2799 42.0883 67.4143 41.0975 67.3561 41.3452C67.2396 41.5378 61.7367 43.0791 61.7949 43.1616C61.8241 43.2717 66.3953 42.2259 66.3079 42.391C66.1914 42.5837 58.6213 44.5927 58.5631 44.7304C58.5048 44.8404 65.2597 43.2992 65.2015 43.4368C65.1433 43.5744 61.7076 44.3726 61.7076 44.4551C61.7076 44.5377 64.4736 44.0423 64.4154 44.1799C64.3863 44.29 57.4276 45.9688 57.282 46.2165C57.1364 46.4917 60.8923 45.5285 60.8341 46.0239C60.7759 46.5193 52.769 49.0513 52.7399 48.5834C52.6817 48.1155 57.6022 46.9321 57.5731 46.7945C57.5149 46.6569 54.7489 47.0697 54.6907 46.822C54.6615 46.5468 56.525 45.9964 56.3794 45.8863C56.2338 45.7487 54.8362 46.2716 54.9527 45.9688C55.0983 45.6661 57.7478 44.5102 57.6896 44.4276C57.6605 44.345 56.7288 44.7028 56.8161 44.4276C56.9326 44.1249 62.552 42.5837 62.4646 42.391C62.3773 42.2259 59.8733 42.7763 59.6404 42.8314C59.553 42.6662 63.1343 41.4002 63.076 41.1801C62.9596 40.9874 61.1544 41.9231 61.0379 41.6754C60.9797 41.4002 64.2116 40.2168 64.0078 40.0241C63.8039 39.8315 62.3481 40.5195 62.1443 40.3269C61.9405 40.1342 65.2015 38.0151 64.7065 37.96C64.2116 37.9325 63.6001 38.6205 63.5419 38.1802C63.6001 37.6298 66.075 36.7216 65.5218 36.2812C64.6483 36.0335 61.7076 36.4739 60.4847 37.1619C59.2619 37.8499 55.1856 41.6754 54.1957 42.2809C53.2057 42.8589 49.8283 44.2074 49.1877 44.4827C48.1978 44.8129 48.0231 45.3083 47.004 45.8037C45.1697 46.2716 45.1989 46.7945 44.3254 47.0972C44.0051 47.1798 40.715 48.6659 40.6859 48.5559ZM36.0856 50.4824C35.5324 50.7576 35.0374 51.4181 35.3577 51.6933C35.5324 52.0236 36.0856 50.9503 36.5223 51.0053L38.8516 51.1154C40.1036 51.1979 40.715 50.8677 41.4138 50.9227C42.1126 50.9778 43.6557 50.5649 44.3836 50.5649C45.1115 50.5649 45.2571 50.6475 45.3153 50.3448C45.4027 50.0696 43.0443 50.2622 41.9961 50.2347C40.9479 50.1796 39.6377 50.4273 38.8516 50.4273C38.1237 50.3998 36.8717 50.1796 36.0856 50.4824Z" fill="#FFEC2D"/>
<path d="M39.5798 50.1521C39.5798 49.9241 39.3582 49.7393 39.0848 49.7393C38.8114 49.7393 38.5898 49.9241 38.5898 50.1521C38.5898 50.3801 38.8114 50.5649 39.0848 50.5649C39.3582 50.5649 39.5798 50.3801 39.5798 50.1521Z" fill="#FFEC2D"/>
<path fill-rule="evenodd" clip-rule="evenodd" d="M51.1963 49.3539C51.6913 49.2714 53.0306 49.7117 53.9623 49.9044C55.651 50.5374 58.7955 50.2346 58.7955 50.5374C58.7955 50.8401 58.5917 51.1979 57.8638 51.2529C57.1359 51.308 55.3016 50.9777 55.3599 50.9777C55.4181 50.9777 56.8157 51.6107 56.408 51.7758C56.0004 51.941 54.8067 51.4181 54.6028 51.5557C54.399 51.6933 55.7093 51.941 55.4763 52.0235C55.3016 52.1061 54.399 51.9135 54.1079 51.941C53.8167 51.996 54.3408 52.2988 53.9914 52.4088C53.642 52.5465 53.0597 52.2437 52.8268 52.3263C52.5647 52.4088 53.3509 52.8767 53.0015 52.9318C52.6521 52.9868 51.8368 52.7116 51.371 52.6565C50.9051 52.6565 51.8077 53.0969 51.5166 53.1519C51.2254 53.1795 50.4102 52.7942 50.2063 52.7942C50.0025 52.7942 50.2063 53.3446 49.9152 53.3446C49.624 53.3446 49.2746 52.8767 49.0999 52.8767C48.9252 52.8767 49.0999 53.4271 48.8088 53.4271C48.5176 53.4271 48.4012 52.8492 48.1682 52.8767C47.8771 52.9318 48.1682 53.6198 47.7606 53.5648C47.3821 53.5372 47.3239 52.8492 47.0036 52.8767C46.7124 52.9318 47.0618 53.5648 46.7707 53.5648C46.4795 53.5648 46.4213 52.9318 46.1301 52.8767C45.839 52.8492 45.9554 53.4822 45.7807 53.4822C45.606 53.4822 45.4313 52.8767 45.3149 52.8767C45.2275 52.8767 45.3149 53.4822 44.9655 53.4271C44.6161 53.3721 44.6161 52.7666 44.5287 52.7942C44.4123 52.8492 44.4123 53.2895 44.1793 53.2895C43.9464 53.2895 43.9173 52.8492 43.83 52.9042C43.7135 52.9318 43.3641 53.4822 43.1312 53.3996C42.8691 53.3171 43.1894 52.8767 43.0729 52.8767C42.9565 52.8767 42.6653 53.1795 42.4906 53.1519C42.3159 53.1244 42.4906 52.7666 42.4324 52.7666C42.3741 52.7666 41.9374 52.9868 41.7336 52.9868C41.5298 52.9868 40.9766 53.262 40.831 53.0143C40.6854 52.7391 41.2095 52.7391 41.326 52.4914C41.4133 52.2437 41.0348 51.5006 41.4424 51.2529C41.8209 50.9777 43.0729 51.6107 44.9364 51.1704C48.3138 50.3172 50.9342 49.3264 51.1963 49.3539Z" fill="#FFEC2D"/>
</g>
<defs>
<clipPath id="clip0_3732_59368">
<rect width="80" height="60" fill="white"/>
</clipPath>
</defs>
</svg>
