<svg width="80" height="60" viewBox="0 0 80 60" fill="none" xmlns="http://www.w3.org/2000/svg">
<g clip-path="url(#clip0_3732_59389)">
<path d="M0 0H80V60H0V0Z" fill="white"/>
<path d="M0 0H80V18H0V0Z" fill="black"/>
<path d="M0 42H80V60H0V42Z" fill="#006600"/>
<path d="M29.2754 47.8125L29.9504 48.1875L47.4629 17.8125C48.4754 17.5875 49.0379 16.6125 49.6004 15.6375C49.9754 14.9625 51.4754 12.375 52.1129 9C50.3338 10.581 48.8263 12.4432 47.6504 14.5125C47.0879 15.4875 46.5254 16.4625 46.7879 17.475L29.2754 47.8125Z" fill="black" stroke="black" stroke-width="0.375" stroke-miterlimit="10"/>
<path d="M29.2754 47.8125L29.9504 48.1875L47.4629 17.8125C48.4754 17.5875 49.0379 16.6125 49.6004 15.6375C49.9754 14.9625 51.4754 12.375 52.1129 9C50.3338 10.581 48.8263 12.4432 47.6504 14.5125C47.0879 15.4875 46.5254 16.4625 46.7879 17.475L29.2754 47.8125Z" fill="white"/>
<path d="M50.7246 47.8125L50.0496 48.1875L32.5371 17.8125C31.5246 17.5875 30.9621 16.6125 30.3996 15.6375C30.0246 14.9625 28.5246 12.375 27.8871 9C29.6662 10.581 31.1737 12.4432 32.3496 14.5125C32.9121 15.4875 33.4746 16.4625 33.2121 17.475L50.7246 47.8125Z" fill="black" stroke="black" stroke-width="0.375" stroke-miterlimit="10"/>
<path d="M50.7246 47.8125L50.0496 48.1875L32.5371 17.8125C31.5246 17.5875 30.9621 16.6125 30.3996 15.6375C30.0246 14.9625 28.5246 12.375 27.8871 9C29.6662 10.581 31.1737 12.4432 32.3496 14.5125C32.9121 15.4875 33.4746 16.4625 33.2121 17.475L50.7246 47.8125Z" fill="white"/>
<path d="M80.0621 21H47.1246C45.9996 18 42.2496 12 39.9996 12C37.7496 12 33.9996 18 32.8746 21H-0.0253906V39H32.8746C33.9996 42 37.7496 48 39.9996 48C42.2496 48 45.9996 42 47.1246 39H80.0621V21Z" fill="#BB0000"/>
<path d="M47.125 39C48.25 36 49 33 49 30C49 27 48.25 24 47.125 21C46 24 45.25 27 45.25 30C45.25 33 46 36 47.125 39Z" fill="black"/>
<path d="M32.875 39C31.75 36 31 33 31 30C31 27 31.75 24 32.875 21C34 24 34.75 27 34.75 30C34.75 33 34 36 32.875 39Z" fill="black"/>
<path d="M40 32.25C40.8284 32.25 41.5 31.2426 41.5 30C41.5 28.7574 40.8284 27.75 40 27.75C39.1716 27.75 38.5 28.7574 38.5 30C38.5 31.2426 39.1716 32.25 40 32.25Z" fill="white"/>
<path d="M40.375 32.1748C40.375 32.1748 41.875 35.1748 41.875 40.0498C41.875 44.9248 40.375 47.9248 40.375 47.9248V32.1748Z" fill="white"/>
<path d="M39.625 27.8252C39.625 27.8252 38.125 24.8252 38.125 19.9502C38.125 15.0752 39.625 12.0752 39.625 12.0752V27.8252Z" fill="white"/>
<path d="M39.625 32.1748C39.625 32.1748 38.125 35.1748 38.125 40.0498C38.125 44.9248 39.625 47.9248 39.625 47.9248V32.1748Z" fill="white"/>
<path d="M40.375 27.8252C40.375 27.8252 41.875 24.8252 41.875 19.9502C41.875 15.0752 40.375 12.0752 40.375 12.0752V27.8252Z" fill="white"/>
</g>
<defs>
<clipPath id="clip0_3732_59389">
<rect width="80" height="60" fill="white"/>
</clipPath>
</defs>
</svg>
