<svg width="80" height="60" viewBox="0 0 80 60" fill="none" xmlns="http://www.w3.org/2000/svg">
<g clip-path="url(#clip0_3732_59422)">
<mask id="mask0_3732_59422" style="mask-type:luminance" maskUnits="userSpaceOnUse" x="0" y="0" width="81" height="60">
<path d="M0.0117188 0H80.0039V60H0.0117188V0Z" fill="white"/>
</mask>
<g mask="url(#mask0_3732_59422)">
<path fill-rule="evenodd" clip-rule="evenodd" d="M-9.12891 0H88.8164V35.918H-9.12891V0Z" fill="#E73E2D"/>
<path fill-rule="evenodd" clip-rule="evenodd" d="M34.0664 33.0586C31.793 31.2773 27.5508 31.8867 26.8477 27.0469C30.0938 29.5664 29.5078 26.9063 34.3477 29.3086L34.0664 33.0586Z" fill="#FEC74A" stroke="#D8AA3F" stroke-width="0.199219"/>
<path fill-rule="evenodd" clip-rule="evenodd" d="M34.6757 30.8672C33.0468 28.4766 28.8164 27.75 29.6367 22.9336C31.9687 26.3203 32.2148 23.6016 36.1054 27.375L34.6757 30.8672Z" fill="#FEC74A" stroke="#D8AA3F" stroke-width="0.199219"/>
<path fill-rule="evenodd" clip-rule="evenodd" d="M35.4144 29.2969C34.8284 26.4727 31.1956 24.1875 33.7972 20.0391C34.6409 24.0703 35.9066 21.6562 38.0628 26.625L35.4144 29.2969Z" fill="#FEC74A" stroke="#D8AA3F" stroke-width="0.199219"/>
<path fill-rule="evenodd" clip-rule="evenodd" d="M37.1132 27.8438C37.4296 24.9727 34.6757 21.6797 38.4139 18.5391C37.9921 22.6289 39.9374 20.7305 40.4647 26.1094L37.1132 27.8438Z" fill="#FEC74A" stroke="#D8AA3F" stroke-width="0.199219"/>
<path fill-rule="evenodd" clip-rule="evenodd" d="M38.6367 26.6836C40.0898 24.1875 38.9297 20.0625 43.6289 18.7266C41.5664 22.2773 44.1211 21.3398 42.3984 26.4609L38.6367 26.6836Z" fill="#FEC74A" stroke="#D8AA3F" stroke-width="0.199219"/>
<path fill-rule="evenodd" clip-rule="evenodd" d="M40.8281 26.9878C43.0078 25.0894 43.2188 20.8003 48.0938 21.023C45.0117 23.7417 47.7422 23.6597 44.4609 27.9839L40.8281 26.9878Z" fill="#FEC74A" stroke="#D8AA3F" stroke-width="0.199219"/>
<path fill-rule="evenodd" clip-rule="evenodd" d="M42.7734 28.1137C45.4102 26.9301 46.8633 22.8988 51.457 24.5395C47.707 26.2387 50.3438 26.9653 45.9492 30.1293L42.7734 28.1137Z" fill="#FEC74A" stroke="#D8AA3F" stroke-width="0.199219"/>
<path fill-rule="evenodd" clip-rule="evenodd" d="M44.4023 29.8824C47.2617 29.484 49.793 26.0152 53.7422 28.898C49.6758 29.4723 51.9844 30.902 46.8867 32.7066L44.4023 29.8707V29.8824Z" fill="#FEC74A" stroke="#D8AA3F" stroke-width="0.199219"/>
<path fill-rule="evenodd" clip-rule="evenodd" d="M54.5977 30.4219L41.4609 30.7148L42.0117 34.2539L54.5977 30.4219Z" fill="#FEC74A" stroke="#D8AA3F" stroke-width="0.199219"/>
<path fill-rule="evenodd" clip-rule="evenodd" d="M52.6641 25.5938L40.5 30.2695L42.5273 34.1719L52.6641 25.5938Z" fill="#FEC74A" stroke="#D8AA3F" stroke-width="0.199219"/>
<path fill-rule="evenodd" clip-rule="evenodd" d="M43.0078 32.8945L49.3008 21.457L39.6445 30.4453L43.0078 32.8945Z" fill="#FEC74A" stroke="#D8AA3F" stroke-width="0.199219"/>
<path fill-rule="evenodd" clip-rule="evenodd" d="M42.8789 31.9453L44.8945 19.125L38.5898 30.5156L42.8789 31.9453Z" fill="#FEC74A" stroke="#D8AA3F" stroke-width="0.199219"/>
<path fill-rule="evenodd" clip-rule="evenodd" d="M42.1172 30.9023L40.0078 17.9883L37.6641 30.9609L42.1172 30.9023Z" fill="#FEC74A" stroke="#D8AA3F" stroke-width="0.199219"/>
<path fill-rule="evenodd" clip-rule="evenodd" d="M41.0273 29.8008L34.8984 19.0195L37.2422 32.1211L41.0273 29.8008Z" fill="#FEC74A" stroke="#D8AA3F" stroke-width="0.199219"/>
<path fill-rule="evenodd" clip-rule="evenodd" d="M40.0781 29.7188L30.5742 21.6914L37.3242 33.1758L40.0781 29.7188Z" fill="#FEC74A" stroke="#D8AA3F" stroke-width="0.199219"/>
<path fill-rule="evenodd" clip-rule="evenodd" d="M27.2344 25.6523L37.4297 34.0781L39 29.6719L27.2344 25.6523Z" fill="#FEC74A" stroke="#D8AA3F" stroke-width="0.199219"/>
<path fill-rule="evenodd" clip-rule="evenodd" d="M37.3242 30.5742L25.3359 30.3984L37.2773 34.3828L37.3242 30.5742Z" fill="#FEC74A" stroke="#D8AA3F" stroke-width="0.199219"/>
<path fill-rule="evenodd" clip-rule="evenodd" d="M47.0508 32.7185C47.0899 33.687 46.9329 34.6535 46.5892 35.5599C46.2455 36.4662 45.7223 37.2938 45.0508 37.9929C44.3794 38.6921 43.5736 39.2483 42.6818 39.6283C41.79 40.0082 40.8307 40.2041 39.8613 40.2041C38.892 40.2041 37.9326 40.0082 37.0409 39.6283C36.1491 39.2483 35.3433 38.6921 34.6718 37.9929C34.0004 37.2938 33.4771 36.4662 33.1334 35.5599C32.7898 34.6535 32.6328 33.687 32.6719 32.7185C32.7468 30.8619 33.5371 29.1064 34.8772 27.8193C36.2173 26.5322 38.0033 25.8135 39.8613 25.8135C41.7194 25.8135 43.5054 26.5322 44.8455 27.8193C46.1856 29.1064 46.9758 30.8619 47.0508 32.7185Z" fill="#FEC74A" stroke="#D8AA3F" stroke-width="0.199219"/>
<path fill-rule="evenodd" clip-rule="evenodd" d="M-9.22266 35.5547H89.2031V60H-9.23438L-9.22266 35.5547Z" fill="#005989"/>
<path fill-rule="evenodd" clip-rule="evenodd" d="M-9.28125 53.2031C-7.45313 54.0469 -4.82812 56.168 -2.01562 56.168C2.67188 56.1328 2.78906 52.957 7.54688 53.1094C12.3164 53.2266 11.4492 56.5781 17.8828 56.5664C23.2031 56.543 24.9141 52.5 29.5078 52.9805C32.9062 52.8047 34.2891 56.8125 39.5039 56.8711C44.918 56.9883 46.8984 52.5 50.2852 52.875C53.918 52.875 55.0898 56.4844 60.1641 56.5078C66.6328 56.543 67.7695 52.7578 71.8008 52.9922C74.6836 52.9336 76.957 55.7695 81.1758 55.8398C84.5273 55.8984 87.3516 53.3555 89.2617 52.4414L89.3438 48.1289C87.3516 48.8672 84.375 51.3047 81.4102 51.3281C77.1211 51.4922 74.4844 48.5156 71.5078 48.5508C67.9453 48.5859 66.5273 52.2188 60.4922 52.2188C54.9609 52.2188 53.6953 48.5508 50.1328 48.5508C46.6523 48.5742 45.5859 52.5352 39.5508 52.4648C34.6289 52.4063 32.7188 48.6797 29.2383 48.7148C25.5469 48.7148 21.7383 52.3359 17.6367 52.1602C12.0117 51.9258 10.7812 48.7148 7.08984 48.7148C4.33594 48.7148 1.34766 51.7148 -1.96875 51.7617C-5.27344 51.8203 -8.98828 48.7734 -9.32812 48.7148L-9.28125 53.2031ZM-9.28125 44.6484C-7.45313 45.5039 -4.82812 47.625 -2.01562 47.625C2.67188 47.5898 2.78906 44.4141 7.54688 44.5547C12.3164 44.6719 11.4492 48.0352 17.8828 48.0117C23.2031 48.0117 24.9141 43.957 29.5078 44.4375C32.9062 44.2617 34.2891 48.2695 39.5039 48.3164C44.918 48.4336 46.8984 43.957 50.2852 44.332C53.918 44.332 55.0898 47.9414 60.1641 47.9648C66.6328 48 67.7695 44.2148 71.8008 44.4492C74.6836 44.3906 76.957 47.2266 81.1758 47.2969C84.5273 47.3555 87.3516 44.8125 89.2617 43.8984L89.3438 39.5859C87.3516 40.3242 84.375 42.75 81.4102 42.7852C77.1211 42.9375 74.4844 39.9727 71.5078 40.0078C67.9453 40.043 66.5273 43.6758 60.4922 43.6758C54.9609 43.6758 53.6953 40.0078 50.1328 40.0078C46.6523 40.0313 45.5859 43.9922 39.5508 43.9219C34.6289 43.8633 32.7188 40.1367 29.2383 40.1719C25.5469 40.1719 21.7383 43.7813 17.6367 43.6055C12.0117 43.3711 10.7812 40.1602 7.08984 40.1602C4.33594 40.1602 1.34766 43.1719 -1.96875 43.2188C-5.27344 43.2656 -8.98828 40.2305 -9.32812 40.1719L-9.28125 44.6602V44.6484Z" fill="white"/>
<path fill-rule="evenodd" clip-rule="evenodd" d="M-9.28125 36.2109C-7.45313 37.0547 -4.82812 39.1641 -2.02734 39.1641C2.66016 39.1406 2.77734 35.9531 7.53516 36.1055C12.293 36.2227 11.4258 39.5742 17.8594 39.5625C23.168 39.5508 24.8906 35.4961 29.4609 35.9883C32.8594 35.8125 34.2422 39.8203 39.457 39.8672C44.8594 39.9844 46.8398 35.4961 50.2383 35.8711C53.8477 35.8711 55.043 39.4805 60.1055 39.5039C66.5508 39.5391 67.6875 35.7539 71.7305 35.9883C74.6016 35.9297 76.875 38.7656 81.082 38.8359C84.4453 38.8945 87.2578 36.3516 89.168 35.4375L89.25 31.125C87.2578 31.875 84.293 34.3008 81.3164 34.3242C77.0508 34.4883 74.4023 31.5234 71.4258 31.5469C67.875 31.582 66.457 35.2148 60.4102 35.2148C54.9023 35.2148 53.6367 31.5469 50.0742 31.5469C46.5938 31.582 45.5273 35.5312 39.5156 35.4609C34.5938 35.4023 32.6836 31.6875 29.2031 31.7109C25.5117 31.7109 21.7031 35.332 17.625 35.1562C11.9883 34.9219 10.7695 31.7109 7.07812 31.7109C4.32422 31.7109 1.34766 34.7109 -1.96875 34.7578C-5.27344 34.8164 -8.97656 31.7812 -9.32812 31.7109L-9.28125 36.1992V36.2109Z" fill="white"/>
<path fill-rule="evenodd" clip-rule="evenodd" d="M26.1562 8.90625C33.3047 8.41406 32.0156 7.80469 34.8867 7.33594C38.5195 7.83984 38.9297 10.0312 40.957 11.3789C40.957 11.3789 40.1953 13.957 37.7109 13.5938C37.3711 12.5625 38.9062 12.2344 34.4883 9.53906C31.9102 9.38672 27.3047 9.99609 26.168 8.90625H26.1562ZM48.3398 12.8789L43.1836 13.0898V14.3672C46.6641 14.4844 47.2852 14.0156 48.3398 12.8789Z" fill="#FFC84B" stroke="#D8AA3F" stroke-width="0.210938"/>
<path fill-rule="evenodd" clip-rule="evenodd" d="M30.6094 12.656C31.5117 12.199 31.957 12.3865 32.7422 12.363C33.2695 13.3357 33.7734 13.4177 34.9453 13.5349C35.4638 14.3034 36.159 14.9364 36.9725 15.3809C37.7861 15.8254 38.6943 16.0684 39.6211 16.0896C43.125 15.9959 44.2383 13.5466 46.5938 13.2771H49.0781C48.668 12.574 48.3398 12.1638 47.4375 12.1169C45.5859 12.0232 43.1953 12.0701 41.1094 12.5388L38.168 13.2771C37.3008 12.8552 35.2031 10.6521 33.8555 10.699C33.0703 10.9099 33.0703 11.1794 32.6836 11.4841C31.9219 11.8123 31.1602 11.6482 30.6094 12.656Z" fill="#FFC84B" stroke="#D8AA3F" stroke-width="0.199219" stroke-linejoin="round"/>
<path fill-rule="evenodd" clip-rule="evenodd" d="M34.1602 11.6019C34.1698 11.6559 34.1675 11.7114 34.1534 11.7644C34.1393 11.8173 34.1138 11.8666 34.0786 11.9087C34.0434 11.9507 33.9994 11.9845 33.9497 12.0077C33.9 12.0309 33.8459 12.043 33.791 12.043C33.7362 12.043 33.682 12.0309 33.6323 12.0077C33.5826 11.9845 33.5386 11.9507 33.5035 11.9087C33.4683 11.8666 33.4427 11.8173 33.4286 11.7644C33.4145 11.7114 33.4122 11.6559 33.4219 11.6019C33.4374 11.5153 33.4828 11.4369 33.5503 11.3804C33.6178 11.3239 33.703 11.293 33.791 11.293C33.879 11.293 33.9642 11.3239 34.0317 11.3804C34.0992 11.4369 34.1447 11.5153 34.1602 11.6019Z" fill="#FFC84B" stroke="#D8AA3F" stroke-width="0.199219"/>
<path fill-rule="evenodd" clip-rule="evenodd" d="M36.5625 12.6328C41.8242 6.29297 46.418 7.06641 52.418 6.63281C52.6172 7.37109 52.5352 8.47266 49.6875 9.44531C45.7734 10.0312 38.7773 14.1563 38.7422 14.1563C37.4414 14.0859 36.5273 12.7266 36.5625 12.6328Z" fill="#FFC84B" stroke="#D8AA3F" stroke-width="0.210938"/>
<path d="M47.3789 8.49609L51.2578 8.67188M46.957 9.14062L49.7813 9.375" stroke="#D9A43E" stroke-width="0.210938" stroke-linecap="round"/>
</g>
</g>
<defs>
<clipPath id="clip0_3732_59422">
<rect width="80" height="60" fill="white"/>
</clipPath>
</defs>
</svg>
