<svg width="80" height="60" viewBox="0 0 80 60" fill="none" xmlns="http://www.w3.org/2000/svg">
<g clip-path="url(#clip0_3732_59454)">
<mask id="mask0_3732_59454" style="mask-type:luminance" maskUnits="userSpaceOnUse" x="-1" y="0" width="82" height="61">
<path d="M-0.00195312 0.00292969H80.002V60.0029H-0.00195312V0.00292969Z" fill="white"/>
</mask>
<g mask="url(#mask0_3732_59454)">
<path fill-rule="evenodd" clip-rule="evenodd" d="M-0.00195312 0.00292969H80.0137V60.0029H-0.00195312V0.00292969Z" fill="white"/>
<path fill-rule="evenodd" clip-rule="evenodd" d="M8.76758 18.2256L17.0902 5.74627L19.1701 7.13338L10.8475 19.6127L8.76758 18.2256ZM11.8874 20.3063L20.2101 7.82694L22.29 9.21405L13.9673 21.6934L11.8874 20.3063ZM15.0072 22.3869L23.3299 9.9076L25.4098 11.2947L17.0871 23.774L15.0072 22.3869Z" fill="black"/>
<path fill-rule="evenodd" clip-rule="evenodd" d="M8.76758 18.2256L17.0902 5.74627L19.1701 7.13338L10.8475 19.6127L8.76758 18.2256ZM11.8874 20.3063L20.2101 7.82694L22.29 9.21405L13.9673 21.6934L11.8874 20.3063ZM15.0072 22.3869L23.3299 9.9076L25.4098 11.2947L17.0871 23.774L15.0072 22.3869Z" fill="black"/>
<path fill-rule="evenodd" clip-rule="evenodd" d="M57.6465 41.8086L68.0459 48.7442L57.6465 41.8086Z" fill="black"/>
<path d="M57.6465 41.8086L68.0459 48.7442" stroke="white" stroke-width="1.25"/>
<path fill-rule="evenodd" clip-rule="evenodd" d="M27.4883 21.6953C29.6956 18.3856 33.1273 16.0883 37.0284 15.3088C40.9295 14.5292 44.9805 15.3314 48.2903 17.5387C51.6 19.746 53.8973 23.1777 54.6768 27.0788C55.4563 30.9799 54.6542 35.0309 52.4469 38.3407L27.4883 21.6953Z" fill="#CD2E3A"/>
<path fill-rule="evenodd" clip-rule="evenodd" d="M27.4887 21.6955C25.2814 25.0052 24.4793 29.0562 25.2588 32.9574C26.0383 36.8585 28.3356 40.2902 31.6453 42.4975C34.9551 44.7048 39.0061 45.5069 42.9072 44.7274C46.8083 43.9479 50.24 41.6505 52.4473 38.3408C53.551 36.686 53.952 34.6605 53.5623 32.7099C53.1725 30.7593 52.0239 29.0435 50.369 27.9398C48.7141 26.8362 46.6886 26.4351 44.7381 26.8249C42.7875 27.2146 41.0717 28.3633 39.968 30.0182L27.4887 21.6955Z" fill="#0047A0"/>
<path d="M39.9678 30.0176C42.266 26.5715 41.3355 21.9148 37.8895 19.6166C34.4434 17.3183 29.7867 18.2488 27.4885 21.6949C25.1902 25.141 26.1207 29.7977 29.5668 32.0959C33.0129 34.3941 37.6696 33.4636 39.9678 30.0176Z" fill="#CD2E3A"/>
<path fill-rule="evenodd" clip-rule="evenodd" d="M17.1201 54.2979L8.79745 41.8185L10.8773 40.4314L19.2 52.9107L17.1201 54.2979ZM20.2399 52.2172L11.9173 39.7379L13.9972 38.3508L22.3198 50.8301L20.2399 52.2172ZM23.3598 50.1365L15.0371 37.6572L17.117 36.2701L25.4397 48.7494L23.3598 50.1365Z" fill="black"/>
<path fill-rule="evenodd" clip-rule="evenodd" d="M17.1201 54.2979L8.79745 41.8185L10.8773 40.4314L19.2 52.9107L17.1201 54.2979ZM20.2399 52.2172L11.9173 39.7379L13.9972 38.3508L22.3198 50.8301L20.2399 52.2172ZM23.3598 50.1365L15.0371 37.6572L17.117 36.2701L25.4397 48.7494L23.3598 50.1365Z" fill="black"/>
<path fill-rule="evenodd" clip-rule="evenodd" d="M15.5586 46.3242L18.6784 44.2436L15.5586 46.3242ZM57.6763 18.2352L61.3161 15.8078L57.6763 18.2352ZM64.4359 13.7271L67.5557 11.6464L64.4359 13.7271Z" fill="black"/>
<path d="M15.5586 46.3242L18.6784 44.2436M57.6763 18.2352L61.3161 15.8078M64.4359 13.7271L67.5557 11.6464" stroke="white" stroke-width="1.25"/>
</g>
</g>
<defs>
<clipPath id="clip0_3732_59454">
<rect width="80" height="60" fill="white"/>
</clipPath>
</defs>
</svg>
