<svg width="80" height="60" viewBox="0 0 80 60" fill="none" xmlns="http://www.w3.org/2000/svg">
<g clip-path="url(#clip0_3732_59476)">
<mask id="mask0_3732_59476" style="mask-type:luminance" maskUnits="userSpaceOnUse" x="-1" y="0" width="81" height="60">
<path d="M-0.0107422 0H79.9932V60H-0.0107422V0Z" fill="white"/>
</mask>
<g mask="url(#mask0_3732_59476)">
<path fill-rule="evenodd" clip-rule="evenodd" d="M-5.0498 0H85.0439V60H-5.0498V0Z" fill="#FF0000"/>
<path fill-rule="evenodd" clip-rule="evenodd" d="M22.3135 30.5977C23.9072 28.6523 27.2236 30.5508 29.9307 29.1563C26.7197 29.332 24.9736 27.6094 22.4424 27.8555C25.0674 26.2383 27.3057 28.3828 30.2354 27.5273C26.3564 27.1992 26.5205 25.4531 22.9814 25.207C26.1221 23.8711 27.6689 26.5898 30.751 25.9688C27.1182 25.1367 26.6494 23.0039 23.9541 22.5469C27.8916 21.9609 27.6338 24.2813 31.4893 24.5625C27.5752 22.8867 28.5947 21.4219 25.3252 20.1445C28.9932 20.0625 28.7471 22.6055 32.4736 23.2617C29.2861 21.2461 29.6729 19.4063 27.0596 17.9648C30.165 18.0234 30.458 21.1992 33.6338 22.1836C30.8096 19.9453 31.5479 18.0469 29.1104 16.043C32.2041 16.7695 31.7471 19.5117 34.9697 21.2695C32.5791 18.6211 33.4932 16.7227 31.4189 14.5547C34.3955 15.5039 33.2588 18.1172 36.3408 20.6016C34.583 17.6836 35.6729 15.8203 33.9268 13.3711C36.6924 14.7891 35.3564 17.4609 37.9111 20.1094C36.7041 17.1211 37.9111 15.2695 36.6807 12.6211C39.0479 14.3789 37.6416 17.2266 39.5518 19.9453C38.8486 16.1953 40.4658 15.5859 39.9619 12.3047C41.7549 14.5078 39.751 16.7109 41.1338 19.957C40.958 16.2656 42.9268 15.4102 42.5869 12.457C44.3564 15.1055 41.5908 17.4141 42.751 20.25C43.0439 16.7578 45.3408 15.8438 45.376 13.125C46.7822 15.6211 43.7354 17.4258 44.2275 20.7422C45.2236 17.0859 47.6729 16.6406 47.9775 14.1797C48.8096 17.0625 45.4697 18.3984 45.6689 21.6094C46.665 18.3633 49.7236 17.9766 50.3564 15.5859C50.7432 18.6328 47.7314 19.1836 46.876 22.5586C48.458 19.8047 51.2354 19.582 52.4775 17.4023C52.3838 20.4258 48.9854 20.8242 47.9424 23.6484C49.8994 21.2461 52.3604 21.6562 54.3174 19.5352C54.1064 22.2656 50.6494 22.1133 48.8096 24.9375C50.9307 22.9805 54.1299 23.5664 55.7588 21.8789C55.6768 24.293 51.4346 24.1055 49.4307 26.2734C51.8916 24.9141 55.0322 25.7109 56.8369 24.457C56.5088 26.5664 52.0322 26.0742 49.8877 27.7383C52.8408 26.918 55.126 28.1719 57.5049 27.2695C56.3447 29.3203 52.2783 28.0195 50.1221 29.3555C52.7002 28.9219 55.4189 30.4805 57.751 29.9766C56.9893 31.7578 52.5244 29.8594 50.1338 30.9727C52.9932 30.9492 54.8564 32.7891 57.5166 32.6602C56.0752 34.2773 52.1611 32.0625 49.876 32.4375C52.665 33.0234 54.7979 35.3203 56.9072 35.4375C55.1611 36.7617 51.9268 33.7383 49.29 34.1133C52.0088 34.8398 54.2822 37.9219 55.8291 37.9922C54.1533 39.1406 50.8486 35.3555 48.5869 35.4961C51.3408 36.7383 52.5947 39.8906 54.4111 40.3359C52.1729 41.0508 49.9697 36.9141 47.5674 36.7617C50.3564 38.5195 50.5088 41.2148 52.6533 42.4102C50.3916 42.9609 48.7861 38.2852 46.4072 37.8867C48.6924 39.5625 49.0439 43.1602 50.5557 44.2852C48.2588 44.4023 47.4268 39.5156 45.0713 38.8125C47.0869 40.5 46.6064 44.1563 48.1768 45.7266C45.7861 45.2227 46.0908 40.9688 43.5947 39.5273C45.3877 41.8008 44.4736 45.0234 45.6455 46.8398C43.3135 45.9023 44.3213 42.082 42.1064 39.9258C43.3135 42.3398 42.0127 45.1523 42.9736 47.4844C40.8408 46.4414 42.2705 41.9297 40.6416 40.1367C41.3916 42.9258 40.0088 45.2344 40.5713 47.7305C38.3916 45.2109 40.8994 42.668 39.0127 40.1016C39.5049 43.043 37.4424 45.1055 37.7705 47.5664C36.0479 45.5508 38.708 42.3281 37.3604 39.7852C37.6416 42.6797 34.9814 45.2227 35.1689 47.0508C33.7627 44.707 36.7275 41.9414 35.9307 39.2813C35.7666 42.0469 33.0713 43.5469 32.5674 46.0664C31.665 43.2891 34.8643 41.2852 34.583 38.5547C33.6689 41.1445 31.0674 42.1875 30.1533 44.707C29.4033 41.9297 33.2002 40.4648 33.2939 37.5586C32.1221 40.2773 29.0166 40.8867 27.9854 42.9727C27.5986 40.2188 31.9463 38.9883 32.1104 36.375C30.7041 38.8828 27.3057 38.9883 26.1338 40.9805C25.958 38.2383 30.54 37.8984 31.2549 35.0273C29.8604 37.1602 26.1338 36.8906 24.5752 38.625C24.8213 36.082 29.7783 35.9297 30.5752 33.6328C28.7236 35.4141 25.3018 34.6875 23.3682 36.0938C24.4463 33.5859 29.0986 34.1133 30.1416 32.3086C28.0908 33.375 24.4463 32.332 22.6416 33.4102C24.2822 31.043 27.8916 32.4609 29.9424 30.832C26.6143 31.3125 24.6104 29.9883 22.3018 30.5977H22.3135Z" fill="#FFFF00"/>
<path fill-rule="evenodd" clip-rule="evenodd" d="M51.6689 30.0117C51.6689 33.0964 50.4436 36.0548 48.2623 38.236C46.0811 40.4172 43.1228 41.6426 40.0381 41.6426C36.9534 41.6426 33.995 40.4172 31.8138 38.236C29.6326 36.0548 28.4072 33.0964 28.4072 30.0117C28.4072 26.9286 29.632 23.9717 31.8121 21.7916C33.9922 19.6115 36.9491 18.3867 40.0322 18.3867C43.1154 18.3867 46.0722 19.6115 48.2523 21.7916C50.4325 23.9717 51.6572 26.9286 51.6572 30.0117H51.6689Z" fill="#FFFF00"/>
<path fill-rule="evenodd" clip-rule="evenodd" d="M50.1689 30.0352C50.1689 32.7174 49.1034 35.2897 47.2068 37.1863C45.3102 39.0829 42.7379 40.1484 40.0557 40.1484C37.3735 40.1484 34.8011 39.0829 32.9045 37.1863C31.0079 35.2897 29.9424 32.7174 29.9424 30.0352C29.9424 27.3529 31.0079 24.7806 32.9045 22.884C34.8011 20.9874 37.3735 19.9219 40.0557 19.9219C42.7379 19.9219 45.3102 20.9874 47.2068 22.884C49.1034 24.7806 50.1689 27.3529 50.1689 30.0352Z" fill="#FF0000"/>
<path fill-rule="evenodd" clip-rule="evenodd" d="M48.7627 30.0586C48.7627 32.3616 47.8478 34.5703 46.2193 36.1988C44.5908 37.8273 42.3821 38.7422 40.0791 38.7422C37.7761 38.7422 35.5674 37.8273 33.9389 36.1988C32.3104 34.5703 31.3955 32.3616 31.3955 30.0586C31.3955 27.7556 32.3104 25.5469 33.9389 23.9184C35.5674 22.2899 37.7761 21.375 40.0791 21.375C42.3821 21.375 44.5908 22.2899 46.2193 23.9184C47.8478 25.5469 48.7627 27.7556 48.7627 30.0586Z" fill="#FFFF00"/>
<path fill-rule="evenodd" clip-rule="evenodd" d="M32.6846 24.375C35.0869 24.3164 38.0752 24.5391 40.0557 26.1094C42.1714 24.7889 44.6624 24.2001 47.1455 24.4336L48.4346 26.7891C46.4315 26.6063 44.4149 26.937 42.5752 27.75C43.8901 28.7198 44.9472 29.997 45.6541 31.47C46.3609 32.943 46.696 34.5668 46.6299 36.1992C46.3135 36.5977 45.8096 37.0312 45.4932 37.4297C45.9619 34.0898 44.2041 30.3633 41.6377 28.4062C43.7236 31.4062 44.9541 34.1016 44.6143 37.8281L43.4424 38.5781C43.9814 35.2969 43.208 31.4297 40.7822 29.2031C42.1885 31.2539 43.5713 34.9453 42.7041 38.6953C42.3291 38.8125 41.7432 39.1289 41.3682 39.2344C41.8276 37.6958 41.9523 36.0768 41.734 34.486C41.5157 32.8952 40.9594 31.3696 40.1025 30.0117C38.4853 32.332 37.958 35.8711 38.8721 39.1523C38.4268 39.0352 38.0869 38.8945 37.6299 38.7891C36.9619 35.2734 37.8877 31.2891 39.4932 29.2148C37.8525 30.1641 36.3174 34.2187 36.751 38.3555L35.6611 37.8516C35.1338 34.7695 36.5283 30.75 38.5322 28.4297C36.2588 29.8594 34.4072 33.3867 34.7236 37.1719C34.3721 36.8672 34.0557 36.7148 33.7041 36.3984C33.3057 33.0938 35.2275 29.7656 37.4658 27.7734C35.5791 26.918 33.9502 26.7539 31.6064 26.7891C31.9697 26.0273 32.3096 25.1367 32.6846 24.3633V24.375Z" fill="#FF0000"/>
</g>
</g>
<defs>
<clipPath id="clip0_3732_59476">
<rect width="80" height="60" fill="white"/>
</clipPath>
</defs>
</svg>
