<svg width="80" height="60" viewBox="0 0 80 60" fill="none" xmlns="http://www.w3.org/2000/svg">
<g clip-path="url(#clip0_3732_59509)">
<mask id="mask0_3732_59509" style="mask-type:luminance" maskUnits="userSpaceOnUse" x="0" y="0" width="80" height="60">
<path d="M0.00390625 0H79.9961V60H0.00390625V0Z" fill="white"/>
</mask>
<g mask="url(#mask0_3732_59509)">
<path fill-rule="evenodd" clip-rule="evenodd" d="M-5 45H85V60H-5V45ZM-5 0H85V15H-5V0Z" fill="#FF0000"/>
<path fill-rule="evenodd" clip-rule="evenodd" d="M-5 15H85V45H-5V15Z" fill="white"/>
<path d="M39.5429 15.2344C38.6288 17.0508 38.0195 17.0508 36.496 18.2813C35.8866 18.8789 34.9726 19.1836 36.1913 19.8047C34.9609 20.4023 34.3515 20.707 33.7421 21.9258L34.0468 22.2305C34.0468 22.2305 35.2187 21.668 35.2655 21.9258C35.4765 22.1719 33.7421 23.0977 33.5194 23.25L32.2304 24.0703C30.6952 25.2773 29.7694 24.9727 28.8671 26.8008L31.914 26.4961C32.5234 28.6289 30.3905 28.9336 28.8671 29.8477L26.4179 31.3711C27.039 33.5039 28.8671 32.2852 30.3905 31.6758L30.6952 31.9805V32.5898L27.6484 34.1133C27.6484 34.1133 24.039 36.1758 23.9804 36.2461C23.9569 36.3633 23.9804 36.8555 23.9804 36.8555C25.1991 37.1602 27.0273 37.4648 28.2577 36.8555C29.7812 36.2461 30.0859 35.6367 31.914 35.6367C30.1544 37.0097 28.0413 37.8549 25.8202 38.0742V39.293C27.6484 39.293 28.8671 39.293 30.3905 38.9883L34.3515 37.7695C35.2655 37.7695 36.1913 38.6836 35.8749 39.5977C34.9726 42.9492 31.3046 42.3398 30.0859 45.082L34.9609 43.2422C36.1796 42.6328 37.3984 42.0352 38.9218 42.3398C40.7499 42.9492 40.7499 44.168 43.1874 44.7773L42.578 43.2539C43.1874 43.5586 43.7968 43.5586 44.4179 43.8633C45.9413 44.4727 46.246 45.082 48.0741 44.7773C46.5507 42.9492 46.246 43.2539 45.0273 42.0352C43.8085 40.207 43.1874 37.4648 45.0273 37.1602L47.1601 37.7695C49.2929 38.0742 49.2929 37.4648 52.3398 38.6836C54.1796 39.293 54.789 40.207 56.9101 39.5977C56.0077 37.4648 52.6562 35.9414 50.5116 35.332C52.9609 33.8086 52.3398 35.9414 55.703 35.0273V34.418C53.2773 32.5781 52.3515 31.0547 48.9999 31.0547L54.1913 30.4453V29.8359C54.1913 29.8359 49.0702 28.5 48.953 28.4414C48.9882 28.2891 49.1171 28.0547 49.457 27.9141C50.4296 28.5469 53.3593 28.4766 53.5351 28.4648C53.4413 27.7148 52.0468 27.0938 50.8398 26.4844C50.8398 26.4844 45.6015 23.2617 45.578 22.9805C45.6835 22.1602 47.7226 23.1094 49.914 23.7422C49.3046 22.5234 48.0859 21.9141 46.8671 21.6094L48.6952 21.3047C47.4765 18.5625 44.4296 18.8672 42.6015 17.6484C41.371 16.7344 41.371 16.125 39.5429 15.2227V15.2344Z" fill="#007900"/>
<path fill-rule="evenodd" clip-rule="evenodd" d="M36.25 35.5078C36.4727 34.7929 36.7656 34.1484 35.4062 33.5273C34.0469 32.9062 36.0859 36 36.25 35.5195V35.5078ZM37.8555 34.0664C37.5859 34.1015 37.4336 35.0976 37.9844 35.3789C38.5938 35.4726 38.1016 34.0781 37.8555 34.0664ZM39.4375 33.9492C39.1562 34.0429 39.1445 35.4492 40.1406 35.1914C41.1484 34.9453 40.1406 33.8437 39.4375 33.9609V33.9492ZM41.2891 30.3515C41.5 30 41.2773 28.5937 40.4219 29.1797C39.5547 29.7773 41.0078 30.4453 41.2891 30.3515ZM39.4141 29.1797C39.6836 29.0742 39.707 28.207 38.9453 28.4414C38.207 28.664 39.2148 29.3554 39.4141 29.1797ZM37.7266 29.5195C37.7266 29.5195 37.1992 28.7929 36.7891 28.9453C36.2852 29.4375 37.7617 29.5312 37.7266 29.5195ZM31.9141 31.8398C32.1367 31.8632 33.7891 31.5703 34.3633 30.9257C34.9375 30.2812 31.4219 31.1953 31.4219 31.207C31.4219 31.2187 31.75 31.7812 31.9141 31.8398ZM48.4492 27.7382C48.5312 27.5859 47.5703 26.9062 46.9961 27.1757C46.8438 27.6797 48.4492 27.8437 48.4492 27.7382ZM45.1914 26.0976C45.3789 25.8398 44.7812 24.7734 43.5859 25.3711C42.3906 25.957 44.8398 26.5195 45.1914 26.1093V26.0976ZM41.4297 25.4765C41.4297 25.4765 41.7227 24.5156 42.4375 24.7031C43.2578 25.3242 41.4648 25.5117 41.4297 25.4765ZM40.7266 24.75C40.6094 24.4804 39.8711 24.6328 39.0156 25.207C38.1484 25.7578 40.9844 25.3711 40.7266 24.7382V24.75ZM42.918 22.1601C42.918 22.1601 43.6797 21.8086 43.9141 22.1601C44.2305 22.664 42.9062 22.1601 42.918 22.1601ZM42.2734 21.8203C42.1211 21.5156 41.2773 21.4804 41.3008 21.9375C41.1602 22.289 42.4023 22.2187 42.2734 21.8203ZM40.2578 21.8203C40.1758 21.6445 38.9687 21.8203 38.6172 22.5468C39.2031 22.8281 40.5273 22.2773 40.2578 21.8203ZM37.6797 22.5586C37.6797 22.5586 36.1094 23.5312 36.0039 24.2343C36.0508 24.8437 37.9727 23.1328 37.9727 23.1328C37.9727 23.1328 38.1367 22.4531 37.6914 22.5586H37.6797ZM35.9336 21.6797C35.9805 21.4804 36.7187 21.0234 36.7773 21.0586C36.8359 21.2578 36.1797 21.7968 35.9336 21.6797ZM36.4375 25.3828C36.4727 25.0898 34.5625 25.1132 35.2773 25.9922C35.8867 26.7304 36.5664 25.5117 36.4375 25.3828ZM34.6797 26.6367C34.5859 26.4492 34.4453 25.9336 34.1875 25.8867C33.9648 25.8867 32.8164 26.1211 32.7227 26.3086C32.6758 26.4609 33.2031 27.4101 33.3789 27.4336C33.5898 27.5156 34.6562 26.7304 34.6914 26.6367H34.6797ZM45.0391 33.1054C45.0977 32.8945 47.0664 32.2265 47.7344 32.8711C48.5312 33.9609 44.9922 33.457 45.0391 33.1054ZM50.4297 34.3828C50.8633 33.6562 49.1055 32.789 48.3672 33.6211C48.625 34.6172 50.0781 34.9804 50.4297 34.3828Z" fill="white" stroke="white" stroke-width="0.375" stroke-linecap="round" stroke-linejoin="round"/>
</g>
</g>
<defs>
<clipPath id="clip0_3732_59509">
<rect width="80" height="60" fill="white"/>
</clipPath>
</defs>
</svg>
