<svg width="80" height="60" viewBox="0 0 80 60" fill="none" xmlns="http://www.w3.org/2000/svg">
<g clip-path="url(#clip0_3732_59517)">
<path d="M0 0H80V60H0V0Z" fill="white"/>
<path d="M0 42H80V60H0V42Z" fill="#009543"/>
<path d="M0 0H80V18H0V0Z" fill="#00209F"/>
<path d="M39.95 19.1251C39.6125 19.1251 39.275 19.5001 39.275 19.5001L39.3125 23.5501L38.025 24.8876H39.0625V27.2001L32.9375 35.4501L32.0374 35.1251L30.45 38.5001C30.45 38.5001 34.3624 40.9501 40.0374 40.8751C46.2624 40.8126 49.65 38.3876 49.65 38.3876L48.025 35.0626L47.2125 35.4126L41.0125 27.2126V24.8251H42.0374L40.6375 23.5001V19.4751C40.6375 19.4751 40.3 19.1001 39.95 19.1126V19.1251Z" fill="black" stroke="black" stroke-width="0.2"/>
<path d="M42.0875 28.8003H37.85C37.85 28.8003 36.325 25.5628 36.5625 23.3003C36.8125 21.0003 38.1375 19.9128 39.8875 19.8878C41.9625 19.8753 43.0375 20.9003 43.3625 23.2128C43.6875 25.5003 42.0875 28.8003 42.0875 28.8003Z" stroke="black"/>
<path d="M32.5626 36.5123C32.4876 36.5998 31.9751 37.6248 31.9751 37.6248L32.8501 37.4373L32.5626 36.5123ZM33.0626 37.8248L32.1376 38.1248L33.2501 38.5623L33.0626 37.8248ZM33.4751 36.5373L33.9376 37.8998L35.0626 37.5748L34.7751 36.9248L33.4751 36.5373ZM34.2001 38.3873L34.3501 38.9373L35.8501 39.3123L35.2501 38.0373L34.2001 38.3873ZM35.8501 37.2248L36.3876 38.4998L37.5126 38.0623L37.1376 37.4998L35.8501 37.2248ZM36.6001 38.9623L36.7751 39.4373L38.5251 39.6873L37.7876 38.5373L36.5876 38.9623H36.6001ZM38.2751 37.5873L38.9251 38.7248L40.5501 38.1248L40.3751 37.6873L38.2751 37.5998V37.5873ZM39.2251 39.1373L39.5626 39.7373L41.5876 39.6748L40.8376 38.5498L39.2126 39.1373H39.2251ZM41.3626 37.6373L41.9126 38.5873L43.2126 37.9623L42.8626 37.4623L41.3626 37.6373ZM43.4876 38.3623L42.2001 38.9998L42.5376 39.5623L44.2626 39.2873L43.4876 38.3623ZM43.9001 37.3623L44.5626 38.1998L45.6501 37.3373L45.2751 36.9623L43.9001 37.3623ZM45.8876 37.7998L44.8501 38.5873L45.1251 39.0748L46.5501 38.6998L45.8876 37.7998ZM47.3126 36.1748L47.5626 36.5373L46.8501 37.5998L46.1126 36.6498L47.3126 36.1748ZM47.8001 37.0873L48.2376 37.9623L47.3626 38.2623L47.2876 37.8498L47.7876 37.0998L47.8001 37.0873Z" fill="white"/>
</g>
<defs>
<clipPath id="clip0_3732_59517">
<rect width="80" height="60" fill="white"/>
</clipPath>
</defs>
</svg>
