<svg width="80" height="60" viewBox="0 0 80 60" fill="none" xmlns="http://www.w3.org/2000/svg">
<g clip-path="url(#clip0_3734_59549)">
<mask id="mask0_3734_59549" style="mask-type:luminance" maskUnits="userSpaceOnUse" x="0" y="0" width="80" height="60">
<path d="M0.00390625 0H79.9959V60H0.00390625V0Z" fill="white"/>
</mask>
<g mask="url(#mask0_3734_59549)">
<path d="M-20 0H100V60H-20V0Z" fill="#239E46"/>
<path d="M-20 0H100V45H-20V0Z" fill="black"/>
<path d="M-20 0H100V15H-20V0Z" fill="#E70013"/>
<path d="M45.3041 24.696C44.3297 24.0007 43.1827 23.5872 41.9888 23.501C40.795 23.4147 39.6004 23.6589 38.5362 24.2069C37.472 24.7548 36.5793 25.5853 35.9561 26.6072C35.3328 27.6292 35.0031 28.803 35.0031 30C35.0031 31.197 35.3328 32.3708 35.9561 33.3928C36.5793 34.4147 37.472 35.2452 38.5362 35.7931C39.6004 36.3411 40.795 36.5853 41.9888 36.4991C43.1827 36.4128 44.3297 35.9993 45.3041 35.304C44.2551 36.3527 42.9187 37.0668 41.4639 37.356C40.0091 37.6453 38.5012 37.4966 37.1309 36.9289C35.7605 36.3612 34.5893 35.3999 33.7653 34.1666C32.9413 32.9333 32.5015 31.4833 32.5015 30C32.5015 28.5167 32.9413 27.0668 33.7653 25.8334C34.5893 24.6001 35.7605 23.6388 37.1309 23.0711C38.5012 22.5034 40.0091 22.3547 41.4639 22.644C42.9187 22.9332 44.2551 23.6473 45.3041 24.696ZM43.6481 30L53.7401 26.724L47.5001 35.304V24.696L53.7401 33.276L43.6481 30Z" fill="white"/>
</g>
</g>
<defs>
<clipPath id="clip0_3734_59549">
<rect width="80" height="60" fill="white"/>
</clipPath>
</defs>
</svg>
