<svg width="80" height="60" viewBox="0 0 80 60" fill="none" xmlns="http://www.w3.org/2000/svg">
<g clip-path="url(#clip0_3734_59605)">
<path d="M0 0H80V30H0V0Z" fill="#002B7F"/>
<path d="M0 30H80V60H0V30Z" fill="#CE1126"/>
<path d="M21.6399 12.2296L21.4499 18.4796H15.1099C14.3299 16.9596 13.6899 15.6796 13.6899 13.9296C13.6899 12.4696 14.8399 11.3096 16.4899 11.3096C18.2399 11.3096 20.1699 11.8996 21.6399 12.2296Z" fill="#FFD83D"/>
<path d="M14.45 12.5198V16.1198V12.5198ZM14.95 12.1498V16.9498V12.1498ZM15.47 11.8998V17.6198V11.8998ZM15.97 11.7798V16.2698V11.7798ZM16.48 11.7598V16.2898V11.7598ZM16.99 11.5898V16.2898V11.5898ZM17.5 11.5898V16.2898V11.5898ZM18.01 11.6398V16.3398V11.6398ZM18.52 11.6898V16.3798V11.6898ZM19.03 11.9798V16.6798V11.9798ZM19.53 12.0298V17.3198V12.0298ZM20.05 12.0298V16.7298V12.0298ZM20.55 12.0298V16.7298V12.0298Z" fill="#FFD83D"/>
<path d="M14.45 12.5198V16.1198M14.95 12.1498V16.9498M15.47 11.8998V17.6198M15.97 11.7798V16.2698M16.48 11.7598V16.2898M16.99 11.5898V16.2898M17.5 11.5898V16.2898M18.01 11.6398V16.3398M18.52 11.6898V16.3798M19.03 11.9798V16.6798M19.53 12.0298V17.3198M20.05 12.0298V16.7298M20.55 12.0298V16.7298" stroke="black" stroke-width="0.15" stroke-linecap="round" stroke-linejoin="round"/>
<path d="M17.64 11.7998C18.72 11.9698 21.08 13.0798 20.81 14.5698C20.43 16.6898 19.19 15.8398 17.55 15.5398L16.31 15.9498C15.86 16.3998 15.21 16.8198 14.77 16.2698H14.03V19.1498H22.17V12.1998L17.64 11.7998Z" fill="black" stroke="black" stroke-width="0.15" stroke-linecap="round" stroke-linejoin="round"/>
<path d="M21.28 11.7896C21.5507 11.7896 21.77 11.5702 21.77 11.2996C21.77 11.029 21.5507 10.8096 21.28 10.8096C21.0094 10.8096 20.79 11.029 20.79 11.2996C20.79 11.5702 21.0094 11.7896 21.28 11.7896Z" fill="#FFD83D" stroke="black" stroke-width="0.2" stroke-linecap="round" stroke-linejoin="round"/>
<path d="M20.1699 11.52C20.4406 11.52 20.6599 11.3007 20.6599 11.03C20.6599 10.7594 20.4406 10.54 20.1699 10.54C19.8993 10.54 19.6799 10.7594 19.6799 11.03C19.6799 11.3007 19.8993 11.52 20.1699 11.52Z" fill="#FFD83D" stroke="black" stroke-width="0.2" stroke-linecap="round" stroke-linejoin="round"/>
<path d="M19.04 11.2398C19.3107 11.2398 19.53 11.0204 19.53 10.7498C19.53 10.4791 19.3107 10.2598 19.04 10.2598C18.7694 10.2598 18.55 10.4791 18.55 10.7498C18.55 11.0204 18.7694 11.2398 19.04 11.2398Z" fill="#FFD83D" stroke="black" stroke-width="0.2" stroke-linecap="round" stroke-linejoin="round"/>
<path d="M17.9102 11.0503C18.1808 11.0503 18.4002 10.8309 18.4002 10.5603C18.4002 10.2897 18.1808 10.0703 17.9102 10.0703C17.6395 10.0703 17.4202 10.2897 17.4202 10.5603C17.4202 10.8309 17.6395 11.0503 17.9102 11.0503Z" fill="#FFD83D" stroke="black" stroke-width="0.2" stroke-linecap="round" stroke-linejoin="round"/>
<path d="M16.78 10.94C17.0507 10.94 17.27 10.7206 17.27 10.45C17.27 10.1793 17.0507 9.95996 16.78 9.95996C16.5094 9.95996 16.29 10.1793 16.29 10.45C16.29 10.7206 16.5094 10.94 16.78 10.94Z" fill="#FFD83D" stroke="black" stroke-width="0.2" stroke-linecap="round" stroke-linejoin="round"/>
<path d="M15.6799 10.9995C15.9506 10.9995 16.1699 10.7802 16.1699 10.5095C16.1699 10.2389 15.9506 10.0195 15.6799 10.0195C15.4093 10.0195 15.1899 10.2389 15.1899 10.5095C15.1899 10.7802 15.4093 10.9995 15.6799 10.9995Z" fill="#FFD83D" stroke="black" stroke-width="0.2" stroke-linecap="round" stroke-linejoin="round"/>
<path d="M14.6201 11.3599C14.8907 11.3599 15.1101 11.1405 15.1101 10.8699C15.1101 10.5993 14.8907 10.3799 14.6201 10.3799C14.3495 10.3799 14.1301 10.5993 14.1301 10.8699C14.1301 11.1405 14.3495 11.3599 14.6201 11.3599Z" fill="#FFD83D" stroke="black" stroke-width="0.2" stroke-linecap="round" stroke-linejoin="round"/>
<path d="M13.73 12.02C14.0006 12.02 14.22 11.8007 14.22 11.53C14.22 11.2594 14.0006 11.04 13.73 11.04C13.4594 11.04 13.24 11.2594 13.24 11.53C13.24 11.8007 13.4594 12.02 13.73 12.02Z" fill="#FFD83D" stroke="black" stroke-width="0.2" stroke-linecap="round" stroke-linejoin="round"/>
<path d="M13.1001 12.9302C13.3707 12.9302 13.5901 12.7108 13.5901 12.4402C13.5901 12.1696 13.3707 11.9502 13.1001 11.9502C12.8295 11.9502 12.6101 12.1696 12.6101 12.4402C12.6101 12.7108 12.8295 12.9302 13.1001 12.9302Z" fill="#FFD83D" stroke="black" stroke-width="0.2" stroke-linecap="round" stroke-linejoin="round"/>
<path d="M12.79 14.0103C13.0607 14.0103 13.28 13.7909 13.28 13.5203C13.28 13.2497 13.0607 13.0303 12.79 13.0303C12.5194 13.0303 12.3 13.2497 12.3 13.5203C12.3 13.7909 12.5194 14.0103 12.79 14.0103Z" fill="#FFD83D" stroke="black" stroke-width="0.2" stroke-linecap="round" stroke-linejoin="round"/>
<path d="M12.8001 15.1196C13.0707 15.1196 13.2901 14.9003 13.2901 14.6296C13.2901 14.359 13.0707 14.1396 12.8001 14.1396C12.5294 14.1396 12.3101 14.359 12.3101 14.6296C12.3101 14.9003 12.5294 15.1196 12.8001 15.1196Z" fill="#FFD83D" stroke="black" stroke-width="0.2" stroke-linecap="round" stroke-linejoin="round"/>
<path d="M13.02 16.2095C13.2906 16.2095 13.51 15.9901 13.51 15.7195C13.51 15.4489 13.2906 15.2295 13.02 15.2295C12.7494 15.2295 12.53 15.4489 12.53 15.7195C12.53 15.9901 12.7494 16.2095 13.02 16.2095Z" fill="#FFD83D" stroke="black" stroke-width="0.2" stroke-linecap="round" stroke-linejoin="round"/>
<path d="M21.5001 11.9503L21.4501 12.6003C20.2201 12.4003 18.4801 11.7203 16.8501 11.7203C15.3501 11.7203 14.1901 12.3203 14.1901 13.8403C14.1901 15.3303 14.8201 16.6903 15.6601 18.0703L14.7901 18.4703C14.0101 16.9703 13.3601 15.6703 13.3601 13.9303C13.3601 12.4703 14.5101 11.0303 16.4901 11.0303C18.2401 11.0303 20.0301 11.6303 21.5001 11.9503Z" fill="#FFD83D" stroke="black" stroke-width="0.2" stroke-linecap="round" stroke-linejoin="round"/>
<path d="M22.7602 12.2296L22.9502 18.4796H29.2902C30.0702 16.9596 30.7102 15.6796 30.7102 13.9296C30.7102 12.4696 29.5602 11.3096 27.9102 11.3096C26.1602 11.3096 24.2302 11.8996 22.7602 12.2296Z" fill="#FFD83D"/>
<path d="M29.9502 12.5198V16.1198V12.5198ZM29.4502 12.1498V16.9498V12.1498ZM28.9302 11.8998V17.6198V11.8998ZM28.4302 11.7798V16.2698V11.7798ZM27.9202 11.7598V16.2898V11.7598ZM27.4102 11.5898V16.2898V11.5898ZM26.9002 11.5898V16.2898V11.5898ZM26.3902 11.6398V16.3398V11.6398ZM25.8802 11.6898V16.3798V11.6898ZM25.3702 11.9798V16.6798V11.9798ZM24.8702 12.0298V17.3198V12.0298ZM24.3502 12.0298V16.7298V12.0298ZM23.8502 12.0298V16.7298V12.0298Z" fill="#FFD83D"/>
<path d="M29.9502 12.5198V16.1198M29.4502 12.1498V16.9498M28.9302 11.8998V17.6198M28.4302 11.7798V16.2698M27.9202 11.7598V16.2898M27.4102 11.5898V16.2898M26.9002 11.5898V16.2898M26.3902 11.6398V16.3398M25.8802 11.6898V16.3798M25.3702 11.9798V16.6798M24.8702 12.0298V17.3198M24.3502 12.0298V16.7298M23.8502 12.0298V16.7298" stroke="black" stroke-width="0.15" stroke-linecap="round" stroke-linejoin="round"/>
<path d="M26.7601 11.7998C25.6801 11.9698 23.3201 13.0798 23.5901 14.5698C23.9701 16.6898 25.2101 15.8398 26.8501 15.5398L28.0901 15.9498C28.5401 16.3998 29.1901 16.8198 29.6301 16.2698H30.3701V19.1498H22.2301V12.1998L26.7601 11.7998Z" fill="black" stroke="black" stroke-width="0.15" stroke-linecap="round" stroke-linejoin="round"/>
<path d="M23.1201 11.7896C22.8495 11.7896 22.6301 11.5702 22.6301 11.2996C22.6301 11.029 22.8495 10.8096 23.1201 10.8096C23.3907 10.8096 23.6101 11.029 23.6101 11.2996C23.6101 11.5702 23.3907 11.7896 23.1201 11.7896Z" fill="#FFD83D" stroke="black" stroke-width="0.2" stroke-linecap="round" stroke-linejoin="round"/>
<path d="M24.2302 11.52C23.9596 11.52 23.7402 11.3007 23.7402 11.03C23.7402 10.7594 23.9596 10.54 24.2302 10.54C24.5008 10.54 24.7202 10.7594 24.7202 11.03C24.7202 11.3007 24.5008 11.52 24.2302 11.52Z" fill="#FFD83D" stroke="black" stroke-width="0.2" stroke-linecap="round" stroke-linejoin="round"/>
<path d="M25.3601 11.2398C25.0895 11.2398 24.8701 11.0204 24.8701 10.7498C24.8701 10.4791 25.0895 10.2598 25.3601 10.2598C25.6307 10.2598 25.8501 10.4791 25.8501 10.7498C25.8501 11.0204 25.6307 11.2398 25.3601 11.2398Z" fill="#FFD83D" stroke="black" stroke-width="0.2" stroke-linecap="round" stroke-linejoin="round"/>
<path d="M26.49 11.0503C26.2194 11.0503 26 10.8309 26 10.5603C26 10.2897 26.2194 10.0703 26.49 10.0703C26.7606 10.0703 26.98 10.2897 26.98 10.5603C26.98 10.8309 26.7606 11.0503 26.49 11.0503Z" fill="#FFD83D" stroke="black" stroke-width="0.2" stroke-linecap="round" stroke-linejoin="round"/>
<path d="M27.6201 10.94C27.3495 10.94 27.1301 10.7206 27.1301 10.45C27.1301 10.1793 27.3495 9.95996 27.6201 9.95996C27.8907 9.95996 28.1101 10.1793 28.1101 10.45C28.1101 10.7206 27.8907 10.94 27.6201 10.94Z" fill="#FFD83D" stroke="black" stroke-width="0.2" stroke-linecap="round" stroke-linejoin="round"/>
<path d="M28.7202 10.9995C28.4496 10.9995 28.2302 10.7802 28.2302 10.5095C28.2302 10.2389 28.4496 10.0195 28.7202 10.0195C28.9908 10.0195 29.2102 10.2389 29.2102 10.5095C29.2102 10.7802 28.9908 10.9995 28.7202 10.9995Z" fill="#FFD83D" stroke="black" stroke-width="0.2" stroke-linecap="round" stroke-linejoin="round"/>
<path d="M29.78 11.3599C29.5094 11.3599 29.29 11.1405 29.29 10.8699C29.29 10.5993 29.5094 10.3799 29.78 10.3799C30.0506 10.3799 30.27 10.5993 30.27 10.8699C30.27 11.1405 30.0506 11.3599 29.78 11.3599Z" fill="#FFD83D" stroke="black" stroke-width="0.2" stroke-linecap="round" stroke-linejoin="round"/>
<path d="M30.6702 12.02C30.3995 12.02 30.1802 11.8007 30.1802 11.53C30.1802 11.2594 30.3995 11.04 30.6702 11.04C30.9408 11.04 31.1602 11.2594 31.1602 11.53C31.1602 11.8007 30.9408 12.02 30.6702 12.02Z" fill="#FFD83D" stroke="black" stroke-width="0.2" stroke-linecap="round" stroke-linejoin="round"/>
<path d="M31.3 12.9302C31.0294 12.9302 30.81 12.7108 30.81 12.4402C30.81 12.1696 31.0294 11.9502 31.3 11.9502C31.5707 11.9502 31.79 12.1696 31.79 12.4402C31.79 12.7108 31.5707 12.9302 31.3 12.9302Z" fill="#FFD83D" stroke="black" stroke-width="0.2" stroke-linecap="round" stroke-linejoin="round"/>
<path d="M31.6101 14.0103C31.3395 14.0103 31.1201 13.7909 31.1201 13.5203C31.1201 13.2497 31.3395 13.0303 31.6101 13.0303C31.8807 13.0303 32.1001 13.2497 32.1001 13.5203C32.1001 13.7909 31.8807 14.0103 31.6101 14.0103Z" fill="#FFD83D" stroke="black" stroke-width="0.2" stroke-linecap="round" stroke-linejoin="round"/>
<path d="M31.6001 15.1196C31.3295 15.1196 31.1101 14.9003 31.1101 14.6296C31.1101 14.359 31.3295 14.1396 31.6001 14.1396C31.8707 14.1396 32.0901 14.359 32.0901 14.6296C32.0901 14.9003 31.8707 15.1196 31.6001 15.1196Z" fill="#FFD83D" stroke="black" stroke-width="0.2" stroke-linecap="round" stroke-linejoin="round"/>
<path d="M31.3801 16.2095C31.1095 16.2095 30.8901 15.9901 30.8901 15.7195C30.8901 15.4489 31.1095 15.2295 31.3801 15.2295C31.6507 15.2295 31.8701 15.4489 31.8701 15.7195C31.8701 15.9901 31.6507 16.2095 31.3801 16.2095Z" fill="#FFD83D" stroke="black" stroke-width="0.2" stroke-linecap="round" stroke-linejoin="round"/>
<path d="M22.9 11.9503L22.95 12.6003C24.18 12.4003 25.92 11.7203 27.55 11.7203C29.05 11.7203 30.21 12.3203 30.21 13.8403C30.21 15.3303 29.58 16.6903 28.74 18.0703L29.61 18.4703C30.39 16.9703 31.04 15.6703 31.04 13.9303C31.04 12.4703 29.89 11.0303 27.91 11.0303C26.16 11.0303 24.37 11.6303 22.9 11.9503Z" fill="#FFD83D" stroke="black" stroke-width="0.2" stroke-linecap="round" stroke-linejoin="round"/>
<path d="M22.2001 5.3098L21.6801 6.2798L22.2001 7.2398L22.7101 6.2798L22.2001 5.2998V5.3098ZM22.2001 7.7498L21.6801 8.7098L22.2001 9.6798L22.7001 8.6998L22.1901 7.7398L22.2001 7.7498ZM20.3601 7.4998L21.1701 8.0098L21.9801 7.4998L21.1801 6.9798L20.3601 7.4998ZM22.4101 7.4998L23.2201 8.0098L24.0401 7.4998L23.2201 6.9798L22.4201 7.4998H22.4101Z" fill="#FFD83D" stroke="black" stroke-width="0.2" stroke-linecap="round" stroke-linejoin="round"/>
<path d="M22.2001 7.90012C22.4154 7.90012 22.5901 7.72551 22.5901 7.51012C22.5901 7.29473 22.4154 7.12012 22.2001 7.12012C21.9847 7.12012 21.8101 7.29473 21.8101 7.51012C21.8101 7.72551 21.9847 7.90012 22.2001 7.90012Z" fill="#FFD83D" stroke="black" stroke-width="0.2" stroke-linecap="round" stroke-linejoin="round"/>
<path d="M22.1999 11.0502C22.7798 11.0502 23.2499 10.5801 23.2499 10.0002C23.2499 9.4203 22.7798 8.9502 22.1999 8.9502C21.62 8.9502 21.1499 9.4203 21.1499 10.0002C21.1499 10.5801 21.62 11.0502 22.1999 11.0502Z" fill="#FFD83D" stroke="black" stroke-width="0.2" stroke-linecap="round" stroke-linejoin="round"/>
<path d="M21.9299 8.99023V9.65023C21.6819 9.66218 21.4348 9.68889 21.1899 9.73023M23.2099 9.73023C22.9618 9.6884 22.7113 9.66168 22.4599 9.65023V8.99023M21.1799 10.2602C21.5168 10.2019 21.858 10.1718 22.1999 10.1702C22.5399 10.1702 22.8799 10.2002 23.1999 10.2602" stroke="black" stroke-width="0.15" stroke-linecap="round" stroke-linejoin="round"/>
<path d="M21.18 11.7695C21.08 13.4695 20.88 15.2195 20.21 16.4795L21.29 16.0395C21.67 14.6095 21.75 12.7595 21.86 11.8795L21.18 11.7695ZM23.22 11.7695L22.53 11.8795C22.65 12.7595 22.73 14.6095 23.1 16.0395L24.18 16.4795C23.52 15.2195 23.32 13.4795 23.22 11.7695Z" fill="#FFD83D" stroke="black" stroke-width="0.2" stroke-linecap="round" stroke-linejoin="round"/>
<path d="M22.2 15.4697C20.9 15.4697 19.95 16.0697 19.9 17.6297C19.58 17.0697 18.25 15.3297 17 15.5597C16.26 15.6997 15.6 16.7297 15.72 17.8997C15.1 16.1397 13.31 15.8497 11.99 16.8997C13.16 17.8497 13.68 20.6797 14.66 21.8997H29.73C30.71 20.6797 31.23 17.8497 32.4 16.8997C31.09 15.8497 29.29 16.1397 28.68 17.8997C28.78 16.7297 28.13 15.6997 27.38 15.5597C26.14 15.3297 24.81 17.0697 24.49 17.6297C24.44 16.0797 23.49 15.4697 22.19 15.4697H22.2Z" fill="#FFD83D" stroke="black" stroke-width="0.2" stroke-linecap="round" stroke-linejoin="round"/>
<path d="M29.7099 21.8998C29.7099 22.4598 26.3499 23.0698 22.1999 23.0698C18.0499 23.0698 14.6799 22.4698 14.6799 21.8998C14.6799 21.3498 18.0499 21.0498 22.1999 21.0498C26.3399 21.0498 29.7099 21.3498 29.7099 21.8998Z" fill="black" stroke="black" stroke-width="0.15" stroke-linecap="round" stroke-linejoin="round"/>
<path d="M22.1999 11.7898C22.3932 11.7898 22.5499 11.6331 22.5499 11.4398C22.5499 11.2465 22.3932 11.0898 22.1999 11.0898C22.0066 11.0898 21.8499 11.2465 21.8499 11.4398C21.8499 11.6331 22.0066 11.7898 22.1999 11.7898Z" fill="#FFD83D" stroke="black" stroke-width="0.15" stroke-linecap="round" stroke-linejoin="round"/>
<path d="M22.2001 12.5701C22.4044 12.5701 22.5701 12.4044 22.5701 12.2001C22.5701 11.9957 22.4044 11.8301 22.2001 11.8301C21.9957 11.8301 21.8301 11.9957 21.8301 12.2001C21.8301 12.4044 21.9957 12.5701 22.2001 12.5701Z" fill="#FFD83D" stroke="black" stroke-width="0.15" stroke-linecap="round" stroke-linejoin="round"/>
<path d="M22.2 13.4294C22.4265 13.4294 22.61 13.2458 22.61 13.0194C22.61 12.7929 22.4265 12.6094 22.2 12.6094C21.9736 12.6094 21.79 12.7929 21.79 13.0194C21.79 13.2458 21.9736 13.4294 22.2 13.4294Z" fill="#FFD83D" stroke="black" stroke-width="0.15" stroke-linecap="round" stroke-linejoin="round"/>
<path d="M22.2 14.4C22.4596 14.4 22.67 14.1895 22.67 13.93C22.67 13.6704 22.4596 13.46 22.2 13.46C21.9404 13.46 21.73 13.6704 21.73 13.93C21.73 14.1895 21.9404 14.4 22.2 14.4Z" fill="#FFD83D" stroke="black" stroke-width="0.15" stroke-linecap="round" stroke-linejoin="round"/>
<path d="M22.1999 15.4497C22.4816 15.4497 22.7099 15.2214 22.7099 14.9397C22.7099 14.658 22.4816 14.4297 22.1999 14.4297C21.9183 14.4297 21.6899 14.658 21.6899 14.9397C21.6899 15.2214 21.9183 15.4497 22.1999 15.4497Z" fill="#FFD83D" stroke="black" stroke-width="0.15" stroke-linecap="round" stroke-linejoin="round"/>
<path d="M22 15.9199C21.94 15.9199 21.89 15.9699 21.9 16.0599L21.96 16.4899C21.98 16.6399 22.06 16.5899 22.09 16.4899C22.11 16.3699 22.1 16.2899 22.11 16.0799C22.11 15.9699 22.05 15.9199 21.99 15.9199H22ZM22.4 15.9199C22.34 15.9199 22.29 15.9699 22.29 16.0799C22.29 16.2899 22.29 16.3699 22.31 16.4799C22.33 16.5999 22.41 16.6399 22.44 16.4799L22.49 16.0599C22.51 15.9599 22.45 15.9199 22.4 15.9199ZM21.63 15.9799C21.6034 15.9799 21.578 15.9905 21.5593 16.0092C21.5405 16.028 21.53 16.0534 21.53 16.0799C21.53 16.1799 21.56 16.3099 21.57 16.4599C21.59 16.6099 21.7 16.5599 21.71 16.4599C21.71 16.3799 21.73 16.2399 21.71 16.0699C21.71 16.0099 21.69 15.9799 21.65 15.9699C21.6433 15.9691 21.6366 15.9691 21.63 15.9699V15.9799ZM22.74 15.9799C22.71 15.9799 22.68 16.0099 22.67 16.0799C22.6646 16.2069 22.6713 16.3342 22.69 16.4599C22.69 16.5599 22.81 16.6099 22.82 16.4599C22.82 16.3099 22.86 16.1899 22.86 16.0899C22.86 16.0299 22.81 15.9899 22.76 15.9799C22.7533 15.9791 22.7466 15.9791 22.74 15.9799ZM21.2 16.1499C21.15 16.1599 21.1 16.2199 21.12 16.2799C21.15 16.4099 21.18 16.5499 21.18 16.6799C21.18 16.7899 21.27 16.7499 21.28 16.6799C21.2878 16.5467 21.2911 16.4133 21.29 16.2799C21.29 16.1799 21.24 16.1399 21.19 16.1499H21.2ZM23.16 16.1499C23.13 16.1599 23.1 16.1999 23.1 16.2799L23.12 16.6799C23.12 16.7499 23.22 16.7899 23.22 16.6799C23.22 16.5499 23.24 16.4099 23.27 16.2799C23.29 16.2199 23.24 16.1599 23.2 16.1499C23.1901 16.1474 23.1798 16.1474 23.17 16.1499H23.16ZM17.26 16.1699C17.2 16.1699 17.16 16.2399 17.2 16.3199C17.26 16.4599 17.33 16.5399 17.39 16.6799C17.44 16.8099 17.53 16.7299 17.5 16.6399L17.36 16.2699C17.33 16.1999 17.29 16.1699 17.26 16.1699ZM27.14 16.1699C27.1 16.1699 27.07 16.1999 27.04 16.2699C26.95 16.4599 26.92 16.5499 26.89 16.6399C26.87 16.7399 26.95 16.8099 27.01 16.6799L27.19 16.3199C27.23 16.2399 27.19 16.1699 27.14 16.1699ZM17.66 16.1699C17.61 16.1899 17.59 16.2399 17.61 16.2999C17.67 16.4199 17.74 16.5499 17.79 16.6799C17.83 16.7899 17.93 16.7599 17.89 16.6599L17.79 16.2899C17.75 16.1899 17.69 16.1599 17.66 16.1699ZM26.71 16.1699C26.67 16.1799 26.63 16.2199 26.61 16.2899C26.54 16.4899 26.53 16.5499 26.5 16.6599C26.46 16.7599 26.56 16.7899 26.6 16.6799L26.78 16.2999C26.8 16.2399 26.78 16.1899 26.74 16.1699C26.7301 16.1674 26.7198 16.1674 26.71 16.1699ZM18.16 16.2699C18.1 16.2799 18.06 16.3599 18.1 16.4599C18.14 16.5799 18.2 16.6899 18.26 16.8299C18.32 16.9699 18.41 16.9399 18.39 16.8499C18.36 16.7599 18.34 16.6199 18.27 16.3999C18.24 16.2999 18.2 16.2599 18.16 16.2699ZM26.24 16.2699C26.2 16.2699 26.15 16.2999 26.12 16.3999C26.06 16.6199 26.02 16.7599 26.01 16.8499C25.98 16.9499 26.08 16.9699 26.13 16.8299C26.19 16.6899 26.25 16.5799 26.29 16.4599C26.33 16.3599 26.29 16.2799 26.24 16.2699ZM16.92 16.3399C16.86 16.3399 16.82 16.4399 16.85 16.5099C16.9 16.6099 16.94 16.6499 16.99 16.7699C17.05 16.8899 17.11 16.7999 17.09 16.7199C17.06 16.6399 17.03 16.5499 17.01 16.4399C16.99 16.3599 16.95 16.3399 16.91 16.3399H16.92ZM27.48 16.3399C27.44 16.3399 27.41 16.3599 27.38 16.4399L27.31 16.7199C27.29 16.7999 27.35 16.8899 27.41 16.7699C27.46 16.6499 27.49 16.6199 27.55 16.5099C27.58 16.4399 27.53 16.3499 27.48 16.3399ZM20.78 16.6199C20.71 16.6199 20.65 16.6999 20.68 16.7699C20.7 16.8899 20.76 16.9899 20.79 17.1399C20.83 17.2699 20.92 17.2099 20.91 17.1199C20.9027 16.9856 20.886 16.8519 20.86 16.7199C20.84 16.6499 20.81 16.6199 20.77 16.6199H20.78ZM23.62 16.6199C23.59 16.6199 23.55 16.6499 23.54 16.7199C23.5106 16.8517 23.4905 16.9853 23.48 17.1199C23.48 17.2099 23.57 17.2699 23.6 17.1399L23.72 16.7699C23.74 16.6999 23.68 16.6199 23.62 16.6199ZM22.2 16.7399C22.12 16.7399 22.11 16.8399 22.11 16.9099C22.1039 17.1377 22.0346 17.3592 21.91 17.5499C21.81 17.6699 21.68 17.6399 21.56 17.5699C21.4437 17.5065 21.3332 17.4329 21.23 17.3499C21.09 17.2499 20.99 17.3099 21.15 17.5399C21.61 18.1999 22.11 18.7599 22.11 19.8399C22.11 19.9699 22.14 20.0099 22.2 20.0099C22.26 20.0099 22.28 19.9699 22.28 19.8299C22.28 18.7599 22.78 18.1999 23.24 17.5299C23.4 17.3099 23.3 17.2499 23.17 17.3499C23.0672 17.4335 22.9567 17.5072 22.84 17.5699C22.71 17.6399 22.58 17.6699 22.49 17.5499C22.3653 17.3592 22.2961 17.1377 22.29 16.9099C22.28 16.8399 22.27 16.7399 22.19 16.7399H22.2ZM18.67 16.5799C18.6633 16.5788 18.6566 16.5788 18.65 16.5799C18.62 16.5899 18.61 16.6199 18.62 16.6799L18.73 17.0699C18.76 17.1699 18.87 17.1399 18.85 17.0199L18.79 16.7099C18.77 16.6299 18.71 16.5799 18.67 16.5799ZM25.73 16.5799C25.68 16.5799 25.63 16.6299 25.61 16.7099C25.57 16.8499 25.57 16.8899 25.55 17.0099C25.52 17.1399 25.64 17.1599 25.66 17.0699L25.78 16.6699C25.78 16.6199 25.77 16.5899 25.74 16.5799C25.7333 16.5788 25.7266 16.5788 25.72 16.5799H25.73ZM16.57 16.6199C16.51 16.6199 16.47 16.6999 16.53 16.7999C16.59 16.9199 16.7 17.0599 16.75 17.1499C16.8 17.2299 16.89 17.1699 16.83 17.0699C16.77 16.9699 16.75 16.8399 16.67 16.6899C16.6634 16.6689 16.65 16.6506 16.6319 16.6379C16.6138 16.6252 16.592 16.6189 16.57 16.6199ZM27.82 16.6199C27.79 16.6199 27.75 16.6399 27.72 16.6899C27.65 16.8399 27.62 16.9599 27.57 17.0699C27.51 17.1699 27.59 17.2299 27.64 17.1499C27.69 17.0599 27.8 16.9199 27.86 16.7999C27.92 16.6999 27.88 16.6199 27.82 16.6199ZM13.4 16.9499C13.34 16.9499 13.32 17.0699 13.38 17.1499C13.4576 17.2482 13.5447 17.3386 13.64 17.4199C13.72 17.4999 13.74 17.3999 13.7 17.3199L13.52 17.0499C13.47 16.9799 13.43 16.9499 13.4 16.9499ZM30.99 16.9499C30.96 16.9499 30.92 16.9799 30.88 17.0499L30.69 17.3199C30.65 17.3999 30.67 17.4999 30.76 17.4199C30.8553 17.3387 30.9424 17.2483 31.02 17.1499C31.08 17.0699 31.06 16.9499 30.99 16.9499ZM13.91 17.0499C13.85 17.0499 13.81 17.0899 13.86 17.1799L14.05 17.5599C14.1 17.6599 14.25 17.6899 14.19 17.5399L14.06 17.1599C14.03 17.0899 13.96 17.0599 13.91 17.0599V17.0499ZM30.49 17.0499C30.43 17.0499 30.36 17.0899 30.33 17.1599L30.21 17.5399C30.15 17.6899 30.3 17.6599 30.35 17.5599C30.4 17.4599 30.48 17.3099 30.53 17.1799C30.58 17.0899 30.54 17.0499 30.49 17.0499ZM12.93 17.0899C12.85 17.0899 12.85 17.1599 12.92 17.2099C13.01 17.2799 13.12 17.3499 13.22 17.4399C13.35 17.5399 13.39 17.4399 13.32 17.3599C13.26 17.2799 13.2 17.1999 13.03 17.1099C12.99 17.0899 12.96 17.0899 12.93 17.0899ZM31.46 17.0899C31.44 17.0899 31.4 17.0899 31.36 17.1099C31.2 17.1999 31.13 17.2799 31.06 17.3599C31 17.4499 31.05 17.5399 31.17 17.4399C31.27 17.3499 31.39 17.2799 31.47 17.2099C31.55 17.1599 31.54 17.0899 31.47 17.0899H31.46ZM20.5 17.1599C20.45 17.1599 20.42 17.2099 20.43 17.2799L20.53 17.6399C20.55 17.7499 20.68 17.7499 20.66 17.6399C20.64 17.5399 20.63 17.4099 20.59 17.2499C20.58 17.1899 20.55 17.1599 20.51 17.1499C20.5066 17.1496 20.5033 17.1496 20.5 17.1499V17.1599ZM23.88 17.1599C23.85 17.1599 23.82 17.1899 23.8 17.2599C23.76 17.4099 23.75 17.5399 23.73 17.6499C23.71 17.7499 23.84 17.7499 23.86 17.6399L23.96 17.2799C23.98 17.2099 23.94 17.1599 23.9 17.1599C23.8933 17.1588 23.8866 17.1588 23.88 17.1599ZM17.48 16.9599C17.45 16.9599 17.43 17.0299 17.46 17.1299C17.566 17.4181 17.6202 17.7228 17.62 18.0299C17.59 18.1499 17.52 18.1599 17.43 18.1299C17.3319 18.0815 17.2382 18.0246 17.15 17.9599C17.07 17.9099 16.98 17.9699 17.1 18.0699C17.7 18.5699 18.13 19.1399 18.3 19.8299C18.32 19.9699 18.41 19.9899 18.39 19.8299C18.25 18.9599 18.22 18.2399 18.43 17.7999C18.51 17.6299 18.43 17.4699 18.31 17.7399C18.22 17.9199 18.09 17.9899 17.98 17.8399C17.8236 17.5959 17.6897 17.3382 17.58 17.0699C17.56 16.9999 17.53 16.9699 17.5 16.9599C17.4967 16.9594 17.4933 16.9594 17.49 16.9599H17.48ZM26.89 16.9599C26.86 16.9599 26.83 16.9999 26.81 17.0599C26.74 17.2599 26.52 17.6799 26.41 17.8399C26.3 17.9999 26.17 17.9199 26.09 17.7399C25.96 17.4699 25.89 17.6299 25.96 17.7999C26.17 18.2399 26.14 18.9599 26.01 19.8299C25.98 19.9899 26.07 19.9699 26.11 19.8299C26.2949 19.1276 26.7105 18.5078 27.29 18.0699C27.41 17.9699 27.32 17.9099 27.24 17.9699C27.1512 18.0281 27.0575 18.0783 26.96 18.1199C26.86 18.1599 26.8 18.1499 26.77 18.0199C26.75 17.8999 26.79 17.6299 26.94 17.1199C26.96 17.0399 26.94 16.9699 26.91 16.9599C26.9035 16.9576 26.8964 16.9576 26.89 16.9599ZM14.44 17.1999C14.39 17.1999 14.34 17.2399 14.37 17.3199C14.41 17.4599 14.49 17.5999 14.52 17.6799C14.55 17.7699 14.64 17.7299 14.62 17.6099L14.57 17.2999C14.57 17.2399 14.5 17.1999 14.44 17.1999ZM29.95 17.1999C29.89 17.1999 29.83 17.2399 29.82 17.2999L29.78 17.6099C29.76 17.7299 29.85 17.7699 29.88 17.6799C29.9 17.5999 29.98 17.4599 30.02 17.3199C30.05 17.2399 30.01 17.1999 29.95 17.1999ZM16.32 17.0299C16.26 17.0199 16.25 17.1799 16.3 17.2499L16.58 17.5599C16.66 17.6599 16.71 17.5699 16.66 17.4899L16.4 17.1099C16.37 17.0599 16.34 17.0299 16.32 17.0299ZM28.07 17.0299C28.05 17.0299 28.02 17.0599 27.99 17.1099L27.73 17.4899C27.68 17.5699 27.73 17.6599 27.82 17.5599L28.09 17.2499C28.14 17.1799 28.14 17.0199 28.07 17.0299ZM14.87 17.4299C14.83 17.4299 14.8 17.4499 14.82 17.5299C14.84 17.6499 14.87 17.7299 14.9 17.8399C14.93 17.9399 15 17.9299 15 17.8299L14.97 17.5099C14.9656 17.486 14.9534 17.4641 14.9353 17.4479C14.9172 17.4316 14.8942 17.4217 14.87 17.4199V17.4299ZM29.52 17.4299C29.4966 17.4295 29.4738 17.4372 29.4555 17.4518C29.4372 17.4664 29.4246 17.487 29.42 17.5099L29.39 17.8299C29.39 17.9299 29.47 17.9499 29.49 17.8399L29.58 17.5399C29.6 17.4499 29.56 17.4199 29.52 17.4199V17.4299ZM16.18 17.5699C16.12 17.5699 16.07 17.6399 16.14 17.7299C16.25 17.8799 16.38 17.9799 16.43 18.0299C16.47 18.0899 16.58 18.0699 16.51 17.9599L16.28 17.6099C16.26 17.5699 16.22 17.5599 16.18 17.5699ZM28.18 17.5699C28.16 17.5699 28.13 17.5799 28.12 17.6099L27.88 17.9599C27.81 18.0699 27.92 18.0899 27.97 18.0399C28.01 17.9799 28.14 17.8799 28.26 17.7299C28.33 17.6299 28.27 17.5699 28.21 17.5699C28.2033 17.5692 28.1966 17.5692 28.19 17.5699H28.18ZM14.11 17.9799C14.07 17.9799 14.05 18.0199 14.11 18.1099C14.2644 18.2972 14.3769 18.5155 14.44 18.7499C14.45 18.8899 14.39 18.8899 14.33 18.8899C14.14 18.8899 14.05 18.7499 13.89 18.7099C13.72 18.6799 13.69 18.7599 13.81 18.8499C14.3832 19.2124 14.882 19.6808 15.28 20.2299C15.38 20.4199 15.51 20.4799 15.44 20.3099C15.2457 19.92 15.1626 19.484 15.2 19.0499C15.25 18.7699 15.32 18.5899 15.31 18.4299C15.31 18.2799 15.21 18.2899 15.18 18.4299L15.08 18.7099C15.04 18.7599 14.9 18.7899 14.78 18.6199C14.6099 18.4112 14.4226 18.2172 14.22 18.0399C14.19 18.0099 14.15 17.9899 14.12 17.9799H14.11ZM30.28 17.9799C30.25 17.9799 30.21 17.9999 30.17 18.0399C29.9709 18.2177 29.7869 18.4117 29.62 18.6199C29.49 18.7899 29.35 18.7599 29.32 18.7199C29.2744 18.6279 29.2408 18.5305 29.22 18.4299C29.18 18.2899 29.09 18.2799 29.08 18.4299C29.08 18.5899 29.14 18.7699 29.19 19.0499C29.24 19.3299 29.19 19.7699 28.96 20.3099C28.88 20.4799 29.02 20.4099 29.12 20.2299C29.5142 19.681 30.0098 19.2126 30.58 18.8499C30.7 18.7599 30.68 18.6799 30.51 18.7099C30.34 18.7499 30.25 18.8899 30.07 18.8899C30.01 18.8899 29.94 18.8899 29.95 18.7499C29.96 18.6199 30.13 18.3099 30.28 18.1099C30.34 18.0099 30.33 17.9799 30.28 17.9799Z" fill="black"/>
<path d="M15.01 21.2698L15.21 21.8798L15.01 21.2698ZM15.41 21.1498L15.59 21.7698L15.41 21.1498ZM15.85 21.0698L15.97 21.7098L15.85 21.0698ZM16.25 20.9998L16.38 21.6298L16.25 20.9998ZM16.76 20.9498L16.86 21.5898L16.76 20.9498ZM17.31 20.9498L17.42 21.5798L17.31 20.9498ZM17.85 20.7698L17.93 21.4098L17.85 20.7698ZM18.35 20.7998L18.43 21.4398L18.35 20.7998ZM18.84 20.7398L18.92 21.3798L18.84 20.7398ZM19.32 20.6798L19.37 21.3298L19.32 20.6798ZM19.85 20.6798L19.89 21.3298L19.85 20.6798ZM20.33 20.6498L20.36 21.2998L20.33 20.6498ZM20.85 20.6198L20.88 21.2598L20.85 20.6198ZM21.45 20.5998L21.48 21.2498L21.45 20.5998ZM29.38 21.2698L29.18 21.8798L29.38 21.2698ZM28.98 21.1498L28.81 21.7698L28.98 21.1498ZM28.55 21.0698L28.43 21.7098L28.55 21.0698ZM28.15 20.9998L28.02 21.6298L28.15 20.9998ZM27.62 20.9498L27.52 21.5898L27.62 20.9498ZM27.08 20.9498L26.97 21.5898L27.08 20.9498ZM26.55 20.7698L26.47 21.4098L26.55 20.7698ZM26.04 20.7998L25.96 21.4398L26.04 20.7998ZM25.56 20.7398L25.47 21.3798L25.56 20.7398ZM25.07 20.6798L25.02 21.3298L25.07 20.6798ZM24.54 20.6798L24.5 21.3298L24.54 20.6798ZM24.07 20.6498L24.04 21.2998L24.07 20.6498ZM23.54 20.6198L23.52 21.2598L23.54 20.6198ZM22.94 20.5998L22.92 21.2498L22.94 20.5998ZM22.2 20.5498V21.2698V20.5498Z" fill="#FFD83D"/>
<path d="M15.01 21.2698L15.21 21.8798M15.41 21.1498L15.59 21.7698M15.85 21.0698L15.97 21.7098M16.25 20.9998L16.38 21.6298M16.76 20.9498L16.86 21.5898M17.31 20.9498L17.42 21.5798M17.85 20.7698L17.93 21.4098M18.35 20.7998L18.43 21.4398M18.84 20.7398L18.92 21.3798M19.32 20.6798L19.37 21.3298M19.85 20.6798L19.89 21.3298M20.33 20.6498L20.36 21.2998M20.85 20.6198L20.88 21.2598M21.45 20.5998L21.48 21.2498M29.38 21.2698L29.18 21.8798M28.98 21.1498L28.81 21.7698M28.55 21.0698L28.43 21.7098M28.15 20.9998L28.02 21.6298M27.62 20.9498L27.52 21.5898M27.08 20.9498L26.97 21.5898M26.55 20.7698L26.47 21.4098M26.04 20.7998L25.96 21.4398M25.56 20.7398L25.47 21.3798M25.07 20.6798L25.02 21.3298M24.54 20.6798L24.5 21.3298M24.07 20.6498L24.04 21.2998M23.54 20.6198L23.52 21.2598M22.94 20.5998L22.92 21.2498M22.2 20.5498V21.2698" stroke="black" stroke-width="0.15" stroke-linecap="round" stroke-linejoin="round"/>
</g>
<defs>
<clipPath id="clip0_3734_59605">
<rect width="80" height="60" fill="white"/>
</clipPath>
</defs>
</svg>
