<svg width="80" height="60" viewBox="0 0 80 60" fill="none" xmlns="http://www.w3.org/2000/svg">
<g clip-path="url(#clip0_3734_59645)">
<path d="M0 0H80V60H0V0Z" fill="#00785E"/>
<path d="M36.875 13.5875L41.9375 17.275L40 11.3125L38.0625 17.275L43.1375 13.5875H36.875Z" fill="#FBD116"/>
<path d="M39.9999 41.4502H27.1874C27.0259 41.2865 26.8676 41.1198 26.7124 40.9502H39.9999C40.0515 40.9684 40.0961 41.0023 40.1275 41.0472C40.1588 41.092 40.1754 41.1455 40.1749 41.2002C40.1749 41.3002 40.1124 41.4127 39.9999 41.4502ZM39.9999 37.5377C40.1446 37.2434 40.1969 36.9122 40.1499 36.5877C40.1258 36.4223 40.0752 36.2619 39.9999 36.1127C38.8482 37.2087 37.4574 38.0218 35.9374 38.4877C34.9851 38.7771 33.9953 38.9245 32.9999 38.9252H25.1124C25.3426 39.2667 25.5844 39.6002 25.8374 39.9252H33.4624C35.9624 39.9252 38.2374 39.0252 39.9999 37.5377ZM26.2999 34.4502C25.911 34.5954 25.502 34.6797 25.0874 34.7002C26.0374 35.7801 27.2065 36.6452 28.517 37.2379C29.8274 37.8307 31.2491 38.1374 32.6874 38.1377C34.0542 38.138 35.4069 37.8613 36.6637 37.3242C37.9206 36.787 39.0555 36.0007 39.9999 35.0127C40.3512 32.578 40.5391 30.1225 40.5624 27.6627C40.5925 24.8316 40.4044 22.0024 39.9999 19.2002C39.1749 19.9502 37.6249 21.5377 36.8999 23.9877C36.628 24.9259 36.4933 25.8984 36.4999 26.8752C36.4995 28.8787 37.0957 30.8369 38.2124 32.5002C36.8364 30.731 36.0887 28.554 36.0874 26.3127C36.0874 24.7627 36.4374 23.2877 37.0624 21.9752C36.6274 21.5141 36.3063 20.9576 36.1249 20.3502C35.2605 21.8746 34.8082 23.5978 34.8124 25.3502C34.8124 27.6002 35.5499 29.6877 36.7999 31.3627C35.6242 30.1272 34.1961 29.1594 32.6129 28.5253C31.0297 27.8911 29.3284 27.6055 27.6249 27.6877C27.9703 28.0067 28.2579 28.3831 28.4749 28.8002C30.0783 28.8021 31.6647 29.1287 33.1384 29.7603C34.6122 30.3919 35.9427 31.3155 37.0499 32.4752C34.9129 30.6836 32.2136 29.7012 29.4249 29.7002C27.8504 29.6972 26.291 30.0074 24.8374 30.6127C25.6169 32.6736 27.046 34.4249 28.9086 35.602C30.7713 36.7792 32.9664 37.3182 35.1624 37.1377C34.5749 37.2377 33.9749 37.3002 33.3624 37.3002C30.7309 37.3049 28.2014 36.2824 26.3124 34.4502H26.2999ZM39.9999 45.5502H33.3624C35.475 46.3877 37.7274 46.8161 39.9999 46.8127C40.1029 46.6202 40.1586 46.406 40.1624 46.1877C40.1606 45.9652 40.1049 45.7464 39.9999 45.5502ZM39.9999 42.4877H28.2999C28.6159 42.7572 28.941 43.0157 29.2749 43.2627H39.9999C40.101 43.1587 40.1591 43.0202 40.1624 42.8752C40.1651 42.8027 40.1519 42.7305 40.1238 42.6635C40.0958 42.5966 40.0535 42.5366 39.9999 42.4877ZM39.9999 44.0502H30.4124C30.9928 44.4177 31.5938 44.7516 32.2124 45.0502H39.9999C40.1002 44.8936 40.1524 44.7111 40.1499 44.5252C40.1437 44.3562 40.0918 44.1921 39.9999 44.0502Z" fill="white"/>
<path d="M25.0625 21.8498L28.2375 24.7998L27.4 20.5498L25.575 24.4748L29.3625 22.3748L25.0625 21.8498ZM29.675 17.8498L34.0125 17.9248L30.55 15.2998L31.8125 19.4623L33.225 15.3498L29.675 17.8498Z" fill="#FBD116"/>
<path d="M40.0001 41.4502H52.8126C52.9741 41.2865 53.1324 41.1198 53.2876 40.9502H40.0001C39.9485 40.9684 39.9039 41.0023 39.8725 41.0472C39.8412 41.092 39.8246 41.1455 39.8251 41.2002C39.8251 41.3002 39.8876 41.4127 40.0001 41.4502ZM40.0001 37.5377C39.8554 37.2434 39.8031 36.9122 39.8501 36.5877C39.8742 36.4223 39.9248 36.2619 40.0001 36.1127C41.1518 37.2087 42.5426 38.0218 44.0626 38.4877C45.0149 38.7771 46.0047 38.9245 47.0001 38.9252H54.8876C54.6574 39.2667 54.4156 39.6002 54.1626 39.9252H46.5376C44.0376 39.9252 41.7626 39.0252 40.0001 37.5377ZM53.7001 34.4502C54.089 34.5954 54.498 34.6797 54.9126 34.7002C53.9626 35.7801 52.7935 36.6452 51.483 37.2379C50.1726 37.8307 48.7509 38.1374 47.3126 38.1377C45.9458 38.138 44.5931 37.8613 43.3363 37.3242C42.0794 36.787 40.9445 36.0007 40.0001 35.0127C39.6488 32.578 39.4609 30.1225 39.4376 27.6627C39.4075 24.8316 39.5956 22.0024 40.0001 19.2002C40.8251 19.9502 42.3751 21.5377 43.1001 23.9877C43.372 24.9259 43.5067 25.8984 43.5001 26.8752C43.5005 28.8787 42.9043 30.8369 41.7876 32.5002C43.1636 30.731 43.9113 28.554 43.9126 26.3127C43.9126 24.7627 43.5626 23.2877 42.9376 21.9752C43.3726 21.5141 43.6937 20.9576 43.8751 20.3502C44.7395 21.8746 45.1918 23.5978 45.1876 25.3502C45.1876 27.6002 44.4501 29.6877 43.2001 31.3627C44.3758 30.1272 45.8039 29.1594 47.3871 28.5253C48.9703 27.8911 50.6716 27.6055 52.3751 27.6877C52.0297 28.0067 51.7421 28.3831 51.5251 28.8002C49.9217 28.8021 48.3353 29.1287 46.8616 29.7603C45.3878 30.3919 44.0573 31.3155 42.9501 32.4752C45.0871 30.6836 47.7864 29.7012 50.5751 29.7002C52.1496 29.6972 53.709 30.0074 55.1626 30.6127C54.3831 32.6736 52.954 34.4249 51.0914 35.602C49.2287 36.7792 47.0336 37.3182 44.8376 37.1377C45.4251 37.2377 46.0251 37.3002 46.6376 37.3002C49.2691 37.3049 51.7986 36.2824 53.6876 34.4502H53.7001ZM40.0001 45.5502H46.6376C44.525 46.3877 42.2726 46.8161 40.0001 46.8127C39.8971 46.6202 39.8414 46.406 39.8376 46.1877C39.8394 45.9652 39.8951 45.7464 40.0001 45.5502ZM40.0001 42.4877H51.7001C51.3841 42.7572 51.059 43.0157 50.7251 43.2627H40.0001C39.899 43.1587 39.8409 43.0202 39.8376 42.8752C39.8349 42.8027 39.8481 42.7305 39.8762 42.6635C39.9042 42.5966 39.9465 42.5366 40.0001 42.4877ZM40.0001 44.0502H49.5876C49.0072 44.4177 48.4062 44.7516 47.7876 45.0502H40.0001C39.8998 44.8936 39.8476 44.7111 39.8501 44.5252C39.8563 44.3562 39.9082 44.1921 40.0001 44.0502Z" fill="white"/>
<path d="M54.9375 21.8498L51.7625 24.7998L52.6 20.5498L54.425 24.4748L50.6375 22.3748L54.9375 21.8498ZM50.325 17.8498L45.9875 17.9248L49.45 15.2998L48.1875 19.4623L46.775 15.3498L50.325 17.8498Z" fill="#FBD116"/>
</g>
<defs>
<clipPath id="clip0_3734_59645">
<rect width="80" height="60" fill="white"/>
</clipPath>
</defs>
</svg>
