<svg width="80" height="60" viewBox="0 0 80 60" fill="none" xmlns="http://www.w3.org/2000/svg">
<g clip-path="url(#clip0_3734_59665)">
<path fill-rule="evenodd" clip-rule="evenodd" d="M0 0H80V60H0V0Z" fill="#F41408"/>
<path fill-rule="evenodd" clip-rule="evenodd" d="M0 40H80V60H0V40Z" fill="#21873B"/>
<path fill-rule="evenodd" clip-rule="evenodd" d="M0 0H80V20H0V0Z" fill="black"/>
<path fill-rule="evenodd" clip-rule="evenodd" d="M27.5626 17.625C30.3501 11.475 38.1251 8.525 44.9126 11.0625C46.5055 11.6025 47.9708 12.4635 49.2178 13.5923C50.4648 14.721 51.467 16.0936 52.1626 17.625H27.5626ZM24.3126 18.425C22.1068 18.2748 19.9165 17.9488 17.7626 17.45C17.2501 17.2875 17.2251 17 17.2876 16.7875C17.3501 16.575 17.6751 16.3375 18.0626 16.4125C18.7626 16.5875 21.6626 17.2875 24.3126 18.425ZM39.8876 7.6875C39.3626 5.0625 39.2376 2.1875 39.2876 1.6875C39.3376 1.2 39.6251 1.125 39.8751 1.125C40.1251 1.125 40.4626 1.35 40.4626 1.7125C40.4626 2.375 40.4501 5.0875 39.8876 7.7125V7.6875ZM41.3376 7.75C41.1302 5.74761 41.1177 3.72982 41.3001 1.725C41.4001 1.2375 41.7001 1.175 41.9376 1.2C42.1876 1.2125 42.5001 1.4625 42.4626 1.825C42.4001 2.4875 42.1376 5.1875 41.3376 7.75ZM42.6376 7.9125C42.6126 5.25 43.0126 2.375 43.1501 1.9125C43.2876 1.425 43.6001 1.3875 43.8376 1.425C44.0876 1.4625 44.3751 1.7375 44.3126 2.0875C44.1876 2.75 43.6626 5.4125 42.6376 7.9125ZM44.0126 8.1875C44.2376 5.5375 44.9251 2.7125 45.1126 2.25C45.3001 1.7875 45.6126 1.775 45.8376 1.825C46.0876 1.8875 46.3376 2.175 46.2501 2.525C46.0501 3.1625 45.2876 5.775 44.0251 8.1875H44.0126ZM45.3751 8.5875C45.8626 5.9625 46.8126 3.2 47.0376 2.75C47.2751 2.3125 47.5751 2.3125 47.8126 2.3875C48.0376 2.4625 48.2751 2.7875 48.1501 3.1125C47.3972 5.01975 46.4681 6.85268 45.3751 8.5875ZM46.6376 9.0625C47.3626 6.475 48.5751 3.8125 48.8501 3.375C49.1251 2.95 49.4251 2.9875 49.6501 3.0875C49.8751 3.175 50.0751 3.5125 49.9126 3.8375C49.6001 4.4375 48.3501 6.8875 46.6376 9.0625ZM47.8876 9.65C48.631 7.73904 49.5517 5.90187 50.6376 4.1625C50.9376 3.7625 51.2501 3.825 51.4626 3.9375C51.5255 3.97476 51.5803 4.02418 51.6239 4.08289C51.6675 4.14159 51.6989 4.2084 51.7164 4.27939C51.7338 4.35039 51.737 4.42415 51.7256 4.49637C51.7142 4.56859 51.6885 4.63782 51.6501 4.7C51.2751 5.275 49.7876 7.625 47.8876 9.65ZM49.0626 10.3375C50.2751 7.9125 51.9751 5.4625 52.3251 5.0875C52.6751 4.7125 52.9751 4.8 53.1751 4.925C53.2347 4.96724 53.2853 5.02094 53.324 5.08297C53.3626 5.145 53.3885 5.21412 53.4002 5.28627C53.4118 5.35843 53.409 5.43218 53.3918 5.50321C53.3746 5.57425 53.3434 5.64115 53.3001 5.7C52.8626 6.25 51.1501 8.4625 49.0501 10.325L49.0626 10.3375ZM50.1626 11.1125C51.6126 8.7875 53.5376 6.4875 53.9251 6.15C54.3001 5.8 54.6001 5.9 54.7876 6.05C54.8422 6.09758 54.8867 6.15573 54.9184 6.22095C54.95 6.28616 54.9681 6.3571 54.9716 6.4295C54.9751 6.5019 54.9639 6.57426 54.9387 6.64222C54.9136 6.71019 54.8749 6.77236 54.8251 6.825C54.3501 7.3375 52.4376 9.4125 50.1626 11.1125ZM51.2001 11.975C52.4682 10.3032 53.8821 8.74709 55.4251 7.325C55.8376 7.0125 56.1126 7.1375 56.2876 7.2875C56.3394 7.34034 56.3797 7.40332 56.4061 7.47248C56.4325 7.54164 56.4442 7.6155 56.4407 7.68944C56.4372 7.76337 56.4184 7.83577 56.3856 7.90212C56.3528 7.96847 56.3067 8.02732 56.2501 8.075C55.7376 8.55 53.6251 10.4625 51.2001 11.975ZM52.1501 12.9125C53.5667 11.3451 55.1231 9.91005 56.8001 8.625C57.2501 8.3375 57.5126 8.4875 57.6751 8.6625C57.8251 8.825 57.8626 9.2125 57.5501 9.4375C55.8506 10.7451 54.0443 11.9076 52.1501 12.9125ZM52.9626 13.8875C54.5254 12.4326 56.2108 11.1152 58.0001 9.95C58.4626 9.7 58.7126 9.875 58.8501 10.0625C59.0001 10.2375 58.9876 10.625 58.6751 10.825C58.0751 11.2 55.6376 12.775 52.9626 13.8875ZM53.7001 14.925C55.3905 13.6061 57.1884 12.4311 59.0751 11.4125C59.5751 11.2 59.8126 11.3875 59.9376 11.575C60.0626 11.775 60.0126 12.15 59.6876 12.325C57.7617 13.3536 55.755 14.2231 53.6876 14.925H53.7001ZM54.3751 16.125C56.1958 14.9518 58.1107 13.9317 60.1001 13.075C60.6126 12.9 60.8251 13.1125 60.9251 13.3125C61.0376 13.5125 60.9626 13.8875 60.6001 14.0375C59.9376 14.3125 57.2251 15.4625 54.3751 16.125ZM54.9001 17.275C56.8258 16.246 58.8325 15.3765 60.9001 14.675C61.4251 14.55 61.6126 14.775 61.7001 14.9875C61.7751 15.1875 61.6626 15.5625 61.3001 15.675C60.6126 15.9125 57.8001 16.8375 54.9001 17.275ZM55.3251 18.5C57.3395 17.6286 59.4213 16.9221 61.5501 16.3875C62.0751 16.3125 62.2501 16.5375 62.3126 16.7625C62.3751 16.975 62.2251 17.325 61.8501 17.425C61.1376 17.5875 58.2501 18.3 55.3251 18.5ZM38.4751 7.75C37.8821 5.81838 37.4761 3.83427 37.2626 1.825C37.2626 1.3375 37.5501 1.225 37.7876 1.2C38.0376 1.1875 38.4126 1.3875 38.4376 1.7375C38.5001 2.4 38.7626 5.1 38.4876 7.75H38.4751ZM37.1001 7.9125C36.3182 6.04147 35.7196 4.09906 35.3126 2.1125C35.2626 1.6125 35.5376 1.4875 35.7751 1.45C36.0251 1.4125 36.4001 1.575 36.4751 1.925C36.8661 3.89752 37.0753 5.90175 37.1001 7.9125ZM35.7251 8.1875C34.7651 6.38259 33.9783 4.4908 33.3751 2.5375C33.2751 2.05 33.5376 1.9 33.7751 1.8375C34.0126 1.7875 34.4001 1.9125 34.5126 2.2625C34.7001 2.9 35.4751 5.5125 35.7126 8.175L35.7251 8.1875ZM34.4126 8.5625C33.2957 6.8425 32.3415 5.02212 31.5626 3.125C31.4251 2.65 31.6626 2.475 31.8876 2.4C32.1251 2.325 32.5251 2.425 32.6626 2.75C32.9126 3.375 33.9376 5.925 34.4126 8.55V8.5625ZM33.1501 9C31.8688 7.37768 30.7391 5.64124 29.7751 3.8125C29.6001 3.35 29.8251 3.15 30.0501 3.0625C30.2751 2.9625 30.6751 3.0375 30.8501 3.3625C31.1626 3.9625 32.4126 6.425 33.1501 9ZM31.8626 9.625C30.4252 8.11239 29.1282 6.47232 27.9876 4.725C27.7751 4.2875 27.9751 4.075 28.1876 3.9625C28.4001 3.85 28.8126 3.8875 29.0126 4.2C29.3876 4.775 30.8876 7.1125 31.8626 9.625ZM30.6876 10.3C29.1176 8.90102 27.6744 7.36586 26.3751 5.7125C26.1126 5.2875 26.2876 5.0625 26.5001 4.925C26.6876 4.8 27.1251 4.8 27.3376 5.1C27.7626 5.6375 29.4751 7.85 30.6876 10.2875V10.3ZM29.6001 11.05C27.9008 9.77785 26.3156 8.35998 24.8626 6.8125C24.5626 6.4125 24.7251 6.1875 24.9126 6.0375C25.0447 5.95563 25.2006 5.92094 25.355 5.9391C25.5094 5.95727 25.653 6.0272 25.7626 6.1375C26.2376 6.6375 28.1626 8.725 29.6001 11.05ZM28.5376 11.925C26.7226 10.7948 25.008 9.5109 23.4126 8.0875C23.0626 7.7125 23.2001 7.4625 23.3751 7.3C23.5015 7.20678 23.656 7.15967 23.8129 7.16649C23.9699 7.17331 24.1197 7.23366 24.2376 7.3375C24.7626 7.8 26.8626 9.7125 28.5376 11.9125V11.925ZM27.6126 12.8C25.6988 11.8138 23.8715 10.6681 22.1501 9.375C21.7751 9.025 21.8876 8.775 22.0501 8.6C22.2001 8.425 22.6126 8.3375 22.9126 8.5625C24.5995 9.84024 26.1721 11.2623 27.6126 12.8125V12.8ZM26.7376 13.825C24.7334 12.9951 22.8018 12 20.9626 10.85C20.5501 10.5375 20.6376 10.2625 20.7751 10.0875C20.9126 9.9 21.3126 9.775 21.6376 9.975C22.2376 10.3625 24.6751 11.9125 26.7376 13.825ZM25.9501 14.925C23.1751 14.05 20.3376 12.725 19.9001 12.4375C19.4501 12.1625 19.5251 11.8875 19.6376 11.6875C19.7501 11.4875 20.1376 11.3375 20.4876 11.5125C21.1126 11.85 23.7126 13.2 25.9501 14.925ZM25.2876 16.05C22.4376 15.3875 19.5001 14.3 19.0251 14.05C18.5626 13.8 18.5876 13.525 18.7001 13.325C18.8001 13.125 19.1626 12.9375 19.5251 13.075C20.1876 13.3625 22.9001 14.5 25.2876 16.05ZM24.7626 17.175C22.5834 16.84 20.4348 16.33 18.3376 15.65C17.8376 15.45 17.8626 15.1625 17.9376 14.9625C18.0251 14.75 18.3751 14.5375 18.7376 14.65C19.4376 14.8875 22.2376 15.8125 24.7626 17.175Z" fill="#F31509"/>
<path fill-rule="evenodd" clip-rule="evenodd" d="M24.3126 18.4251C22.1068 18.2749 19.9165 17.9488 17.7626 17.4501C17.2501 17.2876 17.2251 17.0001 17.2876 16.7876C17.3501 16.5751 17.6751 16.3376 18.0626 16.4126C18.7626 16.5876 21.6626 17.2876 24.3126 18.4251Z" fill="#F31509"/>
<path fill-rule="evenodd" clip-rule="evenodd" d="M16.175 17.6875H63.8251V19.2625H16.175V17.6875Z" fill="black"/>
</g>
<defs>
<clipPath id="clip0_3734_59665">
<rect width="80" height="60" fill="white"/>
</clipPath>
</defs>
</svg>
