<svg width="80" height="60" viewBox="0 0 80 60" fill="none" xmlns="http://www.w3.org/2000/svg">
<g clip-path="url(#clip0_3734_59672)">
<path d="M0 0H80V60H0V0Z" fill="#CC0000"/>
<path d="M0.0625 4.9873H79.9375V9.7873H0.0625V4.9873ZM0.0625 14.8248H79.9375V19.6248H0.0625V14.8248ZM0.0625 24.6748H79.9375V29.4748H0.0625V24.6748Z" fill="white"/>
<path d="M0 0.0625H40V35.0625H0V0.0625Z" fill="#000066"/>
<path d="M25.9374 9.225L26.6874 14.3125L29.5624 10.0625L28.0124 14.9625L32.4499 12.3625L28.9374 16.1125L34.0624 15.7125L29.2749 17.5625L34.0624 19.4125L28.9374 19.0125L32.4499 22.7625L28.0124 20.1625L29.5499 25.075L26.6749 20.8125L25.9249 25.9L25.1874 20.8125L22.3124 25.0625L23.8624 20.1625L19.4249 22.7625L22.9249 19.0125L17.7999 19.4125L22.5999 17.5625L17.8124 15.7125L22.9374 16.1125L19.4249 12.3625L23.8624 14.9625L22.3124 10.05L25.1874 14.3125L25.9374 9.225ZM21.7749 9.4375C20.4219 8.83772 18.9405 8.58534 17.4651 8.70326C15.9898 8.82118 14.5673 9.30567 13.3267 10.1128C12.0861 10.9198 11.0667 12.024 10.361 13.3249C9.65537 14.6259 9.28575 16.0825 9.28575 17.5625C9.28575 19.0425 9.65537 20.4991 10.361 21.8001C11.0667 23.101 12.0861 24.2052 13.3267 25.0123C14.5673 25.8193 15.9898 26.3038 17.4651 26.4217C18.9405 26.5397 20.4219 26.2873 21.7749 25.6875C20.2806 26.7597 18.5195 27.399 16.6854 27.5351C14.8513 27.6712 13.0151 27.2989 11.3789 26.459C9.7427 25.6192 8.36978 24.3444 7.41115 22.7748C6.45252 21.2052 5.94531 19.4017 5.94531 17.5625C5.94531 15.7233 6.45252 13.9198 7.41115 12.3502C8.36978 10.7806 9.7427 9.50582 11.3789 8.66598C13.0151 7.82615 14.8513 7.45381 16.6854 7.58993C18.5195 7.72604 20.2806 8.36534 21.7749 9.4375Z" fill="#FFCC00"/>
<path d="M0.0625 34.5254H79.9375V39.3254H0.0625V34.5254ZM0.0625 44.3004H79.9375V49.1004H0.0625V44.3004ZM0 55.2004H79.875V60.0004H0V55.2004Z" fill="white"/>
</g>
<defs>
<clipPath id="clip0_3734_59672">
<rect width="80" height="60" fill="white"/>
</clipPath>
</defs>
</svg>
