<svg width="80" height="60" viewBox="0 0 80 60" fill="none" xmlns="http://www.w3.org/2000/svg">
<g clip-path="url(#clip0_3734_59727)">
<path fill-rule="evenodd" clip-rule="evenodd" d="M40 0H80V60H40V0Z" fill="#CE0000"/>
<path fill-rule="evenodd" clip-rule="evenodd" d="M0 0H40V60H0V0Z" fill="white"/>
<path fill-rule="evenodd" clip-rule="evenodd" d="M19.3916 17.7309C19.3916 17.9108 19.2117 18.0307 18.9919 18.0307C18.7521 18.0307 18.5923 17.9108 18.5923 17.7509C18.5923 17.591 18.7521 17.4512 18.9919 17.4512C19.2117 17.4512 19.3916 17.591 19.3916 17.7509V17.7309Z" fill="#F1EEEE"/>
<path fill-rule="evenodd" clip-rule="evenodd" d="M6.58301 16.3322V23.7657H14.0365C14.0365 25.0046 15.2754 26.2435 16.5143 26.2435V33.677H23.9678V26.2435C25.2067 26.2435 26.4456 25.0046 26.4456 23.7657H33.8791V16.3322H26.4256C26.4256 15.0933 25.1867 13.8544 23.9478 13.8544V6.4209H16.5143V13.8544C15.2554 13.8544 14.0165 15.0933 14.0165 16.3322H6.58301Z" fill="#CC0000"/>
<path fill-rule="evenodd" clip-rule="evenodd" d="M6.84277 16.5725V23.5264H14.2763C14.2763 24.7653 15.5152 26.0042 16.7541 26.0042V33.4377H23.688V26.0242C24.9269 26.0242 26.1659 24.7853 26.1659 23.5463H33.6193V16.5924H26.1858C26.1858 15.3535 24.9469 14.1146 23.708 14.1146V6.66113H16.7541V14.0946C15.5152 14.0946 14.2763 15.3335 14.2763 16.5725H6.84277Z" fill="#FFE600"/>
<path fill-rule="evenodd" clip-rule="evenodd" d="M7.08252 16.8322V23.2666H14.516C14.516 24.5055 15.7549 25.7444 16.9938 25.7444V33.1779H23.4482V25.7444C24.6871 25.7444 25.926 24.5055 25.926 23.2666H33.3595V16.8322H25.926C25.926 15.5933 24.6871 14.3544 23.4482 14.3544V6.9209H16.9938V14.3344C15.7549 14.3344 14.516 15.5733 14.516 16.8122H7.08252V16.8322Z" fill="#707070"/>
<path fill-rule="evenodd" clip-rule="evenodd" d="M7.34225 17.0715V23.0263H14.7757C14.7757 24.2652 16.0147 25.5041 17.2536 25.5041V32.9176H23.1884V25.4841C24.4273 25.4841 25.6662 24.2452 25.6662 23.0063H33.0997V17.0515H25.6662C25.6662 15.8126 24.4273 14.5737 23.1884 14.5737V7.16016H17.2536V14.5936C16.0147 14.5936 14.7757 15.8326 14.7757 17.0715H7.32227H7.34225Z" fill="#A0A0A0"/>
<path fill-rule="evenodd" clip-rule="evenodd" d="M17.3136 13.974C17.7332 14.4136 17.3935 15.4727 16.5143 16.3519C15.6351 17.2311 14.596 17.5508 14.1564 17.1512C13.7168 16.6916 14.0764 15.6325 14.9557 14.7533C15.8349 13.8741 16.874 13.5543 17.3136 13.974Z" fill="#D0D0D0"/>
<path fill-rule="evenodd" clip-rule="evenodd" d="M16.7743 14.4938C17.2139 14.9335 17.094 15.7527 16.5145 16.3522C15.935 16.9517 15.1157 17.0516 14.6761 16.612C14.2365 16.1724 14.3564 15.3531 14.9359 14.7736C15.5154 14.1941 16.3347 14.0742 16.7743 14.4938Z" fill="#808080"/>
<path fill-rule="evenodd" clip-rule="evenodd" d="M14.5962 15.8122L14.7561 15.6523L15.4554 15.992L15.1157 15.2926L15.2956 15.1128L15.995 16.5115L14.5962 15.8122ZM15.6353 14.7731L15.8351 14.5732L16.8742 15.6523L16.6944 15.8122L15.6353 14.7731Z" fill="#D0D0D0"/>
<path fill-rule="evenodd" clip-rule="evenodd" d="M26.2857 17.132C25.8461 17.5716 24.787 17.2119 23.9277 16.3327C23.0685 15.4534 22.6888 14.4143 23.1284 13.9747C23.568 13.5351 24.6271 13.8948 25.5063 14.774C26.3856 15.6533 26.7053 16.6924 26.3056 17.132H26.2857Z" fill="#D0D0D0"/>
<path fill-rule="evenodd" clip-rule="evenodd" d="M25.7663 16.6126C25.3267 17.0523 24.5074 16.9324 23.9279 16.3529C23.3484 15.7734 23.2285 14.9541 23.6481 14.5145C24.0878 14.0749 24.927 14.1948 25.5065 14.7743C26.086 15.3537 26.2059 16.173 25.7663 16.6126Z" fill="#808080"/>
<path fill-rule="evenodd" clip-rule="evenodd" d="M24.4474 14.4141L24.6273 14.5939L24.2676 15.2933L24.967 14.9336L25.1668 15.1334L23.748 15.8128L24.4474 14.4141ZM25.5065 15.4731L25.6664 15.633L24.6273 16.6921L24.4474 16.5122L25.5065 15.4731Z" fill="#D0D0D0"/>
<path fill-rule="evenodd" clip-rule="evenodd" d="M23.1285 26.1237C22.6889 25.684 23.0486 24.625 23.9278 23.7457C24.8071 22.8665 25.8462 22.5268 26.2858 22.9464C26.7254 23.3861 26.3657 24.4451 25.4865 25.3244C24.6072 26.2036 23.5682 26.5433 23.1285 26.1237Z" fill="#D0D0D0"/>
<path fill-rule="evenodd" clip-rule="evenodd" d="M23.6683 25.5843C23.2287 25.1447 23.3486 24.3254 23.9281 23.7459C24.5076 23.1664 25.3268 23.0465 25.7665 23.4862C26.2061 23.9258 26.0862 24.7451 25.5067 25.3246C24.9272 25.904 24.1079 26.0239 23.6483 25.5843H23.6683Z" fill="#808080"/>
<path fill-rule="evenodd" clip-rule="evenodd" d="M25.8464 24.2648L25.6666 24.4646L24.9672 24.105L25.3269 24.8043L25.147 24.9642L24.4476 23.5654L25.8464 24.2648ZM24.8273 25.3239L24.6275 25.5037L23.5884 24.4447L23.7682 24.2648L24.8273 25.3239Z" fill="#D0D0D0"/>
<path fill-rule="evenodd" clip-rule="evenodd" d="M14.1564 22.9664C14.596 22.5268 15.6551 22.8865 16.5143 23.7458C17.3736 24.605 17.7333 25.6841 17.3136 26.1037C16.874 26.5433 15.815 26.2036 14.9357 25.3244C14.0565 24.4451 13.7368 23.3861 14.1364 22.9664H14.1564Z" fill="#D0D0D0"/>
<path fill-rule="evenodd" clip-rule="evenodd" d="M14.6761 23.4862C15.1157 23.0465 15.935 23.1664 16.5145 23.7459C17.094 24.3254 17.2139 25.1447 16.7743 25.5843C16.3546 26.0239 15.5154 25.904 14.9359 25.3246C14.3564 24.7451 14.2365 23.9258 14.6761 23.4862Z" fill="#808080"/>
<path fill-rule="evenodd" clip-rule="evenodd" d="M15.9948 25.6843L15.815 25.4844L16.1747 24.805L15.4753 25.1447L15.2754 24.9649L16.6942 24.2655L15.9948 25.6643V25.6843ZM14.9357 24.6252L14.7759 24.4453L15.815 23.4062L15.9948 23.5661L14.9357 24.6252Z" fill="#D0D0D0"/>
<path d="M25.4416 20.0535C25.4416 22.9212 23.1118 25.2574 20.2355 25.2574C17.3591 25.2574 15.0361 22.9282 15.0361 20.0535C15.0361 17.1788 17.3659 14.8496 20.2423 14.8496C23.1186 14.8496 25.4484 17.1788 25.4484 20.0535H25.4416Z" stroke="#707070" stroke-width="0.0921716"/>
<path d="M24.1779 20.043C24.1779 22.2279 22.4028 24.0079 20.2113 24.0079C18.0199 24.0079 16.25 22.2333 16.25 20.043C16.25 17.8527 18.0251 16.0781 20.2165 16.0781C22.408 16.0781 24.1831 17.8527 24.1831 20.043H24.1779Z" stroke="#707070" stroke-width="0.0702257"/>
<path fill-rule="evenodd" clip-rule="evenodd" d="M18.4927 24.2654C18.4927 24.3317 18.4664 24.3952 18.4196 24.442C18.3727 24.4889 18.3092 24.5152 18.2429 24.5152C18.1767 24.5152 18.1132 24.4889 18.0663 24.442C18.0195 24.3952 17.9932 24.3317 17.9932 24.2654C17.9932 24.1992 18.0195 24.1356 18.0663 24.0888C18.1132 24.0419 18.1767 24.0156 18.2429 24.0156C18.3092 24.0156 18.3727 24.0419 18.4196 24.0888C18.4664 24.1356 18.4927 24.1992 18.4927 24.2654ZM22.4493 24.2654C22.4493 24.3317 22.4229 24.3952 22.3761 24.442C22.3293 24.4889 22.2657 24.5152 22.1995 24.5152C22.1332 24.5152 22.0697 24.4889 22.0229 24.442C21.976 24.3952 21.9497 24.3317 21.9497 24.2654C21.9497 24.1992 21.976 24.1356 22.0229 24.0888C22.0697 24.0419 22.1332 24.0156 22.1995 24.0156C22.2657 24.0156 22.3293 24.0419 22.3761 24.0888C22.4229 24.1356 22.4493 24.1992 22.4493 24.2654ZM20.0514 24.2654V24.5252H19.7316C19.3919 24.5252 19.3919 24.785 19.7316 24.785H20.0514V25.0247C20.0514 25.3045 20.3511 25.3245 20.3711 25.0447V24.765H20.7108C21.0505 24.765 21.0505 24.5252 20.7108 24.5252H20.3911V24.2654C20.3911 24.0056 20.0514 24.0056 20.0514 24.2654Z" fill="#D0D0D0"/>
<path fill-rule="evenodd" clip-rule="evenodd" d="M18.992 20.5884V20.7482C18.992 20.7482 18.9121 20.8481 18.4125 20.8881C17.9129 20.9281 17.833 20.8881 17.833 20.8881C17.853 21.028 17.9529 21.2678 17.9129 21.5475C17.9329 21.8872 17.833 22.187 17.833 22.187C17.833 22.2069 17.7731 22.2269 17.6732 22.2069C17.7531 22.127 17.7531 21.9272 17.7531 21.6075C17.7531 21.3277 17.4534 20.8681 17.5133 20.7482C17.5732 20.6283 18.992 20.5884 18.992 20.5884ZM20.9503 20.0688L22.2491 20.0488C22.2491 20.0488 22.449 20.4485 22.429 20.6483C22.429 20.8481 22.3491 21.048 22.2691 20.948C22.1692 20.8481 22.3091 20.8681 22.3291 20.6483C22.3291 20.4085 22.1692 20.1887 22.1692 20.1887C22.1692 20.1887 21.8095 20.3286 21.29 20.3086C20.7704 20.2686 21.0102 20.0688 20.9503 20.0688Z" fill="#D0D0D0" stroke="#707070" stroke-width="0.0199825"/>
<path fill-rule="evenodd" clip-rule="evenodd" d="M21.1102 20.4486C21.5898 20.4286 21.9095 20.4885 21.9095 20.4885C21.9095 20.4885 22.1094 20.8882 22.1094 21.088C22.0894 21.2878 22.0294 21.4876 21.9295 21.3877C21.8496 21.3078 21.9695 21.3278 21.9895 21.088C21.9895 20.8682 21.8296 20.6284 21.8296 20.6284C21.8296 20.6284 21.4899 20.7683 20.9704 20.7483C20.4508 20.7083 20.6107 20.6883 20.5507 20.6684C20.4908 20.6684 20.4708 20.8282 19.6915 20.8482C18.8922 20.8482 18.4925 20.6684 18.4925 20.6684C18.4925 20.6684 18.4126 20.7883 17.933 20.8282H17.3336C17.3535 20.9481 17.4534 21.1879 17.4335 21.4876C17.4335 21.8074 17.3336 22.1271 17.3336 22.1271H17.1937C17.2736 22.0671 17.2536 21.8473 17.2736 21.5476C17.2736 21.2479 16.9539 20.8082 17.0138 20.6684C17.0938 20.5485 17.4534 20.6684 17.5134 20.6084C17.5733 20.5285 17.1937 20.0689 17.2736 19.6493C17.3336 19.2296 17.7532 19.3495 18.2527 19.3495C18.7523 19.3695 19.8513 19.5094 20.1311 19.3495C20.4109 19.2096 20.291 18.6701 20.5308 18.3304C20.6103 18.2332 20.7112 18.1557 20.8255 18.1037C20.9399 18.0517 21.0646 18.0267 21.1902 18.0307C21.37 18.0307 21.5898 18.6301 21.5898 18.77L21.5299 18.85H21.4499V18.9099C21.2501 18.9299 21.2301 18.75 21.1102 18.6301C21.0703 18.83 21.2701 19.5094 21.2701 19.949C21.2701 20.3087 21.1302 20.4685 21.1102 20.4486Z" fill="#D0D0D0" stroke="#707070" stroke-width="0.0199825"/>
<path fill-rule="evenodd" clip-rule="evenodd" d="M19.5318 19.8096C19.5318 19.9495 18.9124 20.2892 18.8524 20.4091C18.8125 20.549 19.0123 20.6089 18.9523 20.6889C18.8924 20.7688 18.8324 20.7288 18.8125 20.7488L18.5727 20.2492C18.5727 20.2492 19.1721 19.9695 19.1522 19.8496C19.1322 19.7297 18.7125 19.6498 18.6326 19.37C18.5527 19.0903 18.5926 18.5108 18.5327 18.3909C18.4728 18.271 17.7334 18.1511 17.7334 17.9912C17.7334 17.7914 18.4927 17.3118 18.5727 17.2319C18.6526 17.152 18.7325 17.3118 18.6526 17.3718C18.5727 17.4517 17.9932 17.9113 17.9932 17.9712C17.9932 18.0512 18.4728 18.1311 18.6326 18.1311C18.8125 18.1311 18.8924 18.0512 18.8924 17.9712C18.8924 17.9113 18.7125 17.9113 18.7125 17.7714C18.7125 17.6315 18.8125 17.5316 18.9723 17.5316C19.0522 17.5316 19.2121 17.6315 19.2121 17.7514C19.2121 17.8713 19.0722 17.8913 19.0522 17.9712C19.0323 18.0712 19.2121 18.1311 19.372 18.1311C19.5318 18.1311 20.0913 18.5507 20.1713 18.6307C20.2712 18.6906 20.3511 18.6906 20.2712 18.7705C20.1912 18.8505 20.2312 18.9304 20.1513 18.8505C20.1124 18.812 20.0847 18.7636 20.0714 18.7106C20.0714 18.6506 19.4719 18.3509 19.372 18.4109C19.292 18.4908 19.372 19.37 19.372 19.4499C19.372 19.5898 19.5518 19.5898 19.5318 19.8096Z" fill="#D0D0D0" stroke="#707070" stroke-width="0.0199825"/>
<path fill-rule="evenodd" clip-rule="evenodd" d="M18.4927 18.1104H19.4918V19.1295H18.4927V18.1104Z" fill="#A7A7A7"/>
<path d="M21.6711 21.7879L18.3918 16.8654C18.3612 16.8195 18.3206 16.7906 18.3012 16.801C18.2817 16.8114 18.2907 16.8571 18.3213 16.903L21.6006 21.8255C21.6312 21.8714 21.6718 21.9002 21.6912 21.8898C21.7107 21.8794 21.7017 21.8338 21.6711 21.7879Z" fill="#808080"/>
<path fill-rule="evenodd" clip-rule="evenodd" d="M18.7514 17.3108C18.7514 17.3498 18.7342 17.3871 18.7034 17.4146C18.6726 17.4421 18.6309 17.4576 18.5874 17.4576C18.5439 17.4576 18.5022 17.4421 18.4714 17.4146C18.4406 17.3871 18.4233 17.3498 18.4233 17.3108C18.4233 17.2719 18.4406 17.2346 18.4714 17.2071C18.5022 17.1795 18.5439 17.1641 18.5874 17.1641C18.6309 17.1641 18.6726 17.1795 18.7034 17.2071C18.7342 17.2346 18.7514 17.2719 18.7514 17.3108Z" fill="#D0D0D0" stroke="#707070" stroke-width="0.02914"/>
<path fill-rule="evenodd" clip-rule="evenodd" d="M21.6098 18.6306C21.6098 18.6906 21.2101 18.7705 20.7905 18.7705C20.3509 18.7705 19.9712 18.6906 19.9712 18.6306C19.9712 18.5707 20.3509 18.7306 20.7705 18.7306C21.2301 18.7306 21.6098 18.5707 21.6098 18.6306Z" fill="#808080"/>
<path fill-rule="evenodd" clip-rule="evenodd" d="M18.5723 19.1299H19.3915V19.4296H18.5922L18.5723 19.1299Z" fill="#A7A7A7"/>
<path fill-rule="evenodd" clip-rule="evenodd" d="M21.2302 18.4101C21.1502 18.5699 21.0903 18.6699 21.0703 18.6499C21.0703 18.6499 21.1103 18.49 21.1902 18.3501L21.3501 18.1104C21.3701 18.1303 21.3101 18.2702 21.2302 18.4101ZM21.43 18.8097L21.2701 18.9097C21.3116 18.8401 21.3658 18.7791 21.43 18.7298C21.5299 18.6499 21.6098 18.6099 21.6098 18.6299L21.45 18.7898L21.43 18.8097Z" fill="#808080"/>
<path fill-rule="evenodd" clip-rule="evenodd" d="M21.3499 18.61L21.4498 18.8498L21.2899 18.6499L21.19 18.4102L21.3499 18.61ZM21.2699 19.2494C21.2699 19.2494 21.0301 19.2894 20.7104 19.2894C20.3907 19.2894 20.1309 19.2694 20.1309 19.2494L20.7104 19.2095C21.0301 19.2095 21.2699 19.2095 21.2699 19.2494ZM19.3916 19.1695C19.3916 19.1895 19.2117 19.2095 18.9919 19.2095C18.7521 19.2095 18.5923 19.2095 18.5923 19.1695C18.5923 19.1695 18.7521 19.1295 18.9919 19.1295C19.2117 19.1295 19.3916 19.1495 19.3916 19.1695Z" fill="#808080"/>
<path fill-rule="evenodd" clip-rule="evenodd" d="M17.5933 21.7276C17.5933 21.7276 17.7331 22.0474 18.3126 22.0474C18.8721 22.0474 19.072 21.9474 18.8522 21.7876C18.6324 21.6277 18.1728 21.6677 18.2527 21.8076C18.2926 21.9674 18.0728 22.0074 18.0329 21.9075C17.9729 21.8076 17.7731 21.4878 18.1328 21.4679C18.5125 21.4479 19.2918 21.328 19.4916 21.5478C19.6914 21.7676 19.2718 21.9474 19.5915 22.0074C19.8912 22.0474 19.9512 21.9474 20.4907 21.9275C21.0303 21.8875 21.2501 22.0274 21.4299 22.0074C21.6297 22.0074 21.5898 21.6677 21.4299 21.6077C21.29 21.5078 21.0103 21.4878 20.9303 21.4079C20.8704 21.308 20.6706 21.4079 20.6905 21.288C20.6905 21.1881 20.9703 21.348 20.9703 21.308L21.0103 21.268H20.9503L20.9703 21.2281L20.9303 21.2481L20.9503 21.2081C20.9503 21.2081 20.8904 21.2481 20.8904 21.2081H20.8504C20.8904 21.1681 20.8704 21.1681 20.8504 21.1481H20.7905V21.0882C20.7505 21.0882 20.7505 21.0882 20.7305 21.1282V21.0282C20.7305 21.0083 20.7705 20.9883 20.8304 20.9883C20.9703 20.9883 21.0303 21.1481 21.0902 21.1481C21.1302 21.1481 21.1901 20.9883 21.37 21.0482L21.6697 21.1681C21.7696 21.2281 21.6097 21.288 21.6697 21.3679C21.7296 21.4479 22.0893 21.7076 21.9894 22.0074C21.8895 22.2871 21.5898 22.3271 21.5898 22.447C21.5498 22.5669 22.449 22.5269 22.6688 22.5669C22.8217 22.5946 22.9578 22.6806 23.0485 22.8067L22.6488 22.8267C22.6488 22.8267 22.449 22.7268 21.9494 22.7068C21.4499 22.7068 21.27 22.507 21.0702 22.467L20.2709 22.5069L19.6714 22.447C19.5515 22.427 18.8322 22.7667 18.8322 22.8467H18.3526C18.3526 22.8467 18.4125 22.6668 18.6923 22.6468C18.9521 22.6069 19.2318 22.487 19.2118 22.407L19.2918 21.8875C19.2918 21.7676 19.4117 21.6877 19.3917 21.6477C19.3717 21.5678 19.052 21.5078 18.7522 21.5078C18.4525 21.5078 18.1328 21.5278 18.0728 21.5878C18.0329 21.6677 18.0728 21.8875 18.1328 21.8475C18.1927 21.8475 18.1128 21.6877 18.1728 21.6677C18.3022 21.6279 18.4369 21.6077 18.5724 21.6077C18.7323 21.6077 18.992 21.7476 18.992 21.8076C18.992 21.8275 19.072 21.9674 18.9521 22.0274C18.7526 22.0935 18.5423 22.1206 18.3326 22.1073C18.1238 22.0964 17.9196 22.042 17.7331 21.9474C17.6532 21.8875 17.5933 21.7476 17.5933 21.7276Z" fill="#D0D0D0" stroke="#808080" stroke-width="0.0199825"/>
<path fill-rule="evenodd" clip-rule="evenodd" d="M21.2302 21.2279C21.2302 21.2358 21.2287 21.2436 21.2257 21.2509C21.2227 21.2581 21.2183 21.2647 21.2127 21.2703C21.2071 21.2759 21.2005 21.2803 21.1932 21.2833C21.186 21.2863 21.1782 21.2879 21.1703 21.2879C21.1624 21.2879 21.1546 21.2863 21.1474 21.2833C21.1401 21.2803 21.1335 21.2759 21.1279 21.2703C21.1223 21.2647 21.1179 21.2581 21.1149 21.2509C21.1119 21.2436 21.1104 21.2358 21.1104 21.2279C21.1104 21.212 21.1167 21.1968 21.1279 21.1855C21.1392 21.1743 21.1544 21.168 21.1703 21.168C21.1862 21.168 21.2014 21.1743 21.2127 21.1855C21.2239 21.1968 21.2302 21.212 21.2302 21.2279Z" fill="black"/>
<path d="M24.3274 20.2891L24.6471 20.349L25.1866 19.9893L25.1467 20.1891L24.8669 20.369L24.7071 20.4489L24.807 20.6088L24.9868 20.8885L24.9468 21.0884L24.6071 20.5089L24.2874 20.4489L24.3274 20.2891ZM23.7879 17.9311L24.3873 17.6514L24.2275 17.2917L24.3074 17.2517L24.7071 18.1309L24.6471 18.1709L24.4673 17.7912L23.8678 18.091L23.7879 17.9311ZM22.8287 16.7721L23.3882 16.2526L23.5081 16.3725V17.2517L23.9477 16.8521L24.0476 16.972L23.4881 17.4915L23.3682 17.3716V16.4924L22.9286 16.892L22.8287 16.7721ZM20.3509 15.773L20.4508 15.0137H20.6106L20.5107 15.7131L21.1102 15.773V15.8729L20.3509 15.773ZM19.1319 15.8929L18.9921 15.1336L19.1519 15.0936L19.2718 15.773L19.8713 15.6531V15.753L19.1319 15.8929ZM16.8739 16.9919L16.814 16.932L17.2136 16.6123L17.4134 16.8121C17.3705 16.8985 17.3168 16.979 17.2536 17.0519C17.2017 17.1254 17.1414 17.1924 17.0737 17.2517C16.9894 17.3192 16.895 17.3732 16.794 17.4116C16.6941 17.4316 16.5942 17.4515 16.5342 17.4116C16.4578 17.4034 16.3868 17.3679 16.3344 17.3117C16.2939 17.253 16.273 17.1831 16.2744 17.1118C16.2744 17.0319 16.2944 16.932 16.3544 16.8521C16.3943 16.7721 16.4743 16.6922 16.5542 16.6323C16.6208 16.5758 16.6947 16.5288 16.774 16.4924L16.9538 16.4524C16.9938 16.4524 17.0538 16.4524 17.0937 16.4924L17.0138 16.5923C16.976 16.5762 16.9349 16.5694 16.8939 16.5723L16.774 16.5923C16.7231 16.6191 16.676 16.6528 16.6341 16.6922C16.5742 16.7322 16.5142 16.7721 16.4942 16.8321C16.4606 16.8669 16.4335 16.9075 16.4143 16.952V17.0519C16.4143 17.1118 16.4343 17.1718 16.4743 17.2117L16.6141 17.3117L16.814 17.2917C16.9979 17.214 17.1471 17.0719 17.2336 16.892L17.1537 16.7721L16.8739 16.9919ZM16.8539 22.5271L16.2145 22.9867L15.7349 22.3073L15.8148 22.2473L16.2145 22.7869L16.3943 22.647L16.0746 22.1874L16.1346 22.1474L16.4743 22.607L16.754 22.4072L16.8539 22.5271ZM15.9148 21.528C16.0147 21.508 16.0746 21.448 16.1146 21.3481V21.0484C16.0831 20.9452 16.0202 20.8544 15.9347 20.7886C15.8748 20.7287 15.7749 20.7087 15.6949 20.7287C15.6317 20.7425 15.5752 20.7778 15.5351 20.8286C15.5151 20.8685 15.4751 20.9285 15.4751 20.9884L15.4951 21.2082C15.5351 21.3281 15.5751 21.4081 15.655 21.488C15.7149 21.5479 15.8148 21.5679 15.9148 21.528ZM15.9747 21.6878C15.9161 21.7065 15.8536 21.7089 15.7938 21.6948C15.734 21.6807 15.6791 21.6507 15.635 21.6079C15.5284 21.5119 15.452 21.3869 15.4152 21.2482C15.3752 21.1283 15.3752 21.0484 15.3752 20.9285C15.3752 20.8086 15.4152 20.7686 15.4552 20.7087C15.5007 20.6375 15.5725 20.5872 15.655 20.5688C15.722 20.5538 15.7921 20.5608 15.8548 20.5888C15.9347 20.6288 15.9947 20.6687 16.0546 20.7486C16.1774 20.9232 16.234 21.1357 16.2145 21.3481C16.2073 21.4271 16.1797 21.5028 16.1346 21.5679C16.0946 21.6279 16.0347 21.6678 15.9747 21.6878ZM16.0347 20.1292H15.2354V19.5697L15.2753 19.3299L15.3552 19.19C15.3715 19.1756 15.3905 19.1646 15.4111 19.1577C15.4317 19.1508 15.4535 19.1482 15.4751 19.15C15.5351 19.15 15.5751 19.17 15.615 19.23C15.635 19.2899 15.675 19.3699 15.675 19.4898C15.7013 19.4054 15.7496 19.3296 15.8148 19.2699L16.0347 19.0701V19.2699L15.8748 19.4098L15.7549 19.5297C15.7311 19.5533 15.7109 19.5802 15.6949 19.6096C15.6916 19.6362 15.6916 19.663 15.6949 19.6896V19.7695L15.675 19.9693H16.0347V20.1292ZM15.595 19.9493V19.6096C15.6018 19.5499 15.6018 19.4896 15.595 19.4298C15.5879 19.4005 15.5743 19.3732 15.5551 19.3499C15.5408 19.3296 15.5194 19.3153 15.4951 19.3099C15.4552 19.3099 15.4152 19.3299 15.3952 19.3699L15.3552 19.5697V19.9693H15.615L15.595 19.9493ZM17.7332 16.5723V15.6731L17.893 15.5732L18.7123 15.9728L18.5524 16.0727L18.3127 15.9528L17.893 16.2126V16.4924L17.7332 16.5723ZM17.873 16.1127L18.2327 15.9129L18.0329 15.793C17.9709 15.7634 17.9109 15.7301 17.8531 15.6931L17.873 15.8529V16.1127ZM21.5898 15.8729L22.4291 15.5332L22.5689 15.6331L22.509 16.5523L22.3691 16.4324L22.3891 16.1727L21.9894 15.8729L21.7297 15.9728L21.5898 15.8729ZM22.0694 15.833L22.4091 16.0727V15.833C22.4183 15.7656 22.4317 15.6989 22.449 15.6331C22.4065 15.6718 22.3595 15.7053 22.3092 15.733L22.0694 15.833ZM24.1276 18.6905L24.8869 18.5106L25.0068 19.0501L25.0468 19.2899L25.0068 19.4298C24.9965 19.4493 24.9824 19.4664 24.9652 19.4802C24.948 19.494 24.9281 19.504 24.9069 19.5097C24.8469 19.5097 24.787 19.5097 24.747 19.4698C24.681 19.4029 24.6329 19.3204 24.6071 19.23C24.6105 19.2632 24.6105 19.2967 24.6071 19.3299L24.5272 19.4898L24.3674 19.7295L24.3274 19.5297L24.4473 19.3299L24.5272 19.21C24.5543 19.1611 24.5681 19.106 24.5672 19.0501C24.5628 19.0164 24.5561 18.983 24.5472 18.9502L24.5072 18.7704L24.1675 18.8503L24.1276 18.6905ZM24.5872 18.7504L24.6671 19.0901C24.6671 19.15 24.7071 19.21 24.727 19.25C24.727 19.2899 24.767 19.3099 24.787 19.3299L24.8669 19.3499C24.8869 19.3499 24.9269 19.3099 24.9269 19.2699C24.943 19.2043 24.943 19.1358 24.9269 19.0701L24.827 18.6905L24.5872 18.7504Z" fill="#D0D0D0"/>
</g>
<defs>
<clipPath id="clip0_3734_59727">
<rect width="80" height="60" fill="white"/>
</clipPath>
</defs>
</svg>
