<svg width="80" height="60" viewBox="0 0 80 60" fill="none" xmlns="http://www.w3.org/2000/svg">
<g clip-path="url(#clip0_3734_59766)">
<path fill-rule="evenodd" clip-rule="evenodd" d="M0 0H79.9875V60H0V0Z" fill="#3B5AA3"/>
<path fill-rule="evenodd" clip-rule="evenodd" d="M0 58.375L79.9875 0V10.875L0 60V58.375Z" fill="#E2AE57"/>
<path fill-rule="evenodd" clip-rule="evenodd" d="M2.8 60.0004L80 22.4004L79.9875 10.4629L0 60.0004H2.8ZM21.925 1.90039L21.125 14.7504L17.75 6.55039L19.05 15.2754L13.8125 8.22539L17.25 16.2629L10.375 10.9379L15.725 17.6379L7.9625 14.1879L14.7625 19.3379L6.3 18.2129L14.3 21.3879L1.75 22.5379L14.325 23.3754L6.3625 26.6504L14.7375 25.5254L7.95 30.5254L15.825 27.0754L10.45 33.8254L17.275 28.6629L13.9 36.5254L19.35 29.6879L17.875 38.2004L21.3125 30.2379L22.0875 42.8254L23.3 30.2754L26.2625 38.2754L25.1375 29.6504L30.5625 36.5004L26.9875 28.5004L33.8125 34.0004L28.3875 27.1379L36.5 30.5129L29.325 25.2754L38.0625 26.7504L29.6875 23.5379L42.7 22.7254L29.7 21.5129L38.2625 18.6629L29.3875 19.7879L36.7125 14.6629L28.4625 17.9754L34.1625 11.0629L27.2125 16.4879L30.55 8.18789L25.1625 15.2379L26.325 6.43789L23.1125 14.7504L21.9125 1.90039H21.925Z" fill="white"/>
</g>
<defs>
<clipPath id="clip0_3734_59766">
<rect width="80" height="60" fill="white"/>
</clipPath>
</defs>
</svg>
