<svg width="80" height="60" viewBox="0 0 80 60" fill="none" xmlns="http://www.w3.org/2000/svg">
<g clip-path="url(#clip0_3734_59778)">
<path d="M0 0H80V60H0V0Z" fill="#CD2A3E"/>
<path d="M0 9H80V51H0V9Z" fill="#006233"/>
<path d="M58.75 19.3252C58.75 24.298 56.7746 29.0671 53.2583 32.5834C49.742 36.0998 44.9728 38.0752 40 38.0752C35.0272 38.0752 30.2581 36.0998 26.7418 32.5834C23.2255 29.0671 21.25 24.298 21.25 19.3252C20.8333 20.9251 20.6233 22.5719 20.625 24.2252C20.625 29.3638 22.6663 34.2919 26.2998 37.9254C29.9333 41.5589 34.8614 43.6002 40 43.6002C45.1386 43.6002 50.0667 41.5589 53.7002 37.9254C57.3337 34.2919 59.375 29.3638 59.375 24.2252C59.3774 22.5718 59.1674 20.925 58.75 19.3252Z" fill="#FFC400"/>
<path d="M40 11.7246L38.3125 16.9121H32.875L37.2875 20.1121L35.6 25.2871L40.0125 22.0871L44.425 25.2871L42.7375 20.1121L47.15 16.9121H41.7L40 11.7246Z" fill="#FFC400"/>
</g>
<defs>
<clipPath id="clip0_3734_59778">
<rect width="80" height="60" fill="white"/>
</clipPath>
</defs>
</svg>
