<svg width="80" height="60" viewBox="0 0 80 60" fill="none" xmlns="http://www.w3.org/2000/svg">
<g clip-path="url(#clip0_3734_60172)">
<mask id="mask0_3734_60172" style="mask-type:luminance" maskUnits="userSpaceOnUse" x="-1" y="0" width="82" height="61">
<path d="M-0.0151367 0H80.1904V60.16H-0.0151367V0Z" fill="white"/>
</mask>
<g mask="url(#mask0_3734_60172)">
<path fill-rule="evenodd" clip-rule="evenodd" d="M-20.0723 0H100.248V60.16H-20.0723V0Z" fill="#6797D6"/>
<path fill-rule="evenodd" clip-rule="evenodd" d="M40.0643 14.4521L36.2573 17.0606L37.7143 12.8424L33.8955 10.2339H38.6073L40.0643 6.01562L41.5213 10.2456H46.2213L42.4143 12.8424L43.8713 17.0606M40.0643 45.8246L36.2573 43.2161L37.7143 47.4461L33.8955 50.0429H38.6073L40.0643 54.2611L41.5213 50.0311L46.2213 50.0429L42.4143 47.4344L43.8713 43.2161M21.7343 32.3591L18.8555 35.9546L19.02 31.4896L14.6138 30.1149L19.1258 28.7401L19.2785 24.2751L21.8988 27.8941L26.4108 26.5076L23.5203 30.1149L26.1523 33.7221M58.3708 32.3474L61.2613 35.9546L61.0968 31.4896L65.503 30.1149L60.991 28.7401L60.8383 24.2751L58.218 27.8941L53.706 26.5076L56.5965 30.1149L53.9645 33.7221" fill="white"/>
</g>
</g>
<defs>
<clipPath id="clip0_3734_60172">
<rect width="80" height="60" fill="white"/>
</clipPath>
</defs>
</svg>
