<svg width="80" height="60" viewBox="0 0 80 60" fill="none" xmlns="http://www.w3.org/2000/svg">
<g clip-path="url(#clip0_3734_60235)">
<path fill-rule="evenodd" clip-rule="evenodd" d="M0 0H26.6625V60H0V0Z" fill="#00319C"/>
<path fill-rule="evenodd" clip-rule="evenodd" d="M26.6626 0H53.3376V60H26.6626V0Z" fill="#FFDE00"/>
<path fill-rule="evenodd" clip-rule="evenodd" d="M53.3374 0H79.9999V60H53.3374V0Z" fill="#DE2110"/>
<path fill-rule="evenodd" clip-rule="evenodd" d="M45.0498 40.0498L48.0748 44.4248C48.2498 44.6748 48.4123 44.9123 48.1623 45.0748C47.9123 45.2373 47.9873 45.8748 48.1623 46.1248C48.4998 46.6123 48.9123 46.6873 49.1623 46.5248L51.4623 45.0748C51.7123 44.9248 51.7998 44.5123 51.4623 44.0248C51.2748 43.7748 50.7123 43.4623 50.4623 43.6248C50.1998 43.7873 50.0248 43.5373 49.8623 43.2998L46.8248 38.9248" fill="#FF1900"/>
<path d="M45.0498 40.0498L48.0748 44.4248C48.2498 44.6748 48.4123 44.9123 48.1623 45.0748C47.9123 45.2373 47.9873 45.8748 48.1623 46.1248C48.4998 46.6123 48.9123 46.6873 49.1623 46.5248L51.4623 45.0748C51.7123 44.9248 51.7998 44.5123 51.4623 44.0248C51.2748 43.7748 50.7123 43.4623 50.4623 43.6248C50.1998 43.7873 50.0248 43.5373 49.8623 43.2998L46.8248 38.9248" stroke="black" stroke-width="0.0875"/>
<path fill-rule="evenodd" clip-rule="evenodd" d="M46.2372 36.9667C47.5902 38.5034 48.0608 40.2654 47.2897 40.8853C46.5185 41.5052 44.7824 40.7605 43.4295 39.2237C42.0765 37.6869 41.6125 35.9197 42.3836 35.2998C43.1548 34.6799 44.8854 35.4183 46.2438 36.9614L46.2372 36.9667Z" fill="#A77B3B" stroke="black" stroke-width="0.210595"/>
<path fill-rule="evenodd" clip-rule="evenodd" d="M32.7499 38.2627L30.0624 42.8502C29.9124 43.1002 29.7624 43.3502 29.4999 43.2252C29.2374 43.0752 28.6749 43.4377 28.5249 43.7002C28.2249 44.2002 28.3374 44.6002 28.6124 44.7502L31.0124 46.0252C31.2624 46.1627 31.6874 46.0502 31.9874 45.5502C32.1249 45.2752 32.1624 44.6377 31.8999 44.5002C31.6374 44.3627 31.7749 44.1002 31.9374 43.8502L34.6124 39.2627" fill="#FF1900"/>
<path d="M32.7499 38.2627L30.0624 42.8502C29.9124 43.1002 29.7624 43.3502 29.4999 43.2252C29.2374 43.0752 28.6749 43.4377 28.5249 43.7002C28.2249 44.2002 28.3374 44.6002 28.6124 44.7502L31.0124 46.0252C31.2624 46.1627 31.6874 46.0502 31.9874 45.5502C32.1249 45.2752 32.1624 44.6377 31.8999 44.5002C31.6374 44.3627 31.7749 44.1002 31.9374 43.8502L34.6124 39.2627" stroke="black" stroke-width="0.0875"/>
<path fill-rule="evenodd" clip-rule="evenodd" d="M41.4002 35.075H38.9502C38.8752 35.15 38.1752 39.525 37.4252 41.2C36.5127 43.2375 33.7752 45.0375 33.7752 45.0375C33.7752 45.0375 35.4127 45.5375 35.9002 45.8625C36.0252 45.825 38.6502 45.275 38.9502 42.075C39.2502 45.275 37.1252 46.7375 37.1252 46.7375C37.1252 46.7375 40.1752 47.6125 40.1752 49.65C40.1752 47.6125 43.2252 46.7375 43.2252 46.7375C43.2252 46.7375 41.7002 45.275 41.3877 42.075C42.0127 45.275 44.3252 45.825 44.4502 45.8625C44.9377 45.5375 46.5752 45.0375 46.5752 45.0375C46.5752 45.0375 43.8377 43.2375 42.9252 41.2C42.1752 39.525 41.4752 35.15 41.4002 35.075ZM31.0252 20.4875L35.6002 21.95C37.1127 21.95 38.6502 20.4875 38.6502 19.025C38.7002 15.775 37.4252 14.65 37.1252 14.65L37.7252 14.075L36.8127 13.2C36.8127 13.2 37.1252 11.6875 40.1752 11.7375C43.2252 11.8 43.2252 13.2 43.2252 14.65C43.2252 16.1 41.7002 16.1125 41.7002 19.025C41.7002 20.4875 43.2252 21.95 44.7502 21.95L49.3252 20.4875V35.075H31.0127V20.4875H31.0252Z" fill="#A77B3B" stroke="black" stroke-width="0.2125"/>
<path d="M38.0352 21.0713L38.3394 21.9483L38.6458 21.0713L38.95 21.9483L39.5606 21.0713L39.8587 21.9951L40.1713 21.0713L40.6214 21.9951L41.0861 21.0713L41.3904 21.9483L41.6967 21.0713" stroke="black" stroke-width="0.0174531"/>
<path d="M39.2595 17.8682L38.6479 21.078M39.5609 17.8682V21.078M40.1725 17.8682V21.078M40.784 17.8682L41.0855 21.078M41.3955 17.8682L41.697 21.078" stroke="black" stroke-width="0.0168392"/>
<path fill-rule="evenodd" clip-rule="evenodd" d="M27.9576 11.7441C24.9086 13.2009 24.9086 16.1227 24.9086 17.5795C25.0119 18.9046 24.9086 46.7397 24.9086 46.7397C24.9086 46.7397 25.1067 45.0936 26.4331 43.8261L27.949 42.3694L29.4735 40.9126C30.5932 39.9414 30.998 37.9908 30.998 36.534V16.1227C30.998 16.1227 30.998 14.6577 27.949 11.7441H27.9576Z" fill="#A77B3B" stroke="black" stroke-width="0.210489"/>
<path d="M31.0068 17.5798C30.9724 17.5798 29.4823 16.123 29.4823 16.123L27.9578 17.5798L26.4333 16.123L24.9087 17.5798" stroke="black" stroke-width="0.210489"/>
<path d="M31.0068 19.0325C30.9724 19.0325 29.4823 20.4893 29.4823 20.4893L27.9578 19.0325L26.4333 20.4893L24.9087 19.0325" stroke="black" stroke-width="0.210489"/>
<path d="M31.0068 23.404C30.9724 23.404 29.4823 21.9473 29.4823 21.9473L27.9578 23.404L26.4333 21.9473L24.9087 23.404" stroke="black" stroke-width="0.210489"/>
<path d="M29.4652 16.1191L29.4824 40.914" stroke="black" stroke-width="0.289918"/>
<path d="M27.9652 17.5762L27.9824 42.3107" stroke="black" stroke-width="0.274663"/>
<path d="M26.4398 16.125L26.457 43.8333" stroke="black" stroke-width="0.290705"/>
<path fill-rule="evenodd" clip-rule="evenodd" d="M52.3798 11.7441C55.4288 13.2009 55.4288 16.1227 55.4288 17.5795C55.3255 18.9046 55.4288 46.7397 55.4288 46.7397C55.4288 46.7397 55.2307 45.0936 53.9043 43.8261L52.3884 42.3694L50.8639 40.9126C49.7442 39.9414 49.3394 37.9908 49.3394 36.534V16.1227C49.3394 16.1227 49.3394 14.6577 52.3884 11.7441H52.3798Z" fill="#A77B3B" stroke="black" stroke-width="0.210489"/>
<path d="M49.3306 17.5798C49.365 17.5798 50.8551 16.123 50.8551 16.123L52.3796 17.5798L53.9041 16.123L55.4287 17.5798" stroke="black" stroke-width="0.210489"/>
<path d="M49.3306 19.0325C49.365 19.0325 50.8551 20.4893 50.8551 20.4893L52.3796 19.0325L53.9041 20.4893L55.4287 19.0325" stroke="black" stroke-width="0.210489"/>
<path d="M49.3306 23.404C49.365 23.404 50.8551 21.9473 50.8551 21.9473L52.3796 23.404L53.9041 21.9473L55.4287 23.404" stroke="black" stroke-width="0.210489"/>
<path d="M50.8722 16.1191L50.855 40.914" stroke="black" stroke-width="0.289918"/>
<path d="M52.3849 17.5762L52.3677 42.3107" stroke="black" stroke-width="0.274663"/>
<path d="M53.9098 16.125L53.8926 43.8333" stroke="black" stroke-width="0.290705"/>
<path fill-rule="evenodd" clip-rule="evenodd" d="M36.1592 37.8586C35.3509 39.7123 33.9284 40.9203 32.9981 40.5499C32.0679 40.1796 31.9639 38.3638 32.7722 36.5101C33.5805 34.6564 35.011 33.4516 35.9412 33.8219C36.8714 34.1923 36.9787 36.0004 36.1671 37.8617L36.1592 37.8586Z" fill="#A77B3B" stroke="black" stroke-width="0.210544"/>
<path fill-rule="evenodd" clip-rule="evenodd" d="M31.0127 21.9502H49.3252V30.7002H31.0127V21.9502Z" fill="#FF0000"/>
<path fill-rule="evenodd" clip-rule="evenodd" d="M31.0125 30.7002H49.325V35.0752C49.325 37.9877 44.75 37.9877 40.175 40.9002C35.5875 38.0002 31 38.0002 31 35.0752V30.7002H31.0125Z" fill="#564DFF"/>
<path d="M31.0166 21.9502H49.3281V35.0859C49.3281 37.9994 44.7545 37.9994 40.1724 40.9212C35.5988 37.9994 31.0166 37.9994 31.0166 35.0776V21.9584V21.9502Z" stroke="#FFFF00" stroke-width="0.168392"/>
<path fill-rule="evenodd" clip-rule="evenodd" d="M36.8111 22.5322C36.8111 22.5322 33.7603 24.6771 33.7603 26.7292C33.7603 28.7813 36.9618 29.4692 36.9618 29.4692C36.9618 29.4692 35.8946 29.4692 35.8946 32.2054C35.8946 33.5773 39.0961 32.8933 39.0961 33.5773C39.0961 34.2614 39.0539 35.9154 39.0961 37.0014C39.0961 37.6854 36.9618 37.0014 36.9618 37.6854C36.9618 38.0255 38.5656 39.7375 40.1693 39.7375C41.7731 39.7375 43.3709 38.0255 43.3709 37.6854C43.3709 37.0014 41.2365 37.6854 41.2365 37.0014V33.5773C41.2365 32.8933 44.4381 33.5773 44.4381 32.2054C44.4381 29.4692 43.3709 29.4692 43.3709 29.4692C43.3709 29.4692 46.5784 28.7852 46.5784 26.7292C46.5784 24.6732 43.5216 22.5322 43.5216 22.5322C43.5216 22.5322 45.2399 25.3611 45.2399 26.7292C45.2399 27.4132 44.4381 28.7852 42.3037 28.7852C42.3037 28.7852 41.7611 28.0973 41.2365 28.7852C41.2365 28.7852 40.6215 28.0973 40.1693 28.7852C40.0126 29.0171 39.7352 28.0973 39.0961 28.7852C38.8309 28.9668 38.6138 28.0973 38.029 28.7852C36.9618 28.7852 34.8274 28.0973 34.8274 26.7292C34.8274 25.3611 36.8111 22.5322 36.8111 22.5322Z" fill="#FFFF00" stroke="black" stroke-width="0.120677"/>
<path fill-rule="evenodd" clip-rule="evenodd" d="M36.8741 34.7844C36.657 34.9235 37.1514 37.1534 37.2961 37.25C37.5132 37.3853 38.7974 37.3853 39.0085 37.25C39.1592 37.1534 39.0085 35.0588 38.7974 34.9235C38.5804 34.7844 37.0248 34.6917 36.8681 34.7844H36.8741Z" fill="#FFFF00" stroke="black" stroke-width="0.120677"/>
<path fill-rule="evenodd" clip-rule="evenodd" d="M43.476 34.7844C43.6931 34.9235 43.1987 37.1534 43.054 37.25C42.8369 37.3853 41.5527 37.3853 41.3416 37.25C41.1909 37.1534 41.3416 35.0588 41.5527 34.9235C41.7697 34.7844 43.3253 34.6917 43.482 34.7844H43.476Z" fill="#FFFF00" stroke="black" stroke-width="0.120677"/>
<path fill-rule="evenodd" clip-rule="evenodd" d="M39.0692 33.971C39.0692 34.1755 38.9523 34.3715 38.7444 34.5161C38.5365 34.6607 38.2544 34.7419 37.9604 34.7419C37.6663 34.7419 37.3843 34.6607 37.1763 34.5161C36.9684 34.3715 36.8516 34.1755 36.8516 33.971C36.8516 33.7666 36.9684 33.5705 37.1763 33.426C37.3843 33.2814 37.6663 33.2002 37.9604 33.2002C38.2544 33.2002 38.5365 33.2814 38.7444 33.426C38.9523 33.5705 39.0692 33.7666 39.0692 33.971Z" fill="#FFFF00" stroke="black" stroke-width="0.144454"/>
<path fill-rule="evenodd" clip-rule="evenodd" d="M43.4823 33.9711C43.4823 34.1755 43.3655 34.3716 43.1575 34.5161C42.9496 34.6607 42.6675 34.7419 42.3735 34.7419C42.0794 34.7419 41.7974 34.6607 41.5894 34.5161C41.3815 34.3716 41.2646 34.1755 41.2646 33.9711C41.2646 33.7666 41.3815 33.5705 41.5894 33.426C41.7974 33.2814 42.0794 33.2002 42.3735 33.2002C42.6675 33.2002 42.9496 33.2814 43.1575 33.426C43.3655 33.5705 43.4823 33.7666 43.4823 33.9711Z" fill="#FFFF00" stroke="black" stroke-width="0.144457"/>
<path fill-rule="evenodd" clip-rule="evenodd" d="M42.1 38.4371C42.1 38.6246 41.85 38.7746 41.5625 38.7746C41.2625 38.7746 41.025 38.6246 41.025 38.4371C41.025 38.2496 41.275 38.0996 41.5625 38.0996C41.85 38.0996 42.1 38.2496 42.1 38.4371ZM39.3125 38.4371C39.3125 38.6246 39.075 38.7746 38.7875 38.7746C38.4875 38.7746 38.25 38.6246 38.25 38.4371C38.25 38.2496 38.4875 38.0996 38.7875 38.0996C39.075 38.0996 39.3125 38.2496 39.3125 38.4371Z" fill="black"/>
<path fill-rule="evenodd" clip-rule="evenodd" d="M40.1733 27.5004L39.5179 26.6733L38.4423 26.8098L38.5936 25.782L37.728 25.1638L38.5936 24.5375L38.4423 23.5097L39.5179 23.6542L40.1733 22.8271L40.8288 23.6542L41.896 23.5097L41.7531 24.5375L42.6102 25.1638L41.7531 25.7901L41.896 26.8098L40.8204 26.6733L40.1733 27.5004Z" fill="#FFFF00" stroke="black" stroke-width="0.0903568"/>
<path fill-rule="evenodd" clip-rule="evenodd" d="M44.7461 30.6996L46.5807 31.5802L48.4153 30.6996L46.5807 29.8271L44.7547 30.6996H44.7461Z" fill="#FFFF00" stroke="black" stroke-width="0.0926153"/>
<path fill-rule="evenodd" clip-rule="evenodd" d="M31.6211 30.6996L33.4557 31.5802L35.2903 30.6996L33.4557 29.8271L31.6297 30.6996H31.6211Z" fill="#FFFF00" stroke="black" stroke-width="0.0926153"/>
<path fill-rule="evenodd" clip-rule="evenodd" d="M47.5774 35.9176C47.0157 35.5614 46.0696 35.739 45.5393 36.03C45.009 36.321 44.4786 36.612 44.4073 37.6667C43.7982 36.6532 44.2779 35.7161 45.0846 35.2735C45.5123 35.0725 46.0022 35.0278 46.4621 35.1477C46.9219 35.2676 47.3201 35.544 47.5817 35.9247L47.5774 35.9176Z" fill="#FFFF00" stroke="black" stroke-width="0.0926513"/>
<path fill-rule="evenodd" clip-rule="evenodd" d="M34.9762 34.1994C34.9762 34.3533 34.9122 34.5009 34.7983 34.6097C34.6844 34.7185 34.53 34.7796 34.3689 34.7796C34.2079 34.7796 34.0534 34.7185 33.9396 34.6097C33.8257 34.5009 33.7617 34.3533 33.7617 34.1994C33.7617 34.0455 33.8257 33.8979 33.9396 33.7891C34.0534 33.6803 34.2079 33.6191 34.3689 33.6191C34.53 33.6191 34.6844 33.6803 34.7983 33.7891C34.9122 33.8979 34.9762 34.0455 34.9762 34.1994Z" fill="#FFFF00" stroke="black" stroke-width="0.0926153"/>
<path fill-rule="evenodd" clip-rule="evenodd" d="M34.3639 36.2375C34.3639 36.3914 34.2999 36.5389 34.186 36.6478C34.0721 36.7566 33.9177 36.8177 33.7566 36.8177C33.5956 36.8177 33.4411 36.7566 33.3273 36.6478C33.2134 36.5389 33.1494 36.3914 33.1494 36.2375C33.1494 36.0836 33.2134 35.936 33.3273 35.8272C33.4411 35.7184 33.5956 35.6572 33.7566 35.6572C33.9177 35.6572 34.0721 35.7184 34.186 35.8272C34.2999 35.936 34.3639 36.0836 34.3639 36.2375Z" fill="#FFFF00" stroke="black" stroke-width="0.0926153"/>
<path fill-rule="evenodd" clip-rule="evenodd" d="M34.0641 35.0744C34.0641 35.2283 34.0001 35.3759 33.8862 35.4847C33.7723 35.5935 33.6179 35.6546 33.4568 35.6546C33.2958 35.6546 33.1413 35.5935 33.0275 35.4847C32.9136 35.3759 32.8496 35.2283 32.8496 35.0744C32.8496 34.9205 32.9136 34.7729 33.0275 34.6641C33.1413 34.5553 33.2958 34.4941 33.4568 34.4941C33.6179 34.4941 33.7723 34.5553 33.8862 34.6641C34.0001 34.7729 34.0641 34.9205 34.0641 35.0744Z" fill="#FFFF00" stroke="black" stroke-width="0.0926153"/>
<path fill-rule="evenodd" clip-rule="evenodd" d="M35.589 36.2375C35.589 36.3914 35.525 36.5389 35.4111 36.6478C35.2972 36.7566 35.1428 36.8177 34.9817 36.8177C34.8207 36.8177 34.6662 36.7566 34.5524 36.6478C34.4385 36.5389 34.3745 36.3914 34.3745 36.2375C34.3745 36.0836 34.4385 35.936 34.5524 35.8272C34.6662 35.7184 34.8207 35.6572 34.9817 35.6572C35.1428 35.6572 35.2972 35.7184 35.4111 35.8272C35.525 35.936 35.589 36.0836 35.589 36.2375Z" fill="#FFFF00" stroke="black" stroke-width="0.0926153"/>
<path fill-rule="evenodd" clip-rule="evenodd" d="M35.8888 35.0744C35.8888 35.2283 35.8248 35.3759 35.7109 35.4847C35.597 35.5935 35.4426 35.6546 35.2815 35.6546C35.1205 35.6546 34.966 35.5935 34.8522 35.4847C34.7383 35.3759 34.6743 35.2283 34.6743 35.0744C34.6743 34.9205 34.7383 34.7729 34.8522 34.6641C34.966 34.5553 35.1205 34.4941 35.2815 34.4941C35.4426 34.4941 35.597 34.5553 35.7109 34.6641C35.8248 34.7729 35.8888 34.9205 35.8888 35.0744Z" fill="#FFFF00" stroke="black" stroke-width="0.0926153"/>
<path fill-rule="evenodd" clip-rule="evenodd" d="M34.9762 35.3625C34.9762 35.5164 34.9122 35.6639 34.7983 35.7728C34.6844 35.8816 34.53 35.9427 34.3689 35.9427C34.2079 35.9427 34.0534 35.8816 33.9396 35.7728C33.8257 35.6639 33.7617 35.5164 33.7617 35.3625C33.7617 35.2086 33.8257 35.061 33.9396 34.9522C34.0534 34.8434 34.2079 34.7822 34.3689 34.7822C34.53 34.7822 34.6844 34.8434 34.7983 34.9522C34.9122 35.061 34.9762 35.2086 34.9762 35.3625Z" fill="#FFFF00" stroke="black" stroke-width="0.0926153"/>
<path fill-rule="evenodd" clip-rule="evenodd" d="M37.2249 15.0502C35.6749 15.0502 35.4749 15.3002 34.7749 15.5377C34.7749 14.8627 36.4999 14.0752 38.0249 14.0752C38.0249 14.5627 37.6249 15.0502 37.2249 15.0502Z" fill="#DA4500"/>
<path fill-rule="evenodd" clip-rule="evenodd" d="M39.5624 13.5006C39.5624 13.8131 39.2874 14.0756 38.9499 14.0756C38.6124 14.0756 38.3374 13.8131 38.3374 13.4881C38.3374 13.1631 38.6124 12.9131 38.9499 12.9131C39.2874 12.9131 39.5624 13.1631 39.5624 13.4881V13.5006Z" fill="#CAC9C7"/>
<path fill-rule="evenodd" clip-rule="evenodd" d="M33.1527 11.4568V12.3292H34.6772V16.6995H35.5988V12.3292H37.1233V11.4568H35.5988V10.2881H34.6686V11.4568H33.144H33.1527Z" fill="#FFFF00" stroke="black" stroke-width="0.0926153"/>
<path fill-rule="evenodd" clip-rule="evenodd" d="M38.0375 14.0748C36.7968 14.0039 35.5539 14.1694 34.375 14.5623C34.375 13.6623 35.425 12.6123 37.225 12.6123C37.625 12.6123 38.0375 13.5873 38.0375 14.0748Z" fill="#DA4500"/>
<path fill-rule="evenodd" clip-rule="evenodd" d="M22.1574 29.561C21.7181 28.6141 21.7283 28.3119 22.5097 29.3953L31.9228 47.2407L31.6347 47.322L22.1622 29.5647L22.1574 29.561Z" fill="#008500" stroke="black" stroke-width="0.0321037"/>
<path fill-rule="evenodd" clip-rule="evenodd" d="M28.5499 41.2997C28.6499 39.9747 26.2249 38.5497 26.1249 38.6372C26.0374 38.7372 26.2749 39.5122 26.7374 39.8997C25.8624 39.4497 24.9374 39.1747 24.9124 39.3622C24.8374 39.6372 26.2874 40.2622 26.4124 40.5122C26.4124 40.6872 25.3374 40.6622 25.3624 40.8372C25.3874 41.0122 28.3999 42.5372 28.5499 41.2997ZM26.1249 37.4497C26.2249 36.1247 23.7999 34.6997 23.7124 34.7872C23.6124 34.8747 23.8499 35.6497 24.3124 36.0497C23.4374 35.5997 22.5124 35.3122 22.4874 35.5122C22.4249 35.7747 23.8624 36.4122 23.9874 36.6622C23.9999 36.8372 22.9249 36.8122 22.9374 36.9872C22.9624 37.1622 25.9749 38.6747 26.1249 37.4497ZM24.2749 33.9497C24.3749 32.6247 21.9499 31.1997 21.8499 31.2872C21.7624 31.3747 21.9999 32.1497 22.4624 32.5497C21.5874 32.0997 20.6624 31.8122 20.6374 32.0122C20.5749 32.2747 22.0124 32.9122 22.1374 33.1622C22.1374 33.3372 21.0749 33.3122 21.0874 33.4872C21.1124 33.6622 24.1249 35.1872 24.2749 33.9497ZM22.4499 30.1497C22.5374 28.8372 20.1249 27.3997 20.0249 27.4872C19.9249 27.5872 20.1749 28.3622 20.6249 28.7622C19.7499 28.2997 18.8249 28.0247 18.8124 28.2247C18.7374 28.4872 20.1874 29.1247 20.2999 29.3622C20.3124 29.5372 19.2374 29.5247 19.2624 29.6997C19.2749 29.8747 22.2874 31.3872 22.4499 30.1497Z" fill="#008F00"/>
<path fill-rule="evenodd" clip-rule="evenodd" d="M23.075 29.9871C24.25 29.2746 24.0125 26.5621 23.8875 26.5371C23.75 26.5246 23.2375 27.1621 23.175 27.7621C23.0375 26.8121 22.725 25.9371 22.55 26.0371C22.2875 26.1371 22.6 27.6246 22.4625 27.8621C22.3375 27.9871 21.7125 27.1371 21.5875 27.2621C21.4375 27.3871 21.9375 30.5996 23.0875 29.9871H23.075ZM24.775 33.3121C26.125 33.0121 26.8625 30.3871 26.7375 30.3246C26.6125 30.2621 25.9125 30.6996 25.65 31.2496C25.85 30.3121 25.8625 29.3871 25.65 29.4246C25.3625 29.4371 25.15 30.9371 24.9375 31.1121C24.775 31.1871 24.475 30.1996 24.3125 30.2621C24.1375 30.3371 23.4875 33.5246 24.775 33.3121ZM26.8 36.7121C28.0375 36.1121 28.05 33.3871 27.925 33.3621C27.8 33.3246 27.2375 33.9246 27.1125 34.5121C27.0625 33.5496 26.8375 32.6621 26.65 32.7496C26.375 32.8246 26.55 34.3246 26.4 34.5496C26.25 34.6621 25.7125 33.7621 25.5625 33.8746C25.4125 33.9746 25.6125 37.2246 26.8125 36.7121H26.8ZM29 41.1621C30.2875 40.6746 30.6 37.9746 30.475 37.9246C30.35 37.8871 29.725 38.4246 29.5375 38.9996C29.5875 38.0371 29.4625 37.1246 29.2625 37.1996C28.975 37.2496 29 38.7621 28.825 38.9746C28.6625 39.0621 28.225 38.1246 28.075 38.2246C27.9125 38.2996 27.7625 41.5621 29 41.1621Z" fill="#008F00"/>
<path fill-rule="evenodd" clip-rule="evenodd" d="M31.8354 45.8006C31.5079 46.3611 30.4721 46.4118 29.5094 45.8983C28.5468 45.3847 28.0484 44.5155 28.3759 43.955C28.7034 43.3945 29.7468 43.3478 30.7019 43.8574C31.657 44.3669 32.1629 45.2401 31.8354 45.8006Z" fill="#FF1900" stroke="black" stroke-width="0.0926506"/>
<path fill-rule="evenodd" clip-rule="evenodd" d="M56.6896 27.026L56.8516 26.6077L57.2881 26.7452L57.4502 26.3269L57.8867 26.4644L57.7269 26.8768L58.1759 27.0182L58.0116 27.4423L57.5626 27.3009L57.1586 28.3437L56.7221 28.2062L57.1261 27.1635L56.6896 27.026ZM55.752 30.71L56.1885 30.8475L51.498 42.954L51.0615 42.8165L55.752 30.71Z" fill="#FFFF00" stroke="black" stroke-width="0.0321346"/>
<path fill-rule="evenodd" clip-rule="evenodd" d="M50.9168 42.5399L51.8023 42.8188L50.5081 46.1591L49.6226 45.8803L50.9168 42.5399ZM56.1234 28.4873L57.4517 28.9056C58.3309 29.1825 56.337 31.1325 56.337 31.1325L55.4577 30.8556C55.4577 30.8556 55.2379 28.2085 56.1234 28.4873ZM57.3442 28.5148C57.2757 28.6915 57.0276 28.7721 56.7844 28.6955C56.5412 28.6189 56.3964 28.4147 56.4626 28.2438C56.5288 28.073 56.7792 27.9866 57.0224 28.0631C57.2656 28.1397 57.4104 28.344 57.3419 28.5207L57.3442 28.5148Z" fill="#FFFF00" stroke="black" stroke-width="0.0321346"/>
<path fill-rule="evenodd" clip-rule="evenodd" d="M51.6276 44.2745C51.9986 44.8097 51.5705 45.7124 50.6513 46.2941C49.7321 46.8758 48.6952 46.9002 48.3243 46.365C47.9533 45.8298 48.3886 44.9225 49.3006 44.3454C50.2126 43.7682 51.2566 43.7393 51.6276 44.2745Z" fill="#FF1900" stroke="black" stroke-width="0.0926565"/>
</g>
<defs>
<clipPath id="clip0_3734_60235">
<rect width="80" height="60" fill="white"/>
</clipPath>
</defs>
</svg>
