<svg width="80" height="60" viewBox="0 0 80 60" fill="none" xmlns="http://www.w3.org/2000/svg">
<g clip-path="url(#clip0_3734_60253)">
<path d="M0 0H80V60H0V0Z" fill="#C4272F"/>
<path d="M26.6626 0H53.3376V60H26.6626V0Z" fill="#015197"/>
<path d="M13.375 28.0127C15.7912 28.0127 17.75 26.0539 17.75 23.6377C17.75 21.2214 15.7912 19.2627 13.375 19.2627C10.9588 19.2627 9 21.2214 9 23.6377C9 26.0539 10.9588 28.0127 13.375 28.0127Z" fill="#F9CF02"/>
<path d="M13.3751 26.425C16.0123 26.425 18.1501 24.2872 18.1501 21.65C18.1501 19.0128 16.0123 16.875 13.3751 16.875C10.7379 16.875 8.6001 19.0128 8.6001 21.65C8.6001 24.2872 10.7379 26.425 13.3751 26.425Z" fill="#C4272F"/>
<path fill-rule="evenodd" clip-rule="evenodd" d="M11.3877 16.4746C11.3877 17.0017 11.5971 17.5073 11.9698 17.88C12.3425 18.2527 12.8481 18.4621 13.3752 18.4621C13.9023 18.4621 14.4078 18.2527 14.7806 17.88C15.1533 17.5073 15.3627 17.0017 15.3627 16.4746C15.3627 15.6871 14.8627 15.5746 14.8627 15.2871C14.8627 14.9871 15.1627 14.5871 14.5627 14.0871C14.8627 14.5871 14.3627 14.6871 14.3627 15.1871C14.3627 15.6871 14.5627 15.6871 14.5627 16.0746C14.5462 16.167 14.4977 16.2507 14.4257 16.3109C14.3537 16.3712 14.2628 16.4042 14.1689 16.4042C14.0751 16.4042 13.9842 16.3712 13.9122 16.3109C13.8402 16.2507 13.7917 16.167 13.7752 16.0746C13.7752 15.6871 14.1627 15.2871 14.1627 14.6996C14.1627 14.0871 14.0752 13.8871 13.7752 13.3996C13.4752 12.8996 12.9752 12.4996 13.3752 12.0996C12.7752 12.2996 13.0752 13.0996 13.0752 13.5996C13.0752 14.0996 12.6752 14.3871 12.6752 14.9746C12.6752 15.5621 12.9752 15.6871 12.9752 16.0746C12.9587 16.167 12.9102 16.2507 12.8382 16.3109C12.7662 16.3712 12.6753 16.4042 12.5814 16.4042C12.4876 16.4042 12.3967 16.3712 12.3247 16.3109C12.2527 16.2507 12.2042 16.167 12.1877 16.0746C12.1877 15.6871 12.3877 15.6871 12.3877 15.1871C12.3877 14.6871 11.8877 14.5871 12.1877 14.0871C11.5877 14.5871 11.8877 14.9871 11.8877 15.2871C11.8877 15.5871 11.3877 15.6746 11.3877 16.4746Z" fill="#F9CF02"/>
<path d="M13.3752 25.6127C15.1287 25.6127 16.5502 24.1912 16.5502 22.4377C16.5502 20.6842 15.1287 19.2627 13.3752 19.2627C11.6217 19.2627 10.2002 20.6842 10.2002 22.4377C10.2002 24.1912 11.6217 25.6127 13.3752 25.6127Z" fill="#F9CF02"/>
<path d="M4.625 28.7998V47.8873H8.6V28.7998H4.625ZM18.15 28.7998V47.8873H22.125V28.7998H18.15ZM9.4 31.9873V33.5748H17.35V31.9873H9.4ZM9.4 43.1123V44.7123H17.35V43.1248L9.4 43.1123ZM9.4 28.7998H17.35L13.375 31.1873L9.4 28.7998ZM9.4 45.5123H17.35L13.375 47.8748L9.4 45.5123Z" fill="#F9CF02"/>
<path d="M13.3751 42.5627C15.7016 42.5627 17.5876 40.6767 17.5876 38.3502C17.5876 36.0237 15.7016 34.1377 13.3751 34.1377C11.0486 34.1377 9.1626 36.0237 9.1626 38.3502C9.1626 40.6767 11.0486 42.5627 13.3751 42.5627Z" fill="#F9CF02" stroke="#C4272F" stroke-width="0.475"/>
<path d="M13.375 34.125C13.9352 34.125 14.4726 34.3476 14.8687 34.7437C15.2649 35.1399 15.4875 35.6772 15.4875 36.2375C15.4875 36.7978 15.2649 37.3351 14.8687 37.7313C14.4726 38.1274 13.9352 38.35 13.375 38.35C13.0847 38.3276 12.793 38.3655 12.5181 38.4612C12.2432 38.5569 11.991 38.7084 11.7774 38.9061C11.5638 39.1039 11.3934 39.3437 11.2768 39.6104C11.1603 39.8772 11.1001 40.1651 11.1001 40.4562C11.1001 40.7473 11.1603 41.0353 11.2768 41.3021C11.3934 41.5688 11.5638 41.8086 11.7774 42.0064C11.991 42.2041 12.2432 42.3556 12.5181 42.4513C12.793 42.547 13.0847 42.5849 13.375 42.5625" stroke="#C4272F" stroke-width="0.475"/>
<path d="M13.3752 37.0375C13.817 37.0375 14.1752 36.6793 14.1752 36.2375C14.1752 35.7957 13.817 35.4375 13.3752 35.4375C12.9334 35.4375 12.5752 35.7957 12.5752 36.2375C12.5752 36.6793 12.9334 37.0375 13.3752 37.0375Z" fill="#C4272F"/>
<path d="M13.3752 41.2504C13.817 41.2504 14.1752 40.8922 14.1752 40.4504C14.1752 40.0086 13.817 39.6504 13.3752 39.6504C12.9334 39.6504 12.5752 40.0086 12.5752 40.4504C12.5752 40.8922 12.9334 41.2504 13.3752 41.2504Z" fill="#C4272F"/>
</g>
<defs>
<clipPath id="clip0_3734_60253">
<rect width="80" height="60" fill="white"/>
</clipPath>
</defs>
</svg>
