<svg width="80" height="60" viewBox="0 0 80 60" fill="none" xmlns="http://www.w3.org/2000/svg">
<g clip-path="url(#clip0_3734_60282)">
<path d="M0 0H80V60H0V0Z" fill="#012169"/>
<path d="M48.1127 13.875H73.8002L73.7627 32.1625C73.9752 39.5 69.4002 44.0625 60.9752 46.125C54.9877 44.625 48.1002 41.5625 48.0752 32.375L48.1127 13.875Z" fill="white"/>
<path d="M48.6749 14.4248H73.2249L73.1999 31.9498C73.3999 38.9873 69.0249 43.3498 60.9749 45.3248C55.2499 43.8998 48.6624 40.9498 48.6499 32.1498L48.6749 14.4248Z" fill="#00A2BD" stroke="black" stroke-width="0.225"/>
<path d="M73.0376 34.0254C72.1376 40.7379 66.9626 43.6754 60.9751 45.2379C55.6626 43.8129 49.9501 41.5379 48.8501 34.0504L73.0376 34.0254Z" fill="#A53D08"/>
<path d="M59.9999 17.6873L59.9624 15.4873L61.7124 15.4998L61.7249 17.6873H66.4999L66.5124 19.3998L61.7249 19.4248L61.6874 39.5998L59.9874 39.6123L59.9624 19.3998L55.2124 19.4248V17.6748L59.9999 17.6873Z" fill="black"/>
<path fill-rule="evenodd" clip-rule="evenodd" d="M56.1249 34.8498L60.4999 39.3873C62.0124 37.7248 60.9624 31.5123 58.9749 30.3748C58.7374 31.1123 58.3374 31.9998 57.8999 32.2748C56.9624 32.9248 54.6374 33.6748 55.4124 34.1498C55.5874 33.9123 56.0499 33.6873 56.2749 34.2248C56.5249 35.0873 55.2999 35.1373 55.2999 35.1373C55.2999 35.1373 54.5249 35.0373 54.3874 34.2623C54.2624 33.4623 55.5499 32.7373 55.6624 32.6873C55.7624 32.6498 57.4499 32.1873 57.7374 30.6998C58.0999 29.2248 58.4624 29.4498 58.5249 29.4248C60.7374 29.6373 62.1749 33.5873 62.2624 36.3623C62.3374 39.1373 61.1374 40.9873 60.9124 41.1123C60.6999 41.2248 55.6624 35.1248 55.6624 35.1248L56.1374 34.8498H56.1249Z" fill="#FF9A08" stroke="black" stroke-width="0.1"/>
<path d="M59.3249 30.625L59.3499 38.8125L59.3249 30.625ZM58.8249 30.7875L58.8624 38.2125L58.8249 30.7875ZM58.2999 31.8625L58.3249 37.7625L58.2999 31.8625ZM57.8624 32.275L57.8874 37.1625L57.8624 32.275ZM57.3999 32.5V36.625V32.5ZM56.8999 32.825V36.0875V32.825ZM56.4624 33.0875V35.5875V33.0875Z" fill="#FF9A08"/>
<path d="M59.3249 30.625L59.3499 38.8125M58.8249 30.7875L58.8624 38.2125M58.2999 31.8625L58.3249 37.7625M57.8624 32.275L57.8874 37.1625M57.3999 32.5V36.625M56.8999 32.825V36.0875M56.4624 33.0875V35.5875" stroke="black" stroke-width="0.1"/>
<path d="M56.0625 35.3652L60.5725 40.5252" stroke="#FFDF00" stroke-width="0.1" stroke-linecap="round"/>
<path d="M60.7926 32.1152C60.7926 32.1152 62.8326 36.5852 60.9426 40.2552M55.5326 34.4252C55.5326 34.4252 55.6826 34.0352 55.8726 34.1952M55.1826 33.2852C55.1826 33.2852 54.3626 34.0052 54.8126 34.4752" stroke="#FFDF00" stroke-width="0.18" stroke-linecap="round"/>
<path d="M61.7501 21.9249C62.0376 21.6749 62.2001 21.5124 62.3876 21.5499C62.5751 21.5749 62.8251 21.5499 63.0126 21.4999C63.5046 21.3856 64.0141 21.3686 64.5126 21.4499C64.6376 21.4749 64.8251 21.5374 65.0876 21.7624C65.3501 21.9874 65.7376 22.3874 65.6126 23.4624C65.4876 24.5374 65.5251 24.9999 65.4626 25.6124C65.3626 26.6749 65.1251 27.5499 64.7126 27.4874C65.2751 28.4874 65.3376 29.3624 65.7126 30.0499C66.0876 30.7374 66.3126 32.1499 66.1751 33.6749C66.0251 35.2124 65.6251 38.6374 66.8376 40.9499C66.6376 41.0874 66.1501 40.9499 65.7126 40.4874C65.2751 40.0249 65.0876 40.0374 64.7376 40.3124C63.6376 41.1499 62.6126 42.1624 61.1001 41.1499C60.7501 40.9249 60.6501 40.6499 60.9001 39.9374C61.5251 38.1874 61.8376 35.7624 61.7376 34.6374V21.9249H61.7501Z" fill="#008021" stroke="black" stroke-width="0.0375"/>
<path d="M62.7823 20.845C62.8828 21.1201 62.8792 21.4224 62.7723 21.695C62.6423 21.995 62.6123 22.335 62.8323 22.755C63.1723 22.255 63.6623 22.355 63.9523 22.075C64.2423 21.785 64.3023 21.515 64.5123 21.455C64.3023 21.265 63.9723 21.055 64.0423 20.515C64.1123 19.965 64.8723 19.515 64.1823 18.685C64.0794 18.5541 63.9454 18.4509 63.7924 18.3849C63.6395 18.3188 63.4725 18.2921 63.3066 18.307C63.1407 18.3219 62.9811 18.378 62.8424 18.4702C62.7037 18.5624 62.5902 18.6878 62.5123 18.835C62.4723 18.935 62.5323 19.135 62.4223 19.265C62.3523 19.365 62.2623 19.445 62.1623 19.515C62.1023 19.565 62.0623 19.625 62.1323 19.715C62.1623 19.745 62.2123 19.745 62.2623 19.765L62.1623 19.945C62.1223 19.985 62.1423 20.025 62.1823 20.065C62.1223 20.235 62.2323 20.265 62.1623 20.385C62.0923 20.495 62.0123 20.635 62.2423 20.765C62.3123 20.795 62.6223 20.865 62.7823 20.845ZM59.9723 23.725C59.5723 23.825 58.9223 23.645 58.4323 23.705C58.2123 23.725 58.0423 23.615 58.0723 23.405C58.1023 23.185 58.1323 22.855 58.0823 22.545C58.0901 21.9018 58.2548 21.2701 58.5623 20.705C58.8124 20.2528 58.9753 19.7575 59.0423 19.245C59.0423 19.015 59.0623 18.765 59.2623 18.635C59.4123 18.535 59.4423 18.445 59.4923 18.365C59.6123 18.185 59.7323 18.145 59.7423 18.255C59.7523 18.315 59.7323 18.375 59.6723 18.455C59.8023 18.355 60.0223 18.225 60.0723 18.195C60.1223 18.155 60.3723 17.975 60.3923 18.145C60.4923 18.095 60.5623 18.095 60.5923 18.145C60.6123 18.215 60.5923 18.235 60.5523 18.275C60.6223 18.265 60.7023 18.385 60.5523 18.505C60.6323 18.475 60.7123 18.605 60.5723 18.715C60.4423 18.835 60.2723 18.915 60.2323 19.015C60.1823 19.115 59.8323 19.375 59.7023 19.425C59.5623 19.485 59.5523 19.565 59.5523 19.765C59.5523 21.985 59.2923 21.805 59.2923 22.345C59.2923 22.485 59.2623 22.615 59.4023 22.575C59.5523 22.525 59.7623 22.465 59.9723 22.465V23.715V23.725ZM60.0623 28.505C60.7123 28.175 61.4623 28.055 61.8523 27.955C62.3017 27.8082 62.7368 27.6207 63.1523 27.395C63.4623 27.235 63.7123 27.015 63.8823 26.965C63.9848 26.9335 64.08 26.8818 64.1624 26.8132C64.2448 26.7445 64.3128 26.6602 64.3623 26.565C64.8546 25.7331 65.1489 24.799 65.2223 23.835C65.2223 23.335 65.0923 22.765 64.6023 23.165C64.0923 23.6047 63.712 24.1752 63.5023 24.815C63.3023 25.615 63.1323 25.795 63.0923 25.955C63.0423 26.115 62.8823 26.115 62.6923 26.155C62.0608 26.2535 61.4707 26.5312 60.9923 26.955C60.4235 27.375 59.829 27.7591 59.2123 28.105C58.7523 28.365 58.6623 28.385 58.5623 28.605C58.4623 28.805 58.3623 28.965 58.2823 29.055C58.1923 29.155 58.1723 29.255 58.1823 29.375C58.2023 29.475 58.1623 29.905 58.1523 30.045C58.1523 30.195 58.1823 30.225 58.2423 30.235C58.2923 30.235 58.3723 30.215 58.4023 30.035C58.3723 30.215 58.6123 30.155 58.6223 30.025C58.6223 30.215 58.8723 30.105 58.8823 29.925C58.8823 30.055 59.0823 29.965 59.0923 29.915C59.1423 29.765 59.1723 29.615 59.2323 29.495C59.3123 29.325 59.4023 29.105 59.5723 28.995C59.7623 28.855 59.6723 28.695 60.0623 28.495V28.505ZM64.7323 40.315C64.7723 40.475 64.8523 40.655 64.8823 40.765C64.9123 40.865 64.8623 40.905 64.8323 40.965C64.6678 41.3139 64.5533 41.6842 64.4923 42.065C64.4823 42.215 64.3723 42.365 64.3223 42.465C64.2623 42.565 64.2923 42.645 64.4223 42.745C64.4723 42.785 64.6723 42.725 64.6923 42.625C64.7723 42.695 64.8923 42.675 64.9523 42.565C65.0223 42.625 65.1323 42.585 65.2023 42.475C65.2623 42.515 65.3623 42.435 65.4023 42.375C65.5023 42.425 65.6023 42.365 65.6023 42.175C65.6023 42.125 65.6323 42.055 65.6623 42.015C65.6923 41.965 65.7023 41.875 65.7023 41.795C65.7023 41.715 65.7423 41.555 65.8123 41.445C65.8823 41.335 66.0023 41.135 65.9523 40.945C65.9023 40.775 65.8323 40.785 65.7623 40.545C65.6023 40.375 65.3923 40.145 65.1623 40.125C64.9423 40.115 64.8123 40.265 64.7323 40.315ZM60.6323 41.555C60.8323 41.755 61.2823 41.755 61.6023 41.425C61.4923 41.375 61.2323 41.255 61.1223 41.165C60.9623 41.325 60.7823 41.505 60.6223 41.555H60.6323Z" fill="#FFE1CF" stroke="black" stroke-width="0.04"/>
<path d="M62.6748 18.6246C62.7498 18.1246 63.1123 18.1246 63.3373 18.1871C63.4373 18.1996 63.6623 18.2246 63.8873 18.1621C64.3123 18.0496 64.6373 18.1996 64.5873 18.6121C64.7123 18.6996 64.8373 18.8996 64.7998 19.0746C64.7873 19.2496 64.8248 19.3246 64.9748 19.3371C65.1373 19.3621 65.4748 19.5621 65.2498 19.8371C65.4623 19.9621 65.6248 20.2996 65.5123 20.5121C65.3998 20.7371 65.0623 20.7746 64.9123 20.5746C64.7498 20.6496 64.4998 20.6621 64.3373 20.4996C64.2248 20.6246 63.9623 20.6121 63.8998 20.4996C63.8498 20.3746 63.7748 20.3246 63.6623 20.2871C63.5498 20.2496 63.5373 19.9371 63.7123 19.8996C63.6998 19.7996 63.7123 19.6996 63.7498 19.6496C63.7873 19.5996 63.7498 19.4996 63.6498 19.4246C63.5498 19.3371 63.4623 19.0496 63.5623 18.8746C63.3873 18.9371 63.0123 18.7621 62.9373 18.6496C62.8498 18.5246 62.7373 18.5246 62.6748 18.6246Z" fill="#870F00" stroke="black" stroke-width="0.0375"/>
<path d="M62.7826 20.8443C63.0626 20.8143 63.1526 20.6443 63.3626 20.6443M62.1826 20.0643L62.2526 20.1043C62.3026 20.1343 62.3726 20.1443 62.4226 20.1543M62.2626 19.7643L62.3826 19.8343M62.9126 18.6243C62.7526 18.4643 63.1926 18.1443 63.6626 18.6043C63.7626 18.6943 63.9726 18.6943 64.0426 18.6743M63.5626 18.8743C63.7826 18.8243 64.1026 18.8243 64.2026 19.0743C64.3026 19.3143 64.4826 19.1543 64.6326 19.4443C64.7826 19.7343 65.0226 20.0543 65.2526 19.8343M64.3326 20.4943C64.297 20.4348 64.2741 20.3684 64.2655 20.2996C64.2569 20.2307 64.2627 20.1608 64.2826 20.0943C64.2026 19.9943 64.2326 19.7843 64.2826 19.6843M63.7126 19.8943C63.7226 19.9843 63.8426 20.1443 64.0126 20.1743M64.9126 20.5743C64.8126 20.4443 64.8226 20.3243 64.8526 20.1743" stroke="black" stroke-width="0.04"/>
<path d="M63.8626 19.1347C63.8626 19.2647 63.9326 19.4347 64.0626 19.4947C64.1026 19.5747 64.2426 19.7747 64.5326 19.7447M64.5926 18.6147C64.4049 18.4532 64.1767 18.346 63.9326 18.3047M62.8326 22.7547C62.5826 23.0847 62.4326 23.5447 62.5326 24.1947C62.6526 24.8447 62.8426 25.7947 62.3726 26.2247M64.7026 27.4847C64.3726 27.4047 63.9026 27.4047 63.6326 27.5947C63.3826 27.7847 62.9426 27.7947 62.6526 27.6547" stroke="black" stroke-width="0.04"/>
<path d="M64.0022 27.4547C63.7122 27.5047 63.5822 27.7147 63.5822 28.2447C63.5822 28.7747 63.4622 29.5547 63.5622 30.3247M63.4822 27.6847C63.2822 27.7347 63.0922 27.7347 63.1322 28.2447M62.5022 28.2547C62.5122 27.9547 62.6222 27.6547 62.8222 27.7147M64.5822 28.3247C64.5922 27.6247 64.4422 27.4347 64.2422 27.4447C64.5122 27.4447 64.7022 27.4847 64.8222 28.6047C64.9022 29.4447 65.0822 29.7347 65.2822 30.3947C65.8022 32.0947 65.5422 34.7147 65.8022 35.6447M64.1822 28.5247C64.7322 30.1047 65.0222 31.8647 64.1322 34.6847C64.7322 36.3647 65.3322 37.5747 65.4522 38.2647M62.4622 32.2647C62.5622 31.9047 62.1922 31.8647 62.5122 30.5947C62.6522 30.0447 62.6722 29.7147 62.5822 29.5447" stroke="black" stroke-width="0.04"/>
<path d="M62.5822 30.2949C62.4522 30.8549 63.0022 31.9049 62.7322 32.6749M62.0522 32.8149C62.0522 33.3149 62.1622 33.9449 62.1422 34.4349C62.1122 34.9249 62.3122 35.1449 62.5422 35.6149C63.3822 37.2849 63.9422 38.4749 63.8722 40.0549C63.8522 40.3449 63.9522 40.9549 63.6522 41.1249M62.0722 41.5449C62.1622 41.5449 62.2522 41.5049 62.3622 41.2449C62.6344 40.3107 62.736 39.3352 62.6622 38.3649M62.8422 39.5749C62.8822 39.9049 62.8822 40.5849 62.6722 41.1249" stroke="black" stroke-width="0.04"/>
<path d="M63.3924 38.5845C63.5224 39.2845 63.5024 39.9245 63.4024 40.3745M63.1024 40.3745C63.1224 40.6545 63.2524 41.3745 63.0324 41.4345M64.1824 37.0245C64.7224 37.8645 65.1324 39.9245 65.5824 40.3545M64.6424 40.0245C64.6324 39.7945 64.6224 39.4745 64.4924 39.3245M58.8824 29.9245C58.8924 29.7745 58.8624 29.6245 59.0424 29.3745M58.6224 30.0245C58.6524 29.4745 58.6424 29.4245 58.8024 29.2645M58.4024 30.0345C58.4024 29.6345 58.3624 29.5045 58.5224 29.2545M60.3924 18.1445L59.8224 18.5745M60.5524 18.2745C60.4824 18.2845 60.2824 18.4545 59.9324 18.7245M60.5624 18.5045C60.4424 18.5545 60.2324 18.7545 60.0424 18.8945M59.6724 18.4645L59.4724 18.6645M64.6924 42.6245C64.6624 42.5945 64.6624 42.4645 64.7224 42.3245M64.9624 42.5645C64.9124 42.5245 64.9624 42.3445 64.9924 42.2345M65.2024 42.4745C65.1524 42.4545 65.1424 42.3545 65.2024 42.2145M65.3924 42.3745C65.3624 42.3645 65.3524 42.3045 65.4024 42.1545" stroke="black" stroke-width="0.04"/>
<path d="M62.5624 19.0854C62.6624 19.2154 62.7724 19.2054 62.7924 19.2854C62.8124 19.3854 62.8224 19.3854 62.8424 19.4154C62.8624 19.4354 62.7924 19.4354 62.7624 19.4154H62.5924C62.5424 19.4154 62.4824 19.3454 62.5124 19.3454C62.5524 19.3354 62.5524 19.3254 62.5424 19.2954C62.5424 19.2654 62.5624 19.2254 62.5824 19.2154L62.5724 19.1754C62.5524 19.1354 62.5324 19.0554 62.5624 19.0754V19.0854ZM62.6224 18.9554C62.7827 18.9771 62.9326 19.0468 63.0524 19.1554C63.1324 19.2554 63.0624 19.2254 63.0224 19.2254C62.9824 19.2254 62.8924 19.2054 62.8524 19.1454C62.785 19.08 62.7026 19.0319 62.6124 19.0054C62.5724 18.9954 62.5324 18.9454 62.6224 18.9554Z" fill="black"/>
<path d="M0 0H40V30H0V0Z" fill="#012169"/>
<path d="M4.6875 0L19.9375 11.3125L35.125 0H40V3.875L25 15.0625L40 26.1875V30H35L20 18.8125L5.0625 30H0V26.25L14.9375 15.125L0 4V0H4.6875Z" fill="white"/>
<path d="M26.5 17.5625L40 27.5V30L23.0625 17.5625H26.5ZM15 18.8125L15.375 21L3.375 30H0L15 18.8125ZM40 0V0.1875L24.4375 11.9375L24.5625 9.1875L36.875 0H40ZM0 0L14.9375 11H11.1875L0 2.625V0Z" fill="#C8102E"/>
<path d="M15.0625 0V30H25.0625V0H15.0625ZM0 10V20H40V10H0Z" fill="white"/>
<path d="M0 12.0625V18.0625H40V12.0625H0ZM17.0625 0V30H23.0625V0H17.0625Z" fill="#C8102E"/>
</g>
<defs>
<clipPath id="clip0_3734_60282">
<rect width="80" height="60" fill="white"/>
</clipPath>
</defs>
</svg>
