<svg width="80" height="60" viewBox="0 0 80 60" fill="none" xmlns="http://www.w3.org/2000/svg">
<g clip-path="url(#clip0_3734_60334)">
<mask id="mask0_3734_60334" style="mask-type:luminance" maskUnits="userSpaceOnUse" x="0" y="0" width="80" height="60">
<path d="M0 0H80V60H0V0Z" fill="white"/>
</mask>
<g mask="url(#mask0_3734_60334)">
<path fill-rule="evenodd" clip-rule="evenodd" d="M0 0H80V60H0V0Z" fill="white"/>
<path fill-rule="evenodd" clip-rule="evenodd" d="M-3.2998 0.025L-3.1998 43.225L64.0627 0L-3.2998 0.025Z" fill="#3662A2"/>
<path fill-rule="evenodd" clip-rule="evenodd" d="M83.3001 59.9496L83.1251 15.0371L15.2876 59.9746L83.2876 59.9496H83.3001Z" fill="#38A100"/>
<path fill-rule="evenodd" clip-rule="evenodd" d="M-3.25 46.4746L-3.2 59.9996L11.4875 59.9871L83.175 11.9246L83.0875 0.162109L68.5875 0.0371094L-3.25 46.4621V46.4746Z" fill="#C70000"/>
<path fill-rule="evenodd" clip-rule="evenodd" d="M27.4501 21.5L24.7251 19.85L23.1501 22.6125L21.6251 19.8375L18.8751 21.45L18.9501 18.275L15.7751 18.3L17.4251 15.575L14.6626 14.0125L17.4376 12.475L15.8376 9.725L19.0126 9.8L19.0001 6.6125L21.7126 8.2625L23.2876 5.5L24.8126 8.275L27.5626 6.6625L27.4876 9.8375L30.6626 9.8125L29.0126 12.5375L31.7751 14.1L29.0001 15.6375L30.6001 18.3875L27.4251 18.3125L27.4501 21.5Z" fill="#FFE700"/>
<path fill-rule="evenodd" clip-rule="evenodd" d="M29.0504 14.0504C29.0504 17.2504 26.4379 19.8379 23.2254 19.8379C20.0129 19.8379 17.4004 17.2504 17.4004 14.0504C17.4004 10.8504 20.0004 8.27539 23.2254 8.27539C26.4504 8.27539 29.0504 10.8629 29.0504 14.0504Z" fill="#3662A2"/>
<path fill-rule="evenodd" clip-rule="evenodd" d="M27.7876 14.0498C27.7876 15.2599 27.3069 16.4203 26.4513 17.276C25.5956 18.1316 24.4351 18.6123 23.2251 18.6123C22.015 18.6123 20.8546 18.1316 19.9989 17.276C19.1433 16.4203 18.6626 15.2599 18.6626 14.0498C18.6626 12.8398 19.1433 11.6793 19.9989 10.8236C20.8546 9.96799 22.015 9.4873 23.2251 9.4873C24.4351 9.4873 25.5956 9.96799 26.4513 10.8236C27.3069 11.6793 27.7876 12.8398 27.7876 14.0498Z" fill="#FFE700"/>
</g>
</g>
<defs>
<clipPath id="clip0_3734_60334">
<rect width="80" height="60" fill="white"/>
</clipPath>
</defs>
</svg>
