<svg width="80" height="60" viewBox="0 0 80 60" fill="none" xmlns="http://www.w3.org/2000/svg">
<g clip-path="url(#clip0_3734_60353)">
<path d="M0 0H80V60H0V0Z" fill="white"/>
<mask id="mask0_3734_60353" style="mask-type:luminance" maskUnits="userSpaceOnUse" x="0" y="0" width="60" height="60">
<path d="M0 0H60V60H0V0Z" fill="white"/>
</mask>
<g mask="url(#mask0_3734_60353)">
<path fill-rule="evenodd" clip-rule="evenodd" d="M0.761719 59.2383H45.1523L16.1016 29.7773L46.2539 29.8125L0.773437 0.761719V59.2383H0.761719Z" fill="#CE0000" stroke="#000063" stroke-width="1.61719"/>
<path fill-rule="evenodd" clip-rule="evenodd" d="M21.1758 43.5703L18.0117 44.625L20.4961 46.9453L17.1562 46.7344L18.5273 49.8047L15.5391 48.3633L15.5977 51.7148L13.3945 49.2656L12.1406 52.3828L11.0625 49.3008L8.68359 51.7148L8.89453 48.4688L5.74219 49.8047L7.21875 46.875L3.78516 46.9453L6.30469 44.8008L3.10547 43.5703L6.26953 42.5156L3.77344 40.1953L7.10156 40.4062L5.74219 37.3359L8.74219 38.7773L8.68359 35.4258L10.8867 37.875L12.1406 34.7578L13.207 37.8398L15.5977 35.4258L15.375 38.6719L18.5391 37.3359L17.0508 40.2656L20.4961 40.1953L17.9766 42.3398L21.1758 43.5703ZM17.3789 21.9258L16.0547 22.9102L16.7109 23.4492C18.2509 22.3735 19.4896 20.921 20.3086 19.2305C20.5195 21.7266 18.2344 27.3164 12.2578 27.375C11.1654 27.3889 10.0811 27.1864 9.06744 26.7791C8.05375 26.3717 7.13078 25.7677 6.35178 25.0017C5.57279 24.2358 4.95319 23.3232 4.52876 22.3166C4.10433 21.3099 3.88346 20.2292 3.87891 19.1367C5.05078 21.2695 5.77734 22.3008 7.62891 23.4141L8.17969 22.8984L6.9375 21.8555L8.54297 21.4336L7.67578 19.9805L9.36328 20.0977L9.15234 18.4102L10.6289 19.2773L11.0977 17.6953L12.1523 18.9609L13.1484 17.7539L13.6875 19.3945L15.0703 18.4336L14.8945 20.1094L16.5586 19.9102L15.7734 21.457L17.3789 21.9258Z" fill="white"/>
</g>
</g>
<defs>
<clipPath id="clip0_3734_60353">
<rect width="80" height="60" fill="white"/>
</clipPath>
</defs>
</svg>
