<svg width="91" height="60" viewBox="0 0 91 60" fill="none" xmlns="http://www.w3.org/2000/svg">
<g clip-path="url(#clip0_4617_141170)">
<path fill-rule="evenodd" clip-rule="evenodd" d="M0 0H90.204V60H0V0Z" fill="white"/>
<path fill-rule="evenodd" clip-rule="evenodd" d="M35.0801 0H55.1254V60H35.0801V0Z" fill="#DC171D"/>
<path fill-rule="evenodd" clip-rule="evenodd" d="M0 20H90.204V40H0V20Z" fill="#012A87"/>
<path fill-rule="evenodd" clip-rule="evenodd" d="M41.6341 39.166L40.0769 37.916L38.5279 39.116L39.1427 37.266L37.5859 36.016H39.4564L40.112 34.166L40.7073 36.016H42.5973L41.0987 37.266L41.6341 39.166Z" fill="white"/>
<path fill-rule="evenodd" clip-rule="evenodd" d="M51.6555 39.166L50.0984 37.916L48.5494 39.116L49.1642 37.266L47.6074 36.016H49.4779L50.1334 34.166L50.7288 36.016H52.6188L51.1202 37.266L51.6555 39.166Z" fill="white"/>
<path fill-rule="evenodd" clip-rule="evenodd" d="M41.6341 25.832L40.0769 24.582L38.5279 25.782L39.1427 23.932L37.5859 22.682H39.4564L40.112 20.832L40.7073 22.682H42.5973L41.0987 23.932L41.6341 25.832Z" fill="white"/>
<path fill-rule="evenodd" clip-rule="evenodd" d="M51.2552 25.832L49.698 24.582L48.149 25.782L48.7638 23.932L47.207 22.682H49.0775L49.733 20.832L50.3284 22.682H52.2184L50.7198 23.932L51.2552 25.832Z" fill="white"/>
<path fill-rule="evenodd" clip-rule="evenodd" d="M33.2747 32.5L31.7175 31.25L30.1686 32.45L30.7833 30.6L29.2266 29.35H31.0971L31.7526 27.5L32.3479 29.35H34.2379L32.7393 30.6L33.2747 32.5Z" fill="white"/>
<path fill-rule="evenodd" clip-rule="evenodd" d="M60.0091 32.5L58.4519 31.25L56.9029 32.45L57.5177 30.6L55.9609 29.35H57.8314L58.487 27.5L59.0823 29.35H60.9723L59.4737 30.6L60.0091 32.5Z" fill="white"/>
</g>
<defs>
<clipPath id="clip0_4617_141170">
<rect width="90.2041" height="60" fill="white"/>
</clipPath>
</defs>
</svg>
