<svg width="80" height="60" viewBox="0 0 80 60" fill="none" xmlns="http://www.w3.org/2000/svg">
<g clip-path="url(#clip0_3734_60372)">
<path d="M0 0H80V60H0V0Z" fill="#009543"/>
<path d="M0 0H80V40H0V0Z" fill="#ED4135"/>
<path d="M0 0H80V20H0V0Z" fill="#0035AD"/>
<path d="M29.9999 49.6629C40.8592 49.6629 49.6624 40.8597 49.6624 30.0004C49.6624 19.1411 40.8592 10.3379 29.9999 10.3379C19.1406 10.3379 10.3374 19.1411 10.3374 30.0004C10.3374 40.8597 19.1406 49.6629 29.9999 49.6629Z" fill="#FAE600" stroke="black" stroke-width="0.6625"/>
<path d="M26.6626 32.9379H33.3251H26.6626ZM26.6626 28.0004H33.3251H26.6626ZM30.0001 10.4004V44.0004V10.4004Z" fill="black"/>
<path d="M26.6626 32.9379H33.3251M26.6626 28.0004H33.3251M30.0001 10.4004V44.0004" stroke="black" stroke-width="0.8"/>
<path d="M22.0752 48.0501C30.1002 51.3376 37.6252 48.2626 37.6252 48.2626C37.6252 48.2626 34.7877 45.1876 33.3377 43.9876C31.9127 42.8126 27.7377 42.8626 26.3127 43.9876C24.8359 45.2731 23.4218 46.6288 22.0752 48.0501Z" fill="black"/>
<path d="M29.9998 42.2623C31.2148 42.2623 32.1998 40.8296 32.1998 39.0623C32.1998 37.295 31.2148 35.8623 29.9998 35.8623C28.7848 35.8623 27.7998 37.295 27.7998 39.0623C27.7998 40.8296 28.7848 42.2623 29.9998 42.2623Z" fill="black"/>
<path d="M29.9999 32.1504C31.4704 32.1504 32.6624 31.3949 32.6624 30.4629C32.6624 29.5309 31.4704 28.7754 29.9999 28.7754C28.5294 28.7754 27.3374 29.5309 27.3374 30.4629C27.3374 31.3949 28.5294 32.1504 29.9999 32.1504Z" fill="black"/>
<path d="M29.9999 25.325C31.4704 25.325 32.6624 24.133 32.6624 22.6625C32.6624 21.192 31.4704 20 29.9999 20C28.5294 20 27.3374 21.192 27.3374 22.6625C27.3374 24.133 28.5294 25.325 29.9999 25.325Z" fill="black"/>
<path d="M33.1999 12.7371C33.1999 12.7371 33.4249 13.1121 32.9499 13.9871C30.6249 18.1746 28.2874 18.2621 27.8499 18.6246C27.3499 19.0246 27.1499 18.9996 27.1499 18.9996C27.1874 18.6371 27.2124 17.1746 27.2374 17.0371C27.5999 15.0746 30.5499 15.0996 32.8624 13.0996C33.2249 12.7871 33.1999 12.7246 33.1999 12.7246V12.7371ZM25.3999 21.7371C25.3999 21.7371 25.9374 23.2371 25.9999 24.7371C26.1249 27.1371 28.4249 27.1996 29.9999 27.1996V25.8621C28.8124 25.8621 27.7874 25.6871 26.9374 23.9371C26.4902 23.1603 25.9757 22.4241 25.3999 21.7371ZM25.3374 41.0621C25.3374 41.0621 26.1749 40.0246 27.1624 37.5996C27.6624 36.3371 28.8874 35.5996 29.9999 35.5996V33.7246C27.4624 33.7246 26.2499 34.6621 26.1249 36.0496C25.9658 37.7351 25.7028 39.4091 25.3374 41.0621Z" fill="black"/>
<path d="M34.6 21.7373C34.6 21.7373 34.0625 23.2373 34 24.7373C33.875 27.1373 31.575 27.1998 30 27.1998V25.8748C31.1875 25.8748 32.2125 25.6998 33.0625 23.9373C33.5125 23.1623 34.025 22.4248 34.6 21.7373ZM34.6625 41.0748C34.6625 41.0748 33.825 40.0248 32.8375 37.5998C32.3375 36.3373 31.1125 35.5998 30 35.5998V33.7498C32.5375 33.7498 33.75 34.6873 33.875 36.0748C34.0346 37.7561 34.2976 39.4259 34.6625 41.0748Z" fill="black"/>
</g>
<defs>
<clipPath id="clip0_3734_60372">
<rect width="80" height="60" fill="white"/>
</clipPath>
</defs>
</svg>
