<svg width="80" height="60" viewBox="0 0 80 60" fill="none" xmlns="http://www.w3.org/2000/svg">
<g clip-path="url(#clip0_3734_60522)">
<path fill-rule="evenodd" clip-rule="evenodd" d="M0 0H80V60H0V0Z" fill="#00247D"/>
<path d="M61.3032 13.3975V15.2936L65.0955 13.3975H61.3032Z" fill="white"/>
<path d="M62.1111 15.5057L60.9966 13.9717L65.1792 13.2766L62.1111 15.5057Z" fill="white"/>
<path d="M61.3032 13.3975V15.2936L57.5109 13.3975H61.3032Z" fill="white"/>
<path d="M60.4953 15.5057L61.6099 13.9717L57.4273 13.2766L60.4953 15.5057Z" fill="white"/>
<path d="M62.3853 14.1846L60.5819 14.7705L63.5571 17.7913L62.3853 14.1846Z" fill="white"/>
<path d="M60.6306 15.6034L61.7451 14.0693L63.6986 17.8324L60.6306 15.6034Z" fill="white"/>
<path d="M60.2212 14.1836L62.0245 14.7695L61.3931 10.5769L60.2212 14.1836Z" fill="white"/>
<path d="M62.4752 14.0664L60.6719 14.6523L61.3033 10.4597L62.4752 14.0664Z" fill="white"/>
<path d="M60.2212 14.1846L62.0245 14.7705L59.0493 17.7913L60.2212 14.1846Z" fill="white"/>
<path d="M61.9759 15.6034L60.8613 14.0693L58.9078 17.8324L61.9759 15.6034Z" fill="white"/>
<path d="M61.3037 13.7832V15.0362L63.8096 13.7832H61.3037Z" fill="#CC142B"/>
<path d="M61.8376 15.1758L61.1011 14.1621L63.8649 13.7028L61.8376 15.1758Z" fill="#CC142B"/>
<path d="M61.3032 13.7832V15.0362L58.7973 13.7832H61.3032Z" fill="#CC142B"/>
<path d="M60.7694 15.1758L61.5059 14.1621L58.742 13.7028L60.7694 15.1758Z" fill="#CC142B"/>
<path d="M62.0186 14.3037L60.8269 14.6909L62.7929 16.687L62.0186 14.3037Z" fill="#CC142B"/>
<path d="M60.8592 15.2412L61.5957 14.2275L62.8866 16.7142L60.8592 15.2412Z" fill="#CC142B"/>
<path d="M60.5884 14.3037L61.78 14.6909L61.3628 11.9204L60.5884 14.3037Z" fill="#CC142B"/>
<path d="M62.0779 14.2261L60.8862 14.6133L61.3035 11.8428L62.0779 14.2261Z" fill="#CC142B"/>
<path d="M60.5884 14.3037L61.78 14.6909L59.814 16.687L60.5884 14.3037Z" fill="#CC142B"/>
<path d="M61.7477 15.2412L61.0112 14.2275L59.7204 16.7142L61.7477 15.2412Z" fill="#CC142B"/>
<path d="M71.2397 22.1504L71.2397 23.8377L74.6144 22.1504L71.2397 22.1504Z" fill="white"/>
<path d="M71.9586 24.0252L70.9668 22.6602L74.6887 22.0417L71.9586 24.0252Z" fill="white"/>
<path d="M71.2397 22.1504L71.2397 23.8377L67.8651 22.1504L71.2397 22.1504Z" fill="white"/>
<path d="M70.5209 24.0252L71.5127 22.6602L67.7907 22.0417L70.5209 24.0252Z" fill="white"/>
<path d="M72.2026 22.8496L70.5979 23.371L73.2455 26.0591L72.2026 22.8496Z" fill="white"/>
<path d="M70.641 24.1131L71.6328 22.748L73.3712 26.0967L70.641 24.1131Z" fill="white"/>
<path d="M70.2764 22.8506L71.8811 23.372L71.3192 19.6411L70.2764 22.8506Z" fill="white"/>
<path d="M72.2825 22.7462L70.6777 23.2676L71.2397 19.5367L72.2825 22.7462Z" fill="white"/>
<path d="M70.2769 22.8496L71.8816 23.371L69.234 26.0591L70.2769 22.8496Z" fill="white"/>
<path d="M71.8385 24.1131L70.8467 22.748L69.1083 26.0967L71.8385 24.1131Z" fill="white"/>
<path d="M71.2397 22.5361L71.2397 23.5803L73.328 22.5361L71.2397 22.5361Z" fill="#CC142B"/>
<path d="M71.6845 23.6963L71.0708 22.8516L73.374 22.4688L71.6845 23.6963Z" fill="#CC142B"/>
<path d="M71.2397 22.5361L71.2397 23.5803L69.1515 22.5361L71.2397 22.5361Z" fill="#CC142B"/>
<path d="M70.795 23.6963L71.4087 22.8516L69.1055 22.4688L70.795 23.6963Z" fill="#CC142B"/>
<path d="M71.8354 22.9688L70.8424 23.2914L72.4808 24.9548L71.8354 22.9688Z" fill="#CC142B"/>
<path d="M70.8692 23.75L71.4829 22.9053L72.5586 24.9775L70.8692 23.75Z" fill="#CC142B"/>
<path d="M70.644 22.9688L71.6371 23.2914L71.2894 20.9827L70.644 22.9688Z" fill="#CC142B"/>
<path d="M71.8851 22.9039L70.8921 23.2266L71.2398 20.9178L71.8851 22.9039Z" fill="#CC142B"/>
<path d="M70.644 22.9688L71.6371 23.2914L69.9987 24.9548L70.644 22.9688Z" fill="#CC142B"/>
<path d="M71.6103 23.75L70.9966 22.9053L69.9209 24.9775L71.6103 23.75Z" fill="#CC142B"/>
<path d="M49.729 25.0508L49.729 26.9469L53.5213 25.0508L49.729 25.0508Z" fill="white"/>
<path d="M50.5369 27.159L49.4224 25.625L53.6049 24.93L50.5369 27.159Z" fill="white"/>
<path d="M49.729 25.0508L49.729 26.9469L45.9367 25.0508L49.729 25.0508Z" fill="white"/>
<path d="M48.9211 27.159L50.0356 25.625L45.8531 24.93L48.9211 27.159Z" fill="white"/>
<path d="M50.811 25.8379L49.0077 26.4238L51.9829 29.4446L50.811 25.8379Z" fill="white"/>
<path d="M49.0564 27.2567L50.1709 25.7227L52.1244 29.4858L49.0564 27.2567Z" fill="white"/>
<path d="M48.647 25.8369L50.4503 26.4229L49.8189 22.2302L48.647 25.8369Z" fill="white"/>
<path d="M50.901 25.7197L49.0977 26.3057L49.7291 22.113L50.901 25.7197Z" fill="white"/>
<path d="M48.647 25.8379L50.4503 26.4238L47.4751 29.4446L48.647 25.8379Z" fill="white"/>
<path d="M50.4016 27.2567L49.2871 25.7227L47.3336 29.4858L50.4016 27.2567Z" fill="white"/>
<path d="M49.7295 25.4365L49.7295 26.6895L52.2354 25.4365L49.7295 25.4365Z" fill="#CC142B"/>
<path d="M50.2633 26.8291L49.5269 25.8154L52.2907 25.3561L50.2633 26.8291Z" fill="#CC142B"/>
<path d="M49.729 25.4365L49.729 26.6895L47.2231 25.4365L49.729 25.4365Z" fill="#CC142B"/>
<path d="M49.1952 26.8291L49.9316 25.8154L47.1678 25.3561L49.1952 26.8291Z" fill="#CC142B"/>
<path d="M50.4443 25.957L49.2527 26.3442L51.2187 28.3403L50.4443 25.957Z" fill="#CC142B"/>
<path d="M49.285 26.8945L50.0215 25.8809L51.3124 28.3675L49.285 26.8945Z" fill="#CC142B"/>
<path d="M49.0142 25.957L50.2058 26.3442L49.7885 23.5737L49.0142 25.957Z" fill="#CC142B"/>
<path d="M50.5037 25.8794L49.312 26.2666L49.7293 23.4961L50.5037 25.8794Z" fill="#CC142B"/>
<path d="M49.0142 25.957L50.2058 26.3442L48.2398 28.3403L49.0142 25.957Z" fill="#CC142B"/>
<path d="M50.1735 26.8945L49.437 25.8809L48.1461 28.3675L50.1735 26.8945Z" fill="#CC142B"/>
<path d="M61.3032 43.3438V45.4487L65.5132 43.3438H61.3032Z" fill="white"/>
<path d="M62.2002 45.6834L60.9629 43.9805L65.6061 43.2089L62.2002 45.6834Z" fill="white"/>
<path d="M61.3032 43.3438V45.4487L57.0932 43.3438H61.3032Z" fill="white"/>
<path d="M60.4063 45.6834L61.6436 43.9805L57.0003 43.2089L60.4063 45.6834Z" fill="white"/>
<path d="M62.5044 44.2168L60.5024 44.8673L63.8053 48.2207L62.5044 44.2168Z" fill="white"/>
<path d="M60.5567 45.7928L61.7939 44.0898L63.9626 48.2674L60.5567 45.7928Z" fill="white"/>
<path d="M60.1025 44.2168L62.1045 44.8673L61.4035 40.2129L60.1025 44.2168Z" fill="white"/>
<path d="M62.6045 44.0868L60.6025 44.7373L61.3035 40.0829L62.6045 44.0868Z" fill="white"/>
<path d="M60.1025 44.2168L62.1045 44.8673L58.8016 48.2207L60.1025 44.2168Z" fill="white"/>
<path d="M62.0503 45.7928L60.813 44.0898L58.6443 48.2674L62.0503 45.7928Z" fill="white"/>
<path d="M61.3037 43.7295V45.1913L64.2273 43.7295H61.3037Z" fill="#CC142B"/>
<path d="M61.9266 45.3545L61.0674 44.1719L64.2918 43.636L61.9266 45.3545Z" fill="#CC142B"/>
<path d="M61.3037 43.7295V45.1913L58.3801 43.7295H61.3037Z" fill="#CC142B"/>
<path d="M60.6808 45.3545L61.54 44.1719L58.3156 43.636L60.6808 45.3545Z" fill="#CC142B"/>
<path d="M62.1377 44.3359L60.7474 44.7877L63.0411 47.1164L62.1377 44.3359Z" fill="#CC142B"/>
<path d="M60.7853 45.4307L61.6445 44.248L63.1505 47.1491L60.7853 45.4307Z" fill="#CC142B"/>
<path d="M60.4697 44.3359L61.86 44.7877L61.3732 41.5554L60.4697 44.3359Z" fill="#CC142B"/>
<path d="M62.2071 44.2455L60.8169 44.6973L61.3037 41.465L62.2071 44.2455Z" fill="#CC142B"/>
<path d="M60.4697 44.3359L61.86 44.7877L59.5663 47.1164L60.4697 44.3359Z" fill="#CC142B"/>
<path d="M61.8221 45.4307L60.9629 44.248L59.4569 47.1491L61.8221 45.4307Z" fill="#CC142B"/>
<path d="M0 0H40V30H0V0Z" fill="#012169"/>
<path d="M4.6875 0L19.9375 11.3125L35.125 0H40V3.875L25 15.0625L40 26.1875V30H35L20 18.8125L5.0625 30H0V26.25L14.9375 15.125L0 4V0H4.6875Z" fill="white"/>
<path d="M26.5 17.5625L40 27.5V30L23.0625 17.5625H26.5ZM15 18.8125L15.375 21L3.375 30H0L15 18.8125ZM40 0V0.1875L24.4375 11.9375L24.5625 9.1875L36.875 0H40ZM0 0L14.9375 11H11.1875L0 2.625V0Z" fill="#C8102E"/>
<path d="M15.0625 0V30H25.0625V0H15.0625ZM0 10V20H40V10H0Z" fill="white"/>
<path d="M0 12.0625V18.0625H40V12.0625H0ZM17.0625 0V30H23.0625V0H17.0625Z" fill="#C8102E"/>
</g>
<defs>
<clipPath id="clip0_3734_60522">
<rect width="80" height="60" fill="white"/>
</clipPath>
</defs>
</svg>
