<svg width="80" height="60" viewBox="0 0 80 60" fill="none" xmlns="http://www.w3.org/2000/svg">
<g clip-path="url(#clip0_3734_60758)">
<path d="M0 0H80V60H0V0Z" fill="#0067C6"/>
<path d="M0 20H80V40H0V20Z" fill="white"/>
<path d="M31 29.9375L32 30V29.85L31.625 29.825L31.65 29.35L32.0625 29.05L32.075 28.8625L31.6375 29.175C31.625 29.075 31.5625 28.9625 31.4625 28.925C31.3625 28.9 31.2625 28.9 31.175 28.9625C31.075 29.0375 31.05 29.1625 31.05 29.275L31 29.9375ZM31.15 29.8L31.1875 29.3C31.2 29.225 31.2125 29.125 31.2875 29.075C31.3034 29.0644 31.3214 29.0575 31.3403 29.055C31.3592 29.0524 31.3785 29.0543 31.3966 29.0603C31.4147 29.0663 31.4311 29.0764 31.4447 29.0898C31.4583 29.1032 31.4687 29.1195 31.475 29.1375C31.525 29.2625 31.5 29.4 31.4875 29.5375L31.475 29.8125L31.15 29.8ZM31.125 28.4L32.1 28.625L32.325 27.675C32.2791 27.6668 32.2333 27.6585 32.1875 27.65L32 28.45L31.7 28.3875L31.875 27.6625L31.7375 27.625L31.5625 28.35L31.3125 28.2875L31.4875 27.5125L31.3375 27.4875L31.125 28.4ZM31.475 27.0875L32.425 27.425L32.475 27.2875L32.1 27.1625L32.25 26.725C32.275 26.6 32.3 26.475 32.2375 26.35C32.2084 26.3112 32.1706 26.2797 32.1273 26.258C32.0839 26.2363 32.036 26.225 31.9875 26.225C31.8625 26.225 31.7875 26.3125 31.7375 26.4125C31.6625 26.5375 31.6125 26.6875 31.575 26.8375L31.475 27.0875ZM31.6625 27L31.8125 26.575C31.85 26.5 31.8875 26.4125 31.975 26.3875C31.9924 26.3839 32.0103 26.384 32.0276 26.3879C32.0449 26.3918 32.0612 26.3993 32.0754 26.4099C32.0896 26.4205 32.1013 26.4341 32.1099 26.4496C32.1184 26.4651 32.1236 26.4823 32.125 26.5C32.15 26.625 32.0875 26.75 32.05 26.875L31.9625 27.1125L31.6625 27ZM32 25.875L32.5375 26.2C32.6375 26.25 32.7625 26.275 32.875 26.225C33.0105 26.1331 33.1151 26.0024 33.175 25.85C33.225 25.725 33.275 25.575 33.2 25.45C33.125 25.325 32.9875 25.275 32.8625 25.2L32.525 25L32.45 25.125L32.95 25.425C33.0375 25.475 33.1 25.55 33.0875 25.6625C33.0626 25.777 33.0112 25.884 32.9375 25.975C32.8875 26.05 32.7875 26.1125 32.6875 26.1C32.5875 26.075 32.5 26 32.4125 25.95L32.075 25.7625L32 25.8875V25.875ZM32.725 24.7125L33.5125 25.3125L33.8875 24.8375C33.9625 24.725 34.0125 24.5875 33.975 24.4625C33.9518 24.4144 33.9166 24.373 33.8728 24.3424C33.829 24.3118 33.7782 24.2929 33.725 24.2875C33.6625 24.2875 33.6 24.325 33.575 24.3375C33.6 24.225 33.5125 24.125 33.425 24.1C33.3 24.0625 33.175 24.1375 33.1 24.225L32.85 24.5375L32.725 24.7125ZM32.925 24.675C33.0125 24.55 33.1 24.425 33.2 24.325C33.25 24.275 33.325 24.2 33.3875 24.25C33.45 24.275 33.475 24.3625 33.4375 24.4125C33.3875 24.525 33.3125 24.6 33.2375 24.7L33.1375 24.8375L32.925 24.675ZM33.25 24.925L33.5375 24.55C33.5875 24.5 33.6625 24.425 33.7375 24.45C33.8125 24.4625 33.8625 24.5375 33.8375 24.6125C33.8 24.7375 33.7 24.8375 33.6125 24.95L33.4875 25.1125L33.2375 24.925H33.25ZM33.625 23.65L34.3125 24.375L34.9 23.8125L34.8 23.7125L34.325 24.1625H34.3125L33.725 23.5375L33.625 23.65ZM34.5 22.875L35.1125 23.6625L35.2375 23.575L34.6125 22.7875L34.5 22.875ZM35.4 22.2625C35.3023 22.3198 35.2173 22.3964 35.15 22.4875C35.0932 22.5627 35.0615 22.6538 35.0592 22.748C35.057 22.8422 35.0844 22.9347 35.1375 23.0125C35.1859 23.092 35.255 23.1568 35.3375 23.2C35.4143 23.2404 35.5011 23.2578 35.5875 23.25C35.7079 23.2341 35.8233 23.1914 35.925 23.125C36.0291 23.0654 36.1154 22.9791 36.175 22.875C36.225 22.775 36.2375 22.675 36.2125 22.575L36.0875 22.625C36.1125 22.825 35.9875 22.925 35.8375 23C35.6125 23.15 35.4 23.1375 35.2625 22.9375C35.125 22.7 35.2625 22.5125 35.4625 22.3875C35.6 22.3 35.7375 22.2375 35.8625 22.325L35.975 22.225C35.9024 22.1728 35.8144 22.1463 35.725 22.15C35.6125 22.15 35.5125 22.2 35.4 22.275V22.2625ZM36.5875 21.675L36.475 22.8L36.6375 22.7375L36.6625 22.3875L37.1625 22.1875L37.4375 22.4125L37.5875 22.35L36.7375 21.6125L36.5875 21.675ZM36.7125 21.8L37.05 22.075L36.675 22.225L36.7125 21.7875V21.8ZM38.775 21.05L38.8375 22.05L39.375 22.025C39.525 22 39.675 21.975 39.7625 21.85C39.8875 21.725 39.9125 21.5125 39.85 21.3375C39.8263 21.2615 39.7824 21.1935 39.7229 21.1406C39.6635 21.0877 39.5907 21.0521 39.5125 21.0375C39.3625 21.0125 39.2125 21.0375 39.0625 21.0375L38.775 21.0625V21.05ZM38.925 21.1875L39.3625 21.175C39.4422 21.1714 39.5211 21.1932 39.5875 21.2375C39.6875 21.3125 39.75 21.425 39.7375 21.55C39.7321 21.6197 39.7051 21.6861 39.6603 21.7398C39.6155 21.7936 39.5551 21.8321 39.4875 21.85C39.4125 21.875 39.325 21.875 39.25 21.8875L38.975 21.9L38.925 21.1875ZM40.175 21L40.1125 22L41.0875 22.05V21.9125L40.2625 21.8625L40.275 21.5625L41.025 21.6V21.4625L40.2875 21.425L40.3 21.15L41.1 21.2V21.05L40.1625 21H40.175ZM42.775 21.4125L42.4125 22.35L42.5375 22.4L42.8375 21.65V21.625L42.8625 21.6625L43.2125 22.6625L43.375 22.725L43.7375 21.7875L43.6125 21.7375L43.325 22.4875L43.3125 22.5125L43.2875 22.475L42.95 21.475L42.775 21.4125ZM44.125 22L43.6625 22.875L43.5375 22.8125L43.9875 21.925L44.125 22ZM44.875 22.4375C44.7841 22.3766 44.6822 22.3342 44.575 22.3125C44.4826 22.2863 44.3842 22.2903 44.2942 22.3241C44.2042 22.3578 44.1274 22.4195 44.075 22.5C44.0267 22.5791 44.0008 22.6698 44 22.7625C44 22.85 44.0125 22.9375 44.075 23.025C44.125 23.1125 44.2 23.1875 44.325 23.275C44.4257 23.3434 44.5415 23.3863 44.6625 23.4C44.7614 23.4028 44.8584 23.3719 44.9375 23.3125L44.8375 23.2C44.6625 23.325 44.525 23.2375 44.3875 23.15C44.1625 23 44.075 22.8 44.2125 22.5875C44.3625 22.3625 44.6 22.425 44.8 22.55C44.925 22.6375 45.05 22.7375 45.025 22.8875L45.15 22.9375C45.1649 22.8523 45.1517 22.7646 45.1125 22.6875C45.0625 22.5875 44.9875 22.5125 44.875 22.4375ZM45.825 23.15L44.7875 23.575L44.9125 23.6875L45.2375 23.5625L45.65 23.9125L45.5625 24.25L45.6875 24.3625L45.95 23.2625L45.825 23.15ZM45.7875 23.325L45.6875 23.75L45.375 23.5L45.7875 23.325ZM46.5875 23.85L45.8125 24.475L45.9 24.6L46.2125 24.35L46.5125 24.725L46.425 25.225L46.5375 25.3625L46.6375 24.8375C46.725 24.9 46.85 24.9375 46.95 24.8875C47.0375 24.8375 47.125 24.7625 47.125 24.6625C47.125 24.525 47.0375 24.4125 46.9625 24.3125L46.5875 23.85ZM46.5625 24.05L46.8875 24.45C46.9375 24.525 47 24.625 46.9375 24.7C46.9 24.775 46.8 24.775 46.7375 24.725C46.6125 24.6375 46.5375 24.5125 46.4375 24.4L46.3125 24.2625L46.5625 24.05ZM47.75 25.4375L46.625 25.4875L46.7125 25.6375L47.0625 25.625L47.3375 26.1L47.1375 26.3875L47.225 26.5375L47.8375 25.5875L47.75 25.4375ZM47.6625 25.5875L47.4125 25.9625L47.225 25.6125L47.6625 25.5875ZM48.4 26.7625C48.3375 26.6 48.2375 26.425 48.0625 26.3375C47.968 26.2938 47.8618 26.2824 47.7601 26.305C47.6585 26.3276 47.5671 26.3829 47.5 26.4625C47.375 26.5875 47.375 26.775 47.4125 26.95C47.45 27.1375 47.5375 27.325 47.6625 27.4625L47.5875 27.4875L47.6375 27.625L48.1125 27.4625L47.925 26.95L47.825 26.9875L47.95 27.3625L47.8 27.425C47.6644 27.2985 47.5724 27.1322 47.5375 26.95C47.5 26.8125 47.5 26.65 47.6 26.55C47.725 26.425 47.925 26.3875 48.0625 26.4875C48.2 26.5875 48.275 26.75 48.3125 26.9125C48.35 27.025 48.3375 27.15 48.2625 27.2375C48.2375 27.2375 48.2625 27.275 48.275 27.2875L48.3125 27.35C48.3548 27.3177 48.3892 27.2761 48.4131 27.2284C48.4369 27.1807 48.4495 27.1283 48.45 27.075C48.4525 26.9687 48.4355 26.8628 48.4 26.7625ZM48.6875 27.55L48.125 27.65C48.0386 27.6626 47.9569 27.697 47.8875 27.75C47.8333 27.7989 47.7979 27.8652 47.7875 27.9375V28.2375C47.825 28.3625 47.8625 28.45 47.9125 28.525C47.95 28.6 48 28.65 48.0625 28.65C48.1445 28.6712 48.2305 28.6712 48.3125 28.65L48.875 28.55L48.85 28.4125L48.3 28.5125C48.05 28.5625 47.975 28.4375 47.925 28.2125C47.8875 27.9875 47.925 27.8375 48.1625 27.8L48.7125 27.6875L48.6875 27.55ZM48.9875 29.25L47.95 28.8L47.9625 28.975L48.2875 29.1L48.325 29.65L48.025 29.8375L48.0375 30L49 29.4125L48.9875 29.25ZM48.8375 29.3375L48.4625 29.575L48.4375 29.175L48.8375 29.3375ZM31.775 31.8375L31.625 31.875L31.7875 32.4875L31.9375 32.45L31.775 31.8375ZM48.225 31.8375L48.375 31.875L48.2125 32.4875L48.0625 32.45L48.225 31.8375ZM33.325 34.4L32.2 34.525L32.3 34.6625L32.65 34.625L32.95 35.075L32.775 35.3875L32.875 35.5125L33.4125 34.5375L33.325 34.4ZM33.2375 34.5625L33.025 34.9375L32.8 34.6125L33.2375 34.5625ZM33.75 35.0125L33.0375 35.675L33.1375 35.775L33.7375 35.2125L33.4125 36.0875L33.5375 36.2L34.3875 35.95L33.8 36.4875L33.9 36.5875L34.6125 35.925L34.4625 35.775L33.5875 36.025L33.9125 35.1875L33.75 35.0125ZM34.7875 36.0625L34.1875 36.875L34.9625 37.45L35.05 37.3375L34.3875 36.8375L34.575 36.5875L35.1625 37.05L35.25 36.925L34.6625 36.4875L34.825 36.275L35.45 36.75L35.5375 36.625L34.7875 36.0625ZM35.7625 36.7875L35.3 37.6625L35.425 37.7375L35.6125 37.3875L36.0375 37.6125L36.1375 38.1125L36.3 38.2L36.1875 37.675C36.3 37.7125 36.4375 37.6875 36.5 37.6C36.5625 37.525 36.6125 37.4375 36.575 37.3375C36.55 37.2125 36.4125 37.1375 36.3125 37.075L35.7625 36.7875ZM35.825 36.975L36.275 37.225C36.35 37.275 36.4375 37.3375 36.425 37.425C36.425 37.5125 36.3375 37.55 36.2625 37.5375C36.1125 37.5125 35.9875 37.425 35.8625 37.3625L35.675 37.2625L35.825 36.975ZM36.9 37.375L36.525 38.3L36.65 38.3625L37.025 37.4375L36.9 37.375ZM37.8 37.6875C37.696 37.6495 37.5856 37.6325 37.475 37.6375C37.3787 37.6391 37.2855 37.6715 37.209 37.73C37.1325 37.7885 37.0767 37.87 37.05 37.9625C37.0272 38.0485 37.0272 38.139 37.05 38.225C37.05 38.325 37.1 38.4 37.175 38.475C37.2612 38.5515 37.3638 38.6071 37.475 38.6375C37.5913 38.6788 37.7167 38.6875 37.8375 38.6625C37.9359 38.6435 38.0245 38.5904 38.0875 38.5125L37.9625 38.4375C37.8375 38.6 37.675 38.5625 37.5125 38.5C37.2625 38.4125 37.125 38.25 37.2 38C37.2875 37.75 37.5375 37.75 37.75 37.8125C37.9 37.8625 38.0375 37.9375 38.05 38.075L38.2 38.1C38.1931 38.006 38.1533 37.9175 38.0875 37.85C38.0066 37.7729 37.9078 37.717 37.8 37.6875ZM38.8 37.9125L38.15 38.825L38.3125 38.85L38.5125 38.5625L39.0625 38.65L39.175 38.975L39.3375 39L38.9625 37.9375L38.8 37.9125ZM38.8625 38.075L39.0125 38.5L38.6125 38.4375L38.8625 38.075ZM41.15 37.925C41.025 37.9375 40.9375 37.975 40.85 38.0375C40.7674 38.0856 40.7022 38.1588 40.664 38.2465C40.6258 38.3342 40.6165 38.4317 40.6375 38.525C40.65 38.6125 40.6875 38.6875 40.7625 38.775C40.8125 38.8375 40.8875 38.875 40.9875 38.9C41.075 38.925 41.2 38.925 41.3375 38.9C41.4625 38.875 41.5875 38.825 41.6625 38.75C41.7358 38.685 41.7843 38.5967 41.8 38.5H41.65C41.6125 38.7 41.4625 38.75 41.3 38.775C41.0375 38.825 40.8375 38.7375 40.7875 38.4875C40.7375 38.225 40.95 38.1 41.1625 38.05C41.325 38.025 41.475 38.0125 41.5625 38.1375L41.6875 38.0875C41.6406 38.0128 41.5703 37.9556 41.4875 37.925C41.3768 37.8964 41.2607 37.8964 41.15 37.925ZM41.8125 37.8L42.1 38.7625L43.0375 38.4875L42.9875 38.35L42.2 38.5875L42.1125 38.2875L42.825 38.075L42.7875 37.95L42.075 38.15L42 37.9L42.75 37.675L42.7125 37.5375L41.8125 37.8ZM42.9 37.4625L43.3125 38.375L43.4375 38.3125L43.0875 37.5625L44.0625 38H44.125L44.25 37.9375L43.825 37.025L43.7 37.0875L44.05 37.8375L43.05 37.3875L42.9 37.4625ZM44 36.95L44.075 37.075L44.425 36.825H44.45L44.9125 37.5375L45.0375 37.45L44.575 36.75V36.7375L44.9375 36.4875L44.8625 36.375L44 36.95ZM45 36.25L45.675 37L45.7875 36.8875L45.525 36.6L45.875 36.275L46.375 36.35L46.525 36.225L45.9875 36.15C46.05 36.0625 46.075 35.925 46.0125 35.825C45.9625 35.7375 45.8875 35.6625 45.775 35.675C45.65 35.675 45.525 35.775 45.4375 35.85L45 36.2625V36.25ZM45.2 36.2625L45.575 35.9125C45.65 35.8625 45.75 35.8 45.825 35.85C45.9125 35.8875 45.9125 35.9875 45.8625 36.05C45.7875 36.175 45.675 36.2625 45.5625 36.375L45.425 36.5L45.2 36.25V36.2625ZM46.1625 35.0875L46.6125 36.125L46.7125 36L46.5875 35.675L46.925 35.25L47.2625 35.325L47.375 35.2L46.275 34.95L46.1625 35.0875ZM46.3375 35.125L46.775 35.2125L46.525 35.525L46.3375 35.125ZM46.6 34.525L47.4375 35.0625L47.875 34.3875L47.75 34.3125L47.4125 34.85L47.4 34.875H47.3875L46.675 34.4L46.6 34.525Z" fill="#C8A400"/>
<mask id="mask0_3734_60758" style="mask-type:luminance" maskUnits="userSpaceOnUse" x="33" y="22" width="14" height="12">
<path d="M39.9999 22.6396L33.6299 33.6697H46.3699L39.9999 22.6396Z" fill="white"/>
</mask>
<g mask="url(#mask0_3734_60758)">
<path d="M39.9996 22.6396L36.8496 28.0896L35.3096 30.7596H44.6896L43.2196 28.2196L39.9996 22.6396Z" fill="white"/>
<path opacity="0.6" d="M39.9998 22.6396L39.7598 23.0396L39.9998 28.5396L40.2398 23.0396L39.9998 22.6396Z" fill="#17C0EB" stroke="#17C0EB" stroke-width="0.01"/>
<path d="M39.9997 27.75H39.9897L39.9997 28.05L40.0097 27.75H39.9997Z" fill="white"/>
<path opacity="0.6" d="M45.6206 26.7234L45.166 26.6187L40.0093 28.5466L45.3143 27.0752L45.6206 26.7234Z" fill="#17C0EB" stroke="#17C0EB" stroke-width="0.01"/>
<path d="M40.7604 28.3025L40.7573 28.293L40.4751 28.3952L40.7635 28.312L40.7604 28.3025Z" fill="white"/>
<path opacity="0.6" d="M43.4733 33.3305L43.4324 32.8658L40.0054 28.5573L43.044 33.148L43.4733 33.3305Z" fill="#17C0EB" stroke="#17C0EB" stroke-width="0.01"/>
<path d="M40.4699 29.1963L40.478 29.1904L40.2936 28.9536L40.4618 29.2022L40.4699 29.1963Z" fill="white"/>
<path opacity="0.6" d="M36.5256 33.3306L36.9548 33.1481L39.9935 28.5574L36.5665 32.8659L36.5256 33.3306Z" fill="#17C0EB" stroke="#17C0EB" stroke-width="0.01"/>
<path d="M39.529 29.1963L39.5371 29.2021L39.7054 28.9536L39.5209 29.1904L39.529 29.1963Z" fill="white"/>
<path opacity="0.6" d="M34.3789 26.7229L34.6851 27.0748L39.9901 28.5461L34.8334 26.6183L34.3789 26.7229Z" fill="#17C0EB" stroke="#17C0EB" stroke-width="0.01"/>
<path d="M39.2389 28.302L39.2358 28.3115L39.5242 28.3947L39.242 28.2925L39.2389 28.302Z" fill="white"/>
<path opacity="0.6" d="M40.8221 22.6965L40.5288 23.0592L40.001 28.5391L41.0041 23.126L40.8221 22.6965Z" fill="#17C0EB" stroke="#17C0EB" stroke-width="0.01"/>
<path d="M40.111 27.7563L40.1011 27.7549L40.0692 28.0534L40.1209 27.7577L40.111 27.7563Z" fill="white"/>
<path opacity="0.6" d="M45.82 27.5235L45.3844 27.3566L40.0096 28.548L45.4677 27.8293L45.82 27.5235Z" fill="#17C0EB" stroke="#17C0EB" stroke-width="0.01"/>
<path d="M40.7879 28.4112L40.7861 28.4014L40.4924 28.4633L40.7896 28.4211L40.7879 28.4112Z" fill="white"/>
<path opacity="0.6" d="M42.7739 33.7679L42.7981 33.3021L40.0041 28.5586L42.3742 33.5274L42.7739 33.7679Z" fill="#17C0EB" stroke="#17C0EB" stroke-width="0.01"/>
<path d="M40.375 29.2557L40.3838 29.251L40.2341 28.9908L40.3661 29.2604L40.375 29.2557Z" fill="white"/>
<path opacity="0.6" d="M35.8943 32.8011L36.3448 32.68L39.9927 28.557L35.9995 32.3466L35.8943 32.8011Z" fill="#17C0EB" stroke="#17C0EB" stroke-width="0.01"/>
<path d="M39.444 29.1249L39.4512 29.1318L39.6524 28.9091L39.4368 29.1179L39.444 29.1249Z" fill="white"/>
<path opacity="0.6" d="M34.6877 25.9581L34.942 26.3492L39.9906 28.5445L35.1525 25.9178L34.6877 25.9581Z" fill="#17C0EB" stroke="#17C0EB" stroke-width="0.01"/>
<path d="M39.2808 28.198L39.2764 28.207L39.5504 28.3296L39.2851 28.1891L39.2808 28.198Z" fill="white"/>
<path opacity="0.6" d="M41.6287 22.8689L41.2877 23.1872L40.0024 28.5403L41.7491 23.3195L41.6287 22.8689Z" fill="#17C0EB" stroke="#17C0EB" stroke-width="0.01"/>
<path d="M40.2201 27.7811L40.2104 27.7783L40.1374 28.0695L40.2297 27.7838L40.2201 27.7811Z" fill="white"/>
<path opacity="0.6" d="M45.9058 28.3434L45.4977 28.1175L40.0094 28.5493L45.5145 28.5972L45.9058 28.3434Z" fill="#17C0EB" stroke="#17C0EB" stroke-width="0.01"/>
<path d="M40.7992 28.5217L40.7988 28.5117L40.4994 28.5322L40.7995 28.5317L40.7992 28.5217Z" fill="white"/>
<path opacity="0.6" d="M42.0211 34.1036L42.1098 33.6456L40.0031 28.5594L41.6587 33.8098L42.0211 34.1036Z" fill="#17C0EB" stroke="#17C0EB" stroke-width="0.01"/>
<path d="M40.2733 29.3013L40.2827 29.2979L40.1707 29.0194L40.2639 29.3047L40.2733 29.3013Z" fill="white"/>
<path opacity="0.6" d="M35.3425 32.1878L35.8054 32.1307L39.9917 28.5554L35.5099 31.7524L35.3425 32.1878Z" fill="#17C0EB" stroke="#17C0EB" stroke-width="0.01"/>
<path d="M39.3693 29.0419L39.3755 29.0498L39.6057 28.8572L39.3632 29.034L39.3693 29.0419Z" fill="white"/>
<path opacity="0.6" d="M35.1 25.2444L35.2974 25.667L39.9913 28.5436L35.5658 25.2691L35.1 25.2444Z" fill="#17C0EB" stroke="#17C0EB" stroke-width="0.01"/>
<path d="M39.3366 28.1021L39.3311 28.1104L39.5854 28.2698L39.3422 28.0938L39.3366 28.1021Z" fill="white"/>
<path opacity="0.6" d="M42.4038 23.1504L42.0219 23.4182L40.0041 28.5403L42.4604 23.6134L42.4038 23.1504Z" fill="#17C0EB" stroke="#17C0EB" stroke-width="0.01"/>
<path d="M40.3255 27.8185L40.3164 27.8145L40.2035 28.0926L40.3347 27.8226L40.3255 27.8185Z" fill="white"/>
<path opacity="0.6" d="M45.8777 29.1674L45.505 28.8869L40.0101 28.5507L45.4548 29.3643L45.8777 29.1674Z" fill="#17C0EB" stroke="#17C0EB" stroke-width="0.01"/>
<path d="M40.7958 28.633L40.7969 28.623L40.4975 28.6016L40.7948 28.6429L40.7958 28.633Z" fill="white"/>
<path opacity="0.6" d="M41.2286 34.3302L41.3802 33.889L40.0019 28.5591L40.9107 33.9888L41.2286 34.3302Z" fill="#17C0EB" stroke="#17C0EB" stroke-width="0.01"/>
<path d="M40.166 29.3322L40.1758 29.3301L40.1036 29.0387L40.1562 29.3342L40.166 29.3322Z" fill="white"/>
<path opacity="0.6" d="M34.8815 31.5041L35.3479 31.5119L39.991 28.5541L35.1079 31.0962L34.8815 31.5041Z" fill="#17C0EB" stroke="#17C0EB" stroke-width="0.01"/>
<path d="M39.307 28.9493L39.312 28.958L39.5668 28.7993L39.302 28.9407L39.307 28.9493Z" fill="white"/>
<path opacity="0.6" d="M35.6079 24.5951L35.7445 25.0411L39.9924 28.543L36.0657 24.6844L35.6079 24.5951Z" fill="#17C0EB" stroke="#17C0EB" stroke-width="0.01"/>
<path d="M39.4051 28.0141L39.3984 28.0215L39.6281 28.2148L39.4118 28.0066L39.4051 28.0141Z" fill="white"/>
<path opacity="0.6" d="M43.1313 23.5373L42.7158 23.7494L40.0047 28.5408L43.1228 24.0037L43.1313 23.5373Z" fill="#17C0EB" stroke="#17C0EB" stroke-width="0.01"/>
<path d="M40.4235 27.8705L40.415 27.8652L40.2645 28.1249L40.432 27.8758L40.4235 27.8705Z" fill="white"/>
<path opacity="0.6" d="M45.7339 29.979L45.4039 29.6493L40.0092 28.5516L45.2878 30.1151L45.7339 29.979Z" fill="#17C0EB" stroke="#17C0EB" stroke-width="0.01"/>
<path d="M40.7759 28.7431L40.7783 28.7334L40.4848 28.6705L40.7735 28.7528L40.7759 28.7431Z" fill="white"/>
<path opacity="0.6" d="M40.412 34.4445L40.6235 34.0287L40.0004 28.5588L40.1446 34.0622L40.412 34.4445Z" fill="#17C0EB" stroke="#17C0EB" stroke-width="0.01"/>
<path d="M40.0555 29.3474L40.0654 29.3467L40.0345 29.0481L40.0455 29.3481L40.0555 29.3474Z" fill="white"/>
<path opacity="0.6" d="M34.52 30.7628L34.9807 30.8355L39.9903 28.5526L34.8009 30.3905L34.52 30.7628Z" fill="#17C0EB" stroke="#17C0EB" stroke-width="0.01"/>
<path d="M39.258 28.8481L39.2617 28.8574L39.5361 28.7358L39.2542 28.8389L39.258 28.8481Z" fill="white"/>
<path opacity="0.6" d="M36.2005 24.0225L36.2737 24.4832L39.9929 28.5422L36.6414 24.1746L36.2005 24.0225Z" fill="#17C0EB" stroke="#17C0EB" stroke-width="0.01"/>
<path d="M39.4852 27.9369L39.4775 27.9434L39.678 28.1667L39.4929 27.9305L39.4852 27.9369Z" fill="white"/>
<path opacity="0.6" d="M43.7986 24.0224L43.3576 24.1746L40.0061 28.5421L43.7253 24.4831L43.7986 24.0224Z" fill="#17C0EB" stroke="#17C0EB" stroke-width="0.01"/>
<path d="M40.514 27.9371L40.5063 27.9307L40.3212 28.1669L40.5217 27.9435L40.514 27.9371Z" fill="white"/>
<path opacity="0.6" d="M45.4794 30.7635L45.1985 30.3912L40.009 28.5534L45.0187 30.8362L45.4794 30.7635Z" fill="#17C0EB" stroke="#17C0EB" stroke-width="0.01"/>
<path d="M40.7414 28.8491L40.7451 28.8398L40.4632 28.7367L40.7376 28.8584L40.7414 28.8491Z" fill="white"/>
<path opacity="0.6" d="M39.5872 34.4452L39.8546 34.0629L39.9988 28.5595L39.3757 34.0294L39.5872 34.4452Z" fill="#17C0EB" stroke="#17C0EB" stroke-width="0.01"/>
<path d="M39.9436 29.3479L39.9536 29.3486L39.9646 29.0487L39.9337 29.3472L39.9436 29.3479Z" fill="white"/>
<path opacity="0.6" d="M34.2652 29.979L34.7114 30.1151L39.9899 28.5517L34.5952 29.6494L34.2652 29.979Z" fill="#17C0EB" stroke="#17C0EB" stroke-width="0.01"/>
<path d="M39.2232 28.7432L39.2256 28.7529L39.5143 28.6706L39.2207 28.7335L39.2232 28.7432Z" fill="white"/>
<path opacity="0.6" d="M36.8681 23.5369L36.8765 24.0033L39.9946 28.5404L37.2836 23.7489L36.8681 23.5369Z" fill="#17C0EB" stroke="#17C0EB" stroke-width="0.01"/>
<path d="M39.5759 27.8707L39.5674 27.876L39.7348 28.1251L39.5843 27.8654L39.5759 27.8707Z" fill="white"/>
<path opacity="0.6" d="M44.3915 24.5944L43.9337 24.6837L40.007 28.5422L44.2549 25.0404L44.3915 24.5944Z" fill="#17C0EB" stroke="#17C0EB" stroke-width="0.01"/>
<path d="M40.5941 28.0133L40.5874 28.0059L40.3712 28.214L40.6008 28.0207L40.5941 28.0133Z" fill="white"/>
<path opacity="0.6" d="M45.1178 31.5037L44.8914 31.0959L40.0082 28.5537L44.6514 31.5116L45.1178 31.5037Z" fill="#17C0EB" stroke="#17C0EB" stroke-width="0.01"/>
<path d="M40.6923 28.9491L40.6973 28.9404L40.4325 28.7991L40.6873 28.9578L40.6923 28.9491Z" fill="white"/>
<path opacity="0.6" d="M38.7711 34.33L39.089 33.9886L39.9978 28.5589L38.6195 33.8888L38.7711 34.33Z" fill="#17C0EB" stroke="#17C0EB" stroke-width="0.01"/>
<path d="M39.8335 29.3319L39.8433 29.334L39.8959 29.0385L39.8237 29.3298L39.8335 29.3319Z" fill="white"/>
<path opacity="0.6" d="M34.1219 29.1666L34.5448 29.3635L39.9896 28.5499L34.4946 28.8861L34.1219 29.1666Z" fill="#17C0EB" stroke="#17C0EB" stroke-width="0.01"/>
<path d="M39.204 28.6326L39.2051 28.6426L39.5024 28.6013L39.203 28.6227L39.204 28.6326Z" fill="white"/>
<path opacity="0.6" d="M37.5957 23.1504L37.5392 23.6135L39.9955 28.5403L37.9777 23.4182L37.5957 23.1504Z" fill="#17C0EB" stroke="#17C0EB" stroke-width="0.01"/>
<path d="M39.6742 27.8182L39.665 27.8223L39.7962 28.0923L39.6833 27.8141L39.6742 27.8182Z" fill="white"/>
<path opacity="0.6" d="M44.8993 25.2449L44.4335 25.2696L40.008 28.5441L44.7019 25.6675L44.8993 25.2449Z" fill="#17C0EB" stroke="#17C0EB" stroke-width="0.01"/>
<path d="M40.6628 28.102L40.6572 28.0938L40.4141 28.2698L40.6684 28.1103L40.6628 28.102Z" fill="white"/>
<path opacity="0.6" d="M44.6569 32.1881L44.4895 31.7528L40.0077 28.5557L44.194 32.131L44.6569 32.1881Z" fill="#17C0EB" stroke="#17C0EB" stroke-width="0.01"/>
<path d="M40.6301 29.0421L40.6362 29.0342L40.3937 28.8574L40.6239 29.0499L40.6301 29.0421Z" fill="white"/>
<path opacity="0.6" d="M37.9786 34.1035L38.3409 33.8097L39.9965 28.5593L37.8899 33.6455L37.9786 34.1035Z" fill="#17C0EB" stroke="#17C0EB" stroke-width="0.01"/>
<path d="M39.7264 29.3013L39.7358 29.3047L39.829 29.0194L39.717 29.2978L39.7264 29.3013Z" fill="white"/>
<path opacity="0.6" d="M34.0933 28.3432L34.4847 28.597L39.9897 28.5491L34.5015 28.1173L34.0933 28.3432Z" fill="#17C0EB" stroke="#17C0EB" stroke-width="0.01"/>
<path d="M39.2001 28.5213L39.1997 28.5312L39.4999 28.5317L39.2004 28.5113L39.2001 28.5213Z" fill="white"/>
<path opacity="0.6" d="M38.3708 22.8684L38.2504 23.3191L39.9971 28.5399L38.7118 23.1868L38.3708 22.8684Z" fill="#17C0EB" stroke="#17C0EB" stroke-width="0.01"/>
<path d="M39.7791 27.7804L39.7695 27.7832L39.8618 28.0688L39.7888 27.7777L39.7791 27.7804Z" fill="white"/>
<path opacity="0.6" d="M45.3113 25.9589L44.8465 25.9185L40.0084 28.5453L45.057 26.3499L45.3113 25.9589Z" fill="#17C0EB" stroke="#17C0EB" stroke-width="0.01"/>
<path d="M40.7183 28.1994L40.7139 28.1904L40.4486 28.3309L40.7226 28.2084L40.7183 28.1994Z" fill="white"/>
<path opacity="0.6" d="M44.1052 32.8005L44 32.3461L40.0067 28.5564L43.6547 32.6795L44.1052 32.8005Z" fill="#17C0EB" stroke="#17C0EB" stroke-width="0.01"/>
<path d="M40.5553 29.1251L40.5625 29.1182L40.3469 28.9093L40.5481 29.1321L40.5553 29.1251Z" fill="white"/>
<path opacity="0.6" d="M37.2251 33.7672L37.6248 33.5267L39.995 28.5578L37.201 33.3014L37.2251 33.7672Z" fill="#17C0EB" stroke="#17C0EB" stroke-width="0.01"/>
<path d="M39.624 29.2551L39.6328 29.2598L39.7648 28.9902L39.6152 29.2504L39.624 29.2551Z" fill="white"/>
<path opacity="0.6" d="M34.1794 27.5224L34.5316 27.8282L39.9897 28.547L34.615 27.3555L34.1794 27.5224Z" fill="#17C0EB" stroke="#17C0EB" stroke-width="0.01"/>
<path d="M39.2117 28.4101L39.21 28.4199L39.5071 28.4622L39.2134 28.4002L39.2117 28.4101Z" fill="white"/>
<path opacity="0.6" d="M39.1771 22.6971L38.9951 23.1266L39.9982 28.5396L39.4704 23.0598L39.1771 22.6971Z" fill="#17C0EB" stroke="#17C0EB" stroke-width="0.01"/>
<path d="M39.8883 27.7574L39.8784 27.7588L39.9301 28.0545L39.8982 27.756L39.8883 27.7574Z" fill="white"/>
<path d="M39.9996 26.5791C38.9343 26.5779 37.9045 26.9614 37.0996 27.6591L35.6396 30.1991C35.5873 30.4727 35.5605 30.7506 35.5596 31.0291H36.0596C36.1105 30.0198 36.5473 29.0686 37.2796 28.3722C38.012 27.6759 38.984 27.2875 39.9946 27.2875C41.0052 27.2875 41.9771 27.6759 42.7095 28.3722C43.4419 29.0686 43.8787 30.0198 43.9296 31.0291H44.4296C44.4319 30.7509 44.4085 30.473 44.3596 30.1991L42.8996 27.6591C42.0942 26.9622 41.0646 26.5788 39.9996 26.5791Z" fill="#FF0000"/>
<path d="M39.9996 26.669C38.8695 26.6666 37.7828 27.1041 36.9697 27.889L35.7697 29.979C35.6847 30.3191 35.641 30.6683 35.6396 31.019H36.0697C36.1406 30.0251 36.5855 29.095 37.3147 28.416C38.0439 27.737 39.0033 27.3595 39.9996 27.3595C40.996 27.3595 41.9554 27.737 42.6846 28.416C43.4138 29.095 43.8587 30.0251 43.9296 31.019H44.3596C44.3588 30.665 44.3152 30.3124 44.2296 29.969L43.0296 27.889C42.2165 27.1041 41.1298 26.6666 39.9996 26.669Z" fill="#FF6600"/>
<path d="M39.9999 26.749C39.3957 26.7474 38.798 26.8741 38.2464 27.1206C37.6948 27.3671 37.2017 27.7278 36.7999 28.179L35.9299 29.679C35.7913 30.1154 35.7237 30.5712 35.7299 31.029H36.0599C36.1108 30.0197 36.5476 29.0685 37.2799 28.3722C38.0123 27.6758 38.9843 27.2875 39.9949 27.2875C41.0055 27.2875 41.9774 27.6758 42.7098 28.3722C43.4422 29.0685 43.879 30.0197 43.9299 31.029H44.2799C44.2799 30.559 44.1999 30.109 44.0699 29.689L43.1899 28.179C42.7896 27.7286 42.2982 27.3682 41.7483 27.1217C41.1984 26.8752 40.6025 26.7482 39.9999 26.749Z" fill="#FFFF00"/>
<path d="M39.9998 26.8293C39.3101 26.829 38.6309 26.9985 38.0222 27.3229C37.4135 27.6473 36.8941 28.1166 36.5098 28.6893L36.2298 29.1793C35.9464 29.7548 35.7993 30.3878 35.7998 31.0293H36.0698C36.1408 30.0355 36.5856 29.1054 37.3148 28.4264C38.044 27.7474 39.0034 27.3699 39.9998 27.3699C40.9962 27.3699 41.9556 27.7474 42.6848 28.4264C43.414 29.1054 43.8589 30.0355 43.9298 31.0293H44.1998C44.2003 30.3878 44.0532 29.7548 43.7698 29.1793L43.4898 28.6793C43.1055 28.1066 42.5861 27.6373 41.9774 27.3129C41.3687 26.9885 40.6895 26.819 39.9998 26.8193V26.8293Z" fill="#00FF00"/>
<path d="M39.9999 26.8994C39.458 26.8994 38.9214 27.0063 38.4209 27.214C37.9204 27.4217 37.4658 27.726 37.0831 28.1097C36.7004 28.4933 36.3971 28.9487 36.1906 29.4497C35.9842 29.9507 35.8786 30.4875 35.8799 31.0294H36.0699C36.1408 30.0356 36.5857 29.1055 37.3149 28.4265C38.0441 27.7475 39.0035 27.3699 39.9999 27.3699C40.9963 27.3699 41.9557 27.7475 42.6849 28.4265C43.4141 29.1055 43.8589 30.0356 43.9299 31.0294H44.1199C44.1212 30.4875 44.0156 29.9507 43.8092 29.4497C43.6027 28.9487 43.2994 28.4933 42.9167 28.1097C42.534 27.726 42.0794 27.4217 41.5789 27.214C41.0783 27.0063 40.5418 26.8994 39.9999 26.8994Z" fill="#00CCFF"/>
<path d="M40 26.9795C38.9285 26.9795 37.9009 27.4051 37.1432 28.1628C36.3856 28.9204 35.96 29.948 35.96 31.0195H36.1C36.1 29.9852 36.5109 28.9932 37.2422 28.2618C37.9736 27.5304 38.9656 27.1195 40 27.1195C41.0343 27.1195 42.0263 27.5304 42.7577 28.2618C43.4891 28.9932 43.9 29.9852 43.9 31.0195H44.04C44.0347 29.9515 43.6067 28.929 42.8496 28.1757C42.0926 27.4224 41.068 26.9995 40 26.9995V26.9795Z" fill="#0000FF"/>
<path d="M39.9997 27.0696C39.4737 27.0695 38.953 27.1742 38.4679 27.3776C37.9828 27.5809 37.5431 27.8789 37.1745 28.2541C36.8058 28.6292 36.5156 29.0741 36.3208 29.5626C36.1259 30.0512 36.0304 30.5737 36.0397 31.0996H36.1197V31.0196C36.1303 29.9905 36.5492 29.0079 37.2844 28.2877C38.0195 27.5676 39.0106 27.169 40.0397 27.1796C41.0687 27.1902 42.0514 27.6091 42.7715 28.3443C43.4917 29.0794 43.8903 30.0705 43.8797 31.0996H43.9597V31.0196C43.9597 30.4995 43.8573 29.9846 43.6582 29.5041C43.4592 29.0237 43.1675 28.5871 42.7998 28.2194C42.4321 27.8517 41.9956 27.56 41.5151 27.361C41.0347 27.162 40.5197 27.0596 39.9997 27.0596V27.0696Z" fill="#800080"/>
<path d="M40.0398 28.809C39.9698 28.809 39.9198 28.759 39.8598 28.749C39.8306 28.7747 39.8087 28.8077 39.7964 28.8446C39.7842 28.8815 39.7818 28.921 39.7898 28.959C39.8198 28.969 39.8198 28.999 39.8798 29.049C39.9398 29.099 39.9298 29.119 39.9198 29.249C39.9198 29.289 39.9298 29.399 39.9798 29.409C40.0298 29.419 40.0798 29.379 40.0898 29.289C40.0998 29.219 40.1298 29.169 40.1598 29.129C40.1898 28.939 40.1398 28.869 40.0398 28.809Z" fill="#510000"/>
<path d="M39.7199 28.3492C39.6599 28.3492 39.5599 28.4492 39.5199 28.3992C39.4999 28.3692 39.4899 28.3092 39.5199 28.2592C39.565 28.1597 39.6426 28.0786 39.7399 28.0292C39.9699 27.8892 40.1299 27.9292 40.2399 28.1292C40.3499 28.3092 40.4599 28.5092 40.4699 28.6692C40.4699 28.7192 40.4999 28.8092 40.4499 28.8592C40.3199 28.9992 39.9899 28.7092 39.7999 28.7592C39.7399 28.7692 39.6599 28.8192 39.5999 28.7792C39.5599 28.7492 39.5999 28.6792 39.6299 28.6492C39.6899 28.5992 39.7799 28.4092 39.7699 28.3292C39.7699 28.2892 39.7699 28.3492 39.7199 28.3492Z" fill="#FF0000"/>
<path d="M39.6996 28.2589C39.5796 28.2989 39.5996 28.3589 39.5396 28.4089C39.5596 28.4189 39.6196 28.4389 39.6796 28.3789C39.6996 28.3589 39.7296 28.3489 39.7496 28.3489L39.6796 28.4189C39.6202 28.4678 39.5724 28.5293 39.5396 28.5989C39.5096 28.6789 39.4996 28.7689 39.5096 28.7789C39.5096 28.7789 39.5496 28.8589 39.6596 28.8989C39.8596 28.9789 39.8996 29.1489 40.1096 29.1489C40.2696 29.1489 40.2496 29.0389 40.3796 29.0589C40.4796 29.0789 40.5496 28.9889 40.4396 28.9389C40.2613 28.9039 40.0779 28.9039 39.8996 28.9389C39.8596 28.5389 39.8996 28.6789 39.8896 28.4989C39.8796 28.3289 39.8196 28.3189 39.8896 28.1689C39.8396 28.2689 39.7696 28.2489 39.6896 28.2489L39.6996 28.2589Z" fill="url(#paint0_linear_3734_60758)"/>
<path d="M40.0998 27.9795L40.0898 28.0395L40.1198 28.1395L40.1398 28.2395C40.1398 28.2695 40.1798 28.2795 40.2098 28.2995C40.2498 28.3295 40.2098 28.3995 40.2398 28.4095C40.2598 28.4095 40.2898 28.3095 40.2898 28.2895V28.2195C40.2742 28.1889 40.2575 28.1589 40.2398 28.1295C40.2337 28.1192 40.227 28.1092 40.2198 28.0995C40.1976 28.0658 40.1707 28.0355 40.1398 28.0095C40.1301 28.0024 40.1201 27.9957 40.1098 27.9895L40.0898 27.9795H40.0998Z" fill="#FF2A2A"/>
<path d="M40.1298 28.739L39.9298 28.669C39.7998 28.629 39.6698 28.549 39.5798 28.589C39.5498 28.599 39.5498 28.629 39.5398 28.679C39.5398 28.729 39.4898 28.809 39.5398 28.779C39.5998 28.739 39.7798 28.859 39.8398 28.889C39.8698 28.909 39.9398 28.949 39.9498 28.989C39.9698 29.049 39.9498 29.169 39.9498 29.229C39.9498 29.279 39.9698 29.409 40.0198 29.429C40.0798 29.439 40.1298 29.389 40.1498 29.299C40.1798 29.209 40.1898 29.159 40.2298 29.109C40.2698 29.059 40.3098 29.029 40.3598 29.019C40.4198 29.019 40.4998 29.069 40.4998 28.999C40.4998 28.959 40.4598 28.919 40.4798 28.859C40.4898 28.809 40.4398 28.819 40.3898 28.799L40.1198 28.739H40.1298Z" fill="url(#paint1_linear_3734_60758)"/>
<path d="M39.8395 28.8894C39.7995 28.8694 39.6095 28.7394 39.5395 28.7894C39.5095 28.7894 39.4995 28.7894 39.4995 28.7594L39.5195 28.6694C39.5195 28.6394 39.5395 28.5894 39.5695 28.5694C39.6395 28.5094 39.7995 28.6194 39.8795 28.6494L39.8395 28.8894Z" fill="#910000"/>
<path d="M40.1798 29.1397C40.2698 28.9797 40.3298 28.9997 40.4398 28.9997C40.4798 28.9997 40.4898 28.9697 40.4798 28.9297C40.4498 28.9897 40.3098 28.9297 40.2298 28.9597C40.0798 29.0297 40.1098 29.3297 40.0298 29.3597C40.1098 29.4297 40.1398 29.1897 40.1798 29.1397Z" fill="#FF3A3A"/>
<path d="M35.3096 30.7588L34.3096 32.4888H45.6996L44.6996 30.7688H35.3196L35.3096 30.7588Z" fill="white"/>
<path d="M34.9697 32.139C34.8126 32.1387 34.6556 32.1487 34.4997 32.169L34.4497 32.259C34.6897 32.229 34.9197 32.189 35.1697 32.189C35.4897 32.189 35.7897 32.269 36.1397 32.269H36.5997C36.9497 32.269 37.2397 32.189 37.5697 32.189C37.8997 32.189 38.1997 32.269 38.5497 32.269H39.0097C39.3597 32.269 39.6497 32.189 39.9797 32.189C40.3097 32.189 40.6097 32.269 40.9597 32.269H41.4097C41.7597 32.269 42.0597 32.189 42.3897 32.189C42.7197 32.189 43.0197 32.269 43.3697 32.269H43.8197C44.1697 32.269 44.4697 32.189 44.7997 32.189C45.0597 32.189 45.2997 32.239 45.5497 32.259L45.4997 32.159C45.3536 32.1438 45.2066 32.1371 45.0597 32.139H44.6097C44.2597 32.139 43.9597 32.209 43.6297 32.219C43.2997 32.219 42.9997 32.139 42.6497 32.139H42.1997C41.8497 32.139 41.5497 32.209 41.2197 32.219C40.8897 32.219 40.5897 32.139 40.2397 32.139H39.7997C39.4497 32.139 39.1497 32.209 38.8197 32.219C38.4897 32.219 38.1897 32.139 37.8397 32.139H37.3897C37.0397 32.139 36.7397 32.209 36.4097 32.219C36.0797 32.219 35.7897 32.139 35.4397 32.139H34.9797H34.9697Z" fill="url(#paint2_linear_3734_60758)"/>
<path d="M34.9697 32.139C34.8126 32.1387 34.6556 32.1487 34.4997 32.169L34.4497 32.259C34.6897 32.229 34.9197 32.189 35.1697 32.189C35.4897 32.189 35.7897 32.269 36.1397 32.269H36.5997C36.9497 32.269 37.2397 32.189 37.5697 32.189C37.8997 32.189 38.1997 32.269 38.5497 32.269H39.0097C39.3597 32.269 39.6497 32.189 39.9797 32.189C40.3097 32.189 40.6097 32.269 40.9597 32.269H41.4097C41.7597 32.269 42.0597 32.189 42.3897 32.189C42.7197 32.189 43.0197 32.269 43.3697 32.269H43.8197C44.1697 32.269 44.4697 32.189 44.7997 32.189C45.0597 32.189 45.2997 32.239 45.5497 32.259L45.4997 32.159C45.3536 32.1438 45.2066 32.1371 45.0597 32.139H44.6097C44.2597 32.139 43.9597 32.209 43.6297 32.219C43.2997 32.219 42.9997 32.139 42.6497 32.139H42.1997C41.8497 32.139 41.5497 32.209 41.2197 32.219C40.8897 32.219 40.5897 32.139 40.2397 32.139H39.7997C39.4497 32.139 39.1497 32.209 38.8197 32.219C38.4897 32.219 38.1897 32.139 37.8397 32.139H37.3897C37.0397 32.139 36.7397 32.209 36.4097 32.219C36.0797 32.219 35.7897 32.139 35.4397 32.139H34.9797H34.9697Z" fill="url(#paint3_linear_3734_60758)"/>
<path d="M34.9697 32.139C34.8126 32.1387 34.6556 32.1487 34.4997 32.169L34.4497 32.259C34.6897 32.229 34.9197 32.189 35.1697 32.189C35.4897 32.189 35.7897 32.269 36.1397 32.269H36.5997C36.9497 32.269 37.2397 32.189 37.5697 32.189C37.8997 32.189 38.1997 32.269 38.5497 32.269H39.0097C39.3597 32.269 39.6497 32.189 39.9797 32.189C40.3097 32.189 40.6097 32.269 40.9597 32.269H41.4097C41.7597 32.269 42.0597 32.189 42.3897 32.189C42.7197 32.189 43.0197 32.269 43.3697 32.269H43.8197C44.1697 32.269 44.4697 32.189 44.7997 32.189C45.0597 32.189 45.2997 32.239 45.5497 32.259L45.4997 32.159C45.3536 32.1438 45.2066 32.1371 45.0597 32.139H44.6097C44.2597 32.139 43.9597 32.209 43.6297 32.219C43.2997 32.219 42.9997 32.139 42.6497 32.139H42.1997C41.8497 32.139 41.5497 32.209 41.2197 32.219C40.8897 32.219 40.5897 32.139 40.2397 32.139H39.7997C39.4497 32.139 39.1497 32.209 38.8197 32.219C38.4897 32.219 38.1897 32.139 37.8397 32.139H37.3897C37.0397 32.139 36.7397 32.209 36.4097 32.219C36.0797 32.219 35.7897 32.139 35.4397 32.139H34.9797H34.9697Z" fill="url(#paint4_linear_3734_60758)"/>
<path d="M34.9697 32.139C34.8126 32.1387 34.6556 32.1487 34.4997 32.169L34.4497 32.259C34.6897 32.229 34.9197 32.189 35.1697 32.189C35.4897 32.189 35.7897 32.269 36.1397 32.269H36.5997C36.9497 32.269 37.2397 32.189 37.5697 32.189C37.8997 32.189 38.1997 32.269 38.5497 32.269H39.0097C39.3597 32.269 39.6497 32.189 39.9797 32.189C40.3097 32.189 40.6097 32.269 40.9597 32.269H41.4097C41.7597 32.269 42.0597 32.189 42.3897 32.189C42.7197 32.189 43.0197 32.269 43.3697 32.269H43.8197C44.1697 32.269 44.4697 32.189 44.7997 32.189C45.0597 32.189 45.2997 32.239 45.5497 32.259L45.4997 32.159C45.3536 32.1438 45.2066 32.1371 45.0597 32.139H44.6097C44.2597 32.139 43.9597 32.209 43.6297 32.219C43.2997 32.219 42.9997 32.139 42.6497 32.139H42.1997C41.8497 32.139 41.5497 32.209 41.2197 32.219C40.8897 32.219 40.5897 32.139 40.2397 32.139H39.7997C39.4497 32.139 39.1497 32.209 38.8197 32.219C38.4897 32.219 38.1897 32.139 37.8397 32.139H37.3897C37.0397 32.139 36.7397 32.209 36.4097 32.219C36.0797 32.219 35.7897 32.139 35.4397 32.139H34.9797H34.9697Z" fill="url(#paint5_linear_3734_60758)"/>
<path d="M34.9697 32.139C34.8126 32.1387 34.6556 32.1487 34.4997 32.169L34.4497 32.259C34.6897 32.229 34.9197 32.189 35.1697 32.189C35.4897 32.189 35.7897 32.269 36.1397 32.269H36.5997C36.9497 32.269 37.2397 32.189 37.5697 32.189C37.8997 32.189 38.1997 32.269 38.5497 32.269H39.0097C39.3597 32.269 39.6497 32.189 39.9797 32.189C40.3097 32.189 40.6097 32.269 40.9597 32.269H41.4097C41.7597 32.269 42.0597 32.189 42.3897 32.189C42.7197 32.189 43.0197 32.269 43.3697 32.269H43.8197C44.1697 32.269 44.4697 32.189 44.7997 32.189C45.0597 32.189 45.2997 32.239 45.5497 32.259L45.4997 32.159C45.3536 32.1438 45.2066 32.1371 45.0597 32.139H44.6097C44.2597 32.139 43.9597 32.209 43.6297 32.219C43.2997 32.219 42.9997 32.139 42.6497 32.139H42.1997C41.8497 32.139 41.5497 32.209 41.2197 32.219C40.8897 32.219 40.5897 32.139 40.2397 32.139H39.7997C39.4497 32.139 39.1497 32.209 38.8197 32.219C38.4897 32.219 38.1897 32.139 37.8397 32.139H37.3897C37.0397 32.139 36.7397 32.209 36.4097 32.219C36.0797 32.219 35.7897 32.139 35.4397 32.139H34.9797H34.9697Z" fill="url(#paint6_linear_3734_60758)"/>
<path d="M34.9697 32.139C34.8126 32.1387 34.6556 32.1487 34.4997 32.169L34.4497 32.259C34.6897 32.229 34.9197 32.189 35.1697 32.189C35.4897 32.189 35.7897 32.269 36.1397 32.269H36.5997C36.9497 32.269 37.2397 32.189 37.5697 32.189C37.8997 32.189 38.1997 32.269 38.5497 32.269H39.0097C39.3597 32.269 39.6497 32.189 39.9797 32.189C40.3097 32.189 40.6097 32.269 40.9597 32.269H41.4097C41.7597 32.269 42.0597 32.189 42.3897 32.189C42.7197 32.189 43.0197 32.269 43.3697 32.269H43.8197C44.1697 32.269 44.4697 32.189 44.7997 32.189C45.0597 32.189 45.2997 32.239 45.5497 32.259L45.4997 32.159C45.3536 32.1438 45.2066 32.1371 45.0597 32.139H44.6097C44.2597 32.139 43.9597 32.209 43.6297 32.219C43.2997 32.219 42.9997 32.139 42.6497 32.139H42.1997C41.8497 32.139 41.5497 32.209 41.2197 32.219C40.8897 32.219 40.5897 32.139 40.2397 32.139H39.7997C39.4497 32.139 39.1497 32.209 38.8197 32.219C38.4897 32.219 38.1897 32.139 37.8397 32.139H37.3897C37.0397 32.139 36.7397 32.209 36.4097 32.219C36.0797 32.219 35.7897 32.139 35.4397 32.139H34.9797H34.9697Z" fill="url(#paint7_linear_3734_60758)"/>
<path d="M34.9697 32.139C34.8126 32.1387 34.6556 32.1487 34.4997 32.169L34.4497 32.259C34.6897 32.229 34.9197 32.189 35.1697 32.189C35.4897 32.189 35.7897 32.269 36.1397 32.269H36.5997C36.9497 32.269 37.2397 32.189 37.5697 32.189C37.8997 32.189 38.1997 32.269 38.5497 32.269H39.0097C39.3597 32.269 39.6497 32.189 39.9797 32.189C40.3097 32.189 40.6097 32.269 40.9597 32.269H41.4097C41.7597 32.269 42.0597 32.189 42.3897 32.189C42.7197 32.189 43.0197 32.269 43.3697 32.269H43.8197C44.1697 32.269 44.4697 32.189 44.7997 32.189C45.0597 32.189 45.2997 32.239 45.5497 32.259L45.4997 32.159C45.3536 32.1438 45.2066 32.1371 45.0597 32.139H44.6097C44.2597 32.139 43.9597 32.209 43.6297 32.219C43.2997 32.219 42.9997 32.139 42.6497 32.139H42.1997C41.8497 32.139 41.5497 32.209 41.2197 32.219C40.8897 32.219 40.5897 32.139 40.2397 32.139H39.7997C39.4497 32.139 39.1497 32.209 38.8197 32.219C38.4897 32.219 38.1897 32.139 37.8397 32.139H37.3897C37.0397 32.139 36.7397 32.209 36.4097 32.219C36.0797 32.219 35.7897 32.139 35.4397 32.139H34.9797H34.9697Z" fill="url(#paint8_linear_3734_60758)"/>
<path d="M34.9697 32.139C34.8126 32.1387 34.6556 32.1487 34.4997 32.169L34.4497 32.259C34.6897 32.229 34.9197 32.189 35.1697 32.189C35.4897 32.189 35.7897 32.269 36.1397 32.269H36.5997C36.9497 32.269 37.2397 32.189 37.5697 32.189C37.8997 32.189 38.1997 32.269 38.5497 32.269H39.0097C39.3597 32.269 39.6497 32.189 39.9797 32.189C40.3097 32.189 40.6097 32.269 40.9597 32.269H41.4097C41.7597 32.269 42.0597 32.189 42.3897 32.189C42.7197 32.189 43.0197 32.269 43.3697 32.269H43.8197C44.1697 32.269 44.4697 32.189 44.7997 32.189C45.0597 32.189 45.2997 32.239 45.5497 32.259L45.4997 32.159C45.3536 32.1438 45.2066 32.1371 45.0597 32.139H44.6097C44.2597 32.139 43.9597 32.209 43.6297 32.219C43.2997 32.219 42.9997 32.139 42.6497 32.139H42.1997C41.8497 32.139 41.5497 32.209 41.2197 32.219C40.8897 32.219 40.5897 32.139 40.2397 32.139H39.7997C39.4497 32.139 39.1497 32.209 38.8197 32.219C38.4897 32.219 38.1897 32.139 37.8397 32.139H37.3897C37.0397 32.139 36.7397 32.209 36.4097 32.219C36.0797 32.219 35.7897 32.139 35.4397 32.139H34.9797H34.9697Z" fill="url(#paint9_linear_3734_60758)"/>
<path d="M34.9697 32.139C34.8126 32.1387 34.6556 32.1487 34.4997 32.169L34.4497 32.259C34.6897 32.229 34.9197 32.189 35.1697 32.189C35.4897 32.189 35.7897 32.269 36.1397 32.269H36.5997C36.9497 32.269 37.2397 32.189 37.5697 32.189C37.8997 32.189 38.1997 32.269 38.5497 32.269H39.0097C39.3597 32.269 39.6497 32.189 39.9797 32.189C40.3097 32.189 40.6097 32.269 40.9597 32.269H41.4097C41.7597 32.269 42.0597 32.189 42.3897 32.189C42.7197 32.189 43.0197 32.269 43.3697 32.269H43.8197C44.1697 32.269 44.4697 32.189 44.7997 32.189C45.0597 32.189 45.2997 32.239 45.5497 32.259L45.4997 32.159C45.3536 32.1438 45.2066 32.1371 45.0597 32.139H44.6097C44.2597 32.139 43.9597 32.209 43.6297 32.219C43.2997 32.219 42.9997 32.139 42.6497 32.139H42.1997C41.8497 32.139 41.5497 32.209 41.2197 32.219C40.8897 32.219 40.5897 32.139 40.2397 32.139H39.7997C39.4497 32.139 39.1497 32.209 38.8197 32.219C38.4897 32.219 38.1897 32.139 37.8397 32.139H37.3897C37.0397 32.139 36.7397 32.209 36.4097 32.219C36.0797 32.219 35.7897 32.139 35.4397 32.139H34.9797H34.9697Z" fill="url(#paint10_linear_3734_60758)"/>
<path d="M35.3196 30.749V30.769H44.6896L44.6796 30.749H35.3196ZM35.2996 30.779L35.2896 30.809H44.6996L44.6896 30.779H35.2896H35.2996ZM35.2796 30.819L35.2596 30.849H44.7396L44.7196 30.819H35.2796ZM35.2496 30.869L35.2196 30.919H44.7796L44.7496 30.869H35.2496ZM35.2096 30.939L35.1796 30.989H44.8196L44.7896 30.939H35.2096ZM35.1696 31.009L35.1496 31.049H44.8496L44.8296 31.009H35.1696ZM35.1296 31.079L35.1096 31.119H44.8996L44.8696 31.079H35.1296ZM35.0896 31.149L35.0596 31.209H44.9396L44.9096 31.149H35.0996H35.0896Z" fill="url(#paint11_linear_3734_60758)"/>
<path d="M35.7397 31.2295C36.0797 31.2995 36.1097 31.2295 36.1097 31.2295H35.7397ZM43.8897 31.2295C43.8897 31.2295 43.9197 31.2995 44.2597 31.2295H43.8897Z" fill="url(#paint12_linear_3734_60758)"/>
<path d="M43.0598 29.6992C42.8898 29.6992 42.8398 29.7892 42.8398 29.7892C42.5698 30.8492 41.6598 31.9192 40.5798 31.9192H39.7798V32.9992H45.9198L45.2998 31.8992C44.3298 31.7592 43.5398 30.7692 43.2898 29.7892C43.2898 29.7892 43.2298 29.6992 43.0598 29.6992Z" fill="url(#paint13_linear_3734_60758)"/>
<path d="M43.0596 29.7488C42.9796 29.7488 42.9396 29.7587 42.9096 29.7787L42.8796 29.8088C42.7296 30.3624 42.4405 30.8685 42.0396 31.2787C41.6396 31.6887 41.1396 31.9688 40.5796 31.9688H39.8096V32.9588H45.8996L45.3296 31.9588C44.8596 31.8888 44.4296 31.6387 44.0896 31.2787C43.6887 30.8685 43.3995 30.3624 43.2496 29.8088L43.2196 29.7787C43.1704 29.7531 43.1147 29.7427 43.0596 29.7488Z" fill="#97C924"/>
<path d="M43.0596 29.749H43.0996V30.829C43.09 31.0562 43.0211 31.2769 42.8996 31.469C42.8496 31.629 42.7996 31.569 42.6696 31.759C42.5009 31.8172 42.3266 31.8574 42.1496 31.879C41.8996 31.919 41.3496 31.959 41.0596 31.889C41.4317 31.7752 41.7689 31.5687 42.0396 31.289C42.114 31.2095 42.1841 31.126 42.2496 31.039C42.361 30.9005 42.4613 30.7534 42.5496 30.599L42.6496 30.399C42.6974 30.3044 42.7408 30.2077 42.7796 30.109C42.8182 30.0109 42.8516 29.9107 42.8796 29.809L42.9096 29.779L42.9696 29.759L43.0696 29.749H43.0596Z" fill="#EDE71F"/>
<path d="M43 29.8896C42.95 30.4896 42.77 31.2097 42.33 31.6697C42.17 31.7997 41.96 31.9296 41.77 31.8996C42.44 31.3496 42.85 30.4996 42.99 29.8896H43Z" fill="#C6CB24"/>
<path d="M42.4498 30.9297C42.3498 31.1997 41.9698 31.5997 41.5698 31.9297H41.2798C41.5298 31.9097 42.1098 31.4297 42.4498 30.9297Z" fill="#9ECB34"/>
<path d="M43.0598 29.6992C42.8898 29.6992 42.8398 29.7892 42.8398 29.7892C42.5698 30.8492 41.6598 31.9192 40.5798 31.9192H39.7798V32.9992H45.9198L45.2998 31.8992C44.3298 31.7592 43.5398 30.7692 43.2898 29.7892C43.2898 29.7892 43.2298 29.6992 43.0598 29.6992Z" fill="url(#paint14_linear_3734_60758)"/>
<path d="M43.0596 29.7488C42.9796 29.7488 42.9396 29.7587 42.9096 29.7787L42.8796 29.8088C42.7296 30.3624 42.4405 30.8685 42.0396 31.2787C41.6396 31.6887 41.1396 31.9688 40.5796 31.9688H39.8096V32.9588H45.8996L45.3296 31.9588C44.8596 31.8888 44.4296 31.6387 44.0896 31.2787C43.6887 30.8685 43.3995 30.3624 43.2496 29.8088L43.2196 29.7787C43.1704 29.7531 43.1147 29.7427 43.0596 29.7488Z" fill="#97C924"/>
<path d="M43.0596 29.749H43.0996V30.829C43.09 31.0562 43.0211 31.2769 42.8996 31.469C42.8496 31.629 42.7996 31.569 42.6696 31.759C42.5009 31.8172 42.3266 31.8574 42.1496 31.879C41.8996 31.919 41.3496 31.959 41.0596 31.889C41.4317 31.7752 41.7689 31.5687 42.0396 31.289C42.114 31.2095 42.1841 31.126 42.2496 31.039C42.361 30.9005 42.4613 30.7534 42.5496 30.599L42.6496 30.399C42.6974 30.3044 42.7408 30.2077 42.7796 30.109C42.8182 30.0109 42.8516 29.9107 42.8796 29.809L42.9096 29.779L42.9696 29.759L43.0696 29.749H43.0596Z" fill="#EDE71F"/>
<path d="M43 29.8896C42.95 30.4896 42.77 31.2097 42.33 31.6697C42.17 31.7997 41.96 31.9296 41.77 31.8996C42.44 31.3496 42.85 30.4996 42.99 29.8896H43Z" fill="#C6CB24"/>
<path d="M42.4498 30.9297C42.3498 31.1997 41.9698 31.5997 41.5698 31.9297H41.2798C41.5298 31.9097 42.1098 31.4297 42.4498 30.9297Z" fill="#9ECB34"/>
<path d="M40.2195 29.799C40.4995 30.849 41.3995 31.919 42.4795 31.919H43.2895V32.999H36.7095V31.919H37.5095C38.5895 31.919 39.4995 30.849 39.7695 29.789C39.7695 29.789 39.8295 29.709 39.9995 29.709C40.1695 29.709 40.2195 29.789 40.2195 29.789V29.799Z" fill="url(#paint15_linear_3734_60758)"/>
<path d="M39.9995 29.7492C40.0795 29.7492 40.1195 29.7692 40.1495 29.7792L40.1795 29.8092C40.3294 30.3629 40.6186 30.869 41.0195 31.2792C41.4195 31.6892 41.9195 31.9692 42.4795 31.9692H43.2495V32.9592H36.7495V31.9592H37.5195C38.0695 31.9592 38.5795 31.6892 38.9795 31.2792C39.3768 30.8679 39.6625 30.3619 39.8095 29.8092L39.8395 29.7792C39.8891 29.7547 39.9444 29.7443 39.9995 29.7492Z" fill="#97C924"/>
<path d="M39.9295 29.7494C39.9195 29.7489 39.9095 29.7489 39.8995 29.7494L39.8395 29.7794L39.8095 29.8094C39.7817 29.9111 39.7483 30.0113 39.7095 30.1094C39.6743 30.2112 39.6342 30.3113 39.5895 30.4094C39.5582 30.4737 39.5248 30.5371 39.4895 30.5994C39.4013 30.7537 39.301 30.9009 39.1895 31.0394C39.1237 31.1229 39.0536 31.203 38.9795 31.2794C38.71 31.5627 38.3727 31.7726 37.9995 31.8894C38.2795 31.9594 38.3995 31.8894 38.6495 31.8494C38.8495 31.8194 39.0695 31.7894 39.2495 31.7294C39.3995 31.5294 39.3495 31.5994 39.3995 31.4394C39.5195 31.2194 39.6995 31.0194 39.7395 30.7694C39.8995 30.4694 39.9295 29.9094 39.9295 29.7494Z" fill="#EDE71F"/>
<path d="M39.9297 29.8887C39.8897 30.4887 39.6997 31.2087 39.2597 31.6687C39.0997 31.7987 38.8997 31.9287 38.6997 31.8987C39.3797 31.3487 39.7897 30.4987 39.9297 29.8887Z" fill="#C6CB24"/>
<path d="M39.3792 30.9287C39.1618 31.3219 38.8616 31.6631 38.4992 31.9287H38.2192C38.4692 31.9087 39.0392 31.4287 39.3792 30.9287Z" fill="#9ECB34"/>
<path d="M40.0993 29.7588L40.1493 29.7788L40.1893 29.8088C40.2178 29.9104 40.2511 30.0105 40.2893 30.1088C40.3245 30.2107 40.3646 30.3108 40.4093 30.4088L40.5093 30.5988C40.5975 30.7532 40.6979 30.9003 40.8093 31.0388C40.8751 31.1224 40.9452 31.2025 41.0193 31.2788C41.2871 31.5734 41.6238 31.7967 41.9993 31.9288C41.2693 31.9288 40.9593 31.8688 40.6993 31.5288C40.5103 31.3286 40.367 31.0898 40.2793 30.8288C40.2293 30.6288 40.0793 30.1788 40.0893 29.7588H40.0993Z" fill="#EDE71F"/>
<path d="M40.1494 29.8887C40.1894 30.4887 40.3694 31.0887 40.8094 31.5487C40.9694 31.6887 41.1694 31.8087 41.3694 31.7787C40.7412 31.323 40.306 30.6488 40.1494 29.8887Z" fill="#C6CB24"/>
<path d="M38.4796 29.6992C38.2996 29.6992 38.2496 29.7892 38.2496 29.7892C37.9996 30.7692 37.0696 32.0192 36.0996 32.1692L35.6196 32.9992H40.5196V31.8692C39.6396 31.6292 38.9296 30.6992 38.6996 29.7892C38.6996 29.7892 38.6496 29.7092 38.4696 29.7092L38.4796 29.6992Z" fill="url(#paint16_linear_3734_60758)"/>
<path d="M38.4794 29.7487C38.3994 29.7487 38.3494 29.7687 38.3194 29.7787L38.2894 29.8087C38.1212 30.3574 37.8459 30.8672 37.4794 31.3087C37.1394 31.7387 36.5094 32.1687 36.0794 32.2087L35.6494 32.9587H40.4494V31.8887C40.0884 31.7696 39.7621 31.5636 39.4994 31.2887C39.0971 30.8757 38.8078 30.366 38.6594 29.8087L38.6294 29.7787C38.583 29.7555 38.5312 29.7451 38.4794 29.7487Z" fill="#97C924"/>
<path d="M38.3398 29.8896C38.2798 30.7896 37.7798 31.9396 37.2098 32.1296C37.0198 32.1996 36.6998 32.2196 36.5898 32.2296C37.0308 31.9847 37.4153 31.6498 37.7185 31.2467C38.0217 30.8436 38.2368 30.3812 38.3498 29.8896H38.3398Z" fill="#93BC30"/>
<path d="M38.4797 29.7493H38.4297V30.8293C38.4297 31.0593 38.5197 31.2493 38.6297 31.4693L38.6497 31.5193C38.6997 31.6293 38.7297 31.6693 38.8797 31.7893C39.3091 32.0958 39.8344 32.2377 40.3597 32.1893C40.2497 32.0993 40.1297 32.0193 40.0197 31.9493L40.4697 31.8993C40.099 31.7782 39.7652 31.5649 39.4997 31.2793C39.4514 31.2309 39.4047 31.1809 39.3597 31.1293L39.2997 31.0493C39.1813 30.908 39.0743 30.7575 38.9797 30.5993C38.9442 30.5338 38.9108 30.4671 38.8797 30.3993C38.8183 30.2728 38.7649 30.1425 38.7197 30.0093C38.6975 29.9433 38.6775 29.8766 38.6597 29.8093L38.6297 29.7793C38.6108 29.7698 38.5905 29.7631 38.5697 29.7593C38.537 29.7513 38.5033 29.748 38.4697 29.7493H38.4797Z" fill="#EDE71F"/>
<path d="M38.5396 29.8896C38.5896 30.4896 38.7696 31.2097 39.2096 31.6697C39.3696 31.7997 39.5696 31.9296 39.7696 31.8996C39.1595 31.3747 38.7294 30.6717 38.5396 29.8896Z" fill="#CCD11E"/>
<path d="M38.9595 30.7287C39.2834 31.3623 39.7927 31.882 40.4195 32.2188H40.6695C40.2295 31.9787 39.5195 31.6388 38.9695 30.7188L38.9595 30.7287Z" fill="#9ECB34"/>
<path d="M38.4796 29.6992C38.2996 29.6992 38.2496 29.7892 38.2496 29.7892C37.9996 30.7692 37.0696 32.0192 36.0996 32.1692L35.6196 32.9992H40.5196V31.8692C39.6396 31.6292 38.9296 30.6992 38.6996 29.7892C38.6996 29.7892 38.6496 29.7092 38.4696 29.7092L38.4796 29.6992Z" fill="url(#paint17_linear_3734_60758)"/>
<path d="M38.4794 29.7487C38.3994 29.7487 38.3494 29.7687 38.3194 29.7787L38.2894 29.8087C38.1212 30.3574 37.8459 30.8672 37.4794 31.3087C37.1394 31.7387 36.5094 32.1687 36.0794 32.2087L35.6494 32.9587H40.4494V31.8887C40.0884 31.7696 39.7621 31.5636 39.4994 31.2887C39.0971 30.8757 38.8078 30.366 38.6594 29.8087L38.6294 29.7787C38.583 29.7555 38.5312 29.7451 38.4794 29.7487Z" fill="#97C924"/>
<path d="M38.3398 29.8896C38.2798 30.7896 37.7798 31.9396 37.2098 32.1296C37.0198 32.1996 36.6998 32.2196 36.5898 32.2296C37.0308 31.9847 37.4153 31.6498 37.7185 31.2467C38.0217 30.8436 38.2368 30.3812 38.3498 29.8896H38.3398Z" fill="#93BC30"/>
<path d="M38.4797 29.7493H38.4297V30.8293C38.4297 31.0593 38.5197 31.2493 38.6297 31.4693L38.6497 31.5193C38.6997 31.6293 38.7297 31.6693 38.8797 31.7893C39.3091 32.0958 39.8344 32.2377 40.3597 32.1893C40.2497 32.0993 40.1297 32.0193 40.0197 31.9493L40.4697 31.8993C40.099 31.7782 39.7652 31.5649 39.4997 31.2793C39.4514 31.2309 39.4047 31.1809 39.3597 31.1293L39.2997 31.0493C39.1813 30.908 39.0743 30.7575 38.9797 30.5993C38.9442 30.5338 38.9108 30.4671 38.8797 30.3993C38.8183 30.2728 38.7649 30.1425 38.7197 30.0093C38.6975 29.9433 38.6775 29.8766 38.6597 29.8093L38.6297 29.7793C38.6108 29.7698 38.5905 29.7631 38.5697 29.7593C38.537 29.7513 38.5033 29.748 38.4697 29.7493H38.4797Z" fill="#EDE71F"/>
<path d="M38.5396 29.8896C38.5896 30.4896 38.7696 31.2097 39.2096 31.6697C39.3696 31.7997 39.5696 31.9296 39.7696 31.8996C39.1595 31.3747 38.7294 30.6717 38.5396 29.8896Z" fill="#C6CB24"/>
<path d="M38.9595 30.7287C39.2834 31.3623 39.7927 31.882 40.4195 32.2188H40.6695C40.2295 31.9787 39.5195 31.6388 38.9695 30.7188L38.9595 30.7287Z" fill="#9ECB34"/>
<path d="M45.6499 32.4696C45.5899 32.4896 45.2099 32.4496 45.0099 32.4696L44.8799 32.4996H44.5499C44.1899 32.4996 43.8799 32.5996 43.5399 32.5996C43.1999 32.5996 42.8899 32.4996 42.5399 32.4996H42.1999C41.8399 32.4996 41.5299 32.5996 41.1899 32.5996C40.8499 32.5996 40.5399 32.4996 40.1899 32.4996H39.8499C39.4899 32.4996 39.1799 32.5996 38.8499 32.5996C38.4999 32.5996 38.1999 32.4996 37.8399 32.4996H37.4999C37.1399 32.4996 36.8399 32.5996 36.4999 32.5996C36.1499 32.5996 35.8499 32.4996 35.4899 32.4996H35.1499C34.8699 32.4996 34.5299 32.5596 34.2599 32.5796L33.6299 33.6696H46.3699L45.6499 32.4696Z" fill="white"/>
<path d="M44.7996 32.3096H44.7396C44.4196 32.3196 44.1796 32.4196 43.6196 32.4196C43.0596 32.4196 42.9996 32.3196 42.3596 32.3396C41.7596 32.3396 41.5196 32.4596 41.1896 32.4596C40.8696 32.4596 40.3496 32.3896 39.9396 32.4296C39.5396 32.4696 39.0596 32.5596 38.7396 32.5596C38.3496 32.5596 37.9596 32.4896 37.5596 32.5296C37.1496 32.5696 36.9596 32.6796 36.4496 32.6796C36.0096 32.6796 35.5496 32.6096 35.1696 32.6096C34.8296 32.6096 34.4496 32.7096 34.1696 32.7496L34.0796 32.8996C34.3096 32.8696 34.9396 32.7696 35.1596 32.7696C35.3996 32.7696 36.2296 32.8196 36.6896 32.7996C37.1596 32.7896 37.2096 32.6796 37.7596 32.6796C38.1396 32.6796 38.4196 32.7196 38.8096 32.7196C39.0596 32.7196 39.2796 32.5996 39.6496 32.5996L39.9296 32.5896C40.2396 32.5396 40.7696 32.5896 41.1296 32.6096C41.4596 32.6296 41.6796 32.5496 42.0296 32.5396L42.4696 32.5296C42.8196 32.5096 43.1096 32.5896 43.4396 32.5896C43.7596 32.5696 44.0796 32.4896 44.4196 32.4896L44.8696 32.4696C45.0996 32.4696 45.4596 32.4696 45.6996 32.5196L45.6196 32.3796C45.3796 32.3696 45.0896 32.3096 44.7996 32.3096Z" fill="url(#paint18_linear_3734_60758)"/>
<path d="M35.0297 33.4797C34.6897 33.4797 34.3897 33.5597 34.0697 33.5697C33.9492 33.5666 33.829 33.5565 33.7097 33.5397L33.6597 33.6197H34.2597C34.6097 33.6197 34.8997 33.5397 35.2197 33.5297C35.5497 33.5397 35.8397 33.6297 36.1897 33.6297H36.6397C36.9797 33.6297 37.2797 33.5397 37.5997 33.5297C37.9297 33.5397 38.2297 33.6297 38.5697 33.6297H39.0197C39.3697 33.6297 39.6597 33.5397 39.9897 33.5297C40.3097 33.5397 40.5997 33.6297 40.9497 33.6297H41.3997C41.7397 33.6297 42.0397 33.5397 42.3697 33.5297C42.6897 33.5397 42.9897 33.6297 43.3297 33.6297H43.7797C44.1297 33.6297 44.4197 33.5397 44.7397 33.5297C45.0697 33.5397 45.3597 33.6297 45.7097 33.6297H46.1597L46.3397 33.6197L46.2897 33.5397C46.1897 33.5497 46.0797 33.5697 45.9697 33.5697C45.6397 33.5697 45.3497 33.4697 44.9997 33.4697H44.5497C44.2097 33.4697 43.9097 33.5697 43.5897 33.5697C43.2597 33.5597 42.9697 33.4697 42.6197 33.4697H42.1697C41.8297 33.4697 41.5297 33.5697 41.2097 33.5697C40.8797 33.5597 40.5897 33.4697 40.2397 33.4697H39.7897C39.4397 33.4697 39.1497 33.5697 38.8297 33.5697C38.4997 33.5597 38.2097 33.4697 37.8597 33.4697H37.4097C37.0697 33.4697 36.7697 33.5697 36.4497 33.5697C36.1197 33.5597 35.8297 33.4697 35.4797 33.4697H35.0297V33.4797Z" fill="url(#paint19_linear_3734_60758)"/>
<path d="M35.0297 33.4797C34.6897 33.4797 34.3897 33.5597 34.0697 33.5697C33.9492 33.5666 33.829 33.5565 33.7097 33.5397L33.6597 33.6197H34.2597C34.6097 33.6197 34.8997 33.5397 35.2197 33.5297C35.5497 33.5397 35.8397 33.6297 36.1897 33.6297H36.6397C36.9797 33.6297 37.2797 33.5397 37.5997 33.5297C37.9297 33.5397 38.2297 33.6297 38.5697 33.6297H39.0197C39.3697 33.6297 39.6597 33.5397 39.9897 33.5297C40.3097 33.5397 40.5997 33.6297 40.9497 33.6297H41.3997C41.7397 33.6297 42.0397 33.5397 42.3697 33.5297C42.6897 33.5397 42.9897 33.6297 43.3297 33.6297H43.7797C44.1297 33.6297 44.4197 33.5397 44.7397 33.5297C45.0697 33.5397 45.3597 33.6297 45.7097 33.6297H46.1597L46.3397 33.6197L46.2897 33.5397C46.1897 33.5497 46.0797 33.5697 45.9697 33.5697C45.6397 33.5697 45.3497 33.4697 44.9997 33.4697H44.5497C44.2097 33.4697 43.9097 33.5697 43.5897 33.5697C43.2597 33.5597 42.9697 33.4697 42.6197 33.4697H42.1697C41.8297 33.4697 41.5297 33.5697 41.2097 33.5697C40.8797 33.5597 40.5897 33.4697 40.2397 33.4697H39.7897C39.4397 33.4697 39.1497 33.5697 38.8297 33.5697C38.4997 33.5597 38.2097 33.4697 37.8597 33.4697H37.4097C37.0697 33.4697 36.7697 33.5697 36.4497 33.5697C36.1197 33.5597 35.8297 33.4697 35.4797 33.4697H35.0297V33.4797Z" fill="url(#paint20_linear_3734_60758)"/>
<path d="M35.0297 33.4797C34.6897 33.4797 34.3897 33.5597 34.0697 33.5697C33.9492 33.5666 33.829 33.5565 33.7097 33.5397L33.6597 33.6197H34.2597C34.6097 33.6197 34.8997 33.5397 35.2197 33.5297C35.5497 33.5397 35.8397 33.6297 36.1897 33.6297H36.6397C36.9797 33.6297 37.2797 33.5397 37.5997 33.5297C37.9297 33.5397 38.2297 33.6297 38.5697 33.6297H39.0197C39.3697 33.6297 39.6597 33.5397 39.9897 33.5297C40.3097 33.5397 40.5997 33.6297 40.9497 33.6297H41.3997C41.7397 33.6297 42.0397 33.5397 42.3697 33.5297C42.6897 33.5397 42.9897 33.6297 43.3297 33.6297H43.7797C44.1297 33.6297 44.4197 33.5397 44.7397 33.5297C45.0697 33.5397 45.3597 33.6297 45.7097 33.6297H46.1597L46.3397 33.6197L46.2897 33.5397C46.1897 33.5497 46.0797 33.5697 45.9697 33.5697C45.6397 33.5697 45.3497 33.4697 44.9997 33.4697H44.5497C44.2097 33.4697 43.9097 33.5697 43.5897 33.5697C43.2597 33.5597 42.9697 33.4697 42.6197 33.4697H42.1697C41.8297 33.4697 41.5297 33.5697 41.2097 33.5697C40.8797 33.5597 40.5897 33.4697 40.2397 33.4697H39.7897C39.4397 33.4697 39.1497 33.5697 38.8297 33.5697C38.4997 33.5597 38.2097 33.4697 37.8597 33.4697H37.4097C37.0697 33.4697 36.7697 33.5697 36.4497 33.5697C36.1197 33.5597 35.8297 33.4697 35.4797 33.4697H35.0297V33.4797Z" fill="url(#paint21_linear_3734_60758)"/>
<path d="M35.0297 33.4797C34.6897 33.4797 34.3897 33.5597 34.0697 33.5697C33.9492 33.5666 33.829 33.5565 33.7097 33.5397L33.6597 33.6197H34.2597C34.6097 33.6197 34.8997 33.5397 35.2197 33.5297C35.5497 33.5397 35.8397 33.6297 36.1897 33.6297H36.6397C36.9797 33.6297 37.2797 33.5397 37.5997 33.5297C37.9297 33.5397 38.2297 33.6297 38.5697 33.6297H39.0197C39.3697 33.6297 39.6597 33.5397 39.9897 33.5297C40.3097 33.5397 40.5997 33.6297 40.9497 33.6297H41.3997C41.7397 33.6297 42.0397 33.5397 42.3697 33.5297C42.6897 33.5397 42.9897 33.6297 43.3297 33.6297H43.7797C44.1297 33.6297 44.4197 33.5397 44.7397 33.5297C45.0697 33.5397 45.3597 33.6297 45.7097 33.6297H46.1597L46.3397 33.6197L46.2897 33.5397C46.1897 33.5497 46.0797 33.5697 45.9697 33.5697C45.6397 33.5697 45.3497 33.4697 44.9997 33.4697H44.5497C44.2097 33.4697 43.9097 33.5697 43.5897 33.5697C43.2597 33.5597 42.9697 33.4697 42.6197 33.4697H42.1697C41.8297 33.4697 41.5297 33.5697 41.2097 33.5697C40.8797 33.5597 40.5897 33.4697 40.2397 33.4697H39.7897C39.4397 33.4697 39.1497 33.5697 38.8297 33.5697C38.4997 33.5597 38.2097 33.4697 37.8597 33.4697H37.4097C37.0697 33.4697 36.7697 33.5697 36.4497 33.5697C36.1197 33.5597 35.8297 33.4697 35.4797 33.4697H35.0297V33.4797Z" fill="url(#paint22_linear_3734_60758)"/>
<path d="M35.0297 33.4797C34.6897 33.4797 34.3897 33.5597 34.0697 33.5697C33.9492 33.5666 33.829 33.5565 33.7097 33.5397L33.6597 33.6197H34.2597C34.6097 33.6197 34.8997 33.5397 35.2197 33.5297C35.5497 33.5397 35.8397 33.6297 36.1897 33.6297H36.6397C36.9797 33.6297 37.2797 33.5397 37.5997 33.5297C37.9297 33.5397 38.2297 33.6297 38.5697 33.6297H39.0197C39.3697 33.6297 39.6597 33.5397 39.9897 33.5297C40.3097 33.5397 40.5997 33.6297 40.9497 33.6297H41.3997C41.7397 33.6297 42.0397 33.5397 42.3697 33.5297C42.6897 33.5397 42.9897 33.6297 43.3297 33.6297H43.7797C44.1297 33.6297 44.4197 33.5397 44.7397 33.5297C45.0697 33.5397 45.3597 33.6297 45.7097 33.6297H46.1597L46.3397 33.6197L46.2897 33.5397C46.1897 33.5497 46.0797 33.5697 45.9697 33.5697C45.6397 33.5697 45.3497 33.4697 44.9997 33.4697H44.5497C44.2097 33.4697 43.9097 33.5697 43.5897 33.5697C43.2597 33.5597 42.9697 33.4697 42.6197 33.4697H42.1697C41.8297 33.4697 41.5297 33.5697 41.2097 33.5697C40.8797 33.5597 40.5897 33.4697 40.2397 33.4697H39.7897C39.4397 33.4697 39.1497 33.5697 38.8297 33.5697C38.4997 33.5597 38.2097 33.4697 37.8597 33.4697H37.4097C37.0697 33.4697 36.7697 33.5697 36.4497 33.5697C36.1197 33.5597 35.8297 33.4697 35.4797 33.4697H35.0297V33.4797Z" fill="url(#paint23_linear_3734_60758)"/>
<path d="M35.0297 33.4797C34.6897 33.4797 34.3897 33.5597 34.0697 33.5697C33.9492 33.5666 33.829 33.5565 33.7097 33.5397L33.6597 33.6197H34.2597C34.6097 33.6197 34.8997 33.5397 35.2197 33.5297C35.5497 33.5397 35.8397 33.6297 36.1897 33.6297H36.6397C36.9797 33.6297 37.2797 33.5397 37.5997 33.5297C37.9297 33.5397 38.2297 33.6297 38.5697 33.6297H39.0197C39.3697 33.6297 39.6597 33.5397 39.9897 33.5297C40.3097 33.5397 40.5997 33.6297 40.9497 33.6297H41.3997C41.7397 33.6297 42.0397 33.5397 42.3697 33.5297C42.6897 33.5397 42.9897 33.6297 43.3297 33.6297H43.7797C44.1297 33.6297 44.4197 33.5397 44.7397 33.5297C45.0697 33.5397 45.3597 33.6297 45.7097 33.6297H46.1597L46.3397 33.6197L46.2897 33.5397C46.1897 33.5497 46.0797 33.5697 45.9697 33.5697C45.6397 33.5697 45.3497 33.4697 44.9997 33.4697H44.5497C44.2097 33.4697 43.9097 33.5697 43.5897 33.5697C43.2597 33.5597 42.9697 33.4697 42.6197 33.4697H42.1697C41.8297 33.4697 41.5297 33.5697 41.2097 33.5697C40.8797 33.5597 40.5897 33.4697 40.2397 33.4697H39.7897C39.4397 33.4697 39.1497 33.5697 38.8297 33.5697C38.4997 33.5597 38.2097 33.4697 37.8597 33.4697H37.4097C37.0697 33.4697 36.7697 33.5697 36.4497 33.5697C36.1197 33.5597 35.8297 33.4697 35.4797 33.4697H35.0297V33.4797Z" fill="url(#paint24_linear_3734_60758)"/>
<path d="M35.0297 33.4797C34.6897 33.4797 34.3897 33.5597 34.0697 33.5697C33.9492 33.5666 33.829 33.5565 33.7097 33.5397L33.6597 33.6197H34.2597C34.6097 33.6197 34.8997 33.5397 35.2197 33.5297C35.5497 33.5397 35.8397 33.6297 36.1897 33.6297H36.6397C36.9797 33.6297 37.2797 33.5397 37.5997 33.5297C37.9297 33.5397 38.2297 33.6297 38.5697 33.6297H39.0197C39.3697 33.6297 39.6597 33.5397 39.9897 33.5297C40.3097 33.5397 40.5997 33.6297 40.9497 33.6297H41.3997C41.7397 33.6297 42.0397 33.5397 42.3697 33.5297C42.6897 33.5397 42.9897 33.6297 43.3297 33.6297H43.7797C44.1297 33.6297 44.4197 33.5397 44.7397 33.5297C45.0697 33.5397 45.3597 33.6297 45.7097 33.6297H46.1597L46.3397 33.6197L46.2897 33.5397C46.1897 33.5497 46.0797 33.5697 45.9697 33.5697C45.6397 33.5697 45.3497 33.4697 44.9997 33.4697H44.5497C44.2097 33.4697 43.9097 33.5697 43.5897 33.5697C43.2597 33.5597 42.9697 33.4697 42.6197 33.4697H42.1697C41.8297 33.4697 41.5297 33.5697 41.2097 33.5697C40.8797 33.5597 40.5897 33.4697 40.2397 33.4697H39.7897C39.4397 33.4697 39.1497 33.5697 38.8297 33.5697C38.4997 33.5597 38.2097 33.4697 37.8597 33.4697H37.4097C37.0697 33.4697 36.7697 33.5697 36.4497 33.5697C36.1197 33.5597 35.8297 33.4697 35.4797 33.4697H35.0297V33.4797Z" fill="url(#paint25_linear_3734_60758)"/>
<path d="M35.0297 33.4797C34.6897 33.4797 34.3897 33.5597 34.0697 33.5697C33.9492 33.5666 33.829 33.5565 33.7097 33.5397L33.6597 33.6197H34.2597C34.6097 33.6197 34.8997 33.5397 35.2197 33.5297C35.5497 33.5397 35.8397 33.6297 36.1897 33.6297H36.6397C36.9797 33.6297 37.2797 33.5397 37.5997 33.5297C37.9297 33.5397 38.2297 33.6297 38.5697 33.6297H39.0197C39.3697 33.6297 39.6597 33.5397 39.9897 33.5297C40.3097 33.5397 40.5997 33.6297 40.9497 33.6297H41.3997C41.7397 33.6297 42.0397 33.5397 42.3697 33.5297C42.6897 33.5397 42.9897 33.6297 43.3297 33.6297H43.7797C44.1297 33.6297 44.4197 33.5397 44.7397 33.5297C45.0697 33.5397 45.3597 33.6297 45.7097 33.6297H46.1597L46.3397 33.6197L46.2897 33.5397C46.1897 33.5497 46.0797 33.5697 45.9697 33.5697C45.6397 33.5697 45.3497 33.4697 44.9997 33.4697H44.5497C44.2097 33.4697 43.9097 33.5697 43.5897 33.5697C43.2597 33.5597 42.9697 33.4697 42.6197 33.4697H42.1697C41.8297 33.4697 41.5297 33.5697 41.2097 33.5697C40.8797 33.5597 40.5897 33.4697 40.2397 33.4697H39.7897C39.4397 33.4697 39.1497 33.5697 38.8297 33.5697C38.4997 33.5597 38.2097 33.4697 37.8597 33.4697H37.4097C37.0697 33.4697 36.7697 33.5697 36.4497 33.5697C36.1197 33.5597 35.8297 33.4697 35.4797 33.4697H35.0297V33.4797Z" fill="url(#paint26_linear_3734_60758)"/>
<path d="M35.0297 33.4797C34.6897 33.4797 34.3897 33.5597 34.0697 33.5697C33.9492 33.5666 33.829 33.5565 33.7097 33.5397L33.6597 33.6197H34.2597C34.6097 33.6197 34.8997 33.5397 35.2197 33.5297C35.5497 33.5397 35.8397 33.6297 36.1897 33.6297H36.6397C36.9797 33.6297 37.2797 33.5397 37.5997 33.5297C37.9297 33.5397 38.2297 33.6297 38.5697 33.6297H39.0197C39.3697 33.6297 39.6597 33.5397 39.9897 33.5297C40.3097 33.5397 40.5997 33.6297 40.9497 33.6297H41.3997C41.7397 33.6297 42.0397 33.5397 42.3697 33.5297C42.6897 33.5397 42.9897 33.6297 43.3297 33.6297H43.7797C44.1297 33.6297 44.4197 33.5397 44.7397 33.5297C45.0697 33.5397 45.3597 33.6297 45.7097 33.6297H46.1597L46.3397 33.6197L46.2897 33.5397C46.1897 33.5497 46.0797 33.5697 45.9697 33.5697C45.6397 33.5697 45.3497 33.4697 44.9997 33.4697H44.5497C44.2097 33.4697 43.9097 33.5697 43.5897 33.5697C43.2597 33.5597 42.9697 33.4697 42.6197 33.4697H42.1697C41.8297 33.4697 41.5297 33.5697 41.2097 33.5697C40.8797 33.5597 40.5897 33.4697 40.2397 33.4697H39.7897C39.4397 33.4697 39.1497 33.5697 38.8297 33.5697C38.4997 33.5597 38.2097 33.4697 37.8597 33.4697H37.4097C37.0697 33.4697 36.7697 33.5697 36.4497 33.5697C36.1197 33.5597 35.8297 33.4697 35.4797 33.4697H35.0297V33.4797Z" fill="url(#paint27_linear_3734_60758)"/>
<path d="M34.3896 32.4689L34.1396 32.8889C34.4296 32.8389 34.8496 32.7189 35.2096 32.7189C35.5696 32.7189 36.0096 32.8089 36.4496 32.8189C36.9496 32.8189 37.1496 32.6989 37.5496 32.6589C37.9596 32.6189 38.3496 32.7089 38.7496 32.7189C39.0596 32.7189 39.5396 32.6089 39.9496 32.5689C40.3496 32.5189 40.7196 32.5989 41.1996 32.5989C41.6896 32.6089 41.7696 32.4789 42.3596 32.4689C42.9996 32.4589 43.0596 32.5589 43.6196 32.5589C44.0396 32.5789 44.4097 32.4689 44.7897 32.4489C45.1697 32.4189 45.3396 32.4489 45.6196 32.4489L45.4296 32.1289L35.2996 32.3589L34.3896 32.4689Z" fill="#97C924"/>
<path d="M44.9995 32.459L45.3995 32.489C45.496 32.5005 45.5927 32.5105 45.6895 32.519L45.6495 32.469C45.5895 32.489 45.2095 32.449 45.0095 32.469L44.9995 32.459Z" fill="white"/>
</g>
<path d="M40 22.4873L36.7875 28.0498L33.5 33.7498H46.5L43.2875 28.1748L40 22.4998V22.4873ZM40 22.7873L43.15 28.2498L46.2375 33.5998H33.7625L36.9125 28.1248L40 22.7873Z" fill="#C8A400"/>
</g>
<defs>
<linearGradient id="paint0_linear_3734_60758" x1="39.8696" y1="28.9089" x2="40.0596" y2="28.3389" gradientUnits="userSpaceOnUse">
<stop stop-color="#510000"/>
<stop offset="0.3" stop-color="#8A0000"/>
<stop offset="1" stop-color="#AA0000"/>
</linearGradient>
<linearGradient id="paint1_linear_3734_60758" x1="40.1398" y1="29.139" x2="40.2898" y2="28.739" gradientUnits="userSpaceOnUse">
<stop stop-color="#FF2A2A"/>
<stop offset="1" stop-color="#FF0000"/>
</linearGradient>
<linearGradient id="paint2_linear_3734_60758" x1="34.4497" y1="31.749" x2="53.4397" y2="31.749" gradientUnits="userSpaceOnUse">
<stop stop-color="#002255"/>
<stop offset="0.5" stop-color="#0044AA"/>
<stop offset="1" stop-color="#002255"/>
</linearGradient>
<linearGradient id="paint3_linear_3734_60758" x1="34.4497" y1="31.749" x2="53.4397" y2="31.749" gradientUnits="userSpaceOnUse">
<stop stop-color="#002255"/>
<stop offset="0.5" stop-color="#0044AA"/>
<stop offset="1" stop-color="#002255"/>
</linearGradient>
<linearGradient id="paint4_linear_3734_60758" x1="34.4497" y1="31.749" x2="53.4397" y2="31.749" gradientUnits="userSpaceOnUse">
<stop stop-color="#002255"/>
<stop offset="0.5" stop-color="#0044AA"/>
<stop offset="1" stop-color="#002255"/>
</linearGradient>
<linearGradient id="paint5_linear_3734_60758" x1="34.4497" y1="31.749" x2="53.4397" y2="31.749" gradientUnits="userSpaceOnUse">
<stop stop-color="#002255"/>
<stop offset="0.5" stop-color="#0044AA"/>
<stop offset="1" stop-color="#002255"/>
</linearGradient>
<linearGradient id="paint6_linear_3734_60758" x1="34.4497" y1="31.749" x2="53.4397" y2="31.749" gradientUnits="userSpaceOnUse">
<stop stop-color="#002255"/>
<stop offset="0.5" stop-color="#0044AA"/>
<stop offset="1" stop-color="#002255"/>
</linearGradient>
<linearGradient id="paint7_linear_3734_60758" x1="34.4497" y1="31.749" x2="53.4397" y2="31.749" gradientUnits="userSpaceOnUse">
<stop stop-color="#002255"/>
<stop offset="0.5" stop-color="#0044AA"/>
<stop offset="1" stop-color="#002255"/>
</linearGradient>
<linearGradient id="paint8_linear_3734_60758" x1="34.4497" y1="31.749" x2="53.4397" y2="31.749" gradientUnits="userSpaceOnUse">
<stop stop-color="#002255"/>
<stop offset="0.5" stop-color="#0044AA"/>
<stop offset="1" stop-color="#002255"/>
</linearGradient>
<linearGradient id="paint9_linear_3734_60758" x1="34.4497" y1="31.749" x2="53.4397" y2="31.749" gradientUnits="userSpaceOnUse">
<stop stop-color="#002255"/>
<stop offset="0.5" stop-color="#0044AA"/>
<stop offset="1" stop-color="#002255"/>
</linearGradient>
<linearGradient id="paint10_linear_3734_60758" x1="34.4497" y1="31.749" x2="53.4397" y2="31.749" gradientUnits="userSpaceOnUse">
<stop stop-color="#002255"/>
<stop offset="0.5" stop-color="#0044AA"/>
<stop offset="1" stop-color="#002255"/>
</linearGradient>
<linearGradient id="paint11_linear_3734_60758" x1="34.4496" y1="31.749" x2="53.4396" y2="31.749" gradientUnits="userSpaceOnUse">
<stop stop-color="#002255"/>
<stop offset="0.5" stop-color="#0044AA"/>
<stop offset="1" stop-color="#002255"/>
</linearGradient>
<linearGradient id="paint12_linear_3734_60758" x1="34.4497" y1="31.7495" x2="53.4397" y2="31.7495" gradientUnits="userSpaceOnUse">
<stop stop-color="#002255"/>
<stop offset="0.5" stop-color="#0044AA"/>
<stop offset="1" stop-color="#002255"/>
</linearGradient>
<linearGradient id="paint13_linear_3734_60758" x1="38.4798" y1="31.1692" x2="38.4798" y2="31.7592" gradientUnits="userSpaceOnUse">
<stop stop-color="#F5F549"/>
<stop offset="1" stop-color="#97C924"/>
</linearGradient>
<linearGradient id="paint14_linear_3734_60758" x1="38.4798" y1="31.1692" x2="38.4798" y2="31.7592" gradientUnits="userSpaceOnUse">
<stop stop-color="#F5F549"/>
<stop offset="1" stop-color="#97C924"/>
</linearGradient>
<linearGradient id="paint15_linear_3734_60758" x1="38.4795" y1="31.169" x2="38.4795" y2="31.759" gradientUnits="userSpaceOnUse">
<stop stop-color="#F5F549"/>
<stop offset="1" stop-color="#97C924"/>
</linearGradient>
<linearGradient id="paint16_linear_3734_60758" x1="38.4796" y1="31.1692" x2="38.4796" y2="31.7592" gradientUnits="userSpaceOnUse">
<stop stop-color="#F5F549"/>
<stop offset="1" stop-color="#97C924"/>
</linearGradient>
<linearGradient id="paint17_linear_3734_60758" x1="38.4796" y1="31.1692" x2="38.4796" y2="31.7592" gradientUnits="userSpaceOnUse">
<stop stop-color="#F5F549"/>
<stop offset="1" stop-color="#97C924"/>
</linearGradient>
<linearGradient id="paint18_linear_3734_60758" x1="34.0808" y1="32.3119" x2="45.714" y2="32.3119" gradientUnits="userSpaceOnUse">
<stop stop-color="#002255"/>
<stop offset="0.5" stop-color="#0044AA"/>
<stop offset="1" stop-color="#002255"/>
</linearGradient>
<linearGradient id="paint19_linear_3734_60758" x1="33.7039" y1="33.4738" x2="46.2951" y2="33.4738" gradientUnits="userSpaceOnUse">
<stop stop-color="#002255"/>
<stop offset="0.5" stop-color="#0044AA"/>
<stop offset="1" stop-color="#002255"/>
</linearGradient>
<linearGradient id="paint20_linear_3734_60758" x1="33.7039" y1="33.4738" x2="46.2951" y2="33.4738" gradientUnits="userSpaceOnUse">
<stop stop-color="#002255"/>
<stop offset="0.5" stop-color="#0044AA"/>
<stop offset="1" stop-color="#002255"/>
</linearGradient>
<linearGradient id="paint21_linear_3734_60758" x1="33.7039" y1="33.4738" x2="46.2951" y2="33.4738" gradientUnits="userSpaceOnUse">
<stop stop-color="#002255"/>
<stop offset="0.5" stop-color="#0044AA"/>
<stop offset="1" stop-color="#002255"/>
</linearGradient>
<linearGradient id="paint22_linear_3734_60758" x1="33.7039" y1="33.4738" x2="46.2951" y2="33.4738" gradientUnits="userSpaceOnUse">
<stop stop-color="#002255"/>
<stop offset="0.5" stop-color="#0044AA"/>
<stop offset="1" stop-color="#002255"/>
</linearGradient>
<linearGradient id="paint23_linear_3734_60758" x1="33.7039" y1="33.4738" x2="46.2951" y2="33.4738" gradientUnits="userSpaceOnUse">
<stop stop-color="#002255"/>
<stop offset="0.5" stop-color="#0044AA"/>
<stop offset="1" stop-color="#002255"/>
</linearGradient>
<linearGradient id="paint24_linear_3734_60758" x1="33.7039" y1="33.4738" x2="46.2951" y2="33.4738" gradientUnits="userSpaceOnUse">
<stop stop-color="#002255"/>
<stop offset="0.5" stop-color="#0044AA"/>
<stop offset="1" stop-color="#002255"/>
</linearGradient>
<linearGradient id="paint25_linear_3734_60758" x1="33.7039" y1="33.4738" x2="46.2951" y2="33.4738" gradientUnits="userSpaceOnUse">
<stop stop-color="#002255"/>
<stop offset="0.5" stop-color="#0044AA"/>
<stop offset="1" stop-color="#002255"/>
</linearGradient>
<linearGradient id="paint26_linear_3734_60758" x1="33.7039" y1="33.4738" x2="46.2951" y2="33.4738" gradientUnits="userSpaceOnUse">
<stop stop-color="#002255"/>
<stop offset="0.5" stop-color="#0044AA"/>
<stop offset="1" stop-color="#002255"/>
</linearGradient>
<linearGradient id="paint27_linear_3734_60758" x1="33.7039" y1="33.4738" x2="46.2951" y2="33.4738" gradientUnits="userSpaceOnUse">
<stop stop-color="#002255"/>
<stop offset="0.5" stop-color="#0044AA"/>
<stop offset="1" stop-color="#002255"/>
</linearGradient>
<clipPath id="clip0_3734_60758">
<rect width="80" height="60" fill="white"/>
</clipPath>
</defs>
</svg>
