<svg width="80" height="60" viewBox="0 0 80 60" fill="none" xmlns="http://www.w3.org/2000/svg">
<g clip-path="url(#clip0_3736_60794)">
<mask id="mask0_3736_60794" style="mask-type:luminance" maskUnits="userSpaceOnUse" x="0" y="0" width="80" height="60">
<path d="M0 0H79.9924V59.9943H0V0Z" fill="white"/>
</mask>
<g mask="url(#mask0_3736_60794)">
<path fill-rule="evenodd" clip-rule="evenodd" d="M0 0H80.573V40.0123H0V0Z" fill="white"/>
<path d="M0 0V2.99972L19.224 12.902L26.4652 13.1117L0 0Z" fill="#C8102E"/>
<path d="M8.2251 0L31.5455 12.1763V0H8.2251Z" fill="#012169"/>
<path d="M34.658 0V15.5469H0V24.417H34.6741V39.9639H45.3183V24.417H79.9924V15.5469H45.3183V0H34.6741H34.658Z" fill="#C8102E"/>
<path d="M48.4146 0V11.4667L71.2188 0.096765L48.4146 0Z" fill="#012169"/>
<path d="M49.1406 12.7245L55.5594 12.6761L80.4602 0.0966797L73.848 0.193445L49.1567 12.7406L49.1406 12.7245Z" fill="#C8102E"/>
<path d="M0 27.0137V35.529L15.9985 27.0943L0 27.0298V27.0137Z" fill="#012169"/>
<path d="M61.5909 27.3687L54.9141 27.3203L80.0408 39.8191L79.8795 36.9646L61.5748 27.3687H61.5909ZM6.24134 40.0449L29.8036 27.659L23.6268 27.7074L0 40.0127" fill="#C8102E"/>
<path d="M80.2988 3.51579L61.2684 12.9504L80.0408 13.031V27.0781H64.0584L79.8956 35.674L80.1214 40.0285L71.6706 39.9317L48.5115 28.5618V40.0446H31.6099V28.5457L9.88616 39.9962L0.06451 40.0285V79.9924H159.985V0.06451L80.4762 0M0.096765 4.5157L0 12.8052L16.8371 13.0149L0.0806375 4.5157H0.096765Z" fill="#012169"/>
<path fill-rule="evenodd" clip-rule="evenodd" d="M0 39.9961H84.4275V79.9923H0V39.9961Z" fill="#FEDD00"/>
<path fill-rule="evenodd" clip-rule="evenodd" d="M46.9148 20.2077C46.9599 21.1411 46.8151 22.074 46.4889 22.9498C46.1628 23.8256 45.6623 24.6261 45.0176 25.3027C44.373 25.9793 43.5976 26.518 42.7386 26.886C41.8796 27.254 40.9548 27.4438 40.0202 27.4438C39.0857 27.4438 38.1609 27.254 37.3019 26.886C36.4429 26.518 35.6675 25.9793 35.0229 25.3027C34.3782 24.6261 33.8776 23.8256 33.5515 22.9498C33.2254 22.074 33.0806 21.1411 33.1257 20.2077C33.2114 18.4368 33.9752 16.7668 35.2588 15.5439C36.5424 14.3209 38.2473 13.6387 40.0202 13.6387C41.7932 13.6387 43.4981 14.3209 44.7817 15.5439C46.0653 16.7668 46.8291 18.4368 46.9148 20.2077Z" fill="#012169"/>
<path fill-rule="evenodd" clip-rule="evenodd" d="M38.7383 18.434L40.0607 14.4667L41.3832 18.434H45.6892L42.2057 20.8854L43.5443 24.8366L40.0607 22.3691L36.5772 24.8205L37.9158 20.8693L34.4322 18.4179L38.7383 18.434ZM62.6876 19.0791L63.3488 17.2245L63.9939 19.0953H66.1389L64.4133 20.2242L65.0745 22.0788L63.3488 20.9499L61.6232 22.0788L62.2844 20.2242L60.5588 19.0953L62.6876 19.0791ZM39.3673 32.9004L40.0124 31.0457L40.6736 32.9004H42.8024L41.0768 34.0293L41.738 35.9001L40.0124 34.7551L38.2867 35.884L38.9479 34.0454L37.2223 32.9004H39.3673ZM39.3673 5.96747L40.0124 4.09668L40.6736 5.95134H42.8024L41.0768 7.09639L41.738 8.95106L40.0124 7.82213L38.2867 8.95106L38.9479 7.09639L37.2223 5.96747H39.3673ZM15.9501 19.063L16.6113 17.2083L17.2564 19.063H19.4014L17.6758 20.2081L18.337 22.0627L16.6113 20.9338L14.8857 22.0627L15.5469 20.2081L13.8213 19.0791L15.9501 19.063Z" fill="#FEDD00"/>
</g>
</g>
<defs>
<clipPath id="clip0_3736_60794">
<rect width="80" height="60" fill="white"/>
</clipPath>
</defs>
</svg>
