<svg width="80" height="60" viewBox="0 0 80 60" fill="none" xmlns="http://www.w3.org/2000/svg">
<g clip-path="url(#clip0_3736_60802)">
<path fill-rule="evenodd" clip-rule="evenodd" d="M24.3501 0H55.6501V60H24.3501V0Z" fill="white"/>
<path fill-rule="evenodd" clip-rule="evenodd" d="M0 0H24.35V60H0V0ZM55.65 0H80V60H55.65V0Z" fill="#198200"/>
<path fill-rule="evenodd" clip-rule="evenodd" d="M39.1875 43.9123V50.4873L41.85 50.5123C41.85 50.5123 41 44.7873 41.4625 44.0123C41.925 43.2623 42.3625 43.3623 42.3625 43.3623C42.3625 43.3623 44.1 43.8873 44.2875 43.7998C44.475 43.7248 44.2625 43.1498 45.1875 43.2248C45.4875 43.1123 45.325 42.5998 45.6 42.5748C45.875 42.5373 51.1625 44.0498 52.3125 42.6248C52.0125 41.8248 50.975 42.5623 50.7 42.5998C50.45 42.5998 49.4125 42.0998 48.8125 42.5998C48.2625 42.1873 45.7625 41.9123 45.7625 41.9123C45.4375 41.5873 51.7125 42.0748 52.075 41.8248C52.8125 41.0873 50.7 41.1748 50.375 41.4123C50.1092 41.2519 49.8073 41.1609 49.4971 41.1478C49.1869 41.1347 48.8784 41.1999 48.6 41.3373C48.3875 40.8248 46.35 41.0373 45.225 40.8998C44.85 40.6873 44.9125 40.5623 45.1625 40.4248C47.5375 40.5248 49.8875 40.8373 52.2625 40.7373C52.9 39.8998 51.45 39.5748 50.5625 40.2998C50.0375 39.4248 48.975 40.2623 48.2625 40.1748C47.55 40.0998 47.8875 39.2248 48.7875 39.3623C49.6875 39.4873 51.3 39.3123 51.6 38.8998C51.9 38.4873 51.425 38.0623 49.9375 38.4623C49.4375 37.9623 48.3125 38.4623 47.8 38.6248C47.1 38.2373 45.4875 38.5623 44.95 38.6998C44.4125 38.3748 47.7625 37.8248 47.7625 37.8248C49.0625 37.7998 49.8 37.5748 50.2 37.4748C52.1625 36.4248 50.175 36.3123 49.15 37.0748C48.5125 36.5748 47.9 37.1123 47.325 37.2998C46.786 37.4823 46.2188 37.5669 45.65 37.5498C45.65 37.4748 47.225 36.5123 47.225 36.5123C47.225 36.5123 49.1375 36.3748 49.525 36.3248C49.9 36.2623 51.875 35.2623 49.1875 35.9373C48.2625 36.0123 47.7125 35.9623 47.35 35.9873C45.2875 35.7748 47.55 35.5748 47.55 35.5748C47.55 35.5748 50.475 35.3123 50.5125 35.1623C50.5625 34.0373 48.125 34.5623 48.1 34.5623C48.1 33.7498 45.825 34.5873 45.825 34.5623C45.3875 34.3123 46.075 34.0498 46.075 34.0498C46.675 33.8998 47.575 33.8498 47.8125 33.6623C47.8125 33.6623 49.5125 33.6498 49.7125 33.1998C49.3 32.0373 46.1125 33.3998 45.6875 33.5998C45.1125 33.5998 46.0625 32.6748 46.1 32.6498C46.125 32.6123 48.725 32.5123 49.9625 30.8373C50.05 29.8248 48.5125 31.4123 48.5125 31.4123C48.3875 30.0873 46.8375 31.4998 45.9375 31.5998C45.025 31.7248 45 31.1873 45.625 31.0998C46.25 31.0248 46.975 31.0873 47.325 30.1248C47.6875 29.1623 48.75 30.1748 48.95 29.8248C49.1375 29.4623 48.5625 29.1623 48.5625 29.1623C48.5625 29.1623 49.3625 28.3373 48.0625 28.3748C46.7875 28.3998 45.1125 28.1998 45.1125 28.1998C45.1125 28.1998 46.45 27.6873 47.7125 27.6998C48.9625 27.7373 48.2875 26.8123 47.0875 26.8123C45.875 26.8123 45.25 26.3998 45.25 26.3998L47.3 25.6248L47.175 25.0498C47.175 25.0498 48.375 24.0873 46.675 24.3123L44.775 24.5623L41.35 25.0748C41.325 25.0748 40.425 24.7998 41.3 24.5748C42.175 24.3498 45.275 23.7373 45.7375 23.8998C46.2 24.0623 45.6875 22.7498 44.0375 22.5873C42.4 22.4248 41.375 22.9998 41.375 22.9998C41.375 22.9998 40.3125 22.6123 41.3 22.2873C42.2875 21.9498 43.85 22.3998 43.85 22.3998C43.85 22.3998 45.6 21.8748 44.15 21.6498C42.7 21.4373 42.2375 21.8498 41.575 21.8748C41.3125 21.5373 43.85 21.4623 44.0125 21.1873C43.7375 20.6873 42.1625 21.1873 41.2375 21.1873C40.8625 21.0248 40.825 20.7498 41.275 20.5873C42.2125 20.5498 43.1 20.5998 44.0375 20.5623C44.0125 20.0623 44.0375 19.4748 44.0125 18.9623C42.8125 18.7498 41.4125 19.1248 40.75 19.0873C40.925 18.5498 43.5 18.3998 43.7875 18.2498C44.3875 17.4998 41.275 18.2498 41.2375 18.2498C40.7 18.1748 40.7375 17.8248 41.075 17.6248C41.875 17.5373 43.65 17.7498 43.525 17.1998C43.425 16.6998 42.275 16.9623 41.825 17.0748C41.35 17.1873 40.6625 17.0998 40.6625 17.0998C40.375 16.6998 43.35 16.8623 43.325 16.5498C43.2875 16.1998 41.4375 16.4498 40.8 16.4748C40.3125 16.1373 43.175 15.9123 43.2125 15.8748C43.325 14.9623 41.3 15.8748 40.9125 15.8748C40.5375 15.8748 40.725 15.2998 40.725 15.2998C40.725 15.2998 41.5125 14.9373 41.4875 14.8873C41.2823 14.7768 41.0639 14.6928 40.8375 14.6373C40.775 14.6373 40.8375 14.0123 40.8375 14.0123C40.8375 14.0123 41.4875 13.5123 41.4375 13.3748C41.375 13.2373 40.6625 13.4873 40.6625 13.4873V12.9373C40.6625 12.9373 41.1875 12.8873 41.2375 12.6373C41.3 12.3873 40.6125 12.3623 40.6125 12.3623L40.3375 9.4873L40.0875 12.1748L39.1875 12.2998C39.1875 12.2998 39.8125 12.6623 39.9375 13.0248C40.0375 13.3748 39.1625 13.2748 39.1625 13.2748C39.1625 13.2748 39.875 13.8748 39.925 14.0873C39.9875 14.3123 38.9375 14.3623 38.9375 14.3623C38.9375 14.3623 39.8125 14.9873 39.875 15.3498C39.925 15.6998 39.875 15.8998 39.875 15.8998C39.875 15.8998 38.425 14.6373 37.5 14.9873C37 15.2373 38.6 15.3623 39.65 16.2748C39.65 16.4873 37.0875 15.6498 37 16.1748C37.05 16.3123 39.7375 16.6998 39.925 17.0498C38.95 17.0873 36.925 16.8373 37 17.1623C36.7875 17.5373 38.9 17.3248 39.7875 17.6248C40.05 17.9248 40.025 18.1748 39.575 18.1998C38.7125 17.7873 36.8125 17.4873 36.8 18.0123C36.8125 18.1373 38.775 18.0623 39.4875 18.5248C38.5375 18.7498 35.3125 18.0873 35.3 18.3998C35.3875 18.5623 35.9 19.2123 36.775 19.1873C37.65 19.1623 39.6875 19.5373 39.825 19.8123C39.95 20.0873 37.1875 19.2373 36.15 19.7373C35.1 20.2373 39.1375 19.9248 39.7875 20.5248C40.45 21.1373 38.475 20.4748 38.475 20.4748C38.475 20.4748 35.725 20.0998 35.325 20.2873C34.9125 20.4748 34.45 20.9123 34.45 20.9123C34.45 20.9123 34.725 21.4623 35 21.3498C35.275 21.2373 34.9125 21.6873 34.9125 21.6873C34.9125 21.6873 38.75 22.6123 39.6 23.4373C40.45 24.2623 34.725 22.1498 34.725 22.1498C34.725 22.1498 32.4125 22.9998 34.85 23.0498C34.575 23.4623 35 23.7123 35 23.7123C35 23.7123 39.05 24.5623 39.4625 25.2123C39.875 25.8748 36.7 24.5873 35.975 24.2248C35.2625 23.8748 33.2375 24.4498 33.2625 24.5873C33.3 24.7123 34.2625 24.9123 34.275 25.1623C34.3125 25.4123 33.1 25.4873 33.1 25.7123C33.1 25.9248 38.225 26.9998 39.6 28.1498C40.975 29.2998 35.575 26.7748 35.575 26.7748C35.575 26.7748 35.875 27.1873 35.575 27.2998C35.2625 27.4123 34.2 25.7623 32.45 26.7748C32.125 27.1998 33.975 27.5248 34.45 27.5748C34.2875 27.9873 34.15 28.1248 34.8 28.5373C35.45 28.9498 33.5125 27.9373 33.5125 27.9873L33.65 28.6998C33.05 28.1998 32.3125 28.0623 31.625 28.5623C31.625 28.5623 31.6 29.0623 32.3125 29.3623C31.925 30.1498 32.75 29.8998 34.0625 30.6498C32.1125 30.1373 31.95 31.0873 33.35 31.2998C34.75 31.5123 38.5875 31.6623 39.4875 32.8373C40.4 34.0123 38.2 32.3873 37.95 32.3373C37.9 32.3748 37.85 32.9498 37.85 32.9498C37.2625 32.6123 36.725 32.2998 36.025 32.1623C35.9625 32.2748 35.9875 32.4248 35.925 32.5373C35.3 32.0748 34.7375 31.7623 33.8125 31.7123L33.7 32.1498C33.7 32.1498 32.9375 31.1873 31.425 32.1498C30.5875 32.7623 34.6125 32.3748 35.2625 33.0873C35.925 33.7998 35.4 33.9123 35.4 33.9123L33.7625 33.2998C33.7625 33.2998 31.8125 32.9498 31.2625 33.3873C30.7125 33.8248 39.2625 34.8873 39.5125 36.0748C39.6875 36.6998 37.5125 35.3998 35.625 34.8373L35.4 35.4623C35.4 35.4623 34.65 34.7123 33.8125 34.5873C33.7875 34.5873 33.975 35.3373 33.975 35.3373C33.975 35.3373 31.875 34.3373 30.8 34.8623C29.7375 35.3873 34.525 35.6623 34.9625 36.1498C35.4 36.6498 33.5125 35.8248 33.3375 36.1498C33.1875 36.4873 30.85 35.5498 30.8875 35.9873C30.9125 36.4248 31.2125 36.6748 31.2125 36.6748C31.2125 36.6748 36.0625 37.1373 36.225 37.7123C36.3875 38.2873 33.5375 37.3873 33.5375 37.3873C33.5375 37.3873 33.2625 37.7998 33.4875 37.9873C33.7 38.1873 31.8375 36.8998 32.0125 37.7373C31.4 37.4998 29.8375 36.7623 30.0625 37.3373C30.275 37.9123 34.475 38.7373 34.475 38.7373C34.475 38.7373 32.6375 38.8623 32.725 39.3373C30.35 37.8998 30.4125 38.8123 30.475 38.8373C30.525 38.8623 27.425 38.0748 29.7625 39.3373C32.1 40.5998 31.0125 40.3748 31.05 40.3998C31.075 40.4248 31.3 41.0248 31.2375 41.0248C31.1875 41.0248 29.65 40.2123 29.125 40.1498C28.6125 40.0998 26.1375 40.8373 28.775 41.9998C31.4125 43.1623 33.025 41.7248 34.475 41.8748C35.925 42.0498 36.6 42.2998 36.475 42.7498C36.3375 43.2248 34.9875 41.2373 33.575 42.9623C31.95 42.6373 30.8625 42.4623 31.7 43.6373C29.075 42.6498 27.45 43.9373 30.775 44.4623C34.025 44.5623 36.025 43.6623 36.025 43.6623C36.025 43.6623 36.5875 44.6748 37.375 43.9623C38.175 43.2498 38.2 44.2373 38.225 44.2373L39 43.9123H39.1875Z" fill="#198200" stroke="black" stroke-width="0.0875" stroke-linecap="round" stroke-linejoin="round"/>
<path fill-rule="evenodd" clip-rule="evenodd" d="M39.5 40.025V39.5625C39.5 39.5625 38.475 39.375 37.9625 39.475C37.675 39.3125 37.3875 39.0875 37.025 39.275C36.9625 39.425 37.6875 39.8125 37.925 39.8125C38.4398 39.9659 38.9755 40.0376 39.5125 40.025H39.5ZM39.5 40.775C39.5 40.775 38.4625 40.3875 38.05 40.825C38.1125 41.2875 39.2625 41.5125 39.5125 41.3875C39.75 41.2625 39.5125 40.7875 39.5 40.7625V40.775ZM41.25 40.95V41.275C41.25 41.275 42.475 41.5125 42.7 41.25C42.9125 40.9875 41.7 40.8125 41.2375 40.95H41.25ZM41.1875 39.675L41.225 40.0375C41.225 40.0375 42.3 40.275 42.7125 39.6875C43.125 39.1 41.775 39.6875 41.1875 39.675ZM41.2375 38.425V38.675C41.2375 38.675 42.05 38.8 42.2375 38.45C42.4125 38.1 41.2625 38.45 41.2375 38.425ZM39.5625 37.675C39.4375 37.5125 39 37.075 37.8375 36.95C37.025 36.95 39.3 38.1375 39.5625 37.6875V37.675ZM41.2125 36.4625L41.1875 36.8C41.1875 36.8 43.9375 35.975 44.575 36.0375C45.15 35.875 45.275 35.475 45.25 35.475C44.75 35.1125 42.3875 35.7625 41.2125 36.4625ZM41.275 35.4875L41.2375 35.8125C41.2375 35.8125 43.175 35.4375 43.7 35.0625C44.2125 34.6875 41.3 35.5 41.275 35.4875ZM41.2 34.5375V34.8625C41.2 34.8625 42.4875 34.8125 42.7625 34.5625C42.925 34.3 41.6125 34.525 41.2 34.5375ZM43.9 37.25C43.9 37.25 44.575 37.35 44.7 37.15C44.675 36.8 43.9 37.275 43.9 37.25ZM41.25 33.325L41.2625 34.0375C41.2625 34.0375 44.375 33.05 44.575 32.875C44.7625 32.6875 45.2 32.125 41.25 33.325ZM41.1625 32.3375V32.8625C41.1625 32.8625 42.4125 32.7625 42.9875 32.3C43.5625 31.825 41.1625 32.35 41.1625 32.3375ZM39.6625 31.175L39.7375 31.6375L35.625 30.3125C35.6375 30.3125 35.425 29.6375 39.6625 31.175ZM39.725 29.5125C39.725 29.5625 39.725 29.9625 39.7 29.95C39.7 29.95 36.85 28.7625 36.7375 28.8625C36.3625 27.9875 39.7375 29.5375 39.7375 29.5125H39.725ZM41.1125 30.2625L41.1625 30.65C41.1625 30.65 42.9125 30.2875 43.0125 30.1125C43.1125 29.9375 41.1125 30.2625 41.1125 30.25V30.2625ZM41.15 31.1875C41.175 31.275 41.2 31.6 41.2 31.6C41.2 31.6 41.9 31.5375 42.0125 31.375C42.1125 31.2125 41.15 31.1875 41.15 31.1875ZM41.05 29.0625V29.4375C41.05 29.4375 42.975 29.0625 43.175 28.8875C43.3875 28.7 41.0125 29.0625 41.05 29.0625ZM41.05 28C41.05 28.025 40.9875 28.3875 41.0375 28.3875C41.0875 28.3875 43.3625 28.0125 43.725 27.675C44.075 27.3625 41.1 28.0375 41.0625 28H41.05ZM41.025 26.1375V26.55C41.025 26.55 42.5 26.2375 42.775 25.925C43.05 25.6125 41.025 26.175 41.025 26.1375ZM40.775 23.4375L40.8 24.0375C40.8 24.0375 42.8 23.7625 43.075 23.4375C43.3625 23.1 40.7625 23.4375 40.775 23.4375ZM39.85 18.875V19.25C39.85 19.25 38.9125 19.2125 39.1375 19.05C39.3625 18.8875 39.85 18.9125 39.85 18.875ZM40.725 19.375L40.75 19.9C40.75 19.9 41.9625 19.775 42.05 19.5875C42.15 19.4 40.75 19.3875 40.725 19.3875V19.375ZM40.65 20.125C40.65 20.125 40.675 20.45 40.7 20.45C40.725 20.45 41.1875 20.4125 41.2875 20.2875C41.3875 20.1625 40.7 20.1625 40.6625 20.125H40.65ZM39.625 21.6C39.625 21.6375 39.6625 22.1 39.625 22.075C39.5875 22.05 36.975 21.3125 36.725 21.325C36.4875 21.325 36.425 20.7125 39.625 21.6ZM39.8375 22.4625C39.8375 22.55 39.9 23.0375 39.8 23.0125C39.7125 22.9875 38.0125 22.45 38.1875 22.2875C38.3625 22.125 39.8375 22.5 39.8375 22.4625ZM39.6875 26.0875L39.7 26.525C39.7 26.525 36.7375 25.625 36.6375 25.475C36.5375 25.325 36.25 24.625 39.6875 26.0875ZM39.8125 27.15V27.5625L35.7875 26.15C35.7875 26.15 35.4625 25.1 39.8 27.15H39.8125Z" fill="white" stroke="black" stroke-width="0.1" stroke-linecap="round" stroke-linejoin="round"/>
<path fill-rule="evenodd" clip-rule="evenodd" d="M35.0373 41.0872L35.0123 41.5247C35.0123 41.5247 34.2373 41.2997 33.9873 40.8622C34.4373 40.7372 35.0498 41.0997 35.0373 41.0872Z" fill="white" stroke="black" stroke-width="0.1" stroke-linejoin="round"/>
</g>
<defs>
<clipPath id="clip0_3736_60802">
<rect width="80" height="60" fill="white"/>
</clipPath>
</defs>
</svg>
