<svg width="80" height="60" viewBox="0 0 80 60" fill="none" xmlns="http://www.w3.org/2000/svg">
<g clip-path="url(#clip0_3736_60883)">
<mask id="mask0_3736_60883" style="mask-type:luminance" maskUnits="userSpaceOnUse" x="0" y="0" width="80" height="60">
<path d="M0 0H80V60H0V0Z" fill="white"/>
</mask>
<g mask="url(#mask0_3736_60883)">
<path fill-rule="evenodd" clip-rule="evenodd" d="M-20 0H100V60H-20V0Z" fill="#0071BC"/>
<path fill-rule="evenodd" clip-rule="evenodd" d="M46.2501 45.7127C46.2501 45.7127 48.1501 43.7002 49.9751 44.0877C50.5251 41.9627 52.6001 41.7877 52.6001 41.7877C52.6001 41.7877 52.3876 39.4502 55.0376 38.9377C55.1126 37.3502 56.7251 36.0252 56.7251 36.0252C56.7251 36.0252 56.4001 33.5627 58.0751 32.9877C57.0501 31.0377 58.4251 29.6127 58.4126 29.5752C58.3876 29.5377 56.6626 26.4752 58.2126 25.6002C56.5876 24.2252 57.1126 22.6752 57.1126 22.6752C57.1126 22.6752 55.3376 22.2127 55.9751 20.0877C54.5126 19.8377 54.2251 17.4752 54.2251 17.4752C54.2251 17.4752 51.9751 17.9377 51.7001 15.9752C50.2001 16.2127 50.0501 14.7502 50.0251 14.7502C50.0126 14.7502 47.0876 15.5377 46.5001 13.3252C45.3626 13.9127 44.8751 12.8627 44.8751 12.8627C44.8751 12.8627 43.2501 13.6752 42.2751 12.1127C40.3376 13.3252 39.2501 12.0627 39.2501 12.0627C39.2501 12.0627 36.7126 13.7377 35.8751 12.4377C34.3751 13.9627 33.0251 13.3127 33.0251 13.3127C33.0251 13.3127 31.9001 15.3127 30.0626 14.8127C29.6501 16.6752 27.5376 16.7127 27.5376 16.7127C27.5376 16.7127 27.7626 18.3502 25.2376 18.8002C24.9126 20.7377 23.5876 21.0502 23.5876 21.0502C23.5876 21.0502 23.7126 22.9502 22.5251 23.5502C22.9501 24.6127 21.8501 25.9127 21.8501 25.9127C21.8501 25.9127 23.0251 27.3752 21.4251 29.0252C22.9626 29.4252 21.8501 32.0752 21.8501 32.0752C21.8501 32.0752 23.9751 33.0252 22.6376 34.7877C24.1626 35.2877 23.6876 36.4877 23.7001 37.2002C24.6751 37.6377 25.5251 37.4252 25.1126 39.3752C28.0876 39.7127 26.6876 41.3502 26.6876 41.3502C26.6876 41.3502 28.0626 41.4127 27.5251 42.5127C30.0626 42.4502 30.4376 44.4127 30.4376 44.4127C30.4376 44.4127 32.7876 43.7877 33.1001 44.7002C33.4126 45.6127 32.0751 51.7877 32.0751 51.7877C32.0751 51.7877 30.0751 51.7877 28.6001 50.1877C25.1251 50.1002 25.9001 47.8127 25.8501 47.8127C25.7876 47.8127 24.6876 48.2377 24.1251 46.3252C21.8001 46.8002 21.8751 44.8502 21.8501 44.8252C21.8376 44.8127 20.8126 44.3502 21.1876 43.3877C18.8001 43.6002 18.9751 41.2627 18.9751 41.2627C18.4501 41.0502 18.2626 40.5627 18.3376 40.0752C18.0251 39.9627 15.9001 39.9252 17.0001 37.1252C14.9751 35.9002 16.2376 34.5002 16.2376 34.5002C16.2376 34.5002 13.4376 33.0502 15.6001 31.3752C13.9751 29.0002 15.7251 27.8127 15.7251 27.8127C15.7251 27.8127 13.4876 25.5502 15.7626 23.9377C15.3876 20.5002 17.4376 19.6752 17.4376 19.6752C17.4376 19.6752 16.3626 16.8752 19.2876 15.7002C19.4751 12.8627 21.5251 12.7877 21.5251 12.7877C21.5251 12.7877 21.5751 10.5377 24.8001 10.7627C25.4251 8.75017 27.6126 9.15017 27.6126 9.15017C27.6126 9.15017 28.2876 6.71267 31.2751 7.88767C32.7876 4.92517 35.0501 6.43767 35.0501 6.43767C35.0501 6.43767 36.4751 5.51267 37.1751 5.81267C38.0876 4.25017 40.0251 5.73767 41.2626 6.05017C41.7251 5.86267 43.3376 4.65017 44.5751 6.17517C46.2251 5.11267 47.6376 7.05017 47.6376 7.05017C47.6376 7.05017 49.9001 5.90017 50.9626 8.52517C55.7751 8.08767 55.0876 11.2377 55.0876 11.2377C55.0876 11.2377 58.8626 10.3752 58.0376 14.1502C61.4876 14.3877 61.1376 16.6502 61.1376 16.6502C61.1376 16.6502 63.3126 18.3002 62.3626 19.7752C64.3001 19.8752 63.5876 21.7377 63.5876 21.7377C63.5876 21.7377 65.0751 22.3127 63.8376 24.6127C66.6751 26.8752 64.3876 29.1377 64.3751 29.1127C64.3501 29.1002 65.8876 30.9377 64.5001 33.0627C64.9251 36.4377 63.2251 37.2877 63.2251 37.2877C63.2251 37.2877 63.6626 39.4752 61.7626 40.0877C61.7251 42.6502 59.3001 42.9627 59.3001 42.9627C59.3001 42.9627 59.9501 44.0877 57.5501 45.2502C57.4501 46.9627 54.9501 47.1002 54.9501 47.1002C54.9501 47.1002 54.7126 50.2502 51.5251 49.4002C50.7626 51.9252 47.0251 51.1752 46.9501 51.1502C46.8876 51.1127 46.2376 45.7252 46.2376 45.7127H46.2501Z" fill="white" stroke="black" stroke-width="0.2375"/>
<path fill-rule="evenodd" clip-rule="evenodd" d="M23.1252 15.5C23.1252 15.5 23.9252 16.2 23.7752 17.25C23.6252 18.2875 23.0252 19.7375 23.1502 20.8125C23.2252 21.25 23.1877 22.025 23.1877 22.025C23.1877 22.025 22.4752 21 22.4627 19.9C22.4502 18.8 23.2377 17.7625 23.2377 16.95C23.2377 16.1375 23.1002 15.4875 23.1127 15.5125L23.1252 15.5ZM22.7252 15.825C22.7252 15.825 21.6752 16.825 21.5377 17.7875C21.4377 18.2875 21.4127 20.625 21.3877 21.6625C21.3627 21.975 21.2377 23.225 21.2127 23.6875C21.1752 24.1375 21.9752 22.9125 22.0252 21.9C22.0002 20.8625 22.0002 18.675 22.1002 18.3375C22.2002 17.9125 22.1752 17.45 22.3252 17.025L22.7252 15.825Z" fill="#217900" stroke="black" stroke-width="0.2375" stroke-linejoin="round"/>
<path fill-rule="evenodd" clip-rule="evenodd" d="M45.7501 12.5621C45.7501 12.5621 47.1001 11.9371 47.5001 10.7621C47.9001 9.58711 46.3126 9.58711 46.1126 9.96211C45.9001 10.3371 46.2876 11.2496 46.1876 11.4996C46.0876 11.7496 45.5376 12.3246 45.7501 12.5496V12.5621Z" fill="#FFD200" stroke="#EF8A10" stroke-width="0.2375"/>
<path fill-rule="evenodd" clip-rule="evenodd" d="M33.7248 12.9877C33.7248 12.9877 34.5998 11.7752 34.3748 10.5627C34.1373 9.3627 32.7748 10.1127 32.7748 10.5377C32.7748 10.9627 33.5498 11.5752 33.5873 11.8377C33.6248 12.1002 33.4248 12.8877 33.7123 12.9752L33.7248 12.9877ZM31.3373 13.7002C31.3373 13.7002 32.2123 12.4877 31.9873 11.2877C31.7623 10.0752 30.3873 10.8252 30.3873 11.2502C30.3873 11.6752 31.1748 12.3002 31.2123 12.5627C31.2373 12.8127 31.0498 13.6002 31.3373 13.7002ZM28.6998 14.5127C28.6998 14.5127 29.5748 13.3127 29.3498 12.1002C29.1123 10.8877 27.7498 11.6377 27.7498 12.0627C27.7498 12.4877 28.5248 13.1127 28.5623 13.3752C28.5998 13.6252 28.3998 14.4127 28.6873 14.5127H28.6998ZM26.8248 16.3752C26.8248 16.3752 27.7123 15.1627 27.4873 13.9627C27.2623 12.7502 25.8873 13.5002 25.8873 13.9252C25.8873 14.3502 26.6748 14.9752 26.6998 15.2377C26.7373 15.4877 26.5373 16.2752 26.8248 16.3752ZM24.8748 18.1752C24.8748 18.1752 25.7498 16.9627 25.5248 15.7502C25.2998 14.5377 23.9248 15.3002 23.9248 15.7252C23.9248 16.1502 24.7123 16.7627 24.7498 17.0252C24.7748 17.2877 24.5873 18.0752 24.8748 18.1752Z" fill="#FFD200" stroke="#EF8A10" stroke-width="0.3125"/>
<path fill-rule="evenodd" clip-rule="evenodd" d="M29.375 7.7123C29.375 7.7123 28.2 8.6373 28.1 9.8623C28 11.0873 29.5125 10.7373 29.625 10.3248C29.75 9.9123 29.1625 9.1123 29.2 8.8498C29.2375 8.5998 29.6375 7.8873 29.375 7.7248V7.7123ZM33.2875 6.5123C33.2875 6.5123 32.125 7.4373 32.0125 8.6623C31.9125 9.8873 33.425 9.5373 33.55 9.1248C33.6625 8.7123 33.075 7.8998 33.1125 7.6373C33.15 7.3873 33.55 6.6748 33.2875 6.5123ZM18.7 17.0748C18.7 17.0748 18.95 18.5498 19.975 19.2373C21 19.9123 21.4125 18.4123 21.1125 18.1123C20.8125 17.8123 19.825 17.9373 19.6125 17.7873C19.4 17.6248 18.9875 16.9373 18.7 17.0748ZM16.75 22.0748C16.75 22.0748 16.75 23.5748 17.6625 24.4123C18.5625 25.2373 19.2125 23.8248 18.9625 23.4873C18.7125 23.1498 17.7125 23.1123 17.5375 22.9248C17.35 22.7248 17.0375 21.9873 16.75 22.0873V22.0748ZM21.25 27.6748C21.25 27.6748 20.725 26.2748 19.5875 25.7998C18.45 25.3498 18.3375 26.8998 18.6875 27.1373C19.05 27.3623 19.9875 27.0498 20.225 27.1623C20.475 27.2748 21.0125 27.8623 21.2625 27.6623L21.25 27.6748ZM20.325 25.2498C20.325 25.2498 21.225 24.0623 21.025 22.8623C20.8125 21.6498 19.4375 22.3623 19.425 22.7873C19.425 23.2123 20.175 23.8498 20.2125 24.1123C20.2375 24.3748 20.025 25.1498 20.325 25.2623V25.2498ZM48.525 13.7623C48.525 13.7623 49.875 13.1373 50.275 11.9748C50.675 10.8123 49.0875 10.7998 48.8875 11.1623C48.675 11.5373 49.0625 12.4623 48.9625 12.6998C48.8625 12.9498 48.3125 13.5373 48.525 13.7623ZM52.625 15.8123C52.625 15.8123 53.425 14.5498 53.1125 13.3623C52.8 12.1748 51.4875 13.0123 51.5125 13.4373C51.5375 13.8498 52.3625 14.4248 52.4125 14.6873C52.4625 14.9373 52.325 15.7373 52.625 15.8123ZM63.825 27.4373C63.825 27.4373 63.2875 26.0498 62.15 25.5748C61.0125 25.1123 60.9 26.6748 61.25 26.8998C61.6125 27.1373 62.5625 26.8123 62.7875 26.9248C63.0375 27.0498 63.575 27.6373 63.825 27.4373ZM58.35 28.3123C58.35 28.3123 58.375 26.8123 59.2875 25.9873C60.2 25.1623 60.8375 26.5998 60.5875 26.9373C60.325 27.2748 59.3375 27.2873 59.1375 27.4748C58.9625 27.6623 58.6375 28.3998 58.35 28.2998V28.3123ZM57.475 12.4623C57.475 12.4623 56.0625 11.9248 54.975 12.4623C53.85 13.0123 54.95 14.1373 55.35 14.0248C55.7625 13.8998 56.15 12.9873 56.4 12.8873C56.65 12.7873 57.45 12.7623 57.4625 12.4623H57.475ZM54.25 9.7873C54.25 9.7873 52.8625 9.2498 51.75 9.7873C50.65 10.3373 51.7375 11.4623 52.15 11.3498C52.55 11.2248 52.95 10.3123 53.1875 10.2123C53.4375 10.1123 54.2375 10.0873 54.25 9.7873ZM49.5 7.2373C49.5 7.2373 48.3125 8.1498 48.2 9.3623C48.075 10.5873 49.6 10.2498 49.725 9.8498C49.85 9.4373 49.2625 8.6248 49.3 8.3623C49.35 8.1123 49.75 7.4123 49.5 7.2373ZM46.4 6.4873C46.4 6.4873 45.85 7.8748 46.3875 8.9873C46.925 10.0998 48.05 9.0123 47.9375 8.6123C47.825 8.1998 46.9125 7.7998 46.8125 7.5623C46.7125 7.3123 46.7 6.4998 46.4 6.4873ZM37.5875 11.8623C37.5875 11.8623 38.55 10.7123 38.4125 9.4873C38.275 8.2748 36.85 8.9248 36.825 9.3498C36.7875 9.7748 37.525 10.4498 37.5375 10.7123C37.55 10.9623 37.3 11.7373 37.5875 11.8498V11.8623Z" fill="#FFD200" stroke="#EF8A10" stroke-width="0.2375"/>
<path fill-rule="evenodd" clip-rule="evenodd" d="M42.8498 14.3C42.8498 14.3 45.1623 14.45 45.2748 15.775C45.3873 17.1 44.7248 17.9125 44.7248 17.9125C44.7248 17.9125 45.0123 20.7875 42.7498 21.625C40.3248 21.9125 36.5123 21.6875 36.5123 21.6875C36.5123 21.6875 35.3873 21.9625 34.9373 19.65C34.6768 18.3443 34.4849 17.0258 34.3623 15.7C34.3623 15.7 34.5873 14.4 36.2248 14.325C37.8498 14.2375 42.8248 14.325 42.8498 14.3Z" fill="#8C8A8C" stroke="black" stroke-width="0.2375"/>
<path d="M44.7124 17.9004C44.7124 17.9004 43.4624 19.4504 43.5874 20.0879" stroke="black" stroke-width="0.2375" stroke-linecap="round"/>
<path fill-rule="evenodd" clip-rule="evenodd" d="M43.0376 21.5371C43.3501 21.7996 43.6376 22.0871 43.7001 23.0371L43.8251 24.9621L45.4501 39.5371L46.8751 50.0746L46.9751 51.6996C46.9751 51.6996 46.6376 52.9121 45.6751 53.0121C44.9876 54.4621 41.2126 54.8871 40.8376 54.8746C40.5001 54.8496 39.3001 54.3496 38.5751 54.4121C37.8376 54.4746 36.5751 54.9621 36.0126 54.8871C35.4501 54.7996 34.1626 54.3621 33.9376 53.4371C32.3501 52.9371 32.1001 51.7246 32.1001 51.7246L33.8126 39.5371L35.4751 24.1121C35.4751 24.1121 35.6751 22.0621 36.5001 21.7496C37.3626 21.6746 41.8001 21.8371 43.0376 21.5371Z" fill="#8C8A8C" stroke="black" stroke-width="0.2375"/>
<path d="M34.2999 42.6377L33.9624 53.4252M44.7749 44.0627L45.7249 52.9627" stroke="black" stroke-width="0.2375"/>
<path d="M17.0751 37.0379L17.0376 37.1629M61.8751 36.6504L61.9126 36.7754" stroke="black" stroke-width="0.125"/>
<path d="M15.8751 22.4746C15.8751 22.4746 16.5751 23.4621 16.7126 24.0246C16.8376 24.5871 17.0751 25.6996 17.3751 26.1496C17.6876 26.6121 19.4501 29.1371 19.5501 30.1871C19.5626 30.8871 18.8126 32.0621 17.7126 32.0871C17.0126 32.0621 15.2376 31.6121 15.1626 30.0871C15.0876 28.5496 15.7001 28.5246 15.7876 27.5871C15.8501 26.6621 15.8751 22.4996 15.8751 22.4746Z" stroke="#6B18B5" stroke-width="0.2375" stroke-linejoin="round"/>
<path d="M28.0625 9.10024C28.0625 9.10024 27.3125 9.15023 26.7625 9.46273C26.325 9.72523 25.575 10.1252 25.0625 10.8377C23.7375 11.8627 21.75 12.3377 21.125 13.2127C20.75 13.7877 20.775 15.1752 21.7125 15.7752C22.3125 16.1127 24.0875 16.6502 24.9375 15.3877C25.7875 14.1127 25.275 13.7627 25.6875 12.9377C26.2766 11.5438 27.0777 10.2493 28.0625 9.10024ZM45.875 7.25024C45.875 7.25024 45.325 6.75024 44.7125 6.56274C44.2125 6.43774 43.3875 6.48774 42.525 6.40024C40.8625 6.17524 39.15 4.97524 38.1125 5.12524C37.4375 5.25024 36.45 6.25023 36.675 7.32523C36.8375 8.00023 37.5875 9.35023 39.1 9.08773C40.6 8.82523 40.6 8.48773 41.475 8.21273C43.65 7.00023 45.85 7.25024 45.875 7.25024ZM63.55 24.4252C63.675 24.1377 63.4375 23.6002 63.275 22.9877C63.125 22.4877 62.8875 21.7377 62.3125 21.0502C61.6375 19.5252 61.75 17.4252 61.0625 16.6252C60.6 16.1252 59.2375 15.8002 58.4375 16.5752C57.95 17.0752 57.0125 18.6502 58.0375 19.7877C59.0625 20.9127 59.5125 20.5002 60.2125 21.1002C61.9 22.2252 62.7125 24.2252 63.55 24.4252ZM62.9375 37.7502C63.175 37.4377 63.5875 36.8252 63.5375 36.3127C63.5 35.9127 63.725 34.6877 63.75 34.1502C63.9 32.4877 64.9375 31.1252 64.65 29.6877C64.4875 29.0127 63.5 28.0627 62.425 28.3377C61.775 28.5377 60.3 29.3377 60.6375 30.8377C60.975 32.3377 61.4625 32.3002 61.775 33.1752C62.6875 34.9877 62.1125 37.1377 62.9375 37.7502Z" stroke="#6B18B5" stroke-width="0.125" stroke-linejoin="round"/>
<path d="M50.6877 48.3502C50.6877 48.3502 50.4002 48.9002 51.5377 49.3752M52.9502 47.0752C52.9502 47.0752 54.2002 46.7627 55.0502 47.0752M56.7002 43.9002C56.7002 43.9252 56.5252 44.4627 57.5252 45.2502M57.4252 42.5002C57.4252 42.5002 58.1627 43.0377 59.4002 43.0002M49.9752 44.0752C49.9752 44.0752 50.0127 45.5127 49.2752 46.1752M52.4502 41.8627C52.4502 41.8627 53.6627 42.1627 54.6627 41.6627M60.2377 39.7502C60.2377 39.7502 60.5002 40.1252 61.8502 40.0627M54.9877 38.9002C55.0252 38.9252 56.5752 39.4252 57.5502 38.9752M58.0752 33.0002C58.0752 33.0002 58.1377 32.9127 58.6127 34.5877M59.2627 28.2877C59.2627 28.2877 59.2002 29.1752 58.4877 29.5627M63.8502 24.6377C63.8502 24.6377 62.8002 25.4877 63.0002 25.8252M58.6627 24.0252C58.6627 24.0252 59.2002 24.9377 58.3127 25.5627M56.0252 20.1252C56.0252 20.1252 56.9627 20.0877 57.3752 20.8877M54.2752 17.4752H54.9877M57.9877 14.2252C57.9877 14.2377 58.1752 14.4127 57.8127 14.7877M51.3127 14.3127C51.3127 14.3127 51.8127 15.0877 51.7252 16.0502M54.2002 11.6627C54.4252 11.6377 55.1627 11.3127 55.1627 11.3127M50.9877 8.5627C50.9752 8.5627 50.7127 9.5252 51.1877 9.8752M49.8002 13.0002C49.8002 14.0502 50.6252 13.7877 50.0502 14.7877M47.7752 12.1252C47.2952 12.4619 46.8585 12.8565 46.4752 13.3002M44.4252 11.5877C44.4252 11.5877 44.9752 12.1252 44.8377 12.8627M42.8377 11.1502C42.8377 11.1502 42.5627 11.9752 42.2002 12.1877M39.9502 10.9377C39.9377 10.9752 39.5002 11.9127 39.2002 12.0752M36.0002 10.9502C36.0252 10.9502 36.4377 11.8252 35.9002 12.4502M35.0877 6.4502C35.1127 6.4752 35.1752 7.1252 34.7627 7.7002M31.1752 7.9377C31.1752 7.9502 31.3502 8.6752 30.2002 8.9127M28.9627 14.5627C28.9877 14.6002 30.0752 14.7752 30.0752 14.7752M26.2502 17.0752C26.2752 17.0502 27.5752 16.6627 27.5752 16.6627M24.1502 18.7002C24.1877 18.7002 25.0627 18.8627 25.2752 18.7502M23.5252 19.5002C23.5252 19.5002 23.8127 19.6627 23.5752 21.1252M19.3002 15.6877L19.8252 16.4627M17.5127 19.7127C17.5127 19.6877 18.0377 20.4877 18.7377 20.6377M21.6127 23.7877C21.9525 23.7326 22.287 23.649 22.6127 23.5377M21.2502 26.7252C21.2752 26.7252 21.2377 26.1877 21.9002 25.8127M20.3752 28.0877C20.3752 28.1127 21.0002 28.8877 21.4377 29.0002M20.0002 29.5877C20.0752 29.5627 20.7502 28.9752 21.5252 29.0252M19.7877 31.6002C19.7877 31.6002 19.8127 32.2752 21.8127 32.1002M19.9877 33.9752C19.9877 33.9502 20.5752 32.6252 21.7627 32.1252M21.5877 35.6752C21.5877 35.6752 21.7627 35.1002 22.7627 34.7127M22.7002 37.9002C22.7002 37.9002 23.4127 37.3127 23.6752 37.2377M23.5877 39.6502C23.5877 39.6502 24.0252 40.1002 25.1127 39.3127M18.3627 40.0127C18.4877 39.9877 20.0752 39.6252 20.6127 40.4502M18.9877 41.3252C18.9877 41.3252 20.6627 41.1002 20.8752 41.2752M24.9627 41.6627C24.9627 41.6627 24.7377 42.1252 26.8002 41.3627M27.5252 42.4877C27.1502 43.1127 27.6127 43.6127 27.1252 43.9002M21.2502 43.3627C21.3127 43.3127 22.0002 43.0752 21.9002 42.0752M21.8752 44.8627C21.9627 44.8377 23.1127 44.3377 23.3502 44.6002M24.1377 46.3127C24.1377 46.3127 24.2877 45.2877 24.6127 45.1877M25.8627 47.8502C25.8627 47.8502 26.8252 47.8377 27.2377 47.5252M27.7127 44.4002C27.7377 44.4252 28.6002 44.8752 30.4627 44.4252M28.4127 48.5502C28.4127 48.5502 28.6627 49.8752 28.6627 50.1752" stroke="black" stroke-width="0.2375"/>
<path fill-rule="evenodd" clip-rule="evenodd" d="M61.7492 28.18C61.6974 27.7655 61.4848 27.3713 61.2175 27.1942C60.9075 27.0015 60.5857 27.0417 60.3729 27.2998C60.1601 27.5579 60.0283 27.9742 60.0801 28.3886C60.1345 28.8237 60.3446 29.1973 60.6144 29.3951C60.9244 29.5878 61.2462 29.5476 61.459 29.2895C61.6719 29.0314 61.8237 28.6126 61.7518 28.2007L61.7492 28.18Z" fill="#DE2010" stroke="black" stroke-width="0.30858"/>
<path fill-rule="evenodd" clip-rule="evenodd" d="M61.5744 25.968C61.5226 25.5536 61.31 25.1593 61.0427 24.9823C60.7327 24.7896 60.4109 24.8298 60.1981 25.0879C59.9852 25.346 59.8535 25.7623 59.9053 26.1767C59.9597 26.6118 60.1697 26.9854 60.4396 27.1831C60.7496 27.3759 61.0714 27.3356 61.2842 27.0776C61.497 26.8195 61.6489 26.4007 61.577 25.9888L61.5744 25.968Z" fill="#DE2010" stroke="black" stroke-width="0.30858"/>
<path fill-rule="evenodd" clip-rule="evenodd" d="M61.1092 23.5972C61.0212 23.189 60.7747 22.8149 60.493 22.662C60.1672 22.4973 59.8502 22.5656 59.6609 22.8414C59.4715 23.1172 59.3768 23.5435 59.4648 23.9517C59.5573 24.3804 59.7994 24.7341 60.0855 24.9073C60.4113 25.0721 60.7283 25.0037 60.9176 24.7279C61.107 24.4522 61.2215 24.0216 61.1136 23.6176L61.1092 23.5972Z" fill="#DE2010" stroke="black" stroke-width="0.308582"/>
<path fill-rule="evenodd" clip-rule="evenodd" d="M60.3075 21.1554C60.1183 20.7831 59.7846 20.4842 59.4732 20.4082C59.1162 20.332 58.8271 20.4788 58.7143 20.7938C58.6015 21.1087 58.6186 21.5451 58.8078 21.9174C59.0064 22.3083 59.3307 22.5886 59.6516 22.6832C60.0086 22.7595 60.2977 22.6126 60.4105 22.2976C60.5232 21.9827 60.5242 21.5372 60.317 21.174L60.3075 21.1554Z" fill="#DE2010" stroke="black" stroke-width="0.308581"/>
<path fill-rule="evenodd" clip-rule="evenodd" d="M59.4325 19.1681C59.2433 18.7958 58.9096 18.4969 58.5982 18.4209C58.2412 18.3447 57.9521 18.4915 57.8393 18.8065C57.7265 19.1214 57.7436 19.5578 57.9328 19.9301C58.1314 20.321 58.4557 20.6013 58.7766 20.6959C59.1336 20.7722 59.4227 20.6253 59.5355 20.3103C59.6482 19.9954 59.6492 19.5499 59.442 19.1867L59.4325 19.1681Z" fill="#DE2010" stroke="black" stroke-width="0.308581"/>
<path fill-rule="evenodd" clip-rule="evenodd" d="M58.1941 17.1876C57.9741 16.8327 57.6163 16.5631 57.2996 16.5138C56.9374 16.468 56.6617 16.6389 56.576 16.9622C56.4903 17.2856 56.5443 17.7189 56.7644 18.0739C56.9954 18.4466 57.3422 18.6984 57.67 18.7655C58.0321 18.8112 58.3078 18.6404 58.3935 18.317C58.4792 17.9937 58.4424 17.5497 58.2051 17.2054L58.1941 17.1876Z" fill="#DE2010" stroke="black" stroke-width="0.308581"/>
<path fill-rule="evenodd" clip-rule="evenodd" d="M56.8091 15.2621C56.5558 14.9301 56.1735 14.6964 55.8535 14.6779C55.4886 14.6674 55.2308 14.8641 55.1768 15.1942C55.1227 15.5244 55.2184 15.9504 55.4717 16.2825C55.7377 16.6311 56.1072 16.8482 56.4399 16.8833C56.8048 16.8938 57.0626 16.6971 57.1167 16.367C57.1707 16.0368 57.0912 15.5985 56.8218 15.2787L56.8091 15.2621Z" fill="#DE2010" stroke="black" stroke-width="0.308581"/>
<path fill-rule="evenodd" clip-rule="evenodd" d="M55.1564 13.4834C54.8576 13.1916 54.4456 13.0157 54.1262 13.0438C53.7637 13.0863 53.5371 13.3183 53.5315 13.6528C53.5259 13.9873 53.6822 14.395 53.981 14.6868C54.2947 14.9932 54.6918 15.1544 55.0261 15.1409C55.3887 15.0984 55.6153 14.8664 55.6209 14.5319C55.6265 14.1975 55.4843 13.7753 55.1713 13.4979L55.1564 13.4834Z" fill="#DE2010" stroke="black" stroke-width="0.308582"/>
<path fill-rule="evenodd" clip-rule="evenodd" d="M53.3081 11.8475C52.9837 11.5844 52.5572 11.4472 52.2418 11.5046C51.8847 11.5802 51.6804 11.8321 51.7056 12.1657C51.7308 12.4993 51.924 12.8908 52.2484 13.1539C52.5889 13.4302 52.9992 13.5542 53.3308 13.51C53.6879 13.4343 53.8922 13.1825 53.867 12.8489C53.8418 12.5153 53.6614 12.108 53.3243 11.8606L53.3081 11.8475Z" fill="#DE2010" stroke="black" stroke-width="0.308581"/>
<path fill-rule="evenodd" clip-rule="evenodd" d="M51.3434 10.5379C50.9799 10.3323 50.5365 10.2678 50.2351 10.3767C49.8954 10.5106 49.7358 10.7929 49.816 11.1177C49.8962 11.4424 50.1518 11.7965 50.5153 12.0021C50.897 12.218 51.3222 12.2721 51.6418 12.1735C51.9814 12.0396 52.1411 11.7574 52.0609 11.4326C51.9806 11.1078 51.7351 10.7361 51.3616 10.5481L51.3434 10.5379Z" fill="#DE2010" stroke="black" stroke-width="0.308582"/>
<path fill-rule="evenodd" clip-rule="evenodd" d="M49.1455 9.37558C48.7648 9.20393 48.3174 9.18009 48.0271 9.31598C47.701 9.48024 47.5678 9.77586 47.6772 10.092C47.7866 10.4081 48.0733 10.7375 48.4541 10.9091C48.8538 11.0893 49.2822 11.1046 49.5915 10.9773C49.9175 10.813 50.0508 10.5174 49.9414 10.2013C49.832 9.88517 49.5536 9.53734 49.1645 9.38416L49.1455 9.37558Z" fill="#DE2010" stroke="black" stroke-width="0.308581"/>
<path fill-rule="evenodd" clip-rule="evenodd" d="M46.9896 8.50526C46.5982 8.35952 46.1503 8.36573 45.8697 8.52078C45.5554 8.70652 45.4423 9.01041 45.5727 9.31849C45.703 9.62656 46.0112 9.93595 46.4026 10.0817C46.8135 10.2347 47.2419 10.2212 47.542 10.0735C47.8563 9.88772 47.9695 9.58383 47.8391 9.27576C47.7087 8.96768 47.4076 8.6393 47.0092 8.51255L46.9896 8.50526Z" fill="#DE2010" stroke="black" stroke-width="0.308581"/>
<path fill-rule="evenodd" clip-rule="evenodd" d="M44.798 7.82507C44.3967 7.70962 43.9505 7.75 43.6826 7.92601C43.3834 8.1352 43.2938 8.44684 43.4473 8.74406C43.6008 9.04129 43.9317 9.32626 44.333 9.4417C44.7544 9.56292 45.1806 9.51677 45.4685 9.34654C45.7677 9.13735 45.8573 8.82571 45.7038 8.52848C45.5503 8.23126 45.2251 7.92681 44.8181 7.83084L44.798 7.82507Z" fill="#DE2010" stroke="black" stroke-width="0.308581"/>
<path fill-rule="evenodd" clip-rule="evenodd" d="M42.3948 7.40999C41.9805 7.35774 41.5458 7.46634 41.3082 7.68151C41.0448 7.93428 41.0043 8.25601 41.2017 8.52604C41.3992 8.79608 41.77 9.0267 42.1843 9.07896C42.6194 9.13383 43.0333 9.02261 43.2916 8.81005C43.555 8.55728 43.5956 8.23556 43.3981 7.96552C43.2007 7.69548 42.8324 7.44476 42.4155 7.41261L42.3948 7.40999Z" fill="#DE2010" stroke="black" stroke-width="0.308581"/>
<path fill-rule="evenodd" clip-rule="evenodd" d="M40.0094 7.27813C39.5921 7.26137 39.1683 7.40662 38.9499 7.64126C38.709 7.91555 38.696 8.23957 38.9158 8.4918C39.1355 8.74403 39.5246 8.9422 39.9419 8.95896C40.3801 8.97656 40.783 8.83047 41.0223 8.59667C41.2632 8.32238 41.2762 7.99836 41.0565 7.74613C40.8367 7.4939 40.4484 7.27547 40.0303 7.27897L40.0094 7.27813Z" fill="#DE2010" stroke="black" stroke-width="0.308582"/>
<path fill-rule="evenodd" clip-rule="evenodd" d="M37.8219 7.35235C37.4046 7.33559 36.9808 7.48084 36.7624 7.71547C36.5215 7.98977 36.5085 8.31379 36.7283 8.56602C36.948 8.81824 37.3371 9.01642 37.7544 9.03318C38.1926 9.05078 38.5955 8.90469 38.8348 8.67089C39.0757 8.3966 39.0887 8.07258 38.869 7.82035C38.6492 7.56812 38.2609 7.34969 37.8428 7.35319L37.8219 7.35235Z" fill="#DE2010" stroke="black" stroke-width="0.308582"/>
<path fill-rule="evenodd" clip-rule="evenodd" d="M35.2723 7.6545C34.8652 7.74757 34.4942 7.99869 34.3448 8.28232C34.1841 8.61011 34.2564 8.92623 34.5345 9.11213C34.8126 9.29804 35.2401 9.38744 35.6472 9.29438C36.0747 9.19666 36.4253 8.95019 36.595 8.66191C36.7557 8.33412 36.6835 8.018 36.4054 7.8321C36.1272 7.64619 35.6953 7.53703 35.2927 7.64985L35.2723 7.6545Z" fill="#DE2010" stroke="black" stroke-width="0.308581"/>
<path fill-rule="evenodd" clip-rule="evenodd" d="M32.9503 8.23671C32.5523 8.36303 32.2032 8.6439 32.0778 8.93888C31.9447 9.27881 32.0428 9.58789 32.3353 9.75022C32.6278 9.91256 33.0611 9.96641 33.4592 9.84008C33.8771 9.70744 34.2063 9.43288 34.3516 9.13159C34.4847 8.79166 34.3867 8.48258 34.0941 8.32024C33.8016 8.15791 33.3622 8.08474 32.9702 8.23039L32.9503 8.23671Z" fill="#DE2010" stroke="black" stroke-width="0.308582"/>
<path fill-rule="evenodd" clip-rule="evenodd" d="M30.831 9.15176C30.4508 9.32461 30.1377 9.64505 30.0483 9.95287C29.9566 10.3062 30.0908 10.6014 30.4006 10.7278C30.7104 10.8541 31.147 10.856 31.5272 10.6831C31.9264 10.5016 32.2205 10.1898 32.3289 9.87336C32.4206 9.51999 32.2864 9.22479 31.9766 9.09846C31.6669 8.97212 31.2218 8.95182 30.85 9.14312L30.831 9.15176Z" fill="#DE2010" stroke="black" stroke-width="0.30858"/>
<path fill-rule="evenodd" clip-rule="evenodd" d="M28.716 10.2325C28.3519 10.4372 28.0673 10.7831 28.0045 11.0975C27.9433 11.4574 28.1022 11.74 28.4216 11.8395C28.741 11.9389 29.1762 11.9035 29.5403 11.6989C29.9225 11.484 30.1889 11.1483 30.27 10.8237C30.3312 10.4638 30.1723 10.1811 29.8529 10.0817C29.5335 9.98224 29.0883 9.99998 28.7342 10.2223L28.716 10.2325Z" fill="#DE2010" stroke="black" stroke-width="0.308579"/>
<path fill-rule="evenodd" clip-rule="evenodd" d="M26.7068 11.5941C26.3671 11.8371 26.1218 12.2119 26.0935 12.5312C26.0718 12.8956 26.2604 13.1594 26.5888 13.2235C26.9171 13.2877 27.3459 13.2052 27.6855 12.9622C28.0422 12.7071 28.2705 12.3444 28.3158 12.0129C28.3375 11.6485 28.1489 11.3848 27.8205 11.3206C27.4922 11.2565 27.0516 11.3225 26.7238 11.5819L26.7068 11.5941Z" fill="#DE2010" stroke="black" stroke-width="0.30858"/>
<path fill-rule="evenodd" clip-rule="evenodd" d="M24.8621 12.9962C24.5443 13.267 24.3315 13.6613 24.3303 13.9818C24.3395 14.3468 24.5499 14.5936 24.8824 14.6297C25.215 14.6659 25.6353 14.5474 25.9532 14.2765C26.2869 13.9921 26.4838 13.6114 26.5009 13.2773C26.4917 12.9124 26.2813 12.6656 25.9488 12.6294C25.6162 12.5933 25.1828 12.6963 24.878 12.9826L24.8621 12.9962Z" fill="#DE2010" stroke="black" stroke-width="0.308579"/>
<path fill-rule="evenodd" clip-rule="evenodd" d="M23.2245 14.7057C22.9268 14.9987 22.7429 15.4072 22.7647 15.727C22.8 16.0903 23.0275 16.3214 23.3618 16.3336C23.6961 16.3458 24.1068 16.1975 24.4045 15.9046C24.717 15.597 24.886 15.2031 24.8791 14.8686C24.8438 14.5053 24.6163 14.2742 24.282 14.262C23.9477 14.2498 23.5228 14.3837 23.2393 14.6911L23.2245 14.7057Z" fill="#DE2010" stroke="black" stroke-width="0.30858"/>
<path fill-rule="evenodd" clip-rule="evenodd" d="M21.8175 16.6102C21.5454 16.927 21.3963 17.3495 21.4448 17.6664C21.5104 18.0255 21.7564 18.2368 22.0906 18.2209C22.4248 18.2051 22.8216 18.0229 23.0937 17.7061C23.3794 17.3734 23.5148 16.9668 23.4799 16.6341C23.4143 16.275 23.1683 16.0637 22.8341 16.0795C22.5 16.0953 22.0878 16.2643 21.8311 16.5944L21.8175 16.6102Z" fill="#DE2010" stroke="black" stroke-width="0.308581"/>
<path fill-rule="evenodd" clip-rule="evenodd" d="M20.5283 18.5464C20.2915 18.8904 20.1884 19.3264 20.2704 19.6363C20.3739 19.9863 20.6411 20.1701 20.9716 20.1188C21.3022 20.0674 21.6774 19.844 21.9141 19.4999C22.1627 19.1387 22.254 18.7199 22.1838 18.3928C22.0803 18.0427 21.8131 17.8589 21.4826 17.9103C21.152 17.9617 20.7601 18.1736 20.5401 18.5292L20.5283 18.5464Z" fill="#DE2010" stroke="black" stroke-width="0.308581"/>
<path fill-rule="evenodd" clip-rule="evenodd" d="M19.461 20.7429C19.2869 21.1225 19.2602 21.5697 19.3942 21.8609C19.5563 22.188 19.8511 22.3232 20.1679 22.2158C20.4847 22.1084 20.8159 21.8238 20.99 21.4442C21.1728 21.0456 21.1909 20.6174 21.0656 20.3072C20.9034 19.9802 20.6087 19.845 20.2919 19.9524C19.975 20.0597 19.6254 20.3359 19.4697 20.7239L19.461 20.7429Z" fill="#DE2010" stroke="black" stroke-width="0.30858"/>
<path fill-rule="evenodd" clip-rule="evenodd" d="M18.6144 23.0529C18.4754 23.4468 18.4893 23.8945 18.6492 24.1724C18.8403 24.4834 19.1461 24.5913 19.4519 24.4557C19.7577 24.32 20.0617 24.0066 20.2007 23.6128C20.3466 23.1992 20.3258 22.7711 20.1729 22.4736C19.9817 22.1626 19.6759 22.0547 19.3702 22.1903C19.0644 22.326 18.7412 22.6327 18.6213 23.0332L18.6144 23.0529Z" fill="#DE2010" stroke="black" stroke-width="0.30858"/>
<path fill-rule="evenodd" clip-rule="evenodd" d="M17.8768 27.4221C17.8382 27.7555 17.9611 28.1008 18.184 28.2855C18.4453 28.4899 18.7682 28.5139 19.0316 28.3486C19.295 28.1832 19.5132 27.88 19.5518 27.5467C19.5923 27.1966 19.4675 26.8679 19.2465 26.6666C18.9852 26.4622 18.6623 26.4382 18.399 26.6036C18.1356 26.7689 17.8971 27.0706 17.8787 27.4054L17.8768 27.4221Z" fill="#DE2010" stroke="black" stroke-width="0.276403"/>
<path fill-rule="evenodd" clip-rule="evenodd" d="M18.0702 25.3865C17.9773 25.7937 18.0426 26.2369 18.2333 26.4946C18.4589 26.7816 18.7751 26.8536 19.0633 26.6837C19.3514 26.5138 19.6174 26.1676 19.7103 25.7604C19.8077 25.3328 19.7378 24.91 19.5517 24.632C19.3261 24.345 19.01 24.2729 18.7218 24.4428C18.4336 24.6127 18.1478 24.9545 18.0748 25.3661L18.0702 25.3865Z" fill="#DE2010" stroke="black" stroke-width="0.308579"/>
<path fill-rule="evenodd" clip-rule="evenodd" d="M59.9999 24.3377C60.2749 24.0502 60.5249 23.9627 60.8374 24.0752C60.7124 23.3127 60.4874 23.0502 60.1874 23.1502C59.8999 23.2377 59.7624 23.6252 59.9999 24.3377ZM60.4124 26.6127C60.6999 26.3502 60.9499 26.2877 61.2624 26.4127C61.2124 25.6627 60.9874 25.3752 60.6874 25.4502C60.3874 25.5127 60.2374 25.9002 60.4124 26.6127ZM59.4374 22.2377C59.6249 21.9002 59.8499 21.7627 60.1874 21.7752C59.8749 21.0752 59.5874 20.8877 59.3124 21.0502C59.0624 21.2127 59.0374 21.6252 59.4374 22.2502V22.2377ZM58.4249 20.1627C58.6124 19.8127 58.8374 19.6752 59.1749 19.7002C58.8624 18.9877 58.5624 18.8002 58.2999 18.9627C58.0499 19.1252 58.0249 19.5377 58.4249 20.1627ZM55.9874 16.3502C56.1124 15.9752 56.3124 15.8002 56.6374 15.7752C56.2249 15.1252 55.8999 14.9877 55.6749 15.1877C55.4499 15.3877 55.4874 15.8127 55.9874 16.3502ZM54.3749 14.6877C54.4999 14.3127 54.6749 14.1377 54.9999 14.0877C54.5749 13.4627 54.2499 13.3377 54.0249 13.5377C53.7999 13.7502 53.8499 14.1627 54.3749 14.6877ZM51.0374 11.8752C51.0374 11.4752 51.1624 11.2502 51.4499 11.1002C50.8499 10.6377 50.4874 10.6252 50.3499 10.8877C50.2124 11.1502 50.3749 11.5252 51.0374 11.8752ZM52.7874 13.1877C52.8374 12.8002 52.9999 12.5877 53.3249 12.5002C52.7999 11.9377 52.4624 11.8502 52.2749 12.0877C52.0874 12.3377 52.1874 12.7252 52.7749 13.1877H52.7874ZM49.0374 10.7752C48.9999 10.3877 49.0999 10.1502 49.3749 9.96275C48.7249 9.56275 48.3749 9.58775 48.2499 9.86275C48.1374 10.1502 48.3499 10.5002 49.0499 10.7752H49.0374ZM47.0249 9.87525C46.9249 9.50025 46.9874 9.25025 47.2374 9.02525C46.5374 8.72525 46.1874 8.78775 46.1124 9.08775C46.0374 9.38775 46.2999 9.70025 47.0249 9.87525ZM44.8374 9.20025C44.6999 8.82525 44.7374 8.57525 44.9749 8.32525C44.2499 8.08775 43.9124 8.18775 43.8499 8.48775C43.8124 8.78775 44.0999 9.08775 44.8374 9.20025ZM42.6749 8.77525C42.5249 8.42525 42.5499 8.15025 42.7624 7.90025C42.0124 7.71275 41.6874 7.83775 41.6624 8.15025C41.6249 8.45025 41.9374 8.72525 42.6749 8.77525ZM40.3999 8.60025C40.1999 8.26275 40.1999 8.00025 40.3999 7.72525C39.6374 7.61275 39.3124 7.77525 39.3249 8.07525C39.3249 8.38775 39.6624 8.62525 40.3999 8.60025ZM35.9374 8.93775C35.6624 8.66275 35.5999 8.40025 35.7124 8.08775C34.9624 8.16275 34.6874 8.38775 34.7624 8.68775C34.8374 8.98775 35.2249 9.13775 35.9374 8.93775ZM38.1374 8.65025C37.8999 8.33775 37.8624 8.07525 38.0249 7.77525C37.2624 7.75025 36.9624 7.93775 36.9999 8.25025C37.0374 8.55025 37.3999 8.75025 38.1249 8.65025H38.1374ZM33.7749 9.40025C33.4749 9.16275 33.3624 8.92525 33.4374 8.60025C32.6874 8.78775 32.4624 9.05025 32.5749 9.32525C32.6999 9.61275 33.0999 9.70025 33.7749 9.40025ZM29.6499 11.3002C29.2999 11.1252 29.1499 10.9127 29.1624 10.5752C28.4624 10.9002 28.2874 11.2002 28.4624 11.4502C28.6249 11.7002 29.0374 11.7252 29.6499 11.3002ZM31.6499 10.2877C31.3124 10.0752 31.1999 9.83775 31.2499 9.51275C30.5124 9.73775 30.2999 10.0127 30.4374 10.2877C30.5749 10.5627 30.9874 10.6377 31.6374 10.2877H31.6499ZM25.9499 13.8877C25.5749 13.7877 25.3749 13.6002 25.3249 13.2627C24.6999 13.7377 24.5999 14.0627 24.8124 14.2752C25.0374 14.4877 25.4374 14.4252 25.9374 13.8877H25.9499ZM27.7124 12.4377C27.3374 12.3127 27.1624 12.1127 27.1374 11.7877C26.4874 12.1877 26.3499 12.5127 26.5499 12.7502C26.7499 12.9752 27.1749 12.9377 27.7124 12.4377ZM24.3749 15.4377C23.9999 15.3627 23.7874 15.2002 23.6999 14.8752C23.1249 15.3877 23.0499 15.7377 23.2874 15.9252C23.5249 16.1252 23.9124 16.0127 24.3749 15.4252V15.4377ZM22.9624 17.2502C22.5624 17.2252 22.3374 17.0877 22.2374 16.7752C21.7124 17.3377 21.6624 17.6752 21.9124 17.8502C22.1624 18.0252 22.5499 17.8752 22.9624 17.2502ZM21.7874 19.1252C21.3874 19.1502 21.1624 19.0377 20.9874 18.7502C20.5624 19.3877 20.5624 19.7502 20.8374 19.8752C21.1124 20.0002 21.4749 19.8002 21.7874 19.1252ZM20.7499 21.1252C20.3749 21.2002 20.1249 21.1252 19.9124 20.8502C19.5749 21.5377 19.6249 21.8877 19.9124 21.9752C20.1999 22.0752 20.5374 21.8252 20.7499 21.1127V21.1252ZM19.9249 23.1627C19.5499 23.3002 19.2999 23.2627 19.0499 23.0377C18.8249 23.7627 18.9249 24.1002 19.2374 24.1502C19.5374 24.1877 19.8249 23.9002 19.9249 23.1502V23.1627ZM19.3624 25.4377C19.0124 25.6002 18.7499 25.5877 18.4874 25.3752C18.3124 26.1252 18.4374 26.4377 18.7374 26.4627C19.0499 26.5002 19.3249 26.1877 19.3624 25.4377ZM19.1374 27.3377C18.8124 27.5127 18.5499 27.5377 18.2624 27.4002C18.1749 28.0127 18.3374 28.2502 18.6374 28.2252C18.9374 28.2002 19.1749 27.9252 19.1374 27.3377ZM57.5124 18.3127C57.6499 17.9377 57.8499 17.7627 58.1749 17.7377C57.7749 17.0877 57.4624 16.9502 57.2249 17.1377C56.9874 17.3377 57.0249 17.7627 57.5124 18.3127ZM60.6624 28.9377C60.9499 28.6627 61.2124 28.6002 61.5124 28.7377C61.4624 27.9752 61.2374 27.7002 60.9374 27.7627C60.6499 27.8377 60.4874 28.2127 60.6624 28.9377Z" fill="#FFE300"/>
<path fill-rule="evenodd" clip-rule="evenodd" d="M57.6623 16.5C57.6623 16.5 56.7873 17.3625 56.9498 18.4C57.0998 19.4375 57.7623 20.725 57.6373 21.8125C57.5123 22.8875 57.3248 23.6 57.3248 23.6C57.3248 23.6 58.3248 22.4625 58.3248 21.35C58.3498 20.2625 57.6498 18.8125 57.6498 18.0125C57.6498 17.2125 57.6873 16.4875 57.6623 16.5125V16.5ZM59.2498 20C59.2498 20 58.5873 20.5 58.6498 21.625C58.7123 22.7625 59.8998 24.85 59.8998 24.85C59.8998 24.85 60.7498 26.6 60.7123 27.0625C60.6873 27.525 60.8748 26.625 60.7873 25.625C60.6998 24.625 59.4123 22.4 59.4123 22.4C59.4123 22.4 59.1373 21.95 59.1623 21.1875C59.1873 20.4375 59.2623 20.0125 59.2623 20H59.2498Z" fill="#217900" stroke="black" stroke-width="0.2375" stroke-linejoin="round"/>
<path fill-rule="evenodd" clip-rule="evenodd" d="M39.1251 5.925C39.1251 5.7 38.8501 5.5 38.5251 5.5C38.2001 5.5 37.9376 5.7 37.9376 5.925C37.9376 6.15 38.1876 6.35 38.5251 6.35C38.8626 6.35 39.1126 6.1625 39.1126 5.925H39.1251ZM39.3751 6.925C39.3751 6.7 39.1001 6.5125 38.7501 6.5125C38.4251 6.5125 38.1501 6.6875 38.1501 6.9125C38.1501 7.1375 38.4251 7.325 38.7626 7.325C39.1001 7.325 39.3626 7.1375 39.3626 6.9125L39.3751 6.925ZM40.1251 5.75C40.1251 5.75 39.4251 6.2625 39.7126 6.475C40.0001 6.6875 40.7876 6.025 40.7876 6.025L40.1251 5.75ZM60.5376 17.675C60.5376 17.525 60.4751 17.3875 60.3626 17.3125C60.3077 17.2738 60.2422 17.253 60.1751 17.253C60.1079 17.253 60.0424 17.2738 59.9876 17.3125C59.8751 17.3875 59.8126 17.525 59.8126 17.675C59.8126 17.825 59.8751 17.9625 59.9876 18.0375C60.0424 18.0762 60.1079 18.097 60.1751 18.097C60.2422 18.097 60.3077 18.0762 60.3626 18.0375C60.4751 17.9625 60.5376 17.825 60.5376 17.675ZM60.2751 16.675C60.2751 16.425 60.1001 16.2375 59.9001 16.2375C59.7001 16.2375 59.5126 16.4375 59.5126 16.6875C59.5126 16.9375 59.6876 17.125 59.8876 17.125C60.0876 17.125 60.2751 16.925 60.2751 16.6875V16.675ZM60.4626 18.7C60.4626 18.575 60.3876 18.475 60.3126 18.475C60.2376 18.475 60.1626 18.575 60.1626 18.7C60.1626 18.825 60.2251 18.9375 60.3126 18.9375C60.4001 18.9375 60.4626 18.825 60.4626 18.7ZM61.0751 16.9C61.0751 16.75 61.0001 16.6375 60.9251 16.6375C60.8376 16.6375 60.7751 16.75 60.7751 16.8875C60.7751 17.025 60.8376 17.1625 60.9251 17.1625C61.0001 17.1625 61.0751 17.0375 61.0751 16.9ZM59.4001 17.075C59.4001 16.95 59.3251 16.8625 59.2501 16.8625C59.1751 16.8625 59.1001 16.9625 59.1001 17.075C59.1001 17.1875 59.1626 17.3 59.2501 17.3C59.3376 17.3 59.4001 17.2 59.4001 17.075ZM59.6626 18.5C59.6626 18.3125 59.5251 18.1625 59.3501 18.1625C59.1751 18.1625 59.0376 18.3125 59.0376 18.5C59.0376 18.7 59.1626 18.85 59.3501 18.85C59.5376 18.85 59.6626 18.7 59.6626 18.5ZM58.8376 17.875C58.8376 17.7125 58.7126 17.575 58.5751 17.575C58.4251 17.575 58.3001 17.7 58.3001 17.875C58.3001 18.05 58.4251 18.175 58.5751 18.175C58.7126 18.175 58.8251 18.05 58.8251 17.875H58.8376ZM58.7126 17.025C58.7119 16.9818 58.7 16.9395 58.6781 16.9023C58.6562 16.865 58.625 16.8341 58.5876 16.8125C58.5519 16.7903 58.5108 16.7786 58.4688 16.7786C58.4269 16.7786 58.3857 16.7903 58.3501 16.8125C58.315 16.8356 58.2863 16.8672 58.2666 16.9043C58.247 16.9415 58.237 16.983 58.2376 17.025C58.2361 17.0703 58.2469 17.1152 58.2689 17.1548C58.2909 17.1945 58.3233 17.2274 58.3626 17.25C58.3968 17.2697 58.4356 17.2801 58.4751 17.2801C58.5146 17.2801 58.5534 17.2697 58.5876 17.25C58.6626 17.2 58.7126 17.125 58.7126 17.025ZM62.4751 21.325C62.1376 20.875 61.5876 20.6875 61.2501 20.9C60.9251 21.1125 60.9251 21.65 61.2751 22.1125C61.6126 22.5625 62.1501 22.75 62.4876 22.5375C62.8251 22.3125 62.8251 21.7875 62.4876 21.325H62.4751ZM63.4501 29.6625C63.5126 29.1 63.2501 28.6125 62.8501 28.5625C62.4501 28.525 62.0751 28.9375 62.0001 29.4875C61.9376 30.0375 62.2126 30.525 62.6126 30.575C63.0126 30.625 63.3876 30.2 63.4501 29.6625ZM63.6501 34.5125C63.7751 33.9625 63.5376 33.45 63.1501 33.3625C62.7501 33.2875 62.3376 33.6625 62.2251 34.2125C62.1126 34.75 62.3501 35.2625 62.7251 35.3375C63.1251 35.425 63.5376 35.05 63.6501 34.5V34.5125ZM64.5876 29.9625C64.5876 29.75 64.4376 29.575 64.2626 29.575C64.0876 29.575 63.9251 29.75 63.9251 29.9625C63.9251 30.1875 64.0751 30.3625 64.2626 30.3625C64.4501 30.3625 64.5876 30.1875 64.5876 29.9625ZM63.7751 30.875L63.1001 31.65C63.1001 31.65 62.4626 31.6625 62.5001 31.875C62.5251 32.075 63.3751 32.7 63.3751 32.95C63.3626 33.2 63.9251 32.8875 63.9251 32.8875L64.3876 31.5C64.3876 31.5 64.3626 30.5375 64.1126 30.55C63.8626 30.575 63.8001 30.8625 63.7751 30.875ZM19.1001 30.575C19.1095 30.5279 19.1083 30.4792 19.0966 30.4326C19.0849 30.386 19.0631 30.3426 19.0326 30.3054C19.0021 30.2683 18.9637 30.2383 18.9203 30.2178C18.8769 30.1972 18.8294 30.1866 18.7813 30.1866C18.7333 30.1866 18.6858 30.1972 18.6424 30.2178C18.5989 30.2383 18.5606 30.2683 18.5301 30.3054C18.4996 30.3426 18.4777 30.386 18.4661 30.4326C18.4544 30.4792 18.4532 30.5279 18.4626 30.575C18.4773 30.6487 18.5171 30.7151 18.5752 30.7628C18.6333 30.8105 18.7062 30.8366 18.7813 30.8366C18.8565 30.8366 18.9294 30.8105 18.9875 30.7628C19.0456 30.7151 19.0854 30.6487 19.1001 30.575ZM19.4126 29.575C19.4126 29.4 19.2626 29.25 19.0876 29.25C18.9126 29.25 18.7626 29.4 18.7626 29.5875C18.7626 29.775 18.9126 29.925 19.0876 29.925C19.1749 29.9218 19.2576 29.8848 19.3182 29.8218C19.3788 29.7589 19.4127 29.6749 19.4126 29.5875V29.575ZM16.7501 24.9C16.6251 24.625 16.3751 24.475 16.1876 24.5625C16.0001 24.65 15.9376 24.9375 16.0626 25.2125C16.1876 25.4875 16.4376 25.6375 16.6251 25.55C16.8251 25.4625 16.8751 25.175 16.7501 24.9ZM17.5626 27.825C17.3876 27.475 17.0501 27.275 16.7876 27.3875C16.5251 27.5 16.4501 27.875 16.6126 28.225C16.7751 28.575 17.1126 28.775 17.3876 28.6625C17.6626 28.55 17.7251 28.175 17.5626 27.825ZM18.4126 29.975C18.4751 29.5375 18.2876 29.125 18.0126 29.075C17.7251 29.0125 17.4626 29.325 17.4001 29.7625C17.3501 30.2 17.5251 30.6 17.8126 30.6625C18.0876 30.725 18.3626 30.4125 18.4126 29.975ZM17.0376 30.2875C17.2126 29.875 17.1501 29.4375 16.9001 29.3125C16.6501 29.1875 16.3001 29.4 16.1251 29.8125C15.9501 30.225 16.0126 30.65 16.2751 30.7875C16.5376 30.925 16.8626 30.7 17.0376 30.2875Z" fill="#6B18B5"/>
<path fill-rule="evenodd" clip-rule="evenodd" d="M16.4123 29.35C16.4123 29.1375 16.2498 28.975 16.0498 28.975C15.8498 28.975 15.6873 29.15 15.6873 29.35C15.6873 29.55 15.8498 29.725 16.0623 29.725C16.2748 29.725 16.4123 29.5625 16.4123 29.35ZM16.1248 28.4125C16.1248 28.225 15.9748 28.075 15.7998 28.075C15.7555 28.0767 15.7119 28.087 15.6716 28.1055C15.6313 28.1239 15.595 28.1502 15.5648 28.1827C15.5346 28.2152 15.5111 28.2533 15.4957 28.2949C15.4803 28.3365 15.4732 28.3807 15.4748 28.425C15.4748 28.6 15.6248 28.7625 15.7998 28.7625C15.9748 28.7625 16.1248 28.6 16.1248 28.4125ZM16.4248 26.625C16.4248 26.3 16.2873 26.05 16.1123 26.05C15.9373 26.05 15.7998 26.3 15.7998 26.625C15.7998 26.9375 15.9373 27.2 16.1123 27.2C16.2873 27.2 16.4248 26.95 16.4248 26.625ZM17.3998 26.4875C17.4373 26.175 17.3373 25.9 17.1498 25.8625C16.9873 25.85 16.8123 26.0875 16.7748 26.4C16.7248 26.7125 16.8373 26.9875 17.0123 27.0125C17.1748 27.0375 17.3498 26.8 17.3873 26.4875H17.3998ZM24.2748 12.7375C24.4123 12.2875 24.2748 11.8375 23.9873 11.7375C23.6998 11.625 23.3623 11.9 23.2373 12.35C23.1123 12.8 23.2373 13.25 23.5248 13.35C23.8123 13.4625 24.1498 13.1875 24.2748 12.7375ZM22.9748 14.725C23.3498 14.3875 23.5248 13.9375 23.3498 13.7125C23.1623 13.475 22.6998 13.5625 22.3123 13.8875C21.9248 14.2125 21.7748 14.6625 21.9498 14.8875C22.1373 15.125 22.5998 15.05 22.9748 14.725ZM22.2248 13.625C22.5998 13.3375 22.7498 12.95 22.5748 12.75C22.3998 12.55 21.9498 12.625 21.5748 12.9C21.1873 13.1875 21.0248 13.575 21.1998 13.775C21.3748 13.975 21.8248 13.9 22.2123 13.625H22.2248ZM25.1623 11.6875C25.4123 11.4875 25.5248 11.2125 25.4123 11.075C25.2873 10.95 24.9748 10.9875 24.7123 11.1875C24.4498 11.3875 24.3498 11.65 24.4748 11.7875C24.5998 11.925 24.8998 11.875 25.1623 11.6875Z" fill="#6B18B5"/>
<path fill-rule="evenodd" clip-rule="evenodd" d="M23.6251 13.5623C23.8001 13.2873 23.8126 12.9998 23.6501 12.9123C23.4876 12.8248 23.2126 12.9623 23.0376 13.2373C22.8626 13.5123 22.8501 13.7998 23.0126 13.8873C23.1751 13.9748 23.4501 13.8248 23.6251 13.5623ZM25.8376 12.3998C26.1126 12.1623 26.2126 11.8623 26.0876 11.7123C25.9376 11.5623 25.5876 11.6373 25.3126 11.8623C25.0376 12.0873 24.9376 12.3998 25.0751 12.5498C25.2251 12.6998 25.5626 12.6248 25.8376 12.3998ZM21.8376 15.0998C22.0876 15.0998 22.2876 14.9623 22.2626 14.8123C22.2626 14.6748 22.0251 14.5623 21.7626 14.5748C21.5126 14.5873 21.3126 14.7248 21.3376 14.8623C21.3501 15.0123 21.5876 15.1123 21.8376 15.1123V15.0998ZM26.6751 10.9623C26.8501 10.6873 26.8626 10.3998 26.7001 10.3123C26.5501 10.2248 26.2751 10.3623 26.1001 10.6373C25.9251 10.9123 25.9126 11.1998 26.0751 11.2873C26.2376 11.3748 26.5001 11.2373 26.6751 10.9623Z" fill="#6B18B5"/>
<path fill-rule="evenodd" clip-rule="evenodd" d="M55.8499 19.1752C55.8499 19.1752 56.6499 17.9127 56.3499 16.7127C56.0374 15.5252 54.7249 16.3752 54.7499 16.8002C54.7749 17.2127 55.5999 17.7877 55.6499 18.0502C55.6999 18.3002 55.5499 19.0877 55.8499 19.1752Z" fill="#FFD200" stroke="#EF8A10" stroke-width="0.125"/>
<path fill-rule="evenodd" clip-rule="evenodd" d="M40.6123 8.6623C40.6123 8.6623 43.4873 8.7748 43.4998 10.6373C43.4998 10.9248 43.4998 11.2623 43.3998 12.0998C43.9748 11.7873 44.3498 10.9373 44.2748 10.3873C44.2873 8.4998 41.7123 7.1998 40.6123 8.6623Z" fill="#217900" stroke="black" stroke-width="0.2875" stroke-linejoin="round"/>
<path fill-rule="evenodd" clip-rule="evenodd" d="M38.7876 8.57547C38.7876 8.57547 41.1001 8.10047 41.1251 9.95047C41.1376 11.8255 40.3751 12.113 40.3751 12.113C40.3751 12.113 42.1626 11.738 42.1751 9.85047C42.1751 7.95047 39.8876 7.11297 38.7876 8.57547Z" fill="#217900" stroke="black" stroke-width="0.2875" stroke-linejoin="round"/>
<path fill-rule="evenodd" clip-rule="evenodd" d="M46.6624 48.75C46.6624 48.75 57.5124 45.675 60.7874 32.375C58.8749 46.0125 46.9999 50.375 46.9999 50.375L46.6499 48.75H46.6624Z" fill="#F7DF73" stroke="black" stroke-width="0.3125" stroke-linejoin="round"/>
<path fill-rule="evenodd" clip-rule="evenodd" d="M47.7749 49.5749C48.1124 49.5749 48.9374 48.6499 49.4124 48.5499C49.8874 48.4499 49.9374 47.9624 49.3999 47.9499C48.8499 47.9249 48.3749 48.5749 48.3749 48.5749C48.3749 48.5749 47.8999 48.9749 47.3999 49.0249C46.8999 49.0749 47.2249 49.6999 47.7749 49.5749Z" fill="#8C1800"/>
<path fill-rule="evenodd" clip-rule="evenodd" d="M54.0249 44.9125C54.0249 44.9125 52.8999 45.5625 53.0499 45.725C53.2124 45.8875 54.2124 45.1 54.2374 45.1C54.2499 45.075 54.6624 44.575 54.0249 44.9125Z" fill="#8C1800" stroke="#8C1800" stroke-width="0.3125"/>
<path fill-rule="evenodd" clip-rule="evenodd" d="M50.0875 47.875C50.0875 47.875 49.75 47.75 50.6125 47.425C51.4875 47.0875 51.425 46.7 51.7125 46.5375C51.9875 46.375 52.5875 45.95 52.7125 46.2C52.8375 46.45 52.0875 46.95 51.9 47C51.725 47.05 50.8625 47.85 50.6125 47.9125C50.3625 47.9875 50.1875 47.95 50.0875 47.875Z" fill="#8C1800"/>
<path d="M55.7002 43.25C54.9502 44.0875 54.9502 44.0625 54.9502 44.0625" stroke="#8C1800" stroke-width="0.375" stroke-linecap="round"/>
<path d="M56.8126 41.9004L56.1001 42.7629" stroke="#8C1800" stroke-width="0.35" stroke-linecap="round"/>
<path d="M57.925 40.125L57.125 41.4" stroke="#8C1800" stroke-width="0.3125" stroke-linecap="round"/>
<path d="M58.8627 38.3252L58.2002 39.6377M59.2752 37.3877L59.0752 37.8377" stroke="#8C1800" stroke-width="0.2875" stroke-linecap="round"/>
<path d="M59.7502 36.125L59.5752 36.675" stroke="#8C1800" stroke-width="0.175" stroke-linecap="round"/>
<path fill-rule="evenodd" clip-rule="evenodd" d="M32.4321 48.4666C32.4321 48.4666 21.6728 45.3417 18.445 31.7793C20.3279 45.7031 32.1011 50.1035 32.1011 50.1035L32.4321 48.4666Z" fill="#F7DF73" stroke="black" stroke-width="0.314587" stroke-linejoin="round"/>
<path fill-rule="evenodd" clip-rule="evenodd" d="M31.3374 49.3002C30.9999 49.3002 30.1874 48.3627 29.7124 48.2627C29.2374 48.1502 29.1874 47.6627 29.7249 47.6377C30.2749 47.6377 30.7374 48.2752 30.7374 48.2752C30.7374 48.2752 31.2124 48.6877 31.6999 48.7502C32.1999 48.8002 31.8749 49.4252 31.3374 49.3002Z" fill="#8C1800"/>
<path fill-rule="evenodd" clip-rule="evenodd" d="M25.1492 44.5551C25.1492 44.5551 26.2665 45.2353 26.1009 45.4054C25.9561 45.5542 24.9629 44.7676 24.9422 44.7464C24.9216 44.7251 24.5284 44.2149 25.1492 44.5551Z" fill="#8C1800" stroke="#8C1800" stroke-width="0.314587"/>
<path fill-rule="evenodd" clip-rule="evenodd" d="M29.0498 47.5748C29.0498 47.5748 29.3748 47.4498 28.5248 47.1123C27.6748 46.7748 27.7123 46.3623 27.4373 46.2123C27.1623 46.0498 26.5623 45.6248 26.4373 45.8748C26.3123 46.1248 27.0623 46.6248 27.2498 46.6748C27.4248 46.7373 28.2748 47.5498 28.5248 47.6123C28.7748 47.6873 28.9373 47.6498 29.0498 47.5748Z" fill="#8C1800"/>
<path d="M23.4936 42.876L24.2178 43.705" stroke="#8C1800" stroke-width="0.377504" stroke-linecap="round"/>
<path d="M22.3766 41.4941L23.0801 42.3657" stroke="#8C1800" stroke-width="0.356532" stroke-linecap="round"/>
<path d="M21.2797 39.6875L22.0659 40.9842" stroke="#8C1800" stroke-width="0.314587" stroke-linecap="round"/>
<path d="M20.3486 37.8587L21.0107 39.198M19.9348 36.8809L20.1417 37.3485" stroke="#8C1800" stroke-width="0.293614" stroke-linecap="round"/>
<path d="M19.4593 35.6055L19.6455 36.1794" stroke="#8C1800" stroke-width="0.16778" stroke-linecap="round"/>
<path fill-rule="evenodd" clip-rule="evenodd" d="M61.3 29.9121C61.3625 30.7496 62.175 31.5371 61.85 32.9996C61.45 34.6621 60 38.5871 60.25 39.2746C59.825 38.6871 59.9 38.1496 59.875 37.3246C59.825 36.5121 61.05 33.4621 61.1625 32.4371C61.1625 31.5121 61.25 30.2496 61.3 29.9121Z" fill="#217900" stroke="black" stroke-width="0.2875" stroke-linejoin="round"/>
<path fill-rule="evenodd" clip-rule="evenodd" d="M61.3001 29.9248C61.3001 29.9248 62.6376 31.6123 62.5626 32.9498C62.5001 34.2873 61.7501 35.8498 62.0001 36.5373C61.6045 36.0322 61.4008 35.4034 61.4251 34.7623C61.3876 33.9498 62.0876 33.0373 61.9376 32.1498C61.8001 31.2748 61.2876 29.9248 61.3126 29.9248H61.3001ZM17.6376 30.2998C17.5876 31.1373 16.9626 31.8873 17.2876 33.3373C17.6876 34.9998 19.1626 37.0873 18.9126 39.4873C19.3501 38.8998 19.4751 38.2373 19.5126 37.4248C19.5376 36.6123 17.8876 33.8623 17.7876 32.8248C17.7876 31.8998 17.6876 30.6373 17.6376 30.2998Z" fill="#217900" stroke="black" stroke-width="0.2875" stroke-linejoin="round"/>
<path fill-rule="evenodd" clip-rule="evenodd" d="M17.6373 30.325C17.6373 30.325 16.3373 31.95 16.4123 33.2875C16.4248 34.175 18.0623 37.8875 17.8123 38.5875C18.2498 38 18.3623 38.075 18.3498 37.1875C17.8748 34.9 17.0123 33.45 17.1623 32.5625C17.2998 31.675 17.6623 30.3125 17.6373 30.3125V30.325Z" fill="#217900" stroke="black" stroke-width="0.2875" stroke-linejoin="round"/>
<path d="M39.8147 15.375L43.0188 25.3095H53.5053L45.0579 31.4567L48.2766 41.3912L39.8292 35.2586L31.3818 41.3912L34.586 31.4567L26.124 25.3095H36.5813L39.8147 15.375Z" fill="white" stroke="black" stroke-width="0.247616" stroke-linecap="square" stroke-linejoin="round"/>
</g>
</g>
<defs>
<clipPath id="clip0_3736_60883">
<rect width="80" height="60" fill="white"/>
</clipPath>
</defs>
</svg>
