<svg width="80" height="60" viewBox="0 0 80 60" fill="none" xmlns="http://www.w3.org/2000/svg">
<g clip-path="url(#clip0_3736_60995)">
<mask id="mask0_3736_60995" style="mask-type:luminance" maskUnits="userSpaceOnUse" x="0" y="0" width="80" height="60">
<path d="M0 0H80V60H0V0Z" fill="white"/>
</mask>
<g mask="url(#mask0_3736_60995)">
<path fill-rule="evenodd" clip-rule="evenodd" d="M-0.412598 -2.7002H87.3749V66.4248H-0.412598V-2.7002Z" fill="#EF2D29"/>
<path fill-rule="evenodd" clip-rule="evenodd" d="M21.8247 39.6631H88.7872V65.6256H21.8247V39.6631Z" fill="#009025"/>
<path fill-rule="evenodd" clip-rule="evenodd" d="M21.825 -4.4248H92.4375V19.3252H21.8125L21.825 -4.4248Z" fill="white"/>
<path d="M17.4995 8.69922H14.6314C14.4766 8.69922 14.3511 8.8164 14.3511 8.96094V10.3228C14.3511 10.4673 14.4766 10.5845 14.6314 10.5845H17.4995C17.6543 10.5845 17.7798 10.4673 17.7798 10.3228V8.96094C17.7798 8.8164 17.6543 8.69922 17.4995 8.69922Z" fill="white" stroke="#EF2D28" stroke-width="0.0328414"/>
<path d="M17.4276 8.7793H14.7059C14.5593 8.7793 14.4404 8.88754 14.4404 9.02106V10.2676C14.4404 10.4011 14.5593 10.5093 14.7059 10.5093H17.4276C17.5742 10.5093 17.693 10.4011 17.693 10.2676V9.02106C17.693 8.88754 17.5742 8.7793 17.4276 8.7793Z" fill="white" stroke="#EF2D28" stroke-width="0.0304956"/>
<path fill-rule="evenodd" clip-rule="evenodd" d="M15.9529 9.24805L16.1169 9.25454L16.1236 9.32982L16.2588 9.39861L16.3636 9.31165L16.4903 9.38044L16.372 9.45572L16.4007 9.55956L16.5494 9.55307V9.68936L16.4311 9.68417L16.3703 9.76983L16.5055 9.86718L16.4007 9.94765L16.2875 9.86199L16.1236 9.89574L16.1321 10.0216L15.9529 10.0346L15.9293 9.91261L15.7806 9.85031L15.6978 9.93597L15.5711 9.87237L15.6454 9.77502L15.5559 9.71272H15.4291L15.4224 9.5349L15.5491 9.54658L15.6387 9.44274L15.5339 9.36227L15.6691 9.27141L15.7654 9.34539L15.9293 9.32203L15.9529 9.24805Z" fill="white" stroke="#EF2D28" stroke-width="0.0192526"/>
<path d="M15.9996 9.77617C16.0997 9.77617 16.1809 9.70713 16.1809 9.62197C16.1809 9.53681 16.0997 9.46777 15.9996 9.46777C15.8995 9.46777 15.8184 9.53681 15.8184 9.62197C15.8184 9.70713 15.8995 9.77617 15.9996 9.77617Z" fill="white" stroke="#EF2D28" stroke-width="0.0207327"/>
<path fill-rule="evenodd" clip-rule="evenodd" d="M14.8798 8.85645L14.6143 9.09155L14.8798 8.85645ZM15.0559 8.85645L14.7904 9.09155L15.0559 8.85645ZM15.2296 8.85645L14.9666 9.09155L15.2296 8.85645ZM15.4057 8.85645L15.1428 9.09155L15.4057 8.85645ZM15.5819 8.85645L15.3189 9.09155L15.5819 8.85645ZM15.758 8.85645L15.4951 9.09155L15.758 8.85645ZM15.9342 8.85645L15.6712 9.09155L15.9342 8.85645ZM16.1103 8.85645L15.8474 9.09155L16.1103 8.85645ZM16.2865 8.85645L16.021 9.09155L16.2865 8.85645ZM16.4626 8.85645L16.1947 9.09155L16.4626 8.85645ZM16.6338 8.85645L16.3708 9.09155L16.6338 8.85645ZM16.81 8.85645L16.547 9.09155L16.81 8.85645ZM16.1079 8.85645L15.8474 9.09155L16.1079 8.85645ZM16.9886 8.85645L16.7256 9.09155L16.9886 8.85645ZM17.1648 8.85645L16.9018 9.09155L17.1648 8.85645ZM17.3409 8.85645L17.0779 9.09155L17.3409 8.85645ZM17.5171 8.85645L17.2541 9.09155L17.5171 8.85645ZM17.2541 8.85645L17.5171 9.09155L17.2541 8.85645ZM17.0779 8.85645L17.3409 9.09155L17.0779 8.85645ZM16.9018 8.85645L17.1648 9.09155L16.9018 8.85645ZM16.7256 8.85645L16.9886 9.09155L16.7256 8.85645ZM16.5495 8.85645L16.8125 9.09155L16.5495 8.85645ZM16.3733 8.85645L16.6363 9.09155L16.3733 8.85645ZM16.1972 8.85645L16.4626 9.09155L16.1972 8.85645ZM16.021 8.85645L16.284 9.09155L16.021 8.85645ZM15.8424 8.85645L16.1079 9.09155L15.8424 8.85645ZM15.6687 8.85645L15.9317 9.09155L15.6687 8.85645ZM15.4926 8.85645L15.7556 9.09155L15.4926 8.85645ZM15.3164 8.85645L15.5794 9.09155L15.3164 8.85645ZM16.021 8.85645L16.284 9.09155L16.021 8.85645ZM15.1428 8.85645L15.4033 9.09155L15.1428 8.85645ZM14.9641 8.85645L15.2296 9.09155L14.9641 8.85645ZM14.788 8.85645L15.0534 9.09155L14.788 8.85645ZM14.6118 8.85645L14.8798 9.09155L14.6118 8.85645ZM14.8798 10.1917L14.6168 10.429L14.8798 10.1917ZM15.0534 10.1917L14.788 10.429L15.0534 10.1917ZM15.2321 10.1917L14.9666 10.429L15.2321 10.1917ZM15.4057 10.1917L15.1428 10.429L15.4057 10.1917ZM15.5819 10.1917L15.3189 10.429L15.5819 10.1917ZM15.758 10.1917L15.4951 10.429L15.758 10.1917ZM15.9342 10.1917L15.6737 10.429L15.9342 10.1917ZM16.1103 10.1917L15.8474 10.429L16.1103 10.1917ZM16.2865 10.1917L16.021 10.429L16.2865 10.1917ZM16.4602 10.1917L16.1947 10.429L16.4602 10.1917ZM16.6413 10.1917L16.3758 10.429L16.6413 10.1917ZM16.8149 10.1917L16.552 10.429L16.8149 10.1917ZM16.1103 10.1917L15.8474 10.429L16.1103 10.1917ZM16.9886 10.1917L16.7256 10.429L16.9886 10.1917ZM17.1648 10.1917L16.9018 10.429L17.1648 10.1917ZM17.3409 10.1917L17.0779 10.429L17.3409 10.1917ZM17.5171 10.1917L17.2541 10.429L17.5171 10.1917ZM17.2541 10.1917L17.5171 10.429L17.2541 10.1917ZM17.0779 10.1917L17.3409 10.429L17.0779 10.1917ZM16.9018 10.1917L17.1648 10.429L16.9018 10.1917ZM16.7256 10.1917L16.9886 10.429L16.7256 10.1917ZM16.5495 10.1917L16.8125 10.429L16.5495 10.1917ZM16.3733 10.1917L16.6388 10.429L16.3733 10.1917ZM16.1947 10.1917L16.4602 10.429L16.1947 10.1917ZM16.021 10.1917L16.284 10.429L16.021 10.1917ZM15.8474 10.1917L16.1103 10.429L15.8474 10.1917ZM15.6712 10.1917L15.9342 10.429L15.6712 10.1917ZM15.4951 10.1917L15.758 10.429L15.4951 10.1917ZM15.3189 10.1917L15.5819 10.429L15.3189 10.1917ZM16.0235 10.1917L16.2865 10.429L16.0235 10.1917ZM15.1452 10.1917L15.4057 10.429L15.1452 10.1917ZM14.9666 10.1917L15.2321 10.429L14.9666 10.1917ZM14.7904 10.1917L15.0559 10.429L14.7904 10.1917ZM14.6168 10.1917L14.8798 10.429L14.6168 10.1917Z" fill="white"/>
<path d="M14.8798 8.85645L14.6143 9.09155M15.0559 8.85645L14.7904 9.09155M15.2296 8.85645L14.9666 9.09155M15.4057 8.85645L15.1428 9.09155M15.5819 8.85645L15.3189 9.09155M15.758 8.85645L15.4951 9.09155M15.9342 8.85645L15.6712 9.09155M16.1103 8.85645L15.8474 9.09155L16.1079 8.85645M16.2865 8.85645L16.021 9.09155M16.4626 8.85645L16.1947 9.09155M16.6338 8.85645L16.3708 9.09155M16.81 8.85645L16.547 9.09155M16.9886 8.85645L16.7256 9.09155M17.1648 8.85645L16.9018 9.09155M17.3409 8.85645L17.0779 9.09155M17.5171 8.85645L17.2541 9.09155M17.2541 8.85645L17.5171 9.09155M17.0779 8.85645L17.3409 9.09155M16.9018 8.85645L17.1648 9.09155M16.7256 8.85645L16.9886 9.09155M16.5495 8.85645L16.8125 9.09155M16.3733 8.85645L16.6363 9.09155M16.1972 8.85645L16.4626 9.09155M16.021 8.85645L16.284 9.09155M15.8424 8.85645L16.1079 9.09155M15.6687 8.85645L15.9317 9.09155M15.4926 8.85645L15.7556 9.09155M15.3164 8.85645L15.5794 9.09155M15.1428 8.85645L15.4033 9.09155M14.9641 8.85645L15.2296 9.09155M14.788 8.85645L15.0534 9.09155M14.6118 8.85645L14.8798 9.09155M14.8798 10.1917L14.6168 10.429M15.0534 10.1917L14.788 10.429M15.2321 10.1917L14.9666 10.429M15.4057 10.1917L15.1428 10.429M15.5819 10.1917L15.3189 10.429M15.758 10.1917L15.4951 10.429M15.9342 10.1917L15.6737 10.429M16.1103 10.1917L15.8474 10.429M16.2865 10.1917L16.021 10.429M16.4602 10.1917L16.1947 10.429M16.6413 10.1917L16.3758 10.429M16.8149 10.1917L16.552 10.429M16.9886 10.1917L16.7256 10.429M17.1648 10.1917L16.9018 10.429M17.3409 10.1917L17.0779 10.429M17.5171 10.1917L17.2541 10.429M17.2541 10.1917L17.5171 10.429M17.0779 10.1917L17.3409 10.429M16.9018 10.1917L17.1648 10.429M16.7256 10.1917L16.9886 10.429M16.5495 10.1917L16.8125 10.429M16.3733 10.1917L16.6388 10.429M16.1947 10.1917L16.4602 10.429M16.021 10.1917L16.284 10.429M15.8474 10.1917L16.1103 10.429M15.6712 10.1917L15.9342 10.429M15.4951 10.1917L15.758 10.429M15.3189 10.1917L15.5819 10.429M16.0235 10.1917L16.2865 10.429M15.1452 10.1917L15.4057 10.429M14.9666 10.1917L15.2321 10.429M14.7904 10.1917L15.0559 10.429M14.6168 10.1917L14.8798 10.429" stroke="#EF2D28" stroke-width="0.0304956"/>
<path d="M5.97456 8.62402H3.10652C2.95169 8.62402 2.82617 8.7412 2.82617 8.88575V10.2476C2.82617 10.3921 2.95169 10.5093 3.10652 10.5093H5.97456C6.1294 10.5093 6.25491 10.3921 6.25491 10.2476V8.88575C6.25491 8.7412 6.1294 8.62402 5.97456 8.62402Z" fill="white" stroke="#EF2D28" stroke-width="0.0328414"/>
<path d="M5.90265 8.7041H3.18099C3.03438 8.7041 2.91553 8.81234 2.91553 8.94586V10.1924C2.91553 10.3259 3.03438 10.4341 3.18099 10.4341H5.90265C6.04926 10.4341 6.16812 10.3259 6.16812 10.1924V8.94586C6.16812 8.81234 6.04926 8.7041 5.90265 8.7041Z" fill="white" stroke="#EF2D28" stroke-width="0.0304956"/>
<path fill-rule="evenodd" clip-rule="evenodd" d="M4.42805 9.17285L4.59195 9.17934L4.59871 9.25462L4.73389 9.32342L4.83866 9.23645L4.96539 9.30525L4.84711 9.38053L4.87583 9.48437L5.02453 9.47788V9.61416L4.90625 9.60897L4.84542 9.69464L4.9806 9.79199L4.87583 9.87246L4.76262 9.78679L4.59871 9.82054L4.60716 9.94644L4.42805 9.95942L4.40439 9.83741L4.25569 9.77511L4.17289 9.86078L4.04616 9.79718L4.12051 9.69983L4.03095 9.63753H3.90422L3.89746 9.4597L4.02419 9.47139L4.11375 9.36755L4.00899 9.28707L4.14417 9.19621L4.24048 9.2702L4.40439 9.24684L4.42805 9.17285Z" fill="white" stroke="#EF2D28" stroke-width="0.0192526"/>
<path d="M4.47472 9.70098C4.57482 9.70098 4.65598 9.63194 4.65598 9.54678C4.65598 9.46162 4.57482 9.39258 4.47472 9.39258C4.37461 9.39258 4.29346 9.46162 4.29346 9.54678C4.29346 9.63194 4.37461 9.70098 4.47472 9.70098Z" fill="white" stroke="#EF2D28" stroke-width="0.0207327"/>
<path fill-rule="evenodd" clip-rule="evenodd" d="M3.35486 8.78125L3.0894 9.01636L3.35486 8.78125ZM3.53101 8.78125L3.26555 9.01636L3.53101 8.78125ZM3.70468 8.78125L3.4417 9.01636L3.70468 8.78125ZM3.88083 8.78125L3.61785 9.01636L3.88083 8.78125ZM4.05699 8.78125L3.794 9.01636L4.05699 8.78125ZM4.23314 8.78125L3.97015 9.01636L4.23314 8.78125ZM4.40929 8.78125L4.1463 9.01636L4.40929 8.78125ZM4.58544 8.78125L4.32245 9.01636L4.58544 8.78125ZM4.76159 8.78125L4.49612 9.01636L4.76159 8.78125ZM4.93774 8.78125L4.66979 9.01636L4.93774 8.78125ZM5.10893 8.78125L4.84594 9.01636L5.10893 8.78125ZM5.28508 8.78125L5.02209 9.01636L5.28508 8.78125ZM4.58296 8.78125L4.32245 9.01636L4.58296 8.78125ZM5.46371 8.78125L5.20073 9.01636L5.46371 8.78125ZM5.63986 8.78125L5.37688 9.01636L5.63986 8.78125ZM5.81601 8.78125L5.55303 9.01636L5.81601 8.78125ZM5.99217 8.78125L5.72918 9.01636L5.99217 8.78125ZM5.72918 8.78125L5.99217 9.01636L5.72918 8.78125ZM5.55303 8.78125L5.81601 9.01636L5.55303 8.78125ZM5.37688 8.78125L5.63986 9.01636L5.37688 8.78125ZM5.20073 8.78125L5.46371 9.01636L5.20073 8.78125ZM5.02458 8.78125L5.28756 9.01636L5.02458 8.78125ZM4.84842 8.78125L5.11141 9.01636L4.84842 8.78125ZM4.67227 8.78125L4.93774 9.01636L4.67227 8.78125ZM4.49612 8.78125L4.75911 9.01636L4.49612 8.78125ZM4.31749 8.78125L4.58296 9.01636L4.31749 8.78125ZM4.14382 8.78125L4.40681 9.01636L4.14382 8.78125ZM3.96767 8.78125L4.23066 9.01636L3.96767 8.78125ZM3.79152 8.78125L4.0545 9.01636L3.79152 8.78125ZM4.49612 8.78125L4.75911 9.01636L4.49612 8.78125ZM3.61785 8.78125L3.87835 9.01636L3.61785 8.78125ZM3.43922 8.78125L3.70468 9.01636L3.43922 8.78125ZM3.26307 8.78125L3.52853 9.01636L3.26307 8.78125ZM3.08691 8.78125L3.35486 9.01636L3.08691 8.78125ZM3.35486 10.1165L3.09188 10.3538L3.35486 10.1165ZM3.52853 10.1165L3.26307 10.3538L3.52853 10.1165ZM3.70716 10.1165L3.4417 10.3538L3.70716 10.1165ZM3.88083 10.1165L3.61785 10.3538L3.88083 10.1165ZM4.05699 10.1165L3.794 10.3538L4.05699 10.1165ZM4.23314 10.1165L3.97015 10.3538L4.23314 10.1165ZM4.40929 10.1165L4.14878 10.3538L4.40929 10.1165ZM4.58544 10.1165L4.32245 10.3538L4.58544 10.1165ZM4.76159 10.1165L4.49612 10.3538L4.76159 10.1165ZM4.93526 10.1165L4.66979 10.3538L4.93526 10.1165ZM5.11637 10.1165L4.85091 10.3538L5.11637 10.1165ZM5.29004 10.1165L5.02706 10.3538L5.29004 10.1165ZM4.58544 10.1165L4.32245 10.3538L4.58544 10.1165ZM5.46371 10.1165L5.20073 10.3538L5.46371 10.1165ZM5.63986 10.1165L5.37688 10.3538L5.63986 10.1165ZM5.81601 10.1165L5.55303 10.3538L5.81601 10.1165ZM5.99217 10.1165L5.72918 10.3538L5.99217 10.1165ZM5.72918 10.1165L5.99217 10.3538L5.72918 10.1165ZM5.55303 10.1165L5.81601 10.3538L5.55303 10.1165ZM5.37688 10.1165L5.63986 10.3538L5.37688 10.1165ZM5.20073 10.1165L5.46371 10.3538L5.20073 10.1165ZM5.02458 10.1165L5.28756 10.3538L5.02458 10.1165ZM4.84842 10.1165L5.11389 10.3538L4.84842 10.1165ZM4.66979 10.1165L4.93526 10.3538L4.66979 10.1165ZM4.49612 10.1165L4.75911 10.3538L4.49612 10.1165ZM4.32245 10.1165L4.58544 10.3538L4.32245 10.1165ZM4.1463 10.1165L4.40929 10.3538L4.1463 10.1165ZM3.97015 10.1165L4.23314 10.3538L3.97015 10.1165ZM3.794 10.1165L4.05699 10.3538L3.794 10.1165ZM4.4986 10.1165L4.76159 10.3538L4.4986 10.1165ZM3.62033 10.1165L3.88083 10.3538L3.62033 10.1165ZM3.4417 10.1165L3.70716 10.3538L3.4417 10.1165ZM3.26555 10.1165L3.53101 10.3538L3.26555 10.1165ZM3.09188 10.1165L3.35486 10.3538L3.09188 10.1165Z" fill="white"/>
<path d="M3.35486 8.78125L3.0894 9.01636M3.53101 8.78125L3.26555 9.01636M3.70468 8.78125L3.4417 9.01636M3.88083 8.78125L3.61785 9.01636M4.05699 8.78125L3.794 9.01636M4.23314 8.78125L3.97015 9.01636M4.40929 8.78125L4.1463 9.01636M4.58544 8.78125L4.32245 9.01636L4.58296 8.78125M4.76159 8.78125L4.49612 9.01636M4.93774 8.78125L4.66979 9.01636M5.10893 8.78125L4.84594 9.01636M5.28508 8.78125L5.02209 9.01636M5.46371 8.78125L5.20073 9.01636M5.63986 8.78125L5.37688 9.01636M5.81601 8.78125L5.55303 9.01636M5.99217 8.78125L5.72918 9.01636M5.72918 8.78125L5.99217 9.01636M5.55303 8.78125L5.81601 9.01636M5.37688 8.78125L5.63986 9.01636M5.20073 8.78125L5.46371 9.01636M5.02458 8.78125L5.28756 9.01636M4.84842 8.78125L5.11141 9.01636M4.67227 8.78125L4.93774 9.01636M4.49612 8.78125L4.75911 9.01636M4.31749 8.78125L4.58296 9.01636M4.14382 8.78125L4.40681 9.01636M3.96767 8.78125L4.23066 9.01636M3.79152 8.78125L4.0545 9.01636M3.61785 8.78125L3.87835 9.01636M3.43922 8.78125L3.70468 9.01636M3.26307 8.78125L3.52853 9.01636M3.08691 8.78125L3.35486 9.01636M3.35486 10.1165L3.09188 10.3538M3.52853 10.1165L3.26307 10.3538M3.70716 10.1165L3.4417 10.3538M3.88083 10.1165L3.61785 10.3538M4.05699 10.1165L3.794 10.3538M4.23314 10.1165L3.97015 10.3538M4.40929 10.1165L4.14878 10.3538M4.58544 10.1165L4.32245 10.3538M4.76159 10.1165L4.49612 10.3538M4.93526 10.1165L4.66979 10.3538M5.11637 10.1165L4.85091 10.3538M5.29004 10.1165L5.02706 10.3538M5.46371 10.1165L5.20073 10.3538M5.63986 10.1165L5.37688 10.3538M5.81601 10.1165L5.55303 10.3538M5.99217 10.1165L5.72918 10.3538M5.72918 10.1165L5.99217 10.3538M5.55303 10.1165L5.81601 10.3538M5.37688 10.1165L5.63986 10.3538M5.20073 10.1165L5.46371 10.3538M5.02458 10.1165L5.28756 10.3538M4.84842 10.1165L5.11389 10.3538M4.66979 10.1165L4.93526 10.3538M4.49612 10.1165L4.75911 10.3538M4.32245 10.1165L4.58544 10.3538M4.1463 10.1165L4.40929 10.3538M3.97015 10.1165L4.23314 10.3538M3.794 10.1165L4.05699 10.3538M4.4986 10.1165L4.76159 10.3538M3.62033 10.1165L3.88083 10.3538M3.4417 10.1165L3.70716 10.3538M3.26555 10.1165L3.53101 10.3538M3.09188 10.1165L3.35486 10.3538" stroke="#EF2D28" stroke-width="0.0304956"/>
<path fill-rule="evenodd" clip-rule="evenodd" d="M8.20911 12.5698C3.94291 16.7538 2.123 17.2824 2.97862 17.6201C3.83424 17.9578 6.58073 15.7979 9.43812 12.9316C12.2955 10.0652 14.0458 7.51216 13.1902 7.17445C12.3346 6.83674 12.7479 8.12346 8.20911 12.5698Z" fill="white" stroke="#EF2D28" stroke-width="0.0510375"/>
<path fill-rule="evenodd" clip-rule="evenodd" d="M4.62359 15.6143L6.11963 16.0068C4.7129 17.3443 3.13002 17.8921 2.69089 17.657C2.25175 17.4219 3.48233 16.8719 4.62607 15.6165L4.62359 15.6143Z" fill="white" stroke="#EF2D28" stroke-width="0.0281498"/>
<path fill-rule="evenodd" clip-rule="evenodd" d="M4.62293 15.7705L5.85547 16.084C4.48517 17.3701 3.12938 17.7348 2.77895 17.5769C2.4261 17.4213 3.51122 16.9798 4.62293 15.7705Z" fill="white" stroke="#EF2D28" stroke-width="0.0295141"/>
<path d="M9.20508 12.3916C9.20158 12.4118 9.1911 12.5018 9.18236 12.5375C9.18236 12.5871 9.17712 12.6244 9.17188 12.6632C9.1579 12.6973 9.15965 12.7283 9.11772 12.7407C9.09835 12.7718 9.06748 12.7959 9.03035 12.809C8.99678 12.8329 8.95976 12.8528 8.92028 12.868C8.87897 12.8839 8.83287 12.8872 8.78923 12.8773C8.75079 12.854 8.72284 12.8292 8.69139 12.809C8.6844 12.778 8.67741 12.733 8.66867 12.702C8.68232 12.7433 8.68995 12.7861 8.69139 12.8292C8.68789 12.8757 8.66867 12.8975 8.64771 12.9347" stroke="#EF2D28" stroke-width="0.0296388"/>
<path d="M8.80848 13.0413L8.798 13.032C8.8242 13.0553 8.81372 13.0444 8.75431 13.0119C8.71238 12.9932 8.66695 12.9839 8.61279 12.9746H8.45903C8.39962 12.9746 8.35944 12.9824 8.3175 12.9932C8.28605 13.0212 8.24062 13.0367 8.20743 13.0615C8.17792 13.0813 8.15547 13.1082 8.14278 13.1391C8.11307 13.1655 8.09385 13.2058 8.0659 13.226C8.05367 13.271 8.02921 13.2694 8.01173 13.3036C8.06415 13.3067 8.10434 13.3129 8.13229 13.3424C8.17772 13.3625 8.09385 13.3222 8.07638 13.3036C8.04144 13.2943 8.0327 13.285 7.97854 13.285C7.92961 13.2694 7.89816 13.2958 7.84749 13.3036C7.81779 13.3191 7.80905 13.3238 7.77061 13.3238" stroke="#EF2D28" stroke-width="0.0296388"/>
<path d="M8.22021 13.5241C8.1975 13.5241 8.09616 13.5412 8.05597 13.5241C8.01054 13.5133 7.98608 13.4931 7.95813 13.4558C7.94415 13.4295 7.95813 13.5024 7.95813 13.5334C7.95289 13.5908 7.93367 13.5908 7.90222 13.6296C7.87077 13.6483 7.83757 13.6731 7.80437 13.6886C7.77525 13.7097 7.74211 13.726 7.70652 13.7367C7.67158 13.7522 7.63489 13.7646 7.60868 13.7848C7.57199 13.8081 7.57373 13.836 7.55277 13.8733C7.55801 13.9198 7.56674 13.9477 7.59645 13.9695C7.61042 14.0021 7.63838 14.0346 7.66284 14.0564C7.68905 14.1029 7.7205 14.1231 7.65236 14.134C7.61392 14.1495 7.59295 14.1371 7.55277 14.134" stroke="#EF2D28" stroke-width="0.0296388"/>
<path d="M7.52734 14.2004C7.49939 14.1942 7.40504 14.1663 7.3631 14.1523H7.20934C7.15169 14.157 7.13945 14.1725 7.09053 14.1911C7.05733 14.2206 7.03637 14.2408 6.99094 14.2594C6.96822 14.2858 6.92105 14.3323 6.90358 14.3665C6.88919 14.4066 6.88212 14.4485 6.88261 14.4906C6.88261 14.548 6.90008 14.5589 6.90358 14.6086C6.91581 14.6512 6.93848 14.691 6.96997 14.7249C6.97521 14.7374 6.97871 14.7405 6.99094 14.7436" stroke="#EF2D28" stroke-width="0.0296388"/>
<path d="M7.01221 14.8702C7.00725 14.8702 6.99732 14.8947 6.98119 14.9155C6.94522 14.9523 6.9415 14.9547 6.88816 14.9547C6.83854 14.9523 6.84474 14.9351 6.81 14.9241C6.79388 14.8996 6.77403 14.88 6.75542 14.8469C6.74302 14.8273 6.73185 14.7967 6.71821 14.7783C6.70332 14.7551 6.68596 14.7379 6.67107 14.7171C6.65618 14.711 6.65122 14.7048 6.63137 14.7012C6.67603 14.7085 6.68099 14.7244 6.70952 14.7477C6.72359 14.7699 6.73643 14.7928 6.74798 14.8163C6.75294 14.8494 6.76287 14.8751 6.76411 14.9155C6.76411 14.9584 6.76411 14.9878 6.74798 15.0233C6.72937 15.0417 6.71697 15.0613 6.6934 15.0772C6.67379 15.096 6.65594 15.1165 6.64006 15.1385L6.56935 15.1838C6.54702 15.1972 6.52097 15.2107 6.48499 15.2144C6.4391 15.2107 6.42545 15.1985 6.39196 15.1838C6.36219 15.1629 6.33986 15.1495 6.3138 15.1299C6.29243 15.1125 6.274 15.0918 6.25922 15.0686C6.21829 15.0588 6.191 15.0625 6.16619 15.0846C6.14514 15.0991 6.12705 15.1173 6.11284 15.1385C6.10044 15.1446 6.07811 15.1629 6.0657 15.1691" stroke="#EF2D28" stroke-width="0.0283512"/>
<path d="M6.15479 15.1934C6.16712 15.1979 6.21339 15.23 6.2319 15.2407C6.24424 15.282 6.26429 15.3034 6.27045 15.3478C6.28125 15.3875 6.28125 15.4334 6.28125 15.4807C6.27045 15.5297 6.25041 15.5648 6.2319 15.603C6.20105 15.6244 6.18563 15.6397 6.14553 15.6611C6.10698 15.6672 6.06842 15.6718 6.02061 15.6718C5.98976 15.681 5.93424 15.6856 5.90494 15.6718C5.86176 15.6657 5.82937 15.6489 5.79853 15.6336C5.76305 15.6137 5.74146 15.5939 5.70291 15.5755C5.68286 15.548 5.65355 15.522 5.62579 15.4899C5.60112 15.4578 5.58415 15.4395 5.56719 15.4043C5.58261 15.4441 5.60266 15.4807 5.615 15.519C5.63813 15.5587 5.65047 15.574 5.65355 15.6229C5.66898 15.6626 5.66435 15.7116 5.66435 15.7574C5.65972 15.788 5.65818 15.8461 5.6443 15.8721V15.9011" stroke="#EF2D28" stroke-width="0.029173"/>
<path d="M4.73232 16.0515V16.067C4.73232 16.0293 4.73232 16.047 4.74969 16.1224C4.77698 16.1535 4.84893 16.1624 4.90351 16.1491C4.95313 16.1114 4.95313 16.0825 5.04245 16.067C5.13176 16.0714 5.1665 16.0936 5.21612 16.1224C5.26888 16.14 5.31288 16.1738 5.34017 16.2178C5.35753 16.2644 5.36746 16.2977 5.30791 16.3154C5.25605 16.3465 5.19637 16.3655 5.13424 16.3709C5.06478 16.3709 5.01267 16.3642 4.98042 16.3997C4.9308 16.4441 4.93576 16.4707 4.93576 16.5505C4.9184 16.5749 4.91591 16.6481 4.90351 16.6769C4.86081 16.697 4.81274 16.7063 4.76457 16.7036C4.74721 16.6592 4.72984 16.5838 4.71743 16.5372C4.70503 16.4884 4.70255 16.4174 4.6703 16.3842C4.64185 16.346 4.60567 16.3129 4.56361 16.2866C4.53852 16.2611 4.5058 16.2427 4.46933 16.2333C4.53136 16.26 4.5388 16.291 4.54625 16.3576C4.49415 16.3797 4.47926 16.3975 4.39242 16.3997C4.30559 16.393 4.28574 16.3731 4.25349 16.3287C4.24605 16.3997 4.22124 16.4219 4.20387 16.484C4.1741 16.5239 4.16169 16.566 4.12944 16.6215C4.14184 16.688 4.17162 16.6903 4.1741 16.7723C4.19394 16.8278 4.19394 16.8788 4.23612 16.9121C4.25597 16.9342 4.27086 16.9365 4.31551 16.9387C4.2262 16.9387 4.17162 16.9298 4.11207 16.8987C4.06741 16.8721 4.03268 16.8411 3.98802 16.8145C3.93205 16.7768 3.86906 16.7482 3.80195 16.7302C3.73 16.7302 3.6779 16.7235 3.64812 16.759C3.60347 16.7878 3.57369 16.8366 3.55385 16.8987C3.54144 16.9697 3.534 17.0185 3.57121 17.0651C3.59602 17.1183 3.60347 17.1383 3.57121 17.2026C3.534 17.247 3.4819 17.2536 3.39754 17.2714C3.34048 17.2692 3.28342 17.2581 3.24372 17.2448" stroke="#EF2D28" stroke-width="0.0281498"/>
<path fill-rule="evenodd" clip-rule="evenodd" d="M13.0819 8.79742C14.9738 5.5226 16.2286 2.73202 15.8865 2.57406C15.5408 2.41446 13.7253 4.9461 11.8333 8.22093L13.0819 8.79742Z" fill="white" stroke="#EF2D28" stroke-width="0.0387692"/>
<path fill-rule="evenodd" clip-rule="evenodd" d="M12.9568 8.74227C14.782 5.58302 16.0389 2.91237 15.7652 2.786C15.4887 2.65832 13.7831 5.12182 11.9579 8.28107" fill="white"/>
<path d="M12.9568 8.74227C14.782 5.58302 16.0389 2.91237 15.7652 2.786C15.4887 2.65832 13.7831 5.12182 11.9579 8.28107" stroke="#EF2D28" stroke-width="0.0340592"/>
<path fill-rule="evenodd" clip-rule="evenodd" d="M12.6436 7.09465C12.4214 7.46385 12.186 7.88685 11.9583 8.28099L12.9599 8.74349C13.1876 8.34936 13.4372 7.93286 13.6453 7.55715L12.6436 7.09465Z" fill="white" stroke="#EF2D28" stroke-width="0.0386549"/>
<path fill-rule="evenodd" clip-rule="evenodd" d="M12.7306 7.22166C12.5072 7.59284 12.3537 7.87396 12.1249 8.27006L12.8726 8.61531C13.1003 8.22117 13.2702 7.94263 13.4783 7.56691L12.7306 7.22166Z" fill="white" stroke="#EF2D28" stroke-width="0.0386549"/>
<path fill-rule="evenodd" clip-rule="evenodd" d="M13.2739 7.65005L12.7731 7.4188L12.3291 8.18736L12.8299 8.41861L13.2739 7.65005ZM13.2739 7.65005L12.3291 8.18736L13.2739 7.65005ZM12.8299 8.41861L12.7731 7.4188L12.8299 8.41861ZM15.5327 3.74023L15.0319 3.50898L15.5327 3.74023Z" fill="white"/>
<path d="M13.2739 7.65005L12.7731 7.41879M13.2739 7.65005L12.8299 8.41861M13.2739 7.65005L12.3291 8.18736M12.7731 7.41879L12.3291 8.18736M12.7731 7.41879L12.8299 8.41861M12.3291 8.18736L12.8299 8.41861M15.5327 3.74023L15.0319 3.50898" stroke="#EF2D28" stroke-width="0.0386549"/>
<path d="M15.53 3.37701C15.4531 3.39647 15.3766 3.35737 15.3592 3.28968C15.3419 3.222 15.3902 3.15136 15.4671 3.1319C15.5441 3.11245 15.6205 3.15155 15.6379 3.21923C15.6553 3.28692 15.607 3.35756 15.53 3.37701Z" fill="#EF0000" stroke="#EF2D28" stroke-width="0.0500864"/>
<path fill-rule="evenodd" clip-rule="evenodd" d="M12.3402 12.4955C16.6064 16.6796 18.4263 17.2081 17.5707 17.5459C16.7151 17.8836 13.9686 15.7237 11.1112 12.8574C8.2538 9.99103 6.50352 7.43794 7.35914 7.10023C8.21476 6.76252 7.80141 8.04924 12.3402 12.4955Z" fill="white" stroke="#EF2D28" stroke-width="0.0510375"/>
<path fill-rule="evenodd" clip-rule="evenodd" d="M15.9262 15.54L14.4302 15.9326C15.8369 17.2701 17.4198 17.8179 17.8589 17.5828C18.2981 17.3477 17.0675 16.7976 15.9237 15.5423L15.9262 15.54Z" fill="white" stroke="#EF2D28" stroke-width="0.0281498"/>
<path fill-rule="evenodd" clip-rule="evenodd" d="M15.9264 15.6826L14.6938 15.9961C16.0641 17.2822 17.4199 17.6469 17.7704 17.4891C18.1232 17.3334 17.0381 16.8919 15.9264 15.6826Z" fill="white" stroke="#EF2D28" stroke-width="0.0295141"/>
<path d="M11.3442 12.3037C11.3477 12.3239 11.3582 12.4139 11.367 12.4496C11.367 12.4992 11.3722 12.5365 11.3774 12.5753C11.3914 12.6094 11.3897 12.6404 11.4316 12.6529C11.451 12.6839 11.4818 12.708 11.519 12.7211C11.5525 12.745 11.5896 12.7649 11.629 12.7801C11.6703 12.796 11.7165 12.7993 11.7601 12.7894C11.7985 12.7661 11.8265 12.7413 11.8579 12.7211C11.8649 12.6901 11.8719 12.6451 11.8806 12.6141C11.867 12.6554 11.8594 12.6982 11.8579 12.7413C11.8614 12.7879 11.8806 12.8096 11.9016 12.8468" stroke="#EF2D28" stroke-width="0.0296388"/>
<path d="M11.7408 12.9534L11.7513 12.9441C11.7251 12.9674 11.7356 12.9565 11.795 12.924C11.8369 12.9053 11.8824 12.896 11.9365 12.8867H12.0903C12.1497 12.8867 12.1899 12.8945 12.2318 12.9053C12.2633 12.9333 12.3087 12.9488 12.3419 12.9736C12.3714 12.9934 12.3938 13.0204 12.4065 13.0512C12.4362 13.0776 12.4555 13.1179 12.4834 13.1381C12.4956 13.1831 12.5201 13.1816 12.5376 13.2157C12.4852 13.2188 12.445 13.225 12.417 13.2545C12.3716 13.2747 12.4555 13.2343 12.4729 13.2157C12.5079 13.2064 12.5166 13.1971 12.5708 13.1971C12.6197 13.1816 12.6512 13.2079 12.7018 13.2157C12.7315 13.2312 12.7403 13.2359 12.7787 13.2359" stroke="#EF2D28" stroke-width="0.0296388"/>
<path d="M12.3296 13.4489C12.3523 13.4489 12.4536 13.466 12.4938 13.4489C12.5393 13.4381 12.5637 13.4179 12.5917 13.3806C12.6057 13.3543 12.5917 13.4272 12.5917 13.4582C12.5969 13.5156 12.6161 13.5156 12.6476 13.5544C12.679 13.5731 12.7122 13.5979 12.7454 13.6134C12.7746 13.6345 12.8077 13.6508 12.8433 13.6615C12.8782 13.677 12.9149 13.6894 12.9411 13.7096C12.9778 13.7329 12.9761 13.7608 12.997 13.7981C12.9918 13.8446 12.9831 13.8725 12.9534 13.8943C12.9394 13.9269 12.9114 13.9594 12.887 13.9812C12.8608 14.0277 12.8293 14.0479 12.8974 14.0588C12.9359 14.0743 12.9569 14.0619 12.997 14.0588" stroke="#EF2D28" stroke-width="0.0296388"/>
<path d="M13.022 14.1253C13.0499 14.119 13.1443 14.0911 13.1862 14.0771H13.34C13.3976 14.0818 13.4099 14.0973 13.4588 14.1159C13.492 14.1454 13.5129 14.1656 13.5584 14.1842C13.5811 14.2106 13.6283 14.2572 13.6457 14.2913C13.6601 14.3314 13.6672 14.3733 13.6667 14.4154C13.6667 14.4728 13.6492 14.4837 13.6457 14.5334C13.6335 14.576 13.6108 14.6158 13.5793 14.6497C13.5741 14.6622 13.5706 14.6653 13.5584 14.6684" stroke="#EF2D28" stroke-width="0.0296388"/>
<path d="M13.5498 14.795C13.5548 14.795 13.5647 14.8195 13.5808 14.8403C13.6168 14.8771 13.6205 14.8795 13.6739 14.8795C13.7235 14.8771 13.7173 14.8599 13.752 14.8489C13.7681 14.8244 13.788 14.8048 13.8066 14.7717C13.819 14.7521 13.8302 14.7215 13.8438 14.7031C13.8587 14.6799 13.8761 14.6627 13.8909 14.6419C13.9058 14.6358 13.9108 14.6297 13.9306 14.626C13.886 14.6333 13.881 14.6492 13.8525 14.6725C13.8384 14.6947 13.8256 14.7176 13.814 14.7411C13.8091 14.7742 13.7991 14.7999 13.7979 14.8403C13.7979 14.8832 13.7979 14.9126 13.814 14.9481C13.8326 14.9665 13.845 14.9861 13.8686 15.002C13.8882 15.0208 13.9061 15.0413 13.922 15.0633L13.9927 15.1086C14.015 15.1221 14.041 15.1355 14.077 15.1392C14.1229 15.1355 14.1366 15.1233 14.1701 15.1086C14.1998 15.0878 14.2222 15.0743 14.2482 15.0547C14.2696 15.0373 14.288 15.0166 14.3028 14.9934C14.3437 14.9836 14.371 14.9873 14.3958 15.0094C14.4169 15.0239 14.435 15.0421 14.4492 15.0633C14.4616 15.0694 14.4839 15.0878 14.4963 15.0939" stroke="#EF2D28" stroke-width="0.0283512"/>
<path d="M14.3945 15.1064C14.3822 15.111 14.3359 15.1431 14.3174 15.1538C14.3051 15.1951 14.285 15.2165 14.2789 15.2608C14.2681 15.3006 14.2681 15.3464 14.2681 15.3938C14.2789 15.4427 14.2989 15.4779 14.3174 15.5161C14.3483 15.5375 14.3637 15.5528 14.4038 15.5742C14.4423 15.5803 14.4809 15.5849 14.5287 15.5849C14.5596 15.5941 14.6151 15.5987 14.6444 15.5849C14.6876 15.5788 14.7199 15.562 14.7508 15.5467C14.7863 15.5268 14.8079 15.5069 14.8464 15.4886C14.8665 15.4611 14.8958 15.4351 14.9235 15.403C14.9482 15.3709 14.9652 15.3526 14.9821 15.3174C14.9667 15.3571 14.9467 15.3938 14.9343 15.432C14.9112 15.4718 14.8988 15.4871 14.8958 15.536C14.8803 15.5757 14.885 15.6246 14.885 15.6705C14.8896 15.7011 14.8911 15.7592 14.905 15.7852V15.8142" stroke="#EF2D28" stroke-width="0.029173"/>
<path d="M15.817 15.9763V15.9918C15.817 15.9541 15.817 15.9718 15.7996 16.0473C15.7723 16.0783 15.7004 16.0872 15.6458 16.0739C15.5962 16.0362 15.5962 16.0073 15.5069 15.9918C15.4176 15.9962 15.3828 16.0184 15.3332 16.0473C15.2804 16.0648 15.2364 16.0986 15.2091 16.1426C15.1918 16.1892 15.1819 16.2225 15.2414 16.2402C15.2933 16.2713 15.3529 16.2903 15.4151 16.2957C15.4845 16.2957 15.5366 16.289 15.5689 16.3245C15.6185 16.3689 15.6136 16.3955 15.6136 16.4753C15.6309 16.4997 15.6334 16.5729 15.6458 16.6018C15.6885 16.6219 15.7366 16.6311 15.7847 16.6284C15.8021 16.584 15.8195 16.5086 15.8319 16.462C15.8443 16.4132 15.8468 16.3422 15.879 16.309C15.9075 16.2708 15.9437 16.2377 15.9857 16.2114C16.0108 16.1859 16.0435 16.1675 16.08 16.1582C16.018 16.1848 16.0105 16.2158 16.0031 16.2824C16.0552 16.3045 16.0701 16.3223 16.1569 16.3245C16.2437 16.3178 16.2636 16.2979 16.2958 16.2535C16.3033 16.3245 16.3281 16.3467 16.3454 16.4088C16.3752 16.4487 16.3876 16.4909 16.4199 16.5463C16.4075 16.6128 16.3777 16.6151 16.3752 16.6971C16.3554 16.7526 16.3554 16.8036 16.3132 16.8369C16.2933 16.859 16.2785 16.8613 16.2338 16.8635C16.3231 16.8635 16.3777 16.8546 16.4372 16.8236C16.4819 16.7969 16.5166 16.7659 16.5613 16.7393C16.6173 16.7016 16.6803 16.673 16.7474 16.655C16.8193 16.655 16.8714 16.6483 16.9012 16.6838C16.9459 16.7126 16.9756 16.7614 16.9955 16.8236C17.0079 16.8945 17.0153 16.9433 16.9781 16.9899C16.9533 17.0431 16.9458 17.0631 16.9781 17.1274C17.0153 17.1718 17.0674 17.1784 17.1518 17.1962C17.2088 17.194 17.2659 17.1829 17.3056 17.1696" stroke="#EF2D28" stroke-width="0.0281498"/>
<path fill-rule="evenodd" clip-rule="evenodd" d="M7.46747 8.72223C5.57551 5.44741 4.32073 2.65683 4.66285 2.49886C5.0085 2.33927 6.82406 4.87091 8.71602 8.14573L7.46747 8.72223Z" fill="white" stroke="#EF2D28" stroke-width="0.0387692"/>
<path fill-rule="evenodd" clip-rule="evenodd" d="M7.59256 8.66708C5.76736 5.50782 4.5104 2.83718 4.7841 2.7108C5.06062 2.58313 6.76622 5.04662 8.59142 8.20587" fill="white"/>
<path d="M7.59256 8.66708C5.76736 5.50782 4.5104 2.83718 4.7841 2.7108C5.06062 2.58313 6.76622 5.04662 8.59142 8.20587" stroke="#EF2D28" stroke-width="0.0340592"/>
<path fill-rule="evenodd" clip-rule="evenodd" d="M7.90568 7.01945C8.12791 7.38865 8.36336 7.81166 8.59106 8.20579L7.58939 8.66829C7.36169 8.27416 7.11214 7.85766 6.90401 7.48195L7.90568 7.01945Z" fill="white" stroke="#EF2D28" stroke-width="0.0386549"/>
<path fill-rule="evenodd" clip-rule="evenodd" d="M7.81873 7.14647C8.0421 7.51764 8.19557 7.79876 8.42441 8.19487L7.67669 8.54011C7.44899 8.14598 7.27913 7.86743 7.07101 7.49172L7.81873 7.14647Z" fill="white" stroke="#EF2D28" stroke-width="0.0386549"/>
<path fill-rule="evenodd" clip-rule="evenodd" d="M7.2754 7.57485L7.77623 7.3436L8.22025 8.11216L7.71941 8.34341L7.2754 7.57485ZM7.2754 7.57485L8.22025 8.11216L7.2754 7.57485ZM7.71941 8.34341L7.77623 7.3436L7.71941 8.34341ZM5.0166 3.66504L5.51743 3.43379L5.0166 3.66504Z" fill="white"/>
<path d="M7.2754 7.57485L7.77623 7.3436M7.2754 7.57485L7.71941 8.34341M7.2754 7.57485L8.22025 8.11216M7.77623 7.3436L8.22025 8.11216M7.77623 7.3436L7.71941 8.34341M8.22025 8.11216L7.71941 8.34341M5.0166 3.66504L5.51743 3.43379" stroke="#EF2D28" stroke-width="0.0386549"/>
<path d="M5.01931 3.30182C5.09626 3.32127 5.17273 3.28217 5.19009 3.21449C5.20746 3.1468 5.15916 3.07616 5.08221 3.05671C5.00525 3.03725 4.92879 3.07635 4.91142 3.14404C4.89406 3.21172 4.94236 3.28236 5.01931 3.30182Z" fill="#EF0000" stroke="#EF2D28" stroke-width="0.0500864"/>
<path fill-rule="evenodd" clip-rule="evenodd" d="M8.98035 7.05273C8.98035 9.80305 8.99689 10.8389 8.79511 10.9808C8.60325 11.1339 3.26758 10.9808 3.26758 11.766C3.26758 12.5512 7.66049 13.3408 8.98035 13.3408C10.7402 13.3408 11.6168 12.5534 11.6168 10.9808V7.05495H8.98035V7.05273Z" fill="white" stroke="#EF2D28" stroke-width="0.0352129"/>
<path fill-rule="evenodd" clip-rule="evenodd" d="M8.98145 7.83789V8.23047C9.85363 8.36121 10.7441 8.36121 11.6163 8.23047V7.83789C10.7441 7.96863 9.85363 7.96863 8.98145 7.83789Z" fill="white" stroke="#EF2D28" stroke-width="0.0304956"/>
<path fill-rule="evenodd" clip-rule="evenodd" d="M8.98145 7.05273V7.44532C9.85363 7.57606 10.7441 7.57606 11.6163 7.44532V7.05273C10.7441 7.18348 9.85363 7.18348 8.98145 7.05273Z" fill="white" stroke="#EF2D28" stroke-width="0.0304956"/>
<path fill-rule="evenodd" clip-rule="evenodd" d="M8.98145 7.44531V7.83789C9.85363 7.96864 10.7441 7.96864 11.6163 7.83789V7.44531C10.7441 7.57605 9.85363 7.57605 8.98145 7.44531Z" fill="white" stroke="#EF2D28" stroke-width="0.0304956"/>
<path fill-rule="evenodd" clip-rule="evenodd" d="M8.98145 8.23047V8.62305C9.85363 8.75379 10.7441 8.75379 11.6163 8.62305V8.23047C10.7441 8.36121 9.85363 8.36121 8.98145 8.23047Z" fill="white" stroke="#EF2D28" stroke-width="0.0304956"/>
<path d="M9.1014 7.75272C9.16791 7.75272 9.22184 7.71473 9.22184 7.66787C9.22184 7.621 9.16791 7.58301 9.1014 7.58301C9.03488 7.58301 8.98096 7.621 8.98096 7.66787C8.98096 7.71473 9.03488 7.75272 9.1014 7.75272Z" fill="white" stroke="#EF2D28" stroke-width="0.0289101"/>
<path d="M9.5804 7.79472C9.64692 7.79472 9.70084 7.75672 9.70084 7.70986C9.70084 7.66299 9.64692 7.625 9.5804 7.625C9.51388 7.625 9.45996 7.66299 9.45996 7.70986C9.45996 7.75672 9.51388 7.79472 9.5804 7.79472Z" fill="white" stroke="#EF2D28" stroke-width="0.0289101"/>
<path d="M10.0609 7.83866C10.1274 7.83866 10.1813 7.80067 10.1813 7.7538C10.1813 7.70694 10.1274 7.66895 10.0609 7.66895C9.99435 7.66895 9.94043 7.70694 9.94043 7.7538C9.94043 7.80067 9.99435 7.83866 10.0609 7.83866Z" fill="white" stroke="#EF2D28" stroke-width="0.0289101"/>
<path d="M10.5399 7.83866C10.6064 7.83866 10.6603 7.80067 10.6603 7.7538C10.6603 7.70694 10.6064 7.66895 10.5399 7.66895C10.4734 7.66895 10.4194 7.70694 10.4194 7.7538C10.4194 7.80067 10.4734 7.83866 10.5399 7.83866Z" fill="white" stroke="#EF2D28" stroke-width="0.0289101"/>
<path d="M11.0189 7.79472C11.0854 7.79472 11.1393 7.75672 11.1393 7.70986C11.1393 7.66299 11.0854 7.625 11.0189 7.625C10.9524 7.625 10.8984 7.66299 10.8984 7.70986C10.8984 7.75672 10.9524 7.79472 11.0189 7.79472Z" fill="white" stroke="#EF2D28" stroke-width="0.0289101"/>
<path d="M11.4993 7.75272C11.5659 7.75272 11.6198 7.71473 11.6198 7.66787C11.6198 7.621 11.5659 7.58301 11.4993 7.58301C11.4328 7.58301 11.3789 7.621 11.3789 7.66787C11.3789 7.71473 11.4328 7.75272 11.4993 7.75272Z" fill="white" stroke="#EF2D28" stroke-width="0.0289101"/>
<path fill-rule="evenodd" clip-rule="evenodd" d="M8.98133 9.01562L11.6161 11.1383L8.98133 9.01562ZM9.24431 9.01562L11.6186 10.9009L9.24431 9.01562ZM9.59413 9.09547L11.6186 10.668L9.59413 9.09547ZM9.85712 9.09325L11.6186 10.4307L9.85712 9.09325ZM10.1226 9.09547L11.6161 10.1956L10.1226 9.09547ZM10.3856 9.09547L11.6161 9.96049L10.3856 9.09547ZM10.6486 9.09547L11.6161 9.72317L10.6486 9.09547ZM10.9165 9.09547L11.6211 9.56569L10.9165 9.09547ZM11.177 9.09547L11.6186 9.41043L11.177 9.09547ZM11.4425 9.09547L11.6161 9.25073L11.4425 9.09547ZM8.98133 9.25073L11.6161 11.3756L8.98133 9.25073ZM11.6161 9.01784L8.71338 11.3734L11.6161 9.01784ZM11.3507 9.01562L8.8027 11.0606L11.3507 9.01562ZM11.0009 9.09547L8.97885 10.6658L11.0009 9.09547ZM10.7354 9.09547L8.97885 10.4307L10.7354 9.09547ZM10.4749 9.09547L8.98133 10.1956L10.4749 9.09547ZM10.2119 9.09547L8.98133 9.96049L10.2119 9.09547ZM9.94892 9.09547L8.98133 9.72317L9.94892 9.09547ZM9.68097 9.09547L8.97885 9.56569L9.68097 9.09547ZM9.41798 9.09547L8.97885 9.41043L9.41798 9.09547ZM9.15252 9.09547L8.97885 9.25073L9.15252 9.09547ZM11.6161 9.25073L8.71338 11.6129L11.6161 9.25073ZM11.6161 9.49028L8.71338 11.8458L11.6161 9.49028ZM11.6161 9.72317L8.71338 12.0809L11.6161 9.72317ZM11.6161 9.95828L8.71338 12.3204L11.6161 9.95828ZM11.6161 10.1978L8.71338 12.5533L11.6161 10.1978ZM11.6161 10.4307L8.71338 12.7884L11.6161 10.4307ZM11.6161 10.6658L8.71338 13.0236L11.6161 10.6658ZM11.6161 10.9031L8.71338 13.2609L11.6161 10.9031ZM11.6161 11.1383L8.88953 13.3385L11.6161 11.1383ZM11.6161 11.3734L9.155 13.3385L11.6161 11.3734ZM11.5268 11.6883L9.59165 13.2609L11.5268 11.6883ZM11.4425 12.0011L9.8596 13.2587L11.4425 12.0011ZM11.2663 12.3936L10.4724 13.0213L11.2663 12.3936ZM8.98133 9.48584L11.5293 11.5286L8.98133 9.48584ZM8.98133 9.72095L11.5293 11.7659L8.98133 9.72095ZM8.98133 9.96049L11.4425 11.9234L8.98133 9.96049ZM8.98133 10.1934L11.4425 12.1607L8.98133 10.1934ZM8.98133 10.4307L11.3532 12.316L8.98133 10.4307ZM8.89201 10.5882L11.2663 12.4735L8.89201 10.5882ZM8.89201 10.8255L11.0902 12.5556L8.89201 10.8255ZM8.80518 10.9808L11.0033 12.7108L8.80518 10.9808ZM8.71338 11.136L10.8222 12.7862L8.71338 11.136ZM8.71338 11.3711L10.7354 12.9437L8.71338 11.3711ZM8.71338 11.6085L10.4749 13.0213L8.71338 11.6085Z" fill="white"/>
<path d="M8.98133 9.01562L11.6161 11.1383L8.88953 13.3385M9.24431 9.01562L11.6186 10.9009M9.59413 9.09547L11.6186 10.668M9.85712 9.09325L11.6186 10.4307M10.1226 9.09547L11.6161 10.1956M10.3856 9.09547L11.6161 9.96049M10.6486 9.09547L11.6161 9.72317L8.71338 12.0809M10.9165 9.09547L11.6211 9.56569M11.177 9.09547L11.6186 9.41043M11.4425 9.09547L11.6161 9.25073L8.71338 11.6129M8.98133 9.25073L11.6161 11.3756M11.6161 9.01784L8.71338 11.3734M11.3507 9.01562L8.8027 11.0606M11.0009 9.09547L8.97885 10.6658M10.7354 9.09547L8.97885 10.4307M10.4749 9.09547L8.98133 10.1956M10.2119 9.09547L8.98133 9.96049L11.4425 11.9234M9.94892 9.09547L8.98133 9.72317M9.68097 9.09547L8.97885 9.56569M9.41798 9.09547L8.97885 9.41043M9.15252 9.09547L8.97885 9.25073M11.6161 9.49028L8.71338 11.8458M11.6161 9.95828L8.71338 12.3204M11.6161 10.1978L8.71338 12.5533M11.6161 10.4307L8.71338 12.7884M11.6161 10.6658L8.71338 13.0236M11.6161 10.9031L8.71338 13.2609M11.6161 11.3734L9.155 13.3385M11.5268 11.6883L9.59165 13.2609M11.4425 12.0011L9.8596 13.2587M11.2663 12.3936L10.4724 13.0213M8.98133 9.48584L11.5293 11.5286M8.98133 9.72095L11.5293 11.7659M8.98133 10.1934L11.4425 12.1607M8.98133 10.4307L11.3532 12.316M8.89201 10.5882L11.2663 12.4735M8.89201 10.8255L11.0902 12.5556M8.80518 10.9808L11.0033 12.7108M8.71338 11.136L10.8222 12.7862M8.71338 11.3711L10.7354 12.9437M8.71338 11.6085L10.4749 13.0213" stroke="#EF2D28" stroke-width="0.0304956"/>
<path fill-rule="evenodd" clip-rule="evenodd" d="M8.98145 8.62598V9.01856C9.85363 9.1493 10.7441 9.1493 11.6163 9.01856V8.62598C10.7441 8.75672 9.85363 8.75672 8.98145 8.62598Z" fill="white" stroke="#EF2D28" stroke-width="0.0304956"/>
<path fill-rule="evenodd" clip-rule="evenodd" d="M8.71586 11.8467L10.2987 13.1043L8.71586 11.8467ZM8.71586 12.084L10.1226 13.1819L8.71586 12.084ZM8.71586 12.3169L9.94644 13.2618L8.71586 12.3169ZM8.71586 12.552L9.59662 13.2618L8.71586 12.552ZM8.71338 12.7893L9.41798 13.3394L8.71338 12.7893ZM8.71338 13.0244L9.15252 13.3394L8.71338 13.0244Z" fill="white"/>
<path d="M8.71586 11.8467L10.2987 13.1043M8.71586 12.084L10.1226 13.1819M8.71586 12.3169L9.94644 13.2618M8.71586 12.552L9.59662 13.2618M8.71338 12.7893L9.41798 13.3394M8.71338 13.0244L9.15252 13.3394" stroke="#EF2D28" stroke-width="0.0304956"/>
<path d="M9.1014 8.93241C9.16791 8.93241 9.22184 8.89442 9.22184 8.84755C9.22184 8.80069 9.16791 8.7627 9.1014 8.7627C9.03488 8.7627 8.98096 8.80069 8.98096 8.84755C8.98096 8.89442 9.03488 8.93241 9.1014 8.93241Z" fill="white" stroke="#EF2D28" stroke-width="0.0289101"/>
<path d="M9.5804 8.97538C9.64692 8.97538 9.70084 8.93739 9.70084 8.89052C9.70084 8.84366 9.64692 8.80566 9.5804 8.80566C9.51388 8.80566 9.45996 8.84366 9.45996 8.89052C9.45996 8.93739 9.51388 8.97538 9.5804 8.97538Z" fill="white" stroke="#EF2D28" stroke-width="0.0289101"/>
<path d="M10.0609 9.0164C10.1274 9.0164 10.1813 8.9784 10.1813 8.93154C10.1813 8.88467 10.1274 8.84668 10.0609 8.84668C9.99435 8.84668 9.94043 8.88467 9.94043 8.93154C9.94043 8.9784 9.99435 9.0164 10.0609 9.0164Z" fill="white" stroke="#EF2D28" stroke-width="0.0289101"/>
<path d="M10.5399 9.0164C10.6064 9.0164 10.6603 8.9784 10.6603 8.93154C10.6603 8.88467 10.6064 8.84668 10.5399 8.84668C10.4734 8.84668 10.4194 8.88467 10.4194 8.93154C10.4194 8.9784 10.4734 9.0164 10.5399 9.0164Z" fill="white" stroke="#EF2D28" stroke-width="0.0289101"/>
<path d="M11.0189 8.97538C11.0854 8.97538 11.1393 8.93739 11.1393 8.89052C11.1393 8.84366 11.0854 8.80566 11.0189 8.80566C10.9524 8.80566 10.8984 8.84366 10.8984 8.89052C10.8984 8.93739 10.9524 8.97538 11.0189 8.97538Z" fill="white" stroke="#EF2D28" stroke-width="0.0289101"/>
<path d="M11.4993 8.93241C11.5659 8.93241 11.6198 8.89442 11.6198 8.84755C11.6198 8.80069 11.5659 8.7627 11.4993 8.7627C11.4328 8.7627 11.3789 8.80069 11.3789 8.84755C11.3789 8.89442 11.4328 8.93241 11.4993 8.93241Z" fill="white" stroke="#EF2D28" stroke-width="0.0289101"/>
<path fill-rule="evenodd" clip-rule="evenodd" d="M5.20037 12.7117L8.36364 11.0615L5.20037 12.7117ZM5.02422 12.6319L8.01382 11.0615L5.02422 12.6319ZM4.93738 12.4744L7.66152 11.0615L4.93738 12.4744ZM4.84807 12.3191L7.22238 11.0615L4.84807 12.3191ZM4.66943 12.1617L6.8676 11.0615L4.66943 12.1617ZM4.75875 11.9265L6.25231 11.1392L4.75875 11.9265ZM4.66943 11.7668L5.81069 11.1392L4.66943 11.7668ZM4.66943 11.5317L5.46335 11.1392L4.66943 11.5317ZM5.46335 12.7893L8.45048 11.2168L5.46335 12.7893ZM5.72882 12.867L8.53979 11.3743L5.72882 12.867ZM5.99181 12.9468L8.62911 11.5317L5.99181 12.9468ZM6.25479 13.0245L8.45296 11.8467L6.25479 13.0245ZM6.60461 13.0245L8.53979 12.0042L6.60461 13.0245ZM6.8676 13.1043L8.53731 12.2393L6.8676 13.1043ZM7.13059 13.1819L8.45048 12.4744L7.13059 13.1819ZM7.48289 13.1841L8.53731 12.6319L7.48289 13.1841ZM7.83519 13.2618L8.53979 12.867L7.83519 13.2618ZM8.19245 13.2618L8.63159 13.0267L8.19245 13.2618Z" fill="white"/>
<path d="M5.20037 12.7117L8.36364 11.0615M5.02422 12.6319L8.01382 11.0615M4.93738 12.4744L7.66152 11.0615M4.84807 12.3191L7.22238 11.0615M4.66943 12.1617L6.8676 11.0615M4.75875 11.9265L6.25231 11.1392M4.66943 11.7668L5.81069 11.1392M4.66943 11.5317L5.46335 11.1392M5.46335 12.7893L8.45048 11.2168M5.72882 12.867L8.53979 11.3743M5.99181 12.9468L8.62911 11.5317M6.25479 13.0245L8.45296 11.8467M6.60461 13.0245L8.53979 12.0042M6.8676 13.1043L8.53731 12.2393M7.13059 13.1819L8.45048 12.4744M7.48289 13.1841L8.53731 12.6319M7.83519 13.2618L8.53979 12.867M8.19245 13.2618L8.63159 13.0267" stroke="#EF2D28" stroke-width="0.0304956"/>
<path fill-rule="evenodd" clip-rule="evenodd" d="M8.80273 10.9834H8.3636C8.21736 11.7631 8.21736 12.5592 8.3636 13.3389H8.80273C8.65649 12.5592 8.65649 11.7631 8.80273 10.9834Z" fill="white" stroke="#EF2D28" stroke-width="0.0304956"/>
<path fill-rule="evenodd" clip-rule="evenodd" d="M3.61768 12.0811L4.6721 11.2959L3.61768 12.0811ZM3.61768 11.531L4.6721 12.4737L3.61768 11.531Z" fill="white"/>
<path d="M3.61768 12.0811L4.6721 11.2959M3.61768 11.531L4.6721 12.4737" stroke="#EF2D28" stroke-width="0.0304956"/>
<path fill-rule="evenodd" clip-rule="evenodd" d="M5.2002 11.1367L4.67224 11.2154C4.55514 11.7141 4.55514 12.1327 4.67224 12.6313L5.2002 12.7873C5.08309 12.29 5.08309 11.6354 5.2002 11.1367Z" fill="white" stroke="#EF2D28" stroke-width="0.0217069"/>
<path fill-rule="evenodd" clip-rule="evenodd" d="M11.6165 7.20806V6.81104C11.2188 6.81547 10.9548 6.57815 10.9548 6.34082L9.63892 6.34304C9.63892 6.57815 9.37871 6.81547 8.98096 6.81547V7.20806H11.6165Z" fill="white" stroke="#EF2D28" stroke-width="0.0373282"/>
<path fill-rule="evenodd" clip-rule="evenodd" d="M9.73047 5.8736H10.8618V6.34604H9.73047V5.8736ZM9.82723 5.40117H10.7675V5.8736H9.82475L9.82723 5.40117ZM9.82723 4.93095H10.7675V5.40117H9.82475L9.82723 4.93095ZM9.92151 4.30104H10.6732V4.93095H9.92151V4.30104ZM9.88925 3.75098H10.708V4.30104H9.88925V3.75098Z" fill="white"/>
<path d="M10.7675 5.40117H9.82723L9.82475 5.8736H10.7675V5.40117ZM10.7675 5.40117V4.93095H9.82723L9.82475 5.40117H10.7675ZM9.73047 5.8736H10.8618V6.34604H9.73047V5.8736ZM9.92151 4.30104H10.6732V4.93095H9.92151V4.30104ZM9.88925 3.75098H10.708V4.30104H9.88925V3.75098Z" stroke="#EF2D28" stroke-width="0.0328414"/>
<path d="M10.341 3.9881C10.9427 3.9881 11.4305 3.65344 11.4305 3.24063C11.4305 2.82782 10.9427 2.49316 10.341 2.49316C9.73927 2.49316 9.25146 2.82782 9.25146 3.24063C9.25146 3.65344 9.73927 3.9881 10.341 3.9881Z" fill="white" stroke="#EF2D28" stroke-width="0.0309992"/>
<path fill-rule="evenodd" clip-rule="evenodd" d="M10.8873 3.20044C10.8873 3.40672 11.159 3.75051 11.159 3.75051C10.9616 3.88802 10.6412 3.98783 10.3412 3.98783C10.0413 3.98783 9.667 3.93016 9.52344 3.75051C9.52344 3.75051 9.79518 3.40893 9.79518 3.20266C9.79518 2.99639 9.52344 2.73023 9.52344 2.73023C9.76138 2.57896 10.0485 2.49666 10.3438 2.49512C10.6412 2.49512 10.9591 2.59493 11.159 2.73023C11.159 2.73023 10.8873 2.99639 10.8873 3.20266V3.20044Z" fill="white" stroke="#EF2D28" stroke-width="0.0309992"/>
<path fill-rule="evenodd" clip-rule="evenodd" d="M10.7054 3.20044C10.7054 3.40672 10.9771 3.83035 10.9771 3.83035C10.7797 3.96343 10.6439 3.98561 10.3413 3.98561C10.0388 3.98561 9.84913 4.01001 9.70557 3.83035C9.70557 3.83035 9.97731 3.40893 9.97731 3.20044C9.97731 2.99195 9.70557 2.65038 9.70557 2.65038C9.90296 2.5173 10.0388 2.49512 10.3413 2.49512C10.6413 2.49512 10.7797 2.5173 10.9771 2.65038C10.9771 2.65038 10.7054 2.99417 10.7054 3.20044Z" fill="white" stroke="#EF2D28" stroke-width="0.0309992"/>
<path d="M9.25172 3.51319C9.4018 3.51319 9.52347 3.40792 9.52347 3.27808C9.52347 3.14823 9.4018 3.04297 9.25172 3.04297C9.10164 3.04297 8.97998 3.14823 8.97998 3.27808C8.97998 3.40792 9.10164 3.51319 9.25172 3.51319Z" fill="white" stroke="#EF2D28" stroke-width="0.0309992"/>
<path d="M11.4324 3.51319C11.5825 3.51319 11.7041 3.40792 11.7041 3.27808C11.7041 3.14823 11.5825 3.04297 11.4324 3.04297C11.2823 3.04297 11.1606 3.14823 11.1606 3.27808C11.1606 3.40792 11.2823 3.51319 11.4324 3.51319Z" fill="white" stroke="#EF2D28" stroke-width="0.0309992"/>
<path d="M10.343 3.51319C10.4931 3.51319 10.6148 3.40792 10.6148 3.27808C10.6148 3.14823 10.4931 3.04297 10.343 3.04297C10.193 3.04297 10.0713 3.14823 10.0713 3.27808C10.0713 3.40792 10.193 3.51319 10.343 3.51319Z" fill="white" stroke="#EF2D28" stroke-width="0.0309992"/>
<path d="M10.343 2.72803C10.4931 2.72803 10.6148 2.62277 10.6148 2.49292C10.6148 2.36307 10.4931 2.25781 10.343 2.25781C10.193 2.25781 10.0713 2.36307 10.0713 2.49292C10.0713 2.62277 10.193 2.72803 10.343 2.72803Z" fill="white" stroke="#EF2D28" stroke-width="0.0309992"/>
<path d="M9.54658 7.2085C9.70202 7.2085 9.82803 7.10324 9.82803 6.97339C9.82803 6.84354 9.70202 6.73828 9.54658 6.73828C9.39114 6.73828 9.26514 6.84354 9.26514 6.97339C9.26514 7.10324 9.39114 7.2085 9.54658 7.2085Z" fill="white" stroke="#EF2D28" stroke-width="0.0315479"/>
<path d="M11.05 7.2085C11.2054 7.2085 11.3314 7.10324 11.3314 6.97339C11.3314 6.84354 11.2054 6.73828 11.05 6.73828C10.8946 6.73828 10.7686 6.84354 10.7686 6.97339C10.7686 7.10324 10.8946 7.2085 11.05 7.2085Z" fill="white" stroke="#EF2D28" stroke-width="0.0315479"/>
<path fill-rule="evenodd" clip-rule="evenodd" d="M9.63965 6.34375H10.9566L10.2981 7.05129L9.63965 6.34375Z" fill="white" stroke="#EF2D28" stroke-width="0.0315479"/>
<path d="M10.2972 7.20702C10.5044 7.20702 10.6724 7.06667 10.6724 6.89355C10.6724 6.72042 10.5044 6.58008 10.2972 6.58008C10.0899 6.58008 9.92188 6.72042 9.92188 6.89355C9.92188 7.06667 10.0899 7.20702 10.2972 7.20702Z" fill="white" stroke="#EF2D28" stroke-width="0.0420643"/>
<path d="M10.7703 9.24414H8.96166C8.90274 9.24414 8.85498 9.28088 8.85498 9.32621V9.63451C8.85498 9.67983 8.90274 9.71657 8.96166 9.71657H10.7703C10.8292 9.71657 10.877 9.67983 10.877 9.63451V9.32621C10.877 9.28088 10.8292 9.24414 10.7703 9.24414Z" fill="white" stroke="#EF2D28" stroke-width="0.0281498"/>
<path fill-rule="evenodd" clip-rule="evenodd" d="M11.4924 8.85133C11.2492 8.85133 11.0532 9.03543 11.0532 9.26166V9.61876C11.0516 9.67156 11.0617 9.72413 11.0829 9.77342C11.1042 9.82271 11.1361 9.86774 11.177 9.9059C11.2178 9.94407 11.2667 9.97461 11.3209 9.99575C11.375 10.0169 11.4333 10.0282 11.4924 10.0291C11.5515 10.0282 11.6098 10.0169 11.6639 9.99575C11.718 9.97461 11.7669 9.94407 11.8078 9.9059C11.8486 9.86774 11.8806 9.82271 11.9018 9.77342C11.9231 9.72413 11.9332 9.67156 11.9315 9.61876V9.26388C11.9335 9.2109 11.9237 9.15809 11.9026 9.10855C11.8815 9.059 11.8496 9.0137 11.8087 8.9753C11.7678 8.9369 11.7188 8.90616 11.6645 8.88487C11.6102 8.86359 11.5517 8.85219 11.4924 8.85133ZM11.4924 9.00659C11.346 9.00659 11.2294 9.1552 11.2294 9.33707V9.54335C11.2294 9.72522 11.346 9.87161 11.4924 9.87161C11.6388 9.87161 11.7554 9.72522 11.7554 9.54335V9.33707C11.7554 9.1552 11.6388 9.00881 11.4924 9.00881V9.00659ZM9.20738 8.92896C9.05852 8.92896 8.94439 9.07535 8.94439 9.25944V9.6232C8.94439 9.80507 9.061 9.95146 9.20738 9.95146C9.35376 9.95146 9.47036 9.80507 9.47036 9.6232V9.25723C9.47036 9.07313 9.35376 8.92674 9.20738 8.92674V8.92896ZM9.20738 8.7737C9.1483 8.77456 9.09001 8.78589 9.03586 8.80704C8.98172 8.82818 8.93281 8.85872 8.89197 8.89689C8.85112 8.93506 8.81915 8.98009 8.79792 9.02938C8.77668 9.07867 8.76659 9.13123 8.76824 9.18403V9.69861C8.76659 9.75141 8.77668 9.80397 8.79792 9.85326C8.81915 9.90255 8.85112 9.94759 8.89197 9.98575C8.93281 10.0239 8.98172 10.0545 9.03586 10.0756C9.09001 10.0967 9.1483 10.1081 9.20738 10.1089C9.45051 10.1089 9.64651 9.92484 9.64651 9.69861V9.18403C9.6485 9.13105 9.63866 9.07824 9.61757 9.0287C9.59649 8.97915 9.56457 8.93385 9.52369 8.89545C9.48282 8.85705 9.43379 8.82631 9.37948 8.80502C9.32517 8.78374 9.26667 8.77234 9.20738 8.77148V8.7737Z" fill="white" stroke="#EF2D28" stroke-width="0.0281498"/>
<path fill-rule="evenodd" clip-rule="evenodd" d="M8.5023 9.08619C8.35592 9.08619 8.23931 9.23258 8.23931 9.41445V9.50095C8.23931 9.68283 8.35592 9.82922 8.5023 9.82922C8.65116 9.82922 8.76777 9.68283 8.76777 9.50095V9.41445C8.76777 9.23258 8.64868 9.08619 8.5023 9.08619ZM8.5023 8.93093C8.44322 8.93179 8.38493 8.94312 8.33079 8.96427C8.27664 8.98541 8.22773 9.01595 8.18689 9.05412C8.14604 9.09228 8.11408 9.13731 8.09284 9.1866C8.0716 9.23589 8.06151 9.28846 8.06316 9.34126V9.57637C8.06151 9.62917 8.0716 9.68173 8.09284 9.73102C8.11408 9.78031 8.14604 9.82534 8.18689 9.86351C8.22773 9.90167 8.27664 9.93221 8.33079 9.95336C8.38493 9.97451 8.44322 9.98584 8.5023 9.9867C8.74544 9.9867 8.94392 9.8026 8.94392 9.57637V9.34126C8.9459 9.28809 8.93599 9.23511 8.91474 9.18541C8.8935 9.13572 8.86137 9.09033 8.82023 9.05189C8.77909 9.01346 8.72977 8.98277 8.67517 8.96161C8.62058 8.94046 8.5618 8.92927 8.5023 8.92871V8.93093Z" fill="white" stroke="#EF2D28" stroke-width="0.0281498"/>
<path fill-rule="evenodd" clip-rule="evenodd" d="M7.45112 8.86936C7.18318 8.86936 6.97328 9.03296 6.97328 9.23622V9.64523C6.97328 9.84602 7.18764 10.0121 7.45112 10.0121C7.71014 10.0121 7.9245 9.8485 7.9245 9.64275V9.23622C7.9245 9.03296 7.71014 8.86936 7.45112 8.86936ZM7.45112 8.69584C7.3448 8.69648 7.23975 8.70882 7.14208 8.73216C7.04441 8.75549 6.95604 8.78935 6.88211 8.83177C6.80818 8.87419 6.75014 8.92433 6.71137 8.97929C6.67259 9.03425 6.65384 9.09294 6.65621 9.15194V9.72703C6.65264 9.78625 6.67035 9.84526 6.70831 9.90064C6.74626 9.95601 6.80371 10.0066 6.87729 10.0496C6.95087 10.0925 7.03911 10.1268 7.13687 10.1506C7.23462 10.1744 7.33993 10.1871 7.44666 10.1881C7.88877 10.1881 8.24157 9.98235 8.24157 9.72703V9.15194C8.24454 9.09294 8.22638 9.03419 8.18815 8.9791C8.14992 8.92402 8.09238 8.87369 8.01886 8.83103C7.94534 8.78838 7.8573 8.75425 7.75985 8.73062C7.66239 8.70698 7.55746 8.69432 7.45112 8.69336V8.69584Z" fill="white" stroke="#EF2D28" stroke-width="0.0299444"/>
<path fill-rule="evenodd" clip-rule="evenodd" d="M13.165 8.9465C12.897 8.9465 12.6872 9.11011 12.6872 9.31337V9.72238C12.6872 9.92317 12.9015 10.0892 13.165 10.0892C13.424 10.0892 13.6384 9.92565 13.6384 9.7199V9.31337C13.6384 9.11011 13.424 8.9465 13.165 8.9465ZM13.165 8.77299C13.0587 8.77363 12.9536 8.78597 12.8559 8.80931C12.7583 8.83264 12.6699 8.8665 12.596 8.90892C12.522 8.95134 12.464 9.00148 12.4252 9.05644C12.3865 9.1114 12.3677 9.17008 12.3701 9.22909V9.80418C12.3665 9.8634 12.3842 9.92241 12.4222 9.97779C12.4601 10.0332 12.5176 10.0838 12.5912 10.1267C12.6647 10.1696 12.753 10.204 12.8507 10.2278C12.9485 10.2515 13.0538 10.2643 13.1605 10.2652C13.6026 10.2652 13.9554 10.0595 13.9554 9.80418V9.22909C13.9584 9.17008 13.9402 9.11134 13.902 9.05625C13.8638 9.00116 13.8063 8.95084 13.7327 8.90818C13.6592 8.86553 13.5712 8.8314 13.4737 8.80776C13.3763 8.78413 13.2713 8.77147 13.165 8.77051V8.77299Z" fill="white" stroke="#EF2D28" stroke-width="0.0299444"/>
<path d="M12.6658 9.24414H11.7255C11.694 9.24414 11.6685 9.28088 11.6685 9.32621V9.63451C11.6685 9.67983 11.694 9.71657 11.7255 9.71657H12.6658C12.6973 9.71657 12.7229 9.67983 12.7229 9.63451V9.32621C12.7229 9.28088 12.6973 9.24414 12.6658 9.24414Z" fill="white" stroke="#EF2D28" stroke-width="0.0281498"/>
<path d="M11.2837 9.16602H10.7329C10.7151 9.16602 10.7007 9.21467 10.7007 9.2747V9.68725C10.7007 9.74727 10.7151 9.79593 10.7329 9.79593H11.2837C11.3015 9.79593 11.316 9.74727 11.316 9.68725V9.2747C11.316 9.21467 11.3015 9.16602 11.2837 9.16602Z" fill="white" stroke="#EF2D28" stroke-width="0.0281498"/>
<path d="M8.38333 9.16602H7.83255C7.81473 9.16602 7.80029 9.21467 7.80029 9.2747V9.68725C7.80029 9.74727 7.81473 9.79593 7.83255 9.79593H8.38333C8.40114 9.79593 8.41558 9.74727 8.41558 9.68725V9.2747C8.41558 9.21467 8.40114 9.16602 8.38333 9.16602Z" fill="white" stroke="#EF2D28" stroke-width="0.0281498"/>
<path d="M7.0313 9.08594H5.92974C5.89411 9.08594 5.86523 9.14651 5.86523 9.22124V9.73581C5.86523 9.81053 5.89411 9.87111 5.92974 9.87111H7.0313C7.06693 9.87111 7.09581 9.81053 7.09581 9.73581V9.22124C7.09581 9.14651 7.06693 9.08594 7.0313 9.08594Z" fill="white" stroke="#EF2D28" stroke-width="0.0281498"/>
<path d="M14.5959 9.16602H13.5762C13.5419 9.16602 13.5142 9.22659 13.5142 9.30131V9.81589C13.5142 9.89061 13.5419 9.95119 13.5762 9.95119H14.5959C14.6301 9.95119 14.6579 9.89061 14.6579 9.81589V9.30131C14.6579 9.22659 14.6301 9.16602 14.5959 9.16602Z" fill="white" stroke="#EF2D28" stroke-width="0.0281498"/>
</g>
</g>
<defs>
<clipPath id="clip0_3736_60995">
<rect width="80" height="60" fill="white"/>
</clipPath>
</defs>
</svg>
