<svg width="80" height="60" viewBox="0 0 80 60" fill="none" xmlns="http://www.w3.org/2000/svg">
<g clip-path="url(#clip0_3736_61006)">
<mask id="mask0_3736_61006" style="mask-type:luminance" maskUnits="userSpaceOnUse" x="-1" y="0" width="81" height="60">
<path d="M-0.00390625 0H79.9883V60H-0.00390625V0Z" fill="white"/>
</mask>
<g mask="url(#mask0_3736_61006)">
<path fill-rule="evenodd" clip-rule="evenodd" d="M-5.00781 0H84.9922V60H-5.00781V0Z" fill="#0C590B"/>
<path fill-rule="evenodd" clip-rule="evenodd" d="M-5.00781 0H17.5508V60H-5.00781V0Z" fill="white"/>
<path fill-rule="evenodd" clip-rule="evenodd" d="M53.4336 26.4141L49.7773 25.6406L47.8555 28.8398L47.457 25.1367L43.8242 24.293L47.2227 22.7695L46.9062 19.0547L49.4141 21.8203L52.8477 20.3672L50.9844 23.6016L53.4453 26.4141H53.4336Z" fill="white"/>
<path fill-rule="evenodd" clip-rule="evenodd" d="M54.8046 35.8594C54.0248 37.5612 52.9162 39.092 51.5426 40.3639C50.169 41.6357 48.5576 42.6235 46.8009 43.2704C45.0443 43.9173 43.1771 44.2106 41.3067 44.1333C39.4363 44.0561 37.5996 43.6099 35.9023 42.8203C32.4586 41.2259 29.7894 38.3288 28.4818 34.7663C27.1741 31.2039 27.3352 27.2679 28.9296 23.8242C29.7215 22.054 30.875 20.4691 32.316 19.1713C33.757 17.8736 35.4536 16.8918 37.2968 16.2891C36.8143 16.6908 36.3527 17.1172 35.914 17.5664C33.6277 20.0985 32.414 23.4194 32.5288 26.829C32.6436 30.2386 34.078 33.4704 36.5295 35.8429C38.9811 38.2153 42.2581 39.5431 45.6696 39.5462C49.0812 39.5493 52.3606 38.2274 54.8164 35.8594H54.8046Z" fill="white"/>
</g>
</g>
<defs>
<clipPath id="clip0_3736_61006">
<rect width="80" height="60" fill="white"/>
</clipPath>
</defs>
</svg>
