<svg width="80" height="60" viewBox="0 0 80 60" fill="none" xmlns="http://www.w3.org/2000/svg">
<g clip-path="url(#clip0_3736_61014)">
<mask id="mask0_3736_61014" style="mask-type:luminance" maskUnits="userSpaceOnUse" x="0" y="0" width="80" height="60">
<path d="M0 0H80V60H0V0Z" fill="white"/>
</mask>
<g mask="url(#mask0_3736_61014)">
<path fill-rule="evenodd" clip-rule="evenodd" d="M-12.8877 0H92.8998V60H-12.8877V0Z" fill="#4AADD6"/>
<path fill-rule="evenodd" clip-rule="evenodd" d="M50.7373 29.0122C50.7989 31.1841 50.4052 33.3459 49.5795 35.3697C48.7538 37.3936 47.5128 39.2385 45.9298 40.7956C44.3469 42.3527 42.4541 43.5903 40.3632 44.4353C38.2723 45.2804 36.0257 45.7158 33.7561 45.7158C31.4864 45.7158 29.2398 45.2804 27.1489 44.4353C25.058 43.5903 23.1652 42.3527 21.5823 40.7956C19.9993 39.2385 18.7584 37.3936 17.9326 35.3697C17.1069 33.3459 16.7132 31.1841 16.7748 29.0122C16.7132 26.8402 17.1069 24.6785 17.9326 22.6547C18.7584 20.6308 19.9993 18.7859 21.5823 17.2288C23.1652 15.6717 25.058 14.4341 27.1489 13.5891C29.2398 12.744 31.4864 12.3086 33.7561 12.3086C36.0257 12.3086 38.2723 12.744 40.3632 13.5891C42.4541 14.4341 44.3469 15.6717 45.9298 17.2288C47.5128 18.7859 48.7538 20.6308 49.5795 22.6547C50.4052 24.6785 50.7989 26.8402 50.7373 29.0122Z" fill="#FFDE00"/>
</g>
</g>
<defs>
<clipPath id="clip0_3736_61014">
<rect width="80" height="60" fill="white"/>
</clipPath>
</defs>
</svg>
