<svg width="80" height="60" viewBox="0 0 80 60" fill="none" xmlns="http://www.w3.org/2000/svg">
<g clip-path="url(#clip0_4604_131302)">
<path fill-rule="evenodd" clip-rule="evenodd" d="M0.199219 0L0.136719 60H80.1367L0.199219 0Z" fill="black"/>
<path fill-rule="evenodd" clip-rule="evenodd" d="M80.0742 60L80.1367 0H0.136719L80.0742 60Z" fill="#FF0000"/>
<path d="M49.5304 14.9311L48.4759 14.8758C48.1429 14.1017 47.2272 13.8252 46.6445 14.157C45.5713 14.1572 44.4982 14.1387 43.4257 14.1017L45.3958 14.9588C45.9231 16.3136 47.588 16.5901 47.588 16.5901C47.4215 19.0232 45.1183 16.286 43.1759 17.6684C41.7885 18.4979 41.7885 19.4656 41.0393 21.0693C40.7896 21.5117 39.8184 22.6729 39.8184 22.6729L41.4555 22.5347L40.9283 23.2259L42.8707 22.9494L42.4545 23.3365C42.732 23.3918 44.6744 22.8665 44.6744 22.8665L44.5356 23.5024L46.7555 22.7006C46.7555 22.7006 47.1995 23.06 47.588 23.2259L47.8655 22.1199L48.9754 22.3964L49.2529 21.2905C50.9178 23.5024 51.4728 25.7144 54.5251 26.2673L54.2476 25.1614C55.059 25.5154 55.8639 25.8841 56.6618 26.2673L56.9115 25.7973C58.2434 26.7374 59.3256 26.7097 60.0749 26.8203L59.5199 25.4379L60.0749 25.7144L59.2424 23.5024L60.0749 23.7789L58.9649 22.1199L59.3811 21.8435L59.2424 21.014C60.9073 21.567 63.1272 22.3964 63.4047 24.3319C63.6822 27.3733 60.3523 28.2028 58.1325 27.9263C59.7974 29.3088 62.8497 28.7558 64.2371 27.3733C64.7921 26.8203 65.0696 25.9908 65.3471 25.1614C65.6246 25.9908 66.1796 27.0968 66.1796 28.2028C65.9021 30.6912 62.5722 31.5207 60.3523 31.7972C62.8497 33.1796 67.2895 31.5207 67.567 27.9263C67.567 24.8849 65.6246 23.5024 64.7921 22.1199L64.5146 20.6269L65.3471 21.014C65.3471 21.014 64.8476 20.1016 64.7921 19.908C64.7921 19.908 63.9319 17.5578 63.6267 17.0325L64.2371 17.1431L61.9618 14.2952L62.6 14.2399C62.6 14.2399 59.9639 12.1662 59.2424 11.8897L60.0749 11.6132C58.4099 10.7838 56.4675 11.3367 54.8026 12.4427L55.0801 11.6132L54.5806 11.6685V10.7008L55.0801 9.95428L54.2476 9.67779L54.8026 8.29532L53.9702 8.57182L54.2476 7.18935C54.2476 7.18935 53.6372 7.46585 53.2487 7.4382C53.4081 7.1303 53.5562 6.81674 53.6927 6.49812C53.4152 6.08338 53.6927 5.25391 53.6927 5.25391C51.7503 5.5304 51.4728 5.80689 50.3628 7.46585C48.6979 10.5073 49.2529 11.8897 49.5304 14.9311Z" fill="#FFCC00" stroke="#FFCC00" stroke-width="0.304688"/>
<path fill-rule="evenodd" clip-rule="evenodd" d="M60.0195 19.4648C60.1583 19.7137 61.7399 20.4602 62.9054 21.1238C62.6002 19.8519 60.297 19.5754 60.0195 19.4648Z" fill="#FF0000" stroke="#FF0000" stroke-width="0.387784"/>
<path fill-rule="evenodd" clip-rule="evenodd" d="M21.8746 49.8746L20.0996 48.7496L17.7246 49.8871L18.2621 47.8621L16.4496 45.9746L18.5371 45.8496L19.7871 43.5496L20.5496 45.4871L23.1371 45.9621L21.5121 47.2871L21.8746 49.8746ZM26.3996 39.9996L25.5746 39.6246L24.7871 40.0746L24.9121 39.1746L24.2371 38.5621L25.1246 38.3996L25.4996 37.5746L25.9371 38.3746L26.8371 38.4746L26.2121 39.1246L26.3996 39.9996ZM30.3996 34.3496L28.5871 33.4746L26.8496 34.4496L27.1371 32.4871L25.6621 31.1371L27.6246 30.7871L28.4496 28.9871L29.3996 30.7371L31.3746 30.9621L29.9996 32.3996L30.3996 34.3496ZM22.1746 26.4746L20.0496 25.4121L17.9871 26.5496L18.3371 24.2246L16.6121 22.5996L18.9496 22.2246L19.9496 20.0996L21.0371 22.1871L23.3871 22.4746L21.7246 24.1496L22.1746 26.4746ZM14.5746 34.6496L12.4496 33.3996L10.3246 34.6871L10.8621 32.2746L8.97461 30.6496L11.4371 30.4246L12.3996 28.1371L13.3871 30.4121L15.8621 30.6121L13.9996 32.2371L14.5746 34.6496Z" fill="white"/>
</g>
<defs>
<clipPath id="clip0_4604_131302">
<rect width="80" height="60" fill="white"/>
</clipPath>
</defs>
</svg>
