<svg width="80" height="60" viewBox="0 0 80 60" fill="none" xmlns="http://www.w3.org/2000/svg">
<g clip-path="url(#clip0_3736_61214)">
<path d="M0 39.9629H80V60.0004H0V39.9629Z" fill="#0038A8"/>
<path d="M0 20H80V40H0V20Z" fill="white"/>
<path d="M0 0H80V20H0V0Z" fill="#D52B1E"/>
<path d="M39.996 37.6726C44.2335 37.6726 47.6687 34.2374 47.6687 29.9999C47.6687 25.7624 44.2335 22.3271 39.996 22.3271C35.7585 22.3271 32.3232 25.7624 32.3232 29.9999C32.3232 34.2374 35.7585 37.6726 39.996 37.6726Z" stroke="black" stroke-width="0.200001"/>
<path d="M39.9956 36.3087C43.4801 36.3087 46.3047 33.484 46.3047 29.9995C46.3047 26.5151 43.4801 23.6904 39.9956 23.6904C36.5112 23.6904 33.6865 26.5151 33.6865 29.9995C33.6865 33.484 36.5112 36.3087 39.9956 36.3087Z" stroke="black" stroke-width="0.0909094"/>
<path d="M39.9956 34.8358C42.6666 34.8358 44.8319 32.6705 44.8319 29.9995C44.8319 27.3284 42.6666 25.1631 39.9956 25.1631C37.3245 25.1631 35.1592 27.3284 35.1592 29.9995C35.1592 32.6705 37.3245 34.8358 39.9956 34.8358Z" stroke="black" stroke-width="0.0727275"/>
<path d="M35.9123 32.9625L35.0248 33.4875L34.7498 33.025C34.7113 32.9628 34.6819 32.8955 34.6623 32.825C34.6482 32.771 34.6526 32.7137 34.6748 32.6625C34.6998 32.6125 34.7373 32.575 34.7998 32.5375C34.8498 32.5125 34.8873 32.5 34.9373 32.5C34.9845 32.4969 35.0317 32.5055 35.0748 32.525L35.1748 32.6V32.4375L35.2123 32.375L35.3998 32.0875L35.5748 32.4L35.3998 32.7L35.3623 32.8L35.3748 32.875L35.3873 32.9L35.7623 32.6875L35.9123 32.9625ZM35.2248 33L35.1498 32.875L35.0998 32.8125C35.0916 32.8044 35.0818 32.798 35.0711 32.7938C35.0603 32.7895 35.0489 32.7873 35.0373 32.7875C35.0157 32.7847 34.9937 32.7891 34.9748 32.8L34.9248 32.875C34.9248 32.9 34.9373 32.9375 34.9748 32.9875L35.0373 33.1125L35.2248 33ZM34.3873 32.3125L34.1123 31.5L34.3248 31.425L34.4873 31.9375L34.6498 31.8875L34.4873 31.4125L34.6873 31.35L34.8498 31.8125L35.0373 31.75L34.8623 31.225L35.0873 31.1625L35.3623 31.9875L34.3873 32.3125ZM34.0248 31.1L33.9748 30.575C33.9498 30.45 33.9748 30.375 34.0248 30.3125C34.0748 30.2375 34.1498 30.2 34.2498 30.1875C34.3498 30.1875 34.4373 30.2 34.4998 30.2625C34.5623 30.3125 34.5998 30.4125 34.6248 30.5375L34.6373 30.7125L35.0123 30.6625L35.0623 30.9875L34.0248 31.1ZM34.4373 30.725L34.4248 30.65C34.4248 30.5875 34.3998 30.55 34.3748 30.525C34.3632 30.5142 34.3493 30.5063 34.3341 30.502C34.3189 30.4976 34.3028 30.4969 34.2873 30.5C34.257 30.5068 34.2302 30.5246 34.2123 30.55C34.1873 30.5625 34.1873 30.6125 34.1873 30.675L34.1998 30.7625L34.4373 30.725ZM33.9998 29.1625L34.0373 28.8375L34.6373 28.9125C34.6981 28.9189 34.7573 28.9358 34.8123 28.9625C34.8623 28.9875 34.9123 29.0125 34.9373 29.0625C34.9873 29.1 34.9998 29.15 35.0123 29.1875C35.0373 29.2625 35.0373 29.3375 35.0248 29.425L34.9998 29.5875C34.9873 29.65 34.9623 29.6875 34.9373 29.725C34.8858 29.8059 34.8053 29.8641 34.7123 29.8875H34.5373L33.9248 29.825L33.9623 29.5125L34.5873 29.575C34.6373 29.575 34.6873 29.575 34.7123 29.55C34.7623 29.525 34.7748 29.475 34.7873 29.425C34.7914 29.3801 34.778 29.3353 34.7498 29.3C34.7248 29.25 34.6748 29.2375 34.6248 29.225L33.9998 29.1625ZM34.1248 28.4125L34.3373 27.8375C34.3623 27.7375 34.4123 27.675 34.4748 27.65C34.5046 27.6322 34.5377 27.6208 34.5722 27.6165C34.6066 27.6121 34.6416 27.6151 34.6748 27.625C34.7373 27.65 34.7748 27.6875 34.7998 27.7375C34.8248 27.775 34.8373 27.8125 34.8373 27.8625C34.8748 27.8 34.9248 27.7625 34.9748 27.7375C35.0312 27.7164 35.0934 27.7164 35.1498 27.7375C35.1991 27.7535 35.2428 27.7832 35.276 27.823C35.3092 27.8628 35.3304 27.9111 35.3373 27.9625V28.0875L35.2998 28.2125L35.1123 28.7375L34.1248 28.4125ZM34.6248 28.2375L34.6748 28.1C34.6748 28.05 34.6873 28.0125 34.6748 28C34.6748 27.975 34.6498 27.95 34.6248 27.9375C34.6131 27.9319 34.6003 27.9291 34.5873 27.9291C34.5743 27.9291 34.5615 27.9319 34.5498 27.9375C34.5248 27.9625 34.4998 27.9875 34.4873 28.0375L34.4373 28.1625L34.6248 28.2375ZM34.9998 28.3625L35.0623 28.2125C35.0748 28.1625 35.0873 28.125 35.0623 28.0875C35.0523 28.0653 35.0345 28.0475 35.0123 28.0375C34.999 28.0298 34.9839 28.0258 34.9686 28.0258C34.9532 28.0258 34.9381 28.0298 34.9248 28.0375L34.8623 28.15L34.8123 28.3L34.9998 28.3625ZM34.6248 27.1625L34.7873 26.8875L35.4623 27.2875L35.7123 26.8625L35.9373 26.9875L35.5123 27.6875L34.6248 27.1625ZM35.2498 26.2125L35.4498 25.9625L36.2498 26.625L36.0498 26.875L35.2498 26.2125ZM36.6373 25.675L36.9123 25.55C36.9498 25.625 36.9623 25.7 36.9748 25.7625C36.9782 25.8272 36.9653 25.8916 36.9373 25.95C36.9014 26.0226 36.8502 26.0865 36.7873 26.1375C36.7191 26.2066 36.6322 26.2544 36.5373 26.275C36.4557 26.2993 36.3689 26.2993 36.2873 26.275C36.1871 26.2328 36.1005 26.1635 36.0373 26.075C35.9123 25.95 35.8623 25.825 35.8748 25.6875C35.8818 25.6167 35.9032 25.548 35.9376 25.4857C35.9719 25.4234 36.0186 25.3687 36.0748 25.325C36.1557 25.255 36.256 25.2114 36.3623 25.2C36.4498 25.1875 36.5498 25.2 36.6498 25.2625L36.4748 25.5C36.4522 25.4832 36.4268 25.4705 36.3998 25.4625C36.371 25.4556 36.3411 25.4556 36.3123 25.4625C36.2836 25.4728 36.2579 25.49 36.2373 25.5125C36.2103 25.5323 36.1891 25.559 36.1759 25.5898C36.1628 25.6205 36.158 25.6543 36.1623 25.6875C36.1623 25.7375 36.2123 25.8 36.2623 25.8625C36.3373 25.95 36.3998 26 36.4623 26.0125C36.5123 26.0125 36.5623 26.0125 36.6123 25.9625C36.6623 25.925 36.6873 25.8875 36.6873 25.8375C36.6873 25.7875 36.6748 25.7375 36.6373 25.675ZM37.7373 25.275L37.4248 25.45L37.4623 25.625L37.1748 25.775L37.0248 24.6875L37.3373 24.525L38.1623 25.25L37.8623 25.4125L37.7373 25.275ZM37.5748 25.1125L37.2998 24.8375L37.3748 25.2125L37.5748 25.1125ZM38.5498 24.05L39.0248 23.975C39.0991 23.9602 39.1755 23.9602 39.2498 23.975C39.3123 23.9875 39.3748 24.0125 39.4123 24.0625C39.4498 24.1125 39.4998 24.15 39.5248 24.2125C39.5498 24.2625 39.5748 24.3375 39.5748 24.4C39.5998 24.5125 39.5998 24.6 39.5873 24.65C39.5759 24.7133 39.5502 24.7731 39.5123 24.825C39.4808 24.8724 39.4378 24.9111 39.3873 24.9375C39.3278 24.9665 39.2648 24.9875 39.1998 25L38.7373 25.075L38.5498 24.05ZM38.9123 24.225L39.0123 24.7875L39.0873 24.775C39.1498 24.7625 39.1998 24.75 39.2123 24.725C39.2498 24.7125 39.2623 24.675 39.2748 24.6375V24.4625C39.2498 24.35 39.2123 24.2875 39.1748 24.25C39.1373 24.2125 39.0748 24.2 38.9873 24.2125L38.9123 24.225ZM39.8873 23.875L40.7373 23.9125V24.1375L40.1998 24.1125L40.1873 24.275L40.6873 24.3L40.6748 24.5125L40.1748 24.4875V24.6875L40.7248 24.7125L40.7123 24.95L39.8373 24.9125L39.8873 23.875ZM41.1373 23.975L41.4373 24.05L41.2498 24.8L41.7498 24.925L41.6748 25.175L40.8873 24.975L41.1373 23.975ZM42.7873 24.525L43.2498 24.8C43.3498 24.85 43.4123 24.925 43.4248 25C43.4498 25.075 43.4248 25.1625 43.3873 25.25C43.3661 25.2911 43.3361 25.327 43.2993 25.3551C43.2626 25.3832 43.22 25.4028 43.1748 25.4125C43.0998 25.425 42.9998 25.4125 42.8873 25.3375L42.7373 25.25L42.5373 25.575L42.2623 25.4125L42.7873 24.525ZM42.8373 25.075L42.9123 25.1125L43.0373 25.15C43.0528 25.1481 43.0677 25.1426 43.0808 25.1339C43.0938 25.1252 43.1046 25.1136 43.1123 25.1C43.1228 25.0718 43.1228 25.0407 43.1123 25.0125C43.1123 24.975 43.0873 24.95 43.0373 24.9125L42.9623 24.875L42.8373 25.075ZM43.7373 26.275L43.4748 26.025L43.3248 26.1125L43.0748 25.9L44.0748 25.4L44.3248 25.65L43.8998 26.6625L43.6498 26.4375L43.7373 26.275ZM43.8373 26.0625L44.0123 25.7125L43.6748 25.9125L43.8373 26.0625ZM43.9623 26.75L44.8248 26.1625L45.1123 26.6L45.2373 26.8125L45.2248 26.9625C45.1995 27.0209 45.1555 27.0693 45.0998 27.1C45.0623 27.1375 45.0123 27.15 44.9748 27.15C44.9235 27.1553 44.8717 27.1466 44.8248 27.125C44.7998 27.125 44.7623 27.0875 44.7248 27.0625L44.7498 27.15L44.7248 27.225C44.7189 27.2507 44.7105 27.2759 44.6998 27.3L44.5373 27.5875L44.3373 27.3L44.4998 26.975L44.5373 26.8875C44.5403 26.8562 44.5313 26.825 44.5123 26.8L44.4998 26.775L44.1498 27.025L43.9623 26.75ZM44.6498 26.675L44.7373 26.7875L44.7873 26.8375C44.8123 26.8625 44.8248 26.8625 44.8498 26.8625C44.8714 26.8653 44.8934 26.8609 44.9123 26.85C44.9236 26.841 44.9328 26.8296 44.9393 26.8166C44.9458 26.8037 44.9494 26.7895 44.9498 26.775C44.9498 26.75 44.9498 26.7125 44.9123 26.6625L44.8248 26.55L44.6498 26.675ZM44.9748 28.225L44.8498 27.875L44.6623 27.9L44.5373 27.5875L45.6498 27.575L45.7748 27.9L44.9623 28.65L44.8373 28.325L44.9748 28.225ZM45.1623 28.075L45.4623 27.825L45.0748 27.8625L45.1623 28.075ZM45.4248 29.2L45.6373 29.175L45.7123 29.6625L45.2748 29.725C45.2104 29.6579 45.1557 29.5822 45.1123 29.5C45.0746 29.421 45.0493 29.3367 45.0373 29.25C45.0149 29.1465 45.0192 29.0389 45.0498 28.9375C45.0856 28.8578 45.1416 28.7888 45.2123 28.7375C45.2934 28.678 45.3878 28.6394 45.4873 28.625C45.5878 28.6088 45.6908 28.6173 45.7873 28.65C45.8747 28.6847 45.949 28.7459 45.9998 28.825C46.0498 28.9 46.0748 28.9875 46.0998 29.1V29.35C46.0899 29.4099 46.064 29.4661 46.0248 29.5125C45.9873 29.5625 45.9373 29.5875 45.8748 29.625L45.7748 29.325C45.8123 29.3125 45.8373 29.2875 45.8623 29.25C45.8873 29.2125 45.8748 29.175 45.8623 29.125C45.8591 29.0952 45.8497 29.0665 45.8346 29.0407C45.8195 29.0148 45.7991 28.9924 45.7748 28.975C45.7248 28.9375 45.6498 28.925 45.5248 28.95C45.4466 28.9562 45.3722 28.9868 45.3123 29.0375C45.2623 29.0875 45.2498 29.1625 45.2623 29.225C45.2623 29.2625 45.2748 29.3 45.2998 29.325L45.3623 29.425H45.4623L45.4248 29.2ZM46.0998 30.7L46.0748 31.025L45.4498 30.975C45.3933 30.9673 45.3384 30.9504 45.2873 30.925C45.2389 30.9011 45.1963 30.8669 45.1623 30.825C45.1279 30.785 45.1024 30.7381 45.0873 30.6875C45.0656 30.6146 45.0571 30.5384 45.0623 30.4625L45.0873 30.3L45.1498 30.15C45.1765 30.1106 45.2104 30.0767 45.2498 30.05C45.2875 30.0248 45.3301 30.0078 45.3748 30C45.4316 29.9832 45.4906 29.9748 45.5498 29.975L46.1748 30.0375L46.1373 30.35L45.5123 30.3C45.4498 30.3 45.3998 30.3 45.3748 30.3375C45.3564 30.3529 45.3413 30.372 45.3305 30.3935C45.3198 30.415 45.3136 30.4385 45.3123 30.4625C45.3123 30.5125 45.3123 30.5625 45.3498 30.5875C45.3748 30.625 45.4123 30.65 45.4748 30.65L46.0998 30.7ZM44.9623 31.8L45.0748 31.45L44.9248 31.35L45.0248 31.0375L45.8998 31.7375L45.7748 32.0625L44.6748 32.1125L44.7873 31.8H44.9623ZM45.1998 31.8L45.5748 31.8125L45.2623 31.5875L45.1998 31.8ZM45.5748 32.65L45.3873 32.95H44.9748L45.1623 33.3125L44.9873 33.6125L44.6748 32.9625L44.2998 32.7375L44.4748 32.4625L44.8498 32.6875L45.5748 32.65Z" fill="black"/>
<path d="M41.0125 26.4121C41.0125 26.4121 43.9375 27.6746 43.425 30.2746C42.925 32.8746 41.3 32.8496 40.65 33.1496C40.025 33.4246 39.575 33.8371 39.325 33.7746C39.075 33.7246 38.7375 33.5246 38.7375 33.5246C38.7375 33.5246 38.7125 33.9621 39.225 34.0246C39.7375 34.1121 40.4125 33.3621 40.725 33.2746C41.05 33.1996 43.0375 32.9746 43.525 30.3371C44.0875 27.5121 41.025 26.4996 41.025 26.4121H41.0125Z" fill="#009B3A" stroke="black" stroke-width="0.0125"/>
<path d="M42.4871 26.9745C42.4955 27.0417 42.4964 27.0986 42.4897 27.1385C42.483 27.1784 42.469 27.1996 42.4493 27.1996C42.4295 27.1996 42.405 27.1784 42.3784 27.1385C42.3519 27.0986 42.3246 27.0417 42.2996 26.9745C42.2777 26.9155 42.2584 26.8506 42.2435 26.7857C42.2285 26.7209 42.2185 26.6582 42.2142 26.6034C42.21 26.5486 42.2116 26.5036 42.2191 26.4724C42.2265 26.4412 42.2395 26.4248 42.2568 26.4248C42.2742 26.4248 42.2953 26.4412 42.3182 26.4724C42.3412 26.5036 42.3652 26.5486 42.3882 26.6034C42.4111 26.6582 42.4322 26.7209 42.4495 26.7857C42.4668 26.8506 42.4797 26.9155 42.4871 26.9745Z" fill="#009B3A" stroke="black" stroke-width="0.0125"/>
<path d="M42.3874 27.0001C42.4128 27.0512 42.4357 27.1027 42.4547 27.1515C42.4737 27.2003 42.4886 27.2455 42.4984 27.2846C42.5082 27.3237 42.5128 27.3558 42.5119 27.3792C42.511 27.4025 42.5046 27.4167 42.4931 27.4208C42.4816 27.4249 42.4652 27.4189 42.4449 27.4031C42.4246 27.3873 42.4007 27.3621 42.3746 27.3288C42.3486 27.2955 42.3208 27.2549 42.293 27.2092C42.2652 27.1635 42.2378 27.1137 42.2124 27.0626C42.1612 26.9593 42.1213 26.8569 42.1015 26.778C42.0817 26.6991 42.0836 26.6502 42.1068 26.6419C42.13 26.6336 42.1726 26.6667 42.2252 26.7338C42.2778 26.801 42.3362 26.8968 42.3874 27.0001ZM42.0999 27.1876C42.1904 27.2169 42.2729 27.2533 42.3315 27.2896C42.3902 27.3259 42.4209 27.3596 42.4178 27.3844C42.4147 27.4092 42.378 27.4232 42.3148 27.4238C42.2515 27.4243 42.1661 27.4115 42.0749 27.3876C41.9844 27.3582 41.902 27.3219 41.8433 27.2856C41.7847 27.2493 41.754 27.2155 41.757 27.1907C41.7601 27.166 41.7968 27.152 41.8601 27.1514C41.9233 27.1508 42.0087 27.1637 42.0999 27.1876Z" fill="#009B3A" stroke="black" stroke-width="0.0125"/>
<path d="M42.1369 27.0877C42.2321 27.1517 42.3188 27.2218 42.378 27.2823C42.4371 27.3428 42.4638 27.3889 42.4522 27.4105C42.4406 27.432 42.3916 27.4273 42.3161 27.3972C42.2405 27.3671 42.1446 27.3142 42.0494 27.2502C42.0022 27.2185 41.9567 27.1849 41.9153 27.1515C41.874 27.1182 41.8376 27.0855 41.8083 27.0556C41.7492 26.995 41.7225 26.9489 41.7341 26.9274C41.7457 26.9058 41.7947 26.9106 41.8702 26.9407C41.9457 26.9707 42.0417 27.0236 42.1369 27.0877Z" fill="#009B3A" stroke="black" stroke-width="0.0125"/>
<path d="M42.2621 27.0373C42.3387 27.117 42.4055 27.2 42.4479 27.268C42.4903 27.3361 42.5048 27.3836 42.4882 27.4002C42.4717 27.4168 42.4254 27.401 42.3595 27.3564C42.2937 27.3118 42.2137 27.242 42.1371 27.1623C42.0606 27.0826 41.9937 26.9996 41.9513 26.9316C41.9089 26.8635 41.8944 26.816 41.911 26.7994C41.9276 26.7828 41.9739 26.7986 42.0397 26.8432C42.1056 26.8878 42.1856 26.9576 42.2621 27.0373Z" fill="#009B3A" stroke="black" stroke-width="0.0125"/>
<path d="M42.4617 27.4003L42.3367 27.4753C42.2992 27.4753 42.2617 27.4378 42.1867 27.4753C42.1117 27.5128 42.0617 27.5878 42.0492 27.6253C42.0367 27.6628 42.0742 27.6878 42.1617 27.6378C42.2492 27.6003 42.2742 27.5253 42.3117 27.5003L42.4742 27.4128L42.5742 27.2503C42.6117 27.2003 42.7242 27.1253 42.7742 27.0253C42.8117 26.9503 42.7992 26.8878 42.7492 26.9128C42.684 26.9507 42.6317 27.0073 42.5992 27.0753C42.5742 27.1253 42.5992 27.2003 42.5617 27.2503L42.4617 27.4003ZM43.3742 27.7003C43.3771 27.8742 43.3654 28.0376 43.3417 28.1547C43.318 28.2718 43.2842 28.3329 43.2477 28.3246C43.2113 28.3163 43.1751 28.2393 43.1473 28.1105C43.1194 27.9817 43.1021 27.8117 43.0992 27.6378C43.0963 27.464 43.108 27.3005 43.1317 27.1835C43.1554 27.0664 43.1893 27.0053 43.2257 27.0136C43.2622 27.0219 43.2983 27.0989 43.3262 27.2277C43.354 27.3565 43.3713 27.5265 43.3742 27.7003Z" fill="#009B3A" stroke="black" stroke-width="0.0125"/>
<path d="M43.2242 27.6875C43.2619 27.8633 43.2836 28.0326 43.2845 28.1581C43.2853 28.2836 43.2653 28.355 43.2289 28.3566C43.1924 28.3583 43.1425 28.2901 43.09 28.1669C43.0376 28.0438 42.9869 27.8758 42.9493 27.7C42.9318 27.6177 42.9179 27.5362 42.9083 27.4601C42.8987 27.3841 42.8937 27.315 42.8936 27.2568C42.8934 27.1986 42.898 27.1524 42.9073 27.1209C42.9165 27.0895 42.9301 27.0732 42.9474 27.0732C42.9646 27.0732 42.9851 27.0895 43.0077 27.1209C43.0304 27.1524 43.0546 27.1986 43.0792 27.2568C43.1037 27.315 43.1281 27.3841 43.1508 27.4601C43.1736 27.5362 43.1943 27.6177 43.2118 27.7L43.2242 27.6875Z" fill="#009B3A" stroke="black" stroke-width="0.0125"/>
<path d="M42.7494 27.8375C42.8134 27.8807 42.8757 27.9271 42.9327 27.974C42.9897 28.0208 43.0402 28.0673 43.0815 28.1106C43.1227 28.154 43.1538 28.1934 43.173 28.2266C43.1922 28.2598 43.1992 28.2862 43.1934 28.3043C43.1877 28.3223 43.1694 28.3317 43.1396 28.3318C43.1097 28.332 43.069 28.3229 43.0196 28.3051C42.9702 28.2873 42.9132 28.2611 42.8519 28.228C42.7905 28.195 42.7259 28.1557 42.6619 28.1125C42.5978 28.0693 42.5355 28.0229 42.4785 27.976C42.4215 27.9292 42.371 27.8827 42.3297 27.8394C42.2885 27.796 42.2574 27.7566 42.2382 27.7234C42.219 27.6902 42.212 27.6638 42.2178 27.6457C42.2235 27.6277 42.2418 27.6183 42.2717 27.6182C42.3015 27.618 42.3422 27.6271 42.3916 27.6449C42.441 27.6627 42.498 27.6889 42.5593 27.722C42.6207 27.755 42.6853 27.7943 42.7494 27.8375Z" fill="#009B3A" stroke="black" stroke-width="0.0125"/>
<path d="M42.8498 27.7C42.9603 27.834 43.057 27.9731 43.1187 28.0866C43.1804 28.2001 43.202 28.2788 43.1788 28.3053C43.1556 28.3319 43.0894 28.304 42.9949 28.228C42.9004 28.152 42.7853 28.034 42.6748 27.9C42.5678 27.7698 42.4745 27.6351 42.4152 27.5255C42.356 27.4159 42.3358 27.3404 42.359 27.3155C42.3822 27.2907 42.4469 27.3185 42.539 27.3929C42.631 27.4674 42.7428 27.5823 42.8498 27.7125V27.7Z" fill="#009B3A" stroke="black" stroke-width="0.0125"/>
<path d="M43.0374 27.687C43.1198 27.8404 43.1869 27.994 43.224 28.1142C43.2611 28.2343 43.2652 28.3112 43.2354 28.3277C43.2056 28.3443 43.1442 28.2993 43.0649 28.2026C42.9856 28.1059 42.8948 27.9654 42.8124 27.812C42.7717 27.7361 42.7342 27.6593 42.7022 27.586C42.6702 27.5127 42.6442 27.4444 42.6259 27.3849C42.5887 27.2647 42.5846 27.1879 42.6145 27.1713C42.6443 27.1548 42.7056 27.1998 42.785 27.2965C42.8643 27.3932 42.9551 27.5337 43.0374 27.687Z" fill="#009B3A" stroke="black" stroke-width="0.0125"/>
<path d="M43.2 28.2997L42.975 28.3497C42.9375 28.3497 42.9 28.2622 42.7875 28.2872C42.675 28.3122 42.575 28.3872 42.5375 28.4372C42.5125 28.4872 42.55 28.5372 42.6875 28.5122C42.8375 28.4872 42.8875 28.3872 42.9625 28.3872C43.025 28.3622 43.1375 28.3372 43.2125 28.3372C43.2375 28.2872 43.3375 28.1872 43.4 28.1372C43.4625 28.0747 43.65 28.0122 43.7375 27.9122C43.825 27.8122 43.825 27.7122 43.7375 27.7247C43.6418 27.757 43.5558 27.8129 43.4875 27.8872C43.425 27.9622 43.4375 28.0747 43.375 28.1372L43.2 28.2997ZM43.8375 28.9122C43.8095 29.0792 43.7696 29.2328 43.7264 29.3392C43.6831 29.4456 43.6402 29.496 43.6071 29.4795C43.5739 29.4629 43.5533 29.3806 43.5496 29.2508C43.5459 29.121 43.5595 28.9542 43.5875 28.7872C43.6013 28.7045 43.6183 28.6242 43.6374 28.5509C43.6564 28.4777 43.6772 28.4129 43.6986 28.3602C43.72 28.3075 43.7416 28.268 43.762 28.2439C43.7825 28.2199 43.8015 28.2117 43.8179 28.2199C43.8343 28.2281 43.8478 28.2525 43.8577 28.2918C43.8676 28.331 43.8736 28.3843 43.8754 28.4486C43.8772 28.5129 43.8748 28.5869 43.8683 28.6664C43.8618 28.746 43.8513 28.8295 43.8375 28.9122Z" fill="#009B3A" stroke="black" stroke-width="0.0125"/>
<path d="M43.6998 28.8747C43.704 28.9618 43.7045 29.0493 43.7013 29.1315C43.6981 29.2137 43.6913 29.2887 43.6813 29.3517C43.6713 29.4148 43.6584 29.4644 43.6433 29.4975C43.6282 29.5305 43.6113 29.5462 43.5937 29.5436C43.5762 29.541 43.5583 29.52 43.5412 29.4822C43.5242 29.4443 43.5084 29.3903 43.4948 29.3238C43.4813 29.2572 43.4703 29.1795 43.4625 29.0957C43.4548 29.0119 43.4504 28.9238 43.4498 28.8372C43.4457 28.75 43.4452 28.6625 43.4484 28.5804C43.4515 28.4982 43.4584 28.4232 43.4684 28.3601C43.4784 28.2971 43.4913 28.2474 43.5064 28.2144C43.5215 28.1813 43.5384 28.1656 43.5559 28.1683C43.5735 28.1709 43.5914 28.1918 43.6084 28.2297C43.6255 28.2676 43.6413 28.3215 43.6548 28.3881C43.6684 28.4547 43.6794 28.5324 43.6872 28.6162C43.6949 28.7 43.6992 28.7881 43.6998 28.8747Z" fill="#009B3A" stroke="black" stroke-width="0.0125"/>
<path d="M43.2123 28.9254C43.2768 28.9814 43.3422 29.0452 43.4035 29.1117C43.4647 29.1783 43.5201 29.2458 43.5653 29.3089C43.6104 29.3721 43.6442 29.4292 43.6638 29.4757C43.6834 29.5222 43.6884 29.5568 43.6783 29.577C43.6683 29.5971 43.6435 29.6021 43.6058 29.5916C43.5682 29.581 43.5188 29.5553 43.4615 29.5164C43.4043 29.4775 43.3406 29.4264 43.2757 29.3673C43.2108 29.3081 43.1463 29.2424 43.0873 29.1754C43.0228 29.1194 42.9574 29.0556 42.8961 28.9891C42.8349 28.9225 42.7795 28.855 42.7343 28.7919C42.6891 28.7287 42.6554 28.6717 42.6358 28.6251C42.6162 28.5786 42.6112 28.544 42.6213 28.5239C42.6313 28.5038 42.6561 28.4988 42.6937 28.5093C42.7314 28.5198 42.7808 28.5455 42.838 28.5844C42.8953 28.6233 42.9589 28.6744 43.0239 28.7336C43.0888 28.7927 43.1533 28.8584 43.2123 28.9254Z" fill="#009B3A" stroke="black" stroke-width="0.0125"/>
<path d="M43.3368 28.8128C43.3783 28.8889 43.4166 28.9664 43.4496 29.0409C43.4825 29.1153 43.5095 29.1852 43.529 29.2466C43.5484 29.3079 43.56 29.3596 43.563 29.3986C43.5659 29.4376 43.5603 29.4632 43.5463 29.4738C43.5324 29.4845 43.5104 29.4801 43.4816 29.4608C43.4529 29.4415 43.4179 29.4078 43.3787 29.3615C43.3395 29.3152 43.2969 29.2572 43.2533 29.191C43.2096 29.1247 43.1658 29.0514 43.1243 28.9753C43.0829 28.8992 43.0446 28.8217 43.0116 28.7472C42.9786 28.6728 42.9517 28.6029 42.9322 28.5415C42.9128 28.4801 42.9012 28.4285 42.8982 28.3895C42.8953 28.3505 42.9009 28.3249 42.9149 28.3143C42.9288 28.3036 42.9508 28.308 42.9796 28.3273C43.0083 28.3466 43.0433 28.3803 43.0825 28.4266C43.1216 28.4729 43.1643 28.5308 43.2079 28.5971C43.2516 28.6634 43.2954 28.7367 43.3368 28.8128Z" fill="#009B3A" stroke="black" stroke-width="0.0125"/>
<path d="M43.5117 28.8377C43.5373 28.9184 43.5596 28.9994 43.5773 29.0762C43.595 29.1529 43.6077 29.2239 43.6148 29.285C43.6219 29.3461 43.6232 29.3962 43.6186 29.4324C43.6139 29.4686 43.6036 29.4902 43.588 29.4959C43.5724 29.5017 43.5519 29.4915 43.5277 29.4659C43.5035 29.4403 43.476 29.3999 43.4469 29.3469C43.4177 29.2939 43.3875 29.2293 43.3579 29.157C43.3283 29.0846 43.2998 29.0059 43.2742 28.9252C43.2475 28.8406 43.2242 28.7558 43.2057 28.6755C43.1873 28.5953 43.1741 28.5211 43.1667 28.4573C43.152 28.3284 43.1623 28.2494 43.1954 28.2378C43.2286 28.2262 43.2819 28.2829 43.3435 28.3954C43.4052 28.5079 43.4702 28.667 43.5242 28.8377H43.5117Z" fill="#009B3A" stroke="black" stroke-width="0.0125"/>
<path d="M43.5618 29.4752H43.3493C43.3118 29.4752 43.2868 29.3752 43.1743 29.3752C43.0778 29.3768 42.9849 29.4122 42.9118 29.4752C42.8618 29.5252 42.8993 29.5752 43.0368 29.5752C43.1743 29.5752 43.2493 29.5127 43.3243 29.5002H43.5743L43.7993 29.3502C43.8743 29.3002 44.0618 29.2752 44.1743 29.1877C44.2618 29.1127 44.2868 29.0127 44.2118 29.0127C44.108 29.0256 44.0092 29.0642 43.9243 29.1252C43.8618 29.1752 43.8493 29.2877 43.7743 29.3377C43.7243 29.3627 43.5743 29.4752 43.5618 29.4627M43.8743 30.2627C43.7862 30.4028 43.6925 30.5259 43.6138 30.605C43.5351 30.6841 43.4778 30.7128 43.4546 30.6846C43.4314 30.6564 43.4441 30.5737 43.49 30.4548C43.5359 30.3358 43.6112 30.1903 43.6993 30.0502C43.7874 29.9101 43.8811 29.787 43.9598 29.7079C44.0385 29.6288 44.0957 29.6001 44.1189 29.6283C44.1421 29.6565 44.1294 29.7392 44.0835 29.8581C44.0376 29.9771 43.9624 30.1226 43.8743 30.2627Z" fill="#009B3A"/>
<path d="M43.5618 29.4752H43.3493C43.3118 29.4752 43.2868 29.3752 43.1743 29.3752C43.0778 29.3768 42.9849 29.4122 42.9118 29.4752C42.8618 29.5252 42.8993 29.5752 43.0368 29.5752C43.1743 29.5752 43.2493 29.5127 43.3243 29.5002H43.5743L43.7993 29.3502C43.8743 29.3002 44.0618 29.2752 44.1743 29.1877C44.2618 29.1127 44.2868 29.0127 44.2118 29.0127C44.108 29.0256 44.0092 29.0642 43.9243 29.1252C43.8618 29.1752 43.8493 29.2877 43.7743 29.3377C43.7243 29.3627 43.5743 29.4752 43.5618 29.4627M43.8743 30.2627C43.7862 30.4028 43.6925 30.5259 43.6138 30.605C43.5351 30.6841 43.4778 30.7128 43.4546 30.6846C43.4314 30.6564 43.4441 30.5737 43.49 30.4548C43.5359 30.3358 43.6112 30.1903 43.6993 30.0502C43.7874 29.9101 43.8811 29.787 43.9598 29.7079C44.0385 29.6288 44.0957 29.6001 44.1189 29.6283C44.1421 29.6565 44.1294 29.7392 44.0835 29.8581C44.0376 29.9771 43.9624 30.1226 43.8743 30.2627Z" stroke="black" stroke-width="0.0125"/>
<path d="M43.7621 30.1627C43.7005 30.323 43.6295 30.4694 43.5648 30.5699C43.5001 30.6703 43.447 30.7165 43.4172 30.6983C43.3874 30.68 43.3832 30.5989 43.4057 30.4727C43.4282 30.3464 43.4755 30.1855 43.5371 30.0252C43.5988 29.8649 43.6698 29.7184 43.7345 29.618C43.7991 29.5176 43.8522 29.4714 43.8821 29.4896C43.9119 29.5078 43.916 29.589 43.8936 29.7152C43.8711 29.8415 43.8238 30.0024 43.7621 30.1627ZM43.2996 30.0127C43.3622 30.1766 43.4104 30.3436 43.4335 30.4771C43.4566 30.6106 43.4529 30.6995 43.423 30.7244C43.3932 30.7492 43.3397 30.708 43.2744 30.6097C43.2091 30.5114 43.1372 30.3641 43.0746 30.2002C43.0121 30.0363 42.9639 29.8693 42.9408 29.7358C42.9176 29.6023 42.9214 29.5134 42.9512 29.4885C42.9811 29.4637 43.0345 29.5049 43.0999 29.6032C43.1652 29.7015 43.2371 29.8488 43.2996 30.0127Z" fill="#009B3A" stroke="black" stroke-width="0.0125"/>
<path d="M43.4499 29.9623C43.4657 30.1336 43.4676 30.3012 43.4553 30.4282C43.443 30.5553 43.4175 30.6313 43.3843 30.6396C43.3512 30.6479 43.3131 30.5877 43.2785 30.4724C43.244 30.3571 43.2157 30.1961 43.1999 30.0248C43.1921 29.9399 43.1876 29.8551 43.1867 29.7751C43.1858 29.6952 43.1884 29.6217 43.1945 29.5588C43.2006 29.4959 43.21 29.4448 43.2222 29.4086C43.2344 29.3723 43.2491 29.3515 43.2655 29.3474C43.2819 29.3433 43.2997 29.356 43.3179 29.3847C43.336 29.4133 43.3542 29.4575 43.3713 29.5146C43.3884 29.5717 43.4042 29.6406 43.4177 29.7174C43.4312 29.7942 43.4421 29.8774 43.4499 29.9623Z" fill="#009B3A" stroke="black" stroke-width="0.0125"/>
<path d="M43.6245 30.05C43.6083 30.2217 43.5796 30.3856 43.5446 30.5058C43.5097 30.626 43.4715 30.6926 43.4383 30.691C43.4052 30.6893 43.3798 30.6195 43.3679 30.497C43.3559 30.3744 43.3583 30.2092 43.3745 30.0375C43.3826 29.9525 43.3938 29.8685 43.4075 29.7903C43.4212 29.7121 43.4371 29.6412 43.4544 29.5817C43.4717 29.5221 43.49 29.4752 43.5082 29.4434C43.5265 29.4116 43.5443 29.3957 43.5607 29.3965C43.5939 29.3982 43.6192 29.468 43.6312 29.5905C43.6432 29.7131 43.6408 29.8783 43.6245 30.05Z" fill="#009B3A" stroke="black" stroke-width="0.0125"/>
<path d="M43.4121 30.6629C43.4121 30.6629 43.2371 30.6004 43.2121 30.5754C43.1746 30.5504 43.1996 30.4754 43.0871 30.4129C42.9985 30.3793 42.9007 30.3793 42.8121 30.4129C42.7496 30.4129 42.7621 30.4879 42.8871 30.5379C43.0121 30.6129 43.1121 30.5629 43.1746 30.5879L43.3996 30.7004C43.4621 30.6754 43.5996 30.6629 43.6746 30.6504C43.7496 30.6379 43.9371 30.7004 44.0746 30.6504C44.1871 30.6129 44.2371 30.5254 44.1621 30.5004C44.0679 30.4755 43.9688 30.4755 43.8746 30.5004C43.7871 30.5129 43.7371 30.6254 43.6496 30.6254C43.5871 30.6254 43.4121 30.6754 43.3996 30.6629M43.5246 31.6254C43.4506 31.696 43.3711 31.764 43.2923 31.8243C43.2134 31.8847 43.1371 31.9358 43.0691 31.9739C43.001 32.012 42.943 32.0361 42.8993 32.0443C42.8557 32.0526 42.8275 32.0449 42.8169 32.0217C42.8062 31.9985 42.8135 31.9605 42.838 31.9105C42.8625 31.8605 42.9037 31.7997 42.9586 31.7328C43.0134 31.6659 43.0804 31.5945 43.1546 31.5239C43.2288 31.4534 43.3083 31.3855 43.3871 31.3254C43.4622 31.2508 43.5448 31.1776 43.6281 31.1119C43.7113 31.0462 43.7928 30.9899 43.8659 30.9475C43.939 30.9052 44.0015 30.878 44.0484 30.8682C44.0953 30.8585 44.1252 30.8664 44.1356 30.8915C44.146 30.9165 44.1367 30.9578 44.1084 31.0121C44.08 31.0664 44.0335 31.1321 43.9726 31.2037C43.9118 31.2754 43.8383 31.351 43.7582 31.4243C43.6781 31.4976 43.5938 31.5665 43.5121 31.6254" fill="#009B3A"/>
<path d="M43.4121 30.6629C43.4121 30.6629 43.2371 30.6004 43.2121 30.5754C43.1746 30.5504 43.1996 30.4754 43.0871 30.4129C42.9985 30.3793 42.9007 30.3793 42.8121 30.4129C42.7496 30.4129 42.7621 30.4879 42.8871 30.5379C43.0121 30.6129 43.1121 30.5629 43.1746 30.5879L43.3996 30.7004C43.4621 30.6754 43.5996 30.6629 43.6746 30.6504C43.7496 30.6379 43.9371 30.7004 44.0746 30.6504C44.1871 30.6129 44.2371 30.5254 44.1621 30.5004C44.0679 30.4755 43.9688 30.4755 43.8746 30.5004C43.7871 30.5129 43.7371 30.6254 43.6496 30.6254C43.5871 30.6254 43.4121 30.6754 43.3996 30.6629M43.5246 31.6254C43.4506 31.696 43.3711 31.764 43.2923 31.8243C43.2134 31.8847 43.1371 31.9358 43.0691 31.9739C43.001 32.012 42.943 32.0361 42.8993 32.0443C42.8557 32.0526 42.8275 32.0449 42.8169 32.0217C42.8062 31.9985 42.8135 31.9605 42.838 31.9105C42.8625 31.8605 42.9037 31.7997 42.9586 31.7328C43.0134 31.6659 43.0804 31.5945 43.1546 31.5239C43.2288 31.4534 43.3083 31.3855 43.3871 31.3254C43.4622 31.2508 43.5448 31.1776 43.6281 31.1119C43.7113 31.0462 43.7928 30.9899 43.8659 30.9475C43.939 30.9052 44.0015 30.878 44.0484 30.8682C44.0953 30.8585 44.1252 30.8664 44.1356 30.8915C44.146 30.9165 44.1367 30.9578 44.1084 31.0121C44.08 31.0664 44.0335 31.1321 43.9726 31.2037C43.9118 31.2754 43.8383 31.351 43.7582 31.4243C43.6781 31.4976 43.5938 31.5665 43.5121 31.6254" stroke="black" stroke-width="0.0125"/>
<path d="M43.4124 31.4875C43.2932 31.6392 43.1689 31.7714 43.067 31.8552C42.9651 31.9389 42.8939 31.9674 42.869 31.9342C42.8442 31.9011 42.8677 31.809 42.9345 31.6784C43.0012 31.5477 43.1057 31.3892 43.2249 31.2375C43.284 31.1625 43.3449 31.0914 43.4042 31.0283C43.4634 30.9652 43.5199 30.9114 43.5704 30.8699C43.6208 30.8284 43.6643 30.8001 43.6982 30.7865C43.7322 30.773 43.756 30.7744 43.7683 30.7908C43.7807 30.8073 43.7812 30.8383 43.77 30.8822C43.7588 30.9261 43.736 30.982 43.7029 31.0467C43.6699 31.1114 43.6272 31.1836 43.5774 31.2592C43.5275 31.3349 43.4715 31.4125 43.4124 31.4875Z" fill="#009B3A" stroke="black" stroke-width="0.0125"/>
<path d="M42.962 31.1498C42.9783 31.2492 42.9893 31.3577 42.9942 31.4664C42.9991 31.5752 42.9977 31.6809 42.9902 31.775C42.9826 31.8691 42.9691 31.9488 42.9507 32.0075C42.9324 32.0663 42.9097 32.1024 42.8846 32.1128C42.8595 32.1233 42.8327 32.1078 42.8064 32.0677C42.7801 32.0276 42.755 31.9639 42.7332 31.8821C42.7115 31.8002 42.6937 31.7024 42.6813 31.5968C42.6689 31.4912 42.6623 31.3809 42.662 31.2748C42.6458 31.1754 42.6347 31.0669 42.6298 30.9581C42.6249 30.8494 42.6263 30.7437 42.6339 30.6496C42.6414 30.5555 42.655 30.4758 42.6733 30.4171C42.6917 30.3583 42.7143 30.3222 42.7394 30.3118C42.7645 30.3013 42.7913 30.3168 42.8177 30.3569C42.844 30.397 42.869 30.4607 42.8908 30.5425C42.9125 30.6244 42.9303 30.7222 42.9427 30.8278C42.9551 30.9334 42.9617 31.0437 42.962 31.1498Z" fill="#009B3A" stroke="black" stroke-width="0.0125"/>
<path d="M43.1371 31.1504C43.098 31.2974 43.0531 31.425 43.0088 31.5146C42.9645 31.6042 42.9233 31.6511 42.8911 31.6483C42.859 31.6455 42.8376 31.5932 42.8301 31.4991C42.8226 31.405 42.8294 31.274 42.8496 31.1254C42.8635 31.0164 42.8843 30.9003 42.9104 30.787C42.9365 30.6737 42.9671 30.5662 42.9996 30.4736C43.0321 30.381 43.0657 30.3059 43.0975 30.2545C43.1293 30.203 43.1585 30.1767 43.1826 30.1778C43.2066 30.1788 43.225 30.2072 43.236 30.2605C43.247 30.3138 43.2505 30.3905 43.246 30.4844C43.2416 30.5782 43.2294 30.6864 43.2104 30.8C43.1915 30.9137 43.1663 31.0295 43.1371 31.1379" fill="#009B3A"/>
<path d="M43.1371 31.1504C43.098 31.2974 43.0531 31.425 43.0088 31.5146C42.9645 31.6042 42.9233 31.6511 42.8911 31.6483C42.859 31.6455 42.8376 31.5932 42.8301 31.4991C42.8226 31.405 42.8294 31.274 42.8496 31.1254C42.8635 31.0164 42.8843 30.9003 42.9104 30.787C42.9365 30.6737 42.9671 30.5662 42.9996 30.4736C43.0321 30.381 43.0657 30.3059 43.0975 30.2545C43.1293 30.203 43.1585 30.1767 43.1826 30.1778C43.2066 30.1788 43.225 30.2072 43.236 30.2605C43.247 30.3138 43.2505 30.3905 43.246 30.4844C43.2416 30.5782 43.2294 30.6864 43.2104 30.8C43.1915 30.9137 43.1663 31.0295 43.1371 31.1379" stroke="black" stroke-width="0.0125"/>
<path d="M43.287 31.3002C43.2524 31.4084 43.2092 31.5227 43.1613 31.6331C43.1133 31.7435 43.062 31.8469 43.0117 31.9344C42.9614 32.0218 42.9136 32.0907 42.8724 32.1352C42.8312 32.1797 42.7978 32.1984 42.7752 32.1898C42.7525 32.1812 42.7412 32.1454 42.7423 32.0857C42.7433 32.0259 42.7566 31.9438 42.7812 31.8465C42.8057 31.7493 42.8406 31.6397 42.883 31.5271C42.9254 31.4145 42.9739 31.3024 43.0245 31.2002C43.0591 31.092 43.1023 30.9778 43.1502 30.8674C43.1982 30.7569 43.2495 30.6535 43.2998 30.5661C43.3501 30.4786 43.3979 30.4097 43.4391 30.3652C43.4803 30.3207 43.5136 30.302 43.5363 30.3106C43.559 30.3193 43.5703 30.355 43.5692 30.4148C43.5682 30.4746 43.5548 30.5566 43.5303 30.6539C43.5058 30.7512 43.4709 30.8608 43.4285 30.9734C43.3861 31.0859 43.3376 31.1981 43.287 31.3002Z" fill="#009B3A" stroke="black" stroke-width="0.0125"/>
<path d="M42.8745 31.9127C42.8041 31.8588 42.7373 31.8003 42.6745 31.7377C42.6495 31.7002 42.687 31.6127 42.587 31.5127C42.487 31.4127 42.362 31.3877 42.287 31.3877C42.212 31.4002 42.212 31.4752 42.3245 31.5877C42.4495 31.7127 42.5745 31.6877 42.6245 31.7377C42.6995 31.7877 42.7995 31.8752 42.837 31.9377L43.162 31.9877C43.2495 31.9877 43.437 32.1252 43.5995 32.1252C43.7245 32.1252 43.8245 32.0627 43.7495 32.0002C43.6543 31.9303 43.5421 31.8871 43.4245 31.8752C43.3245 31.8752 43.237 31.9752 43.1495 31.9502L42.862 31.9127M42.5745 32.8252C42.3781 32.8574 42.1918 32.8691 42.0564 32.8578C41.9211 32.8466 41.8478 32.8133 41.8528 32.7652C41.8577 32.7171 41.9405 32.6583 42.0829 32.6015C42.2253 32.5448 42.4156 32.4949 42.612 32.4627C42.7093 32.4468 42.8051 32.4357 42.894 32.4301C42.9829 32.4245 43.0631 32.4245 43.1302 32.43C43.1972 32.4356 43.2497 32.4467 43.2846 32.4626C43.3195 32.4785 43.3363 32.4989 43.3338 32.5227C43.3313 32.5465 43.3097 32.5732 43.2703 32.6013C43.2308 32.6294 43.1742 32.6583 43.1036 32.6864C43.0331 32.7145 42.9501 32.7412 42.8593 32.765C42.7686 32.7888 42.6718 32.8093 42.5745 32.8252Z" fill="#009B3A"/>
<path d="M42.8745 31.9127C42.8041 31.8588 42.7373 31.8003 42.6745 31.7377C42.6495 31.7002 42.687 31.6127 42.587 31.5127C42.487 31.4127 42.362 31.3877 42.287 31.3877C42.212 31.4002 42.212 31.4752 42.3245 31.5877C42.4495 31.7127 42.5745 31.6877 42.6245 31.7377C42.6995 31.7877 42.7995 31.8752 42.837 31.9377L43.162 31.9877C43.2495 31.9877 43.437 32.1252 43.5995 32.1252C43.7245 32.1252 43.8245 32.0627 43.7495 32.0002C43.6543 31.9303 43.5421 31.8871 43.4245 31.8752C43.3245 31.8752 43.237 31.9752 43.1495 31.9502L42.862 31.9127M42.5745 32.8252C42.3781 32.8574 42.1918 32.8691 42.0564 32.8578C41.9211 32.8466 41.8478 32.8133 41.8528 32.7652C41.8577 32.7171 41.9405 32.6583 42.0829 32.6015C42.2253 32.5448 42.4156 32.4949 42.612 32.4627C42.7093 32.4468 42.8051 32.4357 42.894 32.4301C42.9829 32.4245 43.0631 32.4245 43.1302 32.43C43.1972 32.4356 43.2497 32.4467 43.2846 32.4626C43.3195 32.4785 43.3363 32.4989 43.3338 32.5227C43.3313 32.5465 43.3097 32.5732 43.2703 32.6013C43.2308 32.6294 43.1742 32.6583 43.1036 32.6864C43.0331 32.7145 42.9501 32.7412 42.8593 32.765C42.7686 32.7888 42.6718 32.8093 42.5745 32.8252Z" stroke="black" stroke-width="0.0125"/>
<path d="M42.5624 32.6255C42.3642 32.7018 42.1708 32.7578 42.0248 32.7813C41.8788 32.8048 41.7921 32.7938 41.7839 32.7507C41.7756 32.7076 41.8464 32.6359 41.9806 32.5515C42.1149 32.4671 42.3017 32.3768 42.4999 32.3005C42.7052 32.2215 42.9054 32.1635 43.0564 32.1393C43.2074 32.1151 43.2969 32.1267 43.3052 32.1714C43.3135 32.2162 43.2399 32.2905 43.1006 32.378C42.9613 32.4655 42.7677 32.559 42.5624 32.638" fill="#009B3A"/>
<path d="M42.5624 32.6255C42.3642 32.7018 42.1708 32.7578 42.0248 32.7813C41.8788 32.8048 41.7921 32.7938 41.7839 32.7507C41.7756 32.7076 41.8464 32.6359 41.9806 32.5515C42.1149 32.4671 42.3017 32.3768 42.4999 32.3005C42.7052 32.2215 42.9054 32.1635 43.0564 32.1393C43.2074 32.1151 43.2969 32.1267 43.3052 32.1714C43.3135 32.2162 43.2399 32.2905 43.1006 32.378C42.9613 32.4655 42.7677 32.559 42.5624 32.638" stroke="black" stroke-width="0.0125"/>
<path d="M42.2994 32.05C42.2192 32.2002 42.1328 32.3323 42.0548 32.4243C41.9768 32.5163 41.9118 32.5625 41.8708 32.5551C41.8298 32.5478 41.8153 32.4874 41.8296 32.3841C41.8439 32.2807 41.8862 32.1407 41.9494 31.9875C41.9905 31.8879 42.0391 31.786 42.0916 31.6892C42.1442 31.5923 42.1993 31.503 42.2531 31.4277C42.3069 31.3524 42.3579 31.2931 42.4024 31.254C42.447 31.215 42.4839 31.1972 42.5105 31.2019C42.5372 31.2067 42.5528 31.2339 42.5564 31.2815C42.5599 31.3292 42.5513 31.3961 42.531 31.4774C42.5108 31.5586 42.4795 31.6522 42.4395 31.7513C42.3994 31.8503 42.3515 31.9524 42.2994 32.05Z" fill="#009B3A" stroke="black" stroke-width="0.0125"/>
<path d="M42.4871 32.1495C42.3381 32.3181 42.1802 32.47 42.0479 32.5716C41.9156 32.6733 41.8199 32.7164 41.7818 32.6916C41.7437 32.6667 41.7663 32.5759 41.8446 32.4391C41.9229 32.3022 42.0506 32.1306 42.1996 31.962C42.2733 31.8785 42.35 31.7983 42.4254 31.7258C42.5007 31.6534 42.5732 31.5902 42.6387 31.5399C42.771 31.4382 42.8667 31.3951 42.9048 31.42C42.9429 31.4448 42.9203 31.5357 42.842 31.6725C42.8032 31.7402 42.7519 31.8172 42.691 31.8991C42.6301 31.9809 42.5608 32.066 42.4871 32.1495Z" fill="#009B3A" stroke="black" stroke-width="0.0125"/>
<path d="M42.5367 32.3874C42.4464 32.4615 42.3505 32.5334 42.2555 32.5982C42.1606 32.6629 42.0691 32.7188 41.9873 32.762C41.9055 32.8053 41.8355 32.8347 41.7822 32.8483C41.729 32.862 41.6937 32.8594 41.6788 32.8409C41.664 32.8224 41.67 32.7883 41.6964 32.7411C41.7228 32.6939 41.769 32.6346 41.8317 32.5676C41.8944 32.5005 41.9721 32.4273 42.0594 32.353C42.1466 32.2786 42.2413 32.2051 42.3367 32.1374C42.4904 32.0284 42.6382 31.9404 42.7541 31.8887C42.87 31.8371 42.9467 31.8251 42.9705 31.8549C42.9944 31.8848 42.964 31.9545 42.8847 32.0519C42.8053 32.1493 42.6822 32.268 42.5367 32.3874Z" fill="#009B3A" stroke="black" stroke-width="0.0125"/>
<path d="M41.8001 32.7126C41.7651 32.6229 41.7359 32.5311 41.7126 32.4376C41.7001 32.3876 41.7876 32.3376 41.7501 32.1876C41.7078 32.0665 41.6235 31.9645 41.5126 31.9001C41.4501 31.8626 41.4001 31.9251 41.4501 32.1001C41.5001 32.2751 41.6251 32.3376 41.6626 32.4251L41.7626 32.7251L42.0376 32.9626C42.1126 33.0251 42.2251 33.2626 42.3751 33.3501C42.5001 33.4376 42.6251 33.4126 42.6001 33.3251C42.5437 33.2054 42.4577 33.1021 42.3501 33.0251C42.2626 32.9501 42.1251 32.9876 42.0376 32.9251C41.9876 32.8626 41.7876 32.7251 41.7876 32.7126" fill="#009B3A"/>
<path d="M41.8001 32.7126C41.7651 32.6229 41.7359 32.5311 41.7126 32.4376C41.7001 32.3876 41.7876 32.3376 41.7501 32.1876C41.7078 32.0665 41.6235 31.9645 41.5126 31.9001C41.4501 31.8626 41.4001 31.9251 41.4501 32.1001C41.5001 32.2751 41.6251 32.3376 41.6626 32.4251L41.7626 32.7251L42.0376 32.9626C42.1126 33.0251 42.2251 33.2626 42.3751 33.3501C42.5001 33.4376 42.6251 33.4126 42.6001 33.3251C42.5437 33.2054 42.4577 33.1021 42.3501 33.0251C42.2626 32.9501 42.1251 32.9876 42.0376 32.9251C41.9876 32.8626 41.7876 32.7251 41.7876 32.7126" stroke="black" stroke-width="0.0125"/>
<path d="M41.3491 33.5C41.1828 33.4908 41.0349 33.4651 40.929 33.4272C40.8232 33.3892 40.7656 33.341 40.7656 33.2905C40.7656 33.24 40.8232 33.1901 40.929 33.1487C41.0349 33.1074 41.1828 33.077 41.3491 33.0625C41.5155 33.0717 41.6634 33.0974 41.7693 33.1353C41.8751 33.1733 41.9327 33.2215 41.9327 33.272C41.9327 33.3225 41.8751 33.3724 41.7693 33.4138C41.6634 33.4551 41.5155 33.4855 41.3491 33.5Z" fill="#009B3A" stroke="black" stroke-width="0.0125"/>
<path d="M41.2497 32.8123C41.1188 32.9815 40.9756 33.1293 40.8514 33.2231C40.7273 33.317 40.6324 33.3492 40.5876 33.3127C40.5429 33.2763 40.5519 33.1741 40.6128 33.0287C40.6737 32.8833 40.7813 32.7065 40.9122 32.5373C40.9756 32.4556 41.0426 32.3781 41.1093 32.3095C41.1761 32.2409 41.2413 32.1823 41.3012 32.1373C41.3612 32.0922 41.4146 32.0615 41.4586 32.0469C41.5026 32.0323 41.5362 32.0341 41.5576 32.0521C41.5789 32.0702 41.5876 32.1042 41.583 32.1521C41.5785 32.2001 41.5608 32.2611 41.531 32.3317C41.5013 32.4023 41.46 32.4811 41.4096 32.5636C41.3592 32.646 41.3006 32.7306 41.2372 32.8123" fill="#009B3A"/>
<path d="M41.2497 32.8123C41.1188 32.9815 40.9756 33.1293 40.8514 33.2231C40.7273 33.317 40.6324 33.3492 40.5876 33.3127C40.5429 33.2763 40.5519 33.1741 40.6128 33.0287C40.6737 32.8833 40.7813 32.7065 40.9122 32.5373C40.9756 32.4556 41.0426 32.3781 41.1093 32.3095C41.1761 32.2409 41.2413 32.1823 41.3012 32.1373C41.3612 32.0922 41.4146 32.0615 41.4586 32.0469C41.5026 32.0323 41.5362 32.0341 41.5576 32.0521C41.5789 32.0702 41.5876 32.1042 41.583 32.1521C41.5785 32.2001 41.5608 32.2611 41.531 32.3317C41.5013 32.4023 41.46 32.4811 41.4096 32.5636C41.3592 32.646 41.3006 32.7306 41.2372 32.8123" stroke="black" stroke-width="0.0125"/>
<path d="M41.35 33.1621C41.1553 33.2457 40.9607 33.3042 40.809 33.3246C40.6572 33.345 40.5608 33.3258 40.5409 33.2711C40.521 33.2164 40.5793 33.1307 40.7029 33.0329C40.8265 32.9351 41.0053 32.8332 41.2 32.7496C41.3947 32.6661 41.5894 32.6076 41.7411 32.5872C41.8928 32.5668 41.9892 32.586 42.0091 32.6407C42.029 32.6954 41.9708 32.7811 41.8472 32.8789C41.7235 32.9767 41.5447 33.0786 41.35 33.1621ZM41.5625 26.4871C41.6481 26.5673 41.719 26.6467 41.7611 26.7096C41.8032 26.7725 41.8135 26.8144 41.7899 26.827C41.7664 26.8395 41.7107 26.8219 41.6339 26.7775C41.5571 26.7331 41.4647 26.6652 41.375 26.5871C41.3254 26.5439 41.278 26.499 41.2361 26.4551C41.1942 26.4112 41.1585 26.3694 41.1314 26.3323C41.1043 26.2951 41.0864 26.2635 41.0787 26.2395C41.071 26.2154 41.0738 26.1994 41.0868 26.1924C41.0999 26.1855 41.1229 26.1877 41.1545 26.1991C41.186 26.2104 41.2254 26.2306 41.2701 26.2583C41.3149 26.286 41.364 26.3206 41.4143 26.36C41.4646 26.3994 41.5151 26.4427 41.5625 26.4871ZM41.325 26.6746C41.4285 26.6938 41.5213 26.7185 41.5891 26.745C41.657 26.7714 41.696 26.798 41.7003 26.8208C41.7046 26.8436 41.6738 26.8612 41.6127 26.8709C41.5517 26.8806 41.4638 26.882 41.3625 26.8746C41.2918 26.8695 41.2169 26.8604 41.1437 26.8479C41.0704 26.8354 41.0008 26.8199 40.9402 26.8026C40.8795 26.7853 40.8296 26.7667 40.7941 26.7482C40.7586 26.7297 40.7386 26.7118 40.7356 26.6959C40.7327 26.68 40.7468 26.6665 40.7769 26.6565C40.807 26.6465 40.8523 26.6402 40.9093 26.6381C40.9663 26.6361 41.0335 26.6383 41.1056 26.6446C41.1776 26.651 41.2527 26.6612 41.325 26.6746Z" fill="#009B3A" stroke="black" stroke-width="0.0125"/>
<path d="M41.4244 26.5501C41.488 26.5824 41.5497 26.6165 41.6059 26.6505C41.6622 26.6844 41.7119 26.7175 41.7522 26.7479C41.7925 26.7783 41.8227 26.8054 41.8409 26.8277C41.8592 26.8499 41.8652 26.8668 41.8587 26.8775C41.8521 26.8882 41.8331 26.8924 41.8027 26.8899C41.7723 26.8873 41.7311 26.8782 41.6815 26.8628C41.6319 26.8475 41.5748 26.8264 41.5135 26.8006C41.4523 26.7748 41.388 26.7449 41.3244 26.7126C41.196 26.6473 41.0781 26.5761 40.9966 26.5147C40.9152 26.4533 40.8769 26.4067 40.8902 26.3851C40.9034 26.3636 40.9672 26.3689 41.0673 26.3998C41.1675 26.4307 41.296 26.4848 41.4244 26.5501ZM37.9619 32.7501C37.9619 32.7501 38.5994 32.8876 39.1619 33.0876C39.7244 33.3001 40.5744 33.9876 40.7994 34.0376C41.0494 34.0376 41.4119 33.9501 41.5494 33.5876C41.1494 33.6876 40.9244 33.8501 40.5494 33.6501C40.4119 33.6001 39.9744 33.2001 39.4869 32.9876C39.0119 32.7751 38.0494 32.5376 38.0494 32.5376L37.9619 32.7501ZM38.6494 26.9376L39.3869 26.5501L38.5744 26.7626L38.4744 26.9001L38.6494 26.9376Z" fill="#009B3A" stroke="black" stroke-width="0.0125"/>
<path d="M39.3496 27.1254C39.0621 27.0629 38.6246 26.9629 38.3496 26.9504C38.5371 26.7379 38.7996 26.3629 38.9746 26.1504C38.8496 26.3629 38.6871 26.6504 38.6246 26.8379C38.8121 26.9504 39.1246 27.0379 39.3496 27.1129" fill="#009B3A"/>
<path d="M39.3496 27.1254C39.0621 27.0629 38.6246 26.9629 38.3496 26.9504C38.5371 26.7379 38.7996 26.3629 38.9746 26.1504C38.8496 26.3629 38.6871 26.6504 38.6246 26.8379C38.8121 26.9504 39.1246 27.0379 39.3496 27.1129" stroke="black" stroke-width="0.0125"/>
<path d="M38.5119 26.9871C38.7309 26.8139 38.9518 26.6431 39.1744 26.4746L38.4119 26.8121L38.3369 26.9746H38.5119" fill="#009B3A"/>
<path d="M38.5119 26.9871C38.7309 26.8139 38.9518 26.6431 39.1744 26.4746L38.4119 26.8121L38.3369 26.9746H38.5119" stroke="black" stroke-width="0.0125"/>
<path d="M39.2119 27.1121C38.9244 27.0496 38.4869 26.9496 38.2119 26.9246C38.3869 26.7121 38.6494 26.3371 38.8119 26.0996C38.7119 26.3246 38.5369 26.6121 38.4744 26.8246C38.6744 26.9371 38.9869 27.0246 39.2244 27.1121" fill="#009B3A"/>
<path d="M39.2119 27.1121C38.9244 27.0496 38.4869 26.9496 38.2119 26.9246C38.3869 26.7121 38.6494 26.3371 38.8119 26.0996C38.7119 26.3246 38.5369 26.6121 38.4744 26.8246C38.6744 26.9371 38.9869 27.0246 39.2244 27.1121" stroke="black" stroke-width="0.0125"/>
<path d="M38.4123 27.0252L39.1748 26.7002L38.3498 26.8377L38.2373 26.9627L38.3998 27.0252" fill="#009B3A"/>
<path d="M38.4123 27.0252L39.1748 26.7002L38.3498 26.8377L38.2373 26.9627L38.3998 27.0252" stroke="black" stroke-width="0.0125"/>
<path d="M39.1246 27.1252C38.8371 27.0877 38.3746 27.0377 38.0996 27.0502C38.2621 26.8002 38.4746 26.3877 38.6121 26.1377C38.5371 26.3752 38.3996 26.6877 38.3621 26.9002C38.5746 27.0002 38.8996 27.0502 39.1246 27.1127" fill="#009B3A"/>
<path d="M39.1246 27.1252C38.8371 27.0877 38.3746 27.0377 38.0996 27.0502C38.2621 26.8002 38.4746 26.3877 38.6121 26.1377C38.5371 26.3752 38.3996 26.6877 38.3621 26.9002C38.5746 27.0002 38.8996 27.0502 39.1246 27.1127" stroke="black" stroke-width="0.0125"/>
<path d="M38.3244 27.0254L38.8494 26.4004L38.1869 26.8879L38.1494 27.0504L38.3244 27.0254Z" fill="#009B3A" stroke="black" stroke-width="0.0125"/>
<path d="M39.1244 27.1625C38.8119 27.1625 38.3244 27.125 38.0244 27.1625C38.1744 26.875 38.3619 26.4125 38.4744 26.125C38.4244 26.3875 38.3119 26.75 38.2994 26.9875C38.5244 27.0625 38.8744 27.1125 39.1244 27.1625Z" fill="#009B3A" stroke="black" stroke-width="0.0125"/>
<path d="M38.2246 27.175L38.8496 26.5625L38.0871 27L38.0371 27.175H38.2246Z" fill="#009B3A" stroke="black" stroke-width="0.0125"/>
<path d="M38.9873 27.175C38.6498 27.175 38.1373 27.1625 37.7998 27.2C38.0248 26.8875 38.3248 26.375 38.4998 26.0625C38.3748 26.35 38.1998 26.7375 38.1248 27C38.3623 27.0875 38.7248 27.125 38.9873 27.175Z" fill="#009B3A" stroke="black" stroke-width="0.0125"/>
<path d="M37.9998 27.2246L38.8248 26.5371L37.8998 27.0246L37.7998 27.2246H37.9998Z" fill="#009B3A" stroke="black" stroke-width="0.0125"/>
<path d="M38.8742 27.1998C38.5367 27.2498 38.0117 27.2998 37.6992 27.3873C37.8617 27.0498 38.0867 26.5123 38.2242 26.1748C38.1492 26.4748 38.0117 26.8748 37.9742 27.1498C38.2242 27.1998 38.5992 27.1873 38.8617 27.1998" fill="#009B3A"/>
<path d="M38.8742 27.1998C38.5367 27.2498 38.0117 27.2998 37.6992 27.3873C37.8617 27.0498 38.0867 26.5123 38.2242 26.1748C38.1492 26.4748 38.0117 26.8748 37.9742 27.1498C38.2242 27.1998 38.5992 27.1873 38.8617 27.1998" stroke="black" stroke-width="0.0125"/>
<path d="M37.8992 27.3623L38.5242 26.4873L37.7367 27.1998L37.6992 27.4123L37.8992 27.3623Z" fill="#009B3A" stroke="black" stroke-width="0.0125"/>
<path d="M38.675 27.3C38.35 27.3375 37.825 27.3625 37.5 27.425C37.6875 27.1 37.9375 26.575 38.1 26.25C38 26.5375 37.85 26.9375 37.8 27.2125C38.05 27.275 38.425 27.275 38.675 27.3Z" fill="#009B3A" stroke="black" stroke-width="0.0125"/>
<path d="M37.7869 27.4502L38.5869 26.7627L37.6744 27.2502L37.5869 27.4502H37.7869Z" fill="#009B3A" stroke="black" stroke-width="0.0125"/>
<path d="M38.5871 27.3375C38.2496 27.4125 37.7246 27.5 37.4121 27.6C37.5621 27.2625 37.7621 26.7125 37.8871 26.375C37.8246 26.675 37.7121 27.075 37.6871 27.35C37.9371 27.3875 38.3121 27.35 38.5871 27.3375Z" fill="#009B3A" stroke="black" stroke-width="0.0125"/>
<path d="M37.6494 27.4996L38.1494 26.5371L37.4744 27.3621L37.4619 27.5746L37.6494 27.4871" fill="#009B3A"/>
<path d="M37.6494 27.4996L38.1494 26.5371L37.4744 27.3621L37.4619 27.5746L37.6494 27.4871" stroke="black" stroke-width="0.0125"/>
<path d="M38.5869 27.3871C38.2119 27.4871 37.6619 27.6121 37.3369 27.7371C37.4619 27.3496 37.5994 26.7371 37.6994 26.3496C37.6619 26.6871 37.5869 27.1371 37.5994 27.4496C37.8869 27.4746 38.2869 27.4121 38.5744 27.3871" fill="#009B3A"/>
<path d="M38.5869 27.3871C38.2119 27.4871 37.6619 27.6121 37.3369 27.7371C37.4619 27.3496 37.5994 26.7371 37.6994 26.3496C37.6619 26.6871 37.5869 27.1371 37.5994 27.4496C37.8869 27.4746 38.2869 27.4121 38.5744 27.3871" stroke="black" stroke-width="0.0125"/>
<path d="M37.5494 27.7127L38.1994 26.7627L37.3744 27.5252L37.3369 27.7752L37.5494 27.7127Z" fill="#009B3A" stroke="black" stroke-width="0.0125"/>
<path d="M38.4369 27.5002C38.0869 27.6127 37.5369 27.7627 37.2119 27.9127C37.3119 27.5127 37.4369 26.9002 37.5119 26.5127C37.4994 26.8502 37.4494 27.3002 37.4744 27.6002C37.7494 27.6127 38.1494 27.5252 38.4369 27.5002Z" fill="#009B3A" stroke="black" stroke-width="0.0125"/>
<path d="M37.4244 27.8498L37.9119 26.7998L37.2119 27.6998V27.9498L37.4244 27.8498Z" fill="#009B3A" stroke="black" stroke-width="0.0125"/>
<path d="M38.2998 27.6502C37.9498 27.7252 37.3873 27.8377 37.0498 27.9502C37.1873 27.5752 37.3623 26.9502 37.4748 26.5752C37.4248 26.9127 37.3373 27.3752 37.3373 27.6627C37.6123 27.7002 38.0123 27.6502 38.2998 27.6377" fill="#009B3A"/>
<path d="M38.2998 27.6502C37.9498 27.7252 37.3873 27.8377 37.0498 27.9502C37.1873 27.5752 37.3623 26.9502 37.4748 26.5752C37.4248 26.9127 37.3373 27.3752 37.3373 27.6627C37.6123 27.7002 38.0123 27.6502 38.2998 27.6377" stroke="black" stroke-width="0.0125"/>
<path d="M37.2994 27.95L38.0994 27.125L37.1619 27.7375L37.0869 27.9625L37.2994 27.95Z" fill="#009B3A" stroke="black" stroke-width="0.0125"/>
<path d="M38.1494 27.7875C37.7869 27.8375 37.2369 27.8875 36.8994 27.975C37.0619 27.6 37.2744 27 37.3994 26.625C37.3244 26.9625 37.2119 27.4125 37.1869 27.7125C37.4619 27.775 37.8619 27.7625 38.1494 27.7875Z" fill="#009B3A" stroke="black" stroke-width="0.0125"/>
<path d="M37.1492 27.8754L37.6867 26.8379L36.9492 27.7129V27.9504L37.1492 27.8629" fill="#009B3A"/>
<path d="M37.1492 27.8754L37.6867 26.8379L36.9492 27.7129V27.9504L37.1492 27.8629" stroke="black" stroke-width="0.0125"/>
<path d="M38.1867 27.6621C37.8117 27.8246 37.1867 28.0371 36.8242 28.2371C36.9492 27.7746 37.0742 27.0496 37.1492 26.5996C37.1492 26.9871 37.0867 27.5246 37.1117 27.8621C37.4242 27.8621 37.8617 27.7246 38.1867 27.6621Z" fill="#009B3A" stroke="black" stroke-width="0.0125"/>
<path d="M37.0744 28.175L37.7244 27L36.8619 28L36.8369 28.275L37.0744 28.175Z" fill="#009B3A" stroke="black" stroke-width="0.0125"/>
<path d="M38.0369 27.8127C37.6619 27.9877 37.0619 28.2377 36.7119 28.4502C36.8119 28.0002 36.8994 27.2627 36.9619 26.8252C36.9619 27.2002 36.9369 27.7377 36.9744 28.0752C37.2869 28.0377 37.7244 27.8877 38.0369 27.8127Z" fill="#009B3A" stroke="black" stroke-width="0.0125"/>
<path d="M36.9367 28.3504L37.4117 27.0879L36.6992 28.2129L36.7242 28.5004L36.9367 28.3504Z" fill="#009B3A" stroke="black" stroke-width="0.0125"/>
<path d="M37.8748 27.9125C37.4998 28.1 36.8998 28.35 36.5498 28.575C36.6373 28.1125 36.7248 27.3875 36.7873 26.9375C36.7873 27.3125 36.7623 27.85 36.8123 28.1875C37.1248 28.15 37.5623 27.9875 37.8748 27.9125Z" fill="#009B3A" stroke="black" stroke-width="0.0125"/>
<path d="M36.8371 28.5002L37.5621 27.3877L36.6371 28.3002L36.5996 28.5752L36.8371 28.5002Z" fill="#009B3A" stroke="black" stroke-width="0.0125"/>
<path d="M37.8375 27.8502C37.5 28.1252 36.9625 28.5252 36.6625 28.8252C36.6625 28.3502 36.6 27.6377 36.5625 27.2002C36.6375 27.5627 36.725 28.0752 36.85 28.3877C37.15 28.2752 37.5375 28.0127 37.85 27.8627" fill="#009B3A"/>
<path d="M37.8375 27.8502C37.5 28.1252 36.9625 28.5252 36.6625 28.8252C36.6625 28.3502 36.6 27.6377 36.5625 27.2002C36.6375 27.5627 36.725 28.0752 36.85 28.3877C37.15 28.2752 37.5375 28.0127 37.85 27.8627" stroke="black" stroke-width="0.0125"/>
<path d="M36.8746 28.5621L36.9496 27.2246L36.5996 28.5246L36.6996 28.7746L36.8746 28.5621Z" fill="#009B3A" stroke="black" stroke-width="0.0125"/>
<path d="M37.7494 27.975C37.3994 28.25 36.8744 28.6375 36.5619 28.9375C36.5619 28.475 36.4994 27.75 36.4619 27.3125C36.5494 27.6875 36.6244 28.1875 36.7494 28.5C37.0494 28.4 37.4369 28.125 37.7494 27.975Z" fill="#009B3A" stroke="black" stroke-width="0.0125"/>
<path d="M36.7871 28.7871L37.1246 27.4746L36.5371 28.6746L36.5746 28.9496L36.7871 28.7871Z" fill="#009B3A" stroke="black" stroke-width="0.0125"/>
<path d="M37.7 27.9996C37.3875 28.3246 36.875 28.7996 36.5875 29.1246C36.5375 28.6621 36.4 27.9246 36.3125 27.4746C36.4375 27.8496 36.575 28.3621 36.7375 28.6621C37.025 28.5246 37.4125 28.2121 37.7 28.0121" fill="#009B3A"/>
<path d="M37.7 27.9996C37.3875 28.3246 36.875 28.7996 36.5875 29.1246C36.5375 28.6621 36.4 27.9246 36.3125 27.4746C36.4375 27.8496 36.575 28.3621 36.7375 28.6621C37.025 28.5246 37.4125 28.2121 37.7 28.0121" stroke="black" stroke-width="0.0125"/>
<path d="M36.7867 28.95L36.8492 27.5625L36.5117 28.9125L36.6117 29.1625L36.7867 28.95Z" fill="#009B3A" stroke="black" stroke-width="0.0125"/>
<path d="M37.5994 28.25C37.2619 28.525 36.7244 28.9375 36.3994 29.25C36.3994 28.775 36.3119 28.025 36.2744 27.5625C36.3619 27.9375 36.4619 28.475 36.5869 28.8C36.8994 28.675 37.2994 28.4125 37.5994 28.2375" fill="#009B3A"/>
<path d="M37.5994 28.25C37.2619 28.525 36.7244 28.9375 36.3994 29.25C36.3994 28.775 36.3119 28.025 36.2744 27.5625C36.3619 27.9375 36.4619 28.475 36.5869 28.8C36.8994 28.675 37.2994 28.4125 37.5994 28.2375" stroke="black" stroke-width="0.0125"/>
<path d="M36.6875 29.1123L37.1625 27.7998L36.4375 28.9623L36.4625 29.2498L36.6875 29.1123Z" fill="#009B3A" stroke="black" stroke-width="0.0125"/>
<path d="M37.5994 28.2504C37.2869 28.5629 36.8119 29.0504 36.5369 29.3879C36.4869 28.9129 36.3494 28.1629 36.2744 27.7129C36.3994 28.0879 36.5244 28.6129 36.6744 28.9129C36.9619 28.7629 37.3119 28.4504 37.5994 28.2504Z" fill="#009B3A" stroke="black" stroke-width="0.0125"/>
<path d="M36.6998 29.1748L36.6498 27.7998L36.4248 29.1748L36.5498 29.4123L36.6998 29.1748Z" fill="#009B3A" stroke="black" stroke-width="0.0125"/>
<path d="M37.4498 28.3502C37.1498 28.6752 36.6873 29.1627 36.4248 29.5127C36.3623 29.0127 36.1998 28.2877 36.1123 27.8252C36.2373 28.2002 36.3998 28.7252 36.5498 29.0252C36.8248 28.8752 37.1748 28.5502 37.4498 28.3502Z" fill="#009B3A" stroke="black" stroke-width="0.0125"/>
<path d="M36.6248 29.3121L36.7748 27.9121L36.3623 29.2371L36.4498 29.5121L36.6248 29.3121Z" fill="#009B3A" stroke="black" stroke-width="0.0125"/>
<path d="M37.3742 28.4004C37.1242 28.7629 36.6867 29.2754 36.4492 29.6504C36.3492 29.1754 36.1367 28.4629 36.0117 28.0254C36.1742 28.3754 36.3617 28.8754 36.5367 29.1629C36.7992 28.9879 37.1242 28.6379 37.3867 28.4129" fill="#009B3A"/>
<path d="M37.3742 28.4004C37.1242 28.7629 36.6867 29.2754 36.4492 29.6504C36.3492 29.1754 36.1367 28.4629 36.0117 28.0254C36.1742 28.3754 36.3617 28.8754 36.5367 29.1629C36.7992 28.9879 37.1242 28.6379 37.3867 28.4129" stroke="black" stroke-width="0.0125"/>
<path d="M36.6246 29.4496L36.5246 28.0371L36.3496 29.4371L36.4746 29.6871L36.6121 29.4371" fill="#009B3A"/>
<path d="M36.6246 29.4496L36.5246 28.0371L36.3496 29.4371L36.4746 29.6871L36.6121 29.4371" stroke="black" stroke-width="0.0125"/>
<path d="M37.3619 28.4871C37.1119 28.8621 36.6994 29.3996 36.4869 29.7871C36.3619 29.3121 36.1119 28.5996 35.9619 28.1621C36.1369 28.5121 36.3494 29.0121 36.5494 29.2871C36.7994 29.0996 37.1119 28.7246 37.3619 28.4871Z" fill="#009B3A" stroke="black" stroke-width="0.0125"/>
<path d="M36.6992 29.5746L36.8492 28.1621L36.4492 29.4871L36.5242 29.7746L36.6992 29.5746Z" fill="#009B3A" stroke="black" stroke-width="0.0125"/>
<path d="M37.2992 28.6248C37.0867 29.0123 36.7367 29.6248 36.5492 30.0373C36.3867 29.5873 36.0742 28.9123 35.8867 28.4873C36.0992 28.8123 36.3492 29.2748 36.5742 29.5373C36.8117 29.3123 37.0742 28.8873 37.2992 28.6123" fill="#009B3A"/>
<path d="M37.2992 28.6248C37.0867 29.0123 36.7367 29.6248 36.5492 30.0373C36.3867 29.5873 36.0742 28.9123 35.8867 28.4873C36.0992 28.8123 36.3492 29.2748 36.5742 29.5373C36.8117 29.3123 37.0742 28.8873 37.2992 28.6123" stroke="black" stroke-width="0.0125"/>
<path d="M36.6617 29.6996L36.2617 28.3496L36.3867 29.7621L36.5742 29.9621L36.6492 29.6996" fill="#009B3A"/>
<path d="M36.6617 29.6996L36.2617 28.3496L36.3867 29.7621L36.5742 29.9621L36.6492 29.6996" stroke="black" stroke-width="0.0125"/>
<path d="M37.2994 28.7754C37.0744 29.1754 36.6994 29.7754 36.5119 30.1879C36.3494 29.7379 36.0369 29.0629 35.8369 28.6504C36.0494 28.9754 36.3119 29.4379 36.5369 29.6879C36.7869 29.4629 37.0619 29.0504 37.2869 28.7754" fill="#009B3A"/>
<path d="M37.2994 28.7754C37.0744 29.1754 36.6994 29.7754 36.5119 30.1879C36.3494 29.7379 36.0369 29.0629 35.8369 28.6504C36.0494 28.9754 36.3119 29.4379 36.5369 29.6879C36.7869 29.4629 37.0619 29.0504 37.2869 28.7754" stroke="black" stroke-width="0.0125"/>
<path d="M36.6744 29.9496L36.5244 28.5371L36.3994 29.9496L36.5369 30.1996L36.6744 29.9496Z" fill="#009B3A" stroke="black" stroke-width="0.0125"/>
<path d="M37.3248 28.8998C37.0873 29.2873 36.6998 29.8873 36.5123 30.2873C36.3498 29.8373 36.0498 29.1623 35.8623 28.7373C36.0748 29.0623 36.3248 29.5373 36.5498 29.7873C36.7998 29.5748 37.0873 29.1623 37.3248 28.8998Z" fill="#009B3A" stroke="black" stroke-width="0.0125"/>
<path d="M36.6617 30.0625L36.3992 28.6875L36.3867 30.0875L36.5492 30.3125L36.6617 30.0625Z" fill="#009B3A" stroke="black" stroke-width="0.0125"/>
<path d="M37.2244 29.1004C36.9744 29.4754 36.5619 30.0379 36.3494 30.4379C36.2119 29.9754 35.9369 29.2629 35.7744 28.8379C35.9619 29.1754 36.1994 29.6629 36.3994 29.9379C36.6619 29.7379 36.9744 29.3504 37.2244 29.1004Z" fill="#009B3A" stroke="black" stroke-width="0.0125"/>
<path d="M36.5369 30.2123L36.6619 28.7998L36.2744 30.1373L36.3619 30.4123L36.5369 30.2123Z" fill="#009B3A" stroke="black" stroke-width="0.0125"/>
<path d="M37.2369 29.1252C37.0244 29.5377 36.6619 30.1627 36.4869 30.5752C36.3119 30.1377 35.9869 29.4752 35.7744 29.0752C35.9994 29.3752 36.2744 29.8252 36.4994 30.0752C36.7494 29.8377 36.9994 29.4127 37.2369 29.1377" fill="#009B3A"/>
<path d="M37.2369 29.1252C37.0244 29.5377 36.6619 30.1627 36.4869 30.5752C36.3119 30.1377 35.9869 29.4752 35.7744 29.0752C35.9994 29.3752 36.2744 29.8252 36.4994 30.0752C36.7494 29.8377 36.9994 29.4127 37.2369 29.1377" stroke="black" stroke-width="0.0125"/>
<path d="M36.5 30.3377L36.0625 29.0127L36.225 30.4127L36.4125 30.6127L36.4875 30.3377" fill="#009B3A"/>
<path d="M36.5 30.3377L36.0625 29.0127L36.225 30.4127L36.4125 30.6127L36.4875 30.3377" stroke="black" stroke-width="0.0125"/>
<path d="M37.1746 29.2373C37.0246 29.6873 36.7746 30.3623 36.6746 30.8248C36.4246 30.4248 35.9871 29.8498 35.7246 29.4873C35.9871 29.7498 36.3371 30.1373 36.5996 30.3248C36.7996 30.0373 36.9996 29.5748 37.1746 29.2373Z" fill="#009B3A" stroke="black" stroke-width="0.0125"/>
<path d="M36.8746 30.4377L36.4121 29.1377L36.6121 30.5377L36.7996 30.7127L36.8746 30.4377Z" fill="#009B3A" stroke="black" stroke-width="0.0125"/>
<path d="M37.1746 29.375C37.0246 29.825 36.7746 30.5125 36.6746 30.9625C36.4246 30.5625 35.9996 30 35.7246 29.65C35.9871 29.9 36.3371 30.275 36.5996 30.475C36.7996 30.1875 36.9996 29.7125 37.1746 29.375Z" fill="#009B3A" stroke="black" stroke-width="0.0125"/>
<path d="M36.8744 30.6627L36.2744 29.4502L36.6244 30.8002L36.8369 30.9502L36.8869 30.6627" fill="#009B3A"/>
<path d="M36.8744 30.6627L36.2744 29.4502L36.6244 30.8002L36.8369 30.9502L36.8869 30.6627" stroke="black" stroke-width="0.0125"/>
<path d="M37.1246 29.4873C37.0371 29.9498 36.8746 30.6748 36.8121 31.1373C36.5246 30.7748 36.0246 30.2623 35.7246 29.9623C36.0121 30.1748 36.3996 30.5123 36.6871 30.6498C36.8496 30.3373 36.9871 29.8373 37.1246 29.4873Z" fill="#009B3A" stroke="black" stroke-width="0.0125"/>
<path d="M36.9246 30.8498L36.5996 29.4873L36.6496 30.8998L36.8246 31.1123L36.9246 30.8623" fill="#009B3A"/>
<path d="M36.9246 30.8498L36.5996 29.4873L36.6496 30.8998L36.8246 31.1123L36.9246 30.8623" stroke="black" stroke-width="0.0125"/>
<path d="M37.1246 29.625C37.0746 30.1125 36.9746 30.85 36.9746 31.3125C36.6496 31 36.1121 30.5625 35.7871 30.3C36.0871 30.475 36.4996 30.75 36.7996 30.85C36.9246 30.525 37.0246 30 37.1246 29.6375" fill="#009B3A"/>
<path d="M37.1246 29.625C37.0746 30.1125 36.9746 30.85 36.9746 31.3125C36.6496 31 36.1121 30.5625 35.7871 30.3C36.0871 30.475 36.4996 30.75 36.7996 30.85C36.9246 30.525 37.0246 30 37.1246 29.6375" stroke="black" stroke-width="0.0125"/>
<path d="M36.9367 30.9496L36.0742 29.9746L36.7242 31.1621L36.9742 31.2371L36.9367 30.9496Z" fill="#009B3A" stroke="black" stroke-width="0.0125"/>
<path d="M37.1498 29.7998C37.0998 30.2748 36.9998 31.0123 36.9873 31.4748C36.6623 31.1623 36.1248 30.7248 35.7998 30.4498C36.1123 30.6248 36.5248 30.9123 36.8123 31.0123C36.9498 30.6873 37.0373 30.1623 37.1498 29.7998Z" fill="#009B3A" stroke="black" stroke-width="0.0125"/>
<path d="M37.0375 31.175L36.375 30L36.7875 31.3375L37 31.475L37.0375 31.1875" fill="#009B3A"/>
<path d="M37.0375 31.175L36.375 30L36.7875 31.3375L37 31.475L37.0375 31.1875" stroke="black" stroke-width="0.0125"/>
<path d="M37.1873 29.9998C37.1498 30.4748 37.0873 31.2123 37.0873 31.6873C36.6961 31.3492 36.2871 31.0321 35.8623 30.7373C36.1873 30.8873 36.6123 31.1498 36.8998 31.2373C37.0248 30.8998 37.0998 30.3623 37.1873 29.9873" fill="#009B3A"/>
<path d="M37.1873 29.9998C37.1498 30.4748 37.0873 31.2123 37.0873 31.6873C36.6961 31.3492 36.2871 31.0321 35.8623 30.7373C36.1873 30.8873 36.6123 31.1498 36.8998 31.2373C37.0248 30.8998 37.0998 30.3623 37.1873 29.9873" stroke="black" stroke-width="0.0125"/>
<path d="M37.1248 31.3998L36.2998 30.3623L36.8998 31.5873L37.1248 31.6873V31.3998Z" fill="#009B3A" stroke="black" stroke-width="0.0125"/>
<path d="M37.2 30.2254C37.1625 30.7004 37.1 31.4379 37.1125 31.9129C36.775 31.6129 36.225 31.2129 35.875 30.9629C36.2 31.1254 36.625 31.3754 36.925 31.4629C37.05 31.1254 37.1125 30.5879 37.2 30.2129" fill="#009B3A"/>
<path d="M37.2 30.2254C37.1625 30.7004 37.1 31.4379 37.1125 31.9129C36.775 31.6129 36.225 31.2129 35.875 30.9629C36.2 31.1254 36.625 31.3754 36.925 31.4629C37.05 31.1254 37.1125 30.5879 37.2 30.2129" stroke="black" stroke-width="0.0125"/>
<path d="M37.1875 31.5752L36.625 30.3252L36.9375 31.7002L37.1375 31.8627L37.1875 31.5752Z" fill="#009B3A" stroke="black" stroke-width="0.0125"/>
<path d="M37.2123 30.3623C37.2373 30.8498 37.2373 31.5873 37.2873 32.0623C36.8659 31.7845 36.4321 31.5259 35.9873 31.2873C36.3123 31.3998 36.7498 31.5873 37.0623 31.6373C37.1498 31.2748 37.1623 30.7498 37.2123 30.3623Z" fill="#009B3A" stroke="black" stroke-width="0.0125"/>
<path d="M37.2875 31.525L36.25 30.8125L37.125 31.7875L37.375 31.8L37.2875 31.525Z" fill="#009B3A" stroke="black" stroke-width="0.0125"/>
<path d="M37.25 30.4121C37.2875 30.8996 37.3375 31.6371 37.4125 32.0996C37.0375 31.8621 36.4375 31.5621 36.0625 31.3746C36.4 31.4746 36.85 31.6496 37.1625 31.6871C37.225 31.3246 37.2125 30.7996 37.25 30.4121Z" fill="#009B3A" stroke="black" stroke-width="0.0125"/>
<path d="M37.4121 31.7871L36.5371 30.7871L37.1996 31.9871L37.4371 32.0746L37.3996 31.7871" fill="#009B3A"/>
<path d="M37.4121 31.7871L36.5371 30.7871L37.1996 31.9871L37.4371 32.0746L37.3996 31.7871" stroke="black" stroke-width="0.0125"/>
<path d="M37.325 30.5996C37.3875 31.0746 37.45 31.8121 37.5625 32.2746C37.1875 32.0621 36.5625 31.7996 36.1875 31.6371C36.525 31.7121 36.9875 31.8621 37.2875 31.8871C37.3375 31.5121 37.3125 30.9871 37.325 30.5996Z" fill="#009B3A" stroke="black" stroke-width="0.0125"/>
<path d="M37.5746 31.9621L36.5371 31.2246L37.4121 32.2246L37.6621 32.2371L37.5746 31.9621Z" fill="#009B3A" stroke="black" stroke-width="0.0125"/>
<path d="M37.3621 30.7998C37.4496 31.2748 37.5746 32.0123 37.6996 32.4623C37.3121 32.2748 36.6746 32.0748 36.2871 31.9498C36.6371 31.9873 37.0996 32.0998 37.4121 32.0748C37.4371 31.7123 37.3746 31.1998 37.3621 30.7998Z" fill="#009B3A" stroke="black" stroke-width="0.0125"/>
<path d="M37.6992 32.1129L36.8242 31.0879L37.4742 32.3004L37.7242 32.4004L37.6992 32.1129Z" fill="#009B3A" stroke="black" stroke-width="0.0125"/>
<path d="M37.4119 30.9248C37.5494 31.3873 37.7369 32.1123 37.9119 32.5498C37.4994 32.4248 36.8619 32.2998 36.4619 32.2248C36.8119 32.2248 37.2744 32.2623 37.5869 32.2123C37.5869 31.8373 37.4619 31.3248 37.4119 30.9373" fill="#009B3A"/>
<path d="M37.4119 30.9248C37.5494 31.3873 37.7369 32.1123 37.9119 32.5498C37.4994 32.4248 36.8619 32.2998 36.4619 32.2248C36.8119 32.2248 37.2744 32.2623 37.5869 32.2123C37.5869 31.8373 37.4619 31.3248 37.4119 30.9373" stroke="black" stroke-width="0.0125"/>
<path d="M37.7496 32.1123L36.5371 31.8623L37.6746 32.4248L37.9121 32.3373L37.7371 32.1123" fill="#009B3A"/>
<path d="M37.7496 32.1123L36.5371 31.8623L37.6746 32.4248L37.9121 32.3373L37.7371 32.1123" stroke="black" stroke-width="0.0125"/>
<path d="M37.4996 31.0752C37.6246 31.5377 37.8121 32.2502 37.9746 32.6877C37.5746 32.5627 36.9371 32.4377 36.5371 32.3627C36.8871 32.3627 37.3496 32.4002 37.6621 32.3627C37.6621 31.9877 37.5371 31.4627 37.4996 31.0752Z" fill="#009B3A" stroke="black" stroke-width="0.0125"/>
<path d="M37.9371 32.2373L36.7871 31.6748L37.8121 32.5123L38.0621 32.4873L37.9371 32.2373Z" fill="#009B3A" stroke="black" stroke-width="0.0125"/>
<path d="M37.4369 31.1504C37.6619 31.5754 37.9994 32.2379 38.2494 32.6129C37.8244 32.5879 37.1744 32.6129 36.7744 32.6129C37.1119 32.5504 37.5744 32.4879 37.8619 32.3629C37.7744 32.0004 37.5619 31.5254 37.4369 31.1504Z" fill="#009B3A" stroke="black" stroke-width="0.0125"/>
<path d="M38.1248 32.3621L36.9248 32.0371L38.0498 32.6621L38.2748 32.5996L38.1123 32.3496" fill="#009B3A"/>
<path d="M38.1248 32.3621L36.9248 32.0371L38.0498 32.6621L38.2748 32.5996L38.1123 32.3496" stroke="black" stroke-width="0.0125"/>
<path d="M37.5496 31.3379C37.7871 31.7504 38.1246 32.4129 38.3871 32.7879C37.9621 32.7629 37.3121 32.7879 36.9121 32.8129C37.2371 32.7254 37.7121 32.6629 37.9871 32.5379C37.9121 32.1754 37.6871 31.7004 37.5621 31.3379" fill="#009B3A"/>
<path d="M37.5496 31.3379C37.7871 31.7504 38.1246 32.4129 38.3871 32.7879C37.9621 32.7629 37.3121 32.7879 36.9121 32.8129C37.2371 32.7254 37.7121 32.6629 37.9871 32.5379C37.9121 32.1754 37.6871 31.7004 37.5621 31.3379" stroke="black" stroke-width="0.0125"/>
<path d="M38.2619 32.4623L37.1494 31.7998L38.1244 32.7248H38.3744L38.2619 32.4623Z" fill="#009B3A" stroke="black" stroke-width="0.0125"/>
<path d="M37.6494 31.4375C37.9119 31.825 38.3119 32.4375 38.5994 32.8C38.112 32.8392 37.6276 32.9102 37.1494 33.0125C37.4744 32.8875 37.9244 32.7625 38.1994 32.6C38.0744 32.25 37.8119 31.7875 37.6494 31.4375Z" fill="#009B3A" stroke="black" stroke-width="0.0125"/>
<path d="M38.3494 32.5621L37.1494 32.5246L38.3369 32.8871L38.5494 32.7496L38.3494 32.5621ZM39.0494 26.7371L39.9119 26.5996L39.0494 26.6121L38.8994 26.6871L39.0494 26.7371Z" fill="#009B3A" stroke="black" stroke-width="0.0125"/>
<path d="M39.5242 26.9248C39.2742 26.8498 38.8992 26.7248 38.6367 26.6748L39.5617 26.2373C39.3742 26.3623 39.0867 26.5123 38.9367 26.6373C39.0867 26.7373 39.3492 26.8373 39.5242 26.9248Z" fill="#009B3A" stroke="black" stroke-width="0.0125"/>
<path d="M38.9996 26.7621L39.8496 26.5371L38.9746 26.6496L38.8496 26.7371L39.0121 26.7621" fill="#009B3A"/>
<path d="M38.9996 26.7621L39.8496 26.5371L38.9746 26.6496L38.8496 26.7371L39.0121 26.7621" stroke="black" stroke-width="0.0125"/>
<path d="M39.5619 26.9875C39.2619 26.95 38.8119 26.9 38.5244 26.9C38.7494 26.7 39.0494 26.3875 39.2369 26.1875C39.1119 26.375 38.9119 26.6125 38.8244 26.7875C39.0244 26.875 39.3369 26.925 39.5619 26.9875Z" fill="#009B3A" stroke="black" stroke-width="0.0125"/>
<path d="M38.7 26.8252L39.575 26.7252L38.725 26.7002L38.5625 26.7752L38.6875 26.8252" fill="#009B3A"/>
<path d="M38.7 26.8252L39.575 26.7252L38.725 26.7002L38.5625 26.7752L38.6875 26.8252" stroke="black" stroke-width="0.0125"/>
<path d="M39.3369 27.0125L38.3994 26.85L39.2619 26.375C39.0869 26.5 38.8369 26.675 38.7119 26.8C38.8744 26.875 39.1494 26.95 39.3369 27.0125Z" fill="#009B3A" stroke="black" stroke-width="0.0125"/>
<path d="M38.6242 26.8248L39.3867 26.4873L38.5492 26.7123L38.4492 26.8123H38.6242" fill="#009B3A"/>
<path d="M38.6242 26.8248L39.3867 26.4873L38.5492 26.7123L38.4492 26.8123H38.6242" stroke="black" stroke-width="0.0125"/>
<path d="M39.3121 27.1127C39.0996 27.0252 38.7496 26.8627 38.5371 26.8002L39.0871 26.2002C38.9871 26.3627 38.8371 26.5752 38.7621 26.7502C38.9121 26.8752 39.1371 27.0002 39.3121 27.1127Z" fill="#009B3A" stroke="black" stroke-width="0.0125"/>
<path d="M38.6625 26.875L39.2625 26.625L38.6125 26.7L38.5375 26.825L38.6625 26.875ZM38.1625 32.45H36.9375L38.1875 32.7625L38.3875 32.6375L38.1625 32.45Z" fill="#009B3A" stroke="black" stroke-width="0.0125"/>
<path d="M38.3867 32.5248L37.1367 32.2373L38.3367 32.8248L38.5867 32.7498L38.3867 32.5248Z" fill="#009B3A" stroke="black" stroke-width="0.0125"/>
<path d="M38.5996 32.6123L37.3496 32.5498L38.5996 32.9248L38.8121 32.7998L38.5996 32.6123Z" fill="#009B3A" stroke="black" stroke-width="0.0125"/>
<path d="M37.8119 31.7373C38.1244 32.0873 38.6119 32.6623 38.9494 32.9748C38.5369 33.0373 37.9119 33.1998 37.5244 33.3123C37.8244 33.1623 38.2744 32.9873 38.5244 32.8123C38.3494 32.4873 38.0244 32.0623 37.8119 31.7373Z" fill="#009B3A" stroke="black" stroke-width="0.0125"/>
<path d="M38.7617 32.6752L37.5117 32.2627L38.6867 32.9627L38.9367 32.9127L38.7617 32.6627" fill="#009B3A"/>
<path d="M38.7617 32.6752L37.5117 32.2627L38.6867 32.9627L38.9367 32.9127L38.7617 32.6627" stroke="black" stroke-width="0.0125"/>
<path d="M37.9248 31.8125C38.2748 32.1375 38.7998 32.65 39.1748 32.9375C38.7748 33.05 38.1748 33.2875 37.7998 33.4375C38.0873 33.2625 38.4998 33.0375 38.7248 32.8125C38.5248 32.5125 38.1623 32.125 37.9248 31.8125Z" fill="#009B3A" stroke="black" stroke-width="0.0125"/>
<path d="M38.875 32.75L37.6875 32.9875L38.9375 33.0625L39.1125 32.9L38.8625 32.75" fill="#009B3A"/>
<path d="M38.875 32.75L37.6875 32.9875L38.9375 33.0625L39.1125 32.9L38.8625 32.75" stroke="black" stroke-width="0.0125"/>
<path d="M38.6244 32.6748L37.3994 32.7748L38.6619 32.9873L38.8619 32.8373L38.6119 32.6748" fill="#009B3A"/>
<path d="M38.6244 32.6748L37.3994 32.7748L38.6619 32.9873L38.8619 32.8373L38.6119 32.6748" stroke="black" stroke-width="0.0125"/>
<path d="M38.8492 32.7496L37.5742 32.5371L38.8242 33.0371L39.0492 32.9496L38.8492 32.7371V32.7496Z" fill="#009B3A" stroke="black" stroke-width="0.0125"/>
<path d="M39.0625 32.8125L37.8125 32.8375L39.0875 33.125L39.2875 32.9875L39.0625 32.8125Z" fill="#009B3A" stroke="black" stroke-width="0.0125"/>
<path d="M38.2121 31.9998C38.5621 32.3248 39.0871 32.8498 39.4496 33.1498C39.0371 33.2373 38.4121 33.4498 38.0371 33.5748C38.3371 33.4123 38.7621 33.2123 38.9996 33.0123C38.7996 32.6998 38.4496 32.2998 38.2121 31.9873V31.9998Z" fill="#009B3A" stroke="black" stroke-width="0.0125"/>
<path d="M39.2369 32.8621L37.9619 32.5371L39.1869 33.1621L39.4244 33.0871L39.2369 32.8621Z" fill="#009B3A" stroke="black" stroke-width="0.0125"/>
<path d="M38.3242 32.0625C38.6992 32.3625 39.2742 32.8375 39.6617 33.0875C39.2617 33.225 38.6867 33.525 38.3367 33.7C38.6117 33.4875 38.9992 33.2375 39.2117 33.0125C38.9867 32.7125 38.5867 32.35 38.3367 32.0625H38.3242Z" fill="#009B3A" stroke="black" stroke-width="0.0125"/>
<path d="M39.35 32.9248L38.1875 33.2498H39.4375L39.6 33.0623L39.35 32.9373V32.9248Z" fill="#009B3A" stroke="black" stroke-width="0.0125"/>
<path d="M40.9502 31.1875L40.0002 30.525L39.0502 31.1875L39.4127 30.1375L38.5752 29.4875H39.6502L40.0002 28.4375L40.3502 29.4875H41.4252L40.5877 30.1375L40.9502 31.1875Z" fill="#FEDF00" stroke="black" stroke-width="0.05"/>
</g>
<defs>
<clipPath id="clip0_3736_61214">
<rect width="80" height="60" fill="white"/>
</clipPath>
</defs>
</svg>
