<svg width="80" height="60" viewBox="0 0 80 60" fill="none" xmlns="http://www.w3.org/2000/svg">
<g clip-path="url(#clip0_3736_61595)">
<path d="M0 0H80V30H0V0Z" fill="#0038A8"/>
<path d="M0 30H80V60H0V30Z" fill="#CE1126"/>
<path d="M51.9625 30L0 60V0" fill="white"/>
<path d="M3.3375 5.2998L5.125 6.8748L7.2 5.7248L6.275 7.9123L8.025 9.5373L5.65 9.3373L4.6375 11.4873L4.1 9.1748L1.75 8.8748L3.7875 7.6248L3.3375 5.2998ZM43.8125 26.8373L43.8625 29.2123L46.1125 29.9998L43.8625 30.7748L43.8125 33.1498L42.375 31.2623L40.1 31.9498L41.45 29.9998L40.1 28.0498L42.375 28.7373L43.8125 26.8373ZM4.65 48.5123L5.65 50.6623L8.025 50.4623L6.2875 52.0873L7.2125 54.2748L5.1375 53.1373L3.3375 54.6873L3.7875 52.3498L1.75 51.1248L4.1125 50.8248L4.65 48.5123ZM18.925 17.3873L18.15 18.1623L18.5375 24.0373L18.1625 24.0748L17.45 18.7123L16.8125 19.3373L17.7625 24.1373C16.9943 24.2885 16.2636 24.5901 15.6125 25.0248L12.9 20.9748H12L15.3 25.2623C15.1973 25.3424 15.0973 25.4257 15 25.5123L11.1125 21.0748H10.0125V22.1748L14.4375 26.0498L14.1875 26.3623L9.9 23.0748V23.9623L13.9625 26.6748C13.5375 27.3248 13.225 28.0498 13.075 28.8248L8.2875 27.8748L7.65 28.4998L13.0125 29.2123C12.9875 29.3373 12.975 29.4748 12.975 29.5998L7.1 29.2248L6.325 29.9998L7.1 30.7748L12.975 30.3873L13.0125 30.7748L7.65 31.4873L8.275 32.1123L13.075 31.1623C13.2262 31.9305 13.5278 32.6612 13.9625 33.3123L9.9 36.0248V36.9248L14.1875 33.6373C14.2676 33.74 14.3509 33.84 14.4375 33.9373L10.0125 37.8123V38.9123H11.125L15 34.4873L15.3125 34.7373L12 39.0248H12.9L15.6125 34.9623C16.25 35.3873 16.9875 35.6998 17.7625 35.8498L16.8125 40.6498L17.4375 41.2748L18.15 35.9123C18.275 35.9373 18.4 35.9498 18.5375 35.9498L18.1625 41.8248L18.925 42.5998L19.7125 41.8248L19.325 35.9498L19.7 35.9123L20.4125 41.2873L21.05 40.6498L20.1 35.8498C20.8682 35.6986 21.5989 35.397 22.25 34.9623L24.9625 39.0248H25.8625L22.5625 34.7373C22.6652 34.6572 22.7652 34.5739 22.8625 34.4873L26.75 38.9123H27.85V37.8123L23.425 33.9373L23.675 33.6373L27.9625 36.9248V36.0248L23.9 33.3123C24.325 32.6748 24.6375 31.9373 24.7875 31.1623L29.575 32.1123L30.2125 31.4873L24.85 30.7748C24.875 30.6498 24.8875 30.5248 24.8875 30.3873L30.7625 30.7623L31.5375 29.9998L30.7625 29.2248L24.8875 29.5998L24.85 29.2248L30.2125 28.5123L29.5875 27.8873L24.7875 28.8248C24.6363 28.0566 24.3347 27.326 23.9 26.6748L27.9625 23.9623V23.0748L23.675 26.3623C23.5949 26.2596 23.5116 26.1596 23.425 26.0623L27.85 22.1873V21.0748H26.75L22.875 25.5123C22.7736 25.4255 22.6694 25.3421 22.5625 25.2623L25.8625 20.9748H24.9625L22.25 25.0248C21.6125 24.5998 20.875 24.2873 20.1 24.1373L21.05 19.3498L20.425 18.7248L19.7125 24.0748L19.325 24.0373L19.7 18.1623L18.925 17.3873Z" fill="#FCD116"/>
</g>
<defs>
<clipPath id="clip0_3736_61595">
<rect width="80" height="60" fill="white"/>
</clipPath>
</defs>
</svg>
