<svg width="80" height="60" viewBox="0 0 80 60" fill="none" xmlns="http://www.w3.org/2000/svg">
<g clip-path="url(#clip0_3736_61648)">
<path d="M0 0H80V60H0V0Z" fill="#00247D"/>
<path d="M0 0H40V30H0V0Z" fill="#012169"/>
<path d="M4.6875 0L19.9375 11.3125L35.125 0H40V3.875L25 15.0625L40 26.1875V30H35L20 18.8125L5.0625 30H0V26.25L14.9375 15.125L0 4V0H4.6875Z" fill="white"/>
<path d="M26.5 17.5625L40 27.5V30L23.0625 17.5625H26.5ZM15 18.8125L15.375 21L3.375 30H0L15 18.8125ZM40 0V0.1875L24.4375 11.9375L24.5625 9.1875L36.875 0H40ZM0 0L14.9375 11H11.1875L0 2.625V0Z" fill="#C8102E"/>
<path d="M15.0625 0V30H25.0625V0H15.0625ZM0 10V20H40V10H0Z" fill="white"/>
<path d="M0 12.0625V18.0625H40V12.0625H0ZM17.0625 0V30H23.0625V0H17.0625Z" fill="#C8102E"/>
<path d="M51.2629 31.5374C50.1364 32.4274 49.308 33.6396 48.8879 35.0124C48.1754 38.4249 47.2254 39.1874 45.7629 38.4499C45.7629 40.2874 47.3754 40.4249 48.0754 39.3624C48.0754 41.0749 48.7004 42.5624 50.1004 43.8374C50.7004 44.3749 50.8129 44.0124 50.5254 43.4124C50.2504 42.8249 50.2504 40.9124 49.6879 39.8124C50.5879 40.4499 51.9129 40.0874 51.8129 38.3124C50.6504 38.9874 49.5004 38.9624 49.3754 37.3499C49.2379 35.4749 49.9629 32.7249 51.2629 31.5374ZM49.8879 17.9624C49.9754 17.2749 49.8254 16.5874 49.3254 16.1499C48.3754 15.3124 47.4379 15.5874 46.7379 16.2749C45.7004 15.6999 45.1379 17.6999 43.9629 17.3624C44.1504 18.0124 44.4629 18.2874 45.0629 18.0624C44.4379 18.6249 45.0629 19.3124 44.3254 19.9874C45.6504 20.4124 46.3504 19.6749 46.3004 18.3999C46.4178 18.5081 46.5556 18.5919 46.7058 18.6462C46.856 18.7004 47.0155 18.7242 47.175 18.7161C47.3345 18.7079 47.4908 18.668 47.6347 18.5987C47.7785 18.5294 47.9071 18.432 48.0129 18.3124C47.3129 18.0874 47.3129 17.4749 47.5879 16.9124C48.0129 16.0624 50.0004 16.0999 49.8879 17.9624Z" fill="#F7E017" stroke="black" stroke-width="0.0508589"/>
<path d="M52.9504 27.7626C51.4504 28.5626 48.7254 28.2251 48.4629 26.2626C48.2129 24.3251 50.1004 23.4501 50.6129 23.2001C51.4004 22.8001 52.0254 23.5126 51.7629 24.3251C52.6379 24.0251 52.8379 23.0001 52.4129 22.4126C53.5754 22.5001 54.6379 21.6251 55.0879 20.3876C54.6879 20.7626 53.5879 20.5126 52.6754 20.4501C52.9504 20.1376 52.9504 19.5376 52.8629 19.2251C51.9129 20.2126 50.5254 19.7626 48.7004 22.6001C49.1293 21.0619 49.5294 19.5158 49.9004 17.9626C50.0004 16.0876 48.0254 16.0626 47.6004 16.9126C48.0629 17.4376 47.8129 18.0376 47.6504 18.9751C47.4504 20.0626 47.0254 22.6001 46.6629 23.4501C46.5504 22.1251 45.6754 22.0376 45.5129 21.3876C45.2629 21.5626 45.1129 22.0126 45.1754 22.3251C44.8629 21.9876 43.7879 22.4126 43.3879 21.9001C42.9754 22.7376 43.6379 23.5876 44.3504 23.9626C43.9379 23.9876 43.8504 24.4751 43.3879 24.4751C44.0004 25.1876 44.6254 25.4751 45.3379 25.5251C46.0629 25.5751 46.5879 25.8501 47.0254 26.7251C47.7379 28.1376 50.4254 29.0501 52.9504 27.7626Z" fill="#337321" stroke="black" stroke-width="0.0508589"/>
<path d="M56.6753 26.0498C55.8253 28.3873 53.5128 30.0498 52.4753 30.2998C50.7003 30.7373 47.0753 32.4998 46.1003 33.3998C45.9577 33.372 45.8219 33.3168 45.7003 33.2373C45.2253 32.8998 44.8253 31.7998 45.6753 30.8623C48.3253 28.3873 51.1753 29.4623 52.9503 27.7623C51.4503 28.5498 48.7253 28.2123 48.4753 26.2623C49.6876 26.5774 50.9629 26.5553 52.1635 26.1984C53.3642 25.8415 54.4445 25.1634 55.2878 24.2373C55.8015 24.7974 56.2619 25.4042 56.6628 26.0498H56.6753Z" fill="#F7E017" stroke="black" stroke-width="0.0508589"/>
<path d="M51.2622 31.5371C49.9247 32.6621 49.2372 35.4621 49.3747 37.3496C49.4122 37.8746 49.5622 38.2246 49.7872 38.4496C49.8872 37.3746 50.6247 34.6121 52.5372 33.3746C54.1372 32.3371 56.6497 29.9996 57.5747 27.3121C57.3961 26.8216 57.0451 26.4128 56.5872 26.1621C55.6622 28.6871 53.1997 29.8996 51.2622 31.5371Z" fill="#337321" stroke="black" stroke-width="0.0508589"/>
<path d="M55.8129 24.9625C55.1481 25.886 54.2452 26.6118 53.2004 27.0625C53.3976 26.8226 53.5077 26.523 53.5129 26.2125C51.8652 26.6831 50.1217 26.7047 48.4629 26.275C49.677 26.5925 50.9548 26.5717 52.1579 26.2147C53.361 25.8577 54.4434 25.1783 55.2879 24.25C55.502 24.4561 55.6795 24.697 55.8129 24.9625Z" fill="#316D3A" stroke="black" stroke-width="0.0508589"/>
<path d="M45.6753 30.8748C43.5253 32.8748 44.9503 34.6498 45.8003 35.0373C45.5628 36.4498 46.8878 36.2873 46.8628 37.4623C47.4003 37.1623 47.5378 36.3373 47.4503 35.6873C48.1378 36.4248 49.8503 35.5998 50.2128 36.9623C50.4503 35.4623 49.2878 33.9623 47.8503 34.1123C48.4503 33.5748 48.1003 32.6998 47.5378 32.4748C47.4253 33.5748 46.1878 33.5748 45.7128 33.2248C45.2253 32.8998 44.8378 31.7998 45.6753 30.8623V30.8748Z" fill="#337321" stroke="black" stroke-width="0.0508589"/>
<path d="M50.3375 43.6997C50.1125 43.8247 50.125 44.1372 50.275 44.3247C50.5625 44.7247 50.0625 45.6247 51.025 45.8122C51.3 45.8747 51.525 45.6872 51.625 45.3747C51.925 44.4872 50.975 44.3872 50.8875 43.9622C50.8125 43.5372 50.5375 43.5872 50.3375 43.6997Z" fill="#F7E017" stroke="black" stroke-width="0.0508589"/>
<path d="M51.1504 45.3627C50.8379 45.5127 50.5504 45.7127 50.6879 46.7377C50.7379 47.1502 50.7129 48.1627 50.3379 48.1752C50.5629 48.3002 51.0504 48.4252 51.2504 48.1502C51.4379 48.4752 51.8754 48.3752 52.0379 47.9877C52.2629 48.1627 52.5754 47.8627 52.5754 47.5877C52.7629 47.7127 53.1629 47.5377 53.0629 46.9252C53.3129 47.0127 53.6129 46.8377 53.7254 46.6877C53.3754 46.6127 52.4754 46.1377 52.2754 45.7627C52.0629 45.3752 51.5254 45.1877 51.1504 45.3627Z" fill="#F7E017" stroke="black" stroke-width="0.0508589"/>
<path d="M46.25 16.8377C46.4 16.6377 46.5625 16.4377 46.75 16.2627M51.625 20.5752C51.875 20.4377 52.25 20.4127 52.675 20.4502M51.25 48.1502C51.15 48.0127 51.1125 47.4252 51.175 47.0627M52.0375 47.9877C51.875 47.8627 51.5875 47.4502 51.5375 47.1002M52.575 47.5877C52.2094 47.3018 51.9357 46.915 51.7875 46.4752M53.0625 46.9252C52.825 46.8752 52.1125 46.4127 51.8125 45.9252" stroke="black" stroke-width="0.0508589"/>
<path d="M66.0625 30.9004C69.525 33.8004 69.75 36.1129 69.225 37.4629C68.9375 36.2004 67.5 34.2254 66 33.7129L66.0625 30.9004Z" fill="#F7E017" stroke="black" stroke-width="0.0508589"/>
<path d="M59.8622 29.25H66.2872V36.875C66.2872 43.3625 62.6872 47.1875 59.0122 49.225C56.7676 48.0519 54.8971 46.2727 53.6133 44.0895C52.3295 41.9063 51.6838 39.4068 51.7497 36.875V29.25H56.2497C56.2497 29.65 56.2997 30.25 56.7497 30.8375C57.8247 30.7375 59.0247 29.9375 59.8622 29.2625V29.25Z" fill="#337321" stroke="black" stroke-width="0.0508589"/>
<path d="M66.2873 29.25V36.875C66.2873 38.825 65.9623 40.55 65.4123 42.0375L58.9998 30.325L52.6248 42.0375C52.0623 40.5375 51.7373 38.825 51.7373 36.875V29.25H66.2873Z" fill="#006EC7" stroke="black" stroke-width="0.0508589"/>
<path d="M65.6 41.4873C65.461 41.9111 65.3025 42.3282 65.125 42.7373L59 31.3748L52.9125 42.7498C52.75 42.3998 52.55 41.8373 52.4375 41.4998L59.025 29.2998L65.6 41.4873Z" fill="#F7E017"/>
<path d="M61.9124 45.6621L62.5374 45.9496C62.86 45.1669 62.9553 44.3091 62.8124 43.4746C62.4499 44.3996 61.2124 44.3746 60.8749 44.9371C61.0749 45.0371 61.2749 45.1871 61.4374 45.2996C61.0124 45.7246 60.0249 46.4246 59.4624 46.5996V40.5496C59.4624 40.1246 59.3124 39.7746 59.3124 39.4246V38.1746C59.3124 37.8871 59.2624 37.4746 59.0124 37.4746C58.7624 37.4746 58.6999 37.8871 58.6999 38.1746V39.4246C58.6999 39.7746 58.5624 40.1746 58.5624 40.5496V46.5996C58.2499 45.6996 57.0374 45.9996 56.4749 45.0996C56.6961 45.0475 56.9254 45.039 57.1499 45.0746C56.7249 43.6371 55.5624 43.5246 55.3499 43.0996C55.3499 43.6996 55.0999 45.0746 55.4874 45.6746C55.5749 45.5621 55.7124 45.4496 55.8624 45.3621C56.3499 46.3996 58.4999 46.3996 59.0124 48.1246C59.4249 47.4996 60.8874 46.7496 61.9124 45.6621Z" fill="#F7E017" stroke="black" stroke-width="0.0508589"/>
<path d="M59.0127 40.6254C59.4877 40.6254 61.0127 40.4754 61.5627 40.4754C61.7127 40.4754 61.8252 40.2504 61.8252 39.9879C61.8252 39.7379 61.7127 39.5129 61.5752 39.5129C61.0127 39.5129 59.5002 39.3629 59.0127 39.3629C58.5377 39.3629 57.0127 39.5129 56.4627 39.5129C56.3127 39.5129 56.2002 39.7254 56.2002 39.9879C56.2002 40.2504 56.3252 40.4754 56.4502 40.4754C57.0127 40.4754 58.5377 40.6254 59.0127 40.6254ZM58.7002 38.1504C58.6002 38.0629 58.4752 38.0254 58.3252 38.0254C58.0002 38.0254 57.7377 38.2504 57.7377 38.5379C57.7377 38.8379 58.0002 39.0754 58.3252 39.0754C58.6377 39.0754 58.9002 38.8254 58.9002 38.5379C58.9002 38.3129 59.2252 38.3129 59.2252 38.5379C59.2252 39.0004 58.8252 39.3754 58.3252 39.3754C57.8252 39.3754 57.4127 39.0004 57.4127 38.5379C57.4127 38.0879 57.8252 37.7129 58.3252 37.7129C58.4683 37.7163 58.6089 37.7504 58.7377 37.8129C58.7377 37.8879 58.7002 38.0254 58.7002 38.1504Z" fill="#F7E017" stroke="black" stroke-width="0.0508589"/>
<path d="M56.4629 40.4752C56.6004 40.4752 56.7129 40.2502 56.7129 39.9877C56.7129 39.7377 56.6004 39.5127 56.4629 39.5127" fill="#F7E017"/>
<path d="M56.4629 40.4752C56.6004 40.4752 56.7129 40.2502 56.7129 39.9877C56.7129 39.7377 56.6004 39.5127 56.4629 39.5127" stroke="black" stroke-width="0.0508589"/>
<path d="M56.675 40.475C56.8125 40.475 56.925 40.25 56.925 39.9875C56.925 39.7375 56.8125 39.5125 56.675 39.5125M58.0625 40.5625C58.2375 40.5625 58.375 40.3125 58.375 39.9875C58.375 39.675 58.25 39.4125 58.0625 39.4125M58.3875 40.5875C58.575 40.5875 58.7125 40.325 58.7125 39.9875C58.7125 39.65 58.575 39.3875 58.3875 39.3875M59.475 40.6C59.6625 40.6 59.8 40.325 59.8 39.9875C59.8 39.65 59.65 39.375 59.475 39.375M59.8125 40.575C59.9875 40.575 60.1375 40.325 60.1375 39.9875C60.1375 39.6625 59.9875 39.4 59.8125 39.4M61.325 40.475C61.475 40.475 61.5875 40.2625 61.5875 39.9875C61.5875 39.7125 61.475 39.4875 61.3375 39.4875M55.875 45.3625C56.0375 45.25 56.25 45.1625 56.475 45.1125L55.875 45.3625ZM61.6125 45.4125L61.4375 45.2875L61.6125 45.4125ZM61.9125 45.6625C62.3125 45.2375 62.6375 44.75 62.825 44.2L61.9125 45.6625Z" fill="#F7E017"/>
<path d="M56.675 40.475C56.8125 40.475 56.925 40.25 56.925 39.9875C56.925 39.7375 56.8125 39.5125 56.675 39.5125M58.0625 40.5625C58.2375 40.5625 58.375 40.3125 58.375 39.9875C58.375 39.675 58.25 39.4125 58.0625 39.4125M58.3875 40.5875C58.575 40.5875 58.7125 40.325 58.7125 39.9875C58.7125 39.65 58.575 39.3875 58.3875 39.3875M59.475 40.6C59.6625 40.6 59.8 40.325 59.8 39.9875C59.8 39.65 59.65 39.375 59.475 39.375M59.8125 40.575C59.9875 40.575 60.1375 40.325 60.1375 39.9875C60.1375 39.6625 59.9875 39.4 59.8125 39.4M61.325 40.475C61.475 40.475 61.5875 40.2625 61.5875 39.9875C61.5875 39.7125 61.475 39.4875 61.3375 39.4875M55.875 45.3625C56.0375 45.25 56.25 45.1625 56.475 45.1125M61.6125 45.4125L61.4375 45.2875M61.9125 45.6625C62.3125 45.2375 62.6375 44.75 62.825 44.2" stroke="black" stroke-width="0.0508589"/>
<path d="M57.7246 34.6498C57.7246 34.4998 57.8371 34.4498 57.9746 34.3498C58.1246 34.2248 58.1871 34.1748 58.3371 34.1748H60.1871C60.3121 34.1748 60.3496 34.2123 60.3496 34.3373V36.8373C60.3496 36.9623 60.3246 37.0123 60.1871 37.0123H57.7246V34.6123" fill="white"/>
<path d="M57.7246 34.6498C57.7246 34.4998 57.8371 34.4498 57.9746 34.3498C58.1246 34.2248 58.1871 34.1748 58.3371 34.1748H60.1871C60.3121 34.1748 60.3496 34.2123 60.3496 34.3373V36.8373C60.3496 36.9623 60.3246 37.0123 60.1871 37.0123H57.7246V34.6123" stroke="black" stroke-width="0.0508589"/>
<path d="M59.7252 37.2254C59.9752 37.2254 59.9252 37.2254 60.1002 37.0504C60.2752 36.8754 60.2627 36.8879 60.2627 36.7254V34.4254C60.2627 34.3004 60.2252 34.2754 60.1002 34.2754H58.3877C58.2627 34.2754 58.2002 34.3254 58.0502 34.4379C57.9252 34.5379 57.8252 34.5879 57.8252 34.7129V37.2254H59.7252Z" fill="#E5E5E5" stroke="black" stroke-width="0.0508589"/>
<path d="M59.9121 37.175C59.9121 37.3 59.8746 37.3375 59.7371 37.3375H57.8871C57.7496 37.3375 57.7246 37.3 57.7246 37.175V34.6625C57.7246 34.5375 57.7496 34.5 57.8871 34.5H59.7371C59.8746 34.5 59.9121 34.5375 59.9121 34.6625V37.175Z" fill="white" stroke="black" stroke-width="0.0508589"/>
<path d="M63.5004 27.7877C63.8504 28.1877 63.9754 28.7252 63.7754 29.2627H63.2504C63.4754 28.5752 63.3379 27.9377 62.3754 27.8502C60.9504 27.7252 59.2754 30.5002 56.7629 30.8377C56.0379 29.9627 56.0754 28.3002 57.0129 27.5127C56.5303 26.181 55.777 24.9637 54.8004 23.9377C54.3585 23.8651 53.9105 23.8358 53.4629 23.8502C53.8379 23.0502 54.8754 22.2252 55.7254 21.8877C55.8606 21.6954 56.0023 21.5078 56.1504 21.3252C56.2379 20.2377 61.4004 20.7377 62.4879 21.4127C62.4879 22.6377 62.9754 26.6877 63.5129 27.7877H63.5004Z" fill="#96877D" stroke="black" stroke-width="0.0508589"/>
<path d="M57.2496 28.525C57.1246 26.65 56.3621 25.1 55.2871 24.05C55.6682 24.1407 56.0636 24.1543 56.45 24.0899C56.8364 24.0255 57.206 23.8844 57.5371 23.675C58.4746 23.05 60.9121 21.975 61.7871 22.4375C61.8621 22.6 61.9121 22.9375 61.8496 23.175C61.6371 22.6125 59.2996 23.475 58.6371 23.75C58.0121 24.0375 57.7246 24.4375 57.9496 25.325C57.5746 25.0125 57.6996 24.725 57.3246 24.5C57.4746 24.8625 57.5996 25.525 57.6496 26.0625C57.4996 25.6875 57.2496 24.8625 56.6996 24.375C57.279 25.7478 57.5191 27.2399 57.3996 28.725C57.7746 28.725 58.6246 28.35 58.9496 28.1C58.6621 28.5125 57.7996 28.8125 57.2621 28.925C56.9877 29.3677 56.8447 29.8792 56.8496 30.4C56.8121 29.875 56.9746 28.6125 57.2371 28.525H57.2496ZM63.4996 27.7875C63.0246 27.2625 62.1621 26.9875 61.0496 27.2875C61.3194 27.1556 61.6051 27.059 61.8996 27C61.8621 26.7125 61.5996 25.4375 61.5496 25.125L61.8621 25C62.0246 25.7625 62.2121 26.6375 62.3371 27C62.4371 27.0125 62.6621 27.0625 62.8621 27.1625C62.7746 26.8625 62.2996 24.7375 62.3121 24.5125L62.7371 24.2875C62.8651 25.4771 63.1164 26.65 63.4871 27.7875H63.4996Z" fill="black"/>
<path d="M63.2498 29.2496C63.4623 28.5871 63.3248 27.9371 62.3748 27.8496C61.6248 27.7871 60.8248 28.5121 59.8748 29.2621L63.2498 29.2496ZM57.0123 23.1871C56.3895 23.2277 55.7643 23.1643 55.1623 22.9996C55.1873 22.8746 55.2373 22.7496 55.2998 22.5996C54.9139 22.8408 54.5574 23.1261 54.2373 23.4496C54.9123 23.5996 56.3123 23.6621 57.0123 23.1871Z" fill="#96877D" stroke="black" stroke-width="0.0508589"/>
<path d="M56.9996 27.5002C57.1496 27.9627 57.2496 28.4002 57.2621 28.7877M55.7121 21.8877C55.4621 22.2627 55.2371 22.6627 55.1621 23.0127C55.7658 23.1676 56.3901 23.2266 57.0121 23.1877" stroke="black" stroke-width="0.0508589"/>
<path d="M54.7998 23.9373C54.9748 23.9748 55.1498 23.9998 55.2998 24.0498C55.7998 24.1873 56.8373 24.1873 57.5498 23.6748C58.2498 23.1748 60.1748 21.5873 62.3373 21.4248" stroke="black" stroke-width="0.0508589"/>
<path d="M54.2373 23.4504C54.9123 23.6004 56.3123 23.6629 57.0123 23.1879C58.412 22.1421 60.0728 21.502 61.8123 21.3379" stroke="black" stroke-width="0.0508589"/>
<path d="M66.0624 30.9001C68.4374 32.5251 70.1874 34.1126 70.6874 36.6501C71.1874 39.1876 72.1499 39.8626 73.3374 39.1876C73.0624 40.6501 71.5874 40.8126 70.3499 39.6876C70.4749 41.3876 69.7874 43.4126 68.0374 44.1501C67.9249 43.1376 68.5999 42.3251 68.4124 41.5001C68.3249 41.1251 68.2874 40.2876 68.7749 39.8876C67.8374 40.2001 66.3749 39.6126 66.2374 38.2251C67.3124 38.7251 68.6874 38.8126 69.2249 37.4626C69.7499 36.1126 69.5249 33.8001 66.0624 30.9001ZM69.0499 17.7001C69.7874 15.7876 71.6999 15.9876 72.3499 16.8001C74.2374 15.7251 74.4999 18.1501 76.0999 17.6751C76.0749 18.1251 75.5374 18.5501 74.9499 18.5126C75.5749 19.0751 74.6999 19.9251 76.0124 20.4376C74.8874 21.0001 73.3124 20.4126 72.8874 18.8501C72.5124 19.5876 71.1999 19.5876 70.6624 19.0001C71.8124 18.6876 71.7374 17.6251 71.0874 17.1876C70.4249 16.7626 69.2749 16.9376 69.0499 17.7001ZM63.3374 21.9251C63.8809 23.5888 64.8404 25.0862 66.1249 26.2751C67.4749 27.5251 69.5124 27.2001 70.6624 26.0251C70.6874 28.3751 68.2374 28.5626 66.8874 27.8251C66.2874 27.5001 65.7999 27.6626 66.3749 28.2001C67.2499 28.9751 69.1624 29.5751 71.4249 30.0501C75.3624 30.9001 73.9624 34.0251 72.7999 34.0001C73.1374 34.0001 73.4124 33.6376 72.9249 33.2126C69.4999 30.1251 62.5499 31.3376 62.6499 24.4626C61.9249 26.2751 58.8999 25.5626 60.3124 23.4251C60.7624 23.7876 61.5624 23.8126 61.7749 23.2501C61.9499 22.8126 61.8374 22.0501 61.0499 21.3876C61.1749 21.3876 61.4624 21.3876 61.4249 21.0626C61.4624 21.2626 61.6374 21.5376 62.0874 21.4376C62.2124 21.6501 62.3374 21.7751 62.5249 21.7001C62.5624 21.7001 62.6624 21.6376 62.6249 21.4376C62.6499 21.8126 63.0999 21.9501 63.3374 21.9251Z" fill="#337321" stroke="black" stroke-width="0.0508589"/>
<path d="M66.8749 27.8246C68.5124 28.8871 70.3749 28.8871 72.0624 26.9246C72.5999 26.2996 73.4374 25.7621 74.0374 25.7121C74.6374 25.6496 74.5999 25.0871 75.0499 24.9621C74.7749 24.8871 74.6624 24.5496 74.2374 24.5871C75.2999 24.2246 74.9874 23.3746 75.4999 22.9621C75.0749 23.1246 74.4249 22.4996 73.8124 23.2996C73.9749 22.9246 73.7499 22.4996 73.5999 22.3246C73.6624 22.7496 72.7749 22.8246 72.5999 23.8996C72.5124 24.4996 72.1749 24.4746 72.1249 23.5371C72.0874 22.8621 71.7499 20.9746 71.3749 20.0121C70.9749 19.0621 70.8749 17.7371 71.4124 17.5496C71.3352 17.4074 71.2234 17.2871 71.0874 17.1996C70.4249 16.7746 69.2749 16.9496 69.0499 17.6996C68.3249 19.6246 70.3749 20.7246 70.2124 22.8121C69.8999 21.2621 67.3874 20.8621 67.4124 19.3371C66.5999 19.7121 66.7124 20.3871 67.0249 20.9246C66.5249 20.1371 65.3624 21.4246 64.3749 20.3621C64.2499 21.7746 65.4999 22.2996 66.5124 22.3621C66.0124 23.2621 66.6874 24.0246 67.3624 24.2746C67.3874 22.6996 70.6249 23.3371 70.6624 26.0496C70.6874 28.3621 68.1999 28.5496 66.8749 27.8246ZM71.4249 30.0496C75.3624 30.8996 73.9624 34.0246 72.7999 33.9996C72.0624 33.9746 71.3624 33.3621 71.3249 32.8246C70.4749 33.2746 70.6999 34.1621 71.3499 34.5121C69.5749 34.3121 68.8249 35.4746 68.7874 36.7621C69.1124 36.1621 70.0874 36.1371 70.4624 36.2621C70.8374 36.3871 71.7749 36.4496 72.1499 36.0121C71.8374 36.2871 72.3499 36.9121 71.8999 37.3871C73.3999 37.3371 74.0374 35.9496 73.7749 35.3496C75.6999 33.5996 75.3374 30.7496 71.4249 30.0496ZM68.4124 43.4496C68.6624 43.5996 68.6374 43.9496 68.4624 44.1621C68.1124 44.5871 68.6374 45.5996 67.5624 45.7871C67.2499 45.8246 67.0124 45.6246 66.9124 45.2621C66.6124 44.2621 67.6749 44.1871 67.7874 43.7246C67.9124 43.2496 68.1999 43.3121 68.4124 43.4496Z" fill="#F7E017" stroke="black" stroke-width="0.0508589"/>
<path d="M67.4502 45.2622C67.7877 45.4372 68.0877 45.6872 67.9127 46.8122C67.8252 47.2747 67.8127 48.4122 68.2252 48.4372C67.9752 48.5622 67.4252 48.6747 67.2252 48.3747C66.9877 48.7247 66.5127 48.5997 66.3502 48.1497C66.0752 48.3497 65.7502 47.9872 65.7627 47.6872C65.5377 47.8122 65.1002 47.5997 65.2377 46.9372C64.9627 47.0122 64.6252 46.8122 64.5127 46.6372C64.9002 46.5622 65.9127 46.0747 66.1752 45.6622C66.4252 45.2372 67.0502 45.0622 67.4502 45.2622Z" fill="#F7E017" stroke="black" stroke-width="0.0508589"/>
<path d="M67.2123 48.3748C67.3373 48.2248 67.3998 47.5623 67.3373 47.1623M66.3373 48.1498C66.5248 48.0248 66.8623 47.5873 66.9373 47.1873M65.7498 47.6873C66.1663 47.3784 66.4869 46.9581 66.6748 46.4748M65.2373 46.9373C65.4873 46.8873 66.3123 46.3998 66.6623 45.8623" stroke="black" stroke-width="0.0508589"/>
<path d="M62.6499 24.4752C62.5999 27.3502 63.7999 28.8252 65.4749 29.7752C64.8499 29.4002 65.1249 28.1377 64.2874 27.7252C64.4874 27.7127 64.7874 27.9877 65.2874 27.8752C65.0374 27.3502 64.6624 26.5252 63.7374 26.4127C63.9874 26.3877 64.4874 26.4752 64.8374 26.3502C64.3624 25.6002 63.0874 25.9627 62.6499 24.4752ZM62.3499 21.7252C62.2499 21.6877 62.1624 21.5877 62.0874 21.4502C61.6374 21.5502 61.4624 21.2627 61.4249 21.0752C61.4624 21.4002 61.1749 21.3877 61.0499 21.4002C61.8374 22.0502 61.9499 22.8127 61.7749 23.2502C61.5499 23.8127 60.7749 23.7877 60.3124 23.4252C60.2499 24.6252 61.8124 25.0127 62.3749 23.5127C62.3749 23.7627 62.6999 23.7377 62.7749 24.0752C63.1749 23.4252 62.8749 22.4877 62.3499 21.7252Z" fill="#F7E017" stroke="black" stroke-width="0.0508589"/>
<path d="M59.875 16C59.2437 15.3748 58.8844 14.5259 58.875 13.6375C58.9 13.0125 59.15 12.35 60.0625 12.6375C59.775 12.6375 59.975 13.1875 59.6875 13.25C59.9125 13.3375 60.2375 13.1375 60.2875 13C60.3375 13.2 60.7125 13.15 60.7375 13.375C60.875 13.2625 60.725 12.7125 60.5125 12.6C60.6625 12.5125 60.7625 12.075 60.6875 11.8625C60.5375 11.8875 60.325 12.0875 60.2875 12.375C60.3625 12.15 60.275 11.5875 59.875 11.5C59.7625 11.65 59.7375 12.0375 59.8875 12.25C59.525 12.1625 58.9875 12.4 58.8625 12.7125C58.8875 12.3375 58.9375 11.8 59.175 11.4625C59.25 11.3625 59.05 11.1625 58.9125 11.425C58.6375 10.8875 57.9125 10.6125 57.575 10.875C57.25 11.15 56.825 10.75 56.55 11.175C56.2875 11.6 55.375 11.6375 55.425 12.0875C55.45 12.3625 55.3875 12.775 55.25 12.925C54.925 13.2875 55.4125 13.55 55.5 13.875C55.4375 12.8125 57.1375 10.725 58.85 11.5375C58.6424 11.9936 58.5277 12.4866 58.5125 12.9875C58.4375 13.95 58.5875 15.3 59.5125 16.1L59.875 16Z" fill="#337321" stroke="black" stroke-width="0.0508589"/>
<path d="M60.375 12.6378C60.375 12.3878 60.8125 12.0503 61.4 12.0628C62.1125 12.0628 62.65 12.7128 63.225 12.6503C63.8 12.5878 63.525 12.9003 63.4 13.0003C63.275 13.0753 63.2125 13.2003 63.25 13.3628C63.2875 13.5128 63.225 13.6128 63 13.4753C62.4875 13.1503 61.975 13.6003 61.3 13.3503C60.7375 13.1378 60.4 13.0128 60.375 12.6378Z" fill="#C8102E" stroke="black" stroke-width="0.0508589"/>
<path d="M57.4752 19.3C57.102 18.4136 56.4416 17.6783 55.6002 17.2125L55.5752 16.7375C56.0345 16.4755 56.4587 16.1563 56.8377 15.7875C58.9627 16.7875 61.8377 15.3625 63.1627 13.875L63.6627 14.175L63.4127 14.5125L63.1502 14.375C62.5654 15.0166 61.9301 15.6102 61.2502 16.15C61.7377 16.275 62.4127 16.3625 62.6002 16.35C63.7752 15.5 64.7127 14.7375 65.1627 14.6875L65.5377 15.1875L65.2002 15.4375L64.9377 15.275C63.5067 16.6346 62.3891 18.2896 61.6627 20.125C60.8752 19.95 58.0502 20.0625 57.4752 19.3Z" fill="#96877D" stroke="black" stroke-width="0.0508589"/>
<path d="M61.2498 16.15C61.0623 16.1 60.8998 16.05 60.8123 16C60.3582 16.2812 59.8339 16.4285 59.2998 16.425" stroke="black" stroke-width="0.0508589"/>
<path d="M57.587 18.9871C57.3995 17.9371 57.712 16.7621 58.237 16.4121C58.8987 16.7998 59.6539 16.999 60.4207 16.988C61.1876 16.977 61.9368 16.7562 62.587 16.3496" stroke="black" stroke-width="0.0508589"/>
<path d="M57.5879 18.4379C58.4879 18.4129 60.4629 18.5629 60.9254 18.6254C61.4129 18.7004 62.2129 18.9004 62.1004 19.1379M58.0004 18.2879L58.2629 18.0379L58.0129 17.7754L57.7504 18.0254L58.0004 18.2879Z" stroke="black" stroke-width="0.0508589"/>
<path d="M58.6254 13.0373C58.3004 12.5873 57.4004 12.4373 57.2129 13.0373C57.1254 13.3123 57.0004 13.5998 56.7879 13.7248C56.5754 13.8498 56.6254 14.2373 56.7129 14.3998C56.9379 14.8123 56.7379 15.2123 57.1754 15.4748C57.1754 15.1498 57.6629 14.8123 58.0629 14.7248C58.4754 14.6498 59.1004 14.2748 59.1879 13.8748C59.2629 13.4498 59.4129 13.1248 58.6254 13.0373Z" fill="#337321" stroke="black" stroke-width="0.0508589"/>
<path d="M56.5873 17.0996H56.7123V17.8621L56.7748 17.8996L57.4373 17.5246L57.4998 17.6121L56.8248 17.9996V18.0746L57.4998 18.4496L57.4373 18.5496L56.7623 18.1746C56.7498 18.1871 56.7248 18.2121 56.6998 18.2121V18.9871H56.5873V18.2121C56.5648 18.2027 56.5437 18.1901 56.5248 18.1746L55.8623 18.5621L55.7998 18.4621L56.4623 18.0871V17.9996L55.7998 17.6246L55.8623 17.5246L56.5248 17.8996L56.5873 17.8621V17.0996Z" fill="#96877D" stroke="black" stroke-width="0.0508589"/>
<path d="M57.587 18.9746C57.3955 19.1685 57.1493 19.2993 56.8814 19.3494C56.6135 19.3996 56.3366 19.3667 56.0879 19.2551C55.8393 19.1436 55.6306 18.9587 55.4899 18.7253C55.3492 18.4918 55.2831 18.221 55.3006 17.949C55.3181 17.677 55.4183 17.4168 55.5877 17.2033C55.7572 16.9898 55.9878 16.8332 56.2487 16.7544C56.5096 16.6756 56.7884 16.6784 57.0477 16.7624C57.307 16.8464 57.5344 17.0077 57.6995 17.2246C57.6208 17.4551 57.5704 17.6944 57.5495 17.9371C57.5326 17.7613 57.465 17.5942 57.355 17.4561C57.2451 17.318 57.0974 17.2148 56.9298 17.1589C56.7623 17.1031 56.5822 17.097 56.4114 17.1415C56.2405 17.186 56.0862 17.2791 55.9672 17.4095C55.8482 17.5399 55.7696 17.7021 55.7409 17.8763C55.7122 18.0505 55.7346 18.2293 55.8056 18.391C55.8765 18.5527 55.9928 18.6904 56.1403 18.7873C56.2879 18.8842 56.4605 18.9362 56.637 18.9371C57.062 18.9371 57.4245 18.6496 57.537 18.2621C57.537 18.4371 57.537 18.8371 57.587 18.9746Z" fill="#96877D" stroke="black" stroke-width="0.0508589"/>
<path d="M56.0754 20.2496C56.0004 20.1496 55.8379 19.8746 55.8629 19.6871C56.0383 19.6921 56.2064 19.7585 56.3379 19.8746C56.3254 19.7246 56.2629 19.4246 56.3004 19.2746C56.4504 19.3371 56.7754 19.5246 56.8879 19.7246C56.8629 19.5871 56.8004 19.2246 56.8629 18.9996C57.0254 19.0996 57.3129 19.3621 57.3629 19.5496C57.3879 19.2621 57.4879 18.7996 57.5629 18.6746C57.6879 18.7996 57.8879 18.9246 58.0129 19.0996C58.0379 18.8621 58.1629 18.5996 58.3254 18.5371C58.4504 18.6621 58.6504 18.9996 58.7004 19.3621C58.8254 19.3246 58.9879 19.1121 59.0629 18.9871C59.1254 19.1121 59.2004 19.2996 59.1504 19.5496C59.3129 19.3996 59.5004 19.2121 59.5254 19.0371C59.6504 19.1246 59.8629 19.3371 59.9129 19.5621C59.8879 19.3746 59.9129 19.0496 59.8504 18.8621C60.0504 18.9871 60.2254 19.1746 60.2629 19.3871C60.3254 19.1871 60.4504 18.8371 60.5629 18.7621C60.6754 18.9871 60.7879 19.2621 60.7754 19.4746C60.8504 19.3371 60.9504 19.0746 61.0629 19.0246C61.1629 19.1746 61.1504 19.5246 61.1254 19.6996C61.2254 19.5621 61.4129 19.3871 61.5254 19.3246C61.5254 19.4246 61.5504 19.5871 61.5254 19.7121C61.705 19.5275 61.8416 19.3056 61.9254 19.0621C62.1254 19.1621 62.3254 19.4996 62.3379 19.6746C62.4879 19.6121 62.7629 19.3621 62.8379 19.2246C62.8379 19.3246 62.8879 19.5996 62.8379 19.7996C62.9254 19.7121 63.0004 19.5496 63.0504 19.4746C63.1004 19.6121 63.0504 19.9496 63.0004 20.1371C63.1187 20.0312 63.2675 19.9656 63.4254 19.9496C63.3897 20.2927 63.2833 20.6246 63.1129 20.9246C61.7629 20.5496 58.9254 20.4121 56.0754 20.2496Z" fill="#337321" stroke="black" stroke-width="0.0508589"/>
<path d="M60.7998 12.7877C60.7998 12.6752 61.0248 12.4502 61.4373 12.4502C61.9373 12.4502 62.3998 12.8252 62.7998 12.7877C63.1998 12.7627 62.9998 12.9002 62.9248 12.9252C62.8248 12.9627 62.7873 13.0127 62.7998 13.0752C62.8373 13.1502 62.7998 13.1877 62.6248 13.1252C62.2748 13.0002 61.9123 13.1752 61.4498 13.0752C61.0498 12.9877 60.8123 12.9502 60.7998 12.7877Z" fill="#F7E017"/>
<path d="M56.5129 21.1002C56.1004 21.6002 55.6754 21.5252 55.5879 21.2002C55.5004 20.8752 55.8129 20.7252 55.7004 20.4377C55.5879 20.1502 55.8879 20.0252 56.0254 20.1502C56.1629 20.2752 56.6254 19.8752 56.8129 20.3002C57.0129 20.7252 57.1629 21.0127 57.0629 21.1752C56.9379 21.3502 56.6004 21.2627 56.5129 21.1002ZM58.3379 20.3377C58.2629 20.1502 58.7004 19.7877 58.9254 20.0502C59.1504 20.3002 59.5004 19.7752 59.7004 20.1752C59.9004 20.5752 59.9504 20.7877 60.0629 21.0127C60.1504 21.2377 59.5254 21.3502 59.3254 21.1627C59.3504 21.2877 58.7754 21.4002 58.6254 21.0127L58.3379 20.3377ZM61.2629 20.5752C61.1629 20.3752 61.6754 20.0877 61.9504 20.4502C62.0129 20.3002 62.5254 20.2752 62.5629 20.7002L62.6254 21.5627C62.6379 21.7252 62.3129 21.8877 62.0879 21.4502C61.6629 21.5377 61.4754 21.3002 61.4254 21.0627C61.3754 20.8127 61.3254 20.6877 61.2629 20.5627V20.5752Z" fill="#F7E017" stroke="black" stroke-width="0.0508589"/>
<path d="M56.7873 20.2873C56.7248 20.1498 57.1623 19.8623 57.4373 20.0748C57.7248 20.2873 58.1248 19.8998 58.3123 20.2748C58.6498 21.0498 58.6623 21.0998 58.5623 21.2498C58.4623 21.3998 57.9998 21.3373 57.8873 21.1248C57.8748 21.2748 57.4748 21.2498 57.2748 21.1373C57.0498 21.0123 56.8873 20.5373 56.7873 20.2873ZM59.7498 20.3248C59.6623 20.0998 60.3248 19.9123 60.6248 20.2998C60.7623 20.1623 61.0873 20.1498 61.2623 20.5748C61.4498 20.9873 61.4748 21.2123 61.3498 21.3248C61.2498 21.3998 60.9123 21.4498 60.7998 21.2623C60.6373 21.3623 60.1623 21.2748 60.0498 21.0123C59.9498 20.7498 59.8623 20.5123 59.7623 20.3248H59.7498ZM62.5623 20.7498C62.5623 20.5373 62.9123 20.4498 63.0498 20.7498C63.1748 21.0248 63.6123 20.7623 63.6498 21.2498C63.6498 21.3373 63.5998 21.6873 63.4623 21.8623C63.3373 22.0248 62.6748 21.8623 62.6248 21.4998L62.5623 20.7498Z" fill="#337321" stroke="black" stroke-width="0.0508589"/>
<path d="M56.5127 21.0998C56.3627 20.8873 56.1502 20.5498 55.8877 20.9123M57.9002 21.1248C57.8002 21.0123 57.6877 20.8123 57.6502 20.6623M59.3252 21.1623C59.2252 21.0873 59.0752 20.9498 59.0002 20.7998M59.2002 20.4248C59.4502 20.4498 59.6127 20.6748 59.6877 20.7873C59.7627 20.8873 59.9377 21.0873 60.0627 21.0998M60.8002 21.2623C60.7127 21.1373 60.6252 21.0123 60.6127 20.9123M60.6252 20.2998C60.7002 20.4248 60.7627 20.5123 60.8127 20.6248M62.0752 21.4498C61.9791 21.2487 61.8272 21.0795 61.6377 20.9623M62.0252 20.6748C62.0377 21.0873 62.5877 21.1248 62.6127 21.4248M63.0502 20.7498C63.1002 20.8498 63.1252 20.9498 63.1252 21.1248" stroke="black" stroke-width="0.0508589"/>
</g>
<defs>
<clipPath id="clip0_3736_61648">
<rect width="80" height="60" fill="white"/>
</clipPath>
</defs>
</svg>
