<svg width="138" height="138" viewBox="0 0 138 138" fill="none" xmlns="http://www.w3.org/2000/svg">
<g clip-path="url(#clip0_4630_142667)">
<path d="M22.639 122.277C22.2794 118.773 34.2238 121.11 31.9828 118.144C29.7419 115.179 36.7413 112.844 36.7413 112.844L39.642 112.864C40.0981 113.446 40.5676 114.022 41.0652 114.581C46.8624 121.098 54.9734 125.427 63.9048 126.772C65.5415 127.041 67.2945 127.195 69.0589 127.218L69.0886 127.219H69.2794C80.2103 126.975 90.4005 122.365 97.3325 114.57C97.7131 114.142 98.0807 113.706 98.437 113.265L102.601 113.293C108.621 115.09 105.207 118.145 105.207 118.145C105.207 118.145 105.387 118.684 111.855 119.044C118.324 119.403 116.707 122.008 116.797 124.49C116.887 126.972 104.758 126.59 104.758 126.59C104.758 126.59 107.453 129.376 104.219 132.341C100.984 135.305 81.6669 130.633 81.6669 130.633C81.6669 130.633 80.3192 131.621 72.7721 135.215C65.225 138.809 57.4084 130.723 57.4084 130.723C57.4084 130.723 37.9283 135.085 33.5095 132.161C29.0907 129.237 34.6777 126.411 34.6777 126.411C34.6777 126.411 22.998 125.781 22.639 122.277Z" fill="#98E07E"/>
<path d="M41.1399 94.0012C41.2261 95.1763 41.4094 96.3191 41.6574 97.4404C49.97 99.9955 59.4577 101.354 69.1827 101.354C78.9184 101.354 88.4169 99.9848 96.7511 97.4296C96.9991 96.3084 97.1716 95.1655 97.2578 94.0012C97.1284 93.9149 96.9991 93.8179 96.8912 93.7101C96.4708 93.3112 96.2443 92.7613 96.2443 92.1899C96.2443 92.0498 96.2551 91.9096 96.2875 91.7695C96.3198 91.6293 96.3522 91.4999 96.4061 91.3598C96.46 91.2304 96.5354 91.1118 96.6109 90.9932C96.6864 90.8746 96.7726 90.7668 96.8912 90.6698C96.9991 90.5512 97.1177 90.4649 97.247 90.3787C97.1069 88.7291 96.7834 87.1335 96.2983 85.5918C88.0288 88.1362 78.7136 89.4946 69.1827 89.4946C59.6626 89.4946 50.3473 88.1362 42.0994 85.6026C41.6143 87.1443 41.2908 88.7399 41.1507 90.3787C41.28 90.4649 41.3986 90.5512 41.5064 90.6698C41.6143 90.7668 41.7005 90.8746 41.776 90.9932C41.8622 91.1118 41.9377 91.2304 41.9916 91.3705C42.0455 91.4999 42.0886 91.6293 42.1102 91.7695C42.1426 91.9096 42.1533 92.0498 42.1533 92.1899C42.1533 92.7613 41.9269 93.3112 41.5064 93.7101C41.3986 93.8179 41.2692 93.9149 41.1399 94.0012Z" fill="#E1EBF4"/>
<path d="M33.8317 111.077C34.8781 110.845 36.2188 110.732 37.9298 110.732C37.9632 110.732 38.0037 110.735 38.0371 110.735C39.0797 112.305 40.25 113.793 41.5411 115.185C40.1972 115.095 38.9778 115.044 37.9298 115.044C36.5859 115.044 35.5104 115.122 34.7708 115.286C31.4269 116.026 36.0069 118.285 45.2165 120.708C30.9617 120.979 23.7564 121.861 23.7564 122.908C23.7564 123.955 30.9617 124.838 45.2165 125.108C36.0069 127.531 31.4275 129.79 34.7708 130.53C35.5104 130.694 36.5854 130.772 37.9298 130.772C42.6645 130.772 50.7388 129.805 59.2606 128.217C60.4843 131.373 64.4691 133.687 69.199 133.687C73.9288 133.687 77.9132 131.373 79.1369 128.217C87.6591 129.805 95.7334 130.772 100.468 130.772C101.812 130.772 102.887 130.693 103.627 130.53C106.97 129.79 102.39 127.531 93.1809 125.108C107.436 124.838 114.641 123.955 114.641 122.908C114.641 121.861 107.436 120.979 93.1809 120.708C102.39 118.285 106.97 116.026 103.627 115.286C102.887 115.122 101.812 115.044 100.468 115.044C99.4288 115.044 98.2207 115.093 96.8908 115.183C98.1787 113.793 99.3469 112.305 100.388 110.734C100.413 110.734 100.443 110.732 100.467 110.732C102.178 110.732 103.518 110.845 104.565 111.077C108.756 112.005 109.032 115.251 109.045 115.893C109.054 116.333 109.017 116.751 108.929 117.149C109.2 117.175 109.464 117.202 109.721 117.23C113.624 117.65 118.969 118.224 118.969 122.908C118.969 127.592 113.624 128.167 109.721 128.586C109.464 128.614 109.2 128.641 108.929 128.668C109.017 129.066 109.054 129.483 109.045 129.924C109.032 130.565 108.756 133.812 104.565 134.74C103.519 134.971 102.178 135.084 100.467 135.084C95.9954 135.084 88.9508 134.306 81.2312 132.975C78.5574 136.074 74.1208 138 69.1984 138C64.2756 138 59.839 136.074 57.1657 132.975C49.4456 134.306 42.4015 135.084 37.9298 135.084C36.2188 135.084 34.8786 134.971 33.8317 134.74C29.6404 133.812 29.3649 130.565 29.3525 129.924C29.3434 129.483 29.38 129.066 29.4684 128.668C29.1973 128.641 28.9331 128.614 28.6765 128.586C24.7736 128.167 19.4287 127.592 19.4287 122.908C19.4287 118.224 24.7736 117.65 28.6765 117.23C28.9331 117.202 29.1973 117.175 29.4684 117.149C29.38 116.751 29.3439 116.333 29.3525 115.893C29.3649 115.251 29.641 112.005 33.8317 111.077Z" fill="#2D4356"/>
<path d="M102.606 49.3777L107.005 50.1109C107.63 47.6635 108.148 45.421 108.568 43.4157L104.213 42.6934C103.781 44.6879 103.253 46.9304 102.606 49.3777Z" fill="#D68751"/>
<path d="M99.4247 60.1695L103.877 60.9026C104.621 58.5954 105.29 56.3852 105.883 54.2937L101.462 53.5605C100.859 55.6521 100.179 57.8623 99.4247 60.1695Z" fill="#D68751"/>
<path d="M84.2349 40.8933C84.6015 40.8933 84.9788 40.7855 85.3346 40.5698C89.313 38.1333 94.0138 31.6753 102.1 30.457C102.121 30.4786 106.24 31.5675 106.24 31.5675C106.143 31.7939 106.068 32.0311 106.035 32.2898C106.024 32.3977 105.787 34.6294 105.065 38.4675L109.388 39.1791C109.82 36.7641 110.078 34.9312 110.218 33.8423C110.466 32.5594 110.757 31.1686 110.887 30.9206C111.318 30.953 114.402 30.608 114.402 30.608C118.208 31.3519 121.248 33.2602 123.814 35.2655C126.38 37.2816 128.472 39.3947 130.391 40.5698C130.746 40.7962 131.124 40.8933 131.49 40.8933C132.903 40.8933 134.132 39.4378 133.517 37.9392C131.189 32.2575 124.903 25.5839 113.571 25.5839H113.453C118.617 17.3363 127.889 16.8834 132.504 14.5978C134.337 13.6814 133.927 10.8998 131.911 10.5656C130.941 10.3931 129.884 10.3069 128.784 10.3069C122.66 10.3069 114.952 13.1962 109.906 22.5328C108.299 11.0939 100.612 5.81109 94.5528 4.37719C94.3803 4.33406 94.2078 4.3125 94.0461 4.3125C92.3211 4.3125 91.2106 6.42563 92.4181 7.84875C95.7927 11.8055 104.321 15.9131 105.658 25.7887C104.44 25.6486 103.275 25.5839 102.154 25.5839C90.8224 25.5839 84.5368 32.2575 82.2188 37.9392C81.6042 39.4378 82.8333 40.8933 84.2349 40.8933Z" fill="#98E07E"/>
<path d="M32.117 54.2937C32.71 56.3852 33.3785 58.5954 34.1224 60.9026L38.5859 60.1695C37.8204 57.8623 37.1412 55.6521 36.5374 53.5605L32.117 54.2937Z" fill="#D68751"/>
<path d="M29.4323 43.4157C29.8528 45.421 30.3703 47.6635 30.9957 50.1109L35.3945 49.3777C34.7476 46.9304 34.2193 44.6879 33.7881 42.6934L29.4323 43.4157Z" fill="#D68751"/>
<path d="M6.50929 40.8933C6.87587 40.8933 7.25322 40.7962 7.609 40.5698C11.4472 38.2195 15.9863 32.1066 23.598 30.608H23.6088C23.8676 30.5541 24.1156 30.5002 24.3743 30.457C24.6978 30.7913 27.7813 31.7508 27.7813 31.7508C27.6735 32.0527 27.6196 32.3653 27.6519 32.6995C27.695 33.1092 27.9322 35.4164 28.6115 39.1791L32.9349 38.4675C32.2125 34.6294 31.9645 32.3869 31.9645 32.2898C31.9322 32.0311 31.8567 31.7939 31.7597 31.5675C31.7597 31.5675 35.8782 30.4786 35.8998 30.457C43.9859 31.6753 48.6867 38.1333 52.6651 40.5698C53.0209 40.7855 53.3982 40.8933 53.7648 40.8933C55.1664 40.8933 56.3955 39.4378 55.7809 37.9392C53.4629 32.2575 47.1773 25.5839 35.8459 25.5839C34.7246 25.5839 33.5602 25.6486 32.3419 25.7887C33.6788 15.9131 42.207 11.8055 45.5816 7.84875C46.7891 6.42563 45.6786 4.3125 43.9536 4.3125C43.7919 4.3125 43.6194 4.33406 43.4469 4.37719C37.3876 5.81109 29.7004 11.0939 28.0939 22.5328C23.0482 13.1962 15.3394 10.3069 9.21546 10.3069C8.11574 10.3069 7.05915 10.3931 6.08881 10.5656C4.07266 10.8998 3.66296 13.6814 5.49583 14.5978C10.1103 16.8834 19.3825 17.3363 24.5468 25.5839H24.4282C13.0968 25.5839 6.81117 32.2575 4.48236 37.9392C3.86781 39.4378 5.09691 40.8933 6.50929 40.8933Z" fill="#98E07E"/>
<path d="M47.2021 95.8303C47.0824 95.8303 46.9638 95.819 46.8447 95.8088C45.6652 95.6039 44.8647 94.4935 45.0701 93.3189C45.2652 92.1442 46.3903 91.3572 47.5584 91.5507C48.7379 91.7556 49.5385 92.866 49.3331 94.0407C49.16 95.0864 48.2409 95.8303 47.2021 95.8303Z" fill="#2D4356"/>
<path d="M76.458 93.0804C77.6482 93.0265 78.6655 93.9321 78.7194 95.1288C78.7846 96.3142 77.8644 97.3277 76.6741 97.3918C76.631 97.3918 76.5987 97.3918 76.5658 97.3918C75.4186 97.3918 74.4564 96.4975 74.4019 95.3439C74.3372 94.1585 75.2569 93.1451 76.458 93.0804Z" fill="#2D4356"/>
<path d="M90.8379 91.5507C92.0174 91.3572 93.1317 92.1437 93.3376 93.3189C93.5327 94.4935 92.7425 95.6045 91.5635 95.8088V95.7975C91.4438 95.819 91.3139 95.8304 91.1953 95.8304C90.1678 95.8304 89.2482 95.0865 89.0643 94.0407C88.8686 92.8666 89.6584 91.7556 90.8379 91.5507Z" fill="#2D4356"/>
<path d="M83.6754 92.5209C84.8652 92.4017 85.9368 93.2535 86.0554 94.4394C86.1854 95.6253 85.3201 96.6819 84.1299 96.8113C84.0539 96.8221 83.9784 96.8221 83.9029 96.8221C82.8097 96.8221 81.8684 96.0032 81.7493 94.8922C81.6302 93.7063 82.4846 92.6497 83.6754 92.5209Z" fill="#2D4356"/>
<path d="M71.3613 95.4213C71.3613 96.6067 70.3985 97.577 69.1975 97.577C68.0077 97.577 67.0336 96.6062 67.0336 95.4213C67.0336 94.2354 68.0077 93.2656 69.1975 93.2656C70.3991 93.2656 71.3613 94.2354 71.3613 95.4213Z" fill="#2D4356"/>
<path d="M61.8417 97.3938C61.8094 97.3938 61.7662 97.3938 61.7333 97.3938C60.5431 97.3296 59.6239 96.3157 59.6778 95.1308C59.7425 93.9341 60.7598 93.0285 61.9501 93.0824C63.1403 93.1471 64.0595 94.1605 64.0056 95.3464C63.9403 96.4995 62.9883 97.3938 61.8417 97.3938Z" fill="#2D4356"/>
<path d="M54.5051 96.8221C54.429 96.8221 54.3536 96.8221 54.2668 96.8113C53.0765 96.6819 52.2215 95.6253 52.3412 94.4394C52.4706 93.2535 53.5423 92.4017 54.7325 92.5209C54.7212 92.5209 54.7212 92.5209 54.7212 92.5209C55.9115 92.6497 56.7767 93.7063 56.6473 94.8922C56.5282 96.0032 55.5978 96.8221 54.5051 96.8221Z" fill="#2D4356"/>
<path d="M51.2976 66.8555C51.4593 66.7261 51.6318 66.5967 51.8043 66.4673C51.9337 66.3703 52.0631 66.2841 52.1817 66.187C52.214 66.1547 52.2572 66.1223 52.3003 66.09C52.3434 66.0577 52.3758 66.0253 52.4189 65.993C54.1224 64.6884 54.2086 64.2895 54.2086 64.2248C54.2086 63.9014 54.1871 63.7397 54.1763 63.5133C54.1439 63.082 54.1116 62.5106 54.0792 61.163C52.8394 60.3112 51.8906 59.0606 51.8906 57.1523C51.8906 56.8828 51.9122 56.6133 51.9445 56.3653C52.2464 53.5406 54.1008 51.1364 56.7315 50.123C57.745 47.5139 60.1385 45.6487 62.9525 45.3469C64.3433 43.3092 66.6721 42.0586 69.195 42.0586C71.7286 42.0586 74.0574 43.3092 75.4483 45.3469C78.2622 45.6487 80.6558 47.5139 81.6692 50.123C84.2999 51.1364 86.1543 53.5406 86.4454 56.3653C86.4886 56.6133 86.5101 56.8828 86.5101 57.1523C86.5101 59.0714 85.5506 60.3328 84.2999 61.1738C84.2784 61.8098 84.2568 62.3166 84.2352 62.7586C84.2137 63.3192 84.1921 63.7612 84.1921 64.2248C84.1921 64.268 84.246 64.6884 85.9603 65.993C85.9926 66.0145 86.025 66.0361 86.0465 66.0577C86.0789 66.0792 86.122 66.1116 86.1543 66.1439C86.2837 66.2517 86.4239 66.3487 86.564 66.4458C86.7473 66.5859 86.9198 66.7153 87.0923 66.8555C96.4831 73.8309 101.658 82.8333 101.658 92.213C101.658 95.3072 101.162 98.3583 100.192 101.269C98.9197 105.097 96.8712 108.6 94.1111 111.705C87.9656 118.616 78.9199 122.692 69.2812 122.907H69.1195C67.5346 122.886 65.9928 122.745 64.5481 122.508C56.6021 121.312 49.4108 117.473 44.2896 111.716C41.5295 108.611 39.4918 105.107 38.2304 101.28C37.2385 98.3798 36.7425 95.3287 36.7425 92.213C36.7425 82.8333 41.9069 73.8309 51.2976 66.8555ZM79.5237 53.9827C78.6504 53.8209 77.9496 53.1309 77.7879 52.2577C77.5075 50.7267 76.1706 49.6163 74.6504 49.6163H74.6397C74.5426 49.627 74.4456 49.6378 74.3485 49.6486C73.4321 49.7241 72.548 49.1958 72.1815 48.3441C71.6747 47.1473 70.4995 46.3711 69.195 46.3711C67.9012 46.3711 66.726 47.1473 66.2085 48.3441C65.8527 49.1958 64.9686 49.7241 64.0522 49.6486C63.9551 49.6378 63.8581 49.627 63.7934 49.6055C62.2301 49.6055 60.8932 50.7159 60.6021 52.2577C60.4404 53.1309 59.7503 53.8209 58.8662 53.9827C57.3353 54.263 56.214 55.5998 56.214 57.1523C56.214 58.3491 62.0252 59.3086 69.195 59.3086C76.3755 59.3086 82.1867 58.3491 82.1867 57.1523C82.1867 55.5998 81.0655 54.263 79.5237 53.9827ZM84.4509 70.2731C84.1274 70.0144 83.7716 69.7664 83.4374 69.4969C83.3943 69.4753 83.3727 69.4538 83.3404 69.4214C81.5614 68.0738 79.8687 66.5105 79.8687 64.2248C79.8687 63.7612 79.8795 63.3192 79.901 62.7909C79.5992 62.8448 79.3188 62.888 79.0924 62.9311C78.0682 63.1036 76.9253 63.2437 75.6962 63.3516V67.9336C75.6962 69.1195 74.7259 70.0898 73.5292 70.0898C72.3324 70.0898 71.3621 69.1195 71.3621 67.9336V63.5887C70.6505 63.6103 69.9281 63.6211 69.195 63.6211C68.4726 63.6211 67.7502 63.6103 67.0387 63.5887V67.9336C67.0387 69.1195 66.0683 70.0898 64.8716 70.0898C63.6748 70.0898 62.7045 69.1195 62.7045 67.9336V63.3516C61.4754 63.2437 60.3325 63.1036 59.3083 62.9311C59.0711 62.888 58.78 62.8448 58.4673 62.7802C58.4997 63.3839 58.532 63.578 58.532 64.2248C58.532 66.5105 56.8393 68.0414 55.0604 69.4106C55.028 69.443 54.9957 69.4645 54.9525 69.4969C54.6291 69.7664 54.2625 70.0144 53.9283 70.2731C49.7019 73.4105 46.0901 77.227 43.7829 81.6042C51.524 83.9437 60.2463 85.1836 69.1842 85.1836C78.1329 85.1836 86.8659 83.9437 94.6071 81.6042C92.2993 77.227 88.688 73.4105 84.4509 70.2731ZM47.5241 108.848C51.8798 113.743 58.1223 117.182 65.2274 118.25C66.5319 118.465 67.8473 118.573 69.1842 118.595C77.9388 118.401 85.7231 114.638 90.8767 108.848C92.5909 106.919 94.0249 104.741 95.103 102.401C87.0923 104.536 78.2299 105.657 69.1842 105.657C60.1493 105.657 51.2976 104.536 43.3085 102.401C44.3753 104.741 45.799 106.919 47.5241 108.848ZM41.6589 97.4419C49.9715 99.997 59.4592 101.355 69.1842 101.355C78.9199 101.355 88.4185 99.9862 96.7526 97.4311C97.0006 96.3098 97.1731 95.167 97.2593 94.0027C97.13 93.9164 97.0006 93.8194 96.8928 93.7116C96.4723 93.3127 96.2459 92.7628 96.2459 92.1914C96.2459 92.0512 96.2566 91.9111 96.289 91.7709C96.3213 91.6308 96.3537 91.5014 96.4076 91.3612C96.4615 91.2319 96.537 91.1133 96.6124 90.9947C96.6879 90.8761 96.7742 90.7683 96.8928 90.6712C97.0006 90.5527 97.1192 90.4664 97.2485 90.3801C97.1084 88.7306 96.7849 87.135 96.2998 85.5933C88.0303 88.1377 78.7151 89.4961 69.1842 89.4961C59.6641 89.4961 50.3488 88.1377 42.1009 85.6041C41.6158 87.1458 41.2923 88.7414 41.1522 90.3801C41.2815 90.4664 41.4001 90.5527 41.508 90.6712C41.6158 90.7683 41.702 90.8761 41.7775 90.9947C41.8638 91.1133 41.9392 91.2319 41.9931 91.372C42.047 91.5014 42.0902 91.6308 42.1117 91.7709C42.1441 91.9111 42.1549 92.0512 42.1549 92.1914C42.1549 92.7628 41.9284 93.3127 41.508 93.7116C41.4001 93.8194 41.2708 93.9164 41.1414 94.0027C41.2276 95.1778 41.4109 96.3206 41.6589 97.4419Z" fill="#2D4356"/>
<path d="M56.2128 57.1523C56.2128 58.3491 62.0241 59.3086 69.1938 59.3086C76.3743 59.3086 82.1855 58.3491 82.1855 57.1523C82.1855 55.5998 81.0643 54.263 79.5225 53.9827C78.6492 53.8209 77.9484 53.1309 77.7867 52.2577C77.5064 50.7267 76.1694 49.6163 74.6492 49.6163H74.6385C74.5414 49.627 74.4444 49.6378 74.3474 49.6486C73.4309 49.7241 72.5468 49.1958 72.1803 48.3441C71.6735 47.1473 70.4984 46.3711 69.1938 46.3711C67.9 46.3711 66.7248 47.1473 66.2073 48.3441C65.8515 49.1958 64.9674 49.7241 64.051 49.6486C63.954 49.6378 63.8569 49.627 63.7922 49.6055C62.2289 49.6055 60.892 50.7159 60.6009 52.2577C60.4392 53.1309 59.7492 53.8209 58.8651 53.9827C57.3341 54.263 56.2128 55.5998 56.2128 57.1523Z" fill="#E1EBF4"/>
<path d="M43.307 102.4C44.3744 104.74 45.7976 106.918 47.5226 108.848C51.8783 113.742 58.1209 117.181 65.2259 118.249C66.5305 118.464 67.8458 118.572 69.1827 118.594C77.9373 118.4 85.7216 114.637 90.8752 108.848C92.5895 106.918 94.0234 104.74 95.1016 102.4C87.0909 104.535 78.2284 105.656 69.1827 105.656C60.1478 105.656 51.2961 104.535 43.307 102.4Z" fill="#FFDB80"/>
<path d="M43.7813 81.6034C51.5224 83.9429 60.2447 85.1827 69.1826 85.1827C78.1313 85.1827 86.8643 83.9429 94.6055 81.6034C92.2982 77.2262 88.6864 73.4096 84.4493 70.2723C84.1258 70.0135 83.77 69.7655 83.4358 69.496C83.3927 69.4745 83.3711 69.4529 83.3388 69.4206C81.5598 68.0729 79.8671 66.5096 79.8671 64.224C79.8671 63.7604 79.8779 63.3184 79.8994 62.7901C79.5976 62.844 79.3172 62.8871 79.0908 62.9302C78.0666 63.1027 76.9237 63.2429 75.6946 63.3507V67.9327C75.6946 69.1187 74.7243 70.089 73.5276 70.089C72.3308 70.089 71.3605 69.1187 71.3605 67.9327V63.5879C70.6489 63.6095 69.9265 63.6202 69.1934 63.6202C68.471 63.6202 67.7486 63.6095 67.0371 63.5879V67.9327C67.0371 69.1187 66.0667 70.089 64.87 70.089C63.6732 70.089 62.7029 69.1187 62.7029 67.9327V63.3507C61.4738 63.2429 60.3309 63.1027 59.3067 62.9302C59.0695 62.8871 58.7784 62.844 58.4657 62.7793C58.4981 63.383 58.5304 63.5771 58.5304 64.224C58.5304 66.5096 56.8377 68.0405 55.0588 69.4098C55.0264 69.4421 54.9941 69.4637 54.9509 69.496C54.6275 69.7655 54.2609 70.0135 53.9267 70.2723C49.7003 73.4096 46.0885 77.2262 43.7813 81.6034Z" fill="#FFDB80"/>
<path d="M38.8447 73.2521L37.6431 73.9809L33.6 64.6875L41.14 61.9922L43.1309 68.2221C41.5303 69.8323 40.0991 71.512 38.8447 73.2521Z" fill="#D68751"/>
<path d="M94.6757 67.6558L96.8961 62.5762L103.725 63.7891L99.6589 73.4162C98.2293 71.4125 96.5624 69.4875 94.6757 67.6558Z" fill="#D68751"/>
<path d="M78.2075 36.3112C80.9891 29.5191 88.0403 22.2848 99.6628 21.3684C98.0348 18.5438 95.5442 16.4414 93.1076 14.3822C91.6305 13.1316 90.2397 11.9456 89.1184 10.6411C87.4796 8.71125 87.1131 6.08063 88.1912 3.77344C89.2478 1.47703 91.5443 0 94.0456 0C94.5523 0 95.0591 0.0646875 95.555 0.183281C101.377 1.56328 107.868 5.64938 111.544 13.1316C117.981 6.82453 125.355 5.99437 128.784 5.99437C130.088 5.99437 131.393 6.10219 132.633 6.30703C135.393 6.78141 137.517 8.95922 137.926 11.73C138.347 14.5008 136.935 17.2069 134.433 18.4467C132.892 19.2122 131.145 19.7513 129.29 20.3334C127.102 21.0019 124.892 21.6811 122.843 22.7377C130.487 25.3252 135.328 30.953 137.517 36.3112C138.325 38.295 138.099 40.5375 136.902 42.3056C135.684 44.1169 133.657 45.2058 131.49 45.2058C130.315 45.2058 129.14 44.8716 128.115 44.2463C126.66 43.3406 125.269 42.1439 123.803 40.8825C121.161 38.5969 118.196 36.0417 114.423 35.0283C113.679 40.5806 110.865 57.2808 102.24 77.5603C101.118 75.458 99.7814 73.4203 98.1965 71.4581L99.8461 71.7384C99.8892 71.7384 99.9215 71.76 99.9647 71.7708C100.881 69.4636 101.711 67.2211 102.477 65.0433L98.0024 64.2994C97.4418 65.8842 96.8272 67.5122 96.1803 69.1725C95.1345 68.0512 94.0133 66.9731 92.8165 65.9273C98.1318 51.8578 100.417 40.3434 101.28 35.0391C97.528 36.0525 94.5631 38.5969 91.9216 40.8825C90.4553 42.1439 89.0753 43.3406 87.609 44.2463C86.5848 44.8716 85.4204 45.2058 84.2344 45.2058C82.0673 45.2058 80.0404 44.1169 78.8221 42.3056C77.6253 40.5375 77.3989 38.295 78.2075 36.3112ZM108.568 43.4161L104.213 42.6938C103.781 44.6883 103.253 46.9308 102.606 49.3781L107.005 50.1112C107.63 47.6639 108.148 45.4214 108.568 43.4161ZM99.4256 60.1702L103.878 60.9033C104.622 58.5961 105.291 56.3859 105.884 54.2944L101.463 53.5612C100.86 55.6528 100.18 57.863 99.4256 60.1702ZM84.2344 40.8933C84.601 40.8933 84.9783 40.7855 85.3341 40.5698C89.3125 38.1333 94.0133 31.6753 102.099 30.457C102.121 30.4786 106.24 31.5675 106.24 31.5675C106.142 31.7939 106.067 32.0311 106.035 32.2898C106.024 32.3977 105.787 34.6294 105.064 38.4675L109.388 39.1791C109.819 36.7641 110.078 34.9313 110.218 33.8423C110.466 32.5594 110.757 31.1686 110.886 30.9206C111.318 30.953 114.401 30.608 114.401 30.608C118.207 31.3519 121.247 33.2602 123.813 35.2655C126.379 37.2816 128.471 39.3947 130.39 40.5698C130.746 40.7962 131.123 40.8933 131.49 40.8933C132.902 40.8933 134.131 39.4378 133.517 37.9392C131.188 32.2575 124.902 25.5839 113.571 25.5839H113.452C118.617 17.3363 127.889 16.8834 132.503 14.5978C134.336 13.6814 133.927 10.8998 131.91 10.5656C130.94 10.3931 129.883 10.3069 128.784 10.3069C122.66 10.3069 114.951 13.1962 109.905 22.5328C108.299 11.0939 100.612 5.81109 94.5523 4.37719C94.3798 4.33406 94.2073 4.3125 94.0456 4.3125C92.3206 4.3125 91.2101 6.42563 92.4176 7.84875C95.7922 11.8055 104.32 15.9131 105.657 25.7887C104.439 25.6486 103.275 25.5839 102.153 25.5839C90.8219 25.5839 84.5363 32.2575 82.2182 37.9392C81.6037 39.4378 82.8328 40.8933 84.2344 40.8933Z" fill="#2D4356"/>
<path d="M15.1562 22.7377C13.1077 21.6811 10.8975 21.0019 8.70884 20.3334C6.85441 19.7513 5.10781 19.2122 3.56605 18.4467C1.06473 17.2069 -0.347656 14.5008 0.0728226 11.73C0.482521 8.95922 2.60648 6.78141 5.36656 6.30703C6.60644 6.10219 7.90023 5.99437 9.21558 5.99437C12.6441 5.99437 20.0187 6.82453 26.4553 13.1316C30.1318 5.64938 36.6223 1.56328 42.4443 0.183281C42.9402 0.0646875 43.447 0 43.9537 0C46.455 0 48.7515 1.47703 49.8081 3.77344C50.8863 6.08063 50.5197 8.71125 48.8809 10.6411C47.7596 11.9456 46.3688 13.1316 44.8917 14.3822C42.4551 16.4414 39.9645 18.5438 38.3365 21.3684C49.959 22.2848 57.0102 29.5083 59.7918 36.3112C60.6004 38.295 60.374 40.5375 59.1773 42.3056C57.9589 44.1169 55.932 45.2058 53.7649 45.2058C52.5789 45.2058 51.4145 44.8716 50.3903 44.2463C48.924 43.3406 47.544 42.1439 46.0777 40.8825C43.4362 38.5969 40.4713 36.0525 36.7193 35.0391C37.5818 40.3866 39.8999 51.9872 45.2798 66.1753C44.0831 67.2319 42.9618 68.3208 41.9268 69.4528C41.2475 67.6955 40.5899 65.9705 39.9969 64.2994L35.5226 65.0433C36.288 67.2211 37.1182 69.4636 38.0346 71.7708C38.0778 71.76 38.1101 71.7384 38.1532 71.7384L40.2449 71.3827C38.5306 73.4958 37.0967 75.6952 35.9322 77.97C27.1669 57.4964 24.3205 40.613 23.5766 35.0283C19.8031 36.0417 16.8381 38.5969 14.1966 40.8825C12.7304 42.1439 11.3395 43.3406 9.88403 44.2463C8.85978 44.8716 7.6846 45.2058 6.50941 45.2058C4.34232 45.2058 2.31538 44.1169 1.09707 42.3056C-0.0996819 40.5375 -0.326088 38.295 0.482529 36.3112C2.67118 30.953 7.51209 25.3252 15.1562 22.7377ZM34.1209 60.9033L38.5845 60.1702C37.819 57.863 37.1398 55.6528 36.536 53.5612L32.1156 54.2944C32.7086 56.3859 33.377 58.5961 34.1209 60.9033ZM30.9943 50.1112L35.3932 49.3781C34.7463 46.9308 34.218 44.6883 33.7867 42.6938L29.431 43.4161C29.8515 45.4214 30.369 47.6639 30.9943 50.1112ZM6.50941 40.8933C6.87598 40.8933 7.25333 40.7962 7.60913 40.5698C11.4474 38.2195 15.9864 32.1066 23.5982 30.608H23.6089C23.8677 30.5541 24.1157 30.5002 24.3744 30.457C24.6979 30.7913 27.7814 31.7508 27.7814 31.7508C27.6736 32.0527 27.6197 32.3653 27.652 32.6995C27.6951 33.1092 27.9323 35.4164 28.6116 39.1791L32.935 38.4675C32.2126 34.6294 31.9646 32.3869 31.9646 32.2898C31.9323 32.0311 31.8568 31.7939 31.7598 31.5675C31.7598 31.5675 35.8783 30.4786 35.8999 30.457C43.9861 31.6753 48.6868 38.1333 52.6652 40.5698C53.021 40.7855 53.3983 40.8933 53.7649 40.8933C55.1665 40.8933 56.3956 39.4378 55.7811 37.9392C53.463 32.2575 47.1774 25.5839 35.846 25.5839C34.7247 25.5839 33.5603 25.6486 32.342 25.7887C33.6789 15.9131 42.2071 11.8055 45.5817 7.84875C46.7893 6.42563 45.6788 4.3125 43.9537 4.3125C43.792 4.3125 43.6195 4.33406 43.447 4.37719C37.3878 5.81109 29.7005 11.0939 28.0941 22.5328C23.0483 13.1962 15.3395 10.3069 9.21558 10.3069C8.11586 10.3069 7.05927 10.3931 6.08893 10.5656C4.07278 10.8998 3.66308 13.6814 5.49594 14.5978C10.1104 16.8834 19.3826 17.3363 24.5469 25.5839H24.4283C13.0969 25.5839 6.81129 32.2575 4.48248 37.9392C3.86793 39.4378 5.09703 40.8933 6.50941 40.8933Z" fill="#2D4356"/>
<path d="M56.257 57.3329C56.2575 57.3346 56.2586 57.3356 56.2592 57.3372C56.2586 57.3362 56.2581 57.3346 56.257 57.3329ZM82.185 57.1734C82.1834 57.2036 82.178 57.2332 82.1688 57.2629C82.1775 57.2332 82.1829 57.2036 82.185 57.1734ZM82.1855 57.1599C82.1855 57.1642 82.1855 57.1685 82.185 57.1734C82.185 57.1691 82.185 57.1642 82.1855 57.1599ZM56.2128 57.1599C56.2139 57.2181 56.229 57.2758 56.257 57.3324C56.229 57.2763 56.2139 57.2186 56.2128 57.1599Z" fill="#96A1AB"/>
<path d="M69.1938 46.3711C70.4984 46.3711 71.6735 47.1473 72.1803 48.3441C72.5237 49.1419 73.321 49.6556 74.1732 49.6556C74.2309 49.6556 74.2891 49.6534 74.3474 49.6486C74.4444 49.6378 74.5414 49.627 74.6385 49.6163H74.6492C76.1694 49.6163 77.5064 50.7267 77.7867 52.2577C77.9484 53.1309 78.6492 53.8209 79.5225 53.9827C81.0643 54.263 82.1855 55.5998 82.1855 57.1523C82.1855 57.1545 82.1855 57.1567 82.1855 57.1588C82.1855 57.1593 82.1855 57.1593 82.1855 57.1599C82.1855 57.1642 82.1855 57.1691 82.185 57.1734C82.1834 57.2036 82.178 57.2332 82.1688 57.2629C82.1688 57.2634 82.1683 57.2639 82.1683 57.2645C82.1678 57.2655 82.1678 57.2666 82.1672 57.2677C82.1192 57.4197 81.9764 57.5642 81.743 57.7022C81.2901 56.9044 80.4815 56.3114 79.522 56.1389C78.6487 55.9772 77.9479 55.2872 77.7861 54.4139C77.5058 52.883 76.1689 51.7725 74.6487 51.7725H74.6379C74.5409 51.7833 74.4439 51.7941 74.3468 51.8048C74.2886 51.8097 74.2304 51.8119 74.1727 51.8119C73.3199 51.8119 72.5226 51.2981 72.1797 50.5003C71.673 49.3036 70.4978 48.5273 69.1932 48.5273C67.8995 48.5273 66.7243 49.3036 66.2068 50.5003C65.8736 51.2981 65.0768 51.8119 64.2246 51.8119C64.1669 51.8119 64.1087 51.8097 64.0504 51.8048C63.9534 51.7941 63.8564 51.7833 63.7917 51.7617C62.2284 51.7617 60.8915 52.8722 60.6004 54.4139C60.4386 55.2872 59.7486 55.9772 58.8645 56.1389C57.905 56.3114 57.1071 56.9044 56.6435 57.7022C56.4538 57.5852 56.3233 57.4639 56.2592 57.3372C56.2586 57.3356 56.2575 57.3345 56.257 57.3329C56.257 57.3329 56.257 57.3329 56.257 57.3324C56.229 57.2753 56.2139 57.2176 56.2128 57.1599C56.2128 57.1593 56.2128 57.1593 56.2128 57.1588C56.2128 57.1567 56.2128 57.1545 56.2128 57.1523C56.2128 55.5998 57.3341 54.263 58.8651 53.9827C59.7492 53.8209 60.4392 53.1309 60.6009 52.2577C60.892 50.7159 62.2289 49.6055 63.7922 49.6055C63.8569 49.627 63.954 49.6378 64.051 49.6486C64.1092 49.6534 64.1669 49.6556 64.2251 49.6556C65.0779 49.6556 65.8741 49.1413 66.2073 48.3441C66.7248 47.1473 67.9 46.3711 69.1938 46.3711Z" fill="#F0F5FA"/>
<path d="M67.0379 63.5879C67.7495 63.6095 68.4719 63.6202 69.1942 63.6202C69.9274 63.6202 70.6497 63.6095 71.3613 63.5879V65.7441C70.6497 65.7657 69.9274 65.7765 69.1942 65.7765C68.4719 65.7765 67.7495 65.7657 67.0379 65.7441V63.5879Z" fill="#FCE4A9"/>
<path d="M79.9411 65.0332C79.9417 65.0366 79.9428 65.0405 79.9434 65.0438C79.9422 65.0405 79.9417 65.0371 79.9411 65.0332Z" fill="#939894"/>
<path d="M79.9002 62.7891C79.8787 63.3173 79.8679 63.7594 79.8679 64.223C79.8679 64.5103 79.8889 64.7766 79.9412 65.0321C79.9417 65.0353 79.9423 65.0386 79.9434 65.0423C79.911 65.0316 79.9002 64.9884 79.9002 64.9453C79.5983 64.9992 79.318 65.0423 79.0916 65.0855C78.0674 65.258 76.9245 65.3981 75.6954 65.5059V63.3497C75.724 63.347 75.7531 63.3448 75.7817 63.3421C76.9779 63.2354 78.0911 63.0979 79.0916 62.9292C79.3148 62.8866 79.5897 62.844 79.8862 62.7918C79.8911 62.7907 79.8959 62.7901 79.9002 62.7891Z" fill="#FCE4A9"/>
<path d="M58.5312 64.2246C58.5312 64.471 58.5118 64.7081 58.4741 64.9378C58.4714 64.9372 58.4687 64.9367 58.466 64.9362C58.5097 64.7098 58.5312 64.4726 58.5312 64.2246Z" fill="#939894"/>
<path d="M58.466 62.7793C58.4708 62.7804 58.4757 62.7815 58.4805 62.7825C58.7878 62.8456 59.0735 62.8882 59.3069 62.9308C60.3069 63.0995 61.4207 63.237 62.6169 63.3437C62.6454 63.3464 62.6746 63.3485 62.7031 63.3512V65.5075C61.474 65.3997 60.3312 65.2595 59.3069 65.087C59.0719 65.0444 58.7835 65.0013 58.4735 64.9377C58.5107 64.7081 58.5307 64.4709 58.5307 64.2245C58.5307 63.5771 58.4983 63.383 58.466 62.7793Z" fill="#FCE4A9"/>
<path d="M96.2993 85.5918C96.3446 85.7363 96.3888 85.8813 96.4313 86.0268C96.8432 87.4332 97.1208 88.8838 97.248 90.3787C97.241 90.3835 97.2335 90.3884 97.2265 90.3932C97.1656 90.4337 97.1095 90.4709 97.0578 90.5161C97.034 90.535 97.0109 90.5544 96.9882 90.5754C96.8265 89.6186 96.5898 88.6731 96.2998 87.7486C88.0304 90.293 78.7151 91.6514 69.1842 91.6514C59.6641 91.6514 50.3489 90.293 42.101 87.7594C41.8099 88.6866 41.5835 89.6245 41.4217 90.5835C41.3376 90.5064 41.2482 90.4428 41.1522 90.3787C41.2692 89.0089 41.5145 87.6693 41.8757 86.3659C41.9463 86.1098 42.0217 85.8559 42.1015 85.6026C50.3494 88.1362 59.6647 89.4946 69.1848 89.4946C78.7146 89.4946 88.0298 88.1362 96.2993 85.5918Z" fill="#F0F5FA"/>
<path d="M97.0572 90.5156C97.0335 90.5361 97.0109 90.5582 96.9893 90.5835C96.9888 90.5808 96.9882 90.5776 96.9877 90.5749C97.0103 90.5544 97.0335 90.5345 97.0572 90.5156ZM41.1517 90.3787C41.2476 90.4428 41.3376 90.5064 41.4212 90.5835C41.335 90.508 41.2487 90.4434 41.1517 90.3787ZM97.248 90.3787C97.241 90.3835 97.2335 90.3884 97.2265 90.3932C97.2335 90.3884 97.2405 90.3835 97.248 90.3787ZM69.1837 89.4946C59.6636 89.4946 50.3483 88.1362 42.1004 85.6026C42.0207 85.8554 41.9457 86.1098 41.8746 86.3659C41.9452 86.1098 42.0207 85.8559 42.1004 85.6026C50.3483 88.1362 59.6636 89.4946 69.1837 89.4946Z" fill="#96A1AB"/>
<path d="M41.3771 93.8301C41.4525 94.326 41.5496 94.8004 41.6574 95.2855C49.97 97.8407 59.4577 99.1991 69.1827 99.1991C78.9184 99.1991 88.4169 97.8299 96.7511 95.2748C96.8589 94.8004 96.9451 94.3152 97.0206 93.8301C97.0627 93.8657 97.1074 93.8985 97.1522 93.9293C97.1872 93.9546 97.2222 93.9789 97.2578 94.0026C97.1716 95.167 96.9991 96.3098 96.7511 97.431C88.4169 99.9862 78.9184 101.355 69.1827 101.355C59.4577 101.355 49.97 99.997 41.6574 97.4418C41.4094 96.3205 41.2261 95.1777 41.1399 94.0026C41.2261 93.9487 41.3016 93.8948 41.3771 93.8301Z" fill="#C0C8CF"/>
<path d="M97.1522 93.9297C97.1883 93.9545 97.2239 93.9787 97.2578 94.003C97.2222 93.9787 97.1872 93.9545 97.1522 93.9297Z" fill="#667480"/>
<path d="M43.8344 102.54C44.0954 102.606 44.359 102.671 44.622 102.735C44.6237 102.738 44.6247 102.74 44.6264 102.743C44.3611 102.676 44.0975 102.609 43.8344 102.54ZM94.9492 102.441C94.6252 102.527 94.2986 102.611 93.9719 102.694C94.2975 102.609 94.6231 102.527 94.9492 102.441Z" fill="#676757"/>
<path d="M43.307 102.401C43.4817 102.449 43.6574 102.495 43.8348 102.54C44.0978 102.608 44.362 102.676 44.6267 102.742C45.4558 104.141 46.4245 105.465 47.5226 106.691C51.8783 111.586 58.1209 115.025 65.2259 116.093C66.5305 116.308 67.8458 116.416 69.1827 116.438C77.9373 116.244 85.7216 112.481 90.8752 106.691C91.9641 105.473 92.9345 104.147 93.7754 102.745C93.8412 102.728 93.9064 102.71 93.9722 102.693C94.2989 102.611 94.6256 102.527 94.9495 102.441C95.0002 102.427 95.0509 102.414 95.1016 102.4C94.0234 104.74 92.5895 106.918 90.8752 108.848C85.7216 114.637 77.9373 118.4 69.1827 118.594C67.8458 118.572 66.5305 118.464 65.2259 118.249C58.1209 117.181 51.8783 113.742 47.5226 108.848C45.7976 106.918 44.3739 104.74 43.307 102.401Z" fill="#DABB6E"/>
<path d="M111.609 121.828C113.625 122.152 114.639 122.518 114.639 122.906C114.639 123.78 109.658 124.534 99.7709 124.922C97.992 124.297 95.771 123.629 93.1834 122.949C102.089 122.777 108.245 122.367 111.609 121.828Z" fill="#83C46B"/>
<path d="M59.2649 126.064C60.4832 129.213 64.4724 131.531 69.1947 131.531C73.9278 131.531 77.917 129.213 79.1353 126.064C87.6635 127.649 95.7389 128.62 100.472 128.62C101.536 128.62 102.429 128.566 103.129 128.459C104.653 129.241 105.132 129.883 104.344 130.292C104.169 130.382 103.932 130.462 103.632 130.528C103.268 130.607 102.825 130.668 102.31 130.71C101.773 130.752 101.156 130.772 100.469 130.772C95.7346 130.772 87.6603 129.806 79.138 128.217C79.1375 128.218 79.1369 128.219 79.1364 128.221C79.1359 128.221 79.1359 128.221 79.1359 128.221C79.0119 128.54 78.8598 128.852 78.6809 129.153C78.5429 129.385 78.3892 129.611 78.2205 129.831C76.4572 132.128 73.0761 133.687 69.1953 133.687C64.473 133.687 60.4838 131.369 59.2655 128.221C59.2649 128.221 59.2639 128.221 59.2633 128.221C59.2628 128.22 59.2622 128.219 59.2617 128.217C50.74 129.806 42.6657 130.772 37.9309 130.772C37.228 130.772 36.5994 130.751 36.0533 130.707C35.5547 130.666 35.125 130.606 34.7698 130.528C34.2997 130.425 33.986 130.291 33.8205 130.13C33.8199 130.13 33.8194 130.129 33.8194 130.129C33.4032 129.721 33.9369 129.144 35.2711 128.46C35.9709 128.567 36.8641 128.621 37.9293 128.621C42.6613 128.62 50.7367 127.649 59.2649 126.064Z" fill="#83C46B"/>
<path d="M33.8176 130.13C33.8181 130.13 33.8187 130.131 33.8187 130.131C33.8187 130.13 33.8181 130.13 33.8176 130.13ZM78.6796 129.155C78.5416 129.387 78.388 129.613 78.2193 129.833C78.3874 129.613 78.5411 129.387 78.6796 129.155ZM103.134 128.459C104.662 129.245 105.133 129.886 104.343 130.294C105.131 129.884 104.652 129.242 103.128 128.46C103.13 128.46 103.132 128.46 103.134 128.459ZM35.2645 128.459C35.2661 128.459 35.2677 128.46 35.2693 128.46C33.9351 129.144 33.4014 129.721 33.8176 130.129C33.4004 129.723 33.9287 129.146 35.2645 128.459ZM79.1362 128.219C87.6585 129.807 95.7328 130.773 100.467 130.773C101.154 130.773 101.771 130.753 102.308 130.711C101.77 130.755 101.154 130.778 100.47 130.778C95.7371 130.778 87.6617 129.807 79.1335 128.223C79.1357 128.221 79.1362 128.22 79.1362 128.219ZM59.2604 128.219C59.261 128.22 59.2615 128.221 59.2621 128.223C50.7344 129.807 42.6606 130.777 37.9275 130.777C37.224 130.777 36.5971 130.753 36.0521 130.708C36.5982 130.752 37.2267 130.773 37.9297 130.773C42.6639 130.773 50.7387 129.807 59.2604 128.219Z" fill="#38574F"/>
<path d="M26.7911 121.828C30.155 122.367 36.3112 122.777 45.2168 122.949C42.6292 123.629 40.4082 124.297 38.6293 124.922C28.7426 124.534 23.7615 123.78 23.7615 122.906C23.7615 122.518 24.775 122.152 26.7911 121.828Z" fill="#83C46B"/>
<path d="M114.4 28.4512C118.206 29.1951 121.247 31.1034 123.813 33.1087C126.379 35.1248 128.47 37.2379 130.389 38.413C130.745 38.6395 131.123 38.7365 131.489 38.7365C132.275 38.7365 132.997 38.2847 133.385 37.6282C133.43 37.7317 133.473 37.8352 133.515 37.9387C133.627 38.2109 133.678 38.4815 133.678 38.7424C133.677 39.8755 132.717 40.8227 131.612 40.889C131.571 40.8917 131.53 40.8927 131.489 40.8927C131.122 40.8927 130.745 40.7957 130.389 40.5693C130.337 40.537 130.284 40.5041 130.231 40.4707C128.355 39.2782 126.307 37.2255 123.812 35.2649C121.637 33.5653 119.121 31.9351 116.087 31.0247C115.542 30.8613 114.98 30.7206 114.4 30.6074C114.4 30.6074 111.586 30.9222 110.959 30.9222C110.929 30.9222 110.904 30.9217 110.886 30.9201C110.756 31.168 110.465 32.5588 110.217 33.8418C110.077 34.9307 109.818 36.7635 109.387 39.1785L105.064 38.467C105.138 38.0702 105.207 37.6907 105.272 37.329C105.333 36.9969 105.389 36.68 105.441 36.3754L109.387 37.0223C109.818 34.6073 110.077 32.7745 110.217 31.6855C110.465 30.4026 110.756 29.0118 110.886 28.7638C110.905 28.7654 110.93 28.766 110.959 28.766C111.587 28.766 114.4 28.4512 114.4 28.4512Z" fill="#83C46B"/>
<path d="M133.388 37.6268C133.431 37.7346 133.474 37.8316 133.517 37.9394C133.475 37.8364 133.432 37.7329 133.387 37.6289C133.387 37.6284 133.388 37.6278 133.388 37.6268ZM105.274 37.3297C105.209 37.6914 105.139 38.0709 105.065 38.4677C105.138 38.0688 105.208 37.6909 105.274 37.3297ZM123.813 35.2657C126.309 37.2268 128.356 39.2795 130.232 40.4714C128.356 39.279 126.309 37.2268 123.813 35.2657Z" fill="#38574F"/>
<path d="M102.1 28.3008C102.122 28.3223 106.24 29.4112 106.24 29.4112C106.143 29.6377 106.068 29.8748 106.035 30.1336C106.025 30.1767 105.981 30.6403 105.874 31.4705C105.842 31.4624 105.809 31.4532 105.774 31.4441C105.523 31.3772 105.191 31.2893 104.829 31.1934C103.635 30.8759 102.113 30.47 102.1 30.457C94.014 31.6753 89.3132 38.1333 85.3348 40.5698C84.9903 40.7785 84.6254 40.8863 84.2696 40.8927C84.2583 40.8927 84.247 40.8933 84.2351 40.8933C84.1941 40.8933 84.1532 40.8922 84.1122 40.8895C83.0152 40.8232 82.0561 39.8766 82.0561 38.743C82.0561 38.4821 82.1068 38.2114 82.2184 37.9392C82.2405 37.8842 82.2632 37.8298 82.2863 37.7748C82.2874 37.7721 82.2885 37.7689 82.2901 37.7662C82.3095 37.7204 82.3289 37.674 82.3489 37.6282C82.7268 38.2848 83.4588 38.737 84.2346 38.737C84.6011 38.737 84.9785 38.6292 85.3343 38.4136C89.3132 35.977 94.014 29.5191 102.1 28.3008Z" fill="#83C46B"/>
<path d="M85.3342 40.5698C84.9897 40.779 84.6248 40.8863 84.269 40.8927C84.6242 40.8863 84.9892 40.7785 85.3342 40.5698ZM82.0555 38.743C82.0555 39.8761 83.0146 40.8232 84.1116 40.8895C83.0146 40.8232 82.0561 39.8766 82.0555 38.743ZM82.2863 37.7748C82.2631 37.8298 82.2404 37.8842 82.2183 37.9392C82.241 37.8826 82.2636 37.8287 82.2863 37.7748ZM82.3477 37.6266C82.3483 37.6271 82.3483 37.6276 82.3488 37.6282C82.3289 37.674 82.3094 37.7204 82.29 37.7662C82.3089 37.7209 82.3283 37.6745 82.3477 37.6266ZM105.774 31.4441C105.808 31.4532 105.842 31.4618 105.873 31.4705C105.841 31.4624 105.808 31.4532 105.774 31.4441ZM102.1 30.457C102.112 30.47 103.634 30.8764 104.829 31.1934C103.634 30.877 102.115 30.4732 102.1 30.457Z" fill="#38574F"/>
<path d="M94.0461 4.3125C94.051 4.3125 94.0564 4.3125 94.0612 4.3125C94.2186 4.31358 94.3857 4.33514 94.5529 4.37719C100.612 5.81109 108.299 11.0939 109.906 22.5328C114.952 13.1963 122.66 10.3069 128.784 10.3069C129.884 10.3069 130.941 10.3931 131.911 10.5656C131.916 10.5667 131.921 10.5672 131.927 10.5683C131.928 10.5689 131.93 10.5689 131.932 10.5694C131.936 10.5699 131.941 10.571 131.944 10.5716C131.947 10.5721 131.95 10.5726 131.953 10.5732C131.956 10.5737 131.958 10.5743 131.961 10.5748C131.964 10.5753 131.966 10.5759 131.969 10.5764C131.973 10.5769 131.977 10.578 131.98 10.5786C131.984 10.5791 131.986 10.5796 131.99 10.5802C131.992 10.5807 131.994 10.5813 131.997 10.5818C132 10.5823 132.002 10.5829 132.005 10.5834C132.009 10.5845 132.013 10.585 132.018 10.5861C132.02 10.5866 132.022 10.5872 132.024 10.5877C132.027 10.5883 132.031 10.5893 132.034 10.5899C132.036 10.5904 132.038 10.5904 132.039 10.591C132.044 10.592 132.049 10.5931 132.054 10.5942C132.055 10.5942 132.056 10.5947 132.057 10.5947C133.512 10.9343 134.058 12.6087 133.4 13.7574C133.109 13.2399 132.602 12.8302 131.912 12.7224C130.942 12.5499 129.885 12.4637 128.785 12.4637C122.661 12.4637 114.953 15.353 109.907 24.6896C108.3 13.2507 100.613 7.96788 94.5539 6.53398C94.3814 6.49085 94.2089 6.46929 94.0472 6.46929C93.2494 6.46929 92.5809 6.9221 92.2143 7.5582C91.3745 6.17604 92.4117 4.36371 93.9814 4.31412H93.982C93.9847 4.31412 93.9874 4.31412 93.9906 4.31412C93.9911 4.31412 93.9917 4.31412 93.9922 4.31412C93.9944 4.31412 93.9971 4.31412 93.9992 4.31412C94.0003 4.31412 94.0014 4.31412 94.0025 4.31412C94.0046 4.31412 94.0062 4.31412 94.0084 4.31412C94.0095 4.31412 94.0111 4.31412 94.0122 4.31412C94.0138 4.31412 94.0159 4.31412 94.0176 4.31412C94.0192 4.31412 94.0208 4.31412 94.0224 4.31412C94.024 4.31412 94.0257 4.31412 94.0267 4.31412C94.0289 4.31412 94.031 4.31412 94.0337 4.31412C94.0348 4.31412 94.0359 4.31412 94.0364 4.31412C94.0391 4.3125 94.0429 4.3125 94.0461 4.3125Z" fill="#B7E0A7"/>
<path d="M132.052 10.5937C132.053 10.5937 132.054 10.5942 132.055 10.5942C132.054 10.5942 132.053 10.5942 132.052 10.5937ZM131.995 10.5813C131.998 10.5818 132 10.5823 132.002 10.5829C132 10.5823 131.998 10.5818 131.995 10.5813ZM131.925 10.5683C131.927 10.5689 131.929 10.5689 131.931 10.5694C131.929 10.5689 131.927 10.5683 131.925 10.5683ZM94.0099 4.31304C94.0088 4.31304 94.0072 4.31304 94.0061 4.31304C94.0077 4.31304 94.0088 4.31304 94.0099 4.31304ZM94.0206 4.3125C94.019 4.3125 94.0174 4.3125 94.0158 4.3125C94.0174 4.31304 94.019 4.31304 94.0206 4.3125ZM94.0449 4.3125C94.0497 4.3125 94.0551 4.3125 94.06 4.3125C94.0546 4.3125 94.0497 4.3125 94.0449 4.3125C94.0417 4.3125 94.0384 4.3125 94.0352 4.3125C94.0384 4.3125 94.0411 4.3125 94.0449 4.3125Z" fill="#8CA197"/>
<path d="M35.8999 28.3008C43.9861 29.5191 48.6868 35.977 52.6652 38.4136C53.021 38.6292 53.3984 38.737 53.7649 38.737C54.5407 38.737 55.2733 38.2848 55.6506 37.6282C55.6701 37.6729 55.6895 37.7182 55.7083 37.7635C55.7099 37.7678 55.7121 37.7721 55.7137 37.7764C55.7364 37.8309 55.759 37.8853 55.7811 37.9392C55.8927 38.2114 55.9434 38.4821 55.9434 38.743C55.9434 39.8761 54.9843 40.8232 53.8873 40.8895C53.8469 40.8922 53.8059 40.8933 53.7644 40.8933C53.7531 40.8933 53.7418 40.8933 53.7299 40.8927C53.3741 40.8863 53.0092 40.7785 52.6647 40.5698C48.6863 38.1333 43.9856 31.6753 35.8994 30.457C35.8865 30.47 34.3652 30.8759 33.1706 31.1934C32.8083 31.2893 32.4757 31.3778 32.224 31.4446C32.1895 31.4538 32.1566 31.4624 32.1253 31.4705C32.0175 30.6403 31.9636 30.1767 31.9636 30.1336C31.9312 29.8748 31.8558 29.6377 31.7587 29.4112C31.7598 29.4112 35.8784 28.3223 35.8999 28.3008Z" fill="#83C46B"/>
<path d="M52.6652 40.5698C53.0097 40.7785 53.3747 40.8863 53.7305 40.8927C53.3747 40.8863 53.0097 40.779 52.6652 40.5698ZM55.7132 37.7764C55.7358 37.8298 55.7579 37.8832 55.7806 37.9392C55.759 37.8853 55.7364 37.8303 55.7132 37.7764ZM55.6517 37.6266C55.6706 37.6735 55.6895 37.7187 55.7083 37.7635C55.6895 37.7187 55.6701 37.6735 55.6506 37.6282C55.6506 37.6276 55.6512 37.6271 55.6517 37.6266ZM32.2245 31.4446C32.19 31.4538 32.1571 31.4624 32.1259 31.471C32.1577 31.4624 32.1905 31.4532 32.2245 31.4446ZM35.8999 30.457C35.8838 30.4732 34.3657 30.8764 33.1711 31.1934C34.3657 30.8759 35.887 30.47 35.8999 30.457Z" fill="#38574F"/>
<path d="M43.9551 4.3127C43.9583 4.3127 43.9615 4.3127 43.9648 4.3127C43.9659 4.3127 43.9669 4.3127 43.9675 4.3127C43.9696 4.3127 43.9718 4.3127 43.9745 4.3127C43.9761 4.3127 43.9777 4.3127 43.9788 4.3127C43.9804 4.3127 43.982 4.3127 43.9836 4.3127C43.9858 4.3127 43.9874 4.3127 43.989 4.3127C43.9901 4.3127 43.9917 4.3127 43.9928 4.3127C43.995 4.3127 43.9966 4.3127 43.9987 4.3127C43.9998 4.3127 44.0009 4.3127 44.002 4.3127C44.0041 4.3127 44.0068 4.3127 44.009 4.3127C44.0095 4.3127 44.0101 4.3127 44.0106 4.3127C44.0133 4.3127 44.016 4.3127 44.0192 4.3127H44.0198C45.5896 4.3623 46.6267 6.17462 45.7869 7.55678C45.4203 6.92069 44.7518 6.46788 43.954 6.46788C43.7923 6.46788 43.6198 6.48944 43.4473 6.53256C37.388 7.96647 29.7008 13.2493 28.0943 24.6882C23.0486 15.3516 15.3398 12.4622 9.21586 12.4622C8.11615 12.4622 7.05956 12.5485 6.08921 12.721C5.3992 12.8288 4.89246 13.2385 4.60136 13.756C3.94368 12.6073 4.48923 10.9329 5.94421 10.5933C5.94529 10.5933 5.94581 10.5928 5.94689 10.5928C5.95174 10.5917 5.95713 10.5906 5.96199 10.5895C5.9636 10.589 5.96523 10.589 5.96684 10.5885C5.97008 10.5879 5.97385 10.5869 5.97708 10.5863C5.97924 10.5858 5.9814 10.5852 5.98356 10.5847C5.98787 10.5836 5.99218 10.5831 5.99649 10.582C5.99919 10.5815 6.00134 10.5809 6.00404 10.5804C6.00673 10.5798 6.0089 10.5793 6.01159 10.5788C6.01482 10.5782 6.01805 10.5777 6.02129 10.5766C6.02452 10.5761 6.0283 10.575 6.03207 10.5745C6.03476 10.5739 6.03747 10.5734 6.04016 10.5728C6.04286 10.5723 6.04555 10.5718 6.04824 10.5712C6.05094 10.5707 6.05417 10.5701 6.0574 10.5696C6.06118 10.5691 6.06549 10.568 6.06926 10.5674C6.07088 10.5669 6.07304 10.5669 6.0752 10.5664C6.08059 10.5653 6.08544 10.5648 6.09083 10.5637C7.06117 10.3912 8.11776 10.3049 9.21748 10.3049C15.3414 10.3049 23.0502 13.1943 28.096 22.5309C29.7024 11.092 37.3897 5.80914 43.4489 4.37523C43.616 4.33373 43.7831 4.31216 43.9405 4.31055C43.9448 4.3127 43.9497 4.3127 43.9551 4.3127Z" fill="#B7E0A7"/>
<path d="M5.94696 10.5937C5.94588 10.5937 5.94535 10.5942 5.94427 10.5942C5.94481 10.5942 5.94588 10.5942 5.94696 10.5937ZM5.98308 10.5856C5.98093 10.5861 5.97876 10.5866 5.97661 10.5872C5.9793 10.5866 5.98093 10.5861 5.98308 10.5856ZM6.00356 10.5813C6.00087 10.5818 5.99871 10.5823 5.99602 10.5829C5.99871 10.5823 6.0014 10.5818 6.00356 10.5813ZM6.03915 10.5742C6.03645 10.5748 6.03375 10.5753 6.03106 10.5759C6.03429 10.5753 6.03699 10.5748 6.03915 10.5742ZM6.05639 10.5716C6.0537 10.5721 6.05046 10.5726 6.04723 10.5732C6.05046 10.5726 6.05315 10.5721 6.05639 10.5716ZM6.07364 10.5683C6.07203 10.5689 6.06987 10.5689 6.06771 10.5694C6.06987 10.5689 6.07203 10.5683 6.07364 10.5683ZM43.9983 4.31304C43.9993 4.31304 44.0004 4.31304 44.0015 4.31304C44.001 4.31304 43.9999 4.31304 43.9983 4.31304ZM43.9778 4.3125C43.9794 4.3125 43.981 4.3125 43.9826 4.3125C43.9816 4.31304 43.9794 4.31304 43.9778 4.3125ZM43.9665 4.3125C43.9686 4.3125 43.9708 4.3125 43.9735 4.3125C43.9713 4.3125 43.9692 4.3125 43.9665 4.3125ZM43.9541 4.3125C43.9492 4.3125 43.9438 4.3125 43.939 4.3125C43.9438 4.3125 43.9487 4.3125 43.9541 4.3125Z" fill="#8CA197"/>
<path d="M24.375 28.3008C24.6984 28.635 27.782 29.5945 27.782 29.5945C27.6741 29.8964 27.6202 30.2091 27.6526 30.5433C27.6957 30.953 27.9329 33.2602 28.6121 37.0228L32.5582 36.3759C32.6062 36.6573 32.6579 36.9495 32.7129 37.2541C32.7814 37.6384 32.8558 38.0433 32.9355 38.4675L28.6121 39.1791C27.9329 35.4164 27.6957 33.1092 27.6526 32.6995C27.6467 32.637 27.6434 32.575 27.6434 32.5136C27.6423 32.2483 27.6946 31.9961 27.782 31.7508C27.782 31.7508 24.6984 30.7912 24.375 30.457C24.1162 30.5002 23.8683 30.5541 23.6095 30.608H23.5987C16.1503 32.0742 11.6442 37.9592 7.85822 40.413C7.7752 40.4669 7.69217 40.5192 7.6097 40.5698C7.2539 40.7962 6.87655 40.8933 6.50998 40.8933C6.46847 40.8933 6.4275 40.8922 6.38653 40.8895C5.28142 40.8232 4.32132 39.8766 4.32078 38.743C4.32078 38.4821 4.37146 38.2114 4.48305 37.9392C4.52509 37.8363 4.56876 37.7322 4.61404 37.6287C5.00271 38.2853 5.72401 38.737 6.50998 38.737C6.87655 38.737 7.2539 38.64 7.6097 38.4136C11.4479 36.0633 15.987 29.9503 23.5987 28.4517H23.6095C23.8683 28.3978 24.1162 28.3439 24.375 28.3008Z" fill="#83C46B"/>
<path d="M4.32025 38.7424C4.32079 39.8755 5.28089 40.8227 6.38599 40.889C5.28142 40.8227 4.32079 39.8761 4.32025 38.7424ZM4.61242 37.626C4.61296 37.6266 4.6135 37.6276 4.6135 37.6282C4.56876 37.7317 4.5251 37.8357 4.48251 37.9387C4.52617 37.8309 4.5693 37.7338 4.61242 37.626ZM32.7129 37.2535C32.7824 37.6368 32.8574 38.04 32.9355 38.467C32.8558 38.0427 32.7814 37.6379 32.7129 37.2535ZM27.782 31.7502C27.6946 31.9955 27.6423 32.2478 27.6434 32.513C27.6423 32.2478 27.6941 31.9955 27.782 31.7502Z" fill="#38574F"/>
</g>
<defs>
<clipPath id="clip0_4630_142667">
<rect width="138" height="138" fill="white" transform="matrix(-1 0 0 1 138 0)"/>
</clipPath>
</defs>
</svg>
