<svg width="80" height="60" viewBox="0 0 80 60" fill="none" xmlns="http://www.w3.org/2000/svg">
<g clip-path="url(#clip0_3736_61792)">
<path d="M32 0H80V60H32V0Z" fill="#FF0000"/>
<path d="M0 0H32V60H0V0Z" fill="#006600"/>
<path fill-rule="evenodd" clip-rule="evenodd" d="M42.4375 38.2744C38.4 38.1494 19.9375 26.6244 19.8125 24.7744L20.825 23.0869C22.6625 25.7494 41.5375 36.9619 43.4 36.5619L42.4375 38.2744Z" fill="#FFFF00" stroke="black" stroke-width="0.075" stroke-linecap="round" stroke-linejoin="round"/>
<path fill-rule="evenodd" clip-rule="evenodd" d="M20.6129 22.8496C20.2504 23.8246 25.4379 27.0246 31.6629 30.8246C37.9004 34.6121 43.2754 36.9496 43.6629 36.6246L43.8504 36.2746C43.7754 36.3996 43.6004 36.4371 43.3129 36.3496C41.6254 35.8621 37.2379 33.8496 31.8004 30.5496C26.3504 27.2496 21.6254 24.2121 20.8879 22.9246C20.8304 22.8039 20.8046 22.6705 20.8129 22.5371H20.7879L20.6379 22.8121L20.6129 22.8496ZM42.5254 38.3246C42.4629 38.4496 42.3254 38.4496 42.0879 38.4246C40.5879 38.2621 36.0129 36.0371 30.6004 32.7996C24.3004 29.0246 19.1004 25.5996 19.6754 24.6996L19.8254 24.4246L19.8504 24.4371C19.3504 25.9621 30.1129 32.1121 30.7504 32.5121C36.9754 36.3621 42.2254 38.6246 42.6879 38.0371L42.5254 38.3246Z" fill="#FFFF00" stroke="black" stroke-width="0.075" stroke-linecap="round" stroke-linejoin="round"/>
<path fill-rule="evenodd" clip-rule="evenodd" d="M32.0246 25.9C36.0496 25.8625 41.0246 25.35 43.8996 24.2L43.2746 23.2C41.5871 24.1375 36.5871 24.7625 31.9871 24.85C26.5621 24.8 22.7246 24.2875 20.7996 23L20.2246 24.075C23.7496 25.575 27.3746 25.8875 32.0246 25.9Z" fill="#FFFF00" stroke="black" stroke-width="0.075" stroke-linecap="round" stroke-linejoin="round"/>
<path fill-rule="evenodd" clip-rule="evenodd" d="M44.0629 24.2242C43.9629 24.3867 42.0879 25.0242 39.3379 25.4992C36.9137 25.8666 34.4648 26.0463 32.0129 26.0367C29.6637 26.0455 27.3167 25.8952 24.9879 25.5867C22.1004 25.1367 20.6129 24.5117 20.0504 24.2867L20.1879 24.0117C21.7754 24.6367 23.2754 25.0117 25.0254 25.2867C27.3372 25.5989 29.6676 25.7534 32.0004 25.7492C34.4396 25.7518 36.8755 25.5721 39.2879 25.2117C42.1004 24.7492 43.6379 24.1617 43.8629 23.8992L44.0629 24.2367V24.2242ZM43.5129 23.2117C43.2129 23.4617 41.6879 23.9992 39.0129 24.4242C36.7029 24.7584 34.3719 24.9255 32.0379 24.9242C29.2879 24.9242 27.0254 24.7242 25.3129 24.4742C22.5879 24.1242 21.1379 23.4742 20.6129 23.2992L20.7754 23.0242C21.1879 23.2367 22.5754 23.7992 25.3379 24.1867C27.5586 24.4842 29.7974 24.6262 32.0379 24.6117C34.3553 24.6124 36.6697 24.4453 38.9629 24.1117C41.6504 23.7367 43.1004 23.0617 43.3254 22.8867L43.5129 23.2117ZM18.7879 30.7492C21.2629 32.0867 26.7754 32.7492 31.9879 32.7992C36.7379 32.8117 42.9129 32.0742 45.2254 30.8492L45.1629 29.5117C44.4379 30.6367 37.8129 31.7242 31.9379 31.6867C26.0629 31.6367 20.6004 30.7367 18.7754 29.5617V30.7492" fill="#FFFF00"/>
<path d="M18.7879 30.7492C21.2629 32.0867 26.7754 32.7492 31.9879 32.7992C36.7379 32.8117 42.9129 32.0742 45.2254 30.8492L45.1629 29.5117C44.4379 30.6367 37.8129 31.7242 31.9379 31.6867C26.0629 31.6367 20.6004 30.7367 18.7754 29.5617V30.7492M44.0629 24.2242C43.9629 24.3867 42.0879 25.0242 39.3379 25.4992C36.9137 25.8666 34.4648 26.0463 32.0129 26.0367C29.6637 26.0455 27.3167 25.8952 24.9879 25.5867C22.1004 25.1367 20.6129 24.5117 20.0504 24.2867L20.1879 24.0117C21.7754 24.6367 23.2754 25.0117 25.0254 25.2867C27.3372 25.5989 29.6676 25.7534 32.0004 25.7492C34.4396 25.7518 36.8755 25.5721 39.2879 25.2117C42.1004 24.7492 43.6379 24.1617 43.8629 23.8992L44.0629 24.2367V24.2242ZM43.5129 23.2117C43.2129 23.4617 41.6879 23.9992 39.0129 24.4242C36.7029 24.7584 34.3719 24.9255 32.0379 24.9242C29.2879 24.9242 27.0254 24.7242 25.3129 24.4742C22.5879 24.1242 21.1379 23.4742 20.6129 23.2992L20.7754 23.0242C21.1879 23.2367 22.5754 23.7992 25.3379 24.1867C27.5586 24.4842 29.7974 24.6262 32.0379 24.6117C34.3553 24.6124 36.6697 24.4453 38.9629 24.1117C41.6504 23.7367 43.1004 23.0617 43.3254 22.8867L43.5129 23.2117Z" stroke="black" stroke-width="0.075" stroke-linecap="round" stroke-linejoin="round"/>
<path fill-rule="evenodd" clip-rule="evenodd" d="M45.35 30.5617V30.8742C45 31.2992 42.825 31.9242 40.1 32.3742C37.3928 32.7634 34.66 32.9472 31.925 32.9242C29.3316 32.9463 26.7405 32.7666 24.175 32.3867C22.2607 32.1655 20.3901 31.6599 18.625 30.8867V30.5242C19.8375 31.3242 23.1125 31.9242 24.2125 32.0992C26.1875 32.3992 28.725 32.6242 31.925 32.6242C35.2875 32.6242 37.975 32.3867 40.05 32.0742C42.0125 31.7867 44.8 31.0492 45.35 30.5617ZM45.35 29.4367V29.7492C45 30.1617 42.825 30.7867 40.1 31.2367C37.3931 31.63 34.6603 31.8181 31.925 31.7992C29.3318 31.8145 26.7412 31.6348 24.175 31.2617C22.2607 31.0405 20.3901 30.5349 18.625 29.7617V29.3867C19.8375 30.1992 23.125 30.7867 24.2125 30.9617C26.766 31.3358 29.3443 31.5154 31.925 31.4992C35.2875 31.4992 37.9875 31.2492 40.05 30.9367C42.0125 30.6617 44.8 29.9242 45.35 29.4367ZM31.975 38.0367C26.275 38.0117 21.3875 36.4867 20.35 36.2367L21.1 37.4117C24.6061 38.6535 28.3059 39.2588 32.025 39.1992C36.3625 39.0742 40.15 38.7367 42.8125 37.4367L43.5875 36.2117C41.775 37.0742 35.5875 38.0367 31.9625 38.0367" fill="#FFFF00"/>
<path d="M31.975 38.0367C26.275 38.0117 21.3875 36.4867 20.35 36.2367L21.1 37.4117C24.6061 38.6535 28.3059 39.2588 32.025 39.1992C36.3625 39.0742 40.15 38.7367 42.8125 37.4367L43.5875 36.2117C41.775 37.0742 35.5875 38.0367 31.9625 38.0367M45.35 30.5617V30.8742C45 31.2992 42.825 31.9242 40.1 32.3742C37.3928 32.7634 34.66 32.9472 31.925 32.9242C29.3316 32.9463 26.7405 32.7666 24.175 32.3867C22.2607 32.1655 20.3901 31.6599 18.625 30.8867V30.5242C19.8375 31.3242 23.1125 31.9242 24.2125 32.0992C26.1875 32.3992 28.725 32.6242 31.925 32.6242C35.2875 32.6242 37.975 32.3867 40.05 32.0742C42.0125 31.7867 44.8 31.0492 45.35 30.5617ZM45.35 29.4367V29.7492C45 30.1617 42.825 30.7867 40.1 31.2367C37.3931 31.63 34.6603 31.8181 31.925 31.7992C29.3318 31.8145 26.7412 31.6348 24.175 31.2617C22.2607 31.0405 20.3901 30.5349 18.625 29.7617V29.3867C19.8375 30.1992 23.125 30.7867 24.2125 30.9617C26.766 31.3358 29.3443 31.5154 31.925 31.4992C35.2875 31.4992 37.9875 31.2492 40.05 30.9367C42.0125 30.6617 44.8 29.9242 45.35 29.4367Z" stroke="black" stroke-width="0.075" stroke-linecap="round" stroke-linejoin="round"/>
<path fill-rule="evenodd" clip-rule="evenodd" d="M43.1125 37.1623C42.9987 37.331 42.882 37.4976 42.7625 37.6623C41.5125 38.1123 39.5125 38.5873 38.6875 38.7123C36.4737 39.1248 34.2269 39.334 31.975 39.3373C26.925 39.2623 22.7875 38.2748 20.85 37.4248L20.6875 37.1623L20.7125 37.1123L20.975 37.2248C24.5325 38.4021 28.2528 39.0137 32 39.0373C34.35 39.0373 36.6875 38.7748 38.575 38.4373C41.475 37.8498 42.65 37.4123 43.0125 37.2123L43.1 37.1623H43.1125ZM43.775 36.0623C43.6927 36.2087 43.6094 36.3546 43.525 36.4998C42.85 36.7498 41.025 37.2748 38.3625 37.6498C36.6125 37.8873 35.525 38.1248 32.0375 38.1873C28.0508 38.1473 24.0886 37.5584 20.2625 36.4373L20.125 36.1248C24.0123 37.1992 28.0179 37.787 32.05 37.8748C35.2375 37.8123 36.6 37.5748 38.3375 37.3373C41.4375 36.8623 43 36.3373 43.4625 36.1998C43.4628 36.1915 43.4628 36.1831 43.4625 36.1748L43.7875 36.0498L43.775 36.0623Z" fill="#FFFF00" stroke="black" stroke-width="0.075" stroke-linecap="round" stroke-linejoin="round"/>
<path fill-rule="evenodd" clip-rule="evenodd" d="M43.8504 29.7C43.8629 33.45 41.9379 36.825 40.4004 38.3C38.1296 40.5147 35.097 41.7761 31.9254 41.825C28.1379 41.8875 24.5754 39.425 23.6129 38.3375C21.4597 36.0541 20.2342 33.0505 20.1754 29.9125C20.4004 25.8125 22.0129 22.9625 24.3379 21C26.5965 19.1407 29.4376 18.1361 32.3629 18.1625C34.0706 18.2453 35.7421 18.6839 37.2704 19.4502C38.7987 20.2165 40.1501 21.2936 41.2379 22.6125C42.8004 24.5125 43.4879 26.575 43.8504 29.7ZM31.9504 16.875C35.4473 16.8749 38.8024 18.2571 41.2844 20.7204C43.7664 23.1837 45.174 26.5282 45.2004 30.025C45.2004 31.7601 44.8587 33.4782 44.1947 35.0812C43.5307 36.6842 42.5575 38.1408 41.3306 39.3676C40.1037 40.5945 38.6471 41.5678 37.0441 42.2318C35.4411 42.8957 33.723 43.2375 31.9879 43.2375C30.2528 43.2375 28.5347 42.8957 26.9317 42.2318C25.3287 41.5678 23.8722 40.5945 22.6453 39.3676C21.4184 38.1408 20.4451 36.6842 19.7812 35.0812C19.1172 33.4782 18.7754 31.7601 18.7754 30.025C18.7629 22.775 24.6879 16.875 31.9504 16.875Z" fill="#FFFF00" stroke="black" stroke-width="0.075" stroke-linecap="round" stroke-linejoin="round"/>
<path fill-rule="evenodd" clip-rule="evenodd" d="M31.9873 16.8125C39.2623 16.8125 45.1873 22.7375 45.1873 30.0125C45.1873 37.2875 39.2623 43.2125 31.9998 43.2125C24.7373 43.2125 18.7998 37.2875 18.7998 30.0125C18.7998 22.7375 24.7248 16.8125 31.9998 16.8125H31.9873ZM19.0748 30C19.0748 37.1 24.9123 42.9125 31.9873 42.9125C39.0623 42.9125 44.8998 37.1 44.8998 30C44.8998 22.9 39.0623 17.0875 31.9873 17.0875C24.9123 17.0875 19.0748 22.9 19.0748 30Z" fill="#FFFF00" stroke="black" stroke-width="0.075" stroke-linecap="round" stroke-linejoin="round"/>
<path fill-rule="evenodd" clip-rule="evenodd" d="M31.9996 17.9121C35.2024 17.922 38.2711 19.1987 40.5358 21.4634C42.8005 23.7281 44.0772 26.7968 44.0871 29.9996C44.0772 33.2035 42.801 36.2736 40.5366 38.5403C38.2723 40.807 35.2035 42.0864 31.9996 42.0996C25.3746 42.0996 19.9121 36.6496 19.9121 29.9996C19.9253 26.7979 21.203 23.731 23.467 21.467C25.731 19.203 28.7979 17.9253 31.9996 17.9121ZM20.1996 29.9996C20.1996 36.4996 25.5246 41.7996 31.9996 41.7996C38.4746 41.7996 43.7996 36.4871 43.7996 29.9996C43.7996 23.4996 38.4746 18.1996 31.9996 18.1996C28.8741 18.2128 25.8804 19.4602 23.6703 21.6703C21.4602 23.8804 20.2128 26.8741 20.1996 29.9996Z" fill="#FFFF00" stroke="black" stroke-width="0.075" stroke-linecap="round" stroke-linejoin="round"/>
<path fill-rule="evenodd" clip-rule="evenodd" d="M32.5379 16.75H31.4004V43.2875H32.5254L32.5379 16.75Z" fill="#FFFF00" stroke="black" stroke-width="0.075" stroke-linecap="round" stroke-linejoin="round"/>
<path fill-rule="evenodd" clip-rule="evenodd" d="M32.4121 16.5996H32.6996V43.4371H32.4246V16.5996H32.4121ZM31.2871 16.5996H31.5871V43.4371H31.2996V16.5996H31.2871Z" fill="#FFFF00" stroke="black" stroke-width="0.075" stroke-linecap="round" stroke-linejoin="round"/>
<path fill-rule="evenodd" clip-rule="evenodd" d="M45.1998 30.525V29.55L44.3998 28.8L39.8623 27.6L33.3373 26.9375L25.4623 27.3375L19.8623 28.6625L18.7373 29.5V30.4875L21.5998 29.2L28.3998 28.1375H34.9373L39.7373 28.6625L43.0623 29.4625L45.1998 30.525Z" fill="#FFFF00" stroke="black" stroke-width="0.075" stroke-linecap="round" stroke-linejoin="round"/>
<path fill-rule="evenodd" clip-rule="evenodd" d="M32 27.9747C35.1125 27.9747 38.125 28.2622 40.5375 28.7247C43.0125 29.2247 44.75 29.8497 45.35 30.5372V30.8872C44.625 30.0122 42.2875 29.3872 40.475 29.0122C38.1 28.5622 35.1 28.2622 31.9875 28.2622C28.725 28.2622 25.675 28.5872 23.325 29.0372C21.45 29.4122 18.9375 30.1622 18.625 30.8872V30.5247C18.7875 30.0247 20.6625 29.2747 23.2875 28.7372C25.65 28.2747 28.7 27.9747 31.9875 27.9747H32ZM32 26.8372C34.8625 26.8314 37.7198 27.0824 40.5375 27.5872C43.0125 28.0872 44.75 28.7122 45.35 29.4122V29.7497C44.625 28.8872 42.2875 28.2497 40.475 27.8872C38.1 27.4247 35.1 27.1372 31.9875 27.1372C29.0864 27.128 26.1907 27.3874 23.3375 27.9122C21.525 28.2497 18.9125 29.0247 18.625 29.7497V29.3997C18.8 28.8997 20.7 28.1122 23.2875 27.6122C25.6625 27.1497 28.7 26.8372 32 26.8372ZM31.925 21.0622C36.8375 21.0372 41.125 21.7497 43.0875 22.7497L43.8 23.9997C42.1 23.0747 37.475 22.1247 31.9375 22.2497C27.425 22.2872 22.6 22.7497 20.1875 24.0497L21.0375 22.6247C23.025 21.5872 27.7 21.0622 31.925 21.0622Z" fill="#FFFF00" stroke="black" stroke-width="0.075" stroke-linecap="round" stroke-linejoin="round"/>
<path fill-rule="evenodd" clip-rule="evenodd" d="M31.9996 22.0874C34.5645 22.0441 37.1283 22.224 39.6621 22.6249C41.6621 22.9999 43.5746 23.5499 43.8496 23.8499L44.0621 24.2249C43.3996 23.7999 41.7371 23.3124 39.6121 22.9124C37.4871 22.5124 34.7746 22.3749 31.9871 22.3874C28.8246 22.3749 26.3621 22.5374 24.2621 22.9124C22.8145 23.1153 21.409 23.55 20.0996 24.1999L20.3121 23.8124C21.0621 23.4374 22.2246 22.9749 24.1996 22.6124C26.3871 22.2124 28.8746 22.0999 31.9996 22.0874ZM31.9996 20.9624C34.6746 20.9374 37.3246 21.0874 39.3871 21.4624C40.7234 21.6608 42.0166 22.0834 43.2121 22.7124L43.5246 23.2124C42.9996 22.6249 41.0246 22.0624 39.2621 21.7624C37.2121 21.3999 34.6746 21.2624 31.9996 21.2374C29.5095 21.2152 27.0219 21.3992 24.5621 21.7874C23.276 21.9666 22.0268 22.3507 20.8621 22.9249L21.1371 22.5124C21.8621 22.1374 23.0371 21.7874 24.5121 21.4999C26.9881 21.1066 29.4928 20.9226 31.9996 20.9499V20.9624ZM38.5496 35.4999C36.383 35.1248 34.1855 34.9574 31.9871 34.9999C23.7996 35.0999 21.1621 36.6874 20.8371 37.1624L20.2121 36.1624C22.3121 34.6624 26.7621 33.8124 32.0371 33.8874C34.7746 33.9374 37.1371 34.1249 39.1121 34.5124L38.5496 35.5124" fill="#FFFF00"/>
<path d="M38.5496 35.4999C36.383 35.1248 34.1855 34.9574 31.9871 34.9999C23.7996 35.0999 21.1621 36.6874 20.8371 37.1624L20.2121 36.1624C22.3121 34.6624 26.7621 33.8124 32.0371 33.8874C34.7746 33.9374 37.1371 34.1249 39.1121 34.5124L38.5496 35.5124M31.9996 22.0874C34.5645 22.0441 37.1283 22.224 39.6621 22.6249C41.6621 22.9999 43.5746 23.5499 43.8496 23.8499L44.0621 24.2249C43.3996 23.7999 41.7371 23.3124 39.6121 22.9124C37.4871 22.5124 34.7746 22.3749 31.9871 22.3874C28.8246 22.3749 26.3621 22.5374 24.2621 22.9124C22.8145 23.1153 21.409 23.55 20.0996 24.1999L20.3121 23.8124C21.0621 23.4374 22.2246 22.9749 24.1996 22.6124C26.3871 22.2124 28.8746 22.0999 31.9996 22.0874ZM31.9996 20.9624C34.6746 20.9374 37.3246 21.0874 39.3871 21.4624C40.7234 21.6608 42.0166 22.0834 43.2121 22.7124L43.5246 23.2124C42.9996 22.6249 41.0246 22.0624 39.2621 21.7624C37.2121 21.3999 34.6746 21.2624 31.9996 21.2374C29.5095 21.2152 27.0219 21.3992 24.5621 21.7874C23.276 21.9666 22.0268 22.3507 20.8621 22.9249L21.1371 22.5124C21.8621 22.1374 23.0371 21.7874 24.5121 21.4999C26.9881 21.1066 29.4928 20.9226 31.9996 20.9499V20.9624Z" stroke="black" stroke-width="0.075" stroke-linecap="round" stroke-linejoin="round"/>
<path fill-rule="evenodd" clip-rule="evenodd" d="M31.9498 34.8619C34.2248 34.8994 36.4498 34.9869 38.6123 35.3869L38.4623 35.6619C36.4623 35.2869 34.3123 35.1619 31.9623 35.1619C28.9248 35.1369 25.8748 35.4244 23.2123 36.1869C22.3748 36.4244 20.9873 36.9619 20.8373 37.4119L20.6873 37.1619C20.7373 36.8869 21.5623 36.3369 23.1373 35.9119C26.1873 35.0369 29.0373 34.8744 31.9498 34.8619ZM32.0498 33.7119C34.451 33.7095 36.8478 33.9186 39.2123 34.3369L39.0498 34.6244C36.7409 34.2009 34.3972 33.9958 32.0498 34.0119C29.0248 34.0119 25.8123 34.2369 22.8873 35.0869C21.9498 35.3619 20.3123 35.9619 20.2623 36.4244L20.1123 36.1494C20.1373 35.7244 21.5498 35.1619 22.8248 34.7994C25.7623 33.9369 28.9873 33.7244 32.0498 33.7119Z" fill="#FFFF00" stroke="black" stroke-width="0.075" stroke-linecap="round" stroke-linejoin="round"/>
<path fill-rule="evenodd" clip-rule="evenodd" d="M43.6746 36.3121L42.6996 37.8496L39.8621 35.3371L32.5371 30.3996L24.2621 25.8621L19.9746 24.3996L20.8871 22.6996L21.1996 22.5371L23.8621 23.1996L32.6621 27.7371L37.7371 30.9371L41.9996 33.9996L43.7371 35.9996L43.6746 36.3121Z" fill="#FFFF00" stroke="black" stroke-width="0.075" stroke-linecap="round" stroke-linejoin="round"/>
<path fill-rule="evenodd" clip-rule="evenodd" d="M19.8246 24.4367C20.5746 23.9367 26.0996 26.3867 31.8996 29.8867C37.6621 33.3867 43.1871 37.3367 42.6871 38.0742L42.5246 38.3367L42.4496 38.3992C42.4621 38.3867 42.5496 38.2742 42.4496 38.0117C42.1996 37.1992 38.2746 34.0742 31.7871 30.1492C25.4496 26.3867 20.1746 24.1117 19.6621 24.7617L19.8246 24.4367ZM43.8746 36.2992C44.3496 35.3492 39.2246 31.4867 32.8621 27.7242C26.3621 24.0367 21.6621 21.8617 20.7996 22.5117L20.6246 22.8742C20.6246 22.8867 20.6246 22.8492 20.6746 22.8117C20.8246 22.6867 21.0871 22.6867 21.1996 22.6867C22.6746 22.7117 26.8871 24.6492 32.7996 28.0367C35.3996 29.5367 43.7496 34.9117 43.7121 36.4117C43.7121 36.5367 43.7246 36.5617 43.6746 36.6367L43.8871 36.3117L43.8746 36.2992Z" fill="#FFFF00" stroke="black" stroke-width="0.075" stroke-linecap="round" stroke-linejoin="round"/>
<path d="M24.0801 31.4708C24.0821 32.5058 24.2893 33.5302 24.6898 34.4846C25.0903 35.4389 25.6762 36.3044 26.4134 37.0308C27.1417 37.7703 28.0091 38.3584 28.9656 38.7611C29.9221 39.1639 30.9489 39.3734 31.9868 39.3775C34.0872 39.3774 36.1016 38.5428 37.5868 37.0575C38.3214 36.3271 38.9046 35.4587 39.3027 34.5022C39.7008 33.5458 39.9061 32.5202 39.9068 31.4842V20.9241L24.0801 20.8975V31.4708Z" fill="white" stroke="black" stroke-width="0.0933336"/>
<path d="M24.373 31.4842C24.3759 32.477 24.5753 33.4595 24.9597 34.3749C25.3442 35.2902 25.9061 36.1204 26.6131 36.8175C28.0326 38.2445 29.9603 39.0501 31.9731 39.0575C33.9823 39.0586 35.91 38.2626 37.3331 36.8442C38.0376 36.146 38.5971 35.3153 38.9792 34.4C39.3614 33.4846 39.5587 32.5027 39.5598 31.5108V21.2441H24.3997V31.4842M36.5331 24.3241V30.8442L36.5197 31.5242C36.5242 32.1198 36.4085 32.7103 36.1794 33.2601C35.9503 33.81 35.6125 34.3079 35.1864 34.7242C34.3385 35.575 33.1876 36.0546 31.9864 36.0575C30.7331 36.0575 29.6264 35.5242 28.7997 34.6975C27.9489 33.8496 27.4693 32.6987 27.4664 31.4975V24.2975L36.5331 24.3241Z" fill="#FF0000"/>
<path d="M24.373 31.4842C24.3759 32.477 24.5753 33.4595 24.9597 34.3749C25.3442 35.2902 25.9061 36.1204 26.6131 36.8175C28.0326 38.2445 29.9603 39.0501 31.9731 39.0575C33.9823 39.0586 35.91 38.2626 37.3331 36.8442C38.0376 36.146 38.5971 35.3153 38.9792 34.4C39.3614 33.4846 39.5587 32.5027 39.5598 31.5108V21.2441H24.3997V31.4842M36.5331 24.3241V30.8442L36.5197 31.5242C36.5242 32.1198 36.4085 32.7103 36.1794 33.2601C35.9503 33.81 35.6125 34.3079 35.1864 34.7242C34.3385 35.575 33.1876 36.0546 31.9864 36.0575C30.7331 36.0575 29.6264 35.5242 28.7997 34.6975C27.9489 33.8496 27.4693 32.6987 27.4664 31.4975V24.2975L36.5331 24.3241Z" stroke="black" stroke-width="0.0666669"/>
<path d="M25.3604 23.9242C25.3737 23.1909 25.8937 23.0176 25.8937 23.0176C25.907 23.0176 26.467 23.2042 26.467 23.9376H25.3604" fill="#FFFF00"/>
<path d="M24.9067 23.0309L24.8134 23.8709H25.3734C25.3734 23.1776 25.9067 23.0709 25.9067 23.0709C25.92 23.0709 26.44 23.2176 26.4534 23.8709H27.0134L26.9067 23.0176H24.9067V23.0309ZM24.7734 23.8842H27.04C27.08 23.8842 27.12 23.9242 27.12 23.9776C27.12 24.0442 27.08 24.0842 27.04 24.0842H24.7734C24.7334 24.0842 24.6934 24.0442 24.6934 23.9776C24.6934 23.9242 24.7334 23.8842 24.7867 23.8842H24.7734Z" fill="#FFFF00" stroke="black" stroke-width="0.0666669"/>
<path d="M25.6004 23.871C25.6004 23.431 25.9071 23.311 25.9071 23.311C25.9071 23.311 26.2137 23.4443 26.2137 23.871H25.6004ZM24.8271 22.671H27.0004C27.0404 22.671 27.0804 22.7243 27.0804 22.7777C27.0804 22.8177 27.0404 22.8577 27.0004 22.8577H24.8271C24.7871 22.8577 24.7471 22.8177 24.7471 22.7643C24.7471 22.7243 24.7871 22.6843 24.8271 22.6843V22.671ZM24.8804 22.871H26.9337C26.9737 22.871 27.0137 22.911 27.0137 22.9643C27.0137 23.0177 26.9737 23.0577 26.9337 23.0577H24.8671C24.8137 23.0577 24.7871 23.0177 24.7871 22.9643C24.7871 22.911 24.8137 22.871 24.8671 22.871H24.8804ZM25.5471 21.4577H25.7071V21.5643H25.8271V21.4577H26.0004V21.5777H26.1204V21.4443H26.2804V21.711C26.2804 21.7643 26.2537 21.791 26.2137 21.791H25.6271C25.5871 21.791 25.5471 21.7643 25.5471 21.7243V21.4577ZM26.1604 21.8177L26.2004 22.671H25.6271L25.6671 21.8043H26.1604" fill="#FFFF00"/>
<path d="M26.1604 21.8177L26.2004 22.671H25.6271L25.6671 21.8043H26.1604M25.6004 23.871C25.6004 23.431 25.9071 23.311 25.9071 23.311C25.9071 23.311 26.2137 23.4443 26.2137 23.871H25.6004ZM24.8271 22.671H27.0004C27.0404 22.671 27.0804 22.7243 27.0804 22.7777C27.0804 22.8177 27.0404 22.8577 27.0004 22.8577H24.8271C24.7871 22.8577 24.7471 22.8177 24.7471 22.7643C24.7471 22.7243 24.7871 22.6843 24.8271 22.6843V22.671ZM24.8804 22.871H26.9337C26.9737 22.871 27.0137 22.911 27.0137 22.9643C27.0137 23.0177 26.9737 23.0577 26.9337 23.0577H24.8671C24.8137 23.0577 24.7871 23.0177 24.7871 22.9643C24.7871 22.911 24.8137 22.871 24.8671 22.871H24.8804ZM25.5471 21.4577H25.7071V21.5643H25.8271V21.4577H26.0004V21.5777H26.1204V21.4443H26.2804V21.711C26.2804 21.7643 26.2537 21.791 26.2137 21.791H25.6271C25.5871 21.791 25.5471 21.7643 25.5471 21.7243V21.4577Z" stroke="black" stroke-width="0.0666669"/>
<path d="M25.4669 22.2178V22.6711H24.9336V22.2178H25.4669Z" fill="#FFFF00" stroke="black" stroke-width="0.0666669"/>
<path d="M25.4669 22.2178V22.6711H24.9336V22.2178H25.4669Z" fill="#FFFF00" stroke="black" stroke-width="0.0666669"/>
<path d="M24.8398 21.8711H24.9998V22.0044H25.1198V21.8711H25.2798V22.0044H25.3998V21.8711H25.5598V22.1378C25.5598 22.1911 25.5332 22.2178 25.4932 22.2178H24.9198C24.8986 22.2178 24.8783 22.2093 24.8633 22.1943C24.8483 22.1793 24.8398 22.159 24.8398 22.1378V21.8711Z" fill="#FFFF00" stroke="black" stroke-width="0.0666669"/>
<path d="M24.8398 21.8711H24.9998V22.0044H25.1198V21.8711H25.2798V22.0044H25.3998V21.8711H25.5598V22.1378C25.5598 22.1911 25.5332 22.2178 25.4932 22.2178H24.9198C24.8986 22.2178 24.8783 22.2093 24.8633 22.1943C24.8483 22.1793 24.8398 22.159 24.8398 22.1378V21.8711Z" fill="#FFFF00" stroke="black" stroke-width="0.0666669"/>
<path d="M25.8535 22.0844C25.8535 22.0044 25.9735 22.0044 25.9735 22.0844V22.2977H25.8535V22.0844Z" fill="black"/>
<path d="M25.1465 22.3774C25.1465 22.2974 25.2531 22.2974 25.2531 22.3774V22.5374H25.1465V22.3774Z" fill="black"/>
<path d="M25.1465 22.3774C25.1465 22.2974 25.2531 22.2974 25.2531 22.3774V22.5374H25.1465V22.3774Z" fill="black"/>
<path d="M25.3604 23.9242C25.3737 23.1909 25.8937 23.0176 25.8937 23.0176C25.907 23.0176 26.467 23.2042 26.467 23.9376H25.3604" fill="#FFFF00"/>
<path d="M24.9067 23.0309L24.8134 23.8709H25.3734C25.3734 23.1776 25.9067 23.0709 25.9067 23.0709C25.92 23.0709 26.44 23.2176 26.4534 23.8709H27.0134L26.9067 23.0176H24.9067V23.0309ZM24.7734 23.8842H27.04C27.08 23.8842 27.12 23.9242 27.12 23.9776C27.12 24.0442 27.08 24.0842 27.04 24.0842H24.7734C24.7334 24.0842 24.6934 24.0442 24.6934 23.9776C24.6934 23.9242 24.7334 23.8842 24.7867 23.8842H24.7734Z" fill="#FFFF00" stroke="black" stroke-width="0.0666669"/>
<path d="M25.6004 23.871C25.6004 23.431 25.9071 23.311 25.9071 23.311C25.9071 23.311 26.2137 23.4443 26.2137 23.871H25.6004ZM24.8271 22.671H27.0004C27.0404 22.671 27.0804 22.7243 27.0804 22.7777C27.0804 22.8177 27.0404 22.8577 27.0004 22.8577H24.8271C24.7871 22.8577 24.7471 22.8177 24.7471 22.7643C24.7471 22.7243 24.7871 22.6843 24.8271 22.6843V22.671ZM24.8804 22.871H26.9337C26.9737 22.871 27.0137 22.911 27.0137 22.9643C27.0137 23.0177 26.9737 23.0577 26.9337 23.0577H24.8671C24.8137 23.0577 24.7871 23.0177 24.7871 22.9643C24.7871 22.911 24.8137 22.871 24.8671 22.871H24.8804ZM25.5471 21.4577H25.7071V21.5643H25.8271V21.4577H26.0004V21.5777H26.1204V21.4443H26.2804V21.711C26.2804 21.7643 26.2537 21.791 26.2137 21.791H25.6271C25.5871 21.791 25.5471 21.7643 25.5471 21.7243V21.4577ZM26.1604 21.8177L26.2004 22.671H25.6271L25.6671 21.8043H26.1604" fill="#FFFF00"/>
<path d="M26.1604 21.8177L26.2004 22.671H25.6271L25.6671 21.8043H26.1604M25.6004 23.871C25.6004 23.431 25.9071 23.311 25.9071 23.311C25.9071 23.311 26.2137 23.4443 26.2137 23.871H25.6004ZM24.8271 22.671H27.0004C27.0404 22.671 27.0804 22.7243 27.0804 22.7777C27.0804 22.8177 27.0404 22.8577 27.0004 22.8577H24.8271C24.7871 22.8577 24.7471 22.8177 24.7471 22.7643C24.7471 22.7243 24.7871 22.6843 24.8271 22.6843V22.671ZM24.8804 22.871H26.9337C26.9737 22.871 27.0137 22.911 27.0137 22.9643C27.0137 23.0177 26.9737 23.0577 26.9337 23.0577H24.8671C24.8137 23.0577 24.7871 23.0177 24.7871 22.9643C24.7871 22.911 24.8137 22.871 24.8671 22.871H24.8804ZM25.5471 21.4577H25.7071V21.5643H25.8271V21.4577H26.0004V21.5777H26.1204V21.4443H26.2804V21.711C26.2804 21.7643 26.2537 21.791 26.2137 21.791H25.6271C25.5871 21.791 25.5471 21.7643 25.5471 21.7243V21.4577Z" stroke="black" stroke-width="0.0666669"/>
<path d="M25.4669 22.2178V22.6711H24.9336V22.2178H25.4669Z" fill="#FFFF00" stroke="black" stroke-width="0.0666669"/>
<path d="M25.4669 22.2178V22.6711H24.9336V22.2178H25.4669Z" fill="#FFFF00" stroke="black" stroke-width="0.0666669"/>
<path d="M24.8398 21.8711H24.9998V22.0044H25.1198V21.8711H25.2798V22.0044H25.3998V21.8711H25.5598V22.1378C25.5598 22.1911 25.5332 22.2178 25.4932 22.2178H24.9198C24.8986 22.2178 24.8783 22.2093 24.8633 22.1943C24.8483 22.1793 24.8398 22.159 24.8398 22.1378V21.8711Z" fill="#FFFF00" stroke="black" stroke-width="0.0666669"/>
<path d="M24.8398 21.8711H24.9998V22.0044H25.1198V21.8711H25.2798V22.0044H25.3998V21.8711H25.5598V22.1378C25.5598 22.1911 25.5332 22.2178 25.4932 22.2178H24.9198C24.8986 22.2178 24.8783 22.2093 24.8633 22.1943C24.8483 22.1793 24.8398 22.159 24.8398 22.1378V21.8711Z" fill="#FFFF00" stroke="black" stroke-width="0.0666669"/>
<path d="M25.8535 22.0844C25.8535 22.0044 25.9735 22.0044 25.9735 22.0844V22.2977H25.8535V22.0844Z" fill="black"/>
<path d="M25.1465 22.3774C25.1465 22.2974 25.2531 22.2974 25.2531 22.3774V22.5374H25.1465V22.3774Z" fill="black"/>
<path d="M25.1465 22.3774C25.1465 22.2974 25.2531 22.2974 25.2531 22.3774V22.5374H25.1465V22.3774Z" fill="black"/>
<path d="M27.7664 36.5314C27.2554 36.0053 27.4989 35.5141 27.4989 35.5141C27.5082 35.5047 28.0353 35.2388 28.5557 35.7556L27.7759 36.5408" fill="#FFFF00"/>
<path d="M26.8131 36.2233L27.3434 36.8814L27.738 36.484C27.246 35.9955 27.5461 35.5419 27.5461 35.5419C27.5555 35.5324 28.026 35.2668 28.499 35.7177L28.8936 35.3203L28.2129 34.7947L26.8036 36.2139L26.8131 36.2233ZM27.3247 36.9192L28.9218 35.3108C28.95 35.2824 29.0066 35.2822 29.0444 35.3198C29.0917 35.3668 29.0919 35.4233 29.0637 35.4517L27.4666 37.0601C27.4384 37.0885 27.3818 37.0887 27.3345 37.0417C27.2967 37.0041 27.2965 36.9475 27.334 36.9097L27.3247 36.9192Z" fill="#FFFF00" stroke="black" stroke-width="0.0666669"/>
<path d="M27.8974 36.3232C27.5852 36.0131 27.7161 35.711 27.7161 35.711C27.7161 35.711 28.0268 35.5873 28.3296 35.888L27.8974 36.3232ZM26.501 36.0263L28.0324 34.4842C28.0606 34.4558 28.1266 34.465 28.1645 34.5026C28.1929 34.5308 28.193 34.5873 28.1649 34.6157L26.6335 36.1579C26.6053 36.1863 26.5487 36.1865 26.5109 36.1489C26.4825 36.1207 26.4823 36.0641 26.5105 36.0357L26.501 36.0263ZM26.6805 36.1294L28.1273 34.6724C28.1555 34.644 28.2121 34.6439 28.2499 34.6814C28.2878 34.719 28.288 34.7756 28.2598 34.804L26.8036 36.2704C26.766 36.3083 26.7188 36.299 26.681 36.2614C26.6431 36.2238 26.6335 36.1767 26.6711 36.1389L26.6805 36.1294ZM26.1474 34.6605L26.2601 34.547L26.3358 34.6221L26.4204 34.537L26.3447 34.4618L26.4668 34.3388L26.552 34.4234L26.6365 34.3382L26.5419 34.2443L26.6547 34.1307L26.8439 34.3186C26.8817 34.3562 26.8819 34.3939 26.8537 34.4223L26.4403 34.8386C26.4121 34.867 26.365 34.8766 26.3366 34.8484L26.1474 34.6605ZM26.835 34.479L27.4687 35.0519L27.0647 35.4587L26.4779 34.8196L26.8256 34.4696" fill="#FFFF00"/>
<path d="M26.835 34.479L27.4687 35.0519L27.0647 35.4587L26.4779 34.8196L26.8256 34.4696M27.8974 36.3232C27.5852 36.0131 27.7161 35.711 27.7161 35.711C27.7161 35.711 28.0268 35.5873 28.3296 35.888L27.8974 36.3232ZM26.501 36.0263L28.0324 34.4842C28.0606 34.4558 28.1266 34.465 28.1645 34.5026C28.1929 34.5308 28.193 34.5873 28.1649 34.6157L26.6335 36.1579C26.6053 36.1863 26.5487 36.1865 26.5109 36.1489C26.4825 36.1207 26.4823 36.0641 26.5105 36.0357L26.501 36.0263ZM26.6805 36.1294L28.1273 34.6724C28.1555 34.644 28.2121 34.6439 28.2499 34.6814C28.2878 34.719 28.288 34.7756 28.2598 34.804L26.8036 36.2704C26.766 36.3083 26.7188 36.299 26.681 36.2614C26.6431 36.2238 26.6335 36.1767 26.6711 36.1389L26.6805 36.1294ZM26.1474 34.6605L26.2601 34.547L26.3358 34.6221L26.4204 34.537L26.3447 34.4618L26.4668 34.3388L26.552 34.4234L26.6365 34.3382L26.5419 34.2443L26.6547 34.1307L26.8439 34.3186C26.8817 34.3562 26.8819 34.3939 26.8537 34.4223L26.4403 34.8386C26.4121 34.867 26.365 34.8766 26.3366 34.8484L26.1474 34.6605Z" stroke="black" stroke-width="0.0666669"/>
<path d="M26.6307 35.2534L26.9524 35.5728L26.5766 35.9513L26.2549 35.6318L26.6307 35.2534Z" fill="#FFFF00" stroke="black" stroke-width="0.0666669"/>
<path d="M26.6307 35.2534L26.9524 35.5728L26.5766 35.9513L26.2549 35.6318L26.6307 35.2534Z" fill="#FFFF00" stroke="black" stroke-width="0.0666669"/>
<path d="M25.9434 35.4531L26.0561 35.3396L26.1507 35.4335L26.2353 35.3484L26.1407 35.2544L26.2534 35.1409L26.348 35.2349L26.4326 35.1497L26.338 35.0558L26.4507 34.9422L26.6399 35.1301C26.6778 35.1677 26.6779 35.2054 26.6497 35.2338L26.2457 35.6406C26.2308 35.6557 26.2104 35.6642 26.1892 35.6643C26.168 35.6643 26.1476 35.656 26.1326 35.641L25.9434 35.4531Z" fill="#FFFF00" stroke="black" stroke-width="0.0666669"/>
<path d="M25.9434 35.4531L26.0561 35.3396L26.1507 35.4335L26.2353 35.3484L26.1407 35.2544L26.2534 35.1409L26.348 35.2349L26.4326 35.1497L26.338 35.0558L26.4507 34.9422L26.6399 35.1301C26.6778 35.1677 26.6779 35.2054 26.6497 35.2338L26.2457 35.6406C26.2308 35.6557 26.2104 35.6642 26.1892 35.6643C26.168 35.6643 26.1476 35.656 26.1326 35.641L25.9434 35.4531Z" fill="#FFFF00" stroke="black" stroke-width="0.0666669"/>
<path d="M26.8082 34.8851C26.7514 34.8287 26.836 34.7435 26.8928 34.7999L27.0441 34.9502L26.9596 35.0354L26.8082 34.8851Z" fill="black"/>
<path d="M26.5191 35.5931C26.4624 35.5367 26.5375 35.461 26.5943 35.5174L26.7078 35.6301L26.6327 35.7058L26.5191 35.5931Z" fill="black"/>
<path d="M26.5191 35.5931C26.4624 35.5367 26.5375 35.461 26.5943 35.5174L26.7078 35.6301L26.6327 35.7058L26.5191 35.5931Z" fill="black"/>
<path d="M25.3604 23.9242C25.3737 23.1909 25.8937 23.0176 25.8937 23.0176C25.907 23.0176 26.467 23.2042 26.467 23.9376H25.3604" fill="#FFFF00"/>
<path d="M24.9067 23.0309L24.8134 23.8709H25.3734C25.3734 23.1776 25.9067 23.0709 25.9067 23.0709C25.92 23.0709 26.44 23.2176 26.4534 23.8709H27.0134L26.9067 23.0176H24.9067V23.0309ZM24.7734 23.8842H27.04C27.08 23.8842 27.12 23.9242 27.12 23.9776C27.12 24.0442 27.08 24.0842 27.04 24.0842H24.7734C24.7334 24.0842 24.6934 24.0442 24.6934 23.9776C24.6934 23.9242 24.7334 23.8842 24.7867 23.8842H24.7734Z" fill="#FFFF00" stroke="black" stroke-width="0.0666669"/>
<path d="M25.6004 23.871C25.6004 23.431 25.9071 23.311 25.9071 23.311C25.9071 23.311 26.2137 23.4443 26.2137 23.871H25.6004ZM24.8271 22.671H27.0004C27.0404 22.671 27.0804 22.7243 27.0804 22.7777C27.0804 22.8177 27.0404 22.8577 27.0004 22.8577H24.8271C24.7871 22.8577 24.7471 22.8177 24.7471 22.7643C24.7471 22.7243 24.7871 22.6843 24.8271 22.6843V22.671ZM24.8804 22.871H26.9337C26.9737 22.871 27.0137 22.911 27.0137 22.9643C27.0137 23.0177 26.9737 23.0577 26.9337 23.0577H24.8671C24.8137 23.0577 24.7871 23.0177 24.7871 22.9643C24.7871 22.911 24.8137 22.871 24.8671 22.871H24.8804ZM25.5471 21.4577H25.7071V21.5643H25.8271V21.4577H26.0004V21.5777H26.1204V21.4443H26.2804V21.711C26.2804 21.7643 26.2537 21.791 26.2137 21.791H25.6271C25.5871 21.791 25.5471 21.7643 25.5471 21.7243V21.4577ZM26.1604 21.8177L26.2004 22.671H25.6271L25.6671 21.8043H26.1604" fill="#FFFF00"/>
<path d="M26.1604 21.8177L26.2004 22.671H25.6271L25.6671 21.8043H26.1604M25.6004 23.871C25.6004 23.431 25.9071 23.311 25.9071 23.311C25.9071 23.311 26.2137 23.4443 26.2137 23.871H25.6004ZM24.8271 22.671H27.0004C27.0404 22.671 27.0804 22.7243 27.0804 22.7777C27.0804 22.8177 27.0404 22.8577 27.0004 22.8577H24.8271C24.7871 22.8577 24.7471 22.8177 24.7471 22.7643C24.7471 22.7243 24.7871 22.6843 24.8271 22.6843V22.671ZM24.8804 22.871H26.9337C26.9737 22.871 27.0137 22.911 27.0137 22.9643C27.0137 23.0177 26.9737 23.0577 26.9337 23.0577H24.8671C24.8137 23.0577 24.7871 23.0177 24.7871 22.9643C24.7871 22.911 24.8137 22.871 24.8671 22.871H24.8804ZM25.5471 21.4577H25.7071V21.5643H25.8271V21.4577H26.0004V21.5777H26.1204V21.4443H26.2804V21.711C26.2804 21.7643 26.2537 21.791 26.2137 21.791H25.6271C25.5871 21.791 25.5471 21.7643 25.5471 21.7243V21.4577Z" stroke="black" stroke-width="0.0666669"/>
<path d="M25.4669 22.2178V22.6711H24.9336V22.2178H25.4669Z" fill="#FFFF00" stroke="black" stroke-width="0.0666669"/>
<path d="M25.4669 22.2178V22.6711H24.9336V22.2178H25.4669Z" fill="#FFFF00" stroke="black" stroke-width="0.0666669"/>
<path d="M24.8398 21.8711H24.9998V22.0044H25.1198V21.8711H25.2798V22.0044H25.3998V21.8711H25.5598V22.1378C25.5598 22.1911 25.5332 22.2178 25.4932 22.2178H24.9198C24.8986 22.2178 24.8783 22.2093 24.8633 22.1943C24.8483 22.1793 24.8398 22.159 24.8398 22.1378V21.8711Z" fill="#FFFF00" stroke="black" stroke-width="0.0666669"/>
<path d="M24.8398 21.8711H24.9998V22.0044H25.1198V21.8711H25.2798V22.0044H25.3998V21.8711H25.5598V22.1378C25.5598 22.1911 25.5332 22.2178 25.4932 22.2178H24.9198C24.8986 22.2178 24.8783 22.2093 24.8633 22.1943C24.8483 22.1793 24.8398 22.159 24.8398 22.1378V21.8711Z" fill="#FFFF00" stroke="black" stroke-width="0.0666669"/>
<path d="M25.8535 22.0844C25.8535 22.0044 25.9735 22.0044 25.9735 22.0844V22.2977H25.8535V22.0844Z" fill="black"/>
<path d="M25.1465 22.3774C25.1465 22.2974 25.2531 22.2974 25.2531 22.3774V22.5374H25.1465V22.3774Z" fill="black"/>
<path d="M25.1465 22.3774C25.1465 22.2974 25.2531 22.2974 25.2531 22.3774V22.5374H25.1465V22.3774Z" fill="black"/>
<path d="M38.6133 23.9242C38.5999 23.1909 38.0799 23.0176 38.0799 23.0176C38.0666 23.0176 37.5066 23.2042 37.5066 23.9376H38.6133" fill="#FFFF00"/>
<path d="M39.0669 23.0309L39.1603 23.8709H38.6003C38.6003 23.1776 38.0669 23.0709 38.0669 23.0709C38.0536 23.0709 37.5336 23.2176 37.5203 23.8709H36.9603L37.0669 23.0176H39.0669V23.0309ZM39.2003 23.8842H36.9336C36.8936 23.8842 36.8536 23.9242 36.8536 23.9776C36.8536 24.0442 36.8936 24.0842 36.9336 24.0842H39.2003C39.2403 24.0842 39.2803 24.0442 39.2803 23.9776C39.2803 23.9242 39.2403 23.8842 39.1869 23.8842H39.2003Z" fill="#FFFF00" stroke="black" stroke-width="0.0666669"/>
<path d="M38.3732 23.871C38.3732 23.431 38.0666 23.311 38.0666 23.311C38.0666 23.311 37.7599 23.4443 37.7599 23.871H38.3732ZM39.1466 22.671H36.9732C36.9332 22.671 36.8932 22.7243 36.8932 22.7777C36.8932 22.8177 36.9332 22.8577 36.9732 22.8577H39.1466C39.1866 22.8577 39.2266 22.8177 39.2266 22.7643C39.2266 22.7243 39.1866 22.6843 39.1466 22.6843V22.671ZM39.0932 22.871H37.0399C36.9999 22.871 36.9599 22.911 36.9599 22.9643C36.9599 23.0177 36.9999 23.0577 37.0399 23.0577H39.1066C39.1599 23.0577 39.1866 23.0177 39.1866 22.9643C39.1866 22.911 39.1599 22.871 39.1066 22.871H39.0932ZM38.4266 21.4577H38.2666V21.5643H38.1466V21.4577H37.9732V21.5777H37.8532V21.4443H37.6932V21.711C37.6932 21.7643 37.7199 21.791 37.7599 21.791H38.3466C38.3866 21.791 38.4266 21.7643 38.4266 21.7243V21.4577ZM37.8132 21.8177L37.7732 22.671H38.3466L38.3066 21.8043H37.8132" fill="#FFFF00"/>
<path d="M37.8132 21.8177L37.7732 22.671H38.3466L38.3066 21.8043H37.8132M38.3732 23.871C38.3732 23.431 38.0666 23.311 38.0666 23.311C38.0666 23.311 37.7599 23.4443 37.7599 23.871H38.3732ZM39.1466 22.671H36.9732C36.9332 22.671 36.8932 22.7243 36.8932 22.7777C36.8932 22.8177 36.9332 22.8577 36.9732 22.8577H39.1466C39.1866 22.8577 39.2266 22.8177 39.2266 22.7643C39.2266 22.7243 39.1866 22.6843 39.1466 22.6843V22.671ZM39.0932 22.871H37.0399C36.9999 22.871 36.9599 22.911 36.9599 22.9643C36.9599 23.0177 36.9999 23.0577 37.0399 23.0577H39.1066C39.1599 23.0577 39.1866 23.0177 39.1866 22.9643C39.1866 22.911 39.1599 22.871 39.1066 22.871H39.0932ZM38.4266 21.4577H38.2666V21.5643H38.1466V21.4577H37.9732V21.5777H37.8532V21.4443H37.6932V21.711C37.6932 21.7643 37.7199 21.791 37.7599 21.791H38.3466C38.3866 21.791 38.4266 21.7643 38.4266 21.7243V21.4577Z" stroke="black" stroke-width="0.0666669"/>
<path d="M38.5067 22.2178V22.6711H39.04V22.2178H38.5067Z" fill="#FFFF00" stroke="black" stroke-width="0.0666669"/>
<path d="M38.5067 22.2178V22.6711H39.04V22.2178H38.5067Z" fill="#FFFF00" stroke="black" stroke-width="0.0666669"/>
<path d="M39.1338 21.8711H38.9738V22.0044H38.8538V21.8711H38.6938V22.0044H38.5738V21.8711H38.4138V22.1378C38.4138 22.1911 38.4405 22.2178 38.4805 22.2178H39.0538C39.075 22.2178 39.0954 22.2093 39.1104 22.1943C39.1254 22.1793 39.1338 22.159 39.1338 22.1378V21.8711Z" fill="#FFFF00" stroke="black" stroke-width="0.0666669"/>
<path d="M39.1338 21.8711H38.9738V22.0044H38.8538V21.8711H38.6938V22.0044H38.5738V21.8711H38.4138V22.1378C38.4138 22.1911 38.4405 22.2178 38.4805 22.2178H39.0538C39.075 22.2178 39.0954 22.2093 39.1104 22.1943C39.1254 22.1793 39.1338 22.159 39.1338 22.1378V21.8711Z" fill="#FFFF00" stroke="black" stroke-width="0.0666669"/>
<path d="M38.1201 22.0844C38.1201 22.0044 38.0001 22.0044 38.0001 22.0844V22.2977H38.1201V22.0844Z" fill="black"/>
<path d="M38.8271 22.3774C38.8271 22.2974 38.7205 22.2974 38.7205 22.3774V22.5374H38.8271V22.3774Z" fill="black"/>
<path d="M38.8271 22.3774C38.8271 22.2974 38.7205 22.2974 38.7205 22.3774V22.5374H38.8271V22.3774Z" fill="black"/>
<path d="M38.6133 23.9242C38.5999 23.1909 38.0799 23.0176 38.0799 23.0176C38.0666 23.0176 37.5066 23.2042 37.5066 23.9376H38.6133" fill="#FFFF00"/>
<path d="M39.0669 23.0309L39.1603 23.8709H38.6003C38.6003 23.1776 38.0669 23.0709 38.0669 23.0709C38.0536 23.0709 37.5336 23.2176 37.5203 23.8709H36.9603L37.0669 23.0176H39.0669V23.0309ZM39.2003 23.8842H36.9336C36.8936 23.8842 36.8536 23.9242 36.8536 23.9776C36.8536 24.0442 36.8936 24.0842 36.9336 24.0842H39.2003C39.2403 24.0842 39.2803 24.0442 39.2803 23.9776C39.2803 23.9242 39.2403 23.8842 39.1869 23.8842H39.2003Z" fill="#FFFF00" stroke="black" stroke-width="0.0666669"/>
<path d="M38.3732 23.871C38.3732 23.431 38.0666 23.311 38.0666 23.311C38.0666 23.311 37.7599 23.4443 37.7599 23.871H38.3732ZM39.1466 22.671H36.9732C36.9332 22.671 36.8932 22.7243 36.8932 22.7777C36.8932 22.8177 36.9332 22.8577 36.9732 22.8577H39.1466C39.1866 22.8577 39.2266 22.8177 39.2266 22.7643C39.2266 22.7243 39.1866 22.6843 39.1466 22.6843V22.671ZM39.0932 22.871H37.0399C36.9999 22.871 36.9599 22.911 36.9599 22.9643C36.9599 23.0177 36.9999 23.0577 37.0399 23.0577H39.1066C39.1599 23.0577 39.1866 23.0177 39.1866 22.9643C39.1866 22.911 39.1599 22.871 39.1066 22.871H39.0932ZM38.4266 21.4577H38.2666V21.5643H38.1466V21.4577H37.9732V21.5777H37.8532V21.4443H37.6932V21.711C37.6932 21.7643 37.7199 21.791 37.7599 21.791H38.3466C38.3866 21.791 38.4266 21.7643 38.4266 21.7243V21.4577ZM37.8132 21.8177L37.7732 22.671H38.3466L38.3066 21.8043H37.8132" fill="#FFFF00"/>
<path d="M37.8132 21.8177L37.7732 22.671H38.3466L38.3066 21.8043H37.8132M38.3732 23.871C38.3732 23.431 38.0666 23.311 38.0666 23.311C38.0666 23.311 37.7599 23.4443 37.7599 23.871H38.3732ZM39.1466 22.671H36.9732C36.9332 22.671 36.8932 22.7243 36.8932 22.7777C36.8932 22.8177 36.9332 22.8577 36.9732 22.8577H39.1466C39.1866 22.8577 39.2266 22.8177 39.2266 22.7643C39.2266 22.7243 39.1866 22.6843 39.1466 22.6843V22.671ZM39.0932 22.871H37.0399C36.9999 22.871 36.9599 22.911 36.9599 22.9643C36.9599 23.0177 36.9999 23.0577 37.0399 23.0577H39.1066C39.1599 23.0577 39.1866 23.0177 39.1866 22.9643C39.1866 22.911 39.1599 22.871 39.1066 22.871H39.0932ZM38.4266 21.4577H38.2666V21.5643H38.1466V21.4577H37.9732V21.5777H37.8532V21.4443H37.6932V21.711C37.6932 21.7643 37.7199 21.791 37.7599 21.791H38.3466C38.3866 21.791 38.4266 21.7643 38.4266 21.7243V21.4577Z" stroke="black" stroke-width="0.0666669"/>
<path d="M38.5067 22.2178V22.6711H39.04V22.2178H38.5067Z" fill="#FFFF00" stroke="black" stroke-width="0.0666669"/>
<path d="M38.5067 22.2178V22.6711H39.04V22.2178H38.5067Z" fill="#FFFF00" stroke="black" stroke-width="0.0666669"/>
<path d="M39.1338 21.8711H38.9738V22.0044H38.8538V21.8711H38.6938V22.0044H38.5738V21.8711H38.4138V22.1378C38.4138 22.1911 38.4405 22.2178 38.4805 22.2178H39.0538C39.075 22.2178 39.0954 22.2093 39.1104 22.1943C39.1254 22.1793 39.1338 22.159 39.1338 22.1378V21.8711Z" fill="#FFFF00" stroke="black" stroke-width="0.0666669"/>
<path d="M39.1338 21.8711H38.9738V22.0044H38.8538V21.8711H38.6938V22.0044H38.5738V21.8711H38.4138V22.1378C38.4138 22.1911 38.4405 22.2178 38.4805 22.2178H39.0538C39.075 22.2178 39.0954 22.2093 39.1104 22.1943C39.1254 22.1793 39.1338 22.159 39.1338 22.1378V21.8711Z" fill="#FFFF00" stroke="black" stroke-width="0.0666669"/>
<path d="M38.1201 22.0844C38.1201 22.0044 38.0001 22.0044 38.0001 22.0844V22.2977H38.1201V22.0844Z" fill="black"/>
<path d="M38.8271 22.3774C38.8271 22.2974 38.7205 22.2974 38.7205 22.3774V22.5374H38.8271V22.3774Z" fill="black"/>
<path d="M38.8271 22.3774C38.8271 22.2974 38.7205 22.2974 38.7205 22.3774V22.5374H38.8271V22.3774Z" fill="black"/>
<path d="M36.2072 36.5314C36.7182 36.0053 36.4748 35.5141 36.4748 35.5141C36.4654 35.5047 35.9383 35.2388 35.418 35.7556L36.1978 36.5408" fill="#FFFF00"/>
<path d="M37.1605 36.2233L36.6303 36.8814L36.2357 36.484C36.7276 35.9955 36.4275 35.5419 36.4275 35.5419C36.4181 35.5324 35.9476 35.2668 35.4747 35.7177L35.0801 35.3203L35.7607 34.7947L37.17 36.2139L37.1605 36.2233ZM36.649 36.9192L35.0518 35.3108C35.0236 35.2824 34.967 35.2822 34.9292 35.3198C34.8819 35.3668 34.8817 35.4233 34.9099 35.4517L36.5071 37.0601C36.5352 37.0885 36.5918 37.0887 36.6391 37.0417C36.677 37.0041 36.6772 36.9475 36.6396 36.9097L36.649 36.9192Z" fill="#FFFF00" stroke="black" stroke-width="0.0666669"/>
<path d="M36.0762 36.3232C36.3884 36.0131 36.2575 35.711 36.2575 35.711C36.2575 35.711 35.9468 35.5873 35.6441 35.888L36.0762 36.3232ZM37.4726 36.0263L35.9412 34.4842C35.913 34.4558 35.847 34.465 35.8092 34.5026C35.7808 34.5308 35.7806 34.5873 35.8088 34.6157L37.3402 36.1579C37.3684 36.1863 37.4249 36.1865 37.4628 36.1489C37.4912 36.1207 37.4914 36.0641 37.4632 36.0357L37.4726 36.0263ZM37.2931 36.1294L35.8463 34.6724C35.8181 34.644 35.7615 34.6439 35.7237 34.6814C35.6858 34.719 35.6856 34.7756 35.7138 34.804L37.1701 36.2704C37.2077 36.3083 37.2548 36.299 37.2927 36.2614C37.3305 36.2238 37.3401 36.1767 37.3025 36.1389L37.2931 36.1294ZM37.8262 34.6605L37.7135 34.547L37.6378 34.6221L37.5533 34.537L37.6289 34.4618L37.5068 34.3388L37.4217 34.4234L37.3371 34.3382L37.4317 34.2443L37.319 34.1307L37.1298 34.3186C37.0919 34.3562 37.0918 34.3939 37.12 34.4223L37.5334 34.8386C37.5615 34.867 37.6086 34.8766 37.637 34.8484L37.8262 34.6605ZM37.1386 34.479L36.5049 35.0519L36.9089 35.4587L37.4957 34.8196L37.1481 34.4696" fill="#FFFF00"/>
<path d="M37.1386 34.479L36.5049 35.0519L36.9089 35.4587L37.4957 34.8196L37.1481 34.4696M36.0762 36.3232C36.3884 36.0131 36.2575 35.711 36.2575 35.711C36.2575 35.711 35.9468 35.5873 35.6441 35.888L36.0762 36.3232ZM37.4726 36.0263L35.9412 34.4842C35.913 34.4558 35.847 34.465 35.8092 34.5026C35.7808 34.5308 35.7806 34.5873 35.8088 34.6157L37.3402 36.1579C37.3684 36.1863 37.4249 36.1865 37.4628 36.1489C37.4912 36.1207 37.4914 36.0641 37.4632 36.0357L37.4726 36.0263ZM37.2931 36.1294L35.8463 34.6724C35.8181 34.644 35.7615 34.6439 35.7237 34.6814C35.6858 34.719 35.6856 34.7756 35.7138 34.804L37.1701 36.2704C37.2077 36.3083 37.2548 36.299 37.2927 36.2614C37.3305 36.2238 37.3401 36.1767 37.3025 36.1389L37.2931 36.1294ZM37.8262 34.6605L37.7135 34.547L37.6378 34.6221L37.5533 34.537L37.6289 34.4618L37.5068 34.3388L37.4217 34.4234L37.3371 34.3382L37.4317 34.2443L37.319 34.1307L37.1298 34.3186C37.0919 34.3562 37.0918 34.3939 37.12 34.4223L37.5334 34.8386C37.5615 34.867 37.6086 34.8766 37.637 34.8484L37.8262 34.6605Z" stroke="black" stroke-width="0.0666669"/>
<path d="M37.3429 35.2534L37.0213 35.5728L37.3971 35.9513L37.7188 35.6318L37.3429 35.2534Z" fill="#FFFF00" stroke="black" stroke-width="0.0666669"/>
<path d="M37.3429 35.2534L37.0213 35.5728L37.3971 35.9513L37.7188 35.6318L37.3429 35.2534Z" fill="#FFFF00" stroke="black" stroke-width="0.0666669"/>
<path d="M38.0303 35.4531L37.9175 35.3396L37.8229 35.4335L37.7384 35.3484L37.833 35.2544L37.7202 35.1409L37.6256 35.2349L37.5411 35.1497L37.6357 35.0558L37.5229 34.9422L37.3337 35.1301C37.2959 35.1677 37.2957 35.2054 37.3239 35.2338L37.7279 35.6406C37.7429 35.6557 37.7632 35.6642 37.7844 35.6643C37.8056 35.6643 37.826 35.656 37.8411 35.641L38.0303 35.4531Z" fill="#FFFF00" stroke="black" stroke-width="0.0666669"/>
<path d="M38.0303 35.4531L37.9175 35.3396L37.8229 35.4335L37.7384 35.3484L37.833 35.2544L37.7202 35.1409L37.6256 35.2349L37.5411 35.1497L37.6357 35.0558L37.5229 34.9422L37.3337 35.1301C37.2959 35.1677 37.2957 35.2054 37.3239 35.2338L37.7279 35.6406C37.7429 35.6557 37.7632 35.6642 37.7844 35.6643C37.8056 35.6643 37.826 35.656 37.8411 35.641L38.0303 35.4531Z" fill="#FFFF00" stroke="black" stroke-width="0.0666669"/>
<path d="M37.1654 34.8851C37.2222 34.8287 37.1376 34.7435 37.0809 34.7999L36.9295 34.9502L37.0141 35.0354L37.1654 34.8851Z" fill="black"/>
<path d="M37.4545 35.5931C37.5113 35.5367 37.4361 35.461 37.3793 35.5174L37.2658 35.6301L37.341 35.7058L37.4545 35.5931Z" fill="black"/>
<path d="M37.4545 35.5931C37.5113 35.5367 37.4361 35.461 37.3793 35.5174L37.2658 35.6301L37.341 35.7058L37.4545 35.5931Z" fill="black"/>
<path d="M31.0137 30.3238C31.0113 30.6052 31.1162 30.877 31.307 31.0838C31.3961 31.1834 31.5049 31.2633 31.6266 31.3184C31.7483 31.3735 31.8801 31.4026 32.0137 31.4038C32.2937 31.4038 32.547 31.2705 32.7204 31.0838C32.9112 30.877 33.0161 30.6052 33.0137 30.3238V28.8838H31.0137V30.3238Z" fill="#003399"/>
<path d="M31.4803 29.6305C31.5907 29.6305 31.6803 29.5409 31.6803 29.4305C31.6803 29.32 31.5907 29.2305 31.4803 29.2305C31.3698 29.2305 31.2803 29.32 31.2803 29.4305C31.2803 29.5409 31.3698 29.6305 31.4803 29.6305Z" fill="white"/>
<path d="M32.5867 29.6305C32.6972 29.6305 32.7867 29.5409 32.7867 29.4305C32.7867 29.32 32.6972 29.2305 32.5867 29.2305C32.4763 29.2305 32.3867 29.32 32.3867 29.4305C32.3867 29.5409 32.4763 29.6305 32.5867 29.6305Z" fill="white"/>
<path d="M32.0271 30.1637C32.1376 30.1637 32.2271 30.0741 32.2271 29.9637C32.2271 29.8532 32.1376 29.7637 32.0271 29.7637C31.9167 29.7637 31.8271 29.8532 31.8271 29.9637C31.8271 30.0741 31.9167 30.1637 32.0271 30.1637Z" fill="white"/>
<path d="M31.4803 30.7242C31.5907 30.7242 31.6803 30.6347 31.6803 30.5242C31.6803 30.4138 31.5907 30.3242 31.4803 30.3242C31.3698 30.3242 31.2803 30.4138 31.2803 30.5242C31.2803 30.6347 31.3698 30.7242 31.4803 30.7242Z" fill="white"/>
<path d="M32.5867 30.7242C32.6972 30.7242 32.7867 30.6347 32.7867 30.5242C32.7867 30.4138 32.6972 30.3242 32.5867 30.3242C32.4763 30.3242 32.3867 30.4138 32.3867 30.5242C32.3867 30.6347 32.4763 30.7242 32.5867 30.7242Z" fill="white"/>
<path d="M31.0137 30.3238C31.0113 30.6052 31.1162 30.877 31.307 31.0838C31.3961 31.1834 31.5049 31.2633 31.6266 31.3184C31.7483 31.3735 31.8801 31.4026 32.0137 31.4038C32.2937 31.4038 32.547 31.2705 32.7204 31.0838C32.9112 30.877 33.0161 30.6052 33.0137 30.3238V28.8838H31.0137V30.3238Z" fill="#003399"/>
<path d="M31.4803 29.6305C31.5907 29.6305 31.6803 29.5409 31.6803 29.4305C31.6803 29.32 31.5907 29.2305 31.4803 29.2305C31.3698 29.2305 31.2803 29.32 31.2803 29.4305C31.2803 29.5409 31.3698 29.6305 31.4803 29.6305Z" fill="white"/>
<path d="M32.5867 29.6305C32.6972 29.6305 32.7867 29.5409 32.7867 29.4305C32.7867 29.32 32.6972 29.2305 32.5867 29.2305C32.4763 29.2305 32.3867 29.32 32.3867 29.4305C32.3867 29.5409 32.4763 29.6305 32.5867 29.6305Z" fill="white"/>
<path d="M32.0271 30.1637C32.1376 30.1637 32.2271 30.0741 32.2271 29.9637C32.2271 29.8532 32.1376 29.7637 32.0271 29.7637C31.9167 29.7637 31.8271 29.8532 31.8271 29.9637C31.8271 30.0741 31.9167 30.1637 32.0271 30.1637Z" fill="white"/>
<path d="M31.4803 30.7242C31.5907 30.7242 31.6803 30.6347 31.6803 30.5242C31.6803 30.4138 31.5907 30.3242 31.4803 30.3242C31.3698 30.3242 31.2803 30.4138 31.2803 30.5242C31.2803 30.6347 31.3698 30.7242 31.4803 30.7242Z" fill="white"/>
<path d="M32.5867 30.7242C32.6972 30.7242 32.7867 30.6347 32.7867 30.5242C32.7867 30.4138 32.6972 30.3242 32.5867 30.3242C32.4763 30.3242 32.3867 30.4138 32.3867 30.5242C32.3867 30.6347 32.4763 30.7242 32.5867 30.7242Z" fill="white"/>
<path d="M31.0137 30.3238C31.0113 30.6052 31.1162 30.877 31.307 31.0838C31.3961 31.1834 31.5049 31.2633 31.6266 31.3184C31.7483 31.3735 31.8801 31.4026 32.0137 31.4038C32.2937 31.4038 32.547 31.2705 32.7204 31.0838C32.9112 30.877 33.0161 30.6052 33.0137 30.3238V28.8838H31.0137V30.3238Z" fill="#003399"/>
<path d="M31.4803 29.6305C31.5907 29.6305 31.6803 29.5409 31.6803 29.4305C31.6803 29.32 31.5907 29.2305 31.4803 29.2305C31.3698 29.2305 31.2803 29.32 31.2803 29.4305C31.2803 29.5409 31.3698 29.6305 31.4803 29.6305Z" fill="white"/>
<path d="M32.5867 29.6305C32.6972 29.6305 32.7867 29.5409 32.7867 29.4305C32.7867 29.32 32.6972 29.2305 32.5867 29.2305C32.4763 29.2305 32.3867 29.32 32.3867 29.4305C32.3867 29.5409 32.4763 29.6305 32.5867 29.6305Z" fill="white"/>
<path d="M32.0271 30.1637C32.1376 30.1637 32.2271 30.0741 32.2271 29.9637C32.2271 29.8532 32.1376 29.7637 32.0271 29.7637C31.9167 29.7637 31.8271 29.8532 31.8271 29.9637C31.8271 30.0741 31.9167 30.1637 32.0271 30.1637Z" fill="white"/>
<path d="M31.4803 30.7242C31.5907 30.7242 31.6803 30.6347 31.6803 30.5242C31.6803 30.4138 31.5907 30.3242 31.4803 30.3242C31.3698 30.3242 31.2803 30.4138 31.2803 30.5242C31.2803 30.6347 31.3698 30.7242 31.4803 30.7242Z" fill="white"/>
<path d="M32.5867 30.7242C32.6972 30.7242 32.7867 30.6347 32.7867 30.5242C32.7867 30.4138 32.6972 30.3242 32.5867 30.3242C32.4763 30.3242 32.3867 30.4138 32.3867 30.5242C32.3867 30.6347 32.4763 30.7242 32.5867 30.7242Z" fill="white"/>
<path d="M31.0137 30.3238C31.0113 30.6052 31.1162 30.877 31.307 31.0838C31.3961 31.1834 31.5049 31.2633 31.6266 31.3184C31.7483 31.3735 31.8801 31.4026 32.0137 31.4038C32.2937 31.4038 32.547 31.2705 32.7204 31.0838C32.9112 30.877 33.0161 30.6052 33.0137 30.3238V28.8838H31.0137V30.3238Z" fill="#003399"/>
<path d="M31.4803 29.6305C31.5907 29.6305 31.6803 29.5409 31.6803 29.4305C31.6803 29.32 31.5907 29.2305 31.4803 29.2305C31.3698 29.2305 31.2803 29.32 31.2803 29.4305C31.2803 29.5409 31.3698 29.6305 31.4803 29.6305Z" fill="white"/>
<path d="M32.5867 29.6305C32.6972 29.6305 32.7867 29.5409 32.7867 29.4305C32.7867 29.32 32.6972 29.2305 32.5867 29.2305C32.4763 29.2305 32.3867 29.32 32.3867 29.4305C32.3867 29.5409 32.4763 29.6305 32.5867 29.6305Z" fill="white"/>
<path d="M32.0271 30.1637C32.1376 30.1637 32.2271 30.0741 32.2271 29.9637C32.2271 29.8532 32.1376 29.7637 32.0271 29.7637C31.9167 29.7637 31.8271 29.8532 31.8271 29.9637C31.8271 30.0741 31.9167 30.1637 32.0271 30.1637Z" fill="white"/>
<path d="M31.4803 30.7242C31.5907 30.7242 31.6803 30.6347 31.6803 30.5242C31.6803 30.4138 31.5907 30.3242 31.4803 30.3242C31.3698 30.3242 31.2803 30.4138 31.2803 30.5242C31.2803 30.6347 31.3698 30.7242 31.4803 30.7242Z" fill="white"/>
<path d="M32.5867 30.7242C32.6972 30.7242 32.7867 30.6347 32.7867 30.5242C32.7867 30.4138 32.6972 30.3242 32.5867 30.3242C32.4763 30.3242 32.3867 30.4138 32.3867 30.5242C32.3867 30.6347 32.4763 30.7242 32.5867 30.7242Z" fill="white"/>
<path d="M31.0137 30.3238C31.0113 30.6052 31.1162 30.877 31.307 31.0838C31.3961 31.1834 31.5049 31.2633 31.6266 31.3184C31.7483 31.3735 31.8801 31.4026 32.0137 31.4038C32.2937 31.4038 32.547 31.2705 32.7204 31.0838C32.9112 30.877 33.0161 30.6052 33.0137 30.3238V28.8838H31.0137V30.3238Z" fill="#003399"/>
<path d="M31.4803 29.6305C31.5907 29.6305 31.6803 29.5409 31.6803 29.4305C31.6803 29.32 31.5907 29.2305 31.4803 29.2305C31.3698 29.2305 31.2803 29.32 31.2803 29.4305C31.2803 29.5409 31.3698 29.6305 31.4803 29.6305Z" fill="white"/>
<path d="M32.5867 29.6305C32.6972 29.6305 32.7867 29.5409 32.7867 29.4305C32.7867 29.32 32.6972 29.2305 32.5867 29.2305C32.4763 29.2305 32.3867 29.32 32.3867 29.4305C32.3867 29.5409 32.4763 29.6305 32.5867 29.6305Z" fill="white"/>
<path d="M32.0271 30.1637C32.1376 30.1637 32.2271 30.0741 32.2271 29.9637C32.2271 29.8532 32.1376 29.7637 32.0271 29.7637C31.9167 29.7637 31.8271 29.8532 31.8271 29.9637C31.8271 30.0741 31.9167 30.1637 32.0271 30.1637Z" fill="white"/>
<path d="M31.4803 30.7242C31.5907 30.7242 31.6803 30.6347 31.6803 30.5242C31.6803 30.4138 31.5907 30.3242 31.4803 30.3242C31.3698 30.3242 31.2803 30.4138 31.2803 30.5242C31.2803 30.6347 31.3698 30.7242 31.4803 30.7242Z" fill="white"/>
<path d="M32.5867 30.7242C32.6972 30.7242 32.7867 30.6347 32.7867 30.5242C32.7867 30.4138 32.6972 30.3242 32.5867 30.3242C32.4763 30.3242 32.3867 30.4138 32.3867 30.5242C32.3867 30.6347 32.4763 30.7242 32.5867 30.7242Z" fill="white"/>
</g>
<defs>
<clipPath id="clip0_3736_61792">
<rect width="80" height="60" fill="white"/>
</clipPath>
</defs>
</svg>
