<svg width="80" height="60" viewBox="0 0 80 60" fill="none" xmlns="http://www.w3.org/2000/svg">
<g clip-path="url(#clip0_3736_61832)">
<path d="M0 0H80V60H0V0Z" fill="#20603D"/>
<path d="M0 0H80V45H0V0Z" fill="#FAD201"/>
<path d="M0 0H80V30H0V0Z" fill="#00A1DE"/>
<path d="M73.5504 15.6751L66.8503 16.0668L73.217 18.1835L66.6503 16.8251L72.2587 20.5085L66.2587 17.4918L70.7087 22.5168L65.7003 18.0585L68.717 24.0585L65.0253 18.4501L66.3753 25.0085L64.267 18.6501L63.8753 25.3502L63.792 15.5918L73.5504 15.6751Z" fill="#E5BE01"/>
<path d="M73.5504 15.6755L66.8503 15.2838L73.217 13.1671L66.6503 14.5254L72.2587 10.8421L66.2587 13.8588L70.7087 8.83376L65.7003 13.2921L68.717 7.29208L65.0253 12.9004L66.3753 6.34208L64.267 12.7004L63.8753 6.00041L63.792 15.7588L73.5504 15.6755Z" fill="#E5BE01"/>
<path d="M54.2006 15.6751L60.9006 16.0668L54.5339 18.1835L61.1006 16.8251L55.4923 20.5085L61.4923 17.4918L57.0423 22.5168L62.0506 18.0585L59.034 24.0585L62.7256 18.4501L61.3756 25.0085L63.484 18.6501L63.8757 25.3502L63.959 15.5918L54.2006 15.6751Z" fill="#E5BE01"/>
<path d="M54.2006 15.6755L60.9006 15.2838L54.5339 13.1671L61.1006 14.5254L55.4923 10.8421L61.4923 13.8588L57.0423 8.83376L62.0506 13.2921L59.034 7.29208L62.7256 12.9004L61.3756 6.34208L63.484 12.7004L63.8757 6.00041L63.959 15.7588L54.2006 15.6755Z" fill="#E5BE01"/>
<path d="M63.8749 18.5331C65.4536 18.5331 66.7333 17.2534 66.7333 15.6748C66.7333 14.0961 65.4536 12.8164 63.8749 12.8164C62.2963 12.8164 61.0166 14.0961 61.0166 15.6748C61.0166 17.2534 62.2963 18.5331 63.8749 18.5331Z" fill="#E5BE01" stroke="#00A1DE" stroke-width="0.283335"/>
</g>
<defs>
<clipPath id="clip0_3736_61832">
<rect width="80" height="60" fill="white"/>
</clipPath>
</defs>
</svg>
