<svg width="80" height="60" viewBox="0 0 80 60" fill="none" xmlns="http://www.w3.org/2000/svg">
<g clip-path="url(#clip0_3736_61908)">
<path d="M80 60V0H0V60H80Z" fill="#000066"/>
<path d="M71.8123 24.9629C71.8123 32.9254 70.5373 41.5254 60.1873 45.6254C49.8623 41.5254 48.5998 32.9254 48.5498 24.9629H71.8123Z" fill="#8FC5FF" stroke="white" stroke-width="0.5375"/>
<path d="M60.1752 45.588C64.1097 44.2104 67.3898 41.4161 69.3752 37.7505H68.4002C68.1127 37.7005 58.4752 36.7755 57.3127 36.288C56.3252 35.938 52.5127 36.6255 50.7627 37.263C52.6958 41.1602 56.0795 44.1445 60.1877 45.5755L60.1752 45.588Z" fill="#366CC9" stroke="black" stroke-width="0.5375"/>
<path d="M52.95 40.6999H53.5375C53.675 40.6999 53.675 40.6999 53.725 40.5499C53.775 40.3999 53.925 40.4499 54.025 40.4999C54.1125 40.5499 54.3125 40.4999 54.4 40.3999C54.5125 40.2999 54.5125 40.2999 54.6125 40.3999C54.7 40.4999 54.75 40.4499 54.8625 40.3999C54.9 40.3999 55.1 40.2999 55.15 40.1499C55.1875 40.0124 55.3375 39.9624 55.4 40.0624C55.4375 40.1624 55.525 40.1624 55.6375 40.1624C55.725 40.1624 55.725 40.1999 55.725 40.3499C55.725 40.4499 55.725 40.4999 55.975 40.2999C56.175 40.4999 56.225 40.3999 56.225 40.1999C56.225 40.0124 56.225 39.2249 56.125 39.1749C56.025 39.1249 55.975 38.7874 55.925 38.5499C55.925 38.0499 55.925 38.0499 55.4375 37.7999C55.4375 37.6749 55.3375 37.6124 54.9375 37.6124C55 37.5624 54.9375 37.4249 54.85 37.3624C54.75 37.3249 54.75 37.2749 54.85 37.0749C54.95 37.0749 55.15 37.0749 55.1875 36.9249C55.2875 36.8374 55.5875 36.8374 55.775 36.9249C55.975 37.0249 56.175 37.0249 56.5125 36.9249L57.1 36.6374C57.35 36.4874 57.3875 36.4374 57.3875 36.2499C57.3875 35.7499 57.25 35.2749 57.1375 35.0249C57.0125 34.7749 57.0125 34.5249 56.8 34.0999C56.6125 33.6999 56.6125 33.5999 56.425 33.3624C56.3125 33.2624 56.2625 33.2124 56.2625 33.0749C56.248 32.8818 56.1582 32.7023 56.0125 32.5749C55.6375 32.2374 55.5375 31.1124 55.3375 30.2874C55.2375 29.7874 55.3375 28.6624 55.15 28.4749C54.8 28.2249 54.65 28.2749 54.4 28.1874C54.2125 27.9374 54.1625 27.4999 53.975 27.0624C53.725 27.1124 53.575 27.3499 53.4375 27.4374C53.2875 27.5499 53.2375 27.5499 53.2375 27.7874C53.2375 27.9874 53.0875 28.2874 52.9 28.6624C52.7 29.0624 52.2625 28.9124 51.9125 29.4499C51.2375 28.6249 51.2375 28.3749 51.1875 28.1374C51.1875 27.8874 51.0375 27.8374 50.65 27.4999V26.7499C50.3 26.4999 50.1125 26.5624 49.9625 26.7499C49.8125 26.8999 49.7125 27.1374 49.475 27.2499C49.375 27.4374 48.975 27.8249 48.6875 28.3749C48.9875 32.7624 49.9625 37.1624 52.9375 40.6874L52.95 40.6999Z" fill="#5D3100" stroke="black" stroke-width="0.05"/>
<path d="M71.8123 24.9623C71.8123 21.9248 71.6623 18.9873 71.7123 16.4623C68.0354 15.0324 64.1198 14.3155 60.1748 14.3498C57.5873 14.3498 52.4998 14.7373 48.6498 16.4498C48.7373 18.9873 48.5498 21.9248 48.5498 24.9498L71.8123 24.9623Z" fill="#FFFF00" stroke="white" stroke-width="0.5375"/>
<path d="M49.1875 28.4254C49.3125 28.6254 49.55 28.9629 49.5625 29.1754C49.6625 28.9754 49.7375 28.9004 49.75 28.7879C49.75 28.6629 49.9125 28.4504 49.85 28.3254C49.8 28.2004 49.7625 28.1129 49.9 28.2004C50.0375 28.2879 50.0125 28.4504 49.9875 28.6754C49.9 29.3004 49.65 29.4254 49.6125 29.8379C49.975 30.7129 49.7 31.0379 50.1125 31.9129C50.175 31.9379 50.3375 31.8754 50.3875 31.8879C50.6125 31.7379 50.7625 31.7754 51.075 31.8504C51.375 31.9129 51.5375 32.1254 51.5375 32.3254C51.5375 32.5254 51.5375 32.5629 51.6125 32.6754C51.675 32.7754 51.7875 32.9629 51.775 33.1004C51.7375 33.2254 51.7875 33.3004 51.8375 33.3504C51.875 33.4129 51.8125 33.5754 51.7875 33.6504C51.75 33.7254 51.7625 33.8629 51.9125 34.0504C52.0625 34.2379 52.4125 35.0379 52.4125 35.5004C52.4125 35.9879 52.45 36.2004 52.6375 36.2879C52.825 36.3754 52.8875 36.4504 52.8625 36.6504C52.8375 36.8379 52.95 37.9004 52.975 38.0754C52.9875 38.2379 53.0625 38.2004 53.15 38.2879C53.225 38.3754 53.275 38.4754 53.525 38.4754C53.7875 38.4754 54.025 38.4504 54.175 38.4754C54.425 38.7879 54.55 39.2254 54.6125 39.4879C54.675 39.7629 54.6625 40.1129 54.7375 40.1129C54.8375 40.1129 54.925 40.1129 54.9 39.8004C54.875 39.4754 54.85 39.4254 54.7375 39.2504C54.6125 39.0879 54.55 39.0004 54.6125 38.9129C54.675 38.8129 54.6875 38.6629 54.675 38.5254C54.65 38.4004 54.6 38.2004 54.825 38.4504L55.1625 38.8629C55.225 38.9379 55.25 39.1129 55.2375 39.2754C55.225 39.4254 55.2375 39.4879 55.35 39.4004C55.4375 39.3254 55.5375 39.4629 55.475 39.6254C55.4375 39.7879 55.5125 39.8879 55.6625 39.9504C55.8125 40.0004 55.875 40.0379 55.9125 40.1504C55.95 40.2504 56.075 40.3129 56.075 40.0754C56.0627 39.7826 56.0122 39.4927 55.925 39.2129C55.8625 39.0629 55.8125 38.7379 55.8 38.5379C55.775 38.3504 55.75 38.3004 55.6625 38.2754C55.575 38.2379 55.4875 38.1504 55.475 38.0754C55.475 37.9879 55.3875 37.9504 55.3375 37.9504C55.275 37.9504 55.225 37.9129 55.1875 37.8504C55.1625 37.7754 55.125 37.7754 55.0625 37.7754C55 37.7629 54.9 37.8004 54.8625 37.7004C54.8375 37.6004 54.7875 37.4504 54.725 37.3754C54.6625 37.3004 54.6125 37.2629 54.6 36.9754C54.6 36.6879 54.6 36.6504 54.5 36.5504C54.4 36.4504 54.25 36.1754 54.1875 36.0754C54.1375 35.9504 54.0625 35.8379 54.0625 36.0754C54.0625 36.3254 54.0625 36.4504 54.225 36.5379C54.375 36.6254 54.4125 36.6254 54.35 36.7629C54.275 36.8879 54.35 36.9754 54.375 37.0629C54.4125 37.1504 54.45 37.2379 54.375 37.3129C54.3 37.4129 54.225 37.3879 54.2375 37.2504C54.2381 37.1053 54.1992 36.9627 54.125 36.8379C54.075 36.7129 54.0125 36.6379 53.9375 36.7129C53.8625 36.7629 53.8 36.6879 53.85 36.6379C53.9125 36.5879 53.8875 36.5504 53.85 36.5129C53.825 36.4879 53.8 36.4379 53.8625 36.3629C53.925 36.2879 53.925 36.2504 53.8875 36.0754C53.85 35.9004 53.575 35.0004 53.45 34.8004C53.325 34.5879 53.3375 34.4504 53.4875 34.6379C53.65 34.8379 53.8 35.0129 53.825 35.1879C53.825 35.3629 53.8625 35.4629 53.9125 35.5129C53.975 35.5754 54 35.5629 54.0375 35.4129C54.0375 35.2754 54.1625 35.3254 53.9875 35.0629C53.8 34.8004 53.475 34.3504 53.3375 33.5379C53.2125 32.7379 53.1625 32.2254 53.0375 32.0129C52.9125 31.7879 52.875 31.7379 52.8625 31.5379C52.85 31.3379 52.8625 31.1254 52.775 30.9754C52.6875 30.8254 52.625 30.8004 52.6125 31.0254C52.6 31.2504 52.6125 31.7754 52.6875 31.8504C52.7625 31.9379 52.7125 32.1754 52.6875 32.2879C52.6625 32.4129 52.475 32.5504 52.9 32.8004C53.0625 32.9129 53.025 33.0504 53.025 33.1254C52.9875 33.2254 52.9625 33.2129 52.875 33.0754C52.7875 32.9379 52.7 32.8129 52.6125 32.7504C52.525 32.6879 52.5 32.6254 52.525 32.4379C52.55 32.2504 52.5625 32.1254 52.525 32.0629C52.475 32.0129 52.45 32.0504 52.4125 32.1629C52.3875 32.2629 52.375 32.5379 52.3 32.6129C52.2375 32.6879 52.2375 32.6379 52.2 32.4754C52.15 32.3129 52.2125 32.0504 52.3 31.7629C52.3875 31.4879 52.45 31.1629 52.375 30.7879C52.3 30.4129 52.325 30.2879 52.05 29.9754C51.75 29.6504 51.4125 29.3504 51.2875 28.9629C51.1375 28.5629 51.1125 28.2129 50.95 28.0379C50.8093 27.8579 50.6405 27.7017 50.45 27.5754V26.9879C50.45 26.8379 50.3875 26.7629 50.225 26.7879C50.0625 26.8129 49.95 26.9504 49.85 27.1379C49.75 27.3379 49.675 27.2504 49.525 27.5754C49.375 27.9004 49.2 28.0754 49.2 28.4254H49.1875Z" fill="#CF6200"/>
<path d="M50.0999 32.1372C50.2249 32.2122 50.3124 32.2497 50.4749 32.1747C50.6124 32.0997 50.7874 31.8747 51.0124 32.0997C51.2024 32.3379 51.308 32.6325 51.3124 32.9372C51.3124 33.2247 51.3124 33.7497 51.6374 34.0372C51.9624 34.3247 52.1249 34.6372 52.1374 35.0122C52.1635 35.3915 52.222 35.7679 52.3124 36.1372C52.3624 36.2872 52.4374 36.4622 52.5499 36.5747C52.6374 36.6747 52.7249 36.9622 52.7374 37.2622C52.7499 37.5747 52.6999 37.7747 52.7374 37.9372C52.7874 38.0872 52.7374 38.2122 52.6374 38.1497C52.5124 38.0872 52.4874 38.0247 52.4124 37.8997C52.3374 37.7747 52.2874 37.7872 52.3499 37.9872C52.4124 38.1872 52.5999 38.3622 52.7624 38.3622C52.9249 38.3622 52.9749 38.3747 53.0874 38.4872C53.1874 38.5872 53.1999 38.6372 53.3749 38.6372C53.5499 38.6372 53.5749 38.6372 53.7499 38.6872C53.9124 38.7247 53.9124 38.7122 53.9999 38.6872C54.0874 38.6497 54.1749 38.7372 54.2374 38.8997C54.2874 39.0622 54.4499 39.5247 54.4499 39.6497C54.4499 39.7747 54.4499 39.8997 54.5374 40.0247C54.6249 40.1622 54.5999 40.2747 54.4999 40.2122C54.4124 40.1372 54.3999 40.1497 54.3374 40.1747C54.2624 40.1997 54.2124 40.1497 54.0999 40.0747C53.9999 40.0247 54.0624 40.0372 53.9624 39.8872C53.8624 39.7247 53.7999 39.6747 53.7999 39.7997C53.7999 39.9247 53.7749 40.0497 53.6999 39.9747C53.6249 39.9122 53.5874 39.9122 53.5249 39.9747C53.4624 40.0497 53.4374 40.0997 53.3624 39.9747C53.2874 39.8497 53.1999 39.8497 53.1124 39.8122C53.0499 39.7997 53.0499 39.7997 53.0124 39.6872C52.9749 39.5622 52.8499 39.5372 52.7624 39.5372C52.6499 39.5372 52.5999 39.4872 52.5874 39.4122C52.5874 39.3372 52.5124 39.2872 52.4624 39.2497C52.3999 39.2122 52.4374 39.1247 52.4249 39.0372C52.4249 38.9497 52.3374 38.9747 52.2874 38.9622C52.2249 38.9372 52.1999 38.9497 52.1999 38.8122C52.1999 38.6872 52.1374 38.6497 52.1124 38.5622C52.0624 38.4622 52.1124 38.3747 52.1374 38.2872C52.1499 38.1622 52.1374 38.1122 52.0624 38.0372C51.9874 37.9372 52.0624 37.8497 51.8499 37.6622C51.6374 37.4997 51.5374 37.6497 51.4749 37.2372C51.439 36.7509 51.3381 36.2716 51.1749 35.8122C51.0499 35.6872 50.9874 35.5622 50.8624 35.5247C50.7374 35.4872 50.6874 35.5247 50.6749 35.2747C50.6624 35.0247 50.5874 34.7247 50.4249 34.5747L50.1374 34.2997C50.0624 34.2497 50.0249 34.1247 50.1374 33.9247C50.2499 33.6997 50.1999 33.3997 50.1874 33.2622C50.1749 33.1372 50.1374 32.9372 50.1624 32.7872C50.1874 32.6372 50.1624 32.4497 50.1374 32.3497C50.0999 32.2622 50.0499 32.2247 50.1124 32.1372H50.0999ZM53.1624 28.5372C52.9963 28.7571 52.7983 28.9509 52.5749 29.1122C52.3374 29.2872 52.0374 29.4122 52.1999 29.6997C52.3749 29.9872 52.5124 30.0247 52.5374 30.2372C52.5749 30.4622 52.6374 30.6497 52.7874 30.6997C52.9749 30.7497 53.0374 30.7247 53.0374 31.0747C53.0374 31.4122 53.0374 31.5747 53.1874 31.6997C53.3374 31.8247 53.3124 31.9747 53.3874 32.2872C53.4624 32.6122 53.4624 33.3122 53.6624 33.7872C53.8499 34.2497 54.3249 35.1622 54.2624 35.3372C54.2124 35.5247 54.1624 35.6622 54.3499 35.8872C54.5624 36.0997 54.6874 36.4247 54.7249 36.6122C54.7249 36.7997 54.7624 36.8622 54.9749 36.7997C55.1135 36.7648 55.2393 36.6911 55.3374 36.5872C55.3999 36.4997 55.5374 36.5122 55.7249 36.6122C55.9124 36.7247 56.1999 36.8122 56.3749 36.7247C56.5374 36.6122 56.6249 36.4622 56.7749 36.4622C57.0124 36.2872 57.0999 35.9372 57.1499 35.8372C57.1999 35.7372 57.1624 35.7372 57.0624 35.6372C56.9624 35.5372 57.0124 35.3622 56.9999 35.1997C56.9749 35.0247 56.9124 34.7622 56.7124 34.3872C56.5124 34.0122 56.3749 33.5622 56.2499 33.4497C56.1249 33.3247 56.0499 33.0372 56.0374 32.8997C56.0249 32.7747 55.8624 32.6497 55.7624 32.5497C55.6499 32.4372 55.5624 32.2997 55.4374 31.6997C55.3124 31.1122 55.2374 30.6997 55.2374 30.5747C55.2374 30.4747 55.2124 30.4747 55.1124 30.4247C55.0124 30.3872 54.9624 30.2247 55.0124 30.1497C55.0249 30.0622 54.9624 29.9747 54.9249 29.8747C54.8999 29.7747 54.9249 29.5872 54.9999 29.4747C55.0624 29.3747 55.0499 29.0997 54.9874 28.8497C54.9249 28.6247 54.8499 28.4247 54.5749 28.3747C54.3124 28.3497 54.2499 28.2747 54.1624 28.0497C54.0374 27.8372 53.9374 27.4497 53.9124 27.3622C53.8874 27.2747 53.8249 27.2622 53.6249 27.4372C53.4249 27.5997 53.3499 27.6497 53.3499 27.9747C53.3499 28.1872 53.3999 28.2497 53.4624 28.3622C53.5249 28.4872 53.5499 28.5247 53.5874 28.8372C53.6374 29.1497 53.9249 29.6622 53.5624 29.9622C53.1874 30.2372 53.2374 30.3122 53.2499 30.5122C53.2749 30.7247 53.1499 30.8497 53.0874 30.5747C53.0124 30.2747 53.0874 30.1122 53.2874 29.9747C53.4874 29.8497 53.6749 29.6622 53.5374 29.4747C53.4174 29.2147 53.3454 28.9352 53.3249 28.6497C53.3124 28.4497 53.2874 28.3747 53.1624 28.5372Z" fill="#CF6200"/>
<path d="M50.1496 32.8499L50.1871 33.2624C50.1871 33.3999 50.2371 33.6999 50.1246 33.9124C50.0246 34.1249 50.0496 34.2374 50.1246 34.2999H50.1371C50.3496 34.2374 50.3871 34.0124 50.3246 33.8999C50.2977 33.8401 50.2859 33.7747 50.2903 33.7093C50.2946 33.6439 50.315 33.5806 50.3495 33.5249C50.412 33.3999 50.412 33.3374 50.3495 33.2499C50.287 33.1624 50.287 33.1624 50.3495 32.9249C50.4245 32.7124 50.2621 32.7124 50.1496 32.8499ZM52.3246 36.1374C52.2871 35.9874 52.1371 35.3874 52.1371 35.0124C52.1246 34.6374 51.9496 34.3249 51.6371 34.0374C51.3871 33.8124 51.3371 33.4499 51.3121 33.1624C51.1246 33.0499 51.0621 33.0999 51.0746 33.3124C51.0746 33.5374 51.3245 33.6374 51.287 33.9749C51.2495 34.2999 51.2495 34.2249 51.412 34.3874C51.5495 34.5374 51.6245 34.7124 51.537 34.7624C51.4495 34.8249 51.4496 34.9499 51.5621 34.9874C51.6871 35.0374 51.687 35.1624 51.6745 35.2874C51.662 35.3999 51.7871 35.4249 51.8371 35.4999C51.9121 35.5874 51.9121 35.7999 51.8371 35.9124C51.7871 36.0374 51.7746 36.2249 51.8871 36.1249C52.0121 36.0124 52.0621 36.1249 52.1496 36.2749C52.2246 36.3999 52.2996 36.3624 52.3996 36.3374C52.3636 36.2739 52.3343 36.2069 52.3121 36.1374H52.3246ZM53.9496 39.0874C53.8996 39.2374 53.812 39.1999 53.737 39.1249C53.662 39.0499 53.5745 39.0499 53.612 38.8999C53.637 38.7624 53.6121 38.7374 53.5246 38.6624L53.487 38.6249H53.3871C53.1996 38.6249 53.1871 38.5874 53.0746 38.4749C53.0545 38.4573 53.0337 38.4406 53.0121 38.4249V38.5249C53.0121 38.6624 53.0121 38.6249 52.8871 38.6749C52.7621 38.7124 52.762 38.5374 52.737 38.4249C52.7351 38.3996 52.7309 38.3745 52.7245 38.3499C52.6347 38.3299 52.5522 38.2854 52.486 38.2214C52.4199 38.1575 52.3726 38.0765 52.3495 37.9874C52.287 37.7874 52.3495 37.7749 52.4245 37.8999C52.4995 38.0249 52.5121 38.0624 52.6246 38.1499C52.7246 38.2124 52.7745 38.0874 52.7245 37.9374C52.7178 37.8835 52.7178 37.8289 52.7245 37.7749C52.7058 37.7234 52.6707 37.6795 52.6246 37.6499C52.3996 37.5624 52.4745 37.5499 52.4745 37.3749C52.4995 37.2124 52.4621 37.2124 52.3246 37.2999C52.1996 37.3874 52.1996 37.2999 52.1996 37.0249C52.1996 36.7749 52.0245 36.7749 51.987 36.9499C51.9495 37.1374 51.8746 37.0124 51.8121 36.7624C51.7496 36.5124 51.6246 36.4374 51.6246 36.6874C51.6246 36.8999 51.5495 36.9374 51.4245 36.8374L51.4745 37.2249C51.537 37.6374 51.637 37.4749 51.8495 37.6624C52.0495 37.8374 51.9871 37.9374 52.0621 38.0249C52.1371 38.1124 52.1496 38.1749 52.1371 38.2749C52.0996 38.3749 52.062 38.4624 52.0995 38.5499C52.137 38.6499 52.1996 38.6749 52.1996 38.8124C52.1996 38.9374 52.2245 38.9249 52.287 38.9624H52.3871L52.4745 38.8374C52.637 38.6874 52.8496 38.8374 52.9371 39.0499C53.0121 39.2374 53.0995 39.2874 53.2245 39.1249C53.3495 38.9749 53.2995 38.9999 53.4245 39.1374C53.5495 39.2874 53.5995 39.2624 53.5995 39.2624C53.5995 39.2624 53.7246 39.2124 53.8246 39.2874C53.9121 39.3624 53.9496 39.3499 54.1246 39.1124C54.2871 38.8624 54.0495 38.9374 53.9745 39.0874H53.9496ZM54.4245 32.1124C54.4745 31.7374 54.4371 31.3749 54.5871 31.2374C54.7496 31.1124 54.9245 30.8249 54.9245 31.4124C54.8995 31.9874 54.8746 31.9499 54.7621 32.0874C54.6371 32.2249 54.5371 32.2624 54.6371 32.4749C54.7746 32.6874 54.7871 32.7249 54.7746 33.0499C54.7621 33.3874 54.7621 33.5374 54.8871 33.6999C55.0246 33.8749 55.062 33.8749 55.0995 34.0749C55.1388 34.289 55.2437 34.4855 55.3996 34.6374C55.5496 34.7874 55.7245 35.1624 55.737 35.4374C55.762 35.7124 55.9871 35.7749 56.2121 35.9749C56.4371 36.1624 56.1621 36.2874 55.9996 36.1999C55.8246 36.1249 55.887 36.1999 55.787 36.3249C55.687 36.4499 55.6621 36.4624 55.5746 36.2499C55.4871 36.0499 55.1996 35.9124 55.0621 35.8624C54.9246 35.8124 54.8121 35.5874 54.6871 35.3624C54.6369 35.2739 54.5667 35.1983 54.482 35.1419C54.3973 35.0854 54.3006 35.0496 54.1996 35.0374C54.2496 35.1749 54.2746 35.2874 54.2621 35.3374C54.2121 35.5249 54.162 35.6624 54.3495 35.8874C54.562 36.0999 54.687 36.4249 54.7245 36.6124C54.7245 36.7999 54.762 36.8624 54.9745 36.7999C55.1105 36.7587 55.2347 36.6859 55.3371 36.5874C55.3996 36.4999 55.537 36.4999 55.7245 36.6124C55.912 36.7124 56.1996 36.8124 56.3746 36.7124C56.5371 36.5999 56.6246 36.4624 56.7746 36.4624C57.0121 36.2874 57.0996 35.9249 57.1496 35.8374C57.1996 35.7124 57.1621 35.7124 57.0621 35.6249C56.9621 35.5249 57.012 35.3499 56.987 35.1874C56.987 35.0124 56.9121 34.7624 56.7121 34.3874C56.4996 34.0124 56.3746 33.5624 56.2496 33.4499C56.1246 33.3249 56.037 33.0374 56.037 32.8999C56.012 32.7749 55.8621 32.6499 55.7621 32.5374C55.6496 32.4374 55.5496 32.2874 55.4371 31.6999C55.3496 31.2374 55.2621 30.8749 55.2496 30.6999C55.1246 30.8874 55.0371 30.9499 54.9996 30.7999C54.9371 30.6499 54.8871 30.5749 54.8121 30.6749C54.7496 30.7749 54.7245 30.5749 54.7245 30.4874C54.7245 30.3999 54.7245 30.3999 54.612 30.3999C54.512 30.3999 54.6121 30.2749 54.5746 29.9999C54.5371 29.7499 54.4871 29.7249 54.4621 30.0249C54.4246 30.3249 54.2496 30.5249 54.3246 30.5749C54.3871 30.6499 54.3495 30.7874 54.287 30.9874C54.2323 31.1324 54.2323 31.2924 54.287 31.4374C54.337 31.5624 54.262 31.8374 54.237 32.0499C54.1995 32.2624 54.3745 32.4874 54.4245 32.1249V32.1124ZM51.3246 29.0874C51.1996 29.0874 51.1121 29.2124 51.1871 29.5874C51.2371 29.8374 51.062 29.7874 50.987 29.6624C50.9245 29.5374 50.862 29.2874 50.737 29.0749C50.5995 28.8624 50.6621 29.2124 50.6496 29.4249C50.6246 29.6374 50.7621 29.6374 50.8746 29.7999C50.9996 29.9749 50.8996 30.0374 50.7746 30.0374C50.6496 30.0374 50.687 30.3124 50.7245 30.4874C50.762 30.6749 50.687 30.7124 50.5995 30.5624C50.4745 30.3999 50.5621 30.1874 50.5746 29.8874C50.5996 29.5999 50.612 29.6624 50.4245 29.5999C50.237 29.5249 50.262 29.4874 50.3495 29.3249C50.412 29.1499 50.4746 29.0749 50.3871 28.9874C50.3121 28.8999 50.3246 28.8499 50.4621 28.8374C50.5871 28.8124 50.537 28.7124 50.662 28.6874C50.787 28.6499 50.837 28.6874 50.8495 28.4749C50.862 28.2874 50.9246 28.1874 51.0621 28.2374C51.1496 28.5249 51.2496 28.9624 51.3246 29.0874ZM53.037 31.0874C53.037 31.4374 53.0371 31.5874 53.1871 31.7124C53.3371 31.8374 53.3121 31.9874 53.3871 32.2999C53.4621 32.6249 53.462 33.3249 53.662 33.7999L53.8871 34.2999C53.9928 34.2108 54.078 34.0999 54.1371 33.9749C54.1746 33.8749 54.0245 33.6249 53.912 33.4374C53.787 33.2124 53.9245 33.1499 54.037 32.8874C54.162 32.6499 54.0371 32.6374 53.8371 32.5624C53.6621 32.4999 53.6621 32.3124 53.5621 32.0499C53.4621 31.7749 53.4745 31.6624 53.537 31.4999C53.5995 31.3499 53.562 31.2374 53.4245 31.1999C53.287 31.1624 53.3246 31.0749 53.3746 30.8999C53.4246 30.7374 53.4621 30.6999 53.2496 30.7374C53.0996 30.7874 53.0621 30.8249 53.0121 30.8624L53.037 31.0874Z" fill="#00B800"/>
<path d="M54.9873 31.7872C54.9623 31.9872 54.9623 32.0997 54.9123 32.1622C54.8623 32.2247 54.8998 32.3247 54.9498 32.4372C55.0123 32.5372 55.0248 32.6622 54.9873 32.8622C54.9373 33.0497 55.0123 33.1872 55.1123 33.2372C55.2123 33.2872 55.2623 33.2372 55.2373 33.4872C55.2267 33.5948 55.2402 33.7034 55.277 33.8051C55.3138 33.9067 55.3728 33.9989 55.4498 34.0747C55.5748 34.1747 55.6623 34.3372 55.6373 34.4497C55.6373 34.5497 55.7248 34.6372 55.8498 34.6997C55.9748 34.7497 55.9498 34.7622 55.9498 34.8247C55.9498 34.8872 55.9998 34.8997 56.1248 34.9372C56.2498 34.9747 56.3748 35.0497 56.5248 35.2372C56.6748 35.4372 56.8998 35.5247 56.8623 35.3247C56.8248 35.1372 56.8623 34.9747 56.6623 34.8872C56.4498 34.7872 56.2998 34.2997 56.2248 33.9622C56.1325 33.6302 55.9609 33.3257 55.7248 33.0747C55.6873 32.8247 55.7248 32.7122 55.5748 32.5997C55.5104 32.5545 55.4576 32.4947 55.4206 32.4252C55.3837 32.3557 55.3637 32.2784 55.3623 32.1997C55.3623 32.0997 55.2873 31.9497 55.2123 31.8997C55.1498 31.8622 55.1123 31.7872 55.1123 31.6747C55.1123 31.5747 55.0123 31.5872 54.9873 31.7997V31.7872Z" fill="#5D3100"/>
<path d="M54.0879 40.8754C54.5055 40.8115 54.913 40.6938 55.3004 40.5254C55.5129 40.6629 55.8629 40.8504 56.0129 40.8504C55.7254 40.9129 55.5254 40.8879 55.4629 40.8254C55.5004 40.9129 55.5879 41.0629 55.6629 41.0754C55.3754 41.0754 55.0629 41.0004 54.9629 40.9004C54.7129 41.0004 54.3129 41.0254 54.0879 40.8754ZM54.6254 41.2504C54.7379 41.2879 55.2754 41.3754 55.3504 41.3754C55.1754 41.5254 55.3254 41.6754 55.6129 41.6504C55.4879 41.6754 55.3129 41.7254 55.4254 41.7504C55.807 41.7457 56.1844 41.6693 56.5379 41.5254C56.2879 41.8379 55.1129 42.1254 54.6254 41.2504ZM55.1254 42.0129C55.345 41.9585 55.5758 41.9716 55.7879 42.0504C55.6129 42.1254 55.2254 42.1254 55.1129 42.0254L55.1254 42.0129Z" fill="#00D860"/>
<path d="M55.6629 42.0123C55.9129 41.9748 56.6629 42.1373 56.9129 41.9873C56.8254 42.2248 56.3754 42.2623 56.2004 42.1998C56.0379 42.1623 55.8879 42.0998 55.7754 42.0998C55.8504 42.0623 55.7504 42.0623 55.6504 42.0123H55.6629Z" fill="black"/>
<path d="M55.9248 42.3748C56.3046 42.3853 56.6837 42.3389 57.0498 42.2373C57.2623 42.3123 57.7248 42.4373 57.8248 42.4248C57.6123 42.5498 57.1998 42.4748 57.0748 42.4248C56.8911 42.5009 56.6929 42.5359 56.4943 42.5272C56.2956 42.5186 56.1012 42.4666 55.9248 42.3748Z" fill="#00D860"/>
<path d="M56.2502 42.4873C56.5377 42.5498 56.7877 42.5123 57.0627 42.4248C57.1502 42.4498 57.3502 42.4998 57.5502 42.4998C57.6752 42.5623 57.8377 42.6623 58.0127 42.6873C57.6976 42.7304 57.3769 42.7004 57.0752 42.5998C56.7323 42.5901 56.3913 42.6541 56.0752 42.7873C56.0813 42.7279 56.1015 42.6709 56.1341 42.6208C56.1667 42.5708 56.2108 42.5293 56.2627 42.4998L56.2502 42.4873Z" fill="#00D860"/>
<path d="M55.925 41.0748C56.1375 41.1373 56.95 41.0998 57.3375 40.9123C57.5125 40.8248 57.6125 40.9623 57.425 41.0123C56.775 41.2623 56.2375 41.3373 55.8625 41.1373C55.7125 41.0623 55.6875 40.9873 55.925 41.0623V41.0748Z" fill="black"/>
<path d="M59.8247 39.9746C58.8372 40.4371 58.1997 40.5746 56.8372 40.1496C56.7122 40.1246 56.6247 40.1496 56.7622 40.2371C57.1031 40.3846 57.4595 40.4936 57.8247 40.5621C57.9997 40.5746 57.9372 40.6496 57.8247 40.6871C57.7247 40.7121 57.6997 40.7871 57.8372 40.7371C57.9747 40.6746 58.8122 40.6496 59.1497 40.8246C59.2872 40.9121 59.3247 40.8871 59.3122 40.8246C59.2996 40.7746 59.3746 40.7371 59.4871 40.7246C59.5871 40.7121 59.6622 40.6746 59.5747 40.6496C59.4872 40.6121 59.4746 40.5871 59.5371 40.5621C59.5996 40.5246 59.6122 40.4871 59.5122 40.4746C59.4247 40.4496 59.3496 40.4246 59.4372 40.3871C59.5405 40.3418 59.65 40.3123 59.7622 40.2996C59.7872 40.2371 59.7497 40.0496 59.8247 39.9746Z" fill="#00D860"/>
<path d="M58.1996 40.0879C58.9747 40.0993 59.7284 39.8333 60.3246 39.3379C60.5246 39.4629 60.7871 39.5879 60.9371 39.6129C61.0746 39.6379 61.1871 39.7629 60.9746 39.7629C60.7621 39.7629 60.4746 39.6754 60.3246 39.6129C59.6872 40.0033 58.9461 40.1908 58.1996 40.1504C58.0621 40.1504 58.0246 40.0879 58.1996 40.1004V40.0879Z" fill="black"/>
<path d="M56.5374 37.0371C56.7374 37.1746 57.0749 37.3996 57.5124 37.3621C57.7238 37.5314 57.9657 37.6587 58.2249 37.7371C57.9249 37.8371 57.5999 37.9496 57.5249 38.0371C57.3999 37.9121 57.2124 37.9371 57.1749 37.8621C57.0499 37.9871 57.0624 38.0246 57.1499 38.0871C57.4336 38.1715 57.7291 38.2094 58.0249 38.1996C58.1749 38.1496 58.2374 38.2871 58.0999 38.3246C57.7624 38.4496 57.0999 38.3246 56.8749 37.9621C56.6249 37.5996 56.4374 37.4621 55.8124 37.7996C55.7499 37.6121 55.7499 37.5871 55.6249 37.5871C55.4999 37.5871 55.2749 37.4246 55.4499 37.4246C55.6249 37.4246 56.1249 37.3496 56.5374 37.0496V37.0371Z" fill="#00D860"/>
<path d="M56.6998 37.8751C56.5748 37.8876 56.2873 38.0501 56.1873 38.0626C56.0748 38.0876 55.8873 38.2376 56.0748 38.2376C56.2873 38.2376 56.5373 38.0251 56.6748 38.0251C56.8123 38.0251 56.8248 37.8376 56.6998 37.8626V37.8751ZM57.3248 38.5001C57.2373 38.5251 56.9123 38.6001 56.8248 38.6001C56.7373 38.6001 56.6373 38.6001 56.6498 38.6751C56.6623 38.7376 56.6873 38.7876 56.5373 38.7626C56.4123 38.7376 56.2998 38.8001 56.2748 38.8376C56.2373 38.8751 56.2123 38.9126 56.3498 38.9251C56.4748 38.9251 56.5498 38.9626 56.7123 38.8751C56.8623 38.8001 56.9998 38.7126 57.1623 38.7001C57.3248 38.7001 57.4873 38.4751 57.3123 38.5126L57.3248 38.5001Z" fill="#00D860"/>
<path d="M56.8625 38.8873C57 38.9998 57.6875 39.2123 57.925 39.2123C58.175 39.1998 58.1375 39.2998 57.95 39.3373C57.7375 39.3687 57.5207 39.3549 57.3139 39.2967C57.1071 39.2386 56.9149 39.1374 56.75 38.9998C56.6 38.8748 56.75 38.8248 56.85 38.8873H56.8625Z" fill="black"/>
<path d="M60.1002 39.2502C59.6848 39.3673 59.2468 39.3802 58.8252 39.2877C58.6127 39.2127 58.4127 39.2127 58.5752 39.3627C58.7002 39.5002 59.1752 39.5877 59.4502 39.5252C58.5002 39.7377 58.2502 39.7252 58.0252 39.6877C57.7349 39.6524 57.442 39.6441 57.1502 39.6627C57.0107 39.6852 56.8678 39.6679 56.7377 39.6127C56.6502 39.5502 56.6252 39.4752 56.8752 39.5002C57.1252 39.5127 57.1627 39.4752 56.9502 39.4377C56.7252 39.4002 56.4377 39.4877 56.7252 39.6877C57.0252 39.8627 57.6502 39.6627 58.0627 39.7877C58.4233 39.8816 58.8011 39.8874 59.1644 39.8048C59.5277 39.7221 59.8658 39.5533 60.1502 39.3127C60.1877 39.2877 60.2627 39.1877 60.1002 39.2377V39.2502ZM57.5252 38.4627C57.5502 38.5377 57.5502 38.5877 57.5252 38.6377C57.5002 38.6877 57.5127 38.7502 57.5877 38.6877C57.6627 38.6252 57.7127 38.5377 57.8127 38.5877C57.9002 38.6252 58.1002 38.6252 58.1877 38.6127C58.2877 38.6127 58.3127 38.5752 58.1877 38.5252C58.0732 38.476 57.9499 38.4505 57.8252 38.4502C57.7502 38.4627 57.6502 38.4502 57.5877 38.4127C57.5252 38.3752 57.5127 38.4127 57.5252 38.4627Z" fill="#00D860"/>
<path d="M58.8752 38.7127C58.7752 38.7127 58.5752 38.6377 58.4877 38.5877C58.3877 38.5502 58.2377 38.5502 58.3377 38.7127C58.4502 38.8627 58.9127 38.9252 59.0877 38.8627C59.2502 38.7877 59.1877 38.7127 59.3377 38.8127C59.5127 38.9127 59.6752 38.9752 59.8002 38.9752C59.9252 38.9752 59.9627 38.9752 59.8377 38.9002C59.7127 38.8252 59.6377 38.8127 59.6127 38.7502C59.5877 38.6877 59.5877 38.6377 59.7252 38.6877C59.8502 38.7252 59.9752 38.7877 60.0752 38.7377C60.1752 38.6877 60.3502 38.5752 60.5127 38.5752L60.5377 38.4752C60.3127 38.4752 60.1627 38.5377 60.1002 38.5502C60.0502 38.5752 59.9252 38.6002 59.8002 38.5752C59.6752 38.5502 59.5252 38.5377 59.4877 38.5127C59.4377 38.4752 59.4502 38.4502 59.5502 38.4377C59.6502 38.4127 59.6752 38.3502 59.5502 38.3627C59.4252 38.3877 59.0252 38.3877 58.8252 38.3252C58.6377 38.2627 58.5502 38.2502 58.4752 38.2877C58.3877 38.3127 58.4002 38.4127 58.5127 38.4127C58.6377 38.4127 58.9127 38.4502 59.0127 38.5377C59.0877 38.6252 59.0877 38.6252 58.9877 38.5877C58.8752 38.5377 58.6752 38.5627 58.8752 38.7127Z" fill="#00D860"/>
<path d="M60.5375 38.4747L60.5 38.5747C60.7375 38.5747 61.3 38.6247 61.5 38.7372C61.675 38.5997 61.6375 38.5497 61.75 38.5872C61.875 38.6247 62.05 38.6497 62.125 38.6247C62.1818 38.5921 62.2491 38.5831 62.3125 38.5997C62.3875 38.5997 62.5625 38.5747 62.65 38.5247C62.75 38.4622 62.95 38.3997 63.0625 38.3997C63.1625 38.3997 63.3125 38.3622 63.1 38.3247C62.9 38.2872 62.575 38.3622 62.475 38.3997C62.35 38.4372 62.0375 38.4622 61.85 38.4622C61.6625 38.4622 61.4 38.5497 61.1875 38.4997C60.9625 38.4497 60.6625 38.4747 60.525 38.4747H60.5375Z" fill="#00D860"/>
<path d="M63.4873 38.3749C63.1123 38.6499 62.6373 38.7124 62.0998 38.7499C61.9373 38.7499 61.9873 38.7999 62.1248 38.8124C62.6998 38.8749 63.3498 38.6624 63.5748 38.4374C63.6373 38.3624 63.6248 38.2624 63.4873 38.3624V38.3749Z" fill="black"/>
<path d="M60.8877 39.0248C61.197 39.0712 61.5022 39.1423 61.8002 39.2373C61.9502 39.2123 61.9877 39.1873 61.9627 39.1248C61.9252 39.0748 61.9127 39.0248 62.1752 39.0498H63.1127C63.2127 39.0123 63.4002 38.8623 63.4877 38.8623C63.2627 38.8623 62.3002 38.9123 62.1877 38.8998C62.0627 38.8998 62.0002 38.8998 61.9252 38.9498C61.8502 38.9873 61.8127 39.0123 61.7127 38.9623C61.5877 38.9248 61.4502 38.8748 61.3377 38.9498C61.2627 38.9998 61.0502 38.9498 60.8877 39.0248Z" fill="#00D860"/>
<path d="M63.1129 39.0495C63.2004 39.012 63.4004 38.862 63.4879 38.8495C63.6629 38.837 63.8379 38.8995 63.9254 38.9245C64.0129 38.9495 64.1129 38.9245 64.0504 38.8495C64.0004 38.787 64.0504 38.6495 64.3004 38.687C64.5754 38.712 64.7004 38.762 64.9629 38.737C65.2254 38.712 65.3254 38.8995 65.8004 38.712C65.7754 38.8995 65.8629 38.912 65.9504 38.8745C66.0379 38.8495 66.1379 38.8495 66.2879 38.962C66.4504 39.087 67.3754 39.087 67.5879 39.0495C67.8129 39.012 67.9129 39.1245 67.7504 39.1745C67.5879 39.2245 67.5504 39.2995 67.5879 39.362C67.6254 39.412 67.6629 39.4745 67.4629 39.4495C67.2504 39.4245 67.2129 39.487 67.1254 39.5495C67.0254 39.6245 67.0004 39.6745 66.7129 39.612C66.4379 39.562 66.3754 39.5995 66.2254 39.612C66.0754 39.637 66.0379 39.6495 65.8754 39.5995C65.6548 39.5202 65.4158 39.5071 65.1879 39.562C64.9879 39.637 64.8504 39.687 64.6629 39.637C64.4754 39.5995 64.4754 39.612 64.5879 39.512C64.6879 39.387 64.7129 39.387 64.9379 39.3745C65.1629 39.3495 65.3129 39.287 65.1754 39.1995C65.0129 39.112 64.9754 39.1245 64.7629 39.212C64.5629 39.312 64.4629 39.387 64.2254 39.262C64.0004 39.137 63.9004 39.1495 63.7254 39.1995C63.5754 39.237 63.3254 39.137 63.1129 39.0495ZM63.8754 39.4245C63.5754 39.4745 63.5004 39.287 63.2004 39.312C63.1004 39.337 62.9254 39.462 63.1629 39.437C63.4004 39.4245 63.6629 39.5495 63.8879 39.537C64.1129 39.5245 64.0129 39.412 63.8879 39.4245H63.8754ZM63.5504 39.637C63.6879 39.587 64.0004 39.6995 64.1504 39.6745C64.2879 39.6495 64.4004 39.7245 64.2504 39.787C64.1004 39.837 63.7879 39.6995 63.6254 39.737C63.4879 39.787 63.3254 39.7245 63.5379 39.637H63.5504ZM60.5004 40.4745C60.7129 40.4745 61.4754 40.437 61.7754 39.812C61.8004 39.762 61.8129 39.737 61.9004 39.812C61.9879 39.8745 62.3504 40.0745 63.0004 40.137C63.1879 40.137 63.3754 40.237 63.0129 40.2245C62.6379 40.1995 62.0629 40.0995 61.8754 39.9745C61.5379 40.487 60.9504 40.5495 60.5004 40.537C60.2379 40.537 60.3004 40.462 60.5004 40.4745Z" fill="#00D860"/>
<path d="M62.1372 39.5996C62.0372 39.7371 61.6872 39.9746 61.5372 39.9996C61.3747 39.9996 60.8872 39.9746 60.7747 39.9246C60.6497 39.8871 60.5122 39.8871 60.6747 40.0121C60.9042 40.1364 61.1643 40.1927 61.4247 40.1746C61.6247 40.1371 61.8122 40.0746 61.9497 40.1746C62.0747 40.2496 62.3247 40.3996 62.4747 40.3746C62.6247 40.3371 62.9122 40.3371 63.0122 40.3746C63.1122 40.4246 63.2747 40.5746 63.0247 40.4996C62.7747 40.4121 62.5747 40.4746 62.4622 40.4246C62.5872 40.5996 62.8747 40.8871 63.1122 40.8871C63.1747 40.8871 63.2247 40.9996 63.1122 41.0496C63.2122 41.0996 63.4872 41.1621 63.6497 41.0121C63.5997 41.0746 63.6247 41.0996 63.6872 41.1246C63.7497 41.1496 63.8247 41.1996 63.7122 41.2246C63.5872 41.2496 63.3372 41.2621 63.2622 41.2246C63.5122 41.3871 64.1372 41.6496 64.7997 41.5121C64.9247 41.4996 64.9997 41.4371 64.7997 41.4496C64.3622 41.4496 64.3372 41.4496 64.2622 41.4121C64.1872 41.3621 64.2122 41.3246 64.3372 41.2871C64.5133 41.2417 64.6932 41.2124 64.8747 41.1996C64.9997 41.1996 65.1372 41.1621 64.8747 41.1621C64.6247 41.1621 64.2997 41.1621 64.1622 41.1121C64.0372 41.0746 63.9497 40.9996 64.0872 40.9121C64.2122 40.8246 64.3497 40.8496 64.4122 40.7871C63.9997 40.7871 63.4872 40.5371 63.7622 40.3371C63.8247 40.2996 63.8122 40.2871 63.7122 40.2746C63.519 40.2366 63.3304 40.1779 63.1497 40.0996C63.0247 40.0371 63.0997 39.9621 63.2122 39.9371C62.9622 39.9746 62.4622 39.8496 62.1372 39.6121V39.5996ZM65.8622 39.5996C65.6372 39.7621 65.1997 39.8496 65.0122 39.8496C64.8372 39.8496 64.7997 39.8996 64.9497 39.9121C65.0997 39.9246 65.2622 39.9621 65.3247 39.9371C65.3872 39.9121 65.4372 39.9121 65.5247 39.9621C65.6788 40.0136 65.8455 40.0136 65.9997 39.9621C66.1872 39.9121 66.4622 39.8871 66.5872 39.8871C66.7122 39.8996 66.8372 39.8996 66.5872 39.8371C66.3622 39.7746 65.9622 39.8121 65.8622 39.8371C65.7747 39.8621 65.5122 39.8371 65.6497 39.8121C65.7872 39.7746 65.8997 39.6871 65.9747 39.6371L65.8622 39.5996ZM65.7372 40.0996C65.5151 40.2651 65.2508 40.3648 64.9747 40.3871C65.2247 40.4871 65.4497 40.7621 65.6247 40.7371C65.5372 40.7996 65.4372 40.8621 65.3372 40.8871C65.5699 40.9264 65.809 40.8821 66.0122 40.7621C66.3872 40.8621 66.8872 40.7871 67.0497 40.6371C66.7997 40.6371 66.5122 40.5621 66.3747 40.4371C66.4997 40.4371 66.6122 40.3746 66.6622 40.2996C66.3747 40.3496 65.9122 40.2121 65.7497 40.0746L65.7372 40.0996Z" fill="#00D860"/>
<path d="M65.3373 40.875C65.4373 40.875 65.5498 40.8 65.6248 40.75C65.1401 40.7847 64.6562 40.6714 64.2373 40.425C63.9623 40.1875 63.9623 40.375 64.1498 40.5375C64.3079 40.6865 64.4991 40.796 64.7077 40.8568C64.9163 40.9176 65.1364 40.9282 65.3498 40.8875L65.3373 40.875ZM66.0123 41.4626C65.8998 41.5251 65.3498 41.575 65.1748 41.5251C64.9873 41.4876 64.9248 41.5001 64.9498 41.5876C64.9873 41.6626 65.0248 41.7125 64.8748 41.6875C64.7058 41.68 64.5368 41.7012 64.3748 41.75C64.2498 41.775 64.1248 41.8751 64.3498 41.8376C64.5873 41.8126 64.7873 41.7625 64.9748 41.8C65.1373 41.8375 65.7373 41.85 65.8498 41.8C65.9748 41.75 65.8998 41.7625 65.8498 41.7625C65.7873 41.7625 65.7623 41.725 65.8498 41.675C65.9373 41.6375 65.9873 41.5501 66.0123 41.4626ZM60.7248 40.7375C60.3338 40.8736 59.9325 40.9781 59.5248 41.05C59.2748 41.1625 59.0748 41.225 58.9498 41.225C59.0373 41.3 59.3873 41.3751 59.5123 41.3376C59.4373 41.4251 59.2623 41.5 59.1998 41.55C59.4123 41.5125 59.6373 41.575 59.7498 41.5876C59.4931 41.7246 59.2025 41.7853 58.9123 41.7625C58.9873 41.8375 59.0748 41.925 59.1873 41.925C58.9637 41.9899 58.7275 41.9985 58.4998 41.95C58.5748 42.075 58.6248 42.15 58.7248 42.175C58.5123 42.1875 58.2623 42.225 58.0498 42.1C58.2123 42.325 58.5748 42.3875 59.1248 42.325C59.6748 42.2625 60.1248 42.025 60.2498 41.925C60.0248 41.95 59.7123 41.9625 59.5748 41.925C59.9538 41.8241 60.3159 41.6683 60.6498 41.4626C60.5244 41.4618 60.4022 41.4225 60.2998 41.35C60.6363 41.3668 60.9733 41.3331 61.2998 41.25C61.1233 41.212 60.9672 41.1095 60.8623 40.9626C61.5541 41.162 62.285 41.1835 62.9873 41.0251C63.0873 41.0001 63.0873 40.8625 62.8998 40.8875C62.5498 40.9125 61.8623 40.8125 61.6748 40.725C61.8241 40.8313 61.9947 40.9038 62.1748 40.9375C61.8623 41.0375 61.3998 41.1 60.7248 40.725V40.7375Z" fill="#00D860"/>
<path d="M59.2004 41.5503C59.2629 41.5003 59.4504 41.4253 59.5129 41.3378C59.3754 41.3753 59.0379 41.3003 58.9504 41.2128C59.0754 41.2128 59.2754 41.1628 59.5254 41.0503C59.0754 41.0378 58.7754 41.0378 58.5879 40.9378C58.4129 40.8378 58.1254 40.8878 58.0004 40.9128C57.8754 40.9253 57.9254 41.1253 58.4129 41.0753C58.1151 41.2085 57.785 41.252 57.4629 41.2003C57.5129 41.3753 57.5504 41.5378 57.5004 41.6378C57.7629 41.7878 58.4629 41.9753 58.8129 41.9503C58.5004 41.8378 58.3379 41.7128 58.5879 41.6753C58.8379 41.6503 58.9879 41.6003 59.2129 41.5503H59.2004Z" fill="#00D860"/>
<path d="M58.4125 42.3753C59.0125 42.3253 59.8375 42.3128 60.4875 41.7503C60.65 41.6253 60.7625 41.6753 60.6 41.8128C60.0245 42.2594 59.3272 42.5209 58.6 42.5628C58.2625 42.5628 58.1125 42.4003 58.4125 42.3628V42.3753Z" fill="black"/>
<path d="M62.9623 41.3748C62.7353 41.4429 62.4993 41.4766 62.2623 41.4748C62.1252 41.4443 61.9823 41.453 61.8498 41.4998C61.7498 41.5623 61.7373 41.6248 61.8748 41.6248L62.2873 41.6498C62.1995 41.6951 62.1227 41.7591 62.0623 41.8373C62.2873 41.7873 62.6498 41.8748 62.7623 41.9373C62.7194 41.9463 62.6752 41.9464 62.6322 41.9378C62.5893 41.9293 62.5485 41.9121 62.5123 41.8873C62.8498 42.2623 63.8748 42.2623 64.0373 42.1873C63.9623 42.2498 63.8873 42.3123 63.8248 42.3123C64.0998 42.3748 64.4248 42.3623 64.7623 42.1873L64.2373 42.1623C64.3074 42.0929 64.3931 42.0415 64.4873 42.0123C64.3623 41.9873 63.9623 41.9998 63.8623 42.0498C63.8995 41.9601 63.9655 41.8854 64.0498 41.8373C63.5498 41.8373 62.9373 41.8373 62.7248 41.7123C63.0623 41.7623 63.4623 41.5498 63.6248 41.5498C63.3498 41.5498 63.0498 41.4873 62.9748 41.3623L62.9623 41.3748ZM61.6998 41.6248C61.4498 41.6873 61.0748 41.7998 60.9623 41.8498C60.8623 41.9123 60.7623 41.9373 60.9748 41.9373C60.9998 41.9331 61.0248 41.9289 61.0498 41.9248C60.9623 41.9248 60.8623 41.9248 61.0373 41.8623C61.1998 41.8123 61.4123 41.6998 61.6873 41.6498L61.6998 41.6248ZM61.1998 42.2373C61.2873 42.2373 61.6623 42.2373 61.8248 42.1123C61.9748 42.2123 62.2873 42.3873 62.4748 42.3873C62.6748 42.3873 62.6498 42.4373 62.4748 42.4623C62.2346 42.4546 62.0011 42.3811 61.7998 42.2498C61.5748 42.3373 61.3873 42.2623 61.1748 42.2373H61.1998ZM58.2498 43.9498C58.6542 44.1285 59.1043 44.1765 59.5373 44.0873C59.7623 44.2748 60.1998 44.2873 60.4373 44.2373C60.6873 44.1873 60.8998 44.1623 61.1748 44.2373C61.4248 44.3373 61.9748 44.3498 62.1373 44.4748L61.6248 44.4873C61.5498 44.5123 61.5873 44.5498 61.7248 44.6123C61.2288 44.6076 60.7407 44.7372 60.3123 44.9873C60.3765 44.8429 60.4819 44.7208 60.6154 44.6362C60.7489 44.5517 60.9044 44.5086 61.0623 44.5123C60.8373 44.4373 60.0998 44.4248 59.8498 44.5748C59.7834 44.5025 59.7324 44.4174 59.6998 44.3248C59.3123 44.5373 58.5498 44.2123 58.2373 43.9498H58.2498ZM57.2498 43.2248C57.5811 43.1972 57.8976 43.0758 58.1623 42.8748C58.2498 42.9498 58.5998 43.0248 58.9748 42.9123C58.8998 42.9623 58.8873 43.0748 58.9123 43.1248C58.6105 43.1528 58.3152 43.2288 58.0373 43.3498C57.8873 43.4248 57.4123 43.4873 57.2623 43.3998C57.1123 43.3248 57.1123 43.2498 57.2373 43.2248H57.2498Z" fill="#00D860"/>
<path d="M58.9121 43.1377C58.6103 43.1657 58.315 43.2416 58.0371 43.3627L58.0996 43.5752C58.7206 43.3978 59.3678 43.3301 60.0121 43.3752C59.8121 43.3877 59.4496 43.6002 59.2496 43.6127C59.7496 43.5752 60.2246 43.6752 60.3496 43.7127C60.4746 43.7377 60.5121 43.8377 60.4121 43.9377C60.3121 44.0502 60.2746 44.0252 60.4746 44.0502C60.6746 44.0502 61.0996 44.0127 61.2871 43.8252C61.1996 43.7502 61.0121 43.7877 60.9496 43.7127C61.0758 43.6724 61.1912 43.604 61.2871 43.5127C61.0947 43.5177 60.9022 43.5052 60.7121 43.4752C60.6121 43.4502 60.5246 43.4127 60.6621 43.3377C60.7566 43.2917 60.8415 43.2281 60.9121 43.1502C60.6621 43.2127 60.2746 43.2752 59.9371 43.0252C60.0621 43.0502 60.3496 43.0252 60.4496 42.9877C60.3667 42.9339 60.2727 42.8997 60.1746 42.8877C60.4246 42.7627 60.9246 42.6502 61.5871 42.9002C61.8839 42.8777 62.1823 42.8945 62.4746 42.9502C62.5996 42.8502 62.7996 42.6002 62.9121 42.5502C62.1621 42.6002 60.8121 42.4752 60.8496 42.0752C60.5996 42.4002 60.0371 42.5752 59.7996 42.5252C59.7746 42.6252 59.8746 42.7752 59.9621 42.8502C59.7121 42.9002 59.2746 42.9502 59.0746 42.9002C59.1996 43.0127 59.3996 43.1127 59.5246 43.1127C59.2746 43.1127 59.1246 43.1627 58.9121 43.1377Z" fill="#00D860"/>
<path d="M60.4629 44.0371C60.6879 44.0371 61.0879 44.0121 61.2879 43.8246C61.2004 43.7496 61.0129 43.7871 60.9504 43.7121C61.0766 43.6718 61.192 43.6035 61.2879 43.5121C61.8379 43.4621 62.3004 43.4871 62.5379 43.4246C62.7629 43.3621 63.3504 43.3871 63.4629 43.3621C62.9504 43.4496 62.8504 43.4871 62.8379 43.5746C62.8129 43.6621 62.9879 43.7121 63.1129 43.7121C62.9004 43.7121 62.6004 43.9496 62.5629 44.0496C62.2629 43.8746 62.1379 44.0746 62.0879 44.1496C61.9629 44.0996 61.5379 44.1121 61.3254 44.2996C61.0504 44.2121 60.8629 44.1746 60.5754 44.2121C60.7629 44.1746 60.7254 44.0496 60.4754 44.0371H60.4629ZM62.9004 42.5371C63.0754 42.5371 63.4504 42.5621 63.5879 42.5371C63.5041 42.578 63.428 42.6329 63.3629 42.6996C63.8004 42.6496 64.3879 42.6121 64.5629 42.6496C64.3379 42.6121 64.1254 42.7621 64.0129 42.8246C63.9129 42.8871 63.9754 42.9371 64.1254 42.9496C64.2754 42.9746 64.4629 43.0746 64.2004 43.0496C63.9504 43.0246 63.4004 43.0121 63.2754 43.0246C63.1504 43.0496 63.0754 42.9871 63.2754 42.9496C63.4105 42.9294 63.5414 42.8872 63.6629 42.8246C63.5129 42.8621 63.2254 42.8621 63.1254 42.8246C63.0254 42.7871 62.9879 42.7621 63.0879 42.7246C63.2004 42.6871 63.1254 42.6746 63.0129 42.6871C62.9004 42.6871 62.6379 42.8121 62.4754 42.9496C62.6379 42.7746 62.8004 42.6246 62.9004 42.5496V42.5371Z" fill="#00D860"/>
<path d="M60.9749 42.8373C61.0801 42.9587 61.2109 43.0553 61.3579 43.1201C61.5049 43.185 61.6644 43.2165 61.8249 43.2123C61.8999 43.2123 62.0749 43.3248 61.8624 43.3373C61.3249 43.3623 61.0624 43.2248 60.8249 42.8873C60.7749 42.8123 60.8624 42.7123 60.9749 42.8373ZM64.1624 38.3873C64.4374 38.5123 64.9999 38.6373 65.4374 38.6248C65.5249 38.6248 65.6624 38.6998 65.4749 38.7123C65.01 38.7692 64.5387 38.6819 64.1249 38.4623C64.0124 38.3998 64.0499 38.3373 64.1624 38.3873Z" fill="black"/>
<path d="M64.4379 38.3876C64.8754 38.3876 65.2004 38.3876 65.3129 38.5001C65.5629 38.4376 66.0254 38.3876 66.1129 38.4126C66.2129 38.4376 66.3379 38.3751 66.1004 38.3251C65.8504 38.2751 65.3254 38.2501 65.1504 38.2876C64.9754 38.3126 64.4379 38.3376 64.2754 38.3126C64.3379 38.3126 64.3879 38.3376 64.4379 38.3876ZM66.1129 38.5501C66.3129 38.4501 66.9004 38.5501 67.0754 38.4751C66.9504 38.6251 67.4879 38.6376 67.9504 38.5251C67.7754 38.6251 67.3879 38.6501 67.2254 38.7251C67.0629 38.8001 66.9754 38.7376 66.8504 38.6876C66.6208 38.5786 66.3656 38.5353 66.1129 38.5626V38.5501Z" fill="#00D860"/>
<path d="M67.9498 38.525C67.4873 38.625 66.9498 38.625 67.0748 38.475C66.8998 38.55 66.3248 38.45 66.1123 38.55C66.3373 38.425 66.4873 38.5375 66.6373 38.275C66.7373 38.2875 66.9623 38.3 67.0373 38.2C67.1623 38.2375 67.4123 38.2875 67.4748 38.3625C67.5373 38.4375 67.6373 38.3375 67.5623 38.2375C67.7748 38.1625 67.6373 38.325 68.1248 38.2C68.2373 38.175 68.4748 38.125 68.5623 38.125C68.3713 38.2837 68.1614 38.418 67.9373 38.525H67.9498Z" fill="#00D860"/>
<path d="M58.9498 36.3879L58.8623 25.5379C58.8623 25.0504 58.6123 25.1629 58.6123 25.5379V36.2879L58.9498 36.3879ZM62.4748 24.9629L62.8623 36.3879L62.8123 36.4879H62.5623L62.3248 24.9629H62.4748ZM65.7998 34.6379L65.5998 25.3504C65.5998 25.0504 65.3498 25.1004 65.3498 25.4004L65.5498 34.6379H65.7998Z" fill="#FFFF00" stroke="black" stroke-width="0.05"/>
<path d="M60.5246 26.8627L57.0996 26.8127C56.9496 27.5002 57.7871 27.4377 58.0746 27.3127C58.4621 27.5502 58.7621 27.5502 58.9496 27.3127C59.2496 27.5502 59.6371 27.5002 59.7871 27.3127C60.1746 27.6502 60.6121 27.3127 60.5246 26.8127V26.8627ZM60.7746 28.5252H57.3371C56.7121 29.1127 57.4871 29.4002 58.1746 29.0127C58.2746 29.2127 58.6621 29.3002 58.9496 29.1627C59.2496 29.3502 59.6371 29.2127 59.8246 29.0127C60.1746 29.1627 60.6121 29.2127 60.8121 28.5127L60.7746 28.5252ZM60.6621 30.7252H57.3371C57.2996 31.2627 57.9746 31.2127 58.2121 31.0627C58.4621 31.4627 59.0496 31.3627 59.2496 31.1127C59.5871 31.3627 59.8746 31.3127 60.0246 31.1127C60.3746 31.4127 60.7121 31.0127 60.6621 30.7252ZM60.8746 32.8752L57.1121 32.8252C56.9121 33.4502 57.4996 33.5627 57.7371 33.4127C57.8496 33.7502 58.3371 33.6627 58.4871 33.4127C58.6746 33.5627 58.9246 33.4627 59.0121 33.3127C59.0621 33.6502 59.5121 33.7002 59.8496 33.4127C60.5371 33.9002 61.1621 33.3127 60.8246 32.8752H60.8746ZM64.1496 32.0002H61.0746C61.2121 32.5752 61.5121 32.7252 61.9996 32.3752C62.3871 32.7752 62.9746 32.6252 63.1246 32.4377C63.8121 32.9752 64.1496 32.3377 64.1496 31.9377V32.0002ZM63.8496 29.8502L60.8246 29.7502C60.8746 30.5252 61.6121 30.4752 61.9996 30.1877C62.2496 30.5252 62.7371 30.4377 62.9746 30.1877C63.3121 30.5752 63.9496 30.3377 63.8496 29.8502ZM64.2496 27.4502H60.9996C60.9996 27.9877 61.7246 28.2752 62.2621 27.7877C62.4121 28.4252 62.9996 28.2252 63.2496 27.9877C63.6246 28.4752 64.4621 27.8877 64.2246 27.4877L64.2496 27.4502ZM64.0496 25.8252L61.1121 25.8877C61.1121 26.3752 61.7996 26.5752 62.0496 26.1752C62.1996 26.4252 62.6746 26.3752 62.8246 26.1752C63.0246 26.5252 63.3246 26.2752 63.4121 26.1752C63.7621 26.4252 64.0996 26.2752 64.0496 25.8377V25.8252ZM67.4246 26.9127L63.8996 26.8627C63.8996 27.2002 64.2496 27.3627 64.4871 27.2002C64.4871 27.6002 64.9871 27.7002 65.3246 27.4002C65.5121 27.7377 66.1496 27.7877 66.3996 27.4002C66.8871 27.8377 67.4746 27.5002 67.3746 26.9002L67.4246 26.9127ZM67.3746 29.7877H63.9496C63.9496 30.2877 64.4871 30.4252 64.8246 30.1877C64.8871 30.5752 65.3246 30.6252 65.5746 30.3877C65.9121 30.7252 66.3996 30.7627 66.6996 30.3877C67.0746 30.5252 67.4246 30.1877 67.3746 29.8002V29.7877ZM67.1746 32.3877H64.4371C64.4371 32.8752 65.0246 32.8752 65.2746 32.6377C65.5621 32.9752 65.9621 32.9752 66.1996 32.7252C66.5371 33.0252 67.1246 32.9252 67.1746 32.3877Z" fill="white" stroke="black" stroke-width="0.05"/>
<path d="M62.8121 36.4996C61.3496 36.4996 59.8371 36.4996 58.8121 36.3871C57.7871 36.2996 57.4871 36.0996 56.7621 35.6621L53.9996 33.9996C53.7621 33.8996 53.5246 34.0496 53.8621 34.2496L56.5996 36.0496C57.2231 36.4522 57.7834 36.945 58.2621 37.5121C58.8496 38.1496 59.2371 38.1496 59.5246 38.0496C59.8246 37.9621 60.2121 37.7996 60.6496 37.9121C61.0496 37.9996 61.6246 38.0496 61.9246 37.9996C62.1746 38.2496 62.7996 38.1996 63.1496 38.0996C63.4871 37.9996 63.7371 37.9996 63.9746 38.0496H64.8121C65.0621 38.0496 65.6871 37.9121 66.1246 37.9621C66.6246 38.0496 67.0496 37.9621 67.3496 37.9621C67.6679 37.8795 67.9996 37.8625 68.3246 37.9121C68.6246 37.7121 68.7121 37.4621 68.8246 37.2246C69.1121 37.1746 69.1996 37.1246 69.2496 36.9746L69.5496 36.1996H69.6496V35.8996L69.4496 35.6121L69.5496 35.1121L69.7996 35.0246L69.6996 34.5246L65.3996 34.6371C65.2442 34.7792 65.1389 34.9677 65.0996 35.1746L63.8246 35.3621C63.6871 35.4121 63.5371 35.4121 63.3871 35.6121L62.8121 36.4996Z" fill="black" stroke="black" stroke-width="0.05"/>
<path d="M67.9504 34.5872L68.5754 32.1872C68.6754 31.9372 68.4379 31.8997 68.3379 32.1872L67.7129 34.5872H67.9504Z" fill="black" stroke="black" stroke-width="0.05"/>
<path d="M70.4371 31.9004C69.8996 32.1504 69.6121 32.2879 69.3621 32.1879C69.1121 32.0879 68.8246 32.0379 68.6371 32.1379C68.6388 32.1545 68.6388 32.1713 68.6371 32.1879C68.4604 32.8094 68.2813 33.4303 68.0996 34.0504C68.4746 34.2004 69.1746 34.2004 69.3121 34.0504C69.5121 33.8504 69.9496 33.9004 70.1871 33.9004C70.3371 33.7004 70.3871 33.4629 70.3371 33.3629C70.2871 33.2629 70.3371 33.0254 70.3371 32.8629C70.3371 32.7379 70.5371 32.1879 70.4371 31.9004Z" fill="white" stroke="black" stroke-width="0.05"/>
<path d="M58.1254 27.3004C57.1772 29.7694 55.8579 32.0793 54.2129 34.1504M55.1879 34.7379C57.3571 32.9882 59.2383 30.9088 60.7629 28.5754M57.3379 30.6754C57.2004 32.0004 56.8004 34.3379 56.6129 35.5629M57.8754 33.6129C57.3879 34.1004 56.7504 34.8754 56.2254 35.3129M62.4254 30.9629C62.0379 31.3629 61.6004 31.8379 61.1504 31.9504M62.6754 31.0754C63.0334 31.4834 63.4833 31.8004 63.9879 32.0004M62.4254 28.9629C62.0003 29.3391 61.5025 29.6242 60.9629 29.8004M62.6254 29.0004C62.9129 29.2879 63.2504 29.6254 63.7004 29.8379M61.0629 27.4379C61.5497 27.2924 61.998 27.0405 62.3754 26.7004M62.5254 26.7004C62.9041 27.0503 63.3509 27.3184 63.8379 27.4879M61.1504 25.8629C61.6102 25.7856 62.027 25.5461 62.3254 25.1879M62.4754 25.0879C62.8129 25.3879 63.4504 25.7754 63.8004 25.8254M65.3629 26.2129C65.1629 26.4629 64.6254 26.8504 64.2879 26.8504M65.6004 26.2254C65.7504 26.4629 66.1379 26.8504 66.3879 26.8504M64.0379 29.7879C64.5644 29.5903 65.0359 29.2688 65.4129 28.8504M65.6629 28.9004C65.8946 29.2593 66.2071 29.5589 66.5754 29.7754M64.5754 32.3254C64.7754 32.3254 65.3129 32.0254 65.4504 31.7004M65.7504 31.5379C66.0196 31.8761 66.3504 32.1603 66.7254 32.3754M57.5879 32.8129C58.2129 32.6129 59.4504 31.8379 60.0879 31.1004M58.9129 32.0254C59.4004 32.3754 60.0379 32.7754 60.4754 32.8629M57.4379 30.6629C57.8704 30.489 58.2683 30.2393 58.6129 29.9254M58.8629 29.8754C59.0004 30.0754 60.0254 30.7129 60.4754 30.7129M58.6129 27.8379C58.2398 28.1216 57.8271 28.3491 57.3879 28.5129M58.8629 27.8254C59.2004 28.0754 59.9379 28.5129 60.3629 28.5129M58.6254 25.8754C58.3379 26.1629 57.8504 26.6504 57.4504 26.8004M58.8754 25.9254C59.0629 26.2629 59.6504 26.7504 60.0379 26.8004M63.9504 28.0754C64.8879 29.6879 66.5379 31.7004 68.2004 32.7629M61.3254 26.2629C62.6879 28.2129 65.3254 32.4754 67.8629 34.0379M68.3629 32.3754C67.7079 33.2665 66.8943 34.0292 65.9629 34.6254M68.1504 32.9129C67.3254 31.5379 66.8879 29.8379 66.2004 27.5379M59.3629 33.6004L60.3379 36.5254M59.1629 33.5504L60.0879 36.4754M58.9254 33.4004L59.8004 36.4254M58.8254 33.4504L59.5004 36.4254M59.5004 36.3379H60.3379M60.2379 36.0379H59.4629M60.1379 35.7879H59.3629M60.0379 35.5504H59.2504M59.8754 35.2629H59.2504M59.2004 35.0129H59.8254M59.1504 34.8129H59.7754M59.1004 34.5629H59.6879M59.0629 34.3754H59.5879M59.0004 34.1254H59.5004M58.9504 33.9379H59.4504M58.9129 33.7879H59.4004M58.9004 33.6004H59.3504M58.0754 33.6004L57.4879 36.0379M58.2254 33.6004L57.7254 36.1379M58.3754 33.5004L57.9754 36.1879M58.5629 33.4379L58.2754 36.2879M58.6129 36.0879H57.6379M58.6129 35.8379H57.4879M58.6129 35.5504H57.5879M58.5629 35.3004H57.6379M58.6129 35.0504H57.6879M58.6129 34.7629H57.7879M58.6129 34.5129H57.7879M58.5629 34.2754H57.8379M58.5629 34.0254H57.9379M58.5629 33.7879H57.9754M58.5629 33.6379H58.0254M58.5254 36.3379V33.4504M61.6879 32.4754L59.7504 36.4379M61.8504 32.4379L60.1879 36.4879M61.9504 32.3879L60.6254 36.4879M62.1004 32.4879L61.0254 36.4879M61.0754 36.3504H59.8504M61.1629 35.9504H60.0004M61.2129 35.6629H60.2379M61.4129 35.3629H60.4379M61.4629 35.0754H60.5379M61.5629 34.7754H60.6879M61.6504 34.4379H60.8754M61.7004 34.1879H60.9754M61.8004 33.9004H61.1129M61.8629 33.7004H61.2129M61.9004 33.5129H61.2129M61.8504 33.3129H61.3629M61.8629 33.1629H61.4129M61.9004 32.9754H61.5004M61.9879 32.7754H61.6004M61.9754 32.6254H61.6379M63.3004 32.5754L64.1379 35.3254M63.4504 32.6254L64.4754 35.2754L65.2629 32.6879M63.6004 32.6254L64.8254 35.2254L65.4129 32.7754M65.1129 34.9754L63.7379 32.5754M65.1129 35.0254H64.1379M65.0129 34.6379H64.0379M64.8754 34.3379H63.9379M64.6754 34.0004H63.8379M64.4754 33.7004H63.7504M64.2879 33.3629H63.6504M64.1379 33.0254H63.5504M63.9379 32.7254H63.4504M65.0129 32.7754L64.1379 35.3129M65.5504 32.8754L65.0629 35.1754M64.2379 35.0254H65.0629M64.3379 34.7379H65.1629M64.4254 34.3879H65.2129M64.5879 34.1004H65.3129M64.6754 33.7504H65.3629M64.7754 33.4629H65.4004M64.9129 33.1129H65.5004M65.0129 32.8254H65.5129M65.9504 32.8754L66.3254 34.6254M66.0879 32.7754L66.6254 34.5879M66.2879 32.7754L66.8754 34.5879M66.5254 32.8754L67.1629 34.5879M67.1129 34.4379H66.2879M67.0254 34.1879H66.2379M66.9254 33.9504H66.1879M66.8129 33.6504H66.0879M66.6754 33.4004H66.0004M66.5879 33.1629H65.9629M66.5004 32.9129H65.9129" stroke="black" stroke-width="0.05"/>
<path d="M58.4502 37.4C58.8377 37.15 59.5127 37.1875 59.8627 37.45C60.2752 37.225 61.0127 37.2875 61.3502 37.6C61.8752 37.225 62.3127 37.175 62.8127 37.525C63.034 37.3782 63.2947 37.302 63.5603 37.3064C63.8259 37.3109 64.0839 37.3958 64.3002 37.55C64.7627 37.3375 65.2627 37.1625 65.7002 37.625C65.4879 37.4821 65.2345 37.4133 64.9791 37.4291C64.7237 37.4449 64.4807 37.5445 64.2877 37.7125C63.8502 37.275 63.0752 37.4375 62.8127 37.75C62.7206 37.6502 62.6085 37.571 62.4837 37.5176C62.3588 37.4641 62.2241 37.4378 62.0883 37.4401C61.9526 37.4425 61.8188 37.4735 61.6959 37.5313C61.573 37.589 61.4637 37.6721 61.3752 37.775C60.9127 37.4 60.2377 37.375 59.8752 37.65C59.6731 37.5011 59.4393 37.4011 59.1921 37.3577C58.9448 37.3143 58.6909 37.3288 58.4502 37.4Z" fill="#00B800"/>
<path d="M65.3879 36.8498C63.3754 37.1998 58.9629 36.9748 58.0129 36.7123C57.6754 36.6373 57.7629 36.5123 58.0504 36.5873C59.1629 36.8373 61.5379 36.8373 62.8379 36.7623L63.6129 35.6998C63.7379 35.5373 63.7879 35.5248 64.0504 35.4873L65.1379 35.2998V35.4498C65.1129 35.4873 65.0879 35.5248 65.0504 35.5373C65.0504 35.7873 65.1004 36.4248 65.1629 36.6623L65.3004 36.6248C65.3879 36.5998 65.4754 36.8373 65.3879 36.8498Z" fill="#CF6200"/>
<path d="M68.6995 36.9502H68.9745C69.0495 36.9502 69.1745 36.8877 69.212 36.7627L69.4871 35.9752L69.2745 35.6627L69.387 35.0002L69.637 34.8877C69.662 34.8502 69.637 34.6877 69.587 34.6377L65.637 34.7627C65.512 34.7627 65.462 34.7627 65.4245 34.9252C65.3078 35.4538 65.3395 36.0043 65.5159 36.5161C65.6924 37.0278 66.0068 37.4809 66.4245 37.8252C66.487 37.8752 66.5745 37.8252 66.462 37.7377C66.251 37.526 66.0701 37.2863 65.9245 37.0252H66.5745C66.6245 37.2377 66.787 37.6752 66.8245 37.7627C66.8495 37.8502 66.9245 37.8502 66.8745 37.7252C66.7995 37.4752 66.7495 37.1627 66.712 37.0127H67.3745L67.4245 37.6627C67.4245 37.7502 67.4995 37.7502 67.4995 37.6502V37.0002L68.0995 36.9752L68.0495 37.6252C68.037 37.7377 68.087 37.7752 68.112 37.6252L68.1995 36.9752L68.612 36.9502C68.612 37.1002 68.4745 37.5002 68.437 37.6002C68.3995 37.7252 68.462 37.7252 68.4995 37.6127C68.5854 37.4024 68.6524 37.1849 68.6995 36.9627V36.9502Z" fill="#CF6200"/>
<path d="M65.8125 36.8504C65.75 36.7129 65.525 36.2129 65.5125 35.8504H66.3875C66.4125 36.1129 66.4875 36.7004 66.5375 36.8379L65.8125 36.8504ZM66.5375 35.8254C66.55 36.0504 66.6625 36.7629 66.6875 36.8254H67.3875L67.3375 35.8129L66.5375 35.8254ZM65.55 34.9504C65.519 35.1991 65.5106 35.4501 65.525 35.7004L66.3625 35.6629L66.2875 34.9254L65.55 34.9504ZM66.4625 34.9254L66.5125 35.6754L67.3375 35.6504L67.3 34.9004L66.4625 34.9254ZM67.4625 34.8879L67.4875 35.6379L68.2 35.6254C68.2 35.4629 68.2375 34.9754 68.225 34.8629L67.4625 34.8879ZM68.3625 34.8629L68.3375 35.6129L69.1125 35.5879C69.15 35.4254 69.225 35.0004 69.225 34.8379L68.3625 34.8629ZM69.15 35.7629L68.325 35.7879L68.25 36.7879L69.0375 36.7629C69.1482 36.5189 69.2442 36.2684 69.325 36.0129C69.2625 35.8879 69.2125 35.8504 69.15 35.7629ZM67.4875 35.8129L67.5125 36.8129L68.1125 36.7879L68.1875 35.7879L67.4875 35.8129ZM64.1125 35.6129L63.7875 35.6629C63.5352 36.0367 63.2726 36.4035 63 36.7629L64.1625 36.7379L64.125 35.6129H64.1125ZM64.2625 35.5754L64.3125 36.7254L65.0125 36.6754L64.8875 35.4754L64.2625 35.5754Z" fill="black"/>
<path d="M60.8621 32.8752H57.0996V32.7752L60.8496 32.8252L60.8621 32.8752ZM63.7996 29.8502C63.8371 29.8502 63.8371 29.8502 63.7996 29.8502L60.8621 29.8002C60.8121 29.8002 60.8121 29.8002 60.8621 29.8002H63.7996V29.8502ZM60.6746 30.6752C60.7121 30.6752 60.7121 30.7252 60.6746 30.7252H57.3371C57.2996 30.7252 57.3371 30.6752 57.3371 30.6752H60.6746ZM60.7621 28.5252C60.8121 28.5252 60.8121 28.5752 60.7621 28.5752H57.2996C57.2496 28.5752 57.2496 28.5252 57.2996 28.5252H60.7621ZM60.5121 26.8127C60.5621 26.8127 60.5621 26.8627 60.5121 26.8627H57.1371C57.0996 26.8627 57.1371 26.7627 57.1371 26.7627L60.5621 26.8127H60.5121Z" fill="black"/>
<path d="M63.7996 29.8502C63.8371 29.8502 63.8371 29.8502 63.7996 29.8502ZM63.7996 29.8502L60.8621 29.8002M63.7996 29.8502V29.8002H60.8621M60.8621 29.8002C60.8121 29.8002 60.8121 29.8002 60.8621 29.8002ZM60.8621 32.8752H57.0996V32.7752L60.8496 32.8252L60.8621 32.8752ZM60.6746 30.6752C60.7121 30.6752 60.7121 30.7252 60.6746 30.7252H57.3371C57.2996 30.7252 57.3371 30.6752 57.3371 30.6752H60.6746ZM60.7621 28.5252C60.8121 28.5252 60.8121 28.5752 60.7621 28.5752H57.2996C57.2496 28.5752 57.2496 28.5252 57.2996 28.5252H60.7621ZM60.5121 26.8127C60.5621 26.8127 60.5621 26.8627 60.5121 26.8627H57.1371C57.0996 26.8627 57.1371 26.7627 57.1371 26.7627L60.5621 26.8127H60.5121Z" stroke="black" stroke-width="0.05"/>
<path d="M64.0371 25.8379L61.0996 25.8879" stroke="black" stroke-width="0.05"/>
<path d="M64.1879 27.4998C64.2379 27.4998 64.2379 27.4998 64.1879 27.4998H61.0004C60.9504 27.4998 60.9504 27.4998 61.0004 27.4998H64.1879ZM67.3629 29.7498V29.7998H63.9379C63.8379 29.7998 63.8379 29.7998 63.9379 29.7998H67.3754L67.3629 29.7498ZM67.3629 26.8623C67.4629 26.8623 67.4629 26.9123 67.3629 26.9123H63.8754C63.8254 26.9123 63.8254 26.8623 63.8754 26.8623H67.4004H67.3629ZM64.1254 31.9498C64.1754 31.9498 64.1754 31.9998 64.1254 31.9998H61.0004V31.9498H64.1254ZM67.1504 32.3873C67.2004 32.3873 67.2004 32.3873 67.1504 32.3873V32.3873Z" fill="black"/>
<path d="M64.1879 27.4998C64.2379 27.4998 64.2379 27.4998 64.1879 27.4998ZM64.1879 27.4998H61.0004M61.0004 27.4998C60.9504 27.4998 60.9504 27.4998 61.0004 27.4998ZM63.9379 29.7998H67.3629V29.7498L67.3754 29.7998H63.9379ZM63.9379 29.7998C63.8379 29.7998 63.8379 29.7998 63.9379 29.7998ZM67.1504 32.3873C67.2004 32.3873 67.2004 32.3873 67.1504 32.3873ZM67.1504 32.3873H64.4129M67.3629 26.8623C67.4629 26.8623 67.4629 26.9123 67.3629 26.9123H63.8754C63.8254 26.9123 63.8254 26.8623 63.8754 26.8623H67.4004H67.3629ZM64.1254 31.9498C64.1754 31.9498 64.1754 31.9998 64.1254 31.9998H61.0004V31.9498H64.1254Z" stroke="black" stroke-width="0.05"/>
<path d="M69.6623 32.8754C69.7169 32.6495 69.7169 32.4138 69.6623 32.1879C69.5643 32.2164 69.4603 32.2164 69.3623 32.1879C69.3144 32.1515 69.2643 32.1181 69.2123 32.0879C69.1983 32.4082 69.135 32.7244 69.0248 33.0254C68.8748 33.0254 68.5248 33.0254 68.3873 32.9254L68.2373 33.4129C68.4802 33.4665 68.7319 33.4665 68.9748 33.4129C68.9748 33.7004 68.9248 33.9504 68.7748 34.1504C69.0248 34.1504 69.2748 34.1504 69.3123 34.0004C69.4623 33.8004 69.4623 33.5004 69.5123 33.3629L69.7623 33.3129L69.9998 33.2129L70.3373 33.1629V32.8754L70.4373 32.6754L69.6623 32.9254V32.8754Z" fill="#EF072D" stroke="black" stroke-width="0.05"/>
<path d="M57.5378 16.3501C57.1503 16.3501 56.2628 16.3501 56.0753 16.4501C55.9253 16.5501 55.8753 16.6001 56.1753 16.6501C56.4628 16.7001 57.0003 16.9001 57.3003 17.0376C57.5878 17.2376 57.7878 17.5376 57.7878 18.0126C57.6792 18.6155 57.7618 19.2372 58.0241 19.7908C58.2863 20.3444 58.7151 20.8022 59.2503 21.1001C59.3003 21.1501 59.3503 21.1876 59.3003 21.3876L59.1503 21.9251C59.1503 22.0251 59.1003 22.1251 59.2503 22.0751C59.096 22.3411 58.9291 22.5998 58.7503 22.8501C57.9753 22.7626 57.3003 22.8501 57.3003 23.7251C57.3003 23.8376 57.3003 23.9251 57.3878 23.7251C57.5378 23.5376 57.6878 23.3501 58.0253 23.2501C57.8378 23.5876 57.7378 23.8751 57.7753 24.0751C57.7753 24.2251 57.8753 24.3251 57.9753 24.0751C58.0253 23.8751 58.2253 23.6876 58.3753 23.5376C58.4628 23.4876 58.4628 23.4876 58.4128 23.6376C58.3918 23.8294 58.4456 24.0219 58.5628 24.1751C58.6628 24.2751 58.7128 24.2251 58.6628 24.0751C58.6628 23.8751 58.6628 23.5376 58.9128 23.4501C59.2003 23.2501 59.4878 23.3376 59.5878 23.5376C59.7378 23.7876 59.8378 23.5376 59.6878 23.3376C59.5378 23.1501 59.4003 22.9001 59.2003 22.9001L59.7003 22.0751C59.7003 21.9751 59.7878 21.9251 59.8878 21.9751C59.8878 22.0251 59.9878 22.0251 60.0253 21.8751L60.3753 21.1876L60.6628 21.1001L61.1628 21.8251V22.1251C61.1628 22.3126 60.9628 22.7501 60.9128 22.9001C60.3253 22.9001 60.0378 22.9001 59.8378 23.2501C59.7378 23.3876 59.8878 23.4376 60.0253 23.3876C60.1765 23.2975 60.3493 23.2499 60.5253 23.2501C60.6128 23.2501 60.6628 23.3376 60.5253 23.3876C60.1753 23.5376 59.9378 23.7876 59.9378 24.1251C59.9378 24.2251 60.0253 24.2751 60.0753 24.1251C60.2184 23.885 60.4456 23.7068 60.7128 23.6251C60.7128 23.8751 60.7628 24.2751 60.9628 24.3751C61.1003 24.4626 61.1003 24.3751 61.0628 24.2251C60.9628 23.9751 61.0628 23.7251 61.2003 23.5876C61.4503 23.3001 62.0378 23.6876 62.1878 23.7876C62.2753 23.8751 62.3753 23.9251 62.2753 23.6376C62.2253 23.3001 61.7378 23.1376 61.3003 23.0501L61.8878 21.0001C62.1378 21.1501 62.3878 20.7501 62.7628 20.9001C63.4191 21.1933 64.0432 21.5535 64.6253 21.9751C64.8253 22.1251 64.8753 22.0751 64.9628 21.9751C65.0628 21.9251 65.2128 21.9751 65.3628 21.9751C65.4503 22.0251 65.5503 22.0751 65.4128 21.7751C65.1316 21.263 64.7278 20.8291 64.2378 20.5126C64.6253 20.5126 65.1128 20.5126 65.1128 20.4126C65.1128 20.3126 64.5253 20.1126 64.2878 20.1126C64.5754 20.0601 64.8433 19.9305 65.0628 19.7376C65.1628 19.6251 65.0628 19.5751 64.6753 19.5751C63.6503 19.5751 63.1128 19.5751 62.5753 19.2876C61.7003 18.7876 61.1503 18.2126 60.7128 18.0126C60.5253 17.8751 60.3753 17.5751 60.2253 17.3376C59.9753 16.5876 59.9753 16.2126 59.3503 15.9626C58.7128 15.7126 57.8753 16.0126 57.5378 16.3501Z" fill="black" stroke="black" stroke-width="0.05"/>
<path d="M57.5872 16.5497H56.7622L57.4872 16.7497C57.6372 16.7497 57.5872 16.8872 57.4872 16.8372C57.3872 16.7997 57.2997 16.8372 57.3872 16.9372C57.8872 17.2872 57.9747 17.4372 57.8872 18.7497L58.1247 18.9497C58.2247 18.9497 58.1747 19.0372 58.1247 18.9872C58.0747 18.9497 57.8747 18.9872 58.0247 19.0872C58.1747 19.1872 58.2747 19.1872 58.1247 19.1872C57.9747 19.1872 57.8372 19.2872 58.1247 19.2372C58.3747 19.2372 58.5122 19.3372 58.1247 19.3872C57.8372 19.3872 57.9247 19.4872 58.1247 19.4872C58.4622 19.4872 58.3747 19.5747 58.2747 19.5747C58.1747 19.5747 58.1247 19.6747 58.3747 19.6747H58.7122C58.7622 19.6747 58.8122 19.6747 58.7122 19.7247C58.6122 19.7247 58.6122 19.8247 58.7622 19.8247C58.9122 19.8247 59.0122 19.8247 58.8622 19.8747C58.8122 19.8747 58.7122 19.9247 58.8622 19.9747C59.1997 19.9747 59.2372 20.0622 59.1497 20.1122C59.0497 20.1622 58.9997 20.1622 59.1497 20.1622C59.2997 20.1622 59.4497 20.2122 59.2997 20.2622C59.1997 20.2622 59.1497 20.3622 59.2997 20.3622C59.4497 20.3622 59.5497 20.4622 59.4497 20.5122C59.3497 20.5622 59.2997 20.6122 59.4497 20.6122C59.5872 20.6122 59.6372 20.6497 59.5372 20.6997C59.4497 20.7997 59.3997 20.7997 59.2872 20.6997C59.2872 20.6122 59.1997 20.6122 59.1997 20.6997L59.0997 20.5622C59.0497 20.4122 58.9497 20.4122 58.9497 20.5622C58.9497 20.6997 58.8622 20.6122 58.7622 20.5622C58.9988 20.8334 59.3193 21.0176 59.6726 21.0855C60.026 21.1535 60.3919 21.1013 60.7122 20.9372C60.7622 20.9372 60.8122 20.9372 60.8622 21.0997L61.1497 21.6372C61.1997 21.7247 61.2997 21.6372 61.2997 21.5372L61.5997 20.6997C61.5997 20.5622 61.7872 20.4497 61.7372 20.8497C61.8872 20.7497 62.4747 20.6997 62.9622 20.8497C63.4335 21.0382 63.8787 21.286 64.2872 21.5872C64.3222 21.6142 64.363 21.6328 64.4064 21.6415C64.4497 21.6501 64.4945 21.6487 64.5372 21.6372C64.6622 21.6372 64.7247 21.6372 64.4747 21.3872C64.2247 21.1372 64.3372 21.0497 64.4747 21.1372C64.6247 21.2372 64.7247 21.1872 64.5747 21.0497L64.0872 20.6122C64.0372 20.6122 64.0372 20.5122 63.7997 20.5122H63.0497C62.9622 20.5122 62.8622 20.5122 63.1622 20.6122C63.4497 20.6997 63.9872 21.0997 64.1372 21.1872C64.2872 21.2872 64.3372 21.4872 64.0872 21.2872C63.5304 20.9168 62.9452 20.5908 62.3372 20.3122C61.0122 20.4622 59.9372 20.6122 59.1497 19.7747C58.7622 19.3372 58.7622 18.3997 59.3997 18.0247C59.2997 17.9122 59.2997 17.8247 59.3497 17.8247V17.5247C59.2497 17.4747 59.1497 17.3747 59.1497 17.2747C58.9997 17.2747 58.8997 17.0372 58.6622 17.1372C58.4122 17.2372 58.3747 17.1372 58.2747 17.0872C58.2247 16.9872 58.1747 16.9872 58.0247 16.9872C57.8747 16.9872 57.7747 16.9872 57.7747 16.8872C57.7747 16.7997 57.8747 16.7997 58.0747 16.8872C58.4122 17.0372 58.6997 17.1372 58.9497 16.7997C59.1497 16.4997 58.8622 16.2622 58.4622 16.1622C58.0247 16.0622 57.7372 16.4122 57.5372 16.5497H57.5872Z" fill="white" stroke="black" stroke-width="0.05"/>
<path d="M59.7371 16.3998C59.5927 16.2697 59.4222 16.1717 59.2371 16.1123C59.1121 16.1123 59.1121 16.2123 59.1496 16.2623V16.5498C59.2496 16.5998 59.2996 16.6998 59.1496 16.6998C59.0496 16.7998 59.1496 17.1373 59.2996 17.0373H59.3996C59.3996 17.0373 59.3996 17.1873 59.4871 17.1873C59.5871 17.1873 59.4871 17.2873 59.4871 17.3373H59.5871C59.6871 17.3373 59.6371 17.5248 59.5371 17.5873C59.6871 17.5873 59.7371 17.5873 59.7371 17.6748C59.7871 17.7748 59.9371 17.8248 59.9371 17.9623C59.9371 18.1123 59.9371 18.1123 59.7371 18.0623C59.5371 18.0123 59.5371 18.0623 59.4871 18.1623C59.4496 18.2623 59.3996 18.3123 59.4871 18.3123C59.5871 18.3123 59.6871 18.3623 59.5371 18.4123C59.3996 18.4498 59.2496 18.4123 59.1996 18.5498C59.1996 18.6998 59.1996 18.7498 59.2996 18.6998L59.6371 18.4998L59.8871 18.5498C59.9871 18.5998 59.8871 18.7998 59.7871 18.6998C59.6871 18.5998 59.5871 18.6998 59.5371 18.7498L59.2871 18.8498C59.1996 18.8498 59.0996 18.8498 59.1621 19.0998C59.1621 19.7748 59.6871 20.2623 60.6621 20.2623H62.2871C61.9871 20.0623 61.7871 19.9748 61.6371 19.9748H61.4996C61.5496 19.9248 61.4996 19.8248 61.4496 19.8248C61.3996 19.8248 61.2996 19.7248 61.1996 19.8248L60.7121 20.0748C60.6121 20.0748 60.4621 20.0748 60.6121 19.9748L61.0621 19.7748C61.1496 19.7748 61.0996 19.6748 61.0996 19.6748C61.0996 19.6748 61.0996 19.5248 61.2496 19.5748C61.5496 19.7748 61.9871 20.0248 62.1246 20.0248C62.2746 20.0248 62.3246 19.9248 62.2246 19.8748C62.1371 19.8248 62.0871 19.7248 62.0871 19.6748C62.0871 19.6248 62.1371 19.5748 62.3371 19.6748C62.5246 19.8248 62.8121 19.9248 62.9621 19.9748C63.1121 20.0248 63.2121 20.0248 62.9621 19.8748L61.8371 19.0373C61.6871 18.8998 61.6871 19.0373 61.7371 19.1373C61.7871 19.2373 61.5996 19.2873 61.4871 19.1873C61.3996 19.0873 61.3496 19.0373 61.4871 18.9873C61.6371 18.9498 61.5996 18.8998 61.4496 18.7373C61.2496 18.6123 61.1996 18.6123 61.2496 18.7373C61.2996 18.8998 61.2996 18.9873 61.1496 18.9498C61.0121 18.8998 60.8621 18.7998 61.0121 18.7498C61.0996 18.6498 61.2621 18.5998 61.0121 18.4498C60.7621 18.3123 60.9121 18.4498 60.8621 18.5498C60.8121 18.6498 60.6621 18.6498 60.6121 18.5498C60.5621 18.4498 60.4746 18.4123 60.5246 18.3623C60.5621 18.3123 60.5621 18.2623 60.6621 18.3623C60.7621 18.4498 60.8621 18.3623 60.7121 18.2123C60.5621 18.0623 60.5246 18.1123 60.5621 18.2123C60.6121 18.3123 60.4746 18.4123 60.2746 18.2123C60.1746 18.1623 60.1746 18.0623 60.2746 18.0123C60.3746 18.0123 60.3746 17.9623 60.2746 17.8748C59.9371 17.2873 60.0746 16.8373 59.6871 16.3998H59.7371Z" fill="white" stroke="black" stroke-width="0.05"/>
<path d="M59.7499 16.4998C59.7249 16.5498 59.7124 16.5373 59.6499 16.5873C59.5874 16.6373 59.5624 16.7748 59.6874 16.7623C59.7219 16.7587 59.7552 16.7479 59.7854 16.7307C59.8155 16.7135 59.8417 16.6902 59.8623 16.6623C59.8338 16.6053 59.8004 16.5509 59.7624 16.4998H59.7499ZM59.3749 16.1748C59.2624 16.2748 59.2498 16.3248 59.2998 16.3248C59.3623 16.3248 59.3373 16.3248 59.2998 16.3998C59.2498 16.4623 59.3748 16.4998 59.4248 16.4373C59.4873 16.3873 59.4874 16.3748 59.5124 16.4373C59.5249 16.4998 59.6373 16.4373 59.6748 16.3998C59.5873 16.3123 59.4623 16.2373 59.3623 16.1748H59.3749ZM59.1874 16.7248C59.0624 16.7873 59.0998 17.1248 59.2998 17.0248C59.3623 16.9998 59.4123 17.0248 59.4123 17.0623V17.1498C59.4935 17.1163 59.5661 17.0651 59.6249 16.9998C59.7374 16.8498 59.6249 16.8748 59.4499 16.8748C59.2749 16.8748 59.2374 16.8373 59.3999 16.7373C59.5499 16.6373 59.4373 16.5873 59.2373 16.6123C59.2623 16.6498 59.2499 16.6873 59.1874 16.7248ZM59.9248 17.4748C59.8248 17.3623 59.8873 17.3248 59.9873 17.2623C60.0069 17.2542 60.0241 17.2413 60.0373 17.2248L59.9499 16.8998C59.9124 16.9248 59.8499 17.0373 59.8249 17.0873C59.7999 17.1748 59.7749 17.2248 59.6999 17.2123C59.6124 17.1748 59.5374 17.2623 59.5249 17.3498H59.5874C59.6124 17.3623 59.6248 17.4248 59.6123 17.4748C59.8498 17.4748 59.8873 17.6123 59.9248 17.7248C59.9748 17.8498 60.0123 17.8373 60.0498 17.7623C60.0873 17.6873 60.0123 17.5748 59.9248 17.4748Z" fill="#CF6200"/>
<path d="M59.9879 18.8004C59.9379 18.9004 59.9379 18.8879 59.8004 18.8879C59.6754 18.9004 59.5004 18.9254 59.4254 19.0004C59.3879 19.0379 59.1504 19.0629 59.1504 19.1629C59.1504 19.2754 59.1504 19.3504 59.2504 19.3629C59.3504 19.3629 59.3754 19.3879 59.3379 19.4629C59.2879 19.5379 59.2629 19.6504 59.4379 19.6754C59.6129 19.6754 59.7504 19.6379 59.7879 19.7254C59.8379 19.8504 59.7879 19.9879 59.8254 20.0629C59.8504 20.1254 59.9754 20.1504 60.1629 20.2129C60.2879 20.2379 60.7629 20.2754 60.9129 20.2504C61.0379 20.2254 60.9879 20.1504 60.8504 20.1504C60.7004 20.1254 60.6004 20.1004 60.5629 20.0004C60.5254 19.8879 60.5004 19.8379 60.5879 19.7504C60.6629 19.6504 60.7379 19.5879 60.6879 19.4379C60.6504 19.3004 60.5629 19.1254 60.4004 19.0754C60.2379 19.0254 60.2879 18.7879 60.1129 18.7754C60.0504 18.7754 60.0129 18.7754 59.9879 18.8004Z" fill="#FFFF00"/>
<path d="M59.1629 20.175C59.3129 20.2 59.4254 20.2375 59.3129 20.275C59.2004 20.3125 59.1254 20.375 59.2754 20.3875C59.4254 20.3875 59.5629 20.4625 59.4379 20.4875C59.3129 20.525 59.3129 20.6125 59.4504 20.6125C59.5879 20.6125 59.6629 20.6625 59.5629 20.7375C59.4504 20.7875 59.3879 20.825 59.3129 20.725C59.2504 20.6125 59.2129 20.6 59.2004 20.6625C59.1754 20.7375 59.1379 20.6875 59.0879 20.575C59.0504 20.475 58.9379 20.425 58.9629 20.5125C59.0004 20.6 58.8879 20.625 58.7754 20.575C58.8781 20.6951 59.0007 20.7966 59.1379 20.875C59.2879 20.825 59.4629 20.875 59.5129 20.875C59.5879 20.875 59.7754 20.925 59.8879 20.9875C60.0004 21.0375 60.0754 20.9375 60.0254 20.825C59.9754 20.7 59.9754 20.7375 59.9254 20.825C59.8504 20.875 59.8504 20.7875 59.8504 20.65C59.8504 20.55 59.7754 20.5625 59.7629 20.6375C59.7379 20.7 59.6754 20.5875 59.7004 20.525C59.7379 20.4625 59.7004 20.425 59.6504 20.45C59.5879 20.475 59.5879 20.45 59.5754 20.325C59.5629 20.1875 59.5129 20.2 59.5004 20.2625C59.4879 20.3125 59.4254 20.2375 59.3379 20.1375C59.2754 20.0625 59.2129 20.1125 59.0754 20.15L59.1629 20.175Z" fill="#CF6200"/>
<path d="M60.7002 20.9753C60.0127 21.2503 59.5127 21.1253 59.1377 20.8753C59.2877 20.8253 59.4627 20.8753 59.5252 20.8753C59.5877 20.8753 59.7877 20.9253 59.8877 20.9878C59.9877 21.0378 60.0752 20.9378 60.0252 20.8253C60.1127 20.9503 60.1877 21.0253 60.3002 21.0128L60.7002 20.9753ZM59.2252 17.7503C59.1752 17.6003 59.1377 17.5753 59.0627 17.5878C58.9877 17.5878 58.9502 17.5753 58.8627 17.5378C58.7877 17.5003 58.6752 17.5378 58.6627 17.7003C58.6377 17.8628 58.5377 17.9253 58.4127 18.0253C58.2877 18.1128 58.2252 18.1878 58.2252 18.3503C58.2252 18.5003 58.1877 18.5253 58.1002 18.6503L57.9627 18.8128L58.1127 18.9003C58.2127 18.9503 58.1752 19.0128 58.0877 18.9878C58.0002 18.9628 57.9002 19.0128 58.0627 19.0378C58.2127 19.0753 58.2752 19.1628 58.1377 19.1628C57.9752 19.1253 57.8127 19.2628 58.1002 19.2253C58.3877 19.2003 58.4877 19.3378 58.1627 19.3378C57.8252 19.3378 57.9502 19.4503 58.1377 19.4503C58.4502 19.4503 58.3502 19.5378 58.2627 19.5378C58.1877 19.5378 58.1502 19.6628 58.3627 19.6253L58.4377 19.5003C58.4752 19.4003 58.5002 19.1128 58.6252 19.0253C58.7377 18.9503 58.8002 18.8128 58.8002 18.7378C58.8002 18.6628 58.9877 18.2753 59.0877 18.1878C59.2127 18.1003 59.2627 17.9003 59.2127 17.7628L59.2252 17.7503Z" fill="#FFFF00"/>
<path d="M58.9748 17.7753C58.8623 17.6878 58.7373 17.7503 58.7373 17.9003C58.7373 18.0253 58.6623 18.0878 58.5623 18.1503C58.5063 18.1792 58.4572 18.2199 58.4183 18.2695C58.3795 18.3191 58.3518 18.3765 58.3373 18.4378C58.3373 18.5628 58.3623 18.6253 58.2873 18.7253C58.1998 18.8128 58.1873 18.8878 58.2373 18.9503C58.3123 19.0003 58.3123 19.0003 58.3248 19.0753C58.3623 19.1503 58.4998 19.0753 58.4998 18.9878C58.4998 18.9003 58.5373 18.9003 58.6248 18.8503C58.7248 18.8003 58.8748 18.5503 58.8373 18.4878C58.8123 18.4253 58.7123 18.3628 58.8373 18.2753C58.9623 18.1753 59.0623 18.1503 59.0623 18.0753C59.0623 17.9753 59.0873 17.9503 59.1248 17.9128C59.1623 17.8753 59.0498 17.8253 58.9748 17.7878V17.7753Z" fill="#CF6200"/>
<path d="M58.9755 17.6501C58.9005 17.6251 58.8505 17.7876 58.963 17.8126C59.0755 17.8376 59.088 17.7001 58.963 17.6626L58.9755 17.6501ZM58.963 17.8626C58.8755 17.8751 58.7755 17.9876 58.913 17.9876C59.063 17.9626 59.113 17.8626 58.9505 17.8626H58.963ZM58.788 18.0751C58.7005 18.1126 58.7255 18.2376 58.8505 18.1501C58.9755 18.0626 59.0005 17.9626 58.788 18.0751ZM58.663 18.2501C58.5755 18.2876 58.5755 18.4126 58.713 18.3251C58.838 18.2501 58.8755 18.1376 58.663 18.2501Z" fill="black"/>
<path d="M58.4874 18.3376C58.3999 18.3751 58.4499 18.4876 58.5749 18.4126C58.6999 18.3376 58.6999 18.2251 58.4874 18.3376ZM58.5874 18.4501C58.4874 18.4876 58.5499 18.6001 58.6749 18.5251C58.7999 18.4501 58.7999 18.3376 58.5749 18.4501H58.5874Z" fill="black"/>
<path d="M58.4255 18.487C58.3505 18.537 58.4005 18.637 58.538 18.562C58.663 18.487 58.6505 18.3745 58.4255 18.487ZM58.538 18.612C58.438 18.6495 58.488 18.762 58.6255 18.687C58.7505 18.5995 58.7505 18.4995 58.5255 18.612H58.538Z" fill="black"/>
<path d="M58.3747 18.6872C58.2997 18.7247 58.3497 18.8372 58.4872 18.7622C58.6122 18.6872 58.5872 18.5747 58.3872 18.6872H58.3747Z" fill="black"/>
<path d="M58.3752 18.7878C58.3127 18.8378 58.3627 18.9628 58.5002 18.8753C58.6252 18.7878 58.6002 18.6878 58.3752 18.7878Z" fill="black"/>
<path d="M58.3247 19.8623C58.2372 19.8623 58.1747 19.9998 58.2872 20.0248C58.3997 20.0498 58.4247 20.0623 58.4247 20.1373C58.4247 20.2123 58.4622 20.3498 58.5747 20.3498C58.6997 20.3498 58.7997 20.2248 58.6997 20.1873C58.5872 20.1498 58.4997 20.1123 58.4872 20.0123C58.4872 19.9248 58.3872 19.8623 58.3247 19.8623Z" fill="#CF6200"/>
<path d="M61.4375 19.1247L61.5 19.1997C61.5875 19.2622 61.75 19.1997 61.7125 19.1372C61.7 19.0872 61.6125 18.8872 61.8375 19.0372L62.9875 19.8497C63.225 20.0247 63.0625 20.0497 62.9625 19.9872L62.3375 19.6997C62.15 19.5872 62.125 19.6372 62.0875 19.6622C62.0875 19.6997 62.0875 19.7747 62.1625 19.8372C62.05 19.8497 61.875 19.8372 61.8125 19.7122C61.75 19.5622 61.6 19.3872 61.4875 19.2497C61.45 19.1997 61.4375 19.1622 61.45 19.1372L61.4375 19.1247Z" fill="#FFFF00"/>
<path d="M67.7505 39.9371C67.588 40.0496 67.3755 40.2371 67.513 40.4996L67.563 40.4871C68.1727 39.747 68.7125 38.9519 69.1755 38.1121V38.0371C69.0056 38.1766 68.816 38.2904 68.613 38.3746C68.688 38.5871 68.3255 38.8496 68.1505 38.9246C68.2255 39.0496 68.2005 39.2496 68.0255 39.2871C68.063 39.3871 67.938 39.3871 67.7755 39.4621C67.638 39.5246 67.563 39.5621 67.513 39.6496C67.588 39.5996 67.713 39.5621 67.763 39.5871C67.813 39.6121 67.838 39.6996 67.7255 39.7246C67.6255 39.7621 67.5505 39.8121 67.5005 39.8496C67.663 39.8121 67.9005 39.8246 67.7505 39.9371Z" fill="#00D860"/>
<path d="M60.2251 18.8995C60.0251 18.7495 59.9751 18.8495 60.0251 18.8995C60.0751 18.9495 60.0251 19.087 59.8876 19.1495H59.3876C59.3001 19.1495 59.1501 19.337 59.3876 19.2745L60.1751 19.1495C60.2751 19.1495 60.3751 19.037 60.1751 18.8995H60.2251ZM60.5626 19.187C60.4251 19.037 60.3751 19.087 60.4251 19.187C60.4751 19.287 60.3751 19.337 60.2751 19.337L59.5876 19.5245C59.4001 19.5245 59.4001 19.6745 59.6376 19.6745C59.8876 19.6745 60.3751 19.4245 60.4251 19.4245C60.4751 19.4245 60.5251 19.287 60.5626 19.337C60.6126 19.387 60.7126 19.337 60.5626 19.187ZM60.7126 19.5745L60.2251 19.8245C60.0751 19.8245 59.9751 19.9745 60.2251 19.9745C60.4751 19.9745 60.7251 19.7245 60.8126 19.6745L61.0126 19.5745C61.0126 19.5745 61.2001 19.5245 61.0126 19.387C60.8126 19.237 60.6126 19.387 60.7126 19.437C60.8126 19.487 60.7126 19.5745 60.7126 19.5745Z" fill="black" stroke="black" stroke-width="0.05"/>
<path d="M58.7127 16.3995C58.4002 16.187 58.0627 16.612 58.4002 16.8495C58.7002 17.062 59.0252 16.5995 58.7252 16.3995H58.7127Z" fill="black"/>
<path d="M58.3247 16.5879H58.4122C58.4122 16.6879 58.4997 16.8379 58.6372 16.8004C58.5247 16.8879 58.3122 16.7754 58.3247 16.5879ZM59.5247 21.2129C59.6247 21.2504 59.9497 21.2754 60.0747 21.2754L59.9247 21.5504C59.8872 21.6379 59.8747 21.6504 59.8622 21.5129C59.8622 21.3879 59.7872 21.3004 59.7247 21.4379L59.5997 21.6879C59.5622 21.7379 59.5122 21.7504 59.5247 21.6129C59.5497 21.4754 59.5372 21.3254 59.5247 21.2129Z" fill="white"/>
<path d="M71.8123 24.9623C71.8123 32.9248 70.5373 41.5248 60.1873 45.6248C49.8623 41.5248 48.5998 32.9248 48.5498 24.9623H71.8123ZM71.8123 24.9623C71.8123 21.9248 71.6623 18.9873 71.7123 16.4623C68.0354 15.0324 64.1198 14.3155 60.1748 14.3498C57.5873 14.3498 52.4998 14.7373 48.6498 16.4498C48.7373 18.9873 48.5498 21.9248 48.5498 24.9498L71.8123 24.9623Z" stroke="black" stroke-width="0.15"/>
<path d="M0 0H40V30H0V0Z" fill="#012169"/>
<path d="M4.6875 0L19.9375 11.3125L35.125 0H40V3.875L25 15.0625L40 26.1875V30H35L20 18.8125L5.0625 30H0V26.25L14.9375 15.125L0 4V0H4.6875Z" fill="white"/>
<path d="M26.5 17.5625L40 27.5V30L23.0625 17.5625H26.5ZM15 18.8125L15.375 21L3.375 30H0L15 18.8125ZM40 0V0.1875L24.4375 11.9375L24.5625 9.1875L36.875 0H40ZM0 0L14.9375 11H11.1875L0 2.625V0Z" fill="#C8102E"/>
<path d="M15.0625 0V30H25.0625V0H15.0625ZM0 10V20H40V10H0Z" fill="white"/>
<path d="M0 12.0625V18.0625H40V12.0625H0ZM17.0625 0V30H23.0625V0H17.0625Z" fill="#C8102E"/>
</g>
<defs>
<clipPath id="clip0_3736_61908">
<rect width="80" height="60" fill="white"/>
</clipPath>
</defs>
</svg>
