<svg width="80" height="60" viewBox="0 0 80 60" fill="none" xmlns="http://www.w3.org/2000/svg">
<g clip-path="url(#clip0_3736_61946)">
<path fill-rule="evenodd" clip-rule="evenodd" d="M0 0H80V60H0V0Z" fill="#CE1126"/>
<path fill-rule="evenodd" clip-rule="evenodd" d="M0 0H40V30H0V0Z" fill="#002B7F"/>
<path fill-rule="evenodd" clip-rule="evenodd" d="M22.4996 28.6625L19.9121 26.9125L17.4246 28.675L18.2371 25.5625L15.8621 23.6625L18.9246 23.475L19.9371 20.525L21.0371 23.525L24.0371 23.6125L21.6621 25.65L22.4996 28.6625ZM22.0496 7.9625L19.9746 6.625L17.9746 7.925L18.5246 5.425L16.6996 3.8375L19.1246 3.6375L20.0246 1.3125L20.9496 3.65L23.3371 3.8625L21.4996 5.5375L22.0496 7.9625ZM12.9246 15.4L10.9246 14.025L8.83711 15.4L9.48711 12.975L7.59961 11.375L9.99961 11.25L10.8746 8.875L11.7246 11.2375L14.1746 11.375L12.2996 12.9375L12.9246 15.4ZM31.2496 13.75L29.3246 12.5L27.4496 13.75L27.9996 11.4625L26.2496 9.9875L28.5371 9.8L29.3246 7.65L30.1996 9.825L32.4121 9.95L30.6996 11.4875L31.2496 13.75ZM25.8621 19.175L24.5746 18.375L23.2871 19.2L23.6246 17.6625L22.4746 16.625L23.9746 16.5L24.5496 15.05L25.1621 16.5L26.6496 16.625L25.5121 17.6625L25.8621 19.175Z" fill="white"/>
</g>
<defs>
<clipPath id="clip0_3736_61946">
<rect width="80" height="60" fill="white"/>
</clipPath>
</defs>
</svg>
