<svg width="80" height="60" viewBox="0 0 80 60" fill="none" xmlns="http://www.w3.org/2000/svg">
<g clip-path="url(#clip0_3736_62014)">
<path fill-rule="evenodd" clip-rule="evenodd" d="M0 30H80V60H0V30Z" fill="#19B6EF"/>
<path fill-rule="evenodd" clip-rule="evenodd" d="M0 0H80V30H0V0Z" fill="white"/>
<path fill-rule="evenodd" clip-rule="evenodd" d="M39.6254 42.4001C46.2004 37.5001 53.2504 27.5001 44.9879 22.2251C43.4504 21.9251 41.7379 22.0126 40.9004 22.6751C40.4629 22.4251 40.1129 22.4501 39.6754 22.9126C39.3629 22.5376 39.0504 22.3626 38.4254 22.5501C37.8271 22.2286 37.1707 22.0298 36.4945 21.9654C35.8183 21.901 35.1361 21.9723 34.4879 22.1751C27.2504 26.4751 31.6754 36.7501 39.6254 42.3876V42.4001Z" fill="#FFDD00" stroke="#7D6C00" stroke-width="0.3"/>
<path fill-rule="evenodd" clip-rule="evenodd" d="M51.7504 31.2622C51.7504 31.2622 52.5004 30.2622 52.5254 30.2622C53.2629 29.8372 53.3379 29.2747 53.3379 29.2747C54.0754 29.0497 53.8379 28.4372 53.9004 28.3622C54.0157 28.2492 54.0941 28.104 54.1254 27.9456C54.1566 27.7872 54.1392 27.6231 54.0754 27.4747C54.0754 27.3747 54.3254 26.4247 53.9754 26.2997C53.9879 25.2997 53.3754 25.3872 52.8754 26.0497C52.3504 26.1997 52.2379 26.6372 52.4254 27.1122C51.7379 27.1122 51.7129 28.1122 51.9129 28.6622C51.0004 28.6372 51.5004 29.6622 51.4754 29.7122C51.1754 29.8622 51.7129 31.3122 51.7629 31.2622H51.7504ZM46.0004 39.7872L46.4504 40.0622C46.5504 40.4122 46.8754 40.6372 47.1129 40.5747C47.2379 41.1122 47.8129 41.0372 48.2379 40.7247C48.5754 41.2247 48.9879 41.2247 49.5629 41.0622C50.0629 41.4372 50.7254 41.2747 51.1629 40.8872C51.6254 41.2622 51.9379 40.9872 52.1754 40.5747C52.5504 40.6747 52.8254 40.6122 52.9629 40.2497C53.6754 40.1872 53.3254 39.5122 52.7379 39.2247C53.2004 38.8247 53.7254 37.9747 52.9879 37.8497C52.7629 37.6872 52.3254 37.7247 52.0004 37.8747C51.9129 37.4997 51.4004 37.4122 50.8254 37.8247C50.6379 37.4122 49.9504 37.6122 49.6379 37.8997C49.2254 37.5497 48.7379 37.5497 48.0254 37.9497L46.0004 39.7872ZM46.0004 38.6997C46.0754 38.2247 45.7504 37.3747 46.2504 37.2997C46.1629 36.5122 46.2879 35.6372 47.1879 35.7122C47.3379 34.9747 47.3129 34.2872 48.1629 34.1872C48.1629 34.1872 48.8504 31.7997 49.5629 33.4497C49.8379 33.9372 49.7879 34.7247 49.2254 34.5747C49.3379 35.1622 49.1379 35.6872 48.4879 35.6622C48.7754 36.0872 48.6879 36.6497 48.3629 36.9122L45.9879 38.6997H46.0004ZM50.1379 35.7122L50.8879 35.5622C51.6379 35.0622 51.9504 34.8497 52.3254 35.4122C52.9629 35.2872 53.5754 35.3372 53.5504 35.8372C54.3004 35.8997 54.3004 36.3747 54.2129 36.7622C54.3379 37.4247 54.0379 38.2997 53.5879 37.2372C52.1004 36.3372 51.2629 36.4622 48.9254 36.9872L50.1379 35.7122ZM50.5254 34.9747C50.5504 34.9497 52.7129 34.3872 52.4879 33.7247C53.1004 33.6247 53.2254 33.0122 53.2379 33.0122C54.5254 32.6122 54.4504 31.8747 54.4504 31.8747C54.8129 31.4872 55.4504 31.0872 55.3129 30.3997C55.3504 29.6122 55.4254 29.1247 54.3629 29.6372C53.5754 29.5622 53.3004 30.0122 53.0754 30.6997C52.7004 30.2622 52.1004 30.9622 52.0254 31.5872C52.0254 31.5872 51.0629 32.5372 51.0629 32.5622L50.2504 34.0622L50.5254 34.9747Z" fill="#4FD46B" stroke="#3A9D4F" stroke-width="0.3" stroke-linejoin="round"/>
<path fill-rule="evenodd" clip-rule="evenodd" d="M50.5629 33.3001C50.0504 32.9126 49.7629 32.4376 49.8504 31.9751C49.5129 31.5126 49.2754 31.2376 49.6004 30.8251L49.3504 29.8876C48.6754 29.6376 48.9629 29.0751 49.1379 28.8751C48.8254 28.4376 48.8129 27.9751 49.1129 27.5751C49.1129 26.7626 49.6879 27.0751 50.1504 27.5751C50.1504 27.5751 50.9504 28.1376 50.3629 28.6376C50.9504 28.8501 51.1129 29.3501 50.7879 29.5626C51.3004 29.7876 51.3754 30.2501 51.1004 30.5626C51.6129 30.9626 51.4254 31.4876 51.5754 31.9501L50.5629 33.3001Z" fill="#4FD46B" stroke="#3A9D4F" stroke-width="0.3" stroke-linejoin="round"/>
<path fill-rule="evenodd" clip-rule="evenodd" d="M51.475 29.5004C51.45 29.4879 50.6125 28.4129 50.85 28.3379C50.7875 28.0129 50.5375 27.6504 50.6875 27.3254C50.275 26.9004 50.2626 26.4129 50.5876 26.0254C50.3126 25.6504 50.4375 25.1379 50.8125 24.8004C50.6875 24.1754 51.1376 24.0254 51.5251 23.9129C51.8126 22.9129 52.275 23.1629 52.55 23.9379C52.95 24.2879 52.8875 24.8129 52.75 25.2129C53.225 25.5254 52.9375 25.9254 52.725 26.0879L51.475 29.5129V29.5004Z" fill="#4FD46B" stroke="#3A9D4F" stroke-width="0.3" stroke-linejoin="round"/>
<path fill-rule="evenodd" clip-rule="evenodd" d="M51.3505 24.1376L50.638 23.4251C50.8255 23.0501 50.9755 22.3876 50.438 22.0751C50.138 21.3626 48.663 20.4626 48.4255 22.1751C48.2005 21.6626 47.7255 21.1501 47.388 21.7501C46.613 21.0876 46.2005 21.2876 46.6005 22.1251C46.6005 22.1251 46.238 22.6876 47.1755 23.1251C47.2505 23.2001 46.8755 24.1376 48.0005 24.1626C47.788 24.4876 48.1255 24.9376 48.5755 24.9126C48.263 25.3001 48.8005 25.7251 49.138 25.5626C49.0005 26.0001 49.013 26.2126 49.6255 26.2751L50.313 27.0626L50.8755 27.8251L51.3505 24.1376Z" fill="#4FD46B" stroke="#3A9D4F" stroke-width="0.3" stroke-linejoin="round"/>
<path d="M51.7875 30.8127C51.825 30.7752 53.1625 27.7127 53.3375 26.7877M51.925 25.3752C51.925 25.3752 52.15 27.8752 51.5375 29.7002M47.825 22.8627C47.825 22.8627 50.5625 25.4877 50.825 26.5752M49.7375 22.5752C49.7375 22.5752 49.9125 24.7377 50.675 26.8627M54.55 30.4127C54.55 30.4127 51.825 32.7252 50.5 34.7502M51.975 38.5002C51.975 38.5002 48.375 39.0002 46.8 39.0377M50.8 40.0377C50.8 40.0377 46.325 39.9377 46 39.6127M48.5625 34.2377C48.5625 34.2877 46.2875 38.0252 46.2125 39.2377" stroke="#3A9D4F" stroke-width="0.275" stroke-linecap="round"/>
<path fill-rule="evenodd" clip-rule="evenodd" d="M39.6125 41.6748C34.8875 37.2248 30.05 28.8748 34.8625 24.6498C35.7125 25.1248 36.725 24.6998 38.1125 24.1498C38.5375 24.6123 39.075 24.7248 39.6125 24.3748C39.8334 24.4834 40.0839 24.5166 40.3255 24.4692C40.5671 24.4218 40.7865 24.2964 40.95 24.1123C42.325 24.8998 44.0625 25.3123 44.475 24.5248C49.2 29.0248 44.4 37.4248 39.6 41.6873L39.6125 41.6748Z" fill="#65C7FF" stroke="#7D6C00" stroke-width="0.3"/>
<path fill-rule="evenodd" clip-rule="evenodd" d="M39.6254 41.5502C37.4696 39.4654 35.6819 37.0311 34.3379 34.3502C34.5879 34.1377 34.7004 34.0752 34.8254 33.7252C35.5504 33.8252 35.9379 33.8502 36.8879 33.6752C37.0879 34.4002 37.1254 35.0002 37.5754 35.6002L38.5379 33.7252C39.2147 33.8966 39.9236 33.8966 40.6004 33.7252C41.0004 34.2502 40.8504 35.0627 41.5629 35.6752C41.9879 34.4252 42.4004 34.3502 42.8254 33.6752C43.4504 33.9002 43.8504 33.8002 44.3629 33.6377C44.6129 33.9502 44.4879 33.9377 44.9879 34.3877C43.6646 37.0866 41.8504 39.5155 39.6379 41.5502H39.6254Z" fill="#8FC753"/>
<path fill-rule="evenodd" clip-rule="evenodd" d="M34.0746 20.5371C34.0852 20.5982 34.0823 20.6608 34.0661 20.7206C34.05 20.7804 34.0209 20.836 33.981 20.8834C33.9411 20.9308 33.8914 20.9689 33.8352 20.9951C33.779 21.0212 33.7178 21.0348 33.6559 21.0348C33.5939 21.0348 33.5327 21.0212 33.4765 20.9951C33.4203 20.9689 33.3706 20.9308 33.3307 20.8834C33.2908 20.836 33.2617 20.7804 33.2456 20.7206C33.2294 20.6608 33.2265 20.5982 33.2371 20.5371C33.2371 20.4244 33.2819 20.3163 33.3616 20.2366C33.4413 20.1569 33.5494 20.1121 33.6621 20.1121C33.7748 20.1121 33.8829 20.1569 33.9626 20.2366C34.0423 20.3163 34.0871 20.4244 34.0871 20.5371H34.0746ZM33.6371 19.5746C33.6526 19.6373 33.6537 19.7026 33.6402 19.7657C33.6268 19.8288 33.5991 19.888 33.5594 19.9388C33.5196 19.9896 33.4688 20.0307 33.4108 20.059C33.3528 20.0873 33.2891 20.102 33.2246 20.102C33.1601 20.102 33.0964 20.0873 33.0384 20.059C32.9804 20.0307 32.9296 19.9896 32.8899 19.9388C32.8501 19.888 32.8224 19.8288 32.809 19.7657C32.7955 19.7026 32.7966 19.6373 32.8121 19.5746C32.8292 19.476 32.8806 19.3865 32.9572 19.3221C33.0338 19.2576 33.1307 19.2223 33.2309 19.2223C33.331 19.2223 33.4279 19.2576 33.5045 19.3221C33.5811 19.3865 33.6325 19.476 33.6496 19.5746H33.6371ZM33.1371 18.6871C33.1477 18.7482 33.1448 18.8108 33.1286 18.8706C33.1125 18.9304 33.0834 18.986 33.0435 19.0334C33.0036 19.0808 32.9539 19.1189 32.8977 19.1451C32.8415 19.1712 32.7803 19.1848 32.7184 19.1848C32.6564 19.1848 32.5952 19.1712 32.539 19.1451C32.4828 19.1189 32.4331 19.0808 32.3932 19.0334C32.3533 18.986 32.3242 18.9304 32.3081 18.8706C32.2919 18.8108 32.289 18.7482 32.2996 18.6871C32.3167 18.5885 32.3681 18.499 32.4447 18.4346C32.5213 18.3701 32.6182 18.3348 32.7184 18.3348C32.8185 18.3348 32.9154 18.3701 32.992 18.4346C33.0686 18.499 33.12 18.5885 33.1371 18.6871ZM32.7871 17.8121C32.7977 17.8732 32.7948 17.9358 32.7786 17.9956C32.7625 18.0554 32.7334 18.111 32.6935 18.1584C32.6536 18.2058 32.6039 18.2439 32.5477 18.2701C32.4915 18.2962 32.4303 18.3098 32.3684 18.3098C32.3064 18.3098 32.2452 18.2962 32.189 18.2701C32.1328 18.2439 32.0831 18.2058 32.0432 18.1584C32.0033 18.111 31.9742 18.0554 31.9581 17.9956C31.9419 17.9358 31.939 17.8732 31.9496 17.8121C31.9667 17.7135 32.0181 17.624 32.0947 17.5596C32.1713 17.4951 32.2682 17.4598 32.3684 17.4598C32.4685 17.4598 32.5654 17.4951 32.642 17.5596C32.7186 17.624 32.77 17.7135 32.7871 17.8121ZM32.8496 16.8621C32.8602 16.9232 32.8573 16.9858 32.8411 17.0456C32.825 17.1054 32.7959 17.161 32.756 17.2084C32.7161 17.2558 32.6664 17.2939 32.6102 17.3201C32.554 17.3462 32.4928 17.3598 32.4309 17.3598C32.3689 17.3598 32.3077 17.3462 32.2515 17.3201C32.1953 17.2939 32.1456 17.2558 32.1057 17.2084C32.0658 17.161 32.0367 17.1054 32.0206 17.0456C32.0044 16.9858 32.0015 16.9232 32.0121 16.8621C32.0292 16.7635 32.0806 16.6741 32.1572 16.6096C32.2338 16.5451 32.3307 16.5098 32.4309 16.5098C32.531 16.5098 32.6279 16.5451 32.7045 16.6096C32.7811 16.6741 32.8325 16.7635 32.8496 16.8621ZM35.0496 15.2996C35.0602 15.3607 35.0573 15.4233 35.0411 15.4831C35.025 15.5429 34.9959 15.5985 34.956 15.6459C34.9161 15.6933 34.8664 15.7314 34.8102 15.7576C34.754 15.7837 34.6928 15.7973 34.6309 15.7973C34.5689 15.7973 34.5077 15.7837 34.4515 15.7576C34.3953 15.7314 34.3456 15.6933 34.3057 15.6459C34.2658 15.5985 34.2367 15.5429 34.2206 15.4831C34.2044 15.4233 34.2015 15.3607 34.2121 15.2996C34.2292 15.201 34.2806 15.1116 34.3572 15.0471C34.4338 14.9826 34.5307 14.9473 34.6309 14.9473C34.731 14.9473 34.8279 14.9826 34.9045 15.0471C34.9811 15.1116 35.0325 15.201 35.0496 15.2996Z" fill="white" stroke="black" stroke-width="0.1375"/>
<path fill-rule="evenodd" clip-rule="evenodd" d="M34.225 15.4504C34.2356 15.5115 34.2327 15.5741 34.2165 15.6339C34.2004 15.6937 34.1713 15.7493 34.1314 15.7967C34.0915 15.8441 34.0418 15.8822 33.9856 15.9083C33.9294 15.9345 33.8682 15.948 33.8063 15.948C33.7443 15.948 33.6831 15.9345 33.6269 15.9083C33.5707 15.8822 33.521 15.8441 33.4811 15.7967C33.4412 15.7493 33.4121 15.6937 33.396 15.6339C33.3798 15.5741 33.3769 15.5115 33.3875 15.4504C33.4046 15.3518 33.456 15.2623 33.5326 15.1979C33.6092 15.1334 33.7061 15.098 33.8063 15.098C33.9064 15.098 34.0033 15.1334 34.0799 15.1979C34.1565 15.2623 34.2079 15.3518 34.225 15.4504ZM33.3125 15.9879C33.3231 16.049 33.3202 16.1116 33.304 16.1714C33.2879 16.2312 33.2588 16.2868 33.2189 16.3342C33.179 16.3816 33.1293 16.4197 33.0731 16.4458C33.0169 16.472 32.9557 16.4855 32.8937 16.4855C32.8318 16.4855 32.7706 16.472 32.7144 16.4458C32.6582 16.4197 32.6085 16.3816 32.5686 16.3342C32.5287 16.2868 32.4996 16.2312 32.4835 16.1714C32.4673 16.1116 32.4644 16.049 32.475 15.9879C32.4921 15.8893 32.5435 15.7998 32.6201 15.7354C32.6967 15.6709 32.7936 15.6355 32.8937 15.6355C32.9939 15.6355 33.0908 15.6709 33.1674 15.7354C33.244 15.7998 33.2954 15.8893 33.3125 15.9879ZM36.1125 15.3129C36.128 15.3755 36.1291 15.4409 36.1156 15.504C36.1022 15.5671 36.0745 15.6263 36.0347 15.6771C35.995 15.7279 35.9442 15.769 35.8862 15.7973C35.8282 15.8255 35.7645 15.8402 35.7 15.8402C35.6355 15.8402 35.5718 15.8255 35.5138 15.7973C35.4558 15.769 35.405 15.7279 35.3653 15.6771C35.3255 15.6263 35.2978 15.5671 35.2844 15.504C35.2709 15.4409 35.272 15.3755 35.2875 15.3129C35.3103 15.2208 35.3634 15.139 35.4381 15.0805C35.5129 15.022 35.6051 14.9902 35.7 14.9902C35.7949 14.9902 35.8871 15.022 35.9619 15.0805C36.0366 15.139 36.0896 15.2208 36.1125 15.3129ZM37.2875 15.4129C37.2981 15.474 37.2952 15.5366 37.279 15.5964C37.2629 15.6562 37.2338 15.7118 37.1939 15.7592C37.154 15.8066 37.1043 15.8447 37.0481 15.8708C36.9919 15.897 36.9307 15.9105 36.8688 15.9105C36.8068 15.9105 36.7456 15.897 36.6894 15.8708C36.6332 15.8447 36.5835 15.8066 36.5436 15.7592C36.5037 15.7118 36.4746 15.6562 36.4585 15.5964C36.4423 15.5366 36.4394 15.474 36.45 15.4129C36.4671 15.3143 36.5185 15.2248 36.5951 15.1604C36.6717 15.0959 36.7686 15.0605 36.8688 15.0605C36.9689 15.0605 37.0658 15.0959 37.1424 15.1604C37.219 15.2248 37.2704 15.3143 37.2875 15.4129ZM38.3125 15.3504C38.328 15.413 38.3291 15.4784 38.3156 15.5415C38.3022 15.6046 38.2745 15.6638 38.2347 15.7146C38.195 15.7654 38.1442 15.8065 38.0862 15.8348C38.0282 15.863 37.9645 15.8777 37.9 15.8777C37.8355 15.8777 37.7718 15.863 37.7138 15.8348C37.6558 15.8065 37.605 15.7654 37.5653 15.7146C37.5255 15.6638 37.4978 15.6046 37.4844 15.5415C37.4709 15.4784 37.472 15.413 37.4875 15.3504C37.5046 15.2518 37.556 15.1623 37.6326 15.0979C37.7092 15.0334 37.8061 14.998 37.9063 14.998C38.0064 14.998 38.1033 15.0334 38.1799 15.0979C38.2565 15.1623 38.3079 15.2518 38.325 15.3504H38.3125Z" fill="white" stroke="black" stroke-width="0.1375"/>
<path fill-rule="evenodd" clip-rule="evenodd" d="M40.7379 14.6873C40.7379 14.9724 40.6246 15.2458 40.423 15.4474C40.2214 15.649 39.948 15.7623 39.6629 15.7623C39.3778 15.7623 39.1043 15.649 38.9027 15.4474C38.7011 15.2458 38.5879 14.9724 38.5879 14.6873C38.5879 14.4022 38.7011 14.1288 38.9027 13.9272C39.1043 13.7256 39.3778 13.6123 39.6629 13.6123C39.948 13.6123 40.2214 13.7256 40.423 13.9272C40.6246 14.1288 40.7379 14.4022 40.7379 14.6873Z" fill="#FFDD00" stroke="#7D6C00" stroke-width="0.1375"/>
<path fill-rule="evenodd" clip-rule="evenodd" d="M41.8754 15.3377C41.8754 15.4504 41.8306 15.5586 41.7509 15.6383C41.6712 15.718 41.5631 15.7627 41.4504 15.7627C41.3377 15.7627 41.2296 15.718 41.1499 15.6383C41.0702 15.5586 41.0254 15.4504 41.0254 15.3377C41.0425 15.2391 41.0939 15.1496 41.1705 15.0852C41.2471 15.0207 41.344 14.9854 41.4441 14.9854C41.5443 14.9854 41.6412 15.0207 41.7178 15.0852C41.7944 15.1496 41.8458 15.2391 41.8629 15.3377H41.8754ZM42.9504 15.4252C42.9659 15.4879 42.967 15.5532 42.9535 15.6163C42.94 15.6794 42.9124 15.7386 42.8726 15.7894C42.8329 15.8402 42.7821 15.8813 42.7241 15.9096C42.6661 15.9379 42.6024 15.9525 42.5379 15.9525C42.4734 15.9525 42.4097 15.9379 42.3517 15.9096C42.2937 15.8813 42.2429 15.8402 42.2031 15.7894C42.1634 15.7386 42.1357 15.6794 42.1223 15.6163C42.1088 15.5532 42.1099 15.4879 42.1254 15.4252C42.1425 15.3266 42.1939 15.2371 42.2705 15.1727C42.3471 15.1082 42.444 15.0729 42.5441 15.0729C42.6443 15.0729 42.7412 15.1082 42.8178 15.1727C42.8944 15.2371 42.9458 15.3266 42.9629 15.4252H42.9504ZM44.0129 15.3752C44.0235 15.4363 44.0206 15.4989 44.0044 15.5587C43.9883 15.6185 43.9592 15.6741 43.9193 15.7215C43.8794 15.7689 43.8297 15.807 43.7735 15.8332C43.7173 15.8593 43.6561 15.8729 43.5941 15.8729C43.5322 15.8729 43.471 15.8593 43.4148 15.8332C43.3586 15.807 43.3088 15.7689 43.269 15.7215C43.2291 15.6741 43.2 15.6185 43.1839 15.5587C43.1677 15.4989 43.1648 15.4363 43.1754 15.3752C43.1925 15.2766 43.2439 15.1871 43.3205 15.1227C43.3971 15.0582 43.494 15.0229 43.5941 15.0229C43.6943 15.0229 43.7912 15.0582 43.8678 15.1227C43.9444 15.1871 43.9958 15.2766 44.0129 15.3752ZM44.9004 15.3377C44.911 15.3988 44.9081 15.4614 44.8919 15.5212C44.8758 15.581 44.8467 15.6366 44.8068 15.684C44.7669 15.7314 44.7172 15.7695 44.661 15.7957C44.6048 15.8218 44.5436 15.8354 44.4816 15.8354C44.4197 15.8354 44.3585 15.8218 44.3023 15.7957C44.2461 15.7695 44.1963 15.7314 44.1565 15.684C44.1166 15.6366 44.0875 15.581 44.0714 15.5212C44.0552 15.4614 44.0523 15.3988 44.0629 15.3377C44.08 15.2391 44.1314 15.1496 44.208 15.0852C44.2846 15.0207 44.3815 14.9854 44.4816 14.9854C44.5818 14.9854 44.6787 15.0207 44.7553 15.0852C44.8319 15.1496 44.8833 15.2391 44.9004 15.3377ZM46.0129 15.4627C46.0235 15.5238 46.0206 15.5864 46.0044 15.6462C45.9883 15.706 45.9592 15.7616 45.9193 15.809C45.8794 15.8564 45.8297 15.8945 45.7735 15.9207C45.7173 15.9468 45.6561 15.9604 45.5941 15.9604C45.5322 15.9604 45.471 15.9468 45.4148 15.9207C45.3586 15.8945 45.3088 15.8564 45.269 15.809C45.2291 15.7616 45.2 15.706 45.1839 15.6462C45.1677 15.5864 45.1648 15.5238 45.1754 15.4627C45.1925 15.3641 45.2439 15.2746 45.3205 15.2102C45.3971 15.1457 45.494 15.1104 45.5941 15.1104C45.6943 15.1104 45.7912 15.1457 45.8678 15.2102C45.9444 15.2746 45.9958 15.3641 46.0129 15.4627ZM46.8879 16.0127C46.8985 16.0738 46.8956 16.1364 46.8794 16.1962C46.8633 16.256 46.8342 16.3116 46.7943 16.359C46.7544 16.4064 46.7047 16.4445 46.6485 16.4707C46.5923 16.4968 46.5311 16.5104 46.4691 16.5104C46.4072 16.5104 46.346 16.4968 46.2898 16.4707C46.2336 16.4445 46.1838 16.4064 46.144 16.359C46.1041 16.3116 46.075 16.256 46.0589 16.1962C46.0427 16.1364 46.0398 16.0738 46.0504 16.0127C46.0675 15.9141 46.1189 15.8246 46.1955 15.7602C46.2721 15.6957 46.369 15.6604 46.4691 15.6604C46.5693 15.6604 46.6662 15.6957 46.7428 15.7602C46.8194 15.8246 46.8708 15.9141 46.8879 16.0127Z" fill="white" stroke="black" stroke-width="0.1375"/>
<path fill-rule="evenodd" clip-rule="evenodd" d="M33.6748 18.9621L34.7498 21.0246H44.6498L45.7998 19.0371C45.1248 18.5746 44.6748 18.2246 43.7123 18.4371C43.1748 17.6621 42.5873 17.5246 41.7123 17.5996C41.4498 17.3371 41.2123 17.1746 40.7623 17.0996L38.6873 17.1621C38.1373 17.2121 37.7123 17.6371 37.6873 17.6371C36.8123 17.5246 35.9998 17.5496 35.7873 18.4121C34.9748 18.2121 34.4123 18.4371 33.6748 18.9621Z" fill="#E40000" stroke="#AC0000" stroke-width="0.3"/>
<path fill-rule="evenodd" clip-rule="evenodd" d="M47.2502 16.9129C47.2608 16.974 47.2579 17.0366 47.2417 17.0964C47.2256 17.1562 47.1965 17.2118 47.1566 17.2592C47.1167 17.3066 47.067 17.3447 47.0108 17.3709C46.9546 17.397 46.8934 17.4105 46.8314 17.4105C46.7695 17.4105 46.7083 17.397 46.6521 17.3709C46.5959 17.3447 46.5462 17.3066 46.5063 17.2592C46.4664 17.2118 46.4373 17.1562 46.4212 17.0964C46.405 17.0366 46.4021 16.974 46.4127 16.9129C46.4298 16.8143 46.4812 16.7248 46.5578 16.6604C46.6344 16.5959 46.7313 16.5605 46.8314 16.5605C46.9316 16.5605 47.0285 16.5959 47.1051 16.6604C47.1817 16.7248 47.2331 16.8143 47.2502 16.9129ZM47.3252 17.9129C47.3358 17.974 47.3329 18.0366 47.3167 18.0964C47.3006 18.1562 47.2715 18.2118 47.2316 18.2592C47.1917 18.3066 47.142 18.3447 47.0858 18.3709C47.0296 18.397 46.9684 18.4105 46.9064 18.4105C46.8445 18.4105 46.7833 18.397 46.7271 18.3709C46.6709 18.3447 46.6212 18.3066 46.5813 18.2592C46.5414 18.2118 46.5123 18.1562 46.4962 18.0964C46.48 18.0366 46.4771 17.974 46.4877 17.9129C46.5048 17.8143 46.5562 17.7248 46.6328 17.6604C46.7094 17.5959 46.8063 17.5605 46.9064 17.5605C47.0066 17.5605 47.1035 17.5959 47.1801 17.6604C47.2567 17.7248 47.3081 17.8143 47.3252 17.9129ZM47.0127 18.8129C47.0233 18.874 47.0204 18.9366 47.0042 18.9964C46.9881 19.0562 46.959 19.1118 46.9191 19.1592C46.8792 19.2066 46.8295 19.2447 46.7733 19.2709C46.7171 19.297 46.6559 19.3105 46.5939 19.3105C46.532 19.3105 46.4708 19.297 46.4146 19.2709C46.3584 19.2447 46.3087 19.2066 46.2688 19.1592C46.2289 19.1118 46.1998 19.0562 46.1837 18.9964C46.1675 18.9366 46.1646 18.874 46.1752 18.8129C46.1923 18.7143 46.2437 18.6248 46.3203 18.5604C46.3969 18.4959 46.4938 18.4605 46.5939 18.4605C46.6941 18.4605 46.791 18.4959 46.8676 18.5604C46.9442 18.6248 46.9956 18.7143 47.0127 18.8129ZM46.6377 19.5629C46.6377 19.6756 46.5929 19.7837 46.5132 19.8634C46.4335 19.9432 46.3254 19.9879 46.2127 19.9879C46.1 19.9879 45.9919 19.9432 45.9122 19.8634C45.8325 19.7837 45.7877 19.6756 45.7877 19.5629C45.8048 19.4643 45.8562 19.3748 45.9328 19.3104C46.0094 19.2459 46.1063 19.2105 46.2064 19.2105C46.3066 19.2105 46.4035 19.2459 46.4801 19.3104C46.5567 19.3748 46.6081 19.4643 46.6252 19.5629H46.6377ZM46.1752 20.5004C46.1858 20.5615 46.1829 20.6241 46.1667 20.6839C46.1506 20.7437 46.1215 20.7993 46.0816 20.8467C46.0417 20.8941 45.992 20.9322 45.9358 20.9584C45.8796 20.9845 45.8184 20.998 45.7564 20.998C45.6945 20.998 45.6333 20.9845 45.5771 20.9584C45.5209 20.9322 45.4712 20.8941 45.4313 20.8467C45.3914 20.7993 45.3623 20.7437 45.3462 20.6839C45.33 20.6241 45.3271 20.5615 45.3377 20.5004C45.3548 20.4018 45.4062 20.3123 45.4828 20.2479C45.5594 20.1834 45.6563 20.148 45.7564 20.148C45.8566 20.148 45.9535 20.1834 46.0301 20.2479C46.1067 20.3123 46.1581 20.4018 46.1752 20.5004ZM40.3252 19.3004C40.3252 19.4662 40.2593 19.6252 40.1421 19.7424C40.0249 19.8596 39.866 19.9254 39.7002 19.9254C39.5344 19.9254 39.3755 19.8596 39.2583 19.7424C39.141 19.6252 39.0752 19.4662 39.0752 19.3004C39.0752 19.1347 39.141 18.9757 39.2583 18.8585C39.3755 18.7413 39.5344 18.6754 39.7002 18.6754C39.866 18.6754 40.0249 18.7413 40.1421 18.8585C40.2593 18.9757 40.3252 19.1347 40.3252 19.3004Z" fill="white" stroke="black" stroke-width="0.1375"/>
<path fill-rule="evenodd" clip-rule="evenodd" d="M40.4502 17.875C40.4502 18.0739 40.3712 18.2647 40.2305 18.4053C40.0899 18.546 39.8991 18.625 39.7002 18.625C39.5013 18.625 39.3105 18.546 39.1699 18.4053C39.0292 18.2647 38.9502 18.0739 38.9502 17.875C38.9502 17.6761 39.0292 17.4853 39.1699 17.3447C39.3105 17.204 39.5013 17.125 39.7002 17.125C39.8991 17.125 40.0899 17.204 40.2305 17.3447C40.3712 17.4853 40.4502 17.6761 40.4502 17.875Z" fill="white" stroke="black" stroke-width="0.1375"/>
<path fill-rule="evenodd" clip-rule="evenodd" d="M40.3373 16.5002C40.3373 16.6792 40.2662 16.8509 40.1396 16.9775C40.013 17.1041 39.8413 17.1752 39.6623 17.1752C39.4833 17.1752 39.3116 17.1041 39.185 16.9775C39.0584 16.8509 38.9873 16.6792 38.9873 16.5002C38.9873 16.3212 39.0584 16.1495 39.185 16.0229C39.3116 15.8963 39.4833 15.8252 39.6623 15.8252C39.8413 15.8252 40.013 15.8963 40.1396 16.0229C40.2662 16.1495 40.3373 16.3212 40.3373 16.5002Z" fill="white" stroke="black" stroke-width="0.1375"/>
<path fill-rule="evenodd" clip-rule="evenodd" d="M39.4373 13.6254V13.1004L38.9873 13.0879L39.0123 12.6879H39.3873V12.3379H39.9498V12.6504H40.3873L40.3748 13.0754H39.9248V13.6379H39.4248L39.4373 13.6254Z" fill="#FFDD00" stroke="#7D6C00" stroke-width="0.1375"/>
<path d="M34.6999 21.0248C33.8124 19.5248 32.4999 17.4748 33.3249 16.5873C34.4374 15.3248 37.0624 16.4623 38.7374 15.7373C38.8624 17.1623 38.4624 19.5373 39.0999 20.0248L38.4999 20.5498C38.1249 20.0873 37.4499 19.4498 36.5999 20.5748C36.0999 20.1498 35.5624 20.2248 35.2999 20.7873C35.0499 20.8248 35.0624 20.9248 34.6999 21.0248ZM44.6999 20.9623C45.5999 19.4623 46.8999 17.4248 46.0874 16.5373C44.9624 15.2748 42.3374 16.4123 40.6749 15.6748C40.5499 17.1123 40.9499 19.4873 40.2999 19.9748L40.8999 20.4998C41.4874 19.6873 42.1999 19.6623 42.8124 20.5248C43.2999 20.0998 43.7999 20.1498 44.1124 20.7373C44.3624 20.7748 44.3374 20.8623 44.7124 20.9623H44.6999Z" stroke="#FFDD00" stroke-width="0.4125"/>
<path fill-rule="evenodd" clip-rule="evenodd" d="M34.6629 22.1378C37.9602 21.8374 41.2781 21.8374 44.5754 22.1378L44.9629 21.0128C41.5004 20.3878 39.1129 20.3128 34.5879 20.9378L34.6629 22.1378Z" fill="#FFDD00" stroke="#7D6C00" stroke-width="0.3"/>
<path fill-rule="evenodd" clip-rule="evenodd" d="M39.2627 41.1754L39.3377 40.6504C39.7002 40.7504 39.9627 40.7129 40.2627 40.6004L40.5627 40.1379L40.3377 39.8754C40.1377 39.9129 39.9627 40.1004 39.8377 40.2629C39.6377 40.2754 39.4627 40.1754 39.2627 40.1379L39.0752 39.3379C38.8877 39.1129 38.4877 39.1254 38.5752 39.5254L38.6127 39.8379C38.6877 40.0254 38.7252 40.2879 38.8502 40.4254V40.7504L39.2627 41.1754ZM39.4127 38.8879C39.1627 39.0129 38.8377 38.7879 38.5002 38.6504C38.1877 38.6379 37.9502 38.9004 37.5752 38.8129C37.6502 38.6129 37.8127 38.5754 37.9252 38.4629C37.8377 37.9504 38.1127 37.7754 38.1877 37.7754C38.2627 37.7754 38.5752 37.8504 38.5752 37.8504L38.8752 37.8879C39.0627 38.2254 39.3127 38.5129 39.4127 38.8879Z" fill="#C76E2E"/>
<path fill-rule="evenodd" clip-rule="evenodd" d="M37.5998 45.7496C38.4748 44.3246 44.6248 41.4496 50.3998 35.2246C44.5248 40.8871 40.8498 42.2746 36.0498 45.7246L37.5998 45.7621V45.7496Z" fill="#FFE100" stroke="#E9BF00" stroke-width="0.3"/>
<path fill-rule="evenodd" clip-rule="evenodd" d="M46.0504 39.1499C46.0504 39.2692 46.003 39.3837 45.9186 39.4681C45.8342 39.5525 45.7197 39.5999 45.6004 39.5999C45.481 39.5999 45.3666 39.5525 45.2822 39.4681C45.1978 39.3837 45.1504 39.2692 45.1504 39.1499C45.1504 39.0305 45.1978 38.9161 45.2822 38.8317C45.3666 38.7473 45.481 38.6999 45.6004 38.6999C45.7197 38.6999 45.8342 38.7473 45.9186 38.8317C46.003 38.9161 46.0504 39.0305 46.0504 39.1499ZM50.3504 34.7874C50.3504 34.9216 50.2971 35.0504 50.2021 35.1453C50.1072 35.2403 49.9784 35.2936 49.8441 35.2936C49.7099 35.2936 49.5811 35.2403 49.4862 35.1453C49.3912 35.0504 49.3379 34.9216 49.3379 34.7874C49.3379 34.6548 49.3906 34.5276 49.4843 34.4338C49.5781 34.34 49.7053 34.2874 49.8379 34.2874C49.9705 34.2874 50.0977 34.34 50.1914 34.4338C50.2852 34.5276 50.3379 34.6548 50.3379 34.7874H50.3504ZM51.7754 31.0874C51.7863 31.1519 51.7829 31.218 51.7656 31.2811C51.7483 31.3442 51.7175 31.4027 51.6752 31.4527C51.633 31.5026 51.5804 31.5428 51.521 31.5703C51.4617 31.5978 51.3971 31.6121 51.3316 31.6121C51.2662 31.6121 51.2016 31.5978 51.1422 31.5703C51.0829 31.5428 51.0303 31.5026 50.988 31.4527C50.9458 31.4027 50.9149 31.3442 50.8977 31.2811C50.8804 31.218 50.877 31.1519 50.8879 31.0874C50.9056 30.9825 50.9598 30.8872 51.0411 30.8185C51.1223 30.7498 51.2252 30.7121 51.3316 30.7121C51.438 30.7121 51.541 30.7498 51.6222 30.8185C51.7035 30.8872 51.7577 30.9825 51.7754 31.0874ZM50.3754 26.2874C50.3863 26.3519 50.3829 26.418 50.3656 26.4811C50.3483 26.5442 50.3175 26.6027 50.2752 26.6527C50.233 26.7026 50.1804 26.7428 50.121 26.7703C50.0617 26.7978 49.9971 26.8121 49.9316 26.8121C49.8662 26.8121 49.8016 26.7978 49.7422 26.7703C49.6829 26.7428 49.6303 26.7026 49.588 26.6527C49.5458 26.6027 49.5149 26.5442 49.4977 26.4811C49.4804 26.418 49.477 26.3519 49.4879 26.2874C49.5056 26.1825 49.5598 26.0872 49.6411 26.0185C49.7223 25.9498 49.8253 25.9121 49.9316 25.9121C50.038 25.9121 50.141 25.9498 50.2222 26.0185C50.3035 26.0872 50.3577 26.1825 50.3754 26.2874Z" fill="#9D4916" stroke="#68300E" stroke-width="0.1375"/>
<path fill-rule="evenodd" clip-rule="evenodd" d="M34.8877 33.7002V31.8002L34.7002 31.6502V31.2002L35.0502 31.1627L35.1127 29.0377L34.8877 28.9127L34.8627 28.5627C34.8627 28.5627 35.1127 28.6627 35.1127 28.6002L35.1752 28.1752C35.1752 28.1752 35.0127 28.1502 35.0127 28.0877C35.0127 28.0252 35.2127 27.8627 35.2127 27.8627C35.2127 27.8627 35.1127 27.7627 35.0877 27.7002L34.9877 27.3502L35.0877 26.9877L35.0252 26.8002L34.8627 26.5127L35.0877 26.2877L35.0252 25.9377C35.0674 25.8074 35.1308 25.6849 35.2127 25.5752C35.2502 25.5502 35.5002 25.2002 35.5002 25.2002L36.0502 25.0752L36.6877 25.1627L37.0377 25.3877L37.1002 25.9627C37.1002 25.9627 37.0377 26.3127 37.0127 26.3127L36.7252 26.4377C36.7252 26.4377 36.4002 26.4752 36.3627 26.4377C36.3252 26.4002 36.4627 26.8377 36.4627 26.8377V27.2127L36.4377 27.7002C36.4377 27.7002 36.4377 27.9252 36.4002 27.9502C36.3627 27.9752 36.3002 28.0752 36.3002 28.0752L36.2752 28.5752L36.7752 28.7002L36.7502 28.9877L36.4002 29.0127L36.4627 30.9752L36.9752 31.0627V31.6127L36.7502 31.7377L36.6877 33.7002H34.8877ZM42.6877 33.7377V31.8377L42.5002 31.6752V31.2252L42.8502 31.2002L42.9127 29.0752L42.6877 28.9502L42.6627 28.6002C42.6627 28.6002 42.9127 28.6877 42.9127 28.6252L42.9752 28.2127C42.9752 28.2127 42.8127 28.1752 42.8127 28.1127C42.8127 28.0502 43.0127 27.8877 43.0127 27.8877C43.0127 27.8877 42.9127 27.8002 42.8877 27.7252L42.7877 27.3752L42.8877 27.0252L42.8127 26.8377L42.6627 26.5502L42.8877 26.3252L42.8127 25.9627C42.86 25.836 42.9275 25.7178 43.0127 25.6127L43.3002 25.2377L43.8502 25.1002L44.4877 25.2002L44.8377 25.4252L44.9002 26.0002C44.9002 26.0002 44.8377 26.3502 44.8127 26.3502L44.5252 26.4752C44.5252 26.4752 44.2002 26.5127 44.1627 26.4752C44.1252 26.4377 44.2627 26.8627 44.2627 26.8627V27.2502L44.2252 27.7377C44.2252 27.7377 44.2252 27.9502 44.2002 27.9877L44.1002 28.1127L44.0752 28.6002L44.5752 28.7252L44.5502 29.0127L44.2002 29.0502L44.2627 31.0002L44.7752 31.1002V31.6502L44.5502 31.7752L44.4877 33.7377H42.6877ZM38.7377 33.8002V31.9002L38.5502 31.7502V31.2877L38.9002 31.2627L38.9627 29.1377L38.7377 29.0127L38.7127 28.6627C38.7127 28.6627 38.9627 28.7627 38.9627 28.7002L39.0252 28.2752C39.0252 28.2752 38.8752 28.2502 38.8752 28.1877C38.8752 28.1252 39.0627 27.9502 39.0627 27.9502C39.0627 27.9502 38.9627 27.8627 38.9377 27.8002L38.8377 27.4377L38.9377 27.0877L38.8752 26.9002L38.7127 26.6127L38.9377 26.3877L38.8752 26.0252C38.9164 25.8983 38.9799 25.7798 39.0627 25.6752C39.1002 25.6502 39.3502 25.3002 39.3502 25.3002L39.9002 25.1752L40.5377 25.2627L40.8877 25.4877L40.9627 26.0627C40.9627 26.0627 40.8877 26.4127 40.8627 26.4127L40.5752 26.5377C40.5752 26.5377 40.2502 26.5752 40.2252 26.5377C40.2002 26.5002 40.3127 26.9252 40.3127 26.9252V27.3127L40.2877 27.8002C40.2877 27.8002 40.2877 28.0252 40.2502 28.0502L40.1502 28.1752L40.1252 28.6627L40.6252 28.7877L40.6002 29.0752L40.2502 29.1127L40.3127 31.0752L40.8252 31.1627V31.7127L40.6002 31.8377L40.5377 33.8002H38.7502H38.7377Z" fill="white" stroke="#A9A9A9" stroke-width="0.1375"/>
<path fill-rule="evenodd" clip-rule="evenodd" d="M35.3748 33.6879V32.1879H36.1998V33.7504L35.3623 33.6879H35.3748ZM39.2998 33.8129L39.3373 32.2879H40.0873V33.7754L39.2998 33.8004V33.8129ZM43.1748 33.7754L43.1248 32.3379L43.9373 32.3129V33.8129L43.1873 33.7754H43.1748ZM35.5748 29.2754H36.0498V30.0379H35.5748V29.2754ZM39.3623 29.3004H40.0248V30.0504H39.3623V29.3004ZM43.2373 29.3629H43.8123V30.0754H43.2498L43.2373 29.3629Z" fill="black"/>
<path d="M35.8252 25.875C36.3252 26.45 36.3627 26.45 36.3627 26.45M39.6377 25.875C39.7377 26.0625 39.8877 26.475 40.0877 26.5125M43.7502 25.9625C43.7502 25.9625 43.9127 26.4125 44.1252 26.475" stroke="#A8A8A8" stroke-width="0.1375"/>
<path fill-rule="evenodd" clip-rule="evenodd" d="M35.2755 24.2496C36.7755 23.7621 34.9254 22.7996 34.6129 24.2496C34.1379 24.3371 34.0755 24.6871 33.0255 24.5371C30.4755 28.6621 32.3629 35.3496 39.7879 42.2621C26.4879 30.9371 31.888 22.5621 35.5755 22.8871C37.5755 23.0121 36.5755 25.5121 35.2755 24.2621V24.2496Z" fill="#B97700"/>
<path d="M35.7002 22.1246C35.7002 22.1246 36.9127 22.4621 36.9127 22.9746M36.9127 22.0371C36.9127 22.0371 37.7627 22.4121 37.9502 22.7371M43.5877 22.1746C43.5877 22.1746 42.5127 22.3246 42.2752 22.6496M41.9502 22.2746C41.9502 22.2746 41.3252 22.7871 41.3877 22.9371M41.8127 24.5246C41.7127 24.4871 41.2877 23.9121 41.3877 23.2121M37.6627 24.1496C37.6627 24.1496 37.9502 23.8246 37.9502 23.2121M39.6377 22.9746L39.6877 24.3496M40.8627 24.1496C40.8627 24.0621 41.2377 23.1621 40.8127 22.7371M38.2752 22.5496C38.2752 22.5496 37.9502 23.4496 38.1877 24.1996M40.6877 23.3496C40.6877 23.3496 40.1627 23.4996 39.9377 23.7246M38.4627 23.4871C38.4627 23.4496 39.0377 23.3621 39.2127 23.6871" stroke="#7D6C00" stroke-width="0.3"/>
<path fill-rule="evenodd" clip-rule="evenodd" d="M37.5746 37.7377C37.5996 37.7377 38.0496 37.6502 38.0496 37.4377C38.2746 37.2877 38.1121 36.8752 38.1121 36.8752L37.6871 36.8002L37.1121 36.1502C37.0871 35.9502 37.1496 35.7627 37.0246 35.5502C36.6246 35.6502 36.3996 35.9877 36.2746 36.3627C36.3621 36.4877 36.3746 36.6127 36.5621 36.7252C36.7496 36.7502 36.8746 36.6377 37.0496 36.6752C37.1371 36.8377 37.1121 36.9752 37.1496 37.1252C37.3871 37.2877 37.4371 37.5252 37.5746 37.7377ZM37.0621 34.9627V34.1877L36.5121 34.1627C36.4371 34.2877 36.3121 34.3377 36.2371 34.4377L35.8496 34.6377C36.0121 34.8252 36.2121 34.9377 36.3246 35.0377C36.6121 35.1127 36.8371 35.1127 37.0621 34.9627ZM35.3371 36.1002L35.0371 35.6002C35.2316 35.5465 35.4385 35.5597 35.6246 35.6377C35.6246 35.6377 35.7496 35.9502 35.6621 36.0627C35.6121 36.1752 35.3246 36.1252 35.3371 36.1002ZM39.8996 36.6127C39.985 36.5763 40.0603 36.5197 40.119 36.4479C40.1778 36.3761 40.2183 36.2911 40.2371 36.2002L39.6746 35.5627L39.1746 35.5502C39.0496 35.4252 38.8746 35.4002 38.7246 35.4002C38.7246 35.4002 38.8746 35.6502 39.0746 35.6877C39.2246 36.0127 39.8496 36.6127 39.8996 36.6127ZM40.4371 36.6877C40.4371 36.6752 40.9371 36.5127 41.1871 36.5252C41.1746 36.3252 41.5621 35.8627 41.5621 35.8627L42.2621 36.7752C42.1371 36.8752 41.9121 36.8502 41.7371 36.8752C41.7371 36.8752 41.3996 37.2002 41.3621 37.2127C41.3246 37.2252 40.7121 37.3752 40.4121 37.1877C40.2871 36.9377 40.4496 36.6502 40.4371 36.6877ZM40.8371 35.0877C40.9247 34.7771 40.9247 34.4483 40.8371 34.1377H40.0371L39.5121 34.3877C39.5121 34.3877 39.6746 34.9127 39.8871 34.8627C39.9746 35.1252 40.2496 35.0627 40.3871 35.1627L40.8371 35.0877ZM43.9496 34.2877C43.8246 34.6252 43.7746 34.9752 43.9246 35.2877C44.0746 35.3252 44.2496 35.4127 44.3746 35.3877L45.0121 34.2377C44.5746 34.1002 44.2121 34.1127 43.9371 34.2877H43.9496Z" fill="#C76E2E"/>
<path fill-rule="evenodd" clip-rule="evenodd" d="M44.1375 24.1501C42.6375 23.6626 44.4875 22.6876 44.8 24.1501C45.2875 24.2251 45.35 24.5876 46.4 24.4376C48.9375 28.5626 47.05 35.2501 39.625 42.1626C52.9375 30.8376 47.525 22.4626 43.8375 22.7751C41.8375 22.9001 42.8375 25.4001 44.1375 24.1501Z" fill="#B97700"/>
<path fill-rule="evenodd" clip-rule="evenodd" d="M44.2874 35.588C44.2624 35.588 43.9124 35.838 43.9124 35.838L43.3874 36.0505L42.8374 36.063L42.7124 35.688L43.1374 35.313C42.7874 35.2505 42.4249 35.4004 42.1374 35.6629C42.1374 35.6629 42.1374 36.0754 42.3874 36.2879C42.5249 36.4629 42.9499 36.7879 42.9499 36.7879C43.0651 36.8137 43.1842 36.8159 43.3002 36.7944C43.4162 36.7729 43.5267 36.7282 43.6249 36.6629L44.2874 35.588ZM41.3874 39.3504C41.5624 39.4004 42.7999 37.763 42.7999 37.763C42.688 37.4689 42.4693 37.2278 42.1874 37.088C42.1874 37.088 41.5874 37.8004 41.5749 38.0379C41.4749 38.2504 41.1999 39.0755 41.3249 39.188C41.3124 39.213 41.2624 39.5504 41.3874 39.3504Z" fill="#C76E2E"/>
<path fill-rule="evenodd" clip-rule="evenodd" d="M33.3004 39.6747C31.4504 38.0622 28.9504 37.1747 25.4629 38.3872C26.4004 38.7872 27.4129 38.9247 28.2754 39.3747L33.3004 39.6747Z" fill="#006800" stroke="#004100" stroke-width="0.3" stroke-linejoin="round"/>
<path d="M27.9248 38.5371C31.5873 38.6121 32.6498 39.5246 32.4623 39.3746" stroke="#00A400" stroke-width="0.275" stroke-linecap="round"/>
<path fill-rule="evenodd" clip-rule="evenodd" d="M33.3746 39.8754C32.2746 40.0754 30.7746 41.1254 30.3246 41.0879C29.1371 40.9504 28.0121 40.4629 26.8621 40.0879C26.3871 39.9379 25.8996 40.0879 25.4121 40.0879C29.5121 38.1504 30.9121 38.4129 33.3746 39.8629V39.8754Z" fill="#006800" stroke="#004100" stroke-width="0.275" stroke-linejoin="round"/>
<path fill-rule="evenodd" clip-rule="evenodd" d="M30.6754 37C30.6754 37 29.3004 37.2 28.6879 37.2375C28.0879 37.2 27.1879 36.6375 26.2129 35.6125C25.7129 35.0375 24.5379 35.1125 24.5379 35.1125C27.1129 34.5625 29.1254 35.0875 30.6629 37.0125L30.6754 37ZM28.8004 34.35C26.9379 34.225 24.6129 32.5625 24.0879 30.575C24.0879 30.6 24.7754 31.0125 24.6629 31.1125C27.7129 31.8875 27.9129 32.5125 28.8004 34.35ZM31.9254 37.5375C32.1879 35.85 32.2629 34.7375 31.4754 33.7375C30.8129 32.9875 30.6504 32.525 30.1754 31.45C30.0379 33.675 29.5504 35.5125 31.9254 37.5375ZM29.0004 32.875C30.3754 30.8625 30.6254 29.3375 30.4004 26.9375C30.3629 27.125 29.9004 28.3125 29.8754 28.3125C27.8129 29.6 28.7254 31.625 29.0004 32.875Z" fill="#006800" stroke="#004100" stroke-width="0.3" stroke-linejoin="round"/>
<path fill-rule="evenodd" clip-rule="evenodd" d="M27.775 23.125C29.15 25.1375 28.95 27.0375 28.725 29.4375C28.6875 29.25 28.225 28.0625 28.2 28.0625C26.1375 26.775 27.5125 24.375 27.775 23.125Z" fill="#006800" stroke="#004100" stroke-width="0.3" stroke-linejoin="round"/>
<path fill-rule="evenodd" clip-rule="evenodd" d="M28.9121 26.25C32.2621 24.55 30.9746 22.4125 31.5871 20.75C29.2621 22.4875 28.9621 24.325 28.9246 26.25H28.9121Z" fill="#006800" stroke="#004100" stroke-width="0.3" stroke-linejoin="round"/>
<path d="M29.3754 25.825C29.8004 24.6375 30.6254 22.625 30.7129 22.625M28.3754 28.3C28.3004 27.4625 27.8754 25.2125 27.8379 24.9875" stroke="#00A400" stroke-width="0.275" stroke-linecap="round"/>
<path fill-rule="evenodd" clip-rule="evenodd" d="M28.5375 32.0625C26.6625 31.9375 24.6625 29.4 24.125 27.425C24.125 27.45 24.8125 27.85 24.7 27.95C27.375 29.15 27.65 30.225 28.5375 32.0625ZM27.9875 30.3125C26.6125 28.3 26.3625 26.775 26.575 24.375C26.6125 24.5625 27.075 25.75 27.1125 25.75C29.1625 27.0375 28.25 29.0625 27.9875 30.3125ZM29.225 26.775C32.6875 25.2375 31.625 23.625 32.65 21.9375C30.325 23.6625 29.2625 24.8625 29.225 26.775Z" fill="#006800" stroke="#004100" stroke-width="0.3" stroke-linejoin="round"/>
<path d="M29.375 26.4254C30.161 25.6861 30.8049 24.8091 31.275 23.8379" stroke="#00A400" stroke-width="0.275" stroke-linecap="round"/>
<path fill-rule="evenodd" clip-rule="evenodd" d="M41.7005 45.7994L43.3755 45.8244C37.788 40.5744 27.063 38.2994 28.5505 28.6494C27.013 39.1119 37.313 40.0869 41.7005 45.7994Z" fill="#FFE100" stroke="#E9BF00" stroke-width="0.3"/>
<path fill-rule="evenodd" clip-rule="evenodd" d="M29.4254 26.5873C29.4254 26.7299 29.3688 26.8666 29.268 26.9674C29.1672 27.0682 29.0304 27.1248 28.8879 27.1248C28.7453 27.1248 28.6086 27.0682 28.5078 26.9674C28.407 26.8666 28.3504 26.7299 28.3504 26.5873C28.3504 26.4448 28.407 26.308 28.5078 26.2072C28.6086 26.1064 28.7453 26.0498 28.8879 26.0498C29.0304 26.0498 29.1672 26.1064 29.268 26.2072C29.3688 26.308 29.4254 26.4448 29.4254 26.5873ZM29.1004 29.5373C29.1004 29.6716 29.0471 29.8003 28.9521 29.8953C28.8572 29.9902 28.7284 30.0436 28.5941 30.0436C28.4599 30.0436 28.3311 29.9902 28.2362 29.8953C28.1412 29.8003 28.0879 29.6716 28.0879 29.5373C28.0879 29.4047 28.1406 29.2775 28.2343 29.1838C28.3281 29.09 28.4553 29.0373 28.5879 29.0373C28.7205 29.0373 28.8477 29.09 28.9414 29.1838C29.0352 29.2775 29.0879 29.4047 29.0879 29.5373H29.1004ZM29.5754 33.7498C29.5754 33.8089 29.5638 33.8674 29.5411 33.922C29.5185 33.9766 29.4854 34.0262 29.4436 34.068C29.4018 34.1098 29.3522 34.1429 29.2976 34.1656C29.243 34.1882 29.1845 34.1998 29.1254 34.1998C29.0663 34.1998 29.0078 34.1882 28.9532 34.1656C28.8986 34.1429 28.849 34.1098 28.8072 34.068C28.7654 34.0262 28.7323 33.9766 28.7096 33.922C28.687 33.8674 28.6754 33.8089 28.6754 33.7498C28.6754 33.6305 28.7228 33.516 28.8072 33.4316C28.8916 33.3472 29.006 33.2998 29.1254 33.2998C29.2447 33.2998 29.3592 33.3472 29.4436 33.4316C29.528 33.516 29.5754 33.6305 29.5754 33.7498ZM33.4879 38.3998C33.4879 38.5192 33.4405 38.6336 33.3561 38.718C33.2717 38.8024 33.1572 38.8498 33.0379 38.8498C32.9185 38.8498 32.8041 38.8024 32.7197 38.718C32.6353 38.6336 32.5879 38.5192 32.5879 38.3998C32.5879 38.2805 32.6353 38.166 32.7197 38.0816C32.8041 37.9972 32.9185 37.9498 33.0379 37.9498C33.1572 37.9498 33.2717 37.9972 33.3561 38.0816C33.4405 38.166 33.4879 38.2805 33.4879 38.3998ZM34.0504 39.7373C34.0504 39.8567 34.003 39.9711 33.9186 40.0555C33.8342 40.1399 33.7197 40.1873 33.6004 40.1873C33.481 40.1873 33.3666 40.1399 33.2822 40.0555C33.1978 39.9711 33.1504 39.8567 33.1504 39.7373C33.1504 39.618 33.1978 39.5035 33.2822 39.4191C33.3666 39.3347 33.481 39.2873 33.6004 39.2873C33.7197 39.2873 33.8342 39.3347 33.9186 39.4191C34.003 39.5035 34.0504 39.618 34.0504 39.7373Z" fill="#9D4916" stroke="#68300E" stroke-width="0.1375"/>
<path fill-rule="evenodd" clip-rule="evenodd" d="M36.0254 43.6254C35.7688 43.4367 35.5628 43.1877 35.4254 42.9004L33.6754 42.7129L33.6504 43.7129L36.0254 43.6254Z" fill="white" stroke="black" stroke-width="0.1375"/>
<path fill-rule="evenodd" clip-rule="evenodd" d="M23.1629 42.45C24.1879 42.6375 25.7254 42.35 26.2254 43.0125C26.8254 43.6875 24.3379 44.75 24.6879 45.3375C25.4629 46.15 26.2504 45.8125 27.1129 45.3625C27.3254 44.925 27.4879 44.1375 27.5879 43.9C27.2754 43.1875 26.4254 42.825 26.6504 41.7375C28.0629 41.2125 30.8004 41.25 31.1004 41.4625C31.3254 41.9125 31.1129 42.1125 31.1629 42.475C30.9254 42.9375 30.3254 43.7 30.3254 44.1125C31.8254 44.6375 32.2004 44.0375 33.5504 44.0625C35.1254 44.0875 36.0754 44.5125 36.4254 43.8875C36.1754 43.3375 34.7379 43.7875 34.2004 43.4375C33.9254 43.35 33.7504 43.125 33.5129 42.8875C33.2754 42.65 32.6129 42.6375 32.5129 42.025C32.7879 40.75 34.6379 40.95 34.9254 40.75L39.7254 41.0875C40.6004 41.0625 41.1004 42.625 39.9129 43.0875C38.7379 43.5625 35.2754 42.4 33.7629 43.2C33.6879 42.875 32.6004 42.375 32.5254 42.3625C32.0629 42.4875 31.1629 42.45 31.1629 42.45C30.9504 42.85 30.6879 43.15 30.4754 43.5625C29.4754 43.125 28.5379 43.9 27.4504 43.675L25.7504 43.8625L24.6754 43.7625L23.0254 44.2375L24.2004 43.2L23.1629 42.45Z" fill="white" stroke="black" stroke-width="0.1375" stroke-linejoin="round"/>
<path fill-rule="evenodd" clip-rule="evenodd" d="M23.0875 42.2498C23.0875 42.3692 23.0401 42.4836 22.9557 42.568C22.8713 42.6524 22.7568 42.6998 22.6375 42.6998C22.5182 42.6998 22.4037 42.6524 22.3193 42.568C22.2349 42.4836 22.1875 42.3692 22.1875 42.2498C22.1875 42.1305 22.2349 42.016 22.3193 41.9316C22.4037 41.8472 22.5182 41.7998 22.6375 41.7998C22.7568 41.7998 22.8713 41.8472 22.9557 41.9316C23.0401 42.016 23.0875 42.1305 23.0875 42.2498ZM22.9625 44.4998C22.9625 44.6192 22.9151 44.7336 22.8307 44.818C22.7463 44.9024 22.6318 44.9498 22.5125 44.9498C22.3932 44.9498 22.2787 44.9024 22.1943 44.818C22.1099 44.7336 22.0625 44.6192 22.0625 44.4998C22.0625 44.3788 22.1106 44.2628 22.1961 44.1772C22.2817 44.0916 22.3977 44.0436 22.5187 44.0436C22.6398 44.0436 22.7558 44.0916 22.8414 44.1772C22.9269 44.2628 22.975 44.3788 22.975 44.4998H22.9625Z" fill="white" stroke="black" stroke-width="0.1375"/>
<path fill-rule="evenodd" clip-rule="evenodd" d="M43.2871 43.6379C43.5746 43.3754 43.7621 43.2004 43.8746 42.9129L45.6246 42.7129L45.6621 43.7129L43.2871 43.6379Z" fill="white" stroke="black" stroke-width="0.1375"/>
<path fill-rule="evenodd" clip-rule="evenodd" d="M56.1376 42.4502C55.1251 42.6377 53.5876 42.3627 53.0876 43.0127C52.4751 43.7002 54.9626 44.7627 54.6126 45.3377C53.8376 46.1627 53.0501 45.8252 52.1876 45.3752C51.9876 44.9377 51.8251 44.1502 51.7126 43.9127C52.0376 43.1877 52.8751 42.8377 52.6626 41.7502C51.2376 41.2127 48.5001 41.2502 48.2126 41.4627C47.9751 41.9252 48.1876 42.1252 48.1376 42.4877C48.3876 42.9377 48.9876 43.7127 48.9876 44.1127C47.4876 44.6502 47.1001 44.0377 45.7626 44.0752C44.1876 44.1002 43.2251 44.5127 42.8876 43.8877C43.1251 43.3502 44.5626 43.7877 45.1126 43.4502C45.3876 43.3502 45.5626 43.1377 45.8001 42.8877C46.0376 42.6377 46.7001 42.6377 46.8001 42.0377C46.5251 40.7627 44.6751 40.9502 44.3751 40.7627L39.5751 41.0877C38.7001 41.0627 38.2126 42.6252 39.3876 43.1002C40.5626 43.5752 44.0376 42.4002 45.5376 43.2002C45.6251 42.8752 46.7001 42.3877 46.7876 42.3627C47.2376 42.5002 48.1376 42.4502 48.1376 42.4502C48.3626 42.8627 48.6126 43.1627 48.8376 43.5752C49.8376 43.1252 50.7751 43.9127 51.8626 43.6752L53.5501 43.8627L54.6376 43.7752L56.2876 44.2377L55.1126 43.2127L56.1376 42.4627V42.4502Z" fill="white" stroke="black" stroke-width="0.1375" stroke-linejoin="round"/>
<path fill-rule="evenodd" clip-rule="evenodd" d="M56.2129 42.2502C56.2129 42.3712 56.261 42.4872 56.3465 42.5728C56.4321 42.6584 56.5481 42.7064 56.6691 42.7064C56.7901 42.7064 56.9062 42.6584 56.9918 42.5728C57.0773 42.4872 57.1254 42.3712 57.1254 42.2502C57.1254 42.1292 57.0773 42.0131 56.9918 41.9276C56.9062 41.842 56.7901 41.7939 56.6691 41.7939C56.5481 41.7939 56.4321 41.842 56.3465 41.9276C56.261 42.0131 56.2129 42.1292 56.2129 42.2502ZM56.3379 44.5002C56.3379 44.6195 56.3853 44.734 56.4697 44.8184C56.5541 44.9028 56.6685 44.9502 56.7879 44.9502C56.9072 44.9502 57.0217 44.9028 57.1061 44.8184C57.1905 44.734 57.2379 44.6195 57.2379 44.5002C57.2379 44.3808 57.1905 44.2664 57.1061 44.182C57.0217 44.0976 56.9072 44.0502 56.7879 44.0502C56.6685 44.0502 56.5541 44.0976 56.4697 44.182C56.3853 44.2664 56.3379 44.3808 56.3379 44.5002Z" fill="white" stroke="black" stroke-width="0.1375"/>
<path fill-rule="evenodd" clip-rule="evenodd" d="M39.6246 41.1629C39.2246 41.0879 39.0746 41.1129 38.7996 41.0879L38.1621 43.0629C39.1621 43.1504 40.0746 43.1504 40.0746 43.1504C39.4746 43.0254 39.6121 41.1754 39.6246 41.1629Z" fill="white"/>
<path d="M35.4165 42.6514V41.3109H35.6544V42.44H36.2602V42.6514H35.4165Z" fill="black"/>
<path d="M36.4621 42.7139V41.3734H36.7V42.7139H36.4621Z" fill="black"/>
<path d="M37.513 42.8184H37.1031V41.4788C37.2836 41.4703 37.4102 41.466 37.4828 41.466C37.6219 41.466 37.7305 41.4959 37.8085 41.5557C37.8872 41.6148 37.9266 41.6996 37.9266 41.81C37.9266 41.9162 37.8704 42 37.7582 42.0617C37.9247 42.1196 38.008 42.2392 38.008 42.4203C38.008 42.5423 37.9619 42.6393 37.8698 42.7113C37.7777 42.7827 37.6588 42.8184 37.513 42.8184ZM37.341 41.6691V41.9903C37.3776 41.9927 37.416 41.9939 37.4563 41.9939C37.6112 41.9939 37.6887 41.9357 37.6887 41.8192C37.6887 41.7161 37.6182 41.6645 37.4773 41.6645C37.4401 41.6645 37.3946 41.6661 37.341 41.6691ZM37.341 42.176V42.6189C37.3892 42.6232 37.4282 42.6253 37.4581 42.6253C37.5642 42.6253 37.6411 42.6073 37.6887 42.5713C37.7369 42.5353 37.761 42.4755 37.761 42.392C37.761 42.3157 37.7387 42.2602 37.6942 42.2254C37.6496 42.1907 37.5719 42.1733 37.4608 42.1733C37.4377 42.1733 37.3977 42.1742 37.341 42.176Z" fill="black"/>
<path d="M38.5695 41.7723V42.0861H39.0123V42.2883H38.5695V42.69H39.177V42.9014H38.3316V41.5609H39.1871V41.7723H38.5695Z" fill="black"/>
<path d="M40.2739 42.9219L39.9161 42.3683C39.8801 42.3677 39.8298 42.3656 39.7652 42.3619V42.9219H39.5181V41.5814C39.5315 41.5814 39.5831 41.5793 39.6727 41.575C39.7624 41.5701 39.8347 41.5677 39.8896 41.5677C40.23 41.5677 40.4002 41.6994 40.4002 41.963C40.4002 42.0423 40.3767 42.1145 40.3297 42.1798C40.2827 42.2451 40.2236 42.2911 40.1522 42.318L40.5484 42.9219H40.2739ZM39.7652 41.7882V42.1606C39.8091 42.1643 39.8426 42.1661 39.8658 42.1661C39.9652 42.1661 40.0378 42.1521 40.0836 42.124C40.1299 42.0959 40.1531 42.0413 40.1531 41.9602C40.1531 41.8943 40.1284 41.8483 40.079 41.822C40.0296 41.7958 39.9518 41.7827 39.8457 41.7827C39.8201 41.7827 39.7932 41.7845 39.7652 41.7882Z" fill="black"/>
<path d="M41.2295 41.7518V42.8809H40.9916V41.7518H40.5652V41.5404H41.6751V41.7518H41.2295Z" fill="black"/>
<path d="M42.5914 42.6934L42.4935 42.4216H42.0342L41.9409 42.6934H41.6764L42.2108 41.3346H42.3151L42.8541 42.6934H42.5914ZM42.263 41.7445L42.1019 42.2395H42.424L42.263 41.7445Z" fill="black"/>
<path d="M43.0351 42.5773L43.123 42.3641C43.2169 42.4299 43.3093 42.4629 43.4002 42.4629C43.5399 42.4629 43.6097 42.4141 43.6097 42.3165C43.6097 42.2707 43.5933 42.2271 43.5603 42.1856C43.5274 42.1442 43.4594 42.0978 43.3563 42.0466C43.2538 41.9947 43.1846 41.9523 43.1486 41.9194C43.1132 41.8858 43.0857 41.8462 43.0662 41.8004C43.0473 41.7547 43.0379 41.704 43.0379 41.6485C43.0379 41.5448 43.0757 41.4588 43.1513 41.3905C43.2276 41.3222 43.3252 41.288 43.4441 41.288C43.5991 41.288 43.7128 41.317 43.7854 41.3749L43.7131 41.5799C43.6296 41.5201 43.5414 41.4902 43.4487 41.4902C43.3938 41.4902 43.3511 41.5049 43.3206 41.5342C43.2907 41.5628 43.2758 41.6003 43.2758 41.6467C43.2758 41.7236 43.3609 41.8035 43.531 41.8864C43.6207 41.9304 43.6854 41.9709 43.725 42.0081C43.7647 42.0447 43.7949 42.0877 43.8156 42.1371C43.8363 42.1859 43.8467 42.2405 43.8467 42.3009C43.8467 42.4095 43.8037 42.4989 43.7177 42.569C43.6323 42.6392 43.5176 42.6742 43.3737 42.6742C43.2486 42.6742 43.1358 42.6419 43.0351 42.5773Z" fill="black"/>
<path d="M28.9129 39.8248C30.1754 39.9748 31.9254 39.8623 32.6879 39.8248M27.0004 35.5248C28.0754 36.3623 30.3879 36.8623 30.3504 36.8623M31.6879 37.0873C31.3379 35.3373 30.9629 34.9123 30.6504 33.8123M25.2129 31.8373C27.0004 32.6373 27.2754 33.1623 28.4129 33.9623M29.0629 32.2123C29.2129 30.0498 29.5129 29.4748 30.0504 28.9748M25.2129 28.7248C25.8629 29.4373 27.9879 31.6873 27.9879 31.6873M27.1129 26.7373C27.9129 27.2998 27.9129 29.3623 27.9129 29.3623" stroke="#00A400" stroke-width="0.275" stroke-linecap="round"/>
</g>
<defs>
<clipPath id="clip0_3736_62014">
<rect width="80" height="60" fill="white"/>
</clipPath>
</defs>
</svg>
