<svg width="80" height="60" viewBox="0 0 80 60" fill="none" xmlns="http://www.w3.org/2000/svg">
<g clip-path="url(#clip0_3736_62074)">
<mask id="mask0_3736_62074" style="mask-type:luminance" maskUnits="userSpaceOnUse" x="0" y="0" width="80" height="60">
<path d="M0.00390625 0H79.9961V60H0.00390625V0Z" fill="white"/>
</mask>
<g mask="url(#mask0_3736_62074)">
<path fill-rule="evenodd" clip-rule="evenodd" d="M-5 0H85V60H-5V0Z" fill="#199D00"/>
<path fill-rule="evenodd" clip-rule="evenodd" d="M17.6756 17.0043C17.5819 18.4105 17.4412 20.8714 18.6483 21.1292C20.0897 21.2699 19.2928 18.6917 19.8201 18.223C19.9139 17.9886 20.0897 17.9886 20.1014 18.2816V20.473C20.1014 21.1761 20.5701 21.3871 20.9217 21.5277C21.2967 21.5042 21.5545 21.5277 21.6951 21.8792L21.8826 25.6644C21.8826 25.6644 22.7498 25.9222 22.7967 23.5433C22.8319 22.1371 22.5155 20.9769 22.703 20.7074C22.703 20.4378 23.0545 20.4261 23.2889 20.555C23.6639 20.8128 23.828 21.141 24.4139 21.0238C25.3045 20.766 25.8436 20.3324 25.8553 19.6527C25.8377 18.9847 25.6987 18.3256 25.4451 17.7074C25.492 17.5902 25.2811 17.2738 25.328 17.1566C25.4803 17.4144 25.7264 17.391 25.7733 17.1566C25.6209 16.6644 25.3866 16.1839 25.0116 15.9847C24.6951 15.7035 24.2264 15.7503 24.0741 16.3363C23.9803 17.0042 24.3084 17.7894 24.7889 18.4457C24.8944 18.6917 25.035 19.1136 24.9764 19.4886C24.7186 19.641 24.4608 19.5707 24.2381 19.348C24.2381 19.348 23.535 18.8207 23.535 18.6917C23.7225 17.4964 23.5701 17.3558 23.4647 17.016C23.3944 16.5589 23.1717 16.4066 22.9959 16.1019C22.8201 15.9144 22.5858 15.9144 22.4686 16.1019C22.1522 16.641 22.3045 17.8011 22.5272 18.3285C22.6912 18.8089 22.9373 19.1136 22.8201 19.1136C22.7264 19.3832 22.5272 19.3128 22.3748 18.9964C22.2033 18.3306 22.1206 17.6449 22.1287 16.9574C22.0701 16.4183 21.9998 15.2699 21.6366 14.9652C21.4256 14.6839 21.1092 14.8246 20.992 15.0824C20.9611 15.6059 20.9728 16.1311 21.0272 16.6527C21.2616 17.5199 21.3436 18.2933 21.4608 19.1722C21.4959 20.3558 20.7811 19.6878 20.8162 19.0902C20.97 18.3388 20.958 17.563 20.7811 16.8167C20.6639 16.5121 20.535 16.4417 20.242 16.4886C20.0194 16.4886 19.4451 17.1097 19.2811 18.1644C19.2811 18.1644 19.1405 18.7035 19.0819 19.1839C18.9998 19.723 18.6483 20.1214 18.3905 19.1136C18.1795 18.3753 18.0389 16.5824 17.6873 17.0043H17.6756Z" fill="white"/>
<path fill-rule="evenodd" clip-rule="evenodd" d="M21.6016 22.7578L17.8516 24.5625C17.8867 23.707 19.6211 22.1719 20.8164 22.1602C21.5781 22.1719 21.3906 22.4531 21.5898 22.7578H21.6016Z" fill="white"/>
<path fill-rule="evenodd" clip-rule="evenodd" d="M20.9338 23.9293C18.965 29.027 25.5627 29.7418 26.301 24.1403C26.3713 23.9059 26.6525 23.6832 26.6994 24.0582C26.547 29.1325 21.59 29.4723 20.7463 27.8785C20.5478 27.3302 20.4486 26.7508 20.4533 26.1676C20.3361 25.1715 19.8088 25.5582 19.7267 26.5426C19.6447 27.0934 19.6681 27.2457 19.6681 27.7731C19.926 31.7809 26.3127 30.0582 27.3556 26.7535C27.9064 24.9254 27.2619 23.5778 27.5549 23.5778C28.1877 24.2575 29.0783 23.6715 29.2775 23.4371C29.3595 23.32 29.5705 23.2379 29.7111 23.3903C30.2033 23.7418 31.0705 23.5778 31.258 22.9567C31.3635 22.3356 31.4455 21.7028 31.4689 21.0582C31.0588 21.1754 30.7658 21.2574 30.7306 21.4332L30.6486 21.9723C30.6135 22.1481 30.2736 22.1481 30.2502 21.9254C30.0978 21.2223 29.465 21.1403 29.0783 22.2184C28.8322 22.4293 28.3635 22.4762 28.3166 22.1598C28.3752 21.4332 28.0822 21.3395 27.4963 21.6793L26.9338 17.4371C27.1681 17.4371 27.4025 17.6129 27.6252 17.3317C27.3908 16.5699 26.8635 15.0231 26.5705 14.9059C26.4416 14.7418 26.3244 14.8473 26.1369 14.8942C25.8322 14.9879 25.551 15.2457 25.6447 15.7614C25.9963 17.9645 26.2306 19.6403 26.5939 21.8551C26.6525 22.1012 26.4416 22.441 26.1603 22.4059C25.6916 22.0895 25.5744 21.445 24.7541 21.4684C24.1681 21.4684 23.5119 22.1129 23.4299 22.7223C23.3244 23.2145 23.2892 23.7418 23.4299 24.1637C23.84 24.6559 24.3322 24.609 24.7658 24.5035C25.1174 24.3512 25.4103 23.9996 25.5392 24.0817C25.6213 24.1871 25.551 25.359 23.8635 26.2496C22.8439 26.7184 22.0236 26.8121 21.59 25.9801C21.3205 25.4528 21.6135 23.4723 20.9338 23.9293Z" fill="white"/>
<path fill-rule="evenodd" clip-rule="evenodd" d="M29.3362 18.7496C29.7229 18.609 31.5979 16.4527 31.5979 16.4527L31.3167 16.2184C31.2112 16.1363 31.2229 16.0426 31.3167 15.9605C31.7854 15.6793 31.6331 15.0934 31.3987 14.8121C31.2396 14.7345 31.0645 14.6952 30.8875 14.6972C30.7105 14.6993 30.5365 14.7426 30.3792 14.8238C30.051 15.1402 29.9807 15.6441 30.2385 15.9488C30.4846 16.066 30.7307 16.3238 30.5667 16.4645C29.7932 17.2848 27.6956 18.7027 27.9417 18.7496C27.9885 18.8199 29.2893 18.8199 29.3245 18.7496H29.3362ZM17.969 26.3668C17.2659 27.4918 17.2073 29.1676 17.594 29.6715C17.8049 29.9059 18.1448 30.0113 18.3909 29.9293C18.8362 29.7418 19.0354 28.8395 18.9299 28.523C18.7776 28.2887 18.6604 28.2535 18.5081 28.441C18.2034 29.0738 18.0745 28.6402 18.0393 28.2887C18.0057 27.6933 18.0372 27.096 18.1331 26.5074C18.2151 26.0152 18.1331 26.1559 17.969 26.3668ZM48.0979 24.5738C47.4182 23.0973 46.469 21.6441 46.176 21.0934C45.2628 19.6497 44.2933 18.2423 43.2698 16.8746C42.5432 16.0074 44.4651 17.2379 43.0354 15.5035L41.9924 14.6246C41.7581 14.4605 41.1956 14.1559 41.1018 14.648C41.0549 15.0934 41.0784 15.3277 41.1487 15.691C41.2073 15.9254 41.5589 16.3355 41.7346 16.5699C44.1371 19.7521 46.2473 23.1448 48.0393 26.7066C48.344 26.5543 48.2737 24.8199 48.0979 24.5738Z" fill="white"/>
<path fill-rule="evenodd" clip-rule="evenodd" d="M45.1091 29.4723C44.9685 29.6246 45.4372 30.2692 46.0466 30.2692C47.0544 30.152 47.945 29.5895 48.7653 28.0895C49.0987 27.5905 49.3113 27.0208 49.3864 26.4254C49.4857 23.5806 49.2576 20.7338 48.7068 17.9411C48.6716 17.7067 48.7068 17.4254 48.7302 17.3551C48.8005 17.2731 49.0232 17.3551 49.1403 17.1559C49.3161 16.9801 48.6716 15.5153 48.32 14.9645C48.2028 14.7067 48.1443 14.5426 47.9333 14.9879C47.6788 15.4793 47.5576 16.0288 47.5818 16.5817C48.0622 19.9215 48.2146 22.8395 48.5193 26.1793C48.5544 26.5075 48.5075 26.9762 48.2849 27.1637C47.4006 28.1482 46.3184 28.9349 45.1091 29.4723ZM58.7614 29.4606C58.0349 29.8825 58.0349 30.3629 58.6208 30.3746C59.6286 30.2575 60.8239 30.1754 61.6443 28.9332C61.934 28.3482 62.1015 27.7102 62.1364 27.0582C62.284 24.2572 62.0991 21.4486 61.5857 18.6911C61.5622 18.4567 61.4568 17.9059 61.4919 17.8356C61.5622 17.6715 61.8903 17.8473 62.0075 17.6598C62.1716 17.484 61.1521 16.1715 60.7888 15.609C60.6716 15.3512 60.6247 15.1871 60.4021 15.6325C60.166 16.1283 60.0922 16.686 60.1911 17.2262C60.7302 20.859 61.1286 23.5778 61.2107 26.7887C61.1638 27.0934 61.1521 27.2575 61.0114 27.6442C60.695 28.0426 60.3435 28.5582 60.0153 28.8043C59.6872 29.0387 58.9841 29.2731 58.7614 29.4606Z" fill="white"/>
<path fill-rule="evenodd" clip-rule="evenodd" d="M59.3009 26.2144C59.3009 25.3589 59.3126 24.6323 59.2892 23.9878C59.2816 23.442 59.1619 22.9035 58.9376 22.4058C58.7267 21.9253 58.8556 21.5386 58.7501 21.023C58.6564 20.5073 58.6798 19.7339 58.5392 19.1362C58.4923 18.9019 58.3751 18.1402 58.4103 18.0581C58.4689 17.8941 58.6915 18.0581 58.8087 17.8706C58.9728 17.6948 58.2228 15.7612 57.8478 15.2105C57.7189 14.9644 57.4611 15.0464 57.1681 15.4448C56.8751 15.7144 56.9806 16.312 57.0978 16.8862C57.8126 20.6714 58.3634 24.105 58.2462 27.7027C58.1993 28.0073 59.3009 26.7886 59.3009 26.2144ZM53.9454 21.5269C53.4884 21.5034 52.5392 20.6245 52.2579 20.1206C52.2119 19.9975 52.1923 19.866 52.2004 19.7348C52.2084 19.6035 52.244 19.4755 52.3048 19.3589C52.4806 19.2417 52.7384 19.1245 52.9376 19.2417C52.9376 19.2417 53.1368 19.523 53.1017 19.5581C53.3361 19.6753 53.4532 19.6167 53.4767 19.5112C53.4884 19.3355 53.4064 19.23 53.4064 19.0425C53.5118 18.5034 54.1095 18.4214 54.3439 18.7612C54.5079 18.9722 54.5782 19.4058 54.59 19.6987C54.59 19.8511 54.3556 19.6753 54.2032 19.6987C54.0743 19.7456 54.0392 19.9097 54.0275 20.0503C54.004 20.437 53.9571 21.0581 53.9454 21.5152V21.5269ZM45.5314 27.1519C45.6486 26.0034 45.4845 23.9527 45.4728 23.273C45.4101 21.525 45.2654 19.7808 45.0392 18.0464C44.8986 17.062 45.4376 18.1519 45.3673 17.5777C45.1915 16.605 44.6525 15.937 44.0079 15.0581C43.8087 14.7652 43.8087 14.7066 43.4923 15.1284C43.1407 15.9136 43.4454 16.4644 43.5392 17.0855C43.9962 19.1011 44.2657 20.9527 44.3946 22.7925C44.5296 24.7037 44.5452 26.6215 44.4415 28.5347C44.7931 28.5464 45.3321 27.9839 45.5314 27.1519Z" fill="white"/>
<path fill-rule="evenodd" clip-rule="evenodd" d="M60.8597 25.3129C60.0511 23.9536 58.844 22.5004 58.5159 21.9497C57.4293 20.4322 56.2879 18.9546 55.094 17.52C54.0979 16.4653 55.5628 17.3442 54.9065 16.5239C54.3558 15.9262 54.2034 15.727 53.7229 15.3637C53.4886 15.2114 53.3479 14.9184 53.2542 15.4223C53.2168 15.8588 53.209 16.2973 53.2307 16.7348C53.2307 16.934 53.4417 17.3208 53.6292 17.5551C56.055 20.5434 58.7151 23.5903 60.8479 27.4223C61.1526 27.27 61.0472 25.5473 60.8479 25.3129H60.8597Z" fill="white"/>
<path fill-rule="evenodd" clip-rule="evenodd" d="M24.3675 22.8168C24.3089 22.9223 24.18 23.0512 24.2269 23.1801C24.3089 23.2973 24.3909 23.3325 24.5315 23.3325C24.6605 23.3325 24.848 23.3676 24.8831 23.2973C24.9534 23.2153 25.0003 23.0629 24.9534 22.9106C24.8128 22.559 24.4378 22.6997 24.3675 22.8168Z" fill="#1BA400"/>
<path fill-rule="evenodd" clip-rule="evenodd" d="M51.5078 42.4806C52.5859 42.5275 53.2891 42.5392 54.2383 42.6447L55.3633 42.5275C56.6055 42.4103 56.6523 44.297 56.6523 44.297C56.6523 45.4103 56.2188 45.4689 55.668 45.5861C55.3516 45.633 55.1992 45.3986 55.0234 45.1642C54.7584 45.2492 54.4761 45.2653 54.2031 45.2111C53.7461 45.1877 53.3008 45.1877 52.8555 45.1525C52.3867 45.1174 52.1289 45.2111 51.6484 45.1642C51.5547 45.3166 51.4141 45.5275 51.1328 45.4689C50.8984 45.4338 50.6055 44.7658 50.6875 44.2385C50.8633 43.8635 50.8047 43.9924 50.8047 43.8283C46.3984 43.7111 41.957 43.5119 37.6445 43.5705C34.2695 43.5822 30.9414 43.7228 27.6016 43.8635C25.8203 43.84 24.4609 43.5588 23.5234 42.1877C23.6172 42.1877 28.0703 42.4338 29.3711 42.3517C31.7734 42.3283 33.9766 42.1291 36.4258 42.0588C41.2539 42.1408 46.0469 42.1408 50.875 42.4806C50.4062 42.1642 50.4062 41.426 51.1094 41.2385C51.168 41.1916 51.2031 41.6017 51.3086 41.59C51.8828 41.5549 51.625 42.3283 51.5078 42.4806ZM32.1016 15.8556C31.375 17.9416 32.5234 20.2385 33.3203 20.0158C33.9062 20.2502 34.2578 19.1486 34.4922 17.9533C34.668 17.6135 34.7852 17.5783 34.8672 17.7541C34.8437 19.3478 34.9844 19.7111 35.3945 20.1916C36.3086 20.8947 37.0703 20.2853 37.1289 20.2267L37.832 19.5119C37.9961 19.3361 38.207 19.3361 38.4297 19.4767C38.6523 19.676 38.6172 20.0158 39.0859 20.2502C39.4844 20.4142 40.3164 20.297 40.5156 19.9572C40.7734 19.5002 40.8438 19.3478 40.9609 19.1838C41.1484 18.9377 41.4648 19.0431 41.4648 19.1252C41.4297 19.2658 41.2422 19.3947 41.3711 19.6525C41.6055 19.8166 41.6523 19.7111 41.7813 19.676C42.25 19.4416 42.6016 18.4338 42.6016 18.4338C42.6133 18.0588 42.4023 18.0822 42.2617 18.176L41.8984 18.422C41.6641 18.4572 41.2305 18.6095 41.0078 18.2697C40.7852 17.8713 40.7852 17.297 40.6211 16.8869C40.6211 16.8635 40.3164 16.2424 40.5977 16.2072C40.7383 16.2306 41.0313 16.3127 41.0781 16.0666C41.2188 15.8205 40.7734 15.1291 40.457 14.7775C40.1875 14.4845 39.8125 14.4494 39.4492 14.7541C39.1914 14.9885 39.2266 15.2463 39.1797 15.4924C39.1352 15.6687 39.1333 15.8531 39.174 16.0304C39.2148 16.2076 39.2971 16.3726 39.4141 16.5119C39.6719 17.0041 40.1289 17.6486 39.9766 18.5627C39.9766 18.5627 39.707 18.9845 39.2383 18.926C39.0391 18.8908 38.7227 18.8088 38.5586 17.5431C38.4297 16.6056 38.582 15.2697 38.1836 14.6486C38.0312 14.2619 37.9258 13.8986 37.5742 14.5431C37.4805 14.801 37.0703 15.1877 37.3633 15.9728C37.6405 16.6804 37.7215 17.4496 37.5977 18.1994C37.4219 18.4572 37.3867 18.5392 37.1641 18.7853C36.8594 19.1369 36.5195 19.0431 36.2617 18.9142C36.0273 18.7619 35.8398 18.6799 35.7227 18.1525C35.7461 17.3322 35.793 15.9845 35.6406 15.7033C35.418 15.258 35.0547 15.422 34.9023 15.5627C34.2052 16.3371 33.7385 17.2909 33.5547 18.3166C33.3437 18.9963 33.1211 18.797 32.9687 18.5275C32.5937 18.176 32.5586 15.3986 32.1016 15.8556Z" fill="white"/>
<path fill-rule="evenodd" clip-rule="evenodd" d="M34.3048 20.4021C34.6447 20.1678 34.4923 20.0037 34.9845 20.4959C35.6198 21.6199 35.9886 22.8748 36.0626 24.1639C36.0392 24.4685 36.2501 24.656 36.3556 24.5857C36.4025 23.8826 38.1251 22.8982 39.7072 22.7576C39.9415 22.699 39.8244 22.242 39.8595 22.0076C39.7658 21.1287 40.3517 20.3318 41.172 20.2732C42.297 20.4373 42.672 21.0349 42.6954 21.9373C42.5665 23.6951 40.7384 23.9881 39.7189 24.1287C39.5665 24.1873 39.4962 24.2576 39.7189 24.3396L44.0079 24.3631L44.2306 24.4803C44.254 24.5974 44.1603 24.5037 43.9962 24.7849C43.7603 25.1994 43.6127 25.6583 43.5626 26.1326C42.2853 26.5545 40.9611 26.7185 39.6251 26.8943C39.1564 27.1287 38.922 27.4451 39.0158 27.7967C39.1798 28.1834 40.2111 28.5818 40.2111 28.5935C40.4103 28.7107 40.6329 29.0037 40.1525 29.6014C38.0665 29.5076 36.4376 28.617 35.8751 27.3631C35.7111 27.2342 35.5236 27.3631 35.4064 27.5271C34.5861 28.5818 33.7892 29.5193 32.3947 30.0349C31.5744 30.2459 30.7189 29.906 30.3204 29.367C30.0509 29.0506 30.0626 28.7107 29.9689 28.6404C29.5119 28.8396 25.6447 30.4803 26.1369 29.7068C27.0744 28.7107 28.715 27.9607 30.1447 26.9764C30.2501 26.6365 30.4376 25.5115 31.0001 25.1482C31.0353 25.1482 30.9181 25.8045 30.9298 26.0857C30.9298 26.3201 30.9064 26.4021 30.9533 26.3435C31.0587 26.2849 32.7931 24.9139 32.9454 24.492C33.1095 24.2576 32.9806 23.6482 32.9806 23.6248C32.6525 22.781 32.1954 22.7107 32.0314 22.2889C31.879 21.7381 31.9494 21.1053 32.2658 20.9178C32.547 20.6717 32.8751 20.6951 33.1915 20.9764C33.5431 21.2928 33.8478 21.9139 33.9415 22.3709C33.8829 22.5467 33.4728 22.2537 33.3556 22.3357C33.5812 22.5949 33.7311 22.9111 33.7892 23.2498C34.0236 24.2107 33.9533 24.5857 33.7189 25.2068C32.9454 26.8357 31.9611 27.3162 31.0939 27.9256C31.0704 27.9256 31.0587 28.3357 31.3751 28.5584C31.4923 28.6756 31.9494 28.7342 32.4767 28.5584C33.6033 27.9327 34.5143 26.9809 35.09 25.8279C35.1896 24.9506 35.0935 24.0621 34.8087 23.2264C34.4689 22.4412 34.0704 21.3279 34.0704 21.3045C34.0587 20.8123 34.0939 20.6482 34.3048 20.4021ZM23.0783 15.8787C23.5704 16.1131 24.5079 16.0076 24.4611 15.2107L24.4376 14.8474C24.3439 14.6131 24.0626 14.6717 24.004 14.906C23.9806 14.9881 24.0392 15.117 23.9689 15.1521C23.922 15.199 23.7697 15.1756 23.7697 14.9529C23.7697 14.8826 23.7228 14.8123 23.6876 14.7654C23.6642 14.742 23.6408 14.742 23.5822 14.742C23.5119 14.742 23.5119 14.7537 23.4767 14.8123C23.465 14.8709 23.4415 14.9295 23.4415 14.9998C23.4415 15.0818 23.3947 15.1053 23.3478 15.117C23.2775 15.117 23.2892 15.117 23.2306 15.0935C23.2072 15.0584 23.172 15.0467 23.172 14.9764L23.1369 14.7889C23.1134 14.7537 23.0665 14.7303 23.0197 14.7185C22.7501 14.7185 22.7267 15.0349 22.7501 15.1521C22.7267 15.1756 22.715 15.7264 23.0783 15.8787Z" fill="white"/>
<path fill-rule="evenodd" clip-rule="evenodd" d="M37.551 21.996C38.0431 22.2304 39.2267 22.1015 38.9338 21.3397L38.9103 20.9647C38.8049 20.7304 38.5353 20.789 38.4767 21.0351C38.4533 21.1054 38.5119 21.2343 38.4299 21.2694C38.3947 21.3163 38.2306 21.2929 38.2424 21.0819C38.2424 21.0116 38.1955 20.9296 38.1603 20.8827C38.1252 20.871 38.1135 20.8593 38.0431 20.8593C37.9845 20.8593 37.9845 20.8827 37.9494 20.9413C37.926 20.9999 37.9142 21.0585 37.9142 21.1288C37.9025 21.1991 37.8674 21.2226 37.8088 21.246C37.7502 21.246 37.7619 21.246 37.715 21.2108C37.6799 21.1757 37.6447 21.164 37.6447 21.1054L37.6095 20.9179C37.5861 20.8827 37.5392 20.8593 37.4924 20.8476C37.2228 20.8476 37.1994 21.1522 37.2111 21.2694C37.1994 21.2929 37.1877 21.8554 37.5627 21.996H37.551ZM45.9885 19.4647C46.4806 19.6991 47.4064 19.5936 47.3713 18.8085L47.3478 18.4335C47.2424 18.1991 46.9728 18.2577 46.9142 18.4921C46.8908 18.5741 46.9494 18.703 46.8674 18.7499C46.8322 18.7851 46.6681 18.7616 46.6799 18.539C46.6799 18.4686 46.633 18.3983 46.5978 18.3515C46.5627 18.328 46.551 18.328 46.4806 18.328C46.422 18.328 46.422 18.3515 46.3869 18.4101L46.3517 18.5858C46.34 18.6679 46.3049 18.703 46.2463 18.703C46.1877 18.703 46.1994 18.703 46.1525 18.6796C46.1174 18.6444 46.0822 18.6327 46.0822 18.5741C46.0822 18.5155 46.0705 18.4218 46.047 18.3749C46.0236 18.3397 45.9767 18.328 45.9299 18.3163C45.6603 18.3163 45.6369 18.621 45.6486 18.7382C45.6369 18.7616 45.6252 19.3124 46.0002 19.4647H45.9885ZM50.3595 25.828C49.5041 26.8007 49.8791 28.4061 50.0783 28.7577C50.3595 29.3202 50.5822 29.6835 51.133 29.9647C51.6369 30.328 52.0353 30.1054 52.2463 29.8476C52.7502 29.3202 52.7619 27.9726 52.9963 27.7147C53.1603 27.2226 53.5822 27.3046 53.7814 27.5272C53.9678 27.7918 54.2176 28.0054 54.508 28.1483C54.9767 28.5585 55.5392 28.6405 56.1017 28.2655C56.4767 28.0429 56.7228 27.7733 56.9455 27.2226C57.1799 26.5663 57.0627 23.5194 57.0041 21.7147L56.5119 19.1952C56.5119 19.1718 56.4533 17.9999 56.3947 17.7304C56.3947 17.6132 56.3596 17.578 56.4767 17.5897C56.6056 17.7069 56.6174 17.7069 56.7111 17.7421C56.8283 17.7655 56.9455 17.5429 56.8635 17.3554L55.6916 15.1757C55.5978 15.0819 55.4689 14.9882 55.3166 15.1991C55.2267 15.2805 55.1552 15.38 55.1067 15.4911C55.0582 15.6023 55.0339 15.7224 55.0353 15.8436C55.0705 16.3593 55.1525 16.8866 55.1877 17.4022L55.6564 20.0507C55.8088 21.9257 55.8439 23.4726 55.9963 25.3593C55.9728 26.1561 55.7267 26.8476 55.4924 26.953C55.4924 26.953 55.1408 27.1522 54.9064 26.9296C54.7306 26.8593 54.0392 25.7694 54.0392 25.7694C53.6877 25.453 53.4533 25.5351 53.2072 25.7694C52.5041 26.4491 52.1994 27.6913 51.7189 28.5585C51.6017 28.7577 51.2502 28.9101 50.8752 28.5468C49.9142 27.2226 50.4767 25.3476 50.3595 25.828ZM46.2111 14.8476C46.6564 15.0233 46.9611 15.9257 46.8674 16.371C46.7736 16.8983 46.5392 17.4843 46.3752 17.414C46.1877 17.3437 46.4924 16.8749 46.3166 16.3827C46.2228 16.0546 45.6135 15.4687 45.6838 15.3046C45.5666 14.9413 45.9416 14.7772 46.2111 14.8358V14.8476Z" fill="white"/>
<path fill-rule="evenodd" clip-rule="evenodd" d="M51.7889 26.3676C51.8709 25.2895 51.7186 24.6333 51.6951 24.0004C51.6717 23.3676 50.9803 18.5395 50.8397 18.0708C50.6639 17.1567 51.5076 17.9536 51.4139 17.4145C51.1209 16.7583 50.4061 15.7856 50.1834 15.2114C50.0428 14.977 50.1014 14.7426 49.7967 15.1528C49.5343 15.8719 49.4421 16.642 49.5272 17.4028C50.2537 21.1879 50.992 24.3286 50.8748 27.9262C51.2264 27.9262 51.6131 27.1411 51.7889 26.3676ZM59.3358 16.3715C59.7459 16.5708 59.9803 17.6958 59.9334 18.0122C59.8514 18.5981 59.6404 19.2309 59.4881 19.1489C59.3123 19.0786 59.5233 18.2817 59.4412 18.0356C59.3475 17.684 58.7967 17.0512 58.8553 16.8637C58.7381 16.4653 59.0897 16.3012 59.3358 16.3715ZM29.3709 24.3286C29.7576 24.4809 29.992 25.3012 29.9568 25.5356C29.8631 25.9692 29.6639 26.4379 29.5115 26.3676C29.3592 26.3208 29.5467 25.7348 29.4764 25.5473C29.4412 25.1137 28.9022 24.8793 28.9139 24.6918C28.8201 24.3403 29.1483 24.2817 29.3826 24.3286H29.3709Z" fill="white"/>
<path fill-rule="evenodd" clip-rule="evenodd" d="M38.6997 25.5703C39.1919 25.5938 39.438 25.9922 38.981 26.1563C38.5122 26.3086 38.0786 26.4375 38.0669 27.0938C38.2427 28.0313 37.8325 27.7031 37.5981 27.5859C37.3169 27.375 36.52 26.8828 36.4028 25.8281C36.3911 25.582 36.5903 25.3594 36.9067 25.3594C37.3755 25.4883 38.0786 25.5 38.6997 25.5703Z" fill="#1B9D00"/>
<path fill-rule="evenodd" clip-rule="evenodd" d="M19.0706 14.5782C19.6331 14.7423 19.6682 15.586 19.6331 15.8321C19.551 16.2774 19.3518 16.7579 19.2112 16.6993C19.0471 16.6407 19.2112 16.0313 19.1292 15.8438C19.0471 15.586 18.5667 15.0938 18.6135 14.9532C18.5081 14.6602 18.8479 14.5196 19.0706 14.5782ZM30.3089 18.5157C29.8635 18.7501 29.6995 19.4532 29.969 19.8751C30.2268 20.2266 30.6253 20.0977 30.6721 20.0977C31.1057 20.1446 31.3635 19.2891 31.3635 19.2891C31.3635 19.2891 31.3753 19.0548 30.8714 19.5118C30.6487 19.547 30.637 19.4649 30.5784 19.3477C30.5247 19.1246 30.5453 18.8901 30.637 18.6798C30.719 18.4688 30.5549 18.3751 30.3089 18.5157ZM33.5901 14.2501C33.3557 14.4024 32.9221 14.8595 32.9104 15.3751C32.8987 15.6681 32.8401 15.6681 33.0276 15.8438C33.1799 16.0548 33.3089 16.0431 33.5901 15.8907C33.6602 15.8466 33.7203 15.7884 33.7667 15.7198C33.8131 15.6512 33.8448 15.5737 33.8596 15.4923C33.9299 15.1641 33.5081 15.6563 33.4612 15.2813C33.3674 14.9298 33.637 14.7891 33.8948 14.461C33.8948 14.2266 33.8948 14.0743 33.5784 14.2501H33.5901ZM36.2151 14.7188C36.1118 15.1456 36.049 15.5811 36.0276 16.0196C35.9573 16.3477 36.3792 16.4884 36.555 16.0665C36.8362 15.3048 36.8362 14.9766 36.8596 14.6602C36.7776 14.1563 36.4378 14.1681 36.2151 14.7188ZM52.8557 23.1915C52.9026 23.1329 55.1995 21.504 55.1995 21.504C55.4339 21.422 55.3753 22.3477 55.2698 22.336C54.5575 23.0225 53.7382 23.5885 52.844 24.0118C52.7268 24.0938 52.6214 23.3907 52.844 23.1915H52.8557ZM54.9299 23.1681C55.3401 23.3673 55.5042 24.5509 55.4573 24.8673C55.4573 25.5001 55.0706 25.9923 54.9065 25.922C54.7425 25.8399 54.9299 25.1368 54.8479 24.8907C54.7542 24.5391 54.4143 23.8946 54.4729 23.7071C54.3557 23.3087 54.6839 23.0977 54.9417 23.1681H54.9299ZM41.3362 28.254C41.5263 28.0321 41.7473 27.8387 41.9924 27.6798C42.2268 27.5626 42.4378 27.7735 42.426 27.7618C42.4612 27.9962 42.2854 28.1954 42.344 28.5001C42.3909 28.6173 42.426 28.7579 42.6487 28.711C43.012 28.4181 43.3518 28.3946 43.7034 28.3829C43.9964 28.3946 44.0081 28.8751 43.8206 28.8751C43.1526 29.0157 42.8596 29.2032 42.3792 29.379C42.1448 29.5196 41.9573 29.3438 41.9573 29.3321C41.9573 29.3204 41.8284 29.2032 41.9104 28.8985C41.9339 28.6641 41.8401 28.5235 41.6292 28.547C41.4885 28.6407 41.3479 28.6876 41.2776 28.5118C41.2424 28.3946 41.2307 28.3243 41.3362 28.254ZM57.344 28.8868C57.4378 29.004 57.5081 29.1212 57.3323 29.3321L56.8987 29.7071C56.8284 29.8243 56.7815 30.0352 57.0159 30.0938C57.4378 30.211 58.4221 29.5665 58.4221 29.5548C58.5862 29.4376 58.5393 29.2032 58.5159 29.2032C58.4221 29.0977 58.2112 29.1681 58.0706 29.1446C58.0003 29.1446 57.7776 29.1212 57.8831 28.9102C57.9618 28.8067 58.025 28.6922 58.0706 28.5704C58.1292 28.4298 58.0706 28.336 57.8362 28.254C57.5901 28.2071 57.4846 28.2306 57.2151 28.254C57.0745 28.2774 57.0276 28.3477 56.9924 28.5235C57.0042 28.7931 57.1682 28.7813 57.344 28.8751V28.8868Z" fill="white"/>
<path fill-rule="evenodd" clip-rule="evenodd" d="M41.4179 22.2309C41.3593 22.3481 41.1484 22.3481 40.9492 22.2309C40.7499 22.1137 40.6328 21.9262 40.7031 21.8207C40.7734 21.7153 40.9726 21.7153 41.1718 21.8207C41.371 21.9262 41.4765 22.1254 41.4179 22.2309ZM30.9882 15.9496C30.871 15.9848 30.707 15.8793 30.6367 15.7153C30.5663 15.5512 30.6015 15.4106 30.7187 15.3754C30.8359 15.3403 30.9882 15.4574 31.0703 15.6098C31.1523 15.7621 31.1054 15.9262 30.9765 15.9614L30.9882 15.9496Z" fill="#259F00"/>
<path fill-rule="evenodd" clip-rule="evenodd" d="M51.6246 43.9453C52.7261 43.9922 53.7574 43.9453 54.8472 44.0039C55.0464 44.1797 54.9058 44.5898 54.7769 44.5664L53.8628 44.5312C53.8511 44.1797 52.9605 44.2383 52.9839 44.543C52.5035 44.6016 52.0699 44.5312 51.5777 44.5078C51.4371 44.332 51.4605 44.0156 51.6246 43.9453Z" fill="#209000"/>
</g>
</g>
<defs>
<clipPath id="clip0_3736_62074">
<rect width="80" height="60" fill="white"/>
</clipPath>
</defs>
</svg>
