<svg width="80" height="60" viewBox="0 0 80 60" fill="none" xmlns="http://www.w3.org/2000/svg">
<g clip-path="url(#clip0_3736_62583)">
<mask id="mask0_3736_62583" style="mask-type:luminance" maskUnits="userSpaceOnUse" x="0" y="0" width="80" height="60">
<path d="M0 0H80V60H0V0Z" fill="white"/>
</mask>
<g mask="url(#mask0_3736_62583)">
<path fill-rule="evenodd" clip-rule="evenodd" d="M-2.5 0H87.5V60H-2.5V0Z" fill="white"/>
<path fill-rule="evenodd" clip-rule="evenodd" d="M-2.5 0H87.5V30H-2.5V0Z" fill="#DF0000"/>
<path fill-rule="evenodd" clip-rule="evenodd" d="M18.2499 5.02453C15.8822 5.53337 13.7616 6.84132 12.2442 8.7288C10.7268 10.6163 9.90496 12.9684 9.91669 15.3901C9.92842 17.8119 10.773 20.1559 12.3086 22.0286C13.8442 23.9013 15.9774 25.1886 18.3499 25.6745C16.9908 26.0678 15.5673 26.1889 14.1613 26.0309C12.7552 25.8729 11.3941 25.4388 10.1562 24.7537C8.91823 24.0685 7.82771 23.1457 6.94717 22.0381C6.06663 20.9306 5.4134 19.6601 5.02494 18.2995C4.2534 15.5646 4.5961 12.6355 5.97811 10.1526C7.36012 7.66966 9.669 5.83493 12.3999 5.04953C14.3999 4.47453 16.2499 4.46203 18.2624 5.02453H18.2499Z" fill="white"/>
<path fill-rule="evenodd" clip-rule="evenodd" d="M16.625 13.7504L17.2375 15.6254L15.6125 14.4754L14.0125 15.6504L14.6 13.7504L13 12.5879L14.9875 12.5629L15.6125 10.6879L16.2375 12.5629H18.2125L16.625 13.7504ZM18.8125 20.2504L19.4375 22.1379L17.8125 20.9879L16.2 22.1504L16.8 20.2629L15.2 19.0879L17.1875 19.0754L17.8 17.1879L18.425 19.0629H20.425L18.8125 20.2504ZM26.125 20.2004L26.7375 22.1004L25.1125 20.9379L23.5125 22.1004L24.1 20.2129L22.5 19.0504L24.4875 19.0254L25.1125 17.1504L25.7375 19.0254H27.7125L26.125 20.2004ZM28.3 13.7504L28.9125 15.6379L27.2875 14.4879L25.6875 15.6504L26.2875 13.7629L24.675 12.5879L26.675 12.5754L27.275 10.6879L27.9 12.5629H29.9L28.3 13.7504ZM22.5125 9.46289L23.1375 11.3629L21.5125 10.2004L19.9 11.3754L20.5 9.47539L18.9 8.30039L20.875 8.28789L21.5 6.40039L22.125 8.27539H24.125L22.5125 9.46289Z" fill="white"/>
</g>
</g>
<defs>
<clipPath id="clip0_3736_62583">
<rect width="80" height="60" fill="white"/>
</clipPath>
</defs>
</svg>
