<svg width="80" height="60" viewBox="0 0 80 60" fill="none" xmlns="http://www.w3.org/2000/svg">
<g clip-path="url(#clip0_3736_62608)">
<path d="M0 0H80V60H0V0Z" fill="#EE1C25"/>
<path d="M0 0H80V40H0V0Z" fill="#0B4EA2"/>
<path d="M0 0H80V20H0V0Z" fill="white"/>
<path d="M29.1248 46.3504C23.7498 43.7629 16.0498 38.6129 16.0498 28.4504C16.0498 18.2754 16.5498 13.6504 16.5498 13.6504H41.7123C41.7123 13.6504 42.1998 18.2754 42.1998 28.4504C42.1998 38.6254 34.4998 43.7504 29.1248 46.3504Z" fill="white"/>
<path d="M29.125 45C24.1875 42.625 17.125 37.9 17.125 28.575C17.125 19.25 17.575 15 17.575 15H40.675C40.675 15 41.1125 19.25 41.1125 28.575C41.125 37.9125 34.0625 42.625 29.125 45Z" fill="#EE1C25"/>
<path d="M30.175 26.1254C31.5125 26.1504 34.125 26.2004 36.4375 25.4254C36.4375 25.4254 36.3875 26.2629 36.3875 27.2254C36.3875 28.1879 36.45 29.0254 36.45 29.0254C34.325 28.3129 31.6875 28.3004 30.175 28.3129V33.4629H28.075V28.3129C26.575 28.3004 23.9375 28.3129 21.8125 29.0254C21.8125 29.0254 21.875 28.1879 21.875 27.2254C21.875 26.2504 21.8125 25.4254 21.8125 25.4254C24.125 26.2004 26.7375 26.1504 28.0625 26.1254V22.8879C26.85 22.8879 25.1 22.9379 23.1125 23.6004C23.1125 23.6004 23.175 22.7754 23.175 21.8004C23.175 20.8379 23.1125 20.0004 23.1125 20.0004C25.1 20.6629 26.85 20.7254 28.0625 20.7129C28 18.6629 27.4 16.0879 27.4 16.0879C27.4 16.0879 28.6375 16.1754 29.125 16.1754C29.625 16.1754 30.85 16.0879 30.85 16.0879C30.85 16.0879 30.25 18.6629 30.1875 20.7129C31.4 20.7254 33.15 20.6629 35.1375 20.0004C35.1375 20.0004 35.075 20.8379 35.075 21.8004C35.075 22.7754 35.1375 23.6004 35.1375 23.6004C33.5356 23.0838 31.8576 22.8429 30.175 22.8879V26.1379V26.1254Z" fill="white"/>
<path d="M29.1252 32.9121C26.6377 32.9121 25.3127 36.3496 25.3127 36.3496C25.3127 36.3496 24.5627 34.7246 22.5377 34.7246C21.1627 34.7246 20.1627 35.9371 19.5127 37.0746C22.0127 41.0371 26.0002 43.4871 29.1252 44.9996C32.2502 43.4996 36.2502 41.0371 38.7377 37.0746C38.0877 35.9496 37.0877 34.7246 35.7127 34.7246C33.6877 34.7246 32.9377 36.3496 32.9377 36.3496C32.9377 36.3496 31.6252 32.9121 29.1252 32.9121Z" fill="#0B4EA2"/>
</g>
<defs>
<clipPath id="clip0_3736_62608">
<rect width="80" height="60" fill="white"/>
</clipPath>
</defs>
</svg>
