<svg width="80" height="60" viewBox="0 0 80 60" fill="none" xmlns="http://www.w3.org/2000/svg">
<g clip-path="url(#clip0_3736_62623)">
<mask id="mask0_3736_62623" style="mask-type:luminance" maskUnits="userSpaceOnUse" x="-1" y="0" width="81" height="60">
<path d="M0.00488286 0H79.9971V60H-0.00683594L0.00488286 0Z" fill="white"/>
</mask>
<g mask="url(#mask0_3736_62623)">
<path fill-rule="evenodd" clip-rule="evenodd" d="M-5.50293 0H114.497V60H-5.50293V0Z" fill="white"/>
<path fill-rule="evenodd" clip-rule="evenodd" d="M-5.50293 39.9961H114.497V60H-5.50293V39.9961Z" fill="#D50000"/>
<path fill-rule="evenodd" clip-rule="evenodd" d="M-5.50293 20.0039H114.497V39.9961H-5.50293V20.0039Z" fill="#0000BF"/>
<path fill-rule="evenodd" clip-rule="evenodd" d="M28.5283 10.8984C28.0596 18.1172 27.7783 22.0781 26.6885 23.9062C25.4932 25.875 24.3447 27.3164 19.6924 29.0625C15.0518 27.3164 13.9033 25.875 12.708 23.9062C11.6064 22.0781 11.3369 18.1172 10.8682 10.8984L11.5479 10.6641C12.9307 10.2422 13.9619 9.90234 14.7236 9.75C15.8135 9.51562 16.751 9.25781 19.6807 9.19922C22.6104 9.24609 23.5479 9.52734 24.6377 9.76172C25.3877 9.92578 26.4658 10.2305 27.8369 10.6641L28.5283 10.8984Z" fill="#D50000"/>
<path fill-rule="evenodd" clip-rule="evenodd" d="M27.8486 10.6641C27.4033 17.8711 27.0283 21.1758 26.4424 22.7578C25.3174 25.4766 23.5361 26.9648 19.6924 28.3828C15.8486 26.9648 14.0674 25.4766 12.9307 22.7578C12.3447 21.1641 11.9932 17.8711 11.5479 10.6523C12.9072 10.2305 13.9619 9.90234 14.7236 9.75C15.8135 9.51562 16.751 9.24609 19.6807 9.19922C22.6104 9.24609 23.5479 9.51562 24.6377 9.75C25.7224 9.99693 26.7941 10.2981 27.8486 10.6523V10.6641Z" fill="#0000BF"/>
<path fill-rule="evenodd" clip-rule="evenodd" d="M19.6924 12.8672L19.8682 13.3008L20.6885 13.418L20.1611 13.7344L20.665 14.0742L19.9268 14.1914L19.6924 14.5898L19.458 14.1797L18.7549 14.0859L19.2236 13.7344L18.7314 13.418L19.5166 13.3008L19.6924 12.8672Z" fill="#FFDF00"/>
<path fill-rule="evenodd" clip-rule="evenodd" d="M26.1729 21.0469L25.7158 20.6953L25.3994 20.1562L24.7666 19.6055L24.4268 19.0547L23.7939 18.4805L23.4893 17.9297L23.1377 17.6602L22.9268 17.4375L22.3408 17.9414L22.0361 18.4922L21.6494 18.8438L21.2158 18.5039L20.8994 17.9414L19.6924 15.7969L18.4854 17.9414L18.1689 18.5039L17.7354 18.8438L17.3486 18.4922L17.0322 17.9414L16.458 17.4375L16.2354 17.6484L15.8955 17.9297L15.5908 18.4805L14.958 19.0547L14.6182 19.6055L13.9854 20.1562L13.6689 20.6953L13.2119 21.0469C13.4696 22.6599 14.2328 24.1495 15.3916 25.3008C16.6488 26.3767 18.1065 27.1932 19.6807 27.7031C21.2669 27.2046 22.7344 26.3871 23.9932 25.3008C24.6729 24.5977 25.9385 23.0391 26.1729 21.0469Z" fill="white"/>
<path fill-rule="evenodd" clip-rule="evenodd" d="M21.6143 9.83203L21.8018 10.2656L22.6221 10.3828L22.083 10.6992L22.5986 11.0391L21.8604 11.1562L21.626 11.5547L21.3916 11.1445L20.6885 11.0508L21.1572 10.6992L20.665 10.3828L21.4385 10.2656L21.626 9.83203H21.6143ZM17.7471 9.83203L17.9346 10.2656L18.7549 10.3711L18.2275 10.6875L18.7314 11.0273L17.9932 11.1445L17.7588 11.543L17.5244 11.1445L16.8213 11.0391L17.29 10.6875L16.7979 10.3711L17.583 10.2539L17.7588 9.82031L17.7471 9.83203Z" fill="#FFDF00"/>
<path fill-rule="evenodd" clip-rule="evenodd" d="M25.165 23.7891H24.2979L23.4775 23.7305L22.5049 23.2617H21.4033L20.4541 23.7305L19.6924 23.8008L18.9424 23.7305L17.9932 23.2617H16.8799L15.8955 23.7305L15.0869 23.8008L14.1963 23.7891L13.7744 23.0625L13.7861 23.0391L15.0986 23.2617L15.9072 23.2031L16.8799 22.7227H17.9814L18.9424 23.1914L19.6924 23.2617L20.4541 23.1914L21.4033 22.7227H22.5049L23.4893 23.1914L24.2979 23.2617L25.5635 23.0273L25.5869 23.0742L25.1533 23.7891H25.165ZM15.04 24.9023L15.9072 24.8438L16.8799 24.375H17.9814L18.9424 24.8438L19.6924 24.9023L20.4424 24.8438L21.4033 24.375H22.5049L23.4775 24.8438L24.3564 24.9023L24.9189 24.1992H24.9072L24.2979 24.3633L23.4893 24.3047L22.5166 23.8359H21.415L20.4541 24.3047L19.7041 24.375L18.9424 24.3047L17.9932 23.8359H16.8799L15.8955 24.3047L15.0869 24.375L14.501 24.2227V24.2461L15.0283 24.9023H15.04Z" fill="#0000BF"/>
</g>
</g>
<defs>
<clipPath id="clip0_3736_62623">
<rect width="80" height="60" fill="white"/>
</clipPath>
</defs>
</svg>
