<svg width="90" height="60" viewBox="0 0 90 60" fill="none" xmlns="http://www.w3.org/2000/svg">
<g clip-path="url(#clip0_4617_141147)">
<path d="M0 60V0H89.8215V59.8115V60H0ZM0.3723 59.6277H89.4503L89.4468 0.364105H0.3723V59.6277Z" fill="#231F20"/>
<path d="M89.6355 0.185547H0.1875V59.8121H89.6355V0.185547Z" fill="#01247D"/>
<path d="M89.6343 21.0589H53.8549V0.185547H35.9658V21.0589H0.1875V38.9445H35.9658V59.8109H53.8549V38.9445H89.6343V21.0589Z" fill="white"/>
<path d="M89.6343 52.9608L10.4503 0.185547H0.1875V7.09066L79.2919 59.8109H89.6343V52.9608Z" fill="white"/>
<path d="M0.1875 52.9608L79.368 0.185547H89.6343V7.09066L10.5276 59.8109H0.1875V52.9608Z" fill="white"/>
<path d="M89.6343 24.7819H50.1284V0.185547H39.6899V24.7819H0.1875V35.2145H39.6899V59.8109H50.1284V35.2145H89.6343V24.7819Z" fill="#CF142B"/>
<path d="M89.6347 59.6443V54.9331L65.5944 38.9453H58.5137L89.6347 59.6443Z" fill="#CF142B"/>
<path d="M89.6349 0.185547H82.5635L53.8555 19.2712V21.0589H58.2622L89.6349 0.19023V0.185547Z" fill="#CF142B"/>
<path d="M31.319 38.9453L0.1875 59.6443V59.8117H7.01651L35.9658 40.5598V38.9453H31.319Z" fill="#CF142B"/>
<path d="M0.1875 0.222656V4.92909L24.4256 21.0586H31.5099L0.1875 0.222656Z" fill="#CF142B"/>
</g>
<defs>
<clipPath id="clip0_4617_141147">
<rect width="89.8215" height="60" fill="white"/>
</clipPath>
</defs>
</svg>
