<svg width="80" height="60" viewBox="0 0 80 60" fill="none" xmlns="http://www.w3.org/2000/svg">
<g clip-path="url(#clip0_3736_62634)">
<mask id="mask0_3736_62634" style="mask-type:luminance" maskUnits="userSpaceOnUse" x="0" y="0" width="81" height="60">
<path d="M0 0H80.0039V60H0V0Z" fill="white"/>
</mask>
<g mask="url(#mask0_3736_62634)">
<path fill-rule="evenodd" clip-rule="evenodd" d="M0 59.4375L115.711 0H0V59.4375Z" fill="#0000D6"/>
<path fill-rule="evenodd" clip-rule="evenodd" d="M120 0L3.1875 60H120V0Z" fill="#006000"/>
<path fill-rule="evenodd" clip-rule="evenodd" d="M120 0H113.566L0 56.8828V60H6.43359L120 3.23438V0Z" fill="#FFCC00"/>
<path fill-rule="evenodd" clip-rule="evenodd" d="M8.36719 1.06641L9.75 5.10938H14.2617L10.6172 7.58203L12.0117 11.6133L8.36719 9.14062L4.72266 11.625L6.11719 7.59375L2.47266 5.09766H6.97266L8.36719 1.06641ZM30.7617 1.06641L32.1562 5.10938H36.668L33.0117 7.59375L34.418 11.625L30.75 9.14062L27.1172 11.6367L28.5117 7.60547L24.8555 5.10938H29.3672L30.7617 1.06641ZM30.7617 18L32.1562 22.043H36.668L33.0117 24.5273L34.418 28.5586L30.7617 26.0625L27.1289 28.5586L28.5234 24.5273L24.8672 22.0312H29.3789L30.7617 18ZM19.6289 9.63281L21.0234 13.6641H25.5234L21.8906 16.1602L23.2734 20.1914L19.6406 17.6953L15.9844 20.1914L17.3906 16.1602L13.7344 13.6641H18.2461L19.6289 9.63281ZM8.36719 18L9.75 22.043H14.2617L10.6172 24.5273L12.0117 28.5586L8.36719 26.0625L4.72266 28.5586L6.12891 24.5273L2.46094 22.0312H6.96094L8.36719 18Z" fill="white"/>
</g>
</g>
<defs>
<clipPath id="clip0_3736_62634">
<rect width="80" height="60" fill="white"/>
</clipPath>
</defs>
</svg>
