<svg width="80" height="60" viewBox="0 0 80 60" fill="none" xmlns="http://www.w3.org/2000/svg">
<g clip-path="url(#clip0_3736_62770)">
<path d="M0 0H80V60H0V0Z" fill="#000066"/>
<path d="M58.8746 43.1252C58.8746 43.1252 58.5496 43.9752 58.3746 43.9752C58.1746 43.9752 57.4996 43.6002 57.4996 43.6002C57.4996 43.6002 57.0121 44.4002 56.7496 44.4377C56.4996 44.4877 55.8246 44.3252 55.8246 44.3252C55.8246 44.3252 55.1746 44.3252 55.1496 44.2377C55.1246 44.1377 55.1746 43.9502 55.1746 43.9502C55.1746 43.9502 54.2371 44.7002 54.0371 44.6502C53.8246 44.6127 53.1246 43.7252 53.1246 43.7252L52.9996 44.1877L51.6746 44.1377L50.5121 43.3877C50.5121 43.3877 49.8621 44.4627 49.8371 44.4377C49.8121 44.4252 48.6996 44.7002 48.6996 44.7002L48.6246 44.4877L47.8746 44.0502C47.8746 44.0502 48.4621 43.2377 48.4621 43.2127C48.4621 43.1877 48.1871 43.0877 48.1871 43.0877L47.7621 43.4377L46.8996 44.0002L46.0371 43.6002L46.4121 42.9002L46.4621 42.4002L47.1371 41.3627L55.4121 33.3252L59.4871 40.8502L58.8746 43.1252Z" fill="#6A4C2D" stroke="black" stroke-width="0.125"/>
<path d="M64.75 43.6004L66.9125 43.5254L65.9875 43.0754L74.2 42.7629L73.0375 42.3254L72.0125 40.9254L67.7625 40.6129C67.7625 40.6129 67.4375 40.3629 66.925 40.4879C66.9 40.1629 66.5 39.7379 66.5 39.7379L63.875 39.5254L62.25 40.6504L63.35 43.4754L64.75 43.6004Z" fill="white" stroke="black" stroke-width="0.125"/>
<path d="M56.375 19.5002L56.6 18.7502C56.6 18.7502 56.975 18.1252 56.975 17.8252C56.975 17.5502 57.2625 17.2127 57.2625 17.2127C57.2625 17.2127 58.125 16.9627 58.3125 17.5002C59.2375 16.0877 60.3375 17.4252 60.3375 17.4252L60.6375 17.0752L61.2625 16.3252C61.2625 16.3252 62.1375 17.1377 62.1375 17.2752C62.1625 17.4252 62.3 17.3252 62.3 17.3252L63.25 17.2502C63.2189 17.4378 63.2358 17.6301 63.2992 17.8094C63.3626 17.9886 63.4704 18.1489 63.6125 18.2752C63.95 18.4752 64.25 19.6502 64.25 19.6502L56.375 19.5002Z" fill="url(#paint0_linear_3736_62770)" stroke="black" stroke-width="0.125"/>
<path d="M64.7504 28.2623C64.9254 28.1623 65.4379 27.9998 65.3754 27.2373C65.3129 26.4873 64.6629 26.3873 64.2879 26.4123C63.9129 26.4373 63.6004 26.7623 63.6004 26.7623L62.3754 25.9873C62.3754 25.9873 62.9879 22.1498 63.6254 21.9123C64.2504 21.4748 64.3504 21.2873 64.3504 21.1873C64.3504 21.0748 64.1254 20.8248 64.1254 20.8248L60.1629 20.3623L56.4129 20.7998C56.4129 20.7998 56.1379 21.2498 56.1629 21.4248C56.2129 21.5998 56.2254 21.7873 56.8879 22.2998C57.6379 22.8748 58.1379 26.1498 58.1379 26.1498C58.1379 26.1498 57.1004 26.6748 57.0254 26.5998C56.9629 26.5373 56.6504 26.4748 56.4879 26.4998C56.3254 26.5248 55.7754 26.8123 55.7754 27.5248C55.7754 28.2498 56.3254 28.6623 56.3254 28.6623C56.3254 28.6623 59.9004 28.2498 60.4379 29.2373C60.9504 28.0498 64.3504 28.4623 64.7629 28.2623H64.7504Z" fill="#656263" stroke="black" stroke-width="0.125"/>
<path d="M68.6125 24.2755C68.6125 24.2755 68.65 23.863 68.95 23.663C69.25 23.463 71.225 23.363 71.7 23.663C72.175 23.963 72.35 25.4255 72.35 25.4255C72.35 25.4255 72.65 25.938 72.675 26.3255C72.6875 26.7005 72.7375 26.9505 72.7375 26.9505C72.7375 26.9505 74.3125 29.013 74.3375 30.8755C74.5125 32.138 74.475 35.5255 73.975 36.813C73.9783 37.7448 73.7415 38.6617 73.2875 39.4755C73.2875 39.4755 73.45 39.7505 73.425 40.0505C73.4 40.338 73.25 40.6255 73.25 40.6255L75.5625 41.763L74.7125 41.4505L75.5625 42.163L74.6 41.713L75.1625 42.288C75.15 42.263 73.7625 41.6505 73.7625 41.6505L74.3875 42.238L73.325 41.738C73.325 41.738 73.95 42.4255 73.95 42.388C73.6477 42.241 73.3391 42.1076 73.025 41.988L73.075 42.3255C73.075 42.3255 72.35 42.288 72.35 41.7505C72.1301 41.6245 71.9317 41.4641 71.7625 41.2755L70.1125 41.0005L68.25 35.4255L68.6875 26.0255L68.8125 25.5505L68.6125 24.2755Z" fill="black" stroke="black" stroke-width="0.125" stroke-linejoin="round"/>
<path d="M67.3752 54.3498C67.3752 54.3498 66.4127 52.3498 65.9377 52.3123C65.5127 51.4873 67.4377 44.8123 71.1502 44.4248C73.1877 44.5873 71.3127 46.7748 69.9752 46.0998C70.1811 46.6181 70.4634 47.1026 70.8127 47.5373C70.8127 47.5373 68.1502 48.6873 67.3627 54.3498H67.3752ZM54.5877 54.6373C54.5877 54.6373 55.3752 52.3498 55.8502 52.3248C56.3377 52.2998 54.5877 44.7123 50.7752 44.6623C48.7252 44.8248 50.6127 47.0248 51.9627 46.3498C51.7528 46.8688 51.4663 47.3533 51.1127 47.7873C51.1127 47.7873 53.8002 48.9373 54.5877 54.6373Z" fill="#FFBB00" stroke="black" stroke-width="0.125"/>
<path d="M58.0745 40.3754C58.0745 40.3504 57.1245 40.6629 57.737 41.6879C57.7745 41.2879 58.1995 41.0629 58.1995 41.0629C58.1995 41.0629 57.562 41.8129 58.237 42.4504C58.3245 41.8504 58.712 41.6629 58.712 41.6629C58.712 41.6629 58.2245 43.0629 58.712 43.3504C58.7745 42.7879 59.1245 42.5379 59.1245 42.5379C59.1245 42.5379 58.6995 43.7879 59.087 44.0754C59.1245 43.6004 59.4495 43.3879 59.4495 43.3879C59.4495 43.3879 59.262 44.7004 59.762 44.7879C59.762 44.3254 60.137 43.8754 60.137 43.8754C60.137 43.8754 59.9745 44.9379 60.762 44.9879C60.762 44.5879 60.912 44.1254 60.912 44.1254C60.912 44.1254 61.2745 45.2504 61.787 45.0754V44.1129C61.787 44.1129 62.1245 45.1879 62.7495 44.9879C62.662 44.6879 62.787 44.3254 62.787 44.3254C62.787 44.3254 63.112 45.0004 63.712 44.7754C63.812 44.5754 63.687 44.1754 63.687 44.1754C63.687 44.1754 64.562 45.0754 64.812 44.5379C65.087 44.0004 64.1245 43.8129 64.1245 43.8129H64.7745C64.7745 43.8129 64.562 43.2629 63.687 43.1379C63.987 43.0129 64.2995 43.1129 64.2995 43.1129C64.2995 43.1129 64.112 42.4254 63.212 42.3504C63.562 42.2254 63.962 42.3129 63.962 42.3129C63.962 42.3129 63.837 41.6629 62.837 41.4754C62.9995 41.3004 63.4245 41.3504 63.4245 41.3504C63.4245 41.3504 63.0245 40.7379 62.5745 40.7754C62.1245 40.8129 58.0745 40.3629 58.0745 40.3754Z" fill="#00713D" stroke="black" stroke-width="0.125"/>
<path d="M62.075 43.6875C62.075 43.6875 62.45 43.8625 62.425 44.0125M62.2875 43.4C62.2875 43.4 62.75 43.725 62.7375 43.9625M62.7 43.2375C62.7 43.2375 63.0625 43.4625 63.075 43.825M63.3125 43.375C63.3125 43.375 63.4875 43.775 63.4375 43.85M63.675 43.5875C63.7 43.9 63.65 43.9375 63.65 43.9375M59.15 41.625C59.15 41.625 59.5875 41.9 59.55 42.2875M59.125 41.95C59.125 41.95 59.325 42.15 59.2875 42.275M59.6625 41.625C59.6625 41.625 59.95 42.025 59.85 42.3M60.15 41.8875C60.15 41.8875 60.275 42.1375 60.15 42.2625M60.375 42C60.375 42 60.525 42.25 60.3875 42.3375M60.2 42.825C60.2 42.825 60.6 42.9125 60.6625 43.2125M60.4375 42.55C60.4375 42.55 60.8625 42.575 60.9125 43.025M61 42.3875C61 42.3875 61.2875 42.8875 61.2375 43.0375M61.5375 42.4375C61.5375 42.4375 61.65 42.9 61.5625 43.0625M61.8875 42.625V43.1625M61.3625 41.8875C61.3625 41.8875 61.6125 41.9875 61.6125 42.25M61.6 41.65C61.6 41.65 61.9375 41.8375 61.9125 42.2125M62 41.5C62 41.5 62.2875 41.8375 62.1875 42.225M62.5 41.575C62.5 41.575 62.4 42.0125 62.45 42.1875M62.825 41.875C62.825 41.875 62.6375 42.0125 62.7375 42.2M61.15 43.55C61.15 43.55 61.2125 43.875 61.15 43.925M60.7375 43.35C60.7375 43.35 60.9375 43.725 60.8625 43.9M60.2875 43.3375C60.2875 43.3375 60.525 43.6125 60.5125 43.8375M59.9125 43.3875C59.9125 43.3875 60.1375 43.6 60.1125 43.725M59.725 43.7125C59.725 43.7125 59.9375 43.9375 59.925 43.975" stroke="#3EC26D" stroke-width="0.121887" stroke-linecap="round"/>
<path d="M55.1621 28.6629L58.1996 28.6004C58.1996 28.6004 60.1996 28.6004 60.4121 29.2504C60.7871 28.3879 62.5371 28.4379 62.5371 28.4379L65.6621 28.3379L65.7246 35.9129C65.0996 38.8629 62.9746 40.9379 60.6371 41.8254C59.3261 41.3792 58.1577 40.5915 57.2525 39.5435C56.3472 38.4954 55.7378 37.2249 55.4871 35.8629L55.1621 28.6629Z" fill="white" stroke="black" stroke-width="0.125"/>
<path d="M56.2498 28.625L60.6623 40.4L64.6623 28.375C63.4123 28.45 60.7623 28.175 60.4248 29.3125C59.9248 28.3 57.1248 28.7 56.2373 28.625H56.2498Z" fill="#006B00" stroke="black" stroke-width="0.125"/>
<path d="M59.25 35C59.425 35.0875 59.4125 31.8125 59.6375 31.7125L59.8125 31.025C59.625 30.6875 58.7625 30.7 58.4375 31L58.65 31.6C59.0875 32.3 59 35.075 59.25 35Z" fill="#FFC900" stroke="#006B00" stroke-width="0.0625" stroke-linecap="round"/>
<path d="M58.0625 9.6253C58.0625 9.6253 58.375 9.2628 58.3875 9.1878C58.4125 9.1003 59.8125 9.0378 60.6375 7.4753C61.1125 6.6628 60.6375 7.1378 60.6375 7.1378L60.625 6.7503C60.625 6.7503 61.2 6.2003 61 5.9003C60.775 5.6003 60.85 6.2753 60.5 6.2753C60.1625 6.2628 60.35 5.5253 60.35 5.5253C60.35 5.5253 60.325 5.4503 60.225 5.4003C60.0875 5.4253 60.125 5.6753 60 5.7003C59.875 5.7378 59.75 5.1128 59.75 5.1128C59.75 5.1128 59.5375 4.8253 59.3625 5.7128C59.4625 6.6753 60.0625 6.4878 60.0625 7.1128C60.0625 7.7378 59.525 8.2128 59.375 8.2378C59.2125 8.2378 59.275 7.7003 59.275 7.7003C59.275 7.7003 59.1875 7.4503 59.1375 7.4503C59.075 7.4503 59.45 7.3878 59.3875 6.6878C59.2625 5.8378 59.1625 6.8878 58.9375 6.8378C58.7 6.8003 58.875 6.0628 58.9625 5.9628C59.05 5.8878 58.8625 5.5378 58.3625 6.4378C58.325 6.8878 58.2625 6.3253 58.1625 6.3628C58 6.7128 58.025 6.9628 58.2625 7.2878C58.625 7.6253 58.85 7.9503 58.8375 8.1128C58.825 8.2878 58.6375 8.6753 58.375 8.6753C58.125 8.6753 58.3875 8.2003 58.375 8.0503C58.375 7.8878 57.9375 7.3253 57.9375 7.3253C57.9375 7.3253 57.6375 6.8378 57.675 6.8253C57.7 6.8128 57.6375 6.7378 57.5 7.2378C57.3625 7.7378 57.1875 6.9128 57.1875 6.9128C57.1875 6.9128 56.9875 7.5253 57.4125 7.8878C57.0875 7.8503 57.0625 7.9753 57.0625 7.9753C57.0625 8.1503 57.5 8.2253 57.5625 8.5128C57.6125 8.8128 57.1 8.9878 57.1 8.9878C57.1 8.9878 57.3125 9.2753 57.9125 8.7003C57.925 9.0753 57.6875 9.3253 57.6875 9.3253C57.8875 9.4128 58.0375 9.4003 58.0625 9.6378V9.6253Z" fill="#CDAD56" stroke="black" stroke-width="0.125" stroke-linejoin="round"/>
<path d="M56.1255 9.62507C56.1255 9.62507 55.8505 9.22507 55.838 9.15007C55.838 9.07507 54.538 9.25007 53.9255 7.67507C53.5255 6.92507 53.9255 7.36257 53.9255 7.36257L53.9505 7.00007C53.9505 7.00007 53.5255 6.48757 53.7005 6.21257C53.888 5.93757 53.8255 6.56257 54.0505 6.56257C54.338 6.55007 54.1755 5.88757 54.1755 5.88757C54.1755 5.88757 54.2005 5.81257 54.3005 5.77507C54.413 5.78757 54.463 6.17507 54.563 6.20007C54.6755 6.22507 54.9005 5.75007 54.9755 5.65007C55.0755 5.63757 55.063 5.25007 55.2255 6.06257C55.138 6.92507 54.4255 6.75007 54.4255 7.31257C54.4255 7.88757 54.8755 8.32507 55.013 8.33757C55.138 8.36257 55.1005 7.86257 55.1005 7.86257C55.1005 7.86257 55.1755 7.63757 55.2255 7.63757C55.263 7.63757 54.8005 7.72507 54.8505 7.07507C54.9505 6.47507 55.188 7.11257 55.388 7.07507C55.5755 7.03757 55.363 6.45007 55.413 6.35007C55.4255 6.25007 55.713 5.86257 55.8255 6.72507C55.863 7.13757 56.0755 6.38757 56.163 6.41257C56.313 6.73757 56.1005 7.16257 55.9005 7.46257C55.6005 7.76257 55.463 8.08757 55.4755 8.23757C55.4755 8.40007 55.5505 8.58757 55.7755 8.58757C55.988 8.58757 55.838 8.31257 55.8505 8.17507C55.863 8.03757 56.2255 7.57507 56.2255 7.57507C56.3005 7.45007 56.238 7.25007 56.313 7.15007C56.438 7.15007 56.488 6.98757 56.6005 7.43757C56.7255 7.88757 56.863 7.13757 56.863 7.13757C56.863 7.13757 57.038 7.70007 56.6755 8.03757C56.9505 8.00007 56.9755 8.11257 56.9755 8.11257C56.9755 8.26257 56.8505 8.32507 56.8005 8.61257C56.7878 8.68733 56.7937 8.76406 56.8177 8.83599C56.8417 8.90792 56.883 8.97285 56.938 9.02507C56.938 9.02507 56.763 9.30007 56.2505 8.77507C56.2491 8.98022 56.3199 9.17932 56.4505 9.33757C56.2755 9.42507 56.1505 9.41257 56.1255 9.62507Z" fill="#CDAD56" stroke="black" stroke-width="0.1125" stroke-linejoin="round"/>
<path d="M63.9121 30.375C63.6621 30.15 63.6246 30.35 63.4871 30.3C63.4246 30.275 63.3746 30.2125 63.3246 30.1625C63.2746 30.1125 63.2121 30.0875 63.1496 30.0625L63.0746 30.275C63.0496 30.35 63.1496 30.4625 63.1496 30.575C63.1246 30.7375 63.0621 30.8625 62.8621 30.9125C62.9246 30.8 62.9496 30.8 62.9371 30.6625C62.9371 30.6 62.7371 30.475 62.7621 30.4125C62.7871 30.3 62.8496 30.1875 62.8121 30.075C62.7246 30.1375 62.6246 30.1 62.5371 30.1375C62.4746 30.175 62.4621 30.3 62.3746 30.35C62.2746 30.4 62.0621 30.375 61.8746 30.275C61.9871 30.1875 62.0746 30.25 62.1871 30.15C62.2371 30.125 62.2371 29.9375 62.2996 29.9L62.5371 29.775C62.4871 29.7125 62.4871 29.625 62.4371 29.575C62.3871 29.5125 62.1746 29.525 62.1246 29.475C62.0246 29.35 62.0371 29.2125 61.9496 29.1C62.1996 29.1875 62.1621 29.3125 62.2246 29.3C62.3496 29.2375 62.4746 29.2375 62.5371 29.2625C62.5996 29.2875 62.7121 29.45 62.7871 29.475L62.8621 29.2375C62.8871 29.1625 62.7621 29.05 62.7746 28.975C62.8246 28.8375 62.9496 28.7125 62.9996 28.5625L63.0496 28.95C63.0621 29.025 63.1996 29.0625 63.1996 29.125C63.2121 29.2 63.1371 29.35 63.1371 29.425C63.2121 29.4125 63.3246 29.425 63.3871 29.4C63.4746 29.3875 63.5121 29.2125 63.5871 29.2C63.7371 29.175 63.8371 29.1875 63.9996 29.2C63.8746 29.3125 63.7996 29.3 63.7371 29.4C63.6746 29.4375 63.7496 29.575 63.5996 29.675C63.5371 29.7125 63.3746 29.675 63.3246 29.7125L63.4746 29.875C63.5246 29.9375 63.7371 29.9625 63.7871 30.025C63.8871 30.125 63.9371 30.275 63.9121 30.3875V30.375ZM57.1246 30.5C57.3746 30.2625 57.4121 30.475 57.5496 30.4125C57.6121 30.3875 57.6621 30.3375 57.7121 30.2875C57.7621 30.225 57.8246 30.2125 57.8871 30.175L57.9621 30.4C57.9871 30.4625 57.8871 30.5875 57.8871 30.6875C57.9121 30.85 57.9746 30.975 58.1746 31.0375C58.1121 30.9125 58.0871 30.9125 58.0996 30.7875C58.0996 30.7125 58.2996 30.5875 58.2746 30.525C58.2496 30.425 58.1871 30.3 58.2246 30.2C58.3121 30.25 58.4121 30.225 58.4996 30.25C58.5621 30.2875 58.5746 30.4125 58.6621 30.4625C58.7621 30.5125 58.9746 30.4875 59.1621 30.3875C59.0496 30.3 58.9621 30.3625 58.8496 30.275C58.7996 30.2375 58.7996 30.05 58.7371 30.025C58.6871 29.975 58.5496 29.925 58.4996 29.8875C58.5496 29.825 58.5496 29.7375 58.5996 29.6875C58.6496 29.625 58.8621 29.6375 58.9121 29.5875C59.0121 29.4625 58.9996 29.325 59.0871 29.2125C58.8371 29.3 58.8746 29.425 58.8121 29.4125C58.6871 29.3625 58.5621 29.35 58.4996 29.375C58.4371 29.4 58.3246 29.5625 58.2496 29.5875L58.1746 29.35C58.1496 29.2875 58.2871 29.1625 58.2621 29.1C58.2121 28.95 58.0871 28.825 58.0371 28.675L57.9871 29.075C57.9746 29.1375 57.8371 29.175 57.8371 29.2375C57.8246 29.3125 57.8996 29.475 57.8996 29.5375C57.8246 29.525 57.7121 29.5375 57.6496 29.5125C57.5621 29.5125 57.5246 29.3375 57.4496 29.3125C57.2996 29.2875 57.1996 29.3 57.0371 29.325C57.1621 29.425 57.2371 29.425 57.3121 29.5125C57.3621 29.5625 57.2871 29.7 57.4371 29.7875C57.4996 29.825 57.6621 29.7875 57.7121 29.825L57.5621 30C57.5121 30.05 57.2996 30.075 57.2496 30.125C57.1496 30.25 57.0996 30.375 57.1246 30.5Z" fill="#FFC900"/>
<path d="M63.675 31.1502C63.4375 31.3377 61.8876 31.7252 61.8751 33.0627C61.8626 34.4127 62.15 34.7127 61.8625 34.7502C61.3 34.7502 61.225 33.2502 61.2375 32.5877C61.25 31.9252 61.2751 32.0252 61.2751 32.0252C61.2751 32.0252 61.6501 32.1252 61.6251 32.4502C61.5876 32.7752 62 31.6502 61.8625 31.3502C62.1125 31.6002 62.4501 31.5002 62.4501 31.4752C62.4501 31.4752 62.2625 31.2627 62.175 31.1002C62.1 30.9627 62.4626 31.2002 62.4626 31.2002C62.4626 31.2002 62.4875 30.9502 62.1625 30.9502C61.75 30.9502 62.225 30.8252 62.225 30.8252C62.225 30.8252 62.475 31.0377 62.6251 30.8002C62.5027 30.6785 62.3585 30.581 62.2001 30.5127C62.2001 30.5127 61.975 30.0877 61.675 30.0127C61.325 29.9252 61.3626 30.1627 60.9626 30.1252C60.8876 30.2752 60.8875 30.3002 61.05 30.3502C60.775 30.5377 60.925 30.9002 60.925 30.9002C60.925 30.9002 61.3501 30.7252 61.3376 31.0252C61.3251 31.3377 61.0875 31.2752 60.925 31.0877C60.775 31.0127 60.725 31.1752 60.725 31.1752L60.9501 31.4252C60.9501 31.4252 60.525 31.4002 60.4125 31.6877C60.65 31.6752 60.7875 31.7377 60.7875 31.7377C60.7875 31.7377 60.2875 31.9627 60.2375 32.0752C60.1875 32.2002 60.1751 31.9502 60.1501 31.9502L59.675 31.7752L59.5126 32.5127C59.5126 32.5127 59.8376 32.8252 60.0126 32.7252C60.1876 32.6252 60.5126 32.3127 60.7001 32.4002C60.1376 32.8252 59.5751 33.4377 59.2751 33.5252C59.2001 33.4502 58.925 33.1877 58.8125 33.3252C58.7 33.4502 58.7875 33.6252 58.9375 33.6127C59.0625 33.5877 58.4626 33.7377 58.5876 34.0002C58.7126 34.2502 58.7125 34.2377 58.8125 34.1752C58.9375 34.1002 58.7251 34.0877 59.1376 33.9627C59.5501 33.8377 59.5375 33.7252 59.5375 33.7252C59.5375 33.7252 59.45 33.9127 59.225 33.9752C59.0125 34.0127 58.8375 34.0127 58.875 34.0877C58.925 34.1502 59.025 34.2752 59 34.3377C58.9625 34.4127 59.4501 33.9877 59.5876 34.3252C59.9126 34.3002 60.1375 33.9002 59.975 33.6627C60 33.9127 60.15 34.0002 60.0625 34.1252C59.9625 34.2377 60.8126 33.7252 60.4001 33.4252C60.5001 33.6752 60.5251 33.8752 60.5251 33.8752C60.5251 33.8752 60.7126 33.8752 60.7626 33.8002C60.8126 33.7252 60.6625 33.9877 60.725 34.0377C60.7875 34.0877 61.1 34.3752 60.975 34.5752C60.8875 34.4502 60.8751 34.2752 60.7751 34.2877C60.6751 34.3002 60.275 34.6002 60.0375 34.6127C59.8 34.6252 60.3251 35.4877 60.3251 35.4877C60.3251 35.4877 59.9625 35.4502 59.9125 35.4877C59.8625 35.5127 59.6251 35.1752 59.5876 35.3752C59.5001 35.6252 59.6625 35.5252 59.6625 35.5252C59.6625 35.5252 59.4501 35.4252 59.3376 35.5502C59.2251 35.6752 59.1251 35.7877 59.2001 35.8377C59.2751 35.8877 59.625 35.8877 59.675 35.8752C59.725 35.8502 59.275 35.9002 59.25 35.9502C59.2125 36.0002 59.15 36.2002 59.25 36.2627C59.3375 36.3252 59.5875 36.2252 59.6 36.1752C59.6125 36.1252 59.625 36.3627 59.625 36.3627C59.625 36.3627 60.0375 36.4002 60.0375 35.9752C60.0375 35.5502 60.0751 36.2752 60.0751 36.2752C60.0751 36.2752 60.4875 36.3502 60.5 35.9252C60.525 35.5002 60.55 36.2127 60.55 36.2127C60.55 36.2127 60.8251 36.1252 60.8251 36.0627C60.8251 35.9877 60.8125 36.9002 60.6125 37.1627C60.3125 36.9627 60.1125 37.2877 60.1125 37.2877C60.1125 37.2877 60.1375 37.7877 60.1125 37.9127C60.075 38.0377 60.3126 37.8377 60.3251 37.7877C60.3501 37.7377 60.6376 37.6002 60.6501 37.5752L60.7501 37.3627C60.7501 37.3627 60.6751 37.6127 60.5751 37.6377C60.4501 37.6752 60.3501 37.7877 60.4001 37.8877C60.4376 38.0002 60.6125 38.0627 60.675 38.1627C60.75 38.2627 60.9626 37.5752 60.9626 37.5752L60.9875 37.7252C60.9875 37.7252 61.275 37.6502 61.3 37.5127C61.3375 37.3877 61.0001 37.2627 61.2751 37.0377C61.5376 36.8252 61.2751 37.2502 61.2751 37.2502C61.2751 37.2502 61.3625 37.5752 61.425 37.5752C61.5 37.5752 61.6501 36.9502 61.5001 36.8002C61.3376 36.6502 61.7375 36.9877 61.7375 36.9877C61.7375 36.9877 61.9626 36.3627 61.7126 36.2752L61.3625 36.1502C61.3625 36.1502 61.4875 35.9877 61.425 35.9752C61.3625 35.9502 61.7626 36.3502 61.8251 36.2377C61.8876 36.1377 61.9876 35.8377 61.5251 35.6627C61.0626 35.5002 61.5126 35.0252 61.5126 35.0252C61.5126 35.0252 61.8001 35.3627 62.0126 35.1752C62.2126 34.9877 61.9875 34.9877 61.9875 34.9877C61.9875 34.9877 62.575 34.6127 62.6 34.4252C62.475 34.4127 62.2875 34.4377 62.2875 34.4377C62.2875 34.4377 62.625 34.2252 62.5375 33.8627C62.4125 34.0502 62.2375 34.0502 62.2375 34.0502C62.2375 34.0502 62.525 33.7627 62.4875 33.4877C62.3125 33.6252 62.3251 33.7377 62.2126 33.7002C62.1001 33.6627 61.9125 32.5877 62.35 32.5252C62.8 32.4502 62.5626 33.0502 62.5751 33.0502C62.6001 33.0502 63.2501 32.7752 62.5751 32.3377C62.7376 32.2877 63.0751 32.5877 63.0751 32.5877C63.0751 32.5877 62.9251 31.8377 62.2001 32.3002C62.3876 32.1127 62.5001 32.0002 62.6376 32.0252C62.7876 32.0627 63.3 32.0127 63.3 31.8627C63.175 31.7627 62.9001 31.9127 62.7501 31.8627C62.6126 31.8127 63.775 31.7252 63.675 31.1502Z" fill="#FFC900" stroke="#006B00" stroke-width="0.0625" stroke-linecap="round" stroke-linejoin="round"/>
<path d="M58.625 31.5872C58.625 31.5872 59.2625 31.2247 59.575 31.6747M59.8375 32.3497C59.825 32.3497 59.6125 32.5747 59.5625 32.5747M60.2625 33.0622C60.2625 33.0622 60.8625 33.1122 61.2375 32.4872" stroke="#006B00" stroke-width="0.0625" stroke-linecap="round"/>
<path d="M60.8998 32.875C60.8998 32.875 60.9498 33.2125 61.0498 33.2125C61.1373 33.2125 60.8873 33.3 60.7998 33.2375C60.8998 33.3875 60.9623 33.6625 60.7998 33.7625" stroke="#006B00" stroke-width="0.0625" stroke-linecap="round"/>
<path d="M60.6002 37.1621C60.6002 37.1621 60.4002 37.3996 60.1377 37.4121L60.6002 37.1621Z" fill="#E80000"/>
<path d="M60.6002 37.1621C60.6002 37.1621 60.4002 37.3996 60.1377 37.4121" stroke="#006B00" stroke-width="0.0625" stroke-linecap="round"/>
<path d="M60.8376 36.075C60.8376 36.075 60.7126 35.3875 60.7876 35.225C60.8376 35 61.0376 34.9125 61.2126 34.625" stroke="#006B00" stroke-width="0.0625" stroke-linecap="round"/>
<path d="M60.7746 35.575C60.7746 35.575 60.6121 35.9875 59.9121 35.85M60.9621 34.5625C60.9621 34.5625 61.0121 35.1 60.3746 34.9M60.1871 32.125C60.1871 32.125 59.9371 32.35 60.0246 32.675" stroke="#006B00" stroke-width="0.0625" stroke-linecap="round"/>
<path d="M61.1377 31.5125C61.1377 31.5125 61.4752 31.3875 61.5377 31.3125C61.6265 31.2265 61.6985 31.1247 61.7502 31.0125C61.7752 30.9125 61.5252 30.7625 61.6502 30.5375C61.7377 30.425 61.8502 30.4125 62.0252 30.5375C62.2252 30.6625 61.8627 30.1625 61.6752 30.1375C61.4752 30.125 61.3502 30.275 61.3002 30.2375C61.2502 30.2125 61.3127 30.375 61.2377 30.375C61.1627 30.375 61.4002 30.5125 61.3877 30.6C61.3627 30.6875 61.6377 30.975 61.6252 31.0375C61.6002 31.1125 61.2252 31.5 61.1377 31.5125Z" fill="#006B00"/>
<path d="M61.375 30.3996C61.525 30.3621 61.55 30.3996 61.525 30.5246C61.4694 30.4951 61.4221 30.4522 61.3875 30.3996H61.375Z" fill="#FFC900" stroke="#FFC900" stroke-width="0.0625" stroke-linecap="round" stroke-linejoin="round"/>
<path d="M60.3747 37.9627C60.3747 37.9627 60.3122 38.3252 60.4372 38.3502C60.4372 38.2252 60.4747 38.1252 60.4997 38.0877L60.3747 37.9627ZM60.0622 37.5252C59.9372 37.5127 59.7497 37.6252 59.8122 37.7502C59.8997 37.6627 59.9872 37.7502 60.0622 37.6627V37.5377V37.5252ZM60.0622 37.2752C60.0622 37.2752 59.8747 37.2502 59.8497 37.3877C59.9747 37.3627 60.0247 37.3502 60.0622 37.3877V37.2752Z" fill="#E80000" stroke="#006B00" stroke-width="0.0625" stroke-linejoin="round"/>
<path d="M59.2627 35.2751C59.2627 35.2751 59.3877 35.3126 59.4127 35.4376C59.5002 35.3876 59.5377 35.1126 59.2627 35.2751ZM58.9752 35.5751C58.9752 35.5751 59.2252 35.4251 59.2377 35.5751C59.1877 35.6126 59.1752 35.6501 59.1377 35.6626C59.1002 35.6626 59.0377 35.5626 58.9752 35.5751ZM58.9627 36.0626C58.9627 36.0626 59.1127 35.9376 59.1627 36.0126C59.2252 36.1126 59.1127 36.1001 59.1127 36.1001L58.9627 36.0626ZM58.7502 33.3251C58.7502 33.3251 58.5627 33.2501 58.4877 33.3876C58.6127 33.4126 58.6502 33.4501 58.7127 33.5001C58.6877 33.4376 58.6627 33.3501 58.7502 33.3251ZM58.3877 34.3626C58.3877 34.3626 58.3877 34.1251 58.5127 34.0376C58.5627 34.0751 58.5752 34.1251 58.6127 34.1876C58.5377 34.2126 58.4377 34.2126 58.3877 34.3626ZM58.8752 34.2001C58.8752 34.2001 58.6752 34.3001 58.7502 34.4126C58.8127 34.3251 58.8877 34.3501 58.8877 34.3501V34.2001H58.8752Z" fill="#E80000" stroke="#006B00" stroke-width="0.075" stroke-linejoin="round"/>
<path d="M58.5871 31.9753C58.5121 32.0628 58.6746 32.2503 58.8496 32.2253C58.8996 32.0253 58.6371 31.9128 58.5996 31.9753H58.5871Z" fill="#FFC900" stroke="#006B00" stroke-width="0.075" stroke-linejoin="round"/>
<path d="M58.7754 31.8254C58.7754 31.8254 58.8129 31.9879 58.9629 31.9504C58.9436 31.8613 58.9004 31.7792 58.8379 31.7129C58.8379 31.7504 58.8504 31.8129 58.7754 31.8254ZM58.8754 32.2879C58.8754 32.2879 58.9629 32.3879 59.1254 32.2004C59.0504 32.2129 58.9254 32.1504 58.9254 32.1504C58.9254 32.1504 58.9254 32.2754 58.8754 32.2879Z" fill="#E80000" stroke="#006B00" stroke-width="0.075" stroke-linejoin="round"/>
<path d="M58.5753 31.5996C58.5128 31.6871 58.6128 31.8121 58.7878 31.7871C58.8253 31.5746 58.6253 31.5371 58.5753 31.5996Z" fill="#FFC900" stroke="#006B00" stroke-width="0.075" stroke-linejoin="round"/>
<path d="M58.6503 30.7871C58.6503 30.7871 59.3378 30.5871 59.7003 30.8871C60.0753 31.1746 60.0753 30.9121 60.0753 30.9121C60.0753 30.9121 60.6003 31.1121 60.7503 31.0621C60.9003 31.0246 60.6378 31.0871 60.8503 30.9496C61.0628 30.8246 60.4253 30.9871 60.3753 30.7121C60.2753 30.5496 60.3753 30.3371 60.1628 30.4121C60.0128 30.2121 60.2628 30.0746 60.2003 29.8621C60.0503 29.9871 59.9628 29.8246 59.8378 30.1121C59.5503 30.0496 59.8003 29.6371 59.4753 29.5996C59.4753 29.8871 59.2378 29.8996 59.2253 30.0746C59.0878 30.1746 58.4753 30.5371 58.6503 30.7871Z" fill="url(#paint1_linear_3736_62770)"/>
<path d="M50.7496 53.1248C51.1996 52.9998 53.6121 53.6498 54.5371 54.6498C54.3371 52.8623 53.8496 51.5123 53.8496 51.5123C53.8496 51.5123 52.4121 51.0998 52.2246 51.2998C51.6645 51.8449 51.1695 52.4531 50.7496 53.1123V53.1248ZM50.0121 44.9123C49.8496 44.9373 49.6746 45.0498 49.5121 45.3373C49.3121 45.8123 49.1746 47.0248 48.8871 47.3123C48.6121 47.5873 48.3496 47.6123 48.3496 47.8748C48.3496 48.1248 48.3871 48.7123 49.1371 48.9373C49.8996 48.9748 51.1121 47.7248 51.1121 47.7248C51.1121 47.7248 51.7371 47.0498 51.9871 46.3248C50.5246 46.8248 49.4871 45.4748 50.0121 44.9123ZM71.2121 52.8373C69.8176 52.9281 68.4876 53.4575 67.4121 54.3498C67.6121 52.5873 68.0996 51.2248 68.0996 51.2248C68.2621 51.1873 69.5121 50.8248 69.6996 51.0248C69.9871 51.3248 70.9121 52.2373 71.2121 52.8373ZM71.8996 44.6748C72.0621 44.6998 72.1246 44.9248 72.2746 45.1998C72.4621 45.6873 72.6496 46.3748 72.9371 46.6498C73.2246 46.9373 73.4746 47.3498 73.4746 47.5998C73.4746 47.8498 73.4121 48.1998 72.6621 48.4248C71.9121 48.4498 70.8121 47.4748 70.8121 47.4748C70.8121 47.4748 70.1871 46.8123 69.9371 46.0748C71.3996 46.5748 72.3371 45.2873 71.8996 44.6748Z" fill="#C01500" stroke="black" stroke-width="0.125"/>
<path d="M49.1746 51.5627C49.1746 51.5627 50.6871 52.6127 50.7246 53.0877C54.8121 47.0252 65.2371 45.1377 71.1871 52.6627C71.9746 51.6252 72.7871 51.2877 72.7871 51.2877C66.5371 43.1127 54.0746 44.1252 49.1621 51.5627H49.1746Z" fill="#FFBB00" stroke="black" stroke-width="0.125"/>
<path d="M64.6754 28.3748L65.2754 28.3623L64.2129 29.7123L65.4879 31.1998L62.9754 34.3623L65.3504 37.2123C65.1081 37.838 64.7799 38.427 64.3754 38.9623L63.0129 37.4623L65.5004 34.3748L63.4754 32.0748L64.6754 28.3748ZM56.1629 28.6498H55.5379L56.7254 29.9498L55.4629 31.5248L58.0879 34.3748L55.9129 37.2873C56.1629 37.9123 56.5379 38.6373 56.9504 39.1623L58.2379 37.5248L55.5879 34.5748L57.5254 32.1123L56.1629 28.6498Z" fill="#1E5AA6" stroke="black" stroke-width="0.130013"/>
<path d="M59.1254 36.3004L58.1754 37.5504L61.5254 41.4254C62.1254 41.1254 62.5879 40.7879 63.0879 40.3754L61.3379 38.3629L62.0504 36.2754L63.0754 37.4504L59.8879 41.5254C59.3504 41.3004 58.7629 40.9504 58.2254 40.5004L59.9129 38.3629L59.1254 36.3004ZM58.0879 34.3629L58.6879 35.1254L58.3004 34.0879L58.0879 34.3629Z" fill="#1E5AA6" stroke="black" stroke-width="0.130013"/>
<path d="M62.4502 35.0377L62.9502 34.3877L62.7627 34.1377L62.4502 35.0377Z" fill="#1E5AA6" stroke="black" stroke-width="0.125"/>
<path d="M69.5 24.375C69.5 24.375 70.1 23.875 70.5125 23.875" stroke="#FFF700" stroke-width="0.130013" stroke-linecap="round"/>
<path d="M69.5879 24.3125C69.6004 24.3 73.1004 23.8125 73.2129 23.6875M69.6004 24.3375L73.5254 24M69.5879 24.35C69.5879 24.35 73.7504 24.1625 74.0004 24.375" stroke="#FFF700" stroke-width="0.130013" stroke-linecap="round"/>
<path d="M69.5748 24.3379C69.5748 24.3379 73.6498 24.3754 73.7248 24.4629M69.5873 24.3379L73.5123 24.6629M69.5498 24.3754C69.5498 24.3754 73.5498 24.7254 73.9248 25.2254" stroke="#FFF700" stroke-width="0.130013" stroke-linecap="round"/>
<path d="M74.1371 25.9374C74.1371 25.9249 72.7871 24.3249 69.5371 24.3499" stroke="#FFF700" stroke-width="0.130013" stroke-linecap="round"/>
<path d="M69.5498 24.375C69.5498 24.375 71.7998 24.5375 72.5123 25.325" stroke="#FFF700" stroke-width="0.130013" stroke-linecap="round"/>
<path d="M69.5879 24.3496C69.5879 24.3496 71.0504 24.0746 72.5754 25.9121" stroke="#FFF700" stroke-width="0.130013" stroke-linecap="round"/>
<path d="M68.6754 26.0254C68.6754 26.0254 70.6879 26.1004 70.6879 26.3004C70.6879 26.5004 69.1879 26.8754 69.1629 27.7004C69.1504 28.5379 70.3129 28.6004 70.4004 29.6504C70.4754 30.7004 69.4879 30.8504 69.2754 31.1379C69.0879 31.2629 68.6129 32.7629 68.6754 33.6379C68.7379 34.5004 68.9879 37.4504 69.4504 38.0504C69.8004 38.3254 70.3254 39.2129 70.9129 38.9254C71.4879 38.6629 71.0879 37.6504 71.0379 37.3754C70.9754 37.1004 71.2629 36.6379 71.2629 36.2254C71.2629 35.8004 71.0504 35.4754 71.0754 35.3754C71.0879 35.2754 72.6754 35.7504 72.5754 37.3129C72.4754 38.8754 71.8379 38.4004 71.8379 38.4004C71.8379 38.4004 72.0379 40.3254 71.5504 40.5754C70.6504 41.0504 70.0004 40.4754 70.0004 40.4754L70.0879 40.8754L69.4004 40.5254C69.4004 40.5254 68.5254 39.2754 68.3379 38.7129C68.082 37.543 67.9604 36.3478 67.9754 35.1504C68.0629 34.6129 68.1129 31.4879 68.0754 31.3254C68.0379 31.1754 67.8754 28.5629 67.9754 28.1629C68.0754 27.7629 68.6879 26.0254 68.6754 26.0254Z" fill="url(#paint2_linear_3736_62770)" stroke="black" stroke-width="0.125"/>
<path d="M66.4998 25.4996C66.4998 25.4996 67.8998 24.1371 68.7123 24.2996C69.1248 24.2996 68.7373 24.5996 68.7373 24.5996C68.7373 24.5996 69.4498 24.6496 69.5498 24.9746C69.5623 25.0996 69.2123 25.1496 69.2123 25.1496C69.2123 25.1496 69.4998 25.2121 69.5248 25.4621C69.5498 25.7246 66.5248 25.5246 66.4873 25.5121L66.4998 25.4996Z" fill="#FF7000" stroke="black" stroke-width="0.125"/>
<path d="M66.5752 25.4498C66.5752 25.4498 68.0752 25.2498 68.7127 24.6123" stroke="black" stroke-width="0.125"/>
<path d="M68.0996 25.0379C68.0996 25.0379 69.2121 24.9879 69.2121 25.1629" stroke="black" stroke-width="0.125"/>
<path d="M72.0371 41.2376C72.0371 41.2376 72.9871 41.0126 73.2496 40.6751C73.3996 40.5501 74.2371 41.9251 72.0371 41.2376Z" fill="white" stroke="black" stroke-width="0.125" stroke-linejoin="round"/>
<path d="M71.7875 33.375C71.7875 33.375 71.9125 34.1 71.5625 34.6C71.3875 34.8 70.85 35.1375 70.85 35.375C70.85 35.6125 71.05 35.925 71.0125 36.2C70.975 36.475 70.675 36.7625 70.6875 37C70.6875 37.2375 71.025 38.5 70.9875 38.525M70.0375 31C70.0375 31 69.2875 31.25 69.125 32" stroke="white" stroke-width="0.125" stroke-linecap="round"/>
<path d="M69.7246 25.0376C69.7246 25.0376 69.9746 25.7501 70.8121 25.0751C70.2746 24.3376 69.7246 25.0501 69.7246 25.0376Z" fill="#C75B00" stroke="black" stroke-width="0.125"/>
<path d="M70.3371 25C70.3371 25.0375 70.2996 25.075 70.2496 25.075C70.1996 25.075 70.1621 25.0375 70.1621 25C70.1621 24.9625 70.1996 24.9375 70.2496 24.9375C70.2996 24.9375 70.3371 24.9625 70.3371 25Z" fill="black"/>
<path d="M62.9246 23.3746C62.9246 23.3746 64.4996 25.0871 65.5121 25.0621C65.6996 25.5621 65.0496 26.0371 64.7996 26.2496C64.2746 26.0871 63.7996 26.2871 62.5996 24.7996C62.6746 23.8496 62.9371 23.4246 62.9246 23.3746ZM65.0496 19.3996C65.2621 18.7746 65.6746 18.2746 66.0246 18.2121C65.9246 17.7371 66.7621 15.5996 69.1871 14.7871C69.3371 15.8746 68.1496 16.9621 68.1496 16.9621C68.1496 16.9621 71.7371 16.3371 72.4621 15.4371C72.3871 15.8371 71.6621 18.3871 67.8371 18.3621C69.2871 19.7371 67.3746 20.8371 66.5621 20.4996C68.0621 19.3496 66.1246 18.6621 65.0621 19.3996H65.0496Z" fill="white" stroke="black" stroke-width="0.125"/>
<path d="M66.2754 18.5128C67.0004 18.0503 67.2629 18.0503 67.8629 18.1378L67.4254 18.2128C67.4254 18.2128 67.3879 18.2753 67.6504 18.5128C67.3504 18.4378 67.1004 18.2628 66.2754 18.5128Z" fill="#CCCCCD" stroke="#CCCCCC" stroke-width="0.125"/>
<path d="M66 18.2125C66 18.2125 67.425 17.4625 68.225 16.9375" stroke="black" stroke-width="0.125"/>
<path d="M64.7749 26.2498C64.7749 26.2498 66.7374 26.7873 66.9624 23.9748C66.5374 22.7498 65.9499 20.0998 66.8499 19.3498C66.0249 18.7748 65.0999 19.3748 65.0999 19.3748C65.0499 19.4998 64.3124 20.5623 65.3124 22.4123C62.9374 21.7873 63.8999 24.0373 63.8999 24.0373C63.9999 23.6623 65.2624 23.3373 65.5749 25.1373C65.6999 25.5873 64.7249 26.2623 64.7749 26.2623V26.2498Z" fill="#0000FF" stroke="black" stroke-width="0.125"/>
<path d="M66.9873 24C66.9873 24 69.0623 22.875 69.0123 20.25C67.2373 20.3 66.6123 22.575 66.6123 22.575L66.9873 24Z" fill="#0000FF" stroke="black" stroke-width="0.125"/>
<path d="M57.6621 23.8623C57.6621 23.8623 56.1246 25.1998 55.2496 24.7748C54.6121 25.1498 53.8496 24.4748 53.8496 24.4748C53.8496 24.4748 54.7246 27.7623 57.9246 25.3873C57.8936 24.8718 57.8098 24.3608 57.6746 23.8623H57.6621Z" fill="white" stroke="black" stroke-width="0.125"/>
<path d="M55.2373 24.7125C55.3623 24.025 55.8998 23.6875 56.3373 24.3375C56.9123 24.4625 57.4873 22.0875 55.4373 22.4875C56.0123 19.4 54.2873 18.25 54.2873 18.25C54.2873 18.25 53.6748 21.675 53.9623 22.3C54.2373 22.925 53.5498 21.1375 51.3373 20.625C51.2998 23.2125 53.8123 24.4125 53.8123 24.4125C53.8123 24.4125 54.5123 25.0625 55.2373 24.7125Z" fill="#0000FF" stroke="black" stroke-width="0.125"/>
<path d="M55.4376 22.4623C55.4376 22.4623 54.4751 23.2873 54.6876 24.3998M53.9751 22.3623C53.9751 22.3623 53.7501 23.1498 54.2251 24.2873" stroke="black" stroke-width="0.125"/>
<path d="M53.8252 24.5495C53.8252 24.5495 54.2752 23.8245 55.2377 24.7495" stroke="black" stroke-width="0.125"/>
<path d="M54.0127 19.5371C54.0127 19.5121 52.5502 19.5371 53.4127 21.0246C52.7752 21.2246 51.3252 20.2746 52.3252 19.0246C49.0377 18.9371 47.7002 17.3621 47.7002 15.9121C48.6627 16.9121 50.9752 16.5121 51.7877 17.1246C50.7877 16.1996 50.9877 14.9121 50.9877 14.9121C50.9877 14.9121 53.7877 15.7496 54.2877 18.2371C54.1252 18.7246 54.0502 19.5746 54.0127 19.5371Z" fill="white" stroke="black" stroke-width="0.125"/>
<path d="M51.75 17.0625C52.3 17.6125 53.6875 17.775 54.3875 18.3875" stroke="black" stroke-width="0.125"/>
<path d="M52.4004 18.6877C52.4004 18.6877 53.5504 18.5377 53.8879 18.9377C53.4379 18.9377 53.2879 18.8252 52.6379 19.0627C52.8129 18.9752 52.7629 18.8127 52.8629 18.8127C52.9629 18.8127 52.4504 18.6877 52.4004 18.6877Z" fill="#CCCCCD" stroke="#CCCCCC" stroke-width="0.0875"/>
<path d="M58.1248 9.68786C58.1248 9.68786 58.7623 9.12536 59.4498 9.62536C59.1373 10.5504 58.0248 10.2004 58.0248 10.2004C58.0248 10.2004 58.0623 10.6629 57.9498 10.8879C58.1748 11.0629 58.3498 11.6129 58.3498 11.6129C58.3498 11.6129 59.4998 11.3379 59.7498 11.8379C60.1873 11.7754 60.4998 11.8379 60.4998 11.8379C60.4998 11.8379 61.3998 11.6129 61.7123 11.6129C62.0248 11.6129 63.0248 11.8629 63.1248 12.0629C63.2123 12.2379 63.5498 13.4879 63.7748 13.4629C63.9998 13.4504 63.2373 13.7629 63.0248 13.4504C62.8248 13.1379 62.8873 13.8629 62.8873 13.8629C62.8873 13.8629 63.5123 14.5254 63.5873 14.6754C63.6623 14.8254 63.1998 16.0254 63.5498 16.8629C63.2373 16.8879 63.2123 17.2129 63.2123 17.2129C63.1998 17.5879 62.7373 17.6754 62.7373 17.6754L62.6123 17.1754L62.3123 17.3629L62.4373 16.9754C62.4373 16.9754 62.8623 15.9379 62.8998 15.6004C62.9373 15.2629 62.5123 14.6754 62.1748 14.6754C61.8373 14.6754 61.5998 15.7379 61.5998 15.7379C61.5998 15.7379 61.4373 16.5254 61.4873 16.6129L61.2623 16.3504C61.2623 16.3504 61.1248 16.8254 61.0123 16.9754C60.8873 17.1254 60.6498 17.1754 60.6498 17.1754C60.6498 17.1754 60.4873 16.7004 60.5498 16.5129C60.5998 16.3254 61.4498 15.6004 61.3748 15.0879C61.2998 14.5629 61.3748 14.6879 61.3623 14.6754C61.3373 14.6504 60.9123 14.2879 60.8998 14.0754C60.8748 13.8754 60.3373 14.3379 59.6373 14.2004C59.4248 14.5754 59.3873 15.5129 59.3873 15.5129C59.3873 15.5129 59.3248 16.6379 59.4623 16.7629C59.6123 16.9004 59.0873 17.1754 59.0873 17.1754L58.7248 17.6754L58.5998 17.3879L58.3373 17.5754L58.4873 17.2004C58.4748 16.9129 58.8498 16.1504 58.8498 15.5004C58.8498 14.8504 58.8873 14.1504 58.8873 14.1504C58.8873 14.1504 58.2123 14.1129 58.2248 14.8254C58.2373 15.5254 58.0623 15.5754 58.0998 15.7629C58.1373 15.9754 58.3123 16.5504 58.2623 16.7129C58.2123 16.8879 57.9873 16.9379 57.9873 16.9379L57.9248 17.0254C57.9248 17.0254 57.2373 17.3504 57.2623 17.4754L57.2373 17.1004L57.1998 16.5629C57.1998 16.5629 57.6123 16.3129 57.6123 15.6629C57.6123 15.0129 57.5248 14.9129 57.5373 14.7629C57.5498 14.6129 57.6498 14.0754 57.6248 14.0129C57.6123 13.9629 57.2498 14.1754 57.1248 14.1754C57.0123 14.1754 57.3373 13.7879 57.3748 13.5004C57.4123 13.2254 56.9998 13.7629 56.6623 13.4504C56.8248 13.1129 57.0498 13.0004 57.0873 12.7504C57.1248 12.4879 56.8373 12.9629 56.5748 12.7754C56.5998 12.5254 56.8498 12.3129 56.8498 12.3129C56.8498 12.3129 56.6373 12.2879 56.5498 12.3129C56.3873 12.2629 56.7373 12.0004 56.7623 11.6254C56.7748 11.2504 56.5498 11.1129 56.5498 11.0879C56.5498 11.0754 56.1748 10.7629 56.1248 10.6254C56.0748 10.5004 56.0748 10.3504 56.0748 10.3504C56.0748 10.3504 55.4498 10.8004 54.7373 9.85036C55.3998 9.28786 56.1123 9.70036 56.1123 9.70036C56.1123 9.70036 56.2998 9.17535 57.1498 9.21285C57.9998 9.25035 58.1748 9.73786 58.1373 9.68786H58.1248Z" fill="#923F00" stroke="black" stroke-width="0.125"/>
<path d="M62.8002 19.2754C62.8127 19.2754 64.3752 19.3254 64.3877 20.1629C64.4127 21.0004 63.9127 20.7879 63.8877 20.7879L62.7627 20.6379L62.8002 19.2754Z" fill="#0000FF" stroke="black" stroke-width="0.125"/>
<path d="M61.2871 19.0498C61.2871 19.0498 63.2371 19.0373 63.1246 19.8873C63.0121 20.7373 62.5246 20.5623 62.5246 20.5623L61.5746 20.4873L61.2871 19.0498Z" fill="#FFFEFF" stroke="black" stroke-width="0.125"/>
<path d="M60.1873 18.9629L61.3123 19.0504C61.3123 19.0504 61.9998 19.1379 61.9623 19.8004C61.9373 20.4379 61.2748 20.4504 61.2748 20.4504L60.1748 20.3879L60.1873 18.9629Z" fill="#0000FF" stroke="black" stroke-width="0.125"/>
<path d="M57.5502 19.2754C57.5252 19.2754 55.9752 19.3254 55.9502 20.1629C55.9502 21.0004 56.4377 20.7879 56.4502 20.7879L57.5877 20.6379L57.5502 19.2754Z" fill="white" stroke="black" stroke-width="0.125"/>
<path d="M59.0629 19.0498C59.0629 19.0498 57.1129 19.0373 57.2254 19.8873C57.3254 20.7373 57.8254 20.5623 57.8254 20.5623L58.7629 20.4873L59.0629 19.0498Z" fill="#0000FF" stroke="black" stroke-width="0.125"/>
<path d="M60.1622 18.9629L59.0372 19.0504C59.0372 19.0504 58.3497 19.1379 58.3747 19.8004C58.4122 20.4379 59.0747 20.4504 59.0747 20.4504L60.1747 20.3879L60.1622 18.9629Z" fill="white" stroke="black" stroke-width="0.125"/>
<path d="M63.1748 28.3373C63.1748 28.3373 63.9873 27.1498 64.3373 27.2748C64.6373 27.3748 64.3998 28.2998 64.2623 28.3873L63.1748 28.3373ZM57.6248 28.5498C57.3623 28.1998 56.9998 27.2123 56.6498 27.4873C56.3498 27.5873 56.5748 28.5123 56.7248 28.5998L57.6248 28.5498Z" fill="#5E0043" stroke="black" stroke-width="0.125"/>
<path d="M58.1504 26.1873C58.1504 26.1873 59.7379 27.1623 60.2504 27.1873C60.7754 27.2123 62.4129 25.9248 62.4129 25.9248" stroke="black" stroke-width="0.125"/>
<path d="M58.3125 22.375L58.6125 22L60.125 22.75L61.675 22.0625L61.975 22.3875L60.25 23.6L58.3125 22.375Z" fill="#5E0043" stroke="black" stroke-width="0.125"/>
<path d="M57.1002 22.35C57.6895 23.0296 58.1282 23.8262 58.3877 24.6875C58.5627 25.675 58.2877 23.325 58.2877 23.325C58.2877 23.325 59.5002 23.925 59.5377 24.3C59.5752 24.675 60.1127 24.275 60.1377 24.2125L56.6377 21.9375L57.1002 22.35ZM63.1002 22.2875C63.1002 22.2875 61.8252 23.9625 61.9752 25.7875C61.7127 24.9125 61.9252 23.475 61.9252 23.475L61.6502 23.65C61.6502 23.65 61.3502 24.8875 60.9877 25.075C60.9252 24.925 60.9377 24.875 60.9377 24.875C60.9377 24.875 60.5502 25.375 60.4752 25.425C60.4002 25.475 60.5002 27.1375 60.5002 27.1375C60.5002 27.1375 60.6252 28.3375 60.7752 28.325C60.6473 28.3905 60.5222 28.4614 60.4002 28.5375L60.2377 25.3375L60.6002 24.975C60.6002 24.975 61.0752 24.3875 61.1127 23.825C60.9127 24 60.6752 24.05 60.6752 24.05C60.6752 24.05 60.6127 24.8625 60.4252 24.975C60.2252 25.1 60.2252 25.3 60.2252 25.3L60.1752 24.2375L63.1002 22.2875Z" fill="#474747" stroke="#474747" stroke-width="0.125" stroke-linejoin="round"/>
<path d="M60.1748 24.2246L60.4248 29.2871" stroke="black" stroke-width="0.125" stroke-linecap="round"/>
<path d="M57.0625 26.6504C57.0625 26.6504 57.65 26.9879 57.8625 28.0254C59.7625 27.8879 60.3625 28.5504 60.3625 28.5504C60.3625 28.5504 61.9125 27.8004 62.6375 27.9504C62.8875 27.4129 63.6125 26.7379 63.6125 26.7379" stroke="black" stroke-width="0.125"/>
<path d="M56.2746 21.6877L60.1745 24.2377L63.6996 21.8752C63.6996 21.8752 64.4246 21.4752 64.3621 21.1877C64.2996 20.8877 64.0495 21.0002 63.9245 21.0627C63.7995 21.1002 60.237 23.6252 60.237 23.6252L56.4621 21.2252C56.4621 21.2252 56.1871 21.1377 56.1371 21.3252C56.0871 21.5002 56.2371 21.6002 56.2746 21.6877Z" fill="#B4B6B9" stroke="black" stroke-width="0.125"/>
<path d="M63.2498 21.0252C63.2498 21.0252 62.2498 20.6002 62.2498 20.9627C62.2498 21.3377 62.2873 21.3752 62.4498 21.6127C62.6123 21.8377 62.3248 21.9877 62.3248 21.9877L62.2248 21.7377C62.1748 21.5752 61.6373 21.4627 61.5998 21.2627C61.5373 21.0752 61.6998 20.7752 61.3873 20.7377C61.0623 20.7002 60.7498 20.8627 60.6873 21.2377C60.5605 21.6593 60.3974 22.0692 60.1998 22.4627L60.2623 20.5127C60.9623 20.5627 62.2623 20.7127 63.2748 20.8377C62.9748 20.7877 63.3998 20.8502 63.3748 20.9627C63.3498 21.0377 63.2498 21.0502 63.2498 21.0252ZM59.7248 20.5377C59.2823 20.5542 58.8445 20.6342 58.4248 20.7752C58.1998 20.9002 58.7998 21.1127 58.7123 21.2752C58.6373 21.4627 58.6248 21.8252 58.3373 21.7502C58.0623 21.6752 57.1123 21.2002 57.0873 21.0377C57.0498 20.8877 56.8623 20.8752 56.8623 20.8752C56.8623 20.8752 59.5873 20.5002 59.7248 20.5377Z" fill="#474747" stroke="#474747" stroke-width="0.125" stroke-linejoin="round"/>
<path d="M60.15 20.3123V22.6998M58.3125 17.4873L57.1875 19.3123" stroke="black" stroke-width="0.125"/>
<path d="M60.3252 17.4375C60.3252 17.4375 60.8002 18.0875 60.7502 18.275C60.9377 18.425 61.1627 19.025 61.1627 19.025" fill="url(#paint3_linear_3736_62770)"/>
<path d="M60.3252 17.4375C60.3252 17.4375 60.8002 18.0875 60.7502 18.275C60.9377 18.425 61.1627 19.025 61.1627 19.025" stroke="black" stroke-width="0.125"/>
<path d="M62.1626 17.3379C62.1626 17.3379 61.1376 18.7879 61.1626 18.9004" stroke="black" stroke-width="0.125"/>
<path d="M56.8876 10.4251C56.8626 10.5001 56.7376 10.5376 56.6001 10.5001C56.4626 10.4501 56.3626 10.3501 56.3876 10.2751C56.4126 10.1876 56.5501 10.1501 56.6876 10.2001C56.8126 10.2376 56.9126 10.3376 56.8876 10.4251ZM57.3126 10.4001C57.3376 10.4751 57.4626 10.5126 57.6001 10.4626C57.7376 10.4251 57.8376 10.3251 57.8126 10.2376C57.7876 10.1626 57.6501 10.1251 57.5126 10.1751C57.3876 10.2126 57.2876 10.3126 57.3126 10.4001Z" fill="black"/>
<path d="M69.375 40.5C69.375 40.5 68.975 40.5625 69 40.6C69 40.6375 67.875 40.675 67.8625 40.6375C67.8375 40.6 67.6875 40.825 67.6875 40.825L67.875 40.7125C67.875 40.7125 68.15 41 68.225 40.975C68.3125 40.9625 68.1875 41.1 68.225 41.1125C68.2375 41.1375 68.325 41.0625 68.325 41.0625L70.175 41.0375L69.375 40.5ZM70.05 41.0625L68.55 41.1125C68.55 41.1125 68.1625 41.4625 68.1375 41.5375C68.1125 41.625 68.3875 41.65 68.3875 41.65L68.4625 41.9375L68.6625 41.8625C68.6625 41.8625 69.95 42.05 71.125 41.7875C71.725 41.5875 71.8375 41.3375 71.4125 41.175C71 41.025 70.0625 41.075 70.05 41.0625Z" fill="#FF7000" stroke="black" stroke-width="0.125" stroke-linejoin="round"/>
<path d="M64.875 44.1748L67.5875 44.0498L67.0875 43.6248L74.4625 43.3248L74.2125 42.7373L65.95 43.0748L66.95 43.5373L64.7 43.5998L64.775 43.8373L64.1875 43.8123C64.1875 43.8123 64.85 44.0623 64.8625 44.1873L64.875 44.1748Z" fill="url(#paint4_linear_3736_62770)" stroke="black" stroke-width="0.125"/>
<path d="M67.925 29.1124C67.7125 28.9999 66.75 28.8624 65.6875 29.5624L65.7375 32.0124C65.7375 32.0124 67.3 31.1749 68.05 31.3624C68.0125 30.6124 68.0125 29.6374 67.925 29.1124Z" fill="url(#paint5_linear_3736_62770)" stroke="black" stroke-width="0.125"/>
<path d="M52.8371 36.5498L46.4121 42.9248M55.7121 36.5873L50.4871 43.4623M55.4746 34.7998L48.5121 43.2373M48.2996 43.1248L48.9746 42.3248M56.7996 39.0373L54.0996 42.7623M53.9871 43.2498L54.0496 44.6748M58.0371 40.3373L55.1621 43.9373M57.5246 43.6498L58.6871 41.7373M57.9746 41.3748L56.5746 42.9498M57.5496 39.8748L56.5996 41.0373M56.3121 38.1748C56.3121 38.1748 53.3996 42.4373 53.4496 42.7998M56.0121 37.6248C55.9371 37.6623 53.4996 40.8998 53.4996 40.8998M53.3621 41.9248L52.9121 42.4623M52.3496 43.2748L51.6746 44.1623" stroke="black" stroke-width="0.130013"/>
<path d="M52.5253 26.7249C52.5253 26.7249 52.3253 27.3499 52.5253 27.6624C52.7253 27.9749 53.9628 30.4749 53.9628 30.4749C53.9628 30.4749 54.8128 29.4374 55.1253 29.4124C55.4253 29.3749 55.2878 32.1124 55.2878 32.1124C55.2878 32.1124 54.7878 32.5874 54.4753 32.5624C54.1628 32.5374 55.2253 33.6374 55.2003 34.5624C55.1753 35.4999 53.8003 40.1249 53.2878 40.1999C52.7878 40.2874 53.5128 39.3624 53.4878 39.0999C53.4503 38.8499 53.3128 39.0249 53.2003 38.7374C53.0878 38.4624 53.3753 38.0374 53.3253 37.7499C53.2628 37.4749 53.0003 37.5249 52.9753 37.3249C52.9503 37.1249 53.1503 37.0749 53.1128 36.8499C53.0878 36.6249 52.7753 36.6749 52.8128 36.4749C52.8378 36.2874 52.8628 36.3749 52.8378 35.9999C52.8128 35.6374 52.7503 36.2499 52.4378 36.2874C52.1253 36.3124 51.8753 37.0249 51.8753 37.0249C51.8753 37.0249 51.2503 37.8999 50.6378 37.4999C51.0128 38.2874 50.7253 38.6249 50.5753 38.6499C50.4503 38.6874 50.7003 39.2749 50.3503 39.2999C50.0128 39.3249 50.6003 40.6249 50.2253 40.7374C50.6378 40.9374 50.3003 41.1874 50.3003 41.1874C50.3003 41.1874 49.3253 41.2749 49.5378 42.5499C46.6628 41.5249 45.2503 39.7874 45.2878 37.9999C45.3128 36.2249 45.8753 34.6249 47.2503 34.0374C47.6503 32.5624 48.3253 30.9874 48.3253 30.9874C48.3253 30.9874 48.2128 30.3374 48.3003 29.9124C48.3925 29.6005 48.555 29.314 48.7753 29.0749C48.7753 29.0749 48.7253 28.0499 48.7503 27.5499C48.7753 27.0499 48.9753 26.8124 49.0003 26.5374C49.0253 26.2499 48.9128 24.8124 49.2003 24.5624C49.4753 24.3124 50.0128 24.3374 50.3003 24.1624C50.5753 23.9999 50.9503 23.6874 51.3128 23.7124C51.6878 23.7374 51.9878 23.9999 51.9878 23.9999C51.9878 23.9999 53.3628 23.9999 53.4503 24.5249C53.5378 25.0624 53.1753 25.2749 53.1753 25.2749C53.1753 25.2749 53.3753 26.0249 52.5253 26.7249Z" fill="#8A9396" stroke="#2B2B2B" stroke-width="0.125"/>
<path d="M51.3004 24.7751C51.3379 24.8626 51.2379 25.0001 51.0754 25.0876C50.9004 25.1751 50.7379 25.1876 50.7004 25.1126C50.6504 25.0251 50.7504 24.8876 50.9129 24.8001C51.0879 24.7001 51.2504 24.7001 51.2879 24.7751H51.3004Z" fill="#CECFCF" stroke="#2B2B2B" stroke-width="0.125"/>
<path d="M51.0621 24.9252C51.0621 24.9752 51.0121 25.0127 50.9621 25.0127C50.8996 25.0127 50.8496 24.9752 50.8496 24.9252C50.8496 24.8627 50.8996 24.8252 50.9621 24.8252C51.0121 24.8252 51.0621 24.8627 51.0621 24.9252Z" fill="black"/>
<path d="M53.125 25.8498C53.125 25.8498 53.4625 27.3748 53.0625 28.4373M53.2375 25.1873C53.2375 25.1873 53.9 26.0623 53.8125 27.1623M53.3 24.9998C53.3125 24.9998 53.8625 25.4623 53.8375 25.7873M53.425 24.7998C53.425 24.7998 53.8 25.0498 53.875 25.3123" stroke="#2B2B2B" stroke-width="0.0625"/>
<path d="M53.2502 24.6504C53.2502 24.6504 51.9377 26.7754 52.1127 28.1129" stroke="black" stroke-width="0.125"/>
<path d="M53.3379 24.5752C53.3379 24.5752 51.5879 25.6127 51.2754 29.0002" stroke="#2B2B2B" stroke-width="0.0625"/>
<path d="M53.1502 25.2002L52.4502 25.7252" stroke="black" stroke-width="0.125"/>
<path d="M50.625 29.1877C50.625 29.1877 51.6 25.1627 53.3125 24.5752" stroke="#2B2B2B" stroke-width="0.0625"/>
<path d="M53.9871 30.5497C53.9871 30.5497 54.9121 29.3872 55.1246 29.4247C55.3371 29.4747 55.2746 32.1247 55.2746 32.1247C55.2746 32.1247 54.5871 32.6372 54.4371 32.6247C54.2871 32.5997 55.2121 33.8747 55.1871 34.3372C55.1746 34.8122 55.1496 34.8122 55.1496 34.8122C55.1496 34.8122 55.1496 34.5372 54.9371 34.0872C54.7121 33.6247 54.8496 33.1122 53.4371 31.9622C53.0996 31.2622 54.1371 32.3997 54.3496 32.2247C54.5621 32.0622 53.9746 30.5747 53.9746 30.5497H53.9871Z" fill="#2B2B2B" stroke="#2B2B2B" stroke-width="0.125"/>
<path d="M52.3377 24C52.3377 24 51.9502 24.1 51.9002 24.25C51.8377 24.425 51.6127 24.575 51.4877 24.525C51.3627 24.475 51.1377 24.275 51.1377 24.275" stroke="#2B2B2B" stroke-width="0.125"/>
<path d="M50.1247 25.3623C50.1247 25.3623 49.5372 25.9373 49.8247 26.0123C50.1122 26.0873 50.4122 25.5498 50.4122 25.5498C50.4122 25.5498 50.4122 26.4623 50.6622 26.3123C50.9122 26.1748 51.6247 25.6623 51.6247 25.6623C51.6247 25.6623 51.8747 25.6373 51.9372 25.6623C51.9872 25.6748 52.5997 26.2123 53.0122 26.0123C52.7747 26.6123 52.5122 26.6873 52.5122 26.6873C52.5122 26.6873 52.0872 27.2373 51.5372 27.1123C50.9872 26.9873 50.8497 26.7623 50.8497 26.7623C50.8497 26.7623 50.3872 26.7873 50.2497 26.5748L50.0497 26.2498C50.0497 26.2498 49.7997 26.4998 49.7122 26.3748C49.6497 26.2498 49.7122 25.5373 50.1247 25.3623Z" fill="#2B2B2B" stroke="#2B2B2B" stroke-width="0.125" stroke-linejoin="round"/>
<path d="M53.4379 24.5495C53.4379 24.5495 52.3629 24.2245 51.9879 24.762C51.6129 25.287 51.7004 25.587 51.9004 25.637" stroke="#2B2B2B" stroke-width="0.125"/>
<path d="M53.6002 24.5121C53.6002 24.6371 53.5127 24.7496 53.4002 24.7496C53.2752 24.7496 53.2002 24.6371 53.2002 24.5121C53.2002 24.3871 53.2877 24.2871 53.4002 24.2871C53.5127 24.2871 53.6002 24.3871 53.6002 24.5121Z" fill="black"/>
<path d="M50.4621 27.2748C50.4621 27.2748 50.8996 27.9498 51.4246 28.1373C51.9496 28.3248 51.0496 28.4748 50.5371 28.1373C50.1621 27.6123 50.2621 27.2373 50.2621 27.2373C50.2621 27.2373 50.3621 27.1373 50.4621 27.2748ZM54.2246 31.2623C54.2246 31.2623 52.9871 29.5498 52.6371 29.4498C52.2746 29.3623 52.9121 29.2873 53.2871 29.6498C53.6621 30.0248 53.1871 29.0623 53.1871 29.0623L54.2246 31.2623Z" fill="#2B2B2B" stroke="#2B2B2B" stroke-width="0.125"/>
<path d="M50.3374 41.1998C50.8124 41.0748 52.8874 42.3873 53.3374 42.7123C53.8124 43.0498 54.7874 42.8373 54.7874 42.8373C54.7874 42.8373 54.3374 43.1123 54.0624 43.1748C53.7749 43.2373 54.8874 43.2373 54.8874 43.2373C54.8874 43.2373 52.2499 43.9748 49.5624 42.5623C49.3124 41.4623 50.1374 41.2123 50.3374 41.1998Z" fill="#2B2B2B" stroke="#2B2B2B" stroke-width="0.125" stroke-linejoin="round"/>
<path d="M53.3754 31.6876C53.3754 31.6876 53.0129 31.6251 52.8379 31.4251C52.6629 31.2126 52.4129 30.7126 52.1504 30.5001C51.8879 30.3001 50.5754 29.5751 50.1004 29.6251C49.6254 29.6751 49.4754 29.5751 49.4129 29.5126C49.3629 29.4501 49.1629 29.5376 49.2004 29.7876C49.2379 30.0376 48.8254 30.5751 48.9754 30.8251C49.2485 31.2995 49.5711 31.7437 49.9379 32.1501C50.0629 32.1876 49.9879 32.7501 49.9879 32.7501C49.9879 32.7501 50.5879 33.3626 50.7379 33.3876C50.8879 33.4251 51.0504 33.5376 51.0254 33.6876C51.0129 33.8251 50.3629 34.6126 50.3629 34.6126C50.3629 34.6126 49.6754 34.9876 49.6629 35.1751C49.6629 35.3876 49.8379 35.8001 50.3879 35.9376C51.0873 36.0497 51.8023 36.0157 52.4879 35.8376C52.5629 35.7126 52.6879 34.9626 52.6379 34.8751C52.5879 34.8001 52.2254 34.5751 52.0379 34.6001C51.8504 34.6376 51.6754 34.7876 51.7004 34.8251C51.7129 34.8626 51.4379 35.0001 51.4379 34.8626C51.4379 34.7376 51.9879 34.1126 52.0379 34.1751C52.0879 34.2251 52.8629 34.3001 53.0129 34.6876C53.1504 35.0751 53.1504 35.3626 53.5629 35.3126C53.9629 35.2751 54.5379 34.9001 54.5879 34.1251C54.6072 33.8656 54.5639 33.6053 54.4617 33.366C54.3594 33.1267 54.2012 32.9155 54.0004 32.7501C53.8754 32.6626 53.4504 32.4126 53.4129 32.2876C53.3879 32.1626 53.2879 31.7876 53.3629 31.6876H53.3754Z" fill="#2B2B2B" stroke="#2B2B2B" stroke-width="0.125"/>
<path d="M46.0373 35.1251C46.0373 35.1251 47.3498 34.7876 47.6873 34.8001C48.0248 34.8001 49.3123 35.4001 49.6873 35.7626C50.0623 36.1376 50.8123 36.9876 51.3123 36.9126C51.8123 36.8376 51.9623 36.7376 51.9623 36.7376L51.7623 37.1126C51.7623 37.1126 51.3623 37.2251 51.1498 37.1751C50.9498 37.1251 50.5498 36.9876 50.1498 36.6001C49.7623 36.2251 48.5248 35.1626 47.4873 35.2376C46.4498 35.3126 45.8498 36.3376 45.8498 36.3376C45.8498 36.3376 45.8498 35.8376 45.8998 35.7251C45.9373 35.6251 45.6748 35.9751 45.6748 35.9751L46.0373 35.1251Z" fill="#2B2B2B" stroke="#2B2B2B" stroke-width="0.125"/>
<path d="M50.8755 36.15C50.8755 36.15 51.2005 36.2375 51.7505 36.2375C52.288 36.2375 52.5755 36 52.5755 36L52.538 35.7875L52.6255 35.5C52.6255 35.5 53.038 35.9125 53.038 36C53.038 36.0875 52.863 36.125 52.863 36.125L52.8005 35.9125L52.663 36.1C52.663 36.1 51.8755 36.725 51.438 36.625C51.013 36.5375 50.613 36.25 50.7255 36.1875C50.838 36.125 50.888 36.15 50.8755 36.15ZM48.963 37.25C48.963 37.25 48.488 37.25 48.2755 37.35C48.063 37.45 47.988 37.575 47.838 37.5625C47.7005 37.5375 47.588 37.3625 47.6255 37.2875C47.688 37.1625 47.9755 37.0125 48.5005 37.05C49.038 37.1 48.963 37.25 48.963 37.25ZM50.6255 38.5375C50.6255 38.5125 50.588 37.85 50.3255 37.575C50.2339 37.4782 50.1197 37.4057 49.9931 37.3643C49.8665 37.3228 49.7315 37.3136 49.6005 37.3375C49.4505 37.375 50.1255 37.675 50.2005 37.8625C50.263 38.0625 50.488 38.6125 50.4255 38.7375C50.363 38.8625 50.263 38.3625 49.838 38.2125C49.4255 38.0625 48.8505 38.15 48.963 38.3375C49.088 38.5125 49.5505 38.3375 49.788 38.75C49.9418 39.0122 50.0796 39.2836 50.2005 39.5625L50.288 39.275L50.488 39.225L50.5255 38.675L50.6255 38.5375Z" fill="#2B2B2B" stroke="#2B2B2B" stroke-width="0.125"/>
<path d="M50.2877 40.7128L49.8502 39.8378C49.8502 39.8378 49.7252 39.3003 49.3502 39.1503C48.9752 38.9878 48.5002 39.0253 48.5002 39.2003C48.4877 39.3878 49.2752 39.6253 49.3252 39.7253C49.3752 39.8253 49.3502 40.0003 49.2877 40.0128C49.2127 40.0128 48.8627 39.8878 48.6877 39.9253C48.5127 39.9628 48.4127 40.2003 48.1502 40.1253C47.8877 40.0628 47.6627 39.2253 47.7752 39.1253C47.8627 39.0503 47.5752 39.2878 47.5127 39.0628C47.4502 38.8503 47.6002 38.1628 47.5002 38.0753C47.4002 37.9878 46.9002 37.7003 46.9002 37.6378C46.8877 37.5753 46.9252 34.2628 49.6877 37.0128C48.5002 35.6003 48.0377 35.7628 47.8127 35.7503C47.6627 35.7503 46.5752 35.8378 46.3127 37.2128C46.0377 38.5878 45.7127 37.7253 45.7127 37.7253C45.7127 37.7253 45.6627 38.3253 45.9502 38.4878C46.2377 38.6628 45.8127 39.1503 45.8127 39.1503C45.8127 39.1503 45.2877 37.9003 45.3752 37.3378C45.2627 37.7753 45.2752 38.8753 45.9252 40.0628C46.8543 41.1157 48.0193 41.9338 49.3252 42.4503C50.3252 40.9128 50.2877 40.7253 50.2877 40.7003V40.7128Z" fill="#2B2B2B" stroke="#2B2B2B" stroke-width="0.125" stroke-linejoin="round"/>
<path d="M48.4751 40.7248C48.4751 40.7248 49.0251 40.7873 49.1751 41.0748C49.3376 41.3623 49.4001 41.7998 49.4001 41.7998C49.5001 41.6123 49.5251 41.4623 49.7251 41.3248C49.9126 41.1873 50.0501 41.1623 50.0376 41.0748C50.0376 40.9623 49.4376 40.3498 49.1501 40.3123C48.8501 40.2748 48.3376 40.6373 48.3376 40.6373C48.3376 40.6373 48.2376 40.7623 48.4626 40.7248H48.4751Z" fill="#8A9396" stroke="#2B2B2B" stroke-width="0.125" stroke-linejoin="round"/>
<path d="M49.75 42.1748C49.75 42.1748 51.2 42.8373 53.575 42.8748" stroke="#8A9396" stroke-width="0.121887" stroke-linecap="round"/>
<path d="M54.5879 35.4502C54.5879 35.4502 54.4629 36.6627 53.5254 39.0752" stroke="#2B2B2B" stroke-width="0.121887" stroke-linecap="round"/>
<path d="M54.4004 36.2002C54.4004 36.2002 54.1129 37.0752 53.3379 37.7252" stroke="#2B2B2B" stroke-width="0.125"/>
<path d="M50.1621 51.2877L50.4121 51.0127L50.4871 51.0752L50.4746 51.1002L50.4496 51.1377V51.1627L50.4746 51.1877L50.7996 51.4752L50.8246 51.5002H50.8496L50.8621 51.4752C50.8954 51.4419 50.9163 51.4085 50.9246 51.3752C50.9413 51.3419 50.9454 51.3085 50.9371 51.2752C50.9371 51.2335 50.9204 51.1919 50.8871 51.1502L50.9871 51.1002L51.1371 51.3502L50.7371 51.8002L50.6621 51.7377L50.6871 51.7002L50.6996 51.6752V51.6502L50.6746 51.6252L50.3496 51.3377L50.3121 51.3127H50.2996L50.2621 51.3377L50.2371 51.3627L50.1621 51.2877ZM50.7121 50.6752L51.1746 50.2252L51.3996 50.3377L51.3621 50.4252L51.2371 50.4002L51.1621 50.4252C51.1371 50.4335 51.1121 50.4544 51.0871 50.4877L50.9996 50.5627L51.1246 50.7002L51.1621 50.6752C51.1871 50.6585 51.1996 50.6419 51.1996 50.6252V50.6002L51.1746 50.5627L51.1496 50.5377L51.2246 50.4627L51.4496 50.7002L51.3746 50.7627L51.3496 50.7502L51.3121 50.7127H51.2871L51.2371 50.7502L51.2121 50.7752L51.3371 50.9002L51.3621 50.9252H51.3746L51.3996 50.9002L51.4496 50.8627L51.5246 50.7627C51.5413 50.7294 51.5454 50.6877 51.5371 50.6377C51.5371 50.6044 51.5246 50.5669 51.4996 50.5252L51.5996 50.4752L51.7246 50.7627L51.2496 51.2252L51.1746 51.1502H51.1996L51.2246 51.1002V51.0752L51.1996 51.0377L50.8996 50.7377L50.8621 50.7127H50.8371L50.8121 50.7252L50.7871 50.7502L50.7121 50.6752ZM51.6746 49.7502C51.7746 49.6669 51.8746 49.6294 51.9746 49.6377C52.0829 49.646 52.1746 49.696 52.2496 49.7877C52.2996 49.846 52.3329 49.9085 52.3496 49.9752C52.3663 50.0502 52.3621 50.1169 52.3371 50.1752C52.3121 50.2419 52.2663 50.3044 52.1996 50.3627C52.1163 50.4377 52.0246 50.4752 51.9246 50.4752C51.8079 50.4752 51.7079 50.4252 51.6246 50.3252C51.5413 50.2419 51.5079 50.146 51.5246 50.0377C51.5329 49.9294 51.5829 49.8335 51.6746 49.7502ZM51.7621 49.8377C51.7204 49.8794 51.6996 49.9294 51.6996 49.9877C51.6996 50.0544 51.7288 50.121 51.7871 50.1877C51.8454 50.2544 51.9079 50.296 51.9746 50.3127C52.0246 50.3127 52.0704 50.296 52.1121 50.2627C52.1621 50.2294 52.1871 50.1877 52.1871 50.1377C52.1871 50.0627 52.1538 49.9919 52.0871 49.9252C52.0538 49.8835 52.0121 49.8502 51.9621 49.8252C51.9288 49.8085 51.8913 49.8002 51.8496 49.8002C51.8163 49.8002 51.7871 49.8127 51.7621 49.8377ZM52.5246 49.0627L52.5871 49.0252L52.5996 49.0377L52.9621 48.7877V48.7627L53.0121 48.7252L53.2496 48.8877L53.1871 48.9752L53.0996 48.9377C53.0663 48.921 53.0329 48.9169 52.9996 48.9252L52.9496 48.9377L52.9371 48.9502V48.9752L53.1996 49.3502L53.2246 49.3877H53.2621L53.3246 49.3502L53.3746 49.4377L53.0746 49.6627L53.0121 49.5752L53.0246 49.5627L53.0621 49.5252V49.5002L53.0496 49.4627L52.7871 49.0877L52.7621 49.0627L52.7496 49.0752C52.7329 49.0835 52.7204 49.1002 52.7121 49.1252C52.6954 49.1502 52.6871 49.1794 52.6871 49.2127L52.6996 49.3127L52.5996 49.3377L52.5246 49.0627ZM53.2246 48.6252L53.7746 48.2752L53.9871 48.4377L53.9121 48.5252L53.8121 48.4752H53.7246C53.6996 48.4752 53.6704 48.4877 53.6371 48.5127L53.5371 48.5752L53.6371 48.7377L53.6621 48.7127L53.7121 48.6877V48.6502L53.6996 48.6002L53.6871 48.5752L53.7746 48.5252L53.9371 48.8127L53.8496 48.8627L53.8371 48.8252L53.7996 48.7877H53.7746L53.7246 48.8127L53.6871 48.8252L53.7871 48.9877L53.7996 49.0127H53.8121L53.8496 49.0002L53.8996 48.9627L53.9996 48.8877L54.0371 48.7752V48.6502L54.1371 48.6252L54.1996 48.9252L53.6246 49.2752L53.5746 49.1877L53.5871 49.1752L53.6246 49.1377C53.6329 49.1377 53.6329 49.1294 53.6246 49.1127V49.0752L53.3996 48.7127L53.3621 48.6752H53.3496L53.3121 48.6877L53.2871 48.7002L53.2246 48.6127V48.6252ZM53.9996 48.1502L54.4371 47.9252L54.5246 47.8877C54.5579 47.871 54.5954 47.8669 54.6371 47.8752C54.6704 47.8752 54.6996 47.8835 54.7246 47.9002L54.7871 47.9752C54.8204 48.0335 54.8246 48.0877 54.7996 48.1377C54.7829 48.1877 54.7496 48.2294 54.6996 48.2627L54.9246 48.3627H54.9371L54.9746 48.3752H55.0121L55.0371 48.3627L55.0746 48.3502L55.1121 48.4377L54.8996 48.5627L54.5246 48.3752L54.4621 48.4002L54.5371 48.5377L54.5621 48.5877H54.6246L54.6496 48.5627L54.6996 48.6627L54.3621 48.8377L54.3121 48.7377L54.3496 48.7252L54.3746 48.7002L54.3871 48.6752L54.3746 48.6377L54.1746 48.2502L54.1496 48.2252C54.1496 48.2169 54.1413 48.2169 54.1246 48.2252H54.0871L54.0621 48.2377L54.0121 48.1502H53.9996ZM54.3246 48.1252L54.4121 48.3002L54.5121 48.2502C54.5538 48.2335 54.5829 48.2127 54.5996 48.1877L54.6246 48.1377V48.0752L54.5746 48.0377H54.5246L54.4371 48.0627L54.3121 48.1252H54.3246ZM54.8746 47.7002L55.3246 47.5002L55.4121 47.4752H55.5246C55.5579 47.4752 55.5871 47.4835 55.6121 47.5002L55.6746 47.5877C55.6996 47.6377 55.6996 47.6877 55.6746 47.7377C55.6496 47.7877 55.6121 47.8294 55.5621 47.8627L55.7871 47.9752L55.8371 47.9877H55.8996L55.9246 47.9627L55.9746 48.0627L55.7496 48.1627L55.3746 47.9627L55.3246 47.9877L55.3871 48.1252L55.4121 48.1752H55.4621L55.4996 48.1627L55.5371 48.2502L55.1996 48.4127L55.1496 48.3127L55.1871 48.3002L55.2121 48.2752L55.2246 48.2502L55.2121 48.2127L55.0371 47.8127C55.0371 47.796 55.0288 47.7835 55.0121 47.7752H54.9496L54.9246 47.8002L54.8871 47.7002H54.8746ZM55.1996 47.7002L55.2746 47.8877L55.3871 47.8377L55.4746 47.7877C55.4913 47.771 55.4996 47.7502 55.4996 47.7252V47.6752L55.4621 47.6252H55.3996L55.3121 47.6502L55.1871 47.7002H55.1996ZM56.0496 47.2127L56.2121 47.1502L56.6371 47.6377L56.6871 47.6752H56.7496L56.7746 47.7752L56.4371 47.9002L56.3996 47.8002L56.4246 47.7877C56.4413 47.7877 56.4538 47.7794 56.4621 47.7627V47.7377L56.4371 47.7127L56.3871 47.6502L56.1746 47.7252V47.8502L56.2121 47.8627L56.2621 47.8502L56.2996 47.9502L56.0121 48.0502L55.9746 47.9502C55.9913 47.9502 56.0038 47.9419 56.0121 47.9252L56.0246 47.9127V47.8627L56.0496 47.2127ZM56.1746 47.6127L56.3121 47.5627L56.1746 47.3877V47.6127ZM56.6496 47.0002L56.9871 46.9002L57.2496 47.3127V46.8127L57.5996 46.7252L57.6246 46.8252L57.5871 46.8377C57.5704 46.8377 57.5579 46.846 57.5496 46.8627V46.9127L57.6746 47.3377L57.6871 47.3627L57.7121 47.3752H57.7871L57.8121 47.4627L57.4496 47.5752L57.4246 47.4627H57.4496C57.4746 47.4627 57.4871 47.4544 57.4871 47.4377L57.4996 47.4252V47.3877L57.3746 46.9252L57.3621 47.6002L57.2621 47.6252L56.9121 47.0752L57.0371 47.5377L57.0496 47.5502L57.0746 47.5627H57.1121L57.1496 47.5502L57.1746 47.6502L56.8746 47.7377L56.8371 47.6377H56.8746L56.9121 47.6127V47.5502L56.7871 47.1377V47.1002L56.7621 47.0877H56.6871L56.6496 47.0002ZM58.1996 46.5877L58.5996 46.5127H58.7246C58.7663 46.5127 58.7996 46.521 58.8246 46.5377C58.8579 46.5544 58.8829 46.5752 58.8996 46.6002L58.9371 46.6877C58.9454 46.7544 58.9288 46.8127 58.8871 46.8627C58.8454 46.921 58.7829 46.9585 58.6996 46.9752L58.5746 47.0002L58.5996 47.1377V47.1752H58.6996L58.7121 47.2752L58.3371 47.3502V47.2502H58.3496L58.3996 47.2252V47.1627L58.3246 46.7502V46.7002L58.2996 46.6877H58.2246L58.1996 46.5877ZM58.4996 46.6627L58.5496 46.8752H58.6121L58.6996 46.8377L58.7371 46.7877V46.7252C58.7371 46.6919 58.7204 46.6669 58.6871 46.6502C58.6621 46.6419 58.6288 46.6419 58.5871 46.6502H58.4996V46.6627ZM59.0246 46.4377L59.4996 46.3752H59.5996L59.6996 46.4002C59.7329 46.4169 59.7579 46.4377 59.7746 46.4627C59.7996 46.4877 59.8121 46.5169 59.8121 46.5502C59.8204 46.6085 59.8079 46.6585 59.7746 46.7002C59.7329 46.7419 59.6871 46.7752 59.6371 46.8002L59.8121 46.9627L59.8496 46.9877L59.8746 47.0002H59.9496V47.1002L59.7121 47.1377L59.4246 46.8377H59.3621L59.3871 46.9877V47.0377L59.4121 47.0627H59.4871V47.1627L59.1121 47.2127V47.1002H59.1371L59.1746 47.0877L59.1996 47.0627V47.0252L59.1371 46.5877V46.5502H59.0371L59.0246 46.4377ZM59.3246 46.5252L59.3496 46.7252H59.4746L59.5621 46.6877L59.6121 46.6502V46.5877L59.5996 46.5377L59.5496 46.5127H59.4496L59.3246 46.5252ZM60.4246 46.2877C60.5413 46.2794 60.6413 46.3085 60.7246 46.3752C60.8079 46.4502 60.8496 46.546 60.8496 46.6627C60.8496 46.746 60.8371 46.8169 60.8121 46.8752C60.7788 46.9335 60.7371 46.9835 60.6871 47.0252C60.6204 47.0585 60.5454 47.0794 60.4621 47.0877C60.3454 47.0877 60.2496 47.0627 60.1746 47.0127C60.0829 46.9377 60.0329 46.8377 60.0246 46.7127C60.0246 46.596 60.0579 46.496 60.1246 46.4127C60.1996 46.3294 60.2996 46.2877 60.4246 46.2877ZM60.4246 46.4127C60.3663 46.4127 60.3246 46.4377 60.2996 46.4877C60.2496 46.5377 60.2288 46.6085 60.2371 46.7002C60.2371 46.7835 60.2621 46.8502 60.3121 46.9002C60.3454 46.9419 60.3913 46.9627 60.4496 46.9627C60.5079 46.9627 60.5538 46.9377 60.5871 46.8877C60.6288 46.8377 60.6454 46.7669 60.6371 46.6752C60.6371 46.6169 60.6246 46.5669 60.5996 46.5252C60.5829 46.4835 60.5579 46.4544 60.5246 46.4377C60.4913 46.4127 60.4579 46.4044 60.4246 46.4127ZM60.9996 46.2752H61.4246L61.5496 46.2877L61.6371 46.3377L61.6871 46.4127L61.7121 46.5127C61.7121 46.5794 61.6871 46.6335 61.6371 46.6752C61.5871 46.7169 61.5163 46.7377 61.4246 46.7377H61.2996V46.9252L61.3496 46.9377H61.3871V47.0502H61.0121V46.9377H61.0746L61.0871 46.9252V46.8752L61.0996 46.4502V46.4002L61.0871 46.3877H61.0121V46.2627L60.9996 46.2752ZM61.2871 46.4002V46.6252H61.3621L61.4496 46.6127L61.4871 46.5752C61.5038 46.5585 61.5121 46.5377 61.5121 46.5127C61.5121 46.471 61.4996 46.4419 61.4746 46.4252C61.4496 46.4085 61.4163 46.4002 61.3746 46.4002H61.2871ZM61.8496 46.2752L62.3246 46.3127L62.4246 46.3252L62.5246 46.3752C62.5496 46.3919 62.5704 46.4169 62.5871 46.4502L62.5996 46.5502C62.5996 46.6085 62.5746 46.6502 62.5246 46.6752C62.4829 46.7169 62.4329 46.7419 62.3746 46.7502L62.5246 46.9377V46.9502L62.5496 46.9877H62.5746L62.6121 47.0002H62.6496V47.1127L62.3996 47.1002L62.1621 46.7502H62.0996V46.9502H62.1746V47.0752L61.7996 47.0377V46.9377H61.8746L61.8996 46.9127V46.8752L61.9246 46.4377V46.4002L61.8871 46.3752H61.8371V46.2627L61.8496 46.2752ZM62.1246 46.4252L62.1121 46.6252H62.2246C62.2663 46.6335 62.2996 46.6335 62.3246 46.6252C62.3496 46.6252 62.3663 46.6169 62.3746 46.6002C62.3913 46.5835 62.3996 46.5627 62.3996 46.5377V46.4877L62.3496 46.4502L62.2496 46.4377H62.1246V46.4252ZM62.7996 46.3502L63.1746 46.4002V46.5127H63.1371C63.1121 46.5044 63.0954 46.5044 63.0871 46.5127L63.0621 46.5627L63.0121 46.9877V47.0377H63.0246L63.0621 47.0627H63.0996L63.0871 47.1752L62.7121 47.1252L62.7246 47.0127H62.7496C62.7746 47.021 62.7913 47.021 62.7996 47.0127H62.8121L62.8246 46.9752L62.8746 46.5377V46.4752H62.8246L62.7871 46.4627L62.7996 46.3502ZM63.6121 46.4627L63.7871 46.5002L63.9121 47.1252C63.9121 47.1585 63.9204 47.1794 63.9371 47.1877L63.9871 47.2127L63.9621 47.3127L63.5996 47.2502L63.6246 47.1502H63.6871L63.6996 47.1377V47.0127L63.4496 46.9752L63.4121 47.0502V47.0752C63.4038 47.0835 63.4038 47.0919 63.4121 47.1002H63.4246L63.4746 47.1252L63.4621 47.2252L63.1621 47.1752L63.1746 47.0752H63.2246L63.2496 47.0627L63.2746 47.0252L63.6121 46.4627ZM63.5121 46.8752L63.6746 46.9002L63.6371 46.6752L63.5121 46.8752ZM64.2496 46.5752L64.5871 46.6627L64.6121 47.1627L64.8621 46.7377L65.1996 46.8252L65.1746 46.9252H65.1371C65.1204 46.9085 65.1079 46.9085 65.0996 46.9252C65.0829 46.9252 65.0746 46.9377 65.0746 46.9627L64.9621 47.3877V47.4377L64.9996 47.4502L65.0371 47.4627L65.0121 47.5752L64.6496 47.4752L64.6746 47.3752H64.7121L64.7496 47.3877H64.7746V47.3377L64.8996 46.8752L64.5621 47.4627L64.4621 47.4252L64.4246 46.7877L64.3121 47.2377V47.2627L64.3246 47.2877H64.3621L64.3996 47.3002L64.3746 47.4127L64.0621 47.3377L64.0871 47.2252H64.1246L64.1621 47.2377H64.1746L64.1996 47.1877L64.2996 46.7627V46.7127L64.2621 46.7002L64.2246 46.6877L64.2496 46.5752ZM65.8121 47.0127L66.1871 47.1502L66.3121 47.2127L66.3746 47.2877L66.3996 47.3752L66.3871 47.4752C66.3621 47.5335 66.3204 47.5752 66.2621 47.6002C66.1954 47.6252 66.1204 47.6252 66.0371 47.6002L65.9121 47.5502L65.8621 47.6752V47.7377L65.8996 47.7627H65.9371L65.8996 47.8752L65.5371 47.7502L65.5746 47.6377H65.5996L65.6496 47.6627H65.6621L65.6871 47.6127L65.8371 47.2127V47.1502L65.7996 47.1252H65.7746L65.8121 47.0127ZM66.0246 47.2252L65.9496 47.4377L66.0121 47.4627L66.0996 47.4752L66.1621 47.4627L66.1996 47.4002C66.2079 47.3669 66.2038 47.3377 66.1871 47.3127C66.1704 47.2877 66.1454 47.271 66.1121 47.2627L66.0246 47.2252ZM66.5996 47.3002L67.0371 47.5002L67.1246 47.5502C67.1579 47.5669 67.1829 47.5919 67.1996 47.6252L67.2371 47.7127L67.2121 47.8127C67.1871 47.871 67.1496 47.9085 67.0996 47.9252H66.9371L66.9996 48.1627L67.0246 48.2002L67.0371 48.2252L67.0746 48.2502H67.0996L67.0621 48.3627L66.8371 48.2627L66.7371 47.8502L66.6746 47.8252L66.6121 47.9627V48.0377L66.6371 48.0502L66.6746 48.0752L66.6246 48.1627L66.2871 48.0127L66.3246 47.9127L66.3621 47.9252L66.3996 47.9377H66.4246L66.4371 47.9002L66.6121 47.5002L66.6246 47.4627V47.4377L66.5996 47.4252H66.5746L66.5496 47.4127L66.5996 47.3002ZM66.8121 47.5377L66.7246 47.7252L66.8371 47.7627C66.8704 47.7877 66.8996 47.8002 66.9246 47.8002L66.9871 47.7877C67.0038 47.7794 67.0163 47.7627 67.0246 47.7377C67.0329 47.721 67.0329 47.7044 67.0246 47.6877L67.0121 47.6377L66.9246 47.5877L66.7996 47.5377H66.8121ZM67.8746 47.9002C67.9829 47.9585 68.0538 48.0377 68.0871 48.1377C68.1204 48.2377 68.1079 48.3419 68.0496 48.4502C68.0163 48.5169 67.9704 48.5669 67.9121 48.6002C67.8538 48.6419 67.7871 48.6627 67.7121 48.6627C67.6454 48.6627 67.5746 48.6419 67.4996 48.6002C67.3996 48.5502 67.3288 48.4794 67.2871 48.3877C67.2454 48.2794 67.2579 48.171 67.3246 48.0627C67.3746 47.9544 67.4538 47.8835 67.5621 47.8502C67.6621 47.8252 67.7663 47.8419 67.8746 47.9002ZM67.8246 48.0127C67.7746 47.9794 67.7204 47.9752 67.6621 48.0002C67.6038 48.0252 67.5538 48.0794 67.5121 48.1627C67.4704 48.2377 67.4538 48.3085 67.4621 48.3752C67.4704 48.4252 67.5038 48.4669 67.5621 48.5002C67.6121 48.5252 67.6621 48.5252 67.7121 48.5002C67.7704 48.4752 67.8204 48.4252 67.8621 48.3502C67.8954 48.2919 67.9121 48.2419 67.9121 48.2002C67.9121 48.1502 67.9038 48.1085 67.8871 48.0752L67.8246 48.0127ZM68.4496 48.2002L68.5121 48.2377V48.2627L68.8871 48.5002L68.8996 48.4877L68.9621 48.5252L68.8996 48.8002L68.7996 48.7752V48.6752C68.7996 48.6419 68.7913 48.6127 68.7746 48.5877L68.7371 48.5377H68.7121L68.6996 48.5627L68.4621 48.9377L68.4371 48.9877V49.0002L68.4496 49.0127L68.4996 49.0502L68.4496 49.1377L68.1246 48.9377L68.1871 48.8502L68.1996 48.8627L68.2496 48.8877H68.2621L68.2996 48.8377L68.5496 48.4627V48.4252H68.5371C68.5204 48.4085 68.4954 48.4002 68.4621 48.4002L68.3871 48.4127L68.2996 48.4627L68.2246 48.3877L68.4496 48.2002ZM69.1496 48.6752L69.6746 49.0502L69.5996 49.3002L69.4996 49.2752V49.1502L69.4746 49.0752C69.4579 49.0502 69.4329 49.0294 69.3996 49.0127L69.3121 48.9377L69.1871 49.1002L69.2246 49.1252L69.2746 49.1502H69.3121L69.3371 49.1002L69.3621 49.0752L69.4371 49.1377L69.2496 49.4002L69.1746 49.3502L69.1871 49.3252L69.2121 49.2752V49.2502L69.1621 49.2002L69.1246 49.1877L69.0246 49.3252L69.0121 49.3627L69.0371 49.4002L69.0871 49.4377L69.2121 49.4877C69.2454 49.496 69.2788 49.496 69.3121 49.4877C69.3538 49.4794 69.3954 49.4585 69.4371 49.4252L69.4871 49.5127L69.2371 49.6877L68.6996 49.3127L68.7621 49.2127L68.7746 49.2252L68.8246 49.2502H68.8496L68.8746 49.2127L69.1246 48.8627L69.1496 48.8252V48.8127L69.1121 48.7752L69.0871 48.7627L69.1496 48.6752ZM70.0121 49.7752L70.2996 50.0252L70.2371 50.1002L70.2121 50.0877L70.1871 50.0627H70.1621L70.1246 50.1002L69.9746 50.2877L69.8871 50.2127L69.8996 50.1502L69.7746 50.1252L69.6871 50.0627C69.6288 50.0127 69.5871 49.9585 69.5621 49.9002C69.5454 49.8335 69.5454 49.7669 69.5621 49.7002C69.5621 49.6335 69.5871 49.5669 69.6371 49.5002C69.6871 49.4419 69.7454 49.4002 69.8121 49.3752C69.8788 49.3502 69.9454 49.346 70.0121 49.3627C70.0788 49.371 70.1413 49.396 70.1996 49.4377L70.2621 49.5127L70.3121 49.6002L70.3496 49.5877L70.4121 49.6377L70.2996 49.8877L70.1996 49.8377V49.7002L70.1871 49.6127L70.1371 49.5502L70.0371 49.5127L69.9246 49.5377C69.8913 49.5544 69.8538 49.5877 69.8121 49.6377L69.7371 49.7627V49.9002C69.7454 49.9335 69.7663 49.9627 69.7996 49.9877L69.8621 50.0252H69.9246L69.9746 50.0002L69.9871 49.9752L70.0121 49.9377V49.9252L69.9746 49.8877L69.9496 49.8627L70.0121 49.7752ZM70.8496 50.0252L70.9746 50.1502L70.7371 50.7502C70.7204 50.7752 70.7163 50.796 70.7246 50.8127L70.7496 50.8502L70.6746 50.9377L70.4246 50.6877L70.4871 50.6002L70.4996 50.6252L70.5371 50.6377H70.5621L70.5871 50.6002L70.6121 50.5377L70.4371 50.3752L70.3621 50.4127L70.3371 50.4252V50.4627L70.3746 50.5002L70.2996 50.5752L70.0871 50.3752L70.1621 50.3002L70.1871 50.3252H70.2121L70.2621 50.3127L70.8496 50.0252ZM70.5496 50.3127L70.6621 50.4252L70.7496 50.2127L70.5496 50.3127ZM71.3621 50.4877L71.4121 50.5377L71.3996 50.5627L71.6996 50.8752H71.7246L71.7746 50.9127L71.6496 51.1627L71.5496 51.1252L71.5746 51.0252V50.9377C71.5746 50.9127 71.5663 50.8919 71.5496 50.8752H71.5246L71.4996 50.8877L71.1871 51.2002L71.1496 51.2377V51.2627L71.1871 51.3127L71.1121 51.3877L70.8621 51.1127L70.9371 51.0377V51.0627L70.9871 51.0877H71.0121L71.0496 51.0627L71.3746 50.7502L71.3871 50.7252V50.7127L71.3246 50.6752H71.2371L71.1371 50.7002L71.0996 50.6002L71.3496 50.4752L71.3621 50.4877Z" fill="black"/>
<path d="M0 0H40V30H0V0Z" fill="#012169"/>
<path d="M4.6875 0L19.9375 11.3125L35.125 0H40V3.875L25 15.0625L40 26.1875V30H35L20 18.8125L5.0625 30H0V26.25L14.9375 15.125L0 4V0H4.6875Z" fill="white"/>
<path d="M26.5 17.5625L40 27.5V30L23.0625 17.5625H26.5ZM15 18.8125L15.375 21L3.375 30H0L15 18.8125ZM40 0V0.1875L24.4375 11.9375L24.5625 9.1875L36.875 0H40ZM0 0L14.9375 11H11.1875L0 2.625V0Z" fill="#C8102E"/>
<path d="M15.0625 0V30H25.0625V0H15.0625ZM0 10V20H40V10H0Z" fill="white"/>
<path d="M0 12.0625V18.0625H40V12.0625H0ZM17.0625 0V30H23.0625V0H17.0625Z" fill="#C8102E"/>
</g>
<defs>
<linearGradient id="paint0_linear_3736_62770" x1="64.5944" y1="18.6758" x2="64.6384" y2="15.8063" gradientUnits="userSpaceOnUse">
<stop stop-color="#474747"/>
<stop offset="1" stop-color="#FF5500"/>
</linearGradient>
<linearGradient id="paint1_linear_3736_62770" x1="63.6189" y1="29.4465" x2="63.6239" y2="31.0677" gradientUnits="userSpaceOnUse">
<stop stop-color="#B50000"/>
<stop offset="1" stop-color="#FFC500"/>
</linearGradient>
<linearGradient id="paint2_linear_3736_62770" x1="70.7361" y1="30.4378" x2="73.384" y2="30.4031" gradientUnits="userSpaceOnUse">
<stop stop-color="#D5DFFF"/>
<stop offset="1" stop-color="white"/>
</linearGradient>
<linearGradient id="paint3_linear_3736_62770" x1="64.0901" y1="18.1313" x2="65.0437" y2="18.1313" gradientUnits="userSpaceOnUse">
<stop stop-color="#474747"/>
<stop offset="1" stop-color="#FF5500"/>
</linearGradient>
<linearGradient id="paint4_linear_3736_62770" x1="77.8868" y1="43.7529" x2="77.4227" y2="40.8689" gradientUnits="userSpaceOnUse">
<stop stop-color="#D5DFFF"/>
<stop offset="1" stop-color="white"/>
</linearGradient>
<linearGradient id="paint5_linear_3736_62770" x1="71.3774" y1="31.4255" x2="70.194" y2="29.517" gradientUnits="userSpaceOnUse">
<stop stop-color="#D5DFFF"/>
<stop offset="1" stop-color="white"/>
</linearGradient>
<clipPath id="clip0_3736_62770">
<rect width="80" height="60" fill="white"/>
</clipPath>
</defs>
</svg>
