<svg width="80" height="60" viewBox="0 0 80 60" fill="none" xmlns="http://www.w3.org/2000/svg">
<g clip-path="url(#clip0_3736_63349)">
<path d="M0 0H80V60H0V0Z" fill="#FFB700"/>
<path d="M3.33789 30.0004L14.3379 3.33789H25.3379V56.6629H14.3379L3.33789 30.0004Z" fill="#FF5B00"/>
<path d="M3.33789 3.33789H14.3379V56.6629H3.33789V3.33789Z" fill="#005641"/>
<path d="M28.6621 3.33789H76.9996V56.6629H28.6621V3.33789Z" fill="#8D2029"/>
<path d="M72.4121 51.0752C72.4121 51.0752 72.8621 51.9877 73.3621 52.3752C74.1121 52.9252 75.6121 52.8752 76.2746 53.5377C77.0371 54.3002 76.2121 55.3127 76.2121 55.4127L76.2621 55.9377C76.2621 55.9377 75.7371 55.9377 75.5121 55.9752C75.1871 56.0252 75.0621 56.3002 74.4371 56.2627C72.8996 56.1627 72.9621 54.7627 72.8746 53.5752C72.7996 53.1252 72.6246 52.5252 72.5121 52.0752C72.4246 51.7002 72.4121 51.0752 72.4121 51.0752Z" fill="#FFB700" stroke="black" stroke-width="0.1375"/>
<path d="M33.25 51.0752C33.25 51.0752 32.8 51.9877 32.3 52.3752C31.55 52.9252 30.05 52.8752 29.3875 53.5377C28.625 54.3002 29.45 55.3127 29.45 55.4127L29.4 55.9377C29.4 55.9377 29.925 55.9377 30.15 55.9752C30.475 56.0252 30.6 56.3002 31.225 56.2627C32.7625 56.1627 32.7 54.7627 32.7875 53.5752C32.8625 53.1252 33.0375 52.5252 33.15 52.0752C33.2375 51.7002 33.25 51.0752 33.25 51.0752Z" fill="#FFB700" stroke="black" stroke-width="0.1375"/>
<path d="M72.4121 8.9248C72.4121 8.9248 72.8621 8.01231 73.3621 7.62481C74.1121 7.07481 75.6121 7.12481 76.2746 6.46231C77.0371 5.69981 76.2121 4.68731 76.2121 4.58731L76.2621 4.06231C76.2621 4.06231 75.7371 4.06231 75.5121 4.02481C75.1871 3.97481 75.0621 3.6998 74.4371 3.7373C72.8996 3.8373 72.9621 5.2373 72.8746 6.4248C72.7996 6.8748 72.6246 7.4748 72.5121 7.9248C72.4246 8.2998 72.4121 8.9248 72.4121 8.9248Z" fill="#FFB700" stroke="black" stroke-width="0.1375"/>
<path d="M33.2627 8.9248C33.2627 8.9248 32.8127 8.01231 32.3127 7.62481C31.5627 7.07481 30.0627 7.12481 29.4002 6.46231C28.6377 5.69981 29.4627 4.68731 29.4627 4.58731L29.4127 4.06231C29.4127 4.06231 29.9377 4.06231 30.1627 4.02481C30.4877 3.97481 30.6127 3.6998 31.2377 3.7373C32.7752 3.8373 32.7127 5.2373 32.8002 6.4248C32.8752 6.8748 33.0502 7.4748 33.1627 7.9248C33.2502 8.2998 33.2627 8.9248 33.2627 8.9248Z" fill="#FFB700" stroke="black" stroke-width="0.1375"/>
<path d="M45.4369 42.4751L45.7244 42.3001L45.8494 42.4751C46.0119 42.7001 46.4744 42.6876 46.7744 42.4751L47.0119 42.2876L47.2119 42.4626C47.4619 42.7001 47.9369 42.7001 48.2494 42.4626C48.4619 42.3126 48.4994 42.3001 48.6244 42.4251C48.7119 42.5001 48.9619 42.5751 49.1744 42.6126C49.5744 42.6626 49.5744 42.6626 49.7994 42.3126C49.9994 42.0251 50.0244 41.9126 49.9869 41.6251C49.952 41.4055 49.927 41.1844 49.9119 40.9626C49.8869 40.6376 49.8994 40.6376 50.3619 40.4626C50.5915 40.3922 50.8168 40.3087 51.0369 40.2126C51.2244 40.1001 51.7494 39.4876 51.7494 39.3626C51.7494 39.3376 51.5494 39.2876 51.2994 39.2626C50.2994 39.1376 50.1369 38.6126 50.7869 37.6376C51.8244 36.0126 52.4619 34.4501 52.4619 33.4626C52.4619 33.0126 52.4994 32.8626 52.5494 32.9626C52.7869 33.3501 52.3619 35.0126 51.7369 36.2126L51.4869 36.6876L51.7244 36.6376C51.8494 36.6001 52.6494 36.2626 53.4744 35.8876C55.7494 34.8626 56.5244 34.6626 57.9994 34.7251C59.2369 34.7751 59.7494 35.0126 60.6244 35.9251C61.0869 36.4251 61.5369 36.7626 62.3494 37.2751C64.0744 38.3501 64.1494 38.4501 64.2369 39.7251C64.3244 41.0126 64.2744 41.0876 63.2994 41.3001C62.4619 41.4876 61.9369 41.8751 61.7994 42.4251C61.7244 42.7001 61.8869 42.7126 62.2994 42.4376L62.6119 42.2376L62.7494 42.4376C62.9369 42.7001 63.3119 42.7001 63.6244 42.4376L63.8744 42.2501L64.1244 42.4376C64.4994 42.7501 64.9994 42.6751 65.1494 42.2876C65.1744 42.2251 65.2494 42.2376 65.3994 42.3751C65.6869 42.6251 66.3994 42.7251 66.4744 42.5251C66.4994 42.4501 66.4494 42.2751 66.3494 42.1251C65.9369 41.5001 65.7994 41.2126 65.7994 40.8751C65.7994 40.4001 65.9244 40.1626 66.4744 39.7876C67.1244 39.3126 67.3244 38.7126 66.8244 38.7126C66.5244 38.7126 66.2119 38.4376 66.0119 38.0001C65.6119 37.1001 65.6994 36.1001 66.2994 34.4251C66.7594 33.4395 66.9902 32.3626 66.9744 31.2751C66.9744 30.3501 66.9494 30.2001 66.7494 29.6876C66.593 29.3313 66.4003 28.992 66.1744 28.6751L65.8244 28.2126L66.2619 27.8376C67.6119 26.7251 67.3369 24.9001 65.7119 24.2001C65.2119 23.9751 65.0869 23.9626 64.2119 23.9626C63.7119 23.9626 62.8994 24.0376 62.4619 24.1251C61.8747 24.218 61.2814 24.2681 60.6869 24.2751C59.8369 24.2751 59.6869 24.2501 59.3619 24.0751C59.0244 23.9001 58.9619 23.8126 58.8994 23.3876C58.8934 23.3475 58.8777 23.3095 58.8538 23.2769C58.8298 23.2442 58.7983 23.2179 58.7619 23.2001C58.6369 23.1626 58.1119 23.6251 58.0369 23.8251C57.9869 23.9376 57.9619 23.9251 57.8494 23.7876C57.7434 23.6514 57.6591 23.4996 57.5994 23.3376C57.4744 22.9251 57.6369 22.6251 58.1244 22.3876L58.4994 22.2126L58.2744 22.0751C57.8244 21.7876 57.0494 21.9876 56.7744 22.4501C56.6869 22.5751 56.5994 22.7001 56.5744 22.7001C56.5494 22.7001 56.3994 22.5751 56.2494 22.4126C55.6619 21.8376 55.8619 20.9876 56.6494 20.7376C57.0619 20.6001 57.4369 20.7001 57.5119 20.9876C57.6369 21.4001 57.9869 20.8501 57.9244 20.3376C57.8869 20.0001 57.8869 19.9876 58.1244 19.9876C58.4494 19.9876 59.1244 20.4126 59.3494 20.7376C59.5994 21.1251 59.5744 21.7376 59.2994 22.1876L59.0869 22.5376L59.3744 22.4876C59.7744 22.4001 60.1744 22.1501 60.3744 21.8376C60.4798 21.6385 60.539 21.4183 60.5477 21.1933C60.5563 20.9682 60.5142 20.7441 60.4244 20.5376C60.2369 20.2001 60.2619 20.1501 60.5369 20.2626C60.9869 20.4501 61.2369 20.6626 61.4119 21.0251C61.5869 21.3501 61.5994 21.4251 61.5119 21.7751C61.4521 21.9882 61.3593 22.1906 61.2369 22.3751C61.0869 22.5751 61.0744 22.6126 61.1994 22.6126C61.4244 22.6126 61.8744 22.4001 62.0369 22.2376C62.1244 22.1376 62.2494 21.9251 62.3119 21.7376L62.4369 21.4251L62.5619 21.6751C62.7494 22.0126 63.1244 22.3251 63.5744 22.5251C64.0619 22.7251 64.2619 22.7376 64.0119 22.5501C63.8369 22.4251 63.5119 21.4876 63.6244 21.4001C64.1639 21.7022 64.6565 22.0811 65.0869 22.5251C65.7994 23.1626 66.2494 23.3751 66.8994 23.3751C67.7369 23.3751 68.2244 22.6501 67.8494 21.9626C67.6369 21.5626 67.1494 21.5001 66.8494 21.8376C66.7244 22.0001 66.6869 22.1251 66.7244 22.3001C66.7744 22.5001 66.7619 22.5251 66.5744 22.5251C66.3244 22.5251 65.8494 22.2126 64.9994 21.5001C63.8163 20.4819 62.4562 19.6896 60.9869 19.1626C59.9915 18.9325 58.9637 18.8775 57.9494 19.0001C57.1494 19.1501 56.1994 19.6126 55.6744 20.1001C54.7619 20.9751 54.7494 22.1376 55.6369 23.2001L55.8869 23.5001L55.7244 23.7751C55.6022 23.9721 55.5416 24.2011 55.5505 24.4327C55.5594 24.6644 55.6374 24.8881 55.7744 25.0751C55.8994 25.2501 56.0244 25.3876 56.0619 25.3876C56.0869 25.3876 56.1119 25.2751 56.1244 25.1376C56.1494 24.8001 56.2994 24.5751 56.5494 24.4876C56.7744 24.4001 56.9244 24.4501 57.9494 24.8626C59.0369 25.2876 60.8244 25.3126 62.7244 24.9376C63.5479 24.7474 64.4049 24.756 65.2244 24.9626C66.1244 25.3376 66.3244 26.3001 65.6744 27.0251C65.3869 27.3501 65.1244 27.4751 64.2119 27.7251C63.4175 27.9346 62.5916 27.9981 61.7744 27.9126C60.4244 27.9001 59.9369 27.9251 59.3994 28.0376C58.7869 28.1626 58.4244 28.1751 56.6744 28.1376L54.6369 28.0876L54.8619 28.2626C54.9824 28.3696 55.1121 28.4658 55.2494 28.5501C55.4119 28.6376 55.3994 28.6501 55.1744 28.7376C55.0494 28.7876 54.7494 28.8251 54.5119 28.8251H54.0994L54.0494 29.1751C54.0157 29.34 54.0157 29.5101 54.0494 29.6751C54.0994 29.8001 54.0744 29.8251 53.9494 29.7751C53.8619 29.7376 53.6244 29.6751 53.4119 29.6376C53.1975 29.5916 52.9882 29.5246 52.7869 29.4376C52.5494 29.3126 52.5244 29.3126 52.4369 29.4751C52.3619 29.6001 51.6619 30.1251 51.5619 30.1251C51.5167 29.8008 51.4241 29.4849 51.2869 29.1876C51.1619 28.9251 51.0494 28.6251 51.0119 28.5376C50.9744 28.4001 50.9494 28.3876 50.8869 28.5001C50.8494 28.5626 50.7994 28.7501 50.7619 28.9001C50.7181 29.1025 50.6422 29.2967 50.5369 29.4751L50.3494 29.7501L50.2244 29.5126C50.0994 29.2626 49.8994 28.9876 49.8244 28.9876C49.7994 28.9876 49.7619 29.0626 49.7369 29.1751C49.6744 29.3751 49.1869 29.9626 49.0619 29.9626C49.0244 29.9626 48.9869 29.8001 48.9869 29.5876C48.9869 29.4001 48.9494 29.2251 48.8994 29.2251C48.8494 29.2251 48.8119 29.2876 48.8119 29.3501C48.8119 29.5001 48.3994 29.9751 48.2494 29.9751C48.1994 29.9751 48.0994 30.0251 48.0369 30.1001C47.8869 30.2626 47.7619 30.2376 47.8244 30.0501C47.8419 29.89 47.8249 29.728 47.7744 29.5751L47.6494 29.1751C47.6244 29.1126 47.4744 29.1376 47.1494 29.2376C46.6494 29.4001 46.4744 29.3626 46.7369 29.1626C46.8369 29.0876 46.9869 28.8251 47.0619 28.5876C47.1494 28.3376 47.2744 28.1251 47.3369 28.1001C47.4244 28.0751 47.4244 28.1001 47.3119 28.2501C47.2396 28.3452 47.1923 28.4569 47.1744 28.5751C47.1744 28.6376 47.1119 28.8001 47.0494 28.9376C46.9744 29.0626 46.9244 29.1876 46.9369 29.2001C46.9494 29.2126 47.1494 29.1376 47.3744 29.0376L47.7744 28.8376V29.0126C47.7744 29.1126 47.8244 29.3626 47.8869 29.5751L47.9994 29.9501L48.2744 29.8251C48.5494 29.7001 48.8119 29.2501 48.8119 28.8876C48.8119 28.7126 48.9119 28.7376 48.9619 28.9251C48.9619 28.9751 49.0369 29.1876 49.0869 29.3876L49.2119 29.7376L49.3994 29.5126C49.5119 29.3876 49.6369 29.1376 49.6869 28.9751C49.7869 28.6751 49.9369 28.5376 49.9369 28.7626C49.9369 28.9126 50.3619 29.4876 50.4369 29.4376C50.4869 29.4126 50.5619 29.2001 50.6244 28.9626C50.7494 28.4626 50.9369 28.1376 51.0619 28.2126C51.1119 28.2376 51.1244 28.2876 51.0994 28.3376C51.0744 28.3626 51.1744 28.6876 51.3244 29.0376C51.4331 29.2999 51.5414 29.5624 51.6494 29.8251C51.6994 29.9501 51.7494 29.9501 52.0619 29.6626C52.2494 29.4876 52.4369 29.3001 52.4494 29.2376C52.4869 29.1376 52.5244 29.1501 52.6994 29.2626C53.0679 29.4573 53.4717 29.5763 53.8869 29.6126C53.9119 29.5876 53.9369 29.3626 53.9369 29.1126L53.9494 28.6501L54.1994 28.7001C54.3244 28.7376 54.6119 28.7376 54.8244 28.7001L55.1994 28.6501L54.8619 28.4001C54.6744 28.2751 54.4869 28.1126 54.4369 28.0376C54.3994 27.9626 54.2244 27.8876 54.0369 27.8751C53.5244 27.8251 52.6119 27.3251 52.6119 27.0751C52.6119 27.0251 52.7369 27.1126 52.8869 27.2501C53.2369 27.5626 53.7119 27.7501 54.1369 27.7501H54.4369L54.2494 27.5001C54.1158 27.3062 54.0301 27.0835 53.9994 26.8501C53.9744 26.4751 53.9369 26.4251 53.5494 26.1626C53.3247 26.0034 53.1155 25.8234 52.9244 25.6251L52.7119 25.3876L52.5994 25.6751C52.5369 25.8376 52.4744 25.9626 52.4369 25.9626C52.4119 25.9626 52.2869 25.8626 52.1869 25.7501C52.1166 25.6686 52.0318 25.6008 51.9369 25.5501C51.8994 25.5501 51.8119 25.7001 51.7119 25.8876L51.5369 26.2251L51.4119 26.0376C51.3007 25.8843 51.1752 25.742 51.0369 25.6126C50.8869 25.4876 50.8244 25.3876 50.8744 25.3876C50.9244 25.3876 51.0869 25.5126 51.2494 25.6751L51.5244 25.9626L51.6494 25.7501C51.7216 25.6028 51.7436 25.436 51.7119 25.2751C51.6619 25.0501 51.6744 25.0376 51.7494 25.1876C51.8572 25.3287 51.9833 25.4548 52.1244 25.5626L52.3994 25.7876L52.5869 25.4501C52.7744 25.1001 52.7744 25.1001 52.8494 25.3126C52.9744 25.5751 53.7869 26.2501 54.4744 26.6376C54.5994 26.7001 54.5494 26.5001 54.3494 26.0126C54.2894 25.8524 54.2556 25.6835 54.2494 25.5126C54.2494 25.2876 54.1869 25.1876 53.8994 24.9626C53.7207 24.8483 53.5711 24.6939 53.4626 24.5116C53.3541 24.3293 53.2897 24.1242 53.2744 23.9126C53.2369 23.7001 53.1619 23.4751 53.0994 23.4001C53.0244 23.2751 52.9994 23.3501 53.0244 23.7251C53.0494 23.9876 53.0119 24.3126 52.9494 24.4501L52.8494 24.7001L52.7744 24.4876C52.7244 24.3751 52.5244 24.1751 52.3369 24.0501C52.1494 23.9251 52.0119 23.8001 52.0369 23.7751C52.0619 23.7501 52.2619 23.8626 52.4744 24.0251C52.8119 24.2876 52.8744 24.3126 52.9244 24.2001C52.9744 24.0751 52.9244 23.5001 52.8244 23.1001C52.7744 22.9001 52.7744 22.9001 53.0244 23.1501C53.1994 23.3251 53.2994 23.5501 53.3869 23.9251C53.4869 24.4001 53.5369 24.4876 53.9744 24.8751C54.2369 25.1126 54.4744 25.2876 54.4869 25.2751C54.5119 25.2501 54.5369 24.6501 54.5619 23.9251C54.6119 22.5376 54.5619 22.2001 54.2244 21.7751L54.0494 21.5501L54.3244 21.2626C54.6325 20.9679 54.8383 20.5825 54.9119 20.1626L54.9619 19.8251L54.6619 20.1126C54.4119 20.3501 54.2869 20.4001 53.9994 20.4001C53.7119 20.4001 53.5994 20.3501 53.4119 20.1501C53.1198 19.8689 52.7638 19.663 52.3744 19.5501C52.2244 19.5001 52.1744 19.5251 52.1744 19.6251C52.1744 19.7001 52.0994 19.9001 51.9994 20.0876L51.8244 20.4126L51.4494 20.0376C51.2119 19.8251 50.9494 19.6376 50.7369 19.5876C50.2244 19.4626 50.1994 19.4626 50.1994 19.8501C50.1994 20.4376 49.9494 20.5501 49.4994 20.1626C49.1494 19.8626 48.8744 19.7876 48.2119 19.8751L47.7119 19.9251L47.7994 20.1501C47.8744 20.3376 47.8619 20.4251 47.6994 20.6376C47.4369 20.9876 47.0994 21.1376 46.5744 21.1376C46.3244 21.1376 46.0244 21.1876 45.8994 21.2501C45.7744 21.3126 45.4494 21.3751 45.1869 21.4001C44.9369 21.4251 44.6494 21.4751 44.5619 21.5001C44.4369 21.5501 44.4369 21.5001 44.4744 21.2251C44.5369 20.8001 44.2244 20.4751 43.7619 20.4751C43.1494 20.4751 42.8744 21.0251 43.1119 21.7501C43.1605 21.9065 43.2022 22.065 43.2369 22.2251C43.4011 22.5377 43.6214 22.8173 43.8869 23.0501C44.2119 23.3751 44.5119 23.7126 44.5619 23.8001C44.6625 23.9304 44.7905 24.0371 44.9369 24.1126L45.2119 24.2626L45.1744 23.9626C45.1369 23.6376 45.1994 23.5876 45.3744 23.8251C45.4369 23.9001 45.5994 24.0376 45.7244 24.1126C45.9369 24.2376 45.9744 24.2376 45.9744 24.1376C45.9744 24.0626 46.0119 23.9001 46.0619 23.7751L46.1494 23.5501L46.3119 23.8626C46.3994 24.0376 46.6869 24.4251 46.9494 24.7376C47.4619 25.3251 47.7869 25.9876 47.6244 26.1376C47.5494 26.2001 47.3744 26.2001 46.9994 26.1251C46.7244 26.0751 46.3744 26.0376 46.2244 26.0626C45.9369 26.1001 45.9119 26.0626 46.0994 25.8376C46.2869 25.5876 46.2494 25.5501 45.8744 25.5501C45.4369 25.5501 44.3494 25.3376 43.9244 25.1751C43.5244 25.0126 43.4244 25.0501 43.2994 25.4376L43.0869 26.1376L42.9619 26.5126L43.4119 26.4751C43.6439 26.4508 43.8737 26.409 44.0994 26.3501C44.1879 26.3206 44.2812 26.3079 44.3744 26.3126C44.3994 26.3251 44.3369 26.4751 44.2494 26.6501L44.0744 26.9501L44.3494 26.9001C44.4994 26.8626 44.7244 26.7876 44.8494 26.7251C45.0744 26.6251 45.0994 26.6251 45.2744 26.9126C45.4869 27.2501 45.6494 27.2376 45.6869 26.8751C45.7244 26.5001 45.8494 26.5501 46.0869 27.0501C46.3119 27.5251 46.5369 27.7001 46.5869 27.4251C46.5994 27.3251 46.7119 27.1751 46.8494 27.0751C47.1244 26.8876 47.3244 26.9501 47.4369 27.2376C47.5619 27.5501 47.2869 27.8626 46.5119 28.3376C45.7942 28.7338 45.1766 29.289 44.7065 29.9607C44.2364 30.6323 43.9261 31.4026 43.7994 32.2126C43.5619 33.6876 44.2994 35.2126 45.7494 36.3251C46.4494 36.8501 47.5619 37.4001 47.4869 37.2001C47.1869 36.2876 47.1994 34.5751 47.4994 34.2876C47.5494 34.2376 47.5369 34.4126 47.4619 34.6751C47.2119 35.6626 47.3369 36.4376 47.9619 38.2626C48.5119 39.9126 48.4369 40.6251 47.6369 41.0876C47.3869 41.2376 47.2244 41.2626 46.5369 41.2501C45.7869 41.2501 45.6994 41.2501 45.4619 41.4501C45.1747 41.7434 44.9867 42.1194 44.9244 42.5251C44.9244 42.6876 45.0994 42.6626 45.4244 42.4751H45.4369Z" fill="#FFB700" stroke="black" stroke-width="0.7"/>
<path d="M57.5623 42.4376L57.8748 42.2376L58.0873 42.4376C58.3623 42.7001 58.6998 42.6876 58.9623 42.4251C59.0873 42.3001 59.1873 42.2251 59.1998 42.2376L59.3123 42.4376C59.3748 42.5501 59.5123 42.6001 59.7623 42.6251C60.0498 42.6376 60.1373 42.6251 60.2623 42.4501L60.3873 42.2376L60.6998 42.4376C61.5498 42.9876 61.9998 42.4126 61.6123 41.2751C61.4248 40.7001 61.5373 40.3751 62.1498 39.6501C62.4123 39.3376 62.6248 39.0001 62.6248 38.9001C62.6248 38.7626 62.5748 38.7376 62.2248 38.7501C61.8998 38.7501 61.7998 38.7126 61.6248 38.5251C61.3373 38.2126 61.3623 37.8501 61.6748 37.4501L61.9248 37.1376L61.4748 36.8376C61.1156 36.5723 60.7809 36.2753 60.4748 35.9501C60.2019 35.6281 59.8683 35.363 59.493 35.1699C59.1176 34.9769 58.7079 34.8597 58.2873 34.8251L57.6998 34.7626V35.2126C57.6998 35.7751 57.9748 36.3251 58.6998 37.2501C59.5248 38.3001 59.5748 38.4626 59.6123 39.8376L59.6498 41.0001L59.3998 41.2251C59.1873 41.4251 59.0998 41.4626 58.3998 41.5001C57.7373 41.5376 57.5873 41.5751 57.3998 41.7501C57.1804 41.9101 57.0288 42.1464 56.9748 42.4126C56.9373 42.6001 56.9498 42.6376 57.0873 42.6376C57.1748 42.6376 57.3873 42.5501 57.5623 42.4376ZM39.7873 39.4376C39.8629 39.3266 39.9061 39.1968 39.9123 39.0626C39.9123 38.9376 39.9873 38.8876 40.3123 38.8376L40.6998 38.7876L40.4498 38.5751C40.1373 38.3251 40.0998 38.1376 40.3748 38.1376C40.6498 38.1376 41.0998 37.8626 41.1748 37.6501C41.2123 37.5501 41.1748 37.4251 41.1248 37.3626C40.9748 37.1876 40.6873 37.2126 40.6373 37.4126C40.5748 37.6126 40.4873 37.6126 40.2623 37.4126C39.9498 37.1001 39.9373 36.4626 40.2623 36.0876C40.3998 35.9126 40.3998 35.9126 40.2123 35.7251C40.0123 35.5251 39.8623 35.1501 39.9623 35.0501C39.9873 35.0251 40.1498 35.0501 40.3123 35.1126C40.5623 35.1876 40.6498 35.1876 40.7498 35.1126C41.0373 34.8751 40.7248 34.5751 40.2498 34.6501C40.0498 34.6751 39.9748 34.6501 39.9498 34.5501C39.9248 34.4751 39.7623 34.3751 39.5748 34.3251C39.2373 34.2376 39.2373 34.2376 39.2373 34.4751C39.2373 34.7251 39.0873 34.7751 38.8123 34.6126C38.5873 34.4876 38.3748 34.5876 38.3748 34.8251C38.3748 35.0501 38.5873 35.1501 38.9998 35.1251C39.2998 35.1126 39.3123 35.3376 39.0248 35.6626L38.8123 35.9126L38.9748 36.1501C39.2248 36.5001 39.1998 37.0876 38.9373 37.3876L38.7248 37.6126L38.5873 37.4251C38.3873 37.1751 38.1248 37.1876 38.0498 37.4626C38.0123 37.6376 38.0498 37.7126 38.2748 37.9126C38.4248 38.0376 38.6498 38.1376 38.7623 38.1376C39.0498 38.1376 39.0373 38.3751 38.7373 38.6001L38.4873 38.7876L38.8623 38.8376C39.0623 38.8751 39.2373 38.9251 39.2373 38.9626C39.2373 39.1251 39.4873 39.6126 39.5623 39.6126C39.6123 39.6126 39.7123 39.5251 39.7873 39.4251V39.4376Z" fill="#FFB700" stroke="black" stroke-width="0.7"/>
<path d="M44.5621 37.3627C44.8996 37.2377 45.6246 36.6127 45.6246 36.4752C45.6246 36.4252 45.4246 36.2002 45.1746 35.9752C44.6746 35.5252 44.1121 34.7377 43.9621 34.2877C43.8871 34.0377 43.5246 33.6377 42.4996 32.6377L41.1371 31.3252L40.7496 31.4252C40.5246 31.4752 40.2621 31.5252 40.1621 31.5252C39.9746 31.5252 39.9746 31.5252 40.2246 31.7252L40.4746 31.9252L40.8496 31.7252C41.1871 31.5252 41.1996 31.5252 41.2371 31.6877C41.2621 31.7752 41.2121 31.9377 41.1121 32.0502C41.0246 32.1627 40.9746 32.3002 40.9871 32.3377C41.0246 32.3752 40.9371 32.4627 40.7996 32.5377C40.5496 32.6627 40.3621 33.0752 40.5621 33.0752C40.7496 33.0752 41.1496 32.5752 41.0996 32.4127C41.0746 32.3252 41.0996 32.2377 41.1246 32.2127C41.2871 32.1252 41.2746 32.5127 41.1246 32.7127C41.0246 32.8127 40.9746 32.9377 40.9996 32.9877C41.0246 33.0252 40.9371 33.1127 40.7996 33.1877C40.5496 33.3127 40.3621 33.7252 40.5621 33.7252C40.7621 33.7252 41.1496 33.2502 41.1121 33.0752C41.0871 32.9877 41.0871 32.8877 41.1246 32.8627C41.2371 32.8127 41.2871 33.1127 41.1996 33.2627C41.1766 33.3049 41.1646 33.3522 41.1646 33.4002C41.1646 33.4482 41.1766 33.4955 41.1996 33.5377C41.2871 33.7002 41.1996 34.0002 41.0371 34.1002C40.9746 34.1377 41.0121 34.2252 41.1871 34.3502C41.4371 34.5252 41.4371 34.5502 41.4371 35.3502C41.4371 36.0252 41.4621 36.2002 41.5871 36.3127C41.7121 36.4377 41.7371 36.4377 41.7371 36.3127C41.7371 36.1877 41.9871 36.0127 42.1746 36.0127C42.2371 36.0127 42.5996 36.3252 42.9871 36.7002C43.3746 37.0752 43.7871 37.4127 43.8996 37.4252L44.1746 37.4752C44.2121 37.4752 44.3871 37.4377 44.5621 37.3502V37.3627ZM40.3996 34.1002C40.3996 33.8877 39.9496 33.6502 39.4121 33.6002C38.9746 33.5377 38.9746 33.5502 38.9746 33.7627C38.9746 33.9377 39.0371 34.0127 39.3496 34.1377C39.8246 34.3502 40.3996 34.3252 40.3996 34.1002Z" fill="#FFB700" stroke="black" stroke-width="0.7"/>
<path d="M40.8873 34.0748C41.1123 33.8748 41.2123 33.6498 41.0748 33.6498C40.9248 33.6498 40.5248 33.9998 40.5248 34.1498C40.5248 34.3498 40.5998 34.3373 40.8998 34.0748H40.8873ZM40.4248 33.4373C40.4373 33.3123 40.3623 33.2373 40.1373 33.1248C39.6373 32.9123 39.0623 32.7998 38.9248 32.9123C38.6623 33.1248 38.8373 33.3998 39.2498 33.4498C39.4248 33.4623 39.6498 33.5123 39.7623 33.5623C40.0873 33.6873 40.3873 33.6248 40.4248 33.4373ZM40.4248 32.7748C40.4498 32.6123 40.3373 32.5498 39.4248 32.2248C38.7373 31.9748 38.4373 32.0998 38.6623 32.5123C38.7373 32.6498 38.8623 32.7123 39.1498 32.7623C39.3623 32.7873 39.6498 32.8498 39.7873 32.8998C40.1623 33.0248 40.3873 32.9748 40.4123 32.7748H40.4248ZM40.8748 32.1623C41.0123 32.0248 41.1248 31.8623 41.1248 31.7873C41.1248 31.5998 40.5873 31.9498 40.5123 32.1998C40.4373 32.4873 40.5748 32.4748 40.8873 32.1623H40.8748ZM40.4248 32.1248C40.4498 31.9248 40.1248 31.7498 39.4748 31.6123C38.9873 31.4998 38.7748 31.5623 38.8123 31.7873C38.8373 31.9123 38.9998 31.9998 39.4373 32.1373C40.1748 32.3623 40.3873 32.3623 40.4248 32.1248ZM41.0498 31.1998C41.8998 30.8248 41.9623 29.8873 41.1748 29.6373C40.8498 29.5373 40.6498 29.5998 40.5248 29.8123C40.4248 29.9873 40.4873 30.2873 40.6123 30.2873C40.6623 30.2873 40.6998 30.3498 40.6998 30.4123C40.6998 30.7498 39.4248 30.8873 38.8998 30.6248C38.7123 30.5373 38.6498 30.2873 38.7873 30.2873C38.9123 30.2873 38.9873 30.0373 38.9248 29.8748C38.8498 29.6248 38.5998 29.5498 38.2623 29.6498C37.4748 29.8498 37.4998 30.7748 38.2998 31.1498C39.1849 31.4747 40.1535 31.4923 41.0498 31.1998Z" fill="#FFB700" stroke="black" stroke-width="0.7"/>
<path d="M40.5373 30.4752C40.5873 30.4252 40.5623 30.3502 40.4873 30.3002C40.3123 30.1627 40.3248 29.9502 40.5123 29.7127C40.6623 29.5377 40.6748 29.2627 40.7248 26.5752C40.8123 21.9377 41.1623 18.4502 41.6123 17.6002C41.7998 17.2752 41.7748 17.2752 41.2998 17.6002C40.6767 18.0344 40.1735 18.6192 39.8373 19.3002C39.0623 20.7377 38.7998 22.6752 38.7998 26.8252C38.7998 29.1752 38.8123 29.4877 38.9498 29.7002C39.0748 29.9252 39.0748 30.0002 38.9998 30.2252C38.9373 30.3627 38.9123 30.5127 38.9373 30.5377C39.1123 30.7002 40.3623 30.6627 40.5373 30.4752ZM47.5498 26.0502C47.5873 26.0127 47.5248 25.8002 47.4248 25.6002C47.2748 25.2752 47.2123 25.2252 46.9998 25.2252C46.0003 25.1383 45.0255 24.8671 44.1248 24.4252C43.4873 24.1377 43.2498 24.0752 43.1873 24.1502C42.9873 24.3377 43.3123 24.7752 43.8123 25.0127C44.5481 25.2779 45.3188 25.4337 46.0998 25.4752C46.4373 25.4752 46.4498 25.4752 46.2498 25.7627L46.1248 25.9627H46.4998L47.1248 26.0377C47.4998 26.1252 47.4998 26.1252 47.5498 26.0502Z" fill="#FFB700" stroke="black" stroke-width="0.7"/>
<path d="M51.5 28.1379C51.5 28.0129 51.1375 27.7004 50.7875 27.4879C50.5 27.3254 50.45 27.3129 50.45 27.4504C50.45 27.6504 50.275 28.1629 50.2 28.1629C50.1625 28.1629 50.1 28.0629 50.075 27.9504C50.0375 27.8254 49.9 27.5754 49.7625 27.4129L49.5125 27.1004L49.3375 27.3879C49.1625 27.6629 48.85 27.9254 48.7125 27.9254C48.6875 27.9254 48.675 27.7754 48.7125 27.6129C48.725 27.4129 48.7125 27.2629 48.65 27.2379C48.6 27.2004 48.55 27.2129 48.55 27.2629C48.55 27.3629 48.125 27.8379 48.05 27.8379C48 27.8379 47.95 27.7129 47.925 27.5379L47.825 26.9379C47.8 26.7879 47.8625 26.8879 47.95 27.1879L48.15 27.7004L48.35 27.3879C48.4405 27.2587 48.5082 27.115 48.55 26.9629C48.55 26.9004 48.5875 26.8754 48.6375 26.9004C48.6875 26.9254 48.75 27.1379 48.775 27.3629L48.8375 27.7879L49.0625 27.5379C49.1802 27.4125 49.2888 27.2788 49.3875 27.1379C49.475 26.9879 49.4875 26.9879 49.675 27.1379C49.775 27.2379 49.9375 27.4504 50.0375 27.6254C50.1375 27.8004 50.225 27.9254 50.2375 27.9129L50.3125 27.5129L50.3625 27.1379C50.375 27.0754 51.0375 27.5129 51.2875 27.7254C51.4375 27.8629 51.5875 27.9629 51.6125 27.9379C51.6375 27.9129 51.6625 27.7129 51.6625 27.4754C51.6625 27.1254 51.625 27.0254 51.4125 26.8379C51.1625 26.6129 51.1625 26.6129 51.0625 26.7754C50.9375 26.9879 50.8 26.9879 50.8 26.7754C50.8 26.6254 50.325 26.0379 50.2125 26.0379C50.175 26.0379 50.075 26.1629 49.9875 26.3254C49.9 26.4879 49.8 26.6129 49.775 26.6129C49.65 26.6129 48.9875 25.8629 48.9875 25.7379C48.9875 25.6379 49.0375 25.6629 49.15 25.8379C49.2617 26.0021 49.3917 26.153 49.5375 26.2879C49.7875 26.5129 49.8875 26.4629 49.9875 26.0254C50.025 25.9004 50.075 25.8004 50.1125 25.8004C50.2125 25.8004 50.7875 26.4129 50.8625 26.6129L50.95 26.8129L51.0125 26.5879C51.0875 26.3129 51.175 26.3129 51.3 26.5629C51.35 26.6629 51.6 26.8879 51.85 27.0379L52.3125 27.3379L52.4 27.0379C52.45 26.8754 52.525 26.7879 52.55 26.8379C52.6 26.9004 52.475 27.4004 52.3875 27.5004C52.3875 27.5129 52.225 27.4254 52.0625 27.3129L51.75 27.0879V27.4879C51.75 27.7004 51.725 27.9629 51.7 28.0629C51.6375 28.2629 51.4875 28.3129 51.4875 28.1379H51.5ZM49.1875 24.9629C48.6375 24.5129 48.5625 24.4129 48.5625 24.1879L48.575 23.9629L48.6125 24.1754C48.6375 24.3004 48.7875 24.5004 48.9625 24.6504L49.2875 24.9004L49.475 24.6754C49.5875 24.5504 49.675 24.4004 49.675 24.3504C49.675 24.2004 49.7 24.2129 50.075 24.5379C50.4 24.8254 50.4125 24.8254 50.45 24.6379C50.4875 24.5379 50.475 24.3379 50.45 24.2004C50.325 23.8254 50.35 23.7754 50.5125 24.0004L50.8125 24.3504C50.9375 24.4879 50.95 24.4879 51 24.3129C51.0375 24.2004 51.0625 24.0129 51.0625 23.8879V23.6504L51.35 23.9879C51.6375 24.3129 51.6625 24.3254 51.7375 24.1629C51.8 24.0754 51.8375 23.8629 51.8375 23.7004C51.8375 23.4754 51.8625 23.4254 51.9125 23.5004C52.0125 23.6504 51.95 24.0254 51.775 24.3504L51.65 24.6004L51.4875 24.3379C51.275 24.0129 51.2 24.0129 51.075 24.3629C50.95 24.7004 50.8625 24.7254 50.7375 24.4629C50.6625 24.3004 50.6375 24.3254 50.5875 24.6754L50.525 25.0504L50.15 24.7629L49.775 24.4754L49.5875 24.6629C49.5 24.7754 49.425 24.9129 49.425 24.9629C49.425 25.0879 49.325 25.0879 49.1875 24.9629ZM54.0625 23.2629C53.875 23.0879 53.7375 22.9129 53.7625 22.8879C53.8 22.8504 53.825 22.8379 53.8375 22.8629C53.9585 22.9918 54.0835 23.1169 54.2125 23.2379C54.6375 23.6879 54.55 23.7004 54.075 23.2629H54.0625ZM47.5625 22.5879C47.3875 22.3379 47.4 22.1879 47.625 21.9129C47.775 21.7254 47.85 21.7004 48.125 21.7379C48.3125 21.7504 48.7 21.9129 48.9875 22.0879C49.4029 22.3361 49.8785 22.4658 50.3625 22.4629L50.15 22.1129C49.875 21.7004 49.875 21.6504 50.2 21.9004C50.525 22.1629 50.9125 22.2379 51.7875 22.2129L52.2125 22.2004L51.9625 21.9504C51.625 21.6129 51.725 21.5754 52.1125 21.9129C52.4625 22.2254 52.45 22.2504 51.6875 22.3254C51.3695 22.3575 51.0484 22.3364 50.7375 22.2629C50.3125 22.1379 50.2875 22.1504 50.375 22.2879C50.425 22.3754 50.5 22.4379 50.5375 22.4379C50.5875 22.4379 50.625 22.4879 50.625 22.5379C50.625 22.7004 49.7 22.5504 49.25 22.3379C48.25 21.8254 48.125 21.7754 47.875 21.8504C47.8084 21.876 47.7476 21.9146 47.696 21.964C47.6445 22.0133 47.6034 22.0725 47.575 22.1379C47.4125 22.5504 48 22.8754 48.2375 22.5129C48.3125 22.4004 48.3 22.3379 48.175 22.2004C48 22.0254 48.025 22.0004 48.25 22.0754C48.4125 22.1379 48.425 22.5254 48.275 22.6754C48.1125 22.8379 47.7125 22.8004 47.5625 22.5879Z" fill="black" stroke="black" stroke-width="0.7"/>
<path d="M51.5498 21.5755C51.4248 21.4505 51.5248 21.4255 52.0873 21.413C52.7873 21.4005 53.2123 21.288 53.7123 20.963C54.1123 20.713 54.2248 20.763 53.8373 21.0255C53.4998 21.2755 52.9623 21.4505 52.4248 21.5005L51.7873 21.588C51.6873 21.613 51.5748 21.6005 51.5373 21.5755H51.5498Z" fill="black" stroke="black" stroke-width="0.7"/>
<path d="M45.4369 42.4751L45.7244 42.3001L45.8494 42.4751C46.0119 42.7001 46.4744 42.6876 46.7744 42.4751L47.0119 42.2876L47.2119 42.4626C47.4619 42.7001 47.9369 42.7001 48.2494 42.4626C48.4619 42.3126 48.4994 42.3001 48.6244 42.4251C48.7119 42.5001 48.9619 42.5751 49.1744 42.6126C49.5744 42.6626 49.5744 42.6626 49.7994 42.3126C49.9994 42.0251 50.0244 41.9126 49.9869 41.6251C49.952 41.4055 49.927 41.1844 49.9119 40.9626C49.8869 40.6376 49.8994 40.6376 50.3619 40.4626C50.5915 40.3922 50.8168 40.3087 51.0369 40.2126C51.2244 40.1001 51.7494 39.4876 51.7494 39.3626C51.7494 39.3376 51.5494 39.2876 51.2994 39.2626C50.2994 39.1376 50.1369 38.6126 50.7869 37.6376C51.8244 36.0126 52.4619 34.4501 52.4619 33.4626C52.4619 33.0126 52.4994 32.8626 52.5494 32.9626C52.7869 33.3501 52.3619 35.0126 51.7369 36.2126L51.4869 36.6876L51.7244 36.6376C51.8494 36.6001 52.6494 36.2626 53.4744 35.8876C55.7494 34.8626 56.5244 34.6626 57.9994 34.7251C59.2369 34.7751 59.7494 35.0126 60.6244 35.9251C61.0869 36.4251 61.5369 36.7626 62.3494 37.2751C64.0744 38.3501 64.1494 38.4501 64.2369 39.7251C64.3244 41.0126 64.2744 41.0876 63.2994 41.3001C62.4619 41.4876 61.9369 41.8751 61.7994 42.4251C61.7244 42.7001 61.8869 42.7126 62.2994 42.4376L62.6119 42.2376L62.7494 42.4376C62.9369 42.7001 63.3119 42.7001 63.6244 42.4376L63.8744 42.2501L64.1244 42.4376C64.4994 42.7501 64.9994 42.6751 65.1494 42.2876C65.1744 42.2251 65.2494 42.2376 65.3994 42.3751C65.6869 42.6251 66.3994 42.7251 66.4744 42.5251C66.4994 42.4501 66.4494 42.2751 66.3494 42.1251C65.9369 41.5001 65.7994 41.2126 65.7994 40.8751C65.7994 40.4001 65.9244 40.1626 66.4744 39.7876C67.1244 39.3126 67.3244 38.7126 66.8244 38.7126C66.5244 38.7126 66.2119 38.4376 66.0119 38.0001C65.6119 37.1001 65.6994 36.1001 66.2994 34.4251C66.7594 33.4395 66.9902 32.3626 66.9744 31.2751C66.9744 30.3501 66.9494 30.2001 66.7494 29.6876C66.593 29.3313 66.4003 28.992 66.1744 28.6751L65.8244 28.2126L66.2619 27.8376C67.6119 26.7251 67.3369 24.9001 65.7119 24.2001C65.2119 23.9751 65.0869 23.9626 64.2119 23.9626C63.7119 23.9626 62.8994 24.0376 62.4619 24.1251C61.8747 24.218 61.2814 24.2681 60.6869 24.2751C59.8369 24.2751 59.6869 24.2501 59.3619 24.0751C59.0244 23.9001 58.9619 23.8126 58.8994 23.3876C58.8934 23.3475 58.8777 23.3095 58.8538 23.2769C58.8298 23.2442 58.7983 23.2179 58.7619 23.2001C58.6369 23.1626 58.1119 23.6251 58.0369 23.8251C57.9869 23.9376 57.9619 23.9251 57.8494 23.7876C57.7434 23.6514 57.6591 23.4996 57.5994 23.3376C57.4744 22.9251 57.6369 22.6251 58.1244 22.3876L58.4994 22.2126L58.2744 22.0751C57.8244 21.7876 57.0494 21.9876 56.7744 22.4501C56.6869 22.5751 56.5994 22.7001 56.5744 22.7001C56.5494 22.7001 56.3994 22.5751 56.2494 22.4126C55.6619 21.8376 55.8619 20.9876 56.6494 20.7376C57.0619 20.6001 57.4369 20.7001 57.5119 20.9876C57.6369 21.4001 57.9869 20.8501 57.9244 20.3376C57.8869 20.0001 57.8869 19.9876 58.1244 19.9876C58.4494 19.9876 59.1244 20.4126 59.3494 20.7376C59.5994 21.1251 59.5744 21.7376 59.2994 22.1876L59.0869 22.5376L59.3744 22.4876C59.7744 22.4001 60.1744 22.1501 60.3744 21.8376C60.4798 21.6385 60.539 21.4183 60.5477 21.1933C60.5563 20.9682 60.5142 20.7441 60.4244 20.5376C60.2369 20.2001 60.2619 20.1501 60.5369 20.2626C60.9869 20.4501 61.2369 20.6626 61.4119 21.0251C61.5869 21.3501 61.5994 21.4251 61.5119 21.7751C61.4521 21.9882 61.3593 22.1906 61.2369 22.3751C61.0869 22.5751 61.0744 22.6126 61.1994 22.6126C61.4244 22.6126 61.8744 22.4001 62.0369 22.2376C62.1244 22.1376 62.2494 21.9251 62.3119 21.7376L62.4369 21.4251L62.5619 21.6751C62.7494 22.0126 63.1244 22.3251 63.5744 22.5251C64.0619 22.7251 64.2619 22.7376 64.0119 22.5501C63.8369 22.4251 63.5119 21.4876 63.6244 21.4001C64.1639 21.7022 64.6565 22.0811 65.0869 22.5251C65.7994 23.1626 66.2494 23.3751 66.8994 23.3751C67.7369 23.3751 68.2244 22.6501 67.8494 21.9626C67.6369 21.5626 67.1494 21.5001 66.8494 21.8376C66.7244 22.0001 66.6869 22.1251 66.7244 22.3001C66.7744 22.5001 66.7619 22.5251 66.5744 22.5251C66.3244 22.5251 65.8494 22.2126 64.9994 21.5001C63.8163 20.4819 62.4562 19.6896 60.9869 19.1626C59.9915 18.9325 58.9637 18.8775 57.9494 19.0001C57.1494 19.1501 56.1994 19.6126 55.6744 20.1001C54.7619 20.9751 54.7494 22.1376 55.6369 23.2001L55.8869 23.5001L55.7244 23.7751C55.6022 23.9721 55.5416 24.2011 55.5505 24.4327C55.5594 24.6644 55.6374 24.8881 55.7744 25.0751C55.8994 25.2501 56.0244 25.3876 56.0619 25.3876C56.0869 25.3876 56.1119 25.2751 56.1244 25.1376C56.1494 24.8001 56.2994 24.5751 56.5494 24.4876C56.7744 24.4001 56.9244 24.4501 57.9494 24.8626C59.0369 25.2876 60.8244 25.3126 62.7244 24.9376C63.5479 24.7474 64.4049 24.756 65.2244 24.9626C66.1244 25.3376 66.3244 26.3001 65.6744 27.0251C65.3869 27.3501 65.1244 27.4751 64.2119 27.7251C63.4175 27.9346 62.5916 27.9981 61.7744 27.9126C60.4244 27.9001 59.9369 27.9251 59.3994 28.0376C58.7869 28.1626 58.4244 28.1751 56.6744 28.1376L54.6369 28.0876L54.8619 28.2626C54.9824 28.3696 55.1121 28.4658 55.2494 28.5501C55.4119 28.6376 55.3994 28.6501 55.1744 28.7376C55.0494 28.7876 54.7494 28.8251 54.5119 28.8251H54.0994L54.0494 29.1751C54.0157 29.34 54.0157 29.5101 54.0494 29.6751C54.0994 29.8001 54.0744 29.8251 53.9494 29.7751C53.8619 29.7376 53.6244 29.6751 53.4119 29.6376C53.1975 29.5916 52.9882 29.5246 52.7869 29.4376C52.5494 29.3126 52.5244 29.3126 52.4369 29.4751C52.3619 29.6001 51.6619 30.1251 51.5619 30.1251C51.5167 29.8008 51.4241 29.4849 51.2869 29.1876C51.1619 28.9251 51.0494 28.6251 51.0119 28.5376C50.9744 28.4001 50.9494 28.3876 50.8869 28.5001C50.8494 28.5626 50.7994 28.7501 50.7619 28.9001C50.7181 29.1025 50.6422 29.2967 50.5369 29.4751L50.3494 29.7501L50.2244 29.5126C50.0994 29.2626 49.8994 28.9876 49.8244 28.9876C49.7994 28.9876 49.7619 29.0626 49.7369 29.1751C49.6744 29.3751 49.1869 29.9626 49.0619 29.9626C49.0244 29.9626 48.9869 29.8001 48.9869 29.5876C48.9869 29.4001 48.9494 29.2251 48.8994 29.2251C48.8494 29.2251 48.8119 29.2876 48.8119 29.3501C48.8119 29.5001 48.3994 29.9751 48.2494 29.9751C48.1994 29.9751 48.0994 30.0251 48.0369 30.1001C47.8869 30.2626 47.7619 30.2376 47.8244 30.0501C47.8419 29.89 47.8249 29.728 47.7744 29.5751L47.6494 29.1751C47.6244 29.1126 47.4744 29.1376 47.1494 29.2376C46.6494 29.4001 46.4744 29.3626 46.7369 29.1626C46.8369 29.0876 46.9869 28.8251 47.0619 28.5876C47.1494 28.3376 47.2744 28.1251 47.3369 28.1001C47.4244 28.0751 47.4244 28.1001 47.3119 28.2501C47.2396 28.3452 47.1923 28.4569 47.1744 28.5751C47.1744 28.6376 47.1119 28.8001 47.0494 28.9376C46.9744 29.0626 46.9244 29.1876 46.9369 29.2001C46.9494 29.2126 47.1494 29.1376 47.3744 29.0376L47.7744 28.8376V29.0126C47.7744 29.1126 47.8244 29.3626 47.8869 29.5751L47.9994 29.9501L48.2744 29.8251C48.5494 29.7001 48.8119 29.2501 48.8119 28.8876C48.8119 28.7126 48.9119 28.7376 48.9619 28.9251C48.9619 28.9751 49.0369 29.1876 49.0869 29.3876L49.2119 29.7376L49.3994 29.5126C49.5119 29.3876 49.6369 29.1376 49.6869 28.9751C49.7869 28.6751 49.9369 28.5376 49.9369 28.7626C49.9369 28.9126 50.3619 29.4876 50.4369 29.4376C50.4869 29.4126 50.5619 29.2001 50.6244 28.9626C50.7494 28.4626 50.9369 28.1376 51.0619 28.2126C51.1119 28.2376 51.1244 28.2876 51.0994 28.3376C51.0744 28.3626 51.1744 28.6876 51.3244 29.0376C51.4331 29.2999 51.5414 29.5624 51.6494 29.8251C51.6994 29.9501 51.7494 29.9501 52.0619 29.6626C52.2494 29.4876 52.4369 29.3001 52.4494 29.2376C52.4869 29.1376 52.5244 29.1501 52.6994 29.2626C53.0679 29.4573 53.4717 29.5763 53.8869 29.6126C53.9119 29.5876 53.9369 29.3626 53.9369 29.1126L53.9494 28.6501L54.1994 28.7001C54.3244 28.7376 54.6119 28.7376 54.8244 28.7001L55.1994 28.6501L54.8619 28.4001C54.6744 28.2751 54.4869 28.1126 54.4369 28.0376C54.3994 27.9626 54.2244 27.8876 54.0369 27.8751C53.5244 27.8251 52.6119 27.3251 52.6119 27.0751C52.6119 27.0251 52.7369 27.1126 52.8869 27.2501C53.2369 27.5626 53.7119 27.7501 54.1369 27.7501H54.4369L54.2494 27.5001C54.1158 27.3062 54.0301 27.0835 53.9994 26.8501C53.9744 26.4751 53.9369 26.4251 53.5494 26.1626C53.3247 26.0034 53.1155 25.8234 52.9244 25.6251L52.7119 25.3876L52.5994 25.6751C52.5369 25.8376 52.4744 25.9626 52.4369 25.9626C52.4119 25.9626 52.2869 25.8626 52.1869 25.7501C52.1166 25.6686 52.0318 25.6008 51.9369 25.5501C51.8994 25.5501 51.8119 25.7001 51.7119 25.8876L51.5369 26.2251L51.4119 26.0376C51.3007 25.8843 51.1752 25.742 51.0369 25.6126C50.8869 25.4876 50.8244 25.3876 50.8744 25.3876C50.9244 25.3876 51.0869 25.5126 51.2494 25.6751L51.5244 25.9626L51.6494 25.7501C51.7216 25.6028 51.7436 25.436 51.7119 25.2751C51.6619 25.0501 51.6744 25.0376 51.7494 25.1876C51.8572 25.3287 51.9833 25.4548 52.1244 25.5626L52.3994 25.7876L52.5869 25.4501C52.7744 25.1001 52.7744 25.1001 52.8494 25.3126C52.9744 25.5751 53.7869 26.2501 54.4744 26.6376C54.5994 26.7001 54.5494 26.5001 54.3494 26.0126C54.2894 25.8524 54.2556 25.6835 54.2494 25.5126C54.2494 25.2876 54.1869 25.1876 53.8994 24.9626C53.7207 24.8483 53.5711 24.6939 53.4626 24.5116C53.3541 24.3293 53.2897 24.1242 53.2744 23.9126C53.2369 23.7001 53.1619 23.4751 53.0994 23.4001C53.0244 23.2751 52.9994 23.3501 53.0244 23.7251C53.0494 23.9876 53.0119 24.3126 52.9494 24.4501L52.8494 24.7001L52.7744 24.4876C52.7244 24.3751 52.5244 24.1751 52.3369 24.0501C52.1494 23.9251 52.0119 23.8001 52.0369 23.7751C52.0619 23.7501 52.2619 23.8626 52.4744 24.0251C52.8119 24.2876 52.8744 24.3126 52.9244 24.2001C52.9744 24.0751 52.9244 23.5001 52.8244 23.1001C52.7744 22.9001 52.7744 22.9001 53.0244 23.1501C53.1994 23.3251 53.2994 23.5501 53.3869 23.9251C53.4869 24.4001 53.5369 24.4876 53.9744 24.8751C54.2369 25.1126 54.4744 25.2876 54.4869 25.2751C54.5119 25.2501 54.5369 24.6501 54.5619 23.9251C54.6119 22.5376 54.5619 22.2001 54.2244 21.7751L54.0494 21.5501L54.3244 21.2626C54.6325 20.9679 54.8383 20.5825 54.9119 20.1626L54.9619 19.8251L54.6619 20.1126C54.4119 20.3501 54.2869 20.4001 53.9994 20.4001C53.7119 20.4001 53.5994 20.3501 53.4119 20.1501C53.1198 19.8689 52.7638 19.663 52.3744 19.5501C52.2244 19.5001 52.1744 19.5251 52.1744 19.6251C52.1744 19.7001 52.0994 19.9001 51.9994 20.0876L51.8244 20.4126L51.4494 20.0376C51.2119 19.8251 50.9494 19.6376 50.7369 19.5876C50.2244 19.4626 50.1994 19.4626 50.1994 19.8501C50.1994 20.4376 49.9494 20.5501 49.4994 20.1626C49.1494 19.8626 48.8744 19.7876 48.2119 19.8751L47.7119 19.9251L47.7994 20.1501C47.8744 20.3376 47.8619 20.4251 47.6994 20.6376C47.4369 20.9876 47.0994 21.1376 46.5744 21.1376C46.3244 21.1376 46.0244 21.1876 45.8994 21.2501C45.7744 21.3126 45.4494 21.3751 45.1869 21.4001C44.9369 21.4251 44.6494 21.4751 44.5619 21.5001C44.4369 21.5501 44.4369 21.5001 44.4744 21.2251C44.5369 20.8001 44.2244 20.4751 43.7619 20.4751C43.1494 20.4751 42.8744 21.0251 43.1119 21.7501C43.1605 21.9065 43.2022 22.065 43.2369 22.2251C43.4011 22.5377 43.6214 22.8173 43.8869 23.0501C44.2119 23.3751 44.5119 23.7126 44.5619 23.8001C44.6625 23.9304 44.7905 24.0371 44.9369 24.1126L45.2119 24.2626L45.1744 23.9626C45.1369 23.6376 45.1994 23.5876 45.3744 23.8251C45.4369 23.9001 45.5994 24.0376 45.7244 24.1126C45.9369 24.2376 45.9744 24.2376 45.9744 24.1376C45.9744 24.0626 46.0119 23.9001 46.0619 23.7751L46.1494 23.5501L46.3119 23.8626C46.3994 24.0376 46.6869 24.4251 46.9494 24.7376C47.4619 25.3251 47.7869 25.9876 47.6244 26.1376C47.5494 26.2001 47.3744 26.2001 46.9994 26.1251C46.7244 26.0751 46.3744 26.0376 46.2244 26.0626C45.9369 26.1001 45.9119 26.0626 46.0994 25.8376C46.2869 25.5876 46.2494 25.5501 45.8744 25.5501C45.4369 25.5501 44.3494 25.3376 43.9244 25.1751C43.5244 25.0126 43.4244 25.0501 43.2994 25.4376L43.0869 26.1376L42.9619 26.5126L43.4119 26.4751C43.6439 26.4508 43.8737 26.409 44.0994 26.3501C44.1879 26.3206 44.2812 26.3079 44.3744 26.3126C44.3994 26.3251 44.3369 26.4751 44.2494 26.6501L44.0744 26.9501L44.3494 26.9001C44.4994 26.8626 44.7244 26.7876 44.8494 26.7251C45.0744 26.6251 45.0994 26.6251 45.2744 26.9126C45.4869 27.2501 45.6494 27.2376 45.6869 26.8751C45.7244 26.5001 45.8494 26.5501 46.0869 27.0501C46.3119 27.5251 46.5369 27.7001 46.5869 27.4251C46.5994 27.3251 46.7119 27.1751 46.8494 27.0751C47.1244 26.8876 47.3244 26.9501 47.4369 27.2376C47.5619 27.5501 47.2869 27.8626 46.5119 28.3376C45.7942 28.7338 45.1766 29.289 44.7065 29.9607C44.2364 30.6323 43.9261 31.4026 43.7994 32.2126C43.5619 33.6876 44.2994 35.2126 45.7494 36.3251C46.4494 36.8501 47.5619 37.4001 47.4869 37.2001C47.1869 36.2876 47.1994 34.5751 47.4994 34.2876C47.5494 34.2376 47.5369 34.4126 47.4619 34.6751C47.2119 35.6626 47.3369 36.4376 47.9619 38.2626C48.5119 39.9126 48.4369 40.6251 47.6369 41.0876C47.3869 41.2376 47.2244 41.2626 46.5369 41.2501C45.7869 41.2501 45.6994 41.2501 45.4619 41.4501C45.1747 41.7434 44.9867 42.1194 44.9244 42.5251C44.9244 42.6876 45.0994 42.6626 45.4244 42.4751H45.4369Z" fill="#FFB700"/>
<path d="M57.5623 42.4376L57.8748 42.2376L58.0873 42.4376C58.3623 42.7001 58.6998 42.6876 58.9623 42.4251C59.0873 42.3001 59.1873 42.2251 59.1998 42.2376L59.3123 42.4376C59.3748 42.5501 59.5123 42.6001 59.7623 42.6251C60.0498 42.6376 60.1373 42.6251 60.2623 42.4501L60.3873 42.2376L60.6998 42.4376C61.5498 42.9876 61.9998 42.4126 61.6123 41.2751C61.4248 40.7001 61.5373 40.3751 62.1498 39.6501C62.4123 39.3376 62.6248 39.0001 62.6248 38.9001C62.6248 38.7626 62.5748 38.7376 62.2248 38.7501C61.8998 38.7501 61.7998 38.7126 61.6248 38.5251C61.3373 38.2126 61.3623 37.8501 61.6748 37.4501L61.9248 37.1376L61.4748 36.8376C61.1156 36.5723 60.7809 36.2753 60.4748 35.9501C60.2019 35.6281 59.8683 35.363 59.493 35.1699C59.1176 34.9769 58.7079 34.8597 58.2873 34.8251L57.6998 34.7626V35.2126C57.6998 35.7751 57.9748 36.3251 58.6998 37.2501C59.5248 38.3001 59.5748 38.4626 59.6123 39.8376L59.6498 41.0001L59.3998 41.2251C59.1873 41.4251 59.0998 41.4626 58.3998 41.5001C57.7373 41.5376 57.5873 41.5751 57.3998 41.7501C57.1804 41.9101 57.0288 42.1464 56.9748 42.4126C56.9373 42.6001 56.9498 42.6376 57.0873 42.6376C57.1748 42.6376 57.3873 42.5501 57.5623 42.4376ZM39.7873 39.4376C39.8629 39.3266 39.9061 39.1968 39.9123 39.0626C39.9123 38.9376 39.9873 38.8876 40.3123 38.8376L40.6998 38.7876L40.4498 38.5751C40.1373 38.3251 40.0998 38.1376 40.3748 38.1376C40.6498 38.1376 41.0998 37.8626 41.1748 37.6501C41.2123 37.5501 41.1748 37.4251 41.1248 37.3626C40.9748 37.1876 40.6873 37.2126 40.6373 37.4126C40.5748 37.6126 40.4873 37.6126 40.2623 37.4126C39.9498 37.1001 39.9373 36.4626 40.2623 36.0876C40.3998 35.9126 40.3998 35.9126 40.2123 35.7251C40.0123 35.5251 39.8623 35.1501 39.9623 35.0501C39.9873 35.0251 40.1498 35.0501 40.3123 35.1126C40.5623 35.1876 40.6498 35.1876 40.7498 35.1126C41.0373 34.8751 40.7248 34.5751 40.2498 34.6501C40.0498 34.6751 39.9748 34.6501 39.9498 34.5501C39.9248 34.4751 39.7623 34.3751 39.5748 34.3251C39.2373 34.2376 39.2373 34.2376 39.2373 34.4751C39.2373 34.7251 39.0873 34.7751 38.8123 34.6126C38.5873 34.4876 38.3748 34.5876 38.3748 34.8251C38.3748 35.0501 38.5873 35.1501 38.9998 35.1251C39.2998 35.1126 39.3123 35.3376 39.0248 35.6626L38.8123 35.9126L38.9748 36.1501C39.2248 36.5001 39.1998 37.0876 38.9373 37.3876L38.7248 37.6126L38.5873 37.4251C38.3873 37.1751 38.1248 37.1876 38.0498 37.4626C38.0123 37.6376 38.0498 37.7126 38.2748 37.9126C38.4248 38.0376 38.6498 38.1376 38.7623 38.1376C39.0498 38.1376 39.0373 38.3751 38.7373 38.6001L38.4873 38.7876L38.8623 38.8376C39.0623 38.8751 39.2373 38.9251 39.2373 38.9626C39.2373 39.1251 39.4873 39.6126 39.5623 39.6126C39.6123 39.6126 39.7123 39.5251 39.7873 39.4251V39.4376Z" fill="#FFB700"/>
<path d="M44.5621 37.3627C44.8996 37.2377 45.6246 36.6127 45.6246 36.4752C45.6246 36.4252 45.4246 36.2002 45.1746 35.9752C44.6746 35.5252 44.1121 34.7377 43.9621 34.2877C43.8871 34.0377 43.5246 33.6377 42.4996 32.6377L41.1371 31.3252L40.7496 31.4252C40.5246 31.4752 40.2621 31.5252 40.1621 31.5252C39.9746 31.5252 39.9746 31.5252 40.2246 31.7252L40.4746 31.9252L40.8496 31.7252C41.1871 31.5252 41.1996 31.5252 41.2371 31.6877C41.2621 31.7752 41.2121 31.9377 41.1121 32.0502C41.0246 32.1627 40.9746 32.3002 40.9871 32.3377C41.0246 32.3752 40.9371 32.4627 40.7996 32.5377C40.5496 32.6627 40.3621 33.0752 40.5621 33.0752C40.7496 33.0752 41.1496 32.5752 41.0996 32.4127C41.0746 32.3252 41.0996 32.2377 41.1246 32.2127C41.2871 32.1252 41.2746 32.5127 41.1246 32.7127C41.0246 32.8127 40.9746 32.9377 40.9996 32.9877C41.0246 33.0252 40.9371 33.1127 40.7996 33.1877C40.5496 33.3127 40.3621 33.7252 40.5621 33.7252C40.7621 33.7252 41.1496 33.2502 41.1121 33.0752C41.0871 32.9877 41.0871 32.8877 41.1246 32.8627C41.2371 32.8127 41.2871 33.1127 41.1996 33.2627C41.1766 33.3049 41.1646 33.3522 41.1646 33.4002C41.1646 33.4482 41.1766 33.4955 41.1996 33.5377C41.2871 33.7002 41.1996 34.0002 41.0371 34.1002C40.9746 34.1377 41.0121 34.2252 41.1871 34.3502C41.4371 34.5252 41.4371 34.5502 41.4371 35.3502C41.4371 36.0252 41.4621 36.2002 41.5871 36.3127C41.7121 36.4377 41.7371 36.4377 41.7371 36.3127C41.7371 36.1877 41.9871 36.0127 42.1746 36.0127C42.2371 36.0127 42.5996 36.3252 42.9871 36.7002C43.3746 37.0752 43.7871 37.4127 43.8996 37.4252L44.1746 37.4752C44.2121 37.4752 44.3871 37.4377 44.5621 37.3502V37.3627ZM40.3996 34.1002C40.3996 33.8877 39.9496 33.6502 39.4121 33.6002C38.9746 33.5377 38.9746 33.5502 38.9746 33.7627C38.9746 33.9377 39.0371 34.0127 39.3496 34.1377C39.8246 34.3502 40.3996 34.3252 40.3996 34.1002Z" fill="#FFB700"/>
<path d="M40.8873 34.0748C41.1123 33.8748 41.2123 33.6498 41.0748 33.6498C40.9248 33.6498 40.5248 33.9998 40.5248 34.1498C40.5248 34.3498 40.5998 34.3373 40.8998 34.0748H40.8873ZM40.4248 33.4373C40.4373 33.3123 40.3623 33.2373 40.1373 33.1248C39.6373 32.9123 39.0623 32.7998 38.9248 32.9123C38.6623 33.1248 38.8373 33.3998 39.2498 33.4498C39.4248 33.4623 39.6498 33.5123 39.7623 33.5623C40.0873 33.6873 40.3873 33.6248 40.4248 33.4373ZM40.4248 32.7748C40.4498 32.6123 40.3373 32.5498 39.4248 32.2248C38.7373 31.9748 38.4373 32.0998 38.6623 32.5123C38.7373 32.6498 38.8623 32.7123 39.1498 32.7623C39.3623 32.7873 39.6498 32.8498 39.7873 32.8998C40.1623 33.0248 40.3873 32.9748 40.4123 32.7748H40.4248ZM40.8748 32.1623C41.0123 32.0248 41.1248 31.8623 41.1248 31.7873C41.1248 31.5998 40.5873 31.9498 40.5123 32.1998C40.4373 32.4873 40.5748 32.4748 40.8873 32.1623H40.8748ZM40.4248 32.1248C40.4498 31.9248 40.1248 31.7498 39.4748 31.6123C38.9873 31.4998 38.7748 31.5623 38.8123 31.7873C38.8373 31.9123 38.9998 31.9998 39.4373 32.1373C40.1748 32.3623 40.3873 32.3623 40.4248 32.1248ZM41.0498 31.1998C41.8998 30.8248 41.9623 29.8873 41.1748 29.6373C40.8498 29.5373 40.6498 29.5998 40.5248 29.8123C40.4248 29.9873 40.4873 30.2873 40.6123 30.2873C40.6623 30.2873 40.6998 30.3498 40.6998 30.4123C40.6998 30.7498 39.4248 30.8873 38.8998 30.6248C38.7123 30.5373 38.6498 30.2873 38.7873 30.2873C38.9123 30.2873 38.9873 30.0373 38.9248 29.8748C38.8498 29.6248 38.5998 29.5498 38.2623 29.6498C37.4748 29.8498 37.4998 30.7748 38.2998 31.1498C39.1849 31.4747 40.1535 31.4923 41.0498 31.1998Z" fill="#FFB700"/>
<path d="M40.5373 30.4752C40.5873 30.4252 40.5623 30.3502 40.4873 30.3002C40.3123 30.1627 40.3248 29.9502 40.5123 29.7127C40.6623 29.5377 40.6748 29.2627 40.7248 26.5752C40.8123 21.9377 41.1623 18.4502 41.6123 17.6002C41.7998 17.2752 41.7748 17.2752 41.2998 17.6002C40.6767 18.0344 40.1735 18.6192 39.8373 19.3002C39.0623 20.7377 38.7998 22.6752 38.7998 26.8252C38.7998 29.1752 38.8123 29.4877 38.9498 29.7002C39.0748 29.9252 39.0748 30.0002 38.9998 30.2252C38.9373 30.3627 38.9123 30.5127 38.9373 30.5377C39.1123 30.7002 40.3623 30.6627 40.5373 30.4752ZM47.5498 26.0502C47.5873 26.0127 47.5248 25.8002 47.4248 25.6002C47.2748 25.2752 47.2123 25.2252 46.9998 25.2252C46.0003 25.1383 45.0255 24.8671 44.1248 24.4252C43.4873 24.1377 43.2498 24.0752 43.1873 24.1502C42.9873 24.3377 43.3123 24.7752 43.8123 25.0127C44.5481 25.2779 45.3188 25.4337 46.0998 25.4752C46.4373 25.4752 46.4498 25.4752 46.2498 25.7627L46.1248 25.9627H46.4998L47.1248 26.0377C47.4998 26.1252 47.4998 26.1252 47.5498 26.0502Z" fill="#FFB700"/>
<path d="M51.5 28.1379C51.5 28.0129 51.1375 27.7004 50.7875 27.4879C50.5 27.3254 50.45 27.3129 50.45 27.4504C50.45 27.6504 50.275 28.1629 50.2 28.1629C50.1625 28.1629 50.1 28.0629 50.075 27.9504C50.0375 27.8254 49.9 27.5754 49.7625 27.4129L49.5125 27.1004L49.3375 27.3879C49.1625 27.6629 48.85 27.9254 48.7125 27.9254C48.6875 27.9254 48.675 27.7754 48.7125 27.6129C48.725 27.4129 48.7125 27.2629 48.65 27.2379C48.6 27.2004 48.55 27.2129 48.55 27.2629C48.55 27.3629 48.125 27.8379 48.05 27.8379C48 27.8379 47.95 27.7129 47.925 27.5379L47.825 26.9379C47.8 26.7879 47.8625 26.8879 47.95 27.1879L48.15 27.7004L48.35 27.3879C48.4405 27.2587 48.5082 27.115 48.55 26.9629C48.55 26.9004 48.5875 26.8754 48.6375 26.9004C48.6875 26.9254 48.75 27.1379 48.775 27.3629L48.8375 27.7879L49.0625 27.5379C49.1802 27.4125 49.2888 27.2788 49.3875 27.1379C49.475 26.9879 49.4875 26.9879 49.675 27.1379C49.775 27.2379 49.9375 27.4504 50.0375 27.6254C50.1375 27.8004 50.225 27.9254 50.2375 27.9129L50.3125 27.5129L50.3625 27.1379C50.375 27.0754 51.0375 27.5129 51.2875 27.7254C51.4375 27.8629 51.5875 27.9629 51.6125 27.9379C51.6375 27.9129 51.6625 27.7129 51.6625 27.4754C51.6625 27.1254 51.625 27.0254 51.4125 26.8379C51.1625 26.6129 51.1625 26.6129 51.0625 26.7754C50.9375 26.9879 50.8 26.9879 50.8 26.7754C50.8 26.6254 50.325 26.0379 50.2125 26.0379C50.175 26.0379 50.075 26.1629 49.9875 26.3254C49.9 26.4879 49.8 26.6129 49.775 26.6129C49.65 26.6129 48.9875 25.8629 48.9875 25.7379C48.9875 25.6379 49.0375 25.6629 49.15 25.8379C49.2617 26.0021 49.3917 26.153 49.5375 26.2879C49.7875 26.5129 49.8875 26.4629 49.9875 26.0254C50.025 25.9004 50.075 25.8004 50.1125 25.8004C50.2125 25.8004 50.7875 26.4129 50.8625 26.6129L50.95 26.8129L51.0125 26.5879C51.0875 26.3129 51.175 26.3129 51.3 26.5629C51.35 26.6629 51.6 26.8879 51.85 27.0379L52.3125 27.3379L52.4 27.0379C52.45 26.8754 52.525 26.7879 52.55 26.8379C52.6 26.9004 52.475 27.4004 52.3875 27.5004C52.3875 27.5129 52.225 27.4254 52.0625 27.3129L51.75 27.0879V27.4879C51.75 27.7004 51.725 27.9629 51.7 28.0629C51.6375 28.2629 51.4875 28.3129 51.4875 28.1379H51.5ZM49.1875 24.9629C48.6375 24.5129 48.5625 24.4129 48.5625 24.1879L48.575 23.9629L48.6125 24.1754C48.6375 24.3004 48.7875 24.5004 48.9625 24.6504L49.2875 24.9004L49.475 24.6754C49.5875 24.5504 49.675 24.4004 49.675 24.3504C49.675 24.2004 49.7 24.2129 50.075 24.5379C50.4 24.8254 50.4125 24.8254 50.45 24.6379C50.4875 24.5379 50.475 24.3379 50.45 24.2004C50.325 23.8254 50.35 23.7754 50.5125 24.0004L50.8125 24.3504C50.9375 24.4879 50.95 24.4879 51 24.3129C51.0375 24.2004 51.0625 24.0129 51.0625 23.8879V23.6504L51.35 23.9879C51.6375 24.3129 51.6625 24.3254 51.7375 24.1629C51.8 24.0754 51.8375 23.8629 51.8375 23.7004C51.8375 23.4754 51.8625 23.4254 51.9125 23.5004C52.0125 23.6504 51.95 24.0254 51.775 24.3504L51.65 24.6004L51.4875 24.3379C51.275 24.0129 51.2 24.0129 51.075 24.3629C50.95 24.7004 50.8625 24.7254 50.7375 24.4629C50.6625 24.3004 50.6375 24.3254 50.5875 24.6754L50.525 25.0504L50.15 24.7629L49.775 24.4754L49.5875 24.6629C49.5 24.7754 49.425 24.9129 49.425 24.9629C49.425 25.0879 49.325 25.0879 49.1875 24.9629ZM54.0625 23.2629C53.875 23.0879 53.7375 22.9129 53.7625 22.8879C53.8 22.8504 53.825 22.8379 53.8375 22.8629C53.9585 22.9918 54.0835 23.1169 54.2125 23.2379C54.6375 23.6879 54.55 23.7004 54.075 23.2629H54.0625ZM47.5625 22.5879C47.3875 22.3379 47.4 22.1879 47.625 21.9129C47.775 21.7254 47.85 21.7004 48.125 21.7379C48.3125 21.7504 48.7 21.9129 48.9875 22.0879C49.4029 22.3361 49.8785 22.4658 50.3625 22.4629L50.15 22.1129C49.875 21.7004 49.875 21.6504 50.2 21.9004C50.525 22.1629 50.9125 22.2379 51.7875 22.2129L52.2125 22.2004L51.9625 21.9504C51.625 21.6129 51.725 21.5754 52.1125 21.9129C52.4625 22.2254 52.45 22.2504 51.6875 22.3254C51.3695 22.3575 51.0484 22.3364 50.7375 22.2629C50.3125 22.1379 50.2875 22.1504 50.375 22.2879C50.425 22.3754 50.5 22.4379 50.5375 22.4379C50.5875 22.4379 50.625 22.4879 50.625 22.5379C50.625 22.7004 49.7 22.5504 49.25 22.3379C48.25 21.8254 48.125 21.7754 47.875 21.8504C47.8084 21.876 47.7476 21.9146 47.696 21.964C47.6445 22.0133 47.6034 22.0725 47.575 22.1379C47.4125 22.5504 48 22.8754 48.2375 22.5129C48.3125 22.4004 48.3 22.3379 48.175 22.2004C48 22.0254 48.025 22.0004 48.25 22.0754C48.4125 22.1379 48.425 22.5254 48.275 22.6754C48.1125 22.8379 47.7125 22.8004 47.5625 22.5879Z" fill="black"/>
<path d="M51.5498 21.5755C51.4248 21.4505 51.5248 21.4255 52.0873 21.413C52.7873 21.4005 53.2123 21.288 53.7123 20.963C54.1123 20.713 54.2248 20.763 53.8373 21.0255C53.4998 21.2755 52.9623 21.4505 52.4248 21.5005L51.7873 21.588C51.6873 21.613 51.5748 21.6005 51.5373 21.5755H51.5498Z" fill="black"/>
</g>
<defs>
<clipPath id="clip0_3736_63349">
<rect width="80" height="60" fill="white"/>
</clipPath>
</defs>
</svg>
