<svg width="80" height="60" viewBox="0 0 80 60" fill="none" xmlns="http://www.w3.org/2000/svg">
<g clip-path="url(#clip0_3736_63416)">
<mask id="mask0_3736_63416" style="mask-type:luminance" maskUnits="userSpaceOnUse" x="0" y="0" width="80" height="60">
<path d="M0.00390625 0H79.9961V60H0.00390625V0Z" fill="white"/>
</mask>
<g mask="url(#mask0_3736_63416)">
<path fill-rule="evenodd" clip-rule="evenodd" d="M-5 0H85V60H-5V0Z" fill="#3E5EB9"/>
<path fill-rule="evenodd" clip-rule="evenodd" d="M-5 10.7109H85V49.2891H-5V10.7109Z" fill="#FFD900"/>
<path fill-rule="evenodd" clip-rule="evenodd" d="M-5 15H85V45H-5V15Z" fill="#B10C0C"/>
<path d="M76.1523 29.3555H4.65625C4.28087 29.3555 3.97656 29.644 3.97656 30C3.97656 30.356 4.28087 30.6445 4.65625 30.6445H76.1523C76.5277 30.6445 76.832 30.356 76.832 30C76.832 29.644 76.5277 29.3555 76.1523 29.3555Z" fill="#FFD900" stroke="black" stroke-width="0.175781"/>
<path fill-rule="evenodd" clip-rule="evenodd" d="M68.9267 23.1416L65.2832 24.4261L68.9267 25.7106L72.5702 24.4261L68.9267 23.1416Z" fill="white" stroke="black" stroke-width="0.162238"/>
<path d="M66.5003 23.9951H13.9236C13.6498 23.9951 13.4277 24.1874 13.4277 24.4245C13.4277 24.6616 13.6498 24.8539 13.9236 24.8539H66.5003C66.7741 24.8539 66.9961 24.6616 66.9961 24.4245C66.9961 24.1874 66.7741 23.9951 66.5003 23.9951Z" fill="#FFD900" stroke="black" stroke-width="0.157234"/>
<path d="M65.7124 24.8539C65.9241 24.8539 66.1357 24.6361 66.1357 24.4184C66.1357 24.2007 65.9241 23.9951 65.7124 23.9951" stroke="black" stroke-width="0.163283"/>
<path d="M65.2896 24.8539C65.5012 24.8539 65.7129 24.6361 65.7129 24.4184C65.7129 24.2007 65.5012 23.9951 65.2896 23.9951" stroke="black" stroke-width="0.163283"/>
<path d="M64.854 24.8666C65.0657 24.8666 65.2773 24.6488 65.2773 24.4311C65.2773 24.2134 65.0657 24.0078 64.854 24.0078" stroke="black" stroke-width="0.163283"/>
<path fill-rule="evenodd" clip-rule="evenodd" d="M65.4931 25.708L61.8496 26.9925L65.4931 28.277L69.1366 26.9925L65.4931 25.708Z" fill="white" stroke="black" stroke-width="0.162238"/>
<path d="M63.0667 26.5615H10.49C10.2162 26.5615 9.99414 26.7538 9.99414 26.9909C9.99414 27.228 10.2162 27.4203 10.49 27.4203H63.0667C63.3405 27.4203 63.5625 27.228 63.5625 26.9909C63.5625 26.7538 63.3405 26.5615 63.0667 26.5615Z" fill="#FFD900" stroke="black" stroke-width="0.157234"/>
<path d="M62.2788 27.4203C62.4905 27.4203 62.7021 27.2026 62.7021 26.9848C62.7021 26.7671 62.4905 26.5615 62.2788 26.5615" stroke="black" stroke-width="0.163283"/>
<path d="M61.856 27.4203C62.0676 27.4203 62.2793 27.2026 62.2793 26.9848C62.2793 26.7671 62.0676 26.5615 61.856 26.5615" stroke="black" stroke-width="0.163283"/>
<path d="M61.4204 27.433C61.6321 27.433 61.8438 27.2152 61.8438 26.9975C61.8438 26.7798 61.6321 26.5742 61.4204 26.5742" stroke="black" stroke-width="0.163283"/>
<path fill-rule="evenodd" clip-rule="evenodd" d="M71.7001 29.4951C71.0592 30.6157 72.2012 29.1246 75.0096 31.0043C75.5223 31.3478 75.9768 32.2696 75.9768 32.9112C75.8486 32.8208 75.7437 32.6401 75.6039 32.5045C75.3941 32.7124 75.802 33.6432 75.8603 34.086C75.4175 33.842 75.4641 33.7246 75.3126 33.4173C75.3475 33.7788 75.2427 34.791 75.4174 35.1705C75.0679 35.0801 75.0912 34.8 74.9164 34.7367C75.0329 35.1796 74.7998 35.6495 74.8698 36.1465C74.66 35.9477 74.4502 35.7851 74.357 35.7037C74.3454 35.9387 73.9725 36.5532 73.9608 36.7792C73.786 36.6707 73.7394 36.508 73.7161 36.3996C73.5063 36.6707 72.7489 37.6648 72.7023 37.954C72.1196 37.4389 70.628 36.1917 70.4299 35.523C70.2551 35.9025 70.0104 36.0291 69.521 36.3092C69.3229 35.2519 68.5887 34.068 68.9849 33.1642C68.7167 33.3314 68.46 33.5094 68.2158 33.6974C68.3841 32.8466 68.7812 32.0328 69.3815 31.3088C69.9818 30.5848 70.7718 29.9669 71.7001 29.4951Z" fill="#3D5DA7" stroke="black" stroke-width="0.143671"/>
<path fill-rule="evenodd" clip-rule="evenodd" d="M69.2852 35.0621C69.5547 34.523 69.8008 34.359 69.9766 34.0074C70.2812 33.398 70.3281 32.9058 70.5977 32.9761C70.8672 33.0465 70.8672 33.3043 70.5156 33.9019C70.1641 34.4879 70 34.6285 69.2852 35.0621ZM71.1016 36.3511C71.0664 35.9293 71.1953 35.7652 71.1719 35.4957C71.1367 35.0269 70.9375 34.7105 71.1836 34.6871C71.4297 34.6636 71.5469 34.8277 71.5469 35.2965C71.5469 35.7652 71.4766 35.8824 71.1016 36.3511ZM72.4844 37.148C72.3789 36.5621 72.4609 36.3277 72.3906 35.9527C72.2734 35.2965 72.0391 34.8746 72.2734 34.816C72.4961 34.7574 72.625 34.9683 72.7188 35.6246C72.8008 36.2808 72.7539 36.4683 72.4844 37.148ZM73.9258 33.1285C73.5859 32.8824 73.3867 32.859 73.1758 32.6949C72.7891 32.4019 72.5898 32.0972 72.4727 32.2496C72.3555 32.4019 72.4375 32.566 72.8359 32.8355C73.2461 33.105 73.375 33.1285 73.9258 33.1285ZM73.6914 35.0386C73.5156 34.6636 73.3281 34.5699 73.2109 34.3355C73 33.9136 73 33.5504 72.7891 33.6441C72.5547 33.7379 72.5547 33.9254 72.7891 34.3355C73.0234 34.734 73.1406 34.8043 73.6914 35.0386Z" fill="#A70000"/>
<path fill-rule="evenodd" clip-rule="evenodd" d="M7.11965 30.577C7.07967 30.2449 7.15963 30.208 6.94641 29.962C7.23959 30.085 7.25292 30.4171 7.61273 30.1834C7.746 30.1096 7.79931 30.1096 7.63939 29.7529C8.01253 29.7529 9.23858 30.1834 9.42515 30.1957C9.94488 30.2203 10.8777 29.6545 11.5174 30.3433C12.1438 30.9705 11.9305 31.6224 11.9305 32.4956C11.6907 32.3726 11.7973 32.3234 11.5307 32.0036C11.744 32.7661 11.5307 34.1436 11.5307 34.9553C11.4241 34.7586 11.4375 34.8323 11.3442 34.6356C11.0776 35.3735 10.7578 35.5334 10.7578 36.3943C10.6645 36.0622 10.7578 36.1237 10.6512 35.9515C10.3847 36.505 8.65221 36.9846 9.31854 37.5504C8.73217 37.206 8.46564 37.2429 8.18578 36.9231C8.06584 36.9969 7.97255 37.1445 7.86594 37.3413C6.79982 36.8494 7.19961 35.804 6.36004 35.1029C6.22677 35.3981 6.28008 35.3489 6.12016 35.8286C5.96024 35.1644 5.90694 34.734 5.72036 34.2543C5.56045 34.5249 5.5871 34.4142 5.28059 34.8323C5.14732 34.0206 4.96075 33.8238 5.04071 33.295C4.72087 33.5164 4.9341 33.418 4.61426 33.7009C4.90744 31.6101 6.20012 30.085 7.11965 30.577Z" fill="#3D5DA7" stroke="black" stroke-width="0.179233"/>
<path fill-rule="evenodd" clip-rule="evenodd" d="M5.81641 33.9612C6.08594 33.2932 6.33203 33.0823 6.51953 32.6487C6.82422 31.8987 6.87109 31.2893 7.12891 31.3831C7.39844 31.4768 7.38672 31.7815 7.03516 32.5315C6.79686 33.129 6.36858 33.6314 5.81641 33.9612ZM6.84766 35.637C6.96484 35.0393 7.12891 34.8167 7.19922 34.43C7.31641 33.7503 7.25781 33.2464 7.50391 33.2698C7.73828 33.305 7.79688 33.5511 7.63281 34.2308C7.46875 34.9104 7.36328 35.0628 6.84766 35.637ZM8.07813 36.7972C8.11328 36.2112 8.25391 35.9886 8.26563 35.6253C8.30078 34.9573 8.18359 34.4886 8.40625 34.4886C8.64062 34.4886 8.72266 34.7229 8.65234 35.3792C8.58203 36.0354 8.5 36.1995 8.07813 36.7854V36.7972ZM10.7383 33.0003C10.2227 32.4964 9.91797 32.4026 9.58984 32.0628C9.01562 31.5003 8.73438 30.9612 8.53516 31.1604C8.32422 31.3479 8.45312 31.6292 9.0625 32.18C9.67188 32.719 9.88281 32.7893 10.7383 33.0003ZM10.4219 34.9456C10.0938 34.4534 9.85938 34.3128 9.64844 33.9847C9.27344 33.4104 9.14453 32.9182 8.94531 33.0472C8.71094 33.1643 8.76953 33.4222 9.17969 33.9847C9.57812 34.5354 9.74219 34.6292 10.4336 34.9456H10.4219Z" fill="#A70000"/>
<path fill-rule="evenodd" clip-rule="evenodd" d="M61.4278 30.0015C57.1462 34.2831 51.4293 42.8608 39.9955 42.8608C29.997 42.8608 22.8529 34.2903 18.5713 30.0015C22.8529 25.7199 29.997 17.1494 39.9955 17.1494C51.4293 17.1494 57.1382 25.7126 61.4278 30.0015Z" fill="white" stroke="black" stroke-width="0.16064"/>
<path fill-rule="evenodd" clip-rule="evenodd" d="M38.5 21.6094C39.6484 22.8984 38.6875 23.4141 39.9062 23.4961C41.1719 23.5898 40.4453 24.8555 41.5234 24.9023C42.2734 24.9258 41.4414 27.9141 42.168 28.9102C42.9062 29.9297 43.5156 29.2031 43.5273 29.9531C43.5391 30.7148 41.5352 30.6445 41.5 33C41.4414 34.3711 39.8008 34.4648 39.7188 35.3438C39.625 36.1641 42.9414 36.6328 42.9062 37.3711C42.8594 38.1094 39.3086 37.9922 39.1563 38.8242C39.0859 39.5859 44.0312 40.207 44.4297 42.3867C43.6914 42.6211 41.582 42.8555 40 42.8555C30.0039 42.8555 22.8555 34.2891 18.5664 30C22.8555 25.7109 30.0039 17.1445 40 17.1445C40 17.1445 37.0352 19.8516 38.5 21.6211V21.6094Z" fill="black"/>
<path fill-rule="evenodd" clip-rule="evenodd" d="M26.5703 25.4297H27.6133V28.8516H26.5703V25.4297ZM26.5703 31.1484H27.6133V34.5703H26.5703V31.1484ZM28.6445 25.4297H29.6875V28.8516H28.6445V25.4297ZM28.6445 31.1484H29.6875V34.5703H28.6445V31.1484ZM30.7422 25.4297H31.7734V28.8516H30.7422V25.4297ZM30.7422 31.1484H31.7734V34.5703H30.7422V31.1484ZM32.8164 25.4297H33.8594V28.8516H32.8164V25.4297ZM32.8164 31.1484H33.8594V34.5703H32.8164V31.1484ZM34.8906 25.4297H35.9336V28.8516H34.8906V25.4297ZM34.8906 31.1484H35.9336V34.5703H34.8906V31.1484ZM36.9766 25.4297H38.0078V28.8516H36.9766V25.4297ZM36.9766 31.1484H38.0078V34.5703H36.9766V31.1484Z" fill="white"/>
<path fill-rule="evenodd" clip-rule="evenodd" d="M42.2852 25.4297H43.3281V28.8516H42.2852V25.4297ZM42.2852 31.1484H43.3281V34.5703H42.2852V31.1484ZM44.3594 25.4297H45.4023V28.8516H44.3594V25.4297ZM44.3594 31.1484H45.4023V34.5703H44.3594V31.1484ZM46.4453 25.4297H47.4766V28.8516H46.4453V25.4297ZM46.4453 31.1484H47.4766V34.5703H46.4453V31.1484ZM48.5195 25.4297H49.5625V28.8516H48.5078L48.5195 25.4297ZM48.5195 31.1484H49.5625V34.5703H48.5078L48.5195 31.1484ZM50.5937 25.4297H51.6367V28.8516H50.5937V25.4297ZM50.5937 31.1484H51.6367V34.5703H50.5937V31.1484ZM52.6797 25.4297H53.7109V28.8516H52.6797V25.4297ZM52.6797 31.1484H53.7109V34.5703H52.6797V31.1484Z" fill="black"/>
<path fill-rule="evenodd" clip-rule="evenodd" d="M33.0595 19.4277C32.4734 20.5721 34.1039 19.0494 36.6616 20.9689C37.3041 21.664 37.7068 22.5021 37.8232 23.3867C37.2797 23.276 36.3099 22.7407 36.3099 22.7407C36.3099 22.7407 37.4395 23.8666 37.4395 25.177C37.0452 24.9279 36.8427 24.9648 36.7149 24.6602C36.7149 25.0755 37.0665 25.3524 37.0665 26.0076C36.8267 25.8117 36.5662 25.6356 36.2886 25.4816C36.6616 26.1368 35.5959 27.4103 36.1287 27.8348C35.2016 27.6964 34.2424 27.0965 33.8694 26.4505C33.667 26.5797 33.6563 26.792 33.635 27.0227C33.6669 27.0412 32.2176 25.943 32.3561 25.5185C32.1537 25.7953 32.1323 25.943 32.0897 26.2567C31.5256 25.7757 31.1113 25.1789 30.8855 24.5218L30.3952 25.1401C30.2247 24.0604 30.2247 24.0973 30.5764 23.1745C30.3311 23.3452 30.0963 23.5269 29.873 23.7189C30.0263 22.85 30.3892 22.0187 30.9382 21.2793C31.4873 20.5399 32.2101 19.909 33.0595 19.4277Z" fill="#3D5DA7" stroke="black" stroke-width="0.138838"/>
<path fill-rule="evenodd" clip-rule="evenodd" d="M31.6094 25.0315C31.7031 24.2463 31.9023 23.9416 31.9609 23.4377C32.0781 22.5354 31.9492 21.8909 32.2656 21.9026C32.582 21.9143 32.6758 22.2541 32.5234 23.1448C32.3594 24.0354 32.2305 24.2581 31.6094 25.0315ZM33.2617 26.4846C33.2031 25.8166 33.3203 25.5354 33.2852 25.1018C33.2148 24.3518 32.9805 23.8362 33.25 23.7893C33.5313 23.7424 33.6719 23.9885 33.6953 24.762C33.7305 25.5237 33.6602 25.7229 33.2617 26.4846ZM35.8516 27.6565C35.5703 27.094 35.3242 26.9182 35.1484 26.5432C34.8203 25.887 34.7617 25.3596 34.5156 25.4534C34.2578 25.5471 34.2813 25.8284 34.6328 26.4729C34.9844 27.1057 35.1602 27.2346 35.8516 27.6682V27.6565ZM36.7422 22.5002C36.0391 22.1135 35.6641 22.1135 35.1953 21.8674C34.3867 21.4456 33.9063 20.9651 33.7422 21.2229C33.5781 21.4924 33.8008 21.7502 34.6445 22.137C35.4766 22.5237 35.7344 22.5471 36.7539 22.4885L36.7422 22.5002ZM37.0117 24.6565C36.4844 24.2229 36.1797 24.1526 35.8398 23.8713C35.2539 23.3909 34.9492 22.9104 34.75 23.0979C34.5625 23.2971 34.6914 23.5549 35.3125 24.012C35.9336 24.4807 36.1445 24.5393 37.0117 24.6565Z" fill="#A70000"/>
</g>
</g>
<defs>
<clipPath id="clip0_3736_63416">
<rect width="80" height="60" fill="white"/>
</clipPath>
</defs>
</svg>
