<svg width="80" height="60" viewBox="0 0 80 60" fill="none" xmlns="http://www.w3.org/2000/svg">
<g clip-path="url(#clip0_3736_63528)">
<mask id="mask0_3736_63528" style="mask-type:luminance" maskUnits="userSpaceOnUse" x="0" y="0" width="80" height="60">
<path d="M0 0H80V60H0V0Z" fill="white"/>
</mask>
<g mask="url(#mask0_3736_63528)">
<path d="M0 0H90V60H0V0Z" fill="#FF0000"/>
<path d="M0 0H45V30H0V0Z" fill="#000095"/>
<path d="M19.25 15.8625L18.9375 17.0625L20.1125 17.3875L19.8875 16.5L19.25 15.8625ZM25.1125 16.5L24.8875 17.3875L26.0625 17.0625L25.75 15.8625L25.1125 16.5ZM19.8875 13.5L19.25 14.1375L19.4875 15L19.8875 13.5Z" fill="white"/>
<path d="M19.4875 15L19.25 15.8625L19.8875 16.5L19.4875 15Z" fill="white"/>
<path d="M19.2502 14.1377L18.3877 15.0002L19.2502 15.8627L19.4877 15.0002L19.2502 14.1377ZM21.0002 17.6127L21.6377 18.2502L22.5002 18.0127L21.0002 17.6127ZM23.3627 18.2502L24.5627 18.5627L24.8877 17.3877L24.0002 17.6127L23.3627 18.2502Z" fill="white"/>
<path d="M23.9998 17.6125L24.8873 17.3875L25.1123 16.5L23.9998 17.6125ZM20.1123 17.3875L20.4373 18.5625L21.6373 18.25L20.9998 17.6125L20.1123 17.3875ZM22.4998 18.0125L23.3623 18.25L23.9998 17.6125L22.4998 18.0125Z" fill="white"/>
<path d="M21.6375 18.2498L22.5 19.1123L23.3625 18.2498L22.5 18.0123L21.6375 18.2498ZM20.1125 12.6123L18.9375 12.9373L19.25 14.1373L19.8875 13.4998L20.1125 12.6123ZM19.8875 16.4998L20.1125 17.3873L21 17.6123L19.8875 16.4998ZM25.5125 14.9998L25.75 14.1373L25.1125 13.4998L25.5125 14.9998Z" fill="white"/>
<path d="M21.0002 12.3877L20.1127 12.6127L19.8877 13.5002L21.0002 12.3877ZM25.1127 13.5002L24.8877 12.6127L24.0002 12.3877L25.1127 13.5002ZM25.7502 15.8627L26.6127 15.0002L25.7502 14.1377L25.5127 15.0002L25.7502 15.8627Z" fill="white"/>
<path d="M25.1123 13.4998L23.9998 12.3873L22.4998 11.9873L20.9998 12.3873L19.8873 13.4998L19.4873 14.9998L19.8873 16.4998L20.9998 17.6123L22.4998 18.0123L23.9998 17.6123L25.1123 16.4998L25.5123 14.9998L25.1123 13.4998Z" fill="white"/>
<path d="M25.1123 16.5L25.7498 15.8625L25.5123 15L25.1123 16.5ZM25.7498 14.1375L26.0623 12.9375L24.8873 12.6125L25.1123 13.5L25.7498 14.1375ZM24.8873 12.6125L24.5623 11.4375L23.3623 11.75L23.9998 12.3875L24.8873 12.6125ZM21.6373 11.75L20.4373 11.4375L20.1123 12.6125L20.9998 12.3875L21.6373 11.75ZM22.4998 11.9875L21.6373 11.75L20.9998 12.3875L22.4998 11.9875Z" fill="white"/>
<path d="M23.3627 11.7502L22.5002 10.8877L21.6377 11.7502L22.5002 11.9877L23.3627 11.7502Z" fill="white"/>
<path d="M24.0002 12.3875L23.3627 11.75L22.5002 11.9875L24.0002 12.3875ZM21.6377 18.25L20.4377 18.5625L21.0002 20.6375L22.5002 19.1125L21.6377 18.25ZM21.0002 20.6375L22.5002 26.25L24.0002 20.6375L22.5002 19.1125L21.0002 20.6375ZM20.1127 17.3875L18.9377 17.0625L18.3877 19.1125L20.4377 18.5625L20.1127 17.3875Z" fill="white"/>
<path d="M18.3875 19.1125L16.8875 24.75L21 20.6375L20.4375 18.5625L18.3875 19.1125ZM16.8875 16.5L12.75 20.6375L18.3875 19.1125L18.9375 17.0625L16.8875 16.5Z" fill="white"/>
<path d="M19.2502 15.8625L18.3877 15L16.8877 16.5L18.9377 17.0625L19.2502 15.8625ZM19.2502 14.1375L18.9377 12.9375L16.8877 13.5L18.3877 15L19.2502 14.1375Z" fill="white"/>
<path d="M16.8875 13.5L11.25 15L16.8875 16.5L18.3875 15L16.8875 13.5ZM28.1375 16.5L26.0625 17.0625L26.6125 19.1125L32.25 20.6375L28.1375 16.5Z" fill="white"/>
<path d="M24.8875 17.3875L24.5625 18.5625L26.6125 19.1125L26.0625 17.0625L24.8875 17.3875ZM23.3625 18.25L22.5 19.1125L24 20.6375L24.5625 18.5625L23.3625 18.25ZM25.75 15.8625L26.0625 17.0625L28.1375 16.5L26.6125 15L25.75 15.8625Z" fill="white"/>
<path d="M24 20.6377L28.1375 24.7502L26.6125 19.1127L24.5625 18.5627L24 20.6377ZM24.8875 12.6127L26.0625 12.9377L26.6125 10.8877L24.5625 11.4377L24.8875 12.6127Z" fill="white"/>
<path d="M28.1375 13.5L32.25 9.3875L26.6125 10.8875L26.0625 12.9375L28.1375 13.5ZM26.6125 10.8875L28.1375 5.25L24 9.3875L24.5625 11.4375L26.6125 10.8875ZM28.1375 16.5L33.75 15L28.1375 13.5L26.6125 15L28.1375 16.5Z" fill="white"/>
<path d="M25.7502 14.1375L26.6127 15L28.1377 13.5L26.0627 12.9375L25.7502 14.1375ZM21.0002 9.3875L16.8877 5.25L18.3877 10.8875L20.4377 11.4375L21.0002 9.3875Z" fill="white"/>
<path d="M20.1127 12.6127L20.4377 11.4377L18.3877 10.8877L18.9377 12.9377L20.1127 12.6127Z" fill="white"/>
<path d="M18.3875 10.8877L12.75 9.3877L16.8875 13.5002L18.9375 12.9377L18.3875 10.8877ZM23.3625 11.7502L24.5625 11.4377L24 9.3877L22.5 10.8877L23.3625 11.7502Z" fill="white"/>
<path d="M24 9.3875L22.5 3.75L21 9.3875L22.5 10.8875L24 9.3875Z" fill="white"/>
<path d="M21.6375 11.7502L22.5 10.8877L21 9.3877L20.4375 11.4377L21.6375 11.7502Z" fill="white"/>
<path d="M22.4998 21.3873C26.0275 21.3873 28.8873 18.5275 28.8873 14.9998C28.8873 11.4721 26.0275 8.6123 22.4998 8.6123C18.9721 8.6123 16.1123 11.4721 16.1123 14.9998C16.1123 18.5275 18.9721 21.3873 22.4998 21.3873Z" fill="#000095"/>
<path d="M22.4998 20.6373C25.6133 20.6373 28.1373 18.1133 28.1373 14.9998C28.1373 11.8863 25.6133 9.3623 22.4998 9.3623C19.3863 9.3623 16.8623 11.8863 16.8623 14.9998C16.8623 18.1133 19.3863 20.6373 22.4998 20.6373Z" fill="white"/>
</g>
</g>
<defs>
<clipPath id="clip0_3736_63528">
<rect width="80" height="60" fill="white"/>
</clipPath>
</defs>
</svg>
