<svg width="80" height="60" viewBox="0 0 80 60" fill="none" xmlns="http://www.w3.org/2000/svg">
<g clip-path="url(#clip0_3736_63551)">
<path d="M0 0H80V60H0V0Z" fill="#006600"/>
<path d="M0 0H80V42.8625H0V0Z" fill="white"/>
<path d="M0 0H80V17.1375H0V0Z" fill="#CC0000"/>
<path d="M37.5996 29.2004C37.7174 29.0007 37.8966 28.8444 38.1104 28.7549C38.3243 28.6654 38.5614 28.6474 38.7863 28.7036C39.0113 28.7598 39.212 28.8873 39.3585 29.0669C39.5051 29.2466 39.5897 29.4688 39.5996 29.7004V34.0004H40.3996V29.7129C40.4095 29.4813 40.4941 29.2591 40.6407 29.0794C40.7872 28.8998 40.988 28.7723 41.2129 28.7161C41.4378 28.6599 41.6749 28.6779 41.8888 28.7674C42.1027 28.8569 42.2818 29.0132 42.3996 29.2129C42.5236 28.8338 42.5559 28.4307 42.4941 28.0367C42.4322 27.6427 42.2779 27.2689 42.0437 26.946C41.8096 26.6231 41.5023 26.3603 41.147 26.179C40.7917 25.9978 40.3985 25.9033 39.9996 25.9033C39.6008 25.9033 39.2076 25.9978 38.8523 26.179C38.497 26.3603 38.1896 26.6231 37.9555 26.946C37.7213 27.2689 37.567 27.6427 37.5052 28.0367C37.4433 28.4307 37.4757 28.8338 37.5996 29.2129" fill="#F8C300"/>
<path d="M38.1748 28.0874C38.5258 28.0148 38.8907 28.0542 39.2181 28.2C39.5455 28.3457 39.8189 28.5905 39.9998 28.8999C40.1807 28.5905 40.4542 28.3457 40.7816 28.2C41.109 28.0542 41.4738 28.0148 41.8248 28.0874C41.7724 27.6402 41.5576 27.2278 41.2211 26.9285C40.8847 26.6292 40.4501 26.4639 39.9998 26.4639C39.5495 26.4639 39.1149 26.6292 38.7785 26.9285C38.4421 27.2278 38.2272 27.6402 38.1748 28.0874Z" fill="white"/>
<path d="M39.6 32.2871C39.5469 32.8963 39.323 33.4782 38.954 33.9658C38.585 34.4535 38.0859 34.8271 37.5141 35.0438C36.9423 35.2605 36.3209 35.3115 35.7214 35.191C35.1219 35.0704 34.5686 34.7831 34.125 34.3621C33.9369 34.8422 33.6413 35.2727 33.2609 35.6208C32.8805 35.9688 32.4255 36.2251 31.9306 36.3699C31.4358 36.5148 30.9144 36.5443 30.4064 36.4563C29.8983 36.3682 29.4172 36.165 29 35.8621C29.3125 38.9871 34 38.3496 34.35 35.3121C35.8125 37.8996 39.05 37.1496 40 33.9871L39.6 32.2871Z" fill="#F8C300"/>
<path d="M40.4 32.2871C40.4531 32.8963 40.677 33.4782 41.046 33.9658C41.415 34.4535 41.9141 34.8271 42.4859 35.0438C43.0577 35.2605 43.6791 35.3115 44.2786 35.191C44.8781 35.0704 45.4314 34.7831 45.875 34.3621C46.0631 34.8422 46.3587 35.2727 46.7391 35.6208C47.1195 35.9688 47.5745 36.2251 48.0694 36.3699C48.5642 36.5148 49.0856 36.5443 49.5936 36.4563C50.1017 36.3682 50.5828 36.165 51 35.8621C50.6875 38.9871 46 38.3496 45.65 35.3121C44.1875 37.8996 40.95 37.1496 40 33.9871L40.4 32.2871Z" fill="#F8C300"/>
<path d="M36.475 37.8252C35.8125 39.2377 34.5125 39.4752 33.375 38.3377C33.375 38.3377 33.825 38.0127 34.325 37.9252C34.225 37.5377 34.4125 36.9877 34.6875 36.7002C35.0515 36.9389 35.3211 37.2969 35.45 37.7127C36.1375 37.6252 36.475 37.8377 36.475 37.8377V37.8252Z" fill="#F8C300"/>
<path d="M41.5992 37.667C40.7149 38.9523 39.3936 38.9743 38.4572 37.6663C38.4572 37.6663 38.9542 37.4192 39.4618 37.4145C39.4264 37.0159 39.7012 36.5039 40.0195 36.2651C40.3396 36.5601 40.5471 36.9573 40.6064 37.3886C41.2989 37.4145 41.5972 37.6793 41.5972 37.6793L41.5992 37.667Z" fill="#F8C300"/>
<path d="M46.6284 38.3359C45.548 39.4614 44.2405 39.2696 43.5277 37.8274C43.5277 37.8274 44.0582 37.6639 44.5598 37.7413C44.5894 37.3422 44.9433 36.8813 45.2959 36.6972C45.5642 37.04 45.7048 37.4655 45.6936 37.9007C46.3728 38.0382 46.6244 38.3477 46.6244 38.3477L46.6284 38.3359Z" fill="#F8C300"/>
<path d="M31.6875 40.9745C37.1116 39.36 42.8884 39.36 48.3125 40.9745" stroke="#F8C300" stroke-width="1.375"/>
<path d="M41.2939 22.3565L37.9062 19.8952H42.0936L38.706 22.3565L39.9999 18.374L41.2939 22.3565Z" fill="#F8C300"/>
<path d="M35.2939 23.9678L31.9062 21.5065H36.0936L32.706 23.9678L33.9999 19.9854L35.2939 23.9678Z" fill="#F8C300"/>
<path d="M30.9053 28.3565L27.5176 25.8952H31.705L28.3173 28.3565L29.6113 24.374L30.9053 28.3565Z" fill="#F8C300"/>
<path d="M29.2939 34.3565L25.9062 31.8952H30.0936L26.706 34.3565L27.9999 30.374L29.2939 34.3565Z" fill="#F8C300"/>
<path d="M44.7061 23.9678L48.0938 21.5065H43.9064L47.294 23.9678L46.0001 19.9854L44.7061 23.9678Z" fill="#F8C300"/>
<path d="M49.0947 28.3565L52.4824 25.8952H48.295L51.6827 28.3565L50.3887 24.374L49.0947 28.3565Z" fill="#F8C300"/>
<path d="M50.7061 34.3565L54.0938 31.8952H49.9064L53.294 34.3565L52.0001 30.374L50.7061 34.3565Z" fill="#F8C300"/>
</g>
<defs>
<clipPath id="clip0_3736_63551">
<rect width="80" height="60" fill="white"/>
</clipPath>
</defs>
</svg>
