<svg width="80" height="60" viewBox="0 0 80 60" fill="none" xmlns="http://www.w3.org/2000/svg">
<g clip-path="url(#clip0_3736_63583)">
<path d="M0 0H80V60H0V0Z" fill="#00247D"/>
<path d="M13.5125 44.3253C12.675 44.3128 21.3625 39.7003 28.625 33.7753C38.15 26.0128 58.6625 13.6003 64.7 11.5753C65.325 11.3628 63.4125 12.6503 63.1625 13.0628C56.725 20.6878 61.8625 35.0628 69.9125 42.3003C72.3375 44.1503 72.2125 44.2503 76.7 44.4253V44.8503L13.5125 44.3253ZM12.9875 45.1628C12.9875 45.1628 12.375 45.6003 12.375 45.9253C12.375 46.2878 13.0625 46.7628 13.0625 46.7628L75.375 47.4503L76.525 46.6878L74.925 45.7003L12.9875 45.1628Z" fill="#FED100"/>
<path d="M13.35 13.6373L12.85 15.1623L14.15 14.2248L15.4375 15.1623L14.95 13.6373L16.2375 12.6998H14.6375L14.15 11.1748L13.65 12.6998H12.05L13.35 13.6373ZM23.1125 20.8123L24.1875 20.0248H22.85L22.4375 18.7623L22.025 20.0248H20.7L21.775 20.8123L21.3625 22.0748L22.4375 21.2873L23.525 22.0748L23.1125 20.8123ZM4.9625 22.4373L4.4625 20.9123L3.975 22.4373H2.375L3.6625 23.3748L3.175 24.8998L4.4625 23.9623L5.7625 24.8998L5.2625 23.3748L6.5625 22.4373H4.9625ZM14.725 37.7248L14.15 35.9498L13.575 37.7248H11.7L13.2125 38.8123L12.6375 40.5998L14.15 39.4998L15.6625 40.5998L15.075 38.8123L16.5875 37.7248H14.725Z" fill="white"/>
</g>
<defs>
<clipPath id="clip0_3736_63583">
<rect width="80" height="60" fill="white"/>
</clipPath>
</defs>
</svg>
