<svg width="80" height="60" viewBox="0 0 80 60" fill="none" xmlns="http://www.w3.org/2000/svg">
<g clip-path="url(#clip0_3736_63606)">
<mask id="mask0_3736_63606" style="mask-type:luminance" maskUnits="userSpaceOnUse" x="0" y="0" width="80" height="60">
<path d="M0.00390625 0H79.9961V60H0.00390625V0Z" fill="white"/>
</mask>
<g mask="url(#mask0_3736_63606)">
<path fill-rule="evenodd" clip-rule="evenodd" d="M-5 0H85V60H-5V0Z" fill="#E70013"/>
<path fill-rule="evenodd" clip-rule="evenodd" d="M55.2109 29.9766C55.2109 33.989 53.617 37.8371 50.7798 40.6743C47.9426 43.5115 44.0945 45.1055 40.082 45.1055C36.0696 45.1055 32.2215 43.5115 29.3843 40.6743C26.5471 37.8371 24.9531 33.989 24.9531 29.9766C24.9531 25.9641 26.5471 22.116 29.3843 19.2788C32.2215 16.4416 36.0696 14.8477 40.082 14.8477C44.0945 14.8477 47.9426 16.4416 50.7798 19.2788C53.617 22.116 55.2109 25.9641 55.2109 29.9766Z" fill="white"/>
<path fill-rule="evenodd" clip-rule="evenodd" d="M40.0818 40.0078C37.4791 39.9189 35.0128 38.8224 33.2031 36.9498C31.3934 35.0772 30.3818 32.5749 30.3818 29.9707C30.3818 27.3665 31.3934 24.8642 33.2031 22.9916C35.0128 21.119 37.4791 20.0225 40.0818 19.9336C41.4646 19.9336 43.0466 20.2617 44.113 21.0469C36.7771 21.3164 34.9138 27.5508 34.9138 30.0586C34.9138 32.5664 36.0974 38.1562 44.113 38.9883C43.199 39.5742 41.4646 40.0078 40.0818 40.0078Z" fill="#E70013"/>
<path fill-rule="evenodd" clip-rule="evenodd" d="M48.918 34.1953L44.3594 32.5313L41.3477 36.3281L41.5234 31.4883L36.9766 29.7891L41.6406 28.4531L41.8398 23.6133L44.5586 27.6328L49.2227 26.3438L46.2344 30.1523L48.918 34.1953Z" fill="#E70013"/>
</g>
</g>
<defs>
<clipPath id="clip0_3736_63606">
<rect width="80" height="60" fill="white"/>
</clipPath>
</defs>
</svg>
