<svg width="80" height="60" viewBox="0 0 80 60" fill="none" xmlns="http://www.w3.org/2000/svg">
<g clip-path="url(#clip0_3736_63856)">
<path d="M80 60V0H0V60H80Z" fill="#002868"/>
<path d="M73.75 21.8252V33.0752C73.75 40.5752 70 48.6533 60.625 53.0283C51.25 48.6533 47.5 40.5752 47.5 33.0752V21.8252H73.75Z" fill="#FCD116" stroke="black"/>
<path d="M73.75 21.8252V33.0752C73.75 40.5752 70 48.6533 60.625 53.0283C51.25 48.6533 47.5 40.5752 47.5 33.0752V21.8252H73.75Z" stroke="white" stroke-width="0.875"/>
<path d="M55.8906 34.2156C55.5469 34.7937 54.9688 34.9187 54.5156 34.7312C54.0469 34.5437 53.625 33.45 53.1562 32.8562C52.7031 32.2781 52.5781 32.5281 52.2656 32.1844C51.9688 31.8562 51.5 31.6062 50.7656 31.2625C50.3594 31.075 49.9375 30.9031 49.6562 30.1844C49.7656 29.8875 50.0625 29.6375 50.2969 29.5437C50.5312 29.4656 50.7188 29.1219 50.75 28.825C50.7812 28.5437 51.0312 28.2312 51.375 27.9969C51.2188 28.0281 50.8906 27.9656 50.7344 27.8562C50.5938 27.7312 50.3594 27.7625 50.2188 27.8719C50.0781 27.9656 49.9062 27.9969 49.6562 27.9656C49.75 27.8875 49.9219 27.7156 49.9375 27.5594C49.9531 27.4031 50.1406 27.325 50.5 27.325C50.8438 27.325 51.0781 26.9187 51.3594 26.9187C51.1562 26.9187 51.2031 26.575 51.3125 26.5594C50.8125 26.4656 50.875 26.0594 51.0781 26.0594C51.0625 25.9969 51 25.9344 50.7656 25.8562C50.5469 25.7781 50.6562 25.575 50.8281 25.45C50.6719 25.1375 50.8125 24.9031 51.0625 24.7C50.7188 24.6844 51.0938 24.2 51.1875 23.9344C51.2812 23.6844 51.3281 23.6531 51.4375 23.8094C51.5625 23.95 51.8438 24.2781 52.1719 24.3719C52.4844 24.4656 52.6719 24.6375 52.7344 24.9031C52.7969 25.1844 52.9219 25.325 53.2656 25.45C53.625 25.5594 54.1094 25.8562 54.0469 26.5281C54.3281 26.5437 54.5312 26.6219 54.7031 26.7625" fill="#FCAD56"/>
<path d="M55.8906 34.2156C55.5469 34.7937 54.9688 34.9187 54.5156 34.7312C54.0469 34.5437 53.625 33.45 53.1562 32.8562C52.7031 32.2781 52.5781 32.5281 52.2656 32.1844C51.9688 31.8562 51.5 31.6062 50.7656 31.2625C50.3594 31.075 49.9375 30.9031 49.6562 30.1844C49.7656 29.8875 50.0625 29.6375 50.2969 29.5437C50.5312 29.4656 50.7188 29.1219 50.75 28.825C50.7812 28.5437 51.0312 28.2312 51.375 27.9969C51.2188 28.0281 50.8906 27.9656 50.7344 27.8562C50.5938 27.7312 50.3594 27.7625 50.2188 27.8719C50.0781 27.9656 49.9062 27.9969 49.6562 27.9656C49.75 27.8875 49.9219 27.7156 49.9375 27.5594C49.9531 27.4031 50.1406 27.325 50.5 27.325C50.8438 27.325 51.0781 26.9187 51.3594 26.9187C51.1562 26.9187 51.2031 26.575 51.3125 26.5594C50.8125 26.4656 50.875 26.0594 51.0781 26.0594C51.0625 25.9969 51 25.9344 50.7656 25.8562C50.5469 25.7781 50.6562 25.575 50.8281 25.45C50.6719 25.1375 50.8125 24.9031 51.0625 24.7C50.7188 24.6844 51.0938 24.2 51.1875 23.9344C51.2812 23.6844 51.3281 23.6531 51.4375 23.8094C51.5625 23.95 51.8438 24.2781 52.1719 24.3719C52.4844 24.4656 52.6719 24.6375 52.7344 24.9031C52.7969 25.1844 52.9219 25.325 53.2656 25.45C53.625 25.5594 54.1094 25.8562 54.0469 26.5281C54.3281 26.5437 54.5312 26.6219 54.7031 26.7625" stroke="black" stroke-width="0.034375" stroke-linecap="round" stroke-linejoin="round"/>
<path d="M56.7497 25.7471C56.7497 26.1221 56.9215 26.3564 57.1403 26.5439C57.3747 26.7314 57.5778 26.8877 57.5309 27.1221C57.484 27.3721 57.5778 27.5283 57.7809 27.6846C57.9997 27.8408 58.1559 28.0283 58.0934 28.3408C58.0309 28.6533 58.0778 28.8408 58.2028 29.0752C58.3278 29.3096 58.5465 29.4971 58.4528 29.8721C58.359 30.2471 58.4059 30.7471 58.5309 30.9971C58.6403 31.2314 58.5309 31.4189 58.3122 31.8408C58.0934 32.2471 57.9684 32.4033 57.5153 32.5596C57.0465 32.7002 57.0153 32.9814 57.0153 33.4658C57.0153 33.9658 56.6872 34.2158 56.0778 34.1221C55.4528 34.6377 55.0622 34.0283 54.9059 33.2627C54.7497 32.4971 54.7184 31.6689 53.7965 30.9971C52.8903 30.3096 53.2497 29.1533 54.0153 28.6846C54.7809 28.2314 54.6872 26.8877 54.5934 26.0596C54.5153 25.2314 55.0622 24.7627 55.484 24.3096C56.0465 24.5283 56.7497 25.3877 56.7497 25.7471Z" fill="#FFA1A1" stroke="black" stroke-width="0.034375" stroke-linecap="round" stroke-linejoin="round"/>
<path d="M55.4222 31.0757C55.2503 30.6694 55.0628 30.2632 55.5159 29.3882C55.9847 28.4976 55.6878 27.8257 55.5472 27.3726C55.4066 26.9351 55.3753 26.5288 55.5472 26.3413C55.7347 26.1694 55.8128 26.0601 55.8284 25.7632C55.8441 25.4819 56.0784 25.5757 56.1097 25.7163C56.1409 25.8569 56.1722 26.0913 55.9222 26.5132C55.6722 26.9507 56.6253 28.0132 56.1878 29.1538C55.8909 29.9507 56.2816 30.9663 56.4378 31.6694C56.5941 32.3726 56.6878 34.0601 55.6566 34.3101C56.3597 33.9663 55.7034 31.7319 55.4222 31.0757Z" fill="#F1B2DC" stroke="black" stroke-width="0.034375" stroke-linecap="round" stroke-linejoin="round"/>
<path d="M50.7812 30.9502C50.9531 30.9814 51.0469 30.8877 51.0938 30.7783C51.1406 30.6689 51.1719 30.6064 51.3281 30.5908C51.4844 30.5908 51.7344 30.5439 51.7969 30.4189C51.8438 30.2939 52.0312 30.4033 52.2031 30.0908C52.3594 29.7627 52.4688 29.3877 52.8906 29.2471M54.0469 26.5283C53.8906 26.5283 53.4375 26.5439 53.25 26.9502M51.9531 24.5908C52.3281 24.7002 52.1719 24.9502 52.3594 25.0908C52.7031 25.3564 52.3906 25.6377 52.6719 25.7158C52.9531 25.7939 52.9375 25.8408 52.875 26.1533C52.7812 26.5127 53.125 26.5283 53 26.7627M51.375 27.9971C51.5938 27.7939 52.1406 27.6377 52.2656 27.4189M51.3594 26.9189C51.6875 26.9033 52.125 27.0283 52.1875 26.9033M51.3125 26.5596C51.4688 26.5596 51.7969 26.4502 51.8594 26.2314M51.0781 26.0596C51.2656 26.0596 51.5 26.0439 51.7344 25.8721M50.8281 25.4502C50.9688 25.3408 51.2188 25.4658 51.4531 25.3096M51.0625 24.7002C51.1719 24.7002 51.4062 24.6689 51.4062 24.8096" stroke="black" stroke-width="0.034375" stroke-linecap="round" stroke-linejoin="round"/>
<path d="M66.0156 27.5596C66.0156 27.5596 64.9219 26.6377 64.0156 26.0127C63.1094 25.3877 62.0156 24.6221 62.0156 24.4658C62.1875 24.3408 63.1094 24.9346 64.375 25.7002C65.6562 26.4814 66.375 27.2471 66.375 27.2471L66.0156 27.5596ZM65.9375 28.1846C65.9375 28.1846 64.875 27.5439 63.8281 27.0908C62.7344 26.6377 61.0938 26.6377 60.9219 26.4814C60.9219 26.3252 62.8281 26.2314 64.1875 26.7783C65.5781 27.4189 66.2969 27.8721 66.2969 27.8721L65.9375 28.1846ZM65.9219 29.2471C65.9219 29.2471 64.7656 28.7158 63.6406 28.4658C62.5469 28.2158 60.9844 28.3096 60.7969 28.1689C60.7969 28.0127 62.7344 27.7002 64.1875 28.1689C65.6562 28.6221 66.2812 28.9346 66.2812 28.9346L65.9219 29.2471ZM65.8594 30.3252C65.8594 30.3252 64.9844 29.7314 63.8281 29.6064C62.7344 29.4971 61.2812 30.3252 61.0938 30.1689C61.0938 30.0127 62.3594 29.0908 63.9375 29.2471C65.4844 29.4033 66.2188 30.0127 66.2188 30.0127L65.8594 30.3252ZM66.2188 26.9189C66.2188 26.9189 65.1094 25.9033 65.1094 25.2158C65.1094 24.6064 65.7812 23.6689 66.0781 23.6689C65.9219 23.9814 65.4062 24.6064 65.4062 25.2158C65.4062 25.8408 66.5781 26.6064 66.5781 26.6064L66.2188 26.9189Z" fill="#9E540A" stroke="black" stroke-width="0.034375" stroke-linecap="round" stroke-linejoin="round"/>
<path d="M66.219 26.9189C66.219 26.9189 66.4378 25.9033 66.4378 25.2158C66.4378 24.2939 65.7815 23.4502 65.844 23.2158C66.0784 23.4502 66.7347 24.1377 66.7347 25.2158C66.7347 26.1533 66.5784 26.6064 66.5784 26.6064L66.219 26.9189Z" fill="#9E540A" stroke="black" stroke-width="0.034375" stroke-linecap="round" stroke-linejoin="round"/>
<path d="M66.4844 26.5908C66.4844 26.2939 66.375 26.0283 66.1875 25.8252C65.9375 25.5283 65.5625 25.4346 65.1719 25.4971C64.7031 25.5752 64.3281 25.8564 64.0938 26.2939C63.7812 26.8721 63.75 27.4971 63.7344 28.1064C63.7344 30.2158 63.8125 31.0752 63.875 33.1533C63.8906 33.7627 64 35.0127 63.7188 35.9971C63.6094 36.4189 63.4844 36.8096 63.2969 37.2158C63.4219 36.7002 63.4844 36.4346 63.5469 36.0439C63.7188 35.0283 63.6719 34.0752 63.6406 33.1377C63.5781 31.2158 63.4688 30.2314 63.4062 27.9033C63.3906 27.2002 63.4531 26.6689 63.7812 26.1064C64.125 25.5283 64.7188 25.1064 65.3906 25.1064C65.6719 25.1064 65.9062 25.1533 66.1406 25.2939C66.6094 25.5439 66.8281 26.0596 66.8281 26.5752L66.4844 26.5908Z" fill="#9E540A" stroke="#FCD116" stroke-width="0.1875" stroke-linecap="round" stroke-linejoin="round"/>
<path d="M66.4844 26.5908C66.4844 26.2939 66.375 26.0283 66.1875 25.8252C65.9375 25.5283 65.5625 25.4346 65.1719 25.4971C64.7031 25.5752 64.3281 25.8564 64.0938 26.2939C63.7812 26.8721 63.75 27.4971 63.7344 28.1064C63.7344 30.2158 63.8125 31.0752 63.875 33.1533C63.8906 33.7627 64 35.0127 63.7188 35.9971C63.6094 36.4189 63.4844 36.8096 63.2969 37.2158C63.4219 36.7002 63.4844 36.4346 63.5469 36.0439C63.7188 35.0283 63.6719 34.0752 63.6406 33.1377C63.5781 31.2158 63.4688 30.2314 63.4062 27.9033C63.3906 27.2002 63.4531 26.6689 63.7812 26.1064C64.125 25.5283 64.7188 25.1064 65.3906 25.1064C65.6719 25.1064 65.9062 25.1533 66.1406 25.2939C66.6094 25.5439 66.8281 26.0596 66.8281 26.5752L66.4844 26.5908Z" fill="#9E540A"/>
<path d="M66.5781 34.1221C66.5781 34.1221 66.1406 34.9033 65.8125 35.4658C65.4844 36.0283 65.2187 36.1533 64.9687 35.9814C64.7344 35.8096 64.9375 35.3564 65.125 35.1377C65.3125 34.9189 66.3594 33.9033 66.3594 33.9033L66.5781 34.1221Z" fill="#9E540A" stroke="black" stroke-width="0.034375" stroke-linecap="round" stroke-linejoin="round"/>
<path d="M66.687 34.1846C66.687 34.1846 66.5152 35.0752 66.3745 35.7158C66.2495 36.3564 66.0308 36.5752 65.7652 36.4971C65.4839 36.4346 65.5308 35.9189 65.6402 35.6533C65.7495 35.3877 66.4058 34.0439 66.4058 34.0439L66.687 34.1846Z" fill="#9E540A" stroke="black" stroke-width="0.034375" stroke-linecap="round" stroke-linejoin="round"/>
<path d="M66.8747 34.2158V35.7783C66.8747 36.4346 66.7184 36.7002 66.4216 36.6846C66.1403 36.6689 66.0778 36.1689 66.1403 35.8721C66.1872 35.5908 66.5778 34.1377 66.5778 34.1377L66.8747 34.2158Z" fill="#9E540A" stroke="black" stroke-width="0.034375" stroke-linecap="round" stroke-linejoin="round"/>
<path d="M67.7344 27.5596C67.7344 27.5596 68.8281 26.6377 69.7344 26.0127C70.6406 25.3877 71.7344 24.6221 71.7344 24.4658C71.5625 24.3408 70.6406 24.9346 69.375 25.7002C68.0938 26.4814 67.375 27.2471 67.375 27.2471L67.7344 27.5596ZM67.8125 28.1846C67.8125 28.1846 68.875 27.5439 69.9219 27.0908C71.0156 26.6377 72.6562 26.6377 72.8281 26.4814C72.8281 26.3252 70.9219 26.2314 69.5625 26.7783C68.1719 27.4189 67.4531 27.8721 67.4531 27.8721L67.8125 28.1846ZM67.8281 29.2471C67.8281 29.2471 68.9844 28.7158 70.1094 28.4658C71.2031 28.2158 72.7656 28.3096 72.9531 28.1689C72.9531 28.0127 71.0156 27.7002 69.5625 28.1689C68.0938 28.6221 67.4688 28.9346 67.4688 28.9346L67.8281 29.2471ZM67.8906 30.3252C67.8906 30.3252 68.7656 29.7314 69.9219 29.6064C71.0156 29.4971 72.4688 30.3252 72.6562 30.1689C72.6562 30.0127 71.3906 29.0908 69.8125 29.2471C68.2656 29.4033 67.5312 30.0127 67.5312 30.0127L67.8906 30.3252ZM67.5312 26.9189C67.5312 26.9189 68.6406 25.9033 68.6406 25.2158C68.6406 24.6064 67.9688 23.6689 67.6719 23.6689C67.8281 23.9814 68.3438 24.6064 68.3438 25.2158C68.3438 25.8408 67.1719 26.6064 67.1719 26.6064L67.5312 26.9189Z" fill="#9E540A" stroke="black" stroke-width="0.034375" stroke-linecap="round" stroke-linejoin="round"/>
<path d="M67.531 26.9189C67.531 26.9189 67.3122 25.9033 67.3122 25.2158C67.3122 24.2939 67.9685 23.4502 67.906 23.2158C67.6716 23.4502 67.0153 24.1377 67.0153 25.2158C67.0153 26.1533 67.1716 26.6064 67.1716 26.6064L67.531 26.9189Z" fill="#9E540A" stroke="black" stroke-width="0.034375" stroke-linecap="round" stroke-linejoin="round"/>
<path d="M67.2656 26.5908C67.2656 26.2939 67.375 26.0283 67.5625 25.8252C67.8125 25.5283 68.1875 25.4346 68.5781 25.4971C69.0469 25.5752 69.4219 25.8564 69.6562 26.2939C69.9688 26.8721 70 27.4971 70.0156 28.1064C70.0156 30.2158 69.9375 31.0752 69.875 33.1533C69.8594 33.7627 69.75 35.0127 70.0312 35.9971C70.1406 36.4189 70.2656 36.8096 70.4531 37.2158C70.3281 36.7002 70.2656 36.4346 70.2031 36.0439C70.0312 35.0283 70.0781 34.0752 70.1094 33.1377C70.1719 31.2158 70.2812 30.2314 70.3438 27.9033C70.3594 27.2002 70.2969 26.6689 69.9688 26.1064C69.625 25.5283 69.0312 25.1064 68.3594 25.1064C68.0781 25.1064 67.8438 25.1533 67.6094 25.2939C67.1406 25.5439 66.9219 26.0596 66.9219 26.5752L67.2656 26.5908Z" fill="#9E540A" stroke="#FCD116" stroke-width="0.1875" stroke-linecap="round" stroke-linejoin="round"/>
<path d="M67.2656 26.5908C67.2656 26.2939 67.375 26.0283 67.5625 25.8252C67.8125 25.5283 68.1875 25.4346 68.5781 25.4971C69.0469 25.5752 69.4219 25.8564 69.6562 26.2939C69.9688 26.8721 70 27.4971 70.0156 28.1064C70.0156 30.2158 69.9375 31.0752 69.875 33.1533C69.8594 33.7627 69.75 35.0127 70.0312 35.9971C70.1406 36.4189 70.2656 36.8096 70.4531 37.2158C70.3281 36.7002 70.2656 36.4346 70.2031 36.0439C70.0312 35.0283 70.0781 34.0752 70.1094 33.1377C70.1719 31.2158 70.2812 30.2314 70.3438 27.9033C70.3594 27.2002 70.2969 26.6689 69.9688 26.1064C69.625 25.5283 69.0312 25.1064 68.3594 25.1064C68.0781 25.1064 67.8438 25.1533 67.6094 25.2939C67.1406 25.5439 66.9219 26.0596 66.9219 26.5752L67.2656 26.5908Z" fill="#9E540A"/>
<path d="M67.1719 34.1221C67.1719 34.1221 67.6094 34.9033 67.9375 35.4658C68.2656 36.0283 68.5313 36.1533 68.7813 35.9814C69.0156 35.8096 68.8125 35.3564 68.625 35.1377C68.4375 34.9189 67.3906 33.9033 67.3906 33.9033L67.1719 34.1221Z" fill="#9E540A" stroke="black" stroke-width="0.034375" stroke-linecap="round" stroke-linejoin="round"/>
<path d="M67.063 34.1846C67.063 34.1846 67.2348 35.0752 67.3755 35.7158C67.5005 36.3564 67.7192 36.5752 67.9848 36.4971C68.2661 36.4346 68.2192 35.9189 68.1098 35.6533C68.0005 35.3877 67.3442 34.0439 67.3442 34.0439L67.063 34.1846Z" fill="#9E540A" stroke="black" stroke-width="0.034375" stroke-linecap="round" stroke-linejoin="round"/>
<path d="M66.8753 34.2158V35.7783C66.8753 36.4346 67.0316 36.7002 67.3284 36.6846C67.6097 36.6689 67.6722 36.1689 67.6097 35.8721C67.5628 35.5908 67.1722 34.1377 67.1722 34.1377L66.8753 34.2158Z" fill="#9E540A" stroke="black" stroke-width="0.034375" stroke-linecap="round" stroke-linejoin="round"/>
<path d="M66.875 34.2002C66.0469 34.1846 65.9688 33.8877 65.9688 33.8877C65.9688 33.8877 65.8594 33.5127 65.8438 33.2783C65.8281 33.2471 65.6094 32.7783 65.6719 32.5752C65.5938 32.3877 65.4062 31.9346 65.5781 31.8564C65.5 31.6377 65.375 31.3877 65.3594 31.1533C65.2969 30.9814 65.1406 30.6064 65.2656 30.4814C65.2656 30.4814 64.9688 29.8564 65.1094 29.7002C65.1094 29.7002 64.9688 29.0908 65.1094 28.9346C65.1094 28.9346 65.1094 28.3096 65.2656 28.1533C65.2656 28.1533 65.2656 27.5439 65.4062 27.3877C65.4062 27.4189 65.8438 26.5283 66.875 26.5283L66.8594 27.8564H66.875V34.2002Z" fill="#9E540A" stroke="black" stroke-width="0.034375" stroke-linecap="round" stroke-linejoin="round"/>
<path d="M66.875 30.7939C65.5469 30.7783 65.2656 30.4814 65.2656 30.4814M66.875 30.0127C65.5469 30.0127 65.1094 29.7002 65.1094 29.7002M66.875 29.2471C65.5469 29.2314 65.1094 28.9346 65.1094 28.9346M66.875 28.4658C65.5469 28.4502 65.2656 28.1533 65.2656 28.1533M66.8594 27.8564C66.875 27.8564 65.8594 27.8564 65.7031 27.7002L65.4062 27.4033M66.875 33.5752C66.4844 33.5752 66.0469 33.5127 65.8438 33.2783M66.875 32.9502C66.1406 32.9502 65.7031 32.6533 65.7031 32.6533C65.7031 32.6533 65.6875 32.6221 65.6719 32.5752M66.875 32.1846C65.9062 32.1689 65.6406 31.9658 65.5781 31.8564M66.875 31.5596C65.5469 31.5596 65.4062 31.2471 65.4062 31.2471L65.3594 31.1533" stroke="black" stroke-width="0.034375" stroke-linecap="round" stroke-linejoin="round"/>
<path d="M66.875 34.2002C67.7031 34.1846 67.7812 33.8877 67.7812 33.8877C67.7812 33.8877 67.8906 33.5127 67.9062 33.2783C67.9219 33.2471 68.1406 32.7783 68.0781 32.5752C68.1562 32.3877 68.3438 31.9346 68.1719 31.8564C68.25 31.6377 68.375 31.3877 68.3906 31.1533C68.4531 30.9814 68.6094 30.6064 68.4844 30.4814C68.4844 30.4814 68.7812 29.8564 68.6406 29.7002C68.6406 29.7002 68.7812 29.0908 68.6406 28.9346C68.6406 28.9346 68.6406 28.3096 68.4844 28.1533C68.4844 28.1533 68.4844 27.5439 68.3438 27.3877C68.3438 27.4189 67.9062 26.5283 66.875 26.5283L66.8906 27.8564H66.875V34.2002Z" fill="#9E540A" stroke="black" stroke-width="0.034375" stroke-linecap="round" stroke-linejoin="round"/>
<path d="M66.875 30.7939C68.2031 30.7783 68.4844 30.4814 68.4844 30.4814M66.875 30.0127C68.2031 30.0127 68.6406 29.7002 68.6406 29.7002M66.875 29.2471C68.2031 29.2314 68.6406 28.9346 68.6406 28.9346M66.875 28.4658C68.2031 28.4502 68.4844 28.1533 68.4844 28.1533M66.8906 27.8564C66.875 27.8564 67.8906 27.8564 68.0469 27.7002L68.3438 27.4033M66.875 33.5752C67.2656 33.5752 67.7031 33.5127 67.9062 33.2783M66.875 32.9502C67.6094 32.9502 68.0469 32.6533 68.0469 32.6533C68.0469 32.6533 68.0625 32.6221 68.0781 32.5752M66.875 32.1846C67.8438 32.1689 68.1094 31.9658 68.1719 31.8564M66.875 31.5596C68.2031 31.5596 68.3438 31.2471 68.3438 31.2471L68.3906 31.1533" stroke="black" stroke-width="0.034375" stroke-linecap="round" stroke-linejoin="round"/>
<path d="M60.6255 48.5752C59.9536 49.2002 58.6567 48.7939 58.2505 48.5127C57.8286 48.6533 56.7036 48.2158 56.4067 47.7314C55.5942 47.8408 55.313 46.6846 55.4536 46.3877C55.6724 45.9502 55.2817 45.6689 55.563 45.3721C55.9536 44.9971 55.3442 44.6377 55.7192 44.3877C56.0942 44.1221 55.6255 43.6846 56.0005 43.4033C56.3911 43.1064 55.7974 42.7002 56.2036 42.4971C56.6099 42.2939 56.1567 41.7627 56.5005 41.5596C56.8442 41.3564 56.2974 40.8408 56.7661 40.6064C57.2192 40.3721 56.813 39.9658 57.1724 39.7939C57.563 39.5908 57.2036 39.1689 57.563 39.0283C57.9692 38.8564 57.6724 38.4033 58.0161 38.2783C58.313 38.1689 58.1255 37.8877 58.313 37.6377H60.6255" fill="#009E49"/>
<path d="M60.6255 48.5752C59.9536 49.2002 58.6567 48.7939 58.2505 48.5127C57.8286 48.6533 56.7036 48.2158 56.4067 47.7314C55.5942 47.8408 55.313 46.6846 55.4536 46.3877C55.6724 45.9502 55.2817 45.6689 55.563 45.3721C55.9536 44.9971 55.3442 44.6377 55.7192 44.3877C56.0942 44.1221 55.6255 43.6846 56.0005 43.4033C56.3911 43.1064 55.7974 42.7002 56.2036 42.4971C56.6099 42.2939 56.1567 41.7627 56.5005 41.5596C56.8442 41.3564 56.2974 40.8408 56.7661 40.6064C57.2192 40.3721 56.813 39.9658 57.1724 39.7939C57.563 39.5908 57.2036 39.1689 57.563 39.0283C57.9692 38.8564 57.6724 38.4033 58.0161 38.2783C58.313 38.1689 58.1255 37.8877 58.313 37.6377H60.6255" stroke="black" stroke-width="0.034375" stroke-linecap="round" stroke-linejoin="round"/>
<path d="M59.0784 37.7314C58.7659 38.0439 59.1409 38.2783 58.8284 38.6533C58.5003 39.0439 58.7972 39.2471 58.5316 39.5908C58.2659 39.9346 58.6566 40.1064 58.3597 40.4971C58.0628 40.8721 58.4222 41.1064 58.0941 41.4189C57.7816 41.7471 58.1566 42.0283 57.8284 42.3721C57.5159 42.7314 57.8909 42.9658 57.5784 43.2783C57.2503 43.6064 57.6253 43.9502 57.3128 44.2627C57.0003 44.5908 57.3753 44.9971 57.0159 45.3721C56.6722 45.7471 57.0784 46.0439 56.7972 46.3252C56.5003 46.6221 56.7659 46.9189 56.5628 47.1221C56.3597 47.3252 56.3284 47.6064 56.4066 47.7314M59.6878 37.8408C59.4066 38.2314 59.8441 38.4033 59.5784 38.7158C59.3128 39.0439 59.6878 39.1533 59.4847 39.5283C59.2816 39.9033 59.6409 39.9971 59.3753 40.3721C59.1097 40.7471 59.5159 41.0439 59.2347 41.4189C58.9378 41.7939 59.3753 41.9971 59.1097 42.3721C58.8597 42.7627 59.2347 42.9658 59.0003 43.2471C58.7659 43.5439 59.1722 43.8252 58.8753 44.1846C58.5941 44.5283 59.0003 44.7939 58.7659 45.1064C58.5316 45.4346 58.8597 45.7783 58.6566 46.0439C58.4534 46.2939 58.7972 46.6846 58.5003 47.0283C58.2191 47.3721 58.5628 47.6064 58.3909 47.8408C58.2191 48.0752 58.0784 48.4189 58.2503 48.5127" stroke="black" stroke-width="0.034375" stroke-linecap="round" stroke-linejoin="round"/>
<path d="M60.6255 48.5752C61.2974 49.2002 62.5942 48.7939 63.0005 48.5127C63.4224 48.6533 64.5474 48.2158 64.8442 47.7314C65.6567 47.8408 65.938 46.6846 65.7974 46.3877C65.5786 45.9502 65.9692 45.6689 65.688 45.3721C65.2974 44.9971 65.9067 44.6377 65.5317 44.3877C65.1567 44.1221 65.6255 43.6846 65.2505 43.4033C64.8599 43.1064 65.4536 42.7002 65.0474 42.4971C64.6411 42.2939 65.0942 41.7627 64.7505 41.5596C64.4067 41.3564 64.9536 40.8408 64.4849 40.6064C64.0317 40.3721 64.438 39.9658 64.0786 39.7939C63.688 39.5908 64.0474 39.1689 63.688 39.0283C63.2817 38.8564 63.5786 38.4033 63.2349 38.2783C62.938 38.1689 63.1255 37.8877 62.938 37.6377H60.6255" fill="#009E49"/>
<path d="M60.6255 48.5752C61.2974 49.2002 62.5942 48.7939 63.0005 48.5127C63.4224 48.6533 64.5474 48.2158 64.8442 47.7314C65.6567 47.8408 65.938 46.6846 65.7974 46.3877C65.5786 45.9502 65.9692 45.6689 65.688 45.3721C65.2974 44.9971 65.9067 44.6377 65.5317 44.3877C65.1567 44.1221 65.6255 43.6846 65.2505 43.4033C64.8599 43.1064 65.4536 42.7002 65.0474 42.4971C64.6411 42.2939 65.0942 41.7627 64.7505 41.5596C64.4067 41.3564 64.9536 40.8408 64.4849 40.6064C64.0317 40.3721 64.438 39.9658 64.0786 39.7939C63.688 39.5908 64.0474 39.1689 63.688 39.0283C63.2817 38.8564 63.5786 38.4033 63.2349 38.2783C62.938 38.1689 63.1255 37.8877 62.938 37.6377H60.6255" stroke="black" stroke-width="0.034375" stroke-linecap="round" stroke-linejoin="round"/>
<path d="M62.1725 37.7314C62.485 38.0439 62.11 38.2783 62.4225 38.6533C62.7507 39.0439 62.4538 39.2471 62.7194 39.5908C62.985 39.9346 62.5944 40.1064 62.8913 40.4971C63.1882 40.8721 62.8288 41.1064 63.1569 41.4189C63.4694 41.7471 63.0944 42.0283 63.4225 42.3721C63.735 42.7314 63.36 42.9658 63.6725 43.2783C64.0007 43.6064 63.6257 43.9502 63.9382 44.2627C64.2507 44.5908 63.8757 44.9971 64.235 45.3721C64.5788 45.7471 64.1725 46.0439 64.4538 46.3252C64.7507 46.6221 64.485 46.9189 64.6882 47.1221C64.8913 47.3252 64.9225 47.6064 64.8444 47.7314M61.5632 37.8408C61.8444 38.2314 61.4069 38.4033 61.6725 38.7158C61.9382 39.0439 61.5632 39.1533 61.7663 39.5283C61.9694 39.9033 61.61 39.9971 61.8757 40.3721C62.1413 40.7471 61.735 41.0439 62.0163 41.4189C62.3132 41.7939 61.8757 41.9971 62.1413 42.3721C62.3913 42.7627 62.0163 42.9658 62.2507 43.2471C62.485 43.5439 62.0788 43.8252 62.3757 44.1846C62.6569 44.5283 62.2507 44.7939 62.485 45.1064C62.7194 45.4346 62.3913 45.7783 62.5944 46.0439C62.7975 46.2939 62.4538 46.6846 62.7507 47.0283C63.0319 47.3721 62.6882 47.6064 62.86 47.8408C63.0319 48.0752 63.1725 48.4189 63.0007 48.5127" stroke="black" stroke-width="0.034375" stroke-linecap="round" stroke-linejoin="round"/>
<path d="M60.625 48.5752V37.6377" stroke="#009E49" stroke-width="0.034375" stroke-linecap="round" stroke-linejoin="round"/>
<path d="M60.6259 38.2002C60.4853 38.8096 60.829 39.3408 60.6259 39.8564C60.4228 40.3564 60.7665 40.5596 60.6572 40.9658C60.5322 41.3721 60.7978 41.6689 60.6259 42.1064C60.454 42.5439 60.8603 42.8877 60.6259 43.4658C60.3915 44.0283 60.7822 44.1689 60.6259 44.7471C60.454 45.4033 60.9228 45.7471 60.6259 46.2158C60.329 46.6846 60.8915 46.7939 60.6572 47.3252C60.4228 47.8408 60.7978 48.0439 60.6259 48.5752" stroke="black" stroke-width="0.034375" stroke-linecap="round" stroke-linejoin="round"/>
<path d="M60.8594 40.1691C60.7812 40.341 61.0938 40.7473 60.9219 41.0598C60.7344 41.3566 61.0156 41.8254 60.8281 42.2004C60.6406 42.5754 61.125 43.0441 60.9375 43.4816C60.7344 43.9191 61.0312 44.466 60.9375 44.8723C60.8594 45.2785 61.1406 46.0598 60.9375 46.341C60.7344 46.6379 61.1406 46.716 60.9062 47.4348C60.6719 48.1535 60.5156 47.5441 60.6562 47.3254C60.9531 46.841 60.3281 46.6848 60.625 46.216C60.9219 45.7473 60.4531 45.4035 60.625 44.7473C60.7812 44.1691 60.3906 44.0285 60.625 43.466C60.8594 42.8879 60.4531 42.5441 60.625 42.1066C60.7969 41.6691 60.5312 41.3723 60.6562 40.966C60.7656 40.5598 60.4219 40.3566 60.625 39.8566C60.7812 39.3566 60.9375 39.9973 60.8594 40.1691ZM59.5469 40.6691C59.4375 40.8566 59.7344 41.216 59.4688 41.5754C59.2812 41.8254 59.5938 42.1223 59.3281 42.4816C59.1562 42.7316 59.5 43.0441 59.2656 43.4035C59.1094 43.6066 59.375 43.9973 59.1875 44.2941C59 44.6066 59.2812 44.8566 58.9531 45.2629C58.7656 45.4816 59.0938 46.0285 58.8906 46.2004C58.6875 46.3723 58.875 47.0441 58.7344 47.1379C58.6094 47.2473 58.7344 47.7316 58.3906 47.841C58.5625 47.6066 58.2188 47.3723 58.5 47.0285C58.7969 46.6848 58.4531 46.2941 58.6562 46.0441C58.8594 45.7785 58.5312 45.4348 58.7656 45.1066C59 44.7941 58.5938 44.5285 58.875 44.1848C59.1719 43.8254 58.7656 43.5441 59 43.2473C59.2344 42.966 58.8594 42.7629 59.1094 42.3723C59.375 41.9973 58.9375 41.7941 59.2344 41.4191C59.5156 41.0441 59.1094 40.7473 59.375 40.3723C59.6406 39.9973 59.2812 39.9035 59.4844 39.5285C59.8594 39.6691 59.6719 40.4816 59.5469 40.6691ZM58.7656 39.6535C58.6094 39.9035 58.8281 40.2004 58.5938 40.5129C58.3594 40.841 58.5938 41.2473 58.3594 41.5129C58.125 41.7629 58.4219 42.2629 58.125 42.466C57.8281 42.6691 58.0156 43.2785 57.7812 43.4816C57.5469 43.6848 57.7812 44.2629 57.5156 44.5598C57.25 44.8566 57.375 45.466 57.2188 45.6066C57.0781 45.7473 57.4219 46.0441 57.1719 46.2473C56.9062 46.4504 56.9062 46.8566 56.5625 47.1223C56.7656 46.9191 56.5 46.6223 56.7969 46.3254C57.0781 46.0441 56.6719 45.7473 57.0156 45.3723C57.375 44.9973 57 44.591 57.3125 44.2629C57.625 43.9504 57.25 43.6066 57.5781 43.2785C57.8906 42.966 57.5156 42.7316 57.8281 42.3723C58.1562 42.0285 57.7812 41.7473 58.0938 41.4191C58.4219 41.1066 58.0625 40.8723 58.3594 40.4973C58.6562 40.1066 58.2656 39.9348 58.5312 39.591C58.6562 39.4348 58.6562 39.2941 58.6562 39.1691C58.8438 38.6848 58.8438 39.5285 58.7656 39.6535Z" fill="#FCD116" stroke="black" stroke-width="0.034375" stroke-linecap="round" stroke-linejoin="round"/>
<path d="M58.4531 37.9971C58.4531 34.7158 58.9062 33.5752 60.625 33.5752C62.3438 33.5752 62.7969 34.7158 62.7969 37.9971H58.4531Z" fill="#CE1126" stroke="black" stroke-width="0.034375" stroke-linecap="round" stroke-linejoin="round"/>
<path d="M58.4531 37.9971C58.4531 34.7158 58.9062 33.5752 60.625 33.5752C59.8438 33.5752 59.3594 34.1846 59.2344 34.5908C59.0938 34.9971 59.1719 34.9658 59.3438 34.8096C59.5156 34.6533 59.4375 34.9971 59.2812 35.1846C59.1406 35.3721 59 35.9189 59.2031 35.7471C59.4062 35.5596 59.5625 35.7627 59.3438 36.0752C59.125 36.3721 58.9375 37.0908 59.1562 36.8408C59.375 36.5908 59.4219 36.9971 59.2812 37.2002C59.1562 37.4033 59.1719 37.5908 59.2812 37.4971C59.4062 37.4033 59.3906 37.8252 59.2812 37.9971H58.4531ZM61.4375 37.9346C61.4375 37.4502 61.4531 36.3096 61.1875 35.9346C61 35.6377 61 35.3252 61.2188 35.6689C61.4375 36.0127 61.5469 35.8408 61.3906 35.4971C61.2031 35.0596 60.9531 34.5752 61.0156 34.4814C61.0938 34.3721 61.1406 34.4189 61.2969 34.6533C61.4531 34.8877 61.4844 34.5439 61.3125 34.3096C61.1406 34.0908 61.1562 34.0439 61.5156 34.2002C62.1562 34.4658 62.4688 35.2314 62.4688 37.8096L61.4375 37.9346Z" fill="black" stroke="black" stroke-width="0.034375" stroke-linecap="round" stroke-linejoin="round"/>
<path d="M60.6258 38.4658C59.9383 38.4658 59.1883 38.3565 58.6883 38.1533C58.0945 37.919 58.0633 37.7158 58.2664 37.4658C58.4227 37.2783 58.7352 37.3877 59.0477 37.5283C59.3445 37.6533 60.1883 37.7471 60.6258 37.7471C61.0633 37.7471 61.907 37.6533 62.2039 37.5127C62.5164 37.3877 62.8289 37.2783 62.9852 37.4658C63.1883 37.7158 63.157 37.919 62.5633 38.1533C62.0633 38.3565 61.3133 38.4658 60.6258 38.4658Z" fill="#CE1126" stroke="black" stroke-width="0.034375" stroke-linecap="round" stroke-linejoin="round"/>
<path d="M0 0H40V30H0V0Z" fill="#012169"/>
<path d="M4.6875 0L19.9375 11.3125L35.125 0H40V3.875L25 15.0625L40 26.1875V30H35L20 18.8125L5.0625 30H0V26.25L14.9375 15.125L0 4V0H4.6875Z" fill="white"/>
<path d="M26.5 17.5625L40 27.5V30L23.0625 17.5625H26.5ZM15 18.8125L15.375 21L3.375 30H0L15 18.8125ZM40 0V0.1875L24.4375 11.9375L24.5625 9.1875L36.875 0H40ZM0 0L14.9375 11H11.1875L0 2.625V0Z" fill="#C8102E"/>
<path d="M15.0625 0V30H25.0625V0H15.0625ZM0 10V20H40V10H0Z" fill="white"/>
<path d="M0 12.0625V18.0625H40V12.0625H0ZM17.0625 0V30H23.0625V0H17.0625Z" fill="#C8102E"/>
</g>
<defs>
<clipPath id="clip0_3736_63856">
<rect width="80" height="60" fill="white"/>
</clipPath>
</defs>
</svg>
