<svg width="80" height="60" viewBox="0 0 80 60" fill="none" xmlns="http://www.w3.org/2000/svg">
<g clip-path="url(#clip0_3736_63613)">
<path fill-rule="evenodd" clip-rule="evenodd" d="M0 0H80V60H0V0Z" fill="#E30A17"/>
<path fill-rule="evenodd" clip-rule="evenodd" d="M50.875 30.9377C50.875 39.2127 44.05 45.9252 35.625 45.9252C27.2 45.9252 20.375 39.2127 20.375 30.9252C20.375 22.6377 27.2 15.9502 35.625 15.9502C44.05 15.9502 50.875 22.6627 50.875 30.9377Z" fill="white"/>
<path fill-rule="evenodd" clip-rule="evenodd" d="M51.6248 30.9377C51.6248 37.5627 46.1748 42.9252 39.4373 42.9252C32.6998 42.9252 27.2373 37.5502 27.2373 30.9252C27.2373 24.3002 32.6998 18.9502 39.4373 18.9502C46.1748 18.9502 51.6373 24.3127 51.6373 30.9377H51.6248Z" fill="#E30A17"/>
<path fill-rule="evenodd" clip-rule="evenodd" d="M53.8373 23.9373L53.7123 29.4748L48.5498 30.8748L53.6498 32.6873L53.5248 37.7748L56.8373 33.7998L61.8623 35.5498L58.9623 31.2873L62.4998 27.0498L57.0623 28.5498L53.8373 23.9248V23.9373Z" fill="white"/>
</g>
<defs>
<clipPath id="clip0_3736_63613">
<rect width="80" height="60" fill="white"/>
</clipPath>
</defs>
</svg>
