<svg width="80" height="60" viewBox="0 0 80 60" fill="none" xmlns="http://www.w3.org/2000/svg">
<g clip-path="url(#clip0_4604_131874)">
<mask id="mask0_4604_131874" style="mask-type:luminance" maskUnits="userSpaceOnUse" x="0" y="0" width="80" height="60">
<path d="M0.00390625 0H79.9961V60H0.00390625V0Z" fill="white"/>
</mask>
<g mask="url(#mask0_4604_131874)">
<path fill-rule="evenodd" clip-rule="evenodd" d="M-5 0H85V60H-5V0Z" fill="#00843D"/>
<path fill-rule="evenodd" clip-rule="evenodd" d="M25.8555 16.1133C29.125 17.6836 33.0156 16.1133 34.4219 13.9336C35.875 11.8945 36.0508 8.48438 33.5547 5.35547C37.4219 8.56641 38.2891 12.2109 36.3555 15.2109C33.7773 18.6445 28.082 18.5391 25.8555 16.1133Z" fill="white"/>
<path fill-rule="evenodd" clip-rule="evenodd" d="M31.6562 8.13281L32.3125 8.14453L31.7969 8.55469L31.9961 9.21094L31.4453 8.82422L30.918 9.21094L31.0938 8.56641L30.5664 8.15625L31.2227 8.14453L31.4453 7.5L31.6562 8.13281ZM28.4102 12.2109H29.0664L28.5508 12.6328L28.75 13.2773L28.1992 12.8906L27.6602 13.2891L27.8477 12.6328L27.3203 12.2344L27.9766 12.2109L28.1875 11.5664L28.4102 12.2109ZM28.6211 9H29.2891L28.7617 9.42188L28.9609 10.0664L28.4219 9.67969L27.8828 10.0781L28.0703 9.42188L27.543 9.01172L28.1992 9L28.4102 8.35547L28.6211 9ZM28.6211 5.77734H29.2891L28.75 6.21094L28.9492 6.85547L28.4102 6.48047L27.8711 6.86719L28.0586 6.22266L27.5313 5.8125L28.1875 5.80078L28.3984 5.15625L28.6211 5.77734ZM25.0234 9.85547H25.6797L25.1523 10.2773L25.3516 10.9219L24.8125 10.5352L24.2734 10.9336L24.4609 10.2773L23.9336 9.87891L24.5898 9.85547L24.8008 9.21094L25.0234 9.85547Z" fill="white"/>
<path fill-rule="evenodd" clip-rule="evenodd" d="M0.566406 0H19.8555V60H0.566406V0Z" fill="#CA3745"/>
<path fill-rule="evenodd" clip-rule="evenodd" d="M0.566406 15.6445V15.2109L1.36328 14.1445L1.21094 13.9219L1.67969 13.2891L1.52734 13.0664L1.21094 13.5L1.04687 13.2891L2.17188 11.7891L2.33594 12L2.17188 12.2109L2.5 12.6562L3.29688 11.5781L2.48828 10.5352L2.17188 10.9336L2.33594 11.1562L2.17188 11.3672L1.04687 9.86719L1.21094 9.65625L1.52734 10.0781L1.69141 9.86719L1.21094 9.22266L1.36328 9.01172L0.566406 7.93359V7.5L1.69141 9L1.52734 9.21094L2.00781 9.85547L1.69141 10.2891L2.00781 10.7109L2.5 10.0781L3.63672 11.6016L2.5 13.0781L2.03125 12.4336L1.70312 12.8672L2.01953 13.3008L1.55078 13.9336L1.70312 14.1563L0.578125 15.6563L0.566406 15.6445Z" fill="#FAAE29"/>
<path fill-rule="evenodd" clip-rule="evenodd" d="M0.566406 10.2891L0.730469 10.7109V11.3672H1.21094L1.53906 11.5781L1.21094 11.8008H0.742188V12.4336L0.578125 12.8672V10.2891H0.566406Z" fill="#FAAE29"/>
<path fill-rule="evenodd" clip-rule="evenodd" d="M0.566406 25.9336V25.5L1.36328 24.4336L1.21094 24.2109L1.67969 23.5664L1.52734 23.3555L1.21094 23.7891L1.04687 23.5664L2.17188 22.0664L2.33594 22.2891L2.17188 22.5L2.5 22.9336L3.29688 21.8555L2.48828 20.8125L2.17188 21.2109L2.33594 21.4336L2.17188 21.6445L1.04687 20.1445L1.21094 19.9219L1.52734 20.3438L1.69141 20.1328L1.21094 19.4883L1.36328 19.2773L0.566406 18.1992V17.7773L1.69141 19.2773L1.52734 19.4883L2.00781 20.1328L1.69141 20.5547L2.00781 20.9883L2.48828 20.3438L3.625 21.8672L2.48828 23.3438L2.01953 22.6992L1.69141 23.1328L2.00781 23.5547L1.53906 24.1992L1.69141 24.4219L0.566406 25.9219V25.9336Z" fill="#FAAE29"/>
<path fill-rule="evenodd" clip-rule="evenodd" d="M0.566406 20.5664L0.730469 21V21.6445H1.21094L1.53906 21.8555L1.21094 22.0664H0.742188V22.7109L0.578125 23.1445V20.5664H0.566406Z" fill="#FAAE29"/>
<path fill-rule="evenodd" clip-rule="evenodd" d="M0.566406 36.2109V35.7891L1.36328 34.7109L1.21094 34.5L1.67969 33.8555L1.52734 33.6445L1.21094 34.0664L1.04687 33.8555L2.17188 32.3555L2.33594 32.5664L2.17188 32.7891L2.5 33.2227L3.29688 32.1445L2.48828 31.0898L2.17188 31.5L2.33594 31.7109L2.17188 31.9219L1.04687 30.4219L1.21094 30.2109L1.52734 30.6445L1.69141 30.4219L1.21094 29.7891L1.36328 29.5664L0.566406 28.5V28.0664L1.69141 29.5664L1.52734 29.7891L2.00781 30.4219L1.69141 30.8555L2.00781 31.2891L2.5 30.6445L3.625 32.168L2.48828 33.6445L2.01953 33L1.69141 33.4219L2.00781 33.8555L1.53906 34.5L1.69141 34.7109L0.566406 36.2109Z" fill="#FAAE29"/>
<path fill-rule="evenodd" clip-rule="evenodd" d="M0.566406 30.8555L0.742188 31.2891V31.9336H1.21094L1.53906 32.1445L1.21094 32.3437H0.742188V32.9883L0.578125 33.4219V30.8438L0.566406 30.8555Z" fill="#FAAE29"/>
<path fill-rule="evenodd" clip-rule="evenodd" d="M0.566406 45.8555V45.4219L1.36328 44.3555L1.21094 44.1445L1.67969 43.5L1.52734 43.2891L1.21094 43.7109L1.04687 43.5L2.17188 42L2.33594 42.2109L2.17188 42.4219L2.5 42.8555L3.29688 41.7891L2.48828 40.7344L2.17188 41.1445L2.33594 41.3555L2.17188 41.5664L1.04687 40.0664L1.21094 39.8555L1.52734 40.2891L1.69141 40.0664L1.21094 39.4219L1.36328 39.2109L0.566406 38.1445V37.7109L1.69141 39.2109L1.52734 39.4219L2.00781 40.0664L1.69141 40.5L2.00781 40.9219L2.5 40.2891L3.625 41.8125L2.48828 43.2891L2.01953 42.6445L1.69141 43.0664L2.00781 43.5L1.53906 44.1445L1.69141 44.3555L0.566406 45.8555Z" fill="#FAAE29"/>
<path fill-rule="evenodd" clip-rule="evenodd" d="M0.566406 40.5L0.730469 40.9219V41.5664H1.21094L1.53906 41.7891L1.21094 42H0.742188V42.6445L0.578125 43.0664V40.4883L0.566406 40.5Z" fill="#FAAE29"/>
<path fill-rule="evenodd" clip-rule="evenodd" d="M19.8555 15.6445V15.2109L19.0586 14.1445L19.2227 13.9219L18.7422 13.2891L18.8945 13.0664L19.2227 13.5L19.3867 13.2891L18.2617 11.7891L18.0977 12L18.2617 12.2109L17.9219 12.6445L17.1367 11.5664L17.9336 10.5234L18.2617 10.9219L18.0977 11.1445L18.25 11.3555L19.375 9.85547L19.2227 9.64453L18.8945 10.0664L18.7422 9.85547L19.2109 9.21094L19.0586 9L19.8555 7.92187V7.5L18.7422 9L18.8945 9.21094L18.4258 9.85547L18.7422 10.2891L18.4141 10.7109L17.9336 10.0664L16.7969 11.5898L17.9336 13.0664L18.4141 12.4219L18.7422 12.8555L18.4141 13.2891L18.8945 13.9219L18.7422 14.1445L19.8555 15.6445Z" fill="#FAAE29"/>
<path fill-rule="evenodd" clip-rule="evenodd" d="M19.8555 10.2891L19.6914 10.7109V11.3672H19.2227L18.8945 11.5781L19.2109 11.8008H19.6914V12.4336L19.8555 12.8672V10.2891Z" fill="#FAAE29"/>
<path fill-rule="evenodd" clip-rule="evenodd" d="M19.9141 25.9336V25.5L19.1172 24.4336L19.2695 24.2109L18.8008 23.5664L18.9531 23.3555L19.2695 23.7891L19.4336 23.5664L18.3086 22.0664L18.1445 22.2891L18.3086 22.5L17.9805 22.9336L17.1836 21.8555L17.9922 20.8125L18.3086 21.2109L18.1445 21.4219L18.3086 21.6445L19.4336 20.1445L19.2695 19.9219L18.9531 20.3555L18.7891 20.1445L19.2695 19.5L19.1172 19.2891L19.9141 18.2109V17.7891L18.7891 19.2891L18.9531 19.5L18.4727 20.1445L18.7891 20.5664L18.4727 21L17.9922 20.3555L16.8555 21.8789L17.9922 23.3555L18.4609 22.7109L18.7891 23.1445L18.4727 23.5664L18.9414 24.2109L18.7891 24.4219L19.9141 25.9219V25.9336Z" fill="#FAAE29"/>
<path fill-rule="evenodd" clip-rule="evenodd" d="M19.9141 20.5664L19.75 21V21.6445H19.2578L18.9297 21.8555L19.2578 22.0664H19.7266V22.7109L19.9023 23.1445V20.5664H19.9141Z" fill="#FAAE29"/>
<path fill-rule="evenodd" clip-rule="evenodd" d="M19.8555 36.2109V35.7891L19.0586 34.7109L19.2227 34.5L18.7422 33.8555L18.8945 33.6445L19.2227 34.0664L19.3867 33.8555L18.2617 32.3555L18.0977 32.5664L18.2617 32.7891L17.9219 33.2227L17.1367 32.1445L17.9336 31.0898L18.2617 31.5L18.0977 31.7109L18.25 31.9219L19.375 30.4219L19.2227 30.2109L18.8945 30.6445L18.7422 30.4219L19.2109 29.7891L19.0586 29.5664L19.8555 28.5V28.0664L18.7422 29.5664L18.8945 29.7891L18.4258 30.4219L18.7422 30.8555L18.4141 31.2891L17.9336 30.6445L16.7969 32.168L17.9336 33.6445L18.4141 33L18.7422 33.4219L18.4141 33.8555L18.8945 34.5L18.7422 34.7109L19.8438 36.2109H19.8555Z" fill="#FAAE29"/>
<path fill-rule="evenodd" clip-rule="evenodd" d="M19.8555 30.8555L19.6914 31.2891V31.9336H19.2227L18.8945 32.1445L19.2109 32.3555H19.6914V33L19.8555 33.4336V30.8555Z" fill="#FAAE29"/>
<path fill-rule="evenodd" clip-rule="evenodd" d="M19.8555 45.8555V45.4219L19.0586 44.3555L19.2227 44.1445L18.7422 43.5L18.8945 43.2891L19.2227 43.7109L19.3867 43.5L18.2617 42L18.0977 42.2109L18.2617 42.4219L17.9219 42.8555L17.1367 41.7891L17.9336 40.7344L18.2617 41.1445L18.0977 41.3555L18.25 41.5664L19.375 40.0781L19.2227 39.8672L18.8945 40.3008L18.7422 40.0781L19.2109 39.4336L19.0586 39.2227L19.8555 38.1563V37.7227L18.7422 39.2227L18.8945 39.4336L18.4258 40.0781L18.7422 40.5117L18.4141 40.9336L17.9336 40.3008L16.7969 41.8242L17.9336 43.3008L18.4141 42.6563L18.7422 43.0781L18.4141 43.5117L18.8945 44.1562L18.7422 44.3672L19.8555 45.8672V45.8555Z" fill="#FAAE29"/>
<path fill-rule="evenodd" clip-rule="evenodd" d="M19.8555 40.5L19.6914 40.9219V41.5664H19.2227L18.8945 41.7891L19.2109 42H19.6914V42.6445L19.8555 43.0664V40.4883V40.5Z" fill="#FAAE29"/>
<path fill-rule="evenodd" clip-rule="evenodd" d="M0.566406 4.06641V3.64453L1.36328 2.56641L1.21094 2.35547L1.67969 1.71094L1.52734 1.5L1.21094 1.93359L1.04687 1.71094L2.17187 0.210938L2.33594 0.433594L2.17187 0.644531L2.5 1.07812L3.29688 0H3.625L2.5 1.5L2.00781 0.855469L1.69141 1.28906L2.00781 1.71094L1.53906 2.35547L1.67969 2.57812L0.566406 4.07812V4.06641ZM0.566406 0H1.53906L1.21094 0.210938H0.742187V0.855469L0.554688 1.28906V0H0.566406ZM19.8555 4.06641V3.64453L19.0586 2.56641L19.2227 2.35547L18.7422 1.71094L18.8945 1.5L19.2227 1.93359L19.375 1.71094L18.25 0.210938L18.0977 0.433594L18.25 0.644531L17.9219 1.07812L17.125 0H16.7969L17.9336 1.5L18.4141 0.855469L18.7422 1.28906L18.4141 1.71094L18.8945 2.35547L18.7422 2.56641L19.8555 4.06641ZM19.8555 0H18.8945L19.2109 0.210938H19.6914V0.855469L19.8555 1.28906V0ZM8.60547 59.1445C8.60547 59.1445 9.30859 57.9258 11.043 57.5625C12.7891 57.1875 13.0937 58.3711 14.0898 58.3711C15.0859 58.3711 16.668 57.5508 16.668 57.5508C16.668 57.5508 15.0859 59.1094 13.8555 59.0742C12.6484 59.0391 12.2383 58.2539 10.9844 58.3711C9.74219 58.4883 8.60547 59.1797 8.60547 59.1445Z" fill="#FAAE29"/>
<path fill-rule="evenodd" clip-rule="evenodd" d="M11.9688 59.1437C11.9688 59.1437 11.2773 57.925 9.54297 57.5617C7.78516 57.1867 7.49219 58.3703 6.49609 58.3703C5.5 58.3703 3.91797 57.55 3.91797 57.55C3.91797 57.55 5.5 59.1086 6.71875 59.0734C7.9375 59.0383 8.35938 58.2531 9.58984 58.3703C10.8438 58.4875 11.9688 59.1789 11.9688 59.1437Z" fill="#FAAE29"/>
<path fill-rule="evenodd" clip-rule="evenodd" d="M6.27349 57.1298C6.12115 56.8133 5.73443 55.4071 5.93365 55.2313C6.25006 55.1141 7.07037 56.5555 6.98834 57.8329C6.44928 58.1258 4.64459 57.7157 4.65631 57.3407C4.78521 56.8133 5.81646 56.9891 6.27349 57.1298Z" fill="#FAAE29"/>
<path fill-rule="evenodd" clip-rule="evenodd" d="M5.17277 55.8987C5.07902 55.5471 4.91496 54.0706 5.14934 53.9534C5.46574 53.9299 6.03996 55.5588 5.77043 56.7893C5.19621 56.9299 3.48527 56.0276 3.5673 55.6643C3.77824 55.1956 4.73918 55.6409 5.17277 55.8987Z" fill="#FAAE29"/>
<path fill-rule="evenodd" clip-rule="evenodd" d="M4.28144 54.5391C4.21113 54.1641 4.18769 52.6641 4.42207 52.5938C4.73847 52.6172 5.17206 54.3281 4.79706 55.5117C4.21113 55.5586 2.59394 54.3867 2.71113 54.0469C2.9455 53.6016 3.883 54.1992 4.28144 54.5391Z" fill="#FAAE29"/>
<path fill-rule="evenodd" clip-rule="evenodd" d="M3.57914 53.0859C3.5557 52.6992 3.69633 51.2109 3.94242 51.1875C4.25883 51.2695 4.48149 53.0508 3.96586 54.1406C3.39164 54.0703 1.9268 52.582 2.09086 52.2656C2.37211 51.8789 3.22758 52.6641 3.57914 53.0859Z" fill="#FAAE29"/>
<path fill-rule="evenodd" clip-rule="evenodd" d="M3.08668 51.5509C3.11011 51.1641 3.4148 49.7344 3.6609 49.7462C3.95386 49.8985 3.98902 51.6915 3.36793 52.6759C2.80543 52.4884 1.50464 50.7423 1.69214 50.4493C2.03199 50.1212 2.78199 51.0704 3.09839 51.5509H3.08668Z" fill="#FAAE29"/>
<path fill-rule="evenodd" clip-rule="evenodd" d="M3.22655 49.8047C3.19139 51.3281 2.91015 51.3516 2.40624 50.2266C2.17186 49.793 2.14843 48.0352 2.34765 47.9648C2.64061 47.9648 3.21483 49.2188 3.22655 49.8047Z" fill="#FAAE29"/>
<path fill-rule="evenodd" clip-rule="evenodd" d="M14.2192 57.3056C14.3715 56.9775 14.7582 55.5712 14.559 55.3954C14.2426 55.2782 13.434 56.7079 13.5043 57.997C14.0434 58.29 15.8598 57.8798 15.8363 57.5048C15.7074 56.9775 14.6879 57.1532 14.2192 57.2939V57.3056Z" fill="#FAAE29"/>
<path fill-rule="evenodd" clip-rule="evenodd" d="M15.3203 56.0628C15.4258 55.7112 15.5782 54.2346 15.3555 54.1174C15.0391 54.094 14.4532 55.7112 14.7344 56.9534C15.2969 57.094 17.0196 56.1917 16.9258 55.8284C16.7266 55.3479 15.7539 55.8049 15.3203 56.0628Z" fill="#FAAE29"/>
<path fill-rule="evenodd" clip-rule="evenodd" d="M16.2111 54.7031C16.2814 54.3281 16.3048 52.8281 16.0705 52.7578C15.7541 52.7812 15.3205 54.4805 15.7072 55.6641C16.2931 55.7109 17.9103 54.5508 17.7931 54.1992C17.5353 53.7539 16.6212 54.3633 16.2111 54.7031Z" fill="#FAAE29"/>
<path fill-rule="evenodd" clip-rule="evenodd" d="M16.9143 53.2383C16.9377 52.8633 16.7971 51.375 16.551 51.3516C16.2346 51.4336 16.012 53.2148 16.5276 54.3047C17.1135 54.2344 18.5666 52.7461 18.4143 52.4297C18.1213 52.0312 17.2776 52.8281 16.9143 53.2383Z" fill="#FAAE29"/>
<path fill-rule="evenodd" clip-rule="evenodd" d="M17.4072 51.7034C17.3955 51.3284 17.079 49.887 16.8447 49.9104C16.54 50.0511 16.5048 51.8558 17.1376 52.8401C17.7001 52.6526 18.9892 50.9065 18.8017 50.6136C18.4619 50.2854 17.7119 51.2347 17.3955 51.7034H17.4072Z" fill="#FAAE29"/>
<path fill-rule="evenodd" clip-rule="evenodd" d="M17.2656 49.9687C17.3125 51.4922 17.582 51.5039 18.0859 50.3789C18.3203 49.957 18.3438 48.1875 18.1445 48.1289C17.8516 48.1289 17.2773 49.3828 17.2656 49.9687Z" fill="#FAAE29"/>
<path fill-rule="evenodd" clip-rule="evenodd" d="M16.8671 38.5442H15.9079V39.1877H14.9836V39.8311H11.2864L10.6586 40.4929L10.9725 40.8239H12.5246L12.8211 40.4929H11.2864L11.5829 40.162H13.7454L12.8211 41.1364H10.676L10.0656 40.8239L9.43782 41.1364H7.27531L6.35102 40.162H8.51352L8.82744 40.4929H7.27531L7.58923 40.8239H9.14135L9.43782 40.4929L8.82744 39.8311H5.42672V39.1877H4.50242V38.5442H3.57812V35.6027H4.50242V34.9593H5.42672V34.2975H8.82744L9.43782 33.654L9.14135 33.3231H7.58923L7.27531 33.654H8.82744L8.51352 33.9666H6.35102L7.27531 32.9922H9.45526L10.0831 33.3231L10.6935 32.9922H12.856L13.7803 33.9666H11.6178L11.3213 33.654H12.856L12.5421 33.3231H11.0074L10.676 33.654L11.3039 34.2975H15.001V34.9593H15.9253V35.6027H16.8671V38.5442Z" fill="#CA3745" stroke="black" stroke-width="0.0179057"/>
<path fill-rule="evenodd" clip-rule="evenodd" d="M3.88867 35.9451V38.2247H4.81296V38.8682H5.73724V39.5116H8.83272L10.0709 40.4952L11.3004 39.5208H14.7011V38.8774L15.6253 38.8682V38.2247H16.5671V35.9359H15.6341V35.2924H14.7098V34.6306H11.3091L10.0796 33.6562L8.84144 34.6306H5.74596V35.2924H4.82167V35.9359H3.89739L3.88867 35.9451Z" fill="#00843D" stroke="#FAAE29" stroke-width="0.125339"/>
<path fill-rule="evenodd" clip-rule="evenodd" d="M8.20871 34.9492L6.35742 36.5801V34.9492H8.20871ZM11.9113 34.9492L13.7743 36.5801V34.9492H11.9113ZM8.20871 39.1894L6.35742 37.5586V39.1894H8.20871ZM11.9113 39.1894L13.7743 37.5586V39.1894H11.9113ZM12.5323 35.9277L11.9113 36.5801H13.1533L12.5323 35.9277ZM7.58771 35.9277L6.97842 36.5801H8.20871L7.58771 35.9277ZM7.58771 38.2109L6.97842 37.5586H8.20871L7.58771 38.2109ZM12.5323 38.2109L11.9113 37.5586H13.1533L12.5323 38.2109Z" fill="#CA3745"/>
<path fill-rule="evenodd" clip-rule="evenodd" d="M10.0605 39.8418L9.43945 39.1894H10.6815L10.0605 39.8418ZM10.0605 36.5801L9.43945 35.9277H10.6815L10.0605 36.5801ZM10.0605 34.2969L9.43945 34.964H10.6815L10.0605 34.2969ZM10.0605 37.5586L9.43945 38.2109H10.6815L10.0605 37.5586Z" fill="#FAAE29"/>
<path fill-rule="evenodd" clip-rule="evenodd" d="M11.918 36.5879H13.1649V36.9096H11.9267L11.918 36.5879Z" fill="#FAAE29" stroke="black" stroke-width="0.00895277"/>
<path fill-rule="evenodd" clip-rule="evenodd" d="M7.28906 36.9102H7.89944V37.2411H7.28906V36.9102ZM12.2331 36.9102H12.8435V37.2411H12.2331V36.9102Z" fill="#CC0000" stroke="black" stroke-width="0.00895277"/>
<path fill-rule="evenodd" clip-rule="evenodd" d="M9.45117 34.9609H10.6806V35.2827H9.45117V34.9609ZM9.45117 35.6044H10.6806V35.9353H9.45117V35.6044Z" fill="#990000" stroke="black" stroke-width="0.00895277"/>
<path fill-rule="evenodd" clip-rule="evenodd" d="M9.13672 35.2832H10.994V35.6141H9.13672V35.2832ZM9.45063 38.2247H10.6801V38.5372H9.45063V38.2247ZM9.45063 38.8681H10.6801V39.1898H9.45063V38.8681ZM9.13672 38.5464H10.994V38.8681H9.13672V38.5464Z" fill="#990000" stroke="black" stroke-width="0.00895277"/>
<path fill-rule="evenodd" clip-rule="evenodd" d="M11.9192 37.2405H13.1661V37.5623H11.9279L11.9192 37.2405ZM6.97511 36.5879H8.2133V36.9096H6.97511V36.5879ZM6.97511 37.2313H8.2133V37.5623H6.97511V37.2313ZM6.66992 36.9096H7.2803V37.2405H6.66992V36.9096ZM7.90812 36.9096H8.51849V37.2405H7.90812V36.9096ZM11.614 36.9096H12.2244V37.2405H11.614V36.9096ZM12.8522 36.9096H13.4625V37.2405H12.8522V36.9096Z" fill="#FAAE29" stroke="black" stroke-width="0.00895277"/>
<path d="M9.30699 38.7748C9.35034 38.7748 9.38547 38.7378 9.38547 38.6921C9.38547 38.6464 9.35034 38.6094 9.30699 38.6094C9.26365 38.6094 9.22852 38.6464 9.22852 38.6921C9.22852 38.7378 9.26365 38.7748 9.30699 38.7748Z" fill="white"/>
<path d="M10.0687 38.7748C10.1121 38.7748 10.1472 38.7378 10.1472 38.6921C10.1472 38.6464 10.1121 38.6094 10.0687 38.6094C10.0254 38.6094 9.99023 38.6464 9.99023 38.6921C9.99023 38.7378 10.0254 38.7748 10.0687 38.7748Z" fill="white"/>
<path d="M10.8422 38.7748C10.8855 38.7748 10.9206 38.7378 10.9206 38.6921C10.9206 38.6464 10.8855 38.6094 10.8422 38.6094C10.7988 38.6094 10.7637 38.6464 10.7637 38.6921C10.7637 38.7378 10.7988 38.7748 10.8422 38.7748Z" fill="white"/>
<path d="M9.61168 38.4623C9.65502 38.4623 9.69016 38.4253 9.69016 38.3796C9.69016 38.3339 9.65502 38.2969 9.61168 38.2969C9.56834 38.2969 9.5332 38.3339 9.5332 38.3796C9.5332 38.4253 9.56834 38.4623 9.61168 38.4623Z" fill="white"/>
<path d="M10.5257 38.4623C10.5691 38.4623 10.6042 38.4253 10.6042 38.3796C10.6042 38.3339 10.5691 38.2969 10.5257 38.2969C10.4824 38.2969 10.4473 38.3339 10.4473 38.3796C10.4473 38.4253 10.4824 38.4623 10.5257 38.4623Z" fill="white"/>
<path d="M9.59996 39.101C9.64331 39.101 9.67844 39.064 9.67844 39.0183C9.67844 38.9726 9.64331 38.9355 9.59996 38.9355C9.55662 38.9355 9.52148 38.9726 9.52148 39.0183C9.52148 39.064 9.55662 39.101 9.59996 39.101Z" fill="white"/>
<path d="M10.5257 39.1147C10.5691 39.1147 10.6042 39.0776 10.6042 39.0319C10.6042 38.9863 10.5691 38.9492 10.5257 38.9492C10.4824 38.9492 10.4473 38.9863 10.4473 39.0319C10.4473 39.0776 10.4824 39.1147 10.5257 39.1147Z" fill="white"/>
<path d="M11.7562 37.144C11.7996 37.144 11.8347 37.1069 11.8347 37.0612C11.8347 37.0156 11.7996 36.9785 11.7562 36.9785C11.7129 36.9785 11.6777 37.0156 11.6777 37.0612C11.6777 37.1069 11.7129 37.144 11.7562 37.144Z" fill="white"/>
<path d="M12.5297 37.144C12.573 37.144 12.6081 37.1069 12.6081 37.0612C12.6081 37.0156 12.573 36.9785 12.5297 36.9785C12.4863 36.9785 12.4512 37.0156 12.4512 37.0612C12.4512 37.1069 12.4863 37.144 12.5297 37.144Z" fill="white"/>
<path d="M13.3031 37.144C13.3464 37.144 13.3816 37.1069 13.3816 37.0612C13.3816 37.0156 13.3464 36.9785 13.3031 36.9785C13.2597 36.9785 13.2246 37.0156 13.2246 37.0612C13.2246 37.1069 13.2597 37.144 13.3031 37.144Z" fill="white"/>
<path d="M12.0726 36.8178C12.116 36.8178 12.1511 36.7808 12.1511 36.7351C12.1511 36.6894 12.116 36.6523 12.0726 36.6523C12.0293 36.6523 11.9941 36.6894 11.9941 36.7351C11.9941 36.7808 12.0293 36.8178 12.0726 36.8178Z" fill="white"/>
<path d="M12.9867 36.8178C13.03 36.8178 13.0652 36.7808 13.0652 36.7351C13.0652 36.6894 13.03 36.6523 12.9867 36.6523C12.9433 36.6523 12.9082 36.6894 12.9082 36.7351C12.9082 36.7808 12.9433 36.8178 12.9867 36.8178Z" fill="white"/>
<path d="M12.0609 37.4545C12.1042 37.4545 12.1394 37.4175 12.1394 37.3718C12.1394 37.3261 12.1042 37.2891 12.0609 37.2891C12.0176 37.2891 11.9824 37.3261 11.9824 37.3718C11.9824 37.4175 12.0176 37.4545 12.0609 37.4545Z" fill="white"/>
<path d="M12.9867 37.4701C13.03 37.4701 13.0652 37.4331 13.0652 37.3874C13.0652 37.3417 13.03 37.3047 12.9867 37.3047C12.9433 37.3047 12.9082 37.3417 12.9082 37.3874C12.9082 37.4331 12.9433 37.4701 12.9867 37.4701Z" fill="white"/>
<path d="M9.29528 35.5268C9.33862 35.5268 9.37375 35.4897 9.37375 35.4441C9.37375 35.3984 9.33862 35.3613 9.29528 35.3613C9.25193 35.3613 9.2168 35.3984 9.2168 35.4441C9.2168 35.4897 9.25193 35.5268 9.29528 35.5268Z" fill="white"/>
<path d="M10.0687 35.5268C10.1121 35.5268 10.1472 35.4897 10.1472 35.4441C10.1472 35.3984 10.1121 35.3613 10.0687 35.3613C10.0254 35.3613 9.99023 35.3984 9.99023 35.4441C9.99023 35.4897 10.0254 35.5268 10.0687 35.5268Z" fill="white"/>
<path d="M10.8422 35.5131C10.8855 35.5131 10.9206 35.4761 10.9206 35.4304C10.9206 35.3847 10.8855 35.3477 10.8422 35.3477C10.7988 35.3477 10.7637 35.3847 10.7637 35.4304C10.7637 35.4761 10.7988 35.5131 10.8422 35.5131Z" fill="white"/>
<path d="M9.59996 35.2006C9.64331 35.2006 9.67844 35.1636 9.67844 35.1179C9.67844 35.0722 9.64331 35.0352 9.59996 35.0352C9.55662 35.0352 9.52148 35.0722 9.52148 35.1179C9.52148 35.1636 9.55662 35.2006 9.59996 35.2006Z" fill="white"/>
<path d="M10.5257 35.2006C10.5691 35.2006 10.6042 35.1636 10.6042 35.1179C10.6042 35.0722 10.5691 35.0352 10.5257 35.0352C10.4824 35.0352 10.4473 35.0722 10.4473 35.1179C10.4473 35.1636 10.4824 35.2006 10.5257 35.2006Z" fill="white"/>
<path d="M9.59996 35.8393C9.64331 35.8393 9.67844 35.8022 9.67844 35.7566C9.67844 35.7109 9.64331 35.6738 9.59996 35.6738C9.55662 35.6738 9.52148 35.7109 9.52148 35.7566C9.52148 35.8022 9.55662 35.8393 9.59996 35.8393Z" fill="white"/>
<path d="M10.5257 35.853C10.5691 35.853 10.6042 35.8159 10.6042 35.7702C10.6042 35.7245 10.5691 35.6875 10.5257 35.6875C10.4824 35.6875 10.4473 35.7245 10.4473 35.7702C10.4473 35.8159 10.4824 35.853 10.5257 35.853Z" fill="white"/>
<path d="M6.82262 37.1733C6.86596 37.1733 6.9011 37.1362 6.9011 37.0905C6.9011 37.0449 6.86596 37.0078 6.82262 37.0078C6.77928 37.0078 6.74414 37.0449 6.74414 37.0905C6.74414 37.1362 6.77928 37.1733 6.82262 37.1733Z" fill="white"/>
<path d="M7.59606 37.1733C7.6394 37.1733 7.67453 37.1362 7.67453 37.0905C7.67453 37.0449 7.6394 37.0078 7.59606 37.0078C7.55272 37.0078 7.51758 37.0449 7.51758 37.0905C7.51758 37.1362 7.55272 37.1733 7.59606 37.1733Z" fill="white"/>
<path d="M8.36949 37.1576C8.41284 37.1576 8.44797 37.1206 8.44797 37.0749C8.44797 37.0292 8.41284 36.9922 8.36949 36.9922C8.32615 36.9922 8.29102 37.0292 8.29102 37.0749C8.29102 37.1206 8.32615 37.1576 8.36949 37.1576Z" fill="white"/>
<path d="M7.13903 36.8471C7.18237 36.8471 7.2175 36.8101 7.2175 36.7644C7.2175 36.7187 7.18237 36.6816 7.13903 36.6816C7.09568 36.6816 7.06055 36.7187 7.06055 36.7644C7.06055 36.8101 7.09568 36.8471 7.13903 36.8471Z" fill="white"/>
<path d="M8.05309 36.8471C8.09643 36.8471 8.13156 36.8101 8.13156 36.7644C8.13156 36.7187 8.09643 36.6816 8.05309 36.6816C8.00975 36.6816 7.97461 36.7187 7.97461 36.7644C7.97461 36.8101 8.00975 36.8471 8.05309 36.8471Z" fill="white"/>
<path d="M7.12731 37.4838C7.17065 37.4838 7.20578 37.4468 7.20578 37.4011C7.20578 37.3554 7.17065 37.3184 7.12731 37.3184C7.08397 37.3184 7.04883 37.3554 7.04883 37.4011C7.04883 37.4468 7.08397 37.4838 7.12731 37.4838Z" fill="white"/>
<path d="M8.05309 37.4994C8.09643 37.4994 8.13156 37.4624 8.13156 37.4167C8.13156 37.371 8.09643 37.334 8.05309 37.334C8.00975 37.334 7.97461 37.371 7.97461 37.4167C7.97461 37.4624 8.00975 37.4994 8.05309 37.4994Z" fill="white"/>
<path fill-rule="evenodd" clip-rule="evenodd" d="M11.2773 29.9766L11.8047 29.7188L12.3438 29.9766H11.2773ZM9.68359 29.9766L10.2109 29.7188L10.75 29.9766H9.68359ZM8.08984 29.9766L8.61719 29.7188L9.15625 29.9766H8.08984ZM11.2773 24.2344L11.8047 24.4922L12.3438 24.2461H11.2773V24.2344ZM9.68359 24.2344L10.2109 24.4922L10.75 24.2461H9.68359V24.2344ZM8.08984 24.2344L8.61719 24.4922L9.15625 24.2461H8.08984V24.2344Z" fill="white"/>
<path fill-rule="evenodd" clip-rule="evenodd" d="M10.832 30.7148L10.2109 31.2187L9.58984 30.7148L8.96875 31.2187L8.34766 30.7148V30.9727L8.76953 31.207L8.55859 31.4648V31.7109H8.76953L8.96875 31.4766L9.17969 31.7109H9.39063V31.4766L9.17969 31.2187L9.58984 30.9727L10.0117 31.207L9.80078 31.4648V31.7109H10.0117L10.2109 31.4766L10.4219 31.7109H10.6211V31.4766L10.4219 31.2187L10.832 30.9727L11.2422 31.207L11.043 31.4648V31.7109H11.2422L11.4531 31.4766L11.6641 31.7109H11.8633V31.4766L11.6641 31.2187L12.0742 30.9727V30.7031L11.4531 31.207L10.832 30.7031V30.7148ZM10.832 23.4961L10.2109 22.9922L9.58984 23.4961L8.96875 22.9922L8.34766 23.4961V23.25L8.76953 22.9922L8.55859 22.7578V22.5H8.76953L8.96875 22.7461L9.17969 22.5H9.39063V22.7461L9.17969 23.0039L9.58984 23.2383L10.0117 23.0039L9.80078 22.7461V22.5H10.0117L10.2109 22.7461L10.4219 22.5H10.6211V22.7461L10.4219 23.0039L10.832 23.2383L11.2422 23.0039L11.043 22.7461V22.5H11.2422L11.4531 22.7461L11.6641 22.5H11.8633V22.7461L11.6641 23.0039L12.0742 23.2383V23.4961L11.4531 22.9922L10.832 23.4961ZM15.5195 27.6445L16.1992 27.1055L15.5312 26.5664L16.1992 26.0273L15.5312 25.4883H15.8594L16.1992 25.8398L16.5273 25.6641H16.8555V25.8516L16.5273 26.0273L16.8555 26.2031V26.3906H16.5273L16.1992 26.2031L15.8594 26.5664L16.1992 26.918L16.5273 26.7539H16.8555V26.9297L16.5273 27.1055L16.8555 27.2813V27.4687H16.5273L16.1992 27.2813L15.8594 27.6445L16.1992 27.9961L16.5273 27.8203H16.8555V28.0078L16.5273 28.1836L16.8555 28.3711V28.5469H16.5273L16.1992 28.3711L15.8594 28.7227H15.5312L16.1992 28.1836L15.5312 27.6445H15.5195ZM4.90234 27.6445L4.23438 27.1055L4.90234 26.5664L4.23438 26.0273L4.90234 25.4883H4.5625L4.23438 25.8398L3.90625 25.6641H3.55469V25.8516L3.90625 26.0156L3.56641 26.1914V26.3789H3.90625L4.23438 26.1914L4.5625 26.5547L4.23438 26.9063L3.90625 26.7422H3.55469V26.918L3.89453 27.0937L3.55469 27.2695V27.457H3.90625L4.23438 27.2695L4.5625 27.6328L4.23438 27.9961L3.90625 27.8203H3.55469V27.9961L3.89453 28.1719L3.55469 28.3594V28.5352H3.90625L4.23438 28.3594L4.5625 28.7109H4.90234L4.23438 28.1719L4.90234 27.6328V27.6445Z" fill="#00843D"/>
<path fill-rule="evenodd" clip-rule="evenodd" d="M15.7837 29.4821H16.0536V29.721H15.7837V29.4821ZM15.5137 29.721H15.7837V29.974H15.5287L15.5137 29.721ZM14.1939 30.9721H14.4639V31.2251H14.1939V30.9721ZM14.4639 30.719H14.7189V30.9721H14.4639V30.719ZM5.69026 30.719H5.96022V30.9721H5.67526L5.69026 30.719ZM4.35547 29.4821H4.62543V29.721H4.35547V29.4821ZM4.62543 29.721H4.89539V29.974H4.62543V29.721ZM4.62543 24.2389H4.89539V24.492H4.62543V24.2389ZM4.35547 24.492H4.62543V24.745H4.35547V24.492ZM5.96022 23.002H6.21518V23.255H5.97522L5.96022 23.002ZM5.69026 23.255H5.96022V23.508H5.67526L5.69026 23.255ZM14.1939 23.002H14.4639V23.255H14.1939V23.002ZM14.4639 23.255H14.7189V23.508H14.4639V23.255ZM15.5137 24.2389H15.7837V24.492H15.5287L15.5137 24.2389ZM15.7837 24.506H16.0536V24.745H15.7837V24.506ZM5.97522 30.9721H6.23018V31.2251H5.97522V30.9721Z" fill="#00843D"/>
<path d="M15.7837 29.721H16.0536V29.4821H15.7837V29.721ZM15.7837 29.721H15.5137L15.5287 29.974H15.7837V29.721ZM14.4639 30.9721H14.1939V31.2251H14.4639V30.9721ZM14.4639 30.9721H14.7189V30.719H14.4639V30.9721ZM4.62543 29.721V29.4821H4.35547V29.721H4.62543ZM4.62543 29.721H4.89539V29.974H4.62543V29.721ZM4.62543 24.492H4.89539V24.2389H4.62543V24.492ZM4.62543 24.492H4.35547V24.745H4.62543V24.492ZM14.4639 23.255V23.002H14.1939V23.255H14.4639ZM14.4639 23.255H14.7189V23.508H14.4639V23.255ZM5.69026 30.719H5.96022V30.9721H5.67526L5.69026 30.719ZM5.96022 23.002H6.21518V23.255H5.97522L5.96022 23.002ZM5.69026 23.255H5.96022V23.508H5.67526L5.69026 23.255ZM15.5137 24.2389H15.7837V24.492H15.5287L15.5137 24.2389ZM15.7837 24.506H16.0536V24.745H15.7837V24.506ZM5.97522 30.9721H6.23018V31.2251H5.97522V30.9721Z" stroke="black" stroke-width="0.0435586"/>
<path fill-rule="evenodd" clip-rule="evenodd" d="M9.40234 27.1055H8.61719V26.6133H9.14453V26.1562H9.66016V25.7344H10.1875V26.2617C9.75391 26.2617 9.40234 26.6133 9.40234 27.1055Z" fill="white"/>
<path fill-rule="evenodd" clip-rule="evenodd" d="M10.9727 27.1055H11.7578V26.6133H11.2305V26.1562H10.7031V25.7344H10.1875V26.2617C10.6211 26.2617 10.9727 26.6133 10.9727 27.1055Z" fill="#FAAE29"/>
<path fill-rule="evenodd" clip-rule="evenodd" d="M10.9727 27.1055H11.7578V27.5977H11.2305V28.0547H10.7031V28.4766H10.1875V27.9492C10.6211 27.9492 10.9727 27.5977 10.9727 27.1055Z" fill="white"/>
<path fill-rule="evenodd" clip-rule="evenodd" d="M9.40234 27.1055H8.61719V27.5977H9.14453V28.0547H9.66016V28.4766H10.1875V27.9492C9.75391 27.9492 9.40234 27.5977 9.40234 27.1055Z" fill="#FAAE29"/>
<path fill-rule="evenodd" clip-rule="evenodd" d="M10.9727 27.1055H10.1875V26.2617C10.6211 26.2617 10.9727 26.6484 10.9727 27.1055Z" fill="#00843D"/>
<path fill-rule="evenodd" clip-rule="evenodd" d="M10.9727 27.1055H10.1875V27.9492C10.6211 27.9492 10.9727 27.5742 10.9727 27.1055Z" fill="#CA3745"/>
<path fill-rule="evenodd" clip-rule="evenodd" d="M9.40234 27.1055H10.1875V27.9492C9.75391 27.9492 9.40234 27.5742 9.40234 27.1055Z" fill="#00843D"/>
<path fill-rule="evenodd" clip-rule="evenodd" d="M9.40234 27.1055H10.1875V26.2617C9.75391 26.2617 9.40234 26.6484 9.40234 27.1055Z" fill="#CA3745"/>
<path fill-rule="evenodd" clip-rule="evenodd" d="M11.0078 30.2227L10.2109 29.7188L9.41406 30.2227L8.61719 29.7188L7.82031 30.2227V29.9766L8.34766 29.7188L8.08984 29.4727V29.2266H8.34766L8.61719 29.4727L8.88672 29.2266H9.15625V29.4727L8.88672 29.7188L9.41406 29.9766L9.95312 29.7188L9.68359 29.4727V29.2266H9.95312L10.2109 29.4727L10.4805 29.2266H10.75V29.4727L10.4805 29.7188L11.0078 29.9766L11.5469 29.7188L11.2773 29.4727V29.2266H11.5469L11.8047 29.4727L12.0742 29.2266H12.3438V29.4727L12.0742 29.7188L12.6016 29.9766V30.2109L11.8047 29.7188L11.0078 30.2227ZM11.0078 24L10.2109 24.4922L9.41406 24L8.61719 24.4922L7.82031 24V24.2344L8.34766 24.4922L8.08984 24.7383V24.9961H8.34766L8.61719 24.7383L8.88672 24.9961H9.15625V24.7266L8.88672 24.4922L9.41406 24.2344L9.95312 24.4805L9.68359 24.7266V24.9844H9.95312L10.2109 24.7266L10.4805 24.9844H10.75V24.7266L10.4805 24.4922L11.0078 24.2344L11.5469 24.4805L11.2773 24.7266V24.9844H11.5469L11.8047 24.7266L12.0742 24.9844H12.3438V24.7266L12.0742 24.4922L12.6016 24.2344V23.9883L11.8047 24.4805L11.0078 23.9883V24ZM13.9375 27.7266L13.5391 27.1055L13.9375 26.4844L13.5391 25.8633L13.9375 25.2422H13.7383L13.5391 25.6523L13.3398 25.4414H13.1406V25.6523L13.3398 25.8633L13.1406 26.0742V26.2734H13.3398L13.5391 26.0742L13.7383 26.4844L13.5391 26.8945L13.3398 26.6953H13.1406V26.8945L13.3398 27.1055L13.1406 27.3164V27.5273H13.3398L13.5391 27.3164L13.7383 27.7266L13.5391 28.1484L13.3398 27.9375H13.1406V28.1484L13.3398 28.3477L13.1406 28.5586V28.7695H13.3398L13.5391 28.5586L13.7383 28.9805H13.9375L13.5391 28.3477L13.9375 27.7266Z" fill="#00843D"/>
<path fill-rule="evenodd" clip-rule="evenodd" d="M7.82493 24.2512L6.7751 25.2352V28.9743L7.82493 29.9723H12.6242L13.674 28.9883V25.2493L12.6092 24.2512H7.82493ZM7.55498 23.4922L4.90039 25.9943V28.2433L7.56997 30.7173H12.8791L15.5337 28.2293V25.9802L12.8791 23.4922H7.56997H7.55498Z" fill="#00843D" stroke="black" stroke-width="0.0580781"/>
<path fill-rule="evenodd" clip-rule="evenodd" d="M8.92997 30.2168L9.3499 30.7228L9.78183 30.2168H8.91797H8.92997Z" fill="#FAAE29" stroke="black" stroke-width="0.0318106"/>
<path fill-rule="evenodd" clip-rule="evenodd" d="M8.92997 23.9941L9.3499 23.4881L9.78183 23.9941H8.91797H8.92997Z" fill="#FAAE29" stroke="black" stroke-width="0.0318106"/>
<path fill-rule="evenodd" clip-rule="evenodd" d="M10.6409 23.9941L11.0608 23.4881L11.4928 23.9941H10.6289H10.6409Z" fill="#FAAE29" stroke="black" stroke-width="0.0318106"/>
<path fill-rule="evenodd" clip-rule="evenodd" d="M10.6409 30.2168L11.0608 30.7228L11.4928 30.2168H10.6289H10.6409Z" fill="#FAAE29" stroke="black" stroke-width="0.0318106"/>
<path fill-rule="evenodd" clip-rule="evenodd" d="M8.08622 23.9941L8.50615 23.4881L8.93808 23.9941H8.07422H8.08622Z" fill="#CA3745" stroke="black" stroke-width="0.0318106"/>
<path fill-rule="evenodd" clip-rule="evenodd" d="M9.78544 23.9941L10.2054 23.4881L10.6373 23.9941H9.77344H9.78544Z" fill="#CA3745" stroke="black" stroke-width="0.0318106"/>
<path fill-rule="evenodd" clip-rule="evenodd" d="M11.4847 23.9941L11.9046 23.4881L12.3365 23.9941H11.4727H11.4847Z" fill="#CA3745" stroke="black" stroke-width="0.0318106"/>
<path fill-rule="evenodd" clip-rule="evenodd" d="M7.03516 29.473L7.82249 30.2109H7.03516V29.473Z" fill="#CA3745" stroke="black" stroke-width="0.0653334"/>
<path fill-rule="evenodd" clip-rule="evenodd" d="M6.48438 27.7266L6.89453 27.1055L6.48438 26.4844L6.88281 25.8633L6.48438 25.2422H6.68359L6.88281 25.6523L7.08203 25.4414H7.28125V25.6523L7.08203 25.8633L7.28125 26.0742V26.2734H7.08203L6.88281 26.0742L6.68359 26.4844L6.88281 26.8945L7.08203 26.6953H7.28125V26.8945L7.08203 27.1055L7.28125 27.3164V27.5273H7.08203L6.88281 27.3164L6.68359 27.7266L6.88281 28.1484L7.08203 27.9375H7.28125V28.1484L7.08203 28.3477L7.28125 28.5586V28.7695H7.08203L6.88281 28.5586L6.68359 28.9805H6.48438L6.88281 28.3477L6.48438 27.7266Z" fill="#00843D"/>
<path fill-rule="evenodd" clip-rule="evenodd" d="M14.1934 26.4326H15.2582L15.5281 26.6603L15.2582 26.888H14.2084V26.4199L14.1934 26.4326Z" fill="#CA3745" stroke="black" stroke-width="0.0413239"/>
<path fill-rule="evenodd" clip-rule="evenodd" d="M7.02925 24.7441L6.48933 25.2502V28.9752L7.02925 29.4812H6.23438V24.7441H7.02925Z" fill="#CA3745" stroke="black" stroke-width="0.0580781"/>
<path fill-rule="evenodd" clip-rule="evenodd" d="M8.08622 30.2168L8.50615 30.7228L8.93808 30.2168H8.07422H8.08622Z" fill="#CA3745" stroke="black" stroke-width="0.0318106"/>
<path fill-rule="evenodd" clip-rule="evenodd" d="M9.78544 30.2168L10.2054 30.7228L10.6373 30.2168H9.77344H9.78544Z" fill="#CA3745" stroke="black" stroke-width="0.0318106"/>
<path fill-rule="evenodd" clip-rule="evenodd" d="M11.4847 30.2168L11.9046 30.7228L12.3365 30.2168H11.4727H11.4847Z" fill="#CA3745" stroke="black" stroke-width="0.0318106"/>
<path fill-rule="evenodd" clip-rule="evenodd" d="M13.3926 24.7441L13.9325 25.2502V28.9752L13.3926 29.4812H14.1875V24.7441H13.3926Z" fill="#CA3745" stroke="black" stroke-width="0.0580781"/>
<path fill-rule="evenodd" clip-rule="evenodd" d="M13.3984 29.473L12.6111 30.2109H13.3984V29.473Z" fill="#CA3745" stroke="black" stroke-width="0.0653334"/>
<path fill-rule="evenodd" clip-rule="evenodd" d="M13.3984 24.7379L12.6111 24H13.3984V24.7379Z" fill="#CA3745" stroke="black" stroke-width="0.0653334"/>
<path fill-rule="evenodd" clip-rule="evenodd" d="M7.03516 24.7379L7.82249 24H7.03516V24.7379Z" fill="#CA3745" stroke="black" stroke-width="0.0653334"/>
<path fill-rule="evenodd" clip-rule="evenodd" d="M7.82565 24.253L6.77582 25.237V28.9761L7.82565 29.9741H12.6249L13.6747 28.9901V25.251L12.6099 24.253H7.82565ZM7.82565 24L6.50586 25.237V28.9761L7.82565 30.2271H12.6249L13.9447 28.9761V25.237L12.6099 24H7.82565Z" fill="#00843D" stroke="black" stroke-width="0.0580781"/>
<path fill-rule="evenodd" clip-rule="evenodd" d="M14.1934 26.8798H15.2582L15.5281 27.1076L15.2582 27.3353H14.2084V26.8672L14.1934 26.8798Z" fill="#FAAE29" stroke="black" stroke-width="0.0413252"/>
<path fill-rule="evenodd" clip-rule="evenodd" d="M14.1934 27.3232H15.2582L15.5281 27.5509L15.2582 27.7786H14.2084V27.3105L14.1934 27.3232Z" fill="#CA3745" stroke="black" stroke-width="0.0413239"/>
<path fill-rule="evenodd" clip-rule="evenodd" d="M14.1934 27.7705H15.2582L15.5281 27.9982L15.2582 28.2259H14.2084V27.7578L14.1934 27.7705Z" fill="#FAAE29" stroke="black" stroke-width="0.0413252"/>
<path fill-rule="evenodd" clip-rule="evenodd" d="M14.1934 25.9775H15.2582L15.5281 26.2052L15.2582 26.433H14.2084V25.9648L14.1934 25.9775Z" fill="#FAAE29" stroke="black" stroke-width="0.0413252"/>
<path fill-rule="evenodd" clip-rule="evenodd" d="M6.22852 26.4326H5.16368L4.89373 26.6603L5.16368 26.888H6.21352V26.4199L6.22852 26.4326Z" fill="#CA3745" stroke="black" stroke-width="0.0413239"/>
<path fill-rule="evenodd" clip-rule="evenodd" d="M6.22852 26.8798H5.16368L4.89373 27.1076L5.16368 27.3353H6.21352V26.8672L6.22852 26.8798Z" fill="#FAAE29" stroke="black" stroke-width="0.0413252"/>
<path fill-rule="evenodd" clip-rule="evenodd" d="M6.22852 27.3232H5.16368L4.89373 27.5509L5.16368 27.7786H6.21352V27.3105L6.22852 27.3232Z" fill="#CA3745" stroke="black" stroke-width="0.0413239"/>
<path fill-rule="evenodd" clip-rule="evenodd" d="M6.22852 27.7705H5.16368L4.89373 27.9982L5.16368 28.2259H6.21352V27.7578L6.22852 27.7705Z" fill="#FAAE29" stroke="black" stroke-width="0.0413252"/>
<path fill-rule="evenodd" clip-rule="evenodd" d="M6.22852 25.9775H5.16368L4.89373 26.2052L5.16368 26.433H6.21352V25.9648L6.22852 25.9775Z" fill="#FAAE29" stroke="black" stroke-width="0.0413252"/>
<path fill-rule="evenodd" clip-rule="evenodd" d="M4.625 24.5046V29.7055H5.95979V30.9566H14.4635V29.7055H15.7833V24.5046H14.4635V23.2676H5.95979V24.5046H4.625ZM4.89496 24.7435V29.4806H6.21475V30.7176H14.1935V29.4806H15.5283V24.7435H14.1935V23.5206H6.21475V24.7576H4.89496V24.7435Z" fill="#970000" stroke="black" stroke-width="0.0435586"/>
<path fill-rule="evenodd" clip-rule="evenodd" d="M16.8491 5.04068L16.0542 4.08094V3.3645L15.2593 2.64807H13.6696L12.3348 1.93164H8.09047L6.75568 2.64807H5.16592L4.37105 3.3645V4.08094L3.57617 5.02717V6.96018L4.37105 7.90641V8.63636L5.16592 9.35279H6.75568L8.09047 10.0692H12.3348L13.6696 9.35279H15.2593L16.0692 8.63636V7.91993L16.8641 6.96018V5.02717L16.8491 5.04068Z" fill="#CA3745" stroke="black" stroke-width="0.0427152"/>
<path fill-rule="evenodd" clip-rule="evenodd" d="M3.83594 6V6.71484L4.63281 7.67578V8.39062L5.42969 9.11719H7.02344L8.35938 9.82031H10.2109V6.01172H3.83594V6Z" fill="#FAAE29"/>
<path fill-rule="evenodd" clip-rule="evenodd" d="M7.97266 7.67578L7 8.29688H6.41406L6.61328 8.49609L6.22656 8.90625L6.42578 9.11719L7.01172 8.90625L7.19922 9.11719L7.28125 8.56641L8.35937 7.91016L7.97266 7.67578Z" fill="#CA3745"/>
<path fill-rule="evenodd" clip-rule="evenodd" d="M6.90625 7.19531L5.93359 7.81641H5.35938L5.54688 8.01563L5.17188 8.42578L5.35938 8.63672L5.94531 8.42578L6.13281 8.63672L6.22656 8.08594L7.29297 7.44141L6.90625 7.20703V7.19531ZM6.37891 6.23438L5.40625 6.85547H4.82031L5.01953 7.06641L4.63281 7.47656L4.83203 7.67578L5.41797 7.46484L5.60547 7.67578L5.6875 7.125L6.76563 6.48047L6.37891 6.24609V6.23438Z" fill="#CA3745"/>
<path fill-rule="evenodd" clip-rule="evenodd" d="M16.5859 6V5.28516L15.7891 4.32422V3.60937L14.9922 2.88281H13.3984L12.0742 2.16797H10.2109V6H16.5859Z" fill="#FAAE29"/>
<path fill-rule="evenodd" clip-rule="evenodd" d="M10.2109 9.83203H9.71875L9.15625 9.35156H8.24219L7.75 9.11719L7.99609 8.88281L8.48828 9.11719H8.98047L9.47266 8.39062L10.2109 8.625V9.11719H9.47266L10.2109 9.82031V9.83203Z" fill="#CA3745"/>
<path fill-rule="evenodd" clip-rule="evenodd" d="M3.83594 6V5.28516L4.63281 4.32422V3.60937L5.42969 2.88281H7.02344L8.35938 2.16797H10.2109V6H3.83594Z" fill="white"/>
<path fill-rule="evenodd" clip-rule="evenodd" d="M10.2109 2.16797H9.71875L9.15625 2.63672H8.24219L7.75 2.88281L7.99609 3.11719L8.48828 2.88281H8.98047L9.47266 3.60937L10.2109 3.375V2.88281H9.47266L10.2109 2.16797Z" fill="#CA3745"/>
<path fill-rule="evenodd" clip-rule="evenodd" d="M10.2109 2.16797H10.7031L11.2773 2.63672H12.1797L12.6719 2.88281L12.4375 3.11719L11.9336 2.88281H11.4414L10.9492 3.60937L10.2109 3.375V2.88281H10.9492L10.2109 2.16797Z" fill="#CA3745"/>
<path fill-rule="evenodd" clip-rule="evenodd" d="M16.5859 6V6.71484L15.7891 7.67578V8.39062L14.9922 9.11719H13.3984L12.0742 9.82031H10.2109V6.01172H16.5859V6Z" fill="white"/>
<path fill-rule="evenodd" clip-rule="evenodd" d="M10.2109 9.83203H10.7031L11.2773 9.35156H12.1797L12.6719 9.11719L12.4375 8.88281L11.9336 9.11719H11.4414L10.9492 8.39062L10.2109 8.625V9.11719H10.9492L10.2109 9.82031V9.83203ZM6.90625 4.79297L5.93359 4.18359H5.35937L5.54687 3.98438L5.17188 3.57422L5.35937 3.36328L5.94531 3.57422L6.13281 3.36328L6.22656 3.91406L7.29297 4.55859L6.90625 4.79297ZM12.4609 4.32422L13.4219 3.70312H14.0078L13.8086 3.50391L14.1953 3.09375L14.0078 2.88281L13.4219 3.09375L13.2344 2.88281L13.1406 3.43359L12.0742 4.08984L12.4609 4.32422Z" fill="#CA3745"/>
<path fill-rule="evenodd" clip-rule="evenodd" d="M7.97266 4.32422L7 3.70312H6.41406L6.61328 3.50391L6.22656 3.09375L6.42578 2.88281L7.01172 3.09375L7.19922 2.88281L7.28125 3.43359L8.35938 4.07812L7.97266 4.3125V4.32422ZM6.36719 5.76562L5.39453 5.14453H4.80859L5.00781 4.93359L4.62109 4.52344L4.84375 4.33594L5.42969 4.54687L5.61719 4.33594L5.69922 4.88672L6.77734 5.53125L6.39062 5.76562H6.36719Z" fill="#CA3745"/>
<path fill-rule="evenodd" clip-rule="evenodd" d="M4.31641 6H4.55078L4.79687 6.23438L5.04297 6H10.2109V9.35156H9.97656L10.2109 9.58594V9.84375L9.47266 9.12891V8.89453H9.71875V9.12891H9.96484V8.89453L7.97266 7.83984H6.28516V6.78516L5.54688 6.25781H5.05469L4.80859 6.49219L5.04297 6.72656H4.80859L4.31641 6.02344V6Z" fill="white"/>
<path fill-rule="evenodd" clip-rule="evenodd" d="M4.31641 6H4.55078L4.79687 5.76562L5.04297 6H10.2109V2.64844H9.97656L10.2109 2.41406V2.16797L9.47266 2.88281V3.11719H9.71875V2.88281H9.96484V3.11719L7.97266 4.18359H6.28516V5.22656L5.54688 5.76562H5.05469L4.80859 5.53125L5.04297 5.28516H4.80859L4.31641 6Z" fill="#FAAE29"/>
<path fill-rule="evenodd" clip-rule="evenodd" d="M5.42969 6H10.2109V8.87109L8.08984 7.67578H6.49609V6.71484L5.44141 6H5.42969Z" fill="#00843D"/>
<path fill-rule="evenodd" clip-rule="evenodd" d="M13.5156 4.80469L14.4883 4.18359H15.0742L14.875 3.98437L15.2617 3.57422L15.0742 3.36328L14.4883 3.57422L14.3008 3.36328L14.207 3.91406L13.1406 4.55859L13.5156 4.79297V4.80469ZM14.0547 5.76562L15.0273 5.14453H15.6016L15.4023 4.93359L15.7891 4.52344L15.6016 4.32422L15.0156 4.53516L14.8281 4.32422L14.7344 4.875L13.668 5.51953L14.0547 5.75391V5.76562Z" fill="#CA3745"/>
<path fill-rule="evenodd" clip-rule="evenodd" d="M16.1172 6H15.8711L15.625 5.76562L15.3789 6H10.2109V2.64844H10.457L10.2109 2.41406V2.16797L10.9492 2.88281V3.11719H10.7031V2.88281H10.457V3.11719L12.4492 4.18359H14.1367V5.22656L14.8867 5.76562H15.3789L15.6133 5.53125L15.3789 5.28516H15.6133L16.1172 6Z" fill="white"/>
<path fill-rule="evenodd" clip-rule="evenodd" d="M14.9922 6H10.2109V3.12891L12.3437 4.32422H13.9375V5.28516L15.0039 6H14.9922Z" fill="#00843D"/>
<path fill-rule="evenodd" clip-rule="evenodd" d="M12.4609 7.67578L13.4219 8.29688H14.0078L13.8086 8.49609L14.1953 8.90625L14.0078 9.11719L13.4219 8.90625L13.2344 9.11719L13.1406 8.56641L12.0742 7.91016L12.4609 7.67578Z" fill="#CA3745"/>
<path fill-rule="evenodd" clip-rule="evenodd" d="M13.5156 7.19531L14.4883 7.81641H15.0742L14.875 8.01563L15.2617 8.42578L15.0742 8.63672L14.4883 8.42578L14.3008 8.63672L14.207 8.08594L13.1406 7.44141L13.5156 7.20703V7.19531ZM14.0547 6.23438L15.0273 6.85547H15.6016L15.4023 7.05469L15.7891 7.46484L15.6016 7.67578L15.0156 7.46484L14.8281 7.67578L14.7344 7.125L13.668 6.48047L14.0547 6.24609V6.23438Z" fill="#CA3745"/>
<path fill-rule="evenodd" clip-rule="evenodd" d="M16.1172 6H15.8711L15.625 6.23438L15.3789 6H10.2109V9.35156H10.457L10.2109 9.58594V9.84375L10.9492 9.12891V8.89453H10.7031V9.12891H10.457V8.89453L12.4492 7.83984H14.1367V6.78516L14.8867 6.25781H15.3789L15.6133 6.49219L15.3789 6.72656H15.6133L16.1172 6.02344V6Z" fill="#FAAE29"/>
<path fill-rule="evenodd" clip-rule="evenodd" d="M14.9922 6H10.2109V8.87109L12.3438 7.67578H13.9375V6.71484L15.0039 6H14.9922ZM5.42969 6H10.2109V3.12891L8.08984 4.32422H6.49609V5.28516L5.44141 6H5.42969Z" fill="#CA3745"/>
<path fill-rule="evenodd" clip-rule="evenodd" d="M10.7383 6L12.0742 5.28516H12.8711L12.6016 5.05078L13.1406 4.55859L12.8711 4.32422L12.0742 4.55859L11.8047 4.32422L11.6875 4.96875L10.2109 5.71875L10.7383 6ZM9.68359 6L8.35937 6.71484H7.5625L7.82031 6.94922L7.29297 7.44141L7.5625 7.67578L8.35937 7.44141L8.61719 7.67578L8.73437 7.03125L10.2109 6.28125L9.68359 6Z" fill="#CA3745"/>
<path fill-rule="evenodd" clip-rule="evenodd" d="M9.68359 6L8.35938 5.28516H7.5625L7.83203 5.05078L7.30469 4.55859L7.57422 4.32422L8.37109 4.55859L8.62891 4.32422L8.74609 4.96875L10.2227 5.71875L9.69531 6H9.68359ZM10.7383 6L12.0742 6.71484H12.8711L12.6016 6.94922L13.1406 7.44141L12.8711 7.67578L12.0742 7.44141L11.8047 7.67578L11.6875 7.03125L10.2109 6.28125L10.7383 6Z" fill="#00843D"/>
<path fill-rule="evenodd" clip-rule="evenodd" d="M8.61719 6L10.2109 4.80469L11.8047 6L10.2109 7.19531L8.61719 6Z" fill="white"/>
<path fill-rule="evenodd" clip-rule="evenodd" d="M5.04297 6.48047L5.28906 6.71484L5.05469 6.94922H4.79687L4.05859 6H4.30469L4.79687 6.71484H5.04297L4.80859 6.48047L5.04297 6.24609H5.54687V6.48047H5.05469H5.04297Z" fill="#CA3745"/>
<path fill-rule="evenodd" clip-rule="evenodd" d="M5.04297 5.51953L5.28906 5.28516L5.05469 5.05078H4.79687L4.05859 6H4.30469L4.79687 5.28516H5.04297L4.80859 5.51953L5.04297 5.75391H5.54687V5.51953H5.05469H5.04297ZM15.3789 6.48047L15.1445 6.71484L15.3789 6.94922H15.625L16.3633 6H16.1289L15.625 6.71484H15.3906L15.625 6.48047L15.3906 6.24609H14.8867V6.48047H15.3789Z" fill="#CA3745"/>
<path fill-rule="evenodd" clip-rule="evenodd" d="M15.3906 5.51953L15.1328 5.28516L15.3789 5.05078H15.625L16.3633 6H16.1289L15.625 5.28516H15.3906L15.625 5.51953L15.3906 5.75391H14.8867V5.51953H15.3789H15.3906ZM9.96484 5.05078H10.457V6.96094H9.96484V5.05078Z" fill="#CA3745"/>
<path fill-rule="evenodd" clip-rule="evenodd" d="M9.22656 5.51953H11.1953V6.48047H9.22656V5.51953Z" fill="#CA3745"/>
<path fill-rule="evenodd" clip-rule="evenodd" d="M7.96285 42.3965L3.54688 44.8309V48.7981L8.00452 51.2326H12.4205L16.8365 48.7981V44.8309L12.4205 42.4416H8.00452L7.96285 42.3965Z" fill="#00843D" stroke="black" stroke-width="0.0433373"/>
<path fill-rule="evenodd" clip-rule="evenodd" d="M5.21875 46.4414H5.47656V45.9375H6.01563V46.4297H6.28516V45.2812H6.01563V45.7734H5.48828V45.2812H5.21875V46.4297V46.4414ZM12.0039 50.2617H12.2734V49.7695H12.8008V50.2617H13.0703V49.1016H12.8125V49.5938H12.2734V49.1016H12.0156V50.25L12.0039 50.2617ZM7.71484 44.5195H7.98438V44.0391H8.52344V44.5312H8.78125V43.3828H8.52344V43.875H7.98438V43.3828H7.71484V44.5312V44.5195ZM11.6406 44.5195H11.9102V44.0391H12.4492V44.5312H12.7187V43.3828H12.4492V43.875H11.9102V43.3828H11.6406V44.5312V44.5195ZM14.1484 46.4414H14.4063V45.9375H14.9453V46.4297H15.2148V45.2812H14.9453V45.7734H14.4063V45.2812H14.1484V46.4297V46.4414ZM14.1484 48.3516H14.4063V47.8594H14.9453V48.3516H15.2148V47.2031H14.9453V47.6953H14.4063V47.2031H14.1484V48.3516Z" fill="#CC0000"/>
<path fill-rule="evenodd" clip-rule="evenodd" d="M10.2109 51.0234V46.8164H16.6445V48.7266L12.3438 51.0234H10.1992H10.2109ZM10.2109 42.6211V46.8164H3.78906V44.9062L8.06641 42.6211H10.2109Z" fill="#FAAE29"/>
<path fill-rule="evenodd" clip-rule="evenodd" d="M10.2109 42.6211V46.8164H16.6445V44.9062L12.3438 42.6211H10.1992H10.2109ZM10.2109 51.0234V46.8164H3.78906V48.7266L8.06641 51.0234H10.2109Z" fill="white"/>
<path fill-rule="evenodd" clip-rule="evenodd" d="M13.6455 45.1086H16.2217L13.6455 43.9658V45.1086ZM16.6451 44.9145V46.8228H12.5812V45.3027H11.7224L10.646 44.7313V43.3944L11.2991 42.8122H10.4404V44.7313H10.2227V42.6289H12.3635L16.6451 44.9145Z" fill="#FAAE29" stroke="black" stroke-width="0.0114192"/>
<path fill-rule="evenodd" clip-rule="evenodd" d="M8.06641 45.4805V48.1641H8.71094L10.2109 48.9375L11.7109 48.1641H12.3555V45.4922H11.7109L10.2109 44.7305L8.71094 45.4922H8.06641V45.4805Z" fill="#CA3745"/>
<path fill-rule="evenodd" clip-rule="evenodd" d="M6.78807 48.5359H4.21186L6.78807 49.6788V48.5359ZM3.78853 48.73V46.8217H7.85243V48.3419H8.71117L9.78762 48.9133V50.2502L9.13449 50.8323H9.99323V48.9133H10.2109V51.0156H8.07014L3.78853 48.73Z" fill="#FAAE29" stroke="black" stroke-width="0.0114192"/>
<path fill-rule="evenodd" clip-rule="evenodd" d="M6.78807 45.1086H4.21186L6.78807 43.9658V45.1086ZM3.78853 44.9145V46.8228H7.85243V45.3027H8.71117L9.78762 44.7313V43.3944L9.13449 42.8122H9.99323V44.7313H10.2109V42.6289H8.07014L3.78853 44.9145Z" fill="white" stroke="black" stroke-width="0.0114192"/>
<path fill-rule="evenodd" clip-rule="evenodd" d="M13.6455 48.5359H16.2217L13.6455 49.6788V48.5359ZM16.6451 48.73V46.8217H12.5812V48.3419H11.7224L10.646 48.9133V50.2502L11.2991 50.8323H10.4404V48.9133H10.2227V51.0156H12.3635L16.6451 48.73Z" fill="white" stroke="black" stroke-width="0.0114192"/>
<path fill-rule="evenodd" clip-rule="evenodd" d="M5.07812 48.3516H5.33594V47.7656H5.875V48.3516H6.14453V47.0156H5.875V47.5898H5.33594V47.0039H5.07812V48.3516ZM7.64453 50.2617H7.91406V49.6758H8.44141V50.2617H8.71094V48.9258H8.44141V49.5H7.91406V48.9141H7.64453V50.2734V50.2617ZM5.06641 45.293H5.33594V45.8672H5.875V45.2812H6.14453V46.6406H5.875V46.0547H5.33594V46.6289H5.07812V45.293H5.06641ZM7.64453 43.3828H7.91406V43.957H8.44141V43.3711H8.71094V44.7187H8.44141V44.1445H7.91406V44.7305H7.64453V43.3828ZM11.7109 50.2617H11.9805V49.6758H12.5195V50.2617H12.7891V48.9258H12.5195V49.5H11.9805V48.9141H11.7109V50.2734V50.2617ZM14.2891 46.6289H14.5586V46.0547H15.0859V46.6406H15.3555V45.293H15.0859V45.8672H14.5703V45.2812H14.3008V46.6406L14.2891 46.6289Z" fill="#CA3745"/>
<path fill-rule="evenodd" clip-rule="evenodd" d="M11.7109 50.2617H11.9805V49.6758H12.5195V50.2617H12.7891V48.9258H12.5195V49.5H11.9805V48.9141H11.7109V50.2734V50.2617Z" fill="#CA3745"/>
<path fill-rule="evenodd" clip-rule="evenodd" d="M11.7109 50.2617H11.9805V49.6758H12.5195V50.2617H12.7891V48.9258H12.5195V49.5H11.9805V48.9141H11.7109V50.2734V50.2617ZM14.2891 48.3516H14.5586V47.7656H15.0859V48.3516H15.3555V47.0156H15.0859V47.5781H14.5703V47.0039H14.3008V48.3516H14.2891ZM11.7109 44.7187H11.9805V44.1445H12.5195V44.7305H12.7891V43.3828H12.5195V43.957H11.9805V43.3711H11.7109V44.7187Z" fill="#CA3745"/>
<path fill-rule="evenodd" clip-rule="evenodd" d="M10.4336 46.8164L11.2891 46.1133H11.7109V46.4648H11.2891V46.6406H11.9336V45.9492H11.2891V45.4219H10.4336V45.9492H10.6445V45.5977H11.0664V45.9492L10.2109 46.6523L9.35547 45.9492V45.5977H9.78906V45.9492H10V45.4219H9.14453V45.9492H8.5V46.6523H9.14453V46.4766H8.71094V46.125H9.14453L10 46.8281L9.14453 47.5195H8.71094V47.168H9.14453V46.9922H8.5V47.6953H9.14453V48.2109H10V47.6953H9.78906V48.0469H9.35547V47.6953L10.2109 46.9922L11.0664 47.6953V48.0469H10.6445V47.6953H10.4336V48.2109H11.2891V47.6953H11.9336V46.9922H11.2891V47.168H11.7109V47.5195H11.2891L10.4336 46.8164Z" fill="white"/>
<path fill-rule="evenodd" clip-rule="evenodd" d="M4.20741 17.2145L4.61863 16.7877H7.11019L8.97281 14.9121H11.4644L13.327 16.7989H15.8185L16.2298 17.2145L15.8185 17.63H13.3149L11.4523 19.5168H8.96071L7.11019 17.63H4.60654L4.19531 17.2145H4.20741Z" fill="#CA3745"/>
<path fill-rule="evenodd" clip-rule="evenodd" d="M4.41797 17.2494L4.64319 17.0452H7.21066L9.13627 15.0645H11.2758L13.2127 17.0554H15.7802L15.9941 17.2596L15.7802 17.4536H13.2127L11.4898 19.2403H8.92231L7.21066 17.4536H4.63192L4.41797 17.2494Z" fill="#CA3745" stroke="black" stroke-width="0.0321675"/>
<path fill-rule="evenodd" clip-rule="evenodd" d="M11.2591 17.4289L12.0815 18.26L11.6703 18.6756L11.4526 18.4734H11.2591V18.6756L11.4647 18.8889H11.888L12.2992 18.4734V18.0466L11.4647 17.2155L12.2992 16.3732V15.9577L11.888 15.5421H11.4647L11.2591 15.7443V15.9577H11.4647L11.6824 15.7443L12.0936 16.171L11.2591 17.0021L10.4366 16.171L11.2591 15.3287V15.1153H11.0535L10.231 15.9577L9.39645 15.1153H9.19083V15.3287L10.0133 16.171L9.19083 17.0021L8.35628 16.171L8.7796 15.7443L8.98522 15.9577H9.19083V15.7443L8.98522 15.5421H8.5619L8.15067 15.9577V16.3732L8.98522 17.2155L8.15067 18.0466V18.4734L8.5619 18.8889H8.98522L9.19083 18.6756V18.4734H8.96103L8.75541 18.6756L8.33209 18.26L9.16664 17.4289L9.9891 18.26L9.16664 19.1023V19.3045H9.37226L10.2068 18.4734L11.0293 19.3045H11.2349V19.1023L10.4124 18.26L11.2349 17.4289H11.2591ZM10.2189 16.3732L9.38435 17.2155L10.2189 18.0466L11.0414 17.2155L10.2189 16.3732ZM8.97312 19.5179V21.2025L9.17874 20.9779L9.38435 21.2025L9.58996 20.9779L9.79558 21.2025L10.0133 20.9779L10.2189 21.2025L10.4245 20.9779L10.6301 21.2025L10.8357 20.9779L11.0414 21.2025L11.247 20.9779L11.4647 21.2025V19.5179H8.96103H8.97312ZM11.4647 14.9132V13.2285L11.247 13.4531L11.0414 13.2285L10.8357 13.4531L10.6301 13.2285L10.4245 13.4531L10.2189 13.2285L10.0012 13.4531L9.79558 13.2285L9.58996 13.4531L9.38435 13.2285L9.17874 13.4531L8.97312 13.2285V14.9132H11.4647ZM14.9722 16.8V15.1153L14.7787 15.3399L14.5731 15.1153L14.3675 15.3399L14.1497 15.1153L13.9441 15.3399L13.7385 15.1153L13.5329 15.3399L13.3273 15.1153V16.8H14.9843H14.9722ZM7.1105 16.8V15.1153L6.8928 15.3399L6.68718 15.1153L6.48157 15.3399L6.27596 15.1153L6.07034 15.3399L5.86473 15.1153L5.64702 15.3399L5.44141 15.1153V16.8H7.09841H7.1105ZM14.9843 17.6311V19.3157L14.7787 19.0911L14.5731 19.3157L14.3675 19.0911L14.1497 19.3157L13.9441 19.0911L13.7385 19.3157L13.5329 19.0911L13.3273 19.3157V17.6311H14.9843ZM7.09841 17.6311V19.3157L6.8928 19.0911L6.68718 19.3157L6.48157 19.0911L6.27596 19.3157L6.07034 19.0911L5.86473 19.3157L5.64702 19.0911L5.44141 19.3157V17.6311H7.09841Z" fill="#FAAE29"/>
<path fill-rule="evenodd" clip-rule="evenodd" d="M11.4514 19.5183V20.5628L11.6691 20.3494L11.8747 20.5741L12.0803 20.3494L12.2859 20.5741L12.4915 20.3494L12.6972 20.5741L12.9149 20.3494L13.1205 20.5741L13.3261 20.3494V17.6315L11.4514 19.5183ZM8.97192 19.5183V20.5628L8.75422 20.3494L8.5486 20.5741L8.34299 20.3494L8.13737 20.5741L7.93176 20.3494L7.72615 20.5741L7.52053 20.3494L7.31492 20.5741L7.09721 20.3494V17.6315L8.97192 19.5183ZM8.97192 14.9136V13.8691L8.75422 14.0713L8.5486 13.8691L8.34299 14.0713L8.13737 13.8691L7.93176 14.0713L7.72615 13.8691L7.52053 14.0713L7.31492 13.8691L7.09721 14.0713V16.8004L8.97192 14.9136ZM11.4514 14.9136V13.8691L11.6691 14.0713L11.8747 13.8691L12.0803 14.0713L12.2859 13.8691L12.4915 14.0713L12.6972 13.8691L12.9028 14.0713L13.1205 13.8691L13.3261 14.0713V16.8004L11.4514 14.9136ZM5.44021 18.8894L5.23459 18.676L5.02898 18.9006L4.82337 18.676L4.61775 18.9006L4.41214 18.676L4.19443 18.9006L3.98882 18.676L3.7832 18.9006V15.5313L3.98882 15.756L4.19443 15.5313L4.41214 15.756L4.61775 15.5313L4.82337 15.756L5.02898 15.5313L5.23459 15.756L5.44021 15.5313V16.8004H4.61775L4.19443 17.216L4.61775 17.6315H5.44021V18.8894ZM14.9831 18.8894L15.1887 18.676L15.3943 18.9006L15.5999 18.676L15.8176 18.9006L16.0233 18.676L16.2289 18.9006L16.4345 18.676L16.6401 18.9006V15.5313L16.4345 15.756L16.2289 15.5313L16.0233 15.756L15.8176 15.5313L15.5999 15.756L15.3943 15.5313L15.1887 15.756L14.9831 15.5313V16.8004H15.8176L16.2289 17.216L15.8176 17.6315H14.9831V18.8894Z" fill="#00843D"/>
<path fill-rule="evenodd" clip-rule="evenodd" d="M7.94488 19.6524C7.94488 19.6524 7.77555 19.8096 7.77555 19.8994C7.77555 19.9781 7.95697 20.1465 8.04164 20.1465C8.1384 20.1465 8.29563 19.9781 8.29563 19.8994C8.29563 19.8208 8.1263 19.6524 8.1263 19.6524V19.3154C8.1263 19.3154 8.48915 19.8882 8.48915 19.6411C8.48915 19.4614 8.1263 19.1582 8.1263 19.1582H7.94488C7.94488 19.1582 7.58203 19.5176 7.58203 19.6411C7.58203 19.8882 7.94488 19.3154 7.94488 19.3154V19.6524Z" fill="white"/>
<path fill-rule="evenodd" clip-rule="evenodd" d="M10.109 20.292C10.109 20.292 9.90338 20.5166 9.90338 20.629C9.90338 20.7413 10.1211 20.9883 10.2178 20.9883C10.3388 20.9883 10.5202 20.7525 10.5202 20.6402C10.5202 20.5279 10.3146 20.292 10.3146 20.292V19.8203C10.3146 19.8203 10.6775 20.584 10.6775 20.2359C10.6775 20.0113 10.3146 19.5957 10.3146 19.5957H10.109C10.109 19.5957 9.68567 20.1123 9.74615 20.2359C9.74615 20.584 10.109 19.8203 10.109 19.8203V20.292Z" fill="#CA3745"/>
<path d="M7.9292 17.4158C8.15545 17.4158 8.33886 17.3205 8.33886 17.203C8.33886 17.0855 8.15545 16.9902 7.9292 16.9902C7.70294 16.9902 7.51953 17.0855 7.51953 17.203C7.51953 17.3205 7.70294 17.4158 7.9292 17.4158Z" fill="#00843D"/>
<path d="M10.2144 17.4158C10.4406 17.4158 10.624 17.3205 10.624 17.203C10.624 17.0855 10.4406 16.9902 10.2144 16.9902C9.9881 16.9902 9.80469 17.0855 9.80469 17.203C9.80469 17.3205 9.9881 17.4158 10.2144 17.4158Z" fill="#00843D"/>
<path d="M12.4878 17.4158C12.714 17.4158 12.8975 17.3205 12.8975 17.203C12.8975 17.0855 12.714 16.9902 12.4878 16.9902C12.2615 16.9902 12.0781 17.0855 12.0781 17.203C12.0781 17.3205 12.2615 17.4158 12.4878 17.4158Z" fill="#00843D"/>
<path fill-rule="evenodd" clip-rule="evenodd" d="M7.90815 14.8003C7.90815 14.8003 7.73882 14.6319 7.73882 14.5532C7.73882 14.4746 7.92024 14.2949 7.99281 14.2949C8.08957 14.2949 8.2468 14.4634 8.2468 14.542C8.2468 14.6319 8.07747 14.8003 8.07747 14.8003V15.1372C8.07747 15.1372 8.45242 14.5532 8.45242 14.8003C8.45242 14.98 8.08957 15.2945 8.08957 15.2945H7.90815C7.90815 15.2945 7.5332 14.9351 7.5332 14.8115C7.5332 14.5645 7.89605 15.126 7.89605 15.126V14.7891L7.90815 14.8003Z" fill="white"/>
<path fill-rule="evenodd" clip-rule="evenodd" d="M10.0605 14.1499C10.0605 14.1499 9.85493 13.9253 9.85493 13.813C9.85493 13.7007 10.0847 13.4648 10.1694 13.4648C10.2903 13.4648 10.4839 13.6895 10.4839 13.8018C10.4839 13.9141 10.2783 14.1612 10.2783 14.1612V14.6104C10.2783 14.6104 10.6411 13.8579 10.6411 14.2061C10.6411 14.4307 10.2783 14.8575 10.2783 14.8575H10.0484C10.0484 14.8575 9.62513 14.3296 9.6856 14.2061C9.6856 13.8692 10.0484 14.6216 10.0484 14.6216V14.1499H10.0605Z" fill="#CA3745"/>
<path fill-rule="evenodd" clip-rule="evenodd" d="M12.3585 19.6521C12.3585 19.6521 12.1892 19.8094 12.1892 19.8992C12.1892 19.9778 12.3706 20.1463 12.4553 20.1463C12.552 20.1463 12.7092 19.9778 12.7092 19.8992C12.7092 19.8206 12.5399 19.6521 12.5399 19.6521V19.3152C12.5399 19.3152 12.9028 19.888 12.9028 19.6409C12.9028 19.4612 12.5399 19.158 12.5399 19.158H12.3464C12.3464 19.158 11.9836 19.5173 11.9836 19.6409C11.9836 19.888 12.3464 19.3152 12.3464 19.3152V19.6521H12.3585ZM12.3222 14.8003C12.3222 14.8003 12.1529 14.6319 12.1529 14.542C12.1529 14.4746 12.3343 14.2949 12.4069 14.2949C12.5036 14.2949 12.6609 14.4634 12.6609 14.542C12.6609 14.6319 12.4915 14.8003 12.4915 14.8003V15.1372C12.4915 15.1372 12.8665 14.5532 12.8665 14.8003C12.8665 14.98 12.5036 15.2945 12.5036 15.2945H12.3222C12.3222 15.2945 11.9473 14.9351 11.9473 14.8115C11.9473 14.5645 12.3101 15.126 12.3101 15.126V14.7891L12.3222 14.8003Z" fill="white"/>
<path fill-rule="evenodd" clip-rule="evenodd" d="M6.1426 18.484C6.1426 18.484 5.9128 18.6413 5.9128 18.7086C5.9128 18.7873 6.1547 18.9557 6.26355 18.9445C6.3845 18.9445 6.60221 18.7985 6.60221 18.7199C6.60221 18.6413 6.37241 18.484 6.37241 18.484V18.1696C6.37241 18.1696 6.78363 18.675 6.78363 18.4503C6.78363 18.2931 6.37241 18.0123 6.37241 18.0123H6.1426C6.1426 18.0123 5.6709 18.3717 5.74347 18.4503C5.74347 18.675 6.1426 18.1696 6.1426 18.1696V18.484ZM6.09422 16.1143C6.09422 16.1143 5.86442 15.957 5.86442 15.8784C5.86442 15.7998 6.10632 15.6426 6.21517 15.6538C6.33612 15.6538 6.55383 15.7998 6.55383 15.8784C6.55383 15.957 6.32403 16.1031 6.32403 16.1031V16.4175C6.32403 16.4175 6.73525 15.9121 6.73525 16.148C6.73525 16.294 6.32403 16.5748 6.32403 16.5748H6.09422C6.09422 16.5748 5.62252 16.2266 5.69509 16.148C5.69509 15.9234 6.09422 16.4175 6.09422 16.4175V16.1143ZM14.1132 18.4279C14.1132 18.4279 13.8713 18.5851 13.8713 18.6637C13.8713 18.7423 14.1252 18.8996 14.2341 18.8996C14.3551 18.8996 14.5728 18.7423 14.5728 18.675C14.5728 18.5851 14.3309 18.4279 14.3309 18.4279V18.1246C14.3309 18.1246 14.7421 18.63 14.7421 18.3942C14.7421 18.2482 14.343 17.9674 14.343 17.9674H14.1011C14.1011 17.9674 13.6415 18.3156 13.7019 18.3942C13.7019 18.63 14.1132 18.1246 14.1132 18.1246V18.4391V18.4279ZM14.0648 16.0694C14.0648 16.0694 13.8229 15.9121 13.8229 15.8335C13.8229 15.7549 14.0769 15.5977 14.1857 15.5977C14.3067 15.5977 14.5244 15.7549 14.5244 15.8223C14.5244 15.9121 14.2825 16.0581 14.2825 16.0581V16.3726C14.2825 16.3726 14.6937 15.8672 14.6937 16.0918C14.6937 16.2491 14.2946 16.5298 14.2946 16.5298H14.0527C14.0527 16.5298 13.5931 16.1817 13.6535 16.1031C13.6535 15.8672 14.0648 16.3726 14.0648 16.3726V16.0581V16.0694Z" fill="#CA3745"/>
<path fill-rule="evenodd" clip-rule="evenodd" d="M4.44873 18.4617C4.37616 18.3157 4.40036 18.2484 4.40036 18.1697C4.40036 18.0911 4.60597 17.9451 4.67854 17.9451C4.7753 17.9451 4.93253 18.1024 4.93253 18.1922C4.93253 18.2708 4.93253 18.3382 4.89625 18.4842L4.79949 18.2484C4.66644 18.5853 4.65435 18.5853 4.58178 18.2371L4.46083 18.4617H4.44873ZM4.44873 16.0471C4.38826 16.1931 4.40036 16.2605 4.40036 16.3391C4.40036 16.4177 4.60597 16.5637 4.69063 16.5637C4.78739 16.5637 4.94463 16.4065 4.94463 16.3166C4.94463 16.238 4.94463 16.1706 4.90834 16.0246L4.79949 16.2605C4.67854 15.9235 4.66644 15.9235 4.58178 16.2717L4.46083 16.0471H4.44873ZM15.6365 18.4281C15.564 18.2821 15.5761 18.2147 15.5761 18.136C15.5761 18.0574 15.7938 17.9114 15.8663 17.9114C15.9631 17.9114 16.1203 18.0799 16.1203 18.1585C16.1203 18.2371 16.1203 18.3157 16.084 18.4505L15.9752 18.2147C15.8542 18.5516 15.8422 18.5628 15.7575 18.2147L15.6365 18.4281ZM15.6365 16.0246C15.564 16.1594 15.5882 16.2268 15.5882 16.3166C15.5882 16.384 15.7938 16.5412 15.8663 16.5412C15.9631 16.5412 16.1324 16.3728 16.1324 16.2942C16.1324 16.2043 16.1324 16.1369 16.0961 15.9909L15.9752 16.238C15.8542 15.8898 15.8542 15.8786 15.7696 16.238L15.6486 16.0134L15.6365 16.0246Z" fill="white"/>
<path fill-rule="evenodd" clip-rule="evenodd" d="M8.93617 21.2469V20.6404H7.00099V19.45H5.28351V19.0569H3.78374V15.463H5.28351V15.0699H7.00099V13.8794H8.93617V13.2842H11.5003V13.8794H13.4355V15.0699H15.1409V15.4742H16.6527V19.0569H15.153V19.45H13.4476V20.6404H11.5124V21.2357H8.94827L8.93617 21.2469ZM8.71847 21.4378V20.8426H6.78328V19.6521H5.0779V19.2478H3.57812V15.2721H5.0779V14.879H6.78328V13.6773H8.71847V13.082H11.718V13.6773H13.6532V14.879H15.3586V15.2721H16.8583V19.2478H15.3586V19.6521H13.6411V20.8426H11.7059V21.4378H8.71847Z" fill="#CA3745" stroke="black" stroke-width="0.011655"/>
</g>
</g>
<defs>
<clipPath id="clip0_4604_131874">
<rect width="80" height="60" fill="white"/>
</clipPath>
</defs>
</svg>
