<svg width="80" height="60" viewBox="0 0 80 60" fill="none" xmlns="http://www.w3.org/2000/svg">
<g clip-path="url(#clip0_3736_63865)">
<path d="M0 0H80V60H0V0Z" fill="#009FCA"/>
<path fill-rule="evenodd" clip-rule="evenodd" d="M74.1629 15.3375H77.6254L74.8379 17.2375L75.9004 20.325L73.1129 18.4125L70.3379 20.325L71.4004 17.2375L68.6129 15.3375H72.0504L73.1129 12.25L74.1629 15.3375ZM65.5129 39.9375H68.9629L66.1754 41.8375L67.2379 44.925L64.4504 43.0125L61.6629 44.925L62.7379 41.8375L59.9504 39.9375H63.3754L64.4379 36.85L65.5129 39.9375ZM74.1629 34.3625H77.6254L74.8379 36.2625L75.9004 39.35L73.1129 37.4375L70.3379 39.35L71.4004 36.2625L68.6129 34.3625H72.0504L73.1129 31.275L74.1629 34.3625ZM36.9754 52.2125H40.4254L37.6254 54.1L38.7004 57.175L35.9129 55.275L33.1254 57.175L34.2004 54.1L31.4004 52.1875H34.8504L35.9129 49.1125L36.9754 52.2125ZM44.8004 42.65H41.3504L44.1379 40.7375L43.0754 37.6625L45.8629 39.5625L48.6504 37.6625L47.5754 40.7375L50.3629 42.65H46.9254L45.8629 45.725L44.8004 42.65ZM54.9629 28.5875H51.5004L54.2879 26.6875L53.2254 23.6L56.0129 25.5125L58.8004 23.6L57.7254 26.6875L60.5129 28.5875H57.0754L56.0129 31.675L54.9629 28.5875ZM63.5004 25.675H60.0504L62.8504 23.7625L61.7754 20.6875L64.5629 22.5875L67.3504 20.6875L66.2754 23.7625L69.0754 25.675H65.6254L64.5629 28.75L63.5004 25.675ZM54.9629 50H51.5004L54.2879 48.1L53.2504 45L56.0379 46.9L58.8254 45L57.7504 48.0875L60.5379 49.9875H57.1004L56.0379 53.075L54.9629 50ZM44.8004 52.4875H41.3504L44.1379 50.5875L43.0754 47.5L45.8629 49.4L48.6504 47.5L47.5754 50.575L50.3754 52.5H46.9379L45.8754 55.5875L44.8004 52.4875Z" fill="#FFF40D"/>
<path d="M0 0H40V30H0V0Z" fill="#012169"/>
<path d="M4.6875 0L19.9375 11.3125L35.125 0H40V3.875L25 15.0625L40 26.1875V30H35L20 18.8125L5.0625 30H0V26.25L14.9375 15.125L0 4V0H4.6875Z" fill="white"/>
<path d="M26.5 17.5625L40 27.5V30L23.0625 17.5625H26.5ZM15 18.8125L15.375 21L3.375 30H0L15 18.8125ZM40 0V0.1875L24.4375 11.9375L24.5625 9.1875L36.875 0H40ZM0 0L14.9375 11H11.1875L0 2.625V0Z" fill="#C8102E"/>
<path d="M15.0625 0V30H25.0625V0H15.0625ZM0 10V20H40V10H0Z" fill="white"/>
<path d="M0 12.0625V18.0625H40V12.0625H0ZM17.0625 0V30H23.0625V0H17.0625Z" fill="#C8102E"/>
</g>
<defs>
<clipPath id="clip0_3736_63865">
<rect width="80" height="60" fill="white"/>
</clipPath>
</defs>
</svg>
