<svg width="80" height="60" viewBox="0 0 80 60" fill="none" xmlns="http://www.w3.org/2000/svg">
<g clip-path="url(#clip0_3736_63918)">
<path fill-rule="evenodd" clip-rule="evenodd" d="M0 0H114V4.61725H0V0ZM0 9.23438H114V13.8516H0V9.23438ZM0 18.457H114V23.0859H0V18.457ZM0 27.6914H114V32.3086H0V27.6914ZM0 36.9258H114V41.543H0V36.9258ZM0 46.1484H114V50.7656H0V46.1484ZM0 55.3828H114V60H0V55.3828Z" fill="#BD3D44"/>
<path fill-rule="evenodd" clip-rule="evenodd" d="M0 4.61719H114V9.23431H0V4.61719ZM0 13.8514H114V18.4569H0V13.8514ZM0 23.0742H114V27.6913H0V23.0742ZM0 32.3086H114V36.9257H0V32.3086ZM0 41.5429H114V46.1601H0V41.5429ZM0 50.7656H114V55.3828H0V50.7656Z" fill="white"/>
<path fill-rule="evenodd" clip-rule="evenodd" d="M0 0H45.5976V32.3086H0V0Z" fill="#192F5D"/>
<path fill-rule="evenodd" clip-rule="evenodd" d="M3.79681 1.38281L4.21869 2.65994H5.55469L4.47644 3.44519L4.88669 4.73419L3.79681 3.93731L2.71869 4.72244L3.12881 3.44519L2.03906 2.65994H3.39844L3.79681 1.38281ZM11.4023 1.38281L11.8124 2.65994H13.1601L12.0702 3.44519L12.4804 4.73419L11.4023 3.93731L10.3124 4.72244L10.7226 3.44519L9.64444 2.65994H10.9804L11.4023 1.38281ZM18.9961 1.38281L19.4179 2.66006H20.7422L19.6641 3.44531L20.0741 4.73431L18.9843 3.93744L17.9062 4.72256L18.3163 3.44531L17.2264 2.66006H18.5742L18.9961 1.38281ZM26.6016 1.38281L27.0116 2.66006H28.3593L27.2694 3.44531L27.6913 4.73431L26.6014 3.93744L25.5117 4.72256L25.9336 3.44531L24.8437 2.66006H26.1797L26.6016 1.38281ZM34.1953 1.38281L34.6172 2.66006H35.9531L34.8749 3.44531L35.2851 4.73431L34.1952 3.93744L33.1171 4.72256L33.5273 3.44531L32.4492 2.66006H33.7851L34.1953 1.38281ZM41.8007 1.38281L42.2108 2.66006H43.5586L42.4687 3.44531L42.8906 4.73431L41.8007 3.93744L40.7108 4.72256L41.1327 3.44531L40.0429 2.66006H41.3906L41.8007 1.38281ZM7.60544 4.61694L8.01556 5.89444H9.36319L8.27331 6.67944L8.67181 7.95694L7.61706 7.17169L6.52731 7.95681L6.91394 6.67956L5.85931 5.89431H7.19531L7.60544 4.61694ZM15.1992 4.61694L15.6211 5.89444H16.9569L15.8671 6.67944L16.2891 7.95694L15.1991 7.17169L14.1093 7.95681L14.5312 6.67956L13.4413 5.89431H14.7889L15.1992 4.61694ZM22.8047 4.61694L23.2147 5.89444H24.5624L23.4726 6.67944L23.8827 7.95694L22.8046 7.17169L21.7148 7.95681L22.1249 6.67969L21.0468 5.89444H22.3828L22.8047 4.61694ZM30.3984 4.61694L30.8203 5.89444H32.1562L31.0663 6.67944L31.4882 7.95694L30.3983 7.17169L29.3202 7.95681L29.7304 6.67956L28.6406 5.89431H29.9999L30.3984 4.61694ZM38.0038 4.61694L38.4139 5.89444H39.7617L38.6718 6.67944L39.0819 7.95694L38.0038 7.17169L36.9139 7.95681L37.3242 6.67956L36.2461 5.89431H37.5819L38.0038 4.61694ZM3.79681 7.83994L4.21869 9.14069H5.55469L4.47644 9.92581L4.88669 11.2032L3.79681 10.4063L2.71869 11.2032L3.12881 9.91406L2.03906 9.12906H3.39844L3.79681 7.83994ZM11.4023 7.83994L11.8124 9.12869H13.1601L12.0702 9.91381L12.4804 11.1913L11.4023 10.3943L10.3124 11.1912L10.7226 9.90219L9.64444 9.11706H10.9804L11.4023 7.83994ZM18.9961 7.83994L19.4179 9.12894H20.7422L19.6641 9.91406L20.0741 11.1916L18.9843 10.3946L17.9062 11.1914L18.3163 9.90244L17.2264 9.11731H18.5742L18.9961 7.83994ZM26.6016 7.83994L27.0116 9.12894H28.3593L27.2694 9.91406L27.6913 11.1916L26.6014 10.3946L25.5117 11.1914L25.9336 9.90244L24.8437 9.11731H26.1797L26.6016 7.83994ZM34.1953 7.83994L34.6172 9.12894H35.9531L34.8749 9.91394L35.2851 11.1914L34.1952 10.3944L33.1171 11.1913L33.5273 9.90231L32.4492 9.11719H33.7851L34.1953 7.83994ZM41.8007 7.83994L42.2108 9.12894H43.5586L42.4687 9.91406L42.8906 11.1916L41.8007 10.3946L40.7108 11.1914L41.1327 9.90244L40.0429 9.11731H41.3906L41.8007 7.83994ZM7.60544 11.0742L8.01556 12.3516H9.36319L8.27331 13.1366L8.68356 14.4257L7.60544 13.6288L6.51556 14.4139L6.92569 13.1367L5.84756 12.3516H7.18369L7.60544 11.0742ZM15.1992 11.0742L15.6211 12.3516H16.9569L15.8671 13.1366L16.2891 14.4257L15.1991 13.6288L14.1093 14.4139L14.5312 13.1367L13.4413 12.3516H14.7889L15.1992 11.0742ZM22.8047 11.0742L23.2147 12.3516H24.5624L23.4726 13.1366L23.8827 14.4257L22.8046 13.6288L21.7148 14.4139L22.1249 13.1367L21.0468 12.3516H22.3828L22.8047 11.0742ZM30.3984 11.0742L30.8203 12.3516H32.1562L31.0781 13.1366L31.4882 14.4257L30.3983 13.6288L29.3202 14.4139L29.7304 13.1367L28.6406 12.3516H29.9999L30.3984 11.0742ZM38.0038 11.0742L38.4139 12.3516H39.7617L38.6718 13.1366L39.0819 14.4257L38.0038 13.6288L36.9139 14.4139L37.3242 13.1367L36.2461 12.3516H37.5819L38.0038 11.0742ZM3.79681 14.3086L4.21869 15.5859H5.55469L4.47644 16.3709L4.88669 17.6601L3.79681 16.8632L2.71869 17.6483L3.12881 16.3711L2.03906 15.5859H3.39844L3.79681 14.3086ZM11.4023 14.3086L11.8124 15.5859H13.1601L12.0702 16.3709L12.4804 17.6484L11.4023 16.8632L10.3124 17.6483L10.7226 16.3711L9.64444 15.5859H10.9804L11.4023 14.3086ZM18.9961 14.3086L19.4179 15.5859H20.7422L19.6641 16.3709L20.0741 17.6601L18.9843 16.8632L17.9062 17.6483L18.3163 16.3711L17.2264 15.5859H18.5742L18.9961 14.3086ZM26.6016 14.3086L27.0116 15.5859H28.3593L27.2694 16.3709L27.6913 17.6601L26.6014 16.8632L25.5117 17.6483L25.9336 16.3711L24.8437 15.5859H26.1797L26.6016 14.3086ZM34.1953 14.3086L34.6172 15.5859H35.9531L34.8749 16.3709L35.2851 17.6601L34.1952 16.8632L33.1171 17.6483L33.5273 16.3711L32.4492 15.5859H33.7851L34.1953 14.3086ZM41.8007 14.3086L42.2108 15.5859H43.5586L42.4687 16.3709L42.8906 17.6601L41.8007 16.8632L40.7108 17.6483L41.1327 16.3711L40.0429 15.5859H41.3906L41.8007 14.3086ZM7.60544 17.5429L8.01556 18.8203H9.36319L8.27331 19.6053L8.68356 20.8828L7.60544 20.0859L6.51556 20.8828L6.92569 19.5937L5.84756 18.8086H7.18369L7.60544 17.5429ZM15.1992 17.5429L15.6211 18.8203H16.9569L15.8671 19.6053L16.2891 20.8828L15.1991 20.0859L14.1093 20.8828L14.5312 19.5937L13.4413 18.8086H14.7889L15.1992 17.5429ZM22.8047 17.5429L23.2147 18.8203H24.5624L23.4726 19.6053L23.8827 20.8828L22.8046 20.0859L21.7148 20.8828L22.1249 19.5937L21.0468 18.8086H22.3828L22.8047 17.5429ZM30.3984 17.5429L30.8203 18.8203H32.1562L31.0781 19.6053L31.4882 20.8828L30.3983 20.0859L29.3202 20.8828L29.7304 19.5937L28.6406 18.8086H29.9999L30.3984 17.5429ZM38.0038 17.5429L38.4139 18.8203H39.7617L38.6718 19.6053L39.0819 20.8828L38.0038 20.0859L36.9139 20.8828L37.3242 19.5937L36.2461 18.8086H37.5819L38.0038 17.5429ZM3.79681 20.7656L4.21869 22.0547H5.55469L4.47644 22.8397L4.88669 24.1054L3.79681 23.3203L2.71869 24.1053L3.12881 22.8281L2.03906 22.0429H3.39844L3.79681 20.7656ZM11.4023 20.7656L11.8124 22.0547H13.1601L12.0702 22.8397L12.4922 24.1054L11.4022 23.3203L10.3124 24.1053L10.7343 22.8281L9.64444 22.0429H10.9804L11.4023 20.7656ZM18.9961 20.7656L19.4179 22.0547H20.7422L19.6641 22.8397L20.0741 24.1054L18.9843 23.3203L17.9062 24.1053L18.3163 22.8281L17.2264 22.0429H18.5742L18.9961 20.7656ZM26.6016 20.7656L27.0116 22.0547H28.3593L27.2694 22.8397L27.6913 24.1054L26.6014 23.3203L25.5117 24.1053L25.9336 22.8281L24.8437 22.0429H26.1797L26.6016 20.7656ZM34.1953 20.7656L34.6172 22.0547H35.9531L34.8749 22.8397L35.2851 24.1054L34.1952 23.3203L33.1171 24.1053L33.5273 22.8281L32.4492 22.0429H33.7851L34.1953 20.7656ZM41.8007 20.7656L42.2108 22.0547H43.5586L42.4687 22.8397L42.8906 24.1054L41.8007 23.3203L40.7108 24.1053L41.1327 22.8281L40.0429 22.0429H41.3906L41.8007 20.7656ZM7.60544 23.9999L8.01556 25.2773H9.36319L8.27331 26.0624L8.68356 27.3516L7.60544 26.5547L6.51556 27.3397L6.92569 26.0624L5.84756 25.2773H7.18369L7.60544 23.9999ZM15.1992 23.9999L15.6211 25.2773H16.9569L15.8671 26.0624L16.2891 27.3516L15.1991 26.5547L14.1093 27.3397L14.5312 26.0624L13.4413 25.2773H14.7889L15.1992 23.9999ZM22.8047 23.9999L23.2147 25.2773H24.5624L23.4726 26.0624L23.8827 27.3516L22.8046 26.5547L21.7148 27.3397L22.1249 26.0624L21.0468 25.2773H22.3828L22.8047 23.9999ZM30.3984 23.9999L30.8203 25.2773H32.1562L31.0781 26.0624L31.4882 27.3516L30.3983 26.5547L29.3202 27.3397L29.7304 26.0624L28.6406 25.2773H29.9999L30.3984 23.9999ZM38.0038 23.9999L38.4139 25.2773H39.7617L38.6718 26.0624L39.0819 27.3516L38.0038 26.5547L36.9139 27.3397L37.3242 26.0624L36.2461 25.2773H37.5819L38.0038 23.9999ZM3.79681 27.2343L4.21869 28.5117H5.55469L4.47644 29.2968L4.88669 30.5742L3.79681 29.7891L2.71869 30.5741L3.12881 29.2851L2.03906 28.4999H3.39844L3.79681 27.2343ZM11.4023 27.2343L11.8124 28.5117H13.1601L12.0702 29.2968L12.4922 30.5742L11.4022 29.7891L10.3124 30.5741L10.7343 29.2851L9.64444 28.4999H10.9804L11.4023 27.2343ZM18.9961 27.2343L19.4179 28.5117H20.7422L19.6874 29.2968L20.0976 30.5742L19.0077 29.7891L17.9296 30.5741L18.3398 29.2851L17.2499 28.4999H18.5976L18.9961 27.2343ZM26.6016 27.2343L27.0116 28.5117H28.3593L27.2694 29.2968L27.6913 30.5742L26.6014 29.7891L25.5117 30.5741L25.9336 29.2851L24.8437 28.4999H26.1797L26.6016 27.2343ZM34.1953 27.2343L34.6172 28.5117H35.9531L34.8749 29.2968L35.2851 30.5742L34.1952 29.7891L33.1171 30.5741L33.5273 29.2851L32.4492 28.4999H33.7851L34.1953 27.2343ZM41.8007 27.2343L42.2108 28.5117H43.5586L42.4687 29.2968L42.8906 30.5742L41.8007 29.7891L40.7108 30.5741L41.1327 29.2851L40.0429 28.4999H41.3906L41.8007 27.2343Z" fill="white"/>
</g>
<defs>
<clipPath id="clip0_3736_63918">
<rect width="80" height="60" fill="white"/>
</clipPath>
</defs>
</svg>
