<svg width="80" height="60" viewBox="0 0 80 60" fill="none" xmlns="http://www.w3.org/2000/svg">
<g clip-path="url(#clip0_3736_63983)">
<path d="M0 0H80V60H0V0Z" fill="white"/>
<path d="M33.25 6.66211H80V13.3371H33.25V6.66211ZM33.25 19.9996H80V26.6621H33.25V19.9996ZM0 33.3371H80V39.9996H0V33.3371ZM0 46.6621H80V53.3371H0V46.6621Z" fill="#0038A8"/>
<path d="M15.9072 19.9215L17.0107 21.5692C12.4765 24.8504 15.2447 26.7908 12.0315 27.8411C14.03 25.8908 11.7168 25.7264 13.4006 21.6613" fill="#FCD116"/>
<path d="M15.9072 19.9215L17.0107 21.5692C12.4765 24.8504 15.2447 26.7908 12.0315 27.8411C14.03 25.8908 11.7168 25.7264 13.4006 21.6613" stroke="black" stroke-width="0.22" stroke-miterlimit="20" stroke-linecap="square"/>
<path d="M15.1187 20.3883C12.6171 24.5114 14.2577 26.7785 12.0317 27.8409" stroke="black" stroke-width="0.22" stroke-miterlimit="20"/>
<path d="M16.6619 16.6621H18.8619L16.6619 28.7621L14.4619 16.6621H16.6619V28.7621V16.6621Z" fill="#FCD116"/>
<path d="M16.6619 16.6621H18.8619L16.6619 28.7621M16.6619 16.6621H14.4619L16.6619 28.7621M16.6619 16.6621V28.7621" stroke="black" stroke-width="0.22" stroke-miterlimit="20"/>
<path d="M13.8238 18.4326L13.439 20.378C7.91261 19.492 8.49796 22.8215 5.4832 21.2921C8.27544 21.3261 6.75603 19.5742 10.8211 17.8904" fill="#FCD116"/>
<path d="M13.8238 18.4326L13.439 20.378C7.91261 19.492 8.49796 22.8215 5.4832 21.2921C8.27544 21.3261 6.75603 19.5742 10.8211 17.8904" stroke="black" stroke-width="0.22" stroke-miterlimit="20" stroke-linecap="square"/>
<path d="M12.9351 18.2056C8.25067 19.3522 7.80771 22.1154 5.48251 21.2926" stroke="black" stroke-width="0.22" stroke-miterlimit="20"/>
<path d="M16.6621 16.6621L18.2177 18.2177L8.1061 25.2181L15.1064 15.1064L16.6621 16.6621L8.1061 25.2181L16.6621 16.6621Z" fill="#FCD116"/>
<path d="M16.6621 16.6621L18.2177 18.2177L8.1061 25.2181M16.6621 16.6621L15.1064 15.1064L8.1061 25.2181M16.6621 16.6621L8.1061 25.2181" stroke="black" stroke-width="0.22" stroke-miterlimit="20"/>
<path d="M13.4028 15.9072L11.7551 17.0107C8.47378 12.4765 6.53341 15.2447 5.4831 12.0315C7.43344 14.03 7.59783 11.7168 11.6629 13.4006" fill="#FCD116"/>
<path d="M13.4028 15.9072L11.7551 17.0107C8.47378 12.4765 6.53341 15.2447 5.4831 12.0315C7.43344 14.03 7.59783 11.7168 11.6629 13.4006" stroke="black" stroke-width="0.22" stroke-miterlimit="20" stroke-linecap="square"/>
<path d="M12.936 15.1187C8.81278 12.6171 6.5457 14.2577 5.48335 12.0317" stroke="black" stroke-width="0.22" stroke-miterlimit="20"/>
<path d="M16.6621 16.6619V18.8619L4.56212 16.6619L16.6621 14.4619V16.6619H4.56212H16.6621Z" fill="#FCD116"/>
<path d="M16.6621 16.6619V18.8619L4.56212 16.6619M16.6621 16.6619V14.4619L4.56212 16.6619M16.6621 16.6619H4.56212" stroke="black" stroke-width="0.22" stroke-miterlimit="20"/>
<path d="M14.8916 13.8238L12.9463 13.439C13.8322 7.91261 10.5028 8.49796 12.0321 5.4832C11.9981 8.27544 13.75 6.75603 15.4338 10.8211" fill="#FCD116"/>
<path d="M14.8916 13.8238L12.9463 13.439C13.8322 7.91261 10.5028 8.49796 12.0321 5.4832C11.9981 8.27544 13.75 6.75603 15.4338 10.8211" stroke="black" stroke-width="0.22" stroke-miterlimit="20" stroke-linecap="square"/>
<path d="M15.1186 12.9351C13.972 8.25067 11.2088 7.80771 12.0316 5.48251" stroke="black" stroke-width="0.22" stroke-miterlimit="20"/>
<path d="M16.6621 16.6621L15.1065 18.2177L8.10616 8.1061L18.2178 15.1064L16.6621 16.6621L8.10616 8.1061L16.6621 16.6621Z" fill="#FCD116"/>
<path d="M16.6621 16.6621L15.1065 18.2177L8.10616 8.1061M16.6621 16.6621L18.2178 15.1064L8.10616 8.1061M16.6621 16.6621L8.10616 8.1061" stroke="black" stroke-width="0.22" stroke-miterlimit="20"/>
<path d="M17.417 13.4028L16.3136 11.7551C20.8477 8.47378 18.0796 6.53341 21.2928 5.4831C19.2943 7.43344 21.6074 7.59783 19.9236 11.6629" fill="#FCD116"/>
<path d="M17.417 13.4028L16.3136 11.7551C20.8477 8.47378 18.0796 6.53341 21.2928 5.4831C19.2943 7.43344 21.6074 7.59783 19.9236 11.6629" stroke="black" stroke-width="0.22" stroke-miterlimit="20" stroke-linecap="square"/>
<path d="M18.2055 12.936C20.7071 8.81278 19.0665 6.5457 21.2925 5.48335" stroke="black" stroke-width="0.22" stroke-miterlimit="20"/>
<path d="M16.6623 16.6621H14.4623L16.6623 4.56212L18.8623 16.6621H16.6623V4.56212V16.6621Z" fill="#FCD116"/>
<path d="M16.6623 16.6621H14.4623L16.6623 4.56212M16.6623 16.6621H18.8623L16.6623 4.56212M16.6623 16.6621V4.56212" stroke="black" stroke-width="0.22" stroke-miterlimit="20"/>
<path d="M19.5004 14.8916L19.8852 12.9463C25.4116 13.8322 24.8263 10.5028 27.841 12.0321C25.0488 11.9981 26.5682 13.75 22.5031 15.4338" fill="#FCD116"/>
<path d="M19.5004 14.8916L19.8852 12.9463C25.4116 13.8322 24.8263 10.5028 27.841 12.0321C25.0488 11.9981 26.5682 13.75 22.5031 15.4338" stroke="black" stroke-width="0.22" stroke-miterlimit="20" stroke-linecap="square"/>
<path d="M20.3891 15.1186C25.0735 13.972 25.5165 11.2088 27.8417 12.0316" stroke="black" stroke-width="0.22" stroke-miterlimit="20"/>
<path d="M16.6621 16.6621L15.1065 15.1065L25.2181 8.10616L18.2178 18.2178L16.6621 16.6621L25.2181 8.10616L16.6621 16.6621Z" fill="#FCD116"/>
<path d="M16.6621 16.6621L15.1065 15.1065L25.2181 8.10616M16.6621 16.6621L18.2178 18.2178L25.2181 8.10616M16.6621 16.6621L25.2181 8.10616" stroke="black" stroke-width="0.22" stroke-miterlimit="20"/>
<path d="M19.9215 17.417L21.5692 16.3136C24.8504 20.8477 26.7908 18.0796 27.8411 21.2928C25.8908 19.2943 25.7264 21.6074 21.6613 19.9236" fill="#FCD116"/>
<path d="M19.9215 17.417L21.5692 16.3136C24.8504 20.8477 26.7908 18.0796 27.8411 21.2928C25.8908 19.2943 25.7264 21.6074 21.6613 19.9236" stroke="black" stroke-width="0.22" stroke-miterlimit="20" stroke-linecap="square"/>
<path d="M20.3883 18.2055C24.5114 20.7071 26.7785 19.0665 27.8409 21.2925" stroke="black" stroke-width="0.22" stroke-miterlimit="20"/>
<path d="M16.6621 16.6623V14.4623L28.7621 16.6623L16.6621 18.8623V16.6623H28.7621H16.6621Z" fill="#FCD116"/>
<path d="M16.6621 16.6623V14.4623L28.7621 16.6623M16.6621 16.6623V18.8623L28.7621 16.6623M16.6621 16.6623H28.7621" stroke="black" stroke-width="0.22" stroke-miterlimit="20"/>
<path d="M18.4326 19.5004L20.378 19.8852C19.492 25.4116 22.8215 24.8263 21.2921 27.841C21.3261 25.0488 19.5742 26.5682 17.8904 22.5031" fill="#FCD116"/>
<path d="M18.4326 19.5004L20.378 19.8852C19.492 25.4116 22.8215 24.8263 21.2921 27.841C21.3261 25.0488 19.5742 26.5682 17.8904 22.5031" stroke="black" stroke-width="0.22" stroke-miterlimit="20" stroke-linecap="square"/>
<path d="M18.2056 20.3891C19.3522 25.0735 22.1154 25.5165 21.2926 27.8417" stroke="black" stroke-width="0.22" stroke-miterlimit="20"/>
<path d="M16.6621 16.6621L18.2177 15.1065L25.2181 25.2181L15.1064 18.2178L16.6621 16.6621L25.2181 25.2181L16.6621 16.6621Z" fill="#FCD116"/>
<path d="M16.6621 16.6621L18.2177 15.1065L25.2181 25.2181M16.6621 16.6621L15.1064 18.2178L25.2181 25.2181M16.6621 16.6621L25.2181 25.2181" stroke="black" stroke-width="0.22" stroke-miterlimit="20"/>
<path d="M16.6622 20.6956C18.8898 20.6956 20.6956 18.8898 20.6956 16.6622C20.6956 14.4347 18.8898 12.6289 16.6622 12.6289C14.4347 12.6289 12.6289 14.4347 12.6289 16.6622C12.6289 18.8898 14.4347 20.6956 16.6622 20.6956Z" fill="#FCD116" stroke="black" stroke-width="0.22" stroke-miterlimit="20"/>
<path d="M19.6327 15.0488C19.376 15.3421 19.2293 14.8288 18.3127 14.8288C17.396 14.8288 17.2494 15.3787 17.1027 15.2687C16.956 15.1588 17.8727 14.4988 18.166 14.4621C18.4593 14.4254 19.3027 14.7188 19.6327 15.0488ZM18.5693 15.3787C18.826 15.5987 18.606 16.0754 18.3493 16.0754C18.0927 16.0754 17.616 15.6354 17.836 15.3421" fill="black"/>
<path d="M17.3594 15.7086C17.396 15.2686 17.7627 15.1953 18.3494 15.1953C18.936 15.1953 19.1927 15.6353 19.4127 15.7453C19.156 15.7453 18.936 15.3786 18.3494 15.3786C17.7627 15.3786 17.7627 15.3786 17.3594 15.7453M17.4694 15.8186C17.616 15.5986 17.7994 16.0386 18.2027 16.0386C18.606 16.0386 18.826 15.9286 19.0827 15.7453C19.3394 15.562 18.716 16.1853 18.3127 16.1853C17.9094 16.1853 17.3594 15.9653 17.4694 15.8186Z" fill="black"/>
<path d="M18.7161 16.0385C19.1928 15.7818 18.8995 15.4151 18.7161 15.3418C18.7895 15.4151 19.0828 15.7818 18.7161 16.0385ZM16.6628 18.2384C16.8828 18.2384 16.9562 18.1651 17.2495 18.1651C17.5428 18.1651 18.2395 18.5684 18.6428 18.4218C17.7995 18.7518 18.1295 18.5318 16.6628 18.5318H16.4795M18.7895 18.7518C18.6428 18.4951 18.6795 18.5684 18.3861 18.1651C18.6795 18.3851 18.7528 18.4951 18.7895 18.7518ZM16.6628 19.1184C17.5795 19.1184 17.4328 18.9351 18.6428 18.4218C17.7628 18.5318 17.5795 18.8251 16.6628 18.8251H16.4795M16.6628 17.7618C16.9195 17.7618 16.9928 17.5784 17.2861 17.5784C17.5795 17.5784 17.9828 17.6884 18.1661 17.8351C18.2028 17.8718 18.0561 17.5418 17.7628 17.5051C17.4695 17.4684 17.5795 16.9918 17.2495 16.9184C17.2495 17.0651 17.3595 17.0284 17.3961 17.2484C17.3961 17.4318 17.0662 17.4318 16.9928 17.2484C17.0662 17.5418 16.8462 17.5418 16.6628 17.5418" fill="black"/>
<path d="M13.6925 15.0488C13.9492 15.3421 14.0959 14.8288 15.0125 14.8288C15.9292 14.8288 16.0758 15.3787 16.2225 15.2687C16.3692 15.1588 15.4525 14.4988 15.1592 14.4621C14.8659 14.4254 14.0225 14.7188 13.6925 15.0488ZM14.7559 15.3787C14.4992 15.5987 14.7192 16.0754 14.9759 16.0754C15.2325 16.0754 15.7092 15.6354 15.4892 15.3421" fill="black"/>
<path d="M15.9658 15.7086C15.9292 15.2686 15.5625 15.1953 14.9758 15.1953C14.3892 15.1953 14.1325 15.6353 13.9125 15.7453C14.1692 15.7453 14.3892 15.3786 14.9758 15.3786C15.5625 15.3786 15.5625 15.3786 15.9658 15.7453M15.8558 15.8186C15.7092 15.5986 15.5258 16.0386 15.1225 16.0386C14.7192 16.0386 14.4992 15.9286 14.2425 15.7453C13.9858 15.562 14.6092 16.1853 15.0125 16.1853C15.4158 16.1853 15.9658 15.9653 15.8558 15.8186Z" fill="black"/>
<path d="M14.6091 16.0385C14.1324 15.7818 14.4257 15.4151 14.6091 15.3418C14.5357 15.4151 14.2424 15.7818 14.6091 16.0385ZM16.6624 18.2384C16.4424 18.2384 16.369 18.1651 16.0757 18.1651C15.7824 18.1651 15.0857 18.5684 14.6824 18.4218C15.5257 18.7518 15.1957 18.5318 16.6624 18.5318H16.8457M14.5357 18.7518C14.6824 18.4951 14.6457 18.5684 14.9391 18.1651C14.6457 18.3851 14.5724 18.4951 14.5357 18.7518ZM16.6624 19.1184C15.7457 19.1184 15.8924 18.9351 14.6824 18.4218C15.5624 18.5318 15.7457 18.8251 16.6624 18.8251H16.8457M16.6624 17.7618C16.4057 17.7618 16.3324 17.5784 16.039 17.5784C15.7457 17.5784 15.3424 17.6884 15.1591 17.8351C15.1224 17.8718 15.2691 17.5418 15.5624 17.5051C15.8557 17.4684 15.7457 16.9918 16.0757 16.9184C16.0757 17.0651 15.9657 17.0284 15.929 17.2484C15.929 17.4318 16.259 17.4318 16.3324 17.2484C16.259 17.5418 16.479 17.5418 16.6624 17.5418" fill="black"/>
<path d="M16.6627 19.4482C16.4794 19.4482 16.0027 19.5582 16.6627 19.5582C17.3227 19.5582 16.846 19.4482 16.6627 19.4482Z" fill="black"/>
</g>
<defs>
<clipPath id="clip0_3736_63983">
<rect width="80" height="60" fill="white"/>
</clipPath>
</defs>
</svg>
