<svg width="80" height="60" viewBox="0 0 80 60" fill="none" xmlns="http://www.w3.org/2000/svg">
<g clip-path="url(#clip0_3736_64211)">
<path d="M0 40H80V60H0V40Z" fill="#1EB53A"/>
<path d="M0 0H80V20H0V0Z" fill="#0099B5"/>
<path d="M0 19.2002H80V40.8002H0V19.2002Z" fill="#CE1126"/>
<path d="M0 20.4004H80V39.6004H0V20.4004Z" fill="white"/>
<path d="M16.7996 16.8004C20.7761 16.8004 23.9996 13.5768 23.9996 9.60039C23.9996 5.62394 20.7761 2.40039 16.7996 2.40039C12.8232 2.40039 9.59961 5.62394 9.59961 9.60039C9.59961 13.5768 12.8232 16.8004 16.7996 16.8004Z" fill="white"/>
<path d="M19.2 16.8004C23.1765 16.8004 26.4 13.5768 26.4 9.60039C26.4 5.62394 23.1765 2.40039 19.2 2.40039C15.2236 2.40039 12 5.62394 12 9.60039C12 13.5768 15.2236 16.8004 19.2 16.8004Z" fill="#0099B5"/>
<path d="M32.6376 13.9229L32.1816 15.2909L32.8776 15.5309" fill="white"/>
<path d="M32.6377 13.9229L33.0938 15.2909L32.3977 15.5309" fill="white"/>
<path d="M34.0071 14.9181L32.5652 14.9071L32.552 15.6432" fill="white"/>
<path d="M34.0075 14.9179L32.8474 15.7743L32.4041 15.1865" fill="white"/>
<path d="M31.2679 14.9179L32.428 15.7743L32.8713 15.1865" fill="white"/>
<path d="M31.2683 14.9181L32.7102 14.9071L32.7234 15.6432" fill="white"/>
<path d="M33.4836 16.5278L33.0484 15.153L32.3443 15.368" fill="white"/>
<path d="M33.4832 16.5279L32.3102 15.6892L32.7322 15.0859" fill="white"/>
<path d="M31.7912 16.5279L32.9642 15.6892L32.5422 15.0859" fill="white"/>
<path d="M31.7908 16.5278L32.226 15.153L32.9301 15.368" fill="white"/>
<path d="M32.6376 13.9229L32.1816 15.2909L32.8776 15.5309" fill="white"/>
<path d="M32.6377 13.9229L33.0938 15.2909L32.3977 15.5309" fill="white"/>
<path d="M34.0071 14.9181L32.5652 14.9071L32.552 15.6432" fill="white"/>
<path d="M34.0075 14.9179L32.8474 15.7743L32.4041 15.1865" fill="white"/>
<path d="M31.2679 14.9179L32.428 15.7743L32.8713 15.1865" fill="white"/>
<path d="M31.2683 14.9181L32.7102 14.9071L32.7234 15.6432" fill="white"/>
<path d="M33.4836 16.5278L33.0484 15.153L32.3443 15.368" fill="white"/>
<path d="M33.4832 16.5279L32.3102 15.6892L32.7322 15.0859" fill="white"/>
<path d="M31.7912 16.5279L32.9642 15.6892L32.5422 15.0859" fill="white"/>
<path d="M31.7908 16.5278L32.226 15.153L32.9301 15.368" fill="white"/>
<path d="M32.6376 13.9229L32.1816 15.2909L32.8776 15.5309" fill="white"/>
<path d="M32.6377 13.9229L33.0938 15.2909L32.3977 15.5309" fill="white"/>
<path d="M34.0071 14.9181L32.5652 14.9071L32.552 15.6432" fill="white"/>
<path d="M34.0075 14.9179L32.8474 15.7743L32.4041 15.1865" fill="white"/>
<path d="M31.2679 14.9179L32.428 15.7743L32.8713 15.1865" fill="white"/>
<path d="M31.2683 14.9181L32.7102 14.9071L32.7234 15.6432" fill="white"/>
<path d="M33.4836 16.5278L33.0484 15.153L32.3443 15.368" fill="white"/>
<path d="M33.4832 16.5279L32.3102 15.6892L32.7322 15.0859" fill="white"/>
<path d="M31.7912 16.5279L32.9642 15.6892L32.5422 15.0859" fill="white"/>
<path d="M31.7908 16.5278L32.226 15.153L32.9301 15.368" fill="white"/>
<path d="M32.6376 13.9229L32.1816 15.2909L32.8776 15.5309" fill="white"/>
<path d="M32.6377 13.9229L33.0938 15.2909L32.3977 15.5309" fill="white"/>
<path d="M34.0071 14.9181L32.5652 14.9071L32.552 15.6432" fill="white"/>
<path d="M34.0075 14.9179L32.8474 15.7743L32.4041 15.1865" fill="white"/>
<path d="M31.2679 14.9179L32.428 15.7743L32.8713 15.1865" fill="white"/>
<path d="M31.2683 14.9181L32.7102 14.9071L32.7234 15.6432" fill="white"/>
<path d="M33.4836 16.5278L33.0484 15.153L32.3443 15.368" fill="white"/>
<path d="M33.4832 16.5279L32.3102 15.6892L32.7322 15.0859" fill="white"/>
<path d="M31.7912 16.5279L32.9642 15.6892L32.5422 15.0859" fill="white"/>
<path d="M31.7908 16.5278L32.226 15.153L32.9301 15.368" fill="white"/>
<path d="M32.6376 13.9229L32.1816 15.2909L32.8776 15.5309" fill="white"/>
<path d="M32.6377 13.9229L33.0938 15.2909L32.3977 15.5309" fill="white"/>
<path d="M34.0071 14.9181L32.5652 14.9071L32.552 15.6432" fill="white"/>
<path d="M34.0075 14.9179L32.8474 15.7743L32.4041 15.1865" fill="white"/>
<path d="M31.2679 14.9179L32.428 15.7743L32.8713 15.1865" fill="white"/>
<path d="M31.2683 14.9181L32.7102 14.9071L32.7234 15.6432" fill="white"/>
<path d="M33.4836 16.5278L33.0484 15.153L32.3443 15.368" fill="white"/>
<path d="M33.4832 16.5279L32.3102 15.6892L32.7322 15.0859" fill="white"/>
<path d="M31.7912 16.5279L32.9642 15.6892L32.5422 15.0859" fill="white"/>
<path d="M31.7908 16.5278L32.226 15.153L32.9301 15.368" fill="white"/>
<path d="M32.6376 13.9229L32.1816 15.2909L32.8776 15.5309" fill="white"/>
<path d="M32.6377 13.9229L33.0938 15.2909L32.3977 15.5309" fill="white"/>
<path d="M34.0071 14.9181L32.5652 14.9071L32.552 15.6432" fill="white"/>
<path d="M34.0075 14.9179L32.8474 15.7743L32.4041 15.1865" fill="white"/>
<path d="M31.2679 14.9179L32.428 15.7743L32.8713 15.1865" fill="white"/>
<path d="M31.2683 14.9181L32.7102 14.9071L32.7234 15.6432" fill="white"/>
<path d="M33.4836 16.5278L33.0484 15.153L32.3443 15.368" fill="white"/>
<path d="M33.4832 16.5279L32.3102 15.6892L32.7322 15.0859" fill="white"/>
<path d="M31.7912 16.5279L32.9642 15.6892L32.5422 15.0859" fill="white"/>
<path d="M31.7908 16.5278L32.226 15.153L32.9301 15.368" fill="white"/>
<path d="M32.6376 13.9229L32.1816 15.2909L32.8776 15.5309" fill="white"/>
<path d="M32.6377 13.9229L33.0938 15.2909L32.3977 15.5309" fill="white"/>
<path d="M34.0071 14.9181L32.5652 14.9071L32.552 15.6432" fill="white"/>
<path d="M34.0075 14.9179L32.8474 15.7743L32.4041 15.1865" fill="white"/>
<path d="M31.2679 14.9179L32.428 15.7743L32.8713 15.1865" fill="white"/>
<path d="M31.2683 14.9181L32.7102 14.9071L32.7234 15.6432" fill="white"/>
<path d="M33.4836 16.5278L33.0484 15.153L32.3443 15.368" fill="white"/>
<path d="M33.4832 16.5279L32.3102 15.6892L32.7322 15.0859" fill="white"/>
<path d="M31.7912 16.5279L32.9642 15.6892L32.5422 15.0859" fill="white"/>
<path d="M31.7908 16.5278L32.226 15.153L32.9301 15.368" fill="white"/>
<path d="M32.6376 13.9229L32.1816 15.2909L32.8776 15.5309" fill="white"/>
<path d="M32.6377 13.9229L33.0938 15.2909L32.3977 15.5309" fill="white"/>
<path d="M34.0071 14.9181L32.5652 14.9071L32.552 15.6432" fill="white"/>
<path d="M34.0075 14.9179L32.8474 15.7743L32.4041 15.1865" fill="white"/>
<path d="M31.2679 14.9179L32.428 15.7743L32.8713 15.1865" fill="white"/>
<path d="M31.2683 14.9181L32.7102 14.9071L32.7234 15.6432" fill="white"/>
<path d="M33.4836 16.5278L33.0484 15.153L32.3443 15.368" fill="white"/>
<path d="M33.4832 16.5279L32.3102 15.6892L32.7322 15.0859" fill="white"/>
<path d="M31.7912 16.5279L32.9642 15.6892L32.5422 15.0859" fill="white"/>
<path d="M31.7908 16.5278L32.226 15.153L32.9301 15.368" fill="white"/>
<path d="M32.6376 13.9229L32.1816 15.2909L32.8776 15.5309" fill="white"/>
<path d="M32.6377 13.9229L33.0938 15.2909L32.3977 15.5309" fill="white"/>
<path d="M34.0071 14.9181L32.5652 14.9071L32.552 15.6432" fill="white"/>
<path d="M34.0075 14.9179L32.8474 15.7743L32.4041 15.1865" fill="white"/>
<path d="M31.2679 14.9179L32.428 15.7743L32.8713 15.1865" fill="white"/>
<path d="M31.2683 14.9181L32.7102 14.9071L32.7234 15.6432" fill="white"/>
<path d="M33.4836 16.5278L33.0484 15.153L32.3443 15.368" fill="white"/>
<path d="M33.4832 16.5279L32.3102 15.6892L32.7322 15.0859" fill="white"/>
<path d="M31.7912 16.5279L32.9642 15.6892L32.5422 15.0859" fill="white"/>
<path d="M31.7908 16.5278L32.226 15.153L32.9301 15.368" fill="white"/>
<path d="M32.6376 13.9229L32.1816 15.2909L32.8776 15.5309" fill="white"/>
<path d="M32.6377 13.9229L33.0938 15.2909L32.3977 15.5309" fill="white"/>
<path d="M34.0071 14.9181L32.5652 14.9071L32.552 15.6432" fill="white"/>
<path d="M34.0075 14.9179L32.8474 15.7743L32.4041 15.1865" fill="white"/>
<path d="M31.2679 14.9179L32.428 15.7743L32.8713 15.1865" fill="white"/>
<path d="M31.2683 14.9181L32.7102 14.9071L32.7234 15.6432" fill="white"/>
<path d="M33.4836 16.5278L33.0484 15.153L32.3443 15.368" fill="white"/>
<path d="M33.4832 16.5279L32.3102 15.6892L32.7322 15.0859" fill="white"/>
<path d="M31.7912 16.5279L32.9642 15.6892L32.5422 15.0859" fill="white"/>
<path d="M31.7908 16.5278L32.226 15.153L32.9301 15.368" fill="white"/>
<path d="M32.6376 13.9229L32.1816 15.2909L32.8776 15.5309" fill="white"/>
<path d="M32.6377 13.9229L33.0938 15.2909L32.3977 15.5309" fill="white"/>
<path d="M34.0071 14.9181L32.5652 14.9071L32.552 15.6432" fill="white"/>
<path d="M34.0075 14.9179L32.8474 15.7743L32.4041 15.1865" fill="white"/>
<path d="M31.2679 14.9179L32.428 15.7743L32.8713 15.1865" fill="white"/>
<path d="M31.2683 14.9181L32.7102 14.9071L32.7234 15.6432" fill="white"/>
<path d="M33.4836 16.5278L33.0484 15.153L32.3443 15.368" fill="white"/>
<path d="M33.4832 16.5279L32.3102 15.6892L32.7322 15.0859" fill="white"/>
<path d="M31.7912 16.5279L32.9642 15.6892L32.5422 15.0859" fill="white"/>
<path d="M31.7908 16.5278L32.226 15.153L32.9301 15.368" fill="white"/>
<path d="M32.6376 13.9229L32.1816 15.2909L32.8776 15.5309" fill="white"/>
<path d="M32.6377 13.9229L33.0938 15.2909L32.3977 15.5309" fill="white"/>
<path d="M34.0071 14.9181L32.5652 14.9071L32.552 15.6432" fill="white"/>
<path d="M34.0075 14.9179L32.8474 15.7743L32.4041 15.1865" fill="white"/>
<path d="M31.2679 14.9179L32.428 15.7743L32.8713 15.1865" fill="white"/>
<path d="M31.2683 14.9181L32.7102 14.9071L32.7234 15.6432" fill="white"/>
<path d="M33.4836 16.5278L33.0484 15.153L32.3443 15.368" fill="white"/>
<path d="M33.4832 16.5279L32.3102 15.6892L32.7322 15.0859" fill="white"/>
<path d="M31.7912 16.5279L32.9642 15.6892L32.5422 15.0859" fill="white"/>
<path d="M31.7908 16.5278L32.226 15.153L32.9301 15.368" fill="white"/>
</g>
<defs>
<clipPath id="clip0_3736_64211">
<rect width="80" height="60" fill="white"/>
</clipPath>
</defs>
</svg>
