<svg width="80" height="60" viewBox="0 0 80 60" fill="none" xmlns="http://www.w3.org/2000/svg">
<g clip-path="url(#clip0_4604_131914)">
<mask id="mask0_4604_131914" style="mask-type:luminance" maskUnits="userSpaceOnUse" x="0" y="0" width="81" height="60">
<path d="M0 0H80.0039V60H0V0Z" fill="white"/>
</mask>
<g mask="url(#mask0_4604_131914)">
<path fill-rule="evenodd" clip-rule="evenodd" d="M0 0L40.7109 25.7109H90V34.2891H40.7109L0 60V0Z" fill="black"/>
<path fill-rule="evenodd" clip-rule="evenodd" d="M0 57.8555L41.5664 31.2891H90V28.7109H41.5664L0 2.14453V6L39 30L0 54V57.8555Z" fill="#FFFF00"/>
<path fill-rule="evenodd" clip-rule="evenodd" d="M0 60L41.5664 33.4336H90V60H0Z" fill="#40AA40"/>
<path fill-rule="evenodd" clip-rule="evenodd" d="M0 0L41.5664 26.5664H90V0H0Z" fill="#CE0000"/>
<path fill-rule="evenodd" clip-rule="evenodd" d="M11.2266 31.2423C11.3672 31.2774 11.4141 31.3126 11.5547 31.1134C11.5781 30.9962 11.6719 30.8555 11.7539 30.7266C11.8477 30.5509 11.8945 30.4923 11.9883 30.6094C12.0586 30.6915 12.3164 30.5509 12.4102 30.6212C12.5742 30.7384 12.4805 30.7149 12.6094 30.5977C12.7148 30.3868 12.6211 30.4102 12.4922 30.3165C12.375 30.2462 12.1289 30.3868 12.0234 30.3165C12.0586 30.1055 12.1289 30.0821 12.2578 30.0352C12.3516 30.0938 12.6211 29.9884 12.7031 29.9884C12.8203 30.0118 12.9375 30.0235 12.9727 29.8477C13.0312 29.7305 13.0078 29.8126 12.9492 29.7305C12.8555 29.6485 12.5977 29.7891 12.4922 29.7305C12.375 29.6251 12.3867 29.5899 12.4688 29.4259C12.5625 29.3673 12.6445 29.3907 12.7734 29.4727C12.8906 29.5665 13.1016 29.3907 13.2188 29.379C13.3242 29.2618 13.4414 29.2266 13.3594 29.086C13.3242 28.9688 13.2891 28.9688 13.1484 28.9337C13.0078 28.8399 12.8203 29.0157 12.7617 28.8751C12.8789 28.711 12.9141 28.7462 13.0547 28.8399C13.1484 28.8634 13.4062 28.711 13.5 28.6993C13.6289 28.6641 13.5703 28.8165 13.6641 28.4884C13.6289 28.3477 13.3945 28.5704 13.2656 28.5352C13.1484 28.5587 13.0312 28.5118 13.0312 28.3712C13.0312 28.1954 13.125 28.1837 13.2539 28.2071C13.3711 28.2305 13.6172 28.0899 13.7227 28.0899C13.8398 28.1602 13.8984 28.1368 14.0039 27.9727C14.0742 27.7735 13.9922 27.8555 13.8516 27.7384C13.7578 27.6798 13.5 27.8204 13.3945 27.7501C13.418 27.6798 13.4531 27.586 13.5117 27.5509C13.6172 27.5743 13.6992 27.5743 13.8281 27.6446C13.9453 27.7032 14.1562 27.4688 14.2617 27.3868C14.2383 27.2696 14.0273 27.4337 13.9102 27.3516C13.8398 27.293 13.7344 27.2344 13.7109 27.1759C13.7813 26.9766 13.7461 26.9884 13.9453 27.0587C14.0391 27.0235 14.2148 27.0235 14.0977 26.836C14.0742 26.8126 13.9805 26.8126 13.8867 26.7774C13.7813 26.7071 13.6875 26.6251 13.5703 26.6016C13.4883 26.5899 13.3711 26.5548 13.3125 26.5782C13.3125 26.6954 13.3359 26.7657 13.3242 26.9063C13.3828 26.9884 13.4766 26.9884 13.5 27.0235C13.3945 27.1173 13.3359 27.0704 13.2305 27.0704C13.0898 26.9884 13.1719 26.7071 13.0078 26.7657C13.043 26.8477 13.0313 27.1641 13.1016 27.2344C13.1719 27.2813 13.2656 27.3282 13.2773 27.3868C13.1602 27.5626 13.125 27.5509 12.9844 27.4688C12.8672 27.3985 12.9141 27.1407 12.8086 27.1524C12.6914 27.2462 12.6914 27.2344 12.7148 27.3634C12.7148 27.5274 12.6562 27.7618 12.7969 27.8555C12.9492 27.9727 12.9727 27.9493 12.8438 28.1719C12.7617 28.2774 12.7148 28.254 12.6094 28.2071C12.5039 28.1368 12.5273 27.8555 12.4453 27.7735C12.2812 27.6798 12.375 27.6798 12.2461 27.7969C12.2109 27.9493 12.2461 27.9844 12.3047 28.1134C12.3516 28.1954 12.3516 28.4649 12.4453 28.4884C12.5859 28.5704 12.5977 28.5587 12.4219 28.7227C12.3047 28.7227 12.2344 28.7579 12.1406 28.6407C12.0234 28.5469 12.0938 28.2657 11.9414 28.2657C11.8008 28.2774 11.7656 28.2774 11.7773 28.4766C11.8125 28.6524 11.7422 28.9219 11.8828 29.0274C12.0117 29.086 12.0938 29.0743 12.1406 29.1563C12.0938 29.1915 12.0234 29.3087 11.9766 29.3321C11.8828 29.3321 11.7891 29.2735 11.6836 29.2501C11.5664 29.1915 11.625 29.086 11.5195 29.0157C11.4023 29.0509 11.4023 28.8985 11.3438 29.0509C11.3672 29.1915 11.3203 29.3555 11.4609 29.4493C11.5547 29.5079 11.6367 29.6485 11.7422 29.7188C11.8594 29.8594 11.8125 29.8829 11.7422 30.0704C11.6367 30.0821 11.5313 30.0118 11.4258 29.9532C11.3203 29.8712 11.3438 29.6016 11.2383 29.543C11.1563 29.4493 11.1797 29.379 11.0391 29.5665C11.0391 29.6837 11.0508 29.7071 11.0859 29.8009C11.0859 29.918 11.0625 30.1759 11.1797 30.2579C11.2969 30.2813 11.4375 30.3399 11.5313 30.3751C11.625 30.4923 11.543 30.4688 11.4375 30.6329C11.3789 30.7969 11.3789 30.8321 11.2734 30.9141C11.1797 31.0313 11.1563 31.0899 11.2266 31.2423Z" fill="#FFFF00"/>
<path fill-rule="evenodd" clip-rule="evenodd" d="M14.1797 31.3945C14.2617 31.2538 14.3086 31.2304 14.1797 30.996C14.0859 30.914 13.9922 30.7616 13.8984 30.6327C13.7812 30.4452 13.7461 30.3749 13.8984 30.3163C13.9922 30.2812 13.9687 29.9648 14.0742 29.8827C14.2383 29.7538 14.1914 29.8476 14.1328 29.6601C13.9687 29.4609 13.957 29.5663 13.8164 29.6835C13.6992 29.7655 13.7344 30.0937 13.6406 30.1757C13.4531 30.0585 13.4531 29.9648 13.4648 29.8241C13.5703 29.7421 13.5703 29.4023 13.6055 29.3202C13.6758 29.203 13.7227 29.0859 13.582 28.9804C13.4883 28.8632 13.5586 28.9335 13.4648 28.9452C13.3477 29.0273 13.3828 29.3554 13.2773 29.4374C13.1367 29.5312 13.1133 29.496 12.9961 29.3437C12.9844 29.2265 13.0313 29.1445 13.1602 29.039C13.2891 28.9452 13.2187 28.6523 13.2539 28.5351C13.1836 28.371 13.1953 28.2304 13.043 28.2538C12.9258 28.2538 12.9023 28.289 12.8086 28.4296C12.668 28.5468 12.7617 28.8046 12.5977 28.8046C12.4922 28.6171 12.5508 28.5937 12.6914 28.4765C12.75 28.3945 12.7148 28.0429 12.7383 27.9491C12.7617 27.8085 12.8555 27.9257 12.6094 27.7148C12.4687 27.6796 12.5859 28.0195 12.4922 28.1366C12.457 28.2773 12.375 28.371 12.2578 28.3241C12.082 28.2538 12.1172 28.1484 12.1875 28.0312C12.2578 27.914 12.2227 27.5859 12.2695 27.4804C12.3867 27.3632 12.3867 27.3163 12.2695 27.1288C12.1172 26.9648 12.1523 27.0937 12.0117 27.1991C11.8945 27.2812 11.9297 27.6093 11.8242 27.6913C11.7656 27.6327 11.707 27.5741 11.6953 27.4804C11.7539 27.3866 11.7773 27.2929 11.9062 27.1874C12 27.082 11.8594 26.7773 11.8359 26.6249C11.7188 26.6015 11.7891 26.8827 11.6602 26.9765C11.5781 27.0351 11.4961 27.1171 11.4258 27.1171C11.2734 26.9648 11.2617 26.9999 11.4023 26.8241C11.4141 26.707 11.4844 26.5312 11.2617 26.5898C11.2266 26.5898 11.2031 26.707 11.1328 26.7773C11.0156 26.8593 10.9102 26.9296 10.8398 27.0351C10.793 27.1171 10.7227 27.2343 10.7227 27.3046C10.8164 27.3632 10.8984 27.3632 11.0273 27.4218C11.1211 27.3984 11.168 27.3046 11.2031 27.2929C11.2383 27.4335 11.1797 27.4804 11.1445 27.5976C11.0039 27.7148 10.7695 27.5155 10.7695 27.7148C10.8633 27.703 11.1445 27.832 11.2383 27.7968C11.3086 27.7382 11.3906 27.6562 11.4492 27.6796C11.5664 27.8554 11.543 27.9023 11.4141 28.0077C11.2969 28.1015 11.0625 27.9609 11.0508 28.0663C11.0859 28.2304 11.0742 28.2304 11.2031 28.2538C11.3555 28.3124 11.543 28.4765 11.6719 28.371C11.8477 28.2538 11.8477 28.2187 11.9883 28.4413C12.0586 28.5702 12.0234 28.6171 11.9297 28.6991C11.8242 28.7929 11.5781 28.6523 11.4609 28.6991C11.3203 28.8398 11.3555 28.746 11.4141 28.9335C11.5313 29.0273 11.5781 29.0155 11.7305 28.9921C11.8242 28.9687 12.082 29.0859 12.1289 28.9921C12.2578 28.8749 12.2461 28.8632 12.3281 29.1093C12.2812 29.2499 12.293 29.3202 12.1406 29.3788C12.0117 29.4726 11.7891 29.2734 11.7188 29.4374C11.6719 29.6015 11.6602 29.6366 11.8477 29.6952C12.0234 29.7304 12.2461 29.9062 12.3984 29.8124C12.5039 29.6952 12.5156 29.6015 12.6211 29.578C12.6328 29.6484 12.7031 29.7655 12.7031 29.8241C12.6797 29.9296 12.5859 29.9999 12.5156 30.1054C12.4219 30.2109 12.3398 30.1054 12.2461 30.1874C12.2344 30.3163 12.082 30.2577 12.2109 30.3866C12.3281 30.4101 12.4805 30.5273 12.6094 30.4335C12.7148 30.3515 12.8789 30.3163 12.9727 30.2343C13.1484 30.164 13.1484 30.2343 13.3008 30.3749C13.2656 30.4921 13.1602 30.5741 13.0664 30.6562C12.9492 30.7382 12.7148 30.6093 12.6094 30.6913C12.4922 30.7499 12.4453 30.6913 12.5508 30.914C12.668 30.9726 12.6914 30.9491 12.7852 30.9491C12.9023 31.0077 13.1133 31.1366 13.2422 31.0429C13.3125 30.9257 13.4297 30.8085 13.5 30.7148C13.6289 30.6679 13.582 30.7382 13.6875 30.914C13.8164 31.0546 13.8516 31.0663 13.8867 31.207C13.957 31.3476 14.0039 31.4062 14.168 31.3827L14.1797 31.3945Z" fill="#FFFF00"/>
<path fill-rule="evenodd" clip-rule="evenodd" d="M11.4844 36.8555C11.4844 36.2344 11.3906 35.6133 11.4844 35.6133C16.9688 35.6133 18.3398 31.8633 18.3398 29.3789C18.3398 26.8945 16.4414 24.375 12.8555 24.375C8.75391 24.375 7.37109 26.8125 7.37109 29.3672C7.36055 30.4857 7.78264 31.5649 8.54916 32.3795C9.31568 33.1941 10.3673 33.6809 11.4844 33.7383C14.2266 33.7383 14.918 33.1172 16.9688 30.6211C16.2891 33.7383 12.8672 34.9805 11.4844 34.9805C8.74219 34.9805 6 33.1055 6 29.3789C6 26.2617 8.05078 23.1445 12.8555 23.1445C16.9687 23.1445 19.7109 26.2617 19.7109 29.3789C19.7109 33.7383 16.2891 36.8555 11.4844 36.8555Z" fill="#FFFF00"/>
</g>
</g>
<defs>
<clipPath id="clip0_4604_131914">
<rect width="80" height="60" fill="white"/>
</clipPath>
</defs>
</svg>
