<svg width="80" height="60" viewBox="0 0 80 60" fill="none" xmlns="http://www.w3.org/2000/svg">
<g clip-path="url(#clip0_3736_64392)">
<path d="M0 0H80V60H0V0Z" fill="#CF142B"/>
<path d="M0 0H80V40H0V0Z" fill="#00247D"/>
<path d="M0 0H80V20H0V0Z" fill="#FFCC00"/>
<path d="M43.5599 21.8119L42.4045 24.0452L43.7051 24.7315L43.5599 21.8119Z" fill="white"/>
<path d="M43.5602 21.8121L43.8821 24.3059L42.4252 24.506L43.5602 21.8121Z" fill="white"/>
<path d="M45.6015 23.9263L43.1204 23.5176L42.8696 24.9666L45.6015 23.9263Z" fill="white"/>
<path d="M45.6017 23.9262L43.3294 25.003L42.6889 23.6792L45.6017 23.9262Z" fill="white"/>
<path d="M40.9185 23.0995L42.6855 24.8885L43.7401 23.8636L40.9185 23.0995Z" fill="white"/>
<path d="M40.9184 23.0997L43.3896 23.5642L43.1296 25.0116L40.9184 23.0997Z" fill="white"/>
<path d="M44.2214 26.5202L43.8434 24.0343L42.3878 24.2436L44.2214 26.5202Z" fill="white"/>
<path d="M44.221 26.5199L42.4948 24.6915L43.5558 23.6734L44.221 26.5199Z" fill="white"/>
<path d="M41.3267 26.0103L43.5741 24.8826L42.9253 23.563L41.3267 26.0103Z" fill="white"/>
<path d="M41.3267 26.0102L42.5321 23.8035L43.8283 24.498L41.3267 26.0102Z" fill="white"/>
<path d="M50.2501 24.2461L48.4006 25.9496L49.388 27.0393L50.2501 24.2461Z" fill="white"/>
<path d="M50.2499 24.2461L49.6994 26.6996L48.262 26.3893L50.2499 24.2461Z" fill="white"/>
<path d="M51.4456 26.9309L49.254 25.6983L48.5228 26.9741L51.4456 26.9309Z" fill="white"/>
<path d="M51.446 26.9305L48.9425 27.1651L48.7934 25.7021L51.446 26.9305Z" fill="white"/>
<path d="M47.3269 24.5528L48.3754 26.8382L49.717 26.2359L47.3269 24.5528Z" fill="white"/>
<path d="M47.3264 24.5526L49.4897 25.8343L48.7504 27.1055L47.3264 24.5526Z" fill="white"/>
<path d="M49.2609 28.8977L49.756 26.4325L48.3166 26.1313L49.2609 28.8977Z" fill="white"/>
<path d="M49.2605 28.8982L48.2638 26.5897L49.6091 25.9958L49.2605 28.8982Z" fill="white"/>
<path d="M46.7155 27.4281L49.213 27.1371L49.0547 25.6751L46.7155 27.4281Z" fill="white"/>
<path d="M46.7152 27.4283L48.6027 25.767L49.5832 26.8629L46.7152 27.4283Z" fill="white"/>
<path d="M55.7038 28.8236L53.3832 29.7917L53.9384 31.1534L55.7038 28.8236Z" fill="white"/>
<path d="M55.7035 28.8239L54.347 30.9411L53.1024 30.1579L55.7035 28.8239Z" fill="white"/>
<path d="M55.9092 31.7552L54.2713 29.8473L53.1478 30.7961L55.9092 31.7552Z" fill="white"/>
<path d="M55.9092 31.7556L53.4764 31.1198L53.8367 29.6941L55.9092 31.7556Z" fill="white"/>
<path d="M52.8516 28.1126L53.0553 30.6188L54.5219 30.5116L52.8516 28.1126Z" fill="white"/>
<path d="M52.8515 28.113L54.4459 30.0573L53.3164 30.999L52.8515 28.113Z" fill="white"/>
<path d="M53.1834 32.8557L54.4917 30.7084L53.2422 29.9331L53.1834 32.8557Z" fill="white"/>
<path d="M53.1838 32.8553L53.0367 30.3451L54.5039 30.2472L53.1838 32.8553Z" fill="white"/>
<path d="M51.2944 30.6044L53.7408 31.1851L54.0921 29.7571L51.2944 30.6044Z" fill="white"/>
<path d="M51.2945 30.6046L53.6363 29.689L54.1829 31.0542L51.2945 30.6046Z" fill="white"/>
<path d="M59.2634 34.9889L56.7516 35.105L56.8075 36.5745L59.2634 34.9889Z" fill="white"/>
<path d="M59.263 34.9886L57.2643 36.5142L56.3626 35.3525L59.263 34.9886Z" fill="white"/>
<path d="M58.4529 37.8143L57.5664 35.4613L56.1861 35.9686L58.4529 37.8143Z" fill="white"/>
<path d="M58.4533 37.8146L56.3847 36.3851L57.2109 35.1686L58.4533 37.8146Z" fill="white"/>
<path d="M56.8267 33.3459L56.1609 35.7706L57.5758 36.1715L56.8267 33.3459Z" fill="white"/>
<path d="M56.8266 33.3455L57.6599 35.7179L56.2765 36.2165L56.8266 33.3455Z" fill="white"/>
<path d="M55.5159 37.9165L57.4798 36.3462L56.5707 35.1903L55.5159 37.9165Z" fill="white"/>
<path d="M55.5163 37.9165L56.2366 35.5074L57.6489 35.9172L55.5163 37.9165Z" fill="white"/>
<path d="M54.5104 35.155L56.6107 36.5375L57.4292 35.3158L54.5104 35.155Z" fill="white"/>
<path d="M54.5101 35.1555L57.0238 35.0961L57.0705 36.5659L54.5101 35.1555Z" fill="white"/>
<path d="M20.736 34.9886L22.7348 36.5142L23.6364 35.3525L20.736 34.9886Z" fill="white"/>
<path d="M20.7357 34.9889L23.2474 35.105L23.1915 36.5745L20.7357 34.9889Z" fill="white"/>
<path d="M23.1724 33.3455L22.3391 35.7179L23.7225 36.2165L23.1724 33.3455Z" fill="white"/>
<path d="M23.1723 33.3459L23.8381 35.7706L22.4233 36.1715L23.1723 33.3459Z" fill="white"/>
<path d="M21.5467 37.8136L23.6153 36.3842L22.7891 35.1676L21.5467 37.8136Z" fill="white"/>
<path d="M21.5471 37.8133L22.4336 35.4603L23.8139 35.9677L21.5471 37.8133Z" fill="white"/>
<path d="M25.489 35.1545L22.9752 35.0951L22.9285 36.5649L25.489 35.1545Z" fill="white"/>
<path d="M25.4886 35.1541L23.3883 36.5365L22.5698 35.3148L25.4886 35.1541Z" fill="white"/>
<path d="M24.4837 37.9165L23.7634 35.5074L22.3511 35.9172L24.4837 37.9165Z" fill="white"/>
<path d="M24.4841 37.9165L22.5202 36.3462L23.4293 35.1903L24.4841 37.9165Z" fill="white"/>
<path d="M24.2965 28.8229L25.653 30.9402L26.8976 30.1569L24.2965 28.8229Z" fill="white"/>
<path d="M24.2962 28.8226L26.6168 29.7907L26.0616 31.1525L24.2962 28.8226Z" fill="white"/>
<path d="M27.1485 28.112L25.5541 30.0563L26.6836 30.998L27.1485 28.112Z" fill="white"/>
<path d="M27.1484 28.1116L26.9447 30.6178L25.4781 30.5106L27.1484 28.1116Z" fill="white"/>
<path d="M24.0918 31.7556L26.5246 31.1198L26.1643 29.6941L24.0918 31.7556Z" fill="white"/>
<path d="M24.0918 31.7552L25.7297 29.8473L26.8532 30.7961L24.0918 31.7552Z" fill="white"/>
<path d="M28.7055 30.6046L26.3637 29.689L25.8171 31.0542L28.7055 30.6046Z" fill="white"/>
<path d="M28.7056 30.6044L26.2592 31.1851L25.9079 29.7571L28.7056 30.6044Z" fill="white"/>
<path d="M26.8162 32.8562L26.9633 30.3461L25.4961 30.2482L26.8162 32.8562Z" fill="white"/>
<path d="M26.8166 32.8566L25.5083 30.7094L26.7578 29.9341L26.8166 32.8566Z" fill="white"/>
<path d="M29.7501 24.2471L30.3006 26.7005L31.738 26.3902L29.7501 24.2471Z" fill="white"/>
<path d="M29.7499 24.2471L31.5994 25.9505L30.612 27.0402L29.7499 24.2471Z" fill="white"/>
<path d="M32.6726 24.5546L30.5093 25.8363L31.2486 27.1075L32.6726 24.5546Z" fill="white"/>
<path d="M32.6721 24.5548L31.6236 26.8402L30.2821 26.2378L32.6721 24.5548Z" fill="white"/>
<path d="M28.555 26.9314L31.0585 27.1661L31.2076 25.7031L28.555 26.9314Z" fill="white"/>
<path d="M28.5553 26.9319L30.747 25.6993L31.4782 26.9751L28.5553 26.9319Z" fill="white"/>
<path d="M33.2838 27.4293L31.3964 25.768L30.4158 26.8639L33.2838 27.4293Z" fill="white"/>
<path d="M33.2836 27.4291L30.786 27.1381L30.9443 25.6761L33.2836 27.4291Z" fill="white"/>
<path d="M30.7385 28.8991L31.7352 26.5907L30.39 25.9968L30.7385 28.8991Z" fill="white"/>
<path d="M30.7381 28.8987L30.2431 26.4335L31.6824 26.1323L30.7381 28.8987Z" fill="white"/>
<path d="M36.4398 21.8112L36.1179 24.3049L37.5748 24.505L36.4398 21.8112Z" fill="white"/>
<path d="M36.4401 21.8109L37.5955 24.0442L36.2949 24.7305L36.4401 21.8109Z" fill="white"/>
<path d="M39.0816 23.0997L36.6104 23.5642L36.8704 25.0116L39.0816 23.0997Z" fill="white"/>
<path d="M39.0815 23.0995L37.3145 24.8885L36.2599 23.8636L39.0815 23.0995Z" fill="white"/>
<path d="M34.3983 23.9253L36.6706 25.002L37.3111 23.6782L34.3983 23.9253Z" fill="white"/>
<path d="M34.3985 23.9253L36.8796 23.5166L37.1304 24.9656L34.3985 23.9253Z" fill="white"/>
<path d="M38.6724 26.0102L37.4669 23.8035L36.1707 24.498L38.6724 26.0102Z" fill="white"/>
<path d="M38.6724 26.0103L36.425 24.8826L37.0738 23.563L38.6724 26.0103Z" fill="white"/>
<path d="M35.7781 26.5208L37.5042 24.6925L36.4432 23.6743L35.7781 26.5208Z" fill="white"/>
<path d="M35.7776 26.5212L36.1556 24.0353L37.6112 24.2445L35.7776 26.5212Z" fill="white"/>
</g>
<defs>
<clipPath id="clip0_3736_64392">
<rect width="80" height="60" fill="white"/>
</clipPath>
</defs>
</svg>
