<svg width="80" height="60" viewBox="0 0 80 60" fill="none" xmlns="http://www.w3.org/2000/svg">
<g clip-path="url(#clip0_3736_64514)">
<path d="M0 0H80V60H0V0Z" fill="#000066"/>
<path d="M0 0H40V30H0V0Z" fill="#012169"/>
<path d="M4.6875 0L19.9375 11.3125L35.125 0H40V3.875L25 15.0625L40 26.1875V30H35L20 18.8125L5.0625 30H0V26.25L14.9375 15.125L0 4V0H4.6875Z" fill="white"/>
<path d="M26.5 17.5625L40 27.5V30L23.0625 17.5625H26.5ZM15 18.8125L15.375 21L3.375 30H0L15 18.8125ZM40 0V0.1875L24.4375 11.9375L24.5625 9.1875L36.875 0H40ZM0 0L14.9375 11H11.1875L0 2.625V0Z" fill="#C8102E"/>
<path d="M15.0625 0V30H25.0625V0H15.0625ZM0 10V20H40V10H0Z" fill="white"/>
<path d="M0 12.0625V18.0625H40V12.0625H0ZM17.0625 0V30H23.0625V0H17.0625Z" fill="#C8102E"/>
<path d="M48.0132 12.7747L72.2697 12.6875L72.2213 34.2898C72.2213 34.2898 73.0738 37.5834 62.0498 42.5723C66.0119 42.1654 70.3323 37.9418 70.3323 37.9418C70.3323 37.9418 72.0857 35.6847 72.9478 36.9441C73.8003 38.2034 74.6044 38.8427 75.234 39.3368C75.8637 39.8211 76.3577 41.1773 75.4181 42.1654C74.4687 43.1632 72.9866 43.2891 72.5797 42.0782C71.9501 42.3979 68.0849 47.0768 60.1608 47.2996C52.1012 47.164 47.6935 42.0298 47.6935 42.0298C47.6935 42.0298 46.6182 43.7444 45.078 42.3979C43.5959 40.6349 44.7196 39.5111 44.7196 39.5111C44.7196 39.5111 45.9789 38.7943 46.347 38.3003C46.9282 37.6222 47.1123 36.7213 48.0907 36.7213C49.2725 36.8181 49.7181 37.7578 49.7181 37.7578C49.7181 37.7578 53.7673 42.0298 58.1362 42.5723C48.2844 37.845 47.9163 34.9195 47.9648 34.2026L48.0132 12.7844V12.7747Z" fill="white"/>
<path d="M48.594 13.3651L71.7269 13.2295V34.0181C71.7753 36.7305 67.2224 39.4719 60.112 42.9787C52.7789 39.2007 48.5456 36.9048 48.5068 33.9696L48.594 13.3651Z" fill="#006129" stroke="black" stroke-width="0.184055"/>
<path d="M51.7432 16.4359L53.0994 14.4307L54.4846 16.4456" stroke="#FFC72C" stroke-width="0.184055"/>
<path d="M53.3804 15.6804C53.3804 15.7524 53.3518 15.8213 53.3009 15.8722C53.2501 15.9231 53.1811 15.9517 53.1091 15.9517C53.0372 15.9517 52.9682 15.9231 52.9173 15.8722C52.8665 15.8213 52.8379 15.7524 52.8379 15.6804C52.8379 15.6085 52.8665 15.5395 52.9173 15.4886C52.9682 15.4378 53.0372 15.4092 53.1091 15.4092C53.1811 15.4092 53.2501 15.4378 53.3009 15.4886C53.3518 15.5395 53.3804 15.6085 53.3804 15.6804Z" fill="#FFC72C" stroke="black" stroke-width="0.0871841"/>
<path d="M51.9949 17.9187H54.1163C54.1163 17.9187 54.1454 17.6475 53.8935 17.4828C55.0076 17.3278 54.7169 16.3591 55.6372 16.301C55.831 16.33 55.1529 16.7175 55.1529 16.7175C55.1529 16.7175 54.6007 17.105 54.8623 17.3084C55.056 17.4731 55.1529 17.2116 55.1722 17.0178C55.2013 16.8241 56.0731 16.6981 55.9472 16.146C55.7438 15.6907 54.5232 16.456 54.5232 16.456L53.6514 16.4463C53.5932 16.3494 53.3607 15.9619 53.1089 15.9619C52.8183 15.9619 52.6052 16.4463 52.6052 16.4463H50.6387C50.6387 16.4463 50.5709 16.9597 51.5686 17.0566C51.7914 17.3472 51.9658 17.4247 52.1692 17.5022C52.0336 17.6087 51.9949 17.7443 51.9949 17.9187ZM52.1499 17.4925H53.9129H52.1499Z" fill="#FFC72C"/>
<path d="M52.1499 17.4925H53.9129M51.9949 17.9187H54.1163C54.1163 17.9187 54.1454 17.6475 53.8935 17.4828C55.0076 17.3278 54.7169 16.3591 55.6372 16.301C55.831 16.33 55.1529 16.7175 55.1529 16.7175C55.1529 16.7175 54.6007 17.105 54.8623 17.3084C55.056 17.4731 55.1529 17.2116 55.1722 17.0178C55.2013 16.8241 56.0731 16.6981 55.9472 16.146C55.7438 15.6907 54.5232 16.456 54.5232 16.456L53.6514 16.4463C53.5932 16.3494 53.3607 15.9619 53.1089 15.9619C52.8183 15.9619 52.6052 16.4463 52.6052 16.4463H50.6387C50.6387 16.4463 50.5709 16.9597 51.5686 17.0566C51.7914 17.3472 51.9658 17.4247 52.1692 17.5022C52.0336 17.6087 51.9949 17.7443 51.9949 17.9187Z" stroke="black" stroke-width="0.0871841"/>
<path d="M51.3457 16.4561C51.3457 16.4561 51.4813 17.2795 52.14 17.4732L51.3457 16.4561Z" fill="#FFC72C"/>
<path d="M51.3457 16.4561C51.3457 16.4561 51.4813 17.2795 52.14 17.4732" stroke="black" stroke-width="0.0871841"/>
<path d="M51.2395 16.4361C51.2976 16.1261 51.4236 16.068 51.5495 15.6611C51.5689 15.2736 51.2395 15.3221 51.3364 15.0799C51.5107 14.799 51.4236 14.5374 51.0942 14.334C51.162 14.6924 50.668 15.0315 50.668 15.3221C50.668 15.6127 50.9198 15.5546 50.8908 16.0002C50.9101 16.252 50.823 16.1939 50.7939 16.4361H51.2395Z" fill="url(#paint0_linear_3736_64514)" stroke="black" stroke-width="0.0871841"/>
<path d="M53.3612 14.4892C53.3612 14.556 53.3346 14.62 53.2874 14.6673C53.2401 14.7145 53.1761 14.741 53.1093 14.741C53.0425 14.741 52.9784 14.7145 52.9312 14.6673C52.884 14.62 52.8574 14.556 52.8574 14.4892C52.8574 14.4224 52.884 14.3583 52.9312 14.3111C52.9784 14.2638 53.0425 14.2373 53.1093 14.2373C53.1761 14.2373 53.2401 14.2638 53.2874 14.3111C53.3346 14.3583 53.3612 14.4224 53.3612 14.4892Z" fill="#FFC72C" stroke="black" stroke-width="0.0871841"/>
<path d="M51.7432 16.4359L53.0994 14.4307L54.4846 16.4456" stroke="#FFC72C" stroke-width="0.184055"/>
<path d="M53.3804 15.6804C53.3804 15.7524 53.3518 15.8213 53.3009 15.8722C53.2501 15.9231 53.1811 15.9517 53.1091 15.9517C53.0372 15.9517 52.9682 15.9231 52.9173 15.8722C52.8665 15.8213 52.8379 15.7524 52.8379 15.6804C52.8379 15.6085 52.8665 15.5395 52.9173 15.4886C52.9682 15.4378 53.0372 15.4092 53.1091 15.4092C53.1811 15.4092 53.2501 15.4378 53.3009 15.4886C53.3518 15.5395 53.3804 15.6085 53.3804 15.6804Z" fill="#FFC72C" stroke="black" stroke-width="0.0871841"/>
<path d="M51.9949 17.9187H54.1163C54.1163 17.9187 54.1454 17.6475 53.8935 17.4828C55.0076 17.3278 54.7169 16.3591 55.6372 16.301C55.831 16.33 55.1529 16.7175 55.1529 16.7175C55.1529 16.7175 54.6007 17.105 54.8623 17.3084C55.056 17.4731 55.1529 17.2116 55.1722 17.0178C55.2013 16.8241 56.0731 16.6981 55.9472 16.146C55.7438 15.6907 54.5232 16.456 54.5232 16.456L53.6514 16.4463C53.5932 16.3494 53.3607 15.9619 53.1089 15.9619C52.8183 15.9619 52.6052 16.4463 52.6052 16.4463H50.6387C50.6387 16.4463 50.5709 16.9597 51.5686 17.0566C51.7914 17.3472 51.9658 17.4247 52.1692 17.5022C52.0336 17.6087 51.9949 17.7443 51.9949 17.9187ZM52.1499 17.4925H53.9129H52.1499Z" fill="#FFC72C"/>
<path d="M52.1499 17.4925H53.9129M51.9949 17.9187H54.1163C54.1163 17.9187 54.1454 17.6475 53.8935 17.4828C55.0076 17.3278 54.7169 16.3591 55.6372 16.301C55.831 16.33 55.1529 16.7175 55.1529 16.7175C55.1529 16.7175 54.6007 17.105 54.8623 17.3084C55.056 17.4731 55.1529 17.2116 55.1722 17.0178C55.2013 16.8241 56.0731 16.6981 55.9472 16.146C55.7438 15.6907 54.5232 16.456 54.5232 16.456L53.6514 16.4463C53.5932 16.3494 53.3607 15.9619 53.1089 15.9619C52.8183 15.9619 52.6052 16.4463 52.6052 16.4463H50.6387C50.6387 16.4463 50.5709 16.9597 51.5686 17.0566C51.7914 17.3472 51.9658 17.4247 52.1692 17.5022C52.0336 17.6087 51.9949 17.7443 51.9949 17.9187Z" stroke="black" stroke-width="0.0871841"/>
<path d="M51.3457 16.4561C51.3457 16.4561 51.4813 17.2795 52.14 17.4732L51.3457 16.4561Z" fill="#FFC72C"/>
<path d="M51.3457 16.4561C51.3457 16.4561 51.4813 17.2795 52.14 17.4732" stroke="black" stroke-width="0.0871841"/>
<path d="M51.2395 16.4361C51.2976 16.1261 51.4236 16.068 51.5495 15.6611C51.5689 15.2736 51.2395 15.3221 51.3364 15.0799C51.5107 14.799 51.4236 14.5374 51.0942 14.334C51.162 14.6924 50.668 15.0315 50.668 15.3221C50.668 15.6127 50.9198 15.5546 50.8908 16.0002C50.9101 16.252 50.823 16.1939 50.7939 16.4361H51.2395Z" fill="url(#paint1_linear_3736_64514)" stroke="black" stroke-width="0.0871841"/>
<path d="M53.3612 14.4892C53.3612 14.556 53.3346 14.62 53.2874 14.6673C53.2401 14.7145 53.1761 14.741 53.1093 14.741C53.0425 14.741 52.9784 14.7145 52.9312 14.6673C52.884 14.62 52.8574 14.556 52.8574 14.4892C52.8574 14.4224 52.884 14.3583 52.9312 14.3111C52.9784 14.2638 53.0425 14.2373 53.1093 14.2373C53.1761 14.2373 53.2401 14.2638 53.2874 14.3111C53.3346 14.3583 53.3612 14.4224 53.3612 14.4892Z" fill="#FFC72C" stroke="black" stroke-width="0.0871841"/>
<path d="M51.7432 16.4359L53.0994 14.4307L54.4846 16.4456" stroke="#FFC72C" stroke-width="0.184055"/>
<path d="M53.3804 15.6804C53.3804 15.7524 53.3518 15.8213 53.3009 15.8722C53.2501 15.9231 53.1811 15.9517 53.1091 15.9517C53.0372 15.9517 52.9682 15.9231 52.9173 15.8722C52.8665 15.8213 52.8379 15.7524 52.8379 15.6804C52.8379 15.6085 52.8665 15.5395 52.9173 15.4886C52.9682 15.4378 53.0372 15.4092 53.1091 15.4092C53.1811 15.4092 53.2501 15.4378 53.3009 15.4886C53.3518 15.5395 53.3804 15.6085 53.3804 15.6804Z" fill="#FFC72C" stroke="black" stroke-width="0.0871841"/>
<path d="M51.9949 17.9187H54.1163C54.1163 17.9187 54.1454 17.6475 53.8935 17.4828C55.0076 17.3278 54.7169 16.3591 55.6372 16.301C55.831 16.33 55.1529 16.7175 55.1529 16.7175C55.1529 16.7175 54.6007 17.105 54.8623 17.3084C55.056 17.4731 55.1529 17.2116 55.1722 17.0178C55.2013 16.8241 56.0731 16.6981 55.9472 16.146C55.7438 15.6907 54.5232 16.456 54.5232 16.456L53.6514 16.4463C53.5932 16.3494 53.3607 15.9619 53.1089 15.9619C52.8183 15.9619 52.6052 16.4463 52.6052 16.4463H50.6387C50.6387 16.4463 50.5709 16.9597 51.5686 17.0566C51.7914 17.3472 51.9658 17.4247 52.1692 17.5022C52.0336 17.6087 51.9949 17.7443 51.9949 17.9187ZM52.1499 17.4925H53.9129H52.1499Z" fill="#FFC72C"/>
<path d="M52.1499 17.4925H53.9129M51.9949 17.9187H54.1163C54.1163 17.9187 54.1454 17.6475 53.8935 17.4828C55.0076 17.3278 54.7169 16.3591 55.6372 16.301C55.831 16.33 55.1529 16.7175 55.1529 16.7175C55.1529 16.7175 54.6007 17.105 54.8623 17.3084C55.056 17.4731 55.1529 17.2116 55.1722 17.0178C55.2013 16.8241 56.0731 16.6981 55.9472 16.146C55.7438 15.6907 54.5232 16.456 54.5232 16.456L53.6514 16.4463C53.5932 16.3494 53.3607 15.9619 53.1089 15.9619C52.8183 15.9619 52.6052 16.4463 52.6052 16.4463H50.6387C50.6387 16.4463 50.5709 16.9597 51.5686 17.0566C51.7914 17.3472 51.9658 17.4247 52.1692 17.5022C52.0336 17.6087 51.9949 17.7443 51.9949 17.9187Z" stroke="black" stroke-width="0.0871841"/>
<path d="M51.3457 16.4561C51.3457 16.4561 51.4813 17.2795 52.14 17.4732L51.3457 16.4561Z" fill="#FFC72C"/>
<path d="M51.3457 16.4561C51.3457 16.4561 51.4813 17.2795 52.14 17.4732" stroke="black" stroke-width="0.0871841"/>
<path d="M51.2395 16.4361C51.2976 16.1261 51.4236 16.068 51.5495 15.6611C51.5689 15.2736 51.2395 15.3221 51.3364 15.0799C51.5107 14.799 51.4236 14.5374 51.0942 14.334C51.162 14.6924 50.668 15.0315 50.668 15.3221C50.668 15.6127 50.9198 15.5546 50.8908 16.0002C50.9101 16.252 50.823 16.1939 50.7939 16.4361H51.2395Z" fill="url(#paint2_linear_3736_64514)" stroke="black" stroke-width="0.0871841"/>
<path d="M53.3612 14.4892C53.3612 14.556 53.3346 14.62 53.2874 14.6673C53.2401 14.7145 53.1761 14.741 53.1093 14.741C53.0425 14.741 52.9784 14.7145 52.9312 14.6673C52.884 14.62 52.8574 14.556 52.8574 14.4892C52.8574 14.4224 52.884 14.3583 52.9312 14.3111C52.9784 14.2638 53.0425 14.2373 53.1093 14.2373C53.1761 14.2373 53.2401 14.2638 53.2874 14.3111C53.3346 14.3583 53.3612 14.4224 53.3612 14.4892Z" fill="#FFC72C" stroke="black" stroke-width="0.0871841"/>
<path d="M51.7432 16.4359L53.0994 14.4307L54.4846 16.4456" stroke="#FFC72C" stroke-width="0.184055"/>
<path d="M53.3804 15.6804C53.3804 15.7524 53.3518 15.8213 53.3009 15.8722C53.2501 15.9231 53.1811 15.9517 53.1091 15.9517C53.0372 15.9517 52.9682 15.9231 52.9173 15.8722C52.8665 15.8213 52.8379 15.7524 52.8379 15.6804C52.8379 15.6085 52.8665 15.5395 52.9173 15.4886C52.9682 15.4378 53.0372 15.4092 53.1091 15.4092C53.1811 15.4092 53.2501 15.4378 53.3009 15.4886C53.3518 15.5395 53.3804 15.6085 53.3804 15.6804Z" fill="#FFC72C" stroke="black" stroke-width="0.0871841"/>
<path d="M51.9949 17.9187H54.1163C54.1163 17.9187 54.1454 17.6475 53.8935 17.4828C55.0076 17.3278 54.7169 16.3591 55.6372 16.301C55.831 16.33 55.1529 16.7175 55.1529 16.7175C55.1529 16.7175 54.6007 17.105 54.8623 17.3084C55.056 17.4731 55.1529 17.2116 55.1722 17.0178C55.2013 16.8241 56.0731 16.6981 55.9472 16.146C55.7438 15.6907 54.5232 16.456 54.5232 16.456L53.6514 16.4463C53.5932 16.3494 53.3607 15.9619 53.1089 15.9619C52.8183 15.9619 52.6052 16.4463 52.6052 16.4463H50.6387C50.6387 16.4463 50.5709 16.9597 51.5686 17.0566C51.7914 17.3472 51.9658 17.4247 52.1692 17.5022C52.0336 17.6087 51.9949 17.7443 51.9949 17.9187ZM52.1499 17.4925H53.9129H52.1499Z" fill="#FFC72C"/>
<path d="M52.1499 17.4925H53.9129M51.9949 17.9187H54.1163C54.1163 17.9187 54.1454 17.6475 53.8935 17.4828C55.0076 17.3278 54.7169 16.3591 55.6372 16.301C55.831 16.33 55.1529 16.7175 55.1529 16.7175C55.1529 16.7175 54.6007 17.105 54.8623 17.3084C55.056 17.4731 55.1529 17.2116 55.1722 17.0178C55.2013 16.8241 56.0731 16.6981 55.9472 16.146C55.7438 15.6907 54.5232 16.456 54.5232 16.456L53.6514 16.4463C53.5932 16.3494 53.3607 15.9619 53.1089 15.9619C52.8183 15.9619 52.6052 16.4463 52.6052 16.4463H50.6387C50.6387 16.4463 50.5709 16.9597 51.5686 17.0566C51.7914 17.3472 51.9658 17.4247 52.1692 17.5022C52.0336 17.6087 51.9949 17.7443 51.9949 17.9187Z" stroke="black" stroke-width="0.0871841"/>
<path d="M51.3457 16.4561C51.3457 16.4561 51.4813 17.2795 52.14 17.4732L51.3457 16.4561Z" fill="#FFC72C"/>
<path d="M51.3457 16.4561C51.3457 16.4561 51.4813 17.2795 52.14 17.4732" stroke="black" stroke-width="0.0871841"/>
<path d="M51.2395 16.4361C51.2976 16.1261 51.4236 16.068 51.5495 15.6611C51.5689 15.2736 51.2395 15.3221 51.3364 15.0799C51.5107 14.799 51.4236 14.5374 51.0942 14.334C51.162 14.6924 50.668 15.0315 50.668 15.3221C50.668 15.6127 50.9198 15.5546 50.8908 16.0002C50.9101 16.252 50.823 16.1939 50.7939 16.4361H51.2395Z" fill="url(#paint3_linear_3736_64514)" stroke="black" stroke-width="0.0871841"/>
<path d="M53.3612 14.4892C53.3612 14.556 53.3346 14.62 53.2874 14.6673C53.2401 14.7145 53.1761 14.741 53.1093 14.741C53.0425 14.741 52.9784 14.7145 52.9312 14.6673C52.884 14.62 52.8574 14.556 52.8574 14.4892C52.8574 14.4224 52.884 14.3583 52.9312 14.3111C52.9784 14.2638 53.0425 14.2373 53.1093 14.2373C53.1761 14.2373 53.2401 14.2638 53.2874 14.3111C53.3346 14.3583 53.3612 14.4224 53.3612 14.4892Z" fill="#FFC72C" stroke="black" stroke-width="0.0871841"/>
<path d="M51.7432 16.4359L53.0994 14.4307L54.4846 16.4456" stroke="#FFC72C" stroke-width="0.184055"/>
<path d="M53.3804 15.6804C53.3804 15.7524 53.3518 15.8213 53.3009 15.8722C53.2501 15.9231 53.1811 15.9517 53.1091 15.9517C53.0372 15.9517 52.9682 15.9231 52.9173 15.8722C52.8665 15.8213 52.8379 15.7524 52.8379 15.6804C52.8379 15.6085 52.8665 15.5395 52.9173 15.4886C52.9682 15.4378 53.0372 15.4092 53.1091 15.4092C53.1811 15.4092 53.2501 15.4378 53.3009 15.4886C53.3518 15.5395 53.3804 15.6085 53.3804 15.6804Z" fill="#FFC72C" stroke="black" stroke-width="0.0871841"/>
<path d="M51.9949 17.9187H54.1163C54.1163 17.9187 54.1454 17.6475 53.8935 17.4828C55.0076 17.3278 54.7169 16.3591 55.6372 16.301C55.831 16.33 55.1529 16.7175 55.1529 16.7175C55.1529 16.7175 54.6007 17.105 54.8623 17.3084C55.056 17.4731 55.1529 17.2116 55.1722 17.0178C55.2013 16.8241 56.0731 16.6981 55.9472 16.146C55.7438 15.6907 54.5232 16.456 54.5232 16.456L53.6514 16.4463C53.5932 16.3494 53.3607 15.9619 53.1089 15.9619C52.8183 15.9619 52.6052 16.4463 52.6052 16.4463H50.6387C50.6387 16.4463 50.5709 16.9597 51.5686 17.0566C51.7914 17.3472 51.9658 17.4247 52.1692 17.5022C52.0336 17.6087 51.9949 17.7443 51.9949 17.9187ZM52.1499 17.4925H53.9129H52.1499Z" fill="#FFC72C"/>
<path d="M52.1499 17.4925H53.9129M51.9949 17.9187H54.1163C54.1163 17.9187 54.1454 17.6475 53.8935 17.4828C55.0076 17.3278 54.7169 16.3591 55.6372 16.301C55.831 16.33 55.1529 16.7175 55.1529 16.7175C55.1529 16.7175 54.6007 17.105 54.8623 17.3084C55.056 17.4731 55.1529 17.2116 55.1722 17.0178C55.2013 16.8241 56.0731 16.6981 55.9472 16.146C55.7438 15.6907 54.5232 16.456 54.5232 16.456L53.6514 16.4463C53.5932 16.3494 53.3607 15.9619 53.1089 15.9619C52.8183 15.9619 52.6052 16.4463 52.6052 16.4463H50.6387C50.6387 16.4463 50.5709 16.9597 51.5686 17.0566C51.7914 17.3472 51.9658 17.4247 52.1692 17.5022C52.0336 17.6087 51.9949 17.7443 51.9949 17.9187Z" stroke="black" stroke-width="0.0871841"/>
<path d="M51.3457 16.4561C51.3457 16.4561 51.4813 17.2795 52.14 17.4732L51.3457 16.4561Z" fill="#FFC72C"/>
<path d="M51.3457 16.4561C51.3457 16.4561 51.4813 17.2795 52.14 17.4732" stroke="black" stroke-width="0.0871841"/>
<path d="M51.2395 16.4361C51.2976 16.1261 51.4236 16.068 51.5495 15.6611C51.5689 15.2736 51.2395 15.3221 51.3364 15.0799C51.5107 14.799 51.4236 14.5374 51.0942 14.334C51.162 14.6924 50.668 15.0315 50.668 15.3221C50.668 15.6127 50.9198 15.5546 50.8908 16.0002C50.9101 16.252 50.823 16.1939 50.7939 16.4361H51.2395Z" fill="url(#paint4_linear_3736_64514)" stroke="black" stroke-width="0.0871841"/>
<path d="M53.3612 14.4892C53.3612 14.556 53.3346 14.62 53.2874 14.6673C53.2401 14.7145 53.1761 14.741 53.1093 14.741C53.0425 14.741 52.9784 14.7145 52.9312 14.6673C52.884 14.62 52.8574 14.556 52.8574 14.4892C52.8574 14.4224 52.884 14.3583 52.9312 14.3111C52.9784 14.2638 53.0425 14.2373 53.1093 14.2373C53.1761 14.2373 53.2401 14.2638 53.2874 14.3111C53.3346 14.3583 53.3612 14.4224 53.3612 14.4892Z" fill="#FFC72C" stroke="black" stroke-width="0.0871841"/>
<path d="M51.7432 16.4359L53.0994 14.4307L54.4846 16.4456" stroke="#FFC72C" stroke-width="0.184055"/>
<path d="M53.3804 15.6804C53.3804 15.7524 53.3518 15.8213 53.3009 15.8722C53.2501 15.9231 53.1811 15.9517 53.1091 15.9517C53.0372 15.9517 52.9682 15.9231 52.9173 15.8722C52.8665 15.8213 52.8379 15.7524 52.8379 15.6804C52.8379 15.6085 52.8665 15.5395 52.9173 15.4886C52.9682 15.4378 53.0372 15.4092 53.1091 15.4092C53.1811 15.4092 53.2501 15.4378 53.3009 15.4886C53.3518 15.5395 53.3804 15.6085 53.3804 15.6804Z" fill="#FFC72C" stroke="black" stroke-width="0.0871841"/>
<path d="M51.9949 17.9187H54.1163C54.1163 17.9187 54.1454 17.6475 53.8935 17.4828C55.0076 17.3278 54.7169 16.3591 55.6372 16.301C55.831 16.33 55.1529 16.7175 55.1529 16.7175C55.1529 16.7175 54.6007 17.105 54.8623 17.3084C55.056 17.4731 55.1529 17.2116 55.1722 17.0178C55.2013 16.8241 56.0731 16.6981 55.9472 16.146C55.7438 15.6907 54.5232 16.456 54.5232 16.456L53.6514 16.4463C53.5932 16.3494 53.3607 15.9619 53.1089 15.9619C52.8183 15.9619 52.6052 16.4463 52.6052 16.4463H50.6387C50.6387 16.4463 50.5709 16.9597 51.5686 17.0566C51.7914 17.3472 51.9658 17.4247 52.1692 17.5022C52.0336 17.6087 51.9949 17.7443 51.9949 17.9187ZM52.1499 17.4925H53.9129H52.1499Z" fill="#FFC72C"/>
<path d="M52.1499 17.4925H53.9129M51.9949 17.9187H54.1163C54.1163 17.9187 54.1454 17.6475 53.8935 17.4828C55.0076 17.3278 54.7169 16.3591 55.6372 16.301C55.831 16.33 55.1529 16.7175 55.1529 16.7175C55.1529 16.7175 54.6007 17.105 54.8623 17.3084C55.056 17.4731 55.1529 17.2116 55.1722 17.0178C55.2013 16.8241 56.0731 16.6981 55.9472 16.146C55.7438 15.6907 54.5232 16.456 54.5232 16.456L53.6514 16.4463C53.5932 16.3494 53.3607 15.9619 53.1089 15.9619C52.8183 15.9619 52.6052 16.4463 52.6052 16.4463H50.6387C50.6387 16.4463 50.5709 16.9597 51.5686 17.0566C51.7914 17.3472 51.9658 17.4247 52.1692 17.5022C52.0336 17.6087 51.9949 17.7443 51.9949 17.9187Z" stroke="black" stroke-width="0.0871841"/>
<path d="M51.3457 16.4561C51.3457 16.4561 51.4813 17.2795 52.14 17.4732L51.3457 16.4561Z" fill="#FFC72C"/>
<path d="M51.3457 16.4561C51.3457 16.4561 51.4813 17.2795 52.14 17.4732" stroke="black" stroke-width="0.0871841"/>
<path d="M51.2395 16.4361C51.2976 16.1261 51.4236 16.068 51.5495 15.6611C51.5689 15.2736 51.2395 15.3221 51.3364 15.0799C51.5107 14.799 51.4236 14.5374 51.0942 14.334C51.162 14.6924 50.668 15.0315 50.668 15.3221C50.668 15.6127 50.9198 15.5546 50.8908 16.0002C50.9101 16.252 50.823 16.1939 50.7939 16.4361H51.2395Z" fill="url(#paint5_linear_3736_64514)" stroke="black" stroke-width="0.0871841"/>
<path d="M53.3612 14.4892C53.3612 14.556 53.3346 14.62 53.2874 14.6673C53.2401 14.7145 53.1761 14.741 53.1093 14.741C53.0425 14.741 52.9784 14.7145 52.9312 14.6673C52.884 14.62 52.8574 14.556 52.8574 14.4892C52.8574 14.4224 52.884 14.3583 52.9312 14.3111C52.9784 14.2638 53.0425 14.2373 53.1093 14.2373C53.1761 14.2373 53.2401 14.2638 53.2874 14.3111C53.3346 14.3583 53.3612 14.4224 53.3612 14.4892Z" fill="#FFC72C" stroke="black" stroke-width="0.0871841"/>
<path d="M51.7432 16.4359L53.0994 14.4307L54.4846 16.4456" stroke="#FFC72C" stroke-width="0.184055"/>
<path d="M53.3804 15.6804C53.3804 15.7524 53.3518 15.8213 53.3009 15.8722C53.2501 15.9231 53.1811 15.9517 53.1091 15.9517C53.0372 15.9517 52.9682 15.9231 52.9173 15.8722C52.8665 15.8213 52.8379 15.7524 52.8379 15.6804C52.8379 15.6085 52.8665 15.5395 52.9173 15.4886C52.9682 15.4378 53.0372 15.4092 53.1091 15.4092C53.1811 15.4092 53.2501 15.4378 53.3009 15.4886C53.3518 15.5395 53.3804 15.6085 53.3804 15.6804Z" fill="#FFC72C" stroke="black" stroke-width="0.0871841"/>
<path d="M51.9949 17.9187H54.1163C54.1163 17.9187 54.1454 17.6475 53.8935 17.4828C55.0076 17.3278 54.7169 16.3591 55.6372 16.301C55.831 16.33 55.1529 16.7175 55.1529 16.7175C55.1529 16.7175 54.6007 17.105 54.8623 17.3084C55.056 17.4731 55.1529 17.2116 55.1722 17.0178C55.2013 16.8241 56.0731 16.6981 55.9472 16.146C55.7438 15.6907 54.5232 16.456 54.5232 16.456L53.6514 16.4463C53.5932 16.3494 53.3607 15.9619 53.1089 15.9619C52.8183 15.9619 52.6052 16.4463 52.6052 16.4463H50.6387C50.6387 16.4463 50.5709 16.9597 51.5686 17.0566C51.7914 17.3472 51.9658 17.4247 52.1692 17.5022C52.0336 17.6087 51.9949 17.7443 51.9949 17.9187ZM52.1499 17.4925H53.9129H52.1499Z" fill="#FFC72C"/>
<path d="M52.1499 17.4925H53.9129M51.9949 17.9187H54.1163C54.1163 17.9187 54.1454 17.6475 53.8935 17.4828C55.0076 17.3278 54.7169 16.3591 55.6372 16.301C55.831 16.33 55.1529 16.7175 55.1529 16.7175C55.1529 16.7175 54.6007 17.105 54.8623 17.3084C55.056 17.4731 55.1529 17.2116 55.1722 17.0178C55.2013 16.8241 56.0731 16.6981 55.9472 16.146C55.7438 15.6907 54.5232 16.456 54.5232 16.456L53.6514 16.4463C53.5932 16.3494 53.3607 15.9619 53.1089 15.9619C52.8183 15.9619 52.6052 16.4463 52.6052 16.4463H50.6387C50.6387 16.4463 50.5709 16.9597 51.5686 17.0566C51.7914 17.3472 51.9658 17.4247 52.1692 17.5022C52.0336 17.6087 51.9949 17.7443 51.9949 17.9187Z" stroke="black" stroke-width="0.0871841"/>
<path d="M51.3457 16.4561C51.3457 16.4561 51.4813 17.2795 52.14 17.4732L51.3457 16.4561Z" fill="#FFC72C"/>
<path d="M51.3457 16.4561C51.3457 16.4561 51.4813 17.2795 52.14 17.4732" stroke="black" stroke-width="0.0871841"/>
<path d="M51.2395 16.4361C51.2976 16.1261 51.4236 16.068 51.5495 15.6611C51.5689 15.2736 51.2395 15.3221 51.3364 15.0799C51.5107 14.799 51.4236 14.5374 51.0942 14.334C51.162 14.6924 50.668 15.0315 50.668 15.3221C50.668 15.6127 50.9198 15.5546 50.8908 16.0002C50.9101 16.252 50.823 16.1939 50.7939 16.4361H51.2395Z" fill="url(#paint6_linear_3736_64514)" stroke="black" stroke-width="0.0871841"/>
<path d="M53.3612 14.4892C53.3612 14.556 53.3346 14.62 53.2874 14.6673C53.2401 14.7145 53.1761 14.741 53.1093 14.741C53.0425 14.741 52.9784 14.7145 52.9312 14.6673C52.884 14.62 52.8574 14.556 52.8574 14.4892C52.8574 14.4224 52.884 14.3583 52.9312 14.3111C52.9784 14.2638 53.0425 14.2373 53.1093 14.2373C53.1761 14.2373 53.2401 14.2638 53.2874 14.3111C53.3346 14.3583 53.3612 14.4224 53.3612 14.4892Z" fill="#FFC72C" stroke="black" stroke-width="0.0871841"/>
<path d="M51.7432 16.4359L53.0994 14.4307L54.4846 16.4456" stroke="#FFC72C" stroke-width="0.184055"/>
<path d="M53.3804 15.6804C53.3804 15.7524 53.3518 15.8213 53.3009 15.8722C53.2501 15.9231 53.1811 15.9517 53.1091 15.9517C53.0372 15.9517 52.9682 15.9231 52.9173 15.8722C52.8665 15.8213 52.8379 15.7524 52.8379 15.6804C52.8379 15.6085 52.8665 15.5395 52.9173 15.4886C52.9682 15.4378 53.0372 15.4092 53.1091 15.4092C53.1811 15.4092 53.2501 15.4378 53.3009 15.4886C53.3518 15.5395 53.3804 15.6085 53.3804 15.6804Z" fill="#FFC72C" stroke="black" stroke-width="0.0871841"/>
<path d="M51.9949 17.9187H54.1163C54.1163 17.9187 54.1454 17.6475 53.8935 17.4828C55.0076 17.3278 54.7169 16.3591 55.6372 16.301C55.831 16.33 55.1529 16.7175 55.1529 16.7175C55.1529 16.7175 54.6007 17.105 54.8623 17.3084C55.056 17.4731 55.1529 17.2116 55.1722 17.0178C55.2013 16.8241 56.0731 16.6981 55.9472 16.146C55.7438 15.6907 54.5232 16.456 54.5232 16.456L53.6514 16.4463C53.5932 16.3494 53.3607 15.9619 53.1089 15.9619C52.8183 15.9619 52.6052 16.4463 52.6052 16.4463H50.6387C50.6387 16.4463 50.5709 16.9597 51.5686 17.0566C51.7914 17.3472 51.9658 17.4247 52.1692 17.5022C52.0336 17.6087 51.9949 17.7443 51.9949 17.9187ZM52.1499 17.4925H53.9129H52.1499Z" fill="#FFC72C"/>
<path d="M52.1499 17.4925H53.9129M51.9949 17.9187H54.1163C54.1163 17.9187 54.1454 17.6475 53.8935 17.4828C55.0076 17.3278 54.7169 16.3591 55.6372 16.301C55.831 16.33 55.1529 16.7175 55.1529 16.7175C55.1529 16.7175 54.6007 17.105 54.8623 17.3084C55.056 17.4731 55.1529 17.2116 55.1722 17.0178C55.2013 16.8241 56.0731 16.6981 55.9472 16.146C55.7438 15.6907 54.5232 16.456 54.5232 16.456L53.6514 16.4463C53.5932 16.3494 53.3607 15.9619 53.1089 15.9619C52.8183 15.9619 52.6052 16.4463 52.6052 16.4463H50.6387C50.6387 16.4463 50.5709 16.9597 51.5686 17.0566C51.7914 17.3472 51.9658 17.4247 52.1692 17.5022C52.0336 17.6087 51.9949 17.7443 51.9949 17.9187Z" stroke="black" stroke-width="0.0871841"/>
<path d="M51.3457 16.4561C51.3457 16.4561 51.4813 17.2795 52.14 17.4732L51.3457 16.4561Z" fill="#FFC72C"/>
<path d="M51.3457 16.4561C51.3457 16.4561 51.4813 17.2795 52.14 17.4732" stroke="black" stroke-width="0.0871841"/>
<path d="M51.2395 16.4361C51.2976 16.1261 51.4236 16.068 51.5495 15.6611C51.5689 15.2736 51.2395 15.3221 51.3364 15.0799C51.5107 14.799 51.4236 14.5374 51.0942 14.334C51.162 14.6924 50.668 15.0315 50.668 15.3221C50.668 15.6127 50.9198 15.5546 50.8908 16.0002C50.9101 16.252 50.823 16.1939 50.7939 16.4361H51.2395Z" fill="url(#paint7_linear_3736_64514)" stroke="black" stroke-width="0.0871841"/>
<path d="M53.3612 14.4892C53.3612 14.556 53.3346 14.62 53.2874 14.6673C53.2401 14.7145 53.1761 14.741 53.1093 14.741C53.0425 14.741 52.9784 14.7145 52.9312 14.6673C52.884 14.62 52.8574 14.556 52.8574 14.4892C52.8574 14.4224 52.884 14.3583 52.9312 14.3111C52.9784 14.2638 53.0425 14.2373 53.1093 14.2373C53.1761 14.2373 53.2401 14.2638 53.2874 14.3111C53.3346 14.3583 53.3612 14.4224 53.3612 14.4892Z" fill="#FFC72C" stroke="black" stroke-width="0.0871841"/>
<path d="M51.7432 16.4359L53.0994 14.4307L54.4846 16.4456" stroke="#FFC72C" stroke-width="0.184055"/>
<path d="M53.3804 15.6804C53.3804 15.7524 53.3518 15.8213 53.3009 15.8722C53.2501 15.9231 53.1811 15.9517 53.1091 15.9517C53.0372 15.9517 52.9682 15.9231 52.9173 15.8722C52.8665 15.8213 52.8379 15.7524 52.8379 15.6804C52.8379 15.6085 52.8665 15.5395 52.9173 15.4886C52.9682 15.4378 53.0372 15.4092 53.1091 15.4092C53.1811 15.4092 53.2501 15.4378 53.3009 15.4886C53.3518 15.5395 53.3804 15.6085 53.3804 15.6804Z" fill="#FFC72C" stroke="black" stroke-width="0.0871841"/>
<path d="M51.9949 17.9187H54.1163C54.1163 17.9187 54.1454 17.6475 53.8935 17.4828C55.0076 17.3278 54.7169 16.3591 55.6372 16.301C55.831 16.33 55.1529 16.7175 55.1529 16.7175C55.1529 16.7175 54.6007 17.105 54.8623 17.3084C55.056 17.4731 55.1529 17.2116 55.1722 17.0178C55.2013 16.8241 56.0731 16.6981 55.9472 16.146C55.7438 15.6907 54.5232 16.456 54.5232 16.456L53.6514 16.4463C53.5932 16.3494 53.3607 15.9619 53.1089 15.9619C52.8183 15.9619 52.6052 16.4463 52.6052 16.4463H50.6387C50.6387 16.4463 50.5709 16.9597 51.5686 17.0566C51.7914 17.3472 51.9658 17.4247 52.1692 17.5022C52.0336 17.6087 51.9949 17.7443 51.9949 17.9187ZM52.1499 17.4925H53.9129H52.1499Z" fill="#FFC72C"/>
<path d="M52.1499 17.4925H53.9129M51.9949 17.9187H54.1163C54.1163 17.9187 54.1454 17.6475 53.8935 17.4828C55.0076 17.3278 54.7169 16.3591 55.6372 16.301C55.831 16.33 55.1529 16.7175 55.1529 16.7175C55.1529 16.7175 54.6007 17.105 54.8623 17.3084C55.056 17.4731 55.1529 17.2116 55.1722 17.0178C55.2013 16.8241 56.0731 16.6981 55.9472 16.146C55.7438 15.6907 54.5232 16.456 54.5232 16.456L53.6514 16.4463C53.5932 16.3494 53.3607 15.9619 53.1089 15.9619C52.8183 15.9619 52.6052 16.4463 52.6052 16.4463H50.6387C50.6387 16.4463 50.5709 16.9597 51.5686 17.0566C51.7914 17.3472 51.9658 17.4247 52.1692 17.5022C52.0336 17.6087 51.9949 17.7443 51.9949 17.9187Z" stroke="black" stroke-width="0.0871841"/>
<path d="M51.3457 16.4561C51.3457 16.4561 51.4813 17.2795 52.14 17.4732L51.3457 16.4561Z" fill="#FFC72C"/>
<path d="M51.3457 16.4561C51.3457 16.4561 51.4813 17.2795 52.14 17.4732" stroke="black" stroke-width="0.0871841"/>
<path d="M51.2395 16.4361C51.2976 16.1261 51.4236 16.068 51.5495 15.6611C51.5689 15.2736 51.2395 15.3221 51.3364 15.0799C51.5107 14.799 51.4236 14.5374 51.0942 14.334C51.162 14.6924 50.668 15.0315 50.668 15.3221C50.668 15.6127 50.9198 15.5546 50.8908 16.0002C50.9101 16.252 50.823 16.1939 50.7939 16.4361H51.2395Z" fill="url(#paint8_linear_3736_64514)" stroke="black" stroke-width="0.0871841"/>
<path d="M53.3612 14.4892C53.3612 14.556 53.3346 14.62 53.2874 14.6673C53.2401 14.7145 53.1761 14.741 53.1093 14.741C53.0425 14.741 52.9784 14.7145 52.9312 14.6673C52.884 14.62 52.8574 14.556 52.8574 14.4892C52.8574 14.4224 52.884 14.3583 52.9312 14.3111C52.9784 14.2638 53.0425 14.2373 53.1093 14.2373C53.1761 14.2373 53.2401 14.2638 53.2874 14.3111C53.3346 14.3583 53.3612 14.4224 53.3612 14.4892Z" fill="#FFC72C" stroke="black" stroke-width="0.0871841"/>
<path d="M51.7432 16.4359L53.0994 14.4307L54.4846 16.4456" stroke="#FFC72C" stroke-width="0.184055"/>
<path d="M53.3804 15.6804C53.3804 15.7524 53.3518 15.8213 53.3009 15.8722C53.2501 15.9231 53.1811 15.9517 53.1091 15.9517C53.0372 15.9517 52.9682 15.9231 52.9173 15.8722C52.8665 15.8213 52.8379 15.7524 52.8379 15.6804C52.8379 15.6085 52.8665 15.5395 52.9173 15.4886C52.9682 15.4378 53.0372 15.4092 53.1091 15.4092C53.1811 15.4092 53.2501 15.4378 53.3009 15.4886C53.3518 15.5395 53.3804 15.6085 53.3804 15.6804Z" fill="#FFC72C" stroke="black" stroke-width="0.0871841"/>
<path d="M51.9949 17.9187H54.1163C54.1163 17.9187 54.1454 17.6475 53.8935 17.4828C55.0076 17.3278 54.7169 16.3591 55.6372 16.301C55.831 16.33 55.1529 16.7175 55.1529 16.7175C55.1529 16.7175 54.6007 17.105 54.8623 17.3084C55.056 17.4731 55.1529 17.2116 55.1722 17.0178C55.2013 16.8241 56.0731 16.6981 55.9472 16.146C55.7438 15.6907 54.5232 16.456 54.5232 16.456L53.6514 16.4463C53.5932 16.3494 53.3607 15.9619 53.1089 15.9619C52.8183 15.9619 52.6052 16.4463 52.6052 16.4463H50.6387C50.6387 16.4463 50.5709 16.9597 51.5686 17.0566C51.7914 17.3472 51.9658 17.4247 52.1692 17.5022C52.0336 17.6087 51.9949 17.7443 51.9949 17.9187ZM52.1499 17.4925H53.9129H52.1499Z" fill="#FFC72C"/>
<path d="M52.1499 17.4925H53.9129M51.9949 17.9187H54.1163C54.1163 17.9187 54.1454 17.6475 53.8935 17.4828C55.0076 17.3278 54.7169 16.3591 55.6372 16.301C55.831 16.33 55.1529 16.7175 55.1529 16.7175C55.1529 16.7175 54.6007 17.105 54.8623 17.3084C55.056 17.4731 55.1529 17.2116 55.1722 17.0178C55.2013 16.8241 56.0731 16.6981 55.9472 16.146C55.7438 15.6907 54.5232 16.456 54.5232 16.456L53.6514 16.4463C53.5932 16.3494 53.3607 15.9619 53.1089 15.9619C52.8183 15.9619 52.6052 16.4463 52.6052 16.4463H50.6387C50.6387 16.4463 50.5709 16.9597 51.5686 17.0566C51.7914 17.3472 51.9658 17.4247 52.1692 17.5022C52.0336 17.6087 51.9949 17.7443 51.9949 17.9187Z" stroke="black" stroke-width="0.0871841"/>
<path d="M51.3457 16.4561C51.3457 16.4561 51.4813 17.2795 52.14 17.4732L51.3457 16.4561Z" fill="#FFC72C"/>
<path d="M51.3457 16.4561C51.3457 16.4561 51.4813 17.2795 52.14 17.4732" stroke="black" stroke-width="0.0871841"/>
<path d="M51.2395 16.4361C51.2976 16.1261 51.4236 16.068 51.5495 15.6611C51.5689 15.2736 51.2395 15.3221 51.3364 15.0799C51.5107 14.799 51.4236 14.5374 51.0942 14.334C51.162 14.6924 50.668 15.0315 50.668 15.3221C50.668 15.6127 50.9198 15.5546 50.8908 16.0002C50.9101 16.252 50.823 16.1939 50.7939 16.4361H51.2395Z" fill="url(#paint9_linear_3736_64514)" stroke="black" stroke-width="0.0871841"/>
<path d="M53.3612 14.4892C53.3612 14.556 53.3346 14.62 53.2874 14.6673C53.2401 14.7145 53.1761 14.741 53.1093 14.741C53.0425 14.741 52.9784 14.7145 52.9312 14.6673C52.884 14.62 52.8574 14.556 52.8574 14.4892C52.8574 14.4224 52.884 14.3583 52.9312 14.3111C52.9784 14.2638 53.0425 14.2373 53.1093 14.2373C53.1761 14.2373 53.2401 14.2638 53.2874 14.3111C53.3346 14.3583 53.3612 14.4224 53.3612 14.4892Z" fill="#FFC72C" stroke="black" stroke-width="0.0871841"/>
<path d="M51.7432 16.4359L53.0994 14.4307L54.4846 16.4456" stroke="#FFC72C" stroke-width="0.184055"/>
<path d="M53.3804 15.6804C53.3804 15.7524 53.3518 15.8213 53.3009 15.8722C53.2501 15.9231 53.1811 15.9517 53.1091 15.9517C53.0372 15.9517 52.9682 15.9231 52.9173 15.8722C52.8665 15.8213 52.8379 15.7524 52.8379 15.6804C52.8379 15.6085 52.8665 15.5395 52.9173 15.4886C52.9682 15.4378 53.0372 15.4092 53.1091 15.4092C53.1811 15.4092 53.2501 15.4378 53.3009 15.4886C53.3518 15.5395 53.3804 15.6085 53.3804 15.6804Z" fill="#FFC72C" stroke="black" stroke-width="0.0871841"/>
<path d="M51.9949 17.9187H54.1163C54.1163 17.9187 54.1454 17.6475 53.8935 17.4828C55.0076 17.3278 54.7169 16.3591 55.6372 16.301C55.831 16.33 55.1529 16.7175 55.1529 16.7175C55.1529 16.7175 54.6007 17.105 54.8623 17.3084C55.056 17.4731 55.1529 17.2116 55.1722 17.0178C55.2013 16.8241 56.0731 16.6981 55.9472 16.146C55.7438 15.6907 54.5232 16.456 54.5232 16.456L53.6514 16.4463C53.5932 16.3494 53.3607 15.9619 53.1089 15.9619C52.8183 15.9619 52.6052 16.4463 52.6052 16.4463H50.6387C50.6387 16.4463 50.5709 16.9597 51.5686 17.0566C51.7914 17.3472 51.9658 17.4247 52.1692 17.5022C52.0336 17.6087 51.9949 17.7443 51.9949 17.9187ZM52.1499 17.4925H53.9129H52.1499Z" fill="#FFC72C"/>
<path d="M52.1499 17.4925H53.9129M51.9949 17.9187H54.1163C54.1163 17.9187 54.1454 17.6475 53.8935 17.4828C55.0076 17.3278 54.7169 16.3591 55.6372 16.301C55.831 16.33 55.1529 16.7175 55.1529 16.7175C55.1529 16.7175 54.6007 17.105 54.8623 17.3084C55.056 17.4731 55.1529 17.2116 55.1722 17.0178C55.2013 16.8241 56.0731 16.6981 55.9472 16.146C55.7438 15.6907 54.5232 16.456 54.5232 16.456L53.6514 16.4463C53.5932 16.3494 53.3607 15.9619 53.1089 15.9619C52.8183 15.9619 52.6052 16.4463 52.6052 16.4463H50.6387C50.6387 16.4463 50.5709 16.9597 51.5686 17.0566C51.7914 17.3472 51.9658 17.4247 52.1692 17.5022C52.0336 17.6087 51.9949 17.7443 51.9949 17.9187Z" stroke="black" stroke-width="0.0871841"/>
<path d="M51.3457 16.4561C51.3457 16.4561 51.4813 17.2795 52.14 17.4732L51.3457 16.4561Z" fill="#FFC72C"/>
<path d="M51.3457 16.4561C51.3457 16.4561 51.4813 17.2795 52.14 17.4732" stroke="black" stroke-width="0.0871841"/>
<path d="M51.2395 16.4361C51.2976 16.1261 51.4236 16.068 51.5495 15.6611C51.5689 15.2736 51.2395 15.3221 51.3364 15.0799C51.5107 14.799 51.4236 14.5374 51.0942 14.334C51.162 14.6924 50.668 15.0315 50.668 15.3221C50.668 15.6127 50.9198 15.5546 50.8908 16.0002C50.9101 16.252 50.823 16.1939 50.7939 16.4361H51.2395Z" fill="url(#paint10_linear_3736_64514)" stroke="black" stroke-width="0.0871841"/>
<path d="M53.3612 14.4892C53.3612 14.556 53.3346 14.62 53.2874 14.6673C53.2401 14.7145 53.1761 14.741 53.1093 14.741C53.0425 14.741 52.9784 14.7145 52.9312 14.6673C52.884 14.62 52.8574 14.556 52.8574 14.4892C52.8574 14.4224 52.884 14.3583 52.9312 14.3111C52.9784 14.2638 53.0425 14.2373 53.1093 14.2373C53.1761 14.2373 53.2401 14.2638 53.2874 14.3111C53.3346 14.3583 53.3612 14.4224 53.3612 14.4892Z" fill="#FFC72C" stroke="black" stroke-width="0.0871841"/>
<path d="M51.7432 16.4359L53.0994 14.4307L54.4846 16.4456" stroke="#FFC72C" stroke-width="0.184055"/>
<path d="M53.3804 15.6804C53.3804 15.7524 53.3518 15.8213 53.3009 15.8722C53.2501 15.9231 53.1811 15.9517 53.1091 15.9517C53.0372 15.9517 52.9682 15.9231 52.9173 15.8722C52.8665 15.8213 52.8379 15.7524 52.8379 15.6804C52.8379 15.6085 52.8665 15.5395 52.9173 15.4886C52.9682 15.4378 53.0372 15.4092 53.1091 15.4092C53.1811 15.4092 53.2501 15.4378 53.3009 15.4886C53.3518 15.5395 53.3804 15.6085 53.3804 15.6804Z" fill="#FFC72C" stroke="black" stroke-width="0.0871841"/>
<path d="M51.9949 17.9187H54.1163C54.1163 17.9187 54.1454 17.6475 53.8935 17.4828C55.0076 17.3278 54.7169 16.3591 55.6372 16.301C55.831 16.33 55.1529 16.7175 55.1529 16.7175C55.1529 16.7175 54.6007 17.105 54.8623 17.3084C55.056 17.4731 55.1529 17.2116 55.1722 17.0178C55.2013 16.8241 56.0731 16.6981 55.9472 16.146C55.7438 15.6907 54.5232 16.456 54.5232 16.456L53.6514 16.4463C53.5932 16.3494 53.3607 15.9619 53.1089 15.9619C52.8183 15.9619 52.6052 16.4463 52.6052 16.4463H50.6387C50.6387 16.4463 50.5709 16.9597 51.5686 17.0566C51.7914 17.3472 51.9658 17.4247 52.1692 17.5022C52.0336 17.6087 51.9949 17.7443 51.9949 17.9187ZM52.1499 17.4925H53.9129H52.1499Z" fill="#FFC72C"/>
<path d="M52.1499 17.4925H53.9129M51.9949 17.9187H54.1163C54.1163 17.9187 54.1454 17.6475 53.8935 17.4828C55.0076 17.3278 54.7169 16.3591 55.6372 16.301C55.831 16.33 55.1529 16.7175 55.1529 16.7175C55.1529 16.7175 54.6007 17.105 54.8623 17.3084C55.056 17.4731 55.1529 17.2116 55.1722 17.0178C55.2013 16.8241 56.0731 16.6981 55.9472 16.146C55.7438 15.6907 54.5232 16.456 54.5232 16.456L53.6514 16.4463C53.5932 16.3494 53.3607 15.9619 53.1089 15.9619C52.8183 15.9619 52.6052 16.4463 52.6052 16.4463H50.6387C50.6387 16.4463 50.5709 16.9597 51.5686 17.0566C51.7914 17.3472 51.9658 17.4247 52.1692 17.5022C52.0336 17.6087 51.9949 17.7443 51.9949 17.9187Z" stroke="black" stroke-width="0.0871841"/>
<path d="M51.3457 16.4561C51.3457 16.4561 51.4813 17.2795 52.14 17.4732L51.3457 16.4561Z" fill="#FFC72C"/>
<path d="M51.3457 16.4561C51.3457 16.4561 51.4813 17.2795 52.14 17.4732" stroke="black" stroke-width="0.0871841"/>
<path d="M51.2395 16.4361C51.2976 16.1261 51.4236 16.068 51.5495 15.6611C51.5689 15.2736 51.2395 15.3221 51.3364 15.0799C51.5107 14.799 51.4236 14.5374 51.0942 14.334C51.162 14.6924 50.668 15.0315 50.668 15.3221C50.668 15.6127 50.9198 15.5546 50.8908 16.0002C50.9101 16.252 50.823 16.1939 50.7939 16.4361H51.2395Z" fill="url(#paint11_linear_3736_64514)" stroke="black" stroke-width="0.0871841"/>
<path d="M53.3612 14.4892C53.3612 14.556 53.3346 14.62 53.2874 14.6673C53.2401 14.7145 53.1761 14.741 53.1093 14.741C53.0425 14.741 52.9784 14.7145 52.9312 14.6673C52.884 14.62 52.8574 14.556 52.8574 14.4892C52.8574 14.4224 52.884 14.3583 52.9312 14.3111C52.9784 14.2638 53.0425 14.2373 53.1093 14.2373C53.1761 14.2373 53.2401 14.2638 53.2874 14.3111C53.3346 14.3583 53.3612 14.4224 53.3612 14.4892Z" fill="#FFC72C" stroke="black" stroke-width="0.0871841"/>
<path d="M61.5264 38.184C61.5264 38.184 62.0785 39.4627 62.7082 38.6684C63.3379 37.8934 63.115 37.5543 63.115 37.5543L61.7007 36.7891L61.2842 37.6609L61.5264 38.184Z" fill="#FFC72C" stroke="black" stroke-width="0.0871841"/>
<path d="M62.7472 38.0196C62.7472 38.0196 62.844 38.0293 62.9118 37.8937C62.9893 37.7581 62.7472 37.6999 62.6309 37.5449L62.5147 37.7871L62.7472 38.0196ZM59.5504 37.6709L58.3104 38.349C58.3104 38.349 57.6905 38.4749 57.6517 38.349C57.6033 38.2327 57.6614 38.1262 57.9908 38.1068C58.3105 38.0971 59.1823 37.2931 59.1823 37.2931L59.5504 37.6806V37.6709ZM59.5698 15.5939L59.6085 16.0395C59.6279 16.1945 59.3664 16.5239 59.3567 16.5045C59.3373 16.4851 59.2114 16.5239 59.2307 16.6111C59.2404 16.7079 59.4245 16.737 59.4245 16.737C59.4245 16.737 59.3567 17.0567 59.4245 17.0761C59.502 17.0857 59.2307 17.4829 59.4245 17.5895C59.6279 17.696 59.9669 17.8413 60.1219 17.8123C60.2769 17.7735 60.1219 18.4032 60.1219 18.4032L59.686 19.3235L62.0497 19.0813L61.5653 18.3063C61.5653 18.3063 61.3328 18.1416 61.391 17.696C61.4588 17.2601 61.3619 15.2452 61.3619 15.2452L59.6763 15.0127L59.5698 15.5939ZM59.1339 19.1007C59.1339 19.1007 58.3686 19.4494 58.3976 20.3987C58.2039 21.319 58.0973 22.2393 58.0973 22.2393C58.0973 22.2393 57.1867 23.2661 56.9155 23.6439C56.6346 24.012 56.218 24.7579 56.0727 24.9614C55.9177 25.1551 55.3171 25.8138 55.3268 26.0657C55.3462 26.3079 55.1912 27.4025 55.7918 27.5188C55.9468 27.5866 56.4408 26.2594 56.4408 26.2594C56.4408 26.2594 56.4699 25.6976 56.2955 25.5813C56.1308 25.4845 56.6636 25.1164 56.6636 25.1164L57.923 24.1767C58.1555 23.983 58.7851 23.2855 58.7851 23.2855L59.1339 19.1007Z" fill="#FFC6B5" stroke="black" stroke-width="0.0871841"/>
<path d="M60.0153 18.3742C60.0153 18.3742 60.2091 18.9166 60.6547 18.8198C61.1003 18.7229 61.6234 18.316 61.6234 18.316C61.6234 18.316 62.0399 18.2967 62.098 18.3645C62.1562 18.4226 63.2218 19.4494 63.183 19.7691C63.1539 20.0985 62.6986 20.0016 62.5243 20.2147C62.3596 20.4278 62.0787 20.9703 62.1562 21.3772C62.2337 21.7647 62.4662 22.2878 62.4371 22.4912C62.408 22.6849 62.2434 22.7527 62.2434 22.8593C62.2434 22.9562 62.379 23.1499 62.379 23.3437C62.379 23.5471 62.1852 23.8377 62.224 24.0411C62.253 24.2349 62.2627 24.8161 62.2627 24.8161L62.224 27.5285C62.224 27.5285 62.379 27.6157 62.3887 27.7707C62.408 27.916 63.4349 32.3817 63.4349 32.3817C63.4349 32.3817 63.3864 32.5271 63.2799 32.5077C63.1733 32.4883 63.6964 33.1955 63.7061 33.3989C63.7255 33.5926 64.2486 35.1619 64.2292 35.3751C64.2195 35.5882 64.1323 36.0725 64.0936 36.0822C64.0452 36.1016 64.4326 37.0703 64.3648 37.2156C64.3067 37.3706 63.6867 37.3609 63.6867 37.3609L63.5124 37.3222C63.5124 37.3222 63.5221 37.5256 63.4058 37.545C63.2799 37.5547 62.379 37.4965 62.379 37.4965C62.379 37.4965 62.1174 37.8937 61.9624 37.884C61.8074 37.8647 61.604 37.5934 61.5653 37.6322C61.5168 37.6806 61.7009 37.9422 61.6621 38.0197C61.604 38.0971 60.829 38.2618 60.674 37.8937C60.519 37.5256 60.7709 37.6225 60.7128 37.545C60.674 37.4675 60.3253 37.2641 60.2091 37.3222C60.1122 37.39 60.49 37.4772 60.4706 37.6322C60.4609 37.7872 60.1316 38.0197 60.0153 38.0197C59.8894 38.0197 59.5988 37.4481 59.1628 37.5062C58.7366 37.574 58.4654 37.6806 58.4654 37.6806C58.4654 37.6806 57.952 37.8937 57.7388 37.8453C57.5257 37.8065 57.4288 37.6322 57.4288 37.545C57.4288 37.4481 57.5838 37.0509 57.5742 36.925C57.5548 36.8088 57.4288 36.6828 57.4288 36.4988C57.4288 36.305 57.7873 35.6851 57.7873 35.6851L57.7679 32.8564C57.7679 32.8564 57.4482 32.8564 57.4288 32.6627C57.4192 32.4689 57.9229 28.1969 58.0101 27.916L58.2813 26.6567C58.2813 26.6567 58.0488 26.7729 58.0295 26.6567C58.0198 26.5598 58.7269 24.1186 58.7269 24.1186C58.7269 24.1186 58.8432 22.898 58.8432 22.5784C58.8432 22.2587 58.785 21.8131 58.785 21.8131C58.785 21.8131 58.1554 21.5419 58.136 21.135C58.0779 20.486 58.7366 20.1275 58.8141 19.9144L59.1241 19.0426C59.1241 19.0426 59.4631 18.4613 60.0153 18.3742Z" fill="white" stroke="black" stroke-width="0.0871841"/>
<path d="M59.7828 37.8652C59.7828 37.8652 58.291 38.6402 58.0778 38.708C57.8647 38.7661 57.7291 38.4465 57.9422 38.3883C58.1553 38.3205 58.4944 38.2915 58.4944 38.2915C58.4944 38.2915 57.9907 37.8943 58.01 37.8749L58.7075 37.623C58.7269 37.623 58.9206 38.0105 59.0562 37.9912C59.2486 37.8978 59.4305 37.7841 59.5987 37.6521L59.7828 37.8652Z" fill="#FFC72C" stroke="black" stroke-width="0.0871841"/>
<path d="M61.875 38.2912C62.0203 38.4753 62.0687 38.7853 62.3981 38.6012C62.7178 38.4172 62.2334 38.0781 62.2334 38.0781L61.875 38.2912Z" fill="#FFC6B5" stroke="black" stroke-width="0.0871841"/>
<path d="M62.4659 38.2619C62.4659 38.2619 62.6209 38.3878 62.7565 38.2425C62.8922 38.1069 62.4853 37.8163 62.4853 37.8163L62.2819 38.0488L62.4659 38.2619ZM63.1247 19.8467C63.144 19.8467 63.6284 21.3579 63.6962 21.7454C63.7543 22.1328 63.9577 23.6634 63.8803 23.8765C63.8028 24.0896 63.0181 25.1165 62.9309 25.378C62.834 25.6396 62.2819 26.6374 62.2819 26.6374C62.2819 26.6374 62.1463 27.6254 62.0881 27.6642C62.0203 27.7126 62.2431 27.9548 62.2238 28.0323C62.1947 28.1292 61.7781 28.5554 61.5941 28.5167C61.4004 28.4682 61.1097 28.2551 61.1097 28.0517C61.0807 27.8579 61.1097 27.1895 61.255 27.0248C61.3907 26.8505 62.1172 25.1552 62.1559 25.0487C62.2044 24.9324 62.8147 23.5956 62.834 23.3728C62.8534 23.1403 62.6403 22.6075 62.4272 22.4138C61.9428 20.9898 62.1366 20.1373 63.1247 19.8467Z" fill="#FFC6B5" stroke="black" stroke-width="0.0871841"/>
<path d="M59.5116 15.5069C59.5116 15.5069 59.8603 15.5554 60.0444 15.4488C60.2284 15.3422 60.4415 15.2938 60.5965 15.5069C60.7515 15.72 60.8581 15.7007 60.8581 15.7007C60.8581 15.7007 60.6256 16.2819 60.8581 16.34C61.0809 16.3981 61.1971 16.3981 61.2068 16.4756C61.2262 16.5531 61.0131 16.7178 61.0712 16.7953C61.1293 16.8728 61.2359 16.96 61.2553 17.0278C61.265 17.0859 61.1196 17.3475 61.1584 17.4153C61.2068 17.4734 61.3521 17.7156 61.4393 17.7156C61.5362 17.7156 61.4684 18.1031 61.7493 18.0062C62.0205 17.9093 62.0109 17.6671 62.0109 17.6671C62.0109 17.6671 62.3015 17.6284 62.379 17.3668C62.4468 17.1053 62.6308 17.0375 62.6308 17.0375C62.6308 17.0375 62.9989 16.8437 62.5146 16.5338C62.5146 14.3832 61.1003 14.6157 61.1003 14.6157C61.1003 14.6157 60.9356 14.2282 60.6547 14.2767C60.3834 14.3251 60.364 14.6448 60.1703 14.6157C59.9669 14.5866 59.9184 14.451 59.9088 14.4607C59.8894 14.4801 59.715 14.7901 59.715 14.8579C59.715 14.9354 59.1822 14.761 59.2307 15.1485C59.2791 15.5554 59.5406 15.536 59.5213 15.5069H59.5116Z" fill="#9C5100" stroke="black" stroke-width="0.0871841"/>
<path d="M62.0103 18.975C62.0103 18.975 60.6444 19.8468 60.6735 20.1568M62.3203 19.13C62.3203 19.13 62.0103 19.469 61.9909 19.469M62.7272 19.4981C62.7272 19.4981 62.049 20.0502 62.1556 20.399M59.5401 18.8975C59.5401 18.8975 59.3367 19.314 59.3851 19.4496C59.4238 19.5852 59.7726 20.1084 59.8113 20.428C59.8598 20.7574 59.8113 20.9802 59.8113 20.9802M59.1817 19.6627C59.1817 19.6627 59.2398 20.1471 59.3367 20.244C59.4335 20.3408 59.6757 20.7574 59.7048 20.9221M59.0557 21.7067C59.0557 21.7067 59.4626 21.9005 59.8307 21.1352M60.4216 20.6024C60.4119 20.6024 60.131 21.3483 60.625 21.6292C61.1094 21.9102 61.4872 21.8714 61.6906 21.7939C61.9134 21.7261 62.1459 21.5808 62.1459 21.5808M60.2085 21.5227C60.2085 21.5227 60.2376 22.5301 61.7294 23.5279M60.2763 22.472C60.2763 22.472 60.2569 23.3632 60.8382 23.7604M59.9663 21.4258C59.9663 21.4258 59.5207 22.7529 59.1623 22.8789M59.8307 22.3945C59.8307 22.3945 59.8113 23.3439 59.6854 23.6829M59.5691 23.9154C59.5691 23.9154 59.8694 24.3029 60.2085 24.2641C60.5475 24.2351 60.6929 23.8379 60.9157 23.896C61.1481 23.9638 61.3613 24.1479 61.8941 24.0994M61.1288 24.4966C61.1288 24.4966 61.1288 25.2813 61.2741 25.3588C61.4097 25.4363 61.3419 26.1531 61.3419 26.1531M59.2592 24.1285C59.2592 24.1285 59.2398 24.8647 59.1526 25.1263C59.0557 25.3878 58.8717 25.8334 58.9104 26.2209M58.3195 26.6472C58.397 26.6181 58.6586 26.3856 58.6586 26.3856M58.7942 26.5503C58.7942 26.5503 58.1355 29.3789 58.3195 31.0645M58.9492 26.6956C58.9492 26.6956 58.6101 28.8074 58.7651 29.2143M58.7845 26.6278L60.0729 26.7247M60.2569 26.5503C60.2569 26.5503 60.6057 26.744 61.0997 26.7053M60.1019 27.5868C60.1019 27.5868 60.0438 31.2001 59.9469 32.0041M61.9909 28.4102C61.9909 28.4102 62.3881 31.5876 62.6206 31.8782M61.2256 28.8074C61.2256 28.8074 61.4678 31.6167 61.6131 31.8685M57.7383 32.8469C57.7383 32.8469 58.2226 32.6919 58.6489 32.2366C59.1332 32.8954 59.8888 32.2657 59.8888 32.2657C59.8888 32.2657 61.0513 33.06 61.5744 32.1688C62.3784 32.6919 62.7756 32.0913 62.7756 32.0913C62.7756 32.0913 63.0662 32.5369 63.2793 32.4885M62.0103 32.7985C62.0103 32.7985 62.6012 35.6078 63.4924 36.4021" stroke="black" stroke-width="0.0871841"/>
<path d="M58.9299 32.5074C58.9299 32.5074 58.9977 34.8517 59.1334 36.5082M58.8137 35.1617C58.8137 35.1617 58.7362 36.6922 58.649 36.8085M57.9128 36.9538C57.9128 36.9538 58.0775 37.6222 58.9203 37.0022C59.763 36.3919 59.7824 37.2347 59.8115 37.3219C59.8405 37.4188 59.9761 38.0775 60.2958 37.5253M60.9739 36.6244C60.9739 36.6244 60.8383 37.9806 62.0492 36.9925C63.2601 35.9948 63.4635 36.9732 63.5023 37.2832M60.9933 14.9834C60.9933 14.9834 60.8867 15.6615 61.6036 15.5937C61.5067 15.9715 61.7973 16.0877 61.7973 16.0877M62.3204 16.5043C62.3398 16.5043 62.6498 16.698 62.3204 16.9499M61.2839 17.0371C61.2839 17.0371 61.4389 17.2308 61.6036 17.1824C61.778 17.1339 62.0492 17.3471 62.0492 17.3471C62.0492 17.3471 62.2817 17.4246 62.3107 17.3761M60.3443 17.6183C60.3443 17.6183 60.8674 17.8217 61.2161 16.9983M59.3852 16.7465L59.6855 16.7658M55.9754 26.4336L56.0044 27.102M55.3457 26.3755C55.3457 26.3755 55.7816 27.102 55.7332 27.4798" stroke="black" stroke-width="0.0871841"/>
<path d="M59.4238 17.0566H59.7048L59.4626 17.1632M61.1288 27.8868C61.1288 27.8868 61.4484 27.8481 61.4388 28.3906C61.6422 27.7125 62.0587 27.7028 62.0587 27.7028" stroke="black" stroke-width="0.0871841" stroke-linejoin="round"/>
<path d="M59.8115 16.194C59.86 16.194 60.0246 16.1359 60.0537 16.1843C60.0925 16.2231 59.8696 16.2618 59.8115 16.194Z" stroke="black" stroke-width="0.164681" stroke-linejoin="round"/>
<path d="M60.025 43.2508C64.0687 43.0592 67.878 41.2971 70.6421 38.3394C70.6033 38.3007 71.5042 37.0413 72.2211 37.2157C72.9379 37.3998 73.9745 39.5116 75.2338 39.9669C75.8635 40.9549 75.0594 41.8558 74.7882 42.0302C74.5169 42.2143 73.2964 42.7083 73.122 41.9915C72.9379 41.2649 72.5795 41.4102 72.5795 41.4102C72.5795 41.4102 66.8157 47.0288 60.1606 46.806C53.2828 46.8447 47.6061 41.4005 47.6061 41.4005L47.1121 41.943C47.1121 41.943 46.5696 42.5243 46.2983 42.4855C46.0271 42.4371 44.855 41.6718 44.7678 40.9065C44.6709 40.1412 45.4846 39.6472 45.4846 39.6472C45.4846 39.6472 47.4705 38.1166 47.6933 37.3126C48.1486 36.8573 49.0011 37.6226 49.0011 37.6226C49.0011 37.6226 54.2224 43.6092 60.025 43.2411V43.2508Z" fill="#FFC72C" stroke="black" stroke-width="0.184055"/>
<path d="M45.3584 39.7635C45.3584 39.7635 45.8912 39.6279 46.0849 39.8507C46.2787 40.0735 47.6349 41.4007 47.6349 41.4007" stroke="black" stroke-width="0.184055"/>
<path d="M46.5796 40.3929L46.0371 40.79C46.0371 40.79 47.3933 41.0613 47.0833 41.9525M74.7498 39.7245C74.7498 39.7245 74.4882 39.5791 74.0717 39.8891C73.6454 40.2088 72.5895 41.3906 72.5895 41.3906" stroke="black" stroke-width="0.184055"/>
<path d="M73.5487 40.3545L74.1299 40.8001C74.1299 40.8001 72.919 40.8873 73.1806 42.0304" stroke="black" stroke-width="0.184055"/>
<path d="M52.2178 41.1965C52.1791 41.2934 52.0822 41.1965 52.0047 41.2159C51.811 41.2159 51.6366 41.3515 51.4622 41.4484L49.6798 42.4849C49.6217 42.4656 49.6314 42.4171 49.6507 42.3687L50.1351 40.1407C50.1545 40.0147 50.1932 39.85 50.0673 39.7532C50.0189 39.7144 50.0964 39.6466 50.1351 39.7144L51.0457 40.3635C51.0166 40.4506 50.9585 40.3828 50.9101 40.3538C50.7841 40.2278 50.6291 40.3441 50.6388 40.4991L50.3095 41.9618C50.7163 41.7293 51.1232 41.4968 51.53 41.245C51.6657 41.1869 51.7722 40.9931 51.6269 40.8769C51.5688 40.8381 51.4719 40.7509 51.5688 40.7316L52.2178 41.1965ZM52.8572 44.2964C52.8378 44.3546 52.8087 44.3642 52.7603 44.3255L51.6947 43.7443C51.7044 43.6765 51.7335 43.6668 51.7819 43.7055C51.8788 43.7733 52.0338 43.8024 52.1113 43.6861L52.4988 42.979L53.0412 41.9909C53.1187 41.865 53.0316 41.7197 52.9153 41.6712C52.8766 41.6518 52.8184 41.6325 52.8669 41.5937C52.8862 41.5647 52.9444 41.6228 52.9734 41.6325L54.0003 42.1943C53.9906 42.2524 53.9615 42.2621 53.9131 42.2234C53.8162 42.1556 53.6612 42.1265 53.5837 42.2428L53.1962 42.9499L52.6538 43.938C52.5763 44.0543 52.6634 44.2092 52.7797 44.2577L52.8572 44.2964ZM56.9839 43.3277L56.6933 44.1414C56.5674 44.1317 56.6545 43.9768 56.6158 43.8993C56.5966 43.7137 56.5214 43.5384 56.4003 43.3966C56.2792 43.2547 56.1179 43.153 55.9377 43.1049C55.6471 43.0274 55.3565 43.1727 55.1821 43.4052C54.9291 43.7499 54.7811 44.1603 54.7559 44.587C54.747 44.7087 54.7711 44.8305 54.8257 44.9396C54.8802 45.0487 54.9632 45.1411 55.0658 45.207C55.2366 45.3137 55.4364 45.3645 55.6374 45.3523L55.8408 44.742C55.8699 44.6064 55.7246 44.5192 55.618 44.4902C55.5986 44.4514 55.6374 44.3933 55.6858 44.4417L56.7514 44.8292C56.7514 44.9552 56.5964 44.8098 56.5092 44.868C56.3833 44.9164 56.3736 45.0714 56.3155 45.1876L56.1896 45.5558C55.7052 45.5848 55.2208 45.4879 54.7946 45.2458C54.3974 44.9939 54.1165 44.4999 54.2037 44.0155C54.2618 43.599 54.5234 43.2115 54.9012 43.0274C55.2499 42.8337 55.6761 42.8434 56.0442 42.9887C56.238 43.0565 56.4124 43.1824 56.5673 43.318C56.6642 43.444 56.8386 43.444 56.9161 43.3083L56.9839 43.3277ZM58.7179 46.1176C58.7179 46.1564 58.7179 46.2048 58.6598 46.1757L57.4392 45.9917C57.4392 45.9432 57.4392 45.9045 57.4973 45.9336C57.5942 45.9529 57.7492 45.9529 57.7879 45.8367C57.8461 45.672 57.8557 45.4976 57.8848 45.333L58.0979 43.9186C58.127 43.8218 58.0979 43.7055 57.9914 43.6668C57.9235 43.6377 57.8654 43.6377 57.7976 43.6183C57.7976 43.5796 57.7976 43.5408 57.8557 43.5602L59.0763 43.7539C59.0763 43.7927 59.0763 43.8314 59.0182 43.8121C58.9213 43.783 58.776 43.7927 58.7276 43.9089C58.6695 44.0639 58.6598 44.2383 58.6307 44.403L58.4176 45.8173C58.3885 45.9142 58.4176 46.0401 58.5338 46.0789L58.7276 46.1176H58.7179ZM62.0309 45.3233L61.9825 46.1854L59.7932 46.292C59.7835 46.2435 59.7932 46.2145 59.8513 46.2242C59.9578 46.2242 60.1031 46.1757 60.1225 46.0498L60.0935 45.4104L60.0257 44.1124C60.0353 43.9864 59.9288 43.8896 59.8028 43.8993C59.7641 43.8799 59.6575 43.938 59.6672 43.8702C59.6479 43.8121 59.735 43.8411 59.7641 43.8314L60.9847 43.7636C60.9847 43.8218 60.9847 43.8508 60.9169 43.8411C60.8103 43.8411 60.665 43.8605 60.6263 43.9961C60.6166 44.1802 60.6359 44.3642 60.6456 44.5483L60.7134 45.9045C60.7134 46.011 60.8103 46.1176 60.9266 46.0982C61.1009 46.0885 61.285 46.0982 61.4593 46.0498C61.7015 45.982 61.8275 45.7398 61.8953 45.517C61.9437 45.4589 61.8953 45.3039 61.9921 45.3233H62.0309ZM63.7261 43.2115C63.668 43.2115 63.6971 43.289 63.6777 43.3277C63.5808 44.0542 63.4936 44.7808 63.3871 45.4976C63.3677 45.6623 63.329 45.8464 63.174 45.9239C63.1158 45.9529 63.1643 46.0401 63.2224 45.9917L63.9489 45.7689C63.9392 45.6526 63.7939 45.7689 63.7164 45.7398C63.5518 45.7398 63.5227 45.5364 63.5518 45.4104C63.5518 45.3136 63.5711 45.2361 63.5808 45.1489L64.4139 44.897C64.5205 45.0327 64.6367 45.1586 64.7336 45.3039C64.8111 45.4395 64.6367 45.4976 64.5399 45.5267C64.4817 45.5267 64.5205 45.6236 64.5689 45.5848L65.6636 45.2555C65.6636 45.1295 65.5086 45.2555 65.4408 45.1586C65.2276 45.0133 65.0823 44.8002 64.9176 44.6064L63.7261 43.2115ZM63.7261 44.0833L64.3074 44.7905L63.6002 45.0036L63.7261 44.0833ZM67.4654 41.584L67.785 42.1653C67.6882 42.2621 67.63 42.0587 67.5429 42.0296C67.4705 41.9664 67.38 41.9276 67.2843 41.9189C67.1886 41.9102 67.0926 41.932 67.0101 41.9812L66.8163 42.0878L67.7657 43.8605C67.8141 44.0058 67.9982 44.0349 68.1241 43.9574C68.1628 43.9186 68.2113 43.8993 68.221 43.9671C68.066 44.0639 67.8819 44.1511 67.7172 44.2383L67.0876 44.5774C67.0391 44.5289 67.0682 44.4999 67.1263 44.4805C67.1605 44.4681 67.1913 44.4479 67.2163 44.4214C67.2412 44.3949 67.2596 44.363 67.27 44.3281C67.2804 44.2933 67.2824 44.2565 67.2759 44.2207C67.2695 44.1849 67.2547 44.1511 67.2329 44.1221L66.2932 42.3784C66.1189 42.4752 65.9057 42.5527 65.8573 42.7659C65.8089 42.9112 65.8767 43.0759 65.8767 43.1921C65.8282 43.2502 65.8089 43.1727 65.7798 43.134L65.5183 42.6302L67.4654 41.584ZM68.9475 40.7025L69.5481 41.5065C69.6837 41.4097 69.8 41.2547 69.7612 41.0803C69.7806 40.9447 69.5868 40.7897 69.6547 40.6928C69.6934 40.6734 69.7225 40.7703 69.7515 40.7994L70.449 41.7197C70.3521 41.8165 70.294 41.6131 70.1971 41.584C70.0615 41.4872 69.8775 41.4387 69.7322 41.5453C69.6256 41.584 69.6353 41.6422 69.7031 41.71C69.8581 41.9134 70.0131 42.1362 70.1874 42.3396C70.2843 42.4365 70.4199 42.3396 70.5071 42.2621C70.7396 42.1071 70.943 41.8553 70.9334 41.5647C70.9527 41.429 70.8655 41.2934 70.8655 41.1772C70.9237 41.1094 70.9334 41.2159 70.9624 41.2547L71.2918 41.8359L69.5868 43.1243C69.519 43.0758 69.5868 43.0371 69.6353 43.008C69.7903 42.9112 69.7418 42.7077 69.6353 42.6012L68.5309 41.1578C68.4341 41.0319 68.2597 41.0997 68.1725 41.1869C68.1241 41.245 68.0757 41.1384 68.1435 41.1287L69.7418 39.9178L70.1778 40.4991C70.0809 40.5959 69.984 40.3731 69.8775 40.3635C69.6643 40.2472 69.4125 40.3344 69.2381 40.4797L68.9378 40.7025" fill="black"/>
</g>
<defs>
<linearGradient id="paint0_linear_3736_64514" x1="50.9394" y1="15.846" x2="49.8375" y2="15.6836" gradientUnits="userSpaceOnUse">
<stop stop-color="#FF0000"/>
<stop offset="1" stop-color="#FFFF00"/>
</linearGradient>
<linearGradient id="paint1_linear_3736_64514" x1="50.9394" y1="15.846" x2="49.8375" y2="15.6836" gradientUnits="userSpaceOnUse">
<stop stop-color="#FF0000"/>
<stop offset="1" stop-color="#FFFF00"/>
</linearGradient>
<linearGradient id="paint2_linear_3736_64514" x1="50.9394" y1="15.846" x2="49.8375" y2="15.6836" gradientUnits="userSpaceOnUse">
<stop stop-color="#FF0000"/>
<stop offset="1" stop-color="#FFFF00"/>
</linearGradient>
<linearGradient id="paint3_linear_3736_64514" x1="50.9394" y1="15.846" x2="49.8375" y2="15.6836" gradientUnits="userSpaceOnUse">
<stop stop-color="#FF0000"/>
<stop offset="1" stop-color="#FFFF00"/>
</linearGradient>
<linearGradient id="paint4_linear_3736_64514" x1="50.9394" y1="15.846" x2="49.8375" y2="15.6836" gradientUnits="userSpaceOnUse">
<stop stop-color="#FF0000"/>
<stop offset="1" stop-color="#FFFF00"/>
</linearGradient>
<linearGradient id="paint5_linear_3736_64514" x1="50.9394" y1="15.846" x2="49.8375" y2="15.6836" gradientUnits="userSpaceOnUse">
<stop stop-color="#FF0000"/>
<stop offset="1" stop-color="#FFFF00"/>
</linearGradient>
<linearGradient id="paint6_linear_3736_64514" x1="50.9394" y1="15.846" x2="49.8375" y2="15.6836" gradientUnits="userSpaceOnUse">
<stop stop-color="#FF0000"/>
<stop offset="1" stop-color="#FFFF00"/>
</linearGradient>
<linearGradient id="paint7_linear_3736_64514" x1="50.9394" y1="15.846" x2="49.8375" y2="15.6836" gradientUnits="userSpaceOnUse">
<stop stop-color="#FF0000"/>
<stop offset="1" stop-color="#FFFF00"/>
</linearGradient>
<linearGradient id="paint8_linear_3736_64514" x1="50.9394" y1="15.846" x2="49.8375" y2="15.6836" gradientUnits="userSpaceOnUse">
<stop stop-color="#FF0000"/>
<stop offset="1" stop-color="#FFFF00"/>
</linearGradient>
<linearGradient id="paint9_linear_3736_64514" x1="50.9394" y1="15.846" x2="49.8375" y2="15.6836" gradientUnits="userSpaceOnUse">
<stop stop-color="#FF0000"/>
<stop offset="1" stop-color="#FFFF00"/>
</linearGradient>
<linearGradient id="paint10_linear_3736_64514" x1="50.9394" y1="15.846" x2="49.8375" y2="15.6836" gradientUnits="userSpaceOnUse">
<stop stop-color="#FF0000"/>
<stop offset="1" stop-color="#FFFF00"/>
</linearGradient>
<linearGradient id="paint11_linear_3736_64514" x1="50.9394" y1="15.846" x2="49.8375" y2="15.6836" gradientUnits="userSpaceOnUse">
<stop stop-color="#FF0000"/>
<stop offset="1" stop-color="#FFFF00"/>
</linearGradient>
<clipPath id="clip0_3736_64514">
<rect width="80" height="60" fill="white"/>
</clipPath>
</defs>
</svg>
