<svg width="80" height="60" viewBox="0 0 80 60" fill="none" xmlns="http://www.w3.org/2000/svg">
<g clip-path="url(#clip0_3736_64660)">
<path d="M0 0H80V60H0V0Z" fill="white"/>
<path d="M25.5371 39.375C25.5371 39.375 25.4746 38.925 26.3121 38.6125C27.1371 38.2875 27.2121 37.0875 27.0371 36.2875C27.0371 36.2875 26.6121 37.0375 26.0746 37.3C26.0746 37.3 25.2246 37.75 25.1746 38.6C25.1746 38.6 25.1746 38.9125 25.1121 39.1625C25.0746 39.2875 24.6871 38.0875 25.4121 37.1875C26.1621 36.275 26.3621 35.525 25.7746 34.0625C25.7746 34.0625 25.7121 34.9375 25.1371 35.45C24.5496 35.95 24.4746 36 24.4871 37.2C24.4871 37.2 24.4871 37.625 24.2746 37.7625C24.2746 37.7625 23.8246 37.1 23.6996 36.6625C23.5746 36.225 23.5246 36.0375 24.0496 35.5375C24.0496 35.5375 25.6996 34.45 24.5121 32.1125C24.5121 32.1125 24.4746 32.9125 23.8871 33.3875C23.3246 33.875 23.3621 34.1875 23.3371 35.0125C23.3121 35.85 23.2621 35.7875 23.1996 35.9125C23.1996 35.9125 22.1371 33.9625 22.9496 32.9375C23.7621 31.9 24.2246 31.6875 23.3246 29.7625C23.3246 29.7625 23.3621 30.7625 22.6371 31.2375C21.9246 31.7375 22.0871 32.8625 22.0871 32.8625C22.0871 32.8625 22.1371 33.3 21.9871 33.6125C21.9871 33.6125 20.9746 31.625 21.9371 30.5625C22.7621 29.65 22.8121 29.0125 22.3746 27.7375C22.3746 27.7375 22.3246 28.325 21.8746 28.65C21.4121 28.975 21.0496 29.2875 21.1371 30.525C21.1371 30.525 21.1746 31.4 21.0621 31.65C21.0621 31.65 20.6371 30.85 20.5121 30.3375C20.3871 29.8125 20.3496 29.5125 20.6621 29C20.9746 28.4875 22.2246 27 20.7371 24.875C20.7371 24.875 20.6996 25.5625 20.3121 26.1875C19.9371 26.8125 20.1121 27.55 20.1871 28.1125C20.2746 28.675 19.9996 29.225 19.9996 29.225C19.9996 29.225 19.3496 28.0375 19.4996 26.675C19.6246 25.3 19.0746 24.175 17.8121 23.375C17.8121 23.375 16.8996 25.5 18.1496 26.5875C18.1496 26.5875 19.2121 27.6375 19.4871 28.9125C19.4871 28.9125 18.6746 28.8375 17.9496 27.4125C17.2121 25.9875 15.6996 26.2125 15.5996 26.2C15.5996 26.2 15.8496 28.4 18.1746 29.025C18.1746 29.025 19.6746 29.275 19.9496 30.375C19.9496 30.375 20.1996 31.125 20.2996 31.525C20.2996 31.525 19.8246 31.3375 19.3871 30.6875C18.9496 30.0625 19.0121 29.975 17.5371 29.825C17.5371 29.825 16.9496 29.7625 16.6371 29.3375C16.6371 29.3375 17.2621 31.6625 18.8496 31.65C18.8496 31.65 20.2996 31.4875 21.0996 33.4L20.7371 33.15C20.5246 33.0125 19.9871 32.7375 18.9246 32.8625C17.8621 32.9875 17.5621 32.8125 17.2996 32.7375C17.2996 32.7375 18.3746 34.7 19.8871 34.1125C21.4121 33.525 22.1371 35.6625 22.1621 35.7C22.1621 35.7 21.9496 35.55 21.6871 35.2875C21.4121 35.025 20.8621 34.7 19.8121 35.0375C19.8121 35.0375 19.0496 35.325 18.2746 35.0875C18.2746 35.0875 19.0246 36.525 20.7496 36.275C21.2037 36.1854 21.6749 36.2658 22.0735 36.5009C22.4722 36.7359 22.7707 37.1093 22.9121 37.55C22.9121 37.55 22.6871 37.425 22.5371 37.3C22.3746 37.175 21.7871 36.8375 20.5371 37.2C19.2871 37.575 18.8371 37.15 18.8371 37.15C18.8371 37.15 19.5246 38.4 20.8621 38.5625C20.8621 38.5625 21.6121 38.55 21.9121 38.4375C22.2246 38.3125 23.0621 38.125 23.6371 38.9625C23.6371 38.9625 23.4746 38.9875 23.2371 38.875C23.2371 38.875 22.3621 38.5625 21.6746 39.125C21.6746 39.125 21.0746 39.7375 20.2246 39.625C20.2246 39.625 21.3246 40.6875 23.0746 39.7875C23.0746 39.7875 23.6621 39.3625 24.0996 39.6875C24.5371 40.025 25.5371 39.3625 25.5371 39.3625V39.375Z" fill="#369443" stroke="#010002" stroke-width="0.1875" stroke-miterlimit="10"/>
<path d="M35.275 12.9616C35.275 12.9616 35.075 11.1491 36.525 10.9616C37.2761 10.8303 38.0479 10.8817 38.775 11.1116L39.4625 12.4366L39.2125 13.3366L38.2875 13.7616C38.2875 13.7616 38.45 12.3866 37.1875 12.3616C36.8625 12.3616 36.6875 12.4866 36.175 12.3991C35.6625 12.3116 35.3875 12.8741 35.275 12.9616Z" fill="#F4C53D" stroke="#010002" stroke-width="0.1875" stroke-miterlimit="10"/>
<path d="M45.4752 17.4496C45.2502 17.7246 44.3877 17.8246 44.3877 17.8246C44.3877 17.8246 45.2752 18.5121 45.6627 19.4871C46.0377 20.4496 35.3627 19.4871 35.3627 19.4871C35.3627 19.4871 35.8377 19.1621 36.1502 18.5371C36.1502 18.5371 35.6752 18.7121 35.2002 18.2371C35.2002 18.2371 35.5502 18.3621 36.0127 17.6621C36.0127 17.6621 36.7002 16.7871 37.1877 16.5371C37.1877 16.5371 36.9627 16.6871 36.4252 16.3871C36.4252 16.3871 37.3502 16.2621 37.6752 14.6996C37.6752 14.6996 37.7377 14.3496 38.0877 13.8246C38.4377 13.3246 38.3627 13.9371 39.0127 13.1496C39.0127 13.1496 39.3127 12.5996 39.0502 12.2746C38.8002 11.9246 38.5127 12.0496 37.9752 11.7246C37.4252 11.3996 37.1877 11.2246 37.3752 10.7246C37.5627 10.2246 38.0377 10.2996 38.1127 10.2996C38.1877 10.2996 38.2127 9.86208 38.8002 9.56208C39.3877 9.26208 40.9752 9.39958 41.2002 9.52458C41.4502 9.64958 42.3877 9.93708 42.9502 11.3371C43.5002 12.7371 42.8002 13.2621 44.3002 15.3871C44.3002 15.3871 43.7002 15.5121 43.3127 15.3871C43.3127 15.3871 44.1002 16.7871 45.4752 17.4496Z" fill="#F4C53D" stroke="#010002" stroke-width="0.1875" stroke-miterlimit="10"/>
<path d="M38.8756 11.5248C37.6256 11.4623 38.1131 10.2998 38.1131 10.2998" stroke="#010002" stroke-width="0.1875" stroke-miterlimit="10"/>
<path d="M40.9998 11.6868C40.9998 11.6868 40.7873 11.5868 40.5998 11.3368C40.3498 10.9993 39.7623 10.8368 39.4623 11.1618C39.4623 11.1618 39.1498 11.5118 38.8623 11.5368C38.8623 11.5368 39.1873 11.6243 39.3998 11.8243C39.6123 12.0243 39.8373 12.1743 40.1623 12.1243C40.4873 12.0868 40.5373 11.9118 40.6873 11.8118C40.8498 11.7118 40.9998 11.6868 40.9998 11.6868Z" fill="#F4C53D" stroke="#010002" stroke-width="0.1875" stroke-miterlimit="10"/>
<path d="M25.3497 42.0629C25.3497 42.0629 25.3247 41.2629 26.3247 41.2129L29.2622 45.3004C29.2622 45.3004 29.1497 45.5629 27.8247 45.5379C27.8247 45.5379 27.6747 45.5379 27.5997 45.6879C27.4872 45.9379 25.3497 42.0629 25.3497 42.0629Z" fill="#369443" stroke="#010002" stroke-width="0.1875" stroke-miterlimit="10"/>
<path d="M28.5838 37.2971C28.5838 37.2971 27.6447 38.908 26.51 38.9344C26.51 38.9344 24.5585 38.6973 24.0071 39.2072C23.6213 39.5629 23.228 39.8565 23.0661 40.7654C22.9081 41.6744 23.3766 41.8701 23.4877 41.9096C23.4877 41.9096 23.5742 42.5589 24.216 42.3895C24.216 42.3895 24.2536 43.067 25.3865 42.7414C26.5213 42.4158 26.9917 42.5193 27.2119 41.3902C27.4359 40.2592 27.641 40.278 27.8423 40.1425C28.1133 39.96 28.6233 39.7887 29.0016 39.5704C29.3403 39.3747 30.6426 38.7123 31.0867 38.6615C31.5308 38.6088 31.433 37.1146 31.433 37.1146H30.285L29.7299 36.296L28.5819 37.2971H28.5838ZM32.197 29.2164C32.197 29.2164 31.0491 30.1517 30.0855 29.2164C30.0855 29.2164 29.6979 29.6831 28.9188 29.5476C28.1434 29.4102 28.0136 29.0018 27.9402 28.7685C27.9402 28.7685 27.2665 29.1599 26.6982 28.8494C26.1336 28.5408 26.1336 28.0722 26.1336 28.0722C26.1336 28.0722 25.1456 28.2679 24.6394 27.598C24.1332 26.9299 24.4418 26.2675 24.7147 26.1884C24.7147 26.1884 23.6476 26.4688 23.3559 25.5524C23.2783 25.3477 23.2663 25.124 23.3216 24.9122C23.3769 24.7004 23.4968 24.5111 23.6646 24.3705C23.6646 24.3705 21.4176 24.3593 20.4955 23.6554C20.4955 23.6554 19.7296 23.1737 20.1869 22.6674C20.1869 22.6674 18.1639 22.3438 17.6576 21.5383C17.6576 21.5383 17.4356 21.3163 17.509 20.9267C17.509 20.9267 17.5221 20.7065 17.7442 20.6934C17.7442 20.6934 15.437 20.3358 14.7708 19.5755C14.7708 19.5755 14.4509 19.2255 14.6109 18.7569C14.6109 18.7569 14.6447 18.6346 14.6993 18.5499C14.6993 18.5499 12.5992 18.1077 11.5641 17.1724C11.5641 17.1724 10.9657 16.6398 11.2743 15.9247C11.2743 15.9247 7.76461 14.9649 8.57758 13.418C8.57758 13.418 6.93659 12.8855 7.45599 11.4044C7.45599 11.4044 6.09916 10.7157 6.69006 9.62417C7.25651 8.57973 8.99724 9.80671 11.056 10.3769C11.056 10.3769 16.6339 12.1308 19.3795 12.5975L27.1818 24.2143L31.7341 25.9683L32.1951 29.2164H32.197Z" fill="#F4C53D" stroke="#010002" stroke-width="0.188188"/>
<path d="M32.2516 20.6611C32.2516 20.6611 31.5195 20.1116 30.2154 20.7571C30.2154 20.7571 29.7769 21.0601 29.4307 20.7289C29.3556 20.6572 29.2973 20.5698 29.2601 20.473C29.2228 20.3761 29.2075 20.2722 29.2153 20.1687C29.223 20.0652 29.2536 19.9647 29.3048 19.8745C29.3561 19.7843 29.4267 19.7065 29.5116 19.6468C30.4845 18.9261 30.844 16.7638 29.3648 15.8661C29.3648 15.8661 27.2195 14.594 19.3476 12.5917C19.3476 12.5917 18.6889 12.4072 18.3351 12.4957C18.164 12.5394 18.0078 12.6285 17.8832 12.7538C17.7587 12.879 17.6703 13.0356 17.6275 13.207C17.6275 13.207 17.2738 14.2101 18.4593 14.784C18.4593 14.784 18.9938 15.0287 19.5452 15.1868C19.5452 15.1868 18.9392 15.055 18.6795 15.6535C18.4349 16.2256 18.7924 16.8108 19.9027 17.1872C19.9027 17.1872 20.2038 17.3039 20.631 17.4074C20.631 17.4074 19.6807 17.6803 20.138 18.4481C20.138 18.4481 20.5445 19.2535 21.9822 19.3965C21.9822 19.3965 20.9095 19.5132 21.6661 20.5332C21.6661 20.5332 21.9991 21.0921 23.0473 21.2991C23.0473 21.2991 22.2532 21.3254 22.6522 22.0387C23.0549 22.7538 23.9977 23.1565 24.9273 23.2224C24.9273 23.2224 25.4298 23.2487 25.7817 23.1697C25.7817 23.1697 24.8972 23.6119 25.4166 24.3515C25.4166 24.3515 25.7987 24.8784 26.7546 24.8521C26.7546 24.8521 26.5081 25.6801 27.2082 25.9925C27.7539 26.2371 28.2074 25.8457 28.2074 25.8457C28.2074 25.8457 28.023 26.7321 28.8191 27.0445C28.8191 27.0445 29.2161 27.2496 29.8089 27.0445C29.8089 27.0445 30.2606 28.0588 31.8715 27.3456C33.4823 26.6361 32.2516 20.663 32.2516 20.663V20.6611ZM32.3457 29.871C32.3457 29.871 32.1105 31.1394 30.238 32.7353C30.238 32.7353 28.7927 34.0093 28.8285 35.4771C28.8661 36.9732 28.5707 37.1407 28.0023 37.6469C28.0023 37.6469 29.1747 37.7392 29.7412 36.9582C29.7412 36.9582 29.7167 38.2567 29.5436 38.3752C29.5436 38.3752 29.9124 38.3978 30.445 37.8163C30.445 37.8163 30.7649 37.4776 31.0623 37.3477C31.0623 37.3477 30.716 38.2454 30.987 39.0772C30.987 39.0772 31.0735 38.7516 31.5308 38.6086C31.5308 38.6086 32.3589 38.4392 32.6788 37.2442C32.6788 37.2442 32.8877 36.4538 34.1843 35.75C34.1843 35.75 35.6521 35.1967 35.6145 34.4741C35.5769 33.7496 32.3476 29.871 32.3476 29.871H32.3457Z" fill="#F4C53D" stroke="#010002" stroke-width="0.188188"/>
<path d="M39.1509 46.2228C39.1509 46.2228 38.814 47.7058 37.6454 47.5872C37.6454 47.5872 36.8192 47.5082 36.8813 46.1306C36.8813 46.1306 35.66 46.7818 35.4624 45.1709C35.4624 45.1709 34.3521 45.4287 34.3653 43.9232C34.3653 43.9232 33.3302 44.1039 33.4526 42.7658C33.4526 42.7658 32.3291 43.0669 32.3291 41.8061C32.3291 41.8061 29.702 41.3695 35.1783 36.375L40.0636 39.2844L39.1509 46.2228Z" fill="#F4C53D" stroke="#010002" stroke-width="0.188188" stroke-miterlimit="10"/>
<path d="M39.6948 39.563C39.6948 39.563 38.8799 40.2856 38.3003 39.2054C38.3003 39.2054 37.5099 39.1678 37.3876 38.5693C37.3876 38.5693 36.7459 38.5054 36.6217 37.8937C36.6217 37.8937 35.7466 37.8034 35.7711 37.0638C35.7711 37.0638 34.179 36.9396 35.7711 35.1368C37.3631 33.334 40.0636 38.129 40.0636 38.129L39.6948 39.563ZM40.6018 39.1151C41.3922 39.1151 42.2861 44.0456 42.0546 47.0171C41.97 48.0954 41.3922 48.9761 40.6018 48.9761C39.8114 48.9761 39.2356 48.0954 39.1528 47.0171C38.9194 44.0456 39.8133 39.1151 40.6018 39.1151Z" fill="#F4C53D" stroke="#010002" stroke-width="0.188188"/>
<path d="M40.6013 40.6958C41.2041 40.6958 41.6927 39.9712 41.6927 39.0774C41.6927 38.1836 41.2041 37.459 40.6013 37.459C39.9984 37.459 39.5098 38.1836 39.5098 39.0774C39.5098 39.9712 39.9984 40.6958 40.6013 40.6958Z" fill="#F4C53D" stroke="#010002" stroke-width="0.188188"/>
<path d="M36.8814 46.1304C36.8814 46.1304 37.0056 43.5203 39.2676 39.7772M35.4625 45.1707C35.4625 45.1707 35.1106 43.6633 38.3004 39.2051C38.3004 39.2051 37.9296 38.1419 39.0644 37.4587M34.3654 43.923C34.3654 43.923 34.2656 42.2914 37.3877 38.569C37.3877 38.569 37.111 37.6093 38.242 36.8415M33.4527 42.7656C33.4527 42.7656 33.5693 41.1171 36.6217 37.8935C36.6217 37.8935 36.4712 36.9073 37.5627 36.2957M32.3311 41.8059C32.3311 41.8059 32.5512 39.9221 35.7711 37.0635C35.7711 37.0635 35.6601 36.3221 36.7328 35.5693" stroke="#010002" stroke-width="0.188188" stroke-miterlimit="10"/>
<path d="M7.45605 11.4043C7.45605 11.4043 9.98341 12.8684 17.8609 14.3325M8.57765 13.4179C8.57765 13.4179 15.422 15.6498 18.6099 15.9246M11.2725 15.9246C11.2725 15.9246 15.2884 17.1854 19.9912 17.9814M14.6994 18.5517C14.6994 18.5517 19.2347 19.6413 21.4026 19.8219M17.7443 20.6932C17.7443 20.6932 21.5814 21.493 22.5525 21.589M20.1869 22.6673C20.1869 22.6673 22.9872 23.0926 24.1012 23.07M23.6646 24.3685C23.6646 24.3685 24.7975 24.3158 25.3414 24.2255M24.7128 26.1883C24.7128 26.1883 25.6764 25.9286 26.2428 25.5654M26.1318 28.0721C26.1318 28.0721 26.8732 27.786 27.2308 27.0069M27.9403 28.7684C27.9403 28.7684 28.5124 28.2546 28.55 27.6825M30.0856 29.2162C30.0856 29.2162 29.8711 29.0299 30.0179 28.2245M29.809 27.0427C29.809 27.0427 29.6961 26.8131 29.7337 26.448M25.7629 15.5087C25.7629 15.5087 27.0577 16.0281 27.4886 16.7432C27.9214 17.4583 27.6373 18.1527 27.4886 18.5498C27.4152 18.7511 26.5025 20.5107 27.5752 21.7847M25.7799 23.166C25.7799 23.166 25.7874 23.1604 26.2428 23.0155M23.0474 21.2954C23.0474 21.2954 23.819 21.4497 24.5774 21.4573M21.9804 19.391C21.9804 19.391 22.8874 19.4832 23.7399 19.47M20.6311 17.4037C20.6311 17.4037 21.939 17.6634 22.6409 17.6766M19.5452 15.1869C19.5452 15.1869 21.158 15.646 22.3567 15.8098M25.0215 16.7582C25.0215 16.7582 23.8622 17.8365 25.2567 18.8377C25.2567 18.8377 24.6771 19.7466 25.8363 20.6951M25.5277 21.143C25.5277 21.143 25.3546 22.8781 27.4773 22.8781C27.4773 22.8781 27.069 24.4231 29.1183 24.3723C29.1183 24.3723 29.3517 25.6068 30.8308 25.3584M27.5733 38.9361C27.5733 38.9361 27.2364 39.0114 26.5082 38.9361M24.4607 39.8451C24.4607 39.8451 23.4369 39.6889 23.4859 41.9114M25.0779 40.3513C25.0779 40.3513 24.152 40.2346 24.2123 42.3913M34.0112 35.1554C34.0112 35.1554 33.5671 35.2458 33.2584 35.5977C32.9517 35.9477 32.3589 35.8818 32.3589 35.8818C32.3589 35.8818 32.6788 35.6221 32.7917 34.9729C32.9009 34.3237 33.2603 34.1279 33.2603 34.1279M32.2008 33.5144C32.2008 33.5144 31.7567 33.6048 31.4481 33.9548C31.1394 34.3067 30.5467 34.2408 30.5467 34.2408C30.5467 34.2408 30.8666 33.9811 30.9795 33.3319C31.0905 32.6827 31.4481 32.4869 31.4481 32.4869M31.8941 36.0343C31.8941 36.0343 31.5064 36.1152 31.2373 36.4201C30.9682 36.7268 30.4507 36.6703 30.4507 36.6703C30.4507 36.6703 30.733 36.4445 30.8271 35.8762C30.9249 35.3098 31.2373 35.1385 31.2373 35.1385" stroke="#010002" stroke-width="0.188188"/>
<path d="M52.3156 37.2971C52.3156 37.2971 53.2547 38.908 54.3894 38.9344C54.3894 38.9344 56.3409 38.6973 56.8923 39.2072C57.2781 39.5629 57.6714 39.8565 57.8333 40.7654C57.9914 41.6744 57.5228 41.8701 57.4117 41.9096C57.4117 41.9096 57.3252 42.5589 56.6834 42.3895C56.6834 42.3895 56.6458 43.067 55.5129 42.7414C54.3782 42.4158 53.9077 42.5193 53.6875 41.3902C53.4636 40.2592 53.2584 40.278 53.0571 40.1425C52.7861 39.96 52.2761 39.7887 51.8978 39.5704C51.5591 39.3747 50.2568 38.7123 49.8127 38.6615C49.3686 38.6088 49.4665 37.1146 49.4665 37.1146H50.6144L51.1696 36.296L52.3175 37.2971H52.3156ZM48.7024 29.2164C48.7024 29.2164 49.8504 30.1517 50.8139 29.2164C50.8139 29.2164 51.2015 29.6831 51.9806 29.5476C52.756 29.4102 52.8858 29.0018 52.9592 28.7685C52.9592 28.7685 53.6329 29.1599 54.2013 28.8494C54.7658 28.5408 54.7658 28.0722 54.7658 28.0722C54.7658 28.0722 55.7538 28.2679 56.26 27.598C56.7663 26.9299 56.4576 26.2675 56.1848 26.1884C56.1848 26.1884 57.2518 26.4688 57.5435 25.5524C57.6211 25.3477 57.6331 25.124 57.5778 24.9122C57.5225 24.7004 57.4026 24.5111 57.2348 24.3705C57.2348 24.3705 59.4818 24.3593 60.4039 23.6554C60.4039 23.6554 61.1698 23.1737 60.7125 22.6674C60.7125 22.6674 62.7356 22.3438 63.2418 21.5383C63.2418 21.5383 63.4638 21.3163 63.3905 20.9267C63.3905 20.9267 63.3773 20.7065 63.1552 20.6934C63.1552 20.6934 65.4624 20.3358 66.1286 19.5755C66.1286 19.5755 66.4485 19.2255 66.2885 18.7569C66.2885 18.7569 66.2547 18.6346 66.2001 18.5499C66.2001 18.5499 68.3003 18.1077 69.3353 17.1724C69.3353 17.1724 69.9337 16.6398 69.6251 15.9247C69.6251 15.9247 73.1348 14.9649 72.3218 13.418C72.3218 13.418 73.9628 12.8855 73.4434 11.4044C73.4434 11.4044 74.8003 10.7157 74.2094 9.62417C73.6429 8.57973 71.9022 9.80671 69.8434 10.3769C69.8434 10.3769 64.2655 12.1308 61.5199 12.5975L53.7176 24.2143L49.1654 25.9683L48.7043 29.2164H48.7024Z" fill="#F4C53D" stroke="#010002" stroke-width="0.188188"/>
<path d="M48.6478 20.6611C48.6478 20.6611 49.3799 20.1116 50.684 20.7571C50.684 20.7571 51.1225 21.0601 51.4687 20.7289C51.5438 20.6572 51.6021 20.5698 51.6393 20.473C51.6766 20.3761 51.6919 20.2722 51.6841 20.1687C51.6764 20.0652 51.6458 19.9647 51.5946 19.8745C51.5433 19.7843 51.4727 19.7065 51.3878 19.6468C50.4149 18.9261 50.0555 16.7638 51.5346 15.8661C51.5346 15.8661 53.6799 14.594 61.5518 12.5917C61.5518 12.5917 62.2105 12.4072 62.5643 12.4957C62.7354 12.5394 62.8916 12.6285 63.0162 12.7538C63.1408 12.879 63.2291 13.0356 63.2719 13.207C63.2719 13.207 63.6257 14.2101 62.4401 14.784C62.4401 14.784 61.9056 15.0287 61.3542 15.1868C61.3542 15.1868 61.9602 15.055 62.2199 15.6535C62.4645 16.2256 62.107 16.8108 60.9967 17.1872C60.9967 17.1872 60.6956 17.3039 60.2684 17.4074C60.2684 17.4074 61.2187 17.6803 60.7614 18.4481C60.7614 18.4481 60.355 19.2535 58.9172 19.3965C58.9172 19.3965 59.9899 19.5132 59.2334 20.5332C59.2334 20.5332 58.9003 21.0921 57.8521 21.2991C57.8521 21.2991 58.6462 21.3254 58.2473 22.0387C57.8445 22.7538 56.9017 23.1565 55.9721 23.2224C55.9721 23.2224 55.4696 23.2487 55.1177 23.1697C55.1177 23.1697 56.0022 23.6119 55.4828 24.3515C55.4828 24.3515 55.1008 24.8784 54.1448 24.8521C54.1448 24.8521 54.3913 25.6801 53.6912 25.9925C53.1455 26.2371 52.692 25.8457 52.692 25.8457C52.692 25.8457 52.8764 26.7321 52.0804 27.0445C52.0804 27.0445 51.6833 27.2496 51.0905 27.0445C51.0905 27.0445 50.6388 28.0588 49.028 27.3456C47.4171 26.6361 48.6478 20.663 48.6478 20.663V20.6611ZM48.5537 29.871C48.5537 29.871 48.789 31.1394 50.6614 32.7353C50.6614 32.7353 52.1067 34.0093 52.0709 35.4771C52.0333 36.9732 52.3288 37.1407 52.8971 37.6469C52.8971 37.6469 51.7247 37.7392 51.1582 36.9582C51.1582 36.9582 51.1827 38.2567 51.3558 38.3752C51.3558 38.3752 50.987 38.3978 50.4544 37.8163C50.4544 37.8163 50.1345 37.4776 49.8372 37.3477C49.8372 37.3477 50.1834 38.2454 49.9124 39.0772C49.9124 39.0772 49.8259 38.7516 49.3686 38.6086C49.3686 38.6086 48.5405 38.4392 48.2206 37.2442C48.2206 37.2442 48.0117 36.4538 46.7151 35.75C46.7151 35.75 45.2473 35.1967 45.2849 34.4741C45.3225 33.7496 48.5518 29.871 48.5518 29.871H48.5537Z" fill="#F4C53D" stroke="#010002" stroke-width="0.188188"/>
<path d="M41.7485 46.2228C41.7485 46.2228 42.0854 47.7058 43.254 47.5872C43.254 47.5872 44.0802 47.5082 44.0181 46.1306C44.0181 46.1306 45.2394 46.7818 45.437 45.1709C45.437 45.1709 46.5473 45.4287 46.5341 43.9232C46.5341 43.9232 47.5692 44.1039 47.4468 42.7658C47.4468 42.7658 48.5703 43.0669 48.5703 41.8061C48.5703 41.8061 51.1974 41.3695 45.7212 36.375L40.8358 39.2844L41.7485 46.2228Z" fill="#F4C53D" stroke="#010002" stroke-width="0.188188" stroke-miterlimit="10"/>
<path d="M41.2046 39.563C41.2046 39.563 42.0195 40.2856 42.5991 39.2054C42.5991 39.2054 43.3895 39.1678 43.5118 38.5693C43.5118 38.5693 44.1535 38.5054 44.2777 37.8937C44.2777 37.8937 45.1528 37.8034 45.1284 37.0638C45.1284 37.0638 46.7204 36.9396 45.1284 35.1368C43.5363 33.334 40.8358 38.129 40.8358 38.129L41.2046 39.563ZM40.2976 39.1151C39.5072 39.1151 38.6133 44.0456 38.8448 47.0171C38.9295 48.0954 39.5072 48.9761 40.2976 48.9761C41.088 48.9761 41.6638 48.0954 41.7466 47.0171C41.98 44.0456 41.0861 39.1151 40.2976 39.1151Z" fill="#F4C53D" stroke="#010002" stroke-width="0.188188"/>
<path d="M40.2982 40.6958C39.6953 40.6958 39.2067 39.9712 39.2067 39.0774C39.2067 38.1836 39.6953 37.459 40.2982 37.459C40.901 37.459 41.3896 38.1836 41.3896 39.0774C41.3896 39.9712 40.901 40.6958 40.2982 40.6958Z" fill="#F4C53D" stroke="#010002" stroke-width="0.188188"/>
<path d="M44.018 46.1304C44.018 46.1304 43.8938 43.5203 41.6318 39.7772M45.4369 45.1707C45.4369 45.1707 45.7888 43.6633 42.5991 39.2051C42.5991 39.2051 42.9698 38.1419 41.835 37.4587M46.5341 43.923C46.5341 43.923 46.6338 42.2914 43.5118 38.569C43.5118 38.569 43.7884 37.6093 42.6574 36.8415M47.4468 42.7656C47.4468 42.7656 47.3301 41.1171 44.2777 37.8935C44.2777 37.8935 44.4282 36.9073 43.3367 36.2957M48.5684 41.8059C48.5684 41.8059 48.3482 39.9221 45.1283 37.0635C45.1283 37.0635 45.2393 36.3221 44.1667 35.5693" stroke="#010002" stroke-width="0.188188" stroke-miterlimit="10"/>
<path d="M73.4434 11.4043C73.4434 11.4043 70.916 12.8684 63.0385 14.3325M72.3218 13.4179C72.3218 13.4179 65.4774 15.6498 62.2895 15.9246M69.6269 15.9246C69.6269 15.9246 65.611 17.1854 60.9082 17.9814M66.2 18.5517C66.2 18.5517 61.6647 19.6413 59.4968 19.8219M63.1551 20.6932C63.1551 20.6932 59.318 21.493 58.347 21.589M60.7125 22.6673C60.7125 22.6673 57.9122 23.0926 56.7982 23.07M57.2348 24.3685C57.2348 24.3685 56.1019 24.3158 55.558 24.2255M56.1866 26.1883C56.1866 26.1883 55.223 25.9286 54.6566 25.5654M54.7676 28.0721C54.7676 28.0721 54.0262 27.786 53.6686 27.0069M52.9592 28.7684C52.9592 28.7684 52.3871 28.2546 52.3494 27.6825M50.8138 29.2162C50.8138 29.2162 51.0283 29.0299 50.8816 28.2245M51.0904 27.0427C51.0904 27.0427 51.2034 26.8131 51.1657 26.448M55.1365 15.5087C55.1365 15.5087 53.8418 16.0281 53.4108 16.7432C52.978 17.4583 53.2621 18.1527 53.4108 18.5498C53.4842 18.7511 54.3969 20.5107 53.3242 21.7847M55.1195 23.166C55.1195 23.166 55.112 23.1604 54.6566 23.0155M57.852 21.2954C57.852 21.2954 57.0805 21.4497 56.3221 21.4573M58.919 19.391C58.919 19.391 58.012 19.4832 57.1595 19.47M60.2684 17.4037C60.2684 17.4037 58.9605 17.6634 58.2585 17.6766M61.3542 15.1869C61.3542 15.1869 59.7414 15.646 58.5427 15.8098M55.8779 16.7582C55.8779 16.7582 57.0372 17.8365 55.6427 18.8377C55.6427 18.8377 56.2223 19.7466 55.0631 20.6951M55.3717 21.143C55.3717 21.143 55.5448 22.8781 53.4221 22.8781C53.4221 22.8781 53.8305 24.4231 51.7811 24.3723C51.7811 24.3723 51.5477 25.6068 50.0686 25.3584M53.3261 38.9361C53.3261 38.9361 53.663 39.0114 54.3913 38.9361M56.4387 39.8451C56.4387 39.8451 57.4625 39.6889 57.4135 41.9114M55.8215 40.3513C55.8215 40.3513 56.7474 40.2346 56.6871 42.3913M46.8882 35.1554C46.8882 35.1554 47.3323 35.2458 47.641 35.5977C47.9477 35.9477 48.5405 35.8818 48.5405 35.8818C48.5405 35.8818 48.2206 35.6221 48.1077 34.9729C47.9985 34.3237 47.6391 34.1279 47.6391 34.1279M48.6986 33.5144C48.6986 33.5144 49.1427 33.6048 49.4513 33.9548C49.76 34.3067 50.3528 34.2408 50.3528 34.2408C50.3528 34.2408 50.0328 33.9811 49.9199 33.3319C49.8089 32.6827 49.4513 32.4869 49.4513 32.4869M49.0053 36.0343C49.0053 36.0343 49.393 36.1152 49.6621 36.4201C49.9312 36.7268 50.4487 36.6703 50.4487 36.6703C50.4487 36.6703 50.1665 36.4445 50.0724 35.8762C49.9745 35.3098 49.6621 35.1385 49.6621 35.1385" stroke="#010002" stroke-width="0.188188"/>
<path d="M58.2496 32.0004L56.4621 39.7129L55.7246 39.1879L57.4746 31.7879L56.2496 31.8129L59.1371 26.5254L59.3246 32.6129L58.2496 32.0004ZM62.8746 33.6254L57.4996 39.9754L56.9246 39.3254L62.2746 33.0504L61.1871 32.4754L66.0871 29.2254L63.5496 34.7004L62.8746 33.6254Z" fill="#0081C6" stroke="#010002" stroke-width="0.1875" stroke-miterlimit="10"/>
<path d="M61.5748 30.2504L56.7623 39.5004L56.0248 39.0629L60.8623 29.8379L59.6873 29.5379L63.7748 25.2129L62.4623 31.1504L61.5748 30.2504ZM55.5748 42.3254L55.2123 43.7879L56.2123 44.7879L54.8123 50.6629L53.5623 49.0004L51.7373 49.8504L53.1248 43.9754L54.4248 43.6004L54.7498 42.1379C54.7498 42.1379 55.1498 41.9879 55.5748 42.3254Z" fill="#0081C6" stroke="#010002" stroke-width="0.1875" stroke-miterlimit="10"/>
<path d="M55.9129 41.3502L55.2004 42.6752L55.9129 43.8877L53.1129 49.2002L52.3254 47.2502L50.3379 47.5752L53.1379 42.2752H54.4754L55.1629 40.9502C55.1629 40.9502 55.6629 40.9502 55.9129 41.3502Z" fill="#0081C6" stroke="#010002" stroke-width="0.1875" stroke-miterlimit="10"/>
<path d="M56.0248 41.7375L54.1498 44.1375L54.5748 45.4875L50.7123 49.9875L50.3623 47.9125L48.3623 47.7625L52.2123 43.2625L53.5123 43.575L55.5123 41.025C55.5123 41.025 56.0623 41.3 56.0248 41.7375ZM8.1873 36.1125C8.6373 35.925 8.9623 35.75 8.9623 35.275C8.9623 35.15 8.8998 34.9 8.7748 34.5125L5.7498 25.25C5.64857 24.9123 5.52325 24.5823 5.3748 24.2625C5.2373 24.0125 4.9748 23.9 4.6123 23.7625H8.4498C8.0373 23.95 7.6498 24.1 7.6623 24.55C7.6623 24.7125 7.7123 24.95 7.7998 25.2625L10.1248 32.5125L12.4373 25.2625C12.5175 25.033 12.5639 24.7929 12.5748 24.55C12.5748 24.0875 12.1748 23.925 11.7873 23.75H15.5123C15.1748 23.8875 14.8873 24 14.7623 24.2625C14.6106 24.5866 14.4811 24.9207 14.3748 25.2625L11.3498 34.5C11.2663 34.7485 11.2036 35.0036 11.1623 35.2625C11.1623 35.2625 11.0248 35.85 11.9373 36.1H8.1873V36.1125ZM72.5998 35.1625V24.7C72.5998 24.525 72.5623 24.3875 72.4998 24.2875C72.4373 24.1875 72.1873 23.9125 71.8123 23.7625H75.2748C74.9972 23.8628 74.7571 24.0461 74.5873 24.2875C74.5248 24.3875 74.4998 24.525 74.4998 24.7V35.1625C74.4998 35.35 74.5248 35.4875 74.5873 35.5875C74.6498 35.6875 74.8998 35.9375 75.2748 36.1125H71.8123C72.1873 35.9375 72.4373 35.6875 72.4998 35.5875C72.5623 35.4875 72.5998 35.35 72.5998 35.1625Z" fill="#0081C6" stroke="#010002" stroke-width="0.1875" stroke-miterlimit="10"/>
<path d="M40.6 38.725C40.6 38.725 49.875 34.6125 49.8875 25.125H31.3125C31.3375 34.625 40.6 38.725 40.6 38.725Z" fill="white" stroke="#010002" stroke-width="0.1875"/>
<path d="M32.75 25.1248V31.1873C32.75 31.1873 33.45 32.5998 34.175 33.4748V25.1248H32.75ZM35.6 25.1248V35.1248C35.6 35.1248 36.5 35.9998 37.025 36.4248V25.1248H35.6ZM38.4625 25.1248V37.4873C38.4625 37.4873 39.475 38.1373 39.8875 38.3623V25.1123H38.4625V25.1248ZM48.4625 25.1248V31.1873C48.4625 31.1873 47.75 32.5998 47.025 33.4748V25.1248H48.4625ZM45.6 25.1248V35.1248C45.6 35.1248 44.7125 35.9998 44.175 36.4248V25.1248H45.6ZM42.75 25.1248V37.4873C42.75 37.4873 41.725 38.1373 41.3125 38.3623V25.1123H42.75V25.1248Z" fill="#A60032" stroke="#010002" stroke-width="0.1875"/>
<path d="M49.8875 18.2254C49.8875 18.2254 45.3375 20.6004 40.6 18.0254C35.8625 20.6004 31.3125 18.2254 31.3125 18.2254V25.1254H49.8875V18.2254Z" fill="#162667" stroke="#010002" stroke-width="0.1875" stroke-miterlimit="10"/>
</g>
<defs>
<clipPath id="clip0_3736_64660">
<rect width="80" height="60" fill="white"/>
</clipPath>
</defs>
</svg>
