<svg width="80" height="60" viewBox="0 0 80 60" fill="none" xmlns="http://www.w3.org/2000/svg">
<g clip-path="url(#clip0_4604_132723)">
<path d="M0 0H80V60H0V0Z" fill="white"/>
<path d="M25.5371 39.375C25.5371 39.375 25.4746 38.925 26.3121 38.6125C27.1371 38.2875 27.2121 37.0875 27.0371 36.2875C27.0371 36.2875 26.6121 37.0375 26.0746 37.3C26.0746 37.3 25.2246 37.75 25.1746 38.6C25.1746 38.6 25.1746 38.9125 25.1121 39.1625C25.0746 39.2875 24.6871 38.0875 25.4121 37.1875C26.1621 36.275 26.3621 35.525 25.7746 34.0625C25.7746 34.0625 25.7121 34.9375 25.1371 35.45C24.5496 35.95 24.4746 36 24.4871 37.2C24.4871 37.2 24.4871 37.625 24.2746 37.7625C24.2746 37.7625 23.8246 37.1 23.6996 36.6625C23.5746 36.225 23.5246 36.0375 24.0496 35.5375C24.0496 35.5375 25.6996 34.45 24.5121 32.1125C24.5121 32.1125 24.4746 32.9125 23.8871 33.3875C23.3246 33.875 23.3621 34.1875 23.3371 35.0125C23.3121 35.85 23.2621 35.7875 23.1996 35.9125C23.1996 35.9125 22.1371 33.9625 22.9496 32.9375C23.7621 31.9 24.2246 31.6875 23.3246 29.7625C23.3246 29.7625 23.3621 30.7625 22.6371 31.2375C21.9246 31.7375 22.0871 32.8625 22.0871 32.8625C22.0871 32.8625 22.1371 33.3 21.9871 33.6125C21.9871 33.6125 20.9746 31.625 21.9371 30.5625C22.7621 29.65 22.8121 29.0125 22.3746 27.7375C22.3746 27.7375 22.3246 28.325 21.8746 28.65C21.4121 28.975 21.0496 29.2875 21.1371 30.525C21.1371 30.525 21.1746 31.4 21.0621 31.65C21.0621 31.65 20.6371 30.85 20.5121 30.3375C20.3871 29.8125 20.3496 29.5125 20.6621 29C20.9746 28.4875 22.2246 27 20.7371 24.875C20.7371 24.875 20.6996 25.5625 20.3121 26.1875C19.9371 26.8125 20.1121 27.55 20.1871 28.1125C20.2746 28.675 19.9996 29.225 19.9996 29.225C19.9996 29.225 19.3496 28.0375 19.4996 26.675C19.6246 25.3 19.0746 24.175 17.8121 23.375C17.8121 23.375 16.8996 25.5 18.1496 26.5875C18.1496 26.5875 19.2121 27.6375 19.4871 28.9125C19.4871 28.9125 18.6746 28.8375 17.9496 27.4125C17.2121 25.9875 15.6996 26.2125 15.5996 26.2C15.5996 26.2 15.8496 28.4 18.1746 29.025C18.1746 29.025 19.6746 29.275 19.9496 30.375C19.9496 30.375 20.1996 31.125 20.2996 31.525C20.2996 31.525 19.8246 31.3375 19.3871 30.6875C18.9496 30.0625 19.0121 29.975 17.5371 29.825C17.5371 29.825 16.9496 29.7625 16.6371 29.3375C16.6371 29.3375 17.2621 31.6625 18.8496 31.65C18.8496 31.65 20.2996 31.4875 21.0996 33.4L20.7371 33.15C20.5246 33.0125 19.9871 32.7375 18.9246 32.8625C17.8621 32.9875 17.5621 32.8125 17.2996 32.7375C17.2996 32.7375 18.3746 34.7 19.8871 34.1125C21.4121 33.525 22.1371 35.6625 22.1621 35.7C22.1621 35.7 21.9496 35.55 21.6871 35.2875C21.4121 35.025 20.8621 34.7 19.8121 35.0375C19.8121 35.0375 19.0496 35.325 18.2746 35.0875C18.2746 35.0875 19.0246 36.525 20.7496 36.275C21.2037 36.1854 21.6749 36.2658 22.0735 36.5009C22.4722 36.7359 22.7707 37.1093 22.9121 37.55C22.9121 37.55 22.6871 37.425 22.5371 37.3C22.3746 37.175 21.7871 36.8375 20.5371 37.2C19.2871 37.575 18.8371 37.15 18.8371 37.15C18.8371 37.15 19.5246 38.4 20.8621 38.5625C20.8621 38.5625 21.6121 38.55 21.9121 38.4375C22.2246 38.3125 23.0621 38.125 23.6371 38.9625C23.6371 38.9625 23.4746 38.9875 23.2371 38.875C23.2371 38.875 22.3621 38.5625 21.6746 39.125C21.6746 39.125 21.0746 39.7375 20.2246 39.625C20.2246 39.625 21.3246 40.6875 23.0746 39.7875C23.0746 39.7875 23.6621 39.3625 24.0996 39.6875C24.5371 40.025 25.5371 39.3625 25.5371 39.3625V39.375Z" fill="#369443" stroke="#010002" stroke-width="0.1875" stroke-miterlimit="10"/>
<path d="M35.275 12.9636C35.275 12.9636 35.075 11.1511 36.525 10.9636C37.2761 10.8322 38.0479 10.8837 38.775 11.1136L39.4625 12.4386L39.2125 13.3386L38.2875 13.7636C38.2875 13.7636 38.45 12.3886 37.1875 12.3636C36.8625 12.3636 36.6875 12.4886 36.175 12.4011C35.6625 12.3136 35.3875 12.8761 35.275 12.9636Z" fill="#F4C53D" stroke="#010002" stroke-width="0.1875" stroke-miterlimit="10"/>
<path d="M45.4742 17.4506C45.2492 17.7256 44.3867 17.8256 44.3867 17.8256C44.3867 17.8256 45.2742 18.5131 45.6617 19.4881C46.0367 20.4506 35.3617 19.4881 35.3617 19.4881C35.3617 19.4881 35.8367 19.1631 36.1492 18.5381C36.1492 18.5381 35.6742 18.7131 35.1992 18.2381C35.1992 18.2381 35.5492 18.3631 36.0117 17.6631C36.0117 17.6631 36.6992 16.7881 37.1867 16.5381C37.1867 16.5381 36.9617 16.6881 36.4242 16.3881C36.4242 16.3881 37.3492 16.2631 37.6742 14.7006C37.6742 14.7006 37.7367 14.3506 38.0867 13.8256C38.4367 13.3256 38.3617 13.9381 39.0117 13.1506C39.0117 13.1506 39.3117 12.6006 39.0492 12.2756C38.7992 11.9256 38.5117 12.0506 37.9742 11.7256C37.4242 11.4006 37.1867 11.2256 37.3742 10.7256C37.5617 10.2256 38.0367 10.3006 38.1117 10.3006C38.1867 10.3006 38.2117 9.86306 38.7992 9.56306C39.3867 9.26306 40.9742 9.40056 41.1992 9.52556C41.4492 9.65056 42.3867 9.93806 42.9492 11.3381C43.4992 12.7381 42.7992 13.2631 44.2992 15.3881C44.2992 15.3881 43.6992 15.5131 43.3117 15.3881C43.3117 15.3881 44.0992 16.7881 45.4742 17.4506Z" fill="#F4C53D" stroke="#010002" stroke-width="0.1875" stroke-miterlimit="10"/>
<path d="M38.8737 11.5258C37.6237 11.4633 38.1112 10.3008 38.1112 10.3008" stroke="#010002" stroke-width="0.1875" stroke-miterlimit="10"/>
<path d="M40.9988 11.6878C40.9988 11.6878 40.7863 11.5878 40.5988 11.3378C40.3488 11.0003 39.7613 10.8378 39.4613 11.1628C39.4613 11.1628 39.1488 11.5128 38.8613 11.5378C38.8613 11.5378 39.1863 11.6253 39.3988 11.8253C39.6113 12.0253 39.8363 12.1753 40.1613 12.1253C40.4863 12.0878 40.5363 11.9128 40.6863 11.8128C40.8488 11.7128 40.9988 11.6878 40.9988 11.6878Z" fill="#F4C53D" stroke="#010002" stroke-width="0.1875" stroke-miterlimit="10"/>
<path d="M25.3497 42.0629C25.3497 42.0629 25.3247 41.2629 26.3247 41.2129L29.2622 45.3004C29.2622 45.3004 29.1497 45.5629 27.8247 45.5379C27.8247 45.5379 27.6747 45.5379 27.5997 45.6879C27.4872 45.9379 25.3497 42.0629 25.3497 42.0629Z" fill="#369443" stroke="#010002" stroke-width="0.1875" stroke-miterlimit="10"/>
<path d="M28.5838 37.2971C28.5838 37.2971 27.6447 38.908 26.51 38.9344C26.51 38.9344 24.5585 38.6973 24.0071 39.2072C23.6213 39.5629 23.228 39.8565 23.0661 40.7654C22.9081 41.6744 23.3766 41.8701 23.4877 41.9096C23.4877 41.9096 23.5742 42.5589 24.216 42.3895C24.216 42.3895 24.2536 43.067 25.3865 42.7414C26.5213 42.4158 26.9917 42.5193 27.2119 41.3902C27.4359 40.2592 27.641 40.278 27.8423 40.1425C28.1133 39.96 28.6233 39.7887 29.0016 39.5704C29.3403 39.3747 30.6426 38.7123 31.0867 38.6615C31.5308 38.6088 31.433 37.1146 31.433 37.1146H30.285L29.7299 36.296L28.5819 37.2971H28.5838ZM32.197 29.2164C32.197 29.2164 31.0491 30.1517 30.0855 29.2164C30.0855 29.2164 29.6979 29.6831 28.9188 29.5476C28.1434 29.4102 28.0136 29.0018 27.9402 28.7685C27.9402 28.7685 27.2665 29.1599 26.6982 28.8494C26.1336 28.5408 26.1336 28.0722 26.1336 28.0722C26.1336 28.0722 25.1456 28.2679 24.6394 27.598C24.1332 26.9299 24.4418 26.2675 24.7147 26.1884C24.7147 26.1884 23.6476 26.4688 23.3559 25.5524C23.2783 25.3477 23.2663 25.124 23.3216 24.9122C23.3769 24.7004 23.4968 24.5111 23.6646 24.3705C23.6646 24.3705 21.4176 24.3593 20.4955 23.6554C20.4955 23.6554 19.7296 23.1737 20.1869 22.6674C20.1869 22.6674 18.1639 22.3438 17.6576 21.5383C17.6576 21.5383 17.4356 21.3163 17.509 20.9267C17.509 20.9267 17.5221 20.7065 17.7442 20.6934C17.7442 20.6934 15.437 20.3358 14.7708 19.5755C14.7708 19.5755 14.4509 19.2255 14.6109 18.7569C14.6109 18.7569 14.6447 18.6346 14.6993 18.5499C14.6993 18.5499 12.5992 18.1077 11.5641 17.1724C11.5641 17.1724 10.9657 16.6398 11.2743 15.9247C11.2743 15.9247 7.76461 14.9649 8.57758 13.418C8.57758 13.418 6.93659 12.8855 7.45599 11.4044C7.45599 11.4044 6.09916 10.7157 6.69006 9.62417C7.25651 8.57973 8.99724 9.80671 11.056 10.3769C11.056 10.3769 16.6339 12.1308 19.3795 12.5975L27.1818 24.2143L31.7341 25.9683L32.1951 29.2164H32.197Z" fill="#F4C53D" stroke="#010002" stroke-width="0.188188"/>
<path d="M32.2516 20.6621C32.2516 20.6621 31.5195 20.1126 30.2154 20.7581C30.2154 20.7581 29.7769 21.0611 29.4307 20.7299C29.3556 20.6582 29.2973 20.5708 29.2601 20.474C29.2228 20.3771 29.2075 20.2732 29.2153 20.1697C29.223 20.0662 29.2536 19.9657 29.3048 19.8755C29.3561 19.7852 29.4267 19.7075 29.5116 19.6478C30.4845 18.927 30.844 16.7648 29.3648 15.8671C29.3648 15.8671 27.2195 14.595 19.3476 12.5926C19.3476 12.5926 18.6889 12.4082 18.3351 12.4967C18.164 12.5403 18.0078 12.6295 17.8832 12.7548C17.7587 12.88 17.6703 13.0366 17.6275 13.208C17.6275 13.208 17.2738 14.2111 18.4593 14.785C18.4593 14.785 18.9938 15.0297 19.5452 15.1877C19.5452 15.1877 18.9392 15.056 18.6795 15.6544C18.4349 16.2265 18.7924 16.8118 19.9027 17.1882C19.9027 17.1882 20.2038 17.3049 20.631 17.4084C20.631 17.4084 19.6807 17.6812 20.138 18.449C20.138 18.449 20.5445 19.2545 21.9822 19.3975C21.9822 19.3975 20.9095 19.5142 21.6661 20.5342C21.6661 20.5342 21.9991 21.0931 23.0473 21.3001C23.0473 21.3001 22.2532 21.3264 22.6522 22.0396C23.0549 22.7548 23.9977 23.1575 24.9273 23.2234C24.9273 23.2234 25.4298 23.2497 25.7817 23.1707C25.7817 23.1707 24.8972 23.6129 25.4166 24.3525C25.4166 24.3525 25.7987 24.8794 26.7546 24.8531C26.7546 24.8531 26.5081 25.6811 27.2082 25.9935C27.7539 26.2381 28.2074 25.8467 28.2074 25.8467C28.2074 25.8467 28.023 26.733 28.8191 27.0454C28.8191 27.0454 29.2161 27.2506 29.8089 27.0454C29.8089 27.0454 30.2606 28.0598 31.8715 27.3465C33.4823 26.6371 32.2516 20.664 32.2516 20.664V20.6621ZM32.3457 29.872C32.3457 29.872 32.1105 31.1404 30.238 32.7362C30.238 32.7362 28.7927 34.0103 28.8285 35.4781C28.8661 36.9742 28.5707 37.1417 28.0023 37.6479C28.0023 37.6479 29.1747 37.7401 29.7412 36.9592C29.7412 36.9592 29.7167 38.2576 29.5436 38.3762C29.5436 38.3762 29.9124 38.3988 30.445 37.8173C30.445 37.8173 30.7649 37.4786 31.0623 37.3487C31.0623 37.3487 30.716 38.2464 30.987 39.0781C30.987 39.0781 31.0735 38.7526 31.5308 38.6096C31.5308 38.6096 32.3589 38.4402 32.6788 37.2452C32.6788 37.2452 32.8877 36.4548 34.1843 35.751C34.1843 35.751 35.6521 35.1977 35.6145 34.4751C35.5769 33.7506 32.3476 29.872 32.3476 29.872H32.3457Z" fill="#F4C53D" stroke="#010002" stroke-width="0.188188"/>
<path d="M39.1509 46.2228C39.1509 46.2228 38.814 47.7058 37.6454 47.5872C37.6454 47.5872 36.8192 47.5082 36.8813 46.1306C36.8813 46.1306 35.66 46.7818 35.4624 45.1709C35.4624 45.1709 34.3521 45.4287 34.3653 43.9232C34.3653 43.9232 33.3302 44.1039 33.4526 42.7658C33.4526 42.7658 32.3291 43.0669 32.3291 41.8061C32.3291 41.8061 29.702 41.3695 35.1783 36.375L40.0636 39.2844L39.1509 46.2228Z" fill="#F4C53D" stroke="#010002" stroke-width="0.188188" stroke-miterlimit="10"/>
<path d="M39.6938 39.562C39.6938 39.562 38.8789 40.2846 38.2993 39.2044C38.2993 39.2044 37.5089 39.1668 37.3866 38.5684C37.3866 38.5684 36.7449 38.5044 36.6207 37.8928C36.6207 37.8928 35.7456 37.8024 35.7701 37.0629C35.7701 37.0629 34.178 36.9387 35.7701 35.1358C37.3622 33.333 40.0626 38.128 40.0626 38.128L39.6938 39.562ZM40.6009 39.1141C41.3912 39.1141 42.2851 44.0446 42.0537 47.0161C41.969 48.0944 41.3912 48.9751 40.6009 48.9751C39.8105 48.9751 39.2346 48.0944 39.1518 47.0161C38.9185 44.0446 39.8124 39.1141 40.6009 39.1141Z" fill="#F4C53D" stroke="#010002" stroke-width="0.188188"/>
<path d="M40.6013 40.6958C41.2041 40.6958 41.6927 39.9712 41.6927 39.0774C41.6927 38.1836 41.2041 37.459 40.6013 37.459C39.9984 37.459 39.5098 38.1836 39.5098 39.0774C39.5098 39.9712 39.9984 40.6958 40.6013 40.6958Z" fill="#F4C53D" stroke="#010002" stroke-width="0.188188"/>
<path d="M36.8805 46.1314C36.8805 46.1314 37.0047 43.5212 39.2667 39.7782M35.4615 45.1716C35.4615 45.1716 35.1096 43.6643 38.2994 39.2061C38.2994 39.2061 37.9287 38.1428 39.0634 37.4597M34.3644 43.924C34.3644 43.924 34.2646 42.2924 37.3867 38.57C37.3867 38.57 37.11 37.6103 38.241 36.8425M33.4517 42.7666C33.4517 42.7666 33.5684 41.1181 36.6208 37.8944C36.6208 37.8944 36.4702 36.9083 37.5617 36.2967M32.3301 41.8068C32.3301 41.8068 32.5503 39.9231 35.7701 37.0645C35.7701 37.0645 35.6591 36.3231 36.7318 35.5703" stroke="#010002" stroke-width="0.188188" stroke-miterlimit="10"/>
<path d="M7.45508 11.4043C7.45508 11.4043 9.98244 12.8684 17.86 14.3325M8.57668 13.4179C8.57668 13.4179 15.4211 15.6498 18.609 15.9246M11.2715 15.9246C11.2715 15.9246 15.2874 17.1854 19.9902 17.9814M14.6984 18.5517C14.6984 18.5517 19.2337 19.6413 21.4017 19.8219M17.7433 20.6932C17.7433 20.6932 21.5804 21.493 22.5515 21.589M20.186 22.6673C20.186 22.6673 22.9862 23.0926 24.1003 23.07M23.6637 24.3685C23.6637 24.3685 24.7966 24.3158 25.3404 24.2255M24.7119 26.1883C24.7119 26.1883 25.6754 25.9286 26.2418 25.5654M26.1308 28.0721C26.1308 28.0721 26.8723 27.786 27.2298 27.0069M27.9393 28.7684C27.9393 28.7684 28.5114 28.2546 28.549 27.6825M30.0846 29.2162C30.0846 29.2162 29.8701 29.0299 30.0169 28.2245M29.808 27.0427C29.808 27.0427 29.6951 26.8131 29.7327 26.448M25.762 15.5087C25.762 15.5087 27.0567 16.0281 27.4876 16.7432C27.9205 17.4583 27.6363 18.1527 27.4876 18.5498C27.4142 18.7511 26.5015 20.5107 27.5742 21.7847M25.7789 23.166C25.7789 23.166 25.7864 23.1604 26.2418 23.0155M23.0464 21.2954C23.0464 21.2954 23.818 21.4497 24.5764 21.4573M21.9794 19.391C21.9794 19.391 22.8865 19.4832 23.7389 19.47M20.6301 17.4037C20.6301 17.4037 21.938 17.6634 22.6399 17.6766M19.5442 15.1869C19.5442 15.1869 21.157 15.646 22.3558 15.8098M25.0205 16.7582C25.0205 16.7582 23.8613 17.8365 25.2557 18.8377C25.2557 18.8377 24.6761 19.7466 25.8354 20.6951M25.5267 21.143C25.5267 21.143 25.3536 22.8781 27.4763 22.8781C27.4763 22.8781 27.068 24.4231 29.1173 24.3723C29.1173 24.3723 29.3507 25.6068 30.8298 25.3584M27.5723 38.9361C27.5723 38.9361 27.2355 39.0114 26.5072 38.9361M24.4597 39.8451C24.4597 39.8451 23.436 39.6889 23.4849 41.9114M25.077 40.3513C25.077 40.3513 24.1511 40.2346 24.2113 42.3913M34.0102 35.1554C34.0102 35.1554 33.5661 35.2458 33.2575 35.5977C32.9507 35.9477 32.3579 35.8818 32.3579 35.8818C32.3579 35.8818 32.6778 35.6221 32.7908 34.9729C32.8999 34.3237 33.2593 34.1279 33.2593 34.1279M32.1998 33.5144C32.1998 33.5144 31.7557 33.6048 31.4471 33.9548C31.1385 34.3067 30.5457 34.2408 30.5457 34.2408C30.5457 34.2408 30.8656 33.9811 30.9785 33.3319C31.0895 32.6827 31.4471 32.4869 31.4471 32.4869M31.8931 36.0343C31.8931 36.0343 31.5054 36.1152 31.2363 36.4201C30.9672 36.7268 30.4497 36.6703 30.4497 36.6703C30.4497 36.6703 30.732 36.4445 30.8261 35.8762C30.9239 35.3098 31.2363 35.1385 31.2363 35.1385" stroke="#010002" stroke-width="0.188188"/>
<path d="M52.3166 37.2971C52.3166 37.2971 53.2556 38.908 54.3904 38.9344C54.3904 38.9344 56.3419 38.6973 56.8933 39.2072C57.2791 39.5629 57.6724 39.8565 57.8343 40.7654C57.9923 41.6744 57.5237 41.8701 57.4127 41.9096C57.4127 41.9096 57.3261 42.5589 56.6844 42.3895C56.6844 42.3895 56.6468 43.067 55.5139 42.7414C54.3791 42.4158 53.9087 42.5193 53.6885 41.3902C53.4645 40.2592 53.2594 40.278 53.0581 40.1425C52.7871 39.96 52.2771 39.7887 51.8988 39.5704C51.5601 39.3747 50.2578 38.7123 49.8137 38.6615C49.3696 38.6088 49.4674 37.1146 49.4674 37.1146H50.6154L51.1705 36.296L52.3185 37.2971H52.3166ZM48.7034 29.2164C48.7034 29.2164 49.8513 30.1517 50.8149 29.2164C50.8149 29.2164 51.2025 29.6831 51.9816 29.5476C52.757 29.4102 52.8868 29.0018 52.9602 28.7685C52.9602 28.7685 53.6339 29.1599 54.2022 28.8494C54.7668 28.5408 54.7668 28.0722 54.7668 28.0722C54.7668 28.0722 55.7548 28.2679 56.261 27.598C56.7672 26.9299 56.4586 26.2675 56.1857 26.1884C56.1857 26.1884 57.2528 26.4688 57.5444 25.5524C57.6221 25.3477 57.6341 25.124 57.5788 24.9122C57.5235 24.7004 57.4036 24.5111 57.2358 24.3705C57.2358 24.3705 59.4828 24.3593 60.4049 23.6554C60.4049 23.6554 61.1708 23.1737 60.7135 22.6674C60.7135 22.6674 62.7365 22.3438 63.2428 21.5383C63.2428 21.5383 63.4648 21.3163 63.3914 20.9267C63.3914 20.9267 63.3783 20.7065 63.1562 20.6934C63.1562 20.6934 65.4634 20.3358 66.1296 19.5755C66.1296 19.5755 66.4495 19.2255 66.2895 18.7569C66.2895 18.7569 66.2556 18.6346 66.2011 18.5499C66.2011 18.5499 68.3012 18.1077 69.3363 17.1724C69.3363 17.1724 69.9347 16.6398 69.6261 15.9247C69.6261 15.9247 73.1358 14.9649 72.3228 13.418C72.3228 13.418 73.9638 12.8855 73.4444 11.4044C73.4444 11.4044 74.8012 10.7157 74.2103 9.62417C73.6439 8.57973 71.9031 9.80671 69.8444 10.3769C69.8444 10.3769 64.2665 12.1308 61.5208 12.5975L53.7186 24.2143L49.1663 25.9683L48.7053 29.2164H48.7034Z" fill="#F4C53D" stroke="#010002" stroke-width="0.188188"/>
<path d="M48.6488 20.6621C48.6488 20.6621 49.3808 20.1126 50.685 20.7581C50.685 20.7581 51.1235 21.0611 51.4697 20.7299C51.5448 20.6582 51.6031 20.5708 51.6403 20.474C51.6775 20.3771 51.6929 20.2732 51.6851 20.1697C51.6774 20.0662 51.6468 19.9657 51.5955 19.8755C51.5443 19.7852 51.4737 19.7075 51.3888 19.6478C50.4159 18.927 50.0564 16.7648 51.5356 15.8671C51.5356 15.8671 53.6809 14.595 61.5528 12.5926C61.5528 12.5926 62.2115 12.4082 62.5653 12.4967C62.7364 12.5403 62.8926 12.6295 63.0172 12.7548C63.1417 12.88 63.2301 13.0366 63.2728 13.208C63.2728 13.208 63.6266 14.2111 62.4411 14.785C62.4411 14.785 61.9066 15.0297 61.3552 15.1877C61.3552 15.1877 61.9612 15.056 62.2209 15.6544C62.4655 16.2265 62.108 16.8118 60.9977 17.1882C60.9977 17.1882 60.6966 17.3049 60.2694 17.4084C60.2694 17.4084 61.2197 17.6812 60.7624 18.449C60.7624 18.449 60.3559 19.2545 58.9182 19.3975C58.9182 19.3975 59.9909 19.5142 59.2343 20.5342C59.2343 20.5342 58.9012 21.0931 57.853 21.3001C57.853 21.3001 58.6472 21.3264 58.2482 22.0396C57.8455 22.7548 56.9027 23.1575 55.9731 23.2234C55.9731 23.2234 55.4706 23.2497 55.1187 23.1707C55.1187 23.1707 56.0032 23.6129 55.4838 24.3525C55.4838 24.3525 55.1017 24.8794 54.1457 24.8531C54.1457 24.8531 54.3923 25.6811 53.6922 25.9935C53.1465 26.2381 52.6929 25.8467 52.6929 25.8467C52.6929 25.8467 52.8774 26.733 52.0813 27.0454C52.0813 27.0454 51.6843 27.2506 51.0915 27.0454C51.0915 27.0454 50.6398 28.0598 49.0289 27.3465C47.418 26.6371 48.6488 20.664 48.6488 20.664V20.6621ZM48.5547 29.872C48.5547 29.872 48.7899 31.1404 50.6624 32.7362C50.6624 32.7362 52.1077 34.0103 52.0719 35.4781C52.0343 36.9742 52.3297 37.1417 52.8981 37.6479C52.8981 37.6479 51.7257 37.7401 51.1592 36.9592C51.1592 36.9592 51.1837 38.2576 51.3568 38.3762C51.3568 38.3762 50.988 38.3988 50.4554 37.8173C50.4554 37.8173 50.1355 37.4786 49.8381 37.3487C49.8381 37.3487 50.1844 38.2464 49.9134 39.0781C49.9134 39.0781 49.8268 38.7526 49.3695 38.6096C49.3695 38.6096 48.5415 38.4402 48.2216 37.2452C48.2216 37.2452 48.0127 36.4548 46.7161 35.751C46.7161 35.751 45.2482 35.1977 45.2859 34.4751C45.3235 33.7506 48.5528 29.872 48.5528 29.872H48.5547Z" fill="#F4C53D" stroke="#010002" stroke-width="0.188188"/>
<path d="M41.7495 46.2228C41.7495 46.2228 42.0864 47.7058 43.255 47.5872C43.255 47.5872 44.0811 47.5082 44.019 46.1306C44.019 46.1306 45.2404 46.7818 45.438 45.1709C45.438 45.1709 46.5483 45.4287 46.5351 43.9232C46.5351 43.9232 47.5701 44.1039 47.4478 42.7658C47.4478 42.7658 48.5713 43.0669 48.5713 41.8061C48.5713 41.8061 51.1984 41.3695 45.7221 36.375L40.8368 39.2844L41.7495 46.2228Z" fill="#F4C53D" stroke="#010002" stroke-width="0.188188" stroke-miterlimit="10"/>
<path d="M41.2066 39.562C41.2066 39.562 42.0214 40.2846 42.6011 39.2044C42.6011 39.2044 43.3915 39.1668 43.5138 38.5684C43.5138 38.5684 44.1555 38.5044 44.2797 37.8928C44.2797 37.8928 45.1548 37.8024 45.1303 37.0629C45.1303 37.0629 46.7224 36.9387 45.1303 35.1358C43.5382 33.333 40.8377 38.128 40.8377 38.128L41.2066 39.562ZM40.2995 39.1141C39.5091 39.1141 38.6153 44.0446 38.8467 47.0161C38.9314 48.0944 39.5091 48.9751 40.2995 48.9751C41.0899 48.9751 41.6658 48.0944 41.7486 47.0161C41.9819 44.0446 41.088 39.1141 40.2995 39.1141Z" fill="#F4C53D" stroke="#010002" stroke-width="0.188188"/>
<path d="M40.2991 40.6958C39.6963 40.6958 39.2076 39.9712 39.2076 39.0774C39.2076 38.1836 39.6963 37.459 40.2991 37.459C40.9019 37.459 41.3906 38.1836 41.3906 39.0774C41.3906 39.9712 40.9019 40.6958 40.2991 40.6958Z" fill="#F4C53D" stroke="#010002" stroke-width="0.188188"/>
<path d="M44.0199 46.1314C44.0199 46.1314 43.8957 43.5212 41.6337 39.7782M45.4389 45.1716C45.4389 45.1716 45.7908 43.6643 42.601 39.2061C42.601 39.2061 42.9717 38.1428 41.837 37.4597M46.536 43.924C46.536 43.924 46.6357 42.2924 43.5137 38.57C43.5137 38.57 43.7904 37.6103 42.6593 36.8425M47.4487 42.7666C47.4487 42.7666 47.332 41.1181 44.2796 37.8944C44.2796 37.8944 44.4302 36.9083 43.3387 36.2967M48.5703 41.8068C48.5703 41.8068 48.3501 39.9231 45.1302 37.0645C45.1302 37.0645 45.2413 36.3231 44.1686 35.5703" stroke="#010002" stroke-width="0.188188" stroke-miterlimit="10"/>
<path d="M73.4453 11.4043C73.4453 11.4043 70.918 12.8684 63.0404 14.3325M72.3237 13.4179C72.3237 13.4179 65.4793 15.6498 62.2914 15.9246M69.6289 15.9246C69.6289 15.9246 65.6129 17.1854 60.9101 17.9814M66.202 18.5517C66.202 18.5517 61.6667 19.6413 59.4987 19.8219M63.1571 20.6932C63.1571 20.6932 59.32 21.493 58.3489 21.589M60.7144 22.6673C60.7144 22.6673 57.9142 23.0926 56.8001 23.07M57.2367 24.3685C57.2367 24.3685 56.1038 24.3158 55.56 24.2255M56.1885 26.1883C56.1885 26.1883 55.225 25.9286 54.6586 25.5654M54.7696 28.0721C54.7696 28.0721 54.0281 27.786 53.6706 27.0069M52.9611 28.7684C52.9611 28.7684 52.389 28.2546 52.3514 27.6825M50.8158 29.2162C50.8158 29.2162 51.0303 29.0299 50.8835 28.2245M51.0924 27.0427C51.0924 27.0427 51.2053 26.8131 51.1677 26.448M55.1384 15.5087C55.1384 15.5087 53.8437 16.0281 53.4128 16.7432C52.9799 17.4583 53.2641 18.1527 53.4128 18.5498C53.4861 18.7511 54.3989 20.5107 53.3262 21.7847M55.1215 23.166C55.1215 23.166 55.114 23.1604 54.6586 23.0155M57.854 21.2954C57.854 21.2954 57.0824 21.4497 56.324 21.4573M58.921 19.391C58.921 19.391 58.0139 19.4832 57.1614 19.47M60.2703 17.4037C60.2703 17.4037 58.9624 17.6634 58.2605 17.6766M61.3561 15.1869C61.3561 15.1869 59.7434 15.646 58.5446 15.8098M55.8799 16.7582C55.8799 16.7582 57.0391 17.8365 55.6447 18.8377C55.6447 18.8377 56.2243 19.7466 55.065 20.6951M55.3737 21.143C55.3737 21.143 55.5468 22.8781 53.424 22.8781C53.424 22.8781 53.8324 24.4231 51.783 24.3723C51.783 24.3723 51.5497 25.6068 50.0705 25.3584M53.3281 38.9361C53.3281 38.9361 53.6649 39.0114 54.3932 38.9361M56.4407 39.8451C56.4407 39.8451 57.4644 39.6889 57.4155 41.9114M55.8234 40.3513C55.8234 40.3513 56.7493 40.2346 56.6891 42.3913M46.8902 35.1554C46.8902 35.1554 47.3343 35.2458 47.6429 35.5977C47.9497 35.9477 48.5425 35.8818 48.5425 35.8818C48.5425 35.8818 48.2225 35.6221 48.1096 34.9729C48.0005 34.3237 47.641 34.1279 47.641 34.1279M48.7005 33.5144C48.7005 33.5144 49.1447 33.6048 49.4533 33.9548C49.7619 34.3067 50.3547 34.2408 50.3547 34.2408C50.3547 34.2408 50.0348 33.9811 49.9219 33.3319C49.8108 32.6827 49.4533 32.4869 49.4533 32.4869M49.0073 36.0343C49.0073 36.0343 49.395 36.1152 49.6641 36.4201C49.9332 36.7268 50.4507 36.6703 50.4507 36.6703C50.4507 36.6703 50.1684 36.4445 50.0743 35.8762C49.9765 35.3098 49.6641 35.1385 49.6641 35.1385" stroke="#010002" stroke-width="0.188188"/>
<path d="M58.2496 32.0004L56.4621 39.7129L55.7246 39.1879L57.4746 31.7879L56.2496 31.8129L59.1371 26.5254L59.3246 32.6129L58.2496 32.0004ZM62.8746 33.6254L57.4996 39.9754L56.9246 39.3254L62.2746 33.0504L61.1871 32.4754L66.0871 29.2254L63.5496 34.7004L62.8746 33.6254Z" fill="#0081C6" stroke="#010002" stroke-width="0.1875" stroke-miterlimit="10"/>
<path d="M61.5758 30.2504L56.7633 39.5004L56.0258 39.0629L60.8633 29.8379L59.6883 29.5379L63.7758 25.2129L62.4633 31.1504L61.5758 30.2504ZM55.5758 42.3254L55.2133 43.7879L56.2133 44.7879L54.8133 50.6629L53.5633 49.0004L51.7383 49.8504L53.1258 43.9754L54.4258 43.6004L54.7508 42.1379C54.7508 42.1379 55.1508 41.9879 55.5758 42.3254Z" fill="#0081C6" stroke="#010002" stroke-width="0.1875" stroke-miterlimit="10"/>
<path d="M55.9129 41.3492L55.2004 42.6742L55.9129 43.8867L53.1129 49.1992L52.3254 47.2492L50.3379 47.5742L53.1379 42.2742H54.4754L55.1629 40.9492C55.1629 40.9492 55.6629 40.9492 55.9129 41.3492Z" fill="#0081C6" stroke="#010002" stroke-width="0.1875" stroke-miterlimit="10"/>
<path d="M56.0258 41.7375L54.1508 44.1375L54.5758 45.4875L50.7133 49.9875L50.3633 47.9125L48.3633 47.7625L52.2133 43.2625L53.5133 43.575L55.5133 41.025C55.5133 41.025 56.0633 41.3 56.0258 41.7375ZM8.18828 36.1125C8.63828 35.925 8.96328 35.75 8.96328 35.275C8.96328 35.15 8.90078 34.9 8.77578 34.5125L5.75078 25.25C5.64954 24.9123 5.52422 24.5823 5.37578 24.2625C5.23828 24.0125 4.97578 23.9 4.61328 23.7625H8.45078C8.03828 23.95 7.65078 24.1 7.66328 24.55C7.66328 24.7125 7.71328 24.95 7.80078 25.2625L10.1258 32.5125L12.4383 25.2625C12.5185 25.033 12.5648 24.7929 12.5758 24.55C12.5758 24.0875 12.1758 23.925 11.7883 23.75H15.5133C15.1758 23.8875 14.8883 24 14.7633 24.2625C14.6115 24.5866 14.4821 24.9207 14.3758 25.2625L11.3508 34.5C11.2673 34.7485 11.2046 35.0036 11.1633 35.2625C11.1633 35.2625 11.0258 35.85 11.9383 36.1H8.18828V36.1125ZM72.6008 35.1625V24.7C72.6008 24.525 72.5633 24.3875 72.5008 24.2875C72.4383 24.1875 72.1883 23.9125 71.8133 23.7625H75.2758C74.9981 23.8628 74.7581 24.0461 74.5883 24.2875C74.5258 24.3875 74.5008 24.525 74.5008 24.7V35.1625C74.5008 35.35 74.5258 35.4875 74.5883 35.5875C74.6508 35.6875 74.9008 35.9375 75.2758 36.1125H71.8133C72.1883 35.9375 72.4383 35.6875 72.5008 35.5875C72.5633 35.4875 72.6008 35.35 72.6008 35.1625Z" fill="#0081C6" stroke="#010002" stroke-width="0.1875" stroke-miterlimit="10"/>
<path d="M40.6 38.725C40.6 38.725 49.875 34.6125 49.8875 25.125H31.3125C31.3375 34.625 40.6 38.725 40.6 38.725Z" fill="white" stroke="#010002" stroke-width="0.1875"/>
<path d="M32.75 25.1258V31.1883C32.75 31.1883 33.45 32.6008 34.175 33.4758V25.1258H32.75ZM35.6 25.1258V35.1258C35.6 35.1258 36.5 36.0008 37.025 36.4258V25.1258H35.6ZM38.4625 25.1258V37.4883C38.4625 37.4883 39.475 38.1383 39.8875 38.3633V25.1133H38.4625V25.1258ZM48.4625 25.1258V31.1883C48.4625 31.1883 47.75 32.6008 47.025 33.4758V25.1258H48.4625ZM45.6 25.1258V35.1258C45.6 35.1258 44.7125 36.0008 44.175 36.4258V25.1258H45.6ZM42.75 25.1258V37.4883C42.75 37.4883 41.725 38.1383 41.3125 38.3633V25.1133H42.75V25.1258Z" fill="#A60032" stroke="#010002" stroke-width="0.1875"/>
<path d="M49.8875 18.2254C49.8875 18.2254 45.3375 20.6004 40.6 18.0254C35.8625 20.6004 31.3125 18.2254 31.3125 18.2254V25.1254H49.8875V18.2254Z" fill="#162667" stroke="#010002" stroke-width="0.1875" stroke-miterlimit="10"/>
</g>
<defs>
<clipPath id="clip0_4604_132723">
<rect width="80" height="60" fill="white"/>
</clipPath>
</defs>
</svg>
