<svg width="80" height="60" viewBox="0 0 80 60" fill="none" xmlns="http://www.w3.org/2000/svg">
<g clip-path="url(#clip0_3736_64742)">
<mask id="mask0_3736_64742" style="mask-type:luminance" maskUnits="userSpaceOnUse" x="-1" y="0" width="81" height="60">
<path d="M-0.00390625 0H80V60H-0.00390625V0Z" fill="white"/>
</mask>
<g mask="url(#mask0_3736_64742)">
<path fill-rule="evenodd" clip-rule="evenodd" d="M-10 0H80V60H-10V0Z" fill="#198A00"/>
<path fill-rule="evenodd" clip-rule="evenodd" d="M69.4414 21.5625H80V60H69.4414V21.5625Z" fill="#EF7D00"/>
<path fill-rule="evenodd" clip-rule="evenodd" d="M58.8945 21.5391H69.4414V59.9766H58.8945V21.5391Z" fill="black"/>
<path fill-rule="evenodd" clip-rule="evenodd" d="M48.125 21.5625H58.8945V60H48.1133L48.125 21.5625Z" fill="#DE2010"/>
<path fill-rule="evenodd" clip-rule="evenodd" d="M72.9214 7.6875C72.9214 7.6875 76.9058 5.98828 77.2808 5.63672C77.4565 5.84766 75.687 7.98047 72.2534 8.76563C75.3706 8.03906 78.0308 5.71875 78.5815 5.78906C78.7339 5.82422 78.6987 8.05078 71.5503 9.98438C76.4956 8.69531 79.3667 6.30469 79.3315 6.5625C79.3667 6.62109 78.8394 8.4375 74.5151 9.85547C75.7222 9.57422 79.0034 7.58203 78.9683 7.96875C79.0737 8.12109 75.8042 12.3281 69.8745 10.957C74.6089 12.1875 77.6675 9.22266 78.1011 9.28125C78.1948 9.29297 77.2339 11.8594 71.2808 12.0234C74.1284 11.7305 73.3081 12.0117 73.3081 12.0117C73.3081 12.0117 71.6323 13.3242 69.5933 12.4336C71.187 12.8672 71.3628 12.8906 71.398 13.0195C71.2925 13.207 69.9917 13.4648 68.7144 12.7852C69.7339 13.207 70.648 13.2773 70.6597 13.4297C70.648 13.4766 70.0034 13.8516 69.4175 13.582C68.8433 13.3242 63.523 10.0547 63.523 10.0547L72.5933 7.55859L72.9214 7.67578V7.6875ZM62.2573 16.5469C61.4605 16.5469 61.437 17.25 61.437 17.25C61.437 17.25 61.3784 17.3086 61.4136 17.6484L61.6128 17.3438C61.7065 17.3555 62.0698 17.4609 62.644 17.0156C62.1167 17.5664 62.4331 17.7656 62.4331 17.7656C62.4331 17.7656 62.3159 18.1992 62.7144 18.2812C62.5972 18.1055 62.6675 17.9531 62.6675 17.9531C62.6675 17.9531 63.23 17.8945 63.1948 17.2148C63.2065 17.8359 63.5464 17.9883 63.5464 17.9883C63.5464 17.9883 63.5464 18.3281 63.9097 18.3633C63.7222 18.1875 63.7573 17.918 63.7573 17.918C63.7573 17.918 64.2261 17.5664 63.8394 16.9805C64.0737 16.8398 64.273 16.4531 64.273 16.4531C64.273 16.4531 63.9448 16.3125 63.7925 16.1953C63.7222 16.043 63.7925 15.1992 63.7925 15.1992L63.5815 14.1094L63.019 15.8086C63.0425 15.5742 63.0542 16.5469 62.2573 16.5469Z" fill="#EF7D00" stroke="black" stroke-width="0.117188" stroke-linejoin="round"/>
<path fill-rule="evenodd" clip-rule="evenodd" d="M66.1953 14.0977C66.2188 14.1094 66.793 14.7539 67.3555 14.7187C67.5664 14.543 66.9219 14.168 66.9219 14.0742C67.1562 14.2852 68.1055 15.1055 68.7266 14.8125C68.9609 14.4609 68.2813 14.5195 67.5313 13.5703C68.0586 13.9219 69.3711 14.6836 69.9922 14.3906C70.2383 14.1094 68.6211 13.2305 68.0703 12.5508L66.6641 11.8359L64.7656 13.3945L66.207 14.0977H66.1953Z" fill="#EF7D00" stroke="black" stroke-width="0.117188" stroke-linejoin="round"/>
<path fill-rule="evenodd" clip-rule="evenodd" d="M64.0508 8.76546C64.0508 8.76546 64.6953 8.39046 67.2852 8.57796C67.5664 8.61311 69.043 8.07405 69.5234 7.90999C70.2734 7.76936 72.6875 7.25374 73.3203 6.76155C73.7891 6.70296 73.2031 7.59358 72.6172 7.81624C72.0078 8.08577 69.793 8.85921 68.9961 8.75374C69.9453 8.76546 69.418 9.5389 67.8477 9.17561C68.5977 9.59749 68.3164 9.6678 68.3164 9.6678C68.3164 9.6678 66.9922 9.73811 66.6406 9.43343C67.5313 9.77327 67.1562 9.90218 67.1562 9.90218C67.1562 9.90218 66.2539 9.98421 65.832 9.78499C66.4766 9.98421 66.1484 10.1014 66.1484 10.1014C66.1484 10.1014 65.6211 10.1951 65.1875 10.0311C64.7422 9.87874 64.0859 8.77718 64.0508 8.77718V8.76546Z" fill="#EF7D00" stroke="black" stroke-width="0.117188" stroke-linecap="round" stroke-linejoin="round"/>
<path fill-rule="evenodd" clip-rule="evenodd" d="M65.082 14.4609L65.1758 16.1719L65.082 16.3125C65.0469 16.3594 63.875 16.125 64.0273 17.0156C64.0273 17.3906 64.0273 17.4844 64.2851 17.6836C64.2265 17.4492 64.2383 17.2734 64.2383 17.2734C64.2383 17.2734 64.5781 17.4727 64.8945 16.9219C64.6719 17.4609 64.8242 17.6602 64.8828 17.6719C64.9297 17.7656 64.789 18.1992 65.2344 18.1875C65.0586 18.0234 65.1406 17.7891 65.1406 17.7891C65.1406 17.7891 65.6094 17.7188 65.4453 16.8867C65.6094 16.7227 65.6797 16.8867 65.6797 16.8867C65.6797 16.8867 65.7265 17.3789 66.1367 17.2734C66.3125 17.3789 66.1015 17.6484 66.1015 17.6484C66.1015 17.6484 66.3945 17.6484 66.4883 17.4141C66.5703 17.1563 66.6758 16.7109 66.1953 16.5234C66.1367 16.3477 66.3828 16.3359 66.3828 16.3359C66.3828 16.3359 66.6875 16.4414 66.7812 16.5938C66.875 16.7461 66.8398 16.1953 66.4531 16.125C65.9844 16.125 65.9609 16.0195 65.9609 16.0078L65.8437 14.4023L65.082 14.4609Z" fill="#EF7D00" stroke="black" stroke-width="0.117188" stroke-linejoin="round"/>
<path fill-rule="evenodd" clip-rule="evenodd" d="M66.7102 15.9142C66.7102 15.8322 65.9133 14.7541 66.1242 14.6252C66.3234 14.6603 66.6516 15.1525 66.9328 14.9884C66.8508 14.8009 66.6047 14.9064 66.3352 14.4142C66.0539 13.8517 66.0187 13.0197 65.0461 12.1173C65.6789 13.0783 67.0852 13.6408 67.1555 13.3595C67.2258 13.0783 65.9016 12.0236 65.9719 11.7658C66.2297 12.2814 67.5422 13.4533 68.5031 13.3595C68.5734 13.1252 67.718 12.6798 67.4953 12.258C66.8742 11.8361 65.2219 10.4181 65.1984 10.09C64.9077 9.59572 64.5116 9.1716 64.0383 8.84781C63.9947 8.78792 63.9629 8.72032 63.9445 8.64859C63.5695 7.76968 64.0617 7.47671 64.3547 7.44156C64.5891 7.4064 64.6594 7.44156 64.8234 7.35953L64.2258 7.12515C64.4953 7.32437 65.1633 7.14859 65.0227 7.71109C65.3156 7.5939 65.9484 6.8439 64.3078 6.67984C63.7688 6.07046 61.5773 5.7189 61.0266 8.39078C61.0734 8.42593 61.0969 8.46109 61.2375 8.55484C60.5344 8.22671 58.6711 7.9689 58.0031 7.85171C56.175 7.33609 54.2883 6.07046 54.1125 6.22281C53.8781 6.33999 55.2141 7.58218 55.1438 7.60562C54.1015 7.01211 53.0254 6.47996 51.9211 6.01187C51.218 5.75406 50.5266 5.14468 50.4563 5.26187C50.1984 5.78921 51.5695 7.12515 51.8273 7.27749C52.0852 7.42984 54.0891 8.36734 54.0539 8.37906C51.0305 7.00796 50.5383 6.75015 50.3742 6.59781C50.1047 6.53921 49.4602 5.66031 49.2844 5.7189C49.1789 5.81265 49.3781 7.19546 50.8195 7.82828C51.0539 7.99234 53.9133 9.01187 53.8898 9.0939C53.8898 9.11734 50.6086 7.74624 50.4914 7.68765C49.8586 7.45328 49.0852 6.58609 48.9445 6.67984C48.8039 6.77359 49.2961 7.71109 49.9289 8.00406C50.2688 8.14468 51.5461 8.77749 52.6945 9.17593C52.7648 9.21109 50.6203 8.36734 49.5891 7.94546C49.1203 7.68765 48.9094 7.35953 48.8391 7.42984C48.7219 7.50015 49.0031 8.88296 52.3195 9.6564C52.4016 9.70328 53.4914 9.41031 53.4328 9.44546C52.8242 9.59846 52.2054 9.70811 51.5813 9.77359C51.5461 9.86734 51.7922 10.3595 53.5031 10.2658C53.7141 10.2541 54.9094 9.83218 54.8039 9.91421C54.2347 10.1314 53.6559 10.323 53.0695 10.4884C52.9641 10.4884 52.4133 10.5587 52.3898 10.6056C52.3664 10.6994 52.8 11.0509 53.7141 11.0978C54.5344 11.1447 56.0813 10.6056 56.0578 10.6408C56.0109 10.6759 54.5578 11.1798 54.5227 11.2033C54.4641 11.2384 53.9367 11.2619 53.9133 11.3087C53.8664 11.4142 54.6867 12.1759 57.0891 11.3556C56.8547 11.6837 55.6828 11.9064 55.6828 11.965C55.6828 12.0119 55.9406 12.258 56.3508 12.3517C56.55 12.3986 56.8313 12.3869 57.0891 12.3517C57.5578 12.258 58.0266 12.0822 58.6477 11.508C58.718 11.6837 57.1125 12.5041 57.1828 12.5744C57.5344 12.9025 58.6945 12.5392 58.7648 12.4923C58.8469 12.4572 60.9914 11.2384 60.9914 11.0861C61.0266 11.2736 58.2141 12.8087 58.2492 12.8673C58.425 13.1486 59.3859 12.8556 59.4211 12.8205L60.6867 12.1408C60.7219 12.1291 59.3039 12.9611 59.4211 13.1017C59.3625 13.6525 61.6477 12.7267 61.8234 12.6095C61.9055 12.5509 60.7219 13.1252 60.7219 13.3947C61.1086 14.0392 62.3273 13.84 62.5148 13.6994C62.6086 13.6291 62.3977 14.1681 62.468 14.1212C62.6121 13.9738 62.7308 13.8035 62.8195 13.6173C62.7961 13.8048 62.6555 14.0861 62.5852 14.4142C62.5031 14.7306 62.4797 15.1056 62.3742 15.4923C62.3508 15.6564 63.1242 15.1525 63.007 13.9455C63.0773 14.5783 62.7727 15.7502 62.8547 15.8205C63.007 15.9377 63.4641 15.2345 63.5109 14.7541C63.6398 14.9884 63.9211 15.4923 64.1672 15.6095C64.1437 15.2462 64.1672 15.258 64.05 14.9064C64.1203 14.4259 64.132 13.7697 64.1438 13.0197C64.8 14.2736 65.0695 14.8127 64.882 15.7736C65.0812 15.8556 65.3859 15.0939 65.3625 14.7189C65.4358 15.0331 65.6048 15.3169 65.8462 15.531C66.0875 15.7451 66.3894 15.879 66.7102 15.9142Z" fill="#EF7D00" stroke="black" stroke-width="0.128906" stroke-linecap="round" stroke-linejoin="round"/>
<path fill-rule="evenodd" clip-rule="evenodd" d="M55.7891 7.93359C55.7891 7.93359 55.332 8.27344 54.7812 8.25C54.9219 8.8125 56.0703 8.37891 56.0703 8.37891C56.0703 8.37891 55.5195 9 55.1211 9.09375C55.3555 9.29297 56.3633 9.22266 56.5273 9.12891C56.6914 9.02344 56.9961 8.63672 56.9961 8.63672C56.9961 8.63672 55.9648 9.83203 55.8242 9.82031C55.7891 9.96094 56.8906 9.91406 57.1133 9.70313C57.3477 9.49219 57.9336 9.1875 57.9336 9.1875C57.9336 9.1875 56.4102 10.2422 56.3516 10.2422C56.9141 10.3828 58.0508 10.0547 58.7773 9.60938C57.6992 10.3242 57.6055 10.4531 57.0547 10.6992C57.5469 10.8047 57.793 11.1328 59.4336 10.418C60.3711 9.97266 60.9102 9.15234 60.9102 9.15234C60.1946 9.99646 59.3382 10.7102 58.3789 11.2617C58.3203 11.3789 59.4805 11.8711 60.9453 10.3359" fill="#EF7D00"/>
<path d="M55.7891 7.93359C55.7891 7.93359 55.332 8.27344 54.7812 8.25C54.9219 8.8125 56.0703 8.37891 56.0703 8.37891C56.0703 8.37891 55.5195 9 55.1211 9.09375C55.3555 9.29297 56.3633 9.22266 56.5273 9.12891C56.6914 9.02344 56.9961 8.63672 56.9961 8.63672C56.9961 8.63672 55.9648 9.83203 55.8242 9.82031C55.7891 9.96094 56.8906 9.91406 57.1133 9.70313C57.3477 9.49219 57.9336 9.1875 57.9336 9.1875C57.9336 9.1875 56.4102 10.2422 56.3516 10.2422C56.9141 10.3828 58.0508 10.0547 58.7773 9.60938C57.6992 10.3242 57.6055 10.4531 57.0547 10.6992C57.5469 10.8047 57.793 11.1328 59.4336 10.418C60.3711 9.97266 60.9102 9.15234 60.9102 9.15234C60.1946 9.99646 59.3382 10.7102 58.3789 11.2617C58.3203 11.3789 59.4805 11.8711 60.9453 10.3359" stroke="black" stroke-width="0.128906" stroke-linecap="round" stroke-linejoin="round"/>
<path fill-rule="evenodd" clip-rule="evenodd" d="M63.7578 11.25C63.7578 11.25 63.8633 11.7188 64.2617 12.0703C64.6602 12.4219 64.6836 12.7734 64.6836 12.7734M63.5703 8.20312C63.5703 8.20312 63.6992 8.63672 64.1094 8.90625C64.5313 9.16406 65.1641 10.0078 65.1992 10.1602C65.2461 10.3359 65.4922 11.6367 65.4688 11.7773M61.0391 8.84766C61.0625 9.02344 60.4531 9.82031 61.2969 10.7695C60.5234 11.707 60.5234 11.8242 60.5234 11.8242C60.5234 11.8242 60.957 12.0586 61.7188 11.4023C62.9844 12.9492 62.5625 13.6523 62.5625 13.6523" fill="#EF7D00"/>
<path d="M63.7578 11.25C63.7578 11.25 63.8633 11.7188 64.2617 12.0703C64.6602 12.4219 64.6836 12.7734 64.6836 12.7734M63.5703 8.20312C63.5703 8.20312 63.6992 8.63672 64.1094 8.90625C64.5313 9.16406 65.1641 10.0078 65.1992 10.1602C65.2461 10.3359 65.4922 11.6367 65.4688 11.7773M61.0391 8.84766C61.0625 9.02344 60.4531 9.82031 61.2969 10.7695C60.5234 11.707 60.5234 11.8242 60.5234 11.8242C60.5234 11.8242 60.957 12.0586 61.7188 11.4023C62.9844 12.9492 62.5625 13.6523 62.5625 13.6523" stroke="black" stroke-width="0.128906" stroke-linecap="round"/>
<path fill-rule="evenodd" clip-rule="evenodd" d="M62.4563 12.5625C62.4563 12.5625 62.3391 12.3984 62.55 11.7773C62.7375 12.0117 62.9485 12.0469 63.0305 12.1289C63.1243 12.2344 64.0852 12.3633 64.1321 13.0078" fill="#EF7D00"/>
<path d="M62.4563 12.5625C62.4563 12.5625 62.3391 12.3984 62.55 11.7773C62.7375 12.0117 62.9485 12.0469 63.0305 12.1289C63.1243 12.2344 64.0852 12.3633 64.1321 13.0078" stroke="black" stroke-width="0.128906" stroke-linecap="round" stroke-linejoin="round"/>
<path fill-rule="evenodd" clip-rule="evenodd" d="M63.582 6.73817C63.582 6.6913 63.3828 6.26942 62.668 6.78505C63.0547 6.80849 63.4297 7.03114 63.582 6.73817Z" fill="#EF7D00" stroke="black" stroke-width="0.128906"/>
<path fill-rule="evenodd" clip-rule="evenodd" d="M70.4024 8.61328C70.4375 8.63672 72.5352 9.08203 73.2383 8.85937C72.3477 10.0547 70.5547 9.24609 70.5547 9.24609C71.4336 9.50391 71.4688 9.48047 71.75 9.73828C71.8438 9.97266 70.1328 9.85547 69.5821 9.53906C71.1406 10.0313 71.1758 10.0078 71.2227 10.1836C71.293 10.4531 68.668 10.1133 68.4453 9.77344C69.1485 10.3125 69.5235 10.418 69.9102 10.6641C69.4414 10.875 68.5625 11.0859 66.9571 9.94922C69.0664 11.8711 70.9766 11.7539 71.2813 12.0937C70.543 13.1836 67.6836 11.4492 66.3711 10.5703C65.0586 9.69141 69.2422 12.6914 69.6289 12.6445C69.4414 12.9375 68.0586 12.6797 67.9649 12.5273" fill="#EF7D00"/>
<path d="M70.4024 8.61328C70.4375 8.63672 72.5352 9.08203 73.2383 8.85937C72.3477 10.0547 70.5547 9.24609 70.5547 9.24609C71.4336 9.50391 71.4688 9.48047 71.75 9.73828C71.8438 9.97266 70.1328 9.85547 69.5821 9.53906C71.1406 10.0313 71.1758 10.0078 71.2227 10.1836C71.293 10.4531 68.668 10.1133 68.4453 9.77344C69.1485 10.3125 69.5235 10.418 69.9102 10.6641C69.4414 10.875 68.5625 11.0859 66.9571 9.94922C69.0664 11.8711 70.9766 11.7539 71.2813 12.0937C70.543 13.1836 67.6836 11.4492 66.3711 10.5703C65.0586 9.69141 69.2422 12.6914 69.6289 12.6445C69.4414 12.9375 68.0586 12.6797 67.9649 12.5273" stroke="black" stroke-width="0.128906" stroke-linejoin="round"/>
<path fill-rule="evenodd" clip-rule="evenodd" d="M70.9414 10.6289C70.707 10.6641 69.9688 10.6641 69.8633 10.6406L70.9414 10.6289Z" fill="#EF7D00"/>
<path d="M70.9414 10.6289C70.707 10.6641 69.9687 10.6641 69.8633 10.6406" stroke="black" stroke-width="0.128906" stroke-linecap="round"/>
<path fill-rule="evenodd" clip-rule="evenodd" d="M55.168 7.61719C55.168 7.61719 56.7617 8.46094 57.4414 8.40234C57.3117 8.51179 57.1598 8.59176 56.9961 8.63672C57.1602 8.70703 57.6289 8.95312 58.332 8.80078L57.9453 9.15234C57.9453 9.15234 58.5547 9.38672 59.2344 9.03516C59.1178 9.17412 59.0083 9.31884 58.9062 9.46875L59.3867 9.50391" fill="#EF7D00"/>
<path d="M55.168 7.61719C55.168 7.61719 56.7617 8.46094 57.4414 8.40234C57.3117 8.51179 57.1598 8.59176 56.9961 8.63672C57.1602 8.70703 57.6289 8.95312 58.332 8.80078L57.9453 9.15234C57.9453 9.15234 58.5547 9.38672 59.2344 9.03516C59.1178 9.17412 59.0083 9.31884 58.9062 9.46875L59.3867 9.50391" stroke="black" stroke-width="0.128906" stroke-linecap="round" stroke-linejoin="round"/>
</g>
</g>
<defs>
<clipPath id="clip0_3736_64742">
<rect width="80" height="60" fill="white"/>
</clipPath>
</defs>
</svg>
