<svg width="80" height="60" viewBox="0 0 80 60" fill="none" xmlns="http://www.w3.org/2000/svg">
<g clip-path="url(#clip0_3736_64760)">
<mask id="mask0_3736_64760" style="mask-type:luminance" maskUnits="userSpaceOnUse" x="-1" y="0" width="81" height="61">
<path d="M79.9929 0.00195312H-0.00976562V60.0027H79.9929V0.00195312Z" fill="white"/>
</mask>
<g mask="url(#mask0_3736_64760)">
<path d="M-0.289062 -0.0126953H122.792V59.9738H-0.289062V-0.0126953Z" fill="#006400"/>
<path d="M-0.289062 8.55664H122.792V51.4041H-0.289062V8.55664Z" fill="#FFD200"/>
<path d="M-0.289062 17.126H122.792V42.8345H-0.289062V17.126Z" fill="#D40000"/>
<path d="M-0.289062 25.6963H122.792V34.2658H-0.289062V25.6963Z" fill="black"/>
<path d="M-0.289062 -0.0126953V59.9738L40.7379 29.9806L-0.289062 -0.0126953Z" fill="black" stroke="black" stroke-width="2.89326"/>
<path d="M-0.289062 -0.0126953V59.9738L40.7379 29.9806L-0.289062 -0.0126953Z" fill="white"/>
<path d="M15.3152 14.8984L23.4473 39.2787L2.17188 24.2106H28.4731L7.18303 39.2787L15.3152 14.8984Z" fill="#D40000"/>
<path d="M11.8431 36.2216L13.2791 35.9645L15.9312 35.8646L16.9129 35.9503L19.1107 36.3073L19.2719 36.0931V34.5506L19.5357 33.2223L19.9752 31.8797L20.4588 30.8086L21.0742 29.6945L22.0706 29.9373H22.3343L22.3636 29.7516L20.2536 27.9949L18.0558 26.3524L14.8762 24.0386L14.5831 23.9672L14.2461 21.5392L13.997 20.8108L13.66 20.5252L13.03 20.3252L12.3266 20.3538L12.0043 20.5252L11.3303 20.668L10.9786 20.7251L10.7442 20.9965L10.7149 21.3393L11.6966 21.3678L11.9457 21.4678L11.9164 21.5678L11.3596 21.6392L11.0958 21.7249L11.4035 21.9534L11.7259 22.0677L12.1362 22.2105L12.2241 22.4961L12.2534 26.181L12.0336 26.7523L11.9603 27.8235L12.2827 29.1089L11.4621 30.023L10.9933 30.8371L10.9054 31.337L10.6563 31.8369L10.627 32.1511L10.7881 32.4939L11.4182 34.522L11.7405 36.1931L11.8431 36.2216Z" fill="#FFCC00"/>
<path d="M12.6052 20.2689C12.3415 20.2689 12.2243 20.2975 11.9752 20.426C11.7688 20.5412 11.5384 20.6095 11.3012 20.626C10.9348 20.626 10.6418 20.883 10.6418 21.2115V21.4258L11.1693 21.4115C12.7225 21.4543 11.3158 21.5972 11.1986 21.6114C10.8176 21.6829 11.2865 21.9828 11.7407 22.1399C12.2243 22.2827 12.195 22.197 12.195 24.2823C12.195 25.9819 12.195 26.2247 12.0484 26.6103C11.858 27.1816 11.858 28.0386 12.0484 28.6099C12.1364 28.8384 12.195 29.0383 12.195 29.0812C12.195 29.1098 11.9605 29.3811 11.6821 29.6953C11.1693 30.2666 10.8616 30.8522 10.8616 31.2664C10.8433 31.3997 10.7931 31.5269 10.7151 31.6378C10.5246 31.8806 10.5246 32.2948 10.7004 32.4519C10.8909 32.6233 11.6675 35.5654 11.6821 36.1225C11.6821 36.3224 11.7114 36.3224 12.8983 36.0939C13.8653 35.9082 16.1365 35.8654 17.294 36.0082C17.8215 36.0796 18.4369 36.1939 18.6567 36.2367C19.36 36.4224 19.3307 36.451 19.3307 35.6226C19.3361 34.3174 19.5895 33.0244 20.078 31.8092C20.358 31.1167 20.6962 30.4479 21.089 29.8096C21.089 29.8096 21.3528 29.8382 21.6751 29.9239C22.2759 30.0667 22.4517 30.0524 22.4517 29.781C22.4517 29.6382 21.8217 29.124 18.73 26.7817C17.483 25.7869 16.1975 24.8388 14.8764 23.9395C14.7885 23.9395 14.7005 23.8966 14.6859 23.8395L14.4661 22.4827C14.3635 21.7828 14.217 21.0973 14.1584 20.9545C13.9533 20.526 13.5576 20.3117 12.8983 20.2689C12.8006 20.2658 12.7029 20.2658 12.6052 20.2689ZM12.6199 20.4117H12.9129C13.88 20.4688 14.0558 20.7259 14.3196 22.4113C14.3908 22.8571 14.4494 23.3048 14.4954 23.7538C14.4954 23.8681 14.3635 24.0109 14.0265 24.2251C13.472 24.6044 12.9783 25.0616 12.5613 25.582L12.3708 25.8391L12.3268 25.2392V23.5539C12.3708 22.3113 12.3268 22.197 11.9166 22.0542C11.5796 21.9399 11.14 21.8257 11.2572 21.7543C11.4037 21.6686 11.5503 21.7257 11.9019 21.6257C12.0484 21.5972 12.0338 21.6114 12.0045 21.4972C11.9752 21.3115 11.77 21.2115 11.2279 21.2401C10.7883 21.2687 10.7444 21.2544 10.7737 21.1401C10.8323 20.9116 11.0667 20.7688 11.433 20.7259C11.6573 20.7006 11.8754 20.6378 12.0777 20.5403C12.2413 20.4444 12.4291 20.395 12.6199 20.3974V20.4117ZM14.8031 24.0966H14.8617C15.1108 24.1394 22.3052 29.6239 22.3052 29.781C22.3052 29.8382 22.2466 29.881 22.1587 29.881C22.1001 29.881 20.2685 29.3811 18.0999 28.767C14.6419 27.7672 14.1437 27.6244 13.9972 27.4387C13.8953 27.3132 13.8386 27.1584 13.836 26.9984C13.8333 26.8383 13.8848 26.6818 13.9826 26.5532C14.0529 26.47 14.103 26.3723 14.1291 26.2675C14.1291 26.0962 13.7628 26.5246 13.6895 26.7674C13.6163 27.0531 13.7628 27.5387 13.9826 27.6958C14.0705 27.7672 14.7298 27.9814 15.4478 28.1957C16.6786 28.5385 16.7665 28.5813 16.8252 28.7813C16.9717 29.2526 16.4588 29.8096 15.7262 29.9667C15.4515 30.0308 15.1926 30.1473 14.9643 30.3095C14.2041 30.9232 13.3548 31.4238 12.4441 31.7949C12.3854 31.8377 12.3122 32.0662 12.2682 32.2805C12.1803 32.7518 12.151 32.8232 12.0045 32.8232C11.9312 32.8232 11.9166 32.7804 11.9752 32.6233C12.0777 32.3376 12.0631 31.9948 11.9605 31.9948C11.8873 31.9948 11.858 32.0948 11.858 32.2519C11.858 32.3947 11.814 32.5661 11.7554 32.609C11.6821 32.6947 11.6675 32.6375 11.6968 32.2805C11.7261 32.0377 11.7114 31.852 11.6821 31.852C11.6089 31.852 11.477 32.2091 11.433 32.5233C11.4037 32.7089 11.4037 32.7089 11.3451 32.4804C11.3012 32.309 11.3158 32.1948 11.4477 31.9805C11.5309 31.8254 11.5808 31.6553 11.5942 31.4807C11.5942 31.295 11.7407 31.1093 12.4294 30.438C12.869 29.9953 13.4111 29.4383 13.6016 29.1955C13.9386 28.7955 13.9533 28.767 13.9386 28.3528C13.9386 28.1243 13.9093 27.91 13.88 27.8815C13.7921 27.7958 13.6749 28.2528 13.7335 28.4956C13.7628 28.7241 13.7335 28.7955 13.2499 29.3526C12.9021 29.7408 12.5353 30.1125 12.151 30.4666C11.5796 30.9808 11.3744 31.2664 11.3744 31.5235C11.3744 31.6092 11.3158 31.8092 11.2279 31.9948C11.14 32.1805 11.1107 32.3662 11.14 32.409C11.1693 32.4519 11.14 32.4519 11.096 32.409C11.0228 32.3376 11.0228 32.2233 11.0814 31.9805C11.1149 31.8596 11.1249 31.7337 11.1107 31.6092C11.0374 31.4664 10.9348 31.6378 10.8909 31.9948C10.8616 32.1948 10.8176 32.3519 10.7737 32.3233C10.6711 32.2662 10.7004 31.8948 10.8323 31.6949C10.9055 31.5949 10.9788 31.3664 11.0228 31.1807C11.1253 30.6523 11.3598 30.2238 11.8726 29.6525C12.0369 29.4782 12.1933 29.2972 12.3415 29.1098L12.195 28.6384C11.9984 28.0016 11.9883 27.3239 12.1657 26.6817C12.3561 26.139 12.7371 25.5963 13.3379 25.0107C13.924 24.4537 14.4954 24.1109 14.8031 24.0966ZM17.001 28.6956C17.0195 28.6942 17.0382 28.6954 17.056 28.6991C17.0737 28.7028 17.09 28.7089 17.1039 28.717C17.1177 28.7251 17.1287 28.735 17.1363 28.7461C17.1438 28.7572 17.1476 28.7692 17.1475 28.7813C17.1385 28.7981 17.1217 28.8126 17.0994 28.8229C17.077 28.8333 17.0503 28.8388 17.023 28.8388C16.9956 28.8388 16.9689 28.8333 16.9466 28.8229C16.9242 28.8126 16.9074 28.7981 16.8984 28.7813C16.8977 28.7615 16.9075 28.7421 16.9262 28.7265C16.9448 28.7109 16.9713 28.7 17.001 28.6956ZM17.3673 28.7384C17.3858 28.7371 17.4045 28.7383 17.4223 28.742C17.44 28.7457 17.4563 28.7518 17.4702 28.7599C17.484 28.768 17.4951 28.7779 17.5026 28.789C17.5101 28.8 17.5139 28.812 17.5138 28.8241C17.5048 28.8409 17.488 28.8555 17.4657 28.8658C17.4434 28.8761 17.4167 28.8816 17.3893 28.8816C17.3619 28.8816 17.3352 28.8761 17.3129 28.8658C17.2906 28.8555 17.2737 28.8409 17.2647 28.8241C17.264 28.8043 17.2738 28.785 17.2925 28.7694C17.3112 28.7537 17.3376 28.7428 17.3673 28.7384ZM17.7483 28.8098C17.7668 28.8085 17.7855 28.8097 17.8032 28.8134C17.821 28.8171 17.8373 28.8232 17.8511 28.8313C17.865 28.8394 17.876 28.8493 17.8835 28.8604C17.8911 28.8714 17.8949 28.8834 17.8948 28.8955C17.8858 28.9123 17.869 28.9269 17.8466 28.9372C17.8243 28.9475 17.7976 28.953 17.7702 28.953C17.7429 28.953 17.7162 28.9475 17.6938 28.9372C17.6715 28.9269 17.6547 28.9123 17.6457 28.8955C17.6449 28.8757 17.6547 28.8564 17.6734 28.8408C17.6921 28.8252 17.7186 28.8142 17.7483 28.8098ZM18.0999 28.8812C18.1184 28.8799 18.1372 28.8811 18.1549 28.8848C18.1726 28.8885 18.189 28.8946 18.2028 28.9027C18.2166 28.9108 18.2277 28.9207 18.2352 28.9318C18.2427 28.9429 18.2466 28.9548 18.2464 28.9669C18.2374 28.9837 18.2206 28.9983 18.1983 29.0086C18.176 29.0189 18.1493 29.0245 18.1219 29.0245C18.0945 29.0245 18.0678 29.0189 18.0455 29.0086C18.0232 28.9983 18.0064 28.9837 17.9974 28.9669C17.9966 28.9471 18.0064 28.9278 18.0251 28.9122C18.0438 28.8966 18.0702 28.8856 18.0999 28.8812ZM17.1768 28.9669C17.1953 28.9656 17.2141 28.9668 17.2318 28.9705C17.2495 28.9742 17.2658 28.9803 17.2797 28.9884C17.2935 28.9965 17.3046 29.0064 17.3121 29.0175C17.3196 29.0285 17.3235 29.0405 17.3233 29.0526C17.3143 29.0694 17.2975 29.084 17.2752 29.0943C17.2529 29.1046 17.2262 29.1102 17.1988 29.1102C17.1714 29.1102 17.1447 29.1046 17.1224 29.0943C17.1001 29.084 17.0832 29.0694 17.0742 29.0526C17.0735 29.0328 17.0833 29.0135 17.102 28.9979C17.1207 28.9823 17.1471 28.9713 17.1768 28.9669ZM17.5285 29.0241C17.547 29.0227 17.5657 29.0239 17.5834 29.0276C17.6012 29.0313 17.6175 29.0374 17.6313 29.0455C17.6452 29.0536 17.6562 29.0635 17.6638 29.0746C17.6713 29.0857 17.6751 29.0977 17.675 29.1098C17.666 29.1266 17.6492 29.1411 17.6269 29.1514C17.6045 29.1617 17.5778 29.1673 17.5505 29.1673C17.5231 29.1673 17.4964 29.1617 17.474 29.1514C17.4517 29.1411 17.4349 29.1266 17.4259 29.1098C17.4251 29.09 17.4349 29.0706 17.4536 29.055C17.4723 29.0394 17.4988 29.0285 17.5285 29.0241ZM18.2904 29.0526C18.3089 29.0513 18.3276 29.0525 18.3454 29.0562C18.3631 29.0599 18.3794 29.066 18.3933 29.0741C18.4071 29.0822 18.4182 29.0921 18.4257 29.1032C18.4332 29.1142 18.437 29.1262 18.4369 29.1383C18.4279 29.1551 18.4111 29.1697 18.3888 29.18C18.3665 29.1903 18.3398 29.1959 18.3124 29.1959C18.285 29.1959 18.2583 29.1903 18.236 29.18C18.2137 29.1697 18.1968 29.1551 18.1878 29.1383C18.1871 29.1185 18.1969 29.0992 18.2156 29.0836C18.2343 29.068 18.2607 29.057 18.2904 29.0526ZM17.8948 29.0526C17.9133 29.0513 17.932 29.0525 17.9498 29.0562C17.9675 29.0599 17.9838 29.066 17.9977 29.0741C18.0115 29.0822 18.0225 29.0921 18.0301 29.1032C18.0376 29.1142 18.0414 29.1262 18.0413 29.1383C18.0323 29.1551 18.0155 29.1697 17.9932 29.18C17.9708 29.1903 17.9441 29.1959 17.9168 29.1959C17.8894 29.1959 17.8627 29.1903 17.8404 29.18C17.818 29.1697 17.8012 29.1551 17.7922 29.1383C17.7915 29.1185 17.8013 29.0992 17.82 29.0836C17.8387 29.068 17.8651 29.057 17.8948 29.0526ZM18.6274 29.1383C18.6421 29.1383 19.1696 29.2526 19.7996 29.424L20.9572 29.7525L20.7374 30.1381C20.6146 30.3446 20.4973 30.5541 20.3857 30.7665C20.2392 31.0522 20.2099 31.0522 19.5066 30.8951C18.7446 30.7237 17.5431 30.5666 16.3123 30.4666L15.1401 30.3666L15.5797 30.2095C15.8451 30.1099 16.1044 29.9955 16.3563 29.8667C16.6493 29.7096 16.7665 29.6811 17.2208 29.7239C17.8801 29.7668 18.3197 29.6382 18.4955 29.3811L18.6421 29.1383H18.6274ZM17.338 29.224C17.3565 29.2227 17.3752 29.2239 17.393 29.2276C17.4107 29.2313 17.427 29.2374 17.4409 29.2455C17.4547 29.2536 17.4658 29.2635 17.4733 29.2746C17.4808 29.2856 17.4846 29.2976 17.4845 29.3097C17.4755 29.3265 17.4587 29.3411 17.4364 29.3514C17.4141 29.3617 17.3874 29.3672 17.36 29.3672C17.3326 29.3672 17.3059 29.3617 17.2836 29.3514C17.2612 29.3411 17.2444 29.3265 17.2354 29.3097C17.2347 29.2899 17.2445 29.2706 17.2632 29.255C17.2819 29.2393 17.3083 29.2284 17.338 29.224ZM18.1585 29.224C18.177 29.2227 18.1958 29.2239 18.2135 29.2276C18.2312 29.2313 18.2476 29.2374 18.2614 29.2455C18.2752 29.2536 18.2863 29.2635 18.2938 29.2746C18.3013 29.2856 18.3052 29.2976 18.3051 29.3097C18.294 29.3237 18.2772 29.3354 18.2565 29.3436C18.2358 29.3518 18.2121 29.3561 18.1878 29.3561C18.1636 29.3561 18.1399 29.3518 18.1192 29.3436C18.0985 29.3354 18.0817 29.3237 18.0706 29.3097C18.0699 29.2899 18.0797 29.2706 18.0984 29.255C18.117 29.2393 18.1435 29.2284 18.1732 29.224H18.1585ZM16.9863 29.224C17.0048 29.2227 17.0236 29.2239 17.0413 29.2276C17.059 29.2313 17.0754 29.2374 17.0892 29.2455C17.103 29.2536 17.1141 29.2635 17.1216 29.2746C17.1291 29.2856 17.133 29.2976 17.1329 29.3097C17.1239 29.3265 17.107 29.3411 17.0847 29.3514C17.0624 29.3617 17.0357 29.3672 17.0083 29.3672C16.9809 29.3672 16.9542 29.3617 16.9319 29.3514C16.9096 29.3411 16.8928 29.3265 16.8838 29.3097C16.8876 29.2924 16.8995 29.2763 16.9179 29.2636C16.9362 29.2508 16.9601 29.242 16.9863 29.2383V29.224ZM17.7629 29.2526C17.7968 29.2498 17.831 29.2557 17.8584 29.2691C17.8857 29.2824 17.904 29.3021 17.9094 29.324C17.9004 29.3408 17.8836 29.3554 17.8613 29.3657C17.839 29.376 17.8123 29.3815 17.7849 29.3815C17.7575 29.3815 17.7308 29.376 17.7085 29.3657C17.6862 29.3554 17.6693 29.3408 17.6603 29.324C17.6642 29.3067 17.6761 29.2906 17.6944 29.2779C17.7128 29.2651 17.7367 29.2563 17.7629 29.2526ZM16.7958 29.4097C16.8144 29.4083 16.8331 29.4096 16.8508 29.4133C16.8686 29.417 16.8849 29.4231 16.8987 29.4312C16.9126 29.4393 16.9236 29.4492 16.9311 29.4602C16.9387 29.4713 16.9425 29.4833 16.9424 29.4954C16.9334 29.5122 16.9165 29.5268 16.8942 29.5371C16.8719 29.5474 16.8452 29.5529 16.8178 29.5529C16.7904 29.5529 16.7637 29.5474 16.7414 29.5371C16.7191 29.5268 16.7023 29.5122 16.6933 29.4954C16.6925 29.4756 16.7023 29.4563 16.721 29.4406C16.7397 29.425 16.7662 29.4141 16.7958 29.4097ZM17.1622 29.4097C17.1827 29.408 17.2035 29.4095 17.223 29.414C17.2425 29.4185 17.2601 29.4259 17.2743 29.4356C17.2886 29.4453 17.2991 29.4571 17.3051 29.47C17.3111 29.4828 17.3123 29.4964 17.3087 29.5097C17.2997 29.5265 17.2829 29.541 17.2605 29.5513C17.2382 29.5617 17.2115 29.5672 17.1841 29.5672C17.1568 29.5672 17.1301 29.5617 17.1077 29.5513C17.0854 29.541 17.0686 29.5265 17.0596 29.5097C17.0588 29.4899 17.0686 29.4705 17.0873 29.4549C17.106 29.4393 17.1325 29.4284 17.1622 29.424V29.4097ZM17.5431 29.4383C17.577 29.4355 17.6112 29.4414 17.6386 29.4547C17.6659 29.4681 17.6842 29.4877 17.6897 29.5097C17.6807 29.5265 17.6638 29.541 17.6415 29.5513C17.6192 29.5617 17.5925 29.5672 17.5651 29.5672C17.5377 29.5672 17.511 29.5617 17.4887 29.5513C17.4664 29.541 17.4496 29.5265 17.4406 29.5097C17.4444 29.4924 17.4563 29.4763 17.4747 29.4635C17.493 29.4508 17.5169 29.442 17.5431 29.4383ZM17.9534 29.4383C17.9719 29.4369 17.9906 29.4381 18.0084 29.4418C18.0261 29.4455 18.0424 29.4516 18.0563 29.4597C18.0701 29.4678 18.0812 29.4777 18.0887 29.4888C18.0962 29.4999 18.1 29.5118 18.0999 29.524C18.0909 29.5408 18.0741 29.5553 18.0518 29.5656C18.0295 29.5759 18.0028 29.5815 17.9754 29.5815C17.948 29.5815 17.9213 29.5759 17.899 29.5656C17.8767 29.5553 17.8598 29.5408 17.8508 29.524C17.8501 29.5042 17.8599 29.4848 17.8786 29.4692C17.8973 29.4536 17.9237 29.4426 17.9534 29.4383ZM14.9789 30.5951C16.7086 30.6399 18.4303 30.8407 20.122 31.195C20.1366 31.2093 20.0341 31.5521 19.8729 31.9663L19.5798 32.8232C19.5652 32.8946 19.4626 32.8946 19.2135 32.8661C17.9974 32.6804 14.4808 32.6947 13.1327 32.8946C12.3561 33.0089 12.2536 32.9946 12.3122 32.8375L12.4587 32.3376L12.5466 31.952L13.3379 31.5521C13.8653 31.2897 14.3657 30.9789 14.8324 30.6237H14.9643L14.9789 30.5951ZM11.0228 32.6233C11.0667 32.6233 11.1546 32.6661 11.2572 32.7375C11.4037 32.8232 11.5796 32.8946 11.6528 32.8946C12.0338 32.8946 12.2389 33.4231 12.5613 35.1798L12.6785 35.8083C12.7078 35.9511 12.6785 35.9796 12.3415 36.0511C11.9312 36.1367 11.8287 36.151 11.8287 36.0939C11.8287 35.9511 11.4184 34.1372 11.2426 33.4945C11.155 33.2114 11.0768 32.9256 11.0081 32.6375C11.0103 32.6363 11.0129 32.6356 11.0154 32.6356C11.018 32.6356 11.0205 32.6363 11.0228 32.6375V32.6233ZM15.2134 32.9089H15.6383L15.4918 33.0517C15.2427 33.3374 15.1255 33.3517 14.9496 33.166C14.8879 33.1038 14.8382 33.0312 14.8031 32.9518C14.8031 32.9232 14.9936 32.8946 15.2134 32.8946V32.9089ZM16.1072 32.9089H16.8984L16.7226 33.0803C16.5175 33.3088 16.5028 33.3088 16.283 33.0803L16.1072 32.8946V32.9089ZM17.3087 32.9089H17.4992C17.6017 32.9089 17.7922 32.9089 17.9094 32.9375L18.1292 32.9803L17.9241 33.166C17.8069 33.266 17.7043 33.3517 17.6897 33.3374L17.4845 33.1089L17.3087 32.8946V32.9089ZM18.5541 32.9518L18.73 32.9946C18.8325 33.0232 19.0523 33.0374 19.2135 33.0517H19.5066L19.2868 33.2374C19.2072 33.3098 19.1186 33.3722 19.023 33.4231C19.0084 33.4231 18.8765 33.3088 18.7739 33.1803L18.5541 32.9518ZM14.1291 32.966H14.1584C14.1731 32.9946 14.1144 33.1089 14.0119 33.2088L13.8653 33.4088L13.6456 33.2374L13.4258 33.0517L13.7774 33.0089L14.1291 32.966ZM14.4661 32.9946L14.7005 33.1946L14.935 33.4088L14.4954 33.4374L14.0558 33.4516L14.261 33.2374L14.4661 32.9946ZM17.1035 32.9946C17.1475 32.9946 17.1768 33.0089 17.2208 33.0374C17.2974 33.1077 17.3617 33.1898 17.4113 33.2802C17.4699 33.3945 17.4552 33.4231 17.2647 33.4231L16.8984 33.3517L16.7226 33.3088L16.9131 33.1231C17.001 33.0374 17.0596 32.9803 17.1182 32.9803L17.1035 32.9946ZM15.8874 32.9946C15.9607 32.9946 16.0339 33.0374 16.1218 33.1803C16.2244 33.3374 16.2244 33.3374 15.8288 33.3374H15.4332L15.6383 33.1517C15.7409 33.0517 15.8288 33.0089 15.8874 33.0089V32.9946ZM18.3783 33.0232L18.5541 33.1946C18.7593 33.3802 18.7886 33.4945 18.6421 33.4802L18.2318 33.4374L17.9094 33.4088L18.1439 33.2231L18.3783 33.0232ZM13.2206 33.1231C13.2499 33.1231 13.3672 33.1946 13.4551 33.2945L13.6309 33.4802L13.2646 33.5373L12.7518 33.6087C12.6492 33.6373 12.6785 33.5659 12.8983 33.3802C13.0448 33.2374 13.1913 33.1231 13.2206 33.1231ZM12.6785 33.1231H12.7371C12.8543 33.1517 12.8543 33.1803 12.6492 33.3802L12.4294 33.5945L12.3561 33.4088C12.2975 33.266 12.3122 33.2231 12.4441 33.166C12.5191 33.1388 12.5984 33.1243 12.6785 33.1231ZM19.4186 33.3802C19.448 33.3802 19.448 33.4088 19.4186 33.4659C19.3893 33.5802 19.2575 33.6087 19.2575 33.4945C19.2575 33.4659 19.3014 33.4231 19.36 33.3945H19.404L19.4186 33.3802ZM16.283 33.6087C17.4113 33.6087 18.5541 33.6373 18.8325 33.6659C19.2868 33.723 19.3307 33.7373 19.3307 33.9087C19.3307 34.1086 19.2721 34.1229 18.6567 34.0229C18.4809 33.9801 17.7336 33.923 17.0156 33.8658C15.6222 33.7837 14.2238 33.8315 12.8397 34.0087C12.5613 34.0372 12.488 34.0087 12.488 33.923C12.488 33.7373 13.9826 33.6087 16.283 33.6087ZM14.7738 34.0229H15.565L15.3892 34.2086C15.1694 34.4371 15.1548 34.4371 14.9496 34.2086L14.7738 34.0229ZM15.7995 34.0229L16.0046 34.2229L16.2097 34.4514L15.7848 34.4657H15.3599L15.5797 34.2372L15.7848 34.0229H15.7995ZM16.1072 34.0229H16.8984L16.7226 34.2086C16.5175 34.4371 16.5028 34.4371 16.283 34.2086L16.1072 34.0229ZM14.2317 34.0229C14.261 34.0229 14.2317 34.0944 14.1291 34.2372C14.0265 34.3657 13.924 34.4657 13.9093 34.4657C13.88 34.4657 13.7774 34.38 13.6895 34.28L13.5137 34.0944H13.7774C13.9115 34.095 14.0449 34.0758 14.1731 34.0372C14.1924 34.0334 14.2123 34.0334 14.2317 34.0372V34.0229ZM14.5247 34.0944L14.7152 34.2657L14.935 34.4514L14.554 34.48L14.1291 34.5085L14.3342 34.2943L14.5247 34.0944ZM17.0742 34.0944L17.2794 34.3229C17.5138 34.5657 17.4992 34.58 16.9717 34.48L16.7226 34.4371L16.8984 34.2657L17.0742 34.0944ZM17.3673 34.0944H17.719C18.0999 34.0944 18.1439 34.1515 17.9241 34.3514C17.7483 34.4943 17.7483 34.4943 17.5431 34.28L17.3673 34.0944ZM12.8836 34.1658C13.0595 34.1658 13.0448 34.18 12.825 34.3943C12.6638 34.5514 12.6492 34.5514 12.5906 34.4371C12.5466 34.2943 12.6785 34.18 12.8836 34.1658ZM18.5688 34.1943C18.6274 34.1943 18.7446 34.1943 18.8618 34.2229L19.1989 34.28L19.0084 34.4514L18.8325 34.6228L18.6714 34.4228L18.5248 34.1943H18.5688ZM13.2939 34.2657C13.3379 34.2657 13.3818 34.2943 13.4551 34.3657C13.6016 34.5085 13.6016 34.5085 13.4844 34.5657C13.3708 34.6021 13.2522 34.6213 13.1327 34.6228H12.8983L13.0888 34.4228C13.1913 34.3229 13.2353 34.28 13.2792 34.2657H13.2939ZM18.2904 34.3086C18.349 34.3086 18.393 34.3372 18.4662 34.4514L18.5981 34.6228H18.2904C18.0853 34.6228 17.9974 34.5942 17.9974 34.5371C18.0267 34.48 18.0999 34.3943 18.1878 34.3514L18.2904 34.3086ZM19.2282 34.4943C19.2575 34.4943 19.2575 34.5228 19.2575 34.5657C19.2575 34.7085 19.1256 34.8085 19.067 34.7085C19.0523 34.6657 19.0816 34.5942 19.1402 34.5514L19.2282 34.4943ZM15.4332 34.6657C16.7079 34.6657 18.1146 34.7513 18.9498 34.8942L19.1842 34.937V35.5654C19.1842 36.0368 19.1549 36.1939 19.0816 36.1939L18.349 36.0511C16.6547 35.771 14.9286 35.723 13.2206 35.9082L12.8836 35.9511L12.7957 35.4226C12.7593 35.2438 12.7397 35.0622 12.7371 34.8799C12.7371 34.8799 13.0741 34.8085 13.4697 34.7656C13.9533 34.6942 14.6712 34.6657 15.4332 34.6657Z" fill="black"/>
<path d="M17.9973 31.0947C17.5577 31.0947 17.25 31.3947 17.25 31.8374C17.25 32.523 18.0412 32.8658 18.5101 32.3802C18.979 31.8945 18.6566 31.0947 17.9973 31.0947ZM17.9973 31.2661C18.0742 31.2661 18.1505 31.2809 18.2216 31.3096C18.2927 31.3383 18.3573 31.3804 18.4117 31.4334C18.4661 31.4865 18.5093 31.5495 18.5388 31.6188C18.5682 31.6881 18.5834 31.7624 18.5834 31.8374C18.5834 32.2659 18.0998 32.5515 17.7042 32.3659C17.3086 32.1516 17.3379 31.4946 17.7628 31.3232C17.8319 31.2914 17.9064 31.272 17.9826 31.2661H17.9973Z" fill="black"/>
<path d="M17.9973 31.0947C17.5577 31.0947 17.25 31.3947 17.25 31.8374C17.25 32.523 18.0412 32.8658 18.5101 32.3802C18.979 31.8945 18.6566 31.0947 17.9973 31.0947ZM17.9973 31.2661C18.0742 31.2661 18.1505 31.2809 18.2216 31.3096C18.2927 31.3383 18.3573 31.3804 18.4117 31.4334C18.4661 31.4865 18.5093 31.5495 18.5388 31.6188C18.5682 31.6881 18.5834 31.7624 18.5834 31.8374C18.5834 32.2659 18.0998 32.5515 17.7042 32.3659C17.3086 32.1516 17.3379 31.4946 17.7628 31.3232C17.8319 31.2914 17.9064 31.272 17.9826 31.2661H17.9973Z" fill="black"/>
<path d="M12.6055 20.7401C12.5444 20.7437 12.4866 20.7705 12.4434 20.8153C12.4001 20.8601 12.3744 20.9198 12.3711 20.9829C12.3711 21.0531 12.3981 21.1204 12.4462 21.17C12.4943 21.2197 12.5595 21.2476 12.6275 21.2476C12.6955 21.2476 12.7607 21.2197 12.8088 21.17C12.8569 21.1204 12.8839 21.0531 12.8839 20.9829C12.8823 20.9477 12.8736 20.9131 12.8585 20.8815C12.8433 20.8499 12.822 20.8218 12.7959 20.799C12.7698 20.7762 12.7394 20.7592 12.7067 20.7491C12.6739 20.739 12.6395 20.7359 12.6055 20.7401ZM12.6202 20.8258C12.6668 20.8258 12.7115 20.8423 12.7445 20.8718C12.7775 20.9013 12.796 20.9412 12.796 20.9829C12.796 21.0246 12.7775 21.0645 12.7445 21.094C12.7115 21.1235 12.6668 21.14 12.6202 21.14C12.5736 21.14 12.5288 21.1235 12.4959 21.094C12.4629 21.0645 12.4444 21.0246 12.4444 20.9829C12.4444 20.9623 12.4489 20.9418 12.4577 20.9228C12.4666 20.9037 12.4795 20.8864 12.4959 20.8718C12.5122 20.8572 12.5316 20.8457 12.5529 20.8378C12.5742 20.8299 12.5971 20.8258 12.6202 20.8258Z" fill="black"/>
</g>
</g>
<defs>
<clipPath id="clip0_3736_64760">
<rect width="80" height="60" fill="white"/>
</clipPath>
</defs>
</svg>
